<svg preserveAspectRatio="xMinYMin meet" class="svg-content" height="345.6pt" version="1.1" viewBox="0 0 460.8 345.6" width="460.8pt" xmlns="http://www.w3.org/2000/svg" xmlns:xlink="http://www.w3.org/1999/xlink">
 <metadata>
  <rdf:rdf xmlns:cc="http://creativecommons.org/ns#" xmlns:dc="http://purl.org/dc/elements/1.1/" xmlns:rdf="http://www.w3.org/1999/02/22-rdf-syntax-ns#">
   <cc:work>
    <dc:type rdf:resource="http://purl.org/dc/dcmitype/StillImage"></dc:type>
    <dc:date>2021-04-22T08:34:24.147754</dc:date>
    <dc:format>image/svg+xml</dc:format>
    <dc:creator>
     <cc:agent>
      <dc:title>Matplotlib v3.4.0, https://matplotlib.org/</dc:title>
     </cc:agent>
    </dc:creator>
   </cc:work>
  </rdf:rdf>
 </metadata>
 <defs>
  <style type="text/css">*{stroke-linecap:butt;stroke-linejoin:round;}</style>
 </defs>
 <g id="figure_1">
  <g id="patch_1">
   <path d="M 0 345.6 
L 460.8 345.6 
L 460.8 0 
L 0 0 
z
" style="fill:#ffffff;"></path>
  </g>
  <g id="axes_1">
   <g id="patch_2">
    <path d="M 227.998745 60.812139 
C 208.286583 60.812139 188.886606 65.763688 171.585655 75.210721 
C 154.284705 84.657754 139.630777 98.301045 128.973577 114.88397 
C 118.316378 131.466896 111.993466 150.464205 110.587216 170.126142 
C 109.180966 189.78808 112.73592 209.491868 120.924647 227.422681 
C 129.113374 245.353495 141.676503 260.943388 157.456901 272.756447 
C 173.237299 284.569506 191.735134 292.231561 211.246654 295.036895 
C 230.758174 297.842229 250.665367 295.701985 269.134672 288.813292 
C 287.603977 281.924599 304.050393 270.50565 316.959114 255.608193 
L 227.998745 178.523584 
L 227.998745 60.812139 
z
" style="fill:#433728;opacity:0.5;stroke:#433728;stroke-linejoin:miter;"></path>
   </g>
   <g id="patch_3">
    <path d="M 327.666524 250.718283 
C 342.44242 233.665992 352.008356 212.719518 355.219466 190.385765 
C 358.430576 168.052012 355.153434 145.258981 345.780253 124.734576 
C 336.407072 104.210171 321.327322 86.80721 302.345769 74.608506 
C 283.364215 62.409802 261.269571 55.922229 238.706155 55.922229 
L 238.706155 173.633674 
L 327.666524 250.718283 
z
" style="fill:#002600;opacity:0.5;stroke:#002600;stroke-linejoin:miter;"></path>
   </g>
   <g id="patch_4">
    <path d="M 230.352974 58.45791 
C 210.640812 58.45791 191.240835 63.409459 173.939884 72.856492 
C 156.638934 82.303526 141.985006 95.946816 131.327806 112.529741 
C 120.670607 129.112667 114.347695 148.109976 112.941445 167.771913 
C 111.535195 187.433851 115.090149 207.137639 123.278876 225.068452 
C 131.467603 242.999266 144.030732 258.589159 159.81113 270.402218 
C 175.591528 282.215277 194.089363 289.877332 213.600883 292.682666 
C 233.112403 295.488 253.019596 293.347756 271.488901 286.459063 
C 289.958206 279.57037 306.404622 268.151421 319.313343 253.253964 
L 230.352974 176.169355 
L 230.352974 58.45791 
z
" style="fill:#deb887;"></path>
   </g>
   <g id="patch_5">
    <path d="M 330.020753 248.364054 
C 344.796649 231.311763 354.362585 210.365289 357.573695 188.031536 
C 360.784805 165.697783 357.507663 142.904752 348.134482 122.380347 
C 338.761301 101.855942 323.681551 84.452981 304.699997 72.254277 
C 285.718444 60.055573 263.6238 53.568 241.060384 53.568 
L 241.060384 171.279445 
L 330.020753 248.364054 
z
" style="fill:#008000;"></path>
   </g>
   <g id="matplotlib.axis_1"></g>
   <g id="matplotlib.axis_2"></g>
   <g id="text_1">
    <!-- Brown -->
    <g transform="translate(81.190216 232.717737)scale(0.1 -0.1)">
     <defs>
      <path d="M 1259 2228 
L 1259 519 
L 2272 519 
Q 2781 519 3026 730 
Q 3272 941 3272 1375 
Q 3272 1813 3026 2020 
Q 2781 2228 2272 2228 
L 1259 2228 
z
M 1259 4147 
L 1259 2741 
L 2194 2741 
Q 2656 2741 2882 2914 
Q 3109 3088 3109 3444 
Q 3109 3797 2882 3972 
Q 2656 4147 2194 4147 
L 1259 4147 
z
M 628 4666 
L 2241 4666 
Q 2963 4666 3353 4366 
Q 3744 4066 3744 3513 
Q 3744 3084 3544 2831 
Q 3344 2578 2956 2516 
Q 3422 2416 3680 2098 
Q 3938 1781 3938 1306 
Q 3938 681 3513 340 
Q 3088 0 2303 0 
L 628 0 
L 628 4666 
z
" id="DejaVuSans-42" transform="scale(0.015625)"></path>
      <path d="M 2631 2963 
Q 2534 3019 2420 3045 
Q 2306 3072 2169 3072 
Q 1681 3072 1420 2755 
Q 1159 2438 1159 1844 
L 1159 0 
L 581 0 
L 581 3500 
L 1159 3500 
L 1159 2956 
Q 1341 3275 1631 3429 
Q 1922 3584 2338 3584 
Q 2397 3584 2469 3576 
Q 2541 3569 2628 3553 
L 2631 2963 
z
" id="DejaVuSans-72" transform="scale(0.015625)"></path>
      <path d="M 1959 3097 
Q 1497 3097 1228 2736 
Q 959 2375 959 1747 
Q 959 1119 1226 758 
Q 1494 397 1959 397 
Q 2419 397 2687 759 
Q 2956 1122 2956 1747 
Q 2956 2369 2687 2733 
Q 2419 3097 1959 3097 
z
M 1959 3584 
Q 2709 3584 3137 3096 
Q 3566 2609 3566 1747 
Q 3566 888 3137 398 
Q 2709 -91 1959 -91 
Q 1206 -91 779 398 
Q 353 888 353 1747 
Q 353 2609 779 3096 
Q 1206 3584 1959 3584 
z
" id="DejaVuSans-6f" transform="scale(0.015625)"></path>
      <path d="M 269 3500 
L 844 3500 
L 1563 769 
L 2278 3500 
L 2956 3500 
L 3675 769 
L 4391 3500 
L 4966 3500 
L 4050 0 
L 3372 0 
L 2619 2869 
L 1863 0 
L 1184 0 
L 269 3500 
z
" id="DejaVuSans-77" transform="scale(0.015625)"></path>
      <path d="M 3513 2113 
L 3513 0 
L 2938 0 
L 2938 2094 
Q 2938 2591 2744 2837 
Q 2550 3084 2163 3084 
Q 1697 3084 1428 2787 
Q 1159 2491 1159 1978 
L 1159 0 
L 581 0 
L 581 3500 
L 1159 3500 
L 1159 2956 
Q 1366 3272 1645 3428 
Q 1925 3584 2291 3584 
Q 2894 3584 3203 3211 
Q 3513 2838 3513 2113 
z
" id="DejaVuSans-6e" transform="scale(0.015625)"></path>
     </defs>
     <use xlink:href="#DejaVuSans-42"></use>
     <use x="68.603516" xlink:href="#DejaVuSans-72"></use>
     <use x="107.466797" xlink:href="#DejaVuSans-6f"></use>
     <use x="168.648438" xlink:href="#DejaVuSans-77"></use>
     <use x="250.435547" xlink:href="#DejaVuSans-6e"></use>
    </g>
   </g>
   <g id="text_2">
    <!-- 14 -->
    <g transform="translate(159.746015 208.268188)scale(0.1 -0.1)">
     <defs>
      <path d="M 794 531 
L 1825 531 
L 1825 4091 
L 703 3866 
L 703 4441 
L 1819 4666 
L 2450 4666 
L 2450 531 
L 3481 531 
L 3481 0 
L 794 0 
L 794 531 
z
" id="DejaVuSans-31" transform="scale(0.015625)"></path>
      <path d="M 2419 4116 
L 825 1625 
L 2419 1625 
L 2419 4116 
z
M 2253 4666 
L 3047 4666 
L 3047 1625 
L 3713 1625 
L 3713 1100 
L 3047 1100 
L 3047 0 
L 2419 0 
L 2419 1100 
L 313 1100 
L 313 1709 
L 2253 4666 
z
" id="DejaVuSans-34" transform="scale(0.015625)"></path>
     </defs>
     <use xlink:href="#DejaVuSans-31"></use>
     <use x="63.623047" xlink:href="#DejaVuSans-34"></use>
    </g>
   </g>
   <g id="text_3">
    <!-- Green -->
    <g transform="translate(358.841892 120.249812)scale(0.1 -0.1)">
     <defs>
      <path d="M 3809 666 
L 3809 1919 
L 2778 1919 
L 2778 2438 
L 4434 2438 
L 4434 434 
Q 4069 175 3628 42 
Q 3188 -91 2688 -91 
Q 1594 -91 976 548 
Q 359 1188 359 2328 
Q 359 3472 976 4111 
Q 1594 4750 2688 4750 
Q 3144 4750 3555 4637 
Q 3966 4525 4313 4306 
L 4313 3634 
Q 3963 3931 3569 4081 
Q 3175 4231 2741 4231 
Q 1884 4231 1454 3753 
Q 1025 3275 1025 2328 
Q 1025 1384 1454 906 
Q 1884 428 2741 428 
Q 3075 428 3337 486 
Q 3600 544 3809 666 
z
" id="DejaVuSans-47" transform="scale(0.015625)"></path>
      <path d="M 3597 1894 
L 3597 1613 
L 953 1613 
Q 991 1019 1311 708 
Q 1631 397 2203 397 
Q 2534 397 2845 478 
Q 3156 559 3463 722 
L 3463 178 
Q 3153 47 2828 -22 
Q 2503 -91 2169 -91 
Q 1331 -91 842 396 
Q 353 884 353 1716 
Q 353 2575 817 3079 
Q 1281 3584 2069 3584 
Q 2775 3584 3186 3129 
Q 3597 2675 3597 1894 
z
M 3022 2063 
Q 3016 2534 2758 2815 
Q 2500 3097 2075 3097 
Q 1594 3097 1305 2825 
Q 1016 2553 972 2059 
L 3022 2063 
z
" id="DejaVuSans-65" transform="scale(0.015625)"></path>
     </defs>
     <use xlink:href="#DejaVuSans-47"></use>
     <use x="77.490234" xlink:href="#DejaVuSans-72"></use>
     <use x="116.353516" xlink:href="#DejaVuSans-65"></use>
     <use x="177.876953" xlink:href="#DejaVuSans-65"></use>
     <use x="239.400391" xlink:href="#DejaVuSans-6e"></use>
    </g>
   </g>
   <g id="text_4">
    <!-- 8 -->
    <g transform="translate(302.123593 144.699361)scale(0.1 -0.1)">
     <defs>
      <path d="M 2034 2216 
Q 1584 2216 1326 1975 
Q 1069 1734 1069 1313 
Q 1069 891 1326 650 
Q 1584 409 2034 409 
Q 2484 409 2743 651 
Q 3003 894 3003 1313 
Q 3003 1734 2745 1975 
Q 2488 2216 2034 2216 
z
M 1403 2484 
Q 997 2584 770 2862 
Q 544 3141 544 3541 
Q 544 4100 942 4425 
Q 1341 4750 2034 4750 
Q 2731 4750 3128 4425 
Q 3525 4100 3525 3541 
Q 3525 3141 3298 2862 
Q 3072 2584 2669 2484 
Q 3125 2378 3379 2068 
Q 3634 1759 3634 1313 
Q 3634 634 3220 271 
Q 2806 -91 2034 -91 
Q 1263 -91 848 271 
Q 434 634 434 1313 
Q 434 1759 690 2068 
Q 947 2378 1403 2484 
z
M 1172 3481 
Q 1172 3119 1398 2916 
Q 1625 2713 2034 2713 
Q 2441 2713 2670 2916 
Q 2900 3119 2900 3481 
Q 2900 3844 2670 4047 
Q 2441 4250 2034 4250 
Q 1625 4250 1398 4047 
Q 1172 3844 1172 3481 
z
" id="DejaVuSans-38" transform="scale(0.015625)"></path>
     </defs>
     <use xlink:href="#DejaVuSans-38"></use>
    </g>
   </g>
   <g id="text_5">
    <!-- Green Vs Brown -->
    <g transform="translate(188.120625 35.472)scale(0.12 -0.12)">
     <defs>
      <path id="DejaVuSans-20" transform="scale(0.015625)"></path>
      <path d="M 1831 0 
L 50 4666 
L 709 4666 
L 2188 738 
L 3669 4666 
L 4325 4666 
L 2547 0 
L 1831 0 
z
" id="DejaVuSans-56" transform="scale(0.015625)"></path>
      <path d="M 2834 3397 
L 2834 2853 
Q 2591 2978 2328 3040 
Q 2066 3103 1784 3103 
Q 1356 3103 1142 2972 
Q 928 2841 928 2578 
Q 928 2378 1081 2264 
Q 1234 2150 1697 2047 
L 1894 2003 
Q 2506 1872 2764 1633 
Q 3022 1394 3022 966 
Q 3022 478 2636 193 
Q 2250 -91 1575 -91 
Q 1294 -91 989 -36 
Q 684 19 347 128 
L 347 722 
Q 666 556 975 473 
Q 1284 391 1588 391 
Q 1994 391 2212 530 
Q 2431 669 2431 922 
Q 2431 1156 2273 1281 
Q 2116 1406 1581 1522 
L 1381 1569 
Q 847 1681 609 1914 
Q 372 2147 372 2553 
Q 372 3047 722 3315 
Q 1072 3584 1716 3584 
Q 2034 3584 2315 3537 
Q 2597 3491 2834 3397 
z
" id="DejaVuSans-73" transform="scale(0.015625)"></path>
     </defs>
     <use xlink:href="#DejaVuSans-47"></use>
     <use x="77.490234" xlink:href="#DejaVuSans-72"></use>
     <use x="116.353516" xlink:href="#DejaVuSans-65"></use>
     <use x="177.876953" xlink:href="#DejaVuSans-65"></use>
     <use x="239.400391" xlink:href="#DejaVuSans-6e"></use>
     <use x="302.779297" xlink:href="#DejaVuSans-20"></use>
     <use x="334.566406" xlink:href="#DejaVuSans-56"></use>
     <use x="402.974609" xlink:href="#DejaVuSans-73"></use>
     <use x="455.074219" xlink:href="#DejaVuSans-20"></use>
     <use x="486.861328" xlink:href="#DejaVuSans-42"></use>
     <use x="555.464844" xlink:href="#DejaVuSans-72"></use>
     <use x="594.328125" xlink:href="#DejaVuSans-6f"></use>
     <use x="655.509766" xlink:href="#DejaVuSans-77"></use>
     <use x="737.296875" xlink:href="#DejaVuSans-6e"></use>
    </g>
   </g>
  </g>
 </g>
</svg>