<svg height="345.6pt" version="1.1" viewBox="0 0 460.8 345.6" width="460.8pt" xmlns="http://www.w3.org/2000/svg" xmlns:xlink="http://www.w3.org/1999/xlink">
 <metadata>
  <rdf:rdf xmlns:cc="http://creativecommons.org/ns#" xmlns:dc="http://purl.org/dc/elements/1.1/" xmlns:rdf="http://www.w3.org/1999/02/22-rdf-syntax-ns#">
   <cc:work>
    <dc:type rdf:resource="http://purl.org/dc/dcmitype/StillImage"></dc:type>
    <dc:date>2021-04-22T08:34:24.147958</dc:date>
    <dc:format>image/svg+xml</dc:format>
    <dc:creator>
     <cc:agent>
      <dc:title>Matplotlib v3.4.0, https://matplotlib.org/</dc:title>
     </cc:agent>
    </dc:creator>
   </cc:work>
  </rdf:rdf>
 </metadata>
 <defs>
  <style type="text/css">*{stroke-linecap:butt;stroke-linejoin:round;}</style>
 </defs>
 <g id="figure_1">
  <g id="patch_1">
   <path d="M 0 345.6 
L 460.8 345.6 
L 460.8 0 
L 0 0 
z
" style="fill:#ffffff;"></path>
  </g>
  <g id="axes_1">
   <g id="patch_2">
    <path d="M 233.80675 65.893705 
C 221.166165 65.893705 208.610707 67.96662 196.640956 72.029802 
C 184.671205 76.092985 173.44838 82.09171 163.419929 89.78681 
C 153.391479 97.481911 144.692474 106.769743 137.669741 117.280005 
C 130.647008 127.790268 125.395134 139.381399 122.12351 151.591266 
C 118.851885 163.801134 117.604575 176.465285 118.431308 189.078806 
C 119.258042 201.692326 122.147683 214.085327 126.985025 225.763705 
C 131.822367 237.442083 138.542256 248.248544 146.876772 257.75224 
C 155.211289 267.255935 165.048177 275.328862 175.995244 281.649155 
C 186.942311 287.969448 198.852114 292.451981 211.249814 294.918038 
C 223.647513 297.384095 236.366127 297.80046 248.898571 296.150534 
C 261.431014 294.500607 273.608489 290.806611 284.945486 285.215825 
C 296.282482 279.625038 306.626305 272.212761 315.564549 263.274518 
C 324.502793 254.336276 331.915072 243.992455 337.505861 232.655459 
C 343.09665 221.318464 346.790648 209.140989 348.440576 196.608546 
C 350.090505 184.076103 349.674142 171.357489 347.208088 158.959789 
C 344.742034 146.562089 340.259503 134.652286 333.939211 123.705217 
L 233.80675 181.516704 
L 233.80675 65.893705 
z
" style="fill:#433728;opacity:0.5;stroke:#433728;stroke-linejoin:miter;"></path>
   </g>
   <g id="patch_3">
    <path d="M 339.720362 113.691972 
C 329.573082 96.116362 314.975019 81.518295 297.399411 71.371011 
C 279.823803 61.223726 259.882476 55.880462 239.587911 55.88046 
L 239.5879 171.503459 
L 339.720362 113.691972 
z
" style="fill:#002600;opacity:0.5;stroke:#002600;stroke-linejoin:miter;"></path>
   </g>
   <g id="patch_4">
    <path d="M 236.11921 63.581245 
C 223.478625 63.581245 210.923167 65.65416 198.953416 69.717342 
C 186.983665 73.780525 175.76084 79.77925 165.732389 87.474351 
C 155.703939 95.169451 147.004934 104.457283 139.982201 114.967545 
C 132.959468 125.477808 127.707594 137.068939 124.43597 149.278806 
C 121.164345 161.488674 119.917035 174.152825 120.743768 186.766346 
C 121.570501 199.379866 124.460143 211.772867 129.297485 223.451245 
C 134.134827 235.129623 140.854716 245.936084 149.189232 255.43978 
C 157.523749 264.943475 167.360637 273.016402 178.307704 279.336695 
C 189.254771 285.656988 201.164574 290.139521 213.562274 292.605578 
C 225.959973 295.071635 238.678587 295.488 251.211031 293.838074 
C 263.743474 292.188147 275.920949 288.494151 287.257946 282.903365 
C 298.594942 277.312578 308.938765 269.900301 317.877009 260.962058 
C 326.815253 252.023816 334.227532 241.679995 339.818321 230.342999 
C 345.40911 219.006004 349.103108 206.828529 350.753036 194.296086 
C 352.402965 181.763643 351.986602 169.045029 349.520548 156.647329 
C 347.054494 144.249629 342.571963 132.339826 336.251671 121.392757 
L 236.11921 179.204244 
L 236.11921 63.581245 
z
" style="fill:#deb887;"></path>
   </g>
   <g id="patch_5">
    <path d="M 342.032822 111.379512 
C 331.885542 93.803902 317.287479 79.205835 299.711871 69.058551 
C 282.136263 58.911266 262.194936 53.568002 241.900371 53.568 
L 241.90036 169.190999 
L 342.032822 111.379512 
z
" style="fill:#008000;"></path>
   </g>
   <g id="matplotlib.axis_1"></g>
   <g id="matplotlib.axis_2"></g>
   <g id="text_1">
    <!-- Brown -->
    <g transform="translate(141.145303 292.109315)scale(0.1 -0.1)">
     <defs>
      <path d="M 1259 2228 
L 1259 519 
L 2272 519 
Q 2781 519 3026 730 
Q 3272 941 3272 1375 
Q 3272 1813 3026 2020 
Q 2781 2228 2272 2228 
L 1259 2228 
z
M 1259 4147 
L 1259 2741 
L 2194 2741 
Q 2656 2741 2882 2914 
Q 3109 3088 3109 3444 
Q 3109 3797 2882 3972 
Q 2656 4147 2194 4147 
L 1259 4147 
z
M 628 4666 
L 2241 4666 
Q 2963 4666 3353 4366 
Q 3744 4066 3744 3513 
Q 3744 3084 3544 2831 
Q 3344 2578 2956 2516 
Q 3422 2416 3680 2098 
Q 3938 1781 3938 1306 
Q 3938 681 3513 340 
Q 3088 0 2303 0 
L 628 0 
L 628 4666 
z
" id="DejaVuSans-42" transform="scale(0.015625)"></path>
      <path d="M 2631 2963 
Q 2534 3019 2420 3045 
Q 2306 3072 2169 3072 
Q 1681 3072 1420 2755 
Q 1159 2438 1159 1844 
L 1159 0 
L 581 0 
L 581 3500 
L 1159 3500 
L 1159 2956 
Q 1341 3275 1631 3429 
Q 1922 3584 2338 3584 
Q 2397 3584 2469 3576 
Q 2541 3569 2628 3553 
L 2631 2963 
z
" id="DejaVuSans-72" transform="scale(0.015625)"></path>
      <path d="M 1959 3097 
Q 1497 3097 1228 2736 
Q 959 2375 959 1747 
Q 959 1119 1226 758 
Q 1494 397 1959 397 
Q 2419 397 2687 759 
Q 2956 1122 2956 1747 
Q 2956 2369 2687 2733 
Q 2419 3097 1959 3097 
z
M 1959 3584 
Q 2709 3584 3137 3096 
Q 3566 2609 3566 1747 
Q 3566 888 3137 398 
Q 2709 -91 1959 -91 
Q 1206 -91 779 398 
Q 353 888 353 1747 
Q 353 2609 779 3096 
Q 1206 3584 1959 3584 
z
" id="DejaVuSans-6f" transform="scale(0.015625)"></path>
      <path d="M 269 3500 
L 844 3500 
L 1563 769 
L 2278 3500 
L 2956 3500 
L 3675 769 
L 4391 3500 
L 4966 3500 
L 4050 0 
L 3372 0 
L 2619 2869 
L 1863 0 
L 1184 0 
L 269 3500 
z
" id="DejaVuSans-77" transform="scale(0.015625)"></path>
      <path d="M 3513 2113 
L 3513 0 
L 2938 0 
L 2938 2094 
Q 2938 2591 2744 2837 
Q 2550 3084 2163 3084 
Q 1697 3084 1428 2787 
Q 1159 2491 1159 1978 
L 1159 0 
L 581 0 
L 581 3500 
L 1159 3500 
L 1159 2956 
Q 1366 3272 1645 3428 
Q 1925 3584 2291 3584 
Q 2894 3584 3203 3211 
Q 3513 2838 3513 2113 
z
" id="DejaVuSans-6e" transform="scale(0.015625)"></path>
     </defs>
     <use xlink:href="#DejaVuSans-42"></use>
     <use x="68.603516" xlink:href="#DejaVuSans-72"></use>
     <use x="107.466797" xlink:href="#DejaVuSans-6f"></use>
     <use x="168.648438" xlink:href="#DejaVuSans-77"></use>
     <use x="250.435547" xlink:href="#DejaVuSans-6e"></use>
    </g>
   </g>
   <g id="text_2">
    <!-- 10 -->
    <g transform="translate(195.069806 242.04309)scale(0.1 -0.1)">
     <defs>
      <path d="M 794 531 
L 1825 531 
L 1825 4091 
L 703 3866 
L 703 4441 
L 1819 4666 
L 2450 4666 
L 2450 531 
L 3481 531 
L 3481 0 
L 794 0 
L 794 531 
z
" id="DejaVuSans-31" transform="scale(0.015625)"></path>
      <path d="M 2034 4250 
Q 1547 4250 1301 3770 
Q 1056 3291 1056 2328 
Q 1056 1369 1301 889 
Q 1547 409 2034 409 
Q 2525 409 2770 889 
Q 3016 1369 3016 2328 
Q 3016 3291 2770 3770 
Q 2525 4250 2034 4250 
z
M 2034 4750 
Q 2819 4750 3233 4129 
Q 3647 3509 3647 2328 
Q 3647 1150 3233 529 
Q 2819 -91 2034 -91 
Q 1250 -91 836 529 
Q 422 1150 422 2328 
Q 422 3509 836 4129 
Q 1250 4750 2034 4750 
z
" id="DejaVuSans-30" transform="scale(0.015625)"></path>
     </defs>
     <use xlink:href="#DejaVuSans-31"></use>
     <use x="63.623047" xlink:href="#DejaVuSans-30"></use>
    </g>
   </g>
   <g id="text_3">
    <!-- Green -->
    <g transform="translate(305.493022 61.804681)scale(0.1 -0.1)">
     <defs>
      <path d="M 3809 666 
L 3809 1919 
L 2778 1919 
L 2778 2438 
L 4434 2438 
L 4434 434 
Q 4069 175 3628 42 
Q 3188 -91 2688 -91 
Q 1594 -91 976 548 
Q 359 1188 359 2328 
Q 359 3472 976 4111 
Q 1594 4750 2688 4750 
Q 3144 4750 3555 4637 
Q 3966 4525 4313 4306 
L 4313 3634 
Q 3963 3931 3569 4081 
Q 3175 4231 2741 4231 
Q 1884 4231 1454 3753 
Q 1025 3275 1025 2328 
Q 1025 1384 1454 906 
Q 1884 428 2741 428 
Q 3075 428 3337 486 
Q 3600 544 3809 666 
z
" id="DejaVuSans-47" transform="scale(0.015625)"></path>
      <path d="M 3597 1894 
L 3597 1613 
L 953 1613 
Q 991 1019 1311 708 
Q 1631 397 2203 397 
Q 2534 397 2845 478 
Q 3156 559 3463 722 
L 3463 178 
Q 3153 47 2828 -22 
Q 2503 -91 2169 -91 
Q 1331 -91 842 396 
Q 353 884 353 1716 
Q 353 2575 817 3079 
Q 1281 3584 2069 3584 
Q 2775 3584 3186 3129 
Q 3597 2675 3597 1894 
z
M 3022 2063 
Q 3016 2534 2758 2815 
Q 2500 3097 2075 3097 
Q 1594 3097 1305 2825 
Q 1016 2553 972 2059 
L 3022 2063 
z
" id="DejaVuSans-65" transform="scale(0.015625)"></path>
     </defs>
     <use xlink:href="#DejaVuSans-47"></use>
     <use x="77.490234" xlink:href="#DejaVuSans-72"></use>
     <use x="116.353516" xlink:href="#DejaVuSans-65"></use>
     <use x="177.876953" xlink:href="#DejaVuSans-65"></use>
     <use x="239.400391" xlink:href="#DejaVuSans-6e"></use>
    </g>
   </g>
   <g id="text_4">
    <!-- 2 -->
    <g transform="translate(273.406017 111.870905)scale(0.1 -0.1)">
     <defs>
      <path d="M 1228 531 
L 3431 531 
L 3431 0 
L 469 0 
L 469 531 
Q 828 903 1448 1529 
Q 2069 2156 2228 2338 
Q 2531 2678 2651 2914 
Q 2772 3150 2772 3378 
Q 2772 3750 2511 3984 
Q 2250 4219 1831 4219 
Q 1534 4219 1204 4116 
Q 875 4013 500 3803 
L 500 4441 
Q 881 4594 1212 4672 
Q 1544 4750 1819 4750 
Q 2544 4750 2975 4387 
Q 3406 4025 3406 3419 
Q 3406 3131 3298 2873 
Q 3191 2616 2906 2266 
Q 2828 2175 2409 1742 
Q 1991 1309 1228 531 
z
" id="DejaVuSans-32" transform="scale(0.015625)"></path>
     </defs>
     <use xlink:href="#DejaVuSans-32"></use>
    </g>
   </g>
   <g id="text_5">
    <!-- Dreaded Languages -->
    <g transform="translate(175.885312 35.472)scale(0.12 -0.12)">
     <defs>
      <path d="M 1259 4147 
L 1259 519 
L 2022 519 
Q 2988 519 3436 956 
Q 3884 1394 3884 2338 
Q 3884 3275 3436 3711 
Q 2988 4147 2022 4147 
L 1259 4147 
z
M 628 4666 
L 1925 4666 
Q 3281 4666 3915 4102 
Q 4550 3538 4550 2338 
Q 4550 1131 3912 565 
Q 3275 0 1925 0 
L 628 0 
L 628 4666 
z
" id="DejaVuSans-44" transform="scale(0.015625)"></path>
      <path d="M 2194 1759 
Q 1497 1759 1228 1600 
Q 959 1441 959 1056 
Q 959 750 1161 570 
Q 1363 391 1709 391 
Q 2188 391 2477 730 
Q 2766 1069 2766 1631 
L 2766 1759 
L 2194 1759 
z
M 3341 1997 
L 3341 0 
L 2766 0 
L 2766 531 
Q 2569 213 2275 61 
Q 1981 -91 1556 -91 
Q 1019 -91 701 211 
Q 384 513 384 1019 
Q 384 1609 779 1909 
Q 1175 2209 1959 2209 
L 2766 2209 
L 2766 2266 
Q 2766 2663 2505 2880 
Q 2244 3097 1772 3097 
Q 1472 3097 1187 3025 
Q 903 2953 641 2809 
L 641 3341 
Q 956 3463 1253 3523 
Q 1550 3584 1831 3584 
Q 2591 3584 2966 3190 
Q 3341 2797 3341 1997 
z
" id="DejaVuSans-61" transform="scale(0.015625)"></path>
      <path d="M 2906 2969 
L 2906 4863 
L 3481 4863 
L 3481 0 
L 2906 0 
L 2906 525 
Q 2725 213 2448 61 
Q 2172 -91 1784 -91 
Q 1150 -91 751 415 
Q 353 922 353 1747 
Q 353 2572 751 3078 
Q 1150 3584 1784 3584 
Q 2172 3584 2448 3432 
Q 2725 3281 2906 2969 
z
M 947 1747 
Q 947 1113 1208 752 
Q 1469 391 1925 391 
Q 2381 391 2643 752 
Q 2906 1113 2906 1747 
Q 2906 2381 2643 2742 
Q 2381 3103 1925 3103 
Q 1469 3103 1208 2742 
Q 947 2381 947 1747 
z
" id="DejaVuSans-64" transform="scale(0.015625)"></path>
      <path id="DejaVuSans-20" transform="scale(0.015625)"></path>
      <path d="M 628 4666 
L 1259 4666 
L 1259 531 
L 3531 531 
L 3531 0 
L 628 0 
L 628 4666 
z
" id="DejaVuSans-4c" transform="scale(0.015625)"></path>
      <path d="M 2906 1791 
Q 2906 2416 2648 2759 
Q 2391 3103 1925 3103 
Q 1463 3103 1205 2759 
Q 947 2416 947 1791 
Q 947 1169 1205 825 
Q 1463 481 1925 481 
Q 2391 481 2648 825 
Q 2906 1169 2906 1791 
z
M 3481 434 
Q 3481 -459 3084 -895 
Q 2688 -1331 1869 -1331 
Q 1566 -1331 1297 -1286 
Q 1028 -1241 775 -1147 
L 775 -588 
Q 1028 -725 1275 -790 
Q 1522 -856 1778 -856 
Q 2344 -856 2625 -561 
Q 2906 -266 2906 331 
L 2906 616 
Q 2728 306 2450 153 
Q 2172 0 1784 0 
Q 1141 0 747 490 
Q 353 981 353 1791 
Q 353 2603 747 3093 
Q 1141 3584 1784 3584 
Q 2172 3584 2450 3431 
Q 2728 3278 2906 2969 
L 2906 3500 
L 3481 3500 
L 3481 434 
z
" id="DejaVuSans-67" transform="scale(0.015625)"></path>
      <path d="M 544 1381 
L 544 3500 
L 1119 3500 
L 1119 1403 
Q 1119 906 1312 657 
Q 1506 409 1894 409 
Q 2359 409 2629 706 
Q 2900 1003 2900 1516 
L 2900 3500 
L 3475 3500 
L 3475 0 
L 2900 0 
L 2900 538 
Q 2691 219 2414 64 
Q 2138 -91 1772 -91 
Q 1169 -91 856 284 
Q 544 659 544 1381 
z
M 1991 3584 
L 1991 3584 
z
" id="DejaVuSans-75" transform="scale(0.015625)"></path>
      <path d="M 2834 3397 
L 2834 2853 
Q 2591 2978 2328 3040 
Q 2066 3103 1784 3103 
Q 1356 3103 1142 2972 
Q 928 2841 928 2578 
Q 928 2378 1081 2264 
Q 1234 2150 1697 2047 
L 1894 2003 
Q 2506 1872 2764 1633 
Q 3022 1394 3022 966 
Q 3022 478 2636 193 
Q 2250 -91 1575 -91 
Q 1294 -91 989 -36 
Q 684 19 347 128 
L 347 722 
Q 666 556 975 473 
Q 1284 391 1588 391 
Q 1994 391 2212 530 
Q 2431 669 2431 922 
Q 2431 1156 2273 1281 
Q 2116 1406 1581 1522 
L 1381 1569 
Q 847 1681 609 1914 
Q 372 2147 372 2553 
Q 372 3047 722 3315 
Q 1072 3584 1716 3584 
Q 2034 3584 2315 3537 
Q 2597 3491 2834 3397 
z
" id="DejaVuSans-73" transform="scale(0.015625)"></path>
     </defs>
     <use xlink:href="#DejaVuSans-44"></use>
     <use x="77.001953" xlink:href="#DejaVuSans-72"></use>
     <use x="115.865234" xlink:href="#DejaVuSans-65"></use>
     <use x="177.388672" xlink:href="#DejaVuSans-61"></use>
     <use x="238.667969" xlink:href="#DejaVuSans-64"></use>
     <use x="302.144531" xlink:href="#DejaVuSans-65"></use>
     <use x="363.667969" xlink:href="#DejaVuSans-64"></use>
     <use x="427.144531" xlink:href="#DejaVuSans-20"></use>
     <use x="458.931641" xlink:href="#DejaVuSans-4c"></use>
     <use x="514.644531" xlink:href="#DejaVuSans-61"></use>
     <use x="575.923828" xlink:href="#DejaVuSans-6e"></use>
     <use x="639.302734" xlink:href="#DejaVuSans-67"></use>
     <use x="702.779297" xlink:href="#DejaVuSans-75"></use>
     <use x="766.158203" xlink:href="#DejaVuSans-61"></use>
     <use x="827.4375" xlink:href="#DejaVuSans-67"></use>
     <use x="890.914062" xlink:href="#DejaVuSans-65"></use>
     <use x="952.4375" xlink:href="#DejaVuSans-73"></use>
    </g>
   </g>
  </g>
 </g>
</svg>