<svg width="371" height="296" viewBox="0 0 371 296" fill="none" xmlns="http://www.w3.org/2000/svg">
<rect x="0.943359" width="370" height="296" rx="20" fill="white"/>
<path fill-rule="evenodd" clip-rule="evenodd" d="M145.809 38.319C145.809 47.2086 138.603 54.415 129.713 54.415C120.824 54.415 113.617 47.2086 113.617 38.319C113.617 29.4294 120.824 22.2229 129.713 22.2229C138.603 22.2229 145.809 29.4294 145.809 38.319ZM156.809 38.319C156.809 47.6991 152.043 55.9661 144.8 60.8299L148.265 73.6323C164.01 71.041 180.236 72.9998 195 79.3746C212.507 86.9345 226.906 100.251 235.808 117.116L225.696 122.453C218.011 107.894 205.581 96.3979 190.467 89.8716C175.353 83.3453 158.462 82.1804 142.595 86.5699L139.547 75.55L139.57 75.5434L136.591 64.5345C134.395 65.1091 132.09 65.415 129.713 65.415C114.749 65.415 102.617 53.2837 102.617 38.319C102.617 23.3542 114.749 11.2229 129.713 11.2229C144.678 11.2229 156.809 23.3542 156.809 38.319ZM88.9301 273.777C97.8197 273.777 105.026 266.571 105.026 257.681C105.026 248.791 97.8197 241.585 88.9301 241.585C80.0404 241.585 72.834 248.791 72.834 257.681C72.834 266.571 80.0404 273.777 88.9301 273.777ZM88.9301 284.777C103.895 284.777 116.026 272.646 116.026 257.681C116.026 250.831 113.485 244.576 109.293 239.805L117.76 225.989L117.759 225.988L123.303 217.206C112.595 210.445 103.853 200.987 97.955 189.781C92.0571 178.574 89.2105 166.014 89.7009 153.359C90.1912 140.705 94.0014 128.402 100.749 117.686C107.496 106.97 116.944 98.2164 128.143 92.305L122.806 82.1934C109.833 89.041 98.8894 99.1803 91.0733 111.594C83.2572 124.007 78.8437 138.258 78.2756 152.917C77.7076 167.575 81.005 182.125 87.8369 195.106C93.2829 205.454 100.822 214.514 109.94 221.731L102.341 234.131C98.3869 231.874 93.8091 230.585 88.9301 230.585C73.9653 230.585 61.834 242.716 61.834 257.681C61.834 272.646 73.9653 284.777 88.9301 284.777ZM299.053 129.059C299.053 137.949 291.847 145.155 282.957 145.155C274.068 145.155 266.861 137.949 266.861 129.059C266.861 120.17 274.068 112.963 282.957 112.963C291.847 112.963 299.053 120.17 299.053 129.059ZM310.053 129.059C310.053 144.024 297.922 156.155 282.957 156.155C272.501 156.155 263.428 150.232 258.91 141.558L244.831 145.762C246.548 159.477 244.845 173.454 239.809 186.425L229.15 182.287C234.421 168.711 235.463 153.859 232.14 139.68L241.901 137.392L241.892 137.36L256.161 133.1C255.963 131.781 255.861 130.432 255.861 129.059C255.861 114.094 267.993 101.963 282.957 101.963C297.922 101.963 310.053 114.094 310.053 129.059ZM268.989 235.157C277.878 235.157 285.085 227.951 285.085 219.061C285.085 210.171 277.878 202.965 268.989 202.965C260.099 202.965 252.893 210.171 252.893 219.061C252.893 227.951 260.099 235.157 268.989 235.157ZM268.989 246.157C283.953 246.157 296.085 234.026 296.085 219.061C296.085 204.096 283.953 191.965 268.989 191.965C259.369 191.965 250.92 196.978 246.111 204.534L233.681 197.461L233.68 197.463L224.434 192.146C215.734 207.276 201.848 218.742 185.346 224.422C168.844 230.103 150.842 229.614 134.673 223.046L130.37 233.639C149.1 241.248 169.952 241.814 189.068 235.234C205.364 229.624 219.458 219.143 229.505 205.315L242.624 212.781C242.146 214.796 241.893 216.899 241.893 219.061C241.893 234.026 254.024 246.157 268.989 246.157Z" fill="#9DA3B0"/>
<circle cx="161.846" cy="156.155" r="60.7695" fill="#9DA3B0"/>
<rect x="130.346" y="178.655" width="63" height="7.5" rx="3.75" fill="white"/>
<rect x="130.346" y="168.155" width="63" height="7.5" rx="3.75" fill="white"/>
<rect x="130.346" y="157.655" width="63" height="7.5" rx="3.75" fill="white"/>
<rect x="130.346" y="147.155" width="63" height="7.5" rx="3.75" fill="white"/>
<rect x="130.346" y="136.655" width="63" height="7.5" rx="3.75" fill="white"/>
<rect x="130.346" y="126.155" width="63" height="7.5" rx="3.75" fill="white"/>
<circle cx="282.958" cy="129.059" r="22.9624" fill="#9DA3B0"/>
<path d="M294.44 125.232H286.786V117.578C286.786 116.563 286.382 115.589 285.665 114.872C284.947 114.154 283.974 113.751 282.959 113.751C281.944 113.751 280.97 114.154 280.252 114.872C279.535 115.589 279.132 116.563 279.132 117.578L279.267 125.232H271.477C270.462 125.232 269.489 125.635 268.771 126.353C268.054 127.071 267.65 128.044 267.65 129.059C267.65 130.074 268.054 131.048 268.771 131.765C269.489 132.483 270.462 132.886 271.477 132.886L279.267 132.75L279.132 140.54C279.132 141.555 279.535 142.529 280.252 143.246C280.97 143.964 281.944 144.367 282.959 144.367C283.974 144.367 284.947 143.964 285.665 143.246C286.382 142.529 286.786 141.555 286.786 140.54V132.75L294.44 132.886C295.455 132.886 296.428 132.483 297.146 131.765C297.864 131.048 298.267 130.074 298.267 129.059C298.267 128.044 297.864 127.071 297.146 126.353C296.428 125.635 295.455 125.232 294.44 125.232Z" fill="white"/>
</svg>
