<svg width="64" height="64" viewBox="0 0 64 64" fill="none" xmlns="http://www.w3.org/2000/svg">
<g id="tabler:arrows-split-2">
<g id="Group">
<path id="Vector" d="M50.9885 42.5492H39.6017C37.9056 42.549 36.2345 42.1399 34.7301 41.3565C33.2257 40.5731 31.9324 39.4385 30.9599 38.0489L29.8754 36.5003C28.9028 35.1107 27.6095 33.976 26.1051 33.1926C24.6008 32.4092 22.9296 32.0001 21.2335 32H13.0115H21.2398C22.9367 31.9997 24.6085 31.5901 26.1133 30.8059C27.6181 30.0218 28.9115 28.8862 29.8838 27.4955L30.9599 25.9553C31.9324 24.5643 33.2261 23.4285 34.7313 22.6444C36.2365 21.8602 37.9087 21.4507 39.606 21.4508H50.9885" stroke="#2D7E5D" stroke-width="4" stroke-linecap="round" stroke-linejoin="round"/>
<path id="Vector_2" d="M44.6589 27.7803L50.9884 21.4508L44.6589 15.1213M44.6589 48.8787L50.9884 42.5491L44.6589 36.2196" stroke="#2D7E5D" stroke-width="4" stroke-linecap="round" stroke-linejoin="round"/>
</g>
</g>
</svg>
