<svg width="64" height="65" viewBox="0 0 64 65" fill="none" xmlns="http://www.w3.org/2000/svg">
<g id="fa6-solid:arrows-rotate">
<path id="Vector" d="M18.9975 28.1325L18.969 28.2133V28.2166C18.5427 29.2871 17.3388 29.8427 16.2488 29.4553C15.1282 29.057 14.5365 27.8298 14.9337 26.7054L14.934 26.7047C15.8064 24.2246 17.2281 21.9062 19.1998 19.9345C26.2693 12.865 37.7258 12.8647 44.7956 19.9338C44.7959 19.934 44.7961 19.9343 44.7964 19.9345L46.2484 21.3948L47.1029 22.2543V21.0423V16.7912C47.1029 15.5977 48.0664 14.6342 49.2599 14.6342C50.4534 14.6342 51.4168 15.5977 51.4168 16.7912V27.4189C51.4168 28.6124 50.4534 29.5759 49.2599 29.5759H38.6404C37.447 29.5759 36.4835 28.6124 36.4835 27.4189C36.4835 26.2255 37.447 25.262 38.6404 25.262H42.8168H44.019L43.1714 24.4095L41.7516 22.9814L41.7506 22.9803C36.3661 17.5959 27.6389 17.5957 22.2542 22.98C20.738 24.4879 19.6608 26.2547 18.9975 28.1325ZM14.1244 35.9766L14.1316 35.9744L14.1388 35.972C14.2244 35.9435 14.3152 35.9245 14.4247 35.9108C14.5371 35.8967 14.6492 35.8897 14.7612 35.8897H25.3557C26.5492 35.8897 27.5127 36.8532 27.5127 38.0467C27.5127 39.2402 26.5492 40.2036 25.3557 40.2036H21.1711H19.964L20.8175 41.0572L22.2373 42.477L22.2373 42.477L22.2456 42.4853L22.2456 42.4853C27.6301 47.8698 36.3573 47.8699 41.7419 42.4856C43.2581 40.9778 44.3353 39.2111 44.9985 37.3335C45.397 36.2134 46.6318 35.6221 47.7474 36.0186C48.8679 36.4169 49.4597 37.6441 49.0624 38.7685L49.0624 38.7687C48.1902 41.24 46.7605 43.5587 44.7881 45.5311C37.7267 52.5925 26.2696 52.5928 19.1996 45.5309L19.1988 45.5301L17.7375 44.0771L16.8849 43.2294V44.4316V48.6744C16.8849 49.8679 15.9215 50.8314 14.728 50.8314C13.5345 50.8314 12.571 49.8679 12.571 48.6744V38.0799C12.571 37.9578 12.5783 37.8473 12.5966 37.7433L12.5968 37.7434L12.5984 37.7325C12.6113 37.6488 12.6314 37.5599 12.6546 37.4667C12.7489 37.1193 12.929 36.7999 13.1968 36.5321L13.1968 36.5321L13.2012 36.5276C13.46 36.2622 13.7822 36.0792 14.1244 35.9766Z" fill="#2D7E5D" stroke="#F9FAFC"/>
</g>
</svg>
