<svg width="582" height="296" viewBox="0 0 582 296" fill="none" xmlns="http://www.w3.org/2000/svg">
<rect width="582" height="296" rx="20" fill="white"/>
<path d="M279.839 104.579C282.099 102.573 282.991 99.4217 281.813 96.6205C281.081 94.9334 280.285 93.2781 279.394 91.6865L278.407 89.9676C277.452 88.376 276.401 86.8162 275.287 85.3201C273.473 82.9008 270.29 82.105 267.425 83.06L258.448 86.0204C255.042 83.2192 251.127 80.9272 246.925 79.3675L244.983 70.1361C244.378 67.1757 242.086 64.8202 239.094 64.47C236.993 64.1835 234.86 64.0562 232.696 64.0562H232.473C230.308 64.0562 228.176 64.1835 226.075 64.4382C223.082 64.7883 220.791 67.1757 220.186 70.1043L218.244 79.3675C214.01 80.9591 210.127 83.2192 206.721 86.0204L197.712 83.0918C194.847 82.1369 191.664 82.9327 189.85 85.3519C188.736 86.848 187.685 88.4078 186.698 89.9994L185.743 91.6865C184.852 93.2781 184.056 94.9334 183.324 96.6523C182.146 99.4217 183.038 102.573 185.298 104.61L192.364 110.913C192.014 113.046 191.823 115.274 191.823 117.534C191.823 119.794 192.014 122.023 192.364 124.187L185.298 130.49C183.038 132.495 182.146 135.647 183.324 138.448C184.056 140.135 184.852 141.79 185.743 143.414L186.698 145.069C187.653 146.693 188.704 148.221 189.85 149.717C191.664 152.136 194.847 152.932 197.712 151.977L206.689 149.016C210.095 151.818 214.01 154.109 218.212 155.669L220.154 164.932C220.759 167.893 223.051 170.248 226.043 170.599C228.176 170.853 230.34 170.981 232.537 170.981C234.733 170.981 236.898 170.853 239.03 170.599C242.023 170.248 244.315 167.861 244.919 164.932L246.861 155.669C251.095 154.078 254.978 151.818 258.384 149.016L267.361 151.977C270.226 152.932 273.409 152.136 275.224 149.717C276.338 148.221 277.388 146.693 278.343 145.069L279.33 143.35C280.221 141.759 281.017 140.103 281.749 138.416C282.927 135.647 282.036 132.495 279.776 130.458L272.709 124.155C273.059 121.991 273.25 119.763 273.25 117.502C273.25 115.242 273.059 113.014 272.709 110.85L279.776 104.547L279.839 104.579ZM217.289 117.534C217.289 113.482 218.899 109.596 221.764 106.73C224.63 103.865 228.516 102.255 232.568 102.255C236.621 102.255 240.507 103.865 243.373 106.73C246.238 109.596 247.848 113.482 247.848 117.534C247.848 121.587 246.238 125.473 243.373 128.338C240.507 131.204 236.621 132.814 232.568 132.814C228.516 132.814 224.63 131.204 221.764 128.338C218.899 125.473 217.289 121.587 217.289 117.534ZM342.294 220.83C344.299 223.09 347.451 223.981 350.252 222.803C351.939 222.071 353.594 221.275 355.186 220.384L356.905 219.397C358.497 218.442 360.056 217.392 361.552 216.278C363.972 214.463 364.768 211.28 363.813 208.415L360.852 199.438C363.653 196.032 365.945 192.117 367.505 187.915L376.768 185.973C379.729 185.369 382.084 183.077 382.434 180.085C382.689 177.952 382.816 175.787 382.816 173.591C382.816 171.394 382.689 169.23 382.434 167.097C382.084 164.105 379.697 161.813 376.768 161.208L367.505 159.234C365.913 155.001 363.653 151.117 360.852 147.711L363.813 138.735C364.768 135.87 363.972 132.686 361.552 130.872C360.056 129.758 358.497 128.707 356.905 127.721L355.218 126.766C353.626 125.874 351.971 125.078 350.252 124.346C347.483 123.169 344.331 124.06 342.294 126.32L335.991 133.387C333.827 133.037 331.598 132.846 329.338 132.846C327.078 132.846 324.85 133.037 322.685 133.387L316.383 126.32C314.377 124.06 311.226 123.169 308.425 124.346C306.737 125.078 305.082 125.874 303.459 126.766L301.803 127.721C300.18 128.676 298.652 129.726 297.156 130.872C294.737 132.686 293.941 135.87 294.896 138.735L297.856 147.711C295.055 151.117 292.763 155.033 291.203 159.234L281.94 161.144C278.98 161.749 276.624 164.041 276.274 167.033C276.019 169.166 275.892 171.331 275.892 173.527C275.892 175.724 276.019 177.888 276.274 180.021C276.624 183.013 279.012 185.305 281.94 185.91L291.203 187.852C292.795 192.085 295.055 195.969 297.856 199.375L294.896 208.352C293.941 211.216 294.737 214.4 297.156 216.214C298.652 217.328 300.18 218.379 301.803 219.334L303.522 220.32C305.114 221.212 306.769 222.008 308.456 222.74C311.226 223.917 314.377 223.026 316.414 220.766L322.717 213.699C324.882 214.049 327.11 214.24 329.37 214.24C331.63 214.24 333.858 214.049 336.023 213.699L342.326 220.766L342.294 220.83ZM329.338 158.279C331.345 158.279 333.332 158.675 335.185 159.443C337.039 160.21 338.724 161.336 340.142 162.755C341.561 164.174 342.687 165.858 343.455 167.712C344.223 169.566 344.618 171.552 344.618 173.559C344.618 175.565 344.223 177.552 343.455 179.406C342.687 181.26 341.561 182.944 340.142 184.363C338.724 185.782 337.039 186.907 335.185 187.675C333.332 188.443 331.345 188.838 329.338 188.838C327.332 188.838 325.345 188.443 323.491 187.675C321.637 186.907 319.953 185.782 318.534 184.363C317.115 182.944 315.99 181.26 315.222 179.406C314.454 177.552 314.059 175.565 314.059 173.559C314.059 171.552 314.454 169.566 315.222 167.712C315.99 165.858 317.115 164.174 318.534 162.755C319.953 161.336 321.637 160.21 323.491 159.443C325.345 158.675 327.332 158.279 329.338 158.279Z" fill="#2D7E5D"/>
<circle cx="233.64" cy="114.326" r="20.0619" fill="#2D7E5D"/>
<circle cx="329.855" cy="175.33" r="20.0619" fill="#2D7E5D"/>
<mask id="path-5-inside-1_19_688" fill="white">
<path fill-rule="evenodd" clip-rule="evenodd" d="M252.175 105.244H215.549V131.751C215.549 131.753 215.549 131.754 215.549 131.756C215.549 131.758 215.549 131.759 215.549 131.761V131.881H215.554C215.788 134.696 223.895 136.958 233.862 136.958C243.829 136.958 251.936 134.696 252.169 131.881H252.175V105.244Z"/>
</mask>
<path fill-rule="evenodd" clip-rule="evenodd" d="M252.175 105.244H215.549V131.751C215.549 131.753 215.549 131.754 215.549 131.756C215.549 131.758 215.549 131.759 215.549 131.761V131.881H215.554C215.788 134.696 223.895 136.958 233.862 136.958C243.829 136.958 251.936 134.696 252.169 131.881H252.175V105.244Z" fill="white"/>
<path d="M215.549 105.244V104.024H214.329V105.244H215.549ZM252.175 105.244H253.395V104.024H252.175V105.244ZM215.549 131.751L216.769 131.755V131.751H215.549ZM215.549 131.761H216.769L216.769 131.757L215.549 131.761ZM215.549 131.881H214.329V133.101H215.549V131.881ZM215.554 131.881L216.77 131.78L216.677 130.661H215.554V131.881ZM252.169 131.881V130.661H251.047L250.954 131.78L252.169 131.881ZM252.175 131.881V133.101H253.395V131.881H252.175ZM215.549 106.464H252.175V104.024H215.549V106.464ZM216.769 131.751V105.244H214.329V131.751H216.769ZM216.769 131.756C216.769 131.756 216.769 131.755 216.769 131.755L214.329 131.747C214.329 131.75 214.329 131.753 214.329 131.756H216.769ZM216.769 131.757C216.769 131.757 216.769 131.756 216.769 131.756H214.329C214.329 131.759 214.329 131.762 214.329 131.765L216.769 131.757ZM216.769 131.881V131.761H214.329V131.881H216.769ZM215.554 130.661H215.549V133.101H215.554V130.661ZM233.862 135.739C228.958 135.739 224.554 135.181 221.385 134.3C219.793 133.858 218.575 133.351 217.77 132.835C216.917 132.288 216.78 131.901 216.77 131.78L214.339 131.982C214.445 133.268 215.409 134.22 216.454 134.889C217.545 135.589 219.021 136.176 220.732 136.651C224.166 137.605 228.799 138.178 233.862 138.178V135.739ZM250.954 131.78C250.944 131.901 250.807 132.288 249.954 132.835C249.148 133.351 247.931 133.858 246.339 134.3C243.17 135.181 238.766 135.739 233.862 135.739V138.178C238.925 138.178 243.558 137.605 246.992 136.651C248.703 136.176 250.178 135.589 251.27 134.889C252.315 134.22 253.279 133.268 253.385 131.982L250.954 131.78ZM252.175 130.661H252.169V133.101H252.175V130.661ZM250.955 105.244V131.881H253.395V105.244H250.955Z" fill="#2D7E5D" mask="url(#path-5-inside-1_19_688)"/>
<path fill-rule="evenodd" clip-rule="evenodd" d="M250.955 112.236C250.955 112.332 250.876 112.698 250.055 113.249C249.279 113.77 248.075 114.288 246.478 114.742C243.3 115.644 238.839 116.219 233.862 116.219C228.885 116.219 224.424 115.644 221.246 114.742C219.649 114.288 218.445 113.77 217.669 113.249C216.848 112.698 216.769 112.332 216.769 112.236C216.769 112.236 216.769 112.236 216.769 112.236H215.549C215.549 112.236 215.549 112.236 215.549 112.236C215.549 115.109 223.748 117.439 233.862 117.439C243.96 117.439 252.149 115.117 252.175 112.25V112.236L250.955 112.236Z" fill="#2D7E5D"/>
<path fill-rule="evenodd" clip-rule="evenodd" d="M250.955 119.27C250.955 119.366 250.876 119.731 250.055 120.282C249.279 120.804 248.075 121.322 246.478 121.775C243.3 122.678 238.839 123.253 233.862 123.253C228.885 123.253 224.424 122.678 221.246 121.775C219.649 121.322 218.445 120.804 217.669 120.282C216.848 119.731 216.769 119.366 216.769 119.27H215.549C215.549 122.143 223.748 124.473 233.862 124.473C243.962 124.473 252.152 122.15 252.175 119.282V119.27L250.955 119.27Z" fill="#2D7E5D"/>
<path fill-rule="evenodd" clip-rule="evenodd" d="M250.955 126.304C250.955 126.4 250.876 126.765 250.055 127.316C249.279 127.838 248.075 128.355 246.478 128.809C243.3 129.712 238.839 130.287 233.862 130.287C228.885 130.287 224.424 129.712 221.246 128.809C219.649 128.355 218.445 127.838 217.669 127.316C216.848 126.765 216.769 126.4 216.769 126.304M252.175 126.314C252.156 129.182 243.965 131.506 233.862 131.506C223.748 131.506 215.549 129.177 215.549 126.304M216.769 126.304L250.955 126.304Z" fill="#2D7E5D"/>
<path d="M251.565 105.202C251.565 105.61 251.269 106.134 250.395 106.721C249.544 107.293 248.271 107.832 246.644 108.294C243.398 109.217 238.879 109.795 233.862 109.795C228.845 109.795 224.325 109.217 221.08 108.294C219.452 107.832 218.18 107.293 217.328 106.721C216.455 106.134 216.159 105.61 216.159 105.202C216.159 104.795 216.455 104.271 217.328 103.684C218.18 103.112 219.452 102.573 221.08 102.11C224.325 101.188 228.845 100.61 233.862 100.61C238.879 100.61 243.398 101.188 246.644 102.11C248.271 102.573 249.544 103.112 250.395 103.684C251.269 104.271 251.565 104.795 251.565 105.202Z" fill="white" stroke="#2D7E5D" stroke-width="1.21985"/>
<circle cx="248.096" cy="128.905" r="10.2446" fill="white" stroke="#2D7E5D" stroke-width="1.21985"/>
<path d="M247.665 134.539C247.903 134.777 248.289 134.777 248.527 134.539L252.409 130.658C252.647 130.419 252.647 130.033 252.409 129.795C252.171 129.557 251.784 129.557 251.546 129.795L248.096 133.245L244.646 129.795C244.408 129.557 244.021 129.557 243.783 129.795C243.545 130.033 243.545 130.419 243.783 130.658L247.665 134.539ZM247.486 123.703L247.486 134.108L248.706 134.108L248.706 123.703L247.486 123.703Z" fill="#2D7E5D"/>
<path d="M401.16 173.87C401.648 173.382 401.648 172.591 401.16 172.103L393.205 164.148C392.717 163.66 391.926 163.66 391.437 164.148C390.949 164.636 390.949 165.427 391.437 165.915L398.508 172.987L391.437 180.058C390.949 180.546 390.949 181.337 391.437 181.825C391.926 182.314 392.717 182.314 393.205 181.825L401.16 173.87ZM329.855 174.237H400.276V171.737H329.855V174.237Z" fill="#2D7E5D"/>
<path d="M365.066 172.987L382.816 172.987" stroke="white" stroke-width="2.5"/>
<path d="M258.55 173.87C258.062 173.382 258.062 172.591 258.55 172.103L266.505 164.148C266.993 163.66 267.784 163.66 268.273 164.148C268.761 164.636 268.761 165.427 268.273 165.915L261.202 172.987L268.273 180.058C268.761 180.546 268.761 181.337 268.273 181.825C267.784 182.314 266.993 182.314 266.505 181.825L258.55 173.87ZM329.855 174.237H259.434V171.737H329.855V174.237Z" fill="#2D7E5D"/>
<path d="M294.644 172.987L276.894 172.987" stroke="white" stroke-width="2.5"/>
<path d="M366.273 111.676C366.094 111.01 365.409 110.614 364.742 110.793L353.875 113.704C353.208 113.883 352.813 114.568 352.991 115.235C353.17 115.902 353.856 116.298 354.522 116.119L364.182 113.531L366.77 123.19C366.949 123.857 367.634 124.253 368.301 124.074C368.968 123.895 369.363 123.21 369.185 122.543L366.273 111.676ZM330.937 173.612L366.148 112.625L363.983 111.375L328.772 172.362L330.937 173.612Z" fill="#2D7E5D"/>
<path d="M366.273 111.676C366.094 111.01 365.409 110.614 364.742 110.793L353.875 113.704C353.208 113.883 352.813 114.568 352.991 115.235C353.17 115.902 353.856 116.298 354.522 116.119L364.182 113.531L366.77 123.19C366.949 123.857 367.634 124.253 368.301 124.074C368.968 123.895 369.363 123.21 369.185 122.543L366.273 111.676ZM330.937 173.612L366.148 112.625L363.983 111.375L328.772 172.362L330.937 173.612Z" fill="#2D7E5D"/>
<path d="M347.46 142.493L356.336 127.121" stroke="white" stroke-width="2.5"/>
<path d="M293.437 111.676C293.616 111.01 294.301 110.614 294.968 110.793L305.835 113.704C306.501 113.883 306.897 114.568 306.718 115.235C306.54 115.902 305.854 116.298 305.187 116.119L295.528 113.531L292.94 123.19C292.761 123.857 292.076 124.253 291.409 124.074C290.742 123.895 290.347 123.21 290.525 122.543L293.437 111.676ZM328.772 173.612L293.562 112.625L295.727 111.375L330.937 172.362L328.772 173.612Z" fill="#2D7E5D"/>
<path d="M293.437 111.676C293.616 111.01 294.301 110.614 294.968 110.793L305.835 113.704C306.501 113.883 306.897 114.568 306.718 115.235C306.54 115.902 305.854 116.298 305.187 116.119L295.528 113.531L292.94 123.19C292.761 123.857 292.076 124.253 291.409 124.074C290.742 123.895 290.347 123.21 290.525 122.543L293.437 111.676ZM328.772 173.612L293.562 112.625L295.727 111.375L330.937 172.362L328.772 173.612Z" fill="#2D7E5D"/>
<path d="M312.25 142.493L303.374 127.121" stroke="white" stroke-width="2.5"/>
<path d="M366.273 234.297C366.094 234.963 365.409 235.359 364.742 235.181L353.875 232.269C353.208 232.09 352.813 231.405 352.991 230.738C353.17 230.071 353.856 229.675 354.522 229.854L364.182 232.442L366.77 222.783C366.949 222.116 367.634 221.72 368.301 221.899C368.968 222.078 369.363 222.763 369.185 223.43L366.273 234.297ZM330.937 172.362L366.148 233.348L363.983 234.598L328.772 173.612L330.937 172.362Z" fill="#2D7E5D"/>
<path d="M366.273 234.297C366.094 234.963 365.409 235.359 364.742 235.181L353.875 232.269C353.208 232.09 352.813 231.405 352.991 230.738C353.17 230.071 353.856 229.675 354.522 229.854L364.182 232.442L366.77 222.783C366.949 222.116 367.634 221.72 368.301 221.899C368.968 222.078 369.363 222.763 369.185 223.43L366.273 234.297ZM330.937 172.362L366.148 233.348L363.983 234.598L328.772 173.612L330.937 172.362Z" fill="#2D7E5D"/>
<path d="M347.46 203.48L356.336 218.852" stroke="white" stroke-width="2.5"/>
<path d="M293.437 234.297C293.616 234.963 294.301 235.359 294.968 235.181L305.835 232.269C306.501 232.09 306.897 231.405 306.718 230.738C306.54 230.071 305.854 229.675 305.187 229.854L295.528 232.442L292.94 222.783C292.761 222.116 292.076 221.72 291.409 221.899C290.742 222.078 290.347 222.763 290.525 223.43L293.437 234.297ZM328.772 172.362L293.562 233.348L295.727 234.598L330.937 173.612L328.772 172.362Z" fill="#2D7E5D"/>
<path d="M293.437 234.297C293.616 234.963 294.301 235.359 294.968 235.181L305.835 232.269C306.501 232.09 306.897 231.405 306.718 230.738C306.54 230.071 305.854 229.675 305.187 229.854L295.528 232.442L292.94 222.783C292.761 222.116 292.076 221.72 291.409 221.899C290.742 222.078 290.347 222.763 290.525 223.43L293.437 234.297ZM328.772 172.362L293.562 233.348L295.727 234.598L330.937 173.612L328.772 172.362Z" fill="#2D7E5D"/>
<path d="M312.25 203.48L303.374 218.852" stroke="white" stroke-width="2.5"/>
<circle cx="329.855" cy="172.987" r="20.0619" fill="white"/>
<path d="M336.095 176.987L340.095 172.987L336.095 168.987M324.095 168.987L320.095 172.987L324.095 176.987M332.595 164.987L327.595 180.987" stroke="#2D7E5D" stroke-width="2" stroke-linecap="round" stroke-linejoin="round"/>
<path d="M327.754 202.863C333.124 203.116 338.461 201.9 343.191 199.347C347.922 196.793 351.867 192.999 354.602 188.371C357.338 183.743 358.76 178.458 358.717 173.082C358.673 167.707 357.165 162.445 354.355 157.862C351.545 153.28 347.539 149.549 342.768 147.073C337.997 144.597 332.641 143.467 327.276 143.807C321.911 144.146 316.74 145.942 312.319 149C307.898 152.058 304.394 156.263 302.184 161.163L302.737 161.413C304.902 156.613 308.334 152.494 312.664 149.499C316.994 146.503 322.059 144.745 327.314 144.412C332.569 144.08 337.815 145.186 342.488 147.611C347.162 150.037 351.086 153.691 353.838 158.179C356.59 162.668 358.067 167.822 358.11 173.087C358.153 178.352 356.76 183.53 354.08 188.062C351.401 192.595 347.537 196.312 342.903 198.813C338.27 201.314 333.042 202.505 327.783 202.258L327.754 202.863Z" fill="white"/>
<path d="M301.223 164.335L300.899 159.161L305.146 161.247L301.223 164.335Z" fill="white"/>
<path d="M221.446 149.644C216.212 147.617 211.56 144.33 207.9 140.075C204.24 135.82 201.686 130.728 200.464 125.251C199.242 119.773 199.39 114.079 200.894 108.672C202.399 103.265 205.214 98.3122 209.089 94.2529C212.965 90.1936 217.782 87.1528 223.113 85.3998C228.445 83.6468 234.127 83.2358 239.655 84.203C245.183 85.1703 250.388 87.4861 254.807 90.9452C259.227 94.4043 262.725 98.9 264.993 104.034L264.352 104.317C262.132 99.288 258.705 94.8845 254.376 91.4963C250.047 88.1081 244.949 85.8399 239.534 84.8924C234.119 83.945 228.554 84.3476 223.332 86.0646C218.11 87.7817 213.392 90.7601 209.595 94.7362C205.799 98.7122 203.042 103.563 201.569 108.859C200.095 114.155 199.95 119.733 201.147 125.098C202.344 130.464 204.846 135.451 208.43 139.619C212.015 143.786 216.573 147.006 221.699 148.991L221.446 149.644Z" fill="white"/>
<path d="M266.381 108.745L266.993 102.794L262 105.003L266.381 108.745Z" fill="white"/>
<path d="M135.718 61.27H134.294L133.13 58.1924H128.476L127.381 61.27H125.949L130.16 50.2916H131.492L135.718 61.27ZM132.709 57.0363L130.987 52.3586C130.931 52.2055 130.875 51.9605 130.818 51.6237H130.788C130.737 51.935 130.678 52.18 130.612 52.3586L128.904 57.0363H132.709ZM143.512 61.27H142.256V60.0298H142.226C141.705 60.9791 140.899 61.4538 139.806 61.4538C137.938 61.4538 137.004 60.3411 137.004 58.1158V53.4304H138.252V57.9168C138.252 59.5704 138.885 60.3973 140.151 60.3973C140.763 60.3973 141.266 60.1727 141.659 59.7235C142.057 59.2693 142.256 58.6772 142.256 57.9474V53.4304H143.512V61.27ZM149.69 61.1935C149.394 61.3568 149.004 61.4384 148.519 61.4384C147.146 61.4384 146.459 60.6729 146.459 59.1417V54.5023H145.112V53.4304H146.459V51.5165L147.715 51.1107V53.4304H149.69V54.5023H147.715V58.9197C147.715 59.4454 147.804 59.8205 147.983 60.0451C148.161 60.2697 148.457 60.3819 148.871 60.3819C149.187 60.3819 149.46 60.2952 149.69 60.1216V61.1935ZM154.643 61.4538C153.485 61.4538 152.558 61.0888 151.864 60.359C151.175 59.624 150.831 58.6517 150.831 57.4421C150.831 56.1253 151.191 55.0969 151.91 54.3568C152.63 53.6167 153.602 53.2467 154.827 53.2467C155.996 53.2467 156.907 53.6065 157.56 54.3262C158.219 55.0458 158.548 56.0436 158.548 57.3196C158.548 58.5701 158.193 59.573 157.484 60.3284C156.779 61.0786 155.833 61.4538 154.643 61.4538ZM154.735 54.3032C153.929 54.3032 153.291 54.5788 152.821 55.13C152.352 55.6762 152.117 56.4315 152.117 57.3962C152.117 58.3251 152.354 59.0575 152.829 59.5934C153.304 60.1293 153.939 60.3973 154.735 60.3973C155.547 60.3973 156.169 60.1344 156.603 59.6087C157.042 59.083 157.262 58.3353 157.262 57.3655C157.262 56.3856 157.042 55.6302 156.603 55.0994C156.169 54.5686 155.547 54.3032 154.735 54.3032ZM171.685 61.27H170.43V56.7684C170.43 55.9007 170.294 55.273 170.024 54.8851C169.759 54.4972 169.309 54.3032 168.677 54.3032C168.141 54.3032 167.684 54.5482 167.306 55.0382C166.934 55.5281 166.747 56.1151 166.747 56.799V61.27H165.492V56.6153C165.492 55.0739 164.897 54.3032 163.708 54.3032C163.157 54.3032 162.702 54.5354 162.345 54.9999C161.988 55.4592 161.809 56.059 161.809 56.799V61.27H160.554V53.4304H161.809V54.6707H161.84C162.396 53.7214 163.208 53.2467 164.274 53.2467C164.81 53.2467 165.277 53.3973 165.675 53.6984C166.074 53.9944 166.347 54.3849 166.495 54.8697C167.076 53.7877 167.944 53.2467 169.098 53.2467C170.823 53.2467 171.685 54.3109 171.685 56.4392V61.27ZM179.67 61.27H178.415V60.0451H178.384C177.838 60.9842 177.034 61.4538 175.973 61.4538C175.192 61.4538 174.579 61.2471 174.135 60.8336C173.696 60.4202 173.477 59.8716 173.477 59.1876C173.477 57.7228 174.339 56.8705 176.064 56.6306L178.415 56.3014C178.415 54.9693 177.876 54.3032 176.799 54.3032C175.855 54.3032 175.003 54.6248 174.242 55.2678V53.9817C175.013 53.4917 175.901 53.2467 176.907 53.2467C178.749 53.2467 179.67 54.2216 179.67 56.1712V61.27ZM178.415 57.3043L176.524 57.5646C175.942 57.6463 175.503 57.7917 175.207 58.001C174.911 58.2051 174.763 58.5701 174.763 59.0958C174.763 59.4786 174.898 59.7924 175.169 60.0374C175.444 60.2773 175.809 60.3973 176.263 60.3973C176.886 60.3973 177.399 60.1803 177.802 59.7465C178.211 59.3076 178.415 58.7538 178.415 58.0852V57.3043ZM185.672 61.1935C185.376 61.3568 184.986 61.4384 184.501 61.4384C183.128 61.4384 182.442 60.6729 182.442 59.1417V54.5023H181.094V53.4304H182.442V51.5165L183.697 51.1107V53.4304H185.672V54.5023H183.697V58.9197C183.697 59.4454 183.787 59.8205 183.965 60.0451C184.144 60.2697 184.44 60.3819 184.853 60.3819C185.17 60.3819 185.443 60.2952 185.672 60.1216V61.1935ZM187.992 51.4399C187.768 51.4399 187.576 51.3634 187.418 51.2103C187.26 51.0571 187.181 50.8632 187.181 50.6284C187.181 50.3936 187.26 50.1997 187.418 50.0466C187.576 49.8884 187.768 49.8092 187.992 49.8092C188.222 49.8092 188.416 49.8884 188.574 50.0466C188.737 50.1997 188.819 50.3936 188.819 50.6284C188.819 50.853 188.737 51.0444 188.574 51.2026C188.416 51.3608 188.222 51.4399 187.992 51.4399ZM188.605 61.27H187.349V53.4304H188.605V61.27ZM196.49 60.9102C195.888 61.2726 195.173 61.4538 194.347 61.4538C193.229 61.4538 192.325 61.0914 191.636 60.3666C190.952 59.6368 190.61 58.6926 190.61 57.534C190.61 56.2427 190.98 55.2066 191.721 54.4257C192.461 53.6397 193.448 53.2467 194.683 53.2467C195.372 53.2467 195.98 53.3743 196.505 53.6295V54.9157C195.924 54.5074 195.301 54.3032 194.637 54.3032C193.836 54.3032 193.178 54.5916 192.662 55.1683C192.152 55.74 191.897 56.4928 191.897 57.4268C191.897 58.3455 192.137 59.0702 192.616 59.601C193.101 60.1319 193.749 60.3973 194.561 60.3973C195.245 60.3973 195.888 60.1701 196.49 59.7159V60.9102ZM134.692 81.8107C133.881 82.2394 132.87 82.4538 131.661 82.4538C130.099 82.4538 128.848 81.951 127.909 80.9456C126.97 79.9401 126.501 78.6207 126.501 76.9875C126.501 75.2318 127.029 73.8129 128.085 72.7309C129.142 71.6488 130.482 71.1078 132.105 71.1078C133.146 71.1078 134.008 71.2584 134.692 71.5595V72.9299C133.906 72.491 133.039 72.2715 132.089 72.2715C130.829 72.2715 129.805 72.6926 129.019 73.5347C128.238 74.3769 127.848 75.5023 127.848 76.9109C127.848 78.2482 128.213 79.3149 128.943 80.1111C129.678 80.9022 130.64 81.2977 131.829 81.2977C132.931 81.2977 133.886 81.0527 134.692 80.5628V81.8107ZM142.371 82.27H141.116V81.0451H141.085C140.539 81.9842 139.735 82.4538 138.673 82.4538C137.892 82.4538 137.28 82.2471 136.836 81.8336C136.397 81.4202 136.178 80.8716 136.178 80.1876C136.178 78.7228 137.04 77.8705 138.765 77.6306L141.116 77.3014C141.116 75.9693 140.577 75.3032 139.5 75.3032C138.556 75.3032 137.704 75.6248 136.943 76.2678V74.9817C137.714 74.4917 138.602 74.2467 139.607 74.2467C141.45 74.2467 142.371 75.2216 142.371 77.1712V82.27ZM141.116 78.3043L139.225 78.5646C138.643 78.6463 138.204 78.7917 137.908 79.001C137.612 79.2051 137.464 79.5701 137.464 80.0958C137.464 80.4786 137.599 80.7924 137.869 81.0374C138.145 81.2773 138.51 81.3973 138.964 81.3973C139.587 81.3973 140.1 81.1803 140.503 80.7465C140.911 80.3076 141.116 79.7538 141.116 79.0852V78.3043ZM150.08 81.9102C149.478 82.2726 148.764 82.4538 147.937 82.4538C146.819 82.4538 145.916 82.0914 145.227 81.3666C144.543 80.6368 144.201 79.6926 144.201 78.534C144.201 77.2427 144.571 76.2066 145.311 75.4257C146.051 74.6397 147.039 74.2467 148.274 74.2467C148.963 74.2467 149.57 74.3743 150.096 74.6295V75.9157C149.514 75.5074 148.891 75.3032 148.228 75.3032C147.426 75.3032 146.768 75.5916 146.253 76.1683C145.742 76.74 145.487 77.4928 145.487 78.4268C145.487 79.3455 145.727 80.0702 146.207 80.601C146.692 81.1319 147.34 81.3973 148.151 81.3973C148.835 81.3973 149.478 81.1701 150.08 80.7159V81.9102ZM158.487 82.27H157.231V77.7531C157.231 76.1198 156.624 75.3032 155.409 75.3032C154.796 75.3032 154.281 75.5405 153.862 76.0152C153.444 76.4848 153.235 77.0896 153.235 77.8296V82.27H151.979V70.6638H153.235V75.7319H153.265C153.868 74.7418 154.725 74.2467 155.838 74.2467C157.604 74.2467 158.487 75.3109 158.487 77.4392V82.27ZM161.503 72.4399C161.278 72.4399 161.087 72.3634 160.929 72.2103C160.771 72.0571 160.691 71.8632 160.691 71.6284C160.691 71.3936 160.771 71.1997 160.929 71.0466C161.087 70.8884 161.278 70.8092 161.503 70.8092C161.733 70.8092 161.927 70.8884 162.085 71.0466C162.248 71.1997 162.33 71.3936 162.33 71.6284C162.33 71.853 162.248 72.0444 162.085 72.2026C161.927 72.3608 161.733 72.4399 161.503 72.4399ZM162.115 82.27H160.86V74.4304H162.115V82.27ZM171.165 82.27H169.909V77.799C169.909 76.1351 169.302 75.3032 168.087 75.3032C167.459 75.3032 166.939 75.5405 166.525 76.0152C166.117 76.4848 165.913 77.0794 165.913 77.799V82.27H164.657V74.4304H165.913V75.7319H165.943C166.535 74.7418 167.393 74.2467 168.516 74.2467C169.373 74.2467 170.029 74.5249 170.483 75.0812C170.938 75.6324 171.165 76.4312 171.165 77.4775V82.27ZM180.229 81.6422C180.229 84.5208 178.851 85.9601 176.095 85.9601C175.125 85.9601 174.278 85.7764 173.553 85.4089V84.1534C174.436 84.6433 175.278 84.8883 176.08 84.8883C178.009 84.8883 178.974 83.8624 178.974 81.8107V80.9532H178.943C178.346 81.9536 177.448 82.4538 176.248 82.4538C175.273 82.4538 174.487 82.1067 173.89 81.4126C173.298 80.7133 173.002 79.7768 173.002 78.6029C173.002 77.2708 173.321 76.2117 173.959 75.4257C174.602 74.6397 175.48 74.2467 176.593 74.2467C177.649 74.2467 178.433 74.6703 178.943 75.5176H178.974V74.4304H180.229V81.6422ZM178.974 78.7254V77.5693C178.974 76.9467 178.762 76.4133 178.338 75.9693C177.92 75.5252 177.396 75.3032 176.769 75.3032C175.993 75.3032 175.386 75.5865 174.947 76.153C174.508 76.7144 174.288 77.503 174.288 78.5187C174.288 79.3914 174.497 80.0907 174.916 80.6164C175.34 81.137 175.899 81.3973 176.593 81.3973C177.297 81.3973 177.869 81.1472 178.308 80.647C178.752 80.1468 178.974 79.5063 178.974 78.7254Z" fill="black"/>
<path d="M394.917 208.046V212.196H393.63V201.217H396.647C397.821 201.217 398.729 201.503 399.372 202.075C400.021 202.647 400.345 203.453 400.345 204.494C400.345 205.535 399.985 206.388 399.265 207.051C398.551 207.715 397.583 208.046 396.364 208.046H394.917ZM394.917 202.381V206.883H396.264C397.152 206.883 397.828 206.681 398.293 206.278C398.762 205.87 398.997 205.295 398.997 204.555C398.997 203.106 398.14 202.381 396.425 202.381H394.917ZM407.327 212.196H406.071V210.971H406.041C405.494 211.91 404.691 212.38 403.629 212.38C402.848 212.38 402.236 212.173 401.792 211.76C401.353 211.346 401.133 210.797 401.133 210.114C401.133 208.649 401.996 207.796 403.721 207.557L406.071 207.227C406.071 205.895 405.533 205.229 404.456 205.229C403.512 205.229 402.659 205.551 401.899 206.194V204.908C402.669 204.418 403.558 204.173 404.563 204.173C406.405 204.173 407.327 205.147 407.327 207.097V212.196ZM406.071 208.23L404.18 208.491C403.598 208.572 403.159 208.718 402.863 208.927C402.567 209.131 402.419 209.496 402.419 210.022C402.419 210.404 402.555 210.718 402.825 210.963C403.101 211.203 403.466 211.323 403.92 211.323C404.543 211.323 405.056 211.106 405.459 210.672C405.867 210.233 406.071 209.68 406.071 209.011V208.23ZM413.781 205.627C413.561 205.459 413.245 205.375 412.831 205.375C412.295 205.375 411.846 205.627 411.484 206.133C411.127 206.638 410.948 207.327 410.948 208.2V212.196H409.692V204.356H410.948V205.972H410.979C411.157 205.421 411.43 204.992 411.798 204.686C412.165 204.374 412.576 204.219 413.03 204.219C413.357 204.219 413.607 204.254 413.781 204.326V205.627ZM420.755 212.196H419.5V210.971H419.469C418.923 211.91 418.119 212.38 417.057 212.38C416.276 212.38 415.664 212.173 415.22 211.76C414.781 211.346 414.561 210.797 414.561 210.114C414.561 208.649 415.424 207.796 417.149 207.557L419.5 207.227C419.5 205.895 418.961 205.229 417.884 205.229C416.94 205.229 416.088 205.551 415.327 206.194V204.908C416.098 204.418 416.986 204.173 417.991 204.173C419.834 204.173 420.755 205.147 420.755 207.097V212.196ZM419.5 208.23L417.609 208.491C417.027 208.572 416.588 208.718 416.292 208.927C415.996 209.131 415.848 209.496 415.848 210.022C415.848 210.404 415.983 210.718 416.253 210.963C416.529 211.203 416.894 211.323 417.348 211.323C417.971 211.323 418.484 211.106 418.887 210.672C419.295 210.233 419.5 209.68 419.5 209.011V208.23ZM424.376 212.196H423.121V200.59H424.376V212.196ZM428.174 212.196H426.918V200.59H428.174V212.196ZM437.016 208.59H431.481C431.501 209.463 431.736 210.137 432.185 210.611C432.634 211.086 433.252 211.323 434.038 211.323C434.921 211.323 435.732 211.032 436.472 210.45V211.629C435.783 212.13 434.872 212.38 433.739 212.38C432.632 212.38 431.762 212.025 431.129 211.316C430.496 210.601 430.179 209.598 430.179 208.307C430.179 207.087 430.524 206.094 431.213 205.329C431.907 204.558 432.767 204.173 433.793 204.173C434.819 204.173 435.612 204.504 436.174 205.168C436.735 205.831 437.016 206.753 437.016 207.932V208.59ZM435.73 207.526C435.725 206.801 435.549 206.237 435.202 205.834C434.86 205.431 434.382 205.229 433.77 205.229C433.178 205.229 432.675 205.441 432.262 205.865C431.848 206.288 431.593 206.842 431.496 207.526H435.73ZM440.178 212.196H438.922V200.59H440.178V212.196ZM399.449 233.196H393.63V222.217H399.204V223.381H394.917V227.033H398.882V228.189H394.917V232.032H399.449V233.196ZM407.12 225.356L404.486 229.322L407.074 233.196H405.612L404.073 230.654C403.976 230.496 403.861 230.297 403.728 230.057H403.698C403.672 230.103 403.552 230.302 403.338 230.654L401.769 233.196H400.322L402.994 229.353L400.436 225.356H401.899L403.415 228.036C403.527 228.235 403.637 228.439 403.744 228.648H403.774L405.734 225.356H407.12ZM414.891 229.59H409.356C409.376 230.463 409.611 231.137 410.06 231.611C410.509 232.086 411.127 232.323 411.913 232.323C412.796 232.323 413.607 232.032 414.347 231.45V232.629C413.658 233.13 412.747 233.38 411.614 233.38C410.506 233.38 409.636 233.025 409.003 232.316C408.37 231.601 408.054 230.598 408.054 229.307C408.054 228.087 408.399 227.094 409.088 226.329C409.782 225.558 410.642 225.173 411.668 225.173C412.693 225.173 413.487 225.504 414.049 226.168C414.61 226.831 414.891 227.753 414.891 228.932V229.59ZM413.605 228.526C413.599 227.801 413.423 227.237 413.076 226.834C412.734 226.431 412.257 226.229 411.645 226.229C411.053 226.229 410.55 226.441 410.136 226.865C409.723 227.288 409.468 227.842 409.371 228.526H413.605ZM422.141 232.836C421.539 233.198 420.824 233.38 419.997 233.38C418.879 233.38 417.976 233.017 417.287 232.293C416.603 231.563 416.261 230.618 416.261 229.46C416.261 228.169 416.631 227.133 417.371 226.352C418.111 225.566 419.099 225.173 420.334 225.173C421.023 225.173 421.63 225.3 422.156 225.555V226.842C421.574 226.433 420.952 226.229 420.288 226.229C419.487 226.229 418.828 226.518 418.313 227.094C417.802 227.666 417.547 228.419 417.547 229.353C417.547 230.271 417.787 230.996 418.267 231.527C418.752 232.058 419.4 232.323 420.212 232.323C420.895 232.323 421.539 232.096 422.141 231.642V232.836ZM430.378 233.196H429.123V231.956H429.092C428.572 232.905 427.765 233.38 426.673 233.38C424.805 233.38 423.871 232.267 423.871 230.042V225.356H425.119V229.843C425.119 231.496 425.752 232.323 427.018 232.323C427.63 232.323 428.133 232.099 428.526 231.649C428.924 231.195 429.123 230.603 429.123 229.873V225.356H430.378V233.196ZM436.557 233.119C436.261 233.283 435.87 233.364 435.385 233.364C434.012 233.364 433.326 232.599 433.326 231.068V226.428H431.979V225.356H433.326V223.442L434.581 223.037V225.356H436.557V226.428H434.581V230.846C434.581 231.371 434.671 231.746 434.849 231.971C435.028 232.196 435.324 232.308 435.738 232.308C436.054 232.308 436.327 232.221 436.557 232.048V233.119ZM438.876 223.366C438.652 223.366 438.46 223.289 438.302 223.136C438.144 222.983 438.065 222.789 438.065 222.554C438.065 222.32 438.144 222.126 438.302 221.972C438.46 221.814 438.652 221.735 438.876 221.735C439.106 221.735 439.3 221.814 439.458 221.972C439.622 222.126 439.703 222.32 439.703 222.554C439.703 222.779 439.622 222.97 439.458 223.129C439.3 223.287 439.106 223.366 438.876 223.366ZM439.489 233.196H438.233V225.356H439.489V233.196ZM445.307 233.38C444.149 233.38 443.222 233.015 442.528 232.285C441.839 231.55 441.495 230.578 441.495 229.368C441.495 228.051 441.855 227.023 442.574 226.283C443.294 225.543 444.266 225.173 445.491 225.173C446.66 225.173 447.571 225.532 448.224 226.252C448.883 226.972 449.212 227.97 449.212 229.246C449.212 230.496 448.857 231.499 448.148 232.254C447.443 233.005 446.497 233.38 445.307 233.38ZM445.399 226.229C444.593 226.229 443.955 226.505 443.485 227.056C443.016 227.602 442.781 228.357 442.781 229.322C442.781 230.251 443.018 230.983 443.493 231.519C443.968 232.055 444.603 232.323 445.399 232.323C446.211 232.323 446.833 232.06 447.267 231.535C447.706 231.009 447.926 230.261 447.926 229.291C447.926 228.312 447.706 227.556 447.267 227.025C446.833 226.495 446.211 226.229 445.399 226.229ZM457.725 233.196H456.47V228.725C456.47 227.061 455.862 226.229 454.647 226.229C454.02 226.229 453.499 226.466 453.086 226.941C452.677 227.411 452.473 228.005 452.473 228.725V233.196H451.218V225.356H452.473V226.658H452.504C453.096 225.668 453.953 225.173 455.076 225.173C455.934 225.173 456.589 225.451 457.044 226.007C457.498 226.558 457.725 227.357 457.725 228.403V233.196Z" fill="black"/>
</svg>
