<svg width="582" height="329" viewBox="0 0 582 329" fill="none" xmlns="http://www.w3.org/2000/svg">
<rect width="582" height="329" rx="20" fill="white"/>
<path d="M273.946 95.6508C277.399 92.5864 278.761 87.771 276.962 83.4906C275.843 80.9127 274.627 78.3834 273.265 75.9514L271.757 73.3248C270.298 70.8927 268.693 68.5094 266.99 66.2233C264.218 62.5266 259.354 61.3106 254.976 62.7698L241.26 67.2933C236.055 63.013 230.072 59.5109 223.652 57.1275L220.685 43.0217C219.76 38.4982 216.258 34.8988 211.686 34.3637C208.476 33.9259 205.217 33.7314 201.909 33.7314H201.569C198.261 33.7314 195.002 33.9259 191.792 34.3151C187.22 34.8501 183.718 38.4982 182.794 42.9731L179.827 57.1275C173.357 59.5595 167.423 63.013 162.219 67.2933L148.453 62.8184C144.076 61.3592 139.212 62.5752 136.439 66.2719C134.737 68.558 133.132 70.9414 131.624 73.3734L130.165 75.9514C128.803 78.3834 127.587 80.9127 126.468 83.5393C124.668 87.771 126.03 92.5864 129.484 95.6994L140.282 105.33C139.747 108.589 139.455 111.994 139.455 115.447C139.455 118.901 139.747 122.306 140.282 125.613L129.484 135.244C126.03 138.309 124.668 143.124 126.468 147.404C127.587 149.982 128.803 152.512 130.165 154.992L131.624 157.522C133.083 160.002 134.688 162.337 136.439 164.623C139.212 168.32 144.076 169.536 148.453 168.077L162.17 163.553C167.375 167.833 173.357 171.335 179.778 173.719L182.745 187.873C183.669 192.397 187.171 195.996 191.744 196.531C195.002 196.92 198.31 197.115 201.666 197.115C205.022 197.115 208.33 196.92 211.589 196.531C216.161 195.996 219.663 192.348 220.587 187.873L223.554 173.719C230.024 171.287 235.958 167.833 241.162 163.553L254.879 168.077C259.257 169.536 264.121 168.32 266.893 164.623C268.596 162.337 270.201 160.002 271.66 157.522L273.168 154.895C274.53 152.463 275.746 149.934 276.864 147.356C278.664 143.124 277.302 138.309 273.849 135.196L263.051 125.565C263.586 122.257 263.877 118.852 263.877 115.399C263.877 111.945 263.586 108.541 263.051 105.233L273.849 95.6021L273.946 95.6508ZM178.367 115.447C178.367 109.255 180.827 103.317 185.206 98.9383C189.584 94.5598 195.523 92.1 201.715 92.1C207.907 92.1 213.845 94.5598 218.224 98.9383C222.602 103.317 225.062 109.255 225.062 115.447C225.062 121.64 222.602 127.578 218.224 131.957C213.845 136.335 207.907 138.795 201.715 138.795C195.523 138.795 189.584 136.335 185.206 131.957C180.827 127.578 178.367 121.64 178.367 115.447ZM369.379 273.286C372.443 276.739 377.258 278.101 381.539 276.302C384.117 275.183 386.646 273.967 389.078 272.605L391.705 271.097C394.137 269.638 396.52 268.033 398.806 266.33C402.503 263.558 403.719 258.694 402.26 254.316L397.736 240.6C402.017 235.395 405.519 229.412 407.902 222.992L422.056 220.025C426.58 219.1 430.179 215.598 430.714 211.026C431.104 207.767 431.298 204.46 431.298 201.103C431.298 197.747 431.104 194.44 430.714 191.181C430.179 186.609 426.531 183.106 422.056 182.182L407.902 179.167C405.47 172.697 402.017 166.763 397.736 161.559L402.26 147.842C403.719 143.464 402.503 138.6 398.806 135.828C396.52 134.125 394.137 132.52 391.705 131.012L389.127 129.553C386.695 128.191 384.165 126.975 381.539 125.857C377.307 124.057 372.492 125.419 369.379 128.872L359.748 139.67C356.44 139.135 353.035 138.844 349.582 138.844C346.129 138.844 342.724 139.135 339.416 139.67L329.785 128.872C326.721 125.419 321.906 124.057 317.625 125.857C315.047 126.975 312.518 128.191 310.037 129.553L307.508 131.012C305.027 132.472 302.693 134.077 300.406 135.828C296.71 138.6 295.494 143.464 296.953 147.842L301.477 161.559C297.196 166.763 293.694 172.746 291.311 179.167L277.156 182.085C272.633 183.009 269.033 186.511 268.498 191.083C268.109 194.342 267.915 197.65 267.915 201.006C267.915 204.362 268.109 207.67 268.498 210.929C269.033 215.501 272.681 219.003 277.156 219.927L291.311 222.894C293.743 229.364 297.196 235.298 301.477 240.502L296.953 254.219C295.494 258.597 296.71 263.461 300.406 266.233C302.693 267.935 305.027 269.541 307.508 271L310.135 272.508C312.567 273.87 315.096 275.086 317.674 276.204C321.906 278.004 326.721 276.642 329.834 273.189L339.465 262.39C342.772 262.926 346.177 263.217 349.631 263.217C353.084 263.217 356.489 262.926 359.797 262.39L369.427 273.189L369.379 273.286ZM349.582 177.707C352.648 177.707 355.684 178.311 358.517 179.485C361.349 180.658 363.923 182.378 366.091 184.546C368.259 186.714 369.979 189.287 371.152 192.12C372.326 194.953 372.929 197.989 372.929 201.055C372.929 204.121 372.326 207.157 371.152 209.989C369.979 212.822 368.259 215.396 366.091 217.564C363.923 219.732 361.349 221.452 358.517 222.625C355.684 223.798 352.648 224.402 349.582 224.402C346.516 224.402 343.48 223.798 340.647 222.625C337.815 221.452 335.241 219.732 333.073 217.564C330.905 215.396 329.185 212.822 328.012 209.989C326.838 207.157 326.235 204.121 326.235 201.055C326.235 197.989 326.838 194.953 328.012 192.12C329.185 189.287 330.905 186.714 333.073 184.546C335.241 182.378 337.815 180.658 340.647 179.485C343.48 178.311 346.516 177.707 349.582 177.707Z" fill="#2D7E5D"/>
<circle cx="203.352" cy="110.544" r="30.6551" fill="#2D7E5D"/>
<circle cx="350.372" cy="203.761" r="30.6551" fill="#2D7E5D"/>
<mask id="path-5-inside-1_19_688" fill="white">
<path fill-rule="evenodd" clip-rule="evenodd" d="M231.674 96.6677H175.709V137.369H175.717C176.074 141.672 188.462 145.128 203.691 145.128C218.921 145.128 231.309 141.672 231.666 137.369H231.674V96.6677Z"/>
</mask>
<path fill-rule="evenodd" clip-rule="evenodd" d="M231.674 96.6677H175.709V137.369H175.717C176.074 141.672 188.462 145.128 203.691 145.128C218.921 145.128 231.309 141.672 231.666 137.369H231.674V96.6677Z" fill="white"/>
<path d="M175.709 96.6677V94.8038H173.845V96.6677H175.709ZM231.674 96.6677H233.538V94.8038H231.674V96.6677ZM175.709 137.369H173.845V139.233H175.709V137.369ZM175.717 137.369L177.575 137.215L177.433 135.505H175.717V137.369ZM231.666 137.369V135.505H229.95L229.808 137.215L231.666 137.369ZM231.674 137.369V139.233H233.538V137.369H231.674ZM175.709 98.5317H231.674V94.8038H175.709V98.5317ZM177.573 137.369V96.6677H173.845V137.369H177.573ZM175.717 135.505H175.709V139.233H175.717V135.505ZM203.691 143.264C196.198 143.264 189.468 142.412 184.626 141.066C182.194 140.39 180.333 139.616 179.103 138.827C177.799 137.992 177.59 137.401 177.575 137.215L173.859 137.523C174.022 139.489 175.495 140.943 177.091 141.966C178.759 143.035 181.015 143.932 183.628 144.658C188.876 146.116 195.956 146.992 203.691 146.992V143.264ZM229.808 137.215C229.793 137.401 229.584 137.992 228.28 138.827C227.05 139.616 225.189 140.39 222.757 141.066C217.914 142.412 211.185 143.264 203.691 143.264V146.992C211.427 146.992 218.507 146.116 223.755 144.658C226.368 143.932 228.624 143.035 230.292 141.966C231.888 140.943 233.361 139.489 233.524 137.523L229.808 137.215ZM231.674 135.505H231.666V139.233H231.674V135.505ZM229.81 96.6677V137.369H233.538V96.6677H229.81Z" fill="#2D7E5D" mask="url(#path-5-inside-1_19_688)"/>
<path fill-rule="evenodd" clip-rule="evenodd" d="M229.674 107.352C229.674 107.429 229.602 107.952 228.36 108.786C227.19 109.572 225.365 110.358 222.931 111.049C218.091 112.424 211.288 113.301 203.691 113.301C196.095 113.301 189.292 112.424 184.452 111.049C182.018 110.358 180.193 109.572 179.023 108.786C177.781 107.952 177.709 107.429 177.709 107.352C177.709 107.352 177.709 107.352 177.709 107.352H175.709C175.709 107.352 175.709 107.352 175.709 107.352C175.709 111.742 188.237 115.301 203.691 115.301C219.127 115.301 231.643 111.751 231.674 107.368V107.352L229.674 107.352Z" fill="#2D7E5D"/>
<path fill-rule="evenodd" clip-rule="evenodd" d="M229.674 118.1C229.674 118.177 229.602 118.7 228.36 119.534C227.19 120.32 225.365 121.106 222.931 121.797C218.091 123.172 211.288 124.049 203.691 124.049C196.095 124.049 189.292 123.172 184.452 121.797C182.018 121.106 180.193 120.32 179.023 119.534C177.781 118.7 177.709 118.177 177.709 118.1H175.709C175.709 122.49 188.237 126.049 203.691 126.049C219.121 126.049 231.633 122.502 231.674 118.121V118.1L229.674 118.1Z" fill="#2D7E5D"/>
<path fill-rule="evenodd" clip-rule="evenodd" d="M229.674 128.848C229.674 128.925 229.602 129.448 228.36 130.282C227.19 131.068 225.365 131.854 222.931 132.545C218.091 133.92 211.288 134.797 203.691 134.797C196.095 134.797 189.292 133.92 184.452 132.545C182.018 131.854 180.193 131.068 179.023 130.282C177.781 129.448 177.709 128.925 177.709 128.848C177.709 128.848 177.709 128.848 177.709 128.848H175.709C175.709 128.848 175.709 128.848 175.709 128.848C175.709 133.238 188.237 136.797 203.691 136.797C219.133 136.797 231.653 133.244 231.674 128.859V128.848L229.674 128.848Z" fill="#2D7E5D"/>
<path d="M230.674 96.6041C230.674 97.1915 230.246 97.9757 228.917 98.8683C227.624 99.7367 225.688 100.558 223.205 101.263C218.252 102.67 211.353 103.554 203.691 103.554C196.03 103.554 189.13 102.67 184.178 101.263C181.695 100.558 179.759 99.7367 178.466 98.8683C177.137 97.9757 176.709 97.1915 176.709 96.6041C176.709 96.0167 177.137 95.2325 178.466 94.3399C179.759 93.4715 181.695 92.6503 184.178 91.9449C189.13 90.538 196.03 89.6546 203.691 89.6546C211.353 89.6546 218.252 90.538 223.205 91.9449C225.688 92.6503 227.624 93.4715 228.917 94.3399C230.246 95.2325 230.674 96.0167 230.674 96.6041Z" fill="white" stroke="#2D7E5D" stroke-width="2"/>
<circle cx="225.441" cy="132.822" r="15.7221" fill="white" stroke="#2D7E5D" stroke-width="2"/>
<path d="M224.734 141.479C225.125 141.87 225.758 141.87 226.149 141.479L232.512 135.115C232.903 134.725 232.903 134.092 232.512 133.701C232.122 133.311 231.489 133.311 231.098 133.701L225.441 139.358L219.785 133.701C219.394 133.311 218.761 133.311 218.37 133.701C217.98 134.092 217.98 134.725 218.37 135.115L224.734 141.479ZM224.441 124.873L224.441 140.772L226.441 140.772L226.441 124.873L224.441 124.873Z" fill="#2D7E5D"/>
<path d="M459.328 201.531C460.074 200.785 460.074 199.576 459.328 198.83L447.172 186.674C446.427 185.928 445.217 185.928 444.471 186.674C443.725 187.42 443.725 188.629 444.471 189.375L455.276 200.18L444.471 210.985C443.725 211.731 443.725 212.94 444.471 213.686C445.217 214.432 446.427 214.432 447.172 213.686L459.328 201.531ZM350.372 202.09H457.977V198.27H350.372V202.09Z" fill="#2D7E5D"/>
<path d="M404.174 200.18L431.298 200.18" stroke="white" stroke-width="3.82007"/>
<path d="M241.415 201.531C240.669 200.785 240.669 199.576 241.415 198.83L253.571 186.674C254.317 185.928 255.526 185.928 256.272 186.674C257.018 187.42 257.018 188.629 256.272 189.375L245.467 200.18L256.272 210.985C257.018 211.731 257.018 212.94 256.272 213.686C255.526 214.432 254.317 214.432 253.571 213.686L241.415 201.531ZM350.372 202.09H242.766V198.27H350.372V202.09Z" fill="#2D7E5D"/>
<path d="M296.569 200.18L269.445 200.18" stroke="white" stroke-width="3.82007"/>
<path d="M406.019 106.497C405.746 105.478 404.699 104.873 403.68 105.146L387.075 109.595C386.056 109.868 385.452 110.916 385.725 111.934C385.998 112.953 387.045 113.558 388.064 113.285L402.824 109.33L406.779 124.09C407.052 125.109 408.099 125.713 409.118 125.44C410.137 125.167 410.741 124.12 410.468 123.101L406.019 106.497ZM352.026 201.135L405.828 107.946L402.52 106.036L348.717 199.225L352.026 201.135Z" fill="#2D7E5D"/>
<path d="M406.019 106.497C405.746 105.478 404.699 104.873 403.68 105.146L387.075 109.595C386.056 109.868 385.452 110.916 385.725 111.934C385.998 112.953 387.045 113.558 388.064 113.285L402.824 109.33L406.779 124.09C407.052 125.109 408.099 125.713 409.118 125.44C410.137 125.167 410.741 124.12 410.468 123.101L406.019 106.497ZM352.026 201.135L405.828 107.946L402.52 106.036L348.717 199.225L352.026 201.135Z" fill="#2D7E5D"/>
<path d="M377.273 153.586L390.835 130.096" stroke="white" stroke-width="3.82007"/>
<path d="M294.724 106.497C294.997 105.478 296.044 104.873 297.063 105.146L313.668 109.595C314.686 109.868 315.291 110.916 315.018 111.934C314.745 112.953 313.698 113.558 312.679 113.285L297.919 109.33L293.964 124.09C293.691 125.109 292.644 125.713 291.625 125.44C290.606 125.167 290.001 124.12 290.274 123.101L294.724 106.497ZM348.717 201.135L294.914 107.946L298.223 106.036L352.026 199.225L348.717 201.135Z" fill="#2D7E5D"/>
<path d="M294.724 106.497C294.997 105.478 296.044 104.873 297.063 105.146L313.668 109.595C314.686 109.868 315.291 110.916 315.018 111.934C314.745 112.953 313.698 113.558 312.679 113.285L297.919 109.33L293.964 124.09C293.691 125.109 292.644 125.713 291.625 125.44C290.606 125.167 290.001 124.12 290.274 123.101L294.724 106.497ZM348.717 201.135L294.914 107.946L298.223 106.036L352.026 199.225L348.717 201.135Z" fill="#2D7E5D"/>
<path d="M323.47 153.586L309.908 130.096" stroke="white" stroke-width="3.82007"/>
<path d="M406.019 293.864C405.746 294.883 404.699 295.487 403.68 295.214L387.075 290.765C386.056 290.492 385.452 289.445 385.725 288.426C385.998 287.407 387.045 286.802 388.064 287.075L402.824 291.03L406.779 276.27C407.052 275.252 408.099 274.647 409.118 274.92C410.137 275.193 410.741 276.24 410.468 277.259L406.019 293.864ZM352.026 199.225L405.828 292.414L402.52 294.324L348.717 201.135L352.026 199.225Z" fill="#2D7E5D"/>
<path d="M406.019 293.864C405.746 294.883 404.699 295.487 403.68 295.214L387.075 290.765C386.056 290.492 385.452 289.445 385.725 288.426C385.998 287.407 387.045 286.802 388.064 287.075L402.824 291.03L406.779 276.27C407.052 275.252 408.099 274.647 409.118 274.92C410.137 275.193 410.741 276.24 410.468 277.259L406.019 293.864ZM352.026 199.225L405.828 292.414L402.52 294.324L348.717 201.135L352.026 199.225Z" fill="#2D7E5D"/>
<path d="M377.273 246.775L390.835 270.265" stroke="white" stroke-width="3.82007"/>
<path d="M294.724 293.864C294.997 294.883 296.044 295.487 297.063 295.214L313.668 290.765C314.686 290.492 315.291 289.445 315.018 288.426C314.745 287.407 313.698 286.802 312.679 287.075L297.919 291.03L293.964 276.27C293.691 275.252 292.644 274.647 291.625 274.92C290.606 275.193 290.001 276.24 290.274 277.259L294.724 293.864ZM348.717 199.225L294.914 292.414L298.223 294.324L352.026 201.135L348.717 199.225Z" fill="#2D7E5D"/>
<path d="M294.724 293.864C294.997 294.883 296.044 295.487 297.063 295.214L313.668 290.765C314.686 290.492 315.291 289.445 315.018 288.426C314.745 287.407 313.698 286.802 312.679 287.075L297.919 291.03L293.964 276.27C293.691 275.252 292.644 274.647 291.625 274.92C290.606 275.193 290.001 276.24 290.274 277.259L294.724 293.864ZM348.717 199.225L294.914 292.414L298.223 294.324L352.026 201.135L348.717 199.225Z" fill="#2D7E5D"/>
<path d="M323.47 246.775L309.908 270.265" stroke="white" stroke-width="3.82007"/>
<circle cx="350.372" cy="200.18" r="30.6551" fill="white"/>
<path d="M359.907 206.292L366.019 200.18L359.907 194.068M341.571 194.068L335.458 200.18L341.571 206.292M354.559 187.956L346.919 212.404" stroke="#2D7E5D" stroke-width="3.05606" stroke-linecap="round" stroke-linejoin="round"/>
<path d="M347.162 245.833C355.367 246.219 363.522 244.361 370.75 240.459C377.978 236.557 384.006 230.759 388.186 223.688C392.366 216.617 394.539 208.54 394.473 200.326C394.406 192.113 392.102 184.072 387.808 177.07C383.514 170.067 377.393 164.368 370.103 160.583C362.812 156.799 354.628 155.074 346.43 155.593C338.233 156.111 330.331 158.855 323.576 163.528C316.821 168.201 311.467 174.626 308.09 182.114L310.512 183.206C313.69 176.159 318.729 170.111 325.087 165.713C331.446 161.314 338.882 158.732 346.598 158.244C354.314 157.756 362.017 159.38 368.879 162.942C375.741 166.503 381.502 171.868 385.543 178.459C389.585 185.049 391.753 192.617 391.816 200.348C391.879 208.079 389.833 215.681 385.899 222.336C381.965 228.991 376.291 234.449 369.488 238.121C362.685 241.793 355.009 243.542 347.287 243.179L347.162 245.833Z" fill="white"/>
<path d="M307.117 187.276L306.621 179.371L313.11 182.558L307.117 187.276Z" fill="white"/>
<path d="M184.719 164.512C176.722 161.414 169.613 156.392 164.02 149.891C158.428 143.389 154.525 135.609 152.658 127.239C150.791 118.868 151.017 110.167 153.316 101.905C155.615 93.643 159.916 86.0755 165.838 79.8728C171.76 73.6701 179.12 69.0237 187.267 66.3451C195.414 63.6664 204.096 63.0383 212.543 64.5164C220.991 65.9944 228.943 69.5329 235.697 74.8186C242.45 80.1042 247.796 86.9738 251.26 94.8188L248.437 96.0653C245.178 88.6845 240.149 82.2214 233.795 77.2485C227.441 72.2756 219.959 68.9464 212.011 67.5558C204.064 66.1653 195.896 66.7562 188.231 69.2763C180.566 71.7965 173.641 76.168 168.07 82.0037C162.498 87.8394 158.451 94.9591 156.289 102.732C154.126 110.505 153.913 118.692 155.67 126.567C157.427 134.442 161.098 141.762 166.36 147.878C171.621 153.995 178.31 158.72 185.834 161.635L184.719 164.512Z" fill="white"/>
<path d="M252.503 102.908L253.51 93.1285L245.304 96.7597L252.503 102.908Z" fill="white"/>
<path d="M62.0544 115.29H60.0563L59.0687 112.496H54.7508L53.8015 115.29H51.8109L55.9221 104.312H57.9739L62.0544 115.29ZM58.5863 111.011L57.0628 106.632C57.0169 106.489 56.9684 106.259 56.9174 105.942H56.8868C56.8408 106.233 56.7898 106.463 56.7336 106.632L55.2254 111.011H58.5863ZM70.2079 115.29H68.4317V114.05H68.4011C67.8856 114.999 67.0843 115.474 65.9972 115.474C64.1445 115.474 63.2181 114.361 63.2181 112.136V107.451H64.9943V111.952C64.9943 113.361 65.5378 114.065 66.625 114.065C67.1507 114.065 67.5819 113.871 67.9188 113.483C68.2608 113.096 68.4317 112.588 68.4317 111.96V107.451H70.2079V115.29ZM76.6618 115.206C76.3147 115.38 75.8579 115.466 75.2914 115.466C73.7704 115.466 73.0099 114.736 73.0099 113.277V108.844H71.7008V107.451H73.0099V105.636L74.7861 105.131V107.451H76.6618V108.844H74.7861V112.764C74.7861 113.228 74.8703 113.56 75.0387 113.759C75.2072 113.958 75.4879 114.058 75.8809 114.058C76.182 114.058 76.4423 113.971 76.6618 113.797V115.206ZM81.5768 115.474C80.3672 115.474 79.4 115.109 78.6752 114.379C77.9556 113.644 77.5958 112.672 77.5958 111.462C77.5958 110.146 77.9709 109.117 78.7212 108.377C79.4766 107.637 80.4922 107.267 81.7682 107.267C82.9931 107.267 83.9476 107.627 84.6315 108.346C85.3154 109.066 85.6574 110.064 85.6574 111.34C85.6574 112.59 85.2873 113.593 84.5473 114.349C83.8123 115.099 82.8222 115.474 81.5768 115.474ZM81.661 108.683C80.9669 108.683 80.4182 108.926 80.015 109.411C79.6118 109.895 79.4102 110.564 79.4102 111.416C79.4102 112.238 79.6144 112.886 80.0227 113.361C80.431 113.831 80.9771 114.065 81.661 114.065C82.3603 114.065 82.8962 113.833 83.2687 113.369C83.6464 112.904 83.8353 112.243 83.8353 111.386C83.8353 110.523 83.6464 109.857 83.2687 109.388C82.8962 108.918 82.3603 108.683 81.661 108.683ZM99.1929 115.29H97.4167V111.018C97.4167 110.197 97.2993 109.602 97.0646 109.234C96.8349 108.867 96.4444 108.683 95.8932 108.683C95.4288 108.683 95.0332 108.916 94.7066 109.38C94.385 109.844 94.2242 110.401 94.2242 111.049V115.29H92.4404V110.873C92.4404 109.413 91.9249 108.683 90.894 108.683C90.4142 108.683 90.0186 108.903 89.7073 109.342C89.4011 109.781 89.2479 110.35 89.2479 111.049V115.29H87.4718V107.451H89.2479V108.691H89.2786C89.8451 107.742 90.6694 107.267 91.7514 107.267C92.2924 107.267 92.7645 107.418 93.1677 107.719C93.576 108.015 93.8542 108.405 94.0022 108.89C94.5841 107.808 95.4517 107.267 96.6052 107.267C98.3303 107.267 99.1929 108.331 99.1929 110.459V115.29ZM107.377 115.29H105.654V114.065H105.624C105.083 115.004 104.289 115.474 103.243 115.474C102.472 115.474 101.867 115.265 101.428 114.846C100.995 114.428 100.778 113.874 100.778 113.185C100.778 111.705 101.63 110.842 103.335 110.597L105.662 110.268C105.662 109.15 105.131 108.591 104.07 108.591C103.136 108.591 102.293 108.913 101.543 109.556V108.002C102.37 107.512 103.324 107.267 104.406 107.267C106.387 107.267 107.377 108.242 107.377 110.191V115.29ZM105.662 111.439L104.016 111.669C103.506 111.735 103.12 111.86 102.86 112.044C102.605 112.223 102.477 112.539 102.477 112.994C102.477 113.325 102.595 113.598 102.829 113.813C103.069 114.022 103.388 114.127 103.786 114.127C104.327 114.127 104.774 113.938 105.126 113.56C105.483 113.177 105.662 112.697 105.662 112.121V111.439ZM113.685 115.206C113.338 115.38 112.881 115.466 112.315 115.466C110.794 115.466 110.034 114.736 110.034 113.277V108.844H108.724V107.451H110.034V105.636L111.81 105.131V107.451H113.685V108.844H111.81V112.764C111.81 113.228 111.894 113.56 112.062 113.759C112.231 113.958 112.511 114.058 112.904 114.058C113.206 114.058 113.466 113.971 113.685 113.797V115.206ZM116.112 105.805C115.821 105.805 115.571 105.71 115.362 105.521C115.158 105.333 115.056 105.093 115.056 104.802C115.056 104.511 115.158 104.268 115.362 104.074C115.571 103.881 115.821 103.784 116.112 103.784C116.413 103.784 116.669 103.881 116.878 104.074C117.087 104.268 117.192 104.511 117.192 104.802C117.192 105.077 117.087 105.315 116.878 105.514C116.669 105.708 116.413 105.805 116.112 105.805ZM116.993 115.29H115.217V107.451H116.993V115.29ZM124.932 114.93C124.304 115.293 123.561 115.474 122.704 115.474C121.54 115.474 120.601 115.112 119.887 114.387C119.172 113.657 118.815 112.713 118.815 111.554C118.815 110.263 119.198 109.227 119.963 108.446C120.734 107.66 121.762 107.267 123.048 107.267C123.763 107.267 124.393 107.392 124.939 107.642V109.296C124.393 108.887 123.811 108.683 123.194 108.683C122.444 108.683 121.829 108.938 121.349 109.449C120.869 109.954 120.629 110.618 120.629 111.439C120.629 112.251 120.854 112.891 121.303 113.361C121.757 113.831 122.365 114.065 123.125 114.065C123.763 114.065 124.365 113.838 124.932 113.384V114.93ZM60.6917 135.831C59.8649 136.26 58.8364 136.474 57.6064 136.474C56.014 136.474 54.738 135.971 53.7785 134.966C52.819 133.96 52.3392 132.641 52.3392 131.008C52.3392 129.252 52.8776 127.833 53.9546 126.751C55.0366 125.669 56.4019 125.128 58.0504 125.128C59.112 125.128 59.9925 125.279 60.6917 125.58V127.387C59.9516 126.948 59.135 126.728 58.2418 126.728C57.0526 126.728 56.088 127.108 55.3479 127.869C54.613 128.629 54.2455 129.645 54.2455 130.916C54.2455 132.125 54.59 133.09 55.279 133.81C55.9681 134.524 56.874 134.882 57.9968 134.882C59.0329 134.882 59.9312 134.637 60.6917 134.147V135.831ZM68.5925 136.29H66.87V135.065H66.8393C66.2983 136.004 65.5047 136.474 64.4584 136.474C63.6877 136.474 63.0829 136.265 62.6439 135.846C62.2101 135.428 61.9932 134.874 61.9932 134.185C61.9932 132.705 62.8455 131.842 64.5502 131.597L66.8776 131.268C66.8776 130.15 66.3468 129.591 65.2852 129.591C64.3512 129.591 63.509 129.913 62.7588 130.556V129.002C63.5856 128.512 64.54 128.267 65.6221 128.267C67.6024 128.267 68.5925 129.242 68.5925 131.191V136.29ZM66.8776 132.439L65.2316 132.669C64.7212 132.735 64.3359 132.86 64.0756 133.044C63.8204 133.223 63.6928 133.539 63.6928 133.994C63.6928 134.325 63.8102 134.598 64.045 134.813C64.2848 135.022 64.6038 135.127 65.0019 135.127C65.5429 135.127 65.9895 134.938 66.3417 134.56C66.699 134.177 66.8776 133.697 66.8776 133.121V132.439ZM76.3785 135.93C75.7507 136.293 75.0081 136.474 74.1506 136.474C72.987 136.474 72.0478 136.112 71.3333 135.387C70.6188 134.657 70.2615 133.713 70.2615 132.554C70.2615 131.263 70.6443 130.227 71.4099 129.446C72.1805 128.66 73.209 128.267 74.4952 128.267C75.2097 128.267 75.84 128.392 76.3862 128.642V130.296C75.84 129.887 75.2582 129.683 74.6406 129.683C73.8903 129.683 73.2753 129.938 72.7956 130.449C72.3158 130.954 72.0759 131.618 72.0759 132.439C72.0759 133.251 72.3005 133.891 72.7496 134.361C73.2039 134.831 73.8112 135.065 74.5717 135.065C75.2097 135.065 75.812 134.838 76.3785 134.384V135.93ZM85.1138 136.29H83.3376V132.003C83.3376 130.451 82.8196 129.676 81.7835 129.676C81.2629 129.676 80.824 129.9 80.4667 130.349C80.1094 130.798 79.9308 131.373 79.9308 132.072V136.29H78.147V124.684H79.9308V129.752H79.9614C80.5535 128.762 81.4007 128.267 82.5032 128.267C84.2436 128.267 85.1138 129.331 85.1138 131.459V136.29ZM88.1685 126.805C87.8776 126.805 87.6275 126.71 87.4182 126.521C87.214 126.333 87.112 126.093 87.112 125.802C87.112 125.511 87.214 125.268 87.4182 125.074C87.6275 124.881 87.8776 124.784 88.1685 124.784C88.4696 124.784 88.7248 124.881 88.9341 125.074C89.1433 125.268 89.2479 125.511 89.2479 125.802C89.2479 126.077 89.1433 126.315 88.9341 126.514C88.7248 126.708 88.4696 126.805 88.1685 126.805ZM89.0489 136.29H87.2727V128.451H89.0489V136.29ZM98.3584 136.29H96.5822V131.873C96.5822 130.408 96.0642 129.676 95.0281 129.676C94.4871 129.676 94.0405 129.88 93.6883 130.288C93.3362 130.691 93.1601 131.202 93.1601 131.819V136.29H91.3763V128.451H93.1601V129.752H93.1907C93.7776 128.762 94.6249 128.267 95.7324 128.267C96.5848 128.267 97.2355 128.545 97.6847 129.101C98.1338 129.653 98.3584 130.451 98.3584 131.498V136.29ZM107.668 135.662C107.668 138.541 106.221 139.98 103.327 139.98C102.306 139.98 101.416 139.809 100.655 139.467V137.844C101.513 138.334 102.327 138.579 103.097 138.579C104.96 138.579 105.892 137.663 105.892 135.831V134.973H105.861C105.274 135.974 104.391 136.474 103.212 136.474C102.258 136.474 101.487 136.127 100.9 135.433C100.318 134.734 100.027 133.797 100.027 132.623C100.027 131.291 100.341 130.232 100.969 129.446C101.597 128.66 102.459 128.267 103.557 128.267C104.593 128.267 105.361 128.691 105.861 129.538H105.892V128.451H107.668V135.662ZM105.907 132.7V131.681C105.907 131.13 105.723 130.661 105.356 130.273C104.993 129.88 104.539 129.683 103.993 129.683C103.319 129.683 102.791 129.933 102.408 130.434C102.031 130.929 101.842 131.623 101.842 132.516C101.842 133.287 102.023 133.904 102.385 134.369C102.753 134.828 103.238 135.058 103.84 135.058C104.452 135.058 104.95 134.838 105.333 134.399C105.716 133.955 105.907 133.389 105.907 132.7Z" fill="black"/>
<path d="M434.468 249.539V253.52H432.653V242.541H435.983C437.244 242.541 438.222 242.835 438.916 243.422C439.61 244.009 439.957 244.835 439.957 245.902C439.957 246.969 439.594 247.842 438.87 248.52C438.145 249.199 437.165 249.539 435.93 249.539H434.468ZM434.468 244.042V248.053H435.647C436.428 248.053 437.022 247.872 437.43 247.51C437.839 247.148 438.043 246.637 438.043 245.979C438.043 244.687 437.293 244.042 435.792 244.042H434.468ZM447.184 253.52H445.461V252.295H445.431C444.89 253.234 444.096 253.703 443.05 253.703C442.279 253.703 441.674 253.494 441.235 253.076C440.802 252.657 440.585 252.103 440.585 251.414C440.585 249.934 441.437 249.072 443.142 248.827L445.469 248.497C445.469 247.38 444.938 246.821 443.877 246.821C442.943 246.821 442.1 247.142 441.35 247.785V246.231C442.177 245.741 443.131 245.496 444.213 245.496C446.194 245.496 447.184 246.471 447.184 248.421V253.52ZM445.469 249.669L443.823 249.899C443.313 249.965 442.927 250.09 442.667 250.274C442.412 250.452 442.284 250.769 442.284 251.223C442.284 251.555 442.402 251.828 442.636 252.042C442.876 252.251 443.195 252.356 443.593 252.356C444.134 252.356 444.581 252.167 444.933 251.789C445.29 251.407 445.469 250.927 445.469 250.35V249.669ZM453.906 247.372C453.691 247.204 453.383 247.119 452.979 247.119C452.454 247.119 452.015 247.357 451.663 247.831C451.31 248.306 451.134 248.952 451.134 249.768V253.52H449.358V245.68H451.134V247.296H451.165C451.339 246.744 451.604 246.316 451.961 246.009C452.324 245.698 452.727 245.542 453.171 245.542C453.492 245.542 453.737 245.591 453.906 245.688V247.372ZM461.179 253.52H459.456V252.295H459.426C458.885 253.234 458.091 253.703 457.045 253.703C456.274 253.703 455.669 253.494 455.23 253.076C454.796 252.657 454.579 252.103 454.579 251.414C454.579 249.934 455.432 249.072 457.137 248.827L459.464 248.497C459.464 247.38 458.933 246.821 457.871 246.821C456.937 246.821 456.095 247.142 455.345 247.785V246.231C456.172 245.741 457.126 245.496 458.208 245.496C460.189 245.496 461.179 246.471 461.179 248.421V253.52ZM459.464 249.669L457.818 249.899C457.308 249.965 456.922 250.09 456.662 250.274C456.407 250.452 456.279 250.769 456.279 251.223C456.279 251.555 456.396 251.828 456.631 252.042C456.871 252.251 457.19 252.356 457.588 252.356C458.129 252.356 458.576 252.167 458.928 251.789C459.285 251.407 459.464 250.927 459.464 250.35V249.669ZM465.137 253.52H463.353V241.913H465.137V253.52ZM469.24 253.52H467.457V241.913H469.24V253.52ZM478.198 250.082H472.854C472.874 250.807 473.096 251.366 473.52 251.759C473.949 252.152 474.536 252.348 475.281 252.348C476.118 252.348 476.886 252.098 477.585 251.598V253.03C476.871 253.479 475.926 253.703 474.753 253.703C473.599 253.703 472.693 253.349 472.035 252.639C471.381 251.925 471.055 250.922 471.055 249.631C471.055 248.411 471.415 247.418 472.134 246.652C472.859 245.882 473.757 245.496 474.829 245.496C475.901 245.496 476.73 245.841 477.317 246.53C477.904 247.219 478.198 248.176 478.198 249.401V250.082ZM476.483 248.827C476.478 248.189 476.327 247.694 476.031 247.341C475.735 246.984 475.327 246.806 474.806 246.806C474.296 246.806 473.862 246.992 473.505 247.364C473.153 247.737 472.936 248.224 472.854 248.827H476.483ZM481.673 253.52H479.89V241.913H481.673V253.52ZM438.816 274.52H432.653V263.541H438.571V265.088H434.475V268.196H438.25V269.735H434.475V272.981H438.816V274.52ZM447.123 266.68L444.512 270.646L447.092 274.52H445.033L443.655 272.093C443.568 271.945 443.466 271.756 443.348 271.526H443.318C443.297 271.572 443.19 271.761 442.996 272.093L441.595 274.52H439.543L442.208 270.676L439.681 266.68H441.748L443.103 269.23C443.205 269.418 443.305 269.612 443.402 269.811H443.425L445.178 266.68H447.123ZM454.863 271.082H449.519C449.539 271.807 449.761 272.366 450.185 272.759C450.614 273.152 451.201 273.348 451.946 273.348C452.783 273.348 453.551 273.098 454.25 272.598V274.03C453.536 274.479 452.592 274.703 451.418 274.703C450.264 274.703 449.358 274.349 448.7 273.639C448.047 272.925 447.72 271.922 447.72 270.631C447.72 269.411 448.08 268.418 448.799 267.652C449.524 266.882 450.422 266.496 451.494 266.496C452.566 266.496 453.395 266.841 453.982 267.53C454.569 268.219 454.863 269.176 454.863 270.401V271.082ZM453.148 269.827C453.143 269.189 452.992 268.694 452.696 268.341C452.4 267.984 451.992 267.806 451.471 267.806C450.961 267.806 450.527 267.992 450.17 268.364C449.818 268.737 449.601 269.224 449.519 269.827H453.148ZM462.166 274.16C461.539 274.522 460.796 274.703 459.939 274.703C458.775 274.703 457.836 274.341 457.121 273.616C456.407 272.886 456.049 271.942 456.049 270.784C456.049 269.492 456.432 268.456 457.198 267.675C457.968 266.889 458.997 266.496 460.283 266.496C460.998 266.496 461.628 266.621 462.174 266.872V268.525C461.628 268.117 461.046 267.913 460.429 267.913C459.678 267.913 459.063 268.168 458.583 268.678C458.104 269.184 457.864 269.847 457.864 270.669C457.864 271.48 458.088 272.121 458.538 272.59C458.992 273.06 459.599 273.295 460.36 273.295C460.998 273.295 461.6 273.068 462.166 272.613V274.16ZM470.772 274.52H468.995V273.279H468.965C468.449 274.229 467.648 274.703 466.561 274.703C464.708 274.703 463.782 273.591 463.782 271.366V266.68H465.558V271.182C465.558 272.59 466.102 273.295 467.189 273.295C467.714 273.295 468.146 273.101 468.482 272.713C468.824 272.325 468.995 271.817 468.995 271.189V266.68H470.772V274.52ZM477.225 274.436C476.878 274.609 476.422 274.696 475.855 274.696C474.334 274.696 473.574 273.966 473.574 272.506V268.074H472.264V266.68H473.574V264.866L475.35 264.36V266.68H477.225V268.074H475.35V271.993C475.35 272.458 475.434 272.789 475.602 272.989C475.771 273.188 476.052 273.287 476.445 273.287C476.746 273.287 477.006 273.2 477.225 273.027V274.436ZM479.652 265.034C479.361 265.034 479.111 264.94 478.902 264.751C478.698 264.562 478.596 264.322 478.596 264.031C478.596 263.74 478.698 263.498 478.902 263.304C479.111 263.11 479.361 263.013 479.652 263.013C479.953 263.013 480.209 263.11 480.418 263.304C480.627 263.498 480.732 263.74 480.732 264.031C480.732 264.307 480.627 264.544 480.418 264.743C480.209 264.937 479.953 265.034 479.652 265.034ZM480.533 274.52H478.757V266.68H480.533V274.52ZM486.336 274.703C485.126 274.703 484.159 274.339 483.434 273.609C482.715 272.874 482.355 271.901 482.355 270.692C482.355 269.375 482.73 268.347 483.48 267.606C484.236 266.866 485.251 266.496 486.527 266.496C487.752 266.496 488.707 266.856 489.391 267.576C490.074 268.296 490.416 269.293 490.416 270.569C490.416 271.82 490.046 272.823 489.306 273.578C488.571 274.328 487.581 274.703 486.336 274.703ZM486.42 267.913C485.726 267.913 485.177 268.155 484.774 268.64C484.371 269.125 484.169 269.794 484.169 270.646C484.169 271.468 484.373 272.116 484.782 272.59C485.19 273.06 485.736 273.295 486.42 273.295C487.119 273.295 487.655 273.063 488.028 272.598C488.405 272.134 488.594 271.473 488.594 270.615C488.594 269.753 488.405 269.087 488.028 268.617C487.655 268.148 487.119 267.913 486.42 267.913ZM499.213 274.52H497.437V270.102C497.437 268.637 496.919 267.905 495.883 267.905C495.342 267.905 494.895 268.109 494.543 268.518C494.191 268.921 494.015 269.431 494.015 270.049V274.52H492.231V266.68H494.015V267.982H494.045C494.632 266.991 495.479 266.496 496.587 266.496C497.439 266.496 498.09 266.775 498.539 267.331C498.988 267.882 499.213 268.681 499.213 269.727V274.52Z" fill="black"/>
</svg>
