<svg width="371" height="296" viewBox="0 0 371 296" fill="none" xmlns="http://www.w3.org/2000/svg">
<rect x="0.0566406" width="370" height="296" rx="20" fill="white"/>
<path d="M232.06 49.3719C234.279 47.4029 235.154 44.3087 233.997 41.5584C233.279 39.9019 232.497 38.2767 231.622 36.714L230.653 35.0263C229.716 33.4636 228.684 31.9322 227.59 30.4633C225.809 28.088 222.683 27.3066 219.871 28.2442L211.057 31.1509C207.713 28.4005 203.869 26.1502 199.743 24.6188L197.837 15.5552C197.243 12.6486 194.993 10.3358 192.055 9.99199C189.992 9.71071 187.898 9.58569 185.773 9.58569H185.554C183.429 9.58569 181.335 9.71071 179.272 9.96074C176.334 10.3045 174.084 12.6486 173.49 15.5239L171.583 24.6188C167.427 26.1815 163.614 28.4005 160.27 31.1509L151.425 28.2755C148.612 27.3379 145.486 28.1192 143.705 30.4945C142.611 31.9635 141.58 33.4949 140.611 35.0576L139.673 36.714C138.798 38.2767 138.017 39.9019 137.298 41.5897C136.142 44.3087 137.017 47.4029 139.236 49.4031L146.174 55.5914C145.83 57.6854 145.643 59.8732 145.643 62.0922C145.643 64.3112 145.83 66.499 146.174 68.6242L139.236 74.8125C137.017 76.7815 136.142 79.8756 137.298 82.626C138.017 84.2824 138.798 85.9076 139.673 87.5016L140.611 89.1268C141.548 90.7207 142.58 92.2209 143.705 93.6898C145.486 96.0651 148.612 96.8465 151.425 95.9089L160.238 93.0023C163.582 95.7526 167.427 98.0029 171.552 99.5343L173.459 108.629C174.052 111.536 176.303 113.849 179.241 114.192C181.335 114.442 183.46 114.567 185.616 114.567C187.773 114.567 189.898 114.442 191.992 114.192C194.93 113.849 197.18 111.505 197.774 108.629L199.681 99.5343C203.837 97.9716 207.65 95.7526 210.995 93.0023L219.808 95.9089C222.621 96.8465 225.746 96.0651 227.528 93.6898C228.622 92.2209 229.653 90.7207 230.591 89.1268L231.56 87.4391C232.435 85.8764 233.216 84.2512 233.935 82.5947C235.091 79.8756 234.216 76.7815 231.997 74.7813L225.059 68.593C225.403 66.4677 225.59 64.28 225.59 62.0609C225.59 59.8419 225.403 57.6541 225.059 55.5289L231.997 49.3406L232.06 49.3719ZM170.646 62.0922C170.646 58.1134 172.226 54.2977 175.04 51.4843C177.853 48.6709 181.669 47.0903 185.648 47.0903C189.626 47.0903 193.442 48.6709 196.256 51.4843C199.069 54.2977 200.649 58.1134 200.649 62.0922C200.649 66.0709 199.069 69.8867 196.256 72.7001C193.442 75.5135 189.626 77.094 185.648 77.094C181.669 77.094 177.853 75.5135 175.04 72.7001C172.226 69.8867 170.646 66.0709 170.646 62.0922Z" fill="#D1D6D9"/>
<path d="M121.551 100.901C123.114 98.3794 123.068 95.1642 121.173 92.8595C120.01 91.4779 118.797 90.1441 117.511 88.897L116.1 87.5569C114.755 86.3277 113.328 85.1552 111.86 84.0605C109.474 82.294 106.255 82.4393 103.828 84.1423L96.2142 89.4484C92.223 87.7695 87.8958 86.7128 83.5046 86.4254L79.0853 78.2857C77.6849 75.6704 74.8671 74.0979 71.9537 74.6088C69.8966 74.9292 67.8544 75.4084 65.8179 76.0163L65.6082 76.0789C63.5718 76.6867 61.601 77.4055 59.696 78.2351C56.9792 79.4048 55.4934 82.2946 55.7468 85.2197L56.5214 94.4799C52.9852 97.1662 49.9663 100.383 47.5485 103.975L38.2508 103.75C35.2872 103.656 32.5159 105.299 31.4883 108.084C30.8603 109.805 30.31 111.567 29.8286 113.342L29.4039 115.197C29.0124 116.945 28.7285 118.726 28.5224 120.548C28.1921 123.485 29.9157 126.199 32.6141 127.481L41.0326 131.426C41.3021 133.531 41.7482 135.681 42.3829 137.807C43.0176 139.934 43.8231 141.976 44.7604 143.915L39.8819 151.829C38.3188 154.35 38.3653 157.566 40.26 159.87C41.4226 161.252 42.6362 162.586 43.9307 163.863L45.294 165.152C46.6483 166.411 48.0657 167.553 49.564 168.639C51.9504 170.406 55.1687 170.26 57.5959 168.557L65.2099 163.251C69.201 164.93 73.5283 165.987 77.9194 166.274L82.3477 174.444C83.7481 177.059 86.5659 178.632 89.4793 178.121C91.5573 177.762 93.6296 177.273 95.696 176.657C97.7624 176.04 99.7631 175.312 101.698 174.474C104.415 173.304 105.901 170.414 105.647 167.489L104.873 158.229C108.409 155.542 111.428 152.326 113.846 148.734L123.122 148.998C126.086 149.092 128.857 147.449 129.885 144.663C130.513 142.943 131.072 141.21 131.515 139.415L131.96 137.521C132.352 135.773 132.636 133.992 132.851 132.199C133.181 129.263 131.457 126.548 128.759 125.266L120.34 121.321C120.062 119.187 119.616 117.037 118.981 114.91C118.347 112.784 117.541 110.741 116.604 108.803L121.482 100.889L121.551 100.901ZM66.3414 130.656C65.2034 126.843 65.6265 122.735 67.5176 119.234C69.4087 115.734 72.613 113.128 76.4255 111.99C80.238 110.852 84.3465 111.275 87.847 113.166C91.3476 115.057 93.9535 118.261 95.0916 122.074C96.2296 125.886 95.8065 129.995 93.9154 133.495C92.0243 136.996 88.82 139.602 85.0075 140.74C81.195 141.878 77.0865 141.455 73.5859 139.564C70.0854 137.673 67.4794 134.468 66.3414 130.656Z" fill="#D1D6D9"/>
<path d="M314.852 85.2216C315.11 82.2662 313.619 79.4173 310.889 78.2145C309.228 77.5054 307.544 76.862 305.834 76.3284L303.97 75.7685C302.215 75.2779 300.413 74.8744 298.609 74.5593C295.682 74.0585 292.875 75.6391 291.477 78.2535L287.073 86.4225C282.753 86.7234 278.414 87.7311 274.365 89.4544L266.751 84.1814C264.322 82.4784 261.098 82.3452 258.727 84.1147C257.036 85.3282 255.429 86.6767 253.885 88.1375L253.726 88.2878C252.183 89.7486 250.748 91.2787 249.421 92.8781C247.524 95.147 247.5 98.3963 249.045 100.893L253.912 108.809C251.966 112.801 250.722 117.034 250.183 121.33L241.783 125.321C239.095 126.573 237.362 129.289 237.701 132.239C237.916 134.058 238.219 135.879 238.59 137.68L239.047 139.528C239.486 141.264 240.035 142.982 240.673 144.701C241.702 147.471 244.464 149.117 247.451 149.045L256.744 148.771C257.933 150.528 259.301 152.246 260.826 153.858C262.351 155.47 263.991 156.93 265.702 158.237L264.915 167.501C264.657 170.456 266.148 173.305 268.878 174.508C270.539 175.217 272.224 175.861 273.955 176.417L275.753 176.953C277.53 177.466 279.31 177.847 281.137 178.141C284.063 178.641 286.87 177.061 288.269 174.446L292.673 166.277C296.992 165.976 301.331 164.969 305.38 163.245L313.016 168.541C315.446 170.244 318.67 170.377 321.04 168.608C322.733 167.35 324.362 165.98 325.929 164.498C327.495 163.016 328.953 161.464 330.302 159.843C332.2 157.574 332.223 154.325 330.678 151.828L325.811 143.912C327.757 139.92 329.001 135.687 329.54 131.391L337.939 127.444C340.627 126.192 342.36 123.476 342.021 120.527C341.806 118.708 341.524 116.909 341.109 115.107L340.653 113.215C340.215 111.479 339.665 109.761 339.049 108.064C338.02 105.294 335.258 103.648 332.271 103.721L322.978 103.995C321.767 102.215 320.399 100.497 318.874 98.885C317.349 97.2732 315.709 95.813 313.999 94.5056L314.785 85.2419L314.852 85.2216ZM278.987 136.672C276.252 133.783 274.778 129.925 274.887 125.947C274.997 121.97 276.682 118.199 279.572 115.465C282.462 112.73 286.32 111.255 290.297 111.365C294.275 111.475 298.045 113.16 300.78 116.05C303.515 118.94 304.99 122.798 304.88 126.775C304.77 130.752 303.085 134.523 300.195 137.258C297.305 139.993 293.447 141.467 289.47 141.357C285.492 141.248 281.722 139.562 278.987 136.672Z" fill="#D1D6D9"/>
<path d="M203.899 224.377C206.765 227.607 211.268 228.881 215.272 227.198C217.683 226.152 220.048 225.014 222.323 223.741L224.78 222.33C227.054 220.965 229.283 219.464 231.421 217.872C234.879 215.279 236.016 210.73 234.651 206.635L230.421 193.807C234.424 188.939 237.699 183.343 239.928 177.338L253.167 174.563C257.397 173.699 260.764 170.424 261.264 166.147C261.628 163.099 261.81 160.006 261.81 156.867C261.81 153.728 261.628 150.635 261.264 147.587C260.764 143.31 257.352 140.035 253.167 139.171L239.928 136.35C237.654 130.3 234.424 124.75 230.421 119.882L234.651 107.053C236.016 102.959 234.879 98.4095 231.421 95.8165C229.283 94.2243 227.054 92.723 224.78 91.3128L222.368 89.948C220.094 88.6742 217.728 87.5369 215.272 86.4906C211.314 84.8074 206.81 86.0812 203.899 89.3111L194.891 99.4104C191.798 98.91 188.613 98.637 185.383 98.637C182.153 98.637 178.969 98.91 175.875 99.4104L166.868 89.3111C164.002 86.0812 159.498 84.8074 155.495 86.4906C153.084 87.5369 150.718 88.6742 148.398 89.948L146.033 91.3128C143.712 92.6775 141.529 94.1788 139.391 95.8165C135.933 98.4095 134.796 102.959 136.161 107.053L140.392 119.882C136.388 124.75 133.113 130.345 130.884 136.35L117.645 139.08C113.415 139.944 110.048 143.219 109.548 147.496C109.184 150.544 109.002 153.637 109.002 156.776C109.002 159.915 109.184 163.008 109.548 166.056C110.048 170.333 113.46 173.608 117.645 174.472L130.884 177.247C133.158 183.298 136.388 188.848 140.392 193.716L136.161 206.544C134.796 210.639 135.933 215.188 139.391 217.781C141.529 219.373 143.712 220.874 146.033 222.239L148.489 223.65C150.764 224.923 153.129 226.061 155.54 227.107C159.498 228.79 164.002 227.516 166.913 224.286L175.921 214.187C179.014 214.688 182.199 214.961 185.429 214.961C188.659 214.961 191.843 214.688 194.937 214.187L203.944 224.286L203.899 224.377ZM185.383 134.985C188.251 134.985 191.09 135.55 193.74 136.647C196.389 137.745 198.796 139.353 200.824 141.381C202.852 143.409 204.46 145.816 205.557 148.465C206.655 151.114 207.22 153.954 207.22 156.822C207.22 159.689 206.655 162.529 205.557 165.178C204.46 167.827 202.852 170.234 200.824 172.262C198.796 174.29 196.389 175.898 193.74 176.996C191.09 178.093 188.251 178.658 185.383 178.658C182.516 178.658 179.676 178.093 177.027 176.996C174.378 175.898 171.97 174.29 169.943 172.262C167.915 170.234 166.307 167.827 165.209 165.178C164.112 162.529 163.547 159.689 163.547 156.822C163.547 153.954 164.112 151.114 165.209 148.465C166.307 145.816 167.915 143.409 169.943 141.381C171.97 139.353 174.378 137.745 177.027 136.647C179.676 135.55 182.516 134.985 185.383 134.985Z" fill="#9DA3B0"/>
<circle cx="186.12" cy="159.352" r="28.6709" fill="#9DA3B0"/>
<path d="M288.025 157.267C288.723 156.569 288.723 155.438 288.025 154.74L276.656 143.372C275.959 142.674 274.828 142.674 274.13 143.372C273.432 144.069 273.432 145.2 274.13 145.898L284.235 156.003L274.13 166.109C273.432 166.806 273.432 167.938 274.13 168.635C274.828 169.333 275.959 169.333 276.656 168.635L288.025 157.267ZM186.121 157.79L286.762 157.79V154.217L186.121 154.217V157.79Z" fill="#9DA3B0"/>
<path d="M236.439 156.003L261.808 156.002" stroke="white" stroke-width="3.57281"/>
<path d="M84.2172 157.267C83.5196 156.569 83.5196 155.438 84.2172 154.74L95.5858 143.372C96.2835 142.674 97.4145 142.674 98.1122 143.372C98.8098 144.069 98.8098 145.2 98.1122 145.898L88.0067 156.003L98.1122 166.109C98.8098 166.806 98.8098 167.938 98.1122 168.635C97.4145 169.333 96.2835 169.333 95.5858 168.635L84.2172 157.267ZM186.121 157.79L85.4804 157.79V154.217L186.121 154.217V157.79Z" fill="#9DA3B0"/>
<path d="M135.801 156.003L110.433 156.003" stroke="white" stroke-width="3.57281"/>
<path d="M238.165 68.3847C237.91 67.4318 236.93 66.8662 235.977 67.1216L220.447 71.2828C219.494 71.5381 218.929 72.5177 219.184 73.4707C219.439 74.4236 220.419 74.9892 221.372 74.7338L235.176 71.035L238.875 84.8393C239.131 85.7923 240.11 86.3578 241.063 86.1025C242.016 85.8471 242.582 84.8676 242.326 83.9146L238.165 68.3847ZM187.666 156.898L237.987 69.7403L234.892 67.9539L184.572 155.111L187.666 156.898Z" fill="#9DA3B0"/>
<path d="M238.165 68.3847C237.91 67.4318 236.93 66.8662 235.977 67.1216L220.447 71.2828C219.494 71.5381 218.929 72.5177 219.184 73.4707C219.439 74.4236 220.419 74.9892 221.372 74.7338L235.176 71.035L238.875 84.8393C239.131 85.7923 240.11 86.3578 241.063 86.1025C242.016 85.8471 242.582 84.8676 242.326 83.9146L238.165 68.3847ZM187.666 156.898L237.987 69.7403L234.892 67.9539L184.572 155.111L187.666 156.898Z" fill="#9DA3B0"/>
<path d="M211.279 112.426L223.963 90.4563" stroke="white" stroke-width="3.57281"/>
<path d="M134.073 68.3847C134.329 67.4318 135.308 66.8662 136.261 67.1216L151.791 71.2828C152.744 71.5381 153.309 72.5177 153.054 73.4707C152.799 74.4236 151.819 74.9892 150.866 74.7338L137.062 71.035L133.363 84.8393C133.108 85.7923 132.128 86.3578 131.175 86.1025C130.222 85.8471 129.657 84.8676 129.912 83.9146L134.073 68.3847ZM184.572 156.898L134.252 69.7403L137.346 67.9539L187.666 155.111L184.572 156.898Z" fill="#9DA3B0"/>
<path d="M134.073 68.3847C134.329 67.4318 135.308 66.8662 136.261 67.1216L151.791 71.2828C152.744 71.5381 153.309 72.5177 153.054 73.4707C152.799 74.4236 151.819 74.9892 150.866 74.7338L137.062 71.035L133.363 84.8393C133.108 85.7923 132.128 86.3578 131.175 86.1025C130.222 85.8471 129.657 84.8676 129.912 83.9146L134.073 68.3847ZM184.572 156.898L134.252 69.7403L137.346 67.9539L187.666 155.111L184.572 156.898Z" fill="#9DA3B0"/>
<path d="M160.959 112.426L148.275 90.4561" stroke="white" stroke-width="3.57281"/>
<path d="M238.163 243.623C237.908 244.576 236.928 245.141 235.975 244.886L220.445 240.724C219.492 240.469 218.927 239.49 219.182 238.537C219.438 237.584 220.417 237.018 221.37 237.273L235.174 240.972L238.873 227.168C239.129 226.215 240.108 225.649 241.061 225.905C242.014 226.16 242.58 227.14 242.324 228.093L238.163 243.623ZM187.664 155.11L237.985 242.267L234.89 244.053L184.57 156.896L187.664 155.11Z" fill="#9DA3B0"/>
<path d="M238.163 243.623C237.908 244.576 236.928 245.141 235.975 244.886L220.445 240.724C219.492 240.469 218.927 239.49 219.182 238.537C219.438 237.584 220.417 237.018 221.37 237.273L235.174 240.972L238.873 227.168C239.129 226.215 240.108 225.649 241.061 225.905C242.014 226.16 242.58 227.14 242.324 228.093L238.163 243.623ZM187.664 155.11L237.985 242.267L234.89 244.053L184.57 156.896L187.664 155.11Z" fill="#9DA3B0"/>
<path d="M211.275 199.581L223.959 221.55" stroke="white" stroke-width="3.57281"/>
<path d="M134.071 243.622C134.327 244.575 135.306 245.141 136.259 244.886L151.789 240.724C152.742 240.469 153.308 239.49 153.052 238.537C152.797 237.584 151.817 237.018 150.864 237.273L137.06 240.972L133.361 227.168C133.106 226.215 132.126 225.649 131.173 225.905C130.22 226.16 129.655 227.14 129.91 228.093L134.071 243.622ZM184.57 155.109L134.25 242.267L137.344 244.053L187.664 156.896L184.57 155.109Z" fill="#9DA3B0"/>
<path d="M134.071 243.622C134.327 244.575 135.306 245.141 136.259 244.886L151.789 240.724C152.742 240.469 153.308 239.49 153.052 238.537C152.797 237.584 151.817 237.018 150.864 237.273L137.06 240.972L133.361 227.168C133.106 226.215 132.126 225.649 131.173 225.905C130.22 226.16 129.655 227.14 129.91 228.093L134.071 243.622ZM184.57 155.109L134.25 242.267L137.344 244.053L187.664 156.896L184.57 155.109Z" fill="#9DA3B0"/>
<path d="M160.957 199.581L148.273 221.551" stroke="white" stroke-width="3.57281"/>
<circle cx="186.118" cy="156.003" r="28.6709" fill="white"/>
<path d="M195.038 161.719L200.754 156.003L195.038 150.286M177.888 150.286L172.172 156.003L177.888 161.719M190.036 144.57L182.89 167.436" stroke="#9DA3B0" stroke-width="2.85825" stroke-linecap="round" stroke-linejoin="round"/>
<path d="M123.596 266.405H128.656C129.656 266.405 130.463 266.688 131.075 267.255C131.688 267.816 131.994 268.608 131.994 269.628C131.994 270.506 131.721 271.272 131.175 271.925C130.629 272.573 129.789 272.897 128.656 272.897H125.119V277.652H123.596V266.405ZM130.455 269.636C130.455 268.809 130.149 268.248 129.537 267.952C129.2 267.793 128.738 267.714 128.151 267.714H125.119V271.611H128.151C128.835 271.611 129.389 271.466 129.812 271.175C130.241 270.884 130.455 270.371 130.455 269.636ZM134.781 275.47C134.781 275.868 134.926 276.182 135.217 276.411C135.508 276.641 135.853 276.756 136.251 276.756C136.736 276.756 137.205 276.644 137.659 276.419C138.425 276.046 138.808 275.437 138.808 274.589V273.479C138.639 273.586 138.422 273.676 138.157 273.747C137.892 273.819 137.631 273.87 137.376 273.9L136.542 274.007C136.041 274.074 135.666 274.178 135.416 274.321C134.993 274.561 134.781 274.944 134.781 275.47ZM138.119 272.683C138.435 272.642 138.647 272.509 138.754 272.285C138.815 272.162 138.846 271.986 138.846 271.757C138.846 271.287 138.678 270.948 138.341 270.738C138.009 270.524 137.532 270.417 136.909 270.417C136.189 270.417 135.679 270.611 135.378 270.999C135.21 271.213 135.1 271.532 135.049 271.956H133.763C133.788 270.945 134.115 270.243 134.743 269.85C135.375 269.452 136.108 269.253 136.94 269.253C137.904 269.253 138.688 269.437 139.29 269.804C139.887 270.172 140.186 270.744 140.186 271.519V276.243C140.186 276.386 140.214 276.501 140.27 276.587C140.331 276.674 140.456 276.718 140.645 276.718C140.706 276.718 140.775 276.715 140.852 276.71C140.928 276.7 141.01 276.687 141.097 276.672V277.69C140.882 277.751 140.719 277.789 140.607 277.805C140.495 277.82 140.341 277.828 140.148 277.828C139.673 277.828 139.328 277.659 139.114 277.322C139.002 277.144 138.923 276.891 138.877 276.564C138.596 276.932 138.193 277.251 137.667 277.521C137.141 277.792 136.562 277.927 135.929 277.927C135.169 277.927 134.546 277.698 134.061 277.238C133.581 276.774 133.342 276.194 133.342 275.5C133.342 274.74 133.579 274.15 134.053 273.732C134.528 273.313 135.151 273.056 135.922 272.959L138.119 272.683ZM142.49 269.452H143.799V270.869C143.907 270.593 144.169 270.259 144.588 269.866C145.006 269.468 145.489 269.268 146.035 269.268C146.06 269.268 146.104 269.271 146.165 269.276C146.226 269.281 146.331 269.291 146.479 269.307V270.761C146.397 270.746 146.321 270.736 146.249 270.731C146.183 270.726 146.109 270.723 146.027 270.723C145.333 270.723 144.8 270.948 144.427 271.397C144.055 271.841 143.868 272.354 143.868 272.936V277.652H142.49V269.452ZM148.73 275.47C148.73 275.868 148.875 276.182 149.166 276.411C149.457 276.641 149.802 276.756 150.2 276.756C150.685 276.756 151.154 276.644 151.608 276.419C152.374 276.046 152.757 275.437 152.757 274.589V273.479C152.588 273.586 152.371 273.676 152.106 273.747C151.841 273.819 151.58 273.87 151.325 273.9L150.491 274.007C149.99 274.074 149.615 274.178 149.365 274.321C148.942 274.561 148.73 274.944 148.73 275.47ZM152.068 272.683C152.384 272.642 152.596 272.509 152.703 272.285C152.764 272.162 152.795 271.986 152.795 271.757C152.795 271.287 152.627 270.948 152.29 270.738C151.958 270.524 151.481 270.417 150.858 270.417C150.138 270.417 149.628 270.611 149.327 270.999C149.158 271.213 149.049 271.532 148.998 271.956H147.711C147.737 270.945 148.064 270.243 148.691 269.85C149.324 269.452 150.057 269.253 150.889 269.253C151.853 269.253 152.637 269.437 153.239 269.804C153.836 270.172 154.135 270.744 154.135 271.519V276.243C154.135 276.386 154.163 276.501 154.219 276.587C154.28 276.674 154.405 276.718 154.594 276.718C154.655 276.718 154.724 276.715 154.801 276.71C154.877 276.7 154.959 276.687 155.046 276.672V277.69C154.831 277.751 154.668 277.789 154.556 277.805C154.444 277.82 154.29 277.828 154.096 277.828C153.622 277.828 153.277 277.659 153.063 277.322C152.951 277.144 152.872 276.891 152.826 276.564C152.545 276.932 152.142 277.251 151.616 277.521C151.09 277.792 150.511 277.927 149.878 277.927C149.118 277.927 148.495 277.698 148.01 277.238C147.53 276.774 147.29 276.194 147.29 275.5C147.29 274.74 147.528 274.15 148.002 273.732C148.477 273.313 149.1 273.056 149.87 272.959L152.068 272.683ZM156.439 266.405H157.817V277.652H156.439V266.405ZM159.93 266.405H161.308V277.652H159.93V266.405ZM166.797 269.268C167.379 269.268 167.943 269.406 168.489 269.682C169.036 269.952 169.452 270.305 169.737 270.738C170.013 271.152 170.197 271.634 170.289 272.185C170.37 272.563 170.411 273.165 170.411 273.992H164.401C164.427 274.824 164.623 275.493 164.991 275.998C165.358 276.498 165.927 276.748 166.698 276.748C167.418 276.748 167.992 276.511 168.421 276.036C168.666 275.761 168.839 275.442 168.941 275.079H170.296C170.26 275.38 170.141 275.717 169.936 276.09C169.737 276.457 169.513 276.758 169.263 276.993C168.844 277.402 168.326 277.677 167.709 277.82C167.377 277.902 167.002 277.943 166.583 277.943C165.562 277.943 164.697 277.573 163.988 276.832C163.278 276.087 162.924 275.046 162.924 273.709C162.924 272.392 163.281 271.323 163.995 270.501C164.71 269.679 165.644 269.268 166.797 269.268ZM168.995 272.897C168.939 272.3 168.808 271.823 168.604 271.466C168.227 270.802 167.596 270.47 166.713 270.47C166.08 270.47 165.55 270.7 165.121 271.159C164.692 271.614 164.465 272.193 164.439 272.897H168.995ZM172.149 266.405H173.527V277.652H172.149V266.405ZM180.295 266.405H188.494V267.783H181.78V271.198H187.989V272.499H181.78V276.312H188.609V277.652H180.295V266.405ZM189.642 269.452H191.426L193.31 272.338L195.216 269.452L196.893 269.49L194.129 273.449L197.015 277.652H195.254L193.218 274.574L191.243 277.652H189.497L192.383 273.449L189.642 269.452ZM201.677 269.268C202.259 269.268 202.823 269.406 203.369 269.682C203.916 269.952 204.331 270.305 204.617 270.738C204.893 271.152 205.077 271.634 205.169 272.185C205.25 272.563 205.291 273.165 205.291 273.992H199.281C199.307 274.824 199.503 275.493 199.871 275.998C200.238 276.498 200.807 276.748 201.578 276.748C202.298 276.748 202.872 276.511 203.3 276.036C203.545 275.761 203.719 275.442 203.821 275.079H205.176C205.14 275.38 205.02 275.717 204.816 276.09C204.617 276.457 204.393 276.758 204.143 276.993C203.724 277.402 203.206 277.677 202.588 277.82C202.257 277.902 201.882 277.943 201.463 277.943C200.442 277.943 199.577 277.573 198.868 276.832C198.158 276.087 197.804 275.046 197.804 273.709C197.804 272.392 198.161 271.323 198.875 270.501C199.59 269.679 200.524 269.268 201.677 269.268ZM203.875 272.897C203.819 272.3 203.688 271.823 203.484 271.466C203.107 270.802 202.476 270.47 201.593 270.47C200.96 270.47 200.43 270.7 200.001 271.159C199.572 271.614 199.345 272.193 199.319 272.897H203.875ZM210.152 269.215C211.076 269.215 211.827 269.439 212.403 269.889C212.985 270.338 213.335 271.111 213.452 272.208H212.112C212.031 271.703 211.844 271.285 211.553 270.953C211.263 270.616 210.796 270.447 210.152 270.447C209.275 270.447 208.647 270.876 208.269 271.734C208.024 272.29 207.902 272.976 207.902 273.793C207.902 274.615 208.075 275.306 208.422 275.868C208.769 276.429 209.315 276.71 210.061 276.71C210.632 276.71 211.084 276.536 211.416 276.189C211.753 275.837 211.985 275.357 212.112 274.75H213.452C213.299 275.837 212.916 276.633 212.304 277.139C211.691 277.639 210.908 277.889 209.953 277.889C208.882 277.889 208.027 277.498 207.389 276.718C206.751 275.932 206.432 274.952 206.432 273.778C206.432 272.338 206.781 271.218 207.481 270.417C208.18 269.616 209.07 269.215 210.152 269.215ZM216.208 269.452V274.896C216.208 275.314 216.275 275.656 216.407 275.921C216.652 276.411 217.109 276.656 217.778 276.656C218.737 276.656 219.39 276.228 219.738 275.37C219.926 274.911 220.021 274.28 220.021 273.479V269.452H221.399V277.652H220.097L220.113 276.442C219.934 276.753 219.712 277.016 219.447 277.231C218.921 277.659 218.283 277.874 217.533 277.874C216.364 277.874 215.568 277.483 215.144 276.702C214.914 276.284 214.8 275.725 214.8 275.026V269.452H216.208ZM223.833 267.163H225.227V269.452H226.536V270.578H225.227V275.929C225.227 276.215 225.324 276.406 225.518 276.503C225.625 276.559 225.804 276.587 226.054 276.587C226.12 276.587 226.191 276.587 226.268 276.587C226.345 276.582 226.434 276.575 226.536 276.564V277.652C226.378 277.698 226.212 277.731 226.038 277.751C225.87 277.772 225.686 277.782 225.487 277.782C224.844 277.782 224.408 277.618 224.178 277.292C223.948 276.96 223.833 276.531 223.833 276.006V270.578H222.723V269.452H223.833V267.163ZM227.922 269.49H229.323V277.652H227.922V269.49ZM227.922 266.405H229.323V267.967H227.922V266.405ZM234.666 276.764C235.58 276.764 236.205 276.419 236.542 275.73C236.884 275.036 237.055 274.265 237.055 273.418C237.055 272.652 236.933 272.03 236.688 271.55C236.3 270.795 235.631 270.417 234.682 270.417C233.84 270.417 233.227 270.738 232.844 271.381C232.462 272.025 232.27 272.8 232.27 273.709C232.27 274.582 232.462 275.309 232.844 275.891C233.227 276.473 233.834 276.764 234.666 276.764ZM234.72 269.215C235.777 269.215 236.67 269.567 237.4 270.271C238.129 270.976 238.494 272.012 238.494 273.38C238.494 274.702 238.173 275.794 237.53 276.656C236.887 277.519 235.889 277.95 234.536 277.95C233.408 277.95 232.513 277.57 231.849 276.809C231.186 276.044 230.854 275.018 230.854 273.732C230.854 272.354 231.203 271.256 231.903 270.44C232.602 269.623 233.541 269.215 234.72 269.215ZM240.14 269.452H241.449V270.616C241.837 270.136 242.248 269.792 242.682 269.582C243.116 269.373 243.598 269.268 244.129 269.268C245.293 269.268 246.079 269.674 246.487 270.486C246.712 270.93 246.824 271.565 246.824 272.392V277.652H245.423V272.484C245.423 271.984 245.349 271.581 245.201 271.274C244.956 270.764 244.512 270.509 243.869 270.509C243.542 270.509 243.274 270.542 243.065 270.608C242.687 270.721 242.355 270.945 242.07 271.282C241.84 271.552 241.689 271.833 241.618 272.124C241.552 272.41 241.518 272.821 241.518 273.357V277.652H240.14V269.452Z" fill="black"/>
</svg>
