<svg width="368" height="261" viewBox="0 0 368 261" fill="none" xmlns="http://www.w3.org/2000/svg">
<rect y="0.00396729" width="368" height="260" rx="15" fill="white"/>
<path d="M184 106.671C179.385 106.671 174.874 108.039 171.037 110.603C167.2 113.167 164.209 116.811 162.443 121.075C160.677 125.338 160.215 130.03 161.115 134.556C162.015 139.082 164.238 143.24 167.501 146.503C170.764 149.766 174.922 151.989 179.448 152.889C183.974 153.789 188.666 153.327 192.929 151.561C197.193 149.795 200.837 146.804 203.401 142.967C205.965 139.13 207.333 134.619 207.333 130.004C207.333 126.94 206.73 123.906 205.557 121.075C204.385 118.244 202.666 115.671 200.499 113.505C198.332 111.338 195.76 109.619 192.929 108.447C190.098 107.274 187.064 106.671 184 106.671ZM179.333 140.504V119.504L193.333 130.004L179.333 140.504Z" fill="white"/>
<path d="M169.901 67.6513C172.756 65.1179 173.882 61.1369 172.394 57.5982C171.469 55.4669 170.464 53.3759 169.338 51.3653L168.092 49.1938C166.885 47.1832 165.558 45.2128 164.151 43.3228C161.859 40.2666 157.837 39.2613 154.218 40.4677L142.878 44.2075C138.576 40.6688 133.629 37.7735 128.321 35.8031L125.868 24.1415C125.104 20.4017 122.209 17.426 118.429 16.9837C115.775 16.6217 113.081 16.4609 110.347 16.4609H110.065C107.331 16.4609 104.636 16.6217 101.982 16.9434C98.2024 17.3858 95.3071 20.4017 94.543 24.1013L92.0901 35.8031C86.7418 37.8137 81.8359 40.6688 77.5332 44.2075L66.1531 40.5079C62.5339 39.3015 58.5127 40.3069 56.2206 43.363C54.8132 45.253 53.4862 47.2234 52.2396 49.234L51.0332 51.3653C49.9073 53.3759 48.9019 55.4669 47.9771 57.6384C46.4892 61.1369 47.6151 65.1179 50.4702 67.6915L59.3974 75.6536C58.955 78.3478 58.7138 81.1627 58.7138 84.0177C58.7138 86.8728 58.955 89.6877 59.3974 92.4221L50.4702 100.384C47.6151 102.918 46.4892 106.899 47.9771 110.437C48.9019 112.569 49.9073 114.66 51.0332 116.71L52.2396 118.801C53.4459 120.852 54.773 122.783 56.2206 124.673C58.5127 127.729 62.5339 128.734 66.1531 127.528L77.493 123.788C81.7957 127.327 86.7418 130.222 92.0499 132.192L94.5028 143.894C95.2669 147.634 98.1621 150.61 101.942 151.052C104.636 151.374 107.371 151.534 110.145 151.534C112.92 151.534 115.655 151.374 118.349 151.052C122.129 150.61 125.024 147.594 125.788 143.894L128.241 132.192C133.589 130.182 138.495 127.327 142.798 123.788L154.138 127.528C157.757 128.734 161.778 127.729 164.07 124.673C165.478 122.783 166.805 120.852 168.011 118.801L169.258 116.63C170.384 114.619 171.389 112.528 172.314 110.397C173.802 106.899 172.676 102.918 169.821 100.344L160.894 92.3819C161.336 89.6475 161.577 86.8326 161.577 83.9775C161.577 81.1225 161.336 78.3076 160.894 75.5731L169.821 67.6111L169.901 67.6513ZM90.8837 84.0177C90.8837 78.8985 92.9173 73.989 96.5371 70.3692C100.157 66.7494 105.066 64.7158 110.186 64.7158C115.305 64.7158 120.214 66.7494 123.834 70.3692C127.454 73.989 129.488 78.8985 129.488 84.0177C129.488 89.1369 127.454 94.0465 123.834 97.6663C120.214 101.286 115.305 103.32 110.186 103.32C105.066 103.32 100.157 101.286 96.5371 97.6663C92.9173 94.0465 90.8837 89.1369 90.8837 84.0177ZM248.798 214.507C251.331 217.362 255.312 218.488 258.851 217C260.982 216.075 263.073 215.07 265.084 213.944L267.255 212.697C269.266 211.491 271.236 210.164 273.126 208.757C276.182 206.465 277.188 202.443 275.981 198.824L272.242 187.484C275.78 183.182 278.676 178.235 280.646 172.927L292.348 170.474C296.088 169.71 299.063 166.815 299.506 163.035C299.827 160.341 299.988 157.606 299.988 154.832C299.988 152.057 299.827 149.323 299.506 146.628C299.063 142.849 296.047 139.953 292.348 139.189L280.646 136.696C278.635 131.348 275.78 126.442 272.242 122.139L275.981 110.799C277.188 107.18 276.182 103.159 273.126 100.867C271.236 99.4593 269.266 98.1323 267.255 96.8857L265.124 95.6793C263.113 94.5534 261.022 93.5481 258.851 92.6232C255.352 91.1353 251.371 92.2613 248.798 95.1164L240.836 104.044C238.101 103.601 235.286 103.36 232.431 103.36C229.576 103.36 226.761 103.601 224.027 104.044L216.065 95.1164C213.532 92.2613 209.551 91.1353 206.012 92.6232C203.881 93.5481 201.79 94.5534 199.739 95.6793L197.648 96.8857C195.597 98.0921 193.667 99.4191 191.777 100.867C188.72 103.159 187.715 107.18 188.922 110.799L192.661 122.139C189.123 126.442 186.227 131.388 184.257 136.696L172.555 139.109C168.815 139.873 165.84 142.768 165.397 146.548C165.076 149.242 164.915 151.977 164.915 154.751C164.915 157.526 165.076 160.26 165.397 162.955C165.84 166.735 168.856 169.63 172.555 170.394L184.257 172.847C186.268 178.195 189.123 183.101 192.661 187.404L188.922 198.744C187.715 202.363 188.72 206.384 191.777 208.676C193.667 210.084 195.597 211.411 197.648 212.617L199.819 213.864C201.83 214.99 203.921 215.995 206.052 216.92C209.551 218.408 213.532 217.282 216.105 214.427L224.067 205.499C226.802 205.942 229.617 206.183 232.472 206.183C235.327 206.183 238.142 205.942 240.876 205.499L248.838 214.427L248.798 214.507ZM232.431 135.49C234.966 135.49 237.476 135.989 239.818 136.959C242.16 137.929 244.288 139.351 246.08 141.143C247.872 142.935 249.294 145.063 250.264 147.405C251.234 149.747 251.733 152.257 251.733 154.792C251.733 157.326 251.234 159.836 250.264 162.178C249.294 164.52 247.872 166.648 246.08 168.44C244.288 170.232 242.16 171.654 239.818 172.624C237.476 173.594 234.966 174.094 232.431 174.094C229.897 174.094 227.387 173.594 225.045 172.624C222.703 171.654 220.575 170.232 218.783 168.44C216.99 166.648 215.569 164.52 214.599 162.178C213.629 159.836 213.129 157.326 213.129 154.792C213.129 152.257 213.629 149.747 214.599 147.405C215.569 145.063 216.99 142.935 218.783 141.143C220.575 139.351 222.703 137.929 225.045 136.959C227.387 135.989 229.897 135.49 232.431 135.49Z" fill="#9DA3B0"/>
<circle cx="111.539" cy="79.9642" r="25.3434" fill="#9DA3B0"/>
<circle cx="233.084" cy="157.029" r="25.3434" fill="#9DA3B0"/>
<mask id="path-6-inside-1_1046_1174" fill="white">
<path fill-rule="evenodd" clip-rule="evenodd" d="M134.954 68.492H88.686V102.141H88.6926C88.9875 105.698 99.229 108.555 111.82 108.555C124.411 108.555 134.652 105.698 134.947 102.141H134.954V101.989C134.954 101.987 134.954 101.985 134.954 101.983C134.954 101.982 134.954 101.98 134.954 101.978V68.492Z"/>
</mask>
<path fill-rule="evenodd" clip-rule="evenodd" d="M134.954 68.492H88.686V102.141H88.6926C88.9875 105.698 99.229 108.555 111.82 108.555C124.411 108.555 134.652 105.698 134.947 102.141H134.954V101.989C134.954 101.987 134.954 101.985 134.954 101.983C134.954 101.982 134.954 101.98 134.954 101.978V68.492Z" fill="white"/>
<path d="M88.686 68.492V66.951H87.145V68.492H88.686ZM134.954 68.492H136.495V66.951H134.954V68.492ZM88.686 102.141H87.145V103.682H88.686V102.141ZM88.6926 102.141L90.2283 102.014L90.1111 100.6H88.6926V102.141ZM134.947 102.141V100.6H133.529L133.411 102.014L134.947 102.141ZM134.954 102.141V103.682H136.495V102.141H134.954ZM88.686 70.033H134.954V66.951H88.686V70.033ZM90.227 102.141V68.492H87.145V102.141H90.227ZM88.6926 100.6H88.686V103.682H88.6926V100.6ZM111.82 107.014C105.625 107.014 100.061 106.31 96.0578 105.197C94.0471 104.639 92.509 103.999 91.4916 103.347C90.4141 102.656 90.2411 102.167 90.2283 102.014L87.1569 102.268C87.2916 103.893 88.5093 105.096 89.8285 105.941C91.2078 106.825 93.0723 107.567 95.2327 108.167C99.5714 109.372 105.424 110.096 111.82 110.096V107.014ZM133.411 102.014C133.399 102.167 133.226 102.656 132.148 103.347C131.131 103.999 129.593 104.639 127.582 105.197C123.578 106.31 118.015 107.014 111.82 107.014V110.096C118.215 110.096 124.068 109.372 128.407 108.167C130.567 107.567 132.432 106.825 133.811 105.941C135.13 105.096 136.348 103.893 136.483 102.268L133.411 102.014ZM134.954 100.6H134.947V103.682H134.954V100.6ZM133.413 101.989V102.141H136.495V101.989H133.413ZM133.413 101.983C133.413 101.982 133.413 101.982 133.413 101.983C133.413 101.983 133.413 101.986 133.413 101.989H136.495C136.495 101.99 136.495 101.991 136.495 101.989C136.495 101.989 136.495 101.986 136.495 101.983H133.413ZM133.413 101.978C133.413 101.981 133.413 101.983 133.413 101.984C133.413 101.985 133.413 101.984 133.413 101.983H136.495C136.495 101.981 136.495 101.978 136.495 101.977C136.495 101.976 136.495 101.977 136.495 101.978H133.413ZM133.413 68.492V101.978H136.495V68.492H133.413Z" fill="#9DA3B0" mask="url(#path-6-inside-1_1046_1174)"/>
<path fill-rule="evenodd" clip-rule="evenodd" d="M133.3 77.3249C133.3 77.3888 133.24 77.8209 132.214 78.5105C131.247 79.1601 129.738 79.8099 127.726 80.3816C123.724 81.5185 118.1 82.2436 111.82 82.2436C105.54 82.2436 99.9154 81.5185 95.9136 80.3816C93.9014 79.8099 92.3931 79.1601 91.4259 78.5105C90.3992 77.8209 90.3395 77.3888 90.3395 77.3249C90.3395 77.3249 90.3395 77.3249 90.3395 77.3249H88.686C88.686 77.3249 88.686 77.3249 88.686 77.3249C88.686 80.9546 99.0434 83.897 111.82 83.897C124.573 83.897 134.917 80.9651 134.953 77.3444V77.3249L133.3 77.3249Z" fill="#9DA3B0"/>
<path fill-rule="evenodd" clip-rule="evenodd" d="M133.3 86.2105C133.3 86.2744 133.24 86.7065 132.214 87.3961C131.247 88.0457 129.738 88.6955 127.726 89.2672C123.724 90.4041 118.1 91.1292 111.82 91.1292C105.54 91.1292 99.9154 90.4041 95.9136 89.2672C93.9014 88.6955 92.3931 88.0457 91.4259 87.3961C90.3993 86.7065 90.3395 86.2745 90.3395 86.2106H88.686C88.6861 89.8402 99.0434 92.7826 111.82 92.7826C124.569 92.7826 134.909 89.8527 134.953 86.2337V86.2106L133.3 86.2105Z" fill="#9DA3B0"/>
<path fill-rule="evenodd" clip-rule="evenodd" d="M133.3 95.0962C133.3 95.1601 133.24 95.5922 132.214 96.2818C131.247 96.9314 129.738 97.5812 127.726 98.1529C123.724 99.2897 118.1 100.015 111.82 100.015C105.54 100.015 99.9154 99.2897 95.9136 98.1529C93.9014 97.5812 92.3931 96.9314 91.4259 96.2818C90.3992 95.5922 90.3395 95.1601 90.3395 95.0962C90.3395 95.0962 90.3395 95.0962 90.3395 95.0962H88.686C88.686 95.0962 88.686 95.0962 88.686 95.0962C88.686 98.7259 99.0434 101.668 111.82 101.668C124.577 101.668 134.923 98.7346 134.953 95.1124V95.0962L133.3 95.0962Z" fill="#9DA3B0"/>
<path d="M134.127 68.4395C134.127 68.9251 133.773 69.5734 132.675 70.3113C131.606 71.0293 130.005 71.7082 127.952 72.2914C123.858 73.4545 118.154 74.1848 111.82 74.1848C105.486 74.1848 99.7818 73.4545 95.6877 72.2914C93.635 71.7082 92.0338 71.0293 90.965 70.3113C89.8663 69.5734 89.5128 68.9251 89.5128 68.4395C89.5128 67.9538 89.8663 67.3055 90.965 66.5676C92.0338 65.8497 93.635 65.1707 95.6877 64.5875C99.7818 63.4244 105.486 62.6941 111.82 62.6941C118.154 62.6941 123.858 63.4244 127.952 64.5875C130.005 65.1707 131.606 65.8497 132.675 66.5676C133.773 67.3055 134.127 67.9538 134.127 68.4395Z" fill="white" stroke="#9DA3B0" stroke-width="1.65345"/>
<circle cx="129.801" cy="98.3817" r="12.9979" fill="white" stroke="#9DA3B0" stroke-width="1.65345"/>
<path d="M129.217 105.539C129.539 105.862 130.063 105.862 130.386 105.539L135.647 100.278C135.97 99.9549 135.97 99.4315 135.647 99.1086C135.324 98.7858 134.801 98.7858 134.478 99.1086L129.801 103.785L125.124 99.1086C124.802 98.7858 124.278 98.7858 123.955 99.1086C123.632 99.4315 123.632 99.9549 123.955 100.278L129.217 105.539ZM128.974 91.81L128.974 104.954L130.628 104.954L130.628 91.81L128.974 91.81Z" fill="#9DA3B0"/>
<path d="M323.161 155.185C323.778 154.568 323.778 153.569 323.161 152.952L313.112 142.903C312.495 142.286 311.496 142.286 310.879 142.903C310.262 143.519 310.262 144.519 310.879 145.136L319.811 154.069L310.879 163.001C310.262 163.618 310.262 164.618 310.879 165.234C311.496 165.851 312.495 165.851 313.112 165.234L323.161 155.185ZM233.084 155.648H322.045V152.489H233.084V155.648Z" fill="#9DA3B0"/>
<path d="M277.564 154.069L299.988 154.069" stroke="white" stroke-width="3.15816"/>
<path d="M143.007 155.185C142.39 154.568 142.39 153.569 143.007 152.952L153.056 142.903C153.673 142.286 154.673 142.286 155.289 142.903C155.906 143.519 155.906 144.519 155.289 145.136L146.357 154.069L155.289 163.001C155.906 163.618 155.906 164.618 155.289 165.234C154.673 165.851 153.673 165.851 153.056 165.234L143.007 155.185ZM233.084 155.648H144.124V152.489H233.084V155.648Z" fill="#9DA3B0"/>
<path d="M188.604 154.069L166.18 154.069" stroke="white" stroke-width="3.15816"/>
<path d="M279.089 76.6178C278.864 75.7754 277.998 75.2755 277.156 75.5012L263.428 79.1795C262.586 79.4052 262.086 80.2711 262.311 81.1134C262.537 81.9558 263.403 82.4557 264.245 82.23L276.448 78.9605L279.717 91.1626C279.943 92.005 280.809 92.5049 281.651 92.2792C282.494 92.0535 282.993 91.1876 282.768 90.3452L279.089 76.6178ZM234.452 154.858L278.932 77.816L276.197 76.237L231.716 153.279L234.452 154.858Z" fill="#9DA3B0"/>
<path d="M279.089 76.6178C278.864 75.7754 277.998 75.2755 277.156 75.5012L263.428 79.1795C262.586 79.4052 262.086 80.2711 262.311 81.1134C262.537 81.9558 263.403 82.4557 264.245 82.23L276.448 78.9605L279.717 91.1626C279.943 92.005 280.809 92.5049 281.651 92.2792C282.494 92.0535 282.993 91.1876 282.768 90.3452L279.089 76.6178ZM234.452 154.858L278.932 77.816L276.197 76.237L231.716 153.279L234.452 154.858Z" fill="#9DA3B0"/>
<path d="M255.324 115.547L266.536 96.1278" stroke="white" stroke-width="3.15816"/>
<path d="M187.078 76.6178C187.304 75.7754 188.17 75.2755 189.012 75.5012L202.74 79.1795C203.582 79.4052 204.082 80.2711 203.856 81.1134C203.631 81.9558 202.765 82.4557 201.923 82.23L189.72 78.9605L186.451 91.1626C186.225 92.005 185.359 92.5049 184.517 92.2792C183.674 92.0535 183.175 91.1876 183.4 90.3452L187.078 76.6178ZM231.716 154.858L187.236 77.816L189.971 76.237L234.452 153.279L231.716 154.858Z" fill="#9DA3B0"/>
<path d="M187.078 76.6178C187.304 75.7754 188.17 75.2755 189.012 75.5012L202.74 79.1795C203.582 79.4052 204.082 80.2711 203.856 81.1134C203.631 81.9558 202.765 82.4557 201.923 82.23L189.72 78.9605L186.451 91.1626C186.225 92.005 185.359 92.5049 184.517 92.2792C183.674 92.0535 183.175 91.1876 183.4 90.3452L187.078 76.6178ZM231.716 154.858L187.236 77.816L189.971 76.237L234.452 153.279L231.716 154.858Z" fill="#9DA3B0"/>
<path d="M210.844 115.547L199.632 96.1278" stroke="white" stroke-width="3.15816"/>
<path d="M279.089 231.519C278.864 232.362 277.998 232.862 277.156 232.636L263.428 228.958C262.586 228.732 262.086 227.866 262.311 227.024C262.537 226.181 263.403 225.681 264.245 225.907L276.448 229.177L279.717 216.974C279.943 216.132 280.809 215.632 281.651 215.858C282.494 216.084 282.993 216.949 282.768 217.792L279.089 231.519ZM234.452 153.279L278.932 230.321L276.197 231.9L231.716 154.858L234.452 153.279Z" fill="#9DA3B0"/>
<path d="M279.089 231.519C278.864 232.362 277.998 232.862 277.156 232.636L263.428 228.958C262.586 228.732 262.086 227.866 262.311 227.024C262.537 226.181 263.403 225.681 264.245 225.907L276.448 229.177L279.717 216.974C279.943 216.132 280.809 215.632 281.651 215.858C282.494 216.084 282.993 216.949 282.768 217.792L279.089 231.519ZM234.452 153.279L278.932 230.321L276.197 231.9L231.716 154.858L234.452 153.279Z" fill="#9DA3B0"/>
<path d="M255.324 192.589L266.536 212.009" stroke="white" stroke-width="3.15816"/>
<path d="M187.078 231.519C187.304 232.362 188.17 232.862 189.012 232.636L202.74 228.958C203.582 228.732 204.082 227.866 203.856 227.024C203.631 226.181 202.765 225.681 201.923 225.907L189.72 229.177L186.451 216.974C186.225 216.132 185.359 215.632 184.517 215.858C183.674 216.084 183.175 216.949 183.4 217.792L187.078 231.519ZM231.716 153.279L187.236 230.321L189.971 231.9L234.452 154.858L231.716 153.279Z" fill="#9DA3B0"/>
<path d="M187.078 231.519C187.304 232.362 188.17 232.862 189.012 232.636L202.74 228.958C203.582 228.732 204.082 227.866 203.856 227.024C203.631 226.181 202.765 225.681 201.923 225.907L189.72 229.177L186.451 216.974C186.225 216.132 185.359 215.632 184.517 215.858C183.674 216.084 183.175 216.949 183.4 217.792L187.078 231.519ZM231.716 153.279L187.236 230.321L189.971 231.9L234.452 154.858L231.716 153.279Z" fill="#9DA3B0"/>
<path d="M210.844 192.589L199.632 212.009" stroke="white" stroke-width="3.15816"/>
<circle cx="233.084" cy="154.069" r="25.3434" fill="white"/>
<path d="M240.967 159.122L246.02 154.069L240.967 149.015M225.808 149.015L220.755 154.069L225.808 159.122M236.546 143.962L230.23 164.175" stroke="#9DA3B0" stroke-width="2.52653" stroke-linecap="round" stroke-linejoin="round"/>
<path d="M230.431 191.811C237.214 192.13 243.956 190.594 249.932 187.368C255.907 184.142 260.891 179.349 264.347 173.503C267.802 167.657 269.599 160.98 269.544 154.189C269.489 147.399 267.584 140.752 264.034 134.962C260.484 129.173 255.424 124.461 249.396 121.333C243.369 118.204 236.603 116.778 229.826 117.207C223.049 117.636 216.516 119.904 210.931 123.767C205.347 127.63 200.92 132.942 198.129 139.133L200.131 140.036C202.759 134.209 206.925 129.209 212.181 125.573C217.438 121.937 223.586 119.803 229.965 119.399C236.343 118.995 242.712 120.338 248.384 123.282C254.057 126.227 258.82 130.662 262.162 136.111C265.503 141.559 267.296 147.816 267.347 154.207C267.399 160.599 265.708 166.883 262.456 172.385C259.203 177.888 254.513 182.399 248.888 185.435C243.264 188.471 236.918 189.917 230.534 189.617L230.431 191.811Z" fill="white"/>
<path d="M197.325 143.4L196.915 136.865L202.279 139.5L197.325 143.4Z" fill="white"/>
</svg>
