<svg width="23" height="23" viewBox="0 0 23 23" fill="none" xmlns="http://www.w3.org/2000/svg">
<g opacity="0.6">
<g clip-path="url(#clip0_5687_21245)">
<rect x="0.123291" y="0.25293" width="22" height="22" rx="4" fill="#1C1E21"/>
<path d="M16.6326 9.228C16.8343 9.10387 17.0223 8.9588 17.1936 8.79519C17.227 8.76306 17.2583 8.73092 17.29 8.69878C17.4098 8.57688 17.5203 8.44615 17.6205 8.30771C17.7225 8.16699 17.8102 8.01641 17.8822 7.85822C17.9825 7.6425 18.0441 7.41081 18.0642 7.17375C18.1264 6.36448 17.6468 5.55981 16.5775 4.91081L12.2721 2.2998L7.25287 7.10864L3.98535 10.2388L8.51789 12.9893C9.24375 13.4336 10.0775 13.6707 10.9286 13.6746C11.9686 13.6746 12.9653 13.3073 13.7007 12.6024C14.5003 11.8361 14.7658 10.8444 14.2725 10.0201C14.1921 9.88647 14.0969 9.76228 13.9887 9.64995C14.2529 9.70883 14.5226 9.73892 14.7933 9.73968H14.8004C15.243 9.74045 15.6818 9.65849 16.0942 9.49803C16.2814 9.42424 16.4616 9.33387 16.6326 9.228ZM12.4344 11.7238C11.6281 12.4963 10.3309 12.6103 9.27498 11.9701L6.13935 10.0669L8.95403 7.36865L12.1435 9.30479C13.2929 10.003 13.2295 10.9642 12.4344 11.7255V11.7238ZM12.8075 8.29269L9.85887 6.5043L12.5467 3.92751L15.4419 5.68502C16.5245 6.34153 16.6652 7.23134 15.8822 7.9805C15.4761 8.36466 14.9544 8.60374 14.3983 8.66051C13.8421 8.71728 13.2829 8.58854 12.8075 8.29436V8.29269ZM14.0538 16.2225C13.237 17.0051 12.1268 17.4362 10.9286 17.4362C9.98405 17.4324 9.05865 17.1698 8.25287 16.6771L3.98535 14.0907V15.1203L8.51789 17.8711C9.24375 18.3155 10.0775 18.5525 10.9286 18.5564C11.9686 18.5564 12.9653 18.1887 13.7007 17.4842C14.2382 16.9692 14.5354 16.3519 14.522 15.7526V15.6779C14.3843 15.8755 14.2275 16.059 14.0538 16.2259V16.2225ZM14.0538 14.5948C13.237 15.3778 12.1268 15.8089 10.9286 15.8089C9.98405 15.8051 9.05865 15.5426 8.25287 15.0498L3.98535 12.4634V13.4934L8.51789 16.2442C9.24378 16.6885 10.0775 16.9254 10.9286 16.9291C11.9686 16.9291 12.9653 16.5619 13.7007 15.8574C14.2382 15.3419 14.5354 14.7251 14.522 14.1253V14.0506C14.3845 14.2484 14.2277 14.4319 14.0538 14.5986V14.5948ZM14.0538 12.9671C13.237 13.7501 12.1268 14.1812 10.9286 14.1812C9.98405 14.1774 9.05865 13.9148 8.25287 13.4221L3.98535 10.8365V11.8666L8.51789 14.6174C9.24378 15.0616 10.0775 15.2985 10.9286 15.3023C11.9686 15.3023 12.9653 14.935 13.7007 14.2301C14.2382 13.715 14.5354 13.0982 14.522 12.4984V12.4225C14.3845 12.6206 14.2277 12.8046 14.0538 12.9717V12.9671ZM17.5467 14.0414C16.8655 14.6903 15.9741 15.0732 15.0346 15.1207V16.2397C15.8423 16.1947 16.6076 15.8638 17.1936 15.306C17.7779 14.7476 18.0763 14.1328 18.07 13.5264V13.4346C17.9167 13.6556 17.7414 13.8605 17.5467 14.046V14.0414ZM14.0538 17.8482C13.237 18.6307 12.1268 19.0623 10.9286 19.0623C9.98399 19.0585 9.05853 18.7958 8.25287 18.3027L3.98535 15.7175V16.7472L8.51789 19.498C9.24375 19.9424 10.0775 20.1794 10.9286 20.1833C11.9686 20.1833 12.9653 19.8156 13.7007 19.1111C14.2382 18.5961 14.5354 17.9788 14.522 17.3795V17.3048C14.3844 17.5024 14.2276 17.686 14.0538 17.8528V17.8482ZM17.6326 9.07482C17.6043 9.10362 17.5763 9.13242 17.5467 9.16038C17.2689 9.42025 16.9567 9.6406 16.6189 9.81522C16.2736 9.98941 15.9046 10.1119 15.5237 10.1787C15.3286 10.2149 15.1311 10.2368 14.9327 10.2443C14.9536 10.3115 14.9703 10.3799 14.9849 10.4488C15.0197 10.6134 15.0355 10.7814 15.0321 10.9496V11.3565H15.0341C15.3973 11.3348 15.7549 11.2569 16.0942 11.1257C16.5035 10.9657 16.8775 10.7272 17.1952 10.4237C17.229 10.3916 17.2583 10.3586 17.29 10.3261C17.4098 10.204 17.5203 10.0732 17.6205 9.93459C17.7227 9.7937 17.8107 9.64298 17.883 9.48467C17.9831 9.26836 18.0441 9.03608 18.0634 8.79853C18.0671 8.7472 18.0717 8.69544 18.0713 8.64411V8.56064C18.0412 8.60237 18.0095 8.64661 17.977 8.6896C17.8706 8.82671 17.7556 8.95691 17.6326 9.07941V9.07482ZM17.6326 12.3269C17.6043 12.3561 17.5784 12.3857 17.5492 12.4145C16.8681 13.0635 15.9766 13.4463 15.0371 13.4934V14.612C15.8447 14.5669 16.61 14.2359 17.1961 13.6783C17.4831 13.4122 17.7166 13.0936 17.8839 12.7397C17.9839 12.5233 18.0449 12.2911 18.0642 12.0535C18.0679 12.0018 18.0725 11.95 18.0721 11.8987V11.8069C18.0412 11.8519 18.0108 11.897 17.9774 11.9413C17.8705 12.0787 17.7548 12.2091 17.631 12.3315L17.6326 12.3269ZM17.6326 10.6992C17.6043 10.7284 17.5784 10.758 17.5492 10.7868C17.4106 10.918 17.2624 11.0387 17.1059 11.1479C16.9514 11.2569 16.7892 11.3545 16.6205 11.44C16.1278 11.6897 15.5886 11.8344 15.0371 11.8649H15.035V12.978C15.8427 12.933 16.608 12.602 17.194 12.0443C17.2278 12.0122 17.257 11.9792 17.2887 11.9467C17.4085 11.8246 17.519 11.6938 17.6193 11.5552C17.7214 11.4144 17.8093 11.2638 17.8818 11.1057C17.9818 10.8892 18.0429 10.6568 18.0621 10.4191C18.0659 10.3678 18.0704 10.3161 18.07 10.2647V10.1729C18.0391 10.218 18.0087 10.2631 17.9753 10.3073C17.8691 10.447 17.7541 10.5797 17.631 10.7046L17.6326 10.6992ZM27.691 6.99136C27.912 6.99136 28.1497 6.99372 28.4043 6.99845C28.6589 7.00318 28.911 7.0171 29.1606 7.04019C29.3954 7.06174 29.6287 7.09756 29.8592 7.14745C30.0549 7.1874 30.2426 7.25992 30.4143 7.36197C30.7588 7.57081 31.0518 7.85454 31.2716 8.19211C31.5039 8.54881 31.6201 8.98509 31.6201 9.50095C31.6201 10.0446 31.488 10.5146 31.224 10.9108C30.9599 11.307 30.5829 11.6004 30.0929 11.791V11.8194C30.7268 11.9535 31.2119 12.2398 31.5483 12.6783C31.8847 13.1168 32.0527 13.651 32.0525 14.281C32.0525 14.6528 31.9842 15.0215 31.8509 15.3686C31.7181 15.7189 31.5145 16.038 31.2528 16.306C30.9733 16.5885 30.6403 16.8124 30.2732 16.9646C29.8837 17.1316 29.4346 17.215 28.926 17.215H23.9565V6.99678L27.691 6.99136ZM28.0667 11.3849C28.8457 11.3849 29.4051 11.2489 29.7449 10.9767C30.0846 10.7046 30.2552 10.2969 30.2565 9.75345C30.2565 9.39174 30.199 9.10543 30.0838 8.89452C29.9741 8.69079 29.8092 8.52211 29.608 8.40788C29.3909 8.29047 29.1527 8.21701 28.9072 8.19169C28.6277 8.15737 28.3462 8.14064 28.0646 8.1416H25.3267V11.3903L28.0667 11.3849ZM28.7582 16.0648C29.3631 16.0648 29.8361 15.9026 30.1772 15.5781C30.5184 15.2537 30.6875 14.8064 30.6848 14.2363C30.6848 13.9024 30.6224 13.6259 30.4978 13.4066C30.3786 13.1935 30.2076 13.0138 30.0007 12.8841C29.7816 12.7504 29.5399 12.6582 29.2874 12.612C29.0123 12.5592 28.7328 12.5329 28.4527 12.5335H25.325V16.0685L28.7582 16.0648ZM40.2269 17.1808C40.0151 17.3046 39.7222 17.3667 39.3479 17.367C39.0307 17.367 38.7786 17.2787 38.5917 17.1023C38.4047 16.9259 38.3109 16.6373 38.3104 16.2363C37.9983 16.6194 37.5945 16.9173 37.1363 17.1023C36.3677 17.3934 35.5291 17.4457 34.7302 17.2526C34.4476 17.1854 34.1808 17.0638 33.9448 16.8945C33.7195 16.7301 33.5376 16.5134 33.4147 16.263C33.2853 16.0009 33.2205 15.6837 33.2202 15.3114C33.2202 14.8916 33.2923 14.5481 33.4364 14.281C33.5728 14.0226 33.7678 13.7996 34.0057 13.6299C34.2509 13.4582 34.5238 13.3299 34.8125 13.2505C35.1152 13.1648 35.425 13.0933 35.7419 13.036C36.078 12.9692 36.398 12.9191 36.7019 12.8857C36.9717 12.8584 37.239 12.8105 37.5015 12.7426C37.7323 12.6808 37.9143 12.5903 38.0491 12.4709C38.1839 12.3515 38.2507 12.1787 38.2507 11.9484C38.2507 11.6812 38.2003 11.4666 38.0996 11.3044C38.0048 11.1483 37.8707 11.0199 37.7106 10.9321C37.5443 10.844 37.3637 10.7859 37.1772 10.7605C36.9837 10.7325 36.7884 10.7185 36.5929 10.7188C36.0746 10.7188 35.6423 10.8162 35.2962 11.011C34.9501 11.2057 34.7625 11.5754 34.7336 12.1199H33.509C33.5282 11.6619 33.6242 11.2756 33.797 10.9609C33.9629 10.6539 34.2001 10.3913 34.4886 10.195C34.7887 9.99461 35.1234 9.85155 35.4756 9.77307C35.8657 9.68528 36.2645 9.64243 36.6643 9.64536C36.9995 9.6454 37.3342 9.66939 37.666 9.71714C37.9813 9.75946 38.2865 9.85843 38.5666 10.0093C38.8342 10.155 39.0583 10.3692 39.216 10.6299C39.3794 10.8962 39.461 11.244 39.461 11.6733V15.4713C39.461 15.7568 39.4779 15.9661 39.5115 16.0994C39.5452 16.2327 39.658 16.2993 39.85 16.2993C39.9771 16.2964 40.1034 16.2772 40.2256 16.2422L40.2269 17.1808ZM38.2386 13.3882C38.0846 13.5026 37.883 13.5852 37.6334 13.6387C37.3838 13.6921 37.1217 13.7334 36.8479 13.7668C36.5741 13.8002 36.2983 13.8382 36.0195 13.8807C35.7613 13.9173 35.5089 13.9866 35.2682 14.0869C35.0569 14.1747 34.8712 14.3144 34.7282 14.493C34.589 14.6689 34.5195 14.9086 34.5195 15.2121C34.5137 15.3886 34.5562 15.5633 34.6422 15.7175C34.7206 15.8518 34.829 15.9661 34.959 16.0514C35.0976 16.1407 35.2515 16.2035 35.413 16.2367C35.5928 16.2754 35.7763 16.2944 35.9602 16.2935C36.3637 16.2935 36.7095 16.239 36.9978 16.1299C37.2569 16.0377 37.4963 15.8975 37.7035 15.7167C37.8745 15.566 38.0119 15.3812 38.1071 15.1741C38.1883 15.0024 38.2325 14.8156 38.2369 14.6257L38.2386 13.3882ZM45.8133 11.1061C45.5058 10.8487 45.0928 10.7199 44.5741 10.7196C44.132 10.7196 43.7622 10.8008 43.4648 10.963C43.1776 11.1156 42.9326 11.3368 42.7515 11.607C42.5679 11.8882 42.4383 12.2013 42.3696 12.5302C42.2921 12.8849 42.2535 13.2471 42.2544 13.6103C42.2538 13.9479 42.2948 14.2844 42.3767 14.612C42.4516 14.9209 42.5809 15.214 42.7586 15.4776C42.9326 15.7316 43.1648 15.9402 43.436 16.0861C43.7142 16.2388 44.0456 16.3151 44.4301 16.3148C45.0353 16.3148 45.5083 16.1574 45.8491 15.8427C46.19 15.5281 46.3987 15.0844 46.4752 14.5118H47.7273C47.5929 15.4275 47.2495 16.1335 46.6972 16.6299C46.1449 17.1263 45.3937 17.3743 44.4435 17.374C43.8767 17.374 43.3749 17.2833 42.9381 17.1019C42.5187 16.9321 42.1446 16.6671 41.8454 16.3277C41.5444 15.9794 41.3187 15.5726 41.1826 15.1328C41.0288 14.6401 40.9529 14.1264 40.9577 13.6103C40.9538 13.0849 41.0266 12.5617 41.1739 12.0573C41.306 11.5979 41.529 11.1698 41.8295 10.7981C42.127 10.4356 42.5037 10.1462 42.9305 9.95212C43.3732 9.74761 43.888 9.64536 44.4748 9.64536C44.8759 9.64259 45.2756 9.69312 45.6634 9.79561C46.0164 9.8878 46.3489 10.0457 46.6434 10.261C46.9292 10.4735 47.1672 10.7437 47.342 11.0539C47.5243 11.3736 47.6396 11.7529 47.688 12.1917H46.4201C46.3227 11.7242 46.1204 11.3624 45.8133 11.1061ZM50.3946 6.99887V13.0506L53.7949 9.81647H55.4376L52.4839 12.5068L55.6538 17.2154H54.0975L51.5474 13.3511L50.3946 14.4104V17.2154H49.1701V6.99678L50.3946 6.99887ZM57.5123 15.564C57.6244 15.7471 57.7803 15.8996 57.966 16.0076C58.1627 16.121 58.377 16.2008 58.5999 16.2438C58.8395 16.292 59.0834 16.316 59.3278 16.3152C59.5302 16.3147 59.7324 16.3008 59.933 16.2735C60.134 16.2478 60.3306 16.1947 60.5173 16.1157C60.6899 16.0437 60.8412 15.9288 60.9568 15.7818C61.072 15.6338 61.1296 15.4453 61.1296 15.2163C61.1296 14.9016 61.0095 14.6631 60.7694 14.5009C60.4922 14.3223 60.1881 14.1894 59.8687 14.1074C59.5087 14.0072 59.1173 13.9165 58.6947 13.8352C58.2927 13.7604 57.8992 13.6454 57.5202 13.4918C57.1762 13.3541 56.8683 13.1395 56.62 12.8645C56.3796 12.5974 56.2595 12.2252 56.2598 11.748C56.2598 11.3757 56.3433 11.0558 56.5102 10.7881C56.6743 10.5248 56.8959 10.3021 57.1584 10.1366C57.434 9.96505 57.7356 9.83945 58.0515 9.76472C58.3753 9.68535 58.7074 9.64527 59.0407 9.64536C59.4328 9.64231 59.8243 9.67838 60.2093 9.75304C60.5446 9.81637 60.8649 9.94254 61.1534 10.1249C61.4293 10.3037 61.6548 10.5501 61.8086 10.8407C61.9719 11.1412 62.0681 11.5156 62.097 11.9638H60.8721C60.8529 11.7253 60.7905 11.5274 60.6851 11.3699C60.5812 11.2144 60.4432 11.0848 60.2815 10.9909C60.1136 10.8933 59.9313 10.8229 59.7414 10.7822C59.5449 10.7396 59.3444 10.7181 59.1433 10.718C58.9577 10.7177 58.7722 10.7317 58.5887 10.7597C58.4119 10.7854 58.2396 10.8359 58.077 10.91C57.9311 10.9748 57.8025 11.0728 57.7014 11.1963C57.6051 11.3156 57.557 11.4706 57.557 11.6612C57.5544 11.7593 57.5731 11.8567 57.6117 11.9469C57.6503 12.0371 57.7079 12.1179 57.7807 12.1837C57.9471 12.3329 58.1401 12.4494 58.3495 12.5272C58.6022 12.6244 58.8624 12.7009 59.1275 12.7559C59.416 12.8183 59.7043 12.8827 59.9923 12.9492C60.2983 13.016 60.5984 13.0971 60.8925 13.1925C61.169 13.2804 61.431 13.4085 61.67 13.5727C61.8939 13.7282 62.0808 13.9309 62.2176 14.1666C62.3567 14.4054 62.4263 14.7011 62.4263 15.0539C62.4263 15.5027 62.3327 15.8749 62.1454 16.1704C61.9605 16.4636 61.7086 16.7088 61.4104 16.8857C61.0947 17.072 60.7483 17.2005 60.3875 17.2651C60.0146 17.3359 59.636 17.3719 59.2565 17.3724C58.859 17.3741 58.4626 17.3308 58.0749 17.2434C57.7195 17.1664 57.3817 17.0232 57.0791 16.8215C56.7892 16.6238 56.5518 16.3585 56.3875 16.0485C56.2147 15.7288 56.1187 15.34 56.0995 14.882H57.3241C57.326 15.1212 57.391 15.3557 57.5123 15.5619V15.564ZM66.9639 9.81814V10.8916H65.4797V15.4834C65.4766 15.599 65.4888 15.7145 65.516 15.8269C65.5364 15.9078 65.585 15.9788 65.6529 16.0272C65.7375 16.0808 65.834 16.1128 65.9338 16.1203C66.0894 16.1362 66.2457 16.1433 66.4021 16.1416H66.9639V17.215H66.0273C65.7546 17.2186 65.4821 17.197 65.2134 17.1503C65.0139 17.1192 64.8256 17.0381 64.6659 16.9145C64.5173 16.786 64.4097 16.6169 64.3562 16.4279C64.2886 16.2181 64.2549 15.9414 64.2552 15.5978V10.8895H62.9872V9.81606H64.2552V7.59778H65.4797V9.81606L66.9639 9.81814ZM74.9171 17.1862C74.7053 17.3101 74.4124 17.3721 74.0381 17.3724C73.7209 17.3724 73.4688 17.2842 73.2819 17.1078C73.0949 16.9314 73.0011 16.6427 73.0006 16.2417C72.6885 16.6248 72.2847 16.9228 71.8265 17.1078C71.0579 17.3988 70.2193 17.4511 69.4204 17.258C69.1378 17.1909 68.871 17.0692 68.635 16.8999C68.4105 16.7335 68.23 16.5149 68.1091 16.263C67.9797 16.0009 67.9149 15.6837 67.9146 15.3114C67.9146 14.8916 67.9867 14.5481 68.1308 14.281C68.2672 14.0226 68.4622 13.7996 68.7001 13.6299C68.9453 13.4582 69.2182 13.3299 69.5068 13.2505C69.8096 13.1648 70.1194 13.0933 70.4363 13.036C70.7721 12.9692 71.0921 12.9191 71.3962 12.8857C71.666 12.8584 71.9333 12.8105 72.1959 12.7426C72.4267 12.6808 72.6087 12.5903 72.7435 12.4709C72.8783 12.3515 72.9451 12.1787 72.9451 11.9484C72.9451 11.6812 72.8947 11.4666 72.794 11.3044C72.6992 11.1483 72.565 11.0199 72.405 10.9321C72.2386 10.844 72.0581 10.7859 71.8716 10.7605C71.6781 10.7325 71.4828 10.7185 71.2873 10.7188C70.7689 10.7188 70.3367 10.8162 69.9906 11.011C69.6444 11.2057 69.4572 11.5754 69.4288 12.1199H68.2043C68.2229 11.6619 68.3189 11.2756 68.4922 10.9609C68.6578 10.654 68.8945 10.3914 69.1825 10.195C69.4827 9.99461 69.8173 9.85155 70.1696 9.77307C70.5596 9.68486 70.9584 9.64159 71.3582 9.6441C71.6934 9.64415 72.0282 9.66814 72.3599 9.71589C72.6753 9.7582 72.9804 9.85718 73.2606 10.008C73.5278 10.1542 73.7515 10.3686 73.9087 10.6295C74.0721 10.8958 74.1537 11.2436 74.1537 11.6729V15.4709C74.1537 15.7564 74.1706 15.9657 74.2042 16.099C74.2379 16.2323 74.3507 16.2989 74.5427 16.2989C74.6699 16.296 74.7961 16.2768 74.9183 16.2417L74.9171 17.1862ZM72.9288 13.3937C72.7748 13.508 72.5732 13.5907 72.3236 13.6441C72.074 13.6975 71.8119 13.7388 71.5381 13.7722C71.2643 13.8056 70.9885 13.8436 70.7097 13.8862C70.4522 13.9229 70.2005 13.9922 69.9605 14.0923C69.7492 14.1802 69.5635 14.3198 69.4204 14.4984C69.2813 14.6743 69.2118 14.914 69.2118 15.2175C69.206 15.394 69.2485 15.5687 69.3345 15.723C69.4128 15.8572 69.5213 15.9715 69.6512 16.0569C69.7899 16.1461 69.9438 16.209 70.1053 16.2422C70.2851 16.2808 70.4686 16.2998 70.6525 16.2989C71.0562 16.2989 71.4021 16.2444 71.69 16.1353C71.9492 16.0431 72.1886 15.9029 72.3958 15.7221C72.5667 15.5714 72.7042 15.3866 72.7994 15.1796C72.8805 15.0078 72.9248 14.821 72.9292 14.6311L72.9288 13.3937ZM81.6454 19.3043C81.0889 19.9053 80.2148 20.2058 79.0231 20.2058C78.6671 20.2048 78.3122 20.1665 77.9642 20.0915C77.6196 20.0211 77.2887 19.8954 76.9843 19.7192C76.6953 19.5513 76.4469 19.3218 76.2568 19.0468C76.0645 18.7686 75.9588 18.4298 75.9396 18.0306H77.1646C77.1684 18.2351 77.242 18.4321 77.3732 18.589C77.5056 18.7433 77.6673 18.8697 77.849 18.9609C78.0424 19.0587 78.2485 19.1289 78.4613 19.1695C78.6701 19.2114 78.8824 19.233 79.0953 19.2342C79.4985 19.2342 79.8394 19.1647 80.1182 19.0255C80.3909 18.8917 80.6279 18.695 80.8098 18.4517C81.0011 18.1887 81.1359 17.889 81.2059 17.5715C81.2905 17.2006 81.3317 16.8212 81.3286 16.4408V15.9554H81.2994C81.0882 16.4134 80.7682 16.7498 80.3394 16.9646C79.9172 17.1778 79.4506 17.2881 78.9776 17.2864C78.4211 17.2864 77.9361 17.1862 77.5227 16.9859C77.1224 16.7952 76.7687 16.5193 76.4864 16.1775C76.2014 15.8267 75.9887 15.423 75.8603 14.9897C75.7191 14.5233 75.6488 14.0383 75.6516 13.551C75.6538 13.0949 75.7119 12.6408 75.8244 12.1988C75.9357 11.7461 76.132 11.3186 76.4029 10.9392C76.6832 10.5522 77.0479 10.2341 77.4692 10.0089C77.9108 9.76542 78.4534 9.64369 79.097 9.64369C79.5479 9.63902 79.993 9.74476 80.3937 9.9517C80.7882 10.1578 81.1099 10.4798 81.3156 10.8745H81.3302V9.81606H82.4826V16.5852C82.4815 17.797 82.2024 18.7033 81.6454 19.3043ZM80.0819 15.9771C80.3596 15.8157 80.5944 15.5898 80.7664 15.3185C80.9443 15.0344 81.0734 14.7225 81.1483 14.3958C81.229 14.0582 81.2701 13.7124 81.2706 13.3653C81.2708 13.0419 81.2321 12.7196 81.1554 12.4054C81.0835 12.1023 80.9592 11.8142 80.7881 11.5539C80.6207 11.3022 80.396 11.0938 80.1324 10.9459C79.8636 10.7931 79.5371 10.7167 79.1529 10.7167C78.7589 10.7167 78.4226 10.7907 78.1441 10.9388C77.8725 11.0803 77.638 11.2837 77.4596 11.5327C77.2769 11.7917 77.145 12.083 77.0707 12.3912C76.9882 12.7236 76.9472 13.0649 76.9484 13.4074C76.9485 13.7439 76.9823 14.0794 77.0494 14.4091C77.1111 14.7297 77.228 15.0372 77.395 15.3177C77.5548 15.5864 77.7773 15.8124 78.0435 15.9763C78.3123 16.1432 78.6484 16.2267 79.0519 16.2267C79.4553 16.2267 79.7987 16.1435 80.0819 15.9771ZM89.5977 16.7426C89.0413 17.1624 88.34 17.3724 87.4938 17.3724C86.8984 17.3724 86.3821 17.2769 85.945 17.0861C85.5219 16.9054 85.1451 16.6315 84.8428 16.2847C84.5372 15.9252 84.3098 15.5061 84.175 15.0539C84.0218 14.5475 83.9376 14.0228 83.9246 13.4938C83.9185 12.9678 84.0063 12.4449 84.1837 11.9496C84.3444 11.5002 84.5906 11.0863 84.9087 10.7305C85.2184 10.3888 85.5963 10.1158 86.018 9.92916C86.4604 9.73629 86.9387 9.63955 87.4212 9.64536C88.084 9.64536 88.6339 9.78142 89.071 10.0535C89.4965 10.3142 89.8563 10.6692 90.1228 11.0911C90.3871 11.5119 90.5726 11.9774 90.6704 12.4646C90.7686 12.9309 90.8097 13.4074 90.7926 13.8837H85.2167C85.2056 14.1956 85.2444 14.5073 85.3319 14.8069C85.4145 15.0911 85.5568 15.3545 85.7493 15.5794C85.9517 15.8108 86.2036 15.9936 86.4863 16.1145C86.784 16.2486 87.1346 16.3153 87.5381 16.3148C88.057 16.3148 88.482 16.1956 88.8131 15.9571C89.1442 15.7187 89.3628 15.3561 89.4688 14.8695H90.6791C90.5155 15.6995 90.1553 16.3238 89.5986 16.7426H89.5977ZM89.3023 11.9913C89.1981 11.7419 89.0464 11.5151 88.8557 11.3236C88.5462 11.0301 88.1587 10.8321 87.7395 10.7534C87.3204 10.6747 86.8874 10.7186 86.4926 10.8799C86.2458 10.9844 86.0227 11.1379 85.8369 11.3311C85.653 11.5242 85.5066 11.7498 85.4049 11.9964C85.2981 12.2536 85.2347 12.5268 85.2175 12.8048H89.4967C89.4787 12.5246 89.4132 12.2496 89.3031 11.9913H89.3023ZM16.6326 9.228C16.8343 9.10387 17.0223 8.9588 17.1936 8.79519C17.227 8.76306 17.2583 8.73092 17.29 8.69878C17.4098 8.57688 17.5203 8.44615 17.6205 8.30771C17.7225 8.16699 17.8102 8.01641 17.8822 7.85822C17.9825 7.6425 18.0441 7.41081 18.0642 7.17375C18.1264 6.36448 17.6468 5.55981 16.5775 4.91081L12.2721 2.2998L7.25287 7.10864L3.98535 10.2388L8.51789 12.9893C9.24375 13.4336 10.0775 13.6707 10.9286 13.6746C11.9686 13.6746 12.9653 13.3073 13.7007 12.6024C14.5003 11.8361 14.7658 10.8444 14.2725 10.0201C14.1921 9.88647 14.0969 9.76228 13.9887 9.64995C14.2529 9.70883 14.5226 9.73892 14.7933 9.73968H14.8004C15.243 9.74045 15.6818 9.65849 16.0942 9.49803C16.2814 9.42424 16.4616 9.33387 16.6326 9.228ZM12.4344 11.7238C11.6281 12.4963 10.3309 12.6103 9.27498 11.9701L6.13935 10.0669L8.95403 7.36865L12.1435 9.30479C13.2929 10.003 13.2295 10.9642 12.4344 11.7255V11.7238ZM12.8075 8.29269L9.85887 6.5043L12.5467 3.92751L15.4419 5.68502C16.5245 6.34153 16.6652 7.23134 15.8822 7.9805C15.4761 8.36466 14.9544 8.60374 14.3983 8.66051C13.8421 8.71728 13.2829 8.58854 12.8075 8.29436V8.29269ZM14.0538 16.2225C13.237 17.0051 12.1268 17.4362 10.9286 17.4362C9.98405 17.4324 9.05865 17.1698 8.25287 16.6771L3.98535 14.0907V15.1203L8.51789 17.8711C9.24375 18.3155 10.0775 18.5525 10.9286 18.5564C11.9686 18.5564 12.9653 18.1887 13.7007 17.4842C14.2382 16.9692 14.5354 16.3519 14.522 15.7526V15.6779C14.3843 15.8755 14.2275 16.059 14.0538 16.2259V16.2225ZM14.0538 14.5948C13.237 15.3778 12.1268 15.8089 10.9286 15.8089C9.98405 15.8051 9.05865 15.5426 8.25287 15.0498L3.98535 12.4634V13.4934L8.51789 16.2442C9.24378 16.6885 10.0775 16.9254 10.9286 16.9291C11.9686 16.9291 12.9653 16.5619 13.7007 15.8574C14.2382 15.3419 14.5354 14.7251 14.522 14.1253V14.0506C14.3845 14.2484 14.2277 14.4319 14.0538 14.5986V14.5948ZM14.0538 12.9671C13.237 13.7501 12.1268 14.1812 10.9286 14.1812C9.98405 14.1774 9.05865 13.9148 8.25287 13.4221L3.98535 10.8365V11.8666L8.51789 14.6174C9.24378 15.0616 10.0775 15.2985 10.9286 15.3023C11.9686 15.3023 12.9653 14.935 13.7007 14.2301C14.2382 13.715 14.5354 13.0982 14.522 12.4984V12.4225C14.3845 12.6206 14.2277 12.8046 14.0538 12.9717V12.9671ZM17.5467 14.0414C16.8655 14.6903 15.9741 15.0732 15.0346 15.1207V16.2397C15.8423 16.1947 16.6076 15.8638 17.1936 15.306C17.7779 14.7476 18.0763 14.1328 18.07 13.5264V13.4346C17.9167 13.6556 17.7414 13.8605 17.5467 14.046V14.0414ZM14.0538 17.8482C13.237 18.6307 12.1268 19.0623 10.9286 19.0623C9.98399 19.0585 9.05853 18.7958 8.25287 18.3027L3.98535 15.7175V16.7472L8.51789 19.498C9.24375 19.9424 10.0775 20.1794 10.9286 20.1833C11.9686 20.1833 12.9653 19.8156 13.7007 19.1111C14.2382 18.5961 14.5354 17.9788 14.522 17.3795V17.3048C14.3844 17.5024 14.2276 17.686 14.0538 17.8528V17.8482ZM17.6326 9.07482C17.6043 9.10362 17.5763 9.13242 17.5467 9.16038C17.2689 9.42025 16.9567 9.6406 16.6189 9.81522C16.2736 9.98941 15.9046 10.1119 15.5237 10.1787C15.3286 10.2149 15.1311 10.2368 14.9327 10.2443C14.9536 10.3115 14.9703 10.3799 14.9849 10.4488C15.0197 10.6134 15.0355 10.7814 15.0321 10.9496V11.3565H15.0341C15.3973 11.3348 15.7549 11.2569 16.0942 11.1257C16.5035 10.9657 16.8775 10.7272 17.1952 10.4237C17.229 10.3916 17.2583 10.3586 17.29 10.3261C17.4098 10.204 17.5203 10.0732 17.6205 9.93459C17.7227 9.7937 17.8107 9.64298 17.883 9.48467C17.9831 9.26836 18.0441 9.03608 18.0634 8.79853C18.0671 8.7472 18.0717 8.69544 18.0713 8.64411V8.56064C18.0412 8.60237 18.0095 8.64661 17.977 8.6896C17.8706 8.82671 17.7556 8.95691 17.6326 9.07941V9.07482ZM17.6326 12.3269C17.6043 12.3561 17.5784 12.3857 17.5492 12.4145C16.8681 13.0635 15.9766 13.4463 15.0371 13.4934V14.612C15.8447 14.5669 16.61 14.2359 17.1961 13.6783C17.4831 13.4122 17.7166 13.0936 17.8839 12.7397C17.9839 12.5233 18.0449 12.2911 18.0642 12.0535C18.0679 12.0018 18.0725 11.95 18.0721 11.8987V11.8069C18.0412 11.8519 18.0108 11.897 17.9774 11.9413C17.8705 12.0787 17.7548 12.2091 17.631 12.3315L17.6326 12.3269ZM17.6326 10.6992C17.6043 10.7284 17.5784 10.758 17.5492 10.7868C17.4106 10.918 17.2624 11.0387 17.1059 11.1479C16.9514 11.2569 16.7892 11.3545 16.6205 11.44C16.1278 11.6897 15.5886 11.8344 15.0371 11.8649H15.035V12.978C15.8427 12.933 16.608 12.602 17.194 12.0443C17.2278 12.0122 17.257 11.9792 17.2887 11.9467C17.4085 11.8246 17.519 11.6938 17.6193 11.5552C17.7214 11.4144 17.8093 11.2638 17.8818 11.1057C17.9818 10.8892 18.0429 10.6568 18.0621 10.4191C18.0659 10.3678 18.0704 10.3161 18.07 10.2647V10.1729C18.0391 10.218 18.0087 10.2631 17.9753 10.3073C17.8691 10.447 17.7541 10.5797 17.631 10.7046L17.6326 10.6992Z" fill="#7DF3E1"/>
</g>
</g>
<defs>
<clipPath id="clip0_5687_21245">
<rect x="0.123291" y="0.25293" width="22" height="22" rx="4" fill="white"/>
</clipPath>
</defs>
</svg>
