<svg width="20" height="21" viewBox="0 0 20 21" fill="none" xmlns="http://www.w3.org/2000/svg">
<path d="M15.8333 9.26061H6.52498L10.5916 5.19394C10.9166 4.86894 10.9166 4.33561 10.5916 4.01061C10.5146 3.93336 10.423 3.87207 10.3222 3.83025C10.2214 3.78843 10.1133 3.76691 10.0041 3.76691C9.895 3.76691 9.78694 3.78843 9.68612 3.83025C9.58531 3.87207 9.49374 3.93336 9.41665 4.01061L3.92498 9.50228C3.84772 9.57937 3.78644 9.67095 3.74462 9.77176C3.7028 9.87257 3.68127 9.98064 3.68127 10.0898C3.68127 10.1989 3.7028 10.307 3.74462 10.4078C3.78644 10.5086 3.84772 10.6002 3.92498 10.6773L9.41665 16.1689C9.4938 16.2461 9.58539 16.3073 9.68619 16.349C9.787 16.3908 9.89504 16.4123 10.0041 16.4123C10.1133 16.4123 10.2213 16.3908 10.3221 16.349C10.4229 16.3073 10.5145 16.2461 10.5916 16.1689C10.6688 16.0918 10.73 16.0002 10.7718 15.8994C10.8135 15.7986 10.835 15.6906 10.835 15.5814C10.835 15.4723 10.8135 15.3643 10.7718 15.2635C10.73 15.1627 10.6688 15.0711 10.5916 14.9939L6.52498 10.9273H15.8333C16.2916 10.9273 16.6666 10.5523 16.6666 10.0939C16.6666 9.63561 16.2916 9.26061 15.8333 9.26061Z" fill="#2463EB"/>
</svg>
