<svg width="41" height="40" viewBox="0 0 41 40" fill="none" xmlns="http://www.w3.org/2000/svg">
<path d="M20.5672 14.4231C28.7807 14.4231 35.439 12.4256 35.439 9.96156C35.439 7.49751 28.7807 5.5 20.5672 5.5C12.3537 5.5 5.69531 7.49751 5.69531 9.96156C5.69531 12.4256 12.3537 14.4231 20.5672 14.4231Z" stroke="#2D7E5D" stroke-width="2" stroke-linecap="round" stroke-linejoin="round"/>
<path d="M10.7294 13.3077C7.64353 14.1257 5.69531 15.3214 5.69531 16.6539C5.69531 19.1182 12.3534 21.1155 20.5672 21.1155C28.7809 21.1155 35.439 19.1182 35.439 16.6539C35.439 15.3214 33.4916 14.1257 30.4049 13.3077C27.783 14.0015 24.3387 14.4231 20.5672 14.4231C16.7957 14.4231 13.3521 14.0015 10.7294 13.3077Z" stroke="#2D7E5D" stroke-width="2" stroke-linecap="round" stroke-linejoin="round"/>
<path d="M10.7294 20.0001C7.64353 20.818 5.69531 22.0137 5.69531 23.3462C5.69531 25.8105 12.3534 27.8078 20.5672 27.8078C28.7809 27.8078 35.439 25.8105 35.439 23.3462C35.439 22.0137 33.4916 20.818 30.4049 20.0001C27.783 20.6938 24.3387 21.1155 20.5672 21.1155C16.7957 21.1155 13.3521 20.6938 10.7294 20.0001Z" stroke="#2D7E5D" stroke-width="2" stroke-linecap="round" stroke-linejoin="round"/>
<path d="M10.7294 26.6924C7.64353 27.5103 5.69531 28.706 5.69531 30.0386C5.69531 32.5028 12.3534 34.5001 20.5672 34.5001C28.7809 34.5001 35.439 32.5028 35.439 30.0386C35.439 28.706 33.4916 27.5103 30.4049 26.6924C27.783 27.3869 24.3387 27.8078 20.5672 27.8078C16.7957 27.8078 13.3521 27.3869 10.7294 26.6924Z" stroke="#2D7E5D" stroke-width="2" stroke-linecap="round" stroke-linejoin="round"/>
</svg>
