<svg width="582" height="296" viewBox="0 0 582 296" fill="none" xmlns="http://www.w3.org/2000/svg"><rect width="582" height="296" rx="20" fill="#fff"/><g clip-path="url(#clip0_18_14)" fill="#2D7E5D"><path d="M126.677 173.242c-5.365.954-10.099 4.677-12.314 9.717-3.111 7.083-.954 15.387 5.231 20.083 5.136 3.876 12.543 4.391 18.155 1.26 3.952-2.214 6.816-5.918 8.037-10.366.63-2.234.63-6.262.019-8.4-1.737-6.032-5.898-10.27-11.778-11.95-1.547-.459-5.67-.65-7.35-.344z"/><path d="M98.0082 224.094l-.0002.001c-3.474 4.065-6.1497 7.232-7.9992 9.468-.925 1.118-1.6417 2.001-2.1478 2.646-.2531.323-.4517.584-.5964.784-.1501.207-.226.326-.2514.376-.3288.667-.5247 1.553-.5635 2.474-.0387.92.0812 1.838.3521 2.564.2246.596.6781 1.301 1.2267 1.932.5508.634 1.1604 1.15 1.6704 1.401h0l.0026.002.8018.401-.194.821H81.4842v3.142H178.36v-3.142h-8.825l-.194-.821.802-.401.002-.002c.51-.251 1.12-.767 1.671-1.401.548-.631 1.002-1.336 1.226-1.932.271-.726.391-1.644.353-2.564-.039-.921-.235-1.807-.564-2.474-.025-.05-.101-.169-.251-.376-.145-.2-.344-.461-.597-.784-.506-.645-1.222-1.528-2.147-2.646-1.85-2.236-4.526-5.403-8-9.468v-.001c-5.788-6.781-10.945-12.756-11.473-13.304-1.107-1.125-2.415-1.815-3.773-1.991l-.006-.001-.574-.082v8.554h1.345c1.276.01 2.248.143 2.999.524.777.394 1.265 1.024 1.635 1.898l.001.001c.16.381.23.935.27 2.117.041 1.205.05 3.131.05 6.317v7.367l.791.71c.592.531 1.257 1.395 1.589 2.079.235.48.388.849.475 1.291.086.432.104.914.104 1.611s-.018 1.18-.106 1.616c-.09.443-.248.817-.491 1.303-.31.66-.949 1.537-1.401 1.989h0l-.008.007-.028.027c-.349.332-.616.585-.995.714-.364.123-.81.123-1.479.123h-2.376l.625-.718.382-.439h0l.007-.008.007-.008c.204-.223.3-.328.381-.546.092-.246.166-.649.217-1.462.102-1.619.102-4.678.102-10.902v-1.601c.001-5.546.002-8.287-.129-9.726-.073-.793-.18-1.102-.287-1.259-.086-.126-.178-.18-.411-.317-.054-.031-.114-.066-.183-.107l-.001-.001c-.074-.044-.163-.097-.557-.142-.409-.048-1.102-.082-2.361-.106-2.513-.048-7.213-.053-16.255-.053-9.042 0-13.742.005-16.254.053-1.26.024-1.953.058-2.362.106-.393.045-.482.098-.557.142v.001c-.07.041-.13.076-.183.107-.234.137-.326.191-.412.317-.106.157-.214.466-.286 1.259-.132 1.439-.131 4.18-.13 9.726v1.601c0 6.224 0 9.283.102 10.904.051.815.126 1.22.218 1.469.082.223.18.332.383.559l.005.006.002.002.38.418.66.725H109.083c-.669 0-1.115 0-1.479-.123-.379-.129-.646-.382-.994-.714l-.029-.027v.001l-.008-.008c-.452-.452-1.091-1.33-1.401-1.989-.243-.486-.401-.86-.49-1.303-.089-.436-.107-.919-.107-1.616 0-.697.019-1.179.104-1.611.087-.442.24-.81.475-1.29.332-.684.997-1.549 1.589-2.08l.791-.71v-7.424c0-3.48.01-5.405.06-6.548.051-1.147.145-1.564.342-1.995.375-.821.872-1.412 1.645-1.778.749-.356 1.711-.479 2.969-.479h1.284v-4.339c0-1.853-.014-3.036-.049-3.751-.011-.222-.024-.392-.038-.518-.206.034-.472.08-.73.132-1.241.248-2.52.963-3.535 1.996-.53.55-5.686 6.524-11.4738 13.304z" stroke="#2D7E5D" stroke-width=".867546"/><path d="M127.956 211.175l-1.852 1.871.573.553c.553.535.572.592.572 2.425v1.871h5.346v-1.871c0-1.833.019-1.89.573-2.425l.572-.553-1.852-1.871c-1.03-1.031-1.909-1.871-1.966-1.871-.057 0-.935.84-1.966 1.871z"/></g><path d="M286.302 40.6074c-.332-.0008-.661.0641-.968.1908-.307.1267-.585.3127-.82.5475s-.421.5137-.548.8206c-.127.3069-.191.6358-.191.9678v3.3218l-1.833-.6105h-17.808v13.0938l17.808.0001 1.833-.6109v3.3218c-.001.332.064.661.191.9679.126.3069.312.5858.547.8206.235.2348.514.4209.821.5476.307.1267.635.1915.968.1908l8.04-.0001c.332.0008.661-.064.968-.1907.307-.1267.586-.3128.821-.5476.235-.2348.421-.5136.547-.8205.127-.3069.192-.6359.191-.9679l.001-3.3213 1.832.6105h17.808V45.8452h-17.808l-1.833.6108.001-3.3218c0-.332-.064-.6609-.191-.9678-.127-.3068-.313-.5857-.548-.8204-.235-.2348-.514-.4208-.82-.5475-.307-.1267-.636-.1915-.968-.1907l-8.041-.0004zm-19.549 7.8567l15.712-.0002.001 7.8563-15.713.0002v-7.8563zm31.426-.0001h15.713v7.8563l-15.713.0002V48.464zm-5.108 20.3686c-.361.3662-.792.6573-1.266.8565-.475.1992-.984.3025-1.499.304-.514.0016-1.024-.0988-1.5-.2951-.476-.1964-.908-.485-1.272-.8491l-1.842 1.861c2.548 2.5256 6.7 2.5129 9.234-.0272l-1.855-1.8501zm-9.241 3.7193l-1.842 1.8606c4.617 4.5754 12.091 4.5778 16.663-.0061l-1.854-1.8482c-3.57 3.5783-9.347 3.581-12.967-.0063zm-3.7 3.7092l-1.843 1.8611c6.677 6.6155 17.462 6.6185 24.07-.0063l-1.853-1.8491c-5.605 5.6182-14.694 5.622-20.374-.0057zM166.944 204.245c-.347.339-.353.894-.015 1.241.339.347.894.353 1.241.015l-1.226-1.256zM287.796 87.4667l-9.815 2.505 7.077 7.248 2.738-9.753zM170.049 203.666c.346-.338.353-.894.014-1.24-.338-.347-.894-.354-1.24-.015l1.226 1.255zm2.531-4.924c-.346.338-.353.894-.015 1.241.339.346.894.353 1.241.014l-1.226-1.255zm4.984-2.414c.346-.338.353-.894.014-1.24-.338-.347-.894-.354-1.24-.015l1.226 1.255zm2.531-4.924c-.346.339-.353.894-.015 1.241.339.346.894.353 1.241.014l-1.226-1.255zm4.983-2.414c.347-.338.354-.893.015-1.24-.338-.347-.894-.353-1.24-.015l1.225 1.255zm2.532-4.924c-.347.339-.353.894-.015 1.241.339.346.894.353 1.241.015l-1.226-1.256zm4.983-2.413c.347-.339.354-.894.015-1.241-.338-.347-.894-.353-1.24-.015l1.225 1.256zm2.532-4.925c-.347.339-.353.894-.015 1.241.339.347.894.353 1.241.015l-1.226-1.256zm4.983-2.413c.347-.339.354-.894.015-1.241-.338-.347-.894-.353-1.24-.015l1.225 1.256zm2.532-4.925c-.347.339-.353.894-.015 1.241.339.347.894.353 1.241.015l-1.226-1.256zm4.983-2.413c.347-.339.354-.894.015-1.241-.338-.346-.894-.353-1.24-.015l1.225 1.256zm2.532-4.925c-.347.339-.353.894-.015 1.241.339.347.894.353 1.241.015l-1.226-1.256zm4.983-2.413c.347-.339.354-.894.015-1.241-.338-.346-.894-.353-1.24-.014l1.225 1.255zm2.532-4.924c-.347.338-.353.893-.015 1.24.339.347.894.353 1.241.015l-1.226-1.255zm4.983-2.414c.347-.339.354-.894.015-1.241-.338-.346-.894-.353-1.24-.014l1.225 1.255zm2.532-4.924c-.347.338-.353.894-.015 1.24.339.347.894.354 1.241.015l-1.226-1.255zm4.983-2.414c.347-.338.354-.894.015-1.241-.338-.346-.894-.353-1.241-.014l1.226 1.255zm2.532-4.924c-.347.338-.353.894-.015 1.24.339.347.894.354 1.241.015l-1.226-1.255zm4.983-2.414c.347-.338.354-.894.015-1.24-.338-.347-.894-.354-1.241-.015l1.226 1.255zm2.532-4.924c-.347.338-.353.894-.015 1.24.339.347.894.354 1.241.015l-1.226-1.255zm4.983-2.414c.347-.338.354-.894.015-1.24-.338-.347-.894-.354-1.241-.015l1.226 1.255zm2.532-4.924c-.347.338-.353.894-.015 1.241.339.346.894.353 1.241.014l-1.226-1.255zm4.983-2.414c.347-.338.353-.894.015-1.24-.339-.347-.894-.353-1.241-.015l1.226 1.255zm2.532-4.924c-.347.339-.353.894-.015 1.241.339.346.894.353 1.241.014l-1.226-1.255zm4.983-2.414c.347-.338.353-.893.015-1.24-.339-.347-.894-.353-1.241-.015l1.226 1.255zm2.532-4.924c-.347.339-.353.894-.015 1.241.339.346.894.353 1.241.015l-1.226-1.256zm4.983-2.413c.347-.339.353-.894.015-1.241-.339-.347-.894-.353-1.241-.015l1.226 1.256zm2.532-4.925c-.347.339-.353.894-.015 1.241.338.347.894.353 1.241.015l-1.226-1.256zm4.983-2.413c.347-.339.353-.894.015-1.2409-.339-.3466-.894-.3533-1.241-.0148l1.226 1.2557zm2.532-4.9246c-.347.3385-.354.8939-.015 1.2406.338.3466.894.3533 1.241.0148l-1.226-1.2554zm4.983-2.4136c.347-.3385.353-.8939.015-1.2406-.339-.3466-.894-.3532-1.241-.0148l1.226 1.2554zm2.532-4.9243c-.347.3385-.354.8939-.015 1.2406.338.3467.894.3533 1.241.0148l-1.226-1.2554zM168.17 205.501l1.879-1.835-1.226-1.255-1.879 1.834 1.226 1.256zm5.636-5.504l3.758-3.669-1.226-1.255-3.758 3.669 1.226 1.255zm7.515-7.338l3.757-3.669-1.225-1.255-3.758 3.669 1.226 1.255zm7.515-7.337l3.757-3.669-1.225-1.256-3.758 3.669 1.226 1.256zm7.515-7.338l3.757-3.669-1.225-1.256-3.758 3.669 1.226 1.256zm7.515-7.338l3.757-3.669-1.225-1.256-3.758 3.669 1.226 1.256zm7.515-7.338l3.757-3.669-1.225-1.255-3.758 3.668 1.226 1.256zm7.515-7.338l3.757-3.669-1.225-1.255-3.758 3.669 1.226 1.255zm7.515-7.338l3.757-3.669-1.226-1.255-3.757 3.669 1.226 1.255zm7.515-7.338l3.757-3.669-1.226-1.255-3.757 3.669 1.226 1.255zm7.515-7.338l3.757-3.669-1.226-1.255-3.757 3.669 1.226 1.255zm7.515-7.338l3.757-3.669-1.226-1.255-3.757 3.669 1.226 1.255zm7.515-7.338l3.757-3.669-1.226-1.255-3.757 3.669 1.226 1.255zm7.515-7.337l3.757-3.669-1.226-1.256-3.757 3.669 1.226 1.256zm7.515-7.338l3.757-3.669-1.226-1.2557-3.757 3.6687 1.226 1.256zm7.515-7.3382l3.757-3.669-1.226-1.2554-3.757 3.669 1.226 1.2554zM411.445 235.733c0-1.938-1.572-3.509-3.51-3.509-1.938 0-3.509 1.571-3.509 3.509s1.571 3.509 3.509 3.509 3.51-1.571 3.51-3.509zm-219.142 0c0-1.938-1.571-3.509-3.509-3.509s-3.509 1.571-3.509 3.509 1.571 3.509 3.509 3.509 3.509-1.571 3.509-3.509zm215.632-.658H188.794v1.316h219.141v-1.316zM293.01 87.4667l2.716 9.7592 7.094-7.232-9.81-2.5272zM412.095 205.499c.346.34.901.334 1.241-.012.339-.346.333-.901-.012-1.24l-1.229 1.252zM294.266 89.9275c.346.3393.901.3339 1.24-.012.34-.3459.334-.9013-.011-1.2406l-1.229 1.2526zm4.969 2.4163c-.346-.3392-.901-.3339-1.241.012-.339.3459-.333.9014.012 1.2407l1.229-1.2527zm2.512 4.9216c.346.3393.901.3339 1.241-.012.339-.3459.334-.9013-.012-1.2406l-1.229 1.2526zm4.969 2.4163c-.346-.3392-.901-.3339-1.24.012-.34.3463-.334.9013.012 1.2403l1.228-1.2523zm2.512 4.9213c.346.34.902.334 1.241-.012.339-.346.334-.901-.012-1.24l-1.229 1.252zm4.97 2.417c-.346-.34-.902-.334-1.241.012-.339.346-.334.901.012 1.24l1.229-1.252zm2.512 4.921c.345.339.901.334 1.24-.012.339-.346.334-.901-.012-1.24l-1.228 1.252zm4.969 2.417c-.346-.34-.902-.334-1.241.012-.339.345-.334.901.012 1.24l1.229-1.252zm2.512 4.921c.346.339.901.334 1.24-.012.34-.346.334-.901-.012-1.241l-1.228 1.253zm4.969 2.416c-.346-.339-.901-.333-1.241.012-.339.346-.334.902.012 1.241l1.229-1.253zm2.512 4.922c.346.339.901.334 1.241-.012.339-.346.333-.901-.012-1.241l-1.229 1.253zm4.969 2.416c-.346-.339-.901-.334-1.24.012-.34.346-.334.902.012 1.241l1.228-1.253zm2.512 4.922c.346.339.901.334 1.241-.012.339-.346.334-.901-.012-1.241l-1.229 1.253zm4.969 2.416c-.346-.339-.901-.334-1.24.012-.34.346-.334.902.012 1.241l1.228-1.253zm2.512 4.922c.346.339.902.334 1.241-.012.339-.346.334-.902-.012-1.241l-1.229 1.253zm4.97 2.416c-.346-.339-.902-.334-1.241.012-.339.346-.334.901.012 1.241l1.229-1.253zm2.512 4.922c.345.339.901.334 1.24-.012.339-.346.334-.902-.012-1.241l-1.228 1.253zm4.969 2.416c-.346-.339-.902-.334-1.241.012-.339.346-.334.901.012 1.241l1.229-1.253zm2.512 4.922c.346.339.901.334 1.24-.012.34-.346.334-.902-.012-1.241l-1.228 1.253zm4.969 2.416c-.346-.339-.901-.334-1.241.012-.339.346-.334.901.012 1.241l1.229-1.253zm2.512 4.922c.346.339.901.333 1.241-.012.339-.346.334-.902-.012-1.241l-1.229 1.253zm4.969 2.416c-.346-.339-.901-.334-1.24.012-.34.346-.334.901.012 1.24l1.228-1.252zm2.512 4.921c.346.34.902.334 1.241-.012.339-.345.334-.901-.012-1.24l-1.229 1.252zm4.969 2.417c-.345-.34-.901-.334-1.24.012-.339.346-.334.901.012 1.24l1.228-1.252zm2.512 4.921c.346.34.902.334 1.241-.012.339-.346.334-.901-.012-1.24l-1.229 1.252zm4.97 2.417c-.346-.34-.902-.334-1.241.012-.339.346-.334.901.012 1.24l1.229-1.252zm2.512 4.921c.346.339.901.334 1.24-.012.34-.346.334-.901-.012-1.24l-1.228 1.252zm4.969 2.417c-.346-.34-.901-.334-1.241.012-.339.345-.334.901.012 1.24l1.229-1.252zm2.512 4.921c.346.339.901.334 1.24-.012.34-.346.334-.901-.012-1.241l-1.228 1.253zm4.969 2.416c-.346-.339-.901-.333-1.241.012-.339.346-.333.902.012 1.241l1.229-1.253zm2.512 4.922c.346.339.901.334 1.241-.012.339-.346.334-.901-.012-1.241l-1.229 1.253zm4.969 2.416c-.346-.339-.901-.334-1.24.012-.34.346-.334.902.012 1.241l1.228-1.253zM298.006 93.5965l3.741 3.6689 1.229-1.2526-3.741-3.669-1.229 1.2527zm7.482 7.3375l3.74 3.669 1.229-1.252-3.741-3.6693-1.228 1.2523zm7.481 7.338l3.741 3.669 1.228-1.252-3.74-3.669-1.229 1.252zm7.481 7.338l3.741 3.669 1.228-1.253-3.74-3.668-1.229 1.252zm7.481 7.338l3.741 3.669 1.229-1.253-3.741-3.669-1.229 1.253zm7.482 7.338l3.74 3.669 1.229-1.253-3.741-3.669-1.228 1.253zm7.481 7.338l3.74 3.669 1.229-1.253-3.741-3.669-1.228 1.253zm7.481 7.338l3.741 3.669 1.228-1.253-3.74-3.669-1.229 1.253zm7.481 7.338l3.741 3.669 1.228-1.253-3.74-3.669-1.229 1.253zm7.481 7.338l3.741 3.669 1.229-1.253-3.741-3.669-1.229 1.253zm7.482 7.337l3.74 3.669 1.229-1.252-3.741-3.669-1.228 1.252zm7.481 7.338l3.74 3.669 1.229-1.252-3.741-3.669-1.228 1.252zm7.481 7.338l3.741 3.669 1.228-1.252-3.74-3.669-1.229 1.252zm7.481 7.338l3.741 3.669 1.228-1.253-3.74-3.668-1.229 1.252zm7.481 7.338l3.741 3.669 1.229-1.253-3.741-3.669-1.229 1.253zm7.482 7.338l1.87 1.834 1.229-1.252-1.871-1.835-1.228 1.253z" fill="#2D7E5D"/><rect x="271.955" y="217.895" width="36.7732" height="35.6766" rx="17.8383" fill="#fff"/><path d="M294.399 224.913c2.87 0 5.622 1.14 7.651 3.169s3.169 4.781 3.169 7.651-1.14 5.622-3.169 7.651-4.781 3.169-7.651 3.169-5.622-1.14-7.651-3.169-3.169-4.781-3.169-7.651 1.14-5.622 3.169-7.651 4.781-3.169 7.651-3.169zm0 2.705c-2.152 0-4.216.855-5.738 2.377-1.522 1.522-2.377 3.586-2.377 5.738 0 2.152.855 4.216 2.377 5.738 1.522 1.522 3.586 2.377 5.738 2.377 2.152 0 4.216-.855 5.738-2.377 1.522-1.522 2.377-3.586 2.377-5.738 0-2.152-.855-4.216-2.377-5.738-1.522-1.522-3.586-2.377-5.738-2.377zm-1.353 2.705h2.029v5.112l3.151 3.152-1.433 1.433-3.747-3.746v-5.951zm-16.229 13.525c-.359 0-.703-.143-.957-.396-.253-.254-.396-.598-.396-.957 0-.358.143-.702.396-.956.254-.254.598-.396.957-.396h5.18c.419.96.96 1.866 1.582 2.705h-6.762zm1.352-6.763c-.359 0-.703-.142-.956-.396-.254-.253-.396-.597-.396-.956s.142-.703.396-.956c.253-.254.597-.397.956-.397h2.773l-.068 1.353.068 1.352h-2.773zm1.352-6.762c-.358 0-.702-.142-.956-.396s-.396-.598-.396-.956c0-.359.142-.703.396-.957.254-.253.598-.396.956-.396h4.058c-.622.839-1.163 1.745-1.582 2.705h-2.476z" fill="#2D7E5D"/><g clip-path="url(#clip1_18_14)"><path d="M467.817 215.614c-1.992-4.046-5.077-7.453-8.906-9.836-3.829-2.382-8.248-3.644-12.758-3.644-13.345 0-24.166 10.865-24.166 24.263m2.696 10.784c1.992 4.046 5.077 7.453 8.906 9.835 3.829 2.383 8.248 3.645 12.758 3.644 13.345 0 24.166-10.864 24.166-24.263m-36.924 10.784h-11.602v16.175m48.526-53.918v16.176h-11.602" stroke="#2D7E5D" stroke-width="3.09328"/><g clip-path="url(#clip2_18_14)"><path d="M447.688 215.179c-.375-1.497-2.499-1.497-2.875 0l-.11.441c-.064.256-.195.491-.381.679-.185.189-.417.324-.673.392-.255.069-.524.067-.778-.003-.255-.071-.486-.208-.67-.399l-.316-.325c-1.072-1.109-2.912-.046-2.488 1.436l.123.438c.073.254.076.523.01.778-.066.256-.199.489-.386.676-.187.186-.42.32-.675.386-.256.067-.524.063-.778-.009l-.438-.125c-1.481-.424-2.546 1.416-1.436 2.488l.325.317c.19.183.328.414.398.669.071.255.072.524.004.779-.068.255-.204.487-.392.673-.188.185-.423.317-.679.381l-.442.109c-1.496.375-1.496 2.499 0 2.876l.442.109c.256.064.491.196.679.381.188.185.324.418.392.673.068.255.067.524-.004.779-.07.255-.208.486-.398.669l-.325.316c-1.11 1.073-.047 2.913 1.436 2.489l.438-.124c.254-.072.523-.076.778-.01.256.067.489.2.676.387.187.187.32.42.387.676.066.255.062.524-.01.778l-.125.437c-.424 1.481 1.416 2.545 2.488 1.436l.316-.326c.184-.19.415-.327.67-.398.254-.071.523-.072.778-.004.256.069.488.204.673.393.186.188.317.423.381.679l.11.441c.375 1.496 2.499 1.496 2.875 0l.11-.441c.064-.256.195-.491.381-.679.185-.189.417-.324.673-.393.255-.068.524-.067.779.004.254.071.485.208.669.398l.316.326c1.072 1.109 2.912.046 2.488-1.436l-.123-.438c-.073-.254-.076-.523-.01-.779s.2-.489.386-.676c.187-.187.421-.32.676-.386.256-.066.525-.063.779.01l.436.125c1.481.424 2.546-1.416 1.437-2.489l-.326-.316c-.19-.183-.328-.414-.398-.669-.071-.255-.072-.524-.004-.779.068-.255.204-.488.392-.673.189-.185.423-.317.68-.381l.441-.109c1.496-.375 1.496-2.499 0-2.876l-.441-.109c-.257-.064-.491-.196-.68-.381-.188-.186-.324-.418-.392-.673-.068-.255-.067-.524.004-.779.07-.255.208-.486.398-.669l.326-.317c1.109-1.072.046-2.912-1.437-2.488l-.438.124c-.253.072-.522.076-.778.009-.255-.066-.488-.199-.675-.386-.187-.186-.32-.419-.387-.675-.066-.255-.063-.524.009-.778l.125-.438c.424-1.481-1.416-2.545-2.488-1.436l-.316.325c-.184.191-.415.328-.669.399-.255.07-.524.072-.779.003-.256-.068-.488-.203-.673-.392-.186-.188-.317-.423-.381-.679l-.11-.441zm-1.437 18.927c-1.022.015-2.036-.174-2.984-.555-.948-.381-1.811-.946-2.538-1.664-.728-.717-1.306-1.572-1.7-2.514-.394-.943-.597-1.954-.597-2.976 0-1.021.203-2.033.597-2.975.394-.943.972-1.798 1.7-2.515.727-.717 1.59-1.283 2.538-1.664.948-.381 1.962-.569 2.984-.555 2.044 0 4.005.812 5.451 2.258 1.446 1.446 2.258 3.407 2.258 5.452s-.812 4.006-2.258 5.452c-1.446 1.445-3.407 2.258-5.451 2.258v-.002z" fill="#2D7E5D"/><g clip-path="url(#clip3_18_14)"><path d="M446.7 221.848l.991.202-1.891 8.897-.991-.202 1.891-8.897zm3.387 4.55l-1.815-1.815v-1.431l3.245 3.246-3.245 3.24v-1.431l1.815-1.809zm-9.104 0l3.245-3.246v1.431l-1.815 1.815 1.815 1.809v1.431l-3.245-3.24z" fill="#2D7E5D"/></g></g></g><defs><clipPath id="clip0_18_14"><path fill="#fff" transform="translate(81.0504 162.914)" d="M0 0h97.7435v97.7435H0z"/></clipPath><clipPath id="clip1_18_14"><path fill="#fff" transform="translate(420 200.147)" d="M0 0h52.5v52.5H0z"/></clipPath><clipPath id="clip2_18_14"><path fill="#fff" transform="translate(433.909 214.057)" d="M0 0h24.6813v24.6813H0z"/></clipPath><clipPath id="clip3_18_14"><path fill="#fff" transform="translate(440.184 220.332)" d="M0 0h12.1315v12.1315H0z"/></clipPath></defs></svg>