<svg width="46" height="45" viewBox="0 0 46 45" fill="none" xmlns="http://www.w3.org/2000/svg">
<g id="wi:time-8">
<path id="Vector" d="M27.7414 20.2143H36.8843C37.4903 20.2137 38.0714 19.9727 38.4999 19.5441C38.9284 19.1156 39.1694 18.5346 39.17 17.9286V8.78571C39.1694 8.17969 38.9284 7.59866 38.4999 7.17014C38.0714 6.74162 37.4903 6.50061 36.8843 6.5H27.7414C27.1354 6.50061 26.5544 6.74162 26.1259 7.17014C25.6973 7.59866 25.4563 8.17969 25.4557 8.78571H15.17C14.564 8.78632 13.983 9.02733 13.5544 9.45585C13.1259 9.88438 12.8849 10.4654 12.8843 11.0714V15.6429H9.45573C8.8497 15.6435 8.26868 15.8845 7.84015 16.313C7.41163 16.7415 7.17062 17.3225 7.17001 17.9286V27.0714C7.17062 27.6775 7.41163 28.2585 7.84015 28.687C8.26868 29.1155 8.8497 29.3565 9.45573 29.3571H11.7414V33.9286C11.742 34.5346 11.9831 35.1156 12.4116 35.5441C12.8401 35.9727 13.4211 36.2137 14.0272 36.2143H25.4557C25.4563 36.8203 25.6973 37.4013 26.1259 37.8299C26.5544 38.2584 27.1354 38.4994 27.7414 38.5H36.8843C37.4903 38.4994 38.0714 38.2584 38.4999 37.8299C38.9284 37.4013 39.1694 36.8203 39.17 36.2143V27.0714C39.1694 26.4654 38.9284 25.8844 38.4999 25.4559C38.0714 25.0273 37.4903 24.7863 36.8843 24.7857H27.7414C27.1354 24.7863 26.5544 25.0273 26.1259 25.4559C25.6973 25.8844 25.4563 26.4654 25.4557 27.0714V33.9286H14.0272V29.3571H18.5986C19.2046 29.3565 19.7856 29.1155 20.2142 28.687C20.6427 28.2585 20.8837 27.6775 20.8843 27.0714V17.9286C20.8837 17.3225 20.6427 16.7415 20.2142 16.313C19.7856 15.8845 19.2046 15.6435 18.5986 15.6429H15.17V11.0714H25.4557V17.9286C25.4563 18.5346 25.6973 19.1156 26.1259 19.5441C26.5544 19.9727 27.1354 20.2137 27.7414 20.2143ZM27.7414 36.2143V31.6429H36.8843V36.2143H27.7414ZM36.8843 27.0714V29.3571H27.7414V27.0714H36.8843ZM9.45573 27.0714V22.5H18.5986V27.0714H9.45573ZM18.5986 20.2143H9.45573V17.9286H18.5986V20.2143ZM27.7414 17.9286V13.3571H36.8843V17.9286H27.7414ZM36.8843 8.78571V11.0714H27.7414V8.78571H36.8843Z" fill="#2D7E5D"/>
</g>
</svg>
