<svg width="26" height="26" viewBox="0 0 26 26" fill="none" xmlns="http://www.w3.org/2000/svg">
  <circle cx="13.2238" cy="12.7516" r="12.3697" fill="#81FEFC" stroke="white" stroke-width="0.738094"/>
  <circle cx="13.2237" cy="12.7512" r="11.1028" fill="#34F8BB"/>
  <circle cx="13.224" cy="12.7522" r="10.0452" fill="#D7FEF9"/>
  <circle cx="13.2239" cy="12.7518" r="8.69416" fill="white"/>

  <g>
    <path d="M9.16397 11.0715V12.7514C9.16397 12.9345 9.33963 13.2681 10.0268 13.6069C10.6719 13.9243 11.6093 14.1568 12.6987 14.2136C12.7713 14.2174 12.8424 14.2354 12.9081 14.2667C12.9737 14.298 13.0325 14.3419 13.0812 14.3959C13.1298 14.4499 13.1674 14.5129 13.1917 14.5815C13.216 14.65 13.2265 14.7226 13.2227 14.7952C13.219 14.8678 13.2009 14.939 13.1696 15.0046C13.1384 15.0702 13.0945 15.129 13.0405 15.1777C12.9865 15.2264 12.9234 15.2639 12.8549 15.2882C12.7864 15.3125 12.7137 15.323 12.6411 15.3193C11.4439 15.2565 10.3516 15.0004 9.53818 14.5996C9.40994 14.5373 9.28503 14.4683 9.16397 14.393V16.0729C9.16397 16.171 9.20677 16.3076 9.37211 16.4795C9.53966 16.6545 9.80832 16.836 10.1847 17.0014C10.9339 17.3313 12.0078 17.549 13.2235 17.549C13.5232 17.549 13.8154 17.5358 14.0966 17.5107C14.1711 17.5001 14.2469 17.5048 14.3195 17.5244C14.3921 17.5441 14.4599 17.5783 14.5189 17.625C14.5778 17.6717 14.6266 17.7299 14.6624 17.7961C14.6981 17.8623 14.72 17.935 14.7267 18.0099C14.7334 18.0849 14.7248 18.1603 14.7014 18.2318C14.6781 18.3033 14.6404 18.3693 14.5907 18.4257C14.541 18.4822 14.4803 18.5279 14.4124 18.5602C14.3445 18.5924 14.2707 18.6105 14.1956 18.6134C13.8804 18.6414 13.5556 18.6562 13.2235 18.6562C11.8912 18.6562 10.6586 18.42 9.73894 18.0148C9.27911 17.8125 8.87316 17.5579 8.57349 17.2464C8.27235 16.9327 8.05682 16.5349 8.05682 16.0729V9.43001C8.05682 8.96796 8.27235 8.57013 8.57349 8.2557C8.87316 7.9457 9.27911 7.69032 9.73894 7.48808C10.6586 7.08287 11.8912 6.84668 13.2235 6.84668C14.5565 6.84668 15.7891 7.08287 16.708 7.48808C17.1679 7.69032 17.5738 7.94496 17.8735 8.25644C18.1746 8.57013 18.3901 8.96796 18.3901 9.43001C18.3901 9.89206 18.1746 10.2899 17.8735 10.6043C17.5738 10.9143 17.1679 11.1697 16.7088 11.3719C15.7884 11.7771 14.5557 12.0133 13.2235 12.0133C11.8912 12.0133 10.6586 11.7771 9.73894 11.3719C9.54036 11.2856 9.34821 11.1853 9.16397 11.0715ZM9.16397 9.43001C9.16397 9.52818 9.20677 9.66472 9.37211 9.8367C9.53966 10.0116 9.80832 10.1932 10.1847 10.3585C10.9339 10.6885 12.0078 10.9062 13.2235 10.9062C14.4384 10.9062 15.5123 10.6885 16.263 10.3585C16.6379 10.1932 16.9073 10.0109 17.0749 9.83596C17.2402 9.66472 17.283 9.52818 17.283 9.43001C17.283 9.33184 17.2402 9.1953 17.0749 9.02332C16.9073 8.84839 16.6386 8.66682 16.2622 8.50149C15.5131 8.17156 14.4391 7.95382 13.2235 7.95382C12.0086 7.95382 10.9347 8.17156 10.184 8.50149C9.80906 8.66682 9.53966 8.84913 9.37211 9.02406C9.20677 9.1953 9.16397 9.33184 9.16397 9.43001Z" fill="#2D7E5D"/>
    <path d="M18.0142 12.443C18.0275 12.3819 18.0197 12.3182 17.9921 12.2621C17.9646 12.206 17.9188 12.1609 17.8623 12.1341C17.8059 12.1073 17.742 12.1005 17.6811 12.1146C17.6203 12.1287 17.566 12.1631 17.5271 12.212L14.8515 15.6257C14.8195 15.6665 14.7997 15.7155 14.7943 15.7671C14.7888 15.8186 14.798 15.8707 14.8206 15.9173C14.8433 15.9639 14.8787 16.0032 14.9226 16.0308C14.9666 16.0583 15.0174 16.0729 15.0692 16.073H16.6391L16.1823 18.2297C16.1692 18.2913 16.1775 18.3555 16.2058 18.4117C16.2341 18.4679 16.2808 18.5128 16.3381 18.539C16.3953 18.5651 16.4598 18.5709 16.5209 18.5555C16.5819 18.5401 16.6359 18.5043 16.6738 18.454L18.9804 15.4094C19.0114 15.3683 19.0303 15.3194 19.0351 15.2682C19.0399 15.2169 19.0302 15.1654 19.0073 15.1193C18.9844 15.0732 18.9491 15.0345 18.9053 15.0073C18.8616 14.9802 18.8111 14.9658 18.7597 14.9658H17.4474L18.0149 12.443H18.0142Z" fill="#2D7E5D"/>
  </g>
</svg>
