<svg width="41" height="40" viewBox="0 0 41 40" fill="none" xmlns="http://www.w3.org/2000/svg">
<path d="M5.032 30.9717L19.8714 12.8356L34.7107 30.9717H5.032Z" stroke="#2D7E5D" stroke-width="1.77779"/>
<path d="M13.4551 21.0112L15.1107 22.5105L17.3579 21.0112L19.7231 22.5105L21.5561 21.0112L23.8031 22.5105L26.05 21.0112" stroke="#2D7E5D" stroke-width="1.77779" stroke-linecap="round"/>
<path d="M2.31445 23.8433L7.55716 17.2211L11.6451 22.3852" stroke="#2D7E5D" stroke-width="1.77779" stroke-linecap="round"/>
<path d="M38.2188 23.8433L32.976 17.2211L28.8881 22.3852" stroke="#2D7E5D" stroke-width="1.77779" stroke-linecap="round"/>
<path d="M19.8691 9.5741V5.58763C19.8691 5.41466 19.8691 5.32845 19.9259 5.28753C19.9826 5.2466 20.0645 5.27388 20.2282 5.32845L25.6404 7.13289C25.9612 7.23984 26.1217 7.29331 26.1217 7.39153C26.1217 7.48974 25.9612 7.54322 25.6404 7.65016L19.8691 9.5741ZM19.8691 9.5741V12.848" stroke="#2D7E5D" stroke-width="1.77779" stroke-linecap="round"/>
</svg>
