<svg width="64" height="65" viewBox="0 0 64 65" fill="none" xmlns="http://www.w3.org/2000/svg">
<g id="carbon:chat">
<g id="Group 5">
<path id="Vector" d="M34.4186 51.6834L34.6361 51.8084L34.7604 51.5905L39.6869 42.9474H46.6155C48.2323 42.9474 49.7829 42.3052 50.9261 41.1619C52.0694 40.0187 52.7117 38.4681 52.7117 36.8513V19.3128C52.7117 17.696 52.0694 16.1454 50.9261 15.0022C49.7829 13.8589 48.2323 13.2167 46.6155 13.2167H17.3847C15.7679 13.2167 14.2173 13.8589 13.0741 15.0022C11.9308 16.1454 11.2886 17.696 11.2886 19.3128V36.8513C11.2886 38.4681 11.9308 40.0187 13.0741 41.1619C14.2173 42.3052 15.7679 42.9474 17.3847 42.9474H30.5386H30.7886V42.6974V39.7744V39.5244H30.5386H17.3847C16.6758 39.5244 15.9959 39.2427 15.4946 38.7414C14.9933 38.2401 14.7117 37.5602 14.7117 36.8513V19.3128C14.7117 18.6039 14.9933 17.924 15.4946 17.4227C15.9959 16.9214 16.6758 16.6398 17.3847 16.6398H46.6155C47.3244 16.6398 48.0043 16.9214 48.5056 17.4227C49.0069 17.924 49.2886 18.6039 49.2886 19.3128V36.8513C49.2886 37.5602 49.0069 38.2401 48.5056 38.7414C48.0043 39.2427 47.3244 39.5244 46.6155 39.5244H37.8463H37.7012L37.6292 39.6503L31.7831 49.8811L31.6593 50.0976L31.8755 50.2219L34.4186 51.6834Z" fill="#2D7E5D" stroke="#2D7E5D" stroke-width="0.5"/>
<path id="Vector_2" d="M20.3079 22.2359H43.6925V25.159H20.3079V22.2359ZM20.3079 31.0051H34.9232V33.9282H20.3079V31.0051Z" fill="#2D7E5D"/>
</g>
</g>
</svg>
