<svg width="369" height="247" viewBox="0 0 369 247" fill="none" xmlns="http://www.w3.org/2000/svg">
<g clip-path="url(#clip0_5634_6116)">
<rect x="0.623047" y="0.919922" width="368" height="245.333" rx="24" fill="#E8F7FE"/>
<g filter="url(#filter0_d_5634_6116)">
<path d="M15.248 54.3475C15.248 43.7032 23.877 35.0742 34.5214 35.0742H132.694C143.339 35.0742 151.968 43.7032 151.968 54.3475C151.968 64.9919 143.339 73.6208 132.694 73.6208H34.5214C23.877 73.6208 15.248 64.9919 15.248 54.3475Z" fill="#F6F8FA" shape-rendering="crispEdges"/>
<path d="M32.016 49.4677L32.784 48.2677C33.168 48.4997 33.532 48.6837 33.876 48.8197C34.22 48.9477 34.58 49.0117 34.956 49.0117C35.244 49.0117 35.464 48.9637 35.616 48.8677C35.768 48.7717 35.844 48.6397 35.844 48.4717C35.844 48.3037 35.756 48.1637 35.58 48.0517C35.412 47.9317 35.196 47.8237 34.932 47.7277C34.668 47.6237 34.384 47.5157 34.08 47.4037C33.784 47.2917 33.504 47.1517 33.24 46.9837C32.976 46.8157 32.76 46.6077 32.592 46.3597C32.424 46.1117 32.34 45.8037 32.34 45.4357C32.34 45.0277 32.448 44.6757 32.664 44.3797C32.88 44.0757 33.184 43.8437 33.576 43.6837C33.976 43.5157 34.444 43.4317 34.98 43.4317C35.532 43.4317 36 43.5277 36.384 43.7197C36.768 43.9117 37.108 44.1557 37.404 44.4517L36.528 45.4597C36.248 45.2597 35.98 45.1117 35.724 45.0157C35.476 44.9117 35.188 44.8597 34.86 44.8597C34.596 44.8597 34.392 44.9077 34.248 45.0037C34.104 45.0997 34.032 45.2357 34.032 45.4117C34.032 45.5477 34.116 45.6677 34.284 45.7717C34.452 45.8757 34.668 45.9757 34.932 46.0717C35.196 46.1597 35.476 46.2637 35.772 46.3837C36.076 46.4957 36.36 46.6357 36.624 46.8037C36.888 46.9717 37.104 47.1797 37.272 47.4277C37.44 47.6677 37.524 47.9717 37.524 48.3397C37.524 48.7397 37.416 49.0997 37.2 49.4197C36.984 49.7317 36.664 49.9797 36.24 50.1637C35.824 50.3477 35.308 50.4397 34.692 50.4397C34.412 50.4397 34.108 50.3997 33.78 50.3197C33.46 50.2397 33.144 50.1277 32.832 49.9837C32.528 49.8397 32.256 49.6677 32.016 49.4677ZM34.308 43.9837V41.9077H35.484V43.9837H34.308ZM34.308 49.7197H35.484V52.1677H34.308V49.7197ZM48.2427 53.3797C47.7227 53.3797 47.2587 53.3237 46.8507 53.2117C46.4507 53.1077 46.1307 52.9437 45.8907 52.7197C45.6587 52.4957 45.5427 52.2077 45.5427 51.8557C45.5427 51.6157 45.6187 51.3957 45.7707 51.1957C45.9307 50.9957 46.1627 50.8197 46.4667 50.6677V50.6197C46.2987 50.5077 46.1547 50.3717 46.0347 50.2117C45.9227 50.0517 45.8667 49.8477 45.8667 49.5997C45.8667 49.3997 45.9307 49.1997 46.0587 48.9997C46.1947 48.7997 46.3667 48.6277 46.5747 48.4837V48.4357C46.3587 48.2917 46.1747 48.0877 46.0227 47.8237C45.8707 47.5597 45.7947 47.2557 45.7947 46.9117C45.7947 46.4317 45.9107 46.0317 46.1427 45.7117C46.3827 45.3917 46.6947 45.1517 47.0787 44.9917C47.4707 44.8317 47.8907 44.7517 48.3387 44.7517C48.7067 44.7517 49.0347 44.7997 49.3227 44.8957H51.7347V46.1917H50.5347C50.6067 46.2797 50.6667 46.3957 50.7147 46.5397C50.7707 46.6757 50.7987 46.8197 50.7987 46.9717C50.7987 47.4277 50.6867 47.8037 50.4627 48.0997C50.2467 48.3877 49.9547 48.6037 49.5867 48.7477C49.2187 48.8917 48.8027 48.9637 48.3387 48.9637C48.2267 48.9637 48.0987 48.9557 47.9547 48.9397C47.8107 48.9157 47.6667 48.8837 47.5227 48.8437C47.4267 48.9077 47.3587 48.9717 47.3187 49.0357C47.2787 49.0997 47.2587 49.1837 47.2587 49.2877C47.2587 49.4397 47.3387 49.5517 47.4987 49.6237C47.6667 49.6957 47.9227 49.7317 48.2667 49.7317H49.3707C50.1547 49.7317 50.7507 49.8477 51.1587 50.0797C51.5747 50.3117 51.7827 50.6957 51.7827 51.2317C51.7827 51.6477 51.6387 52.0157 51.3507 52.3357C51.0627 52.6637 50.6507 52.9197 50.1147 53.1037C49.5867 53.2877 48.9627 53.3797 48.2427 53.3797ZM48.3387 47.8957C48.5067 47.8957 48.6587 47.8597 48.7947 47.7877C48.9307 47.7157 49.0387 47.6077 49.1187 47.4637C49.1987 47.3117 49.2387 47.1277 49.2387 46.9117C49.2387 46.7037 49.1987 46.5277 49.1187 46.3837C49.0387 46.2397 48.9307 46.1317 48.7947 46.0597C48.6587 45.9797 48.5067 45.9397 48.3387 45.9397C48.1787 45.9397 48.0307 45.9797 47.8947 46.0597C47.7587 46.1317 47.6507 46.2397 47.5707 46.3837C47.4907 46.5277 47.4507 46.7037 47.4507 46.9117C47.4507 47.1277 47.4907 47.3117 47.5707 47.4637C47.6507 47.6077 47.7587 47.7157 47.8947 47.7877C48.0307 47.8597 48.1787 47.8957 48.3387 47.8957ZM48.4947 52.2637C48.8147 52.2637 49.0947 52.2317 49.3347 52.1677C49.5747 52.1037 49.7627 52.0157 49.8987 51.9037C50.0347 51.7997 50.1027 51.6797 50.1027 51.5437C50.1027 51.3437 50.0147 51.2157 49.8387 51.1597C49.6627 51.1117 49.4027 51.0877 49.0587 51.0877H48.3147C48.0987 51.0877 47.9187 51.0797 47.7747 51.0637C47.6387 51.0477 47.5147 51.0277 47.4027 51.0037C47.2507 51.0997 47.1427 51.1917 47.0787 51.2797C47.0147 51.3757 46.9827 51.4797 46.9827 51.5917C46.9827 51.8077 47.1187 51.9717 47.3907 52.0837C47.6627 52.2037 48.0307 52.2637 48.4947 52.2637ZM55.09 50.8477V46.2757H52.69V44.8957H56.854V50.8477H55.09ZM55.894 43.9597C55.558 43.9597 55.278 43.8637 55.054 43.6717C54.83 43.4717 54.718 43.2117 54.718 42.8917C54.718 42.5637 54.83 42.2997 55.054 42.0997C55.278 41.8917 55.558 41.7877 55.894 41.7877C56.238 41.7877 56.518 41.8917 56.734 42.0997C56.958 42.2997 57.07 42.5637 57.07 42.8917C57.07 43.2117 56.958 43.4717 56.734 43.6717C56.518 43.8637 56.238 43.9597 55.894 43.9597ZM63.2453 50.9917C62.6133 50.9917 62.1093 50.8837 61.7333 50.6677C61.3653 50.4437 61.0973 50.1357 60.9293 49.7437C60.7613 49.3517 60.6773 48.8957 60.6773 48.3757V46.2757H59.1893V44.9677L60.7613 44.8957L60.9893 43.0717H62.4413V44.8957H64.9613V46.2757H62.4413V48.3637C62.4413 48.6597 62.4853 48.8997 62.5733 49.0837C62.6613 49.2677 62.7973 49.4037 62.9813 49.4917C63.1653 49.5717 63.4013 49.6117 63.6893 49.6117C63.9213 49.6117 64.1333 49.5917 64.3253 49.5517C64.5173 49.5117 64.7013 49.4597 64.8773 49.3957L65.1893 50.6677C64.9253 50.7477 64.6333 50.8197 64.3133 50.8837C64.0013 50.9557 63.6453 50.9917 63.2453 50.9917ZM73.1239 53.0557V44.8957H74.5639L74.6959 45.4957H74.7319C74.9799 45.2797 75.2559 45.1037 75.5599 44.9677C75.8719 44.8237 76.1879 44.7517 76.5079 44.7517C77.0039 44.7517 77.4279 44.8757 77.7799 45.1237C78.1399 45.3717 78.4159 45.7237 78.6079 46.1797C78.7999 46.6357 78.8959 47.1677 78.8959 47.7757C78.8959 48.4557 78.7719 49.0357 78.5239 49.5157C78.2839 49.9957 77.9679 50.3637 77.5759 50.6197C77.1839 50.8677 76.7639 50.9917 76.3159 50.9917C76.0519 50.9917 75.7919 50.9357 75.5359 50.8237C75.2879 50.7117 75.0599 50.5517 74.8519 50.3437H74.8039L74.8879 51.3157V53.0557H73.1239ZM75.9079 49.5517C76.1319 49.5517 76.3319 49.4917 76.5079 49.3717C76.6839 49.2517 76.8239 49.0637 76.9279 48.8077C77.0319 48.5437 77.0839 48.2077 77.0839 47.7997C77.0839 47.4397 77.0439 47.1437 76.9639 46.9117C76.8839 46.6717 76.7639 46.4917 76.6039 46.3717C76.4519 46.2517 76.2479 46.1917 75.9919 46.1917C75.7999 46.1917 75.6119 46.2357 75.4279 46.3237C75.2519 46.4037 75.0719 46.5437 74.8879 46.7437V49.1557C75.0559 49.2917 75.2279 49.3917 75.4039 49.4557C75.5879 49.5197 75.7559 49.5517 75.9079 49.5517ZM81.7712 50.9917C81.0912 50.9917 80.5992 50.7757 80.2952 50.3437C79.9912 49.9117 79.8392 49.3197 79.8392 48.5677V44.8957H81.6032V48.3397C81.6032 48.7397 81.6632 49.0317 81.7832 49.2157C81.9112 49.3997 82.1392 49.4917 82.4672 49.4917C82.6912 49.4917 82.8912 49.4437 83.0672 49.3477C83.2432 49.2517 83.4312 49.0717 83.6312 48.8077V44.8957H85.3952V50.8477H83.9552L83.8232 49.9957H83.7752C83.5112 50.2917 83.2192 50.5317 82.8992 50.7157C82.5792 50.8997 82.2032 50.9917 81.7712 50.9917ZM90.6705 50.9917C89.9265 50.9917 89.3625 50.7677 88.9785 50.3197C88.5945 49.8717 88.4025 49.2717 88.4025 48.5197V43.8277H86.5425V42.4477H90.1665V48.5917C90.1665 48.9597 90.2665 49.2157 90.4665 49.3597C90.6665 49.4957 90.8865 49.5637 91.1265 49.5637C91.2705 49.5637 91.4145 49.5477 91.5585 49.5157C91.7105 49.4837 91.8785 49.4357 92.0625 49.3717L92.4465 50.6677C92.1425 50.7637 91.8625 50.8397 91.6065 50.8957C91.3585 50.9597 91.0465 50.9917 90.6705 50.9917ZM97.5059 50.9917C96.7619 50.9917 96.1979 50.7677 95.8139 50.3197C95.4299 49.8717 95.2379 49.2717 95.2379 48.5197V43.8277H93.3779V42.4477H97.0019V48.5917C97.0019 48.9597 97.1019 49.2157 97.3019 49.3597C97.5019 49.4957 97.7219 49.5637 97.9619 49.5637C98.1059 49.5637 98.2499 49.5477 98.3939 49.5157C98.5459 49.4837 98.7139 49.4357 98.8979 49.3717L99.2819 50.6677C98.9779 50.7637 98.6979 50.8397 98.4419 50.8957C98.1939 50.9597 97.8819 50.9917 97.5059 50.9917ZM109.22 50.9917C108.676 50.9917 108.216 50.8917 107.84 50.6917C107.472 50.4837 107.192 50.2117 107 49.8757C106.808 49.5317 106.712 49.1597 106.712 48.7597C106.712 48.3517 106.788 48.0037 106.94 47.7157C107.1 47.4277 107.3 47.1757 107.54 46.9597C107.788 46.7437 108.048 46.5477 108.32 46.3717C108.592 46.1957 108.848 46.0237 109.088 45.8557C109.336 45.6877 109.536 45.5077 109.688 45.3157C109.848 45.1237 109.928 44.9037 109.928 44.6557C109.928 44.4717 109.892 44.3237 109.82 44.2117C109.748 44.0997 109.62 44.0437 109.436 44.0437C109.284 44.0437 109.16 44.1237 109.064 44.2837C108.968 44.4357 108.92 44.6477 108.92 44.9197C108.92 45.2317 109.008 45.5637 109.184 45.9157C109.368 46.2677 109.608 46.6237 109.904 46.9837C110.2 47.3357 110.532 47.6717 110.9 47.9917C111.268 48.3037 111.636 48.5797 112.004 48.8197C112.268 49.0037 112.524 49.1637 112.772 49.2997C113.02 49.4277 113.252 49.5157 113.468 49.5637L113.048 50.9917C112.704 50.9037 112.36 50.7717 112.016 50.5957C111.672 50.4197 111.316 50.1997 110.948 49.9357C110.492 49.6077 110.052 49.2357 109.628 48.8197C109.204 48.3957 108.828 47.9557 108.5 47.4997C108.18 47.0357 107.928 46.5837 107.744 46.1437C107.56 45.6957 107.468 45.2917 107.468 44.9317C107.468 44.5557 107.544 44.2157 107.696 43.9117C107.856 43.5997 108.08 43.3517 108.368 43.1677C108.656 42.9757 109 42.8797 109.4 42.8797C109.984 42.8797 110.444 43.0397 110.78 43.3597C111.116 43.6797 111.284 44.1117 111.284 44.6557C111.284 44.9757 111.212 45.2637 111.068 45.5197C110.932 45.7677 110.752 45.9997 110.528 46.2157C110.312 46.4237 110.08 46.6237 109.832 46.8157C109.584 46.9997 109.348 47.1837 109.124 47.3677C108.908 47.5517 108.728 47.7477 108.584 47.9557C108.448 48.1637 108.38 48.3957 108.38 48.6517C108.38 48.8517 108.424 49.0277 108.512 49.1797C108.608 49.3237 108.732 49.4397 108.884 49.5277C109.044 49.6077 109.232 49.6477 109.448 49.6477C109.68 49.6477 109.904 49.5757 110.12 49.4317C110.344 49.2797 110.564 49.0877 110.78 48.8557C111.028 48.5517 111.244 48.1957 111.428 47.7877C111.612 47.3797 111.756 46.9277 111.86 46.4317H113.468C113.316 47.0157 113.12 47.5757 112.88 48.1117C112.64 48.6477 112.344 49.1597 111.992 49.6477C111.656 50.0477 111.26 50.3717 110.804 50.6197C110.348 50.8677 109.82 50.9917 109.22 50.9917ZM116.056 50.9917C115.512 50.9917 115.052 50.8917 114.676 50.6917C114.308 50.4837 114.028 50.2117 113.836 49.8757C113.644 49.5317 113.548 49.1597 113.548 48.7597C113.548 48.3517 113.624 48.0037 113.776 47.7157C113.936 47.4277 114.136 47.1757 114.376 46.9597C114.624 46.7437 114.884 46.5477 115.156 46.3717C115.428 46.1957 115.684 46.0237 115.924 45.8557C116.172 45.6877 116.372 45.5077 116.524 45.3157C116.684 45.1237 116.764 44.9037 116.764 44.6557C116.764 44.4717 116.728 44.3237 116.656 44.2117C116.584 44.0997 116.456 44.0437 116.272 44.0437C116.12 44.0437 115.996 44.1237 115.9 44.2837C115.804 44.4357 115.756 44.6477 115.756 44.9197C115.756 45.2317 115.844 45.5637 116.02 45.9157C116.204 46.2677 116.444 46.6237 116.74 46.9837C117.036 47.3357 117.368 47.6717 117.736 47.9917C118.104 48.3037 118.472 48.5797 118.84 48.8197C119.104 49.0037 119.36 49.1637 119.608 49.2997C119.856 49.4277 120.088 49.5157 120.304 49.5637L119.884 50.9917C119.54 50.9037 119.196 50.7717 118.852 50.5957C118.508 50.4197 118.152 50.1997 117.784 49.9357C117.328 49.6077 116.888 49.2357 116.464 48.8197C116.04 48.3957 115.664 47.9557 115.336 47.4997C115.016 47.0357 114.764 46.5837 114.58 46.1437C114.396 45.6957 114.304 45.2917 114.304 44.9317C114.304 44.5557 114.38 44.2157 114.532 43.9117C114.692 43.5997 114.916 43.3517 115.204 43.1677C115.492 42.9757 115.836 42.8797 116.236 42.8797C116.82 42.8797 117.28 43.0397 117.616 43.3597C117.952 43.6797 118.12 44.1117 118.12 44.6557C118.12 44.9757 118.048 45.2637 117.904 45.5197C117.768 45.7677 117.588 45.9997 117.364 46.2157C117.148 46.4237 116.916 46.6237 116.668 46.8157C116.42 46.9997 116.184 47.1837 115.96 47.3677C115.744 47.5517 115.564 47.7477 115.42 47.9557C115.284 48.1637 115.216 48.3957 115.216 48.6517C115.216 48.8517 115.26 49.0277 115.348 49.1797C115.444 49.3237 115.568 49.4397 115.72 49.5277C115.88 49.6077 116.068 49.6477 116.284 49.6477C116.516 49.6477 116.74 49.5757 116.956 49.4317C117.18 49.2797 117.4 49.0877 117.616 48.8557C117.864 48.5517 118.08 48.1957 118.264 47.7877C118.448 47.3797 118.592 46.9277 118.696 46.4317H120.304C120.152 47.0157 119.956 47.5757 119.716 48.1117C119.476 48.6477 119.18 49.1597 118.828 49.6477C118.492 50.0477 118.096 50.3717 117.64 50.6197C117.184 50.8677 116.656 50.9917 116.056 50.9917ZM34.848 65.9917C34.44 65.9917 34.104 65.8557 33.84 65.5837C33.584 65.3117 33.456 64.9797 33.456 64.5877C33.456 64.1957 33.584 63.8637 33.84 63.5917C34.104 63.3117 34.44 63.1717 34.848 63.1717C35.264 63.1717 35.6 63.3117 35.856 63.5917C36.112 63.8637 36.24 64.1957 36.24 64.5877C36.24 64.9797 36.112 65.3117 35.856 65.5837C35.6 65.8557 35.264 65.9917 34.848 65.9917ZM38.9714 67.7677L42.9194 57.3277H44.3954L40.4474 67.7677H38.9714ZM47.9907 65.9917C47.2387 65.9917 46.6307 65.7157 46.1667 65.1637C45.7107 64.6037 45.4827 63.8397 45.4827 62.8717C45.4827 62.2237 45.6027 61.6677 45.8427 61.2037C46.0907 60.7397 46.4107 60.3837 46.8027 60.1357C47.1947 59.8797 47.6027 59.7517 48.0267 59.7517C48.3547 59.7517 48.6387 59.8077 48.8787 59.9197C49.1187 60.0317 49.3347 60.1877 49.5267 60.3877H49.5747L49.4907 59.4637V57.4357H51.2547V65.8477H49.8147L49.6827 65.2357H49.6467C49.4307 65.4517 49.1747 65.6317 48.8787 65.7757C48.5907 65.9197 48.2947 65.9917 47.9907 65.9917ZM48.4467 64.5517C48.6467 64.5517 48.8307 64.5117 48.9987 64.4317C49.1747 64.3437 49.3387 64.1997 49.4907 63.9997V61.5877C49.3307 61.4437 49.1667 61.3437 48.9987 61.2877C48.8387 61.2237 48.6707 61.1917 48.4947 61.1917C48.2787 61.1917 48.0787 61.2517 47.8947 61.3717C47.7107 61.4917 47.5627 61.6757 47.4507 61.9237C47.3467 62.1637 47.2947 62.4717 47.2947 62.8477C47.2947 63.4317 47.3947 63.8637 47.5947 64.1437C47.7947 64.4157 48.0787 64.5517 48.4467 64.5517ZM55.714 65.9917C55.098 65.9917 54.538 65.8717 54.034 65.6317C53.538 65.3837 53.142 65.0277 52.846 64.5637C52.558 64.0917 52.414 63.5277 52.414 62.8717C52.414 62.2237 52.562 61.6677 52.858 61.2037C53.154 60.7317 53.538 60.3717 54.01 60.1237C54.482 59.8757 54.982 59.7517 55.51 59.7517C56.126 59.7517 56.642 59.8797 57.058 60.1357C57.474 60.3837 57.786 60.7237 57.994 61.1557C58.21 61.5797 58.318 62.0637 58.318 62.6077C58.318 62.7677 58.306 62.9237 58.282 63.0757C58.266 63.2197 58.25 63.3277 58.234 63.3997H53.722V62.2117H57.046L56.77 62.5477C56.77 62.0677 56.666 61.7077 56.458 61.4677C56.258 61.2197 55.962 61.0957 55.57 61.0957C55.282 61.0957 55.03 61.1597 54.814 61.2877C54.598 61.4157 54.43 61.6117 54.31 61.8757C54.19 62.1397 54.13 62.4717 54.13 62.8717C54.13 63.2797 54.202 63.6157 54.346 63.8797C54.49 64.1357 54.698 64.3277 54.97 64.4557C55.242 64.5837 55.57 64.6477 55.954 64.6477C56.226 64.6477 56.482 64.6117 56.722 64.5397C56.97 64.4677 57.226 64.3637 57.49 64.2277L58.078 65.2957C57.734 65.5117 57.354 65.6837 56.938 65.8117C56.522 65.9317 56.114 65.9917 55.714 65.9917ZM59.4533 68.0557V59.8957H60.8933L61.0253 60.4957H61.0613C61.3093 60.2797 61.5853 60.1037 61.8893 59.9677C62.2013 59.8237 62.5173 59.7517 62.8373 59.7517C63.3333 59.7517 63.7573 59.8757 64.1093 60.1237C64.4693 60.3717 64.7453 60.7237 64.9373 61.1797C65.1293 61.6357 65.2253 62.1677 65.2253 62.7757C65.2253 63.4557 65.1013 64.0357 64.8533 64.5157C64.6133 64.9957 64.2973 65.3637 63.9053 65.6197C63.5133 65.8677 63.0933 65.9917 62.6453 65.9917C62.3813 65.9917 62.1213 65.9357 61.8653 65.8237C61.6173 65.7117 61.3893 65.5517 61.1813 65.3437H61.1333L61.2173 66.3157V68.0557H59.4533ZM62.2373 64.5517C62.4613 64.5517 62.6613 64.4917 62.8373 64.3717C63.0133 64.2517 63.1533 64.0637 63.2573 63.8077C63.3613 63.5437 63.4133 63.2077 63.4133 62.7997C63.4133 62.4397 63.3733 62.1437 63.2933 61.9117C63.2133 61.6717 63.0933 61.4917 62.9333 61.3717C62.7813 61.2517 62.5773 61.1917 62.3213 61.1917C62.1293 61.1917 61.9413 61.2357 61.7573 61.3237C61.5813 61.4037 61.4013 61.5437 61.2173 61.7437V64.1557C61.3853 64.2917 61.5573 64.3917 61.7333 64.4557C61.9173 64.5197 62.0853 64.5517 62.2373 64.5517ZM70.1646 65.9917C69.4206 65.9917 68.8566 65.7677 68.4726 65.3197C68.0886 64.8717 67.8966 64.2717 67.8966 63.5197V58.8277H66.0366V57.4477H69.6606V63.5917C69.6606 63.9597 69.7606 64.2157 69.9606 64.3597C70.1606 64.4957 70.3806 64.5637 70.6206 64.5637C70.7646 64.5637 70.9086 64.5477 71.0526 64.5157C71.2046 64.4837 71.3726 64.4357 71.5566 64.3717L71.9406 65.6677C71.6366 65.7637 71.3566 65.8397 71.1006 65.8957C70.8526 65.9597 70.5406 65.9917 70.1646 65.9917ZM75.8599 65.9917C75.3399 65.9917 74.8479 65.8717 74.3839 65.6317C73.9199 65.3837 73.5439 65.0277 73.2559 64.5637C72.9679 64.0917 72.8239 63.5277 72.8239 62.8717C72.8239 62.2157 72.9679 61.6557 73.2559 61.1917C73.5439 60.7197 73.9199 60.3637 74.3839 60.1237C74.8479 59.8757 75.3399 59.7517 75.8599 59.7517C76.3799 59.7517 76.8719 59.8757 77.3359 60.1237C77.7999 60.3637 78.1759 60.7197 78.4639 61.1917C78.7519 61.6557 78.8959 62.2157 78.8959 62.8717C78.8959 63.5277 78.7519 64.0917 78.4639 64.5637C78.1759 65.0277 77.7999 65.3837 77.3359 65.6317C76.8719 65.8717 76.3799 65.9917 75.8599 65.9917ZM75.8599 64.5637C76.1319 64.5637 76.3559 64.4957 76.5319 64.3597C76.7159 64.2237 76.8519 64.0277 76.9399 63.7717C77.0359 63.5157 77.0839 63.2157 77.0839 62.8717C77.0839 62.5277 77.0359 62.2277 76.9399 61.9717C76.8519 61.7157 76.7159 61.5197 76.5319 61.3837C76.3559 61.2477 76.1319 61.1797 75.8599 61.1797C75.5879 61.1797 75.3599 61.2477 75.1759 61.3837C74.9999 61.5197 74.8639 61.7157 74.7679 61.9717C74.6799 62.2277 74.6359 62.5277 74.6359 62.8717C74.6359 63.2157 74.6799 63.5157 74.7679 63.7717C74.8639 64.0277 74.9999 64.2237 75.1759 64.3597C75.3599 64.4957 75.5879 64.5637 75.8599 64.5637ZM80.8112 68.1757C80.6352 68.1757 80.4712 68.1637 80.3192 68.1397C80.1672 68.1157 80.0272 68.0877 79.8992 68.0557L80.2112 66.7117C80.2912 66.7357 80.3712 66.7517 80.4512 66.7597C80.5312 66.7757 80.6072 66.7837 80.6792 66.7837C81.0232 66.7837 81.2912 66.7077 81.4832 66.5557C81.6832 66.4117 81.8312 66.2277 81.9272 66.0037L82.0472 65.6917L79.4672 59.8957H81.2192L82.2152 62.4517C82.3272 62.7317 82.4312 63.0237 82.5272 63.3277C82.6232 63.6237 82.7192 63.9277 82.8152 64.2397H82.8632C82.9432 63.9437 83.0312 63.6437 83.1272 63.3397C83.2232 63.0357 83.3152 62.7397 83.4032 62.4517L84.2792 59.8957H85.9472L83.5952 65.9077C83.4112 66.4037 83.1952 66.8197 82.9472 67.1557C82.7072 67.4917 82.4152 67.7437 82.0712 67.9117C81.7352 68.0877 81.3152 68.1757 80.8112 68.1757ZM89.5305 65.9917C89.1225 65.9917 88.7865 65.8557 88.5225 65.5837C88.2665 65.3117 88.1385 64.9797 88.1385 64.5877C88.1385 64.1957 88.2665 63.8637 88.5225 63.5917C88.7865 63.3117 89.1225 63.1717 89.5305 63.1717C89.9465 63.1717 90.2825 63.3117 90.5385 63.5917C90.7945 63.8637 90.9225 64.1957 90.9225 64.5877C90.9225 64.9797 90.7945 65.3117 90.5385 65.5837C90.2825 65.8557 89.9465 65.9917 89.5305 65.9917ZM96.3179 65.9917C95.7899 65.9917 95.2659 65.9037 94.7459 65.7277C94.2259 65.5437 93.7779 65.3277 93.4019 65.0797L94.1579 63.9757C94.5179 64.2077 94.8979 64.3837 95.2979 64.5037C95.7059 64.6237 96.1259 64.6837 96.5579 64.6837C96.8859 64.6837 97.1259 64.6357 97.2779 64.5397C97.4299 64.4357 97.5059 64.3157 97.5059 64.1797C97.5059 64.0917 97.4819 64.0197 97.4339 63.9637C97.3939 63.8997 97.3179 63.8437 97.2059 63.7957C97.1019 63.7397 96.9539 63.6877 96.7619 63.6397C96.5779 63.5917 96.3379 63.5357 96.0419 63.4717C95.2339 63.2957 94.6539 63.0557 94.3019 62.7517C93.9499 62.4477 93.7739 62.0677 93.7739 61.6117C93.7739 61.0517 94.0179 60.6037 94.5059 60.2677C94.9939 59.9237 95.6619 59.7517 96.5099 59.7517C97.0459 59.7517 97.5299 59.8397 97.9619 60.0157C98.4019 60.1837 98.7779 60.3677 99.0899 60.5677L98.2979 61.6237C98.0019 61.4397 97.6859 61.2997 97.3499 61.2037C97.0139 61.1077 96.6819 61.0597 96.3539 61.0597C96.1699 61.0597 96.0179 61.0797 95.8979 61.1197C95.7779 61.1517 95.6859 61.2077 95.6219 61.2877C95.5579 61.3597 95.5259 61.4397 95.5259 61.5277C95.5259 61.6877 95.6299 61.8077 95.8379 61.8877C96.0459 61.9597 96.4019 62.0517 96.9059 62.1637C97.5139 62.2997 97.9899 62.4557 98.3339 62.6317C98.6779 62.8077 98.9139 63.0117 99.0419 63.2437C99.1779 63.4677 99.2459 63.7437 99.2459 64.0717C99.2459 64.4317 99.1339 64.7557 98.9099 65.0437C98.6939 65.3317 98.3659 65.5637 97.9259 65.7397C97.4939 65.9077 96.9579 65.9917 96.3179 65.9917ZM100.465 65.8477V57.4357H102.229V59.4997L102.133 60.6397H102.169C102.393 60.4077 102.665 60.2037 102.985 60.0277C103.313 59.8437 103.701 59.7517 104.149 59.7517C104.821 59.7517 105.309 59.9677 105.613 60.3997C105.925 60.8317 106.081 61.4237 106.081 62.1757V65.8477H104.317V62.4037C104.317 62.0037 104.249 61.7117 104.113 61.5277C103.985 61.3437 103.761 61.2517 103.441 61.2517C103.201 61.2517 102.989 61.3077 102.805 61.4197C102.629 61.5237 102.437 61.6757 102.229 61.8757V65.8477H100.465Z" fill="#111827"/>
</g>
<path d="M100.905 176.967C123.167 176.544 125.386 175.728 126.52 175.258C128.796 174.315 134.82 171.802 135.912 171.944C137.005 172.087 137.726 172.363 153.315 172.501C168.905 172.64 198.475 172.207 213.62 172.782C231.949 173.477 238.364 172.511 249.425 174.458C254.993 175.438 260.852 175.81 265.794 176.833C269.821 177.666 275.12 178.298 278.419 179.346C281.94 180.464 284.674 182.471 287.763 184.377C290.928 186.329 294.244 188.194 299.078 188.419C308.16 188.842 312.866 188.338 316.292 190.379C319.813 192.478 323.775 193.673 325.388 197.086C326.113 198.619 327.256 201.232 326.106 203.373C324.154 207.005 321.949 210.911 319.059 212.019C316.142 213.137 312.798 215.152 305.505 215.227C292.035 215.366 282.654 216.005 278.215 216.065C268.022 216.203 260.816 216.825 258.347 216.903C253.98 217.041 250.352 217.585 241.599 217.741C233.813 217.879 219.626 218.118 212.171 217.736C203.988 217.318 198.529 217.72 191.217 216.899C185.03 216.203 180.622 216.883 164.386 215.223C160.289 214.804 152.847 215.358 142.777 214.385C138.439 213.966 129.993 214.772 118.494 213.548C111.965 212.852 105.435 213.894 106.157 210.888C106.896 207.809 109.558 200.94 106.269 198.883C104.937 198.049 103.501 197.23 101.524 197.073C96.1895 196.65 92.8858 194.918 89.3907 194.56C85.2647 194.137 81.0185 194.747 78.9611 191.757C78.4768 191.054 78.2364 190.224 78.3639 189.382C78.4913 188.54 78.8898 187.601 79.5838 187.011C82.3806 184.636 85.2066 182.162 88.2035 181.013C91.1204 179.895 93.9417 177.099 100.905 176.967Z" fill="#8AD3F3" stroke="#8AD3F3" stroke-width="2.13866" stroke-linecap="round"/>
<path d="M36.2442 168.403L34.6895 189.393L48.2159 193.28L50.3925 177.11L36.2442 168.403Z" fill="#F0BE9D"/>
<path d="M10.1748 251.583H59.1498C58.6904 240.899 58.4921 234.387 58.9992 222.632C59.0919 220.483 59.0246 218.326 58.7754 216.19L57.4737 205.033C57.1455 202.22 56.1277 199.508 54.3486 197.305C47.1406 188.378 42.0603 186.697 33.4962 186.438C29.7223 186.859 27.6178 187.718 25.4568 189.249C23.7201 190.48 22.4694 192.265 21.5938 194.205L14.9946 208.827L10.1748 251.583Z" fill="#287AA3"/>
<path d="M59.2792 156.12C65.0716 164.849 66.577 177.242 59.2792 182.084C51.9814 186.927 39.4171 180.085 33.6248 171.357C27.8325 162.628 30.6812 151.323 37.979 146.48C45.2768 141.638 53.1486 142.647 59.2792 156.12Z" fill="#F0BE9D"/>
<path d="M44.0313 162.954C45.5878 162.954 47.3208 164.592 48.398 165.669C49.7317 164.335 50.8431 162.915 51.1196 160.98C51.2338 160.18 51.3595 159.457 51.3595 158.635C51.3595 158.216 51.3789 157.538 51.2087 157.155C50.8455 156.337 50.7565 155.303 51.1127 154.502C51.472 153.693 52.3164 153.15 52.7442 152.342C53.269 151.351 54.3273 150.569 54.5746 149.456C54.712 148.838 55.0613 148.319 55.0613 147.653V145.802C55.0613 145.432 54.7977 144.795 54.6226 144.445C54.3426 143.885 54.1477 143.279 53.7588 142.779C53.1242 141.963 52.4633 141.436 51.7297 140.743C51.3016 140.339 50.6421 140.069 50.1256 139.811C49.8322 139.664 49.609 139.427 49.2618 139.386C49.0625 139.362 48.5271 139.173 48.3363 139.071C47.1279 138.42 45.3028 138.131 44.0313 138.157C41.7732 138.202 39.9281 139.016 37.6696 139.016C36.9623 139.016 36.2918 139.133 35.6885 139.482C34.8691 139.956 32.4533 141.123 31.6881 141.661C30.3525 142.601 30.988 143.346 29.8273 144.507C29.2875 145.047 28.7795 145.596 28.2849 146.173C28.0232 146.478 27.6699 146.923 27.4896 147.283C27.3316 147.599 27.0255 147.867 26.9001 148.174C26.598 148.916 26.1671 149.736 25.7553 150.423C25.1843 151.374 24.9936 152.51 24.5282 153.508C24.1396 154.34 24.1188 155.541 23.9387 156.442C23.7403 157.433 23.7559 158.442 23.6027 159.437C23.3478 161.095 23.5805 164.093 23.9386 165.669C24.2117 166.871 25.4823 169.196 25.7553 170.424C26.1356 172.136 26.5951 172.452 27.4896 174C28.4638 175.686 29.8435 175.742 31.1778 177.076C32.0085 177.907 33.2982 179.439 34.3311 179.983C35.3957 180.543 36.7101 181.152 37.907 181.152C38.7485 181.152 41.5428 179.131 41.5428 179.131C42.1144 178.617 42.0132 178.514 42.2215 177.576C42.313 177.165 42.3529 176.403 42.626 176.061C42.9014 175.717 42.7336 175.032 42.9961 174.704C43.4525 174.134 43.2155 172.69 43.2155 171.962C43.2155 170.966 42.9004 169.899 42.3517 169.028C42.0167 168.496 41.8687 167.84 41.5428 167.328C41.2168 166.815 40.8509 166.343 40.7408 165.737C40.5397 164.632 40.3093 164.111 41.2138 163.297C41.9673 162.619 43.092 162.954 44.0313 162.954Z" fill="#2D334B"/>
<path d="M59.2169 146.333L57.9513 144.55C57.716 144.218 56.9341 144.298 55.731 144.724L54.18 142.487C51.7496 139.065 48.3184 136.48 44.3586 135.088C40.3809 133.69 36.0702 133.546 32.0077 134.674L31.6202 134.28C31.4143 134.067 31.1519 133.918 30.8641 133.85C30.5749 133.783 30.2725 133.797 29.9913 133.893C26.2412 135.196 22.9395 137.539 20.4724 140.649C20.2874 140.884 20.173 141.164 20.1416 141.46C20.1101 141.755 20.1636 142.052 20.2957 142.316L20.5212 142.78C18.0885 146.246 16.7816 150.376 16.7779 154.611C16.7757 158.826 18.0845 162.938 20.5231 166.376L22.1049 168.604C21.3196 169.589 20.9913 170.292 21.2249 170.621L22.4904 172.404C22.5484 172.52 22.6472 172.611 22.7679 172.659C23.0018 171.946 23.3851 171.291 23.8923 170.737C25.1571 169.285 26.5258 167.926 27.9875 166.672C28.3905 166.312 28.8651 166.041 29.3801 165.878C29.895 165.714 30.4388 165.661 30.9757 165.722C32.9672 165.957 34.9753 165.445 36.6099 164.283L46.8943 156.983C48.5302 155.824 49.6762 154.097 50.1093 152.139C50.2271 151.61 50.4552 151.113 50.7788 150.679C51.1024 150.246 51.5141 149.885 51.9869 149.622C53.6526 148.656 55.3857 147.812 57.1727 147.095C57.816 146.8 58.5171 146.652 59.2248 146.663C59.269 146.67 59.3169 146.671 59.3561 146.679C59.352 146.551 59.3029 146.428 59.2169 146.333Z" fill="#FFF100"/>
<path d="M28.6463 162.387C28.341 161.986 28.0421 161.581 27.7496 161.171C23.3553 154.969 20.8716 148.372 20.5243 142.781C18.0915 146.246 16.7844 150.376 16.7804 154.611C16.7776 158.825 18.0856 162.936 20.523 166.374L22.1048 168.603C24.0955 166.34 26.2846 164.26 28.6463 162.387Z" fill="url(#paint0_linear_5634_6116)"/>
<path d="M54.1791 142.49C51.4316 138.612 47.4081 135.824 42.8125 134.613C46.3123 137.26 49.3762 140.439 51.8932 144.033C52.322 144.637 52.7292 145.245 53.1224 145.858C53.9684 145.434 54.8372 145.057 55.7249 144.728L54.178 142.49L54.1791 142.49Z" fill="url(#paint1_linear_5634_6116)"/>
<path d="M177.892 35.2257C181.322 35.5249 180.521 36.1817 184.763 35.8854C185.55 35.8854 186.314 35.8854 186.959 35.8241C188.112 35.6439 190.431 35.5249 192.486 36.2495C194.162 36.8443 197.764 36.5988 201.109 35.8818C204.456 35.1644 206.809 35.1831 208.627 34.7426C210.367 34.3209 212.534 34.0855 214.092 33.2989C215.637 32.5184 217.158 30.6733 219.304 30.2365C219.889 30.1175 220.829 29.9746 221.035 30.3626C221.417 31.0836 221.133 32.2883 221.418 33.7279C221.802 35.6619 221.735 38.5998 223.417 39.8563C224.38 40.5754 225.546 41.0484 226.893 41.2946C229.526 41.7759 232.649 41.7975 236.28 42.3761C238.532 42.7348 241.937 42.5953 243.671 44.5427C244.311 45.2619 244.982 46.0614 245.276 47.1292C245.854 49.2309 246.497 50.9986 247.978 52.7746C249.335 54.4004 251.466 56.9391 256.1 57.3366C262.468 57.8828 267.305 59.1659 271.016 60.4657C276.342 62.3313 278.985 63.363 280.453 66.7167C281.481 69.0653 281.612 74.2872 280.38 81.0211C279.93 83.4779 277.942 90.4655 280.451 95.4355C280.964 96.4521 281.987 97.1448 282.573 98.1969C283.41 99.7001 284.445 101.177 286.64 102.651C292.824 106.802 296.457 109.607 297.879 110.812C299.229 111.957 300.533 113.142 301.866 116.227C303.087 119.051 304.358 121.49 303.917 123.493C303.465 125.54 303.048 127.748 301.208 130.591C298.565 134.675 295.75 137.905 294.462 140.375C293.295 142.613 290.542 145.19 290.089 147.046C289.321 150.191 288.988 154.382 290.612 156.601C292.686 159.434 296.414 161.347 297.62 163.446C298.068 164.225 298.445 165.187 298.517 166.884C298.712 171.438 299.156 173.136 299.74 174.982C300.255 176.608 298.811 180.382 302.769 182.196C308.435 184.791 317.739 187.032 318.97 188.439C319.546 189.099 320.629 190.266 319.861 190.905C317.988 192.462 315.864 193.533 313.75 193C312.077 192.578 310.175 190.399 305.771 192.102C303.589 192.945 302.89 194.739 301.21 195.166C299.083 195.707 296.986 196.906 291.748 196.244C288.411 195.822 286.484 195.011 284.554 194.56C282.238 194.02 280.321 192.91 278.51 193.544C276.45 194.265 268.547 193.864 262.883 195.467C260.763 196.067 259.017 195.944 255.67 195.703C250.6 195.339 249.511 193.104 247.319 192.879C245.584 192.7 243.813 193.076 242.239 193.364C239.28 193.904 236.156 197.796 233.047 197.266C230.923 196.904 229.041 195.939 227.198 195.642C224.603 195.224 220.745 195.307 218.774 195.646C217.034 195.945 214.814 197.178 211.501 196.183C208.283 195.217 205.78 194.612 204.435 193.719C202.889 192.693 201.077 190.723 198.773 191.803C197.619 192.343 196.589 193.031 196.597 193.787C196.6 194.15 196.855 194.506 197.179 194.746C197.503 194.986 197.892 195.088 198.273 195.226C199.949 195.829 202.85 196.519 202.704 198.113C202.639 198.832 202.44 200.033 201.67 200.031C200.964 200.029 199.438 200.126 197.553 199.488C195.945 198.944 191.122 198.83 184.939 199.795C179.578 200.631 174.182 200.508 171.701 199.908C169.709 199.427 168.082 197.801 165.648 197.866C160.958 197.992 158.438 198.677 154.206 199.371C150.132 200.04 145.034 200.783 142.433 200.691C137.292 200.509 132.931 200.51 132.031 198.402C131.647 197.502 132.257 196.703 132.099 195.939C131.775 194.373 131.56 192.312 130.424 190.591C129.19 188.72 126.908 186.764 125.013 186.026C121.473 184.647 118.338 184.167 111.891 183.266C108.872 182.844 106.357 181.652 103.731 181.646C101.287 181.64 98.9598 181.133 97.9496 179.717C97.4365 178.998 96.6727 178.129 96.9253 177.192C97.4358 175.298 98.4276 173.64 99.4501 171.93L99.5006 171.846C100.4 170.342 100.913 168.589 100.266 167.039C99.489 165.173 98.1491 163.088 96.3388 161.391C94.3422 159.52 92.2919 157.456 92.2935 154.459C92.2973 147.026 92.6974 144.84 93.3255 143.006C93.8406 141.503 96.1074 138.528 96.4121 135.735C96.796 132.217 96.6447 127.176 95.7003 124.378C94.9904 122.274 93.62 120.502 93.3853 118.493C92.9378 114.661 93.448 108.253 93.6458 106.175C93.8406 104.127 94.0111 101.594 95 99.8642C96.5491 97.155 98.1917 94.8221 99.3714 92.8976C101.194 89.9235 104.593 85.2759 105.222 83.404C105.932 81.2933 106.236 78.8534 106.829 76.9746C107.476 74.927 108.051 72.1486 109.275 69.4006C110.562 66.513 111.741 64.196 112.619 62.4953C113.518 60.7523 114.601 59.3702 116.743 57.5637C120.084 54.7465 122.587 53.2426 124.324 51.6805C126.126 50.06 127.836 48.0231 130.048 46.4551C132.438 44.7608 135.015 41.9776 137.249 41.0495C138.989 40.3267 140.627 38.9977 142.651 38.4665C145.178 37.8032 148.645 36.2364 151.982 36.0044C155.456 35.7628 158.051 35.663 162.978 35.1031C165.563 34.8094 167.343 35.0057 169.232 35.214L169.338 35.2257C172.054 35.5249 175.648 35.0299 177.892 35.2257Z" fill="#389BC9"/>
<path d="M184.79 36.2614C184.772 36.0107 184.755 35.7601 184.737 35.5094C182.792 35.7206 181.126 35.4282 179.146 34.9931C178.738 34.9309 178.331 34.8833 177.925 34.8434C175.085 34.6356 172.322 34.9573 169.651 34.7234C169.565 34.7157 169.48 34.7073 169.396 34.698C167.292 34.4408 165.072 34.3136 162.919 34.5868C160.897 34.8223 158.879 35.0207 156.854 35.168C155.224 35.288 153.587 35.3749 151.946 35.482C150.656 35.5674 149.402 35.8323 148.185 36.1639C147.455 36.3632 146.737 36.5883 146.027 36.8223C144.842 37.2098 143.673 37.6336 142.513 37.9423C141.053 38.3251 139.797 39.0949 138.592 39.7691C138.075 40.0585 137.562 40.333 137.042 40.5494C135.671 41.143 134.591 42.0425 133.526 42.9149C132.249 43.9772 131.043 45.0966 129.748 46.0314C128.277 47.0834 127.015 48.35 125.778 49.5838C125.186 50.1738 124.594 50.7566 123.982 51.2995C122.399 52.6716 120.546 53.8415 118.826 55.1777C117.998 55.812 117.184 56.4653 116.386 57.1403C115.727 57.6984 115.086 58.2815 114.484 58.9183C113.548 59.8969 112.734 61.0313 112.111 62.2336C111.386 63.609 110.669 64.9945 109.988 66.3988C109.546 67.3084 109.115 68.2212 108.697 69.1426C108.074 70.5125 107.594 71.9319 107.179 73.3505C106.838 74.5049 106.543 75.6673 106.195 76.7742C105.626 78.6196 105.369 80.4432 104.889 82.1734C104.795 82.5169 104.693 82.8562 104.58 83.1878C104.03 84.5733 103.001 86.0486 102.094 87.4551C100.993 89.1333 99.8448 90.7894 98.7693 92.5285C98.5227 92.9302 98.2667 93.3327 98.0087 93.7335C96.7874 95.6225 95.5236 97.525 94.3922 99.5166C94.198 99.8575 94.0404 100.21 93.9086 100.564C93.2356 102.431 93.1825 104.315 93.0221 106.115C92.9916 106.47 92.9619 106.831 92.9322 107.19C92.6541 110.82 92.3888 114.44 92.6887 118.141C92.7022 118.284 92.7175 118.429 92.7337 118.569C93.0606 120.965 94.4752 122.701 95.0774 124.588C95.1968 124.942 95.2959 125.313 95.3812 125.691C95.8201 127.696 95.9578 129.82 95.9619 131.921C95.9593 133.173 95.8976 134.43 95.7565 135.664C95.4503 138.102 93.8227 140.124 92.66 142.778C92.6123 142.917 92.5658 143.058 92.5217 143.2C91.8661 145.325 91.7863 147.477 91.6866 149.57C91.622 151.21 91.5983 152.827 91.5886 154.459C91.5345 156.9 92.9675 159.06 94.4973 160.612C94.9371 161.069 95.3922 161.499 95.8452 161.918C97.2399 163.211 98.4186 164.773 99.2669 166.487C99.3989 166.755 99.5226 167.027 99.6365 167.301C100.181 168.575 99.712 170.164 98.9061 171.49C97.9823 173.029 97.0008 174.623 96.4084 176.446C96.3483 176.631 96.2924 176.818 96.241 177.007C95.9095 178.515 96.911 179.426 97.3687 180.132C98.5985 181.739 100.448 182.074 102.049 182.281C102.611 182.343 103.172 182.371 103.73 182.375C105.289 182.385 106.877 182.869 108.526 183.306C109.58 183.586 110.667 183.85 111.788 184.003C112.361 184.081 112.926 184.158 113.492 184.236C115.411 184.504 117.319 184.761 119.201 185.113C120.103 185.282 120.998 185.469 121.876 185.708C122.857 185.974 123.817 186.295 124.762 186.669C125.532 186.977 126.282 187.457 126.977 187.995C128.068 188.849 129.061 189.878 129.792 191.008C130.333 191.852 130.657 192.845 130.885 193.897C131.041 194.602 131.15 195.334 131.301 196.104C131.449 196.332 130.749 197.452 131.264 198.729C132.127 200.506 133.835 200.761 135.099 201.051C136.436 201.297 137.74 201.381 139.034 201.453C140.164 201.512 141.285 201.548 142.401 201.592C143.64 201.632 144.808 201.539 145.98 201.435C147.853 201.26 149.703 201.019 151.546 200.742C152.395 200.614 153.237 200.444 154.082 200.304C154.173 200.289 154.263 200.274 154.352 200.259C157.736 199.692 160.987 198.943 164.305 198.795C164.759 198.77 165.214 198.752 165.671 198.741C167.508 198.621 169.055 200.092 171.489 200.789C172.6 201.055 173.662 201.161 174.733 201.238C178.209 201.456 181.661 201.264 185.09 200.761C185.256 200.736 185.421 200.712 185.586 200.689C187.584 200.406 189.596 200.235 191.596 200.149C193.521 200.081 195.671 200.051 197.219 200.476C198.654 200.98 200.296 201.124 201.667 201.076C202.088 201.091 202.585 200.875 202.854 200.604C203.135 200.335 203.274 200.068 203.381 199.83C203.583 199.354 203.653 198.943 203.708 198.546C203.723 198.431 203.735 198.319 203.745 198.208C203.852 197.314 203.28 196.488 202.801 196.108C202.305 195.691 201.814 195.452 201.336 195.241C200.385 194.83 199.446 194.578 198.608 194.294C198.173 194.151 197.883 194.06 197.756 193.966C197.598 193.871 197.531 193.683 197.548 193.777C197.489 193.895 197.649 193.543 197.989 193.312C198.317 193.062 198.729 192.831 199.157 192.623C199.243 192.581 199.326 192.546 199.411 192.515C200.284 192.171 201.246 192.522 202.251 193.202C202.794 193.56 203.407 193.903 204.05 194.299C204.14 194.354 204.231 194.408 204.321 194.46C206.104 195.431 207.868 195.888 209.623 196.426C209.982 196.53 210.345 196.62 210.706 196.712C210.902 196.762 211.103 196.8 211.303 196.841C211.486 196.88 211.663 196.914 211.843 196.955C212.869 197.192 213.951 197.248 214.996 197.135C216.393 197.006 217.72 196.483 218.88 196.266C219.555 196.154 220.268 196.094 220.978 196.054C223.021 195.953 225.111 196.029 227.083 196.357C227.298 196.395 227.515 196.443 227.733 196.498C229.356 196.912 231.025 197.707 232.916 198.037C233.573 198.154 234.24 198.1 234.844 197.951C237.719 197.143 239.593 195.072 241.791 194.303C241.989 194.235 242.189 194.18 242.382 194.144C244.006 193.835 245.566 193.496 247.07 193.616C247.127 193.62 247.184 193.626 247.241 193.631C248.363 193.721 249.588 194.78 251.05 195.389C252.502 196.032 254.072 196.345 255.616 196.454C255.889 196.474 256.155 196.493 256.429 196.512C258.005 196.613 259.618 196.776 261.307 196.586C261.912 196.517 262.516 196.398 263.101 196.238C265.259 195.657 267.538 195.398 269.822 195.201C272.028 195.008 274.244 194.938 276.518 194.748C277.249 194.672 277.933 194.636 278.797 194.363C280.238 193.834 282.231 194.929 284.356 195.411C286.294 195.896 288.406 196.634 290.557 196.96C290.916 197.019 291.276 197.075 291.637 197.126C293.274 197.355 294.957 197.498 296.658 197.301C298.361 197.132 300.045 196.504 301.453 196.121C302.363 195.896 303.075 195.328 303.604 194.851C304.508 194.01 305.206 193.358 306.121 193.007C307.697 192.374 309.307 192.169 310.816 192.734C311.629 192.999 312.336 193.514 313.534 193.854C314.531 194.098 315.583 194.029 316.52 193.765C318.039 193.334 319.301 192.495 320.424 191.583C320.808 191.312 321.086 190.624 321.004 190.167C320.95 189.703 320.786 189.399 320.633 189.129C320.32 188.602 319.96 188.208 319.647 187.847C319.217 187.391 318.879 187.246 318.528 187.052C316.485 186.064 314.502 185.497 312.507 184.826C311.573 184.521 310.619 184.284 309.693 183.971C307.451 183.209 305.218 182.421 303.109 181.452C301.968 180.935 301.169 180.096 300.898 178.947C300.557 177.753 300.932 176.583 300.554 174.724C300.476 174.478 300.402 174.233 300.332 173.99C299.658 171.721 299.506 169.299 299.407 166.845C299.391 166.403 299.354 165.954 299.282 165.5C299.153 164.649 298.862 163.749 298.426 162.983C297.183 160.991 295.53 159.977 294.116 158.729C293.237 157.99 292.395 157.245 291.715 156.412C291.609 156.282 291.507 156.15 291.41 156.017C290.077 154.041 290.357 150.829 290.895 148.097C290.951 147.826 291.011 147.554 291.076 147.287C291.71 145.363 293.967 143.376 295.334 140.829C295.451 140.602 295.58 140.375 295.716 140.146C297.011 138.027 298.679 135.968 300.19 133.819C300.818 132.936 301.434 132.038 302.025 131.119C303.514 128.902 304.381 126.183 304.856 123.7C304.914 123.433 304.948 123.165 304.961 122.901C304.953 120.021 303.617 117.981 302.776 115.834C302.709 115.677 302.643 115.527 302.573 115.372C301.715 113.372 300.244 111.374 298.544 110.028C298.219 109.75 297.89 109.48 297.562 109.214C295.827 107.818 294.081 106.483 292.285 105.206C290.622 104.025 288.942 102.878 287.246 101.748C285.647 100.7 284.424 99.3788 283.507 97.6767C283.308 97.3196 283.075 97.0067 282.844 96.7287C282.231 96.0036 281.649 95.4645 281.403 94.9552C280.96 94.0798 280.666 93.1121 280.49 92.1071C280.31 91.075 280.25 90.0044 280.271 88.9255C280.316 86.3733 280.841 83.8784 281.387 81.2054C281.782 78.9858 282.074 76.7478 282.206 74.4803C282.307 71.8125 282.469 69.1555 281.403 66.3006C280.531 64.0446 278.397 62.2891 276.354 61.3942C274.687 60.6139 273.019 60.0544 271.363 59.4747C269.494 58.8266 267.588 58.2735 265.662 57.818C262.542 57.0789 259.368 56.6058 256.185 56.3414C254.735 56.2231 253.335 55.8475 252.106 55.1569C250.807 54.4397 249.771 53.3778 248.765 52.1182C247.944 51.1191 247.34 50.002 246.889 48.7651C246.662 48.151 246.47 47.5097 246.287 46.8507C245.948 45.5987 245.145 44.6194 244.45 43.8487C244.171 43.5361 243.854 43.2631 243.519 43.034C242.5 42.3414 241.387 42.0391 240.341 41.8458C238.97 41.5969 237.625 41.5622 236.437 41.392C235.239 41.2128 234.043 41.0842 232.854 40.9696C230.878 40.774 228.913 40.6505 227.074 40.3061C226.23 40.1456 225.427 39.8788 224.716 39.4825C224.476 39.3487 224.246 39.2003 224.029 39.0373C223.598 38.7211 223.281 38.1293 223.077 37.4078C222.748 36.2728 222.699 34.971 222.432 33.5267C222.284 32.8175 222.329 32.0996 222.268 31.0966C222.236 30.7579 222.189 30.3486 221.943 29.8815C221.521 29.1882 220.994 29.1715 220.727 29.1183C220.43 29.0837 220.201 29.1002 219.982 29.1218C219.665 29.1559 219.381 29.2142 219.109 29.2776C218.823 29.3437 218.545 29.4313 218.279 29.5347C217.644 29.7811 217.119 30.1779 216.603 30.5161C215.521 31.2226 214.606 32.0811 213.708 32.5395C213.15 32.8198 212.501 33.0204 211.828 33.1866C210.749 33.4539 209.606 33.6143 208.419 33.8885C207.895 34.0105 207.331 34.09 206.755 34.1615C204.865 34.3784 202.865 34.5801 200.921 35.0049C200.53 35.088 200.138 35.1641 199.745 35.2332C197.401 35.6192 194.751 35.9381 192.792 35.3866C192.587 35.3141 192.382 35.25 192.176 35.1929C190.38 34.7101 188.569 35.091 186.917 35.5547L186.933 35.5526C186.879 35.5654 186.825 35.5775 186.771 35.5888C186.118 35.7238 185.438 35.8011 184.763 35.8854C185.44 35.9679 186.113 36.0541 186.809 36.0884C186.867 36.0911 186.926 36.0935 186.985 36.0956L187.001 36.0936C188.65 36.0866 190.253 36.5662 191.686 36.9578C191.854 37.0044 192.019 37.056 192.181 37.113C195.065 37.8777 197.516 37.3889 200.059 37.0029C200.473 36.9288 200.886 36.8474 201.297 36.7587C203.148 36.3497 205.012 36.1589 206.976 35.9253C207.581 35.8473 208.2 35.7544 208.834 35.5967C209.906 35.3287 211.064 35.1399 212.241 34.8453C212.979 34.6585 213.732 34.4321 214.475 34.0582C215.729 33.3906 216.582 32.5413 217.532 31.934C217.98 31.6403 218.473 31.4768 218.925 31.3336C219.116 31.2725 219.308 31.2263 219.499 31.1954C219.729 31.157 219.952 31.1285 220.146 31.1202C220.276 31.114 220.399 31.1205 220.449 31.1327C220.472 31.1371 220.474 31.1464 220.419 31.1247C220.37 31.106 220.222 31.0226 220.126 30.8438C220.145 30.8813 220.188 31.0462 220.204 31.2706C220.254 31.9639 220.203 32.964 220.405 33.929C220.639 35.119 220.692 36.5259 221.106 37.9775C221.375 38.8966 221.837 39.9521 222.805 40.6752C223.1 40.8951 223.41 41.0929 223.73 41.2683C224.676 41.7879 225.698 42.1044 226.713 42.2831C228.75 42.6328 230.726 42.7162 232.666 42.9103C233.833 43.0226 234.983 43.1663 236.124 43.3602C237.505 43.5812 238.774 43.642 239.963 43.8748C240.864 44.0475 241.708 44.313 242.338 44.7503C242.547 44.8946 242.732 45.0564 242.891 45.2367C243.559 45.9791 244.067 46.6627 244.264 47.4077C244.453 48.0967 244.66 48.7944 244.917 49.4921C245.425 50.8962 246.2 52.2778 247.192 53.4309C248.244 54.7027 249.556 56.0223 251.138 56.8886C252.646 57.7362 254.342 58.1874 256.015 58.3318C259.108 58.6053 262.176 59.0915 265.183 59.8209C267.039 60.2707 268.869 60.8188 270.669 61.4567C272.311 62.0426 273.951 62.6096 275.446 63.3113C277.315 64.1699 278.748 65.3365 279.503 67.1328C280.316 69.1631 280.32 71.8715 280.196 74.3648C280.07 76.5267 279.774 78.6894 279.373 80.8368C278.836 83.3533 278.219 86.0999 278.156 88.8765C278.125 90.0641 278.185 91.2697 278.393 92.4731C278.597 93.644 278.945 94.8163 279.5 95.9158C280.023 96.9235 280.742 97.5194 281.2 98.0917C281.378 98.307 281.527 98.5133 281.639 98.7171C282.63 100.608 284.226 102.374 286.034 103.554C287.709 104.687 289.367 105.833 291.011 107C292.784 108.261 294.569 109.506 296.271 110.836C296.591 111.088 296.911 111.343 297.214 111.597C298.827 112.867 299.923 114.348 300.767 116.2C300.832 116.34 300.894 116.477 300.956 116.62C301.87 118.765 303.087 120.932 303.041 122.806C303.033 122.972 303.012 123.132 302.978 123.286C302.483 125.799 301.753 128.022 300.391 130.062C299.816 130.948 299.215 131.82 298.597 132.686C297.107 134.802 295.467 136.809 294.032 139.139C293.879 139.393 293.731 139.652 293.591 139.92C292.473 142.11 290.269 143.635 289.102 146.805C289.03 147.096 288.963 147.392 288.903 147.687C288.385 150.704 287.818 154.022 289.814 157.185C289.933 157.347 290.057 157.507 290.183 157.662C290.993 158.652 291.904 159.493 292.823 160.267C294.291 161.522 295.991 162.626 296.815 163.909C297.171 164.494 297.388 165.101 297.508 165.794C297.571 166.157 297.608 166.537 297.627 166.922C297.76 169.414 297.931 171.979 298.688 174.47C298.765 174.73 298.846 174.987 298.927 175.24C299.161 176.121 298.86 177.829 299.281 179.364C299.645 180.979 301.003 182.343 302.429 182.939C304.651 183.938 306.918 184.721 309.179 185.49C310.112 185.806 311.022 186.185 311.951 186.499C313.912 187.174 315.967 187.811 317.699 188.654C317.965 188.787 318.259 188.984 318.292 189.032C318.618 189.399 318.912 189.732 319.098 190.039C319.19 190.186 319.24 190.332 319.24 190.353C319.224 190.379 319.299 190.196 319.297 190.227C318.303 191.067 317.209 191.788 316.061 192.109C315.35 192.307 314.633 192.328 313.965 192.145C313.324 191.966 312.434 191.37 311.447 191.009C309.502 190.226 307.236 190.482 305.421 191.197C304.126 191.661 303.08 192.647 302.287 193.383C301.809 193.816 301.397 194.106 300.968 194.212C299.285 194.68 297.936 195.2 296.429 195.358C294.945 195.537 293.408 195.534 291.859 195.362C291.518 195.325 291.178 195.279 290.841 195.224C288.805 194.92 286.909 194.251 284.753 193.71C282.873 193.378 280.919 191.945 278.224 192.724C277.756 192.88 277.032 192.959 276.362 193.023C274.184 193.209 271.921 193.285 269.673 193.492C267.335 193.706 264.982 194.025 262.665 194.696C262.154 194.847 261.64 194.958 261.115 195.027C259.663 195.217 258.101 195.114 256.534 195.01C256.262 194.991 255.997 194.972 255.724 194.953C254.299 194.851 252.922 194.57 251.657 194.008C250.368 193.516 249.29 192.386 247.396 192.126C247.328 192.119 247.259 192.113 247.191 192.107C245.401 191.967 243.697 192.298 242.097 192.584C241.812 192.634 241.536 192.71 241.275 192.8C238.553 193.823 236.685 195.845 234.467 196.42C234.023 196.531 233.59 196.562 233.179 196.495C231.533 196.236 229.92 195.515 228.076 195.073C227.826 195.015 227.572 194.965 227.313 194.927C225.149 194.628 223.033 194.662 220.903 194.782C220.162 194.83 219.422 194.896 218.667 195.026C217.249 195.312 216.1 195.785 214.867 195.897C213.954 195.994 213.037 195.911 212.152 195.68C211.997 195.64 211.849 195.585 211.699 195.524C211.506 195.447 211.316 195.369 211.122 195.304C210.765 195.184 210.409 195.064 210.049 194.96C208.311 194.436 206.457 194.065 205.018 193.27C204.949 193.229 204.881 193.185 204.819 193.139C204.302 192.758 203.838 192.208 203.228 191.778C202.171 190.99 200.443 190.208 198.819 190.811C198.669 190.862 198.53 190.917 198.388 190.982C197.889 191.211 197.39 191.462 196.889 191.819C196.433 192.189 195.719 192.613 195.645 193.797C195.682 194.68 196.151 195.164 196.602 195.527C197.124 195.913 197.624 196.03 197.938 196.157C198.865 196.501 199.734 196.766 200.499 197.118C200.875 197.29 201.224 197.489 201.443 197.683C201.674 197.897 201.665 197.957 201.663 198.018C201.655 198.105 201.646 198.191 201.635 198.274C201.598 198.559 201.535 198.835 201.464 198.994C201.432 199.072 201.394 199.11 201.423 199.079C201.444 199.048 201.599 198.977 201.673 198.986C200.269 199.027 199.091 198.908 197.887 198.501C195.534 197.884 193.59 198.029 191.506 198.081C189.417 198.176 187.351 198.431 185.298 198.748C185.129 198.774 184.959 198.801 184.788 198.829C181.511 199.352 178.146 199.57 174.85 199.394C173.844 199.333 172.83 199.237 171.914 199.028C170.196 198.652 168.246 196.889 165.624 196.992C165.151 197.005 164.68 197.025 164.209 197.051C160.747 197.206 157.36 197.955 154.061 198.484C153.972 198.498 153.882 198.513 153.793 198.527C152.952 198.661 152.106 198.759 151.265 198.886C149.443 199.16 147.619 199.427 145.804 199.612C144.675 199.723 143.532 199.817 142.465 199.79C141.341 199.754 140.223 199.728 139.117 199.683C136.748 199.556 133.538 199.474 132.798 198.074C132.718 197.892 132.707 197.699 132.778 197.335C132.832 196.981 133.03 196.484 132.896 195.774C132.745 195.068 132.619 194.308 132.437 193.543C132.168 192.4 131.764 191.218 131.056 190.174C130.16 188.872 129.058 187.803 127.837 186.871C127.057 186.286 126.222 185.757 125.264 185.382C124.272 185.001 123.259 184.671 122.233 184.393C121.315 184.143 120.393 183.925 119.469 183.739C117.541 183.353 115.623 183.058 113.7 182.776C113.132 182.693 112.566 182.611 111.994 182.53C110.969 182.384 109.949 182.133 108.911 181.857C107.288 181.432 105.584 180.917 103.733 180.917C103.219 180.918 102.707 180.897 102.203 180.844C100.758 180.694 99.2283 180.272 98.5305 179.303C97.9404 178.526 97.4534 177.808 97.6095 177.376C97.6539 177.21 97.7026 177.045 97.7552 176.88C98.2703 175.264 99.1749 173.749 100.095 172.201C100.989 170.694 101.687 168.693 100.896 166.776C100.77 166.474 100.635 166.177 100.491 165.885C99.5665 164.02 98.3484 162.309 96.8324 160.865C96.3908 160.445 95.9577 160.029 95.5475 159.602C94.1051 158.128 92.9789 156.397 92.9984 154.46C92.9917 152.839 93.001 151.236 93.0645 149.625C93.1588 147.569 93.2818 145.49 93.8656 143.618C93.9054 143.49 93.9474 143.362 93.9911 143.234C94.9151 141.056 96.7257 138.715 97.0678 135.807C97.1999 134.511 97.2513 133.215 97.2541 131.922C97.248 129.751 97.1377 127.576 96.6638 125.401C96.5707 124.99 96.4615 124.578 96.3232 124.168C95.6053 122.035 94.2571 120.283 94.0369 118.417C94.0217 118.287 94.0073 118.151 93.9945 118.017C93.7041 114.503 93.8937 110.874 94.1704 107.292C94.1998 106.938 94.2331 106.582 94.2695 106.234C94.4587 104.423 94.6374 102.622 95.2168 101.054C95.3281 100.758 95.4575 100.473 95.6078 100.212C96.7177 98.2729 97.9627 96.407 99.1971 94.4983C99.4581 94.0927 99.719 93.6822 99.9734 93.2666C101.013 91.5804 102.158 89.9154 103.263 88.221C104.187 86.7598 105.162 85.4086 105.865 83.6202C105.986 83.2567 106.093 82.8915 106.191 82.5271C106.685 80.7004 106.947 78.8561 107.464 77.1749C107.827 76.0066 108.116 74.8517 108.444 73.7178C108.843 72.3265 109.285 70.9621 109.854 69.6585C110.255 68.7413 110.666 67.8319 111.091 66.9257C111.747 65.5265 112.427 64.14 113.126 62.757C113.692 61.6216 114.409 60.5945 115.284 59.6759C115.848 59.0802 116.461 58.5246 117.1 57.9871C117.886 57.3265 118.687 56.6878 119.504 56.0627C121.201 54.7418 122.995 53.5515 124.667 52.0614C125.298 51.4851 125.893 50.8854 126.486 50.2949C127.724 49.0597 128.958 47.8513 130.348 46.8788C131.733 45.8994 132.958 44.7821 134.214 43.743C135.251 42.8913 136.315 42.0369 137.457 41.5496C138.045 41.3052 138.592 41.0108 139.121 40.715C140.352 40.0221 141.525 39.3189 142.789 38.9908C144.024 38.6611 145.193 38.2352 146.366 37.8521C147.068 37.6209 147.768 37.3987 148.471 37.2022C149.645 36.8749 150.831 36.6155 152.018 36.5267C153.65 36.4056 155.288 36.3055 156.928 36.1847C158.967 36.0365 161.003 35.8461 163.037 35.6195C165.112 35.3696 167.168 35.4962 169.28 35.7534C169.371 35.7634 169.463 35.7726 169.555 35.7809C172.406 36.023 175.176 35.4637 177.859 35.608C178.253 35.6381 178.644 35.6792 179.032 35.7383C180.776 36.133 182.9 36.4925 184.79 36.2614Z" fill="#389BC9"/>
<path d="M67.1218 67.3809C65.9145 68.2211 63.4937 69.8951 62.2712 72.4252C61.6977 73.6119 61.6614 75.7891 62.2621 78.6255C62.5748 80.1026 64.064 81.2535 64.9832 82.0021C70.3684 86.3879 82.2775 82.757 85.7145 82.438C90.7586 81.9698 98.052 82.3274 100.482 83.1708C101.692 83.5909 102.912 84.2226 104.022 85.167C106.176 86.9989 105.951 91.3611 105.348 94.5355C104.85 97.1516 103.731 99.5861 103.725 108.408C103.723 111.033 105.138 112.227 106.045 113.383C107.805 115.625 110.793 115.809 113.323 117.176C116.052 118.652 118.68 118.967 121.614 119.811C124.313 120.587 127.575 120.863 131.318 121.602C134.42 122.214 138.083 122.758 143.646 123.077C149.436 123.409 153.457 124.021 165.364 124.34C167.831 124.406 168.43 124.653 175.547 124.76C182.664 124.868 196.279 124.868 203.893 124.763C212.713 124.643 218.551 124.236 225.828 124.132C231.943 124.044 238.396 123.187 245.971 122.868C250.396 122.682 253.965 121.709 257.514 121.185C262.437 120.457 265.698 120.029 269.044 119.71C272.009 119.427 276.413 118.765 279.862 117.818C284.355 116.583 286.739 115.607 289.169 114.239C291.453 112.954 294.02 112.031 295.946 109.924C297.708 107.997 300.487 105.512 302.016 102.767C302.719 101.506 303.133 97.7352 302.932 92.6845C302.828 90.0622 301.318 88.8658 299.908 87.6055C296.743 84.7778 293.437 84.6522 289.9 83.2845C286.696 82.0455 283.329 82.1253 279.99 81.8063C276.225 81.4467 272.615 80.8618 265.368 80.1227C260.376 79.6136 250.943 80.0153 244.194 80.328C233.612 80.8183 228.92 81.9105 226.305 82.119C221.662 82.4891 212.593 84.4248 202.688 86.3199C194.989 87.7931 188.889 89.6933 178.393 92.4287C173.457 93.715 169.874 94.7471 163.713 96.3296C157.982 97.8015 148.652 99.8009 144.893 101.383C141.81 102.681 138.119 103.806 134.078 105.907C130.653 107.687 128.412 109.277 125.378 111.488C122.292 113.737 118.51 116.845 115.768 119.28C113.565 121.236 112.431 124.223 111.415 126.753C110.427 129.214 109.798 131.804 109.088 134.855C107.87 140.089 110.999 143.175 111.212 147.278C111.377 150.483 107.784 152.234 105.857 154.445C103.989 156.59 100.709 157.288 97.4726 158.242C92.209 159.793 89.5823 157.3 85.6417 157.294C84.701 157.293 84.1219 157.919 83.7123 158.447C81.5583 161.221 82.4959 166.549 81.0822 169.079C79.2621 171.4 77.442 172.455 76.2316 172.563C75.6218 172.462 75.0212 172.045 74.4024 170.983" stroke="#287AA3" stroke-width="1.87979" stroke-linecap="round"/>
<path d="M299.183 35.0044C299.183 34.6187 298.975 33.8414 298.867 32.6756C298.623 30.026 302.746 28.0034 305.491 26.3408C309.401 23.9722 316.859 26.0398 319.389 26.82C322.337 27.729 324.654 30.902 326.865 33.8239C329.003 36.6488 329.291 39.6678 329.297 45.4036C329.301 48.6568 326.36 50.3856 323.305 52.916C320.883 54.9226 317.73 55.8438 314.881 56.7204C311.52 57.7545 307.838 58.7657 304.249 59.0609C300.607 59.3604 295.633 60.1332 291.514 60.6183C288.091 61.0214 285.083 60.5248 279.233 60.2326C255.002 59.0222 252.031 59.1631 248.449 58.7716C243.876 58.2717 240.66 56.8256 236.867 55.4639C233.96 54.4207 231.601 53.3192 229.071 52.5391C226.353 51.7008 223.389 50.596 220.859 49.6171C218.031 48.523 213.711 48.0597 210.439 47.2795C206.175 46.2631 202.757 45.7221 199.488 44.942C196.806 44.3021 193.496 43.7703 187.722 43.2852C171.018 41.882 168.012 44.156 165.267 44.9361C162.528 45.7146 159.585 46.4935 157.055 47.3701C154.262 48.3378 152.004 49.9999 149.054 52.428C146.712 54.3552 146.729 56.621 146.622 57.7869C146.506 59.0428 147.986 60.1274 148.931 61.1968C150.988 63.5268 155.971 63.8266 160.504 64.1275C163.442 64.3226 165.877 62.2838 167.778 60.142C169.638 58.0472 170.097 55.4698 169.683 52.6442C169.302 50.0413 166.951 47.8727 164.635 46.0172C162.195 44.0616 159.585 43.3846 155.908 42.7008C151.299 41.8437 147.576 42.9872 146.315 43.7644C143.822 45.3022 141.897 47.4636 139.995 49.6054C137.659 52.2368 136.413 56.0308 135.045 58.3713C133.76 60.5708 132.838 63.0435 131.675 65.384C130.474 67.8029 129.464 70.0562 128.829 72.4931C128.002 75.6685 130.298 78.8221 131.77 81.1626C133.36 83.6902 135.769 85.8348 137.98 88.1753C140.212 90.5384 142.503 93.4319 144.404 95.7723C146.165 97.9393 146.306 101.602 145.573 104.538C144.914 107.179 140.848 109.012 138.103 110.484C135.614 111.82 132.219 112.144 128.735 113.211C125.999 114.048 123.577 115.837 119.578 119.531C116.756 122.137 116.198 124.989 115.25 127.522C113.69 131.693 114.505 136.092 115.557 138.337C116.713 140.804 119.761 142.135 122.291 143.599C124.65 144.964 127.759 146.226 131.028 147.205C133.852 148.05 136.817 148.762 139.556 149.446C143.031 150.313 145.662 150.515 148.192 151.295C150.91 152.134 153.874 152.853 156.508 153.729C159.746 154.807 162.086 156.359 164.616 157.624C165.241 157.937 165.877 158.112 166.303 158.501C168.117 160.154 168.201 162.974 168.52 168.225C168.794 172.724 169.465 178.169 170.308 180.509C171.152 182.85 172.409 185.181 174.724 186.455C177.197 187.816 179.775 188.886 182.829 189.865C185.445 190.704 187.987 191.423 190.621 192.203C193.985 193.199 197.463 193.176 216.247 193.278C223.377 193.317 228.417 192.404 230.947 191.624C233.453 190.852 235.366 188.512 237.792 186.856C240.217 185.199 240.85 182.283 241.693 179.942C242.536 177.602 243.377 175.27 243.696 172.445C243.98 169.925 245.272 167.287 246.115 164.748C246.898 162.39 248.216 160.076 250.322 156.28C251.748 153.712 252.852 151.31 254.429 148.873C256.367 145.876 258.74 143.713 260.954 141.18C264.095 137.587 267.786 135.531 271.27 133.869C274.001 132.566 277.06 131.628 280.219 130.848C284.728 129.734 290.326 130.646 292.856 132.008C295.389 133.371 297.49 134.924 298.652 137.264C299.897 139.771 301.495 141.936 303.491 143.792C305.618 145.768 306.966 148.365 309.281 150.124C311.546 151.844 316.416 151.883 320.125 151.012C324.036 150.093 324.869 146.635 325.712 144.198C326.209 142.764 326.139 141.369 325.614 140.204C325.298 139.616 324.882 139.038 324.354 138.643C323.827 138.249 323.201 138.056 321.293 137.857" stroke="#287AA3" stroke-width="1.87979" stroke-linecap="round"/>
<path d="M123.527 83.6565C122.459 73.574 130.292 64.7565 140.43 64.6284L207.458 63.7812H242.841C245.823 63.7812 248.755 64.5561 251.348 66.0298L253.152 67.0556C258.536 70.1154 261.862 75.8308 261.862 82.0233V190.572C261.862 200.081 254.154 207.789 244.646 207.789H182.236L152.162 207.789C143.356 207.789 135.969 201.143 135.042 192.386L123.527 83.6565Z" fill="#D8D8D8"/>
<rect x="115.672" y="67.4854" width="128.832" height="140.303" rx="17.2163" fill="white"/>
<rect x="126.544" y="77.4199" width="107.089" height="67.5411" rx="4.27732" fill="#D8D8D8"/>
<path d="M152.141 97.5957H147.258V86.821H152.492C153.813 86.8404 154.748 87.223 155.299 87.9686C155.631 88.4267 155.796 88.9749 155.796 89.6133C155.796 90.2712 155.631 90.8 155.299 91.1996C155.114 91.4237 154.841 91.6284 154.48 91.8136C155.031 92.0134 155.445 92.3302 155.723 92.7639C156.006 93.1976 156.147 93.7239 156.147 94.3428C156.147 94.9812 155.986 95.5538 155.665 96.0606C155.46 96.3969 155.204 96.6795 154.897 96.9086C154.551 97.1717 154.142 97.352 153.669 97.4495C153.201 97.547 152.692 97.5957 152.141 97.5957ZM152.09 92.8516H149.407V95.7244H152.054C152.526 95.7244 152.894 95.661 153.157 95.5343C153.635 95.3004 153.874 94.8521 153.874 94.1893C153.874 93.6289 153.642 93.2439 153.179 93.0343C152.921 92.9174 152.558 92.8565 152.09 92.8516ZM153.209 90.7975C153.501 90.6221 153.647 90.3078 153.647 89.8546C153.647 89.3526 153.452 89.0212 153.062 88.8604C152.726 88.7483 152.297 88.6923 151.776 88.6923H149.407V91.068H152.054C152.526 91.068 152.911 90.9778 153.209 90.7975ZM162.533 96.47C162.513 96.4943 162.464 96.5674 162.386 96.6893C162.309 96.8111 162.216 96.9183 162.109 97.0109C161.782 97.3033 161.465 97.5031 161.158 97.6103C160.856 97.7175 160.501 97.7711 160.091 97.7711C158.912 97.7711 158.118 97.3472 157.708 96.4992C157.479 96.0314 157.365 95.3418 157.365 94.4305V89.6279H159.499V94.4305C159.499 94.8837 159.553 95.2249 159.66 95.4539C159.85 95.8584 160.223 96.0606 160.778 96.0606C161.49 96.0606 161.977 95.7731 162.24 95.1981C162.377 94.8862 162.445 94.4744 162.445 93.9627V89.6279H164.558V97.5957H162.533V96.47ZM171.616 89.9934C172.239 90.393 172.598 91.0802 172.69 92.0548H170.607C170.578 91.7868 170.502 91.5748 170.38 91.4189C170.151 91.1362 169.761 90.9949 169.211 90.9949C168.757 90.9949 168.433 91.0656 168.238 91.2069C168.048 91.3482 167.953 91.5139 167.953 91.7039C167.953 91.9427 168.056 92.1157 168.26 92.2229C168.465 92.335 169.189 92.5275 170.431 92.8004C171.26 92.9954 171.881 93.2902 172.295 93.6849C172.705 94.0845 172.909 94.584 172.909 95.1834C172.909 95.9729 172.615 96.6186 172.025 97.1206C171.44 97.6176 170.534 97.8662 169.306 97.8662C168.053 97.8662 167.127 97.603 166.528 97.0767C165.933 96.5455 165.636 95.8706 165.636 95.0519H167.749C167.793 95.4222 167.888 95.6854 168.034 95.8413C168.292 96.1191 168.77 96.258 169.467 96.258C169.876 96.258 170.2 96.1971 170.439 96.0753C170.682 95.9534 170.804 95.7707 170.804 95.527C170.804 95.2931 170.707 95.1152 170.512 94.9934C170.317 94.8716 169.593 94.662 168.341 94.3647C167.439 94.1406 166.803 93.8604 166.433 93.5241C166.063 93.1927 165.877 92.7151 165.877 92.0914C165.877 91.3555 166.165 90.7244 166.74 90.1981C167.32 89.6669 168.134 89.4013 169.181 89.4013C170.176 89.4013 170.987 89.5987 171.616 89.9934ZM176.152 89.6279V97.5957H174.039V89.6279H176.152ZM176.152 86.7552V88.6777H174.039V86.7552H176.152ZM181.478 91.1703C180.771 91.1703 180.286 91.47 180.023 92.0694C179.886 92.3862 179.818 92.7907 179.818 93.2829V97.5957H177.742V89.6426H179.752V90.8048C180.02 90.3955 180.274 90.1007 180.513 89.9203C180.941 89.5987 181.485 89.4379 182.143 89.4379C182.966 89.4379 183.639 89.6547 184.16 90.0885C184.687 90.5173 184.95 91.2312 184.95 92.2303V97.5957H182.815V92.7493C182.815 92.3302 182.759 92.0085 182.647 91.7844C182.442 91.375 182.053 91.1703 181.478 91.1703ZM193.251 95.2565C193.197 95.7292 192.951 96.2093 192.512 96.6966C191.83 97.4714 190.875 97.8589 189.647 97.8589C188.633 97.8589 187.739 97.5324 186.964 96.8793C186.189 96.2263 185.802 95.164 185.802 93.6922C185.802 92.3131 186.15 91.2556 186.847 90.5197C187.549 89.7839 188.458 89.416 189.574 89.416C190.236 89.416 190.833 89.5402 191.365 89.7888C191.896 90.0373 192.334 90.4296 192.68 90.9657C192.992 91.4384 193.194 91.9866 193.287 92.6104C193.341 92.9759 193.363 93.5022 193.353 94.1893H187.9C187.929 94.9885 188.18 95.5489 188.653 95.8706C188.94 96.0704 189.286 96.1703 189.691 96.1703C190.119 96.1703 190.468 96.0484 190.736 95.8048C190.882 95.6732 191.011 95.4905 191.123 95.2565H193.251ZM191.189 92.815C191.155 92.2644 190.987 91.8477 190.685 91.5651C190.387 91.2775 190.017 91.1338 189.574 91.1338C189.091 91.1338 188.716 91.2848 188.448 91.587C188.185 91.8891 188.019 92.2985 187.951 92.815H191.189ZM199.804 89.9934C200.428 90.393 200.786 91.0802 200.879 92.0548H198.795C198.766 91.7868 198.691 91.5748 198.569 91.4189C198.34 91.1362 197.95 90.9949 197.399 90.9949C196.946 90.9949 196.622 91.0656 196.427 91.2069C196.237 91.3482 196.142 91.5139 196.142 91.7039C196.142 91.9427 196.244 92.1157 196.449 92.2229C196.654 92.335 197.377 92.5275 198.62 92.8004C199.449 92.9954 200.07 93.2902 200.484 93.6849C200.893 94.0845 201.098 94.584 201.098 95.1834C201.098 95.9729 200.803 96.6186 200.214 97.1206C199.629 97.6176 198.722 97.8662 197.494 97.8662C196.242 97.8662 195.316 97.603 194.717 97.0767C194.122 96.5455 193.825 95.8706 193.825 95.0519H195.937C195.981 95.4222 196.076 95.6854 196.222 95.8413C196.481 96.1191 196.958 96.258 197.655 96.258C198.065 96.258 198.389 96.1971 198.627 96.0753C198.871 95.9534 198.993 95.7707 198.993 95.527C198.993 95.2931 198.895 95.1152 198.7 94.9934C198.506 94.8716 197.782 94.662 196.529 94.3647C195.628 94.1406 194.992 93.8604 194.622 93.5241C194.251 93.1927 194.066 92.7151 194.066 92.0914C194.066 91.3555 194.354 90.7244 194.929 90.1981C195.508 89.6669 196.322 89.4013 197.37 89.4013C198.364 89.4013 199.176 89.5987 199.804 89.9934ZM207.688 89.9934C208.312 90.393 208.67 91.0802 208.763 92.0548H206.68C206.65 91.7868 206.575 91.5748 206.453 91.4189C206.224 91.1362 205.834 90.9949 205.283 90.9949C204.83 90.9949 204.506 91.0656 204.311 91.2069C204.121 91.3482 204.026 91.5139 204.026 91.7039C204.026 91.9427 204.128 92.1157 204.333 92.2229C204.538 92.335 205.262 92.5275 206.504 92.8004C207.333 92.9954 207.954 93.2902 208.368 93.6849C208.778 94.0845 208.982 94.584 208.982 95.1834C208.982 95.9729 208.687 96.6186 208.098 97.1206C207.513 97.6176 206.607 97.8662 205.378 97.8662C204.126 97.8662 203.2 97.603 202.601 97.0767C202.006 96.5455 201.709 95.8706 201.709 95.0519H203.821C203.865 95.4222 203.96 95.6854 204.107 95.8413C204.365 96.1191 204.842 96.258 205.539 96.258C205.949 96.258 206.273 96.1971 206.511 96.0753C206.755 95.9534 206.877 95.7707 206.877 95.527C206.877 95.2931 206.78 95.1152 206.585 94.9934C206.39 94.8716 205.666 94.662 204.414 94.3647C203.512 94.1406 202.876 93.8604 202.506 93.5241C202.135 93.1927 201.95 92.7151 201.95 92.0914C201.95 91.3555 202.238 90.7244 202.813 90.1981C203.393 89.6669 204.206 89.4013 205.254 89.4013C206.248 89.4013 207.06 89.5987 207.688 89.9934ZM209.454 92.4349H213.65V94.4086H209.454V92.4349ZM165.001 115.792C164.197 116.527 163.169 116.895 161.917 116.895C160.367 116.895 159.149 116.398 158.262 115.404C157.375 114.405 156.931 113.036 156.931 111.296C156.931 109.415 157.436 107.965 158.444 106.947C159.322 106.06 160.438 105.616 161.792 105.616C163.605 105.616 164.931 106.211 165.769 107.4C166.232 108.068 166.48 108.738 166.515 109.41H164.263C164.117 108.894 163.929 108.504 163.7 108.241C163.291 107.773 162.684 107.539 161.88 107.539C161.061 107.539 160.416 107.87 159.943 108.533C159.47 109.191 159.234 110.124 159.234 111.333C159.234 112.541 159.482 113.448 159.979 114.052C160.481 114.651 161.117 114.951 161.887 114.951C162.677 114.951 163.279 114.693 163.693 114.176C163.922 113.898 164.112 113.482 164.263 112.926H166.493C166.298 114.101 165.801 115.056 165.001 115.792ZM171.606 110.55C170.768 110.55 170.205 110.823 169.918 111.369C169.757 111.676 169.676 112.149 169.676 112.787V116.596H167.579V108.628H169.567V110.017C169.888 109.486 170.169 109.123 170.407 108.928C170.797 108.601 171.304 108.438 171.928 108.438C171.967 108.438 171.999 108.44 172.023 108.445C172.052 108.445 172.113 108.448 172.206 108.453V110.587C172.074 110.572 171.957 110.563 171.855 110.558C171.752 110.553 171.67 110.55 171.606 110.55ZM175.126 108.628V116.596H173.014V108.628H175.126ZM175.126 105.755V107.678H173.014V105.755H175.126ZM180.35 115.112V116.669L179.363 116.705C178.379 116.739 177.706 116.569 177.345 116.194C177.111 115.955 176.995 115.587 176.995 115.09V110.185H175.883V108.701H176.995V106.479H179.056V108.701H180.35V110.185H179.056V114.395C179.056 114.722 179.097 114.927 179.18 115.009C179.263 115.087 179.516 115.126 179.94 115.126C180.004 115.126 180.07 115.126 180.138 115.126C180.211 115.122 180.282 115.117 180.35 115.112ZM183.38 108.628V116.596H181.268V108.628H183.38ZM183.38 105.755V107.678H181.268V105.755H183.38ZM191.849 111.486H189.715C189.676 111.189 189.576 110.921 189.415 110.682C189.181 110.36 188.818 110.2 188.326 110.2C187.624 110.2 187.144 110.548 186.886 111.245C186.749 111.615 186.681 112.107 186.681 112.721C186.681 113.306 186.749 113.777 186.886 114.132C187.134 114.795 187.602 115.126 188.289 115.126C188.776 115.126 189.122 114.995 189.327 114.732C189.532 114.469 189.656 114.127 189.7 113.708H191.827C191.778 114.342 191.549 114.941 191.14 115.507C190.487 116.418 189.52 116.873 188.238 116.873C186.956 116.873 186.013 116.493 185.409 115.733C184.805 114.973 184.503 113.986 184.503 112.773C184.503 111.403 184.836 110.338 185.504 109.578C186.172 108.818 187.093 108.438 188.267 108.438C189.266 108.438 190.083 108.662 190.716 109.11C191.354 109.559 191.732 110.351 191.849 111.486ZM193.14 109.491C193.69 108.789 194.636 108.438 195.976 108.438C196.848 108.438 197.623 108.611 198.3 108.957C198.978 109.303 199.317 109.956 199.317 110.916V114.571C199.317 114.824 199.321 115.131 199.331 115.492C199.346 115.765 199.387 115.95 199.455 116.047C199.524 116.145 199.626 116.225 199.762 116.289V116.596H197.496C197.433 116.435 197.389 116.284 197.365 116.142C197.34 116.001 197.321 115.84 197.306 115.66C197.019 115.972 196.687 116.238 196.312 116.457C195.864 116.715 195.357 116.844 194.792 116.844C194.07 116.844 193.474 116.64 193.001 116.23C192.533 115.816 192.299 115.231 192.299 114.476C192.299 113.496 192.677 112.787 193.432 112.349C193.846 112.11 194.455 111.939 195.26 111.837L195.969 111.749C196.354 111.701 196.629 111.64 196.795 111.567C197.092 111.44 197.241 111.242 197.241 110.974C197.241 110.648 197.126 110.424 196.897 110.302C196.673 110.175 196.341 110.112 195.903 110.112C195.411 110.112 195.062 110.234 194.858 110.477C194.711 110.658 194.614 110.901 194.565 111.208H192.555C192.599 110.511 192.794 109.939 193.14 109.491ZM194.689 115.09C194.884 115.251 195.123 115.331 195.406 115.331C195.854 115.331 196.266 115.2 196.641 114.936C197.021 114.673 197.219 114.193 197.233 113.496V112.721C197.102 112.804 196.968 112.873 196.831 112.926C196.7 112.975 196.517 113.021 196.283 113.065L195.815 113.153C195.377 113.231 195.062 113.326 194.872 113.438C194.551 113.628 194.39 113.923 194.39 114.322C194.39 114.678 194.49 114.934 194.689 115.09ZM200.768 105.821H202.851V116.596H200.768V105.821ZM169.483 133.381H165.514L164.768 135.596H162.415L166.26 124.821H168.803L172.619 135.596H170.178L169.483 133.381ZM168.855 131.524L167.51 127.284L166.121 131.524H168.855ZM180.05 128.483C180.693 129.17 181.015 130.179 181.015 131.509C181.015 132.913 180.698 133.983 180.065 134.719C179.436 135.454 178.625 135.822 177.63 135.822C176.997 135.822 176.471 135.664 176.052 135.347C175.823 135.172 175.598 134.916 175.379 134.58V138.732H173.318V127.628H175.313V128.805C175.537 128.459 175.776 128.186 176.03 127.986C176.493 127.63 177.043 127.453 177.682 127.453C178.612 127.453 179.402 127.796 180.05 128.483ZM178.866 131.612C178.866 130.998 178.725 130.454 178.442 129.982C178.164 129.509 177.711 129.273 177.082 129.273C176.327 129.273 175.808 129.631 175.525 130.347C175.379 130.727 175.306 131.21 175.306 131.795C175.306 132.72 175.552 133.371 176.044 133.746C176.337 133.966 176.683 134.075 177.082 134.075C177.662 134.075 178.103 133.851 178.405 133.403C178.712 132.954 178.866 132.357 178.866 131.612ZM188.753 128.483C189.396 129.17 189.718 130.179 189.718 131.509C189.718 132.913 189.401 133.983 188.768 134.719C188.139 135.454 187.327 135.822 186.333 135.822C185.7 135.822 185.173 135.664 184.754 135.347C184.525 135.172 184.301 134.916 184.082 134.58V138.732H182.021V127.628H184.016V128.805C184.24 128.459 184.479 128.186 184.732 127.986C185.195 127.63 185.746 127.453 186.384 127.453C187.315 127.453 188.105 127.796 188.753 128.483ZM187.569 131.612C187.569 130.998 187.427 130.454 187.145 129.982C186.867 129.509 186.414 129.273 185.785 129.273C185.03 129.273 184.511 129.631 184.228 130.347C184.082 130.727 184.009 131.21 184.009 131.795C184.009 132.72 184.255 133.371 184.747 133.746C185.039 133.966 185.385 134.075 185.785 134.075C186.365 134.075 186.806 133.851 187.108 133.403C187.415 132.954 187.569 132.357 187.569 131.612ZM196.272 127.993C196.895 128.393 197.253 129.08 197.346 130.055H195.263C195.234 129.787 195.158 129.575 195.036 129.419C194.807 129.136 194.417 128.995 193.867 128.995C193.413 128.995 193.089 129.066 192.894 129.207C192.704 129.348 192.609 129.514 192.609 129.704C192.609 129.943 192.712 130.116 192.916 130.223C193.121 130.335 193.845 130.528 195.087 130.8C195.916 130.995 196.537 131.29 196.951 131.685C197.361 132.085 197.565 132.584 197.565 133.183C197.565 133.973 197.271 134.619 196.681 135.121C196.096 135.618 195.19 135.866 193.962 135.866C192.709 135.866 191.783 135.603 191.184 135.077C190.589 134.546 190.292 133.871 190.292 133.052H192.405C192.448 133.422 192.544 133.685 192.69 133.841C192.948 134.119 193.426 134.258 194.122 134.258C194.532 134.258 194.856 134.197 195.095 134.075C195.338 133.953 195.46 133.771 195.46 133.527C195.46 133.293 195.363 133.115 195.168 132.993C194.973 132.872 194.249 132.662 192.997 132.365C192.095 132.141 191.459 131.86 191.089 131.524C190.718 131.193 190.533 130.715 190.533 130.091C190.533 129.356 190.821 128.724 191.396 128.198C191.976 127.667 192.79 127.401 193.837 127.401C194.831 127.401 195.643 127.599 196.272 127.993Z" fill="#111827"/>
<path d="M192.192 180.735C192.192 187.525 186.688 193.029 179.898 193.029C173.108 193.029 167.604 187.525 167.604 180.735C167.604 173.945 173.108 168.44 179.898 168.44C186.688 168.44 192.192 173.945 192.192 180.735Z" fill="#49728B" stroke="#49728B" stroke-width="1.84412" stroke-linecap="round" stroke-linejoin="round"/>
<path d="M179.897 181.965C180.549 181.965 181.175 181.705 181.636 181.244C182.097 180.783 182.356 180.158 182.356 179.506C182.356 178.854 182.097 178.228 181.636 177.767C181.175 177.306 180.549 177.047 179.897 177.047C179.245 177.047 178.62 177.306 178.159 177.767C177.698 178.228 177.438 178.854 177.438 179.506C177.438 180.158 177.698 180.783 178.159 181.244C178.62 181.705 179.245 181.965 179.897 181.965ZM179.897 181.965V185.653" stroke="white" stroke-width="1.84412" stroke-linecap="round" stroke-linejoin="round"/>
<rect x="-2.27065" y="-0.232226" width="9.22841" height="3.5289" rx="1.76445" transform="matrix(-0.821357 0.563237 -0.692406 -0.718054 261.416 113.986)" stroke="#49728B" stroke-width="3"/>
<rect x="-1.62467" y="1.05197" width="11.3499" height="2.54394" rx="1.27197" transform="matrix(-0.287812 0.953429 -0.989471 -0.12639 257.237 117.295)" stroke="#49728B" stroke-width="2.54394"/>
<rect x="-2.28148" y="0.617314" width="12.1418" height="5.43063" rx="2.71532" transform="matrix(-0.602198 0.787188 -0.918787 -0.375645 254.92 127.181)" stroke="#49728B" stroke-width="3"/>
<rect x="-1.83184" y="0.495652" width="12.7331" height="2.40875" rx="1.20438" transform="matrix(-0.602198 0.787188 -0.918787 -0.375645 248.087 133.542)" stroke="#49728B" stroke-width="2.40875"/>
<rect x="-2.36186" y="-0.0884704" width="13.4598" height="4.75557" rx="2.37779" transform="matrix(-0.810785 0.572631 -0.763789 -0.631611 241.901 142.24)" stroke="#49728B" stroke-width="3"/>
<rect x="-1.74453" y="-0.0653466" width="14.2439" height="2.21588" rx="1.10794" transform="matrix(-0.810785 0.572631 -0.763789 -0.631611 233.304 146.853)" stroke="#49728B" stroke-width="2.21588"/>
<rect x="-2.14582" y="-0.777955" width="14.3836" height="4.11637" rx="2.05818" transform="matrix(-0.935709 0.345654 -0.494838 -0.864291 224.037 153.57)" stroke="#49728B" stroke-width="3"/>
<rect x="-1.45433" y="-0.527259" width="15.3504" height="2.03325" rx="1.01662" transform="matrix(-0.935709 0.345654 -0.494838 -0.864291 214.43 156.29)" stroke="#49728B" stroke-width="2.03325"/>
<rect x="205.063" y="161.657" width="14.7082" height="3.84464" rx="1.92232" transform="rotate(173.502 205.063 161.657)" stroke="#49728B" stroke-width="3"/>
<rect x="194.318" y="161.929" width="15.7526" height="1.95561" rx="0.977805" transform="rotate(173.502 194.318 161.929)" stroke="#49728B" stroke-width="1.95561"/>
<rect x="179.033" y="169.454" width="10.4928" height="1.95561" rx="0.977805" transform="rotate(-86.3293 179.033 169.454)" stroke="#49728B" stroke-width="1.95561"/>
<rect x="-1.05249" y="-1.61973" width="14.3836" height="4.11637" rx="2.05818" transform="matrix(-0.989471 -0.12639 0.287812 -0.95343 181.205 162.986)" stroke="#49728B" stroke-width="3"/>
<rect x="-0.713324" y="-1.09777" width="15.3504" height="2.03325" rx="1.01662" transform="matrix(-0.989471 -0.12639 0.287812 -0.95343 171.26 161.202)" stroke="#49728B" stroke-width="2.03325"/>
<rect x="-0.474883" y="-1.74425" width="13.4598" height="4.75557" rx="2.37779" transform="matrix(-0.918787 -0.375645 0.602198 -0.787188 159.379 160.568)" stroke="#49728B" stroke-width="3"/>
<rect x="-0.350761" y="-1.28835" width="14.2439" height="2.21588" rx="1.10794" transform="matrix(-0.918787 -0.375645 0.602198 -0.787188 150.753 156.2)" stroke="#49728B" stroke-width="2.21588"/>
<rect x="0.0704919" y="-1.80635" width="12.1418" height="5.43063" rx="2.71532" transform="matrix(-0.763795 -0.631608 0.81079 -0.572627 139.842 153.161)" stroke="#49728B" stroke-width="3"/>
<rect x="0.0566005" y="-1.45036" width="12.7331" height="2.40875" rx="1.20438" transform="matrix(-0.763789 -0.631612 0.810785 -0.572631 133.66 146.614)" stroke="#49728B" stroke-width="2.40875"/>
<rect x="0.661302" y="-1.81491" width="10.8939" height="5.90381" rx="2.75135" transform="matrix(-0.494843 -0.864291 0.935711 -0.345652 124.617 141.471)" stroke="#49728B" stroke-width="3"/>
<rect x="0.323332" y="-1.60578" width="11.35" height="2.54395" rx="1.27197" transform="matrix(-0.619001 -0.780194 0.873198 -0.482238 122.034 133.469)" stroke="#49728B" stroke-width="2.54395"/>
<path d="M243.436 164.281H275.707C276.925 164.452 277.344 164.676 278.303 165.551L289.002 175.757C289.529 176.358 289.946 177.071 290.231 177.856C290.515 178.641 290.661 179.482 290.661 180.331V218.125C290.661 219.838 290.064 221.482 289.001 222.693C287.938 223.905 286.497 224.586 284.994 224.586H243.436C241.933 224.586 240.492 223.905 239.429 222.693C238.367 221.482 237.77 219.838 237.77 218.125V170.742C237.77 169.029 238.367 167.385 239.429 166.173C240.492 164.962 241.933 164.281 243.436 164.281Z" fill="#FFDE5C"/>
<path d="M290.641 179.784H277.081C276.721 179.784 276.376 179.636 276.121 179.372C275.867 179.107 275.724 178.749 275.724 178.375V164.302C276.687 164.382 277.592 164.815 278.275 165.524L289.468 175.791C290.151 176.499 290.591 178.714 290.641 179.784Z" fill="#FFCF0D"/>
<path d="M244.629 186.278H246.434V193.362H250.711V194.915H244.629V186.278ZM256.937 193.04C256.894 193.419 256.697 193.804 256.345 194.194C255.798 194.815 255.033 195.126 254.048 195.126C253.236 195.126 252.519 194.864 251.898 194.341C251.277 193.817 250.966 192.966 250.966 191.786C250.966 190.681 251.245 189.833 251.804 189.243C252.367 188.653 253.095 188.358 253.99 188.358C254.521 188.358 254.999 188.458 255.425 188.657C255.851 188.856 256.202 189.171 256.48 189.601C256.73 189.979 256.892 190.419 256.966 190.919C257.009 191.212 257.027 191.634 257.019 192.185H252.648C252.671 192.825 252.872 193.274 253.251 193.532C253.482 193.692 253.759 193.772 254.083 193.772C254.427 193.772 254.706 193.675 254.921 193.479C255.038 193.374 255.142 193.228 255.232 193.04H256.937ZM255.285 191.083C255.257 190.642 255.122 190.308 254.88 190.081C254.642 189.851 254.345 189.735 253.99 189.735C253.603 189.735 253.302 189.856 253.087 190.099C252.876 190.341 252.744 190.669 252.689 191.083H255.285ZM259.594 196.034C259.774 196.187 260.077 196.263 260.503 196.263C261.104 196.263 261.507 196.062 261.71 195.659C261.842 195.401 261.909 194.968 261.909 194.358V193.948C261.749 194.222 261.577 194.427 261.393 194.563C261.061 194.817 260.63 194.944 260.098 194.944C259.278 194.944 258.622 194.657 258.13 194.083C257.641 193.505 257.397 192.724 257.397 191.739C257.397 190.79 257.634 189.993 258.106 189.349C258.579 188.7 259.249 188.376 260.116 188.376C260.436 188.376 260.716 188.425 260.954 188.522C261.36 188.69 261.688 188.999 261.938 189.448V188.528H263.561V194.587C263.561 195.411 263.423 196.032 263.145 196.45C262.669 197.169 261.755 197.528 260.403 197.528C259.587 197.528 258.921 197.368 258.405 197.048C257.889 196.728 257.604 196.249 257.55 195.612H259.366C259.413 195.808 259.489 195.948 259.594 196.034ZM259.313 192.735C259.54 193.274 259.946 193.544 260.532 193.544C260.923 193.544 261.253 193.397 261.522 193.104C261.792 192.808 261.926 192.337 261.926 191.692C261.926 191.087 261.798 190.626 261.54 190.31C261.286 189.993 260.944 189.835 260.514 189.835C259.928 189.835 259.524 190.11 259.301 190.661C259.184 190.954 259.126 191.315 259.126 191.745C259.126 192.116 259.188 192.446 259.313 192.735ZM265.006 189.22C265.447 188.657 266.205 188.376 267.279 188.376C267.979 188.376 268.6 188.515 269.143 188.792C269.686 189.069 269.957 189.593 269.957 190.362V193.292C269.957 193.495 269.961 193.741 269.969 194.03C269.981 194.249 270.014 194.397 270.068 194.476C270.123 194.554 270.205 194.618 270.315 194.669V194.915H268.498C268.447 194.786 268.412 194.665 268.393 194.552C268.373 194.438 268.358 194.31 268.346 194.165C268.115 194.415 267.85 194.628 267.549 194.804C267.19 195.011 266.783 195.114 266.33 195.114C265.752 195.114 265.274 194.95 264.895 194.622C264.52 194.29 264.332 193.821 264.332 193.216C264.332 192.431 264.635 191.862 265.24 191.511C265.572 191.319 266.061 191.183 266.705 191.101L267.274 191.03C267.582 190.991 267.803 190.942 267.936 190.884C268.174 190.782 268.293 190.624 268.293 190.409C268.293 190.147 268.201 189.968 268.018 189.87C267.838 189.769 267.572 189.718 267.221 189.718C266.826 189.718 266.547 189.815 266.383 190.011C266.266 190.155 266.188 190.351 266.149 190.597H264.537C264.572 190.038 264.729 189.579 265.006 189.22ZM266.248 193.708C266.404 193.837 266.596 193.901 266.822 193.901C267.182 193.901 267.512 193.796 267.813 193.585C268.117 193.374 268.275 192.989 268.287 192.431V191.81C268.182 191.876 268.074 191.931 267.965 191.974C267.859 192.013 267.713 192.05 267.525 192.085L267.15 192.155C266.799 192.218 266.547 192.294 266.395 192.384C266.137 192.536 266.008 192.772 266.008 193.093C266.008 193.378 266.088 193.583 266.248 193.708ZM276.611 190.819H274.9C274.869 190.581 274.789 190.366 274.66 190.175C274.472 189.917 274.181 189.788 273.787 189.788C273.224 189.788 272.839 190.067 272.632 190.626C272.523 190.923 272.468 191.317 272.468 191.81C272.468 192.278 272.523 192.655 272.632 192.94C272.831 193.472 273.206 193.737 273.757 193.737C274.148 193.737 274.425 193.632 274.589 193.421C274.753 193.21 274.853 192.937 274.888 192.601H276.593C276.554 193.108 276.371 193.589 276.042 194.042C275.519 194.772 274.744 195.138 273.716 195.138C272.689 195.138 271.933 194.833 271.449 194.224C270.964 193.614 270.722 192.823 270.722 191.851C270.722 190.753 270.99 189.899 271.525 189.29C272.06 188.681 272.798 188.376 273.74 188.376C274.54 188.376 275.195 188.556 275.703 188.915C276.214 189.274 276.517 189.909 276.611 190.819ZM280.001 193.239L281.319 188.528H283.095L280.903 194.81C280.481 196.021 280.147 196.771 279.901 197.06C279.655 197.353 279.163 197.499 278.425 197.499C278.276 197.499 278.157 197.497 278.067 197.493C277.977 197.493 277.843 197.487 277.663 197.476V196.14L277.874 196.151C278.038 196.159 278.194 196.153 278.343 196.134C278.491 196.114 278.616 196.069 278.718 195.999C278.815 195.933 278.905 195.794 278.987 195.583C279.073 195.372 279.108 195.243 279.093 195.196L276.749 188.528H278.606L280.001 193.239ZM250.723 209.271C250.078 209.86 249.254 210.155 248.25 210.155C247.008 210.155 246.031 209.757 245.32 208.96C244.609 208.159 244.254 207.062 244.254 205.667C244.254 204.159 244.658 202.997 245.467 202.181C246.17 201.47 247.064 201.114 248.15 201.114C249.604 201.114 250.666 201.591 251.338 202.544C251.709 203.079 251.908 203.616 251.936 204.155H250.131C250.014 203.741 249.863 203.429 249.68 203.218C249.352 202.843 248.865 202.655 248.221 202.655C247.564 202.655 247.047 202.921 246.668 203.452C246.289 203.979 246.1 204.728 246.1 205.696C246.1 206.665 246.299 207.392 246.697 207.876C247.1 208.356 247.609 208.597 248.227 208.597C248.859 208.597 249.342 208.39 249.674 207.976C249.857 207.753 250.01 207.419 250.131 206.974H251.918C251.762 207.915 251.363 208.681 250.723 209.271ZM258.132 204.337C258.671 205.013 258.941 205.812 258.941 206.733C258.941 207.671 258.671 208.474 258.132 209.142C257.593 209.806 256.775 210.138 255.677 210.138C254.579 210.138 253.761 209.806 253.222 209.142C252.683 208.474 252.413 207.671 252.413 206.733C252.413 205.812 252.683 205.013 253.222 204.337C253.761 203.661 254.579 203.323 255.677 203.323C256.775 203.323 257.593 203.661 258.132 204.337ZM255.671 204.735C255.183 204.735 254.806 204.909 254.54 205.257C254.279 205.601 254.148 206.093 254.148 206.733C254.148 207.374 254.279 207.868 254.54 208.216C254.806 208.563 255.183 208.737 255.671 208.737C256.16 208.737 256.535 208.563 256.796 208.216C257.058 207.868 257.189 207.374 257.189 206.733C257.189 206.093 257.058 205.601 256.796 205.257C256.535 204.909 256.16 204.735 255.671 204.735ZM265.594 201.29V209.915H263.971V209.03C263.733 209.409 263.462 209.685 263.157 209.856C262.852 210.028 262.473 210.114 262.02 210.114C261.274 210.114 260.645 209.813 260.134 209.212C259.626 208.606 259.372 207.831 259.372 206.886C259.372 205.796 259.622 204.938 260.122 204.313C260.626 203.688 261.298 203.376 262.137 203.376C262.524 203.376 262.868 203.462 263.169 203.634C263.469 203.802 263.714 204.036 263.901 204.337V201.29H265.594ZM261.094 206.763C261.094 207.353 261.212 207.823 261.446 208.175C261.676 208.53 262.028 208.708 262.501 208.708C262.973 208.708 263.333 208.532 263.579 208.181C263.825 207.829 263.948 207.374 263.948 206.815C263.948 206.034 263.751 205.476 263.356 205.14C263.114 204.937 262.833 204.835 262.512 204.835C262.024 204.835 261.665 205.021 261.434 205.392C261.208 205.759 261.094 206.216 261.094 206.763ZM272.225 208.04C272.182 208.419 271.984 208.804 271.633 209.194C271.086 209.815 270.32 210.126 269.336 210.126C268.524 210.126 267.807 209.864 267.186 209.341C266.565 208.817 266.254 207.966 266.254 206.786C266.254 205.681 266.533 204.833 267.092 204.243C267.654 203.653 268.383 203.358 269.277 203.358C269.809 203.358 270.287 203.458 270.713 203.657C271.139 203.856 271.49 204.171 271.768 204.601C272.018 204.979 272.18 205.419 272.254 205.919C272.297 206.212 272.315 206.634 272.307 207.185H267.936C267.959 207.825 268.16 208.274 268.539 208.532C268.77 208.692 269.047 208.772 269.371 208.772C269.715 208.772 269.994 208.675 270.209 208.479C270.326 208.374 270.43 208.228 270.52 208.04H272.225ZM270.572 206.083C270.545 205.642 270.41 205.308 270.168 205.081C269.93 204.851 269.633 204.735 269.277 204.735C268.891 204.735 268.59 204.856 268.375 205.099C268.164 205.341 268.031 205.669 267.977 206.083H270.572Z" fill="#111827"/>
<path d="M270.875 49.9512H300.273C301.384 50.1074 301.765 50.311 302.639 51.1082L312.386 60.4058C312.866 60.9532 313.246 61.603 313.505 62.3181C313.764 63.0332 313.897 63.7995 313.897 64.5733V99.0034C313.897 100.565 313.353 102.062 312.385 103.166C311.416 104.269 310.103 104.89 308.734 104.89H270.875C269.506 104.89 268.193 104.269 267.224 103.166C266.256 102.062 265.712 100.565 265.712 99.0034V55.8374C265.712 54.2763 266.256 52.7791 267.224 51.6752C268.193 50.5713 269.506 49.9512 270.875 49.9512Z" fill="#FFDE5C"/>
<path d="M313.879 64.0752H301.526C301.198 64.0752 300.883 63.94 300.651 63.6993C300.419 63.4586 300.289 63.1322 300.289 62.7918V49.9704C301.167 50.0436 301.991 50.4385 302.614 51.0844L312.81 60.437C313.433 61.0826 313.834 63.1 313.879 64.0752Z" fill="#FFCF0D"/>
<path d="M277.411 78.6602H273.69V70.0234H277.411C277.946 70.0312 278.391 70.0938 278.747 70.2109C279.352 70.4102 279.842 70.7754 280.217 71.3066C280.518 71.7363 280.723 72.2012 280.833 72.7012C280.942 73.2012 280.997 73.6777 280.997 74.1309C280.997 75.2793 280.766 76.252 280.305 77.0488C279.68 78.123 278.715 78.6602 277.411 78.6602ZM278.752 72.2266C278.475 71.7578 277.926 71.5234 277.106 71.5234H275.442V77.1602H277.106C277.958 77.1602 278.551 76.7402 278.887 75.9004C279.071 75.4395 279.163 74.8906 279.163 74.2539C279.163 73.375 279.026 72.6992 278.752 72.2266ZM287.193 73.082C287.732 73.7578 288.002 74.5566 288.002 75.4785C288.002 76.416 287.732 77.2188 287.193 77.8867C286.654 78.5508 285.836 78.8828 284.738 78.8828C283.64 78.8828 282.822 78.5508 282.283 77.8867C281.744 77.2188 281.474 76.416 281.474 75.4785C281.474 74.5566 281.744 73.7578 282.283 73.082C282.822 72.4062 283.64 72.0684 284.738 72.0684C285.836 72.0684 286.654 72.4062 287.193 73.082ZM284.732 73.4805C284.244 73.4805 283.867 73.6543 283.601 74.002C283.34 74.3457 283.209 74.8379 283.209 75.4785C283.209 76.1191 283.34 76.6133 283.601 76.9609C283.867 77.3086 284.244 77.4824 284.732 77.4824C285.221 77.4824 285.596 77.3086 285.857 76.9609C286.119 76.6133 286.25 76.1191 286.25 75.4785C286.25 74.8379 286.119 74.3457 285.857 74.002C285.596 73.6543 285.221 73.4805 284.732 73.4805ZM291.849 73.5098C291.282 73.5098 290.894 73.75 290.683 74.2305C290.573 74.4844 290.519 74.8086 290.519 75.2031V78.6602H288.855V72.2852H290.466V73.2168C290.681 72.8887 290.884 72.6523 291.075 72.5078C291.419 72.25 291.855 72.1211 292.382 72.1211C293.042 72.1211 293.581 72.2949 293.999 72.6426C294.421 72.9863 294.632 73.5586 294.632 74.3594V78.6602H292.921V74.7754C292.921 74.4395 292.876 74.1816 292.786 74.002C292.622 73.6738 292.31 73.5098 291.849 73.5098ZM295.62 70.0234H297.219L296.926 73.5918H295.913L295.62 70.0234ZM301.242 77.4707V78.7188L300.451 78.748C299.662 78.7754 299.123 78.6387 298.834 78.3379C298.646 78.1465 298.553 77.8516 298.553 77.4531V73.5215H297.662V72.332H298.553V70.5508H300.205V72.332H301.242V73.5215H300.205V76.8965C300.205 77.1582 300.238 77.3223 300.305 77.3887C300.371 77.4512 300.574 77.4824 300.914 77.4824C300.965 77.4824 301.018 77.4824 301.072 77.4824C301.131 77.4785 301.187 77.4746 301.242 77.4707ZM279.965 85.0234V86.5527H277.381V93.6602H275.565V86.5527H272.969V85.0234H279.965ZM284.967 88.082C285.506 88.7578 285.775 89.5566 285.775 90.4785C285.775 91.416 285.506 92.2188 284.967 92.8867C284.428 93.5508 283.609 93.8828 282.512 93.8828C281.414 93.8828 280.596 93.5508 280.057 92.8867C279.517 92.2188 279.248 91.416 279.248 90.4785C279.248 89.5566 279.517 88.7578 280.057 88.082C280.596 87.4062 281.414 87.0684 282.512 87.0684C283.609 87.0684 284.428 87.4062 284.967 88.082ZM282.506 88.4805C282.017 88.4805 281.64 88.6543 281.375 89.002C281.113 89.3457 280.982 89.8379 280.982 90.4785C280.982 91.1191 281.113 91.6133 281.375 91.9609C281.64 92.3086 282.017 92.4824 282.506 92.4824C282.994 92.4824 283.369 92.3086 283.631 91.9609C283.892 91.6133 284.023 91.1191 284.023 90.4785C284.023 89.8379 283.892 89.3457 283.631 89.002C283.369 88.6543 282.994 88.4805 282.506 88.4805ZM290.712 92.7578C290.697 92.7773 290.657 92.8359 290.595 92.9336C290.532 93.0312 290.458 93.1172 290.372 93.1914C290.111 93.4258 289.857 93.5859 289.611 93.6719C289.368 93.7578 289.083 93.8008 288.755 93.8008C287.81 93.8008 287.173 93.4609 286.845 92.7812C286.661 92.4062 286.57 91.8535 286.57 91.123V87.2734H288.28V91.123C288.28 91.4863 288.323 91.7598 288.409 91.9434C288.562 92.2676 288.861 92.4297 289.306 92.4297C289.876 92.4297 290.267 92.1992 290.478 91.7383C290.587 91.4883 290.642 91.1582 290.642 90.748V87.2734H292.335V93.6602H290.712V92.7578ZM299.118 89.5645H297.407C297.376 89.3262 297.295 89.1113 297.167 88.9199C296.979 88.6621 296.688 88.5332 296.294 88.5332C295.731 88.5332 295.346 88.8125 295.139 89.3711C295.03 89.668 294.975 90.0625 294.975 90.5547C294.975 91.0234 295.03 91.4004 295.139 91.6855C295.338 92.2168 295.713 92.4824 296.264 92.4824C296.655 92.4824 296.932 92.377 297.096 92.166C297.26 91.9551 297.36 91.6816 297.395 91.3457H299.1C299.061 91.8535 298.878 92.334 298.549 92.7871C298.026 93.5176 297.251 93.8828 296.223 93.8828C295.196 93.8828 294.44 93.5781 293.956 92.9688C293.471 92.3594 293.229 91.5684 293.229 90.5957C293.229 89.498 293.497 88.6445 294.032 88.0352C294.567 87.4258 295.305 87.1211 296.247 87.1211C297.047 87.1211 297.702 87.3008 298.21 87.6602C298.721 88.0195 299.024 88.6543 299.118 89.5645ZM305.684 89.9102V93.6602H303.978V89.7754C303.978 89.4316 303.92 89.1543 303.803 88.9434C303.65 88.6465 303.361 88.498 302.935 88.498C302.494 88.498 302.158 88.6465 301.928 88.9434C301.701 89.2363 301.588 89.6562 301.588 90.2031V93.6602H299.924V85.0527H301.588V88.1055C301.83 87.7344 302.109 87.4766 302.426 87.332C302.746 87.1836 303.082 87.1094 303.434 87.1094C303.828 87.1094 304.185 87.1777 304.506 87.3145C304.83 87.4512 305.096 87.6602 305.303 87.9414C305.478 88.1797 305.586 88.4258 305.625 88.6797C305.664 88.9297 305.684 89.3398 305.684 89.9102Z" fill="#111827"/>
</g>
<defs>
<filter id="filter0_d_5634_6116" x="8.34249" y="28.1687" width="150.531" height="52.358" filterUnits="userSpaceOnUse" color-interpolation-filters="sRGB">
<feFlood flood-opacity="0" result="BackgroundImageFix"/>
<feColorMatrix in="SourceAlpha" type="matrix" values="0 0 0 0 0 0 0 0 0 0 0 0 0 0 0 0 0 0 127 0" result="hardAlpha"/>
<feMorphology radius="1.63123" operator="dilate" in="SourceAlpha" result="effect1_dropShadow_5634_6116"/>
<feOffset/>
<feGaussianBlur stdDeviation="2.63716"/>
<feComposite in2="hardAlpha" operator="out"/>
<feColorMatrix type="matrix" values="0 0 0 0 0 0 0 0 0 0 0 0 0 0 0 0 0 0 0.05 0"/>
<feBlend mode="normal" in2="BackgroundImageFix" result="effect1_dropShadow_5634_6116"/>
<feBlend mode="normal" in="SourceGraphic" in2="effect1_dropShadow_5634_6116" result="shape"/>
</filter>
<linearGradient id="paint0_linear_5634_6116" x1="27.6733" y1="164.651" x2="14.9557" y2="146.733" gradientUnits="userSpaceOnUse">
<stop stop-color="#EDCF00"/>
<stop offset="0.33" stop-color="#F0D500"/>
<stop offset="0.77" stop-color="#F9E500"/>
<stop offset="1" stop-color="#FFF100"/>
</linearGradient>
<linearGradient id="paint1_linear_5634_6116" x1="53.9331" y1="146.213" x2="44.7327" y2="133.251" gradientUnits="userSpaceOnUse">
<stop stop-color="#EDCF00"/>
<stop offset="0.59" stop-color="#F7E100"/>
<stop offset="1" stop-color="#FFF100"/>
</linearGradient>
<clipPath id="clip0_5634_6116">
<rect x="0.623047" y="0.919922" width="368" height="245.333" rx="24" fill="white"/>
</clipPath>
</defs>
</svg>
