<svg width="40" height="40" viewBox="0 0 40 40" fill="none" xmlns="http://www.w3.org/2000/svg">
<g clip-path="url(#clip0_1641_491)">
<path d="M20 6.098C20 5.49162 20.4922 4.99588 21.097 5.04022C22.6913 5.15713 24.259 5.52832 25.7403 6.14187C27.5601 6.89569 29.2137 8.00058 30.6066 9.39346C31.9995 10.7863 33.1044 12.4399 33.8582 14.2598C34.4717 15.741 34.8429 17.3088 34.9598 18.9031C35.0042 19.5078 34.5084 20.0001 33.9021 20.0001V20.0001C33.2957 20.0001 32.809 19.5076 32.7571 18.9035C32.6448 17.5978 32.3326 16.3149 31.8295 15.1001C31.186 13.5467 30.2429 12.1352 29.0539 10.9462C27.8649 9.75721 26.4534 8.81406 24.8999 8.17059C23.6852 7.66744 22.4023 7.35522 21.0966 7.24298C20.4925 7.19105 20 6.70437 20 6.098V6.098Z" fill="#2D7E5D"/>
<path d="M33.4284 23.5982C34.0142 23.7551 34.3656 24.3589 34.1663 24.9316C33.6407 26.4413 32.8764 27.8596 31.9004 29.1315C30.9244 30.4035 29.7522 31.5088 28.43 32.4072C27.9284 32.748 27.2543 32.5648 26.9511 32.0396V32.0396C26.6479 31.5145 26.8311 30.8468 27.3283 30.4997C28.4029 29.7497 29.3579 28.8379 30.1583 27.7947C30.9587 26.7516 31.5923 25.5932 32.0386 24.3611C32.2452 23.791 32.8427 23.4413 33.4284 23.5982V23.5982Z" fill="#2D7E5D"/>
<path d="M23.5982 33.4285C23.7551 34.0142 23.408 34.6204 22.8124 34.7341C21.2422 35.0338 19.6317 35.081 18.0422 34.8718C16.4526 34.6625 14.9093 34.2001 13.4702 33.5042C12.9243 33.2402 12.7459 32.5648 13.049 32.0396V32.0396C13.3522 31.5145 14.0221 31.3393 14.5712 31.5963C15.7581 32.152 17.0252 32.5231 18.3288 32.6947C19.6324 32.8663 20.9524 32.8358 22.2426 32.6063C22.8396 32.5001 23.4413 32.8427 23.5982 33.4285V33.4285Z" fill="#2D7E5D"/>
<path d="M10.1698 29.8303C9.74099 30.2591 9.04237 30.2616 8.64611 29.8026C7.08851 27.9985 5.97964 25.8448 5.41825 23.5175C4.85687 21.1903 4.86187 18.7679 5.42564 16.4521C5.56907 15.8629 6.19198 15.5466 6.76908 15.7327V15.7327C7.34618 15.9189 7.65819 16.537 7.52217 17.1279C7.07808 19.0572 7.08632 21.0684 7.5529 23.0026C8.01948 24.9368 8.92911 26.7306 10.204 28.2453C10.5944 28.7092 10.5985 29.4015 10.1698 29.8303V29.8303Z" fill="#2D7E5D"/>
<path d="M12.25 6.57672L20 20.0001" stroke="#2D7E5D" stroke-width="2" stroke-linecap="round"/>
<path d="M22.2793 9.35431L21.0293 6.04181L23.7793 4.22931" stroke="#2D7E5D" stroke-width="2" stroke-linecap="round"/>
</g>
<defs>
<clipPath id="clip0_1641_491">
<rect width="40.0002" height="40.0002" fill="white"/>
</clipPath>
</defs>
</svg>
