<svg width="46" height="46" viewBox="0 0 46 46" fill="none" xmlns="http://www.w3.org/2000/svg">
<g id="mdi:clock-fast">
<path id="Vector" d="M29.4293 6.25296C33.7692 6.25296 37.9314 7.97698 41.0002 11.0458C44.0689 14.1145 45.793 18.2767 45.793 22.6166C45.793 26.9565 44.0689 31.1187 41.0002 34.1874C37.9314 37.2562 33.7692 38.9802 29.4293 38.9802C25.0894 38.9802 20.9273 37.2562 17.8585 34.1874C14.7897 31.1187 13.0657 26.9565 13.0657 22.6166C13.0657 18.2767 14.7897 14.1145 17.8585 11.0458C20.9273 7.97698 25.0894 6.25296 29.4293 6.25296ZM29.4293 10.3439C26.1744 10.3439 23.0528 11.6369 20.7512 13.9385C18.4496 16.24 17.1566 19.3617 17.1566 22.6166C17.1566 25.8715 18.4496 28.9931 20.7512 31.2947C23.0528 33.5963 26.1744 34.8893 29.4293 34.8893C32.6843 34.8893 35.8059 33.5963 38.1075 31.2947C40.409 28.9931 41.7021 25.8715 41.7021 22.6166C41.7021 19.3617 40.409 16.24 38.1075 13.9385C35.8059 11.6369 32.6843 10.3439 29.4293 10.3439ZM27.3839 14.4348H30.4521V22.1666L35.218 26.9325L33.0498 29.1007L27.3839 23.4348V14.4348ZM2.83842 34.8893C2.29593 34.8893 1.77567 34.6738 1.39207 34.2902C1.00847 33.9066 0.792969 33.3864 0.792969 32.8439C0.792969 32.3014 1.00847 31.7811 1.39207 31.3975C1.77567 31.0139 2.29593 30.7984 2.83842 30.7984H10.6725C11.3066 32.2507 12.1248 33.6211 13.0657 34.8893H2.83842ZM4.88388 24.662C4.34139 24.662 3.82112 24.4465 3.43752 24.0629C3.05393 23.6794 2.83842 23.1591 2.83842 22.6166C2.83842 22.0741 3.05393 21.5538 3.43752 21.1702C3.82112 20.7866 4.34139 20.5711 4.88388 20.5711H9.07706L8.97479 22.6166L9.07706 24.662H4.88388ZM6.92933 14.4348C6.38684 14.4348 5.86657 14.2193 5.48298 13.8357C5.09938 13.4521 4.88388 12.9318 4.88388 12.3893C4.88388 11.8468 5.09938 11.3266 5.48298 10.943C5.86657 10.5594 6.38684 10.3439 6.92933 10.3439H13.0657C12.1248 11.6121 11.3066 12.9825 10.6725 14.4348H6.92933Z" fill="#2D7E5D"/>
</g>
</svg>
