<svg width="1440" height="452" viewBox="0 0 1440 452" fill="none" xmlns="http://www.w3.org/2000/svg">
  <path opacity="0.5" fill-rule="evenodd" clip-rule="evenodd" d="M12689.8 451.725L12649.7 374.505C12508.3 101.8 12156.5 20.2013 11909.4 202.781L11835.6 147.932C11544.8 -67.9339 11141.2 -44.8424 10877 202.781C10701.6 5.74778 10405 -25.0908 10192.9 131.663L10096.6 202.781L10022.7 147.932C9731.96 -67.9339 9328.39 -44.8424 9064.13 202.781C8888.79 5.74778 8592.15 -25.0908 8380.03 131.663L8283.79 202.781L8209.91 147.932C7919.13 -67.9339 7515.56 -44.8424 7251.31 202.781C7075.97 5.74778 6779.32 -25.0908 6567.2 131.663L6470.96 202.781L6397.08 147.932C6106.3 -67.9339 5702.73 -44.8424 5438.48 202.781C5263.14 5.74778 4966.49 -25.0908 4754.37 131.663L4658.13 202.781L4584.25 147.932C4293.48 -67.9339 3889.91 -44.8424 3625.65 202.781C3450.31 5.74778 3153.67 -25.0908 2941.54 131.663L2845.31 202.781L2771.42 147.932C2480.65 -67.9339 2077.08 -44.8424 1812.83 202.781C1637.49 5.74778 1340.84 -25.0908 1128.72 131.663L1032.48 202.781C718.617 -30.2261 273.773 45.8513 55.1807 369.919L0 451.725H1812.83H3625.65H5438.48H7251.31H9064.13H10877H12689.8Z" fill="white"/>
  <path fill-rule="evenodd" clip-rule="evenodd" d="M243.274 366.637L128.703 541.726H1883.19H3637.68H5392.17H7146.66H8901.14H10655.6H12410.1L12359.4 473.137C12138.6 174.865 11725.7 96.3473 11410.9 292.781C11204.8 96.2427 10882.4 90.7424 10669.8 280.138L10655.6 292.781C10390.6 84.0452 10023.1 63.9473 9736.91 242.535L9656.38 292.781C9450.34 96.2427 9127.96 90.7424 8915.34 280.138L8901.14 292.781C8636.11 84.0452 8268.63 63.9473 7982.42 242.535L7901.89 292.781C7695.85 96.2427 7373.47 90.7424 7160.85 280.138L7146.66 292.781C6881.62 84.0452 6514.15 63.9473 6227.93 242.535L6147.4 292.781C5941.37 96.2427 5618.98 90.7424 5406.36 280.138L5392.17 292.781C5127.13 84.0452 4759.66 63.9473 4473.44 242.535L4392.91 292.781C4186.88 96.2427 3864.49 90.7424 3651.87 280.138L3637.68 292.781C3372.65 84.0452 3005.17 63.9473 2718.95 242.535L2638.42 292.781C2432.39 96.2427 2110 90.7424 1897.38 280.138L1883.19 292.781C1618.16 84.0452 1250.68 63.9472 964.465 242.535L883.936 292.781C694.218 111.807 386.837 147.242 243.274 366.637Z" fill="url(#paint0_linear_4123_354)"/>
  <defs>
    <linearGradient id="paint0_linear_4123_354" x1="6269.41" y1="121.215" x2="6269.41" y2="541.726" gradientUnits="userSpaceOnUse">
      <stop stop-color="white"/>
      <stop offset="0.213542" stop-color="white" stop-opacity="0"/>
    </linearGradient>
  </defs>
</svg>
