<svg width="27" height="24" viewBox="0 0 27 24" fill="none" xmlns="http://www.w3.org/2000/svg">
<path d="M12.6336 17.9393C12.6336 18.326 12.6677 18.7013 12.7245 19.0766H6.37843C4.67248 19.0766 3.18262 18.508 1.95434 17.2911C0.737431 16.0969 0.123291 14.6298 0.123291 12.9125C0.123291 11.434 0.566837 10.1147 1.45393 8.95469C2.78457 7.21463 3.53518 7.05541 4.9568 6.73696C5.43447 4.9969 6.37843 3.58665 7.80005 2.50622C9.22167 1.42579 10.8366 0.879883 12.6336 0.879883C14.8513 0.879883 16.7278 1.65324 18.2746 3.19997C19.8213 4.74669 20.5946 6.62323 20.5946 8.84096C21.9025 8.98881 22.983 9.55746 23.8473 10.5469C23.9156 10.6038 23.961 10.6948 24.0065 10.763C22.983 10.2626 21.8229 9.97826 20.5946 9.97826C16.1933 9.97826 12.6336 13.538 12.6336 17.9393ZM26.0878 19.8045L24.9505 21.772C24.8709 21.9199 24.723 21.9199 24.5752 21.9199L23.1763 21.3512C22.8692 21.556 22.5622 21.7379 22.221 21.8858L22.0049 23.387C21.9821 23.5235 21.857 23.6258 21.7319 23.6258H19.4573C19.2981 23.6258 19.1844 23.5235 19.1616 23.387L18.9456 21.8858C18.593 21.7493 18.2746 21.556 17.9789 21.3512L16.5686 21.9199C16.4321 21.9199 16.2843 21.9199 16.216 21.772L15.0788 19.8045C15.047 19.7451 15.0364 19.6767 15.0489 19.6105C15.0613 19.5444 15.0959 19.4844 15.147 19.4406L16.3525 18.508C16.3072 18.1302 16.3072 17.7484 16.3525 17.3707L15.147 16.4381C15.094 16.3956 15.058 16.3355 15.0455 16.2688C15.033 16.202 15.0448 16.133 15.0788 16.0742L16.216 14.1067C16.2957 13.9588 16.4435 13.9588 16.5686 13.9588L17.9789 14.5275C18.2746 14.3227 18.6044 14.1408 18.9456 13.9929L19.1616 12.4917C19.175 12.4235 19.212 12.3621 19.266 12.3185C19.3201 12.2748 19.3878 12.2516 19.4573 12.2529H21.7319C21.857 12.2529 21.9821 12.3552 21.9935 12.4917L22.2096 13.9929C22.5622 14.1294 22.8692 14.3227 23.1763 14.5275L24.5752 13.9588C24.723 13.9588 24.8709 13.9588 24.9391 14.1067L26.0764 16.0742C26.1447 16.1993 26.1105 16.3471 26.0082 16.4381L24.8026 17.3707C24.8368 17.564 24.8481 17.746 24.8481 17.9393C24.8481 18.1327 24.8254 18.3147 24.8026 18.508L26.0196 19.4406C26.1219 19.5316 26.156 19.6794 26.0878 19.8045ZM22.3006 17.9393C22.3006 16.9954 21.5272 16.2334 20.5946 16.2334C19.6621 16.2334 18.8887 16.9954 18.8887 17.9393C18.8887 18.8833 19.6393 19.6453 20.5946 19.6453C21.55 19.6453 22.3006 18.8833 22.3006 17.9393Z" fill="#2D7E5D"/>
</svg>
