<svg width="46" height="46" viewBox="0 0 46 46" fill="none" xmlns="http://www.w3.org/2000/svg">
<g id="wi:time-8">
<path id="Vector" d="M28.0077 19.8586C29.7642 19.8586 31.1898 21.2841 31.1898 23.0406V31.6759C31.1898 33.8465 30.3275 35.9282 28.7926 37.4631C27.2578 38.998 25.1761 39.8602 23.0054 39.8602C20.8348 39.8602 18.7531 38.998 17.2183 37.4631C15.6834 35.9282 14.8211 33.8465 14.8211 31.6759V23.0406C14.8211 21.2841 16.2449 19.8586 18.0032 19.8586H28.0077ZM28.0077 22.5861H18.0032C17.8826 22.5861 17.767 22.634 17.6818 22.7192C17.5965 22.8045 17.5486 22.9201 17.5486 23.0406V31.6759C17.5486 33.1232 18.1235 34.5111 19.1469 35.5345C20.1702 36.5578 21.5582 37.1327 23.0054 37.1327C24.4527 37.1327 25.8406 36.5578 26.864 35.5345C27.8873 34.5111 28.4623 33.1232 28.4623 31.6759V23.0406C28.4623 22.9201 28.4144 22.8045 28.3291 22.7192C28.2439 22.634 28.1282 22.5861 28.0077 22.5861ZM7.99873 19.8586H14.1465C13.505 20.6333 13.1132 21.5843 13.0228 22.5861H7.99873C7.87817 22.5861 7.76255 22.634 7.67729 22.7192C7.59204 22.8045 7.54415 22.9201 7.54415 23.0406V28.9484C7.54403 29.6355 7.69962 30.3137 7.99923 30.9321C8.29884 31.5505 8.73467 32.0929 9.27399 32.5186C9.81331 32.9444 10.4421 33.2424 11.1131 33.3903C11.7841 33.5381 12.4799 33.532 13.1483 33.3724C13.3028 34.2889 13.5847 35.1635 13.972 35.9763C12.8942 36.2646 11.7646 36.3012 10.6704 36.0832C9.57624 35.8652 8.54687 35.3985 7.66188 34.7192C6.7769 34.0399 6.06001 33.1661 5.56665 32.1654C5.07329 31.1648 4.81667 30.0641 4.81665 28.9484V23.0406C4.81665 21.2841 6.24222 19.8586 7.99873 19.8586ZM31.8644 19.8586H38.0012C39.7577 19.8586 41.1833 21.2841 41.1833 23.0406V28.9502C41.1836 30.0652 40.9275 31.1652 40.4349 32.1654C39.9423 33.1657 39.2263 34.0392 38.3423 34.7187C37.4583 35.3981 36.4299 35.8652 35.3366 36.0839C34.2434 36.3026 33.1144 36.267 32.0371 35.9799C32.4262 35.1653 32.7081 34.2907 32.8644 33.3742C33.5319 33.532 34.2265 33.5367 34.896 33.3879C35.5655 33.2391 36.1927 32.9408 36.7306 32.5152C37.2685 32.0896 37.7031 31.5478 38.0019 30.9305C38.3006 30.3131 38.4558 29.6361 38.4558 28.9502V23.0406C38.4558 22.9201 38.4079 22.8045 38.3227 22.7192C38.2374 22.634 38.1218 22.5861 38.0012 22.5861H32.9881C32.8976 21.5843 32.5059 20.6333 31.8644 19.8586ZM23 7.13023C24.4467 7.13023 25.8342 7.70496 26.8573 8.72797C27.8803 9.75098 28.455 11.1385 28.455 12.5852C28.455 14.032 27.8803 15.4195 26.8573 16.4425C25.8342 17.4655 24.4467 18.0402 23 18.0402C21.5532 18.0402 20.1657 17.4655 19.1427 16.4425C18.1197 15.4195 17.545 14.032 17.545 12.5852C17.545 11.1385 18.1197 9.75098 19.1427 8.72797C20.1657 7.70496 21.5532 7.13023 23 7.13023ZM34.8192 8.94857C36.0248 8.94857 37.181 9.4275 38.0335 10.28C38.8861 11.1325 39.365 12.2888 39.365 13.4944C39.365 14.7 38.8861 15.8563 38.0335 16.7088C37.181 17.5613 36.0248 18.0402 34.8192 18.0402C33.6135 18.0402 32.4573 17.5613 31.6048 16.7088C30.7523 15.8563 30.2733 14.7 30.2733 13.4944C30.2733 12.2888 30.7523 11.1325 31.6048 10.28C32.4573 9.4275 33.6135 8.94857 34.8192 8.94857ZM11.1808 8.94857C12.3864 8.94857 13.5427 9.4275 14.3952 10.28C15.2477 11.1325 15.7267 12.2888 15.7267 13.4944C15.7267 14.7 15.2477 15.8563 14.3952 16.7088C13.5427 17.5613 12.3864 18.0402 11.1808 18.0402C9.97519 18.0402 8.81894 17.5613 7.96643 16.7088C7.11392 15.8563 6.63498 14.7 6.63498 13.4944C6.63498 12.2888 7.11392 11.1325 7.96643 10.28C8.81894 9.4275 9.97519 8.94857 11.1808 8.94857ZM23 9.85773C22.2766 9.85773 21.5829 10.1451 21.0714 10.6566C20.5598 11.1681 20.2725 11.8619 20.2725 12.5852C20.2725 13.3086 20.5598 14.0024 21.0714 14.5139C21.5829 15.0254 22.2766 15.3127 23 15.3127C23.7234 15.3127 24.4171 15.0254 24.9286 14.5139C25.4401 14.0024 25.7275 13.3086 25.7275 12.5852C25.7275 11.8619 25.4401 11.1681 24.9286 10.6566C24.4171 10.1451 23.7234 9.85773 23 9.85773ZM34.8192 11.6761C34.3369 11.6761 33.8744 11.8676 33.5334 12.2086C33.1924 12.5496 33.0008 13.0121 33.0008 13.4944C33.0008 13.9767 33.1924 14.4392 33.5334 14.7802C33.8744 15.1212 34.3369 15.3127 34.8192 15.3127C35.3014 15.3127 35.7639 15.1212 36.1049 14.7802C36.4459 14.4392 36.6375 13.9767 36.6375 13.4944C36.6375 13.0121 36.4459 12.5496 36.1049 12.2086C35.7639 11.8676 35.3014 11.6761 34.8192 11.6761ZM11.1808 11.6761C10.6986 11.6761 10.2361 11.8676 9.89506 12.2086C9.55406 12.5496 9.36248 13.0121 9.36248 13.4944C9.36248 13.9767 9.55406 14.4392 9.89506 14.7802C10.2361 15.1212 10.6986 15.3127 11.1808 15.3127C11.6631 15.3127 12.1256 15.1212 12.4666 14.7802C12.8076 14.4392 12.9992 13.9767 12.9992 13.4944C12.9992 13.0121 12.8076 12.5496 12.4666 12.2086C12.1256 11.8676 11.6631 11.6761 11.1808 11.6761Z" fill="#2D7E5D"/>
</g>
</svg>
