<svg width="40" height="41" viewBox="0 0 40 41" fill="none" xmlns="http://www.w3.org/2000/svg">
<path d="M12.3127 28.1874H8.21045V32.2896M31.4566 32.2896H27.3543V28.1874M27.3543 13.1458H31.4566V9.04352M8.21045 9.04352H12.3127V13.1458" stroke="#2D7E5D" stroke-width="2.63868" stroke-linecap="round" stroke-linejoin="round"/>
<path d="M12.3126 9.24458C8.60549 11.6902 6.15918 15.893 6.15918 20.6666C6.15964 21.364 6.21046 22.0477 6.31165 22.7178M21.8845 34.1884C21.2056 34.2906 20.5199 34.3416 19.8334 34.3408C15.0597 34.3408 10.8569 31.8945 8.41132 28.1874M33.3551 18.6155C33.4563 19.2855 33.5071 19.9692 33.5076 20.6666C33.5076 25.4403 31.0613 29.6431 27.3542 32.0887M17.7822 7.14559C18.4611 7.04311 19.1468 6.99192 19.8334 6.99244C24.607 6.99244 28.8098 9.43875 31.2554 13.1458" stroke="#2D7E5D" stroke-width="2.63868" stroke-linecap="round" stroke-linejoin="round"/>
<path d="M18.4275 27.4518L18.1546 25.2715C17.9139 25.1986 17.6538 25.0845 17.3743 24.9292C17.0944 24.7734 16.8564 24.6066 16.6604 24.4286L14.649 25.2843L13.2429 22.8341L14.9814 21.5231C14.9588 21.3874 14.9405 21.2472 14.9264 21.1024C14.9113 20.9577 14.9038 20.8172 14.9038 20.681C14.9038 20.5543 14.9113 20.4211 14.9264 20.2814C14.9405 20.1417 14.9588 19.9844 14.9814 19.8095L13.2429 18.4999L14.649 16.0784L16.6453 16.9197C16.8705 16.7322 17.1142 16.5631 17.3766 16.4123C17.638 16.2616 17.8925 16.145 18.1403 16.0625L18.4268 13.8815H21.2404L21.5125 16.0769C21.8015 16.1784 22.0569 16.2947 22.2785 16.4259C22.5002 16.5571 22.7286 16.7214 22.9638 16.919L25.0182 16.0784L26.4243 18.4992L24.6284 19.8532C24.6697 20.009 24.6928 20.152 24.6978 20.2822C24.7028 20.4123 24.7053 20.5405 24.7053 20.6666C24.7053 20.7838 24.7003 20.9071 24.6903 21.0368C24.6807 21.167 24.6586 21.3243 24.6239 21.5088L26.3911 22.8341L24.985 25.2843L22.9638 24.4143C22.7291 24.6118 22.4929 24.781 22.2551 24.9217C22.0174 25.0624 21.7699 25.1743 21.5125 25.2572L21.2404 27.4518H18.4275ZM19.8132 22.5514C20.339 22.5514 20.7845 22.3687 21.1499 22.0033C21.5153 21.6379 21.698 21.1924 21.698 20.6666C21.698 20.1409 21.5153 19.6954 21.1499 19.33C20.7845 18.9646 20.339 18.7819 19.8132 18.7819C19.2845 18.7819 18.8382 18.9646 18.4743 19.33C18.1104 19.6954 17.9285 20.1409 17.9285 20.6666C17.9285 21.1924 18.1104 21.6379 18.4743 22.0033C18.8382 22.3687 19.2845 22.5514 19.8132 22.5514Z" fill="#2D7E5D"/>
</svg>
