<svg width="388" height="388" viewBox="0 0 388 388" fill="none" xmlns="http://www.w3.org/2000/svg">
<g clip-path="url(#clip0_5634_6855)">
<rect x="0.875" y="0.790039" width="387" height="387" rx="16" fill="#E8F7FE" style="mix-blend-mode:multiply"/>
<path d="M194.375 27.9131L214.84 0.790039H173.91L194.375 27.9131Z" fill="#96FF5B" fill-opacity="0.64"/>
<g filter="url(#filter0_d_5634_6855)">
<rect x="28.377" y="33.79" width="332" height="321" rx="16" fill="white" shape-rendering="crispEdges"/>
<rect x="25.377" y="30.79" width="338" height="327" rx="19" stroke="url(#paint0_linear_5634_6855)" stroke-width="6" shape-rendering="crispEdges"/>
<path d="M52.9915 56.9689L50.5687 54.5461M52.9915 56.9689L50.5687 59.3916M52.9915 56.9689H46.9345M49.963 62.4201C49.2471 62.4201 48.5383 62.2791 47.8769 62.0052C47.2155 61.7312 46.6146 61.3297 46.1084 60.8235C45.6022 60.3173 45.2006 59.7164 44.9267 59.055C44.6527 58.3936 44.5117 57.6847 44.5117 56.9689C44.5117 56.253 44.6527 55.5441 44.9267 54.8827C45.2006 54.2214 45.6022 53.6204 46.1084 53.1142C46.6146 52.608 47.2155 52.2065 47.8769 51.9325C48.5383 51.6586 49.2471 51.5176 49.963 51.5176" stroke="black" stroke-width="1.07728" stroke-linecap="round" stroke-linejoin="round"/>
<text fill="#475569" xml:space="preserve" style="white-space: pre" font-family="Helvetica" font-size="14" letter-spacing="0em"><tspan x="283.076" y="62.767"> </tspan></text>
<text fill="#475569" xml:space="preserve" style="white-space: pre" font-family="Helvetica" font-size="14" letter-spacing="0em"><tspan x="66.377" y="62.767">When </tspan><tspan x="174.029" y="62.767"> is run, collect the</tspan></text>
<text fill="#D09A66" xml:space="preserve" style="white-space: pre" font-family="Source Code Pro" font-size="14" font-weight="500" letter-spacing="0em"><tspan x="106.873" y="62.767">mvn test</tspan></text>
<text fill="#D09A66" xml:space="preserve" style="white-space: pre" font-family="Source Code Pro" font-size="14" font-weight="500" letter-spacing="0em"><tspan x="66.377" y="90.767">junit.xml</tspan></text>
<path d="M52.9915 128.969L50.5687 126.546M52.9915 128.969L50.5687 131.392M52.9915 128.969H46.9345M49.963 134.42C49.2471 134.42 48.5383 134.279 47.8769 134.005C47.2155 133.731 46.6146 133.33 46.1084 132.823C45.6022 132.317 45.2006 131.716 44.9267 131.055C44.6527 130.394 44.5117 129.685 44.5117 128.969C44.5117 128.253 44.6527 127.544 44.9267 126.883C45.2006 126.221 45.6022 125.62 46.1084 125.114C46.6146 124.608 47.2155 124.206 47.8769 123.933C48.5383 123.659 49.2471 123.518 49.963 123.518" stroke="black" stroke-width="1.07728" stroke-linecap="round" stroke-linejoin="round"/>
<text fill="#475569" xml:space="preserve" style="white-space: pre" font-family="Helvetica" font-size="14" letter-spacing="0em"><tspan x="66.377" y="134.767">Whenever </tspan><tspan x="192.883" y="134.767"> process executes in CI, </tspan><tspan x="66.377" y="162.767">extract the coverage report</tspan></text>
<text fill="#D09A66" xml:space="preserve" style="white-space: pre" font-family="Source Code Pro" font-size="14" font-weight="500" letter-spacing="0em"><tspan x="134.121" y="134.767">codecov</tspan></text>
<path d="M52.9915 201.969L50.5687 199.546M52.9915 201.969L50.5687 204.392M52.9915 201.969H46.9345M49.963 207.42C49.2471 207.42 48.5383 207.279 47.8769 207.005C47.2155 206.731 46.6146 206.33 46.1084 205.823C45.6022 205.317 45.2006 204.716 44.9267 204.055C44.6527 203.394 44.5117 202.685 44.5117 201.969C44.5117 201.253 44.6527 200.544 44.9267 199.883C45.2006 199.221 45.6022 198.62 46.1084 198.114C46.6146 197.608 47.2155 197.206 47.8769 196.933C48.5383 196.659 49.2471 196.518 49.963 196.518" stroke="black" stroke-width="1.07728" stroke-linecap="round" stroke-linejoin="round"/>
<text fill="#475569" xml:space="preserve" style="white-space: pre" font-family="Helvetica" font-size="14" letter-spacing="0em"><tspan x="66.377" y="207.62">Whenever and SBOM is created, collect it as </tspan><tspan x="66.377" y="235.62">metadata</tspan></text>
<path d="M52.9915 273.969L50.5687 271.546M52.9915 273.969L50.5687 276.392M52.9915 273.969H46.9345M49.963 279.42C49.2471 279.42 48.5383 279.279 47.8769 279.005C47.2155 278.731 46.6146 278.33 46.1084 277.823C45.6022 277.317 45.2006 276.716 44.9267 276.055C44.6527 275.394 44.5117 274.685 44.5117 273.969C44.5117 273.253 44.6527 272.544 44.9267 271.883C45.2006 271.221 45.6022 270.62 46.1084 270.114C46.6146 269.608 47.2155 269.206 47.8769 268.933C48.5383 268.659 49.2471 268.518 49.963 268.518" stroke="black" stroke-width="1.07728" stroke-linecap="round" stroke-linejoin="round"/>
<text fill="#475569" xml:space="preserve" style="white-space: pre" font-family="Helvetica" font-size="14" letter-spacing="0em"><tspan x="66.377" y="279.62">In every repository collect medata from </tspan><tspan x="66.377" y="307.62">configuration files, deployment settings, </tspan><tspan x="66.377" y="335.62">container config etc&#x2026;</tspan></text>
</g>
</g>
<defs>
<filter id="filter0_d_5634_6855" x="11.377" y="19.79" width="366" height="355" filterUnits="userSpaceOnUse" color-interpolation-filters="sRGB">
<feFlood flood-opacity="0" result="BackgroundImageFix"/>
<feColorMatrix in="SourceAlpha" type="matrix" values="0 0 0 0 0 0 0 0 0 0 0 0 0 0 0 0 0 0 127 0" result="hardAlpha"/>
<feOffset dy="3"/>
<feGaussianBlur stdDeviation="5.5"/>
<feComposite in2="hardAlpha" operator="out"/>
<feColorMatrix type="matrix" values="0 0 0 0 0.34902 0 0 0 0 0.34902 0 0 0 0 0.34902 0 0 0 0.25 0"/>
<feBlend mode="normal" in2="BackgroundImageFix" result="effect1_dropShadow_5634_6855"/>
<feBlend mode="normal" in="SourceGraphic" in2="effect1_dropShadow_5634_6855" result="shape"/>
</filter>
<linearGradient id="paint0_linear_5634_6855" x1="18.692" y1="10.2816" x2="441.053" y2="227.496" gradientUnits="userSpaceOnUse">
<stop stop-color="white"/>
<stop offset="1" stop-color="#F1F1F1"/>
</linearGradient>
<clipPath id="clip0_5634_6855">
<rect x="0.875" y="0.790039" width="387" height="387" rx="16" fill="white"/>
</clipPath>
</defs>
</svg>
