<?xml version="1.0" encoding="UTF-8" standalone="no"?>
<svg
   class="lf-navbar-icon"
   version="1.1"
   id="svg31"
   sodipodi:docname="deep-genomics.svg"
   width="399.59607"
   height="111.04183"
   inkscape:version="1.2.2 (b0a84865, 2022-12-01)"
   xmlns:inkscape="http://www.inkscape.org/namespaces/inkscape"
   xmlns:sodipodi="http://sodipodi.sourceforge.net/DTD/sodipodi-0.dtd"
   xmlns:xlink="http://www.w3.org/1999/xlink"
   xmlns="http://www.w3.org/2000/svg"
   xmlns:svg="http://www.w3.org/2000/svg">
  <sodipodi:namedview
     id="namedview33"
     pagecolor="#ffffff"
     bordercolor="#000000"
     borderopacity="0.25"
     inkscape:showpageshadow="2"
     inkscape:pageopacity="0.0"
     inkscape:pagecheckerboard="0"
     inkscape:deskcolor="#d1d1d1"
     showgrid="false"
     inkscape:zoom="4.1533333"
     inkscape:cx="68.258427"
     inkscape:cy="74.75923"
     inkscape:window-width="1920"
     inkscape:window-height="1027"
     inkscape:window-x="0"
     inkscape:window-y="25"
     inkscape:window-maximized="1"
     inkscape:current-layer="svg31" />
  <defs
     id="defs4">
    <polygon
       id="path-1"
       points="111.03606,0.098147714 111.03606,111.13402 0,111.13402 0,0.098147714 " />
    <polygon
       id="path-3"
       points="399.59625,111.5109 399.59625,0.46893318 0,0.46893318 0,111.5109 " />
  </defs>
  <g
     id="Streamfields"
     stroke="none"
     stroke-width="1"
     fill="#008000"
     fill-rule="evenodd"
     transform="translate(0,-0.46893318)">
    <g
       id="Page-1">
      <g
         id="Group-3"
         transform="translate(0,0.37374)">
        <mask
           id="mask-2"
           fill="#ffffff">
          <use
             xlink:href="#path-1"
             id="use6" />
        </mask>
        <g
           id="Clip-2" />
        <path
           d="m 55.518124,106.12582 c -16.889097,0 -30.629777,-13.741154 -30.629777,-30.629314 0,-5.742555 1.59109,-11.117936 4.351231,-15.715826 6.520516,7.120281 15.886049,11.593435 26.278546,11.593435 10.392497,0 19.758031,-4.473154 26.278547,-11.593435 2.759671,4.59789 4.351231,9.973271 4.351231,15.715826 h 5.008206 c 0,-7.356154 -2.241032,-14.197889 -6.074561,-19.880422 3.833529,-5.682532 6.074561,-12.524267 6.074561,-19.879953 0,-8.424384 -2.944901,-16.170222 -7.850411,-22.277139 13.67925,9.047128 22.722163,24.564595 22.722163,42.157561 0,27.85088 -22.658388,50.509267 -50.509736,50.509267 M 78.791278,55.616084 c -5.622509,6.572099 -13.966706,10.749825 -23.273154,10.749825 -9.306448,0 -17.650644,-4.177726 -23.273153,-10.749825 5.622509,-6.572098 13.966705,-10.749824 23.273153,-10.749824 9.306448,0 17.650645,4.177726 23.273154,10.749824 m -73.7828841,4.69e-4 c 0,-27.851348 22.6583821,-50.510199 50.5097301,-50.510199 16.889566,0 30.629778,13.74068 30.629778,30.629777 0,5.741618 -1.59156,11.117937 -4.351231,15.715358 -6.520516,-7.119813 -15.88605,-11.592966 -26.278547,-11.592966 -10.392497,0 -19.75803,4.473153 -26.278546,11.592966 -2.760141,-4.597421 -4.351231,-9.97374 -4.351231,-15.715358 h -5.008675 c 0,7.355686 2.241031,14.197421 6.075029,19.879953 -3.833998,5.682533 -6.075029,12.524268 -6.075029,19.880422 0,8.423916 2.9449,16.169754 7.850879,22.276671 C 14.050832,88.726518 5.0083939,73.20905 5.0083939,55.616553 M 55.518124,0.09814771 c -30.612895,0 -55.51840535991,24.90597929 -55.51840535991,55.51840529 0,30.612427 24.90551035991,55.517467 55.51840535991,55.517467 30.612427,0 55.517936,-24.90504 55.517936,-55.517467 0,-30.612426 -24.905509,-55.51840529 -55.517936,-55.51840529"
           id="Fill-1"
           fill="#000000"
           mask="url(#mask-2)" />
      </g>
      <path
         d="m 389.61857,77.13721 c -4.66401,-1.122157 -9.97702,-1.711606 -9.97702,-5.313482 0,-3.070105 3.48323,-3.896835 6.49425,-3.896835 3.30645,0 6.7306,1.23986 7.08511,5.136694 h 5.01806 c -0.4136,-7.439156 -5.78617,-9.56483 -12.5163,-9.56483 -5.31395,0 -11.39414,2.539274 -11.39414,8.679016 0,5.845252 5.01806,7.498241 9.97703,8.619929 5.01805,1.121219 9.97749,1.771161 9.97749,5.667996 0,3.83728 -4.25088,4.545838 -7.3796,4.545838 -4.13318,0 -8.02955,-1.417116 -8.2068,-5.903869 h -5.01806 c 0.29543,7.556858 6.08066,10.331536 12.9299,10.331536 6.19883,0 12.98757,-2.361548 12.98757,-9.622978 0,-5.903869 -4.9585,-7.556858 -9.97749,-8.679015"
         id="Fill-4"
         fill="#000000" />
      <path
         d="m 252.32647,90.537491 c -6.08488,0 -11.03447,-4.950527 -11.03447,-11.034466 0,-6.084877 4.94959,-11.034936 11.03447,-11.034936 6.08488,0 11.03494,4.950059 11.03494,11.034936 0,6.083939 -4.95006,11.034466 -11.03494,11.034466 m 0,-27.038687 c -8.83892,0 -16.00375,7.165299 -16.00375,16.004221 0,8.838452 7.16483,16.00422 16.00375,16.00422 8.83892,0 16.00422,-7.165768 16.00422,-16.00422 0,-8.838922 -7.1653,-16.004221 -16.00422,-16.004221"
         id="Fill-6"
         fill="#000000" />
      <path
         d="m 170.87339,27.168581 c 1.19343,-4.807502 5.53388,-8.371864 10.70902,-8.371864 5.17562,0 9.5156,3.564362 10.7095,8.371864 z m 10.70902,-13.338335 c -7.92965,0 -14.51535,5.767409 -15.77585,13.338335 -0.15005,0.867996 -0.22508,1.752873 -0.22508,2.662603 0,0.618054 0.0333,1.235639 0.10832,1.836342 0.17538,1.585932 0.58429,3.096835 1.1939,4.498945 2.45393,5.692849 8.11302,9.66612 14.69871,9.66612 6.5857,0 12.24526,-3.973271 14.69918,-9.66612 h -5.66752 c -1.99484,2.846425 -5.30035,4.699649 -9.03166,4.699649 -3.73083,0 -7.03634,-1.853224 -9.03118,-4.699649 -0.92661,-1.31864 -1.56952,-2.845955 -1.84478,-4.498945 h 21.7524 5.01665 c 0.075,-0.600703 0.10832,-1.218288 0.10832,-1.836342 0,-0.90973 -0.075,-1.794607 -0.22556,-2.662603 -1.26002,-7.570926 -7.84619,-13.338335 -15.77585,-13.338335 z"
         id="Fill-8"
         fill="#000000" />
      <path
         d="m 170.87339,76.840422 c 1.19343,-4.807972 5.53388,-8.372333 10.70902,-8.372333 5.17562,0 9.5156,3.564361 10.7095,8.372333 z m 10.70902,-13.338804 c -7.92965,0 -14.51535,5.767409 -15.77585,13.338804 -0.15005,0.867995 -0.22508,1.752403 -0.22508,2.662603 0,0.617585 0.0333,1.235638 0.10832,1.836342 0.17538,1.585932 0.58429,3.096366 1.1939,4.498476 2.45393,5.692849 8.11302,9.666588 14.69871,9.666588 6.5857,0 12.24526,-3.973739 14.69918,-9.666588 h -5.66752 c -1.99484,2.846893 -5.30035,4.699648 -9.03166,4.699648 -3.73083,0 -7.03634,-1.852755 -9.03118,-4.699648 -0.92661,-1.318171 -1.56952,-2.845955 -1.84478,-4.498476 h 21.7524 5.01665 c 0.075,-0.600704 0.10832,-1.218757 0.10832,-1.836342 0,-0.9102 -0.075,-1.794608 -0.22556,-2.662603 -1.26002,-7.571395 -7.84619,-13.338804 -15.77585,-13.338804 z"
         id="Fill-10"
         fill="#000000" />
      <path
         d="m 206.10542,27.168581 c 1.1939,-4.807502 5.53435,-8.371864 10.70949,-8.371864 5.17515,0 9.51559,3.564362 10.70903,8.371864 z m 10.70949,-13.338335 c -7.92966,0 -14.51536,5.767409 -15.77585,13.338335 -0.15053,0.867996 -0.22556,1.752873 -0.22556,2.662603 0,0.618054 0.0333,1.235639 0.10833,1.836342 0.17538,1.585932 0.58429,3.096835 1.1939,4.498945 2.4544,5.692849 8.11348,9.66612 14.69918,9.66612 6.5857,0 12.24478,-3.973271 14.69918,-9.66612 h -5.66753 c -1.99531,2.846425 -5.30082,4.699649 -9.03165,4.699649 -3.7313,0 -7.03681,-1.853224 -9.03165,-4.699649 -0.92614,-1.31864 -1.56952,-2.845955 -1.84432,-4.498945 h 21.75194 5.01665 c 0.0755,-0.600703 0.10832,-1.218288 0.10832,-1.836342 0,-0.90973 -0.075,-1.794607 -0.22556,-2.662603 -1.26002,-7.570926 -7.84572,-13.338335 -15.77538,-13.338335 z"
         id="Fill-12"
         fill="#000000" />
      <path
         d="m 354.63268,68.466495 c 4.49004,0 8.34655,2.686518 10.07035,6.535521 h 5.28018 c -1.9456,-6.645252 -8.07597,-11.503399 -15.35053,-11.503399 -8.83892,0 -16.00375,7.165767 -16.00375,16.00422 0,8.838921 7.16483,16.00422 16.00375,16.00422 7.27456,0 13.40493,-4.857678 15.35053,-11.50293 h -5.28018 c -1.7238,3.849003 -5.58031,6.535052 -10.07035,6.535052 -6.09519,0 -11.03634,-4.941149 -11.03634,-11.036342 0,-6.095193 4.94115,-11.036342 11.03634,-11.036342"
         id="Fill-14"
         fill="#000000" />
      <mask
         id="mask-4"
         fill="#ffffff">
        <use
           xlink:href="#path-3"
           id="use18" />
      </mask>
      <g
         id="Clip-17" />
      <polygon
         id="Fill-16"
         fill="#000000"
         mask="url(#mask-4)"
         points="332.02204,64.387808 327.01477,64.387808 327.01477,95.507151 332.02204,95.507151 " />
      <polygon
         id="Fill-18"
         fill="#000000"
         mask="url(#mask-4)"
         points="332.02204,53.496366 327.01477,53.496366 327.01477,59.60891 332.02204,59.60891 " />
      <path
         d="m 154.68305,80.25027 c -0.38734,5.735521 -5.16483,10.286987 -10.99695,10.286987 -6.08488,0 -11.03494,-4.950059 -11.03494,-11.034467 0,-6.084408 4.95006,-11.034935 11.03494,-11.034935 5.83212,0 10.60961,4.551465 10.99695,10.287456 z m 0,-12.354514 c -2.86847,-2.718874 -6.73294,-4.397186 -10.99695,-4.397186 -8.83893,0 -16.00422,7.165768 -16.00422,16.00422 0,8.838922 7.16529,16.004221 16.00422,16.004221 4.26401,0 8.12848,-1.678781 10.99695,-4.397187 v 4.397187 h 0.038 c 0,6.084409 -4.95053,11.034469 -11.03493,11.034469 -4.48066,0 -8.33857,-2.68887 -10.06519,-6.53318 h -5.28581 c 1.9456,6.64525 8.07644,11.50246 15.351,11.50246 8.83845,0 16.00375,-7.16483 16.00375,-16.003749 V 63.49857 h -5.0068 z"
         id="Fill-19"
         fill="#000000"
         mask="url(#mask-4)" />
      <path
         d="m 154.68305,30.580023 c -0.38734,5.735053 -5.16483,10.286988 -10.99695,10.286988 -6.08488,0 -11.03494,-4.950528 -11.03494,-11.034467 0,-6.084877 4.95006,-11.035405 11.03494,-11.035405 5.83212,0 10.60961,4.551466 10.99695,10.287926 z m 0,-12.354513 c -2.86847,-2.718875 -6.73294,-4.397186 -10.99695,-4.397186 -8.83893,0 -16.00422,7.165298 -16.00422,16.00422 0,8.838452 7.16529,16.003751 16.00422,16.003751 4.26401,0 8.12848,-1.678311 10.99695,-4.397186 v 4.397186 h 5.0068 V 0.46888628 h -5.0068 z"
         id="Fill-20"
         fill="#000000"
         mask="url(#mask-4)" />
      <path
         d="m 254.16056,40.923095 c -5.78992,0 -10.54912,-4.48347 -10.99695,-10.160375 v -1.74959 c 0.44783,-5.676436 5.20703,-10.159906 10.99695,-10.159906 6.08488,0 11.03494,4.950059 11.03494,11.034467 0,6.084876 -4.95006,11.035404 -11.03494,11.035404 m 0,-27.039156 c -4.26072,0 -8.12895,1.667995 -10.99695,4.382649 v -4.436576 h -5.0068 v 45.362251 h 5.0068 V 41.508792 c 2.868,2.715124 6.73623,4.383119 10.99695,4.383119 8.83892,0 16.00422,-7.165299 16.00422,-16.00422 0,-8.838453 -7.1653,-16.003752 -16.00422,-16.003752"
         id="Fill-21"
         fill="#000000"
         mask="url(#mask-4)" />
      <path
         d="m 216.65229,63.576131 c -3.39883,0 -6.51724,1.24408 -8.94397,3.313013 v -3.390856 h -5.00914 V 95.51095 h 5.00914 V 77.785744 c 0,-5.071043 4.01267,-9.200937 8.94397,-9.200937 4.93083,0 8.93646,4.129894 8.93646,9.200937 V 95.51095 h 5.0082 V 77.785744 c 0,-3.912309 -1.56295,-7.466354 -4.0905,-10.040797 -2.52005,-2.574443 -6.00422,-4.168816 -9.85416,-4.168816"
         id="Fill-22"
         fill="#000000"
         mask="url(#mask-4)" />
      <path
         d="m 306.12511,63.506073 c -3.97468,0 -7.49027,2.232122 -9.72989,5.661899 -2.23213,-3.429777 -5.75522,-5.661899 -9.72146,-5.661899 -2.70715,0 -5.19625,1.042438 -7.21782,2.784056 v -2.792028 h -5.00914 v 32.012661 h 5.00914 V 77.785557 c 0,-2.512075 0.82439,-4.830012 2.13834,-6.517233 1.31442,-1.68816 3.11934,-2.753107 5.07948,-2.753107 3.91137,0 7.21688,4.24619 7.21688,9.27034 v 17.725205 h 5.00915 V 77.785557 c 0,-2.512075 0.82438,-4.830012 2.14631,-6.517233 1.31489,-1.68816 3.11887,-2.753107 5.07901,-2.753107 3.91184,0 7.21735,4.24619 7.21735,9.27034 v 17.725205 h 5.00868 V 77.785557 c 0,-7.870575 -5.49121,-14.279484 -12.22603,-14.279484"
         id="Fill-23"
         fill="#000000"
         mask="url(#mask-4)" />
    </g>
  </g>
</svg>
