<svg width="40" height="40" viewBox="0 0 40 40" fill="none" xmlns="http://www.w3.org/2000/svg">
  <path d="M5.50848 18.5508L8.47926 18.6957C8.65483 17.1096 9.15762 15.5771 9.95583 14.1952C10.754 12.8133 11.8303 11.612 13.1166 10.6674L11.4935 8.17485C11.1022 7.47925 11.3051 6.59527 12.0297 6.1895C12.7543 5.79823 13.6093 6.0301 14.015 6.72569L15.3628 9.36316C16.8276 8.7332 18.4055 8.40831 20.0001 8.40831C21.5947 8.40831 23.1725 8.7332 24.6374 9.36316L25.9851 6.72569C26.3909 6.0301 27.2459 5.79823 27.9704 6.1895C28.695 6.59527 28.8979 7.47925 28.5066 8.17485L26.8836 10.6674C28.1698 11.612 29.2461 12.8133 30.0443 14.1952C30.8425 15.5771 31.3453 17.1096 31.5209 18.6957L34.4917 18.5508C34.876 18.5508 35.2446 18.7035 35.5164 18.9753C35.7881 19.247 35.9408 19.6156 35.9408 20C35.9408 20.3843 35.7881 20.7529 35.5164 21.0247C35.2446 21.2965 34.876 21.4491 34.4917 21.4491L31.5209 21.3042C31.3453 22.8904 30.8425 24.4229 30.0443 25.8048C29.2461 27.1867 28.1698 28.3879 26.8836 29.3326L28.5066 31.8251C28.8979 32.5207 28.695 33.4047 27.9704 33.8105C27.2459 34.2017 26.3909 33.9699 25.9851 33.2743L24.6374 30.6368C23.1725 31.2668 21.5947 31.5917 20.0001 31.5917C18.4055 31.5917 16.8276 31.2668 15.3628 30.6368L14.015 33.2743C13.6093 33.9699 12.7543 34.2017 12.0297 33.8105C11.3051 33.4047 11.1022 32.5207 11.4935 31.8251L13.1166 29.3326C11.8303 28.3879 10.754 27.1867 9.95583 25.8048C9.15762 24.4229 8.65483 22.8904 8.47926 21.3042L5.50848 21.4491C5.12414 21.4491 4.75554 21.2965 4.48377 21.0247C4.212 20.7529 4.05933 20.3843 4.05933 20C4.05933 19.6156 4.212 19.247 4.48377 18.9753C4.75554 18.7035 5.12414 18.5508 5.50848 18.5508ZM15.754 19.058C15.9424 18.174 16.4206 17.3915 17.1018 16.7973L14.6961 13.1165C12.8788 14.5126 11.6862 16.5698 11.3776 18.8407L15.754 19.058ZM20.0001 15.6525C20.4638 15.6525 20.8985 15.725 21.3043 15.8554L23.3042 11.9572C22.2897 11.5369 21.1739 11.305 20.0001 11.305C18.8263 11.305 17.7104 11.5369 16.696 11.9572L18.6958 15.8554C19.1016 15.725 19.5363 15.6525 20.0001 15.6525ZM24.2461 19.058L28.6226 18.8407C28.314 16.5698 27.1213 14.5126 25.304 13.1165L22.8984 16.7973C23.5795 17.3915 24.0577 18.174 24.2461 19.058ZM24.2461 20.9419C24.0577 21.8259 23.5795 22.6085 22.8984 23.2026L25.304 26.8835C27.1213 25.4873 28.314 23.4301 28.6226 21.1593L24.2461 20.9419ZM20.0001 24.3475C19.5363 24.3475 19.1016 24.275 18.6813 24.1446L16.696 28.0428C17.7104 28.4631 18.8263 28.6949 20.0001 28.6949C21.1739 28.6949 22.2897 28.4631 23.3042 28.0428L21.3188 24.1446C20.8985 24.275 20.4638 24.3475 20.0001 24.3475ZM15.754 20.9419L11.3776 21.1593C11.6964 23.478 12.9137 25.5213 14.6961 26.8835L17.1018 23.2026C16.4206 22.6085 15.9424 21.8259 15.754 20.9419Z" fill="#2D7E5D"/>
</svg>
