<svg width="59" height="59" viewBox="0 0 59 59" fill="none" xmlns="http://www.w3.org/2000/svg">
  <circle cx="29.5" cy="29.5" r="29" fill="#81FEFC" stroke="white"/>
  <circle cx="29.4998" cy="29.5001" r="26.3678" fill="#34F8BB"/>
  <circle cx="29.5003" cy="29.5002" r="23.856" fill="#D7FEF9"/>
  <circle cx="29.5001" cy="29.5001" r="20.6476" fill="white"/>

  <path d="M44.9393 26.5567C44.8545 26.4903 44.0634 25.9013 42.395 25.9013C41.9545 25.9032 41.5148 25.9404 41.0804 26.0127C40.7575 23.8304 38.9276 22.7663 38.8456 22.7186L38.3976 22.4639L38.1029 22.8831C37.7339 23.4463 37.4645 24.0671 37.3064 24.7192C37.0077 25.965 37.1893 27.1351 37.8311 28.1354C37.0561 28.5612 35.8129 28.6661 35.5613 28.6753H14.9781C14.4405 28.6761 14.0042 29.1044 14.0013 29.6345C13.9773 31.4125 14.2828 33.1799 14.9028 34.8496C15.6118 36.6831 16.6667 38.0336 18.0391 38.8601C19.577 39.7888 22.0756 40.3195 24.9078 40.3195C26.1873 40.3234 27.4643 40.2092 28.7222 39.9785C30.4709 39.6619 32.1535 39.0593 33.7005 38.1955C34.9752 37.4676 36.1225 36.5417 37.0979 35.4532C38.7286 33.633 39.7001 31.6059 40.4226 29.8043C40.5194 29.8043 40.6163 29.8043 40.7105 29.8043C42.4959 29.8043 43.5939 29.0998 44.1993 28.5095C44.6017 28.133 44.9158 27.6743 45.1196 27.1656L45.2475 26.7968L44.9393 26.5567Z" fill="#2496ED"/>
  <path d="M16.7878 28.2032H19.5023C19.6332 28.2032 19.7393 28.0862 19.7393 27.942V27.942V25.2773C19.74 25.133 19.6345 25.0155 19.5036 25.0146C19.5032 25.0146 19.5027 25.0146 19.5023 25.0146H16.7878C16.6569 25.0146 16.5508 25.1316 16.5508 25.2758C16.5508 25.2763 16.5508 25.2768 16.5508 25.2773V27.9419C16.5508 28.0862 16.6569 28.2032 16.7878 28.2032V28.2032" fill="#2496ED"/>
  <path d="M20.6152 28.2032H23.3286C23.4594 28.2032 23.5655 28.0862 23.5655 27.942V27.942V25.2773C23.5662 25.133 23.4607 25.0155 23.3299 25.0146C23.3294 25.0146 23.3289 25.0146 23.3285 25.0146H20.6152C20.4836 25.0146 20.377 25.1322 20.377 25.2773V27.9419C20.3777 28.0864 20.4842 28.2032 20.6152 28.2032" fill="#2496ED"/>
  <path d="M24.4402 28.2032H27.1546C27.2856 28.2032 27.3916 28.0862 27.3916 27.942V27.942V25.2773C27.3924 25.133 27.2868 25.0155 27.1559 25.0146C27.1555 25.0146 27.155 25.0146 27.1546 25.0146H24.4401C24.3092 25.0146 24.2031 25.1316 24.2031 25.2758C24.2031 25.2763 24.2031 25.2768 24.2031 25.2773V27.9419C24.2032 28.0862 24.3093 28.2032 24.4402 28.2032V28.2032" fill="#2496ED"/>
  <path d="M28.2664 28.2032H30.9798C31.1109 28.2032 31.2173 28.0865 31.2181 27.942V25.2773C31.2181 25.1322 31.1114 25.0146 30.9798 25.0146V25.0146H28.2664C28.1356 25.0146 28.0295 25.1316 28.0295 25.2758C28.0295 25.2763 28.0295 25.2768 28.0295 25.2773V27.9419C28.0295 28.0862 28.1356 28.2032 28.2664 28.2032V28.2032" fill="#2496ED"/>
  <path d="M20.6152 24.377H23.3286C23.4596 24.3762 23.5655 24.2588 23.5655 24.1143V21.4497C23.5655 21.3054 23.4594 21.1885 23.3286 21.1885V21.1885H20.6152C20.4842 21.1885 20.3777 21.3052 20.377 21.4497V24.1143C20.3777 24.2591 20.4839 24.3762 20.6152 24.377" fill="#2496ED"/>
  <path d="M24.4401 24.377H27.1546C27.2857 24.3762 27.3916 24.2588 27.3916 24.1143V21.4497C27.3916 21.3054 27.2855 21.1885 27.1546 21.1885V21.1885H24.4401C24.3092 21.1885 24.2031 21.3054 24.2031 21.4497V21.4497V24.1143C24.2031 24.2588 24.309 24.3762 24.4401 24.377" fill="#2496ED"/>
  <path d="M28.2664 24.377H30.9798C31.1111 24.3762 31.2173 24.2591 31.2181 24.1143V21.4497C31.2173 21.3052 31.1109 21.1885 30.9798 21.1885H28.2664C28.1356 21.1885 28.0295 21.3054 28.0295 21.4497V21.4497V24.1143C28.0295 24.2588 28.1354 24.3762 28.2664 24.377" fill="#2496ED"/>
  <path d="M28.2664 21.1885H30.9798C31.1109 21.1885 31.2173 21.0718 31.2181 20.9273V18.2612C31.2173 18.1167 31.1109 18 30.9798 18H28.2664C28.1356 18 28.0295 18.1169 28.0295 18.2612V18.2612V20.9273C28.0295 21.0716 28.1356 21.1885 28.2664 21.1885" fill="#2496ED"/>
  <path d="M32.0926 28.2032H34.806C34.9371 28.2032 35.0435 28.0865 35.0442 27.942V25.2773C35.0442 25.1322 34.9376 25.0146 34.806 25.0146V25.0146H32.0926C31.9618 25.0146 31.8557 25.1316 31.8557 25.2758C31.8557 25.2763 31.8557 25.2768 31.8557 25.2773V27.9419C31.8557 28.0862 31.9618 28.2032 32.0926 28.2032" fill="#2496ED"/>
</svg>
