<svg width="370" height="296" viewBox="0 0 370 296" fill="none" xmlns="http://www.w3.org/2000/svg">
<rect width="370" height="296" rx="20" fill="white"/>
<path d="M171.465 124.904H192.173C204.916 124.904 204.916 137.647 192.173 137.647H171.465V124.904ZM122.086 183.841H185.801V166.319H171.465V153.576H187.394C204.916 153.576 195.359 183.841 209.694 183.841H249.517V153.576H239.959V156.762C239.959 169.505 225.623 167.912 224.03 159.947C222.438 151.983 216.066 145.611 214.473 145.611C238.366 132.868 224.03 107.382 204.916 107.382H130.05V124.904H145.979V166.319H122.086V183.841Z" fill="#9DA3B0" stroke="#9DA3B0" stroke-width="0.562818" stroke-linejoin="round"/>
<path d="M185.004 216.494C222.832 216.494 253.498 185.828 253.498 148C253.498 110.172 222.832 79.5064 185.004 79.5064C147.176 79.5064 116.51 110.172 116.51 148C116.51 185.828 147.176 216.494 185.004 216.494Z" stroke="#9DA3B0" stroke-width="5.06537"/>
<path d="M258.273 152.778L266.238 148L258.273 143.221V152.778Z" fill="#9DA3B0" stroke="#9DA3B0" stroke-width="1.68846" stroke-linejoin="round"/>
<path d="M255.938 166.982L264.682 163.849L257.803 157.608L255.938 166.982Z" fill="#9DA3B0" stroke="#9DA3B0" stroke-width="1.68846" stroke-linejoin="round"/>
<path d="M250.876 180.455L260.063 179.088L254.533 171.625L250.876 180.455Z" fill="#9DA3B0" stroke="#9DA3B0" stroke-width="1.68846" stroke-linejoin="round"/>
<path d="M243.266 192.682L252.543 193.133L248.576 184.735L243.266 192.682Z" fill="#9DA3B0" stroke="#9DA3B0" stroke-width="1.68846" stroke-linejoin="round"/>
<path d="M233.435 203.191L242.446 205.444L240.193 196.433L233.435 203.191Z" fill="#9DA3B0" stroke="#9DA3B0" stroke-width="1.68846" stroke-linejoin="round"/>
<path d="M221.739 211.579L230.137 215.547L229.686 206.27L221.739 211.579Z" fill="#9DA3B0" stroke="#9DA3B0" stroke-width="1.68846" stroke-linejoin="round"/>
<path d="M208.623 217.524L216.086 223.053L217.453 213.867L208.623 217.524Z" fill="#9DA3B0" stroke="#9DA3B0" stroke-width="1.68846" stroke-linejoin="round"/>
<path d="M194.607 220.797L200.847 227.677L203.98 218.933L194.607 220.797Z" fill="#9DA3B0" stroke="#9DA3B0" stroke-width="1.68846" stroke-linejoin="round"/>
<path d="M180.232 221.273L185.01 229.237L189.789 221.273H180.232Z" fill="#9DA3B0" stroke="#9DA3B0" stroke-width="1.68846" stroke-linejoin="round"/>
<path d="M166.019 218.932L169.152 227.676L175.393 220.797L166.019 218.932Z" fill="#9DA3B0" stroke="#9DA3B0" stroke-width="1.68846" stroke-linejoin="round"/>
<path d="M152.547 213.867L153.914 223.054L161.377 217.524L152.547 213.867Z" fill="#9DA3B0" stroke="#9DA3B0" stroke-width="1.68846" stroke-linejoin="round"/>
<path d="M140.331 206.269L139.879 215.546L148.277 211.579L140.331 206.269Z" fill="#9DA3B0" stroke="#9DA3B0" stroke-width="1.68846" stroke-linejoin="round"/>
<path d="M129.816 196.433L127.564 205.443L136.574 203.191L129.816 196.433Z" fill="#9DA3B0" stroke="#9DA3B0" stroke-width="1.68846" stroke-linejoin="round"/>
<path d="M121.425 184.736L117.457 193.134L126.734 192.682L121.425 184.736Z" fill="#9DA3B0" stroke="#9DA3B0" stroke-width="1.68846" stroke-linejoin="round"/>
<path d="M115.477 171.625L109.948 179.088L119.135 180.455L115.477 171.625Z" fill="#9DA3B0" stroke="#9DA3B0" stroke-width="1.68846" stroke-linejoin="round"/>
<path d="M112.202 157.608L105.323 163.849L114.066 166.982L112.202 157.608Z" fill="#9DA3B0" stroke="#9DA3B0" stroke-width="1.68846" stroke-linejoin="round"/>
<path d="M111.732 143.222L103.768 148.001L111.732 152.779V143.222Z" fill="#9DA3B0" stroke="#9DA3B0" stroke-width="1.68846" stroke-linejoin="round"/>
<path d="M114.077 129.019L105.334 132.152L112.213 138.392L114.077 129.019Z" fill="#9DA3B0" stroke="#9DA3B0" stroke-width="1.68846" stroke-linejoin="round"/>
<path d="M119.142 115.545L109.955 116.912L115.484 124.375L119.142 115.545Z" fill="#9DA3B0" stroke="#9DA3B0" stroke-width="1.68846" stroke-linejoin="round"/>
<path d="M126.734 103.319L117.457 102.868L121.424 111.266L126.734 103.319Z" fill="#9DA3B0" stroke="#9DA3B0" stroke-width="1.68846" stroke-linejoin="round"/>
<path d="M136.565 92.81L127.554 90.5573L129.807 99.568L136.565 92.81Z" fill="#9DA3B0" stroke="#9DA3B0" stroke-width="1.68846" stroke-linejoin="round"/>
<path d="M148.267 84.4212L139.869 80.4539L140.32 89.731L148.267 84.4212Z" fill="#9DA3B0" stroke="#9DA3B0" stroke-width="1.68846" stroke-linejoin="round"/>
<path d="M161.377 78.4764L153.914 72.9469L152.547 82.1338L161.377 78.4764Z" fill="#9DA3B0" stroke="#9DA3B0" stroke-width="1.68846" stroke-linejoin="round"/>
<path d="M175.397 75.2031L169.156 68.324L166.023 77.0676L175.397 75.2031Z" fill="#9DA3B0" stroke="#9DA3B0" stroke-width="1.68846" stroke-linejoin="round"/>
<path d="M189.786 74.7274L185.007 66.7629L180.229 74.7274H189.786Z" fill="#9DA3B0" stroke="#9DA3B0" stroke-width="1.68846" stroke-linejoin="round"/>
<path d="M203.981 77.0678L200.848 68.3241L194.607 75.2032L203.981 77.0678Z" fill="#9DA3B0" stroke="#9DA3B0" stroke-width="1.68846" stroke-linejoin="round"/>
<path d="M217.465 82.1337L216.098 72.9468L208.635 78.4763L217.465 82.1337Z" fill="#9DA3B0" stroke="#9DA3B0" stroke-width="1.68846" stroke-linejoin="round"/>
<path d="M229.685 89.7312L230.136 80.4542L221.738 84.4214L229.685 89.7312Z" fill="#9DA3B0" stroke="#9DA3B0" stroke-width="1.68846" stroke-linejoin="round"/>
<path d="M240.19 99.5678L242.442 90.5571L233.432 92.8098L240.19 99.5678Z" fill="#9DA3B0" stroke="#9DA3B0" stroke-width="1.68846" stroke-linejoin="round"/>
<path d="M248.581 111.266L252.549 102.868L243.271 103.319L248.581 111.266Z" fill="#9DA3B0" stroke="#9DA3B0" stroke-width="1.68846" stroke-linejoin="round"/>
<path d="M254.534 124.375L260.064 116.912L250.877 115.545L254.534 124.375Z" fill="#9DA3B0" stroke="#9DA3B0" stroke-width="1.68846" stroke-linejoin="round"/>
<path d="M257.792 138.392L264.671 132.151L255.928 129.018L257.792 138.392Z" fill="#9DA3B0" stroke="#9DA3B0" stroke-width="1.68846" stroke-linejoin="round"/>
<path d="M173.85 81.0994L185 92.2496L196.15 81.0994H173.85Z" fill="#9DA3B0" stroke="#9DA3B0" stroke-width="3.37691" stroke-linejoin="round"/>
<path d="M245.186 116.723L238.027 130.773L252.077 137.932L245.186 116.723Z" fill="#9DA3B0" stroke="#9DA3B0" stroke-width="3.37691" stroke-linejoin="round"/>
<path d="M233.346 195.571L217.771 193.104L215.304 208.679L233.346 195.571Z" fill="#9DA3B0" stroke="#9DA3B0" stroke-width="3.37691" stroke-linejoin="round"/>
<path d="M154.705 208.679L152.238 193.104L136.664 195.571L154.705 208.679Z" fill="#9DA3B0" stroke="#9DA3B0" stroke-width="3.37691" stroke-linejoin="round"/>
<path d="M117.932 137.932L131.982 130.773L124.823 116.723L117.932 137.932Z" fill="#9DA3B0" stroke="#9DA3B0" stroke-width="3.37691" stroke-linejoin="round"/>
</svg>
