<svg width="371" height="296" viewBox="0 0 371 296" fill="none" xmlns="http://www.w3.org/2000/svg">
<rect x="0.568359" width="370" height="296" rx="20" fill="white"/>
<path fill-rule="evenodd" clip-rule="evenodd" d="M144.492 211.822C144.009 214.97 146.132 218.453 149.316 218.453L189.831 218.453C192.166 218.453 194.059 216.56 194.059 214.225L194.059 81.7742C194.059 79.4396 192.166 77.5471 189.831 77.5471L57.3802 77.5471C55.0456 77.5471 53.153 79.4396 53.153 81.7742L53.153 122.286C53.153 125.471 49.6697 127.594 46.522 127.11C45.4675 126.948 44.3874 126.864 43.2875 126.864C31.6146 126.864 22.1517 136.327 22.1517 148C22.1517 159.673 31.6145 169.136 43.2875 169.136C44.3874 169.136 45.4675 169.052 46.522 168.89C49.6697 168.407 53.153 170.529 53.153 173.714L53.153 214.225C53.153 216.56 55.0456 218.453 57.3802 218.453L97.8883 218.453C101.073 218.453 103.195 214.97 102.712 211.822C102.55 210.768 102.466 209.689 102.466 208.589C102.466 196.916 111.929 187.454 123.602 187.454C135.275 187.454 144.738 196.916 144.738 208.589C144.738 209.689 144.654 210.768 144.492 211.822Z" fill="#D1D6D9"/>
<path d="M102.712 211.822L104.363 211.569L102.712 211.822ZM46.522 168.89L46.7756 170.541L46.522 168.89ZM46.522 127.11L46.7756 125.459L46.522 127.11ZM144.492 211.822L146.143 212.076L144.492 211.822ZM189.831 220.123L149.316 220.123L149.316 216.782L189.831 216.782L189.831 220.123ZM195.729 81.7742L195.729 214.225L192.388 214.225L192.388 81.7742L195.729 81.7742ZM57.3802 75.8768L189.831 75.8768L189.831 79.2173L57.3802 79.2173L57.3802 75.8768ZM51.4828 122.286L51.4828 81.7742L54.8233 81.7742L54.8233 122.286L51.4828 122.286ZM43.2875 125.194C44.4725 125.194 45.6375 125.284 46.7756 125.459L46.2685 128.761C45.2976 128.612 44.3022 128.534 43.2875 128.534L43.2875 125.194ZM20.4815 148C20.4815 135.405 30.6921 125.194 43.2875 125.194L43.2875 128.534C32.537 128.534 23.822 137.249 23.822 148L20.4815 148ZM43.2875 170.806C30.6921 170.806 20.4815 160.595 20.4815 148L23.822 148C23.822 158.751 32.537 167.466 43.2875 167.466L43.2875 170.806ZM46.7756 170.541C45.6375 170.716 44.4725 170.806 43.2875 170.806L43.2875 167.466C44.3022 167.466 45.2976 167.388 46.2685 167.239L46.7756 170.541ZM51.4828 214.225L51.4828 173.714L54.8233 173.714L54.8233 214.225L51.4828 214.225ZM97.8883 220.123L57.3802 220.123L57.3802 216.782L97.8883 216.782L97.8883 220.123ZM104.137 208.589C104.137 209.604 104.214 210.598 104.363 211.569L101.061 212.076C100.887 210.938 100.796 209.774 100.796 208.589L104.137 208.589ZM123.602 189.124C112.852 189.124 104.137 197.839 104.137 208.589L100.796 208.589C100.796 195.994 111.007 185.783 123.602 185.783L123.602 189.124ZM143.068 208.589C143.068 197.839 134.353 189.124 123.602 189.124L123.602 185.783C136.198 185.783 146.408 195.994 146.408 208.589L143.068 208.589ZM142.841 211.569C142.99 210.598 143.068 209.604 143.068 208.589L146.408 208.589C146.408 209.774 146.318 210.938 146.143 212.076L142.841 211.569ZM97.8883 216.782C98.8175 216.782 99.6723 216.284 100.299 215.372C100.935 214.446 101.236 213.215 101.061 212.076L104.363 211.569C104.671 213.577 104.153 215.661 103.052 217.263C101.942 218.88 100.143 220.123 97.8883 220.123L97.8883 216.782ZM54.8233 214.225C54.8233 215.638 55.9681 216.782 57.3802 216.782L57.3802 220.123C54.1231 220.123 51.4828 217.483 51.4828 214.225L54.8233 214.225ZM46.2685 167.239C48.2767 166.931 50.3611 167.449 51.9635 168.55C53.5798 169.66 54.8233 171.458 54.8233 173.714L51.4828 173.714C51.4828 172.784 50.9845 171.93 50.0723 171.303C49.1461 170.667 47.915 170.366 46.7756 170.541L46.2685 167.239ZM54.8233 122.286C54.8233 124.542 53.5798 126.34 51.9635 127.45C50.3611 128.551 48.2767 129.069 46.2685 128.761L46.7756 125.459C47.915 125.634 49.1461 125.333 50.0723 124.697C50.9845 124.07 51.4828 123.216 51.4828 122.286L54.8233 122.286ZM57.3802 79.2173C55.9681 79.2173 54.8233 80.3621 54.8233 81.7742L51.4828 81.7742C51.4828 78.5172 54.1231 75.8768 57.3802 75.8768L57.3802 79.2173ZM192.388 81.7742C192.388 80.3621 191.244 79.2173 189.831 79.2173L189.831 75.8768C193.088 75.8768 195.729 78.5172 195.729 81.7742L192.388 81.7742ZM149.316 220.123C147.061 220.123 145.262 218.88 144.152 217.263C143.052 215.661 142.533 213.577 142.841 211.569L146.143 212.076C145.968 213.215 146.27 214.446 146.906 215.372C147.532 216.284 148.387 216.782 149.316 216.782L149.316 220.123ZM189.831 216.782C191.244 216.782 192.388 215.638 192.388 214.225L195.729 214.225C195.729 217.483 193.088 220.123 189.831 220.123L189.831 216.782Z" fill="#D1D6D9"/>
<path d="M114.09 140.041H121.226C125.617 140.041 125.617 144.432 121.226 144.432H114.09V140.041ZM97.0742 160.35H119.03V154.312H114.09V149.921H119.579C125.617 149.921 122.324 160.35 127.264 160.35H140.987V149.921H137.693V151.019C137.693 155.41 132.753 154.861 132.204 152.117C131.655 149.372 129.46 147.177 128.911 147.177C137.144 142.785 132.204 134.003 125.617 134.003H99.8187V140.041H105.308V154.312H97.0742V160.35Z" fill="black" stroke="black" stroke-width="0.193947" stroke-linejoin="round"/>
<path d="M118.755 171.603C131.791 171.603 142.358 161.035 142.358 148C142.358 134.964 131.791 124.397 118.755 124.397C105.72 124.397 95.1523 134.964 95.1523 148C95.1523 161.035 105.72 171.603 118.755 171.603Z" stroke="black" stroke-width="1.74552"/>
<path d="M144.004 149.646L146.748 148L144.004 146.353V149.646Z" fill="black" stroke="black" stroke-width="0.58184" stroke-linejoin="round"/>
<path d="M143.199 154.541L146.212 153.461L143.842 151.311L143.199 154.541Z" fill="black" stroke="black" stroke-width="0.58184" stroke-linejoin="round"/>
<path d="M141.455 159.184L144.62 158.713L142.715 156.141L141.455 159.184Z" fill="black" stroke="black" stroke-width="0.58184" stroke-linejoin="round"/>
<path d="M138.832 163.397L142.029 163.553L140.662 160.659L138.832 163.397Z" fill="black" stroke="black" stroke-width="0.58184" stroke-linejoin="round"/>
<path d="M135.445 167.019L138.55 167.795L137.773 164.69L135.445 167.019Z" fill="black" stroke="black" stroke-width="0.58184" stroke-linejoin="round"/>
<path d="M131.414 169.909L134.308 171.276L134.152 168.079L131.414 169.909Z" fill="black" stroke="black" stroke-width="0.58184" stroke-linejoin="round"/>
<path d="M126.895 171.958L129.466 173.863L129.938 170.697L126.895 171.958Z" fill="black" stroke="black" stroke-width="0.58184" stroke-linejoin="round"/>
<path d="M122.065 173.086L124.215 175.456L125.295 172.443L122.065 173.086Z" fill="black" stroke="black" stroke-width="0.58184" stroke-linejoin="round"/>
<path d="M117.111 173.25L118.758 175.994L120.404 173.25H117.111Z" fill="black" stroke="black" stroke-width="0.58184" stroke-linejoin="round"/>
<path d="M112.213 172.443L113.293 175.456L115.443 173.085L112.213 172.443Z" fill="black" stroke="black" stroke-width="0.58184" stroke-linejoin="round"/>
<path d="M107.571 170.697L108.042 173.863L110.613 171.958L107.571 170.697Z" fill="black" stroke="black" stroke-width="0.58184" stroke-linejoin="round"/>
<path d="M103.361 168.079L103.206 171.276L106.1 169.909L103.361 168.079Z" fill="black" stroke="black" stroke-width="0.58184" stroke-linejoin="round"/>
<path d="M99.7376 164.69L98.9613 167.795L102.066 167.018L99.7376 164.69Z" fill="black" stroke="black" stroke-width="0.58184" stroke-linejoin="round"/>
<path d="M96.846 160.659L95.4789 163.553L98.6758 163.397L96.846 160.659Z" fill="black" stroke="black" stroke-width="0.58184" stroke-linejoin="round"/>
<path d="M94.7963 156.141L92.8909 158.713L96.0566 159.184L94.7963 156.141Z" fill="black" stroke="black" stroke-width="0.58184" stroke-linejoin="round"/>
<path d="M93.668 151.311L91.2975 153.461L94.3105 154.541L93.668 151.311Z" fill="black" stroke="black" stroke-width="0.58184" stroke-linejoin="round"/>
<path d="M93.5059 146.353L90.7613 148L93.5059 149.647V146.353Z" fill="black" stroke="black" stroke-width="0.58184" stroke-linejoin="round"/>
<path d="M94.3144 141.459L91.3013 142.538L93.6719 144.689L94.3144 141.459Z" fill="black" stroke="black" stroke-width="0.58184" stroke-linejoin="round"/>
<path d="M96.0592 136.816L92.8934 137.287L94.7988 139.859L96.0592 136.816Z" fill="black" stroke="black" stroke-width="0.58184" stroke-linejoin="round"/>
<path d="M98.6754 132.603L95.4786 132.447L96.8457 135.341L98.6754 132.603Z" fill="black" stroke="black" stroke-width="0.58184" stroke-linejoin="round"/>
<path d="M102.063 128.981L98.9581 128.205L99.7344 131.31L102.063 128.981Z" fill="black" stroke="black" stroke-width="0.58184" stroke-linejoin="round"/>
<path d="M106.096 126.091L103.202 124.723L103.357 127.92L106.096 126.091Z" fill="black" stroke="black" stroke-width="0.58184" stroke-linejoin="round"/>
<path d="M110.613 124.042L108.041 122.137L107.57 125.302L110.613 124.042Z" fill="black" stroke="black" stroke-width="0.58184" stroke-linejoin="round"/>
<path d="M115.445 122.914L113.294 120.544L112.215 123.557L115.445 122.914Z" fill="black" stroke="black" stroke-width="0.58184" stroke-linejoin="round"/>
<path d="M120.403 122.75L118.756 120.006L117.109 122.75H120.403Z" fill="black" stroke="black" stroke-width="0.58184" stroke-linejoin="round"/>
<path d="M125.295 123.557L124.215 120.544L122.064 122.914L125.295 123.557Z" fill="black" stroke="black" stroke-width="0.58184" stroke-linejoin="round"/>
<path d="M129.941 125.302L129.47 122.137L126.898 124.042L129.941 125.302Z" fill="black" stroke="black" stroke-width="0.58184" stroke-linejoin="round"/>
<path d="M134.152 127.92L134.308 124.724L131.414 126.091L134.152 127.92Z" fill="black" stroke="black" stroke-width="0.58184" stroke-linejoin="round"/>
<path d="M137.772 131.31L138.548 128.205L135.443 128.981L137.772 131.31Z" fill="black" stroke="black" stroke-width="0.58184" stroke-linejoin="round"/>
<path d="M140.664 135.341L142.031 132.447L138.834 132.603L140.664 135.341Z" fill="black" stroke="black" stroke-width="0.58184" stroke-linejoin="round"/>
<path d="M142.715 139.859L144.621 137.287L141.455 136.816L142.715 139.859Z" fill="black" stroke="black" stroke-width="0.58184" stroke-linejoin="round"/>
<path d="M143.838 144.689L146.208 142.538L143.195 141.459L143.838 144.689Z" fill="black" stroke="black" stroke-width="0.58184" stroke-linejoin="round"/>
<path d="M114.912 124.946L118.754 128.788L122.597 124.946H114.912Z" fill="black" stroke="black" stroke-width="1.16368" stroke-linejoin="round"/>
<path d="M139.494 137.222L137.027 142.063L141.869 144.53L139.494 137.222Z" fill="black" stroke="black" stroke-width="1.16368" stroke-linejoin="round"/>
<path d="M135.414 164.393L130.047 163.543L129.197 168.91L135.414 164.393Z" fill="black" stroke="black" stroke-width="1.16368" stroke-linejoin="round"/>
<path d="M108.314 168.91L107.464 163.543L102.097 164.393L108.314 168.91Z" fill="black" stroke="black" stroke-width="1.16368" stroke-linejoin="round"/>
<path d="M95.6426 144.53L100.484 142.063L98.0173 137.222L95.6426 144.53Z" fill="black" stroke="black" stroke-width="1.16368" stroke-linejoin="round"/>
<path fill-rule="evenodd" clip-rule="evenodd" d="M194.061 81.7743C194.061 79.4397 195.954 77.5471 198.288 77.5471L330.74 77.5471C333.074 77.5471 334.967 79.4397 334.967 81.7743L334.967 214.226C334.967 216.56 333.074 218.453 330.74 218.453L290.224 218.453C287.04 218.453 284.917 214.97 285.4 211.822C285.562 210.768 285.646 209.689 285.646 208.589C285.646 196.916 276.183 187.453 264.51 187.453C252.837 187.453 243.374 196.916 243.374 208.589C243.374 209.689 243.458 210.768 243.62 211.822C244.103 214.97 241.98 218.453 238.796 218.453L198.288 218.453C195.954 218.453 194.061 216.56 194.061 214.226L194.061 173.714C194.061 170.529 190.578 168.407 187.43 168.89C186.376 169.052 185.296 169.136 184.196 169.136C172.523 169.136 163.06 159.673 163.06 148C163.06 136.327 172.523 126.864 184.196 126.864C185.296 126.864 186.376 126.948 187.43 127.11C190.578 127.593 194.061 125.471 194.061 122.286L194.061 81.7743Z" fill="white"/>
<path d="M187.43 168.89L187.751 170.976L187.43 168.89ZM198.288 218.453L198.288 216.343L198.288 218.453ZM243.62 211.822L245.705 211.502L243.62 211.822ZM238.796 218.453L238.796 220.563L238.796 218.453ZM187.43 127.11L187.751 125.024L187.43 127.11ZM330.74 75.437L198.288 75.437L198.288 79.6572L330.74 79.6572L330.74 75.437ZM337.077 214.226L337.077 81.7743L332.857 81.7743L332.857 214.226L337.077 214.226ZM290.224 220.563L330.74 220.563L330.74 216.343L290.224 216.343L290.224 220.563ZM283.536 208.589C283.536 209.581 283.46 210.554 283.314 211.502L287.486 212.142C287.664 210.983 287.756 209.796 287.756 208.589L283.536 208.589ZM264.51 189.564C275.018 189.564 283.536 198.082 283.536 208.589L287.756 208.589C287.756 195.751 277.348 185.343 264.51 185.343L264.51 189.564ZM245.484 208.589C245.484 198.082 254.002 189.564 264.51 189.564L264.51 185.343C251.672 185.343 241.264 195.751 241.264 208.589L245.484 208.589ZM245.705 211.502C245.56 210.554 245.484 209.581 245.484 208.589L241.264 208.589C241.264 209.796 241.356 210.983 241.534 212.142L245.705 211.502ZM198.288 220.563L238.796 220.563L238.796 216.343L198.288 216.343L198.288 220.563ZM191.951 173.714L191.951 214.226L196.171 214.226L196.171 173.714L191.951 173.714ZM184.196 171.246C185.403 171.246 186.59 171.154 187.751 170.976L187.11 166.804C186.161 166.95 185.188 167.026 184.196 167.026L184.196 171.246ZM160.95 148C160.95 160.838 171.357 171.246 184.196 171.246L184.196 167.026C173.688 167.026 165.17 158.508 165.17 148L160.95 148ZM184.196 124.754C171.357 124.754 160.95 135.162 160.95 148L165.17 148C165.17 137.492 173.688 128.974 184.196 128.974L184.196 124.754ZM187.751 125.024C186.59 124.846 185.403 124.754 184.196 124.754L184.196 128.974C185.188 128.974 186.161 129.05 187.11 129.196L187.751 125.024ZM191.951 81.7743L191.951 122.286L196.171 122.286L196.171 81.7743L191.951 81.7743ZM196.171 173.714C196.171 171.284 194.83 169.361 193.121 168.187C191.429 167.025 189.233 166.478 187.11 166.804L187.751 170.976C188.776 170.818 189.894 171.091 190.731 171.666C191.551 172.229 191.951 172.959 191.951 173.714L196.171 173.714ZM198.288 216.343C197.119 216.343 196.171 215.395 196.171 214.226L191.951 214.226C191.951 217.726 194.788 220.563 198.288 220.563L198.288 216.343ZM290.224 216.343C289.469 216.343 288.739 215.943 288.176 215.123C287.601 214.286 287.328 213.167 287.486 212.142L283.314 211.502C282.989 213.625 283.536 215.821 284.697 217.513C285.871 219.221 287.794 220.563 290.224 220.563L290.224 216.343ZM241.534 212.142C241.691 213.167 241.419 214.286 240.844 215.123C240.281 215.943 239.551 216.343 238.796 216.343L238.796 220.563C241.226 220.563 243.149 219.221 244.323 217.513C245.484 215.821 246.031 213.625 245.705 211.502L241.534 212.142ZM187.11 129.196C189.233 129.522 191.429 128.975 193.121 127.813C194.83 126.639 196.171 124.716 196.171 122.286L191.951 122.286C191.951 123.041 191.551 123.771 190.731 124.334C189.894 124.909 188.776 125.182 187.751 125.024L187.11 129.196ZM332.857 214.226C332.857 215.395 331.909 216.343 330.74 216.343L330.74 220.563C334.24 220.563 337.077 217.726 337.077 214.226L332.857 214.226ZM198.288 75.437C194.788 75.437 191.951 78.2743 191.951 81.7743L196.171 81.7743C196.171 80.6051 197.119 79.6572 198.288 79.6572L198.288 75.437ZM330.74 79.6572C331.909 79.6572 332.857 80.6051 332.857 81.7743L337.077 81.7743C337.077 78.2743 334.24 75.437 330.74 75.437L330.74 79.6572Z" fill="#D1D6D9"/>
<path d="M266.281 131.036L258.969 143.727H258.92L251.682 131.16L266.281 131.036Z" fill="#83FF50" stroke="#83FF50" stroke-width="0.247872" stroke-miterlimit="5.3333"/>
<mask id="mask0_1646_811" style="mask-type:luminance" maskUnits="userSpaceOnUse" x="232" y="116" width="40" height="18">
<path d="M271.275 133.32H232.012V116.043H271.275V133.32Z" fill="white"/>
</mask>
<g mask="url(#mask0_1646_811)">
<g opacity="0.83">
<path d="M266.356 130.965L266.331 131.014H266.306V131.039L251.682 131.163V131.138H237.033L236.934 130.965L244.295 118.224H259.019L266.356 130.965Z" fill="#96FF5B" fill-opacity="0.6471"/>
</g>
</g>
<path d="M266.321 131.017L259.009 143.708H258.984L266.297 131.017H266.321Z" fill="white"/>
<path d="M259.016 143.892L258.991 143.941L251.654 156.632H236.956L229.594 143.892L236.956 131.151H237.03L244.268 143.718H258.917L259.016 143.892Z" fill="#00D6FF" stroke="#00D6FF" stroke-width="0.247872" stroke-miterlimit="5.3333"/>
<path d="M258.911 143.717H244.286L237.023 131.149H251.673L258.911 143.717Z" fill="#7DFFFF" stroke="#7DFFFF" stroke-width="0.247872" stroke-miterlimit="5.3333"/>
<path d="M266.39 156.318L266.514 156.516H266.29L260.713 156.566L251.666 156.64L259.003 143.949H273.553L266.39 156.318Z" fill="#32E6FF" stroke="#32E6FF" stroke-width="0.247872" stroke-miterlimit="5.3333"/>
<mask id="mask1_1646_811" style="mask-type:luminance" maskUnits="userSpaceOnUse" x="247" y="139" width="31" height="35">
<path d="M277.624 173.698H247.904V139.69H277.624V173.698Z" fill="white"/>
</mask>
<g mask="url(#mask1_1646_811)">
<g opacity="0.86">
<path d="M273.92 169.069L273.697 169.441H258.999L251.637 156.7L251.662 156.651L258.999 143.96H259.023L251.686 156.626L260.734 156.552L266.336 156.502H266.559L273.772 169.069H273.92Z" fill="#00D5FF" fill-opacity="0.5451"/>
</g>
</g>
<path d="M266.394 156.318L266.518 156.516H266.295L259.057 143.949H273.557L266.394 156.318Z" fill="#20E6FF" stroke="#20E6FF" stroke-width="0.247872" stroke-miterlimit="5.3333"/>
<path d="M280.939 156.516H266.513L266.389 156.318L273.527 143.949H273.676L280.939 156.516Z" fill="#2AF0FF" stroke="#2AF0FF" stroke-width="0.247872" stroke-miterlimit="5.3333"/>
<mask id="mask2_1646_811" style="mask-type:luminance" maskUnits="userSpaceOnUse" x="264" y="154" width="20" height="18">
<path d="M283.493 171.17H264.109V154.439H283.493V171.17Z" fill="white"/>
</mask>
<g mask="url(#mask2_1646_811)">
<g opacity="0.95">
<path d="M281.057 156.691L273.918 169.059H273.769L266.531 156.517H280.957L281.057 156.691Z" fill="#29EFFF" fill-opacity="0.8"/>
</g>
</g>
<path d="M288.376 143.769L281.014 156.509H280.939L273.702 143.942H259.052L258.953 143.769L258.978 143.719L266.29 131.028V131.003H281.014L288.252 143.545L288.376 143.769Z" fill="#32F8B9" stroke="#32F8B9" stroke-width="0.247872" stroke-miterlimit="5.3333"/>
<mask id="mask3_1646_811" style="mask-type:luminance" maskUnits="userSpaceOnUse" x="269" y="139" width="31" height="35">
<path d="M299.413 173.696H269.99V139.465H299.413V173.696Z" fill="white"/>
</mask>
<g mask="url(#mask3_1646_811)">
<g opacity="0.85">
<path d="M295.715 156.495L288.353 169.236L273.654 169.434L280.942 156.867L280.843 156.694H280.917L288.279 143.953L288.155 143.755H288.378L295.715 156.495Z" fill="#32F6B8" fill-opacity="0.5647"/>
</g>
</g>
</svg>
