<svg width="46" height="45" viewBox="0 0 46 45" fill="none" xmlns="http://www.w3.org/2000/svg">
  <g clip-path="url(#clip0_5019_20945)">
    <rect width="45" height="45" transform="translate(0.5 -0.00476074)" fill="white"/>
    <path d="M21.3005 37.7404H19.6066L21.3005 25.883H15.3718C14.3893 25.883 14.4063 25.341 14.7281 24.765C15.0499 24.1891 14.8128 24.6295 14.8467 24.5618C17.0318 20.6997 20.318 14.9404 24.6883 7.25H26.3822L24.6883 19.1074H30.617C31.447 19.1074 31.5656 19.6664 31.4131 19.9713L31.2945 20.2254C24.6205 31.8964 21.3005 37.7404 21.3005 37.7404Z" fill="#2D7E5D"/>
    <path d="M12.4286 16.0648V18.8079L4.16004 21.7279L12.4286 24.6578V27.391L0.846734 22.9864V20.4694L12.4286 16.0648Z" fill="#2D7E5D"/>
    <path d="M33.5714 16.0648V18.8079L41.84 21.7279L33.5714 24.6578V27.391L45.1533 22.9864V20.4694L33.5714 16.0648Z" fill="#2D7E5D"/>
  </g>

  <defs>
    <clipPath id="clip0_5019_20945">
      <rect width="45" height="45" fill="white" transform="translate(0.5 -0.00476074)"/>
    </clipPath>
  </defs>
</svg>
