<?xml version="1.0" encoding="UTF-8" standalone="no"?>
<svg
   xmlns:dc="http://purl.org/dc/elements/1.1/"
   xmlns:cc="http://creativecommons.org/ns#"
   xmlns:rdf="http://www.w3.org/1999/02/22-rdf-syntax-ns#"
   xmlns:svg="http://www.w3.org/2000/svg"
   xmlns="http://www.w3.org/2000/svg"
   xmlns:xlink="http://www.w3.org/1999/xlink"
   xmlns:sodipodi="http://sodipodi.sourceforge.net/DTD/sodipodi-0.dtd"
   xmlns:inkscape="http://www.inkscape.org/namespaces/inkscape"
   width="222"
   height="50"
   viewBox="0 0 222 50"
   version="1.1"
   id="svg432"
   sodipodi:docname="envoy-logo.svg"
   inkscape:version="1.0.1 (c497b03c, 2020-09-10)">
  <metadata
     id="metadata436">
    <rdf:RDF>
      <cc:Work
         rdf:about="">
        <dc:format>image/svg+xml</dc:format>
        <dc:type
           rdf:resource="http://purl.org/dc/dcmitype/StillImage" />
        <dc:title>Envoy_Logo_Final_PANTONE-REVERSE</dc:title>
      </cc:Work>
    </rdf:RDF>
  </metadata>
  <sodipodi:namedview
     pagecolor="#ffffff"
     bordercolor="#666666"
     borderopacity="1"
     objecttolerance="10"
     gridtolerance="10"
     guidetolerance="10"
     inkscape:pageopacity="0"
     inkscape:pageshadow="2"
     inkscape:window-width="1920"
     inkscape:window-height="1035"
     id="namedview434"
     showgrid="false"
     inkscape:pagecheckerboard="true"
     inkscape:zoom="2.0153257"
     inkscape:cx="114.62167"
     inkscape:cy="82.515209"
     inkscape:window-x="0"
     inkscape:window-y="534"
     inkscape:window-maximized="0"
     inkscape:current-layer="svg432"
     inkscape:document-rotation="0" />
  <!-- Generator: Sketch 45 (43475) - http://www.bohemiancoding.com/sketch -->
  <title
     id="title401">Envoy_Logo_Final_PANTONE-REVERSE</title>
  <desc
     id="desc403">Created with Sketch.</desc>
  <defs
     id="defs407">
    <polygon
       id="path-1"
       points="0,0.449 0,87.94 91.22,87.94 91.22,0.449 " />
    <polygon
       id="path-3"
       points="0.69512669,0.484 191.857,0.484 191.857,163.03797 0.69512669,163.03797 " />
  </defs>
  <g
     id="Page-1"
     stroke="none"
     stroke-width="1"
     fill="none"
     fill-rule="evenodd"
     transform="translate(0,-68)">
    <g
       id="Envoy_Logo_Final_PANTONE-REVERSE">
      <polyline
         id="Fill-6"
         fill="#953984"
         points="56.279 81.853 56.601 95.448 70.917 104.324 70.596 90.72 56.279 81.853" />
      <g
         id="Group-10"
         transform="translate(0,81)">
        <mask
           id="mask-2"
           fill="#ffffff">
          <use
             xlink:href="#path-1"
             id="use415"
             x="0"
             y="0"
             width="100%"
             height="100%" />
        </mask>
        <g
           id="Clip-8" />
        <path
           d="M 91.22,57.357 90.907,44.042 78.361,36.268 C 78.175,36.152 78.01,36.016 77.829,35.894 l 0.317,13.36 13.074,8.103"
           id="Fill-7"
           fill="#953984"
           mask="url(#mask-2)" />
        <path
           d="M 46.52,75.284 13.788,55.002 12.992,20.964 29.039,14.044 28.717,0.449 3.107,11.49 c -1.97,0.857 -3.154,2.664 -3.106,4.772 l 0.961,40.835 c 0.048,2.107 1.328,4.17 3.351,5.433 l 39.254,24.326 c 1.829,1.131 4.035,1.441 5.895,0.853 0.197,-0.062 0.376,-0.133 0.555,-0.203 L 74.105,77.122 61.04,69.022 46.52,75.284"
           id="Fill-9"
           fill="#953984"
           mask="url(#mask-2)" />
      </g>
      <path
         d="m 152.283,81.075 c -0.06,-2.448 -1.547,-4.873 -3.909,-6.331 l -47.658,-29.537 -1.471,0.635 0.337,14.292 37.738,23.38 0.902,38.24 14.433,8.944 0.787,-0.34 -1.159,-49.283"
         id="Fill-11"
         fill="#ac6199" />
      <g
         id="Group-15"
         transform="translate(34)">
        <mask
           id="mask-4"
           fill="#ffffff">
          <use
             xlink:href="#path-3"
             id="use423"
             x="0"
             y="0"
             width="100%"
             height="100%" />
        </mask>
        <g
           id="Clip-13" />
        <path
           d="M 61.206,148.199 16.93,120.759 15.842,74.699 36.014,66.01 35.64,50.146 4.319,63.648 c -2.297,1.001 -3.682,3.121 -3.622,5.568 l 1.275,53.995 c 0.048,2.452 1.542,4.86 3.904,6.319 l 51.896,32.171 c 2.138,1.323 4.71,1.682 6.878,0.997 0.222,-0.07 0.438,-0.152 0.647,-0.246 l 30.656,-13.215 -15.244,-9.446 -19.503,8.408"
           id="Fill-12"
           fill="#ac6199"
           mask="url(#mask-4)" />
        <path
           d="m 118.133,137.748 -57.831,-35.837 -1.422,-60.15 56.411,-24.313 57.825,35.824 1.422,60.15 z M 185.76,43.255 119.219,2.011 c -2.455,-1.521 -5.381,-1.922 -7.884,-1.131 -0.246,0.078 -0.487,0.167 -0.724,0.268 L 45.707,29.137 c -2.629,1.134 -4.21,3.549 -4.144,6.353 l 1.632,69.222 c 0.065,2.804 1.773,5.558 4.469,7.229 l 66.536,41.231 c 2.446,1.515 5.373,1.927 7.861,1.141 0.246,-0.078 0.499,-0.171 0.746,-0.277 l 64.91,-27.977 c 2.629,-1.134 4.204,-3.561 4.138,-6.366 L 190.23,50.484 c -0.066,-2.804 -1.774,-5.559 -4.47,-7.229 z"
           id="Fill-14"
           fill="#c04589"
           mask="url(#mask-4)" />
      </g>
    </g>
  </g>
</svg>
