<svg width="40" height="40" viewBox="0 0 40 40" fill="none" xmlns="http://www.w3.org/2000/svg">
<path d="M32.5267 18.2803C27.5462 11.3378 17.7361 9.67762 10.7936 14.8091C8.98251 16.1674 7.47327 17.9785 6.26587 19.9405C6.56772 20.5442 7.02049 21.1479 7.47327 21.7516C12.4538 28.6941 21.962 30.2034 28.9045 25.3738C30.2629 24.3173 31.4703 23.2608 32.5267 21.7516C32.9795 21.1479 33.2814 20.5442 33.7341 19.9405C33.2814 19.3368 32.9795 18.7331 32.5267 18.2803ZM20.1509 14.8091C20.9055 14.0544 22.1129 14.0544 22.8676 14.8091C23.6222 15.5637 23.6222 16.7711 22.8676 17.5257C22.1129 18.2803 20.9055 18.2803 20.1509 17.5257C19.3963 16.7711 19.3963 15.5637 20.1509 14.8091ZM20 26.4302C15.3213 26.4302 10.9445 24.0154 8.37881 20.0914C10.1899 17.5257 12.6047 15.7146 15.4723 14.8091C14.4158 16.0164 13.963 17.3748 13.963 18.884C13.963 22.2044 16.5287 25.0719 20 25.0719C23.3203 25.0719 26.1879 22.5062 26.1879 19.0349V18.884C26.1879 17.3748 25.5842 15.8655 24.5277 14.8091C27.3953 15.7146 29.8101 17.5257 31.6212 20.0914C29.0555 24.0154 24.6787 26.4302 20 26.4302Z" fill="#2D7E5D"/>
</svg>
