<svg width="370" height="297" viewBox="0 0 370 297" fill="none" xmlns="http://www.w3.org/2000/svg">
<rect y="0.5" width="370" height="296" rx="20" fill="white"/>
<g clip-path="url(#clip0_1498_172)">
<path d="M236.756 172.486C265.385 140.321 277.435 114.361 281.939 95.3246C284.545 84.3175 284.595 75.7177 283.925 69.6992C283.666 67.3382 283.217 65.0019 282.584 62.7127C282.314 61.7443 281.991 60.7915 281.617 59.8585C280.711 57.8233 279.532 56.9423 277.248 56.1853C276.593 55.9758 275.931 55.7895 275.263 55.6269C272.938 55.0632 270.573 54.6774 268.19 54.4728C262.109 53.9268 253.422 54.1005 242.378 56.8058C223.317 61.4469 197.481 73.4716 165.923 101.529L136.141 104.483H136.066C128.91 105.281 122.24 108.493 117.154 113.591L87.5952 143.2C86.659 144.143 86.0419 145.356 85.8307 146.667C85.6196 147.979 85.825 149.324 86.4182 150.513C87.0113 151.702 87.9622 152.675 89.1372 153.296C90.3122 153.916 91.6521 154.152 92.9685 153.972L116.497 150.609C119.971 150.112 123.843 150.77 128.348 152.247C131.227 153.19 133.771 154.232 136.476 155.324L138.995 156.354C141.427 166.48 147.185 175.961 154.817 183.593C162.424 191.212 171.892 196.995 182.006 199.44L183.024 201.946C184.128 204.652 185.17 207.208 186.114 210.099C187.578 214.604 188.248 218.488 187.752 221.963L184.389 245.541C184.211 246.855 184.449 248.191 185.069 249.363C185.689 250.535 186.66 251.483 187.846 252.076C189.032 252.668 190.374 252.874 191.683 252.666C192.993 252.458 194.204 251.845 195.148 250.914L224.707 221.305C229.795 216.217 232.996 209.529 233.791 202.368L236.756 172.486ZM238.122 126.584C228.231 136.512 214.171 138.509 206.75 131.076C199.33 123.631 201.34 109.571 211.23 99.6555C221.133 89.7404 235.18 87.7425 242.601 95.1757C250.035 102.609 248.024 116.669 238.134 126.584H238.122Z" fill="#9DA3B0"/>
<path d="M150.324 188.085C156.915 194.755 164.459 200.409 172.711 204.863C158.837 217.359 111.545 230.029 109.994 228.478C108.43 226.902 119.139 176.495 132.815 164.197C137.108 172.759 143.201 180.95 150.324 188.085Z" fill="#9DA3B0"/>
</g>
<defs>
<clipPath id="clip0_1498_172">
<rect width="198.551" height="198.551" fill="white" transform="translate(85.7246 54.2246)"/>
</clipPath>
</defs>
</svg>
