<svg width="45" height="46" viewBox="0 0 45 46" fill="none" xmlns="http://www.w3.org/2000/svg">
<path d="M20.8631 42.2421C24.3663 42.2421 27.2062 39.4022 27.2062 35.899C27.2062 32.3959 24.3663 29.556 20.8631 29.556C17.3599 29.556 14.52 32.3959 14.52 35.899C14.52 39.4022 17.3599 42.2421 20.8631 42.2421Z" stroke="#2D7E5D" stroke-width="3" stroke-linecap="round" stroke-linejoin="round"/>
<path d="M25.4231 31.4267L36.7062 20.1436C36.8039 20.0455 36.9201 19.9677 37.048 19.9146C37.1759 19.8614 37.3131 19.8341 37.4516 19.8341C37.5901 19.8341 37.7272 19.8614 37.8551 19.9146C37.983 19.9677 38.0992 20.0455 38.1969 20.1436L41.5 23.5051M32.5846 24.3236L35.5662 27.3051M7.88464 39.319H6.4231C5.64786 39.319 4.90436 39.011 4.35618 38.4628C3.80799 37.9147 3.50003 37.1712 3.50003 36.3959V7.16514C3.50003 6.38989 3.80799 5.6464 4.35618 5.09821C4.90436 4.55003 5.64786 4.24207 6.4231 4.24207H38.5769C39.3522 4.24207 40.0957 4.55003 40.6439 5.09821C41.1921 5.6464 41.5 6.38989 41.5 7.16514V14.4728M3.50003 13.0113H41.5" stroke="#2D7E5D" stroke-width="3" stroke-linecap="round" stroke-linejoin="round"/>
</svg>
