<svg width="317" height="317" viewBox="0 0 317 317" fill="none" xmlns="http://www.w3.org/2000/svg">
<rect y="0.106064" width="316.674" height="316.674" rx="21.3969" fill="white"/>
<path d="M138.932 24.0691L138.932 24.0693L138.938 24.0729L280.881 104.088C283.044 105.312 284.511 107.8 284.544 110.306C284.544 110.306 284.544 110.306 284.544 110.307L285.193 213.68L285.193 213.681C285.226 216.184 283.828 218.709 281.52 219.993C281.519 219.994 281.518 219.994 281.517 219.995L278.256 221.593L276.766 109.682L276.765 109.615L276.707 109.581L131.216 24.3019L131.944 23.9912L131.952 23.988L131.959 23.9837C134.088 22.7032 136.769 22.6683 138.932 24.0691Z" fill="#276A4F" stroke="#276A4F" stroke-width="0.238864"/>
<path d="M285.114 213.683L285.114 213.683C285.147 216.187 283.749 218.712 281.441 219.996L278.178 221.596L276.688 109.762L278.007 109.141L278.929 108.747C279.56 108.73 280.285 108.384 280.872 108.021C280.872 108.021 280.872 108.021 280.873 108.021L283.379 106.494C283.953 107.404 284.44 108.443 284.465 110.309C284.465 110.309 284.465 110.309 284.465 110.309L285.114 213.683Z" fill="#276A4F" stroke="#276A4F" stroke-width="0.238864"/>
<mask id="path-4-inside-1_92_791" fill="white">
<path fill-rule="evenodd" clip-rule="evenodd" d="M31.9864 204.788L31.9 198.302L123.623 142.842C129.762 139.12 137.405 139.018 143.641 142.575L280.277 220.477L280.357 226.444L280.326 226.442C280.541 228.108 279.847 229.888 278.231 230.826L180.895 288.545C179.631 289.29 177.811 289.314 176.527 288.603L34.2212 208.593C33.3287 208.107 32.7023 207.364 32.3442 206.518L32.0091 206.492L31.9867 204.813C31.9866 204.805 31.9865 204.796 31.9864 204.788Z"/>
</mask>
<path fill-rule="evenodd" clip-rule="evenodd" d="M31.9864 204.788L31.9 198.302L123.623 142.842C129.762 139.12 137.405 139.018 143.641 142.575L280.277 220.477L280.357 226.444L280.326 226.442C280.541 228.108 279.847 229.888 278.231 230.826L180.895 288.545C179.631 289.29 177.811 289.314 176.527 288.603L34.2212 208.593C33.3287 208.107 32.7023 207.364 32.3442 206.518L32.0091 206.492L31.9867 204.813C31.9866 204.805 31.9865 204.796 31.9864 204.788Z" fill="#276A4F"/>
<path d="M31.9 198.302L31.7764 198.098L31.6594 198.169L31.6612 198.306L31.9 198.302ZM31.9864 204.788L32.2252 204.785L32.2252 204.785L31.9864 204.788ZM123.623 142.842L123.747 143.046L123.747 143.046L123.623 142.842ZM143.641 142.575L143.523 142.783L143.523 142.783L143.641 142.575ZM280.277 220.477L280.516 220.474L280.514 220.337L280.395 220.269L280.277 220.477ZM280.357 226.444L280.337 226.683L280.599 226.704L280.595 226.441L280.357 226.444ZM280.326 226.442L280.345 226.204L280.051 226.18L280.089 226.473L280.326 226.442ZM278.231 230.826L278.111 230.619L278.109 230.62L278.231 230.826ZM180.895 288.545L181.016 288.751L181.017 288.751L180.895 288.545ZM176.527 288.603L176.41 288.812L176.412 288.812L176.527 288.603ZM34.2212 208.593L34.3382 208.385L34.3355 208.383L34.2212 208.593ZM32.3442 206.518L32.5641 206.425L32.5076 206.292L32.3633 206.28L32.3442 206.518ZM32.0091 206.492L31.7702 206.495L31.7731 206.712L31.9899 206.73L32.0091 206.492ZM31.9867 204.813L32.2256 204.81L32.2256 204.809L31.9867 204.813ZM31.6612 198.306L31.7475 204.791L32.2252 204.785L32.1389 198.299L31.6612 198.306ZM123.5 142.637L31.7764 198.098L32.0236 198.507L123.747 143.046L123.5 142.637ZM143.76 142.368C137.448 138.768 129.713 138.871 123.5 142.637L123.747 143.046C129.812 139.369 137.362 139.268 143.523 142.783L143.76 142.368ZM280.395 220.269L143.759 142.368L143.523 142.783L280.159 220.685L280.395 220.269ZM280.595 226.441L280.516 220.474L280.038 220.48L280.118 226.448L280.595 226.441ZM280.307 226.68L280.337 226.683L280.376 226.206L280.345 226.204L280.307 226.68ZM278.351 231.032C280.061 230.04 280.789 228.16 280.563 226.411L280.089 226.473C280.294 228.056 279.633 229.736 278.111 230.619L278.351 231.032ZM181.017 288.751L278.353 231.031L278.109 230.62L180.773 288.34L181.017 288.751ZM176.412 288.812C177.769 289.564 179.679 289.539 181.016 288.751L180.774 288.339C179.582 289.041 177.853 289.064 176.643 288.394L176.412 288.812ZM34.1041 208.801L176.41 288.812L176.645 288.395L34.3382 208.385L34.1041 208.801ZM32.1243 206.612C32.5021 207.504 33.1641 208.289 34.1068 208.803L34.3355 208.383C33.4932 207.924 32.9025 207.224 32.5641 206.425L32.1243 206.612ZM31.9899 206.73L32.3251 206.757L32.3633 206.28L32.0282 206.253L31.9899 206.73ZM31.7479 204.816L31.7702 206.495L32.2479 206.488L32.2256 204.81L31.7479 204.816ZM31.7475 204.79C31.7476 204.799 31.7477 204.808 31.7479 204.817L32.2256 204.809C32.2254 204.801 32.2253 204.793 32.2252 204.785L31.7475 204.79Z" fill="black" mask="url(#path-4-inside-1_92_791)"/>
<mask id="path-6-inside-2_92_791" fill="white">
<path fill-rule="evenodd" clip-rule="evenodd" d="M37.7611 198.826L131.281 143.798C132.724 142.868 134.362 142.847 135.648 143.739L179.621 222.976C182.554 224.575 182.613 228.942 179.723 230.619L178.59 289.042C178.54 289.042 178.489 289.045 178.434 289.048C178.086 289.068 177.587 289.097 176.528 288.622L34.2214 208.612C33.0865 207.993 32.382 206.96 32.112 205.829L32.0002 205.831L31.987 204.834C31.9868 204.824 31.9867 204.815 31.9866 204.805L31.908 198.904L37.7611 198.826Z"/>
</mask>
<path fill-rule="evenodd" clip-rule="evenodd" d="M37.7611 198.826L131.281 143.798C132.724 142.868 134.362 142.847 135.648 143.739L179.621 222.976C182.554 224.575 182.613 228.942 179.723 230.619L178.59 289.042C178.54 289.042 178.489 289.045 178.434 289.048C178.086 289.068 177.587 289.097 176.528 288.622L34.2214 208.612C33.0865 207.993 32.382 206.96 32.112 205.829L32.0002 205.831L31.987 204.834C31.9868 204.824 31.9867 204.815 31.9866 204.805L31.908 198.904L37.7611 198.826Z" fill="#30795C"/>
<path d="M131.281 143.798L131.402 144.004L131.41 143.999L131.281 143.798ZM37.7611 198.826L37.7642 199.065L37.8276 199.064L37.8822 199.032L37.7611 198.826ZM135.648 143.739L135.857 143.624L135.83 143.575L135.784 143.543L135.648 143.739ZM179.621 222.976L179.412 223.092L179.446 223.152L179.507 223.186L179.621 222.976ZM179.723 230.619L179.603 230.412L179.486 230.48L179.484 230.614L179.723 230.619ZM178.59 289.042L178.593 289.28L178.824 289.277L178.828 289.046L178.59 289.042ZM178.434 289.048L178.447 289.287L178.447 289.287L178.434 289.048ZM176.528 288.622L176.411 288.831L176.42 288.836L176.43 288.84L176.528 288.622ZM34.2214 208.612L34.3385 208.404L34.3357 208.402L34.2214 208.612ZM32.112 205.829L32.3443 205.774L32.3 205.588L32.1088 205.59L32.112 205.829ZM32.0002 205.831L31.7614 205.834L31.7646 206.073L32.0034 206.069L32.0002 205.831ZM31.987 204.834L32.2258 204.83L32.2258 204.83L31.987 204.834ZM31.9866 204.805L32.2254 204.803L32.2254 204.802L31.9866 204.805ZM31.908 198.904L31.9048 198.665L31.666 198.668L31.6692 198.907L31.908 198.904ZM131.16 143.592L37.6399 198.62L37.8822 199.032L131.402 144.004L131.16 143.592ZM135.784 143.543C134.41 142.589 132.666 142.622 131.151 143.597L131.41 143.999C132.783 143.115 134.315 143.104 135.512 143.936L135.784 143.543ZM179.83 222.86L135.857 143.624L135.439 143.855L179.412 223.092L179.83 222.86ZM179.843 230.826C182.894 229.055 182.832 224.454 179.735 222.766L179.507 223.186C182.277 224.695 182.332 228.829 179.603 230.412L179.843 230.826ZM178.828 289.046L179.962 230.624L179.484 230.614L178.351 289.037L178.828 289.046ZM178.447 289.287C178.504 289.284 178.55 289.281 178.593 289.28L178.586 288.803C178.531 288.803 178.474 288.807 178.42 288.81L178.447 289.287ZM176.43 288.84C176.974 289.084 177.383 289.203 177.709 289.256C178.036 289.31 178.269 289.297 178.447 289.287L178.42 288.81C178.251 288.819 178.06 288.83 177.787 288.785C177.51 288.739 177.141 288.635 176.625 288.404L176.43 288.84ZM34.1043 208.82L176.411 288.831L176.645 288.414L34.3385 208.404L34.1043 208.82ZM31.8797 205.885C32.1639 207.076 32.9075 208.168 34.1071 208.822L34.3357 208.402C33.2655 207.819 32.6 206.845 32.3443 205.774L31.8797 205.885ZM32.1088 205.59L31.9971 205.592L32.0034 206.069L32.1152 206.068L32.1088 205.59ZM32.2391 205.827L32.2258 204.83L31.7481 204.837L31.7614 205.834L32.2391 205.827ZM31.7477 204.808C31.7478 204.818 31.748 204.828 31.7481 204.838L32.2258 204.83C32.2257 204.821 32.2255 204.812 32.2254 204.803L31.7477 204.808ZM32.2254 204.802L32.1469 198.901L31.6692 198.907L31.7478 204.809L32.2254 204.802ZM31.9112 199.143L37.7642 199.065L37.7579 198.587L31.9048 198.665L31.9112 199.143Z" fill="black" mask="url(#path-6-inside-2_92_791)"/>
<path d="M129.619 28.0538L129.619 28.0538L129.618 28.0471C129.582 25.3385 132.197 23.9482 134.189 25.1917L134.205 25.2015L134.221 25.2105L280.009 106.995L280.013 106.997C281.045 107.569 281.637 108.571 281.654 109.745C281.654 109.746 281.654 109.747 281.654 109.748L282.348 216.574L282.348 216.58C282.382 219.096 279.766 220.7 277.575 219.425L277.564 219.419L131.776 137.635L131.772 137.632C130.74 137.061 130.148 136.059 130.131 134.884C130.131 134.883 130.131 134.882 130.131 134.881L129.619 28.0538Z" fill="white" stroke="#276A4F" stroke-width="1.5778"/>
<path d="M135.505 40.352L135.506 40.352L135.505 40.3453C135.485 38.7757 137.132 37.8526 138.416 38.6459L138.434 38.6567L138.451 38.6667L275.251 116.014C275.252 116.015 275.254 116.016 275.256 116.017C275.806 116.34 276.209 117.052 276.22 117.825C276.22 117.826 276.22 117.828 276.22 117.829L276.82 203.906L276.82 203.912C276.844 205.657 275.02 206.593 273.73 205.796L273.713 205.786L273.696 205.776L137.075 128.244C137.074 128.243 137.072 128.242 137.071 128.242C136.52 127.919 136.117 127.205 136.106 126.432C136.106 126.431 136.106 126.43 136.106 126.429L135.505 40.352Z" fill="white" stroke="#276A4F" stroke-width="2.10374"/>
<path d="M34.5722 196.224L34.5778 196.221L131.713 139.065C132.879 138.471 134.13 138.489 135.061 139.004C135.062 139.004 135.063 139.005 135.063 139.005L277.542 218.466L277.55 218.47C279.764 219.677 279.808 223.015 277.628 224.28L277.619 224.285L180.286 282.003C180.286 282.003 180.286 282.003 180.286 282.003C179.343 282.559 177.922 282.578 176.964 282.049C176.964 282.048 176.963 282.048 176.962 282.048L34.6616 202.04L34.6616 202.04L34.6495 202.034C32.4363 200.827 32.3918 197.489 34.5722 196.224Z" fill="white" stroke="#24654A" stroke-width="2.10374"/>
<path d="M203.913 225.77L159.69 204.39L116.052 226.94L160.275 248.32L203.913 225.77Z" fill="#0E261C" stroke="white" stroke-width="0.449599" stroke-miterlimit="1"/>
<path d="M203.913 225.77L159.69 204.39L159.105 160.459L203.328 181.839L203.913 225.77Z" fill="#1B4C38" stroke="white" stroke-width="0.449599" stroke-miterlimit="1"/>
<path d="M159.69 204.39L116.052 226.94L115.467 183.009L159.105 160.459L159.69 204.39Z" fill="#1B4C38" stroke="white" stroke-width="0.449599" stroke-miterlimit="1"/>
<path d="M160.275 248.32L116.052 226.94L115.467 183.009L159.69 204.39L160.275 248.32Z" fill="#24654A" stroke="white" stroke-width="0.449599" stroke-miterlimit="1"/>
<path d="M160.275 248.32L203.913 225.77L203.328 181.839L159.69 204.39L160.275 248.32Z" fill="#30795C" stroke="white" stroke-width="0.449599" stroke-miterlimit="1"/>
<path d="M203.328 181.839L159.105 160.459L115.467 183.009L159.69 204.39L203.328 181.839Z" fill="#2D7E5D" stroke="white" stroke-width="0.449599" stroke-miterlimit="1"/>
<path fill-rule="evenodd" clip-rule="evenodd" d="M134.025 201.185C133.947 201.196 133.859 201.244 133.83 201.291C133.796 201.346 133.787 202.129 133.804 203.396L133.831 205.415L133.988 205.657C134.209 205.997 134.522 206.141 134.737 206.002L134.889 205.903L134.862 203.882L134.835 201.862L134.653 201.581C134.45 201.269 134.265 201.152 134.025 201.185ZM129.095 200.765C128.911 200.851 128.854 201.057 128.937 201.332C129.017 201.595 131.225 205.005 131.453 205.217C131.688 205.437 131.902 205.479 132.066 205.337C132.219 205.205 132.234 204.938 132.104 204.667C131.974 204.397 130.051 201.423 129.807 201.114C129.543 200.779 129.308 200.664 129.095 200.765ZM138.904 205.247C138.818 205.267 138.248 205.612 137.639 206.014L136.531 206.743L136.534 207.006C136.54 207.404 136.846 207.831 137.177 207.904C137.267 207.923 137.747 207.653 138.525 207.144C139.725 206.36 139.734 206.352 139.731 206.105C139.725 205.617 139.283 205.159 138.904 205.247ZM144.476 208.919C144.36 208.888 144.171 208.863 144.055 208.864C143.9 208.865 142.459 209.766 138.624 212.255L133.403 215.645L133.144 215.013C132.293 212.938 131.425 211.112 130.928 210.35C129.985 208.903 128.388 207.419 127.163 206.852C126.541 206.564 126.379 206.578 125.764 206.975L125.23 207.319L126.78 209.714L128.331 212.109L129.554 216.526L130.777 220.943L133.18 224.625C134.889 227.245 135.67 228.404 135.888 228.643C136.908 229.758 138.258 230.502 139.317 230.533C140.092 230.555 140.13 230.535 143.49 228.365C145.249 227.229 146.748 226.214 146.821 226.109C146.998 225.857 147.034 225.244 146.901 224.763C146.709 224.068 146.17 223.378 145.56 223.045C145.264 222.883 145.128 222.851 144.714 222.845C144.652 222.844 144.711 222.768 144.86 222.657C145.215 222.395 145.335 222.125 145.322 221.617C145.31 221.125 145.21 220.813 144.904 220.315C144.598 219.816 144.329 219.554 143.878 219.315C143.584 219.159 143.448 219.117 143.218 219.111L142.929 219.103L143.171 218.936C143.55 218.674 143.655 218.445 143.647 217.892C143.642 217.524 143.616 217.363 143.522 217.132C143.211 216.365 142.832 215.916 142.231 215.602C141.91 215.434 141.768 215.388 141.54 215.379C141.261 215.368 141.322 215.322 143.682 213.78C146.343 212.041 146.281 212.098 146.272 211.399C146.258 210.369 145.388 209.167 144.476 208.919Z" fill="white"/>
<g clip-path="url(#clip0_92_791)">
<path d="M178.821 222.57L180.681 221.048L191.759 202.808C191.846 202.663 191.894 202.502 191.891 202.361C191.889 202.219 191.837 202.109 191.746 202.052L191.062 201.625C191.018 201.597 190.965 201.583 190.907 201.584C190.85 201.585 190.788 201.601 190.725 201.632C190.663 201.662 190.601 201.706 190.544 201.762C190.487 201.817 190.435 201.882 190.392 201.953L179.343 220.145L178.82 222.57L178.821 222.57ZM192.375 199.463L193.059 199.891C194.002 200.482 194.033 202.17 193.126 203.663L181.711 222.46L177.735 225.712C177.493 225.908 177.231 226.002 177.009 225.973C176.786 225.944 176.621 225.794 176.548 225.556C176.494 225.386 176.491 225.179 176.538 224.959L177.639 219.844L189.024 201.096C189.241 200.741 189.5 200.417 189.786 200.141C190.073 199.866 190.381 199.646 190.693 199.494C191.005 199.342 191.314 199.261 191.603 199.255C191.892 199.25 192.154 199.321 192.375 199.463ZM180.175 206.856C180.701 206.596 181.134 206.867 181.142 207.461C181.144 207.601 181.122 207.752 181.077 207.905C181.031 208.059 180.963 208.211 180.875 208.355C180.788 208.498 180.684 208.63 180.569 208.741C180.454 208.853 180.329 208.943 180.204 209.006L176.393 210.886C175.341 211.405 174.501 212.789 174.517 213.975L174.689 226.874C174.705 228.061 175.57 228.603 176.622 228.084L188.053 222.444C189.105 221.925 189.946 220.54 189.93 219.353L189.873 215.054C189.865 214.46 190.285 213.768 190.811 213.509C191.337 213.249 191.77 213.52 191.778 214.115L191.835 218.413C191.867 220.788 190.186 223.556 188.081 224.594L176.651 230.234C174.547 231.272 172.815 230.189 172.784 227.814L172.612 214.915C172.58 212.541 174.26 209.774 176.365 208.736L180.175 206.856Z" fill="white"/>
</g>
<path d="M203.328 181.839L159.105 160.459L115.467 183.009L159.69 204.39L203.328 181.839Z" fill="#0E261C" stroke="white" stroke-width="0.449599" stroke-miterlimit="1"/>
<path d="M203.328 181.839L159.105 160.459L158.52 116.528L202.743 137.909L203.328 181.839Z" fill="#1B4C38" stroke="white" stroke-width="0.449599" stroke-miterlimit="1"/>
<path d="M159.105 160.459L115.467 183.009L114.882 139.078L158.52 116.528L159.105 160.459Z" fill="#1B4C38" stroke="white" stroke-width="0.449599" stroke-miterlimit="1"/>
<path d="M159.69 204.39L115.467 183.009L114.882 139.078L159.105 160.459L159.69 204.39Z" fill="#24654A" stroke="white" stroke-width="0.449599" stroke-miterlimit="1"/>
<path d="M159.69 204.39L203.328 181.839L202.743 137.909L159.105 160.459L159.69 204.39Z" fill="#30795C" stroke="white" stroke-width="0.449599" stroke-miterlimit="1"/>
<path d="M202.743 137.909L158.52 116.528L114.882 139.078L159.105 160.459L202.743 137.909Z" fill="#2D7E5D" stroke="white" stroke-width="0.449599" stroke-miterlimit="1"/>
<path fill-rule="evenodd" clip-rule="evenodd" d="M133.44 157.255C133.362 157.265 133.274 157.313 133.245 157.361C133.212 157.415 133.202 158.199 133.219 159.466L133.246 161.485L133.403 161.726C133.624 162.066 133.937 162.211 134.152 162.071L134.304 161.972L134.277 159.952L134.25 157.931L134.068 157.65C133.865 157.338 133.68 157.222 133.44 157.255ZM128.51 156.834C128.326 156.921 128.269 157.127 128.352 157.401C128.432 157.665 130.64 161.074 130.868 161.287C131.104 161.507 131.317 161.548 131.481 161.407C131.634 161.275 131.649 161.008 131.519 160.737C131.389 160.467 129.467 157.493 129.222 157.184C128.958 156.849 128.723 156.734 128.51 156.834ZM138.319 161.317C138.233 161.337 137.663 161.682 137.054 162.083L135.946 162.813L135.949 163.076C135.955 163.473 136.261 163.9 136.592 163.973C136.682 163.993 137.162 163.723 137.941 163.214C139.14 162.43 139.149 162.422 139.146 162.175C139.14 161.686 138.699 161.229 138.319 161.317ZM143.891 164.989C143.775 164.957 143.586 164.933 143.47 164.934C143.315 164.935 141.874 165.835 138.039 168.325L132.818 171.714L132.559 171.082C131.708 169.008 130.84 167.182 130.343 166.419C129.4 164.973 127.803 163.489 126.578 162.922C125.956 162.634 125.794 162.648 125.179 163.044L124.645 163.389L126.195 165.784L127.746 168.179L128.969 172.596L130.192 177.012L132.595 180.695C134.304 183.315 135.085 184.474 135.303 184.712C136.323 185.828 137.673 186.572 138.732 186.602C139.508 186.625 139.545 186.605 142.905 184.435C144.664 183.299 146.163 182.284 146.236 182.179C146.413 181.926 146.449 181.314 146.316 180.833C146.124 180.137 145.585 179.447 144.975 179.114C144.679 178.953 144.543 178.921 144.129 178.914C144.067 178.913 144.126 178.837 144.275 178.727C144.63 178.464 144.75 178.194 144.737 177.686C144.725 177.194 144.625 176.883 144.319 176.385C144.013 175.886 143.744 175.623 143.293 175.385C142.999 175.229 142.863 175.187 142.633 175.181L142.344 175.173L142.586 175.005C142.965 174.743 143.07 174.514 143.062 173.961C143.057 173.594 143.031 173.433 142.937 173.202C142.626 172.434 142.247 171.985 141.646 171.671C141.325 171.504 141.183 171.458 140.955 171.449C140.676 171.438 140.737 171.392 143.097 169.85C145.758 168.111 145.696 168.168 145.687 167.468C145.673 166.438 144.803 165.237 143.891 164.989Z" fill="white"/>
<g clip-path="url(#clip1_92_791)">
<path d="M172.611 182.777L172.498 174.261C172.484 173.258 172.829 172.119 173.456 171.095C174.083 170.071 174.941 169.246 175.842 168.802C176.742 168.358 177.61 168.33 178.256 168.726C178.902 169.122 179.273 169.908 179.286 170.912L179.4 179.427M172.548 178.046L179.337 174.696M190.343 167.361L186.1 169.454M190.343 167.361C191.018 167.028 191.662 166.409 192.132 165.641C192.602 164.873 192.861 164.019 192.851 163.266C192.841 162.513 192.563 161.924 192.079 161.627C191.594 161.33 190.943 161.351 190.267 161.684L186.025 163.777L186.1 169.454M190.343 167.361C191.018 167.028 191.67 167.007 192.154 167.304C192.639 167.601 192.917 168.19 192.927 168.943C192.937 169.696 192.678 170.55 192.208 171.318C191.737 172.086 191.094 172.705 190.419 173.038L186.176 175.131L186.1 169.454M182.542 158.829L182.87 183.43" stroke="white" stroke-width="1.77424"/>
</g>
<path d="M202.743 137.909L158.52 116.528L114.882 139.078L159.105 160.459L202.743 137.909Z" fill="#0E261C" stroke="white" stroke-width="0.449599" stroke-miterlimit="1"/>
<path d="M202.743 137.909L158.52 116.528L157.935 72.5974L202.158 93.9778L202.743 137.909Z" fill="#1B4C38" stroke="white" stroke-width="0.449599" stroke-miterlimit="1"/>
<path d="M158.52 116.528L114.882 139.078L114.297 95.1477L157.935 72.5974L158.52 116.528Z" fill="#1B4C38" stroke="white" stroke-width="0.449599" stroke-miterlimit="1"/>
<path d="M159.105 160.459L114.882 139.078L114.297 95.1477L158.52 116.528L159.105 160.459Z" fill="#24654A" stroke="white" stroke-width="0.449599" stroke-miterlimit="1"/>
<path d="M159.105 160.459L202.743 137.909L202.158 93.9778L158.52 116.528L159.105 160.459Z" fill="#30795C" stroke="white" stroke-width="0.449599" stroke-miterlimit="1"/>
<path d="M202.158 93.9778L157.935 72.5974L114.297 95.1477L158.52 116.528L202.158 93.9778Z" fill="#47A27C" stroke="white" stroke-width="0.449599" stroke-miterlimit="1"/>
<path fill-rule="evenodd" clip-rule="evenodd" d="M134.63 113.3C134.551 113.311 134.463 113.359 134.434 113.407C134.401 113.461 134.391 114.245 134.408 115.512L134.435 117.531L134.592 117.772C134.813 118.112 135.126 118.257 135.341 118.117L135.493 118.018L135.466 115.998L135.439 113.977L135.257 113.696C135.054 113.384 134.869 113.267 134.63 113.3ZM129.699 112.88C129.515 112.967 129.458 113.172 129.541 113.447C129.622 113.71 131.829 117.12 132.057 117.333C132.293 117.552 132.506 117.594 132.67 117.453C132.823 117.32 132.839 117.053 132.708 116.782C132.578 116.512 130.656 113.539 130.411 113.23C130.147 112.895 129.912 112.78 129.699 112.88ZM139.509 117.363C139.422 117.383 138.853 117.728 138.243 118.129L137.135 118.859L137.139 119.121C137.144 119.519 137.45 119.946 137.781 120.019C137.871 120.039 138.351 119.768 139.13 119.26C140.329 118.476 140.339 118.468 140.335 118.22C140.329 117.732 139.888 117.274 139.509 117.363ZM145.081 121.035C144.964 121.003 144.775 120.978 144.659 120.98C144.504 120.981 143.063 121.881 139.228 124.371L134.008 127.76L133.748 127.128C132.897 125.054 132.029 123.228 131.532 122.465C130.59 121.019 128.992 119.535 127.767 118.968C127.146 118.68 126.984 118.694 126.368 119.09L125.834 119.434L127.385 121.829L128.935 124.225L130.159 128.641L131.382 133.058L133.784 136.741C135.493 139.361 136.275 140.52 136.492 140.758C137.512 141.874 138.862 142.618 139.921 142.648C140.697 142.67 140.734 142.651 144.094 140.481C145.853 139.345 147.352 138.329 147.426 138.225C147.602 137.972 147.638 137.359 147.506 136.879C147.313 136.183 146.774 135.493 146.164 135.16C145.868 134.999 145.732 134.967 145.319 134.96C145.256 134.959 145.315 134.883 145.464 134.773C145.819 134.51 145.939 134.24 145.926 133.732C145.914 133.24 145.814 132.929 145.509 132.431C145.203 131.932 144.933 131.669 144.483 131.431C144.188 131.274 144.052 131.233 143.822 131.226L143.533 131.219L143.775 131.051C144.154 130.789 144.259 130.56 144.251 130.007C144.246 129.64 144.22 129.479 144.126 129.248C143.815 128.48 143.436 128.031 142.835 127.717C142.514 127.549 142.373 127.504 142.144 127.495C141.865 127.484 141.927 127.438 144.286 125.896C146.947 124.157 146.885 124.214 146.876 123.514C146.862 122.484 145.992 121.283 145.081 121.035Z" fill="white"/>
<g clip-path="url(#clip2_92_791)">
<path fill-rule="evenodd" clip-rule="evenodd" d="M181.037 113.48C180.942 113.539 180.651 113.72 180.392 113.881C176.021 116.596 172.162 121.744 170.408 127.202C169.949 128.63 169.652 130.018 169.482 131.522C169.364 132.573 169.403 134.529 169.56 135.489C170.033 138.372 171.281 140.456 173.259 141.668C176.209 143.475 180.34 142.916 184.395 140.161C189.534 136.671 193.587 130.257 194.61 123.994C194.711 123.378 194.817 122.36 194.814 122.041C194.812 121.898 194.833 121.754 194.86 121.722C194.89 121.687 194.905 121.323 194.898 120.821C194.889 120.257 194.87 120.015 194.838 120.086C194.805 120.163 194.79 120.106 194.786 119.889C194.774 119.278 194.53 117.969 194.281 117.181C193.945 116.117 193.31 114.934 192.671 114.18C191.771 113.119 190.417 112.262 189.111 111.928C187.502 111.516 185.721 111.621 183.809 112.241C183.183 112.445 181.469 113.21 181.037 113.48ZM181.001 116.372C179.33 117.388 177.717 118.827 176.396 120.479C176.155 120.781 175.903 121.105 175.835 121.2L175.712 121.373L182.967 125.816L190.223 130.26L190.32 130.072C191.12 128.537 191.844 126.322 192.123 124.562C192.534 121.962 192.226 119.56 191.256 117.8C190.4 116.248 188.944 115.186 187.252 114.878C185.425 114.546 183.083 115.105 181.001 116.372ZM183.183 117.072C183.105 117.2 183.041 117.354 183.042 117.412C183.042 117.471 183.144 117.706 183.267 117.933C183.768 118.856 183.975 119.698 183.983 120.847C183.986 121.271 183.965 121.767 183.935 121.95L183.882 122.284L183.555 122.477C183.076 122.76 182.622 123.281 182.449 123.748C182.385 123.921 182.403 123.936 183.63 124.686C184.315 125.105 184.893 125.44 184.914 125.43C184.997 125.389 185.405 124.706 185.495 124.457C185.548 124.312 185.615 124.002 185.644 123.767L185.698 123.341L186.07 123.084C186.311 122.918 186.679 122.72 187.113 122.522C188.095 122.076 188.711 121.943 189.781 121.944C190.117 121.945 190.437 121.923 190.491 121.897C190.621 121.832 190.795 121.557 190.834 121.353C190.889 121.061 190.759 120.976 190.199 120.942C189.207 120.882 188.236 121.075 187.175 121.545C186.578 121.81 185.73 122.313 185.458 122.565C185.404 122.616 185.339 122.59 185.247 122.483C185.174 122.398 185.014 122.298 184.893 122.261L184.672 122.194L184.745 121.812C184.855 121.242 184.827 119.574 184.698 119.009C184.493 118.11 183.921 116.812 183.696 116.733C183.545 116.681 183.339 116.817 183.183 117.072ZM181.151 120.446C180.892 120.701 180.873 120.874 181.017 121.66L181.144 122.351L180.87 122.807L180.595 123.264L180.87 123.435C181.02 123.53 181.167 123.595 181.196 123.581C181.303 123.528 182.006 122.317 182.004 122.189C182.003 122.12 181.939 121.687 181.862 121.228C181.748 120.547 181.702 120.38 181.613 120.326C181.462 120.236 181.331 120.27 181.151 120.446ZM173.721 124.744C171.647 129.115 171.364 133.703 172.989 136.607C174.025 138.459 175.792 139.538 177.9 139.606C180.743 139.698 183.966 138.078 186.756 135.154C187.324 134.559 188.047 133.701 188.407 133.197L188.529 133.024L181.289 128.588C177.306 126.147 174.034 124.157 174.018 124.165C174.002 124.173 173.868 124.434 173.721 124.744ZM176.83 128.501L176.165 129.586L174.956 130.007C173.642 130.464 173.526 130.528 173.418 130.858C173.337 131.103 173.353 131.223 173.482 131.324C173.593 131.412 173.649 131.398 175.015 130.927L176.433 130.439L177.265 129.087L178.097 127.735L177.822 127.562C177.671 127.468 177.535 127.396 177.521 127.404C177.506 127.411 177.195 127.905 176.83 128.501ZM178.054 128.776C177.411 129.861 177.113 130.814 177.127 131.738C177.139 132.493 177.454 133.291 177.823 133.503L178.005 133.607L179.326 131.45L180.647 129.294L179.601 128.652C179.025 128.299 178.54 128.017 178.522 128.025C178.505 128.034 178.294 128.372 178.054 128.776ZM169.412 133.469C169.418 133.942 169.429 134.131 169.435 133.891C169.441 133.65 169.436 133.263 169.423 133.031C169.411 132.8 169.406 132.997 169.412 133.469ZM186.105 125.707L185.69 126.387L185.979 126.563L186.268 126.74L186.527 126.321C186.826 125.836 186.809 125.847 187.605 125.609C187.92 125.514 188.247 125.403 188.331 125.361C188.659 125.2 188.81 124.668 188.578 124.487C188.475 124.405 188.382 124.423 187.568 124.676C187.074 124.829 186.636 124.971 186.595 124.992C186.553 125.012 186.332 125.334 186.105 125.707ZM179.528 131.63L178.234 133.747L178.408 133.86C178.825 134.13 179.698 134.01 180.473 133.577C181.308 133.11 181.898 132.509 182.612 131.397L183.027 130.751L181.976 130.107C181.398 129.752 180.903 129.474 180.874 129.488C180.846 129.502 180.24 130.466 179.528 131.63ZM182.602 132.333C182 133.316 181.807 133.667 181.808 133.771C181.809 133.847 181.897 134.53 182.003 135.288C182.171 136.489 182.21 136.677 182.306 136.743C182.516 136.886 182.898 136.564 182.97 136.183C182.986 136.101 182.921 135.475 182.826 134.794L182.652 133.555L183.326 132.452L184 131.35L183.726 131.178C183.575 131.084 183.439 131.012 183.424 131.02C183.409 131.027 183.039 131.618 182.602 132.333Z" fill="white"/>
</g>
<path d="M153.298 72.0622C154.542 73.2737 156.217 73.9413 157.953 73.9182C158.813 73.9068 159.662 73.7261 160.452 73.3865C161.242 73.0469 161.957 72.555 162.557 71.9389C163.157 71.3229 163.63 70.5947 163.948 69.7959C164.266 68.9972 164.424 68.1436 164.413 67.2838C164.39 65.5474 163.678 63.8912 162.434 62.6797C161.19 61.4682 159.515 60.8006 157.779 60.8237C156.042 60.8468 154.386 61.5588 153.175 62.803C151.963 64.0472 151.295 65.7217 151.319 67.4581C151.342 69.1946 152.054 70.8507 153.298 72.0622ZM158.207 92.9667C157.838 92.5447 157.376 92.007 156.846 91.3718C155.451 89.6988 153.592 87.3562 151.73 84.6748C149.866 81.9898 148.016 78.9876 146.626 75.9941C145.23 72.9842 144.342 70.0748 144.309 67.5515C144.261 63.9559 145.643 60.4886 148.152 57.9123C150.66 55.3361 154.09 53.8618 157.685 53.8139C161.281 53.7661 164.748 55.1485 167.324 57.6571C169.901 60.1657 171.375 63.5949 171.423 67.1905C171.456 69.7138 170.647 72.6458 169.331 75.6918C168.022 78.7212 166.252 81.7716 164.46 84.5053C162.671 87.2353 160.874 89.6266 159.524 91.3361C159.011 91.9852 158.564 92.5351 158.207 92.9667Z" fill="white" stroke="#276A4F" stroke-width="2.51351"/>
<defs>
<clipPath id="clip0_92_791">
<rect width="28.3878" height="28.3878" fill="white" transform="matrix(0.896774 -0.44249 0.0133137 0.999911 170.373 207.148)"/>
</clipPath>
<clipPath id="clip1_92_791">
<rect width="28.3878" height="28.3878" fill="white" transform="matrix(0.896774 -0.44249 0.0133137 0.999911 169.788 163.217)"/>
</clipPath>
<clipPath id="clip2_92_791">
<rect width="28.3878" height="28.3878" fill="white" transform="matrix(0.896774 -0.44249 0.0133137 0.999911 169.203 119.287)"/>
</clipPath>
</defs>
</svg>
