<svg width="59" height="60" viewBox="0 0 59 60" fill="none" xmlns="http://www.w3.org/2000/svg">
  <circle cx="29.5" cy="30.0837" r="29" fill="#81FEFC" stroke="white"/>
  <circle cx="29.4998" cy="30.0838" r="26.3678" fill="#34F8BB"/>
  <circle cx="29.5003" cy="30.0839" r="23.856" fill="#D7FEF9"/>
  <circle cx="29.5001" cy="30.0839" r="20.6476" fill="white"/>

  <path d="M12.6511 27.8425C12.5786 27.8425 12.5605 27.8112 12.5967 27.7642L12.9774 27.3414C13.0136 27.2944 13.1043 27.2631 13.1768 27.2631H19.6478C19.7203 27.2631 19.7385 27.31 19.7022 27.357L19.3941 27.7642C19.3578 27.8112 19.2672 27.8582 19.2128 27.8582L12.6511 27.8425Z" fill="#00ACD7"/>
  <path d="M9.67479 29.6436C9.60254 29.6436 9.58448 29.6114 9.6206 29.5632L9.9999 29.1289C10.036 29.0806 10.1263 29.0485 10.1986 29.0485H18.4348C18.507 29.0485 18.5432 29.0967 18.5251 29.145L18.3806 29.531C18.3625 29.5954 18.2903 29.6275 18.218 29.6275L9.67479 29.6436Z" fill="#00ACD7"/>
  <path d="M14.4357 31.4133C14.3635 31.4133 14.3455 31.3664 14.3816 31.3194L14.634 30.9278C14.6701 30.8808 14.7423 30.8339 14.8144 30.8339H18.4213C18.4935 30.8339 18.5295 30.8808 18.5295 30.9435L18.4935 31.3194C18.4935 31.382 18.4213 31.429 18.3672 31.429L14.4357 31.4133Z" fill="#00ACD7"/>
  <path d="M33.418 27.682C32.25 27.9798 31.4528 28.2032 30.3033 28.501C30.0252 28.5754 30.0066 28.5941 29.7656 28.3148C29.4875 27.9984 29.2836 27.7936 28.8942 27.6075C27.7262 27.0305 26.5953 27.198 25.5385 27.8867C24.2778 28.7057 23.6289 29.9157 23.6474 31.4234C23.666 32.9125 24.6857 34.1411 26.1503 34.3458C27.411 34.5134 28.4678 34.0666 29.3021 33.1173C29.469 32.9125 29.6173 32.6892 29.8027 32.4286C29.1353 32.4286 28.301 32.4286 26.2245 32.4286C25.8351 32.4286 25.7424 32.1866 25.8722 31.8701C26.1132 31.2931 26.5582 30.3252 26.8178 29.8412C26.8734 29.7295 27.0032 29.5434 27.2813 29.5434C28.2268 29.5434 31.7123 29.5434 34.0298 29.5434C33.9927 30.046 33.9927 30.5485 33.9186 31.0511C33.7146 32.3913 33.2141 33.6199 32.3983 34.6995C31.0634 36.4678 29.3207 37.5661 27.1144 37.8639C25.2975 38.1059 23.6104 37.7522 22.1272 36.6354C20.7552 35.593 19.9765 34.2155 19.7726 32.503C19.5316 30.4741 20.1248 28.6499 21.3485 27.0491C22.6648 25.318 24.4076 24.2197 26.5397 23.8288C28.2824 23.5124 29.951 23.7171 31.4528 24.7409C32.4354 25.3924 33.1399 26.2859 33.6034 27.3655C33.7146 27.533 33.6405 27.6261 33.418 27.682Z" fill="#00ACD7"/>
  <path fill-rule="evenodd" clip-rule="evenodd" d="M35.0312 36.3375C36.329 37.4544 37.8678 37.9384 39.555 37.9756C39.7203 37.9564 39.8878 37.9417 40.0567 37.9268C40.3804 37.8982 40.7093 37.8692 41.0382 37.8081C42.7624 37.4544 44.2641 36.6726 45.4878 35.4255C47.212 33.6757 47.935 31.6282 47.6199 29.1152C47.3788 27.3283 46.4704 25.9695 45.0057 24.9643C43.3928 23.8661 41.6129 23.6799 39.7218 24.015C37.5156 24.4059 35.8841 25.3366 34.5307 27.1235C33.2699 28.7802 32.6952 30.6416 33.0289 32.745C33.2514 34.1783 33.9374 35.3882 35.0312 36.3375ZM43.955 30.2563C43.9586 30.3189 43.9624 30.3847 43.9678 30.4554C43.8751 32.0562 43.0779 33.2475 41.6133 34.0107C40.6306 34.5133 39.6109 34.5691 38.5912 34.1224C37.2564 33.5267 36.5519 32.0562 36.8856 30.6043C37.2934 28.8546 38.4058 27.7564 40.1301 27.3655C41.8914 26.9559 43.5785 27.9983 43.9122 29.8411C43.9385 29.9729 43.9461 30.1047 43.955 30.2563Z" fill="#00ACD7"/>
</svg>
