<svg width="674" height="824" viewBox="0 0 674 824" fill="none" xmlns="http://www.w3.org/2000/svg">
<g clip-path="url(#clip0_6082_7810)">
<path d="M423.959 -123.499L423.959 203.985C423.959 211.917 422.386 219.77 419.332 227.09L336.334 426.001" stroke="url(#paint0_linear_6082_7810)" stroke-width="2"/>
<path d="M248.126 -122.499L248.126 203.985C248.126 211.917 249.699 219.77 252.753 227.09L335.751 426.001" stroke="url(#paint1_linear_6082_7810)" stroke-width="2"/>
<path d="M337.498 -119.499L337.498 216.001L337.498 429.501" stroke="url(#paint2_linear_6082_7810)" stroke-width="2"/>
<path d="M423.959 973.001L423.959 643.017C423.959 635.085 422.386 627.232 419.332 619.912L336.334 421.001" stroke="url(#paint3_linear_6082_7810)" stroke-width="2"/>
<path d="M248.126 970.001L248.126 643.017C248.126 635.085 249.699 627.232 252.753 619.912L335.751 421.001" stroke="url(#paint4_linear_6082_7810)" stroke-width="2"/>
<path d="M337.498 973.001L337.498 631.001L337.498 417.501" stroke="url(#paint5_linear_6082_7810)" stroke-width="2"/>
<path d="M337.498 317.706L331.595 308.214L343.4 308.214L337.498 317.706Z" fill="#00D6FF"/>
<path d="M382.069 316.777L381.703 305.605L391.927 311.508L382.069 316.777Z" fill="#00D6FF"/>
<path d="M290.221 316.779L290.587 305.607L280.363 311.509L290.221 316.779Z" fill="#00D6FF"/>
<path d="M337.499 519.813L331.596 510.321L343.401 510.321L337.499 519.813Z" fill="#51F8C5"/>
<path d="M377.427 518.883L377.793 507.711L367.569 513.614L377.427 518.883Z" fill="#51F8C5"/>
<path d="M294.756 518.758L294.39 507.586L304.613 513.489L294.756 518.758Z" fill="#51F8C5"/>
</g>
<text fill="#475569" xml:space="preserve" style="white-space: pre" font-family="Helvetica" font-size="18" font-weight="bold" letter-spacing="0em"><tspan x="247.916" y="14.0414">SDLC Data Collector</tspan></text>
<g filter="url(#filter0_d_6082_7810)">
<rect x="12" y="32.0586" width="648" height="250" rx="29.3294" fill="#111214" shape-rendering="crispEdges"/>
<rect x="12" y="32.0586" width="648" height="250" rx="29.3294" stroke="white" stroke-width="4.85831" shape-rendering="crispEdges"/>
<text fill="#D09A66" xml:space="preserve" style="white-space: pre" font-family="Source Code Pro" font-size="13.6033" font-weight="600" letter-spacing="-0.03em"><tspan x="35.3203" y="69.1705">collectors:</tspan></text>
<text fill="#D09A66" xml:space="preserve" style="white-space: pre" font-family="Source Code Pro" font-size="13.6033" font-weight="600" letter-spacing="-0.03em"><tspan x="35.3203" y="87.8873">- name:</tspan></text>
<text fill="#98C37A" xml:space="preserve" style="white-space: pre" font-family="Source Code Pro" font-size="13.6033" font-weight="600" letter-spacing="-0.03em"><tspan x="94.207" y="87.8873">unit-tests</tspan></text>
<text fill="#D09A66" xml:space="preserve" style="white-space: pre" font-family="Source Code Pro" font-size="13.6033" font-weight="600" letter-spacing="-0.03em"><tspan x="35.3203" y="106.604">  description:</tspan></text>
<text fill="#D09A66" xml:space="preserve" style="white-space: pre" font-family="Source Code Pro" font-size="13.6033" font-weight="600" letter-spacing="-0.03em"><tspan x="35.3203" y="125.32">  hook:</tspan></text>
<text fill="#D09A66" xml:space="preserve" style="white-space: pre" font-family="Source Code Pro" font-size="13.6033" font-weight="600" letter-spacing="-0.03em"><tspan x="71.2715" y="144.037">type:</tspan></text>
<text fill="#98C37A" xml:space="preserve" style="white-space: pre" font-family="Source Code Pro" font-size="13.6033" font-weight="600" letter-spacing="-0.03em"><tspan x="123.903" y="144.037">ci-before-command</tspan></text>
<text fill="#D09A66" xml:space="preserve" style="white-space: pre" font-family="Source Code Pro" font-size="13.6033" font-weight="600" letter-spacing="-0.03em"><tspan x="71.2715" y="162.754">patterns:</tspan></text>
<text fill="#98C37A" xml:space="preserve" style="white-space: pre" font-family="Source Code Pro" font-size="13.6033" font-weight="600" letter-spacing="-0.03em"><tspan x="71.2715" y="181.47">- ^go test.*&#10;</tspan><tspan x="71.2715" y="198.96">- ^npm test.*&#10;</tspan><tspan x="71.2715" y="216.45">- ^python -m .unittest.*  </tspan></text>
<text fill="#D09A66" xml:space="preserve" style="white-space: pre" font-family="Source Code Pro" font-size="13.6033" font-weight="600" letter-spacing="-0.03em"><tspan x="35.3203" y="235.187">  runBash:</tspan></text>
<text fill="#98C37A" xml:space="preserve" style="white-space: pre" font-family="Source Code Pro" font-size="13.6033" font-weight="600" letter-spacing="-0.03em"><tspan x="117.21" y="235.187">|-</tspan></text>
<text fill="#98C37A" xml:space="preserve" style="white-space: pre" font-family="Source Code Pro" font-size="13.6033" font-weight="600" letter-spacing="-0.03em"><tspan x="35.3203" y="253.904">&#xa0;&#xa0;&#xa0; lunar collect &#34;.unit_tests.run&#34; true</tspan></text>
</g>
<g filter="url(#filter1_d_6082_7810)">
<rect x="239" y="350.065" width="194" height="137" rx="22.3314" fill="#111214" shape-rendering="crispEdges"/>
<rect x="239" y="350.065" width="194" height="137" rx="22.3314" stroke="url(#paint6_linear_6082_7810)" stroke-width="4" shape-rendering="crispEdges"/>
<text fill="#D09A66" xml:space="preserve" style="white-space: pre" font-family="Source Code Pro" font-size="13.6" font-weight="600" letter-spacing="-0.03em"><tspan x="277.5" y="393.859">{</tspan></text>
<text fill="#D09A66" xml:space="preserve" style="white-space: pre" font-family="Source Code Pro" font-size="13.6" font-weight="600" letter-spacing="-0.03em"><tspan x="277.5" y="410.978">&#34;unit_tests&#34;: {</tspan></text>
<text fill="#D09A66" xml:space="preserve" style="white-space: pre" font-family="Source Code Pro" font-size="13.6" font-weight="600" letter-spacing="-0.03em"><tspan x="277.5" y="428.098">  &#34;run&#34;: true</tspan></text>
<text fill="#D09A66" xml:space="preserve" style="white-space: pre" font-family="Source Code Pro" font-size="13.6" font-weight="600" letter-spacing="-0.03em"><tspan x="277.5" y="445.217">  }</tspan></text>
<text fill="#D09A66" xml:space="preserve" style="white-space: pre" font-family="Source Code Pro" font-size="13.6" font-weight="600" letter-spacing="-0.03em"><tspan x="277.5" y="462.336">}</tspan></text>
</g>
<g clip-path="url(#clip1_6082_7810)">
<rect x="310.371" y="334.87" width="51.2571" height="38.6286" rx="6.68501" fill="white"/>
<g filter="url(#filter2_d_6082_7810)">
<path d="M327.872 342.108H327.867C327.84 341.013 326.939 340.162 325.843 340.147V340.145H318.456V340.15C317.37 340.177 316.542 341.022 316.517 342.109H316.513V366.212H316.516C316.537 367.295 317.382 368.137 318.456 368.179V368.224H325.843C326.973 368.224 327.872 367.342 327.872 366.212V342.108ZM322.192 365.876C321.804 365.881 321.418 365.809 321.058 365.663C320.697 365.518 320.369 365.303 320.093 365.03C319.816 364.757 319.597 364.432 319.447 364.073C319.297 363.715 319.22 363.33 319.22 362.941C319.22 362.553 319.298 362.168 319.447 361.81C319.597 361.451 319.817 361.126 320.093 360.853C320.37 360.58 320.698 360.365 321.058 360.22C321.418 360.074 321.804 360.002 322.192 360.007C322.964 360.017 323.701 360.33 324.244 360.88C324.786 361.429 325.09 362.17 325.09 362.942C325.09 363.714 324.786 364.455 324.243 365.004C323.701 365.553 322.964 365.866 322.192 365.876ZM325.524 355.326H318.86V342.492H325.524V355.326ZM341.58 342.108H341.574C341.548 341.013 340.647 340.162 339.55 340.147V340.145H332.164V340.15C331.078 340.177 330.249 341.022 330.225 342.109H330.22V366.212H330.224C330.244 367.295 331.089 368.137 332.164 368.179V368.224H339.55C340.68 368.224 341.58 367.342 341.58 366.212V342.108ZM335.899 365.876C335.511 365.881 335.125 365.809 334.765 365.663C334.405 365.518 334.077 365.303 333.8 365.03C333.524 364.757 333.304 364.432 333.154 364.073C333.005 363.715 332.928 363.33 332.928 362.941C332.928 362.553 333.005 362.168 333.155 361.81C333.305 361.451 333.524 361.126 333.801 360.853C334.077 360.58 334.405 360.365 334.765 360.22C335.126 360.074 335.511 360.002 335.9 360.007C336.672 360.017 337.409 360.33 337.951 360.88C338.493 361.429 338.797 362.17 338.797 362.942C338.797 363.714 338.493 364.454 337.951 365.004C337.409 365.553 336.671 365.866 335.899 365.876ZM339.231 355.326H332.568V342.492H339.232L339.231 355.326ZM355.287 342.108H355.282C355.255 341.013 354.354 340.162 353.257 340.147V340.145H345.871V340.15C344.785 340.177 343.956 341.022 343.932 342.109H343.927V366.212H343.931C343.951 367.295 344.796 368.137 345.871 368.179V368.224H353.257C354.388 368.224 355.287 367.342 355.287 366.212V342.108ZM349.607 365.876C349.219 365.881 348.833 365.809 348.473 365.663C348.112 365.518 347.784 365.303 347.508 365.03C347.232 364.757 347.012 364.432 346.862 364.073C346.712 363.715 346.635 363.33 346.635 362.941C346.635 362.553 346.713 362.168 346.862 361.81C347.012 361.451 347.232 361.126 347.508 360.853C347.785 360.58 348.113 360.365 348.473 360.22C348.833 360.074 349.219 360.002 349.608 360.007C350.379 360.017 351.116 360.33 351.659 360.88C352.201 361.429 352.505 362.17 352.505 362.942C352.505 363.714 352.201 364.455 351.658 365.004C351.116 365.553 350.379 365.866 349.607 365.876ZM352.939 355.326H346.275V342.492H352.939V355.326Z" fill="#F9FAFC"/>
<path d="M340.305 356.601V366.212C340.305 366.623 339.991 366.95 339.55 366.95H337.146C337.787 366.745 338.376 366.387 338.857 365.899C339.635 365.112 340.072 364.049 340.072 362.941C340.072 361.834 339.635 360.772 338.857 359.984C338.128 359.246 337.154 358.804 336.123 358.74L335.916 358.732C335.359 358.725 334.806 358.829 334.289 359.037C333.772 359.245 333.302 359.555 332.905 359.946C332.509 360.338 332.193 360.804 331.979 361.318C331.764 361.832 331.653 362.384 331.653 362.941C331.653 363.499 331.764 364.05 331.979 364.564C332.193 365.079 332.508 365.545 332.904 365.937C333.301 366.328 333.771 366.637 334.288 366.846C334.384 366.885 334.482 366.919 334.581 366.95H333.363L332.214 366.905C331.8 366.889 331.505 366.581 331.498 366.188L331.494 365.979V356.601H340.305ZM354.013 356.601V366.212C354.013 366.623 353.698 366.95 353.257 366.95H350.853C351.494 366.745 352.084 366.387 352.565 365.899C353.343 365.112 353.779 364.049 353.779 362.942C353.779 361.835 353.343 360.772 352.565 359.984C351.788 359.197 350.731 358.747 349.624 358.732C349.067 358.725 348.514 358.829 347.997 359.037C347.48 359.245 347.01 359.555 346.613 359.946C346.217 360.338 345.901 360.804 345.687 361.318C345.472 361.832 345.361 362.384 345.361 362.941C345.361 363.499 345.472 364.05 345.687 364.564C345.901 365.079 346.216 365.545 346.612 365.937C347.009 366.328 347.479 366.637 347.996 366.846C348.092 366.885 348.19 366.919 348.289 366.95H347.07L345.921 366.905C345.507 366.889 345.212 366.581 345.205 366.188L345.202 366.031V356.601H354.013ZM326.598 356.601V366.212C326.598 366.623 326.283 366.95 325.842 366.95H323.438C324.079 366.745 324.669 366.387 325.15 365.899C325.928 365.112 326.364 364.049 326.364 362.942C326.364 361.835 325.928 360.772 325.15 359.984C324.373 359.197 323.316 358.747 322.209 358.732C321.652 358.725 321.099 358.829 320.582 359.037C320.065 359.245 319.595 359.555 319.198 359.946C318.802 360.338 318.486 360.804 318.271 361.318C318.057 361.832 317.946 362.384 317.946 362.941C317.946 363.499 318.057 364.05 318.271 364.564C318.486 365.079 318.801 365.545 319.197 365.937C319.594 366.328 320.064 366.637 320.581 366.846C320.677 366.885 320.775 366.919 320.874 366.95H319.655L318.506 366.905C318.092 366.889 317.798 366.581 317.791 366.188L317.787 365.979V356.601H326.598Z" stroke="url(#paint7_linear_6082_7810)" stroke-width="2.54888"/>
</g>
</g>
<g filter="url(#filter3_d_6082_7810)">
<rect x="12" y="539.877" width="648" height="250" rx="29.3294" fill="#111214" shape-rendering="crispEdges"/>
<rect x="12" y="539.877" width="648" height="250" rx="29.3294" stroke="white" stroke-width="4.85831" shape-rendering="crispEdges"/>
<text fill="#D09A66" xml:space="preserve" style="white-space: pre" font-family="Source Code Pro" font-size="13.6033" font-weight="600" letter-spacing="-0.03em"><tspan x="35.3203" y="597.563">policies:</tspan></text>
<text fill="#D09A66" xml:space="preserve" style="white-space: pre" font-family="Source Code Pro" font-size="13.6033" font-weight="600" letter-spacing="-0.03em"><tspan x="35.3203" y="616.28">- name:</tspan></text>
<text fill="#98C37A" xml:space="preserve" style="white-space: pre" font-family="Source Code Pro" font-size="13.6033" font-weight="600" letter-spacing="-0.03em"><tspan x="94.207" y="616.28">unit-tests</tspan></text>
<text fill="#D09A66" xml:space="preserve" style="white-space: pre" font-family="Source Code Pro" font-size="13.6033" font-weight="600" letter-spacing="-0.03em"><tspan x="35.3203" y="634.997">  description:</tspan></text>
<text fill="#98C37A" xml:space="preserve" style="white-space: pre" font-family="Source Code Pro" font-size="13.6033" font-weight="600" letter-spacing="-0.03em"><tspan x="148.207" y="634.997">&#34;Does the project run unit tests in CI?&#34;</tspan></text>
<text fill="#D09A66" xml:space="preserve" style="white-space: pre" font-family="Source Code Pro" font-size="13.6033" font-weight="600" letter-spacing="-0.03em"><tspan x="35.3203" y="653.713">  on:</tspan></text>
<text fill="#98C37A" xml:space="preserve" style="white-space: pre" font-family="Source Code Pro" font-size="13.6033" font-weight="600" letter-spacing="-0.03em"><tspan x="79.207" y="653.713">[all-production-services]</tspan></text>
<text fill="#D09A66" xml:space="preserve" style="white-space: pre" font-family="Source Code Pro" font-size="13.6033" font-weight="600" letter-spacing="-0.03em"><tspan x="35.3203" y="672.429">  runPython:</tspan></text>
<text fill="#98C37A" xml:space="preserve" style="white-space: pre" font-family="Source Code Pro" font-size="13.6033" font-weight="600" letter-spacing="-0.03em"><tspan x="133.207" y="672.429">|-</tspan></text>
<text fill="#98C37A" xml:space="preserve" style="white-space: pre" font-family="Source Code Pro" font-size="13.6033" font-weight="600" letter-spacing="-0.03em"><tspan x="65.3203" y="691.146">from lunar_snippets import Check</tspan></text>
<text fill="#98C37A" xml:space="preserve" style="white-space: pre" font-family="Source Code Pro" font-size="13.6033" font-weight="600" letter-spacing="-0.03em"><tspan x="81.3203" y="716.146">with Check(&#34;unit-tests&#34;, &#34;Ran Unit Tests in CI&#34;) as c:</tspan></text>
<text fill="#98C37A" xml:space="preserve" style="white-space: pre" font-family="Source Code Pro" font-size="13.6033" font-weight="600" letter-spacing="-0.03em"><tspan x="103.32" y="741.146">c.assert_true(&#34;.unt_tests.run&#34;, &#34;No unit tests were detected in CI&#34;)</tspan></text>
</g>
<text fill="#475569" xml:space="preserve" style="white-space: pre" font-family="Helvetica" font-size="18" font-weight="bold" letter-spacing="0em"><tspan x="276.938" y="819.86">Policy Engine</tspan></text>
<defs>
<filter id="filter0_d_6082_7810" x="0.534827" y="21.5651" width="672.874" height="274.874" filterUnits="userSpaceOnUse" color-interpolation-filters="sRGB">
<feFlood flood-opacity="0" result="BackgroundImageFix"/>
<feColorMatrix in="SourceAlpha" type="matrix" values="0 0 0 0 0 0 0 0 0 0 0 0 0 0 0 0 0 0 127 0" result="hardAlpha"/>
<feOffset dx="0.971662" dy="1.94332"/>
<feGaussianBlur stdDeviation="5.00406"/>
<feComposite in2="hardAlpha" operator="out"/>
<feColorMatrix type="matrix" values="0 0 0 0 0 0 0 0 0 0 0 0 0 0 0 0 0 0 0.25 0"/>
<feBlend mode="normal" in2="BackgroundImageFix" result="effect1_dropShadow_6082_7810"/>
<feBlend mode="normal" in="SourceGraphic" in2="effect1_dropShadow_6082_7810" result="shape"/>
</filter>
<filter id="filter1_d_6082_7810" x="230.12" y="341.925" width="213.24" height="156.24" filterUnits="userSpaceOnUse" color-interpolation-filters="sRGB">
<feFlood flood-opacity="0" result="BackgroundImageFix"/>
<feColorMatrix in="SourceAlpha" type="matrix" values="0 0 0 0 0 0 0 0 0 0 0 0 0 0 0 0 0 0 127 0" result="hardAlpha"/>
<feOffset dx="0.739824" dy="1.47965"/>
<feGaussianBlur stdDeviation="3.8101"/>
<feComposite in2="hardAlpha" operator="out"/>
<feColorMatrix type="matrix" values="0 0 0 0 0 0 0 0 0 0 0 0 0 0 0 0 0 0 0.25 0"/>
<feBlend mode="normal" in2="BackgroundImageFix" result="effect1_dropShadow_6082_7810"/>
<feBlend mode="normal" in="SourceGraphic" in2="effect1_dropShadow_6082_7810" result="shape"/>
</filter>
<filter id="filter2_d_6082_7810" x="305.722" y="329.354" width="60.3549" height="49.6606" filterUnits="userSpaceOnUse" color-interpolation-filters="sRGB">
<feFlood flood-opacity="0" result="BackgroundImageFix"/>
<feColorMatrix in="SourceAlpha" type="matrix" values="0 0 0 0 0 0 0 0 0 0 0 0 0 0 0 0 0 0 127 0" result="hardAlpha"/>
<feMorphology radius="2.54888" operator="dilate" in="SourceAlpha" result="effect1_dropShadow_6082_7810"/>
<feOffset/>
<feGaussianBlur stdDeviation="4.12069"/>
<feComposite in2="hardAlpha" operator="out"/>
<feColorMatrix type="matrix" values="0 0 0 0 0 0 0 0 0 0 0 0 0 0 0 0 0 0 0.05 0"/>
<feBlend mode="normal" in2="BackgroundImageFix" result="effect1_dropShadow_6082_7810"/>
<feBlend mode="normal" in="SourceGraphic" in2="effect1_dropShadow_6082_7810" result="shape"/>
</filter>
<filter id="filter3_d_6082_7810" x="0.534827" y="529.383" width="672.874" height="274.874" filterUnits="userSpaceOnUse" color-interpolation-filters="sRGB">
<feFlood flood-opacity="0" result="BackgroundImageFix"/>
<feColorMatrix in="SourceAlpha" type="matrix" values="0 0 0 0 0 0 0 0 0 0 0 0 0 0 0 0 0 0 127 0" result="hardAlpha"/>
<feOffset dx="0.971662" dy="1.94332"/>
<feGaussianBlur stdDeviation="5.00406"/>
<feComposite in2="hardAlpha" operator="out"/>
<feColorMatrix type="matrix" values="0 0 0 0 0 0 0 0 0 0 0 0 0 0 0 0 0 0 0.25 0"/>
<feBlend mode="normal" in2="BackgroundImageFix" result="effect1_dropShadow_6082_7810"/>
<feBlend mode="normal" in="SourceGraphic" in2="effect1_dropShadow_6082_7810" result="shape"/>
</filter>
<linearGradient id="paint0_linear_6082_7810" x1="380.146" y1="-170.999" x2="380.146" y2="426.001" gradientUnits="userSpaceOnUse">
<stop stop-color="#CDF4FD" stop-opacity="0.5"/>
<stop offset="1" stop-color="#00D6FF"/>
</linearGradient>
<linearGradient id="paint1_linear_6082_7810" x1="291.939" y1="-170.999" x2="291.939" y2="426.001" gradientUnits="userSpaceOnUse">
<stop stop-color="#CDF4FD" stop-opacity="0.5"/>
<stop offset="1" stop-color="#00D6FF"/>
</linearGradient>
<linearGradient id="paint2_linear_6082_7810" x1="412.748" y1="-170.999" x2="412.748" y2="426.001" gradientUnits="userSpaceOnUse">
<stop stop-color="#CDF4FD"/>
<stop offset="1" stop-color="#00D6FF"/>
</linearGradient>
<linearGradient id="paint3_linear_6082_7810" x1="380.146" y1="1018" x2="380.146" y2="421.001" gradientUnits="userSpaceOnUse">
<stop stop-color="#32F8B9" stop-opacity="0.35"/>
<stop offset="1" stop-color="#32F8B9"/>
</linearGradient>
<linearGradient id="paint4_linear_6082_7810" x1="291.939" y1="1018" x2="291.939" y2="421.001" gradientUnits="userSpaceOnUse">
<stop stop-color="#32F8B9" stop-opacity="0.35"/>
<stop offset="1" stop-color="#32F8B9"/>
</linearGradient>
<linearGradient id="paint5_linear_6082_7810" x1="337.998" y1="1018" x2="337.998" y2="417.501" gradientUnits="userSpaceOnUse">
<stop stop-color="#32F8B9" stop-opacity="0.35"/>
<stop offset="1" stop-color="#32F8B9"/>
</linearGradient>
<linearGradient id="paint6_linear_6082_7810" x1="336" y1="350.065" x2="336" y2="487.065" gradientUnits="userSpaceOnUse">
<stop stop-color="#02D7FD"/>
<stop offset="1" stop-color="#32F7BA"/>
</linearGradient>
<linearGradient id="paint7_linear_6082_7810" x1="316.513" y1="354.184" x2="355.287" y2="354.184" gradientUnits="userSpaceOnUse">
<stop stop-color="#00D6FF"/>
<stop offset="1" stop-color="#32F8B9"/>
</linearGradient>
<clipPath id="clip0_6082_7810">
<rect width="539" height="175" fill="white" transform="translate(423.5 155.003) rotate(90)"/>
</clipPath>
<clipPath id="clip1_6082_7810">
<rect x="310.371" y="334.87" width="51.2571" height="38.6286" rx="6.68501" fill="white"/>
</clipPath>
</defs>
</svg>
