<svg width="674" height="825" viewBox="0 0 674 825" fill="none" xmlns="http://www.w3.org/2000/svg">
<g clip-path="url(#clip0_6082_7810)">
<path d="M423.959 -123.037L423.959 204.447C423.959 212.379 422.386 220.232 419.332 227.552L336.334 426.463" stroke="url(#paint0_linear_6082_7810)" stroke-width="2"/>
<path d="M248.126 -122.037L248.126 204.447C248.126 212.379 249.699 220.232 252.753 227.552L335.751 426.463" stroke="url(#paint1_linear_6082_7810)" stroke-width="2"/>
<path d="M337.498 -119.037L337.498 216.463L337.498 429.963" stroke="url(#paint2_linear_6082_7810)" stroke-width="2"/>
<path d="M423.959 973.463L423.959 643.479C423.959 635.547 422.386 627.694 419.332 620.374L336.334 421.463" stroke="url(#paint3_linear_6082_7810)" stroke-width="2"/>
<path d="M248.126 970.463L248.126 643.479C248.126 635.547 249.699 627.694 252.753 620.374L335.751 421.463" stroke="url(#paint4_linear_6082_7810)" stroke-width="2"/>
<path d="M337.498 973.463L337.498 631.463L337.498 417.963" stroke="url(#paint5_linear_6082_7810)" stroke-width="2"/>
<path d="M337.498 318.168L331.595 308.676L343.4 308.676L337.498 318.168Z" fill="#00D6FF"/>
<path d="M382.069 317.239L381.703 306.067L391.927 311.969L382.069 317.239Z" fill="#00D6FF"/>
<path d="M290.221 317.241L290.587 306.069L280.363 311.971L290.221 317.241Z" fill="#00D6FF"/>
<path d="M337.499 520.275L331.596 510.783L343.401 510.783L337.499 520.275Z" fill="#51F8C5"/>
<path d="M377.427 519.345L377.793 508.173L367.569 514.076L377.427 519.345Z" fill="#51F8C5"/>
<path d="M294.756 519.22L294.39 508.048L304.613 513.951L294.756 519.22Z" fill="#51F8C5"/>
</g>
<text fill="#475569" xml:space="preserve" style="white-space: pre" font-family="Helvetica" font-size="18" font-weight="bold" letter-spacing="0em"><tspan x="247.916" y="14.5033">SDLC Data Collector</tspan></text>
<g filter="url(#filter0_d_6082_7810)">
<rect x="12" y="32.5205" width="648" height="250" rx="29.3294" fill="#111214" shape-rendering="crispEdges"/>
<rect x="12" y="32.5205" width="648" height="250" rx="29.3294" stroke="white" stroke-width="4.85831" shape-rendering="crispEdges"/>
<text fill="#D09A66" xml:space="preserve" style="white-space: pre" font-family="Source Code Pro" font-size="13.6033" font-weight="600" letter-spacing="-0.03em"><tspan x="35.3203" y="69.6325">collectors:</tspan></text>
<text fill="#D09A66" xml:space="preserve" style="white-space: pre" font-family="Source Code Pro" font-size="13.6033" font-weight="600" letter-spacing="-0.03em"><tspan x="35.3203" y="88.3493">- name:</tspan></text>
<text fill="#98C37A" xml:space="preserve" style="white-space: pre" font-family="Source Code Pro" font-size="13.6033" font-weight="600" letter-spacing="-0.03em"><tspan x="94.207" y="88.3493">unit-tests</tspan></text>
<text fill="#D09A66" xml:space="preserve" style="white-space: pre" font-family="Source Code Pro" font-size="13.6033" font-weight="600" letter-spacing="-0.03em"><tspan x="35.3203" y="107.066">  description:</tspan></text>
<text fill="#D09A66" xml:space="preserve" style="white-space: pre" font-family="Source Code Pro" font-size="13.6033" font-weight="600" letter-spacing="-0.03em"><tspan x="35.3203" y="125.782">  hook:</tspan></text>
<text fill="#D09A66" xml:space="preserve" style="white-space: pre" font-family="Source Code Pro" font-size="13.6033" font-weight="600" letter-spacing="-0.03em"><tspan x="71.2715" y="144.499">type:</tspan></text>
<text fill="#98C37A" xml:space="preserve" style="white-space: pre" font-family="Source Code Pro" font-size="13.6033" font-weight="600" letter-spacing="-0.03em"><tspan x="123.903" y="144.499">ci-before-command</tspan></text>
<text fill="#D09A66" xml:space="preserve" style="white-space: pre" font-family="Source Code Pro" font-size="13.6033" font-weight="600" letter-spacing="-0.03em"><tspan x="71.2715" y="163.215">patterns:</tspan></text>
<text fill="#98C37A" xml:space="preserve" style="white-space: pre" font-family="Source Code Pro" font-size="13.6033" font-weight="600" letter-spacing="-0.03em"><tspan x="71.2715" y="181.932">- ^go test.*&#10;</tspan><tspan x="71.2715" y="199.422">- ^npm test.*&#10;</tspan><tspan x="71.2715" y="216.912">- ^python -m .unittest.*  </tspan></text>
<text fill="#D09A66" xml:space="preserve" style="white-space: pre" font-family="Source Code Pro" font-size="13.6033" font-weight="600" letter-spacing="-0.03em"><tspan x="35.3203" y="235.649">  runBash:</tspan></text>
<text fill="#C5D5FF" xml:space="preserve" style="white-space: pre" font-family="Source Code Pro" font-size="13.6033" font-weight="600" letter-spacing="-0.03em"><tspan x="117.21" y="235.649">|-</tspan></text>
<text fill="#C5D5FF" xml:space="preserve" style="white-space: pre" font-family="Source Code Pro" font-size="13.6033" font-weight="600" letter-spacing="-0.03em"><tspan x="35.3203" y="254.366">&#xa0;&#xa0;&#xa0; lunar collect &#34;.unit_tests.run&#34; true</tspan></text>
</g>
<g filter="url(#filter1_d_6082_7810)">
<rect x="239" y="350.527" width="194" height="137" rx="22.3314" fill="#111214" shape-rendering="crispEdges"/>
<rect x="239" y="350.527" width="194" height="137" rx="22.3314" stroke="url(#paint6_linear_6082_7810)" stroke-width="4" shape-rendering="crispEdges"/>
<text fill="#D09A66" xml:space="preserve" style="white-space: pre" font-family="Source Code Pro" font-size="13.6" font-weight="600" letter-spacing="-0.03em"><tspan x="269.5" y="394.321">{</tspan></text>
<text fill="#D09A66" xml:space="preserve" style="white-space: pre" font-family="Source Code Pro" font-size="13.6" font-weight="600" letter-spacing="-0.03em"><tspan x="269.5" y="411.44">  &#34;unit_tests&#34;: {</tspan></text>
<text fill="#D09A66" xml:space="preserve" style="white-space: pre" font-family="Source Code Pro" font-size="13.6" font-weight="600" letter-spacing="-0.03em"><tspan x="269.5" y="428.56">   . &#34;run&#34;: true</tspan></text>
<text fill="#D09A66" xml:space="preserve" style="white-space: pre" font-family="Source Code Pro" font-size="13.6" font-weight="600" letter-spacing="-0.03em"><tspan x="269.5" y="445.679">  }</tspan></text>
<text fill="#D09A66" xml:space="preserve" style="white-space: pre" font-family="Source Code Pro" font-size="13.6" font-weight="600" letter-spacing="-0.03em"><tspan x="269.5" y="462.798">}</tspan></text>
</g>
<g clip-path="url(#clip1_6082_7810)">
<rect x="310.371" y="335.332" width="51.2571" height="38.6286" rx="6.68501" fill="white"/>
<g filter="url(#filter2_d_6082_7810)">
<mask id="path-34-inside-1_6082_7810" fill="white">
<path d="M327.872 342.57H327.867C327.84 341.475 326.939 340.624 325.843 340.609V340.606H318.456V340.612C317.37 340.638 316.542 341.483 316.517 342.57H316.513V366.674H316.516C316.537 367.756 317.382 368.599 318.456 368.641V368.686H325.843C326.973 368.686 327.872 367.804 327.872 366.674V342.57ZM322.192 366.338C321.804 366.343 321.418 366.271 321.058 366.125C320.697 365.98 320.369 365.765 320.093 365.492C319.816 365.219 319.597 364.893 319.447 364.535C319.297 364.176 319.22 363.792 319.22 363.403C319.22 363.015 319.298 362.63 319.447 362.272C319.597 361.913 319.817 361.588 320.093 361.315C320.37 361.042 320.698 360.827 321.058 360.682C321.418 360.536 321.804 360.464 322.192 360.469C322.964 360.479 323.701 360.792 324.244 361.342C324.786 361.891 325.09 362.632 325.09 363.404C325.09 364.176 324.786 364.916 324.243 365.466C323.701 366.015 322.964 366.328 322.192 366.338ZM325.524 355.788H318.86V342.954H325.524V355.788ZM341.58 342.57H341.574C341.548 341.475 340.647 340.624 339.55 340.609V340.606H332.164V340.612C331.078 340.638 330.249 341.483 330.225 342.57H330.22V366.674H330.224C330.244 367.756 331.089 368.599 332.164 368.641V368.686H339.55C340.68 368.686 341.58 367.804 341.58 366.674V342.57ZM335.899 366.338C335.511 366.343 335.125 366.271 334.765 366.125C334.405 365.98 334.077 365.765 333.8 365.492C333.524 365.219 333.304 364.893 333.154 364.535C333.005 364.176 332.928 363.792 332.928 363.403C332.928 363.015 333.005 362.63 333.155 362.272C333.305 361.913 333.524 361.588 333.801 361.315C334.077 361.042 334.405 360.827 334.765 360.682C335.126 360.536 335.511 360.464 335.9 360.469C336.672 360.479 337.409 360.792 337.951 361.342C338.493 361.891 338.797 362.632 338.797 363.404C338.797 364.175 338.493 364.916 337.951 365.466C337.409 366.015 336.671 366.328 335.899 366.338ZM339.231 355.788H332.568V342.954H339.232L339.231 355.788ZM355.287 342.57H355.282C355.255 341.475 354.354 340.624 353.257 340.609V340.606H345.871V340.612C344.785 340.638 343.956 341.483 343.932 342.57H343.927V366.674H343.931C343.951 367.756 344.796 368.599 345.871 368.641V368.686H353.257C354.388 368.686 355.287 367.804 355.287 366.674V342.57ZM349.607 366.338C349.219 366.343 348.833 366.271 348.473 366.125C348.112 365.98 347.784 365.765 347.508 365.492C347.232 365.219 347.012 364.893 346.862 364.535C346.712 364.176 346.635 363.792 346.635 363.403C346.635 363.015 346.713 362.63 346.862 362.272C347.012 361.913 347.232 361.588 347.508 361.315C347.785 361.042 348.113 360.827 348.473 360.682C348.833 360.536 349.219 360.464 349.608 360.469C350.379 360.479 351.116 360.792 351.659 361.342C352.201 361.891 352.505 362.632 352.505 363.404C352.505 364.176 352.201 364.916 351.658 365.466C351.116 366.015 350.379 366.328 349.607 366.338ZM352.939 355.788H346.275V342.954H352.939V355.788Z"/>
</mask>
<path d="M327.872 342.57H327.867C327.84 341.475 326.939 340.624 325.843 340.609V340.606H318.456V340.612C317.37 340.638 316.542 341.483 316.517 342.57H316.513V366.674H316.516C316.537 367.756 317.382 368.599 318.456 368.641V368.686H325.843C326.973 368.686 327.872 367.804 327.872 366.674V342.57ZM322.192 366.338C321.804 366.343 321.418 366.271 321.058 366.125C320.697 365.98 320.369 365.765 320.093 365.492C319.816 365.219 319.597 364.893 319.447 364.535C319.297 364.176 319.22 363.792 319.22 363.403C319.22 363.015 319.298 362.63 319.447 362.272C319.597 361.913 319.817 361.588 320.093 361.315C320.37 361.042 320.698 360.827 321.058 360.682C321.418 360.536 321.804 360.464 322.192 360.469C322.964 360.479 323.701 360.792 324.244 361.342C324.786 361.891 325.09 362.632 325.09 363.404C325.09 364.176 324.786 364.916 324.243 365.466C323.701 366.015 322.964 366.328 322.192 366.338ZM325.524 355.788H318.86V342.954H325.524V355.788ZM341.58 342.57H341.574C341.548 341.475 340.647 340.624 339.55 340.609V340.606H332.164V340.612C331.078 340.638 330.249 341.483 330.225 342.57H330.22V366.674H330.224C330.244 367.756 331.089 368.599 332.164 368.641V368.686H339.55C340.68 368.686 341.58 367.804 341.58 366.674V342.57ZM335.899 366.338C335.511 366.343 335.125 366.271 334.765 366.125C334.405 365.98 334.077 365.765 333.8 365.492C333.524 365.219 333.304 364.893 333.154 364.535C333.005 364.176 332.928 363.792 332.928 363.403C332.928 363.015 333.005 362.63 333.155 362.272C333.305 361.913 333.524 361.588 333.801 361.315C334.077 361.042 334.405 360.827 334.765 360.682C335.126 360.536 335.511 360.464 335.9 360.469C336.672 360.479 337.409 360.792 337.951 361.342C338.493 361.891 338.797 362.632 338.797 363.404C338.797 364.175 338.493 364.916 337.951 365.466C337.409 366.015 336.671 366.328 335.899 366.338ZM339.231 355.788H332.568V342.954H339.232L339.231 355.788ZM355.287 342.57H355.282C355.255 341.475 354.354 340.624 353.257 340.609V340.606H345.871V340.612C344.785 340.638 343.956 341.483 343.932 342.57H343.927V366.674H343.931C343.951 367.756 344.796 368.599 345.871 368.641V368.686H353.257C354.388 368.686 355.287 367.804 355.287 366.674V342.57ZM349.607 366.338C349.219 366.343 348.833 366.271 348.473 366.125C348.112 365.98 347.784 365.765 347.508 365.492C347.232 365.219 347.012 364.893 346.862 364.535C346.712 364.176 346.635 363.792 346.635 363.403C346.635 363.015 346.713 362.63 346.862 362.272C347.012 361.913 347.232 361.588 347.508 361.315C347.785 361.042 348.113 360.827 348.473 360.682C348.833 360.536 349.219 360.464 349.608 360.469C350.379 360.479 351.116 360.792 351.659 361.342C352.201 361.891 352.505 362.632 352.505 363.404C352.505 364.176 352.201 364.916 351.658 365.466C351.116 366.015 350.379 366.328 349.607 366.338ZM352.939 355.788H346.275V342.954H352.939V355.788Z" fill="#F9FAFC"/>
<path d="M327.872 342.57H327.867C327.84 341.475 326.939 340.624 325.843 340.609V340.606H318.456V340.612C317.37 340.638 316.542 341.483 316.517 342.57H316.513V366.674H316.516C316.537 367.756 317.382 368.599 318.456 368.641V368.686H325.843C326.973 368.686 327.872 367.804 327.872 366.674V342.57ZM322.192 366.338C321.804 366.343 321.418 366.271 321.058 366.125C320.697 365.98 320.369 365.765 320.093 365.492C319.816 365.219 319.597 364.893 319.447 364.535C319.297 364.176 319.22 363.792 319.22 363.403C319.22 363.015 319.298 362.63 319.447 362.272C319.597 361.913 319.817 361.588 320.093 361.315C320.37 361.042 320.698 360.827 321.058 360.682C321.418 360.536 321.804 360.464 322.192 360.469C322.964 360.479 323.701 360.792 324.244 361.342C324.786 361.891 325.09 362.632 325.09 363.404C325.09 364.176 324.786 364.916 324.243 365.466C323.701 366.015 322.964 366.328 322.192 366.338ZM325.524 355.788H318.86V342.954H325.524V355.788ZM341.58 342.57H341.574C341.548 341.475 340.647 340.624 339.55 340.609V340.606H332.164V340.612C331.078 340.638 330.249 341.483 330.225 342.57H330.22V366.674H330.224C330.244 367.756 331.089 368.599 332.164 368.641V368.686H339.55C340.68 368.686 341.58 367.804 341.58 366.674V342.57ZM335.899 366.338C335.511 366.343 335.125 366.271 334.765 366.125C334.405 365.98 334.077 365.765 333.8 365.492C333.524 365.219 333.304 364.893 333.154 364.535C333.005 364.176 332.928 363.792 332.928 363.403C332.928 363.015 333.005 362.63 333.155 362.272C333.305 361.913 333.524 361.588 333.801 361.315C334.077 361.042 334.405 360.827 334.765 360.682C335.126 360.536 335.511 360.464 335.9 360.469C336.672 360.479 337.409 360.792 337.951 361.342C338.493 361.891 338.797 362.632 338.797 363.404C338.797 364.175 338.493 364.916 337.951 365.466C337.409 366.015 336.671 366.328 335.899 366.338ZM339.231 355.788H332.568V342.954H339.232L339.231 355.788ZM355.287 342.57H355.282C355.255 341.475 354.354 340.624 353.257 340.609V340.606H345.871V340.612C344.785 340.638 343.956 341.483 343.932 342.57H343.927V366.674H343.931C343.951 367.756 344.796 368.599 345.871 368.641V368.686H353.257C354.388 368.686 355.287 367.804 355.287 366.674V342.57ZM349.607 366.338C349.219 366.343 348.833 366.271 348.473 366.125C348.112 365.98 347.784 365.765 347.508 365.492C347.232 365.219 347.012 364.893 346.862 364.535C346.712 364.176 346.635 363.792 346.635 363.403C346.635 363.015 346.713 362.63 346.862 362.272C347.012 361.913 347.232 361.588 347.508 361.315C347.785 361.042 348.113 360.827 348.473 360.682C348.833 360.536 349.219 360.464 349.608 360.469C350.379 360.479 351.116 360.792 351.659 361.342C352.201 361.891 352.505 362.632 352.505 363.404C352.505 364.176 352.201 364.916 351.658 365.466C351.116 366.015 350.379 366.328 349.607 366.338ZM352.939 355.788H346.275V342.954H352.939V355.788Z" stroke="url(#paint7_linear_6082_7810)" stroke-width="5.09776" mask="url(#path-34-inside-1_6082_7810)"/>
</g>
</g>
<g filter="url(#filter3_d_6082_7810)">
<rect x="12" y="540.339" width="648" height="250" rx="29.3294" fill="#111214" shape-rendering="crispEdges"/>
<rect x="12" y="540.339" width="648" height="250" rx="29.3294" stroke="white" stroke-width="4.85831" shape-rendering="crispEdges"/>
<text fill="#D09A66" xml:space="preserve" style="white-space: pre" font-family="Source Code Pro" font-size="13.6033" font-weight="600" letter-spacing="-0.03em"><tspan x="35.3203" y="602.025">policies:</tspan></text>
<text fill="#D09A66" xml:space="preserve" style="white-space: pre" font-family="Source Code Pro" font-size="13.6033" font-weight="600" letter-spacing="-0.03em"><tspan x="35.3203" y="620.742">- name:</tspan></text>
<text fill="#98C37A" xml:space="preserve" style="white-space: pre" font-family="Source Code Pro" font-size="13.6033" font-weight="600" letter-spacing="-0.03em"><tspan x="94.207" y="620.742">unit-tests</tspan></text>
<text fill="#D09A66" xml:space="preserve" style="white-space: pre" font-family="Source Code Pro" font-size="13.6033" font-weight="600" letter-spacing="-0.03em"><tspan x="35.3203" y="639.459">  description:</tspan></text>
<text fill="#98C37A" xml:space="preserve" style="white-space: pre" font-family="Source Code Pro" font-size="13.6033" font-weight="600" letter-spacing="-0.03em"><tspan x="148.207" y="639.459">&#34;Does the project run unit tests in CI?&#34;</tspan></text>
<text fill="#D09A66" xml:space="preserve" style="white-space: pre" font-family="Source Code Pro" font-size="13.6033" font-weight="600" letter-spacing="-0.03em"><tspan x="35.3203" y="658.174">  on:</tspan></text>
<text fill="#98C37A" xml:space="preserve" style="white-space: pre" font-family="Source Code Pro" font-size="13.6033" font-weight="600" letter-spacing="-0.03em"><tspan x="79.207" y="658.174">[all-production-services]</tspan></text>
<text fill="#D09A66" xml:space="preserve" style="white-space: pre" font-family="Source Code Pro" font-size="13.6033" font-weight="600" letter-spacing="-0.03em"><tspan x="35.3203" y="676.891">  runPython:</tspan></text>
<text fill="#C5D5FF" xml:space="preserve" style="white-space: pre" font-family="Source Code Pro" font-size="13.6033" font-weight="600" letter-spacing="-0.03em"><tspan x="133.207" y="676.891">|-</tspan></text>
<text fill="#C5D5FF" xml:space="preserve" style="white-space: pre" font-family="Source Code Pro" font-size="13.6033" font-weight="600" letter-spacing="-0.03em"><tspan x="104.315" y="695.608"> Check</tspan><tspan x="445.251" y="695.608"> </tspan><tspan x="468.496" y="695.608"> c:</tspan></text>
<text fill="#C397D8" xml:space="preserve" style="white-space: pre" font-family="Source Code Pro" font-size="13.6033" font-weight="600" letter-spacing="-0.03em"><tspan x="73.3203" y="695.608">with</tspan><tspan x="452.999" y="695.608">as</tspan></text>
<text fill="#98C37A" xml:space="preserve" style="white-space: pre" font-family="Source Code Pro" font-size="13.6033" font-weight="600" letter-spacing="-0.03em"><tspan x="150.806" y="695.608">(&#34;unit-tests&#34;, &#34;Ran Unit Tests in CI&#34;)</tspan></text>
<text fill="#98C37A" xml:space="preserve" style="white-space: pre" font-family="Source Code Pro" font-size="13.6033" font-weight="600" letter-spacing="-0.03em"><tspan x="197.051" y="720.608">(&#34;.unit_tests.run&#34;, &#10;</tspan><tspan x="96.3203" y="738.098">   &#34;Unit tests are required&#34;</tspan></text>
<text fill="#C5D5FF" xml:space="preserve" style="white-space: pre" font-family="Source Code Pro" font-size="13.6033" font-weight="600" letter-spacing="-0.03em"><tspan x="96.3203" y="720.608">c.</tspan><tspan x="313.28" y="738.098">)</tspan></text>
<text fill="#7AA6DA" xml:space="preserve" style="white-space: pre" font-family="Source Code Pro" font-size="13.6033" font-weight="600" letter-spacing="-0.03em"><tspan x="111.817" y="720.608">assert_true</tspan></text>
</g>
<text fill="#475569" xml:space="preserve" style="white-space: pre" font-family="Helvetica" font-size="18" font-weight="bold" letter-spacing="0em"><tspan x="276.938" y="820.322">Policy Engine</tspan></text>
<defs>
<filter id="filter0_d_6082_7810" x="0.534827" y="22.027" width="672.874" height="274.874" filterUnits="userSpaceOnUse" color-interpolation-filters="sRGB">
<feFlood flood-opacity="0" result="BackgroundImageFix"/>
<feColorMatrix in="SourceAlpha" type="matrix" values="0 0 0 0 0 0 0 0 0 0 0 0 0 0 0 0 0 0 127 0" result="hardAlpha"/>
<feOffset dx="0.971662" dy="1.94332"/>
<feGaussianBlur stdDeviation="5.00406"/>
<feComposite in2="hardAlpha" operator="out"/>
<feColorMatrix type="matrix" values="0 0 0 0 0 0 0 0 0 0 0 0 0 0 0 0 0 0 0.25 0"/>
<feBlend mode="normal" in2="BackgroundImageFix" result="effect1_dropShadow_6082_7810"/>
<feBlend mode="normal" in="SourceGraphic" in2="effect1_dropShadow_6082_7810" result="shape"/>
</filter>
<filter id="filter1_d_6082_7810" x="230.12" y="342.387" width="213.24" height="156.24" filterUnits="userSpaceOnUse" color-interpolation-filters="sRGB">
<feFlood flood-opacity="0" result="BackgroundImageFix"/>
<feColorMatrix in="SourceAlpha" type="matrix" values="0 0 0 0 0 0 0 0 0 0 0 0 0 0 0 0 0 0 127 0" result="hardAlpha"/>
<feOffset dx="0.739824" dy="1.47965"/>
<feGaussianBlur stdDeviation="3.8101"/>
<feComposite in2="hardAlpha" operator="out"/>
<feColorMatrix type="matrix" values="0 0 0 0 0 0 0 0 0 0 0 0 0 0 0 0 0 0 0.25 0"/>
<feBlend mode="normal" in2="BackgroundImageFix" result="effect1_dropShadow_6082_7810"/>
<feBlend mode="normal" in="SourceGraphic" in2="effect1_dropShadow_6082_7810" result="shape"/>
</filter>
<filter id="filter2_d_6082_7810" x="305.722" y="329.816" width="60.3549" height="49.6606" filterUnits="userSpaceOnUse" color-interpolation-filters="sRGB">
<feFlood flood-opacity="0" result="BackgroundImageFix"/>
<feColorMatrix in="SourceAlpha" type="matrix" values="0 0 0 0 0 0 0 0 0 0 0 0 0 0 0 0 0 0 127 0" result="hardAlpha"/>
<feMorphology radius="2.54888" operator="dilate" in="SourceAlpha" result="effect1_dropShadow_6082_7810"/>
<feOffset/>
<feGaussianBlur stdDeviation="4.12069"/>
<feComposite in2="hardAlpha" operator="out"/>
<feColorMatrix type="matrix" values="0 0 0 0 0 0 0 0 0 0 0 0 0 0 0 0 0 0 0.05 0"/>
<feBlend mode="normal" in2="BackgroundImageFix" result="effect1_dropShadow_6082_7810"/>
<feBlend mode="normal" in="SourceGraphic" in2="effect1_dropShadow_6082_7810" result="shape"/>
</filter>
<filter id="filter3_d_6082_7810" x="0.534827" y="529.845" width="672.874" height="274.874" filterUnits="userSpaceOnUse" color-interpolation-filters="sRGB">
<feFlood flood-opacity="0" result="BackgroundImageFix"/>
<feColorMatrix in="SourceAlpha" type="matrix" values="0 0 0 0 0 0 0 0 0 0 0 0 0 0 0 0 0 0 127 0" result="hardAlpha"/>
<feOffset dx="0.971662" dy="1.94332"/>
<feGaussianBlur stdDeviation="5.00406"/>
<feComposite in2="hardAlpha" operator="out"/>
<feColorMatrix type="matrix" values="0 0 0 0 0 0 0 0 0 0 0 0 0 0 0 0 0 0 0.25 0"/>
<feBlend mode="normal" in2="BackgroundImageFix" result="effect1_dropShadow_6082_7810"/>
<feBlend mode="normal" in="SourceGraphic" in2="effect1_dropShadow_6082_7810" result="shape"/>
</filter>
<linearGradient id="paint0_linear_6082_7810" x1="380.146" y1="-170.537" x2="380.146" y2="426.463" gradientUnits="userSpaceOnUse">
<stop stop-color="#CDF4FD" stop-opacity="0.5"/>
<stop offset="1" stop-color="#00D6FF"/>
</linearGradient>
<linearGradient id="paint1_linear_6082_7810" x1="291.939" y1="-170.537" x2="291.939" y2="426.463" gradientUnits="userSpaceOnUse">
<stop stop-color="#CDF4FD" stop-opacity="0.5"/>
<stop offset="1" stop-color="#00D6FF"/>
</linearGradient>
<linearGradient id="paint2_linear_6082_7810" x1="412.748" y1="-170.537" x2="412.748" y2="426.463" gradientUnits="userSpaceOnUse">
<stop stop-color="#CDF4FD"/>
<stop offset="1" stop-color="#00D6FF"/>
</linearGradient>
<linearGradient id="paint3_linear_6082_7810" x1="380.146" y1="1018.46" x2="380.146" y2="421.463" gradientUnits="userSpaceOnUse">
<stop stop-color="#32F8B9" stop-opacity="0.35"/>
<stop offset="1" stop-color="#32F8B9"/>
</linearGradient>
<linearGradient id="paint4_linear_6082_7810" x1="291.939" y1="1018.46" x2="291.939" y2="421.463" gradientUnits="userSpaceOnUse">
<stop stop-color="#32F8B9" stop-opacity="0.35"/>
<stop offset="1" stop-color="#32F8B9"/>
</linearGradient>
<linearGradient id="paint5_linear_6082_7810" x1="337.998" y1="1018.46" x2="337.998" y2="417.963" gradientUnits="userSpaceOnUse">
<stop stop-color="#32F8B9" stop-opacity="0.35"/>
<stop offset="1" stop-color="#32F8B9"/>
</linearGradient>
<linearGradient id="paint6_linear_6082_7810" x1="336" y1="350.527" x2="336" y2="487.527" gradientUnits="userSpaceOnUse">
<stop stop-color="#02D7FD"/>
<stop offset="1" stop-color="#32F7BA"/>
</linearGradient>
<linearGradient id="paint7_linear_6082_7810" x1="316.513" y1="354.646" x2="355.287" y2="354.646" gradientUnits="userSpaceOnUse">
<stop stop-color="#00D6FF"/>
<stop offset="1" stop-color="#32F8B9"/>
</linearGradient>
<clipPath id="clip0_6082_7810">
<rect width="539" height="175" fill="white" transform="translate(423.5 155.465) rotate(90)"/>
</clipPath>
<clipPath id="clip1_6082_7810">
<rect x="310.371" y="335.332" width="51.2571" height="38.6286" rx="6.68501" fill="white"/>
</clipPath>
</defs>
</svg>
