<svg width="1439" height="371" viewBox="0 0 1439 371" fill="none" xmlns="http://www.w3.org/2000/svg">
<rect width="1440" height="370" transform="translate(-1.125 0.790039)" fill="#E8F7FE"/>
<path d="M171.373 92.3311H498.857C506.789 92.3311 514.642 93.9038 521.962 96.9582L720.873 179.956" stroke="url(#paint0_linear_5721_22498)" stroke-width="2"/>
<path d="M172.373 268.164H498.857C506.789 268.164 514.642 266.591 521.962 263.537L720.873 180.539" stroke="url(#paint1_linear_5721_22498)" stroke-width="2"/>
<path d="M175.373 178.792H510.873H724.373" stroke="url(#paint2_linear_5721_22498)" stroke-width="2"/>
<path d="M1267.87 92.3311H937.889C929.957 92.3311 922.104 93.9038 914.784 96.9582L715.873 179.956" stroke="url(#paint3_linear_5721_22498)" stroke-width="2"/>
<path d="M1264.87 268.164H937.889C929.957 268.164 922.104 266.591 914.784 263.537L715.873 180.539" stroke="url(#paint4_linear_5721_22498)" stroke-width="2"/>
<path d="M1267.87 178.792H925.873H712.373" stroke="url(#paint5_linear_5721_22498)" stroke-width="2"/>
<text fill="#475569" xml:space="preserve" style="white-space: pre" font-family="Helvetica" font-size="18" font-weight="bold" letter-spacing="0em"><tspan x="196.918" y="41.8285">SDLC Data Collector</tspan></text>
<g filter="url(#filter0_d_5721_22498)">
<rect x="29.002" y="59.8457" width="512" height="250" rx="29.3294" fill="#111214" shape-rendering="crispEdges"/>
<rect x="29.002" y="59.8457" width="512" height="250" rx="29.3294" stroke="white" stroke-width="4.85831" shape-rendering="crispEdges"/>
<text fill="#D09A66" xml:space="preserve" style="white-space: pre" font-family="Source Code Pro" font-size="13.6033" font-weight="600" letter-spacing="-0.03em"><tspan x="52.3223" y="96.9577">collectors:</tspan></text>
<text fill="#D09A66" xml:space="preserve" style="white-space: pre" font-family="Source Code Pro" font-size="13.6033" font-weight="600" letter-spacing="-0.03em"><tspan x="52.3223" y="115.674">- name:</tspan></text>
<text fill="#98C37A" xml:space="preserve" style="white-space: pre" font-family="Source Code Pro" font-size="13.6033" font-weight="600" letter-spacing="-0.03em"><tspan x="111.209" y="115.674">unit-tests</tspan></text>
<text fill="#D09A66" xml:space="preserve" style="white-space: pre" font-family="Source Code Pro" font-size="13.6033" font-weight="600" letter-spacing="-0.03em"><tspan x="52.3223" y="134.391">  description:</tspan></text>
<text fill="#D09A66" xml:space="preserve" style="white-space: pre" font-family="Source Code Pro" font-size="13.6033" font-weight="600" letter-spacing="-0.03em"><tspan x="52.3223" y="153.107">  hook:</tspan></text>
<text fill="#D09A66" xml:space="preserve" style="white-space: pre" font-family="Source Code Pro" font-size="13.6033" font-weight="600" letter-spacing="-0.03em"><tspan x="88.2734" y="171.824">type:</tspan></text>
<text fill="#98C37A" xml:space="preserve" style="white-space: pre" font-family="Source Code Pro" font-size="13.6033" font-weight="600" letter-spacing="-0.03em"><tspan x="140.905" y="171.824">ci-before-command</tspan></text>
<text fill="#D09A66" xml:space="preserve" style="white-space: pre" font-family="Source Code Pro" font-size="13.6033" font-weight="600" letter-spacing="-0.03em"><tspan x="88.2734" y="190.541">patterns:</tspan></text>
<text fill="#98C37A" xml:space="preserve" style="white-space: pre" font-family="Source Code Pro" font-size="13.6033" font-weight="600" letter-spacing="-0.03em"><tspan x="88.2734" y="209.257">- ^go test.*&#10;</tspan><tspan x="88.2734" y="226.747">- ^npm test.*&#10;</tspan><tspan x="88.2734" y="244.237">- ^python -m .unittest.*  </tspan></text>
<text fill="#D09A66" xml:space="preserve" style="white-space: pre" font-family="Source Code Pro" font-size="13.6033" font-weight="600" letter-spacing="-0.03em"><tspan x="52.3223" y="262.974">  runBash:</tspan></text>
<g filter="url(#filter1_d_5721_22498)">
<text fill="#C5D5FF" xml:space="preserve" style="white-space: pre" font-family="Source Code Pro" font-size="13.6033" font-weight="600" letter-spacing="-0.03em"><tspan x="134.212" y="262.974">|-</tspan></text>
</g>
<g filter="url(#filter2_d_5721_22498)">
<text fill="#C5D5FF" xml:space="preserve" style="white-space: pre" font-family="Source Code Pro" font-size="13.6033" font-weight="600" letter-spacing="-0.03em"><tspan x="52.3223" y="281.691">&#xa0;&#xa0;&#xa0; lunar collect &#34;.unit_tests.run&#34; true</tspan></text>
</g>
</g>
<g filter="url(#filter3_d_5721_22498)">
<rect x="622.002" y="110.846" width="194" height="137" rx="22.3314" fill="#111214" shape-rendering="crispEdges"/>
<rect x="622.002" y="110.846" width="194" height="137" rx="22.3314" stroke="url(#paint6_linear_5721_22498)" stroke-width="4" shape-rendering="crispEdges"/>
<text fill="#D09A66" xml:space="preserve" style="white-space: pre" font-family="Source Code Pro" font-size="13.6" font-weight="600" letter-spacing="-0.03em"><tspan x="652.502" y="154.639">{</tspan></text>
<text fill="#D09A66" xml:space="preserve" style="white-space: pre" font-family="Source Code Pro" font-size="13.6" font-weight="600" letter-spacing="-0.03em"><tspan x="652.502" y="171.758">  &#34;unit_tests&#34;: {</tspan></text>
<text fill="#D09A66" xml:space="preserve" style="white-space: pre" font-family="Source Code Pro" font-size="13.6" font-weight="600" letter-spacing="-0.03em"><tspan x="652.502" y="188.878">    &#34;run&#34;: true</tspan></text>
<text fill="#D09A66" xml:space="preserve" style="white-space: pre" font-family="Source Code Pro" font-size="13.6" font-weight="600" letter-spacing="-0.03em"><tspan x="652.502" y="205.997">  }</tspan></text>
<text fill="#D09A66" xml:space="preserve" style="white-space: pre" font-family="Source Code Pro" font-size="13.6" font-weight="600" letter-spacing="-0.03em"><tspan x="652.502" y="223.117">}</tspan></text>
</g>
<g clip-path="url(#clip0_5721_22498)">
<rect x="693.373" y="95.6504" width="51.2571" height="38.6286" rx="6.68501" fill="white"/>
<g filter="url(#filter4_d_5721_22498)">
<mask id="path-28-inside-1_5721_22498" fill="white">
<path d="M710.874 102.888H710.869C710.842 101.793 709.941 100.943 708.845 100.928V100.925H701.458V100.93C700.372 100.957 699.544 101.802 699.519 102.889H699.515V126.992H699.518C699.539 128.075 700.384 128.917 701.458 128.959V129.005H708.845C709.975 129.004 710.874 128.122 710.874 126.993V102.888ZM705.194 126.656C704.805 126.661 704.42 126.589 704.06 126.444C703.699 126.298 703.371 126.083 703.095 125.81C702.818 125.537 702.599 125.212 702.449 124.853C702.299 124.495 702.222 124.11 702.222 123.722C702.222 123.333 702.299 122.948 702.449 122.59C702.599 122.232 702.819 121.906 703.095 121.633C703.372 121.36 703.7 121.145 704.06 121C704.42 120.855 704.806 120.782 705.194 120.787C705.966 120.797 706.703 121.111 707.245 121.66C707.788 122.209 708.092 122.95 708.092 123.722C708.092 124.494 707.788 125.235 707.245 125.784C706.703 126.333 705.966 126.647 705.194 126.656ZM708.526 116.107H701.862V103.273H708.526V116.107ZM724.582 102.888H724.576C724.55 101.793 723.648 100.943 722.552 100.928V100.925H715.166V100.93C714.08 100.957 713.251 101.802 713.227 102.889H713.222V126.992H713.226C713.246 128.075 714.091 128.917 715.166 128.959V129.005H722.552C723.682 129.004 724.582 128.122 724.582 126.993V102.888ZM718.901 126.656C718.513 126.661 718.127 126.589 717.767 126.444C717.406 126.298 717.079 126.083 716.802 125.81C716.526 125.537 716.306 125.212 716.156 124.853C716.007 124.495 715.93 124.11 715.93 123.722C715.93 123.333 716.007 122.948 716.157 122.59C716.306 122.232 716.526 121.906 716.802 121.633C717.079 121.36 717.407 121.145 717.767 121C718.128 120.855 718.513 120.782 718.902 120.787C719.674 120.797 720.41 121.111 720.953 121.66C721.495 122.209 721.799 122.95 721.799 123.722C721.799 124.494 721.495 125.235 720.953 125.784C720.41 126.333 719.673 126.647 718.901 126.656ZM722.233 116.107H715.57V103.273H722.234L722.233 116.107ZM738.289 102.888H738.284C738.257 101.793 737.356 100.943 736.259 100.928V100.925H728.873V100.93C727.787 100.957 726.958 101.802 726.934 102.889H726.929V126.992H726.933C726.953 128.075 727.798 128.917 728.873 128.959V129.005H736.259C737.39 129.004 738.289 128.122 738.289 126.993V102.888ZM732.609 126.656C732.221 126.661 731.835 126.589 731.475 126.444C731.114 126.298 730.786 126.083 730.51 125.81C730.233 125.537 730.014 125.212 729.864 124.853C729.714 124.495 729.637 124.11 729.637 123.722C729.637 123.333 729.715 122.948 729.864 122.59C730.014 122.232 730.234 121.906 730.51 121.633C730.787 121.36 731.115 121.145 731.475 121C731.835 120.855 732.221 120.782 732.609 120.787C733.381 120.797 734.118 121.111 734.661 121.66C735.203 122.209 735.507 122.95 735.507 123.722C735.507 124.494 735.203 125.235 734.66 125.784C734.118 126.333 733.381 126.647 732.609 126.656ZM735.941 116.107H729.277V103.273H735.941V116.107Z"/>
</mask>
<path d="M710.874 102.888H710.869C710.842 101.793 709.941 100.943 708.845 100.928V100.925H701.458V100.93C700.372 100.957 699.544 101.802 699.519 102.889H699.515V126.992H699.518C699.539 128.075 700.384 128.917 701.458 128.959V129.005H708.845C709.975 129.004 710.874 128.122 710.874 126.993V102.888ZM705.194 126.656C704.805 126.661 704.42 126.589 704.06 126.444C703.699 126.298 703.371 126.083 703.095 125.81C702.818 125.537 702.599 125.212 702.449 124.853C702.299 124.495 702.222 124.11 702.222 123.722C702.222 123.333 702.299 122.948 702.449 122.59C702.599 122.232 702.819 121.906 703.095 121.633C703.372 121.36 703.7 121.145 704.06 121C704.42 120.855 704.806 120.782 705.194 120.787C705.966 120.797 706.703 121.111 707.245 121.66C707.788 122.209 708.092 122.95 708.092 123.722C708.092 124.494 707.788 125.235 707.245 125.784C706.703 126.333 705.966 126.647 705.194 126.656ZM708.526 116.107H701.862V103.273H708.526V116.107ZM724.582 102.888H724.576C724.55 101.793 723.648 100.943 722.552 100.928V100.925H715.166V100.93C714.08 100.957 713.251 101.802 713.227 102.889H713.222V126.992H713.226C713.246 128.075 714.091 128.917 715.166 128.959V129.005H722.552C723.682 129.004 724.582 128.122 724.582 126.993V102.888ZM718.901 126.656C718.513 126.661 718.127 126.589 717.767 126.444C717.406 126.298 717.079 126.083 716.802 125.81C716.526 125.537 716.306 125.212 716.156 124.853C716.007 124.495 715.93 124.11 715.93 123.722C715.93 123.333 716.007 122.948 716.157 122.59C716.306 122.232 716.526 121.906 716.802 121.633C717.079 121.36 717.407 121.145 717.767 121C718.128 120.855 718.513 120.782 718.902 120.787C719.674 120.797 720.41 121.111 720.953 121.66C721.495 122.209 721.799 122.95 721.799 123.722C721.799 124.494 721.495 125.235 720.953 125.784C720.41 126.333 719.673 126.647 718.901 126.656ZM722.233 116.107H715.57V103.273H722.234L722.233 116.107ZM738.289 102.888H738.284C738.257 101.793 737.356 100.943 736.259 100.928V100.925H728.873V100.93C727.787 100.957 726.958 101.802 726.934 102.889H726.929V126.992H726.933C726.953 128.075 727.798 128.917 728.873 128.959V129.005H736.259C737.39 129.004 738.289 128.122 738.289 126.993V102.888ZM732.609 126.656C732.221 126.661 731.835 126.589 731.475 126.444C731.114 126.298 730.786 126.083 730.51 125.81C730.233 125.537 730.014 125.212 729.864 124.853C729.714 124.495 729.637 124.11 729.637 123.722C729.637 123.333 729.715 122.948 729.864 122.59C730.014 122.232 730.234 121.906 730.51 121.633C730.787 121.36 731.115 121.145 731.475 121C731.835 120.855 732.221 120.782 732.609 120.787C733.381 120.797 734.118 121.111 734.661 121.66C735.203 122.209 735.507 122.95 735.507 123.722C735.507 124.494 735.203 125.235 734.66 125.784C734.118 126.333 733.381 126.647 732.609 126.656ZM735.941 116.107H729.277V103.273H735.941V116.107Z" fill="#F9FAFC"/>
<path d="M710.874 102.888H710.869C710.842 101.793 709.941 100.943 708.845 100.928V100.925H701.458V100.93C700.372 100.957 699.544 101.802 699.519 102.889H699.515V126.992H699.518C699.539 128.075 700.384 128.917 701.458 128.959V129.005H708.845C709.975 129.004 710.874 128.122 710.874 126.993V102.888ZM705.194 126.656C704.805 126.661 704.42 126.589 704.06 126.444C703.699 126.298 703.371 126.083 703.095 125.81C702.818 125.537 702.599 125.212 702.449 124.853C702.299 124.495 702.222 124.11 702.222 123.722C702.222 123.333 702.299 122.948 702.449 122.59C702.599 122.232 702.819 121.906 703.095 121.633C703.372 121.36 703.7 121.145 704.06 121C704.42 120.855 704.806 120.782 705.194 120.787C705.966 120.797 706.703 121.111 707.245 121.66C707.788 122.209 708.092 122.95 708.092 123.722C708.092 124.494 707.788 125.235 707.245 125.784C706.703 126.333 705.966 126.647 705.194 126.656ZM708.526 116.107H701.862V103.273H708.526V116.107ZM724.582 102.888H724.576C724.55 101.793 723.648 100.943 722.552 100.928V100.925H715.166V100.93C714.08 100.957 713.251 101.802 713.227 102.889H713.222V126.992H713.226C713.246 128.075 714.091 128.917 715.166 128.959V129.005H722.552C723.682 129.004 724.582 128.122 724.582 126.993V102.888ZM718.901 126.656C718.513 126.661 718.127 126.589 717.767 126.444C717.406 126.298 717.079 126.083 716.802 125.81C716.526 125.537 716.306 125.212 716.156 124.853C716.007 124.495 715.93 124.11 715.93 123.722C715.93 123.333 716.007 122.948 716.157 122.59C716.306 122.232 716.526 121.906 716.802 121.633C717.079 121.36 717.407 121.145 717.767 121C718.128 120.855 718.513 120.782 718.902 120.787C719.674 120.797 720.41 121.111 720.953 121.66C721.495 122.209 721.799 122.95 721.799 123.722C721.799 124.494 721.495 125.235 720.953 125.784C720.41 126.333 719.673 126.647 718.901 126.656ZM722.233 116.107H715.57V103.273H722.234L722.233 116.107ZM738.289 102.888H738.284C738.257 101.793 737.356 100.943 736.259 100.928V100.925H728.873V100.93C727.787 100.957 726.958 101.802 726.934 102.889H726.929V126.992H726.933C726.953 128.075 727.798 128.917 728.873 128.959V129.005H736.259C737.39 129.004 738.289 128.122 738.289 126.993V102.888ZM732.609 126.656C732.221 126.661 731.835 126.589 731.475 126.444C731.114 126.298 730.786 126.083 730.51 125.81C730.233 125.537 730.014 125.212 729.864 124.853C729.714 124.495 729.637 124.11 729.637 123.722C729.637 123.333 729.715 122.948 729.864 122.59C730.014 122.232 730.234 121.906 730.51 121.633C730.787 121.36 731.115 121.145 731.475 121C731.835 120.855 732.221 120.782 732.609 120.787C733.381 120.797 734.118 121.111 734.661 121.66C735.203 122.209 735.507 122.95 735.507 123.722C735.507 124.494 735.203 125.235 734.66 125.784C734.118 126.333 733.381 126.647 732.609 126.656ZM735.941 116.107H729.277V103.273H735.941V116.107Z" stroke="url(#paint7_linear_5721_22498)" stroke-width="5.09776" mask="url(#path-28-inside-1_5721_22498)"/>
</g>
</g>
<path d="M582.911 178.792L573.419 184.695L573.419 172.89L582.911 178.792Z" fill="#00D6FF"/>
<path d="M581.982 122.221L570.81 122.587L576.713 112.363L581.982 122.221Z" fill="#00D6FF"/>
<path d="M581.983 238.36L570.811 237.994L576.714 248.218L581.983 238.36Z" fill="#00D6FF"/>
<path d="M867.912 178.792L858.42 184.695L858.42 172.89L867.912 178.792Z" fill="#51F8C5"/>
<path d="M866.983 116.864L855.811 116.498L861.714 126.722L866.983 116.864Z" fill="#51F8C5"/>
<path d="M866.858 243.535L855.686 243.9L861.589 233.677L866.858 243.535Z" fill="#51F8C5"/>
<text fill="#475569" xml:space="preserve" style="white-space: pre" font-family="Helvetica" font-size="18" font-weight="bold" letter-spacing="0em"><tspan x="1093.94" y="41.8285">Policy Engine</tspan></text>
<g filter="url(#filter5_d_5721_22498)">
<rect x="897.002" y="59.8457" width="512" height="250" rx="29.3294" fill="#111214" shape-rendering="crispEdges"/>
<rect x="897.002" y="59.8457" width="512" height="250" rx="29.3294" stroke="white" stroke-width="4.85831" shape-rendering="crispEdges"/>
<text fill="#D09A66" xml:space="preserve" style="white-space: pre" font-family="Source Code Pro" font-size="13.6033" font-weight="600" letter-spacing="-0.03em"><tspan x="920.322" y="109.032">policies:</tspan></text>
<text fill="#D09A66" xml:space="preserve" style="white-space: pre" font-family="Source Code Pro" font-size="13.6033" font-weight="600" letter-spacing="-0.03em"><tspan x="920.322" y="127.749">- name:</tspan></text>
<text fill="#98C37A" xml:space="preserve" style="white-space: pre" font-family="Source Code Pro" font-size="13.6033" font-weight="600" letter-spacing="-0.03em"><tspan x="979.209" y="127.749">unit-tests</tspan></text>
<text fill="#D09A66" xml:space="preserve" style="white-space: pre" font-family="Source Code Pro" font-size="13.6033" font-weight="600" letter-spacing="-0.03em"><tspan x="920.322" y="146.465">  description:</tspan></text>
<text fill="#98C37A" xml:space="preserve" style="white-space: pre" font-family="Source Code Pro" font-size="13.6033" font-weight="600" letter-spacing="-0.03em"><tspan x="1033.21" y="146.465">&#34;Does the project run unit tests in CI?&#34;</tspan></text>
<text fill="#D09A66" xml:space="preserve" style="white-space: pre" font-family="Source Code Pro" font-size="13.6033" font-weight="600" letter-spacing="-0.03em"><tspan x="920.322" y="165.181">  on:</tspan></text>
<text fill="#98C37A" xml:space="preserve" style="white-space: pre" font-family="Source Code Pro" font-size="13.6033" font-weight="600" letter-spacing="-0.03em"><tspan x="964.209" y="165.181">[all-production-services]</tspan></text>
<text fill="#D09A66" xml:space="preserve" style="white-space: pre" font-family="Source Code Pro" font-size="13.6033" font-weight="600" letter-spacing="-0.03em"><tspan x="920.322" y="183.898">  runPython:</tspan></text>
<g filter="url(#filter6_d_5721_22498)">
<text fill="#C5D5FF" xml:space="preserve" style="white-space: pre" font-family="Source Code Pro" font-size="13.6033" font-weight="600" letter-spacing="-0.03em"><tspan x="1018.21" y="183.898">|-</tspan></text>
</g>
<g filter="url(#filter7_d_5721_22498)">
<text fill="#C5D5FF" xml:space="preserve" style="white-space: pre" font-family="Source Code Pro" font-size="13.6033" font-weight="600" letter-spacing="-0.03em"><tspan x="950.322" y="202.615">from lunar_snippets import Check</tspan></text>
</g>
<g filter="url(#filter8_d_5721_22498)">
<text fill="#C5D5FF" xml:space="preserve" style="white-space: pre" font-family="Source Code Pro" font-size="13.6033" font-weight="600" letter-spacing="-0.03em"><tspan x="966.322" y="227.615">with Check(&#34;unit-tests&#34;, &#34;Ran Unit Tests in CI&#34;) as c:</tspan></text>
</g>
<g filter="url(#filter9_d_5721_22498)">
<text fill="#C5D5FF" xml:space="preserve" style="white-space: pre" font-family="Source Code Pro" font-size="13.6033" font-weight="600" letter-spacing="-0.03em"><tspan x="988.322" y="252.615">c.assert_true(&#34;.unt_tests.run&#34;, &#34;No unit tests were </tspan><tspan x="988.322" y="270.105">detected in CI&#34;)</tspan></text>
</g>
</g>
<defs>
<filter id="filter0_d_5721_22498" x="17.5368" y="49.3522" width="536.874" height="274.874" filterUnits="userSpaceOnUse" color-interpolation-filters="sRGB">
<feFlood flood-opacity="0" result="BackgroundImageFix"/>
<feColorMatrix in="SourceAlpha" type="matrix" values="0 0 0 0 0 0 0 0 0 0 0 0 0 0 0 0 0 0 127 0" result="hardAlpha"/>
<feOffset dx="0.971662" dy="1.94332"/>
<feGaussianBlur stdDeviation="5.00406"/>
<feComposite in2="hardAlpha" operator="out"/>
<feColorMatrix type="matrix" values="0 0 0 0 0 0 0 0 0 0 0 0 0 0 0 0 0 0 0.25 0"/>
<feBlend mode="normal" in2="BackgroundImageFix" result="effect1_dropShadow_5721_22498"/>
<feBlend mode="normal" in="SourceGraphic" in2="effect1_dropShadow_5721_22498" result="shape"/>
</filter>
<filter id="filter1_d_5721_22498" x="132.547" y="247.741" width="21.5672" height="23.7078" filterUnits="userSpaceOnUse" color-interpolation-filters="sRGB">
<feFlood flood-opacity="0" result="BackgroundImageFix"/>
<feColorMatrix in="SourceAlpha" type="matrix" values="0 0 0 0 0 0 0 0 0 0 0 0 0 0 0 0 0 0 127 0" result="hardAlpha"/>
<feOffset/>
<feGaussianBlur stdDeviation="2.52632"/>
<feComposite in2="hardAlpha" operator="out"/>
<feColorMatrix type="matrix" values="0 0 0 0 0.67762 0 0 0 0 0.948167 0 0 0 0 1 0 0 0 1 0"/>
<feBlend mode="difference" in2="BackgroundImageFix" result="effect1_dropShadow_5721_22498"/>
<feBlend mode="normal" in="SourceGraphic" in2="effect1_dropShadow_5721_22498" result="shape"/>
</filter>
<filter id="filter2_d_5721_22498" x="79.1612" y="266.649" width="287.78" height="22.1844" filterUnits="userSpaceOnUse" color-interpolation-filters="sRGB">
<feFlood flood-opacity="0" result="BackgroundImageFix"/>
<feColorMatrix in="SourceAlpha" type="matrix" values="0 0 0 0 0 0 0 0 0 0 0 0 0 0 0 0 0 0 127 0" result="hardAlpha"/>
<feOffset/>
<feGaussianBlur stdDeviation="2.52632"/>
<feComposite in2="hardAlpha" operator="out"/>
<feColorMatrix type="matrix" values="0 0 0 0 0.67762 0 0 0 0 0.948167 0 0 0 0 1 0 0 0 1 0"/>
<feBlend mode="difference" in2="BackgroundImageFix" result="effect1_dropShadow_5721_22498"/>
<feBlend mode="normal" in="SourceGraphic" in2="effect1_dropShadow_5721_22498" result="shape"/>
</filter>
<filter id="filter3_d_5721_22498" x="613.122" y="102.705" width="213.24" height="156.24" filterUnits="userSpaceOnUse" color-interpolation-filters="sRGB">
<feFlood flood-opacity="0" result="BackgroundImageFix"/>
<feColorMatrix in="SourceAlpha" type="matrix" values="0 0 0 0 0 0 0 0 0 0 0 0 0 0 0 0 0 0 127 0" result="hardAlpha"/>
<feOffset dx="0.739824" dy="1.47965"/>
<feGaussianBlur stdDeviation="3.8101"/>
<feComposite in2="hardAlpha" operator="out"/>
<feColorMatrix type="matrix" values="0 0 0 0 0 0 0 0 0 0 0 0 0 0 0 0 0 0 0.25 0"/>
<feBlend mode="normal" in2="BackgroundImageFix" result="effect1_dropShadow_5721_22498"/>
<feBlend mode="normal" in="SourceGraphic" in2="effect1_dropShadow_5721_22498" result="shape"/>
</filter>
<filter id="filter4_d_5721_22498" x="688.724" y="90.1345" width="60.3549" height="49.6606" filterUnits="userSpaceOnUse" color-interpolation-filters="sRGB">
<feFlood flood-opacity="0" result="BackgroundImageFix"/>
<feColorMatrix in="SourceAlpha" type="matrix" values="0 0 0 0 0 0 0 0 0 0 0 0 0 0 0 0 0 0 127 0" result="hardAlpha"/>
<feMorphology radius="2.54888" operator="dilate" in="SourceAlpha" result="effect1_dropShadow_5721_22498"/>
<feOffset/>
<feGaussianBlur stdDeviation="4.12069"/>
<feComposite in2="hardAlpha" operator="out"/>
<feColorMatrix type="matrix" values="0 0 0 0 0 0 0 0 0 0 0 0 0 0 0 0 0 0 0.05 0"/>
<feBlend mode="normal" in2="BackgroundImageFix" result="effect1_dropShadow_5721_22498"/>
<feBlend mode="normal" in="SourceGraphic" in2="effect1_dropShadow_5721_22498" result="shape"/>
</filter>
<filter id="filter5_d_5721_22498" x="885.537" y="49.3522" width="536.874" height="274.874" filterUnits="userSpaceOnUse" color-interpolation-filters="sRGB">
<feFlood flood-opacity="0" result="BackgroundImageFix"/>
<feColorMatrix in="SourceAlpha" type="matrix" values="0 0 0 0 0 0 0 0 0 0 0 0 0 0 0 0 0 0 127 0" result="hardAlpha"/>
<feOffset dx="0.971662" dy="1.94332"/>
<feGaussianBlur stdDeviation="5.00406"/>
<feComposite in2="hardAlpha" operator="out"/>
<feColorMatrix type="matrix" values="0 0 0 0 0 0 0 0 0 0 0 0 0 0 0 0 0 0 0.25 0"/>
<feBlend mode="normal" in2="BackgroundImageFix" result="effect1_dropShadow_5721_22498"/>
<feBlend mode="normal" in="SourceGraphic" in2="effect1_dropShadow_5721_22498" result="shape"/>
</filter>
<filter id="filter6_d_5721_22498" x="1016.54" y="168.665" width="21.5672" height="23.7078" filterUnits="userSpaceOnUse" color-interpolation-filters="sRGB">
<feFlood flood-opacity="0" result="BackgroundImageFix"/>
<feColorMatrix in="SourceAlpha" type="matrix" values="0 0 0 0 0 0 0 0 0 0 0 0 0 0 0 0 0 0 127 0" result="hardAlpha"/>
<feOffset/>
<feGaussianBlur stdDeviation="2.52632"/>
<feComposite in2="hardAlpha" operator="out"/>
<feColorMatrix type="matrix" values="0 0 0 0 0.67762 0 0 0 0 0.948167 0 0 0 0 1 0 0 0 1 0"/>
<feBlend mode="difference" in2="BackgroundImageFix" result="effect1_dropShadow_5721_22498"/>
<feBlend mode="normal" in="SourceGraphic" in2="effect1_dropShadow_5721_22498" result="shape"/>
</filter>
<filter id="filter7_d_5721_22498" x="946.522" y="187.572" width="256.948" height="22.7557" filterUnits="userSpaceOnUse" color-interpolation-filters="sRGB">
<feFlood flood-opacity="0" result="BackgroundImageFix"/>
<feColorMatrix in="SourceAlpha" type="matrix" values="0 0 0 0 0 0 0 0 0 0 0 0 0 0 0 0 0 0 127 0" result="hardAlpha"/>
<feOffset/>
<feGaussianBlur stdDeviation="2.52632"/>
<feComposite in2="hardAlpha" operator="out"/>
<feColorMatrix type="matrix" values="0 0 0 0 0.67762 0 0 0 0 0.948167 0 0 0 0 1 0 0 0 1 0"/>
<feBlend mode="difference" in2="BackgroundImageFix" result="effect1_dropShadow_5721_22498"/>
<feBlend mode="normal" in="SourceGraphic" in2="effect1_dropShadow_5721_22498" result="shape"/>
</filter>
<filter id="filter8_d_5721_22498" x="961.352" y="212.572" width="426.124" height="23.0418" filterUnits="userSpaceOnUse" color-interpolation-filters="sRGB">
<feFlood flood-opacity="0" result="BackgroundImageFix"/>
<feColorMatrix in="SourceAlpha" type="matrix" values="0 0 0 0 0 0 0 0 0 0 0 0 0 0 0 0 0 0 127 0" result="hardAlpha"/>
<feOffset/>
<feGaussianBlur stdDeviation="2.52632"/>
<feComposite in2="hardAlpha" operator="out"/>
<feColorMatrix type="matrix" values="0 0 0 0 0.67762 0 0 0 0 0.948167 0 0 0 0 1 0 0 0 1 0"/>
<feBlend mode="difference" in2="BackgroundImageFix" result="effect1_dropShadow_5721_22498"/>
<feBlend mode="normal" in="SourceGraphic" in2="effect1_dropShadow_5721_22498" result="shape"/>
</filter>
<filter id="filter9_d_5721_22498" x="983.99" y="237.572" width="404.185" height="39.5252" filterUnits="userSpaceOnUse" color-interpolation-filters="sRGB">
<feFlood flood-opacity="0" result="BackgroundImageFix"/>
<feColorMatrix in="SourceAlpha" type="matrix" values="0 0 0 0 0 0 0 0 0 0 0 0 0 0 0 0 0 0 127 0" result="hardAlpha"/>
<feOffset/>
<feGaussianBlur stdDeviation="2.52632"/>
<feComposite in2="hardAlpha" operator="out"/>
<feColorMatrix type="matrix" values="0 0 0 0 0.67762 0 0 0 0 0.948167 0 0 0 0 1 0 0 0 1 0"/>
<feBlend mode="difference" in2="BackgroundImageFix" result="effect1_dropShadow_5721_22498"/>
<feBlend mode="normal" in="SourceGraphic" in2="effect1_dropShadow_5721_22498" result="shape"/>
</filter>
<linearGradient id="paint0_linear_5721_22498" x1="123.873" y1="136.144" x2="720.873" y2="136.144" gradientUnits="userSpaceOnUse">
<stop stop-color="#CDF4FD" stop-opacity="0.5"/>
<stop offset="1" stop-color="#00D6FF"/>
</linearGradient>
<linearGradient id="paint1_linear_5721_22498" x1="123.873" y1="224.351" x2="720.873" y2="224.351" gradientUnits="userSpaceOnUse">
<stop stop-color="#CDF4FD" stop-opacity="0.5"/>
<stop offset="1" stop-color="#00D6FF"/>
</linearGradient>
<linearGradient id="paint2_linear_5721_22498" x1="123.873" y1="103.542" x2="720.873" y2="103.542" gradientUnits="userSpaceOnUse">
<stop stop-color="#CDF4FD"/>
<stop offset="1" stop-color="#00D6FF"/>
</linearGradient>
<linearGradient id="paint3_linear_5721_22498" x1="1312.87" y1="136.144" x2="715.873" y2="136.144" gradientUnits="userSpaceOnUse">
<stop stop-color="#32F8B9" stop-opacity="0.35"/>
<stop offset="1" stop-color="#32F8B9"/>
</linearGradient>
<linearGradient id="paint4_linear_5721_22498" x1="1312.87" y1="224.351" x2="715.873" y2="224.351" gradientUnits="userSpaceOnUse">
<stop stop-color="#32F8B9" stop-opacity="0.35"/>
<stop offset="1" stop-color="#32F8B9"/>
</linearGradient>
<linearGradient id="paint5_linear_5721_22498" x1="1312.87" y1="178.292" x2="712.373" y2="178.292" gradientUnits="userSpaceOnUse">
<stop stop-color="#32F8B9" stop-opacity="0.35"/>
<stop offset="1" stop-color="#32F8B9"/>
</linearGradient>
<linearGradient id="paint6_linear_5721_22498" x1="719.002" y1="110.846" x2="719.002" y2="247.846" gradientUnits="userSpaceOnUse">
<stop stop-color="#02D7FD"/>
<stop offset="1" stop-color="#32F7BA"/>
</linearGradient>
<linearGradient id="paint7_linear_5721_22498" x1="699.515" y1="114.965" x2="738.289" y2="114.965" gradientUnits="userSpaceOnUse">
<stop stop-color="#00D6FF"/>
<stop offset="1" stop-color="#32F8B9"/>
</linearGradient>
<clipPath id="clip0_5721_22498">
<rect x="693.373" y="95.6504" width="51.2571" height="38.6286" rx="6.68501" fill="white"/>
</clipPath>
</defs>
</svg>
