<svg width="46" height="45" viewBox="0 0 46 45" fill="none" xmlns="http://www.w3.org/2000/svg">
  <path d="M9.70792 21.4337L36.2464 9.36447M36.2464 9.36447L31.2848 7.49524M36.2464 9.36447L34.4002 14.326M37.4233 37.4952H31.6541V21.3414C31.6541 21.0354 31.7756 20.7419 31.992 20.5255C32.2084 20.3091 32.5019 20.1875 32.8079 20.1875H36.2695C36.5755 20.1875 36.869 20.3091 37.0853 20.5255C37.3017 20.7419 37.4233 21.0354 37.4233 21.3414V37.4952ZM25.8848 37.4952H20.1156V24.8029C20.1156 24.4969 20.2372 24.2034 20.4536 23.987C20.67 23.7707 20.9634 23.6491 21.2695 23.6491H24.731C25.037 23.6491 25.3305 23.7707 25.5469 23.987C25.7633 24.2034 25.8848 24.4969 25.8848 24.8029V37.4952ZM14.3464 37.4952H8.57715V28.2645C8.57715 27.9585 8.69871 27.665 8.9151 27.4486C9.13149 27.2322 9.42498 27.1106 9.73099 27.1106H13.1925C13.4986 27.1106 13.792 27.2322 14.0084 27.4486C14.2248 27.665 14.3464 27.9585 14.3464 28.2645V37.4952Z" stroke="#2D7E5D" stroke-width="3" stroke-linecap="round" stroke-linejoin="round"/>
</svg>
