<svg width="64" height="65" viewBox="0 0 64 65" fill="none" xmlns="http://www.w3.org/2000/svg">
<g id="ic:outline-handshake">
<path id="Vector" d="M32.4129 47.5236C32.0736 47.8628 31.4706 47.9193 31.0748 47.5236C30.8982 47.3457 30.7992 47.1052 30.7992 46.8545C30.7992 46.6039 30.8982 46.3634 31.0748 46.1855L37.4636 39.7967L34.8063 37.1395L28.4175 43.5282C28.0594 43.9052 27.4564 43.8863 27.0794 43.5282C26.9029 43.3503 26.8038 43.1098 26.8038 42.8592C26.8038 42.6086 26.9029 42.3681 27.0794 42.1902L33.4682 35.8014L30.8109 33.1441L24.4222 39.5329C24.0829 39.8721 23.4799 39.9287 23.0841 39.5329C22.9116 39.3529 22.8152 39.1132 22.8152 38.8639C22.8152 38.6145 22.9116 38.3748 23.0841 38.1948L29.4729 31.806L26.7968 29.1488L20.408 35.5375C20.0687 35.8768 19.4657 35.9333 19.0699 35.5375C18.8974 35.3575 18.801 35.1179 18.801 34.8685C18.801 34.6192 18.8974 34.3795 19.0699 34.1995L27.3244 25.9449L30.8486 29.4503C32.639 31.2407 35.7297 31.2218 37.5201 29.4503C39.367 27.6034 39.367 24.6257 37.5201 22.7788L34.0148 19.2735L34.5424 18.7458C36.0124 17.2758 38.4059 17.2758 39.8759 18.7458L47.8665 26.7365C49.3365 28.2065 49.3365 30.5999 47.8665 32.0699L32.4129 47.5236ZM50.5238 34.746C51.9357 33.3301 52.7285 31.4121 52.7285 29.4126C52.7285 27.4131 51.9357 25.4951 50.5238 24.0792L42.5331 16.0885C41.1172 14.6767 39.1993 13.8838 37.1997 13.8838C35.2002 13.8838 33.2822 14.6767 31.8663 16.0885L31.3386 16.6162L30.8109 16.0885C29.395 14.6767 27.4771 13.8838 25.4775 13.8838C23.478 13.8838 21.56 14.6767 20.1441 16.0885L13.4727 22.76C12.1977 24.0306 11.4206 25.7161 11.2823 27.5107C11.144 29.3054 11.6536 31.0901 12.7188 32.541L15.4515 29.8084C15.0872 29.0971 14.9584 28.2883 15.0837 27.4991C15.2091 26.7098 15.582 25.9807 16.1488 25.4173L22.8203 18.7458C24.2902 17.2758 26.6837 17.2758 28.1537 18.7458L34.8628 25.455C35.2021 25.7942 35.2586 26.3973 34.8628 26.793C34.4671 27.1888 33.864 27.1322 33.5248 26.793L27.3244 20.6115L16.3938 31.5234C14.5469 33.3514 14.5469 36.3479 16.3938 38.1948C17.1288 38.9298 18.0711 39.3821 19.0699 39.514C19.2019 40.5274 19.6653 41.4688 20.3879 42.1914C21.1105 42.914 22.0519 43.3774 23.0653 43.5094C23.1972 44.5228 23.6606 45.4641 24.3832 46.1867C25.1059 46.9094 26.0472 47.3728 27.0606 47.5047C27.1925 48.5224 27.6448 49.4459 28.3798 50.1809C29.2656 51.0666 30.4529 51.5566 31.7156 51.5566C32.9782 51.5566 34.1655 51.0666 35.0513 50.1809L50.5238 34.746Z" fill="#2D7E5D"/>
</g>
</svg>
