<svg width="369" height="247" viewBox="0 0 369 247" fill="none" xmlns="http://www.w3.org/2000/svg">
<g clip-path="url(#clip0_5634_6091)">
<rect x="0.123291" y="0.919922" width="368" height="245.333" rx="24" fill="#E8F7FE"/>
<path d="M260.164 58.3438H121.28L133.379 49.0854L148.165 44.6767L156.903 40.7089L171.445 37.8432L176.485 28.144L179.083 18.665L187.911 21.5309L210.764 26.6009C220.485 26.634 220.268 34.2016 230.591 40.7089L234.197 44.6767C250.083 50.6284 257.764 53.7208 260.164 58.3438Z" fill="#9BDBF9"/>
<rect x="0.123291" y="58.3438" width="368" height="187.909" fill="#8AD3F3"/>
<path d="M111.29 58.3438H236.976L224.878 49.0854L210.091 44.6767L201.354 40.7089V33.6549L190.6 23.0739L179.174 18.665L175.141 23.0739L160.355 33.6549C150.634 33.688 145.137 34.2016 134.814 40.7089L124.06 44.6767C116.345 50.7674 113.69 53.7208 111.29 58.3438Z" fill="#F9FDFF"/>
<path d="M260.164 58.4395H237.06L219.316 63.9165L200.508 79.4269L189.833 134.575L176.172 226.488L178.968 238.121L183.207 239.121L204.042 219.372L215.468 207.979L241.009 199.624L260.164 177.596L271.927 162.405V149.492L284.025 123.667L292.762 96.3227L284.025 84.1697L271.927 73.5358L260.164 58.4395Z" fill="#287AA3"/>
<path d="M111.29 58.3437H236.976V106.196L221.517 120.628L216.813 145.694L201.354 169.409L190.6 217.008L179.031 238.12L167.076 225.448L128.765 200.382C119.044 200.234 104.569 161.645 80.3723 145.694L72.3068 97.0815C64.5919 69.682 99.1917 65.1797 111.29 58.3437Z" fill="#389BC9"/>
<path d="M200 101.256L237.079 58.4648V106.064L221.347 120.788L216.884 145.151L201.487 169.234L190.664 216.77L178.949 238.079L167.345 225.849L160.763 221.31L167.345 185.627L156.792 152.957L174.075 157.553V120.788L184.242 92.0647L200 101.256Z" fill="#2B88B8"/>
<path d="M117.067 80.9828C116.035 81.9271 114.716 82.3992 113.109 82.3992C111.12 82.3992 109.556 81.7614 108.418 80.4857C107.28 79.2037 106.711 77.4464 106.711 75.2139C106.711 72.8 107.358 70.9396 108.653 69.6326C109.778 68.4945 111.211 67.9254 112.949 67.9254C115.275 67.9254 116.976 68.6883 118.052 70.2142C118.646 71.0709 118.965 71.9308 119.009 72.7938H116.12C115.932 72.1309 115.691 71.6306 115.397 71.2929C114.872 70.6926 114.093 70.3924 113.062 70.3924C112.011 70.3924 111.182 70.8176 110.576 71.6681C109.969 72.5124 109.666 73.7099 109.666 75.2608C109.666 76.8117 109.985 77.9748 110.623 78.7503C111.267 79.5195 112.083 79.9041 113.071 79.9041C114.084 79.9041 114.856 79.5726 115.388 78.9098C115.682 78.5533 115.926 78.0186 116.12 77.3057H118.981C118.73 78.8128 118.093 80.0385 117.067 80.9828ZM120.393 68.188H123.263V82.0146H120.393V68.188Z" fill="white"/>
<path d="M178.417 209.477C177.381 210.425 176.057 210.899 174.444 210.899C172.448 210.899 170.879 210.258 169.737 208.978C168.594 207.691 168.023 205.928 168.023 203.687C168.023 201.264 168.673 199.397 169.972 198.085C171.102 196.943 172.539 196.372 174.284 196.372C176.619 196.372 178.326 197.138 179.406 198.669C180.002 199.529 180.322 200.392 180.366 201.258H177.466C177.278 200.593 177.036 200.091 176.741 199.752C176.214 199.149 175.433 198.848 174.397 198.848C173.342 198.848 172.511 199.275 171.902 200.128C171.293 200.976 170.989 202.178 170.989 203.734C170.989 205.291 171.309 206.458 171.949 207.236C172.596 208.008 173.415 208.394 174.406 208.394C175.423 208.394 176.198 208.062 176.732 207.396C177.027 207.039 177.272 206.502 177.466 205.787H180.338C180.087 207.299 179.446 208.529 178.417 209.477ZM187.959 210.513H181.981V196.635H187.959C188.819 196.648 189.535 196.748 190.106 196.937C191.079 197.257 191.866 197.844 192.469 198.697C192.952 199.388 193.282 200.135 193.457 200.938C193.633 201.741 193.721 202.507 193.721 203.235C193.721 205.08 193.351 206.643 192.61 207.924C191.606 209.65 190.056 210.513 187.959 210.513ZM190.115 200.175C189.67 199.422 188.788 199.046 187.47 199.046H184.796V208.103H187.47C188.838 208.103 189.792 207.428 190.332 206.078C190.627 205.338 190.774 204.456 190.774 203.433C190.774 202.021 190.555 200.935 190.115 200.175Z" fill="white"/>
<path d="M156.568 76.3701C155.923 76.96 155.099 77.2549 154.095 77.2549C152.853 77.2549 151.876 76.8564 151.165 76.0596C150.455 75.2588 150.099 74.1611 150.099 72.7666C150.099 71.2588 150.503 70.0967 151.312 69.2803C152.015 68.5693 152.91 68.2139 153.996 68.2139C155.449 68.2139 156.511 68.6904 157.183 69.6436C157.554 70.1787 157.753 70.7158 157.781 71.2549H155.976C155.859 70.8408 155.708 70.5283 155.525 70.3174C155.197 69.9424 154.71 69.7549 154.066 69.7549C153.41 69.7549 152.892 70.0205 152.513 70.5518C152.134 71.0791 151.945 71.8271 151.945 72.7959C151.945 73.7646 152.144 74.4912 152.542 74.9756C152.945 75.4561 153.455 75.6963 154.072 75.6963C154.705 75.6963 155.187 75.4893 155.519 75.0752C155.703 74.8525 155.855 74.5186 155.976 74.0732H157.763C157.607 75.0146 157.208 75.7803 156.568 76.3701ZM163.977 71.4365C164.516 72.1123 164.786 72.9111 164.786 73.833C164.786 74.7705 164.516 75.5732 163.977 76.2412C163.438 76.9053 162.62 77.2373 161.522 77.2373C160.425 77.2373 159.606 76.9053 159.067 76.2412C158.528 75.5732 158.259 74.7705 158.259 73.833C158.259 72.9111 158.528 72.1123 159.067 71.4365C159.606 70.7607 160.425 70.4229 161.522 70.4229C162.62 70.4229 163.438 70.7607 163.977 71.4365ZM161.516 71.835C161.028 71.835 160.651 72.0088 160.386 72.3564C160.124 72.7002 159.993 73.1924 159.993 73.833C159.993 74.4736 160.124 74.9678 160.386 75.3154C160.651 75.6631 161.028 75.8369 161.516 75.8369C162.005 75.8369 162.38 75.6631 162.641 75.3154C162.903 74.9678 163.034 74.4736 163.034 73.833C163.034 73.1924 162.903 72.7002 162.641 72.3564C162.38 72.0088 162.005 71.835 161.516 71.835ZM168.633 71.8643C168.067 71.8643 167.678 72.1045 167.467 72.585C167.358 72.8389 167.303 73.1631 167.303 73.5576V77.0146H165.639V70.6396H167.25V71.5713C167.465 71.2432 167.668 71.0068 167.86 70.8623C168.203 70.6045 168.639 70.4756 169.166 70.4756C169.826 70.4756 170.365 70.6494 170.783 70.9971C171.205 71.3408 171.416 71.9131 171.416 72.7139V77.0146H169.705V73.1299C169.705 72.7939 169.66 72.5361 169.57 72.3564C169.406 72.0283 169.094 71.8643 168.633 71.8643ZM171.976 70.6279H173.851L175.181 75.3389L176.541 70.6279H178.334L176.031 77.0146H174.267L171.976 70.6279ZM184.39 75.1396C184.347 75.5186 184.149 75.9033 183.798 76.2939C183.251 76.915 182.485 77.2256 181.501 77.2256C180.688 77.2256 179.972 76.9639 179.35 76.4404C178.729 75.917 178.419 75.0654 178.419 73.8857C178.419 72.7803 178.698 71.9326 179.257 71.3428C179.819 70.7529 180.548 70.458 181.442 70.458C181.974 70.458 182.452 70.5576 182.878 70.7568C183.304 70.9561 183.655 71.2705 183.933 71.7002C184.183 72.0791 184.345 72.5186 184.419 73.0186C184.462 73.3115 184.479 73.7334 184.472 74.2842H180.1C180.124 74.9248 180.325 75.374 180.704 75.6318C180.934 75.792 181.212 75.8721 181.536 75.8721C181.88 75.8721 182.159 75.7744 182.374 75.5791C182.491 75.4736 182.595 75.3271 182.684 75.1396H184.39ZM182.737 73.1826C182.71 72.7412 182.575 72.4072 182.333 72.1807C182.095 71.9502 181.798 71.835 181.442 71.835C181.056 71.835 180.755 71.9561 180.54 72.1982C180.329 72.4404 180.196 72.7686 180.141 73.1826H182.737ZM188.248 71.8643C187.682 71.8643 187.293 72.1045 187.082 72.585C186.973 72.8389 186.918 73.1631 186.918 73.5576V77.0146H185.254V70.6396H186.865V71.5713C187.08 71.2432 187.283 71.0068 187.475 70.8623C187.819 70.6045 188.254 70.4756 188.781 70.4756C189.442 70.4756 189.981 70.6494 190.399 70.9971C190.821 71.3408 191.031 71.9131 191.031 72.7139V77.0146H189.321V73.1299C189.321 72.7939 189.276 72.5361 189.186 72.3564C189.022 72.0283 188.709 71.8643 188.248 71.8643ZM195.142 75.8252V77.0732L194.351 77.1025C193.562 77.1299 193.023 76.9932 192.734 76.6924C192.546 76.501 192.453 76.2061 192.453 75.8076V71.876H191.562V70.6865H192.453V68.9053H194.105V70.6865H195.142V71.876H194.105V75.251C194.105 75.5127 194.138 75.6768 194.205 75.7432C194.271 75.8057 194.474 75.8369 194.814 75.8369C194.865 75.8369 194.918 75.8369 194.972 75.8369C195.031 75.833 195.088 75.8291 195.142 75.8252ZM197.571 70.6279V77.0146H195.878V70.6279H197.571ZM197.571 68.3252V69.8662H195.878V68.3252H197.571ZM204.16 71.4365C204.7 72.1123 204.969 72.9111 204.969 73.833C204.969 74.7705 204.7 75.5732 204.16 76.2412C203.621 76.9053 202.803 77.2373 201.705 77.2373C200.608 77.2373 199.789 76.9053 199.25 76.2412C198.711 75.5732 198.442 74.7705 198.442 73.833C198.442 72.9111 198.711 72.1123 199.25 71.4365C199.789 70.7607 200.608 70.4229 201.705 70.4229C202.803 70.4229 203.621 70.7607 204.16 71.4365ZM201.7 71.835C201.211 71.835 200.834 72.0088 200.569 72.3564C200.307 72.7002 200.176 73.1924 200.176 73.833C200.176 74.4736 200.307 74.9678 200.569 75.3154C200.834 75.6631 201.211 75.8369 201.7 75.8369C202.188 75.8369 202.563 75.6631 202.825 75.3154C203.086 74.9678 203.217 74.4736 203.217 73.833C203.217 73.1924 203.086 72.7002 202.825 72.3564C202.563 72.0088 202.188 71.835 201.7 71.835ZM208.816 71.8643C208.25 71.8643 207.861 72.1045 207.65 72.585C207.541 72.8389 207.486 73.1631 207.486 73.5576V77.0146H205.822V70.6396H207.433V71.5713C207.648 71.2432 207.851 71.0068 208.043 70.8623C208.386 70.6045 208.822 70.4756 209.349 70.4756C210.009 70.4756 210.549 70.6494 210.966 70.9971C211.388 71.3408 211.599 71.9131 211.599 72.7139V77.0146H209.888V73.1299C209.888 72.7939 209.843 72.5361 209.754 72.3564C209.59 72.0283 209.277 71.8643 208.816 71.8643ZM217.187 70.9209C217.687 71.2412 217.974 71.792 218.048 72.5732H216.378C216.355 72.3584 216.294 72.1885 216.196 72.0635C216.013 71.8369 215.7 71.7236 215.259 71.7236C214.896 71.7236 214.636 71.7803 214.48 71.8936C214.327 72.0068 214.251 72.1396 214.251 72.292C214.251 72.4834 214.333 72.6221 214.497 72.708C214.661 72.7979 215.241 72.9521 216.237 73.1709C216.901 73.3271 217.399 73.5635 217.731 73.8799C218.06 74.2002 218.224 74.6006 218.224 75.0811C218.224 75.7139 217.987 76.2314 217.515 76.6338C217.046 77.0322 216.319 77.2314 215.335 77.2314C214.331 77.2314 213.589 77.0205 213.108 76.5986C212.632 76.1729 212.394 75.6318 212.394 74.9756H214.087C214.122 75.2725 214.198 75.4834 214.315 75.6084C214.523 75.8311 214.905 75.9424 215.464 75.9424C215.792 75.9424 216.052 75.8936 216.243 75.7959C216.439 75.6982 216.536 75.5518 216.536 75.3564C216.536 75.1689 216.458 75.0264 216.302 74.9287C216.146 74.8311 215.565 74.6631 214.562 74.4248C213.839 74.2451 213.329 74.0205 213.032 73.751C212.735 73.4854 212.587 73.1025 212.587 72.6025C212.587 72.0127 212.817 71.5068 213.278 71.085C213.743 70.6592 214.396 70.4463 215.235 70.4463C216.032 70.4463 216.683 70.6045 217.187 70.9209Z" fill="white"/>
<path d="M206.592 99.9458L207.749 100.946L206.06 102.901L211.437 107.548L210.25 108.922L204.872 104.275L203.175 106.239L202.018 105.239L206.592 99.9458ZM215.071 100.477C215.329 100.757 215.491 101.158 215.557 101.679C215.669 102.499 215.404 103.281 214.76 104.026C214.229 104.641 213.562 105.012 212.76 105.14C211.958 105.267 211.11 104.946 210.218 104.174C209.381 103.451 208.923 102.686 208.842 101.878C208.763 101.066 209.016 100.322 209.601 99.6454C209.949 99.2435 210.337 98.9465 210.766 98.7547C211.195 98.5628 211.663 98.5024 212.169 98.5735C212.62 98.6321 213.058 98.7968 213.485 99.0676C213.735 99.2267 214.065 99.4892 214.477 99.8553L211.619 103.162C212.119 103.564 212.59 103.705 213.033 103.587C213.305 103.517 213.547 103.36 213.759 103.115C213.984 102.855 214.092 102.579 214.085 102.289C214.082 102.131 214.039 101.957 213.956 101.767L215.071 100.477ZM212.509 100.447C212.158 100.179 211.817 100.063 211.487 100.098C211.157 100.128 210.875 100.277 210.643 100.546C210.39 100.838 210.285 101.145 210.328 101.466C210.373 101.784 210.535 102.099 210.812 102.411L212.509 100.447ZM215.314 93.7435C215.883 93.5747 216.487 93.7176 217.127 94.1722L216.035 95.4357C215.857 95.313 215.689 95.2477 215.531 95.2398C215.239 95.2306 214.949 95.393 214.66 95.7269C214.423 96.0018 214.296 96.2354 214.279 96.4277C214.266 96.617 214.316 96.7615 214.431 96.8611C214.576 96.9862 214.735 97.0148 214.907 96.9469C215.082 96.8815 215.578 96.5435 216.395 95.9329C216.948 95.5326 217.452 95.3103 217.909 95.266C218.366 95.2272 218.776 95.3649 219.139 95.679C219.618 96.0928 219.855 96.6101 219.851 97.2308C219.845 97.8459 219.521 98.5259 218.877 99.2707C218.221 100.03 217.576 100.454 216.943 100.542C216.309 100.624 215.744 100.45 215.247 100.021L216.355 98.7399C216.602 98.9075 216.812 98.9878 216.983 98.9808C217.287 98.9698 217.621 98.7529 217.986 98.3303C218.201 98.082 218.334 97.8536 218.385 97.6449C218.439 97.4333 218.392 97.2636 218.244 97.1359C218.102 97.0133 217.943 96.9792 217.767 97.0335C217.591 97.0879 217.085 97.417 216.248 98.0207C215.64 98.45 215.136 98.6888 214.738 98.7372C214.343 98.7881 213.957 98.6501 213.578 98.3232C213.132 97.9375 212.9 97.4323 212.882 96.8077C212.864 96.1776 213.13 95.5449 213.679 94.9094C214.2 94.3065 214.745 93.9179 215.314 93.7435ZM222.191 93.286L223.135 94.102L222.64 94.7197C222.145 95.3346 221.689 95.653 221.272 95.6751C221.005 95.6918 220.721 95.5699 220.419 95.3093L217.444 92.7385L216.862 93.4124L215.962 92.6346L216.544 91.9608L215.197 90.7961L216.277 89.5459L217.625 90.7106L218.303 89.9259L219.203 90.7037L218.525 91.4884L221.078 93.6952C221.276 93.8663 221.422 93.9485 221.516 93.9416C221.607 93.9323 221.763 93.799 221.985 93.5419C222.018 93.5035 222.053 93.4636 222.089 93.4222C222.124 93.3753 222.158 93.3299 222.191 93.286ZM219.847 88.0498L224.679 92.2259L223.572 93.5071L218.74 89.331L219.847 88.0498ZM218.105 86.5441L219.271 87.5517L218.163 88.8329L216.998 87.8253L218.105 86.5441ZM223.574 85.6283C223.203 86.0569 223.131 86.508 223.357 86.9818C223.477 87.2305 223.687 87.4839 223.985 87.7419L226.601 90.0024L225.513 91.2614L220.689 87.0929L221.743 85.8738L222.448 86.483C222.34 86.1059 222.294 85.7977 222.31 85.5583C222.34 85.1297 222.527 84.7159 222.872 84.3169C223.303 83.8174 223.787 83.5232 224.324 83.4343C224.86 83.3399 225.431 83.5545 226.036 84.0781L229.29 86.8902L228.172 88.1847L225.232 85.6446C224.978 85.4249 224.754 85.2903 224.559 85.2408C224.204 85.1504 223.875 85.2796 223.574 85.6283ZM232.093 85.3586C232.326 85.3222 232.582 85.143 232.86 84.8208C233.253 84.3657 233.364 83.9297 233.193 83.513C233.084 83.2439 232.8 82.9102 232.339 82.5117L232.028 82.2435C232.131 82.5435 232.173 82.8076 232.157 83.0359C232.132 83.4532 231.946 83.8628 231.598 84.2647C231.062 84.8854 230.415 85.1941 229.659 85.1911C228.902 85.1825 228.152 84.8564 227.407 84.2127C226.689 83.592 226.24 82.8922 226.062 82.1131C225.88 81.3315 226.073 80.6126 226.64 79.9565C226.849 79.7142 227.069 79.5348 227.299 79.4184C227.691 79.2208 228.139 79.1743 228.643 79.2789L227.947 78.6774L229.008 77.4494L233.592 81.411C234.216 81.9499 234.595 82.4609 234.73 82.9441C234.962 83.7746 234.636 84.7012 233.752 85.7238C233.219 86.3415 232.662 86.7407 232.082 86.9213C231.503 87.102 230.954 87.0049 230.437 86.6299L231.625 85.2556C231.803 85.3479 231.959 85.3822 232.093 85.3586ZM229.413 83.4144C229.969 83.5954 230.439 83.4643 230.822 83.021C231.078 82.7254 231.183 82.3799 231.137 81.9844C231.089 81.5864 230.821 81.1766 230.333 80.7552C229.875 80.3593 229.442 80.1554 229.034 80.1436C228.629 80.1288 228.285 80.284 228.004 80.6091C227.621 81.0524 227.565 81.5383 227.836 82.0669C227.981 82.3472 228.217 82.6278 228.542 82.9087C228.822 83.1514 229.113 83.3199 229.413 83.4144Z" fill="white"/>
<path d="M94.9556 136.208L95.5612 139.879L87.0396 141.285L86.4341 137.613C86.3547 137.084 86.3439 136.635 86.4016 136.265C86.4997 135.635 86.7803 135.092 87.2434 134.635C87.6184 134.269 88.0437 133.991 88.5192 133.801C88.9947 133.612 89.456 133.481 89.9031 133.407C91.0363 133.22 92.0335 133.289 92.8947 133.614C94.0563 134.056 94.7433 134.921 94.9556 136.208ZM88.3894 135.931C87.9721 136.281 87.8301 136.861 87.9636 137.67L88.2345 139.312L93.796 138.394L93.5252 136.753C93.3866 135.912 92.8757 135.395 91.9924 135.2C91.5077 135.094 90.9512 135.093 90.323 135.196C89.4558 135.339 88.8113 135.584 88.3894 135.931ZM87.8598 127.463C88.4389 126.822 89.1832 126.426 90.0928 126.276C91.0178 126.123 91.8537 126.258 92.6005 126.682C93.3434 127.105 93.8042 127.859 93.9828 128.942C94.1615 130.025 93.967 130.886 93.3996 131.526C92.8282 132.167 92.08 132.563 91.155 132.716C90.2455 132.866 89.4134 132.73 88.6589 132.308C87.9044 131.886 87.4378 131.134 87.2592 130.051C87.0806 128.968 87.2808 128.105 87.8598 127.463ZM88.6534 129.827C88.7329 130.309 88.9658 130.652 89.352 130.858C89.7338 131.06 90.2407 131.109 90.8728 131.005C91.5049 130.9 91.9711 130.691 92.2716 130.376C92.5713 130.057 92.6815 129.657 92.602 129.175C92.5226 128.694 92.29 128.352 91.9044 128.15C91.5188 127.949 91.01 127.9 90.3779 128.004C89.7458 128.109 89.2815 128.318 88.9849 128.632C88.6845 128.947 88.574 129.345 88.6534 129.827ZM88.1548 120.143L88.4332 121.831C88.2032 121.9 88.0042 122.014 87.8364 122.173C87.6125 122.4 87.5327 122.708 87.5969 123.097C87.6884 123.652 88.0266 123.986 88.6115 124.1C88.9222 124.159 89.3203 124.149 89.806 124.069C90.2685 123.993 90.6315 123.877 90.8951 123.723C91.3868 123.44 91.5879 123.027 91.4982 122.483C91.4346 122.098 91.2854 121.841 91.0506 121.714C90.8158 121.586 90.5298 121.533 90.1926 121.553L89.9151 119.87C90.4225 119.826 90.9265 119.929 91.4269 120.179C92.2329 120.577 92.7194 121.282 92.8866 122.296C93.0538 123.31 92.8762 124.105 92.3538 124.682C91.8314 125.259 91.0903 125.627 90.1306 125.785C89.0476 125.964 88.1619 125.839 87.4736 125.41C86.7852 124.981 86.3644 124.302 86.2112 123.373C86.0809 122.583 86.1517 121.908 86.4237 121.349C86.695 120.785 87.272 120.383 88.1548 120.143ZM91.113 112.911L91.441 114.9L88.9959 116.853L89.8195 117.418L91.8025 117.091L92.0695 118.71L83.5768 120.111L83.3098 118.492L87.9001 117.735L85.1913 116.073L84.8546 114.033L87.6287 115.838L91.113 112.911ZM88.2984 107.368C88.6793 107.349 89.091 107.481 89.5336 107.764C90.2354 108.203 90.6664 108.908 90.8266 109.879C90.9589 110.681 90.8173 111.43 90.4019 112.128C89.9865 112.826 89.1969 113.271 88.0329 113.463C86.9422 113.643 86.0604 113.506 85.3875 113.051C84.714 112.592 84.3044 111.921 84.1588 111.038C84.0724 110.514 84.0928 110.026 84.22 109.573C84.3473 109.121 84.6004 108.723 84.9792 108.379C85.3124 108.071 85.7196 107.839 86.2008 107.685C86.4829 107.594 86.8963 107.508 87.441 107.427L88.1524 111.739C88.7806 111.612 89.1911 111.34 89.3838 110.925C89.5043 110.671 89.5382 110.384 89.4855 110.065C89.4295 109.725 89.2877 109.466 89.06 109.286C88.9369 109.187 88.7755 109.109 88.5759 109.051L88.2984 107.368ZM86.6364 109.317C86.2053 109.416 85.8977 109.603 85.7136 109.879C85.525 110.152 85.4596 110.463 85.5174 110.814C85.5804 111.196 85.7488 111.473 86.0227 111.645C86.296 111.814 86.6414 111.892 87.0588 111.878L86.6364 109.317ZM84.7059 103.842C84.8153 104.505 85.1045 104.915 85.5737 105.071C85.8375 105.158 86.2219 105.16 86.7268 105.077L89.7388 104.58L90.0125 106.239L83.7109 107.278L83.4515 105.706L84.55 105.525C84.0879 105.34 83.7642 105.165 83.5789 105.002C83.2698 104.736 83.0746 104.357 82.9932 103.863C82.9881 103.832 82.9859 103.807 82.9866 103.787C82.9828 103.764 82.9768 103.716 82.9685 103.642L84.6567 103.363C84.6623 103.469 84.6698 103.563 84.6793 103.645C84.6888 103.726 84.6977 103.792 84.7059 103.842ZM88.9849 100.009L89.2557 101.651L84.174 102.489L84.3256 103.409L83.1636 103.6L83.0148 102.698L82.6102 102.765C81.9395 102.876 81.4159 102.81 81.0394 102.567C80.6872 102.352 80.4437 101.836 80.3089 101.019C80.2924 100.919 80.2794 100.816 80.2699 100.71C80.2605 100.605 80.2504 100.496 80.2397 100.383L81.5809 100.162C81.5898 100.239 81.6003 100.315 81.6123 100.388C81.6206 100.462 81.6333 100.551 81.6504 100.655C81.693 100.913 81.7904 101.059 81.9425 101.094C82.0947 101.128 82.3223 101.116 82.6255 101.058L82.7412 101.039L82.5628 99.9581L83.7249 99.7664L83.9032 100.847L88.9849 100.009ZM82.102 97.3439L88.3746 96.3093L88.6455 97.9512L82.3728 98.9858L82.102 97.3439ZM81.575 99.1174L80.0718 99.3653L79.8058 97.7524L81.3089 97.5044L81.575 99.1174ZM79.6446 96.4513L79.3729 94.8037L87.8945 93.3981L88.1662 95.0457L79.6446 96.4513ZM84.9473 87.0515C85.3281 87.0323 85.7399 87.1643 86.1825 87.4476C86.8843 87.8861 87.3153 88.591 87.4755 89.5622C87.6078 90.3639 87.4662 91.1137 87.0508 91.8117C86.6354 92.5097 85.8458 92.9547 84.6818 93.1467C83.5911 93.3266 82.7093 93.189 82.0364 92.7338C81.3629 92.2748 80.9533 91.604 80.8077 90.7214C80.7213 90.1973 80.7417 89.7089 80.8689 89.2564C80.9962 88.8039 81.2493 88.4058 81.6281 88.0622C81.9612 87.7539 82.3685 87.5224 82.8497 87.3678C83.1318 87.2778 83.5452 87.1918 84.0899 87.1098L84.8013 91.4226C85.4295 91.2953 85.84 91.0237 86.0327 90.6079C86.1532 90.3544 86.1871 90.0677 86.1343 89.7478C86.0784 89.4086 85.9366 89.149 85.7089 88.9688C85.5858 88.8703 85.4244 88.792 85.2248 88.7339L84.9473 87.0515ZM83.2853 89.0004C82.8542 89.0992 82.5466 89.2865 82.3625 89.5623C82.1738 89.8349 82.1085 90.1466 82.1663 90.4973C82.2293 90.8789 82.3977 91.156 82.6716 91.3285C82.9449 91.4972 83.2903 91.5749 83.7077 91.5614L83.2853 89.0004ZM79.9298 82.5549C80.1645 82.0094 80.6612 81.6365 81.42 81.4361L81.6918 83.0838C81.4836 83.1419 81.3258 83.2293 81.2183 83.346C81.0247 83.564 80.9638 83.8907 81.0356 84.3263C81.0947 84.6847 81.1929 84.9318 81.3301 85.0675C81.4667 85.1994 81.6101 85.2529 81.7604 85.2281C81.9493 85.197 82.0727 85.0935 82.1308 84.9176C82.1928 84.7411 82.2506 84.1437 82.3043 83.1253C82.3504 82.4446 82.5025 81.9148 82.7607 81.5357C83.0233 81.1598 83.3917 80.9327 83.8658 80.8545C84.4901 80.7516 85.0393 80.9005 85.5132 81.3014C85.9826 81.699 86.2974 82.3835 86.4576 83.3547C86.621 84.3453 86.5336 85.1119 86.1956 85.6546C85.853 86.1941 85.358 86.5173 84.7105 86.6241L84.4349 84.9533C84.7221 84.8703 84.9178 84.7608 85.0221 84.6248C85.2081 84.3843 85.2556 83.9885 85.1647 83.4373C85.1113 83.1136 85.0209 82.8652 84.8934 82.6923C84.7652 82.5155 84.6048 82.4429 84.4121 82.4747C84.2271 82.5052 84.0991 82.6055 84.0282 82.7756C83.9573 82.9457 83.886 83.5453 83.8142 84.5746C83.7546 85.3169 83.6159 85.8564 83.3983 86.1932C83.1845 86.5294 82.831 86.7381 82.3376 86.8195C81.7556 86.9155 81.219 86.7704 80.7278 86.3843C80.232 85.9949 79.9158 85.3859 79.7791 84.5573C79.6494 83.771 79.6997 83.1036 79.9298 82.5549Z" fill="white"/>
<path d="M108.37 155.906L107.108 154.575L104.855 156.712L103.621 155.411L109.889 149.468L112.477 152.198C113.074 152.827 113.388 153.482 113.419 154.163C113.451 154.843 113.128 155.505 112.451 156.147C111.711 156.849 111.01 157.157 110.349 157.074C109.688 156.99 109.029 156.6 108.37 155.906ZM110.256 155.281C110.568 155.308 110.886 155.167 111.212 154.858C111.538 154.549 111.689 154.242 111.664 153.938C111.641 153.636 111.484 153.331 111.191 153.022L110.034 151.801L108.188 153.551L109.345 154.771C109.638 155.08 109.942 155.25 110.256 155.281ZM113.058 157.086C113.77 157.019 114.495 157.375 115.234 158.155C115.715 158.662 116.042 159.209 116.215 159.793C116.387 160.378 116.194 160.935 115.635 161.465L113.509 163.481C113.362 163.62 113.186 163.792 112.982 163.997C112.831 164.156 112.746 164.282 112.727 164.376C112.708 164.469 112.718 164.573 112.756 164.687L112.578 164.857L111.328 163.539C111.386 163.413 111.45 163.304 111.519 163.212C111.588 163.12 111.67 163.02 111.767 162.912C111.427 162.917 111.09 162.87 110.755 162.773C110.358 162.655 110.003 162.431 109.692 162.102C109.294 161.683 109.084 161.223 109.061 160.722C109.044 160.221 109.255 159.763 109.694 159.346C110.264 158.806 110.885 158.635 111.557 158.832C111.924 158.941 112.359 159.202 112.862 159.613L113.304 159.977C113.545 160.174 113.732 160.301 113.866 160.357C114.104 160.46 114.3 160.437 114.456 160.29C114.646 160.109 114.714 159.919 114.658 159.719C114.608 159.518 114.462 159.291 114.22 159.036C113.949 158.749 113.686 158.614 113.431 158.629C113.246 158.644 113.05 158.721 112.845 158.862L111.736 157.693C112.166 157.334 112.606 157.132 113.058 157.086ZM110.656 161.075C110.67 161.277 110.754 161.461 110.91 161.625C111.158 161.886 111.461 162.053 111.821 162.126C112.184 162.202 112.572 162.052 112.985 161.676L113.436 161.249C113.315 161.218 113.202 161.178 113.095 161.128C112.994 161.078 112.867 160.997 112.712 160.886L112.403 160.662C112.116 160.45 111.887 160.319 111.717 160.271C111.429 160.188 111.169 160.257 110.937 160.478C110.73 160.674 110.636 160.873 110.656 161.075ZM119.882 166.608L118.705 165.366C118.856 165.179 118.957 164.973 119.007 164.748C119.065 164.435 118.958 164.135 118.687 163.849C118.3 163.44 117.832 163.353 117.285 163.588C116.994 163.712 116.67 163.944 116.313 164.283C115.973 164.605 115.737 164.904 115.605 165.18C115.357 165.69 115.422 166.145 115.801 166.545C116.07 166.828 116.337 166.957 116.603 166.931C116.869 166.905 117.136 166.789 117.404 166.583L118.577 167.82C118.182 168.141 117.707 168.339 117.152 168.413C116.262 168.535 115.463 168.224 114.757 167.478C114.05 166.733 113.751 165.975 113.86 165.204C113.969 164.433 114.376 163.713 115.082 163.044C115.878 162.289 116.682 161.896 117.492 161.865C118.303 161.834 119.032 162.16 119.679 162.843C120.23 163.424 120.55 164.023 120.639 164.638C120.73 165.257 120.478 165.913 119.882 166.608ZM121.488 174.254L120.101 172.791L121.03 169.803L120.031 169.797L118.573 171.18L117.444 169.989L123.69 164.067L124.819 165.258L121.443 168.459L124.617 168.315L126.041 169.816L122.732 169.877L121.488 174.254ZM126.103 170.844C126.814 170.777 127.54 171.133 128.279 171.913C128.76 172.42 129.087 172.966 129.259 173.551C129.432 174.136 129.239 174.693 128.68 175.223L126.554 177.239C126.407 177.378 126.231 177.55 126.026 177.755C125.876 177.914 125.791 178.04 125.772 178.134C125.753 178.227 125.762 178.331 125.801 178.445L125.622 178.615L124.372 177.297C124.431 177.171 124.495 177.062 124.564 176.97C124.632 176.878 124.715 176.778 124.812 176.67C124.472 176.675 124.135 176.628 123.8 176.531C123.403 176.413 123.048 176.189 122.736 175.86C122.338 175.441 122.128 174.981 122.106 174.48C122.089 173.979 122.3 173.521 122.739 173.104C123.309 172.564 123.93 172.393 124.601 172.59C124.969 172.699 125.404 172.96 125.907 173.371L126.349 173.735C126.59 173.932 126.777 174.059 126.911 174.115C127.148 174.218 127.345 174.195 127.501 174.047C127.691 173.867 127.758 173.677 127.703 173.477C127.653 173.276 127.507 173.049 127.265 172.794C126.994 172.507 126.731 172.372 126.476 172.387C126.29 172.402 126.095 172.479 125.89 172.62L124.781 171.451C125.21 171.092 125.651 170.89 126.103 170.844ZM123.7 174.833C123.714 175.035 123.799 175.219 123.955 175.383C124.202 175.644 124.506 175.811 124.866 175.884C125.229 175.96 125.617 175.81 126.03 175.434L126.481 175.007C126.36 174.976 126.247 174.936 126.14 174.886C126.039 174.836 125.911 174.755 125.757 174.643L125.448 174.42C125.161 174.208 124.932 174.077 124.762 174.028C124.474 173.946 124.214 174.015 123.981 174.236C123.775 174.432 123.681 174.631 123.7 174.833ZM126.582 181.254C126.595 181.489 126.748 181.761 127.041 182.07C127.455 182.506 127.878 182.66 128.31 182.531C128.588 182.45 128.949 182.199 129.391 181.78L129.688 181.498C129.38 181.57 129.113 181.586 128.887 181.547C128.474 181.481 128.085 181.255 127.72 180.869C127.155 180.274 126.912 179.6 126.99 178.848C127.074 178.096 127.473 177.381 128.187 176.704C128.876 176.051 129.617 175.674 130.41 175.574C131.205 175.47 131.902 175.734 132.498 176.363C132.719 176.595 132.875 176.832 132.969 177.072C133.126 177.482 133.128 177.932 132.974 178.423L133.642 177.79L134.758 178.968L130.362 183.136C129.764 183.704 129.218 184.03 128.723 184.117C127.874 184.265 126.984 183.849 126.054 182.868C125.493 182.276 125.151 181.683 125.028 181.088C124.906 180.493 125.057 179.957 125.481 179.479L126.731 180.798C126.622 180.966 126.572 181.118 126.582 181.254ZM128.783 178.78C128.547 179.315 128.631 179.795 129.034 180.221C129.303 180.504 129.637 180.643 130.035 180.637C130.435 180.628 130.87 180.402 131.337 179.959C131.777 179.542 132.023 179.131 132.075 178.726C132.13 178.325 132.009 177.968 131.714 177.656C131.311 177.231 130.833 177.127 130.28 177.344C129.986 177.461 129.684 177.667 129.372 177.962C129.103 178.218 128.906 178.49 128.783 178.78ZM136.768 181.088L132.134 185.482L130.969 184.253L135.603 179.859L136.768 181.088ZM138.439 179.503L137.321 180.564L136.156 179.335L137.274 178.274L138.439 179.503ZM138.808 185.036C138.419 184.625 137.977 184.508 137.483 184.686C137.224 184.781 136.951 184.965 136.664 185.236L134.156 187.615L133.011 186.407L137.637 182.021L138.746 183.19L138.069 183.831C138.455 183.761 138.767 183.746 139.003 183.785C139.427 183.858 139.82 184.085 140.183 184.468C140.637 184.947 140.882 185.457 140.917 186C140.958 186.543 140.688 187.089 140.107 187.64L136.986 190.6L135.809 189.358L138.628 186.685C138.871 186.454 139.028 186.244 139.096 186.055C139.221 185.71 139.125 185.371 138.808 185.036ZM138.232 193.54C138.245 193.776 138.398 194.048 138.691 194.357C139.105 194.793 139.528 194.947 139.96 194.817C140.238 194.736 140.598 194.486 141.041 194.067L141.338 193.785C141.03 193.857 140.763 193.873 140.537 193.834C140.124 193.768 139.735 193.542 139.37 193.156C138.805 192.561 138.562 191.887 138.64 191.135C138.724 190.383 139.123 189.668 139.837 188.991C140.526 188.338 141.267 187.961 142.06 187.86C142.855 187.757 143.552 188.02 144.148 188.65C144.369 188.882 144.525 189.118 144.618 189.358C144.776 189.769 144.778 190.219 144.624 190.71L145.291 190.077L146.408 191.255L142.012 195.423C141.414 195.99 140.867 196.317 140.373 196.403C139.524 196.552 138.634 196.136 137.704 195.155C137.142 194.563 136.8 193.969 136.678 193.375C136.556 192.78 136.707 192.244 137.131 191.766L138.381 193.084C138.271 193.253 138.222 193.405 138.232 193.54ZM140.432 191.067C140.197 191.602 140.281 192.082 140.684 192.507C140.953 192.791 141.286 192.93 141.684 192.924C142.085 192.915 142.52 192.689 142.987 192.245C143.427 191.829 143.672 191.418 143.725 191.013C143.78 190.611 143.659 190.254 143.364 189.943C142.96 189.517 142.482 189.414 141.93 189.631C141.636 189.747 141.334 189.954 141.022 190.249C140.753 190.504 140.556 190.777 140.432 191.067Z" fill="white"/>
<path d="M245.44 70.5023L245.376 66.5888L254.011 66.4465L254.08 70.6413C254.082 71.7 253.788 72.4549 253.198 72.9061C252.835 73.1778 252.398 73.3178 251.886 73.3262C251.359 73.3349 250.933 73.2091 250.608 72.9488C250.426 72.8033 250.258 72.5873 250.105 72.3007C249.952 72.7447 249.704 73.0809 249.36 73.3092C249.016 73.5415 248.596 73.6617 248.1 73.6699C247.588 73.6783 247.127 73.557 246.717 73.3059C246.445 73.1463 246.215 72.945 246.027 72.7019C245.812 72.4281 245.662 72.1024 245.577 71.7248C245.493 71.3512 245.447 70.9437 245.44 70.5023ZM249.242 70.3987L249.206 68.2486L246.904 68.2865L246.939 70.4073C246.945 70.7862 247.001 71.0802 247.106 71.2895C247.299 71.6691 247.662 71.8546 248.193 71.8458C248.642 71.8384 248.948 71.6478 249.11 71.274C249.2 71.0655 249.244 70.7737 249.242 70.3987ZM250.903 71.2679C251.047 71.4999 251.301 71.613 251.664 71.607C252.067 71.6004 252.33 71.4398 252.453 71.1252C252.539 70.8542 252.578 70.5098 252.571 70.0918L252.54 68.1937L250.636 68.225L250.671 70.3458C250.677 70.7247 250.754 71.0321 250.903 71.2679ZM246.48 78.8158C246.46 78.8005 246.401 78.7624 246.302 78.7015C246.203 78.6406 246.116 78.5678 246.04 78.4831C245.802 78.2253 245.637 77.9741 245.547 77.7294C245.458 77.4887 245.41 77.2043 245.405 76.8762C245.389 75.931 245.718 75.2888 246.392 74.9495C246.764 74.7598 247.316 74.6589 248.046 74.6468L251.895 74.5834L251.923 76.2941L248.074 76.3576C247.711 76.3635 247.438 76.411 247.256 76.5C246.934 76.6576 246.777 76.9591 246.784 77.4043C246.794 77.9746 247.031 78.3613 247.495 78.5647C247.747 78.6699 248.078 78.7191 248.488 78.7124L251.962 78.6551L251.99 80.3483L245.604 80.4535L245.577 78.8307L246.48 78.8158ZM252.039 83.3219L245.653 83.4271L245.625 81.7339L252.011 81.6287L252.039 83.3219ZM254.341 83.2839L252.801 83.3093L252.773 81.6162L254.313 81.5908L254.341 83.2839ZM254.31 84.5828L254.338 86.2525L245.702 86.3948L245.674 84.7251L254.31 84.5828ZM254.443 93.339L245.819 93.4811L245.792 91.8583L246.677 91.8437C246.294 91.6117 246.014 91.3448 245.837 91.043C245.66 90.7411 245.568 90.3637 245.561 89.9106C245.548 89.1646 245.839 88.5309 246.432 88.0093C247.029 87.4916 247.8 87.2249 248.745 87.2094C249.835 87.1914 250.696 87.4273 251.329 87.9169C251.963 88.4104 252.286 89.0771 252.3 89.9168C252.306 90.3035 252.226 90.6486 252.059 90.9522C251.896 91.2557 251.666 91.5036 251.368 91.6961L254.415 91.6459L254.443 93.339ZM248.897 88.9298C248.307 88.9395 247.838 89.0644 247.49 89.3045C247.139 89.5408 246.967 89.8953 246.975 90.3679C246.982 90.8405 247.164 91.1969 247.52 91.4372C247.875 91.6774 248.332 91.793 248.891 91.7838C249.672 91.7709 250.227 91.5645 250.557 91.1644C250.756 90.9189 250.853 90.6361 250.847 90.3158C250.839 89.8276 250.648 89.4713 250.273 89.247C249.902 89.0265 249.443 88.9208 248.897 88.9298Z" fill="white"/>
<path d="M191.971 148.744C192.863 149.666 193.33 150.864 193.37 152.337C193.421 154.161 192.876 155.61 191.735 156.686C190.588 157.762 188.991 158.328 186.945 158.385C184.731 158.446 183.009 157.9 181.778 156.746C180.706 155.743 180.148 154.444 180.104 152.85C180.045 150.718 180.701 149.139 182.073 148.114C182.843 147.547 183.624 147.233 184.414 147.171L184.487 149.82C183.884 150.009 183.432 150.242 183.129 150.52C182.592 151.017 182.337 151.739 182.363 152.685C182.39 153.648 182.8 154.397 183.596 154.932C184.385 155.466 185.491 155.714 186.913 155.675C188.335 155.635 189.393 155.313 190.088 154.709C190.777 154.099 191.109 153.341 191.084 152.435C191.058 151.506 190.734 150.806 190.113 150.336C189.779 150.075 189.282 149.865 188.624 149.706L188.551 147.083C189.94 147.274 191.08 147.828 191.971 148.744ZM184.429 138.068C185.399 137.25 186.561 136.822 187.914 136.784C189.29 136.746 190.479 137.109 191.481 137.873C192.478 138.638 192.999 139.825 193.043 141.437C193.088 143.048 192.633 144.262 191.681 145.081C190.722 145.899 189.555 146.327 188.179 146.365C186.826 146.403 185.642 146.039 184.628 145.276C183.615 144.512 183.085 143.324 183.041 141.713C182.996 140.102 183.459 138.887 184.429 138.068ZM185.114 141.664C185.134 142.381 185.404 142.927 185.925 143.303C186.44 143.673 187.168 143.845 188.108 143.819C189.049 143.793 189.769 143.581 190.268 143.183C190.768 142.779 191.008 142.219 190.988 141.502C190.968 140.785 190.698 140.242 190.177 139.872C189.656 139.502 188.925 139.33 187.985 139.356C187.045 139.382 186.327 139.594 185.834 139.992C185.334 140.39 185.094 140.948 185.114 141.664ZM179.654 127.239L192.314 126.889L192.38 129.271L191.081 129.307C191.647 129.641 192.062 130.029 192.327 130.469C192.591 130.909 192.733 131.462 192.751 132.127C192.782 133.222 192.366 134.157 191.503 134.933C190.635 135.703 189.507 136.107 188.12 136.145C186.52 136.19 185.252 135.858 184.314 135.149C183.376 134.435 182.89 133.461 182.856 132.228C182.84 131.661 182.953 131.153 183.193 130.704C183.427 130.256 183.761 129.888 184.195 129.601L179.723 129.724L179.654 127.239ZM187.869 133.622C188.735 133.598 189.421 133.407 189.928 133.049C190.44 132.696 190.687 132.173 190.668 131.479C190.648 130.785 190.376 130.265 189.85 129.918C189.324 129.571 188.651 129.409 187.831 129.431C186.684 129.463 185.872 129.775 185.395 130.368C185.107 130.732 184.969 131.149 184.982 131.619C185.002 132.336 185.289 132.856 185.843 133.179C186.391 133.496 187.067 133.644 187.869 133.622ZM189.293 117.233C189.85 117.281 190.423 117.555 191.011 118.055C191.945 118.832 192.432 119.944 192.472 121.388C192.505 122.581 192.149 123.644 191.406 124.577C190.663 125.51 189.426 126 187.694 126.048C186.072 126.093 184.816 125.717 183.928 124.921C183.039 124.119 182.577 123.062 182.54 121.749C182.519 120.969 182.646 120.263 182.921 119.63C183.196 118.997 183.643 118.468 184.263 118.044C184.809 117.661 185.447 117.405 186.178 117.276C186.606 117.201 187.225 117.158 188.034 117.147L188.211 123.563C189.15 123.503 189.802 123.189 190.165 122.623C190.39 122.278 190.497 121.868 190.483 121.392C190.469 120.887 190.315 120.481 190.019 120.174C189.86 120.006 189.641 119.86 189.362 119.736L189.293 117.233ZM186.487 119.738C185.84 119.796 185.356 120.007 185.033 120.372C184.704 120.731 184.547 121.171 184.562 121.693C184.577 122.261 184.767 122.697 185.131 123.003C185.495 123.303 185.982 123.484 186.592 123.548L186.487 119.738Z" fill="white"/>
<path d="M117.261 106.389H114.079L113.481 108.164H111.595L114.677 99.5273H116.716L119.774 108.164H117.817L117.261 106.389ZM116.757 104.9L115.679 101.502L114.565 104.9H116.757ZM123.592 103.318C122.92 103.318 122.469 103.537 122.238 103.975C122.11 104.221 122.045 104.6 122.045 105.111V108.164H120.363V101.777H121.957V102.891C122.215 102.465 122.44 102.174 122.631 102.018C122.944 101.756 123.35 101.625 123.85 101.625C123.881 101.625 123.906 101.627 123.926 101.631C123.949 101.631 123.998 101.633 124.072 101.637V103.348C123.967 103.336 123.873 103.328 123.791 103.324C123.709 103.32 123.643 103.318 123.592 103.318ZM127.621 106.975V108.223L126.83 108.252C126.041 108.279 125.501 108.143 125.212 107.842C125.025 107.65 124.931 107.355 124.931 106.957V103.025H124.041V101.836H124.931V100.055H126.584V101.836H127.621V103.025H126.584V106.4C126.584 106.662 126.617 106.826 126.683 106.893C126.75 106.955 126.953 106.986 127.293 106.986C127.343 106.986 127.396 106.986 127.451 106.986C127.509 106.982 127.566 106.979 127.621 106.975ZM130.05 101.777V108.164H128.356V101.777H130.05ZM130.05 99.4746V101.016H128.356V99.4746H130.05ZM135.713 102.07C136.213 102.391 136.5 102.941 136.574 103.723H134.905C134.881 103.508 134.821 103.338 134.723 103.213C134.539 102.986 134.227 102.873 133.785 102.873C133.422 102.873 133.162 102.93 133.006 103.043C132.854 103.156 132.778 103.289 132.778 103.441C132.778 103.633 132.86 103.771 133.024 103.857C133.188 103.947 133.768 104.102 134.764 104.32C135.428 104.477 135.926 104.713 136.258 105.029C136.586 105.35 136.75 105.75 136.75 106.23C136.75 106.863 136.514 107.381 136.041 107.783C135.573 108.182 134.846 108.381 133.862 108.381C132.858 108.381 132.115 108.17 131.635 107.748C131.158 107.322 130.92 106.781 130.92 106.125H132.614C132.649 106.422 132.725 106.633 132.842 106.758C133.049 106.98 133.432 107.092 133.99 107.092C134.319 107.092 134.578 107.043 134.77 106.945C134.965 106.848 135.063 106.701 135.063 106.506C135.063 106.318 134.985 106.176 134.828 106.078C134.672 105.98 134.092 105.812 133.088 105.574C132.365 105.395 131.856 105.17 131.559 104.9C131.262 104.635 131.114 104.252 131.114 103.752C131.114 103.162 131.344 102.656 131.805 102.234C132.27 101.809 132.922 101.596 133.762 101.596C134.559 101.596 135.209 101.754 135.713 102.07ZM137.873 102.469C138.314 101.906 139.072 101.625 140.146 101.625C140.845 101.625 141.466 101.764 142.009 102.041C142.552 102.318 142.824 102.842 142.824 103.611V106.541C142.824 106.744 142.828 106.99 142.836 107.279C142.847 107.498 142.88 107.646 142.935 107.725C142.99 107.803 143.072 107.867 143.181 107.918V108.164H141.365C141.314 108.035 141.279 107.914 141.259 107.801C141.24 107.687 141.224 107.559 141.213 107.414C140.982 107.664 140.716 107.877 140.416 108.053C140.056 108.26 139.65 108.363 139.197 108.363C138.619 108.363 138.14 108.199 137.761 107.871C137.386 107.539 137.199 107.07 137.199 106.465C137.199 105.68 137.502 105.111 138.107 104.76C138.439 104.568 138.927 104.432 139.572 104.35L140.14 104.279C140.449 104.24 140.67 104.191 140.802 104.133C141.041 104.031 141.16 103.873 141.16 103.658C141.16 103.396 141.068 103.217 140.884 103.119C140.705 103.018 140.439 102.967 140.088 102.967C139.693 102.967 139.414 103.064 139.25 103.26C139.132 103.404 139.054 103.6 139.015 103.846H137.404C137.439 103.287 137.595 102.828 137.873 102.469ZM139.115 106.957C139.271 107.086 139.463 107.15 139.689 107.15C140.048 107.15 140.379 107.045 140.679 106.834C140.984 106.623 141.142 106.238 141.154 105.68V105.059C141.048 105.125 140.941 105.18 140.832 105.223C140.726 105.262 140.58 105.299 140.392 105.334L140.017 105.404C139.666 105.467 139.414 105.543 139.261 105.633C139.004 105.785 138.875 106.021 138.875 106.342C138.875 106.627 138.955 106.832 139.115 106.957ZM146.958 103.014C146.392 103.014 146.003 103.254 145.792 103.734C145.683 103.988 145.628 104.312 145.628 104.707V108.164H143.964V101.789H145.575V102.721C145.79 102.393 145.993 102.156 146.185 102.012C146.528 101.754 146.964 101.625 147.491 101.625C148.151 101.625 148.69 101.799 149.108 102.146C149.53 102.49 149.741 103.062 149.741 103.863V108.164H148.03V104.279C148.03 103.943 147.985 103.686 147.895 103.506C147.731 103.178 147.419 103.014 146.958 103.014ZM151.168 102.469C151.61 101.906 152.368 101.625 153.442 101.625C154.141 101.625 154.762 101.764 155.305 102.041C155.848 102.318 156.119 102.842 156.119 103.611V106.541C156.119 106.744 156.123 106.99 156.131 107.279C156.143 107.498 156.176 107.646 156.231 107.725C156.285 107.803 156.368 107.867 156.477 107.918V108.164H154.66C154.61 108.035 154.575 107.914 154.555 107.801C154.535 107.687 154.52 107.559 154.508 107.414C154.278 107.664 154.012 107.877 153.711 108.053C153.352 108.26 152.946 108.363 152.493 108.363C151.914 108.363 151.436 108.199 151.057 107.871C150.682 107.539 150.494 107.07 150.494 106.465C150.494 105.68 150.797 105.111 151.403 104.76C151.735 104.568 152.223 104.432 152.868 104.35L153.436 104.279C153.744 104.24 153.965 104.191 154.098 104.133C154.336 104.031 154.455 103.873 154.455 103.658C154.455 103.396 154.364 103.217 154.18 103.119C154 103.018 153.735 102.967 153.383 102.967C152.989 102.967 152.709 103.064 152.545 103.26C152.428 103.404 152.35 103.6 152.311 103.846H150.7C150.735 103.287 150.891 102.828 151.168 102.469ZM152.41 106.957C152.567 107.086 152.758 107.15 152.985 107.15C153.344 107.15 153.674 107.045 153.975 106.834C154.28 106.623 154.438 106.238 154.45 105.68V105.059C154.344 105.125 154.237 105.18 154.127 105.223C154.022 105.262 153.875 105.299 153.688 105.334L153.313 105.404C152.961 105.467 152.709 105.543 152.557 105.633C152.299 105.785 152.17 106.021 152.17 106.342C152.17 106.627 152.25 106.832 152.41 106.957ZM157.283 99.5273H158.953V108.164H157.283V99.5273ZM127.89 114.527V116.057H125.306V123.164H123.49V116.057H120.894V114.527H127.89ZM132.891 117.586C133.431 118.262 133.7 119.061 133.7 119.982C133.7 120.92 133.431 121.723 132.891 122.391C132.352 123.055 131.534 123.387 130.436 123.387C129.339 123.387 128.52 123.055 127.981 122.391C127.442 121.723 127.173 120.92 127.173 119.982C127.173 119.061 127.442 118.262 127.981 117.586C128.52 116.91 129.339 116.572 130.436 116.572C131.534 116.572 132.352 116.91 132.891 117.586ZM130.431 117.984C129.942 117.984 129.565 118.158 129.3 118.506C129.038 118.85 128.907 119.342 128.907 119.982C128.907 120.623 129.038 121.117 129.3 121.465C129.565 121.812 129.942 121.986 130.431 121.986C130.919 121.986 131.294 121.812 131.556 121.465C131.817 121.117 131.948 120.623 131.948 119.982C131.948 119.342 131.817 118.85 131.556 118.506C131.294 118.158 130.919 117.984 130.431 117.984ZM139.867 117.586C140.406 118.262 140.676 119.061 140.676 119.982C140.676 120.92 140.406 121.723 139.867 122.391C139.328 123.055 138.51 123.387 137.412 123.387C136.315 123.387 135.496 123.055 134.957 122.391C134.418 121.723 134.149 120.92 134.149 119.982C134.149 119.061 134.418 118.262 134.957 117.586C135.496 116.91 136.315 116.572 137.412 116.572C138.51 116.572 139.328 116.91 139.867 117.586ZM137.406 117.984C136.918 117.984 136.541 118.158 136.276 118.506C136.014 118.85 135.883 119.342 135.883 119.982C135.883 120.623 136.014 121.117 136.276 121.465C136.541 121.812 136.918 121.986 137.406 121.986C137.895 121.986 138.27 121.812 138.531 121.465C138.793 121.117 138.924 120.623 138.924 119.982C138.924 119.342 138.793 118.85 138.531 118.506C138.27 118.158 137.895 117.984 137.406 117.984ZM141.552 114.527H143.222V123.164H141.552V114.527ZM148.897 117.07C149.397 117.391 149.685 117.941 149.759 118.723H148.089C148.065 118.508 148.005 118.338 147.907 118.213C147.724 117.986 147.411 117.873 146.97 117.873C146.606 117.873 146.347 117.93 146.19 118.043C146.038 118.156 145.962 118.289 145.962 118.441C145.962 118.633 146.044 118.771 146.208 118.857C146.372 118.947 146.952 119.102 147.948 119.32C148.612 119.477 149.11 119.713 149.442 120.029C149.77 120.35 149.935 120.75 149.935 121.23C149.935 121.863 149.698 122.381 149.226 122.783C148.757 123.182 148.03 123.381 147.046 123.381C146.042 123.381 145.3 123.17 144.819 122.748C144.343 122.322 144.104 121.781 144.104 121.125H145.798C145.833 121.422 145.909 121.633 146.026 121.758C146.233 121.98 146.616 122.092 147.175 122.092C147.503 122.092 147.763 122.043 147.954 121.945C148.149 121.848 148.247 121.701 148.247 121.506C148.247 121.318 148.169 121.176 148.013 121.078C147.856 120.98 147.276 120.812 146.272 120.574C145.55 120.395 145.04 120.17 144.743 119.9C144.446 119.635 144.298 119.252 144.298 118.752C144.298 118.162 144.528 117.656 144.989 117.234C145.454 116.809 146.106 116.596 146.946 116.596C147.743 116.596 148.394 116.754 148.897 117.07Z" fill="white"/>
<path d="M243.717 127.483H241.702L240.172 124.753L239.481 125.474V127.483H237.84V118.876H239.481V123.528L241.561 121.126H243.629L241.397 123.569L243.717 127.483ZM244.447 126.95C243.959 126.45 243.715 125.843 243.715 125.128C243.715 124.651 243.822 124.22 244.037 123.833C244.256 123.446 244.574 123.155 244.992 122.96C244.582 122.687 244.314 122.392 244.189 122.075C244.068 121.755 244.008 121.456 244.008 121.179C244.008 120.562 244.24 120.036 244.705 119.603C245.17 119.165 245.826 118.946 246.674 118.946C247.521 118.946 248.177 119.165 248.642 119.603C249.107 120.036 249.34 120.562 249.34 121.179C249.34 121.456 249.277 121.755 249.152 122.075C249.031 122.392 248.765 122.667 248.355 122.901C248.773 123.136 249.088 123.446 249.299 123.833C249.51 124.22 249.615 124.651 249.615 125.128C249.615 125.843 249.349 126.452 248.818 126.956C248.291 127.456 247.552 127.706 246.603 127.706C245.654 127.706 244.935 127.454 244.447 126.95ZM245.449 125.017C245.449 125.435 245.556 125.759 245.771 125.989C245.99 126.22 246.291 126.335 246.674 126.335C247.056 126.335 247.355 126.22 247.57 125.989C247.789 125.759 247.898 125.435 247.898 125.017C247.898 124.583 247.787 124.255 247.564 124.032C247.345 123.806 247.049 123.692 246.674 123.692C246.299 123.692 246 123.806 245.777 124.032C245.558 124.255 245.449 124.583 245.449 125.017ZM245.888 122.122C246.076 122.317 246.338 122.415 246.674 122.415C247.013 122.415 247.275 122.317 247.459 122.122C247.646 121.927 247.74 121.675 247.74 121.366C247.74 121.03 247.646 120.769 247.459 120.581C247.275 120.39 247.013 120.294 246.674 120.294C246.338 120.294 246.074 120.39 245.883 120.581C245.695 120.769 245.601 121.03 245.601 121.366C245.601 121.675 245.697 121.927 245.888 122.122ZM254.898 121.39C255.398 121.71 255.685 122.261 255.759 123.042H254.089C254.066 122.827 254.005 122.657 253.907 122.532C253.724 122.306 253.411 122.192 252.97 122.192C252.607 122.192 252.347 122.249 252.191 122.362C252.038 122.476 251.962 122.608 251.962 122.761C251.962 122.952 252.044 123.091 252.208 123.177C252.372 123.267 252.952 123.421 253.948 123.64C254.612 123.796 255.11 124.032 255.442 124.349C255.771 124.669 255.935 125.069 255.935 125.55C255.935 126.183 255.698 126.7 255.226 127.103C254.757 127.501 254.03 127.7 253.046 127.7C252.042 127.7 251.3 127.489 250.819 127.067C250.343 126.642 250.105 126.101 250.105 125.444H251.798C251.833 125.741 251.909 125.952 252.026 126.077C252.234 126.3 252.616 126.411 253.175 126.411C253.503 126.411 253.763 126.362 253.954 126.265C254.15 126.167 254.247 126.021 254.247 125.825C254.247 125.638 254.169 125.495 254.013 125.397C253.857 125.3 253.276 125.132 252.273 124.894C251.55 124.714 251.04 124.489 250.743 124.22C250.446 123.954 250.298 123.571 250.298 123.071C250.298 122.481 250.528 121.976 250.989 121.554C251.454 121.128 252.107 120.915 252.946 120.915C253.743 120.915 254.394 121.073 254.898 121.39ZM223.053 142.483H221.371V133.847H223.996L225.567 140.638L227.125 133.847H229.721V142.483H228.039V136.642C228.039 136.474 228.041 136.239 228.045 135.938C228.049 135.634 228.051 135.399 228.051 135.235L226.416 142.483H224.664L223.041 135.235C223.041 135.399 223.043 135.634 223.047 135.938C223.051 136.239 223.053 136.474 223.053 136.642V142.483ZM231.142 136.788C231.584 136.226 232.341 135.944 233.416 135.944C234.115 135.944 234.736 136.083 235.279 136.36C235.822 136.638 236.093 137.161 236.093 137.931V140.86C236.093 141.063 236.097 141.31 236.105 141.599C236.117 141.817 236.15 141.966 236.205 142.044C236.259 142.122 236.341 142.187 236.451 142.237V142.483H234.634C234.584 142.354 234.549 142.233 234.529 142.12C234.509 142.007 234.494 141.878 234.482 141.733C234.252 141.983 233.986 142.196 233.685 142.372C233.326 142.579 232.92 142.683 232.466 142.683C231.888 142.683 231.41 142.519 231.031 142.19C230.656 141.858 230.468 141.39 230.468 140.784C230.468 139.999 230.771 139.431 231.377 139.079C231.709 138.888 232.197 138.751 232.841 138.669L233.41 138.599C233.718 138.56 233.939 138.511 234.072 138.452C234.31 138.351 234.429 138.192 234.429 137.978C234.429 137.716 234.338 137.536 234.154 137.438C233.974 137.337 233.709 137.286 233.357 137.286C232.963 137.286 232.683 137.384 232.519 137.579C232.402 137.724 232.324 137.919 232.285 138.165H230.674C230.709 137.606 230.865 137.147 231.142 136.788ZM232.384 141.276C232.541 141.405 232.732 141.47 232.959 141.47C233.318 141.47 233.648 141.364 233.949 141.153C234.254 140.942 234.412 140.558 234.424 139.999V139.378C234.318 139.444 234.211 139.499 234.101 139.542C233.996 139.581 233.849 139.618 233.662 139.653L233.287 139.724C232.935 139.786 232.683 139.862 232.531 139.952C232.273 140.104 232.144 140.341 232.144 140.661C232.144 140.946 232.224 141.151 232.384 141.276ZM240.228 137.333C239.661 137.333 239.272 137.573 239.062 138.054C238.952 138.308 238.897 138.632 238.897 139.026V142.483H237.233V136.108H238.845V137.04C239.06 136.712 239.263 136.476 239.454 136.331C239.798 136.073 240.233 135.944 240.761 135.944C241.421 135.944 241.96 136.118 242.378 136.466C242.8 136.81 243.011 137.382 243.011 138.183V142.483H241.3V138.599C241.3 138.263 241.255 138.005 241.165 137.825C241.001 137.497 240.689 137.333 240.228 137.333ZM245.914 136.097V142.483H244.221V136.097H245.914ZM245.914 133.794V135.335H244.221V133.794H245.914ZM250.172 133.794V135.153C250.078 135.142 249.92 135.134 249.697 135.13C249.478 135.122 249.326 135.171 249.24 135.276C249.158 135.378 249.117 135.491 249.117 135.616V136.155H250.213V137.333H249.117V142.483H247.453V137.333H246.521V136.155H247.435V135.745C247.435 135.062 247.551 134.591 247.781 134.333C248.023 133.95 248.607 133.759 249.533 133.759C249.638 133.759 249.734 133.763 249.82 133.771C249.906 133.774 250.023 133.782 250.172 133.794ZM256.28 140.608C256.237 140.987 256.04 141.372 255.689 141.763C255.142 142.384 254.376 142.694 253.392 142.694C252.579 142.694 251.862 142.433 251.241 141.909C250.62 141.386 250.31 140.534 250.31 139.354C250.31 138.249 250.589 137.401 251.148 136.812C251.71 136.222 252.439 135.927 253.333 135.927C253.864 135.927 254.343 136.026 254.769 136.226C255.194 136.425 255.546 136.739 255.823 137.169C256.073 137.548 256.235 137.987 256.31 138.487C256.353 138.78 256.37 139.202 256.362 139.753H251.991C252.015 140.394 252.216 140.843 252.595 141.101C252.825 141.261 253.103 141.341 253.427 141.341C253.771 141.341 254.05 141.243 254.265 141.048C254.382 140.942 254.485 140.796 254.575 140.608H256.28ZM254.628 138.651C254.601 138.21 254.466 137.876 254.224 137.649C253.985 137.419 253.689 137.304 253.333 137.304C252.946 137.304 252.646 137.425 252.431 137.667C252.22 137.909 252.087 138.237 252.032 138.651H254.628ZM261.534 136.39C262.034 136.71 262.321 137.261 262.395 138.042H260.725C260.702 137.827 260.641 137.657 260.543 137.532C260.36 137.306 260.047 137.192 259.606 137.192C259.243 137.192 258.983 137.249 258.827 137.362C258.674 137.476 258.598 137.608 258.598 137.761C258.598 137.952 258.68 138.091 258.844 138.177C259.008 138.267 259.588 138.421 260.584 138.64C261.249 138.796 261.747 139.032 262.079 139.349C262.407 139.669 262.571 140.069 262.571 140.55C262.571 141.183 262.334 141.7 261.862 142.103C261.393 142.501 260.666 142.7 259.682 142.7C258.678 142.7 257.936 142.489 257.456 142.067C256.979 141.642 256.741 141.101 256.741 140.444H258.434C258.469 140.741 258.545 140.952 258.663 141.077C258.87 141.3 259.252 141.411 259.811 141.411C260.139 141.411 260.399 141.362 260.59 141.265C260.786 141.167 260.883 141.021 260.883 140.825C260.883 140.638 260.805 140.495 260.649 140.397C260.493 140.3 259.913 140.132 258.909 139.894C258.186 139.714 257.676 139.489 257.379 139.22C257.082 138.954 256.934 138.571 256.934 138.071C256.934 137.481 257.165 136.976 257.625 136.554C258.09 136.128 258.743 135.915 259.582 135.915C260.379 135.915 261.03 136.073 261.534 136.39ZM266.377 141.294V142.542L265.586 142.571C264.797 142.599 264.258 142.462 263.969 142.161C263.781 141.97 263.687 141.675 263.687 141.276V137.345H262.797V136.155H263.687V134.374H265.34V136.155H266.377V137.345H265.34V140.72C265.34 140.981 265.373 141.146 265.439 141.212C265.506 141.274 265.709 141.306 266.049 141.306C266.099 141.306 266.152 141.306 266.207 141.306C266.265 141.302 266.322 141.298 266.377 141.294ZM271.489 136.39C271.989 136.71 272.277 137.261 272.351 138.042H270.681C270.657 137.827 270.597 137.657 270.499 137.532C270.316 137.306 270.003 137.192 269.562 137.192C269.198 137.192 268.939 137.249 268.782 137.362C268.63 137.476 268.554 137.608 268.554 137.761C268.554 137.952 268.636 138.091 268.8 138.177C268.964 138.267 269.544 138.421 270.54 138.64C271.204 138.796 271.702 139.032 272.034 139.349C272.362 139.669 272.527 140.069 272.527 140.55C272.527 141.183 272.29 141.7 271.818 142.103C271.349 142.501 270.622 142.7 269.638 142.7C268.634 142.7 267.892 142.489 267.411 142.067C266.935 141.642 266.696 141.101 266.696 140.444H268.39C268.425 140.741 268.501 140.952 268.618 141.077C268.825 141.3 269.208 141.411 269.767 141.411C270.095 141.411 270.355 141.362 270.546 141.265C270.741 141.167 270.839 141.021 270.839 140.825C270.839 140.638 270.761 140.495 270.605 140.397C270.448 140.3 269.868 140.132 268.864 139.894C268.142 139.714 267.632 139.489 267.335 139.22C267.038 138.954 266.89 138.571 266.89 138.071C266.89 137.481 267.12 136.976 267.581 136.554C268.046 136.128 268.698 135.915 269.538 135.915C270.335 135.915 270.986 136.073 271.489 136.39Z" fill="white"/>
<path d="M209.465 190.007C209.802 190.813 209.8 191.689 209.46 192.633C209.039 193.802 208.333 194.586 207.342 194.984C206.348 195.382 205.195 195.344 203.883 194.872C202.464 194.361 201.508 193.586 201.014 192.549C200.583 191.646 200.552 190.684 200.92 189.663C201.412 188.296 202.221 187.457 203.345 187.148C203.975 186.981 204.547 186.975 205.064 187.132L204.452 188.83C204.023 188.8 203.678 188.836 203.417 188.937C202.953 189.118 202.612 189.512 202.394 190.119C202.171 190.736 202.246 191.313 202.617 191.85C202.985 192.385 203.624 192.817 204.536 193.145C205.447 193.473 206.198 193.532 206.789 193.321C207.377 193.106 207.776 192.708 207.985 192.127C208.2 191.532 208.168 191.008 207.891 190.555C207.744 190.307 207.482 190.05 207.104 189.785L207.709 188.104C208.542 188.57 209.127 189.204 209.465 190.007ZM207.335 181.364C208.153 181.086 208.996 181.103 209.864 181.415C210.746 181.733 211.409 182.259 211.855 182.992C212.297 183.724 212.332 184.607 211.96 185.64C211.588 186.672 210.998 187.33 210.191 187.612C209.38 187.893 208.533 187.874 207.651 187.556C206.784 187.244 206.124 186.72 205.671 185.983C205.218 185.247 205.177 184.363 205.549 183.33C205.921 182.297 206.516 181.642 207.335 181.364ZM206.876 183.814C206.71 184.274 206.746 184.687 206.983 185.055C207.218 185.418 207.636 185.708 208.239 185.925C208.842 186.142 209.351 186.186 209.767 186.058C210.184 185.926 210.475 185.63 210.641 185.171C210.806 184.711 210.77 184.299 210.531 183.935C210.293 183.571 209.872 183.281 209.27 183.064C208.667 182.846 208.16 182.803 207.748 182.933C207.332 183.061 207.041 183.355 206.876 183.814ZM209.315 177.129C209.123 177.662 209.217 178.109 209.598 178.47C209.8 178.659 210.086 178.82 210.458 178.954L213.71 180.126L213.146 181.691L207.148 179.531L207.694 178.015L208.571 178.33C208.335 178.017 208.181 177.746 208.11 177.517C207.984 177.106 208.011 176.653 208.189 176.156C208.413 175.535 208.759 175.087 209.228 174.812C209.695 174.531 210.304 174.527 211.058 174.798L215.104 176.256L214.524 177.866L210.869 176.549C210.553 176.435 210.295 176.39 210.096 176.414C209.732 176.457 209.471 176.695 209.315 177.129ZM216.178 173.276L215.614 174.842L210.768 173.096L210.452 173.972L209.344 173.573L209.654 172.713L209.268 172.574C208.629 172.344 208.204 172.031 207.993 171.636C207.791 171.276 207.83 170.707 208.11 169.928C208.145 169.832 208.183 169.736 208.227 169.639C208.27 169.543 208.314 169.443 208.36 169.339L209.639 169.799C209.609 169.872 209.581 169.943 209.556 170.012C209.527 170.081 209.495 170.165 209.459 170.264C209.37 170.51 209.384 170.685 209.5 170.789C209.616 170.894 209.821 170.994 210.114 171.092L210.224 171.131L210.595 170.1L211.703 170.5L211.332 171.53L216.178 173.276ZM211.467 167.593L217.448 169.748L216.884 171.313L210.903 169.159L211.467 167.593ZM210.143 168.885L208.709 168.368L209.263 166.83L210.697 167.347L210.143 168.885ZM219.535 167.258C219.739 167.14 219.914 166.881 220.058 166.481C220.262 165.915 220.209 165.468 219.899 165.14C219.702 164.928 219.316 164.719 218.743 164.512L218.357 164.373C218.56 164.617 218.695 164.848 218.761 165.067C218.887 165.465 218.861 165.914 218.681 166.414C218.403 167.186 217.91 167.706 217.203 167.974C216.494 168.238 215.676 168.203 214.75 167.869C213.857 167.547 213.187 167.055 212.741 166.392C212.291 165.727 212.213 164.987 212.507 164.171C212.616 163.87 212.756 163.624 212.929 163.433C213.224 163.108 213.626 162.903 214.133 162.82L213.268 162.509L213.818 160.982L219.518 163.035C220.293 163.314 220.831 163.655 221.13 164.058C221.645 164.75 221.673 165.732 221.215 167.003C220.938 167.771 220.562 168.344 220.086 168.72C219.61 169.097 219.063 169.203 218.445 169.039L219.061 167.33C219.26 167.352 219.419 167.328 219.535 167.258ZM216.336 166.404C216.92 166.374 217.311 166.083 217.51 165.532C217.642 165.164 217.616 164.804 217.432 164.451C217.244 164.097 216.847 163.811 216.241 163.592C215.671 163.387 215.194 163.352 214.809 163.487C214.425 163.619 214.16 163.887 214.015 164.291C213.816 164.842 213.938 165.316 214.381 165.712C214.617 165.922 214.937 166.099 215.341 166.245C215.69 166.371 216.022 166.424 216.336 166.404Z" fill="white"/>
<path d="M241.341 175.064L242.543 173.905L248.537 180.124L247.335 181.283L241.341 175.064ZM245.675 174.972C245.603 174.26 245.953 173.532 246.727 172.787C247.23 172.301 247.774 171.97 248.357 171.793C248.94 171.616 249.499 171.804 250.033 172.358L252.066 174.468C252.207 174.614 252.381 174.788 252.587 174.991C252.747 175.14 252.874 175.224 252.968 175.243C253.061 175.261 253.165 175.25 253.279 175.211L253.45 175.388L252.142 176.649C252.016 176.591 251.907 176.528 251.814 176.46C251.721 176.392 251.621 176.31 251.512 176.214C251.52 176.554 251.476 176.892 251.382 177.227C251.266 177.626 251.046 177.982 250.72 178.297C250.303 178.698 249.845 178.912 249.344 178.939C248.844 178.96 248.384 178.752 247.964 178.317C247.419 177.751 247.242 177.132 247.434 176.459C247.54 176.09 247.797 175.653 248.204 175.147L248.565 174.702C248.76 174.459 248.885 174.271 248.94 174.137C249.041 173.898 249.017 173.702 248.868 173.547C248.686 173.359 248.495 173.293 248.295 173.35C248.095 173.402 247.869 173.549 247.616 173.793C247.332 174.067 247.198 174.331 247.216 174.586C247.232 174.771 247.311 174.966 247.454 175.17L246.293 176.288C245.931 175.862 245.725 175.423 245.675 174.972ZM249.685 177.341C249.887 177.326 250.069 177.239 250.232 177.082C250.491 176.833 250.655 176.527 250.726 176.167C250.799 175.804 250.645 175.417 250.266 175.006L249.835 174.559C249.805 174.68 249.766 174.794 249.717 174.901C249.668 175.002 249.588 175.131 249.478 175.286L249.257 175.597C249.047 175.886 248.918 176.116 248.871 176.286C248.791 176.575 248.862 176.834 249.085 177.065C249.283 177.27 249.483 177.362 249.685 177.341ZM258.042 170.067C257.987 170.939 257.599 171.723 256.876 172.42C255.982 173.282 255.002 173.673 253.937 173.592C252.869 173.509 251.852 172.965 250.884 171.961C249.838 170.876 249.322 169.759 249.338 168.61C249.351 167.61 249.748 166.733 250.53 165.979C251.576 164.971 252.672 164.577 253.817 164.797C254.455 164.924 254.972 165.173 255.365 165.542L254.066 166.794C253.694 166.578 253.369 166.457 253.091 166.433C252.594 166.39 252.114 166.593 251.65 167.04C251.177 167.496 250.989 168.046 251.085 168.691C251.178 169.334 251.561 170.004 252.233 170.702C252.905 171.399 253.553 171.784 254.176 171.856C254.799 171.923 255.333 171.742 255.777 171.314C256.233 170.875 256.437 170.391 256.388 169.862C256.366 169.574 256.244 169.228 256.022 168.824L257.309 167.583C257.85 168.37 258.094 169.197 258.042 170.067Z" fill="white"/>
<circle cx="303.713" cy="72.4785" r="1.18262" stroke="white"/>
<circle cx="309.301" cy="78.1855" r="1.49902" stroke="white"/>
<circle cx="298.954" cy="76.1865" r="0.670898" stroke="white"/>
<circle cx="303.713" cy="81.4521" r="3.08887" stroke="white"/>
<circle cx="290.856" cy="162.833" r="1.18262" stroke="white"/>
<circle cx="287.174" cy="168.062" r="1.49902" stroke="white"/>
<circle cx="288.002" cy="159.251" r="0.670898" stroke="white"/>
<circle cx="289.173" cy="174.499" r="3.08887" stroke="white"/>
<circle cx="1.68262" cy="1.68262" r="1.18262" transform="matrix(-1 0 0 1 46.5254 131.705)" stroke="white"/>
<circle cx="1.99902" cy="1.99902" r="1.49902" transform="matrix(-1 0 0 1 43.2322 136.008)" stroke="white"/>
<circle cx="1.1709" cy="1.1709" r="0.670898" transform="matrix(-1 0 0 1 41.5759 125.605)" stroke="white"/>
<circle cx="3.58887" cy="3.58887" r="3.08887" transform="matrix(-1 0 0 1 52.0205 136.417)" stroke="white"/>
<circle cx="1.68262" cy="1.68262" r="1.18262" transform="matrix(-0.922733 0.385439 0.385439 0.922733 137.269 226.521)" stroke="white"/>
<circle cx="1.99902" cy="1.99902" r="1.49902" transform="matrix(-0.922733 0.385439 0.385439 0.922733 135.888 231.761)" stroke="white"/>
<circle cx="1.1709" cy="1.1709" r="0.670898" transform="matrix(-0.922733 0.385439 0.385439 0.922733 130.351 222.801)" stroke="white"/>
<circle cx="1.1709" cy="1.1709" r="0.670898" transform="matrix(-0.922733 0.385439 0.385439 0.922733 139.864 237.098)" stroke="white"/>
<circle cx="3.58887" cy="3.58887" r="3.08887" transform="matrix(-0.922733 0.385439 0.385439 0.922733 148.108 221.044)" stroke="white"/>
<circle cx="2.17578" cy="2.17578" r="1.67578" transform="matrix(-0.922733 0.385439 0.385439 0.922733 125.884 212.996)" stroke="white"/>
</g>
<defs>
<clipPath id="clip0_5634_6091">
<rect x="0.123291" y="0.919922" width="368" height="245.333" rx="24" fill="white"/>
</clipPath>
</defs>
</svg>
