<svg width="388" height="388" viewBox="0 0 388 388" fill="none" xmlns="http://www.w3.org/2000/svg">
<g clip-path="url(#clip0_6883_7343)">
<rect x="0.875" y="387.79" width="387" height="387" rx="16" transform="rotate(-90 0.875 387.79)" fill="#E8F7FE" style="mix-blend-mode:multiply"/>
<path d="M93.9326 147.82V147.82C98.6675 147.82 103.165 149.894 106.239 153.495L141.064 194.29" stroke="url(#paint0_linear_6883_7343)" stroke-width="2" stroke-dasharray="4 4"/>
<path d="M94.1221 240.76V240.76C98.7371 240.76 103.121 238.738 106.117 235.228L141.065 194.29" stroke="url(#paint1_linear_6883_7343)" stroke-width="2" stroke-dasharray="4 4"/>
<path d="M94.5791 194.29L101.394 194.29L141.725 194.29" stroke="url(#paint2_linear_6883_7343)" stroke-width="2" stroke-dasharray="4 4"/>
<path d="M310.446 194.29L302.349 194.29L254.431 194.29" stroke="url(#paint3_linear_6883_7343)" stroke-width="2" stroke-dasharray="4 4"/>
<path d="M311.215 147.82V147.82C305.534 147.82 300.082 150.056 296.036 154.045L255.217 194.29" stroke="url(#paint4_linear_6883_7343)" stroke-width="2" stroke-dasharray="4 4"/>
<path d="M310.99 240.76V240.76C305.453 240.76 300.139 238.58 296.196 234.693L255.217 194.29" stroke="url(#paint5_linear_6883_7343)" stroke-width="2" stroke-dasharray="4 4"/>
<g filter="url(#filter0_d_6883_7343)">
<rect x="-166.378" y="329.663" width="271" height="271" rx="135.5" transform="rotate(-90 -166.378 329.663)" fill="#FDFDFD"/>
<rect x="-166.026" y="329.311" width="270.296" height="270.296" rx="135.148" transform="rotate(-90 -166.026 329.311)" stroke="#C0F4FD" stroke-width="0.704123"/>
</g>
<g filter="url(#filter1_d_6883_7343)">
<path d="M265.427 175.83C265.454 175.844 265.487 175.84 265.509 175.82C268.702 172.96 269.956 168.49 268.284 164.514C267.241 162.111 266.107 159.752 264.838 157.484L263.432 155.035C262.071 152.768 260.574 150.546 258.986 148.414C256.402 144.967 251.867 143.833 247.785 145.194L244.032 146.432C238.406 148.287 232.343 146.983 227.218 144.012C222.086 141.038 217.837 136.413 216.616 130.608L215.811 126.781C214.949 122.563 211.683 119.207 207.42 118.708C204.427 118.3 201.388 118.118 198.305 118.118H197.987C194.902 118.118 191.865 118.3 188.871 118.662C184.607 119.161 181.343 122.563 180.481 126.735L179.67 130.603C178.452 136.414 174.192 141.058 169.053 144.032C163.926 147 157.887 148.303 152.253 146.472L148.461 145.239C144.379 143.879 139.844 145.012 137.26 148.459C135.673 150.591 134.175 152.813 132.769 155.081L131.408 157.484C130.139 159.752 129.005 162.111 127.962 164.56C126.284 168.505 127.554 172.995 130.774 175.897L133.771 178.57C138.174 182.498 140.071 188.41 140.071 194.311C140.071 200.241 138.163 206.179 133.737 210.127L130.774 212.77C127.554 215.626 126.284 220.117 127.962 224.108C129.005 226.512 130.139 228.87 131.408 231.183L132.769 233.541C134.13 235.855 135.627 238.032 137.26 240.164C139.844 243.61 144.379 244.744 148.461 243.383L152.217 242.145C157.841 240.29 163.903 241.593 169.027 244.563C174.159 247.538 178.407 252.166 179.624 257.972L180.436 261.841C181.298 266.06 184.563 269.415 188.826 269.915C191.865 270.277 194.948 270.459 198.078 270.459C201.207 270.459 204.292 270.277 207.329 269.915C211.593 269.415 214.859 266.014 215.72 261.841L216.535 257.95C217.75 252.154 222 247.522 227.126 244.558C232.265 241.586 238.321 240.292 243.959 242.151L247.694 243.383C251.776 244.744 256.311 243.61 258.897 240.164C260.484 238.032 261.98 235.855 263.34 233.541L264.747 231.092C266.016 228.825 267.15 226.466 268.193 224.062C269.871 220.117 268.602 215.626 265.382 212.724L262.418 210.081C257.992 206.133 256.084 200.196 256.084 194.265C256.084 193.088 256.048 191.918 255.977 190.755C255.751 187.02 257.004 183.28 259.796 180.789L265.344 175.841C265.367 175.821 265.4 175.817 265.427 175.83ZM176.354 194.311C176.354 188.538 178.647 183.001 182.729 178.918C186.813 174.836 192.349 172.542 198.122 172.542C203.897 172.542 209.434 174.836 213.517 178.918C217.599 183.001 219.893 188.538 219.893 194.311C219.893 200.085 217.599 205.622 213.517 209.704C209.434 213.787 203.897 216.081 198.122 216.081C192.349 216.081 186.813 213.787 182.729 209.704C178.647 205.622 176.354 200.085 176.354 194.311Z" fill="#F9FAFC"/>
<path d="M197.987 119.417H198.305C201.337 119.417 204.317 119.595 207.245 119.994L207.257 119.996L207.27 119.997C210.908 120.423 213.775 123.302 214.539 127.04L214.54 127.048L215.346 130.875C216.665 137.148 221.226 142.04 226.566 145.136C231.911 148.233 238.363 149.669 244.438 147.665L248.191 146.427L248.195 146.426C251.815 145.219 255.739 146.248 257.947 149.192C259.314 151.028 260.612 152.931 261.811 154.87L262.318 155.703L263.705 158.118V158.119C264.948 160.34 266.063 162.657 267.093 165.03C268.475 168.333 267.527 172.087 264.896 174.617C264.778 174.663 264.665 174.726 264.562 174.805L264.48 174.872L258.932 179.82C255.792 182.621 254.436 186.775 254.682 190.834C254.751 191.971 254.786 193.116 254.786 194.266C254.786 200.447 256.774 206.786 261.554 211.05L264.518 213.693C267.378 216.275 268.43 220.187 266.998 223.554C265.971 225.92 264.86 228.232 263.621 230.445L262.222 232.883C261.058 234.862 259.788 236.746 258.438 238.597L257.855 239.388C255.645 242.33 251.723 243.357 248.104 242.151L248.101 242.15L244.365 240.918C238.28 238.911 231.835 240.335 226.477 243.434C221.14 246.519 216.578 251.42 215.265 257.684L214.449 261.575L214.448 261.579C213.685 265.28 210.813 268.2 207.178 268.626H207.176C204.19 268.982 201.156 269.161 198.078 269.161C194.999 269.161 191.967 268.982 188.979 268.626H188.978C185.339 268.199 182.472 265.32 181.708 261.581L181.706 261.575L180.896 257.706C179.58 251.431 175.02 246.535 169.678 243.439C164.334 240.343 157.885 238.909 151.811 240.912L148.055 242.15L148.051 242.151C144.431 243.358 140.507 242.329 138.299 239.385L138.291 239.374L137.695 238.586C136.32 236.742 135.051 234.861 133.888 232.883L132.533 230.534C131.447 228.553 130.46 226.535 129.543 224.479L129.153 223.591C127.723 220.172 128.789 216.267 131.636 213.741L131.639 213.738L134.602 211.096C139.381 206.832 141.369 200.492 141.369 194.311C141.369 188.16 139.393 181.846 134.635 177.602L131.643 174.933H131.644C128.779 172.351 127.724 168.437 129.156 165.068C130.184 162.655 131.298 160.34 132.541 158.119L132.54 158.118L133.899 155.721C135.28 153.497 136.746 151.321 138.298 149.237L138.299 149.238C140.507 146.294 144.431 145.264 148.051 146.471L148.06 146.474L151.852 147.706C157.933 149.683 164.358 148.25 169.704 145.155C175.052 142.06 179.625 137.148 180.941 130.869L181.752 127.002L181.753 126.998C182.518 123.297 185.388 120.377 189.022 119.952L189.027 119.951C191.968 119.595 194.954 119.417 197.987 119.417ZM198.122 171.243C192.005 171.243 186.138 173.674 181.812 177.999V178C177.486 182.327 175.056 188.193 175.056 194.311C175.056 200.429 177.486 206.297 181.812 210.622C186.138 214.949 192.005 217.379 198.122 217.379C204.241 217.379 210.108 214.949 214.435 210.622C218.76 206.297 221.191 200.429 221.191 194.311C221.191 188.193 218.76 182.327 214.436 178L214.435 177.999C210.108 173.674 204.241 171.243 198.122 171.243Z" stroke="url(#paint6_linear_6883_7343)" stroke-width="2.59673"/>
</g>
<rect x="158.687" y="152.438" width="83.7001" height="83.7001" rx="41.8501" fill="#F9FAFC"/>
<g clip-path="url(#clip1_6883_7343)">
<path d="M202.903 164.923L198.007 173.421H197.974L193.127 165.006L202.903 164.923Z" fill="#83FF50" stroke="#83FF50" stroke-width="0.165983" stroke-miterlimit="5.3333"/>
<mask id="mask0_6883_7343" style="mask-type:luminance" maskUnits="userSpaceOnUse" x="179" y="154" width="28" height="13">
<path d="M206.235 166.452H179.943V154.883H206.235V166.452Z" fill="white"/>
</mask>
<g mask="url(#mask0_6883_7343)">
<g opacity="0.83">
<path d="M202.944 164.876L202.928 164.909H202.911V164.926L193.118 165.009V164.992H183.309L183.242 164.876L188.172 156.344H198.031L202.944 164.876Z" fill="#96FF5B" fill-opacity="0.6471"/>
</g>
</g>
<path d="M202.926 164.91L198.029 173.408H198.013L202.909 164.91H202.926Z" fill="white"/>
<path d="M198.034 173.531L198.018 173.564L193.105 182.062H183.262L178.332 173.531L183.262 164.999H183.312L188.158 173.415H197.968L198.034 173.531Z" fill="#00D6FF" stroke="#00D6FF" stroke-width="0.165983" stroke-miterlimit="5.3333"/>
<path d="M197.968 173.414H188.175L183.312 164.999H193.121L197.968 173.414Z" fill="#7DFFFF" stroke="#7DFFFF" stroke-width="0.165983" stroke-miterlimit="5.3333"/>
<path d="M202.977 181.853L203.06 181.985H202.91L199.176 182.019L193.117 182.068L198.03 173.57H207.774L202.977 181.853Z" fill="#32E6FF" stroke="#32E6FF" stroke-width="0.165983" stroke-miterlimit="5.3333"/>
<mask id="mask1_6883_7343" style="mask-type:luminance" maskUnits="userSpaceOnUse" x="190" y="170" width="21" height="24">
<path d="M210.483 193.491H190.581V170.718H210.483V193.491Z" fill="white"/>
</mask>
<g mask="url(#mask1_6883_7343)">
<g opacity="0.86">
<path d="M207.997 190.391L207.848 190.64H198.005L193.075 182.108L193.092 182.075L198.005 173.576H198.022L193.108 182.058L199.167 182.008L202.918 181.975H203.067L207.898 190.391H207.997Z" fill="#00D5FF" fill-opacity="0.5451"/>
</g>
</g>
<path d="M202.976 181.853L203.059 181.985H202.909L198.062 173.57H207.773L202.976 181.853Z" fill="#20E6FF" stroke="#20E6FF" stroke-width="0.165983" stroke-miterlimit="5.3333"/>
<path d="M212.719 181.984H203.059L202.976 181.852L207.756 173.569H207.856L212.719 181.984Z" fill="#2AF0FF" stroke="#2AF0FF" stroke-width="0.165983" stroke-miterlimit="5.3333"/>
<mask id="mask2_6883_7343" style="mask-type:luminance" maskUnits="userSpaceOnUse" x="201" y="180" width="14" height="12">
<path d="M214.42 191.798H201.439V180.594H214.42V191.798Z" fill="white"/>
</mask>
<g mask="url(#mask2_6883_7343)">
<g opacity="0.95">
<path d="M212.785 182.101L208.005 190.384H207.905L203.059 181.985H212.719L212.785 182.101Z" fill="#29EFFF" fill-opacity="0.8"/>
</g>
</g>
<path d="M217.696 173.45L212.767 181.981H212.717L207.87 173.566H198.061L197.994 173.45L198.011 173.417L202.907 164.918V164.902H212.767L217.613 173.3L217.696 173.45Z" fill="#32F8B9" stroke="#32F8B9" stroke-width="0.165983" stroke-miterlimit="5.3333"/>
<mask id="mask3_6883_7343" style="mask-type:luminance" maskUnits="userSpaceOnUse" x="205" y="170" width="21" height="24">
<path d="M225.088 193.491H205.386V170.569H225.088V193.491Z" fill="white"/>
</mask>
<g mask="url(#mask3_6883_7343)">
<g opacity="0.85">
<path d="M222.613 181.972L217.684 190.504L207.841 190.637L212.721 182.221L212.654 182.105H212.704L217.634 173.574L217.551 173.441H217.7L222.613 181.972Z" fill="#32F6B8" fill-opacity="0.5647"/>
</g>
</g>
<path d="M183.713 206.493V197.218H187.683V198.629H185.108V201.158H186.994V202.569H185.108V205.083H187.683V206.493H183.713Z" fill="#090909"/>
<path d="M191.181 199.35L190.66 202.999H191.702L191.181 199.35ZM190.445 204.363L190.108 206.494H188.651L190.23 197.235H192.147L193.695 206.494H192.223L191.901 204.363H190.445Z" fill="#090909"/>
<path d="M197.915 199.461C197.915 198.925 197.655 198.649 197.118 198.649H196.275V201.608H197.118C197.333 201.608 197.532 201.531 197.685 201.378C197.839 201.224 197.915 201.025 197.915 200.81V199.461ZM197.087 197.223C197.869 197.223 198.437 197.438 198.804 197.867C199.126 198.235 199.28 198.772 199.28 199.431V200.78C199.28 201.439 199.034 201.991 198.529 202.451L199.571 206.498H198.053L197.21 203.003H197.087H196.275V206.498H194.88V197.238H197.087V197.223Z" fill="#090909"/>
<path d="M201.789 198.634H200.302V197.223H204.671V198.634H203.184V206.498H201.789V198.634Z" fill="#090909"/>
<path d="M207.186 202.567V206.491H205.791V197.232H207.186V201.156H208.872V197.216H210.267V206.476H208.872V202.567H207.186Z" fill="#090909"/>
<path d="M215.325 206.493H211.523V197.234H212.919V205.098H215.325V206.493Z" fill="#090909"/>
<path d="M216.427 202.612L214.557 197.215H216.09L217.132 200.542L218.159 197.215H219.708L217.822 202.612V206.49H216.427V202.612Z" fill="#090909"/>
<path d="M213.698 211.668C213.698 211.132 213.437 210.856 212.9 210.856H212.057V213.815H212.9C213.115 213.815 213.314 213.738 213.468 213.585C213.621 213.431 213.698 213.232 213.698 213.017V211.668ZM212.87 209.43C213.652 209.43 214.219 209.645 214.587 210.074C214.909 210.442 215.062 210.979 215.062 211.638V212.987C215.062 213.646 214.817 214.198 214.311 214.658L215.353 218.705H213.836L212.992 215.21H212.87H212.057V218.705H210.662V209.446H212.87V209.43Z" fill="#49728B"/>
<path d="M206.992 211.557L206.471 215.206H207.514L206.992 211.557ZM206.257 216.57L205.919 218.701H204.463L206.042 209.442H207.958L209.507 218.701H208.035L207.713 216.57H206.257Z" fill="#49728B"/>
<path d="M200.225 213.704V218.697H198.83V209.438H200.225L201.911 214.327V209.422H203.307V218.682H201.911L200.225 213.704Z" fill="#49728B"/>
<path d="M195.264 218.697C194.123 218.697 193.197 217.772 193.197 216.63V209.438H194.592V216.456C194.592 216.922 194.97 217.299 195.436 217.299C195.901 217.299 196.279 216.922 196.279 216.456V209.422H197.674V216.615C197.674 217.759 196.751 218.689 195.607 218.697H195.264Z" fill="#49728B"/>
<path d="M188.071 218.699V209.424H189.466V210.835V213.364V214.775V217.289H192.042V218.699H188.071Z" fill="#49728B"/>
</g>
<g clip-path="url(#clip2_6883_7343)">
<rect x="168.536" y="228.787" width="64" height="3" rx="1.5" fill="#DFDFDF"/>
<rect x="168.536" y="228.234" width="53.8374" height="4.1052" fill="url(#paint7_linear_6883_7343)"/>
</g>
<path d="M151.52 194.288L142.027 200.191C141.629 195.546 141.622 192.96 142.027 188.386L151.52 194.288Z" fill="#00D6FF"/>
<path d="M244.637 194.288L254.129 200.191C254.527 195.546 254.534 192.96 254.129 188.386L244.637 194.288Z" fill="#00D6FF"/>
<g filter="url(#filter2_d_6883_7343)">
<rect x="57.624" y="132.735" width="40.0764" height="40.0764" rx="20.0382" transform="rotate(-64.816 57.624 132.735)" fill="#FDFDFD"/>
<rect x="58.6114" y="132.38" width="38.592" height="38.592" rx="19.296" transform="rotate(-64.816 58.6114 132.38)" stroke="#00D6FF" stroke-opacity="0.24" stroke-width="1.48431"/>
<path d="M84.2843 132.118L87.8747 121.057H80.6992L84.2843 132.118Z" fill="#E24329"/>
<path d="M75.6698 121.057L74.5765 124.417C74.4775 124.722 74.5844 125.059 74.8455 125.249L84.2839 132.118L75.6698 121.057Z" fill="#FCA326"/>
<path d="M75.6699 121.057H80.6988L78.5345 114.395C78.4238 114.054 77.941 114.054 77.8263 114.395L75.6699 121.057Z" fill="#E24329"/>
<path d="M92.9035 121.057L93.9929 124.417C94.0919 124.722 93.985 125.059 93.7239 125.249L84.2842 132.118L92.9035 121.057Z" fill="#FCA326"/>
<path d="M92.9029 121.057H87.874L90.0343 114.395C90.1451 114.054 90.6279 114.054 90.7426 114.395L92.9029 121.057Z" fill="#E24329"/>
<path d="M84.2842 132.118L87.8745 121.057H92.9035L84.2842 132.118Z" fill="#FC6D26"/>
<path d="M84.2839 132.118L75.6699 121.057H80.6988L84.2839 132.118Z" fill="#FC6D26"/>
</g>
<g filter="url(#filter3_d_6883_7343)">
<rect x="57.624" y="271.734" width="40.0764" height="40.0764" rx="20.0382" transform="rotate(-64.816 57.624 271.734)" fill="#FDFDFD"/>
<rect x="58.6114" y="271.379" width="38.592" height="38.592" rx="19.296" transform="rotate(-64.816 58.6114 271.379)" stroke="#00D6FF" stroke-opacity="0.24" stroke-width="1.48431"/>
<g clip-path="url(#clip3_6883_7343)">
<path d="M84.2849 252.479C78.8293 252.479 74.4053 256.903 74.4053 262.359C74.4053 266.724 77.2361 270.428 81.1616 271.734C81.6553 271.825 81.8366 271.52 81.8366 271.259C81.8366 271.023 81.8274 270.245 81.8232 269.419C79.0747 270.017 78.4947 268.254 78.4947 268.254C78.0453 267.112 77.3977 266.808 77.3977 266.808C76.5014 266.195 77.4653 266.207 77.4653 266.207C78.4574 266.277 78.9798 267.226 78.9798 267.226C79.8609 268.736 81.291 268.299 81.8548 268.047C81.9434 267.408 82.1995 266.972 82.482 266.726C80.2876 266.476 77.9808 265.629 77.9808 261.843C77.9808 260.765 78.3668 259.883 78.9987 259.191C78.8962 258.942 78.558 257.938 79.0945 256.577C79.0945 256.577 79.9241 256.311 81.8121 257.589C82.6001 257.371 83.4453 257.261 84.2849 257.257C85.1245 257.261 85.9704 257.371 86.7599 257.589C88.6456 256.311 89.4741 256.577 89.4741 256.577C90.0118 257.938 89.6735 258.942 89.5709 259.191C90.2044 259.883 90.5877 260.765 90.5877 261.843C90.5877 265.638 88.2765 266.473 86.0765 266.718C86.4309 267.024 86.7466 267.626 86.7466 268.547C86.7466 269.869 86.7352 270.933 86.7352 271.259C86.7352 271.522 86.913 271.83 87.4138 271.733C91.3372 270.425 94.1644 266.723 94.1644 262.359C94.1644 256.903 89.7411 252.479 84.2849 252.479ZM78.1055 266.553C78.0838 266.602 78.0065 266.617 77.9362 266.583C77.8645 266.551 77.8243 266.484 77.8475 266.435C77.8688 266.384 77.9462 266.37 78.0177 266.404C78.0895 266.436 78.1304 266.504 78.1055 266.553ZM78.5915 266.987C78.5444 267.031 78.4523 267.01 78.3898 266.941C78.3251 266.872 78.313 266.78 78.3608 266.736C78.4094 266.692 78.4987 266.713 78.5635 266.782C78.6281 266.851 78.6407 266.943 78.5915 266.987ZM78.9249 267.542C78.8643 267.584 78.7654 267.544 78.7042 267.456C78.6436 267.369 78.6436 267.263 78.7055 267.221C78.7668 267.179 78.8643 267.217 78.9264 267.304C78.9867 267.393 78.9867 267.499 78.9249 267.542ZM79.4887 268.184C79.4346 268.244 79.3192 268.228 79.2348 268.146C79.1484 268.067 79.1244 267.954 79.1787 267.894C79.2335 267.834 79.3495 267.851 79.4346 267.932C79.5203 268.011 79.5465 268.125 79.4887 268.184ZM80.2174 268.401C80.1935 268.479 80.0825 268.514 79.9706 268.481C79.8588 268.447 79.7857 268.356 79.8083 268.278C79.8315 268.2 79.9431 268.164 80.0558 268.199C80.1674 268.232 80.2407 268.322 80.2174 268.401ZM81.0467 268.493C81.0495 268.575 80.9546 268.642 80.8372 268.644C80.719 268.646 80.6235 268.58 80.6222 268.5C80.6222 268.418 80.7149 268.351 80.8331 268.349C80.9505 268.347 81.0467 268.412 81.0467 268.493ZM81.8614 268.462C81.8755 268.541 81.7939 268.623 81.6772 268.645C81.5625 268.666 81.4563 268.617 81.4418 268.538C81.4275 268.456 81.5107 268.375 81.6252 268.354C81.742 268.333 81.8465 268.381 81.8614 268.462Z" fill="#161614"/>
</g>
</g>
<path d="M54.4423 189.486C53.6382 190.222 52.61 190.59 51.3575 190.59C49.8078 190.59 48.5895 190.093 47.7026 189.099C46.8157 188.1 46.3722 186.73 46.3722 184.99C46.3722 183.109 46.8766 181.66 47.8854 180.641C48.7625 179.754 49.8785 179.311 51.2333 179.311C53.0461 179.311 54.3716 179.905 55.2098 181.094C55.6728 181.762 55.9213 182.432 55.9554 183.104H53.704C53.5578 182.588 53.3702 182.198 53.1411 181.935C52.7318 181.467 52.1251 181.233 51.321 181.233C50.5023 181.233 49.8566 181.564 49.3839 182.227C48.9112 182.885 48.6748 183.818 48.6748 185.027C48.6748 186.235 48.9234 187.142 49.4204 187.746C49.9224 188.346 50.5583 188.645 51.3283 188.645C52.1178 188.645 52.7196 188.387 53.1338 187.87C53.3629 187.593 53.5529 187.176 53.704 186.62H55.9335C55.7386 187.795 55.2415 188.75 54.4423 189.486ZM63.6861 183.331C64.3586 184.174 64.6948 185.171 64.6948 186.321C64.6948 187.49 64.3586 188.492 63.6861 189.325C63.0136 190.154 61.9926 190.568 60.6232 190.568C59.2539 190.568 58.2329 190.154 57.5604 189.325C56.8879 188.492 56.5516 187.49 56.5516 186.321C56.5516 185.171 56.8879 184.174 57.5604 183.331C58.2329 182.488 59.2539 182.066 60.6232 182.066C61.9926 182.066 63.0136 182.488 63.6861 183.331ZM60.6159 183.828C60.0068 183.828 59.5365 184.045 59.2051 184.479C58.8786 184.908 58.7154 185.522 58.7154 186.321C58.7154 187.12 58.8786 187.736 59.2051 188.17C59.5365 188.604 60.0068 188.821 60.6159 188.821C61.2251 188.821 61.6929 188.604 62.0194 188.17C62.3459 187.736 62.5092 187.12 62.5092 186.321C62.5092 185.522 62.3459 184.908 62.0194 184.479C61.6929 184.045 61.2251 183.828 60.6159 183.828ZM72.9956 179.53V190.29H70.9708V189.186C70.6735 189.659 70.3348 190.003 69.9547 190.217C69.5746 190.431 69.1019 190.539 68.5366 190.539C67.6058 190.539 66.8212 190.163 66.1828 189.413C65.5493 188.658 65.2325 187.69 65.2325 186.511C65.2325 185.151 65.5444 184.082 66.1682 183.302C66.7969 182.522 67.6351 182.132 68.6828 182.132C69.1653 182.132 69.5941 182.239 69.9693 182.454C70.3446 182.663 70.6492 182.956 70.8831 183.331V179.53H72.9956ZM67.3816 186.357C67.3816 187.093 67.5278 187.68 67.8202 188.119C68.1078 188.562 68.5464 188.784 69.136 188.784C69.7257 188.784 70.174 188.565 70.481 188.126C70.788 187.688 70.9416 187.12 70.9416 186.423C70.9416 185.448 70.6955 184.752 70.2033 184.332C69.9011 184.079 69.5502 183.952 69.1506 183.952C68.5415 183.952 68.0931 184.184 67.8056 184.647C67.523 185.105 67.3816 185.675 67.3816 186.357ZM81.2672 187.951C81.2136 188.424 80.9675 188.904 80.5289 189.391C79.8466 190.166 78.8915 190.553 77.6634 190.553C76.6498 190.553 75.7555 190.227 74.9807 189.574C74.2058 188.921 73.8184 187.858 73.8184 186.387C73.8184 185.007 74.1669 183.95 74.8637 183.214C75.5655 182.478 76.4743 182.11 77.5903 182.11C78.2531 182.11 78.8501 182.235 79.3812 182.483C79.9124 182.732 80.351 183.124 80.697 183.66C81.0089 184.133 81.2111 184.681 81.3037 185.305C81.3573 185.67 81.3793 186.197 81.3695 186.884H75.9164C75.9456 187.683 76.1966 188.243 76.6693 188.565C76.9568 188.765 77.3028 188.865 77.7073 188.865C78.1361 188.865 78.4846 188.743 78.7526 188.499C78.8988 188.368 79.0279 188.185 79.14 187.951H81.2672ZM79.2058 185.509C79.1717 184.959 79.0036 184.542 78.7014 184.259C78.4041 183.972 78.0338 183.828 77.5903 183.828C77.1079 183.828 76.7326 183.979 76.4646 184.281C76.2014 184.583 76.0358 184.993 75.9675 185.509H79.2058ZM48.6362 209.29H43.7532V198.515H48.9871C50.3077 198.535 51.2434 198.917 51.7941 199.663C52.1255 200.121 52.2912 200.669 52.2912 201.308C52.2912 201.966 52.1255 202.494 51.7941 202.894C51.6089 203.118 51.336 203.323 50.9754 203.508C51.5261 203.708 51.9403 204.024 52.2181 204.458C52.5007 204.892 52.642 205.418 52.642 206.037C52.642 206.676 52.4812 207.248 52.1596 207.755C51.9549 208.091 51.6991 208.374 51.392 208.603C51.046 208.866 50.6367 209.046 50.164 209.144C49.6962 209.241 49.1869 209.29 48.6362 209.29ZM48.5851 204.546H45.9023V207.419H48.5485C49.0212 207.419 49.3891 207.355 49.6523 207.229C50.1299 206.995 50.3687 206.546 50.3687 205.884C50.3687 205.323 50.1372 204.938 49.6742 204.729C49.4159 204.612 49.0529 204.551 48.5851 204.546ZM49.7035 202.492C49.9959 202.316 50.1421 202.002 50.1421 201.549C50.1421 201.047 49.9471 200.716 49.5573 200.555C49.221 200.443 48.7922 200.387 48.2707 200.387H45.9023V202.762H48.5485C49.0212 202.762 49.4062 202.672 49.7035 202.492ZM54.2177 202.185C54.7684 201.483 55.7138 201.132 57.054 201.132C57.9263 201.132 58.7011 201.305 59.3785 201.651C60.0559 201.997 60.3946 202.65 60.3946 203.61V207.265C60.3946 207.519 60.3995 207.826 60.4092 208.186C60.4238 208.459 60.4652 208.644 60.5335 208.742C60.6017 208.839 60.704 208.92 60.8405 208.983V209.29H58.5744C58.5111 209.129 58.4672 208.978 58.4428 208.837C58.4185 208.696 58.399 208.535 58.3844 208.354C58.0968 208.666 57.7655 208.932 57.3902 209.151C56.9419 209.409 56.4351 209.539 55.8698 209.539C55.1485 209.539 54.5516 209.334 54.0789 208.925C53.611 208.51 53.3771 207.926 53.3771 207.17C53.3771 206.191 53.7548 205.482 54.5101 205.043C54.9244 204.804 55.5335 204.634 56.3376 204.531L57.0467 204.444C57.4316 204.395 57.707 204.334 57.8727 204.261C58.1699 204.134 58.3186 203.937 58.3186 203.669C58.3186 203.342 58.2041 203.118 57.975 202.996C57.7508 202.87 57.4195 202.806 56.9809 202.806C56.4887 202.806 56.1402 202.928 55.9356 203.172C55.7894 203.352 55.6919 203.596 55.6432 203.903H53.633C53.6768 203.206 53.8717 202.633 54.2177 202.185ZM55.7674 207.784C55.9624 207.945 56.2012 208.025 56.4838 208.025C56.9321 208.025 57.3439 207.894 57.7192 207.631C58.0993 207.368 58.2966 206.888 58.3113 206.191V205.416C58.1797 205.499 58.0457 205.567 57.9092 205.62C57.7776 205.669 57.5949 205.716 57.361 205.759L56.8932 205.847C56.4546 205.925 56.1402 206.02 55.9502 206.132C55.6285 206.322 55.4677 206.617 55.4677 207.017C55.4677 207.372 55.5676 207.628 55.7674 207.784ZM67.2919 201.688C67.9157 202.087 68.2738 202.775 68.3664 203.749H66.2831C66.2539 203.481 66.1783 203.269 66.0565 203.113C65.8275 202.831 65.4376 202.689 64.8869 202.689C64.4337 202.689 64.1097 202.76 63.9147 202.901C63.7247 203.043 63.6296 203.208 63.6296 203.398C63.6296 203.637 63.732 203.81 63.9367 203.917C64.1413 204.029 64.865 204.222 66.1077 204.495C66.9361 204.69 67.5575 204.985 67.9717 205.379C68.3811 205.779 68.5857 206.278 68.5857 206.878C68.5857 207.667 68.2909 208.313 67.7012 208.815C67.1164 209.312 66.21 209.561 64.982 209.561C63.7295 209.561 62.8036 209.297 62.2042 208.771C61.6097 208.24 61.3124 207.565 61.3124 206.746H63.425C63.4688 207.117 63.5638 207.38 63.71 207.536C63.9683 207.813 64.4459 207.952 65.1428 207.952C65.5521 207.952 65.8762 207.891 66.115 207.77C66.3587 207.648 66.4805 207.465 66.4805 207.221C66.4805 206.987 66.383 206.81 66.1881 206.688C65.9932 206.566 65.2695 206.356 64.0171 206.059C63.1155 205.835 62.4796 205.555 62.1092 205.218C61.7388 204.887 61.5536 204.409 61.5536 203.786C61.5536 203.05 61.8412 202.419 62.4162 201.892C62.9961 201.361 63.8099 201.096 64.8577 201.096C65.8518 201.096 66.6632 201.293 67.2919 201.688ZM76.5064 206.951C76.4528 207.424 76.2067 207.904 75.7681 208.391C75.0859 209.166 74.1307 209.553 72.9026 209.553C71.889 209.553 70.9948 209.227 70.2199 208.574C69.4451 207.921 69.0577 206.858 69.0577 205.387C69.0577 204.007 69.4061 202.95 70.103 202.214C70.8047 201.478 71.7136 201.11 72.8295 201.11C73.4923 201.11 74.0893 201.235 74.6205 201.483C75.1516 201.732 75.5902 202.124 75.9362 202.66C76.2481 203.133 76.4504 203.681 76.543 204.305C76.5966 204.67 76.6185 205.197 76.6087 205.884H71.1556C71.1848 206.683 71.4358 207.243 71.9085 207.565C72.196 207.765 72.542 207.865 72.9465 207.865C73.3753 207.865 73.7238 207.743 73.9918 207.499C74.138 207.368 74.2672 207.185 74.3792 206.951H76.5064ZM74.445 204.509C74.4109 203.959 74.2428 203.542 73.9406 203.259C73.6434 202.972 73.273 202.828 72.8295 202.828C72.3471 202.828 71.9719 202.979 71.7038 203.281C71.4407 203.583 71.275 203.993 71.2068 204.509H74.445ZM83.0601 201.688C83.6839 202.087 84.0421 202.775 84.1347 203.749H82.0514C82.0221 203.481 81.9466 203.269 81.8248 203.113C81.5957 202.831 81.2059 202.689 80.6552 202.689C80.202 202.689 79.8779 202.76 79.683 202.901C79.4929 203.043 79.3979 203.208 79.3979 203.398C79.3979 203.637 79.5002 203.81 79.7049 203.917C79.9096 204.029 80.6333 204.222 81.8759 204.495C82.7044 204.69 83.3257 204.985 83.74 205.379C84.1493 205.779 84.354 206.278 84.354 206.878C84.354 207.667 84.0592 208.313 83.4695 208.815C82.8847 209.312 81.9783 209.561 80.7502 209.561C79.4978 209.561 78.5719 209.297 77.9725 208.771C77.3779 208.24 77.0807 207.565 77.0807 206.746H79.1932C79.2371 207.117 79.3321 207.38 79.4783 207.536C79.7366 207.813 80.2142 207.952 80.911 207.952C81.3204 207.952 81.6445 207.891 81.8833 207.77C82.1269 207.648 82.2487 207.465 82.2487 207.221C82.2487 206.987 82.1513 206.81 81.9564 206.688C81.7614 206.566 81.0377 206.356 79.7853 206.059C78.8838 205.835 78.2478 205.555 77.8774 205.218C77.5071 204.887 77.3219 204.409 77.3219 203.786C77.3219 203.05 77.6094 202.419 78.1845 201.892C78.7644 201.361 79.5782 201.096 80.626 201.096C81.6201 201.096 82.4315 201.293 83.0601 201.688Z" fill="#111827"/>
<g filter="url(#filter4_d_6883_7343)">
<rect x="299.622" y="329.663" width="271" height="271" rx="135.5" transform="rotate(-90 299.622 329.663)" fill="#FDFDFD"/>
<rect x="299.974" y="329.311" width="270.296" height="270.296" rx="135.148" transform="rotate(-90 299.974 329.311)" stroke="#C0F4FD" stroke-width="0.704123"/>
</g>
<g filter="url(#filter5_d_6883_7343)">
<g clip-path="url(#clip4_6883_7343)">
<rect x="334.393" y="317.735" width="40.0764" height="40.0764" rx="20.0382" transform="rotate(-64.816 334.393 317.735)" fill="#FDFDFD"/>
<path fill-rule="evenodd" clip-rule="evenodd" d="M368.021 307.943C368.021 311.803 364.963 314.933 361.191 314.933C357.419 314.933 354.361 311.803 354.361 307.943C354.361 304.082 357.419 300.952 361.191 300.952C364.963 300.952 368.021 304.082 368.021 307.943Z" fill="#D33833"/>
<path d="M354.64 309.673C354.64 309.673 354.145 302.383 360.858 302.175L360.39 301.394L356.747 302.617L355.706 303.815L354.796 305.559L354.275 307.59L354.432 308.944" fill="#EF3D3A"/>
<path d="M356.514 303.174C355.315 304.4 354.574 306.094 354.574 307.968C354.574 309.842 355.315 311.536 356.514 312.763C357.713 313.989 359.365 314.746 361.191 314.746C363.018 314.746 364.671 313.989 365.869 312.763C367.068 311.536 367.809 309.842 367.809 307.968C367.809 306.094 367.068 304.4 365.869 303.174C364.671 301.947 363.018 301.19 361.191 301.19C359.365 301.19 357.713 301.947 356.514 303.174ZM356.21 313.059C354.937 311.756 354.149 309.955 354.149 307.968C354.149 305.981 354.937 304.18 356.21 302.877C357.484 301.573 359.246 300.765 361.191 300.766C363.137 300.765 364.9 301.573 366.173 302.877C367.446 304.18 368.234 305.981 368.234 307.968C368.234 309.955 367.446 311.756 366.173 313.059C364.9 314.363 363.137 315.171 361.191 315.171C359.246 315.171 357.484 314.363 356.21 313.059Z" fill="#231F20"/>
<path fill-rule="evenodd" clip-rule="evenodd" d="M364.066 307.98L363.025 308.136L361.62 308.292L360.709 308.318L359.825 308.292L359.148 308.084L358.55 307.433L358.082 306.106L357.977 305.819L357.353 305.611L356.989 305.012L356.729 304.153L357.015 303.398L357.691 303.164L358.238 303.424L358.498 303.997L358.81 303.945L358.914 303.814L358.81 303.216L358.784 302.461L358.94 301.419L358.934 300.824L359.408 300.065L360.241 299.467L361.698 298.842L363.311 299.076L364.716 300.091L365.367 301.133L365.783 301.888L365.887 303.762L365.575 305.377L365.003 306.808L364.456 307.564" fill="#F0D6B7"/>
<path fill-rule="evenodd" clip-rule="evenodd" d="M363.182 312.485L359.461 312.641V313.266L359.774 315.453L359.617 315.635L357.016 314.75L356.833 314.437L356.573 311.495L355.975 309.725L355.845 309.309L357.926 307.877L358.577 307.616L359.149 308.319L359.643 308.762L360.216 308.944L360.476 309.022L360.788 310.376L361.022 310.662L361.621 310.454L361.205 311.261L363.468 312.329L363.182 312.485Z" fill="#335061"/>
<path fill-rule="evenodd" clip-rule="evenodd" d="M357.014 303.399L357.691 303.165L358.237 303.425L358.497 303.998L358.81 303.946L358.888 303.633L358.732 303.035L358.888 301.603L358.758 300.821L359.226 300.275L360.241 299.468L359.954 299.077L358.523 299.78L357.925 300.249L357.587 300.978L357.066 301.681L356.91 302.514L357.014 303.399Z" fill="#6D6B6D"/>
<path fill-rule="evenodd" clip-rule="evenodd" d="M358.083 300.951C358.083 300.951 358.473 299.988 360.034 299.519C361.595 299.051 360.112 299.181 360.112 299.181L358.421 299.832L357.771 300.482L357.484 301.003L358.083 300.951Z" fill="#DCD9D8"/>
<path fill-rule="evenodd" clip-rule="evenodd" d="M357.301 303.217C357.301 303.217 356.755 301.394 358.837 301.134L358.759 300.821L357.327 301.16L356.911 302.514L357.015 303.399L357.301 303.217Z" fill="#DCD9D8"/>
<path fill-rule="evenodd" clip-rule="evenodd" d="M358.134 305.637L358.474 305.307C358.474 305.307 358.628 305.325 358.654 305.507C358.68 305.689 358.758 307.329 359.877 308.214C359.979 308.295 359.045 308.084 359.045 308.084L358.212 306.783" fill="#F7E4CD"/>
<path fill-rule="evenodd" clip-rule="evenodd" d="M362.922 305.144C362.922 305.144 362.983 304.354 363.196 304.414C363.408 304.475 363.408 304.688 363.408 304.688C363.408 304.688 362.892 305.022 362.922 305.144Z" fill="#F7E4CD"/>
<path d="M365.081 302.253C365.081 302.253 364.652 302.344 364.613 302.722C364.573 303.101 365.081 302.8 365.159 302.774" fill="#F7E4CD"/>
<path d="M361.932 302.278C361.932 302.278 361.359 302.356 361.359 302.721C361.359 303.086 362.01 303.06 362.193 302.904" fill="#F7E4CD"/>
<path fill-rule="evenodd" clip-rule="evenodd" d="M358.394 303.972C358.394 303.972 357.406 303.373 357.302 303.946C357.197 304.519 356.963 304.935 357.458 305.534L357.119 305.43L356.807 304.623L356.703 303.842L357.302 303.217L357.978 303.269L358.368 303.581L358.394 303.972Z" fill="#F7E4CD"/>
<path fill-rule="evenodd" clip-rule="evenodd" d="M358.862 302.331C358.862 302.331 359.305 300.04 361.542 299.597C363.385 299.233 364.352 299.675 364.717 300.092C364.717 300.092 363.077 298.139 361.516 298.738C359.955 299.337 358.81 300.43 358.836 301.133C358.881 302.33 358.862 302.331 358.862 302.331Z" fill="#F7E4CD"/>
<path fill-rule="evenodd" clip-rule="evenodd" d="M364.899 300.353C364.899 300.353 364.144 300.327 364.118 301.004C364.118 301.004 364.118 301.108 364.17 301.213C364.17 301.213 364.769 300.535 365.134 300.9" fill="#F7E4CD"/>
<path fill-rule="evenodd" clip-rule="evenodd" d="M361.595 301.282C361.595 301.282 361.465 300.243 360.58 300.847C360.007 301.238 360.059 301.784 360.163 301.889C360.267 301.993 360.239 302.203 360.318 302.059C360.397 301.915 360.371 301.446 360.658 301.316C360.944 301.185 361.413 301.04 361.595 301.282Z" fill="#F7E4CD"/>
<path fill-rule="evenodd" clip-rule="evenodd" d="M359.149 308.32L356.703 309.413C356.703 309.413 357.718 313.449 357.198 314.698L356.833 314.568L356.807 313.032L356.131 310.116L355.845 309.309L358.395 307.591L359.149 308.32Z" fill="#49728B"/>
<path fill-rule="evenodd" clip-rule="evenodd" d="M359.401 310.551L359.748 310.974V312.537H359.331C359.331 312.537 359.279 311.443 359.279 311.313C359.279 311.183 359.331 310.714 359.331 310.714" fill="#49728B"/>
<path fill-rule="evenodd" clip-rule="evenodd" d="M359.41 312.771L358.238 312.824L358.577 313.058L359.41 313.188" fill="#49728B"/>
<path fill-rule="evenodd" clip-rule="evenodd" d="M363.416 312.511L364.379 312.485L364.613 314.881L363.624 315.011L363.416 312.511Z" fill="#335061"/>
<path fill-rule="evenodd" clip-rule="evenodd" d="M363.676 312.511L365.133 312.433C365.133 312.433 365.731 310.923 365.731 310.844C365.731 310.766 366.252 308.657 366.252 308.657L365.081 307.434L364.847 307.226L364.222 307.85V310.272L363.676 312.511Z" fill="#335061"/>
<path fill-rule="evenodd" clip-rule="evenodd" d="M364.327 312.328L363.416 312.511L363.546 313.24C363.885 313.396 364.458 312.98 364.458 312.98" fill="#49728B"/>
<path fill-rule="evenodd" clip-rule="evenodd" d="M364.353 307.772L366.174 309.126L366.226 308.501L364.847 307.226L364.353 307.772Z" fill="#49728B"/>
<path fill-rule="evenodd" clip-rule="evenodd" d="M360.312 317.64L359.773 315.453L359.505 313.839L359.461 312.641L361.899 312.511L363.416 312.511L363.278 315.245L363.512 317.353L363.486 317.744L361.509 317.9L360.312 317.64Z" fill="white"/>
<path fill-rule="evenodd" clip-rule="evenodd" d="M363.077 312.484C363.077 312.484 362.947 315.192 363.338 317.119C363.338 317.119 362.557 317.613 361.412 317.743L363.598 317.665L363.858 317.509L363.546 313.239L363.468 312.328" fill="#DCD9D8"/>
<path fill-rule="evenodd" clip-rule="evenodd" d="M364.657 314.672L365.672 314.386L367.598 314.282L367.884 313.396L367.363 311.86L366.765 311.782L365.932 312.043L365.133 312.433L364.709 312.355L364.379 312.485" fill="white"/>
<path fill-rule="evenodd" clip-rule="evenodd" d="M364.639 314.151C364.639 314.151 365.315 313.839 365.419 313.865L365.133 312.433L365.471 312.303C365.471 312.303 365.705 313.657 365.705 313.813C365.705 313.813 367.163 313.891 367.293 313.891C367.293 313.891 367.605 313.292 367.527 312.667L367.813 313.5L367.839 313.969L367.423 314.594L366.954 314.698L366.174 314.672L365.914 314.333L365.003 314.464L364.717 314.568" fill="#DCD9D8"/>
<path d="M363.616 312.303L363.044 310.845L362.445 309.986C362.445 309.986 362.575 309.621 362.758 309.621C362.94 309.621 363.356 309.621 363.356 309.621L363.928 309.829L363.876 310.793L363.616 312.303Z" fill="white"/>
<path fill-rule="evenodd" clip-rule="evenodd" d="M363.728 311.807C363.728 311.807 363 310.402 363 310.193C363 310.193 363.13 309.881 363.312 309.959C363.494 310.037 363.884 310.245 363.884 310.245V309.751L363 309.568L362.401 309.646L363.416 312.042L363.624 312.068" fill="#DCD9D8"/>
<path d="M360.546 308.372L359.825 308.293L359.148 308.085V308.319L359.479 308.684L360.52 309.153" fill="white"/>
<path fill-rule="evenodd" clip-rule="evenodd" d="M359.383 308.449C359.383 308.449 360.19 308.788 360.45 308.71L360.476 309.022L359.747 308.866L359.305 308.553L359.383 308.449Z" fill="#DCD9D8"/>
<path fill-rule="evenodd" clip-rule="evenodd" d="M364.654 309.71C364.213 309.697 363.814 309.644 363.465 309.546C363.488 309.402 363.444 309.262 363.48 309.159C363.577 309.088 363.74 309.089 363.887 309.073C363.76 309.01 363.581 308.986 363.434 309.022C363.431 308.922 363.386 308.861 363.359 308.783C363.608 308.694 364.194 308.113 364.523 308.305C364.681 308.397 364.747 308.92 364.759 309.174C364.77 309.385 364.74 309.598 364.654 309.71Z" fill="#D33833"/>
<path d="M364.654 309.71C364.213 309.697 363.814 309.644 363.465 309.546C363.488 309.402 363.444 309.262 363.48 309.159C363.577 309.088 363.74 309.089 363.887 309.073C363.76 309.01 363.581 308.986 363.434 309.022C363.431 308.922 363.386 308.861 363.359 308.783C363.608 308.694 364.194 308.113 364.523 308.305C364.681 308.397 364.747 308.92 364.759 309.174C364.77 309.385 364.74 309.598 364.654 309.71Z" stroke="#D33833" stroke-width="1.07425"/>
<path fill-rule="evenodd" clip-rule="evenodd" d="M362.543 308.987C362.542 309.021 362.541 309.054 362.539 309.088C362.401 309.179 362.179 309.177 362.028 309.254C362.251 309.263 362.426 309.317 362.578 309.393C362.575 309.477 362.571 309.561 362.568 309.645C362.316 309.818 362.085 310.076 361.787 310.238C361.647 310.315 361.153 310.513 361.003 310.478C360.919 310.458 360.911 310.353 360.877 310.254C360.805 310.042 360.639 309.704 360.625 309.384C360.606 308.981 360.565 308.305 361 308.388C361.35 308.455 361.758 308.616 362.03 308.765C362.196 308.856 362.291 308.968 362.543 308.987Z" fill="#D33833"/>
<path d="M362.543 308.987C362.542 309.021 362.541 309.054 362.539 309.088C362.401 309.179 362.179 309.177 362.028 309.254C362.251 309.263 362.426 309.317 362.578 309.393C362.575 309.477 362.571 309.561 362.568 309.645C362.316 309.818 362.085 310.076 361.787 310.238C361.647 310.315 361.153 310.513 361.003 310.478C360.919 310.458 360.911 310.353 360.877 310.254C360.805 310.042 360.639 309.704 360.625 309.384C360.606 308.981 360.565 308.305 361 308.388C361.35 308.455 361.758 308.616 362.03 308.765C362.196 308.856 362.291 308.968 362.543 308.987Z" stroke="#D33833" stroke-width="1.07425"/>
<path fill-rule="evenodd" clip-rule="evenodd" d="M362.794 309.469C362.756 309.249 362.711 309.186 362.728 308.994C363.315 308.603 363.425 309.667 362.794 309.469Z" fill="#D33833"/>
<path d="M362.794 309.469C362.756 309.249 362.711 309.186 362.728 308.994C363.315 308.603 363.425 309.667 362.794 309.469Z" stroke="#D33833" stroke-width="1.07425"/>
<path fill-rule="evenodd" clip-rule="evenodd" d="M363.643 309.647C363.643 309.647 363.46 309.387 363.591 309.309C363.721 309.231 363.851 309.309 363.929 309.179C364.007 309.048 363.929 308.97 363.955 308.814C363.981 308.658 364.111 308.632 364.241 308.606C364.371 308.58 364.736 308.528 364.788 308.658L364.632 308.189L364.319 308.085L363.33 308.658L363.278 308.944V309.517" fill="#EF3D3A"/>
<path fill-rule="evenodd" clip-rule="evenodd" d="M360.911 310.507C360.88 310.1 360.847 309.695 360.81 309.289C360.755 308.683 360.956 308.789 361.481 308.789C361.561 308.789 361.974 308.884 362.004 308.945C362.146 309.235 361.767 309.17 362.168 309.389C362.506 309.574 363.103 309.277 362.967 308.867C362.89 308.775 362.568 308.838 362.453 308.778C362.249 308.673 362.046 308.567 361.843 308.462C361.584 308.328 360.987 308.132 360.711 308.32C360.012 308.795 360.755 309.983 361.004 310.479" fill="#EF3D3A"/>
<path fill-rule="evenodd" clip-rule="evenodd" d="M361.595 301.282C360.886 301.117 360.533 301.579 360.318 302.058C360.126 302.012 360.203 301.751 360.251 301.618C360.378 301.268 360.89 300.803 361.308 300.866C361.488 300.893 361.731 301.058 361.595 301.282Z" fill="#231F20"/>
<path fill-rule="evenodd" clip-rule="evenodd" d="M365.05 302.091C365.061 302.091 365.072 302.092 365.083 302.092C365.243 302.425 365.382 302.778 365.584 303.072C365.449 303.388 364.559 303.667 364.572 303.101C364.765 303.016 365.097 303.083 365.268 302.976C365.169 302.705 365.027 302.474 365.05 302.091Z" fill="#231F20"/>
<path fill-rule="evenodd" clip-rule="evenodd" d="M361.958 302.099C362.11 302.378 362.16 302.671 362.376 302.882C362.473 302.976 362.662 303.092 362.569 303.356C362.547 303.418 362.386 303.557 362.294 303.584C361.956 303.684 361.168 303.605 361.435 303.183C361.715 303.197 362.09 303.365 362.299 303.162C362.139 302.905 361.853 302.398 361.958 302.099Z" fill="#231F20"/>
<path fill-rule="evenodd" clip-rule="evenodd" d="M364.924 304.934C364.415 305.261 363.848 305.616 363.014 305.534C362.836 305.379 362.768 305.034 362.941 304.806C363.031 304.961 362.975 305.246 363.226 305.289C363.699 305.37 364.249 305 364.59 304.87C364.801 304.514 364.571 304.383 364.381 304.154C363.992 303.685 363.47 303.103 363.489 302.401C363.646 302.286 363.66 302.575 363.683 302.627C363.886 303.103 364.397 303.712 364.77 304.119C364.862 304.219 365.013 304.315 365.03 304.382C365.078 304.574 364.904 304.805 364.924 304.934Z" fill="#231F20"/>
<path fill-rule="evenodd" clip-rule="evenodd" d="M358.217 304.591C358.057 304.499 358.019 304.098 357.832 304.087C357.564 304.07 357.613 304.607 357.614 304.921C357.429 304.754 357.397 304.238 357.532 303.974C357.378 303.898 357.309 304.057 357.224 304.114C357.334 303.314 358.393 303.743 358.217 304.591Z" fill="#231F20"/>
<path fill-rule="evenodd" clip-rule="evenodd" d="M365.247 305.267C365.01 305.718 364.675 306.215 363.98 306.229C363.966 306.083 363.955 305.862 363.98 305.774C364.512 305.723 364.84 305.452 365.247 305.267Z" fill="#231F20"/>
<path fill-rule="evenodd" clip-rule="evenodd" d="M361.918 305.559C362.361 305.792 363.176 305.817 363.778 305.799C363.811 305.931 363.81 306.094 363.811 306.256C363.037 306.294 362.121 306.102 361.918 305.559Z" fill="#231F20"/>
<path fill-rule="evenodd" clip-rule="evenodd" d="M361.834 305.994C362.14 306.764 363.194 306.676 364.082 306.654C364.043 306.754 363.958 306.872 363.853 306.915C363.568 307.031 362.783 307.119 362.388 306.909C362.137 306.776 361.976 306.474 361.839 306.298C361.772 306.212 361.442 305.995 361.834 305.994Z" fill="#231F20"/>
<path fill-rule="evenodd" clip-rule="evenodd" d="M364.885 310.241C364.526 310.858 364.182 311.491 363.755 312.034C363.934 311.508 364.01 310.627 364.037 309.956C364.412 309.78 364.732 309.995 364.885 310.241Z" fill="#81B0C4"/>
<path fill-rule="evenodd" clip-rule="evenodd" d="M366.823 312.457C366.42 312.538 366.136 312.93 365.743 312.905C365.959 312.6 366.338 312.471 366.823 312.457Z" fill="#231F20"/>
<path fill-rule="evenodd" clip-rule="evenodd" d="M367.001 313.088C366.672 313.123 366.286 313.176 365.953 313.149C366.111 312.907 366.719 312.991 367.001 313.088Z" fill="#231F20"/>
<path fill-rule="evenodd" clip-rule="evenodd" d="M367.115 313.631C366.745 313.639 366.286 313.631 365.936 313.602C366.143 313.379 366.875 313.519 367.115 313.631Z" fill="#231F20"/>
<path fill-rule="evenodd" clip-rule="evenodd" d="M364.193 315.118C364.246 315.582 364.429 316.052 364.406 316.56C364.202 316.628 364.085 316.689 363.812 316.688C363.793 316.257 363.735 315.597 363.752 315.186C363.887 315.194 364.085 315.089 364.193 315.118Z" fill="#DCD9D8"/>
<path fill-rule="evenodd" clip-rule="evenodd" d="M363.598 308.287C363.412 308.408 363.254 308.559 363.077 308.688C362.682 308.708 362.467 308.661 362.177 308.434C362.182 308.416 362.211 308.424 362.212 308.402C362.634 308.59 363.171 308.325 363.598 308.287Z" fill="#F0D6B7"/>
<path fill-rule="evenodd" clip-rule="evenodd" d="M361.381 311.168C361.497 310.665 361.952 310.404 362.364 310.127C362.79 310.668 363.05 311.364 363.335 312.036C362.661 311.832 361.972 311.502 361.381 311.168Z" fill="#81B0C4"/>
<path fill-rule="evenodd" clip-rule="evenodd" d="M363.752 315.186C363.735 315.597 363.792 316.256 363.812 316.688C364.085 316.688 364.202 316.628 364.406 316.559C364.429 316.052 364.245 315.582 364.193 315.118C364.085 315.09 363.886 315.194 363.752 315.186ZM359.497 312.846C359.677 314.504 359.938 315.897 360.417 317.365C361.479 317.688 362.76 317.716 363.699 317.425C363.527 316.597 363.602 315.588 363.501 314.704C363.425 314.039 363.464 313.371 363.36 312.693C362.222 312.456 360.613 312.637 359.497 312.846ZM363.629 312.703C363.619 313.415 363.661 314.117 363.715 314.83C363.988 314.789 364.174 314.762 364.427 314.706C364.345 314.02 364.355 313.248 364.187 312.641C363.993 312.642 363.822 312.638 363.629 312.703ZM365.015 312.588C364.885 312.559 364.734 312.587 364.61 312.59C364.669 313.17 364.81 313.81 364.86 314.42C365.054 314.426 365.159 314.334 365.319 314.303C365.327 313.768 365.272 313.031 365.015 312.588ZM367.113 314.507C367.52 314.408 367.775 313.91 367.661 313.399C367.585 313.055 367.449 312.408 367.304 312.188C367.197 312.026 366.905 311.813 366.673 311.962C366.295 312.204 365.628 312.275 365.352 312.568C365.491 313.029 365.534 313.662 365.591 314.246C366.063 314.275 366.645 314.115 367.038 314.285C366.763 314.374 366.407 314.374 366.17 314.504C366.364 314.598 366.818 314.579 367.113 314.507ZM363.335 312.035C363.05 311.363 362.791 310.667 362.364 310.126C361.952 310.403 361.497 310.664 361.381 311.167C361.972 311.501 362.661 311.831 363.335 312.035ZM364.039 309.955C364.012 310.627 363.935 311.508 363.756 312.034C364.183 311.49 364.527 310.857 364.887 310.241C364.733 309.995 364.413 309.78 364.039 309.955ZM363.241 309.672C363.079 309.654 362.942 309.858 362.732 309.77C362.684 309.823 362.64 309.881 362.591 309.933C363.055 310.492 363.266 311.287 363.625 311.945C363.817 311.313 363.795 310.62 363.837 309.93C363.573 309.947 363.426 309.691 363.241 309.672ZM362.728 308.994C362.711 309.186 362.756 309.249 362.794 309.469C363.424 309.666 363.314 308.604 362.728 308.994ZM362.03 308.765C361.758 308.617 361.351 308.455 361 308.388C360.565 308.305 360.606 308.981 360.625 309.385C360.639 309.704 360.805 310.042 360.877 310.254C360.911 310.353 360.919 310.458 361.003 310.478C361.153 310.513 361.647 310.315 361.787 310.239C362.085 310.076 362.316 309.819 362.568 309.645C362.572 309.561 362.575 309.477 362.578 309.393C362.426 309.317 362.251 309.263 362.028 309.254C362.179 309.178 362.402 309.179 362.539 309.088C362.541 309.054 362.542 309.021 362.543 308.987C362.292 308.968 362.196 308.856 362.03 308.765ZM359.437 308.294C359.212 308.523 360.069 308.834 360.342 308.851C360.34 308.706 360.424 308.57 360.408 308.466C360.083 308.409 359.657 308.447 359.437 308.294ZM362.212 308.401C362.211 308.424 362.182 308.415 362.177 308.434C362.467 308.66 362.682 308.707 363.077 308.688C363.255 308.558 363.413 308.407 363.598 308.286C363.171 308.324 362.635 308.589 362.212 308.401ZM364.759 309.174C364.747 308.92 364.681 308.397 364.523 308.305C364.194 308.113 363.608 308.694 363.36 308.783C363.387 308.861 363.431 308.922 363.435 309.022C363.581 308.985 363.76 309.01 363.887 309.073C363.74 309.089 363.577 309.088 363.48 309.158C363.444 309.262 363.489 309.402 363.465 309.545C363.814 309.644 364.213 309.696 364.654 309.709C364.74 309.598 364.77 309.385 364.759 309.174ZM359.058 308.515C358.987 308.465 358.509 307.842 358.443 307.867C357.577 308.209 356.767 308.8 356.044 309.359C356.734 310.84 357.012 312.655 357.061 314.404C357.852 314.774 358.546 315.307 359.618 315.362C359.494 314.484 359.381 313.7 359.31 312.873C359.041 312.759 358.654 312.878 358.402 312.838C358.4 312.534 358.787 312.705 358.82 312.5C358.844 312.345 358.607 312.334 358.684 312.09C358.881 312.162 358.985 312.32 359.195 312.38C359.387 311.959 359.192 311.215 359.22 310.864C359.225 310.798 359.253 310.498 359.4 310.551C359.531 310.597 359.393 311.348 359.407 311.68C359.42 311.987 359.37 312.283 359.494 312.476C360.531 312.334 361.584 312.243 362.705 312.212C362.458 312.107 362.165 312.006 361.844 311.825C361.67 311.727 361.121 311.522 361.07 311.357C360.99 311.093 361.281 310.953 361.33 310.727C360.807 311.012 360.705 310.453 360.582 310.057C360.47 309.698 360.406 309.43 360.378 309.223C359.928 309.008 359.446 308.791 359.058 308.515ZM364.302 307.943C365.023 307.593 365.153 309.251 364.871 309.785C364.914 309.945 365.065 310.006 365.126 310.149C364.723 310.871 364.276 311.544 363.865 312.257C364.171 312.067 364.607 312.223 364.967 312.081C365.098 312.029 365.194 311.728 365.293 311.487C365.567 310.824 365.854 309.989 365.982 309.356C366.011 309.212 366.09 308.898 366.072 308.77C366.041 308.54 365.729 308.37 365.571 308.228C365.279 307.966 365.095 307.735 364.791 307.49C364.668 307.672 364.403 307.795 364.302 307.943ZM357.408 301.541C357.064 301.919 357.136 302.628 357.178 303.133C357.799 302.742 358.624 303.164 358.616 303.829C358.913 303.821 358.727 303.458 358.673 303.225C358.498 302.461 358.969 301.632 358.695 300.933C358.162 300.974 357.725 301.191 357.408 301.541ZM359.868 299.344C359.09 299.565 358.092 300.13 357.772 300.83C358.02 300.794 358.192 300.669 358.436 300.654C358.528 300.648 358.649 300.692 358.756 300.666C358.967 300.614 359.145 300.139 359.305 299.963C359.46 299.79 359.647 299.717 359.775 299.559C359.857 299.52 359.979 299.522 359.984 299.399C359.948 299.361 359.911 299.332 359.868 299.344ZM363.919 299.552C363.111 299.095 361.744 298.752 360.885 299.181C360.191 299.527 359.254 300.099 358.935 300.825C359.233 301.525 358.846 302.166 358.822 302.876C358.808 303.255 358.999 303.585 359.014 303.996C358.912 304.165 358.6 304.186 358.384 304.174C358.311 303.81 358.184 303.401 357.809 303.36C357.279 303.302 356.891 303.741 356.867 304.2C356.839 304.739 357.281 305.634 357.909 305.571C358.151 305.547 358.211 305.304 358.475 305.307C358.618 305.593 358.254 305.682 358.217 305.887C358.207 305.94 358.247 306.146 358.27 306.243C358.384 306.714 358.638 307.324 358.888 307.682C359.206 308.138 359.829 308.206 360.5 308.251C360.62 307.992 361.061 308.014 361.349 308.081C361.004 307.945 360.684 307.613 360.418 307.32C360.113 306.984 359.804 306.623 359.789 306.184C360.365 306.984 360.841 307.683 361.89 308.035C362.683 308.301 363.609 307.913 364.219 307.485C364.472 307.307 364.622 307.024 364.802 306.766C365.475 305.797 365.789 304.416 365.72 303.076C365.691 302.524 365.693 301.973 365.507 301.602C365.314 301.213 364.659 300.866 364.276 301.217C364.205 300.839 364.594 300.606 365.052 300.742C364.726 300.32 364.383 299.813 363.919 299.552ZM365.424 312.014C366.056 311.7 367.235 311.169 367.631 312.016C367.777 312.328 367.948 312.855 368.024 313.177C368.131 313.631 367.908 314.586 367.441 314.739C367.029 314.873 366.548 314.865 366.051 314.765C365.993 314.717 365.928 314.632 365.882 314.543C365.528 314.53 365.196 314.562 364.916 314.708C364.942 314.971 364.765 315.013 364.599 315.067C364.475 315.556 364.845 316.194 364.757 316.64C364.694 316.958 364.303 317.007 364.016 317.067C364.007 317.243 364.029 317.39 364.048 317.54C363.982 317.782 363.688 317.92 363.409 317.953C362.491 318.064 361.098 318.113 360.215 317.796C359.968 317.191 359.774 316.456 359.569 315.765C358.708 315.857 358.012 315.393 357.355 315.09C357.128 314.984 356.813 314.926 356.728 314.745C356.646 314.57 356.68 314.234 356.659 313.916C356.607 313.106 356.563 312.324 356.349 311.494C356.253 311.122 356.085 310.793 355.969 310.434C355.861 310.102 355.672 309.691 355.623 309.359C355.55 308.868 356.013 308.84 356.308 308.627C356.766 308.298 357.124 308.116 357.62 307.819C357.766 307.731 358.209 307.508 358.259 307.405C358.359 307.202 358.087 306.915 358.015 306.755C357.9 306.503 357.84 306.289 357.823 306.04C357.408 305.974 357.093 305.727 356.903 305.448C356.588 304.987 356.37 304.133 356.642 303.483C356.664 303.432 356.77 303.331 356.786 303.253C356.817 303.098 356.727 302.892 356.722 302.728C356.693 301.883 356.865 301.156 357.433 300.901C357.663 299.982 358.489 299.676 359.266 299.219C359.557 299.049 359.877 298.94 360.208 298.818C361.395 298.381 363.217 298.463 364.202 299.209C364.62 299.525 365.288 300.192 365.526 300.676C366.157 301.952 366.112 304.084 365.671 305.636C365.612 305.845 365.526 306.151 365.406 306.401C365.322 306.576 365.062 306.926 365.093 307.08C365.126 307.24 365.687 307.666 365.807 307.782C366.024 307.991 366.435 308.269 366.469 308.532C366.504 308.813 366.345 309.197 366.264 309.468C365.994 310.373 365.73 311.208 365.424 312.014Z" fill="#231F20"/>
<path fill-rule="evenodd" clip-rule="evenodd" d="M361.213 305.756C361.247 305.71 361.436 305.641 361.699 305.768C361.699 305.768 361.387 305.82 361.413 306.341L361.283 306.315C361.283 306.315 361.148 305.842 361.213 305.756Z" fill="#F7E4CD"/>
<path fill-rule="evenodd" clip-rule="evenodd" d="M363.493 310.233C363.493 310.312 363.429 310.376 363.35 310.376C363.271 310.376 363.207 310.312 363.207 310.233C363.207 310.154 363.271 310.09 363.35 310.09C363.429 310.09 363.493 310.154 363.493 310.233Z" fill="#1D1919"/>
<path fill-rule="evenodd" clip-rule="evenodd" d="M363.638 310.897C363.638 310.976 363.574 311.04 363.495 311.04C363.416 311.04 363.352 310.976 363.352 310.897C363.352 310.818 363.416 310.754 363.495 310.754C363.574 310.754 363.638 310.818 363.638 310.897Z" fill="#1D1919"/>
</g>
<rect x="335.38" y="317.38" width="38.592" height="38.592" rx="19.296" transform="rotate(-64.816 335.38 317.38)" stroke="#00D6FF" stroke-opacity="0.24" stroke-width="1.48431"/>
</g>
<g filter="url(#filter6_d_6883_7343)">
<rect x="291.624" y="272.699" width="40.0764" height="40.0764" rx="20.0382" transform="rotate(-64.816 291.624 272.699)" fill="#FDFDFD"/>
<rect x="292.611" y="272.343" width="38.592" height="38.592" rx="19.296" transform="rotate(-64.816 292.611 272.343)" stroke="#00D6FF" stroke-opacity="0.24" stroke-width="1.48431"/>
<path d="M318.293 272.522L321.883 261.461H314.708L318.293 272.522Z" fill="#E24329"/>
<path d="M309.679 261.461L308.585 264.821C308.486 265.127 308.593 265.463 308.854 265.654L318.293 272.522L309.679 261.461Z" fill="#FCA326"/>
<path d="M309.679 261.461H314.708L312.543 254.8C312.433 254.459 311.95 254.459 311.835 254.8L309.679 261.461Z" fill="#E24329"/>
<path d="M326.912 261.461L328.002 264.821C328.101 265.127 327.994 265.463 327.733 265.654L318.293 272.522L326.912 261.461Z" fill="#FCA326"/>
<path d="M326.912 261.461H321.883L324.043 254.8C324.154 254.459 324.637 254.459 324.751 254.8L326.912 261.461Z" fill="#E24329"/>
<path d="M318.293 272.522L321.883 261.461H326.912L318.293 272.522Z" fill="#FC6D26"/>
<path d="M318.293 272.522L309.679 261.461H314.708L318.293 272.522Z" fill="#FC6D26"/>
</g>
<g filter="url(#filter7_d_6883_7343)">
<g clip-path="url(#clip5_6883_7343)">
<rect x="292.599" y="132.735" width="40.0764" height="40.0764" rx="20.0382" transform="rotate(-64.816 292.599 132.735)" fill="#FDFDFD"/>
<g clip-path="url(#clip6_6883_7343)">
<path d="M313.683 113.537C315.902 113.537 317.7 115.335 317.7 117.553C317.7 119.733 315.962 121.506 313.796 121.566C313.796 121.751 313.804 122.099 313.909 122.31C314.054 122.601 314.922 123.145 315.774 123.145H316.08C316.273 121.776 317.448 120.722 318.871 120.722C320.288 120.722 321.46 121.767 321.659 123.128H323.243C323.442 121.767 324.615 120.722 326.031 120.722C327.588 120.722 328.85 121.984 328.85 123.54C328.85 125.096 327.588 126.358 326.031 126.358C324.615 126.358 323.442 125.313 323.243 123.952H321.66C321.46 125.313 320.288 126.358 318.871 126.358C317.457 126.358 316.286 125.317 316.083 123.96L315.745 123.97C315.188 123.966 314.599 123.817 314.126 123.496C313.997 123.408 313.87 123.316 313.738 123.229L313.738 123.412C313.737 123.471 313.727 124.36 313.726 125.348L313.726 125.557C313.726 126.204 313.731 126.871 313.746 127.358C313.78 128.426 314.648 129.287 315.607 129.489C315.731 129.515 315.945 129.519 316.08 129.507C316.273 128.138 317.449 127.085 318.871 127.085C320.428 127.085 321.69 128.347 321.69 129.903C321.69 131.46 320.428 132.721 318.871 132.721C317.464 132.721 316.299 131.691 316.087 130.345H315.843C314.012 130.245 312.873 128.565 312.893 127.203C312.918 125.489 312.899 123.774 312.899 122.059V121.492C311.056 121.127 309.666 119.503 309.666 117.553C309.666 115.335 311.464 113.537 313.683 113.537ZM318.871 127.909C317.769 127.909 316.876 128.802 316.876 129.903C316.876 131.005 317.769 131.898 318.871 131.898C319.973 131.898 320.866 131.005 320.866 129.903C320.866 128.802 319.973 127.909 318.871 127.909ZM318.871 121.546C317.769 121.546 316.876 122.439 316.876 123.54C316.876 124.641 317.769 125.534 318.871 125.534C319.973 125.534 320.866 124.641 320.866 123.54C320.866 122.439 319.973 121.546 318.871 121.546ZM326.031 121.546C324.93 121.546 324.037 122.439 324.037 123.54C324.037 124.641 324.93 125.534 326.031 125.534C327.133 125.534 328.026 124.641 328.026 123.54C328.026 122.439 327.133 121.546 326.031 121.546ZM327.167 122.7C327.324 122.857 327.329 123.109 327.18 123.27L327.168 123.283L325.946 124.508C325.79 124.664 325.54 124.669 325.378 124.523L325.365 124.51L324.767 123.921C324.605 123.762 324.603 123.501 324.762 123.339C324.918 123.181 325.17 123.175 325.332 123.322L325.345 123.334L325.652 123.636L326.585 122.701C326.746 122.54 327.006 122.54 327.167 122.7ZM319.974 122.694C320.131 122.851 320.135 123.102 319.987 123.264L319.975 123.277L318.753 124.502C318.597 124.658 318.347 124.663 318.185 124.517L318.172 124.504L317.574 123.915C317.411 123.756 317.409 123.495 317.569 123.333C317.725 123.175 317.976 123.169 318.139 123.316L318.152 123.328L318.458 123.63L319.392 122.695C319.552 122.534 319.813 122.534 319.974 122.694ZM313.683 114.361C311.92 114.361 310.49 115.79 310.49 117.553C310.49 119.316 311.92 120.745 313.683 120.745C315.446 120.745 316.876 119.316 316.876 117.553C316.876 115.79 315.446 114.361 313.683 114.361ZM313.351 115.645C314.023 116.049 314.685 116.466 315.339 116.897C315.887 117.259 315.885 117.914 315.331 118.276C314.666 118.711 313.99 119.129 313.304 119.528C312.745 119.853 312.12 119.48 312.105 118.828C312.095 118.408 312.103 117.988 312.102 117.568C312.102 117.159 312.094 116.75 312.104 116.342C312.12 115.649 312.758 115.287 313.351 115.645ZM312.908 116.31V116.6C312.908 116.743 312.908 116.885 312.908 117.025L312.908 117.303V117.714C312.908 118.031 312.908 118.343 312.909 118.655C312.909 118.802 312.985 118.796 313.084 118.735C313.654 118.381 314.224 118.028 314.795 117.676C314.889 117.618 314.892 117.557 314.799 117.499C314.188 117.114 313.576 116.73 312.908 116.31Z" fill="#4A7EBF"/>
<path d="M319.65 130.314C319.878 130.314 320.062 130.13 320.062 129.902C320.062 129.675 319.878 129.49 319.65 129.49C319.423 129.49 319.238 129.675 319.238 129.902C319.238 130.13 319.423 130.314 319.65 130.314Z" fill="#85B3DF"/>
<path d="M318.073 130.314C318.301 130.314 318.485 130.13 318.485 129.902C318.485 129.675 318.301 129.49 318.073 129.49C317.846 129.49 317.661 129.675 317.661 129.902C317.661 130.13 317.846 130.314 318.073 130.314Z" fill="#85B3DF"/>
<path d="M326.031 131.898C324.929 131.898 324.036 131.005 324.036 129.903C324.036 128.802 324.929 127.909 326.031 127.909C327.133 127.909 328.026 128.802 328.026 129.903C328.026 131.005 327.133 131.898 326.031 131.898ZM326.031 127.085C324.614 127.085 323.442 128.13 323.243 129.491H322.782C322.58 129.491 322.417 129.676 322.417 129.903C322.417 130.131 322.58 130.315 322.782 130.315H323.243C323.442 131.676 324.614 132.721 326.031 132.721C327.588 132.721 328.85 131.46 328.85 129.903C328.85 128.347 327.588 127.085 326.031 127.085Z" fill="#85B3DF"/>
</g>
</g>
<rect x="293.586" y="132.38" width="38.592" height="38.592" rx="19.296" transform="rotate(-64.816 293.586 132.38)" stroke="#00D6FF" stroke-opacity="0.24" stroke-width="1.48431"/>
</g>
<g filter="url(#filter8_d_6883_7343)">
<rect x="334.555" y="86.7832" width="40.0764" height="40.0764" rx="20.0382" transform="rotate(-64.816 334.555 86.7832)" fill="#FDFDFD"/>
<rect x="335.542" y="86.4274" width="38.592" height="38.592" rx="19.296" transform="rotate(-64.816 335.542 86.4274)" stroke="#00D6FF" stroke-opacity="0.24" stroke-width="1.48431"/>
<g clip-path="url(#clip7_6883_7343)">
<path d="M350.854 69.8711L358.771 73.8042V81.8709L350.854 77.8376V69.8711Z" fill="#30F2A2"/>
<path d="M366.688 69.8711L374.604 73.8042V81.8709L366.688 77.8376V69.8711Z" fill="#30F2A2"/>
<path d="M366.688 69.8711L358.771 73.8042V81.8709L366.688 77.8376V69.8711Z" fill="#14CC80"/>
<path d="M374.604 73.9043L366.688 77.8374V85.9041L374.604 81.8707V73.9043Z" fill="#14CC80"/>
</g>
</g>
<path d="M330.541 189.229C329.737 189.965 328.709 190.333 327.456 190.333C325.907 190.333 324.688 189.836 323.802 188.842C322.915 187.843 322.471 186.473 322.471 184.734C322.471 182.852 322.976 181.403 323.984 180.384C324.861 179.497 325.977 179.054 327.332 179.054C329.145 179.054 330.471 179.648 331.309 180.837C331.772 181.505 332.02 182.175 332.054 182.848H329.803C329.657 182.331 329.469 181.941 329.24 181.678C328.831 181.21 328.224 180.976 327.42 180.976C326.601 180.976 325.956 181.308 325.483 181.97C325.01 182.628 324.774 183.562 324.774 184.77C324.774 185.979 325.022 186.885 325.519 187.489C326.021 188.089 326.657 188.388 327.427 188.388C328.217 188.388 328.819 188.13 329.233 187.614C329.462 187.336 329.652 186.919 329.803 186.364H332.032C331.838 187.538 331.34 188.493 330.541 189.229ZM333.133 179.258H335.37V190.033H333.133V179.258ZM335.067 190.033L339.241 178.93H340.973L336.785 190.033H335.067ZM348.346 189.229C347.542 189.965 346.513 190.333 345.261 190.333C343.711 190.333 342.493 189.836 341.606 188.842C340.719 187.843 340.276 186.473 340.276 184.734C340.276 182.852 340.78 181.403 341.789 180.384C342.666 179.497 343.782 179.054 345.137 179.054C346.95 179.054 348.275 179.648 349.113 180.837C349.576 181.505 349.825 182.175 349.859 182.848H347.607C347.461 182.331 347.274 181.941 347.045 181.678C346.635 181.21 346.029 180.976 345.224 180.976C344.406 180.976 343.76 181.308 343.287 181.97C342.815 182.628 342.578 183.562 342.578 184.77C342.578 185.979 342.827 186.885 343.324 187.489C343.826 188.089 344.462 188.388 345.232 188.388C346.021 188.388 346.623 188.13 347.037 187.614C347.266 187.336 347.456 186.919 347.607 186.364H349.837C349.642 187.538 349.145 188.493 348.346 189.229ZM355.755 190.033H351.113V179.258H355.755C356.422 179.268 356.978 179.346 357.421 179.492C358.177 179.741 358.788 180.197 359.256 180.859C359.631 181.395 359.887 181.975 360.024 182.599C360.16 183.223 360.228 183.817 360.228 184.383C360.228 185.815 359.941 187.029 359.366 188.023C358.586 189.363 357.382 190.033 355.755 190.033ZM357.429 182.007C357.083 181.422 356.398 181.13 355.375 181.13H353.299V188.162H355.375C356.437 188.162 357.178 187.638 357.597 186.59C357.826 186.015 357.94 185.331 357.94 184.536C357.94 183.44 357.77 182.597 357.429 182.007ZM317.971 204.808H315.647V209.033H313.447V198.258H318.732C319.487 198.273 320.067 198.366 320.471 198.536C320.881 198.707 321.227 198.958 321.509 199.289C321.743 199.562 321.929 199.864 322.065 200.196C322.201 200.527 322.27 200.905 322.27 201.329C322.27 201.84 322.141 202.345 321.882 202.842C321.624 203.334 321.198 203.682 320.603 203.887C321.1 204.087 321.451 204.372 321.656 204.742C321.865 205.108 321.97 205.668 321.97 206.424V207.147C321.97 207.639 321.989 207.973 322.028 208.149C322.087 208.426 322.223 208.631 322.438 208.763V209.033H319.96C319.892 208.794 319.843 208.602 319.814 208.456C319.755 208.154 319.723 207.844 319.719 207.527L319.704 206.526C319.694 205.839 319.567 205.381 319.324 205.152C319.085 204.923 318.634 204.808 317.971 204.808ZM319.338 202.849C319.787 202.644 320.011 202.24 320.011 201.636C320.011 200.983 319.794 200.544 319.36 200.32C319.117 200.193 318.751 200.13 318.264 200.13H315.647V203.024H318.198C318.705 203.024 319.085 202.966 319.338 202.849ZM328.706 207.907C328.687 207.932 328.638 208.005 328.56 208.127C328.482 208.249 328.39 208.356 328.282 208.448C327.956 208.741 327.639 208.941 327.332 209.048C327.03 209.155 326.674 209.209 326.265 209.209C325.086 209.209 324.291 208.785 323.882 207.937C323.653 207.469 323.538 206.779 323.538 205.868V201.065H325.673V205.868C325.673 206.321 325.726 206.662 325.834 206.891C326.024 207.296 326.397 207.498 326.952 207.498C327.664 207.498 328.151 207.211 328.414 206.636C328.551 206.324 328.619 205.912 328.619 205.4V201.065H330.731V209.033H328.706V207.907ZM336.05 202.608C335.343 202.608 334.858 202.908 334.595 203.507C334.459 203.824 334.39 204.228 334.39 204.72V209.033H332.314V201.08H334.325V202.242C334.593 201.833 334.846 201.538 335.085 201.358C335.514 201.036 336.057 200.875 336.715 200.875C337.538 200.875 338.211 201.092 338.732 201.526C339.259 201.955 339.522 202.669 339.522 203.668V209.033H337.387V204.187C337.387 203.768 337.331 203.446 337.219 203.222C337.015 202.813 336.625 202.608 336.05 202.608ZM344.752 202.608C344.046 202.608 343.561 202.908 343.298 203.507C343.161 203.824 343.093 204.228 343.093 204.72V209.033H341.017V201.08H343.027V202.242C343.295 201.833 343.549 201.538 343.788 201.358C344.216 201.036 344.76 200.875 345.418 200.875C346.241 200.875 346.914 201.092 347.435 201.526C347.962 201.955 348.225 202.669 348.225 203.668V209.033H346.09V204.187C346.09 203.768 346.034 203.446 345.922 203.222C345.717 202.813 345.328 202.608 344.752 202.608ZM356.525 206.694C356.472 207.167 356.226 207.647 355.787 208.134C355.105 208.909 354.15 209.296 352.922 209.296C351.908 209.296 351.014 208.97 350.239 208.317C349.464 207.664 349.077 206.601 349.077 205.13C349.077 203.751 349.425 202.693 350.122 201.957C350.824 201.221 351.733 200.853 352.849 200.853C353.511 200.853 354.108 200.978 354.64 201.226C355.171 201.475 355.609 201.867 355.955 202.403C356.267 202.876 356.469 203.424 356.562 204.048C356.616 204.413 356.638 204.94 356.628 205.627H351.175C351.204 206.426 351.455 206.986 351.928 207.308C352.215 207.508 352.561 207.608 352.966 207.608C353.394 207.608 353.743 207.486 354.011 207.242C354.157 207.111 354.286 206.928 354.398 206.694H356.525ZM354.464 204.253C354.43 203.702 354.262 203.285 353.96 203.003C353.662 202.715 353.292 202.571 352.849 202.571C352.366 202.571 351.991 202.722 351.723 203.024C351.46 203.327 351.294 203.736 351.226 204.253H354.464ZM361.595 202.988C360.757 202.988 360.194 203.261 359.907 203.807C359.746 204.114 359.666 204.586 359.666 205.225V209.033H357.568V201.065H359.556V202.454C359.877 201.923 360.158 201.56 360.396 201.365C360.786 201.039 361.293 200.875 361.917 200.875C361.956 200.875 361.988 200.878 362.012 200.883C362.041 200.883 362.102 200.885 362.195 200.89V203.024C362.063 203.01 361.946 203 361.844 202.995C361.742 202.99 361.659 202.988 361.595 202.988ZM368.463 201.431C369.087 201.831 369.445 202.518 369.538 203.492H367.455C367.425 203.224 367.35 203.012 367.228 202.856C366.999 202.574 366.609 202.432 366.058 202.432C365.605 202.432 365.281 202.503 365.086 202.644C364.896 202.786 364.801 202.951 364.801 203.141C364.801 203.38 364.903 203.553 365.108 203.66C365.313 203.773 366.036 203.965 367.279 204.238C368.108 204.433 368.729 204.728 369.143 205.122C369.553 205.522 369.757 206.022 369.757 206.621C369.757 207.41 369.462 208.056 368.873 208.558C368.288 209.055 367.382 209.304 366.153 209.304C364.901 209.304 363.975 209.041 363.376 208.514C362.781 207.983 362.484 207.308 362.484 206.489H364.596C364.64 206.86 364.735 207.123 364.882 207.279C365.14 207.557 365.617 207.695 366.314 207.695C366.724 207.695 367.048 207.635 367.286 207.513C367.53 207.391 367.652 207.208 367.652 206.965C367.652 206.731 367.555 206.553 367.36 206.431C367.165 206.309 366.441 206.1 365.189 205.802C364.287 205.578 363.651 205.298 363.281 204.962C362.91 204.63 362.725 204.153 362.725 203.529C362.725 202.793 363.013 202.162 363.588 201.636C364.168 201.104 364.981 200.839 366.029 200.839C367.023 200.839 367.835 201.036 368.463 201.431Z" fill="#111827"/>
<path d="M194.375 27.9131L214.84 0.790039H173.91L194.375 27.9131Z" fill="#96FF5B" fill-opacity="0.64"/>
</g>
<defs>
<filter id="filter0_d_6883_7343" x="-175.32" y="49.7207" width="288.885" height="288.885" filterUnits="userSpaceOnUse" color-interpolation-filters="sRGB">
<feFlood flood-opacity="0" result="BackgroundImageFix"/>
<feColorMatrix in="SourceAlpha" type="matrix" values="0 0 0 0 0 0 0 0 0 0 0 0 0 0 0 0 0 0 127 0" result="hardAlpha"/>
<feMorphology radius="2.11237" operator="dilate" in="SourceAlpha" result="effect1_dropShadow_6883_7343"/>
<feOffset/>
<feGaussianBlur stdDeviation="3.415"/>
<feComposite in2="hardAlpha" operator="out"/>
<feColorMatrix type="matrix" values="0 0 0 0 0 0 0 0 0 0 0 0 0 0 0 0 0 0 0.05 0"/>
<feBlend mode="normal" in2="BackgroundImageFix" result="effect1_dropShadow_6883_7343"/>
<feBlend mode="normal" in="SourceGraphic" in2="effect1_dropShadow_6883_7343" result="shape"/>
</filter>
<filter id="filter1_d_6883_7343" x="116.228" y="107.125" width="163.79" height="174.326" filterUnits="userSpaceOnUse" color-interpolation-filters="sRGB">
<feFlood flood-opacity="0" result="BackgroundImageFix"/>
<feColorMatrix in="SourceAlpha" type="matrix" values="0 0 0 0 0 0 0 0 0 0 0 0 0 0 0 0 0 0 127 0" result="hardAlpha"/>
<feMorphology radius="2.59673" operator="dilate" in="SourceAlpha" result="effect1_dropShadow_6883_7343"/>
<feOffset/>
<feGaussianBlur stdDeviation="4.19804"/>
<feComposite in2="hardAlpha" operator="out"/>
<feColorMatrix type="matrix" values="0 0 0 0 0 0 0 0 0 0 0 0 0 0 0 0 0 0 0.05 0"/>
<feBlend mode="normal" in2="BackgroundImageFix" result="effect1_dropShadow_6883_7343"/>
<feBlend mode="normal" in="SourceGraphic" in2="effect1_dropShadow_6883_7343" result="shape"/>
</filter>
<filter id="filter2_d_6883_7343" x="46.4002" y="85.2449" width="75.768" height="75.768" filterUnits="userSpaceOnUse" color-interpolation-filters="sRGB">
<feFlood flood-opacity="0" result="BackgroundImageFix"/>
<feColorMatrix in="SourceAlpha" type="matrix" values="0 0 0 0 0 0 0 0 0 0 0 0 0 0 0 0 0 0 127 0" result="hardAlpha"/>
<feMorphology radius="2.6513" operator="dilate" in="SourceAlpha" result="effect1_dropShadow_6883_7343"/>
<feOffset/>
<feGaussianBlur stdDeviation="4.28628"/>
<feComposite in2="hardAlpha" operator="out"/>
<feColorMatrix type="matrix" values="0 0 0 0 0 0 0 0 0 0 0 0 0 0 0 0 0 0 0.05 0"/>
<feBlend mode="normal" in2="BackgroundImageFix" result="effect1_dropShadow_6883_7343"/>
<feBlend mode="normal" in="SourceGraphic" in2="effect1_dropShadow_6883_7343" result="shape"/>
</filter>
<filter id="filter3_d_6883_7343" x="46.4002" y="224.244" width="75.768" height="75.768" filterUnits="userSpaceOnUse" color-interpolation-filters="sRGB">
<feFlood flood-opacity="0" result="BackgroundImageFix"/>
<feColorMatrix in="SourceAlpha" type="matrix" values="0 0 0 0 0 0 0 0 0 0 0 0 0 0 0 0 0 0 127 0" result="hardAlpha"/>
<feMorphology radius="2.6513" operator="dilate" in="SourceAlpha" result="effect1_dropShadow_6883_7343"/>
<feOffset/>
<feGaussianBlur stdDeviation="4.28628"/>
<feComposite in2="hardAlpha" operator="out"/>
<feColorMatrix type="matrix" values="0 0 0 0 0 0 0 0 0 0 0 0 0 0 0 0 0 0 0.05 0"/>
<feBlend mode="normal" in2="BackgroundImageFix" result="effect1_dropShadow_6883_7343"/>
<feBlend mode="normal" in="SourceGraphic" in2="effect1_dropShadow_6883_7343" result="shape"/>
</filter>
<filter id="filter4_d_6883_7343" x="290.68" y="49.7207" width="288.885" height="288.885" filterUnits="userSpaceOnUse" color-interpolation-filters="sRGB">
<feFlood flood-opacity="0" result="BackgroundImageFix"/>
<feColorMatrix in="SourceAlpha" type="matrix" values="0 0 0 0 0 0 0 0 0 0 0 0 0 0 0 0 0 0 127 0" result="hardAlpha"/>
<feMorphology radius="2.11237" operator="dilate" in="SourceAlpha" result="effect1_dropShadow_6883_7343"/>
<feOffset/>
<feGaussianBlur stdDeviation="3.415"/>
<feComposite in2="hardAlpha" operator="out"/>
<feColorMatrix type="matrix" values="0 0 0 0 0 0 0 0 0 0 0 0 0 0 0 0 0 0 0.05 0"/>
<feBlend mode="normal" in2="BackgroundImageFix" result="effect1_dropShadow_6883_7343"/>
<feBlend mode="normal" in="SourceGraphic" in2="effect1_dropShadow_6883_7343" result="shape"/>
</filter>
<filter id="filter5_d_6883_7343" x="323.169" y="270.245" width="75.768" height="75.768" filterUnits="userSpaceOnUse" color-interpolation-filters="sRGB">
<feFlood flood-opacity="0" result="BackgroundImageFix"/>
<feColorMatrix in="SourceAlpha" type="matrix" values="0 0 0 0 0 0 0 0 0 0 0 0 0 0 0 0 0 0 127 0" result="hardAlpha"/>
<feMorphology radius="2.6513" operator="dilate" in="SourceAlpha" result="effect1_dropShadow_6883_7343"/>
<feOffset/>
<feGaussianBlur stdDeviation="4.28628"/>
<feComposite in2="hardAlpha" operator="out"/>
<feColorMatrix type="matrix" values="0 0 0 0 0 0 0 0 0 0 0 0 0 0 0 0 0 0 0.05 0"/>
<feBlend mode="normal" in2="BackgroundImageFix" result="effect1_dropShadow_6883_7343"/>
<feBlend mode="normal" in="SourceGraphic" in2="effect1_dropShadow_6883_7343" result="shape"/>
</filter>
<filter id="filter6_d_6883_7343" x="280.4" y="225.209" width="75.768" height="75.768" filterUnits="userSpaceOnUse" color-interpolation-filters="sRGB">
<feFlood flood-opacity="0" result="BackgroundImageFix"/>
<feColorMatrix in="SourceAlpha" type="matrix" values="0 0 0 0 0 0 0 0 0 0 0 0 0 0 0 0 0 0 127 0" result="hardAlpha"/>
<feMorphology radius="2.6513" operator="dilate" in="SourceAlpha" result="effect1_dropShadow_6883_7343"/>
<feOffset/>
<feGaussianBlur stdDeviation="4.28628"/>
<feComposite in2="hardAlpha" operator="out"/>
<feColorMatrix type="matrix" values="0 0 0 0 0 0 0 0 0 0 0 0 0 0 0 0 0 0 0.05 0"/>
<feBlend mode="normal" in2="BackgroundImageFix" result="effect1_dropShadow_6883_7343"/>
<feBlend mode="normal" in="SourceGraphic" in2="effect1_dropShadow_6883_7343" result="shape"/>
</filter>
<filter id="filter7_d_6883_7343" x="281.375" y="85.2449" width="75.768" height="75.768" filterUnits="userSpaceOnUse" color-interpolation-filters="sRGB">
<feFlood flood-opacity="0" result="BackgroundImageFix"/>
<feColorMatrix in="SourceAlpha" type="matrix" values="0 0 0 0 0 0 0 0 0 0 0 0 0 0 0 0 0 0 127 0" result="hardAlpha"/>
<feMorphology radius="2.6513" operator="dilate" in="SourceAlpha" result="effect1_dropShadow_6883_7343"/>
<feOffset/>
<feGaussianBlur stdDeviation="4.28628"/>
<feComposite in2="hardAlpha" operator="out"/>
<feColorMatrix type="matrix" values="0 0 0 0 0 0 0 0 0 0 0 0 0 0 0 0 0 0 0.05 0"/>
<feBlend mode="normal" in2="BackgroundImageFix" result="effect1_dropShadow_6883_7343"/>
<feBlend mode="normal" in="SourceGraphic" in2="effect1_dropShadow_6883_7343" result="shape"/>
</filter>
<filter id="filter8_d_6883_7343" x="323.331" y="39.2927" width="75.768" height="75.768" filterUnits="userSpaceOnUse" color-interpolation-filters="sRGB">
<feFlood flood-opacity="0" result="BackgroundImageFix"/>
<feColorMatrix in="SourceAlpha" type="matrix" values="0 0 0 0 0 0 0 0 0 0 0 0 0 0 0 0 0 0 127 0" result="hardAlpha"/>
<feMorphology radius="2.6513" operator="dilate" in="SourceAlpha" result="effect1_dropShadow_6883_7343"/>
<feOffset/>
<feGaussianBlur stdDeviation="4.28628"/>
<feComposite in2="hardAlpha" operator="out"/>
<feColorMatrix type="matrix" values="0 0 0 0 0 0 0 0 0 0 0 0 0 0 0 0 0 0 0.05 0"/>
<feBlend mode="normal" in2="BackgroundImageFix" result="effect1_dropShadow_6883_7343"/>
<feBlend mode="normal" in="SourceGraphic" in2="effect1_dropShadow_6883_7343" result="shape"/>
</filter>
<linearGradient id="paint0_linear_6883_7343" x1="28.2882" y1="171.055" x2="141.064" y2="171.055" gradientUnits="userSpaceOnUse">
<stop stop-color="#CDF4FD" stop-opacity="0.5"/>
<stop offset="1" stop-color="#00D6FF"/>
</linearGradient>
<linearGradient id="paint1_linear_6883_7343" x1="28.2888" y1="217.525" x2="141.065" y2="217.525" gradientUnits="userSpaceOnUse">
<stop stop-color="#CDF4FD" stop-opacity="0.5"/>
<stop offset="1" stop-color="#00D6FF"/>
</linearGradient>
<linearGradient id="paint2_linear_6883_7343" x1="27.6399" y1="-1.00252e+07" x2="140.416" y2="-1.00252e+07" gradientUnits="userSpaceOnUse">
<stop stop-color="#CDF4FD"/>
<stop offset="1" stop-color="#00D6FF"/>
</linearGradient>
<linearGradient id="paint3_linear_6883_7343" x1="388.442" y1="-1.00252e+07" x2="254.451" y2="-1.00252e+07" gradientUnits="userSpaceOnUse">
<stop stop-color="#CDF4FD"/>
<stop offset="1" stop-color="#00D6FF"/>
</linearGradient>
<linearGradient id="paint4_linear_6883_7343" x1="389.208" y1="171.055" x2="255.217" y2="171.055" gradientUnits="userSpaceOnUse">
<stop stop-color="#CDF4FD" stop-opacity="0.5"/>
<stop offset="1" stop-color="#00D6FF"/>
</linearGradient>
<linearGradient id="paint5_linear_6883_7343" x1="389.208" y1="217.525" x2="255.217" y2="217.525" gradientUnits="userSpaceOnUse">
<stop stop-color="#CDF4FD" stop-opacity="0.5"/>
<stop offset="1" stop-color="#00D6FF"/>
</linearGradient>
<linearGradient id="paint6_linear_6883_7343" x1="127.221" y1="194.289" x2="269.026" y2="194.289" gradientUnits="userSpaceOnUse">
<stop stop-color="#00D6FF"/>
<stop offset="1" stop-color="#32F8B9"/>
</linearGradient>
<linearGradient id="paint7_linear_6883_7343" x1="168.536" y1="230.287" x2="222.374" y2="230.287" gradientUnits="userSpaceOnUse">
<stop stop-color="#00D6FF"/>
<stop offset="1" stop-color="#32F8B9"/>
</linearGradient>
<clipPath id="clip0_6883_7343">
<rect x="0.875" y="387.79" width="387" height="387" rx="16" transform="rotate(-90 0.875 387.79)" fill="white"/>
</clipPath>
<clipPath id="clip1_6883_7343">
<rect width="44.5722" height="63.3395" fill="white" transform="translate(178.251 155.108)"/>
</clipPath>
<clipPath id="clip2_6883_7343">
<rect x="168.536" y="228.787" width="64" height="3" rx="1.5" fill="white"/>
</clipPath>
<clipPath id="clip3_6883_7343">
<rect width="19.7591" height="19.296" fill="white" transform="translate(74.4053 252.479)"/>
</clipPath>
<clipPath id="clip4_6883_7343">
<rect x="334.393" y="317.735" width="40.0764" height="40.0764" rx="20.0382" transform="rotate(-64.816 334.393 317.735)" fill="white"/>
</clipPath>
<clipPath id="clip5_6883_7343">
<rect x="292.599" y="132.735" width="40.0764" height="40.0764" rx="20.0382" transform="rotate(-64.816 292.599 132.735)" fill="white"/>
</clipPath>
<clipPath id="clip6_6883_7343">
<rect width="19.1843" height="19.1843" fill="white" transform="translate(309.666 113.537)"/>
</clipPath>
<clipPath id="clip7_6883_7343">
<rect width="23.7489" height="23.7489" fill="white" transform="translate(350.854 66.0137)"/>
</clipPath>
</defs>
</svg>
