<svg width="388" height="388" viewBox="0 0 388 388" fill="none" xmlns="http://www.w3.org/2000/svg">
<g clip-path="url(#clip0_1_2)">
<rect x="0.875" y="387.79" width="387" height="387" rx="16" transform="rotate(-90 0.875 387.79)" fill="#E8F7FE" style="mix-blend-mode:multiply"/>
<path d="M93.9326 147.82V147.82C98.6675 147.82 103.165 149.894 106.239 153.495L141.064 194.29" stroke="url(#paint0_linear_1_2)" stroke-width="2" stroke-dasharray="4 4"/>
<path d="M94.1216 240.76V240.76C98.7366 240.76 103.12 238.738 106.116 235.228L141.064 194.29" stroke="url(#paint1_linear_1_2)" stroke-width="2" stroke-dasharray="4 4"/>
<path d="M94.5794 194.29L101.394 194.29L141.726 194.29" stroke="url(#paint2_linear_1_2)" stroke-width="2" stroke-dasharray="4 4"/>
<path d="M310.446 194.29L302.349 194.29L254.431 194.29" stroke="url(#paint3_linear_1_2)" stroke-width="2" stroke-dasharray="4 4"/>
<path d="M311.215 147.82V147.82C305.534 147.82 300.082 150.056 296.036 154.044L255.217 194.29" stroke="url(#paint4_linear_1_2)" stroke-width="2" stroke-dasharray="4 4"/>
<path d="M310.99 240.759V240.759C305.453 240.76 300.139 238.58 296.196 234.693L255.217 194.29" stroke="url(#paint5_linear_1_2)" stroke-width="2" stroke-dasharray="4 4"/>
<g filter="url(#filter0_d_1_2)">
<rect x="-166.378" y="329.663" width="271" height="271" rx="135.5" transform="rotate(-90 -166.378 329.663)" fill="#FDFDFD"/>
<rect x="-166.026" y="329.311" width="270.296" height="270.296" rx="135.148" transform="rotate(-90 -166.026 329.311)" stroke="#C0F4FD" stroke-width="0.704123"/>
</g>
<g filter="url(#filter1_d_1_2)">
<path d="M265.426 175.831C265.454 175.844 265.486 175.84 265.509 175.82C268.701 172.96 269.956 168.49 268.284 164.514C267.241 162.111 266.107 159.752 264.837 157.485L263.431 155.036C262.07 152.768 260.573 150.546 258.986 148.414C256.401 144.967 251.866 143.833 247.784 145.194L244.031 146.432C238.405 148.287 232.342 146.983 227.217 144.013V144.013C222.085 141.038 217.836 136.413 216.615 130.608L215.81 126.781C214.948 122.563 211.683 119.207 207.42 118.708C204.426 118.3 201.387 118.118 198.304 118.118H197.987C194.902 118.118 191.864 118.3 188.871 118.663C184.607 119.161 181.343 122.563 180.481 126.735L179.67 130.603C178.452 136.414 174.191 141.058 169.053 144.032V144.032C163.925 147 157.886 148.303 152.252 146.472L148.461 145.239C144.379 143.879 139.844 145.013 137.259 148.459C135.672 150.591 134.175 152.813 132.768 155.081L131.408 157.485C130.138 159.752 129.004 162.111 127.961 164.56C126.283 168.505 127.554 172.995 130.774 175.897L133.77 178.57C138.174 182.498 140.07 188.41 140.07 194.311V194.311V194.311C140.07 200.242 138.162 206.179 133.737 210.127L130.774 212.77C127.554 215.627 126.283 220.117 127.961 224.108C129.004 226.512 130.138 228.87 131.408 231.184L132.768 233.541C134.129 235.855 135.627 238.032 137.259 240.164C139.844 243.61 144.379 244.744 148.461 243.384L152.216 242.145C157.841 240.29 163.902 241.594 169.026 244.563V244.563C174.159 247.538 178.407 252.166 179.624 257.973L180.435 261.841C181.297 266.06 184.563 269.415 188.825 269.915C191.864 270.277 194.948 270.46 198.078 270.46C201.206 270.46 204.291 270.277 207.329 269.915C211.593 269.415 214.858 266.014 215.719 261.841L216.535 257.95C217.75 252.154 221.999 247.522 227.126 244.558V244.558C232.264 241.587 238.321 240.292 243.958 242.152L247.693 243.384C251.775 244.744 256.31 243.61 258.896 240.164C260.483 238.032 261.979 235.855 263.34 233.541L264.746 231.092C266.016 228.826 267.15 226.466 268.193 224.063C269.871 220.117 268.601 215.627 265.382 212.724L262.418 210.081C257.992 206.134 256.084 200.196 256.084 194.265V194.265C256.084 193.089 256.047 191.918 255.977 190.755C255.75 187.02 257.003 183.28 259.796 180.79L265.344 175.841C265.367 175.821 265.399 175.817 265.426 175.831V175.831ZM176.353 194.311C176.353 188.538 178.647 183.001 182.729 178.918C186.812 174.836 192.349 172.542 198.122 172.542C203.896 172.542 209.433 174.836 213.516 178.918C217.598 183.001 219.892 188.538 219.892 194.311C219.892 200.085 217.598 205.622 213.516 209.704C209.433 213.787 203.896 216.081 198.122 216.081C192.349 216.081 186.812 213.787 182.729 209.704C178.647 205.622 176.353 200.085 176.353 194.311Z" fill="#F9FAFC"/>
<path d="M197.987 119.417H198.304C201.337 119.417 204.317 119.595 207.245 119.994L207.256 119.996L207.269 119.997C210.907 120.423 213.774 123.302 214.539 127.04L214.539 127.048L215.345 130.875C216.665 137.148 221.225 142.041 226.566 145.136C231.911 148.234 238.362 149.669 244.438 147.665L248.191 146.427L248.195 146.426C251.814 145.219 255.739 146.248 257.947 149.193C259.313 151.028 260.611 152.931 261.81 154.87L262.318 155.703L263.705 158.118V158.119C264.948 160.34 266.063 162.657 267.092 165.03C268.475 168.333 267.527 172.087 264.895 174.617C264.777 174.663 264.664 174.726 264.561 174.805L264.48 174.872L258.931 179.82C255.791 182.621 254.435 186.775 254.681 190.834C254.75 191.971 254.786 193.116 254.786 194.266C254.786 200.447 256.773 206.787 261.553 211.05L264.517 213.694C267.378 216.275 268.43 220.187 266.998 223.554C265.971 225.92 264.86 228.232 263.621 230.445L262.221 232.883C261.057 234.862 259.787 236.746 258.438 238.597L257.855 239.388C255.645 242.33 251.722 243.358 248.104 242.152L248.1 242.151L244.365 240.918C238.279 238.911 231.835 240.335 226.476 243.434C221.14 246.52 216.577 251.42 215.264 257.684L214.449 261.575L214.448 261.579C213.684 265.28 210.812 268.2 207.177 268.626H207.175C204.189 268.982 201.156 269.161 198.078 269.161C194.998 269.161 191.966 268.982 188.979 268.626H188.977C185.338 268.199 182.471 265.32 181.707 261.581L181.706 261.575L180.895 257.706C179.579 251.432 175.019 246.536 169.677 243.44C164.334 240.343 157.884 238.909 151.81 240.912L148.054 242.151L148.05 242.152C144.431 243.358 140.506 242.329 138.298 239.385L138.29 239.374L137.695 238.586C136.32 236.742 135.051 234.862 133.887 232.883L132.533 230.534C131.447 228.553 130.459 226.535 129.542 224.479L129.153 223.591C127.722 220.172 128.788 216.267 131.635 213.741L131.638 213.738L134.601 211.096C139.381 206.832 141.369 200.492 141.369 194.311C141.369 188.16 139.392 181.846 134.634 177.602L131.642 174.933H131.643C128.779 172.351 127.723 168.437 129.156 165.069C130.183 162.655 131.298 160.34 132.54 158.119L132.539 158.118L133.899 155.721C135.279 153.497 136.746 151.322 138.297 149.237L138.298 149.238C140.506 146.294 144.43 145.264 148.05 146.471L148.059 146.474L151.851 147.706C157.932 149.683 164.357 148.25 169.704 145.155C175.051 142.06 179.625 137.148 180.941 130.869L181.751 127.002L181.752 126.998C182.517 123.297 185.388 120.377 189.022 119.952L189.027 119.951C191.967 119.595 194.953 119.417 197.987 119.417ZM198.122 171.243C192.004 171.243 186.138 173.674 181.811 177.999V178C177.486 182.327 175.055 188.193 175.055 194.311C175.055 200.43 177.486 206.297 181.811 210.622C186.138 214.949 192.004 217.379 198.122 217.379C204.24 217.379 210.107 214.949 214.434 210.622C218.759 206.297 221.191 200.43 221.191 194.311C221.191 188.193 218.76 182.327 214.435 178L214.434 177.999C210.107 173.674 204.24 171.243 198.122 171.243Z" stroke="url(#paint6_linear_1_2)" stroke-width="2.59673"/>
</g>
<rect x="158.686" y="152.439" width="83.7001" height="83.7001" rx="41.8501" fill="#F9FAFC"/>
<g clip-path="url(#clip1_1_2)">
<path d="M202.903 164.924L198.006 173.422H197.973L193.126 165.007L202.903 164.924Z" fill="#83FF50" stroke="#83FF50" stroke-width="0.165983" stroke-miterlimit="5.3333"/>
<mask id="mask0_1_2" style="mask-type:luminance" maskUnits="userSpaceOnUse" x="179" y="154" width="28" height="13">
<path d="M206.235 166.455H179.943V154.886H206.235V166.455Z" fill="white"/>
</mask>
<g mask="url(#mask0_1_2)">
<g opacity="0.83">
<path d="M202.944 164.878L202.928 164.911H202.911V164.928L193.118 165.011V164.994H183.308L183.242 164.878L188.172 156.346H198.031L202.944 164.878Z" fill="#96FF5B" fill-opacity="0.6471"/>
</g>
</g>
<path d="M202.924 164.911L198.028 173.409H198.011L202.908 164.911H202.924Z" fill="white"/>
<path d="M198.034 173.532L198.017 173.565L193.104 182.063H183.261L178.332 173.532L183.261 165H183.311L188.158 173.415H197.967L198.034 173.532Z" fill="#00D6FF" stroke="#00D6FF" stroke-width="0.165983" stroke-miterlimit="5.3333"/>
<path d="M197.967 173.415H188.174L183.31 164.999H193.12L197.967 173.415Z" fill="#7DFFFF" stroke="#7DFFFF" stroke-width="0.165983" stroke-miterlimit="5.3333"/>
<path d="M202.976 181.852L203.059 181.985H202.909L199.175 182.018L193.116 182.068L198.029 173.57H207.773L202.976 181.852Z" fill="#32E6FF" stroke="#32E6FF" stroke-width="0.165983" stroke-miterlimit="5.3333"/>
<mask id="mask1_1_2" style="mask-type:luminance" maskUnits="userSpaceOnUse" x="190" y="170" width="21" height="24">
<path d="M210.48 193.489H190.579V170.716H210.48V193.489Z" fill="white"/>
</mask>
<g mask="url(#mask1_1_2)">
<g opacity="0.86">
<path d="M207.995 190.389L207.846 190.638H198.003L193.073 182.106L193.09 182.073L198.003 173.574H198.019L193.106 182.056L199.165 182.006L202.916 181.973H203.065L207.896 190.389H207.995Z" fill="#00D5FF" fill-opacity="0.5451"/>
</g>
</g>
<path d="M202.974 181.853L203.057 181.986H202.908L198.061 173.571H207.771L202.974 181.853Z" fill="#20E6FF" stroke="#20E6FF" stroke-width="0.165983" stroke-miterlimit="5.3333"/>
<path d="M212.718 181.985H203.058L202.975 181.852L207.755 173.57H207.854L212.718 181.985Z" fill="#2AF0FF" stroke="#2AF0FF" stroke-width="0.165983" stroke-miterlimit="5.3333"/>
<mask id="mask2_1_2" style="mask-type:luminance" maskUnits="userSpaceOnUse" x="201" y="180" width="14" height="12">
<path d="M214.418 191.795H201.438V180.591H214.418V191.795Z" fill="white"/>
</mask>
<g mask="url(#mask2_1_2)">
<g opacity="0.95">
<path d="M212.784 182.099L208.004 190.382H207.904L203.058 181.983H212.718L212.784 182.099Z" fill="#29EFFF" fill-opacity="0.8"/>
</g>
</g>
<path d="M217.696 173.449L212.766 181.981H212.716L207.869 173.566H198.06L197.993 173.449L198.01 173.416L202.906 164.918V164.901H212.766L217.613 173.3L217.696 173.449Z" fill="#32F8B9" stroke="#32F8B9" stroke-width="0.165983" stroke-miterlimit="5.3333"/>
<mask id="mask3_1_2" style="mask-type:luminance" maskUnits="userSpaceOnUse" x="205" y="170" width="21" height="24">
<path d="M225.088 193.488H205.386V170.565H225.088V193.488Z" fill="white"/>
</mask>
<g mask="url(#mask3_1_2)">
<g opacity="0.85">
<path d="M222.613 181.97L217.683 190.502L207.84 190.635L212.72 182.219L212.654 182.103H212.704L217.633 173.571L217.551 173.439H217.7L222.613 181.97Z" fill="#32F6B8" fill-opacity="0.5647"/>
</g>
</g>
<path d="M183.712 206.49V197.215H187.683V198.625H185.108V201.155H186.993V202.565H185.108V205.079H187.683V206.49H183.712Z" fill="#090909"/>
<path d="M191.18 199.348L190.659 202.997H191.701L191.18 199.348ZM190.444 204.361L190.107 206.492H188.651L190.23 197.233H192.146L193.694 206.492H192.223L191.901 204.361H190.444Z" fill="#090909"/>
<path d="M197.914 199.459C197.914 198.922 197.654 198.646 197.117 198.646H196.274V201.605H197.117C197.332 201.605 197.531 201.529 197.684 201.375C197.838 201.222 197.914 201.023 197.914 200.808V199.459ZM197.086 197.221C197.868 197.221 198.435 197.435 198.803 197.865C199.125 198.233 199.279 198.769 199.279 199.428V200.777C199.279 201.437 199.033 201.988 198.527 202.448L199.57 206.496H198.052L197.209 203H197.086H196.274V206.496H194.879V197.236H197.086V197.221Z" fill="#090909"/>
<path d="M201.788 198.631H200.301V197.221H204.67V198.631H203.183V206.496H201.788V198.631Z" fill="#090909"/>
<path d="M207.185 202.563V206.488H205.79V197.228H207.185V201.153H208.872V197.213H210.267V206.473H208.872V202.563H207.185Z" fill="#090909"/>
<path d="M215.324 206.49H211.523V197.23H212.918V205.095H215.324V206.49Z" fill="#090909"/>
<path d="M216.426 202.609L214.556 197.212H216.089L217.131 200.539L218.158 197.212H219.707L217.821 202.609V206.487H216.426V202.609Z" fill="#090909"/>
<path d="M213.696 211.666C213.696 211.129 213.436 210.853 212.899 210.853H212.056V213.812H212.899C213.114 213.812 213.313 213.735 213.467 213.582C213.62 213.429 213.696 213.229 213.696 213.015V211.666ZM212.869 209.427C213.65 209.427 214.218 209.642 214.586 210.071C214.908 210.439 215.061 210.976 215.061 211.635V212.984C215.061 213.643 214.816 214.195 214.31 214.655L215.352 218.702H213.834L212.991 215.207H212.869H212.056V218.702H210.661V209.443H212.869V209.427Z" fill="#49728B"/>
<path d="M206.991 211.555L206.47 215.203H207.512L206.991 211.555ZM206.255 216.568L205.918 218.699H204.461L206.04 209.439H207.957L209.505 218.699H208.033L207.711 216.568H206.255Z" fill="#49728B"/>
<path d="M200.224 213.702V218.695H198.829V209.435H200.224L201.911 214.325V209.42H203.306V218.68H201.911L200.224 213.702Z" fill="#49728B"/>
<path d="M195.263 218.695V218.695C194.122 218.695 193.196 217.77 193.196 216.628V209.435H194.591V216.454C194.591 216.92 194.969 217.297 195.434 217.297V217.297C195.9 217.297 196.278 216.92 196.278 216.454V209.42H197.673V216.612C197.673 217.757 196.75 218.686 195.605 218.695V218.695H195.263Z" fill="#49728B"/>
<path d="M188.07 218.697V209.422H189.465V210.832V213.362V214.772V217.286H192.041V218.697H188.07Z" fill="#49728B"/>
</g>
<g clip-path="url(#clip2_1_2)">
<rect x="168.536" y="228.787" width="64" height="3" rx="1.5" fill="#DFDFDF"/>
<rect x="168.536" y="228.235" width="53.8374" height="4.1052" fill="url(#paint7_linear_1_2)"/>
</g>
<path d="M151.519 194.289L142.027 200.191C141.629 195.546 141.622 192.961 142.027 188.386L151.519 194.289Z" fill="#00D6FF"/>
<path d="M244.636 194.289L254.129 200.191C254.527 195.546 254.534 192.961 254.129 188.386L244.636 194.289Z" fill="#00D6FF"/>
<g filter="url(#filter2_d_1_2)">
<rect x="57.624" y="132.735" width="40.0764" height="40.0764" rx="20.0382" transform="rotate(-64.816 57.624 132.735)" fill="#FDFDFD"/>
<rect x="58.6114" y="132.379" width="38.592" height="38.592" rx="19.296" transform="rotate(-64.816 58.6114 132.379)" stroke="#00D6FF" stroke-opacity="0.24" stroke-width="1.48431"/>
<path d="M84.2838 132.118L87.8742 121.057H80.6987L84.2838 132.118Z" fill="#E24329"/>
<path d="M75.6698 121.057L74.5764 124.417C74.4775 124.722 74.5843 125.059 74.8455 125.249L84.2838 132.118L75.6698 121.057Z" fill="#FCA326"/>
<path d="M75.6698 121.057H80.6987L78.5344 114.395C78.4236 114.055 77.9409 114.055 77.8261 114.395L75.6698 121.057Z" fill="#E24329"/>
<path d="M92.903 121.057L93.9924 124.417C94.0913 124.722 93.9845 125.059 93.7234 125.249L84.2836 132.118L92.903 121.057Z" fill="#FCA326"/>
<path d="M92.9029 121.057H87.874L90.0343 114.395C90.1451 114.055 90.6279 114.055 90.7426 114.395L92.9029 121.057Z" fill="#E24329"/>
<path d="M84.2836 132.118L87.874 121.057H92.903L84.2836 132.118Z" fill="#FC6D26"/>
<path d="M84.2839 132.118L75.6699 121.057H80.6988L84.2839 132.118Z" fill="#FC6D26"/>
</g>
<g filter="url(#filter3_d_1_2)">
<rect x="57.624" y="271.734" width="40.0764" height="40.0764" rx="20.0382" transform="rotate(-64.816 57.624 271.734)" fill="#FDFDFD"/>
<rect x="58.6114" y="271.378" width="38.592" height="38.592" rx="19.296" transform="rotate(-64.816 58.6114 271.378)" stroke="#00D6FF" stroke-opacity="0.24" stroke-width="1.48431"/>
<g clip-path="url(#clip3_1_2)">
<path d="M84.285 252.479C78.8293 252.479 74.4053 256.902 74.4053 262.358C74.4053 266.723 77.2362 270.427 81.1616 271.733C81.6554 271.825 81.8367 271.519 81.8367 271.258C81.8367 271.022 81.8275 270.244 81.8232 269.418C79.0747 270.016 78.4947 268.253 78.4947 268.253C78.0453 267.111 77.3978 266.807 77.3978 266.807C76.5014 266.194 77.4654 266.207 77.4654 266.207C78.4574 266.276 78.9798 267.225 78.9798 267.225C79.861 268.735 81.291 268.298 81.8548 268.046C81.9435 267.407 82.1995 266.972 82.4821 266.725C80.2877 266.475 77.9809 265.628 77.9809 261.842C77.9809 260.764 78.3668 259.882 78.9988 259.19C78.8962 258.942 78.5581 257.937 79.0945 256.576C79.0945 256.576 79.9241 256.31 81.8121 257.589C82.6002 257.37 83.4454 257.26 84.285 257.256C85.1246 257.26 85.9704 257.37 86.76 257.589C88.6456 256.31 89.4741 256.576 89.4741 256.576C90.0119 257.937 89.6736 258.942 89.571 259.19C90.2045 259.882 90.5878 260.764 90.5878 261.842C90.5878 265.637 88.2766 266.472 86.0766 266.717C86.431 267.024 86.7467 267.625 86.7467 268.547C86.7467 269.868 86.7353 270.932 86.7353 271.258C86.7353 271.521 86.9131 271.829 87.4139 271.732C91.3372 270.424 94.1645 266.722 94.1645 262.358C94.1645 256.902 89.7411 252.479 84.285 252.479ZM78.1056 266.552C78.0838 266.601 78.0066 266.616 77.9363 266.583C77.8646 266.55 77.8243 266.483 77.8476 266.434C77.8688 266.384 77.9462 266.37 78.0177 266.403C78.0895 266.436 78.1304 266.503 78.1056 266.552ZM78.5916 266.986C78.5444 267.03 78.4523 267.009 78.3898 266.94C78.3252 266.872 78.3131 266.779 78.3609 266.735C78.4095 266.691 78.4988 266.712 78.5636 266.781C78.6282 266.85 78.6408 266.942 78.5916 266.986ZM78.9249 267.541C78.8644 267.583 78.7654 267.543 78.7042 267.456C78.6437 267.368 78.6437 267.262 78.7056 267.22C78.7669 267.178 78.8644 267.216 78.9264 267.303C78.9868 267.392 78.9868 267.498 78.9249 267.541ZM79.4888 268.183C79.4346 268.243 79.3193 268.227 79.2349 268.146C79.1485 268.066 79.1244 267.953 79.1788 267.893C79.2336 267.833 79.3496 267.85 79.4346 267.931C79.5204 268.01 79.5465 268.124 79.4888 268.183ZM80.2175 268.4C80.1936 268.478 80.0825 268.513 79.9706 268.48C79.8589 268.446 79.7857 268.355 79.8083 268.277C79.8316 268.199 79.9431 268.163 80.0558 268.198C80.1674 268.232 80.2407 268.322 80.2175 268.4ZM81.0468 268.492C81.0496 268.574 80.9547 268.641 80.8372 268.643C80.7191 268.645 80.6235 268.58 80.6222 268.499C80.6222 268.417 80.715 268.35 80.8331 268.348C80.9506 268.346 81.0468 268.411 81.0468 268.492ZM81.8615 268.461C81.8756 268.541 81.7939 268.622 81.6773 268.644C81.5626 268.665 81.4564 268.616 81.4418 268.537C81.4276 268.456 81.5107 268.374 81.6252 268.353C81.7421 268.332 81.8466 268.38 81.8615 268.461Z" fill="#161614"/>
</g>
</g>
<path d="M54.4423 189.486C53.6382 190.222 52.61 190.59 51.3575 190.59C49.8078 190.59 48.5895 190.093 47.7026 189.099C46.8157 188.1 46.3722 186.73 46.3722 184.99C46.3722 183.109 46.8766 181.66 47.8854 180.641C48.7625 179.754 49.8785 179.311 51.2333 179.311C53.0461 179.311 54.3716 179.905 55.2098 181.094C55.6728 181.762 55.9213 182.432 55.9554 183.104H53.704C53.5578 182.588 53.3702 182.198 53.1411 181.935C52.7318 181.467 52.1251 181.233 51.321 181.233C50.5023 181.233 49.8566 181.564 49.3839 182.227C48.9112 182.885 48.6748 183.818 48.6748 185.027C48.6748 186.235 48.9234 187.142 49.4204 187.746C49.9224 188.346 50.5583 188.645 51.3283 188.645C52.1178 188.645 52.7196 188.387 53.1338 187.87C53.3629 187.593 53.5529 187.176 53.704 186.62H55.9335C55.7386 187.795 55.2415 188.75 54.4423 189.486ZM63.6861 183.331C64.3586 184.174 64.6948 185.171 64.6948 186.321C64.6948 187.49 64.3586 188.492 63.6861 189.325C63.0136 190.154 61.9926 190.568 60.6232 190.568C59.2539 190.568 58.2329 190.154 57.5604 189.325C56.8879 188.492 56.5516 187.49 56.5516 186.321C56.5516 185.171 56.8879 184.174 57.5604 183.331C58.2329 182.488 59.2539 182.066 60.6232 182.066C61.9926 182.066 63.0136 182.488 63.6861 183.331ZM60.6159 183.828C60.0068 183.828 59.5365 184.045 59.2051 184.479C58.8786 184.908 58.7154 185.522 58.7154 186.321C58.7154 187.12 58.8786 187.736 59.2051 188.17C59.5365 188.604 60.0068 188.821 60.6159 188.821C61.2251 188.821 61.6929 188.604 62.0194 188.17C62.3459 187.736 62.5092 187.12 62.5092 186.321C62.5092 185.522 62.3459 184.908 62.0194 184.479C61.6929 184.045 61.2251 183.828 60.6159 183.828ZM72.9956 179.53V190.29H70.9708V189.186C70.6735 189.659 70.3348 190.003 69.9547 190.217C69.5746 190.431 69.1019 190.539 68.5366 190.539C67.6058 190.539 66.8212 190.163 66.1828 189.413C65.5493 188.658 65.2325 187.69 65.2325 186.511C65.2325 185.151 65.5444 184.082 66.1682 183.302C66.7969 182.522 67.6351 182.132 68.6828 182.132C69.1653 182.132 69.5941 182.239 69.9693 182.454C70.3446 182.663 70.6492 182.956 70.8831 183.331V179.53H72.9956ZM67.3816 186.357C67.3816 187.093 67.5278 187.68 67.8202 188.119C68.1078 188.562 68.5464 188.784 69.136 188.784C69.7257 188.784 70.174 188.565 70.481 188.126C70.788 187.688 70.9416 187.12 70.9416 186.423C70.9416 185.448 70.6955 184.752 70.2033 184.332C69.9011 184.079 69.5502 183.952 69.1506 183.952C68.5415 183.952 68.0931 184.184 67.8056 184.647C67.523 185.105 67.3816 185.675 67.3816 186.357ZM81.2672 187.951C81.2136 188.424 80.9675 188.904 80.5289 189.391C79.8466 190.166 78.8915 190.553 77.6634 190.553C76.6498 190.553 75.7555 190.227 74.9807 189.574C74.2058 188.921 73.8184 187.858 73.8184 186.387C73.8184 185.007 74.1669 183.95 74.8637 183.214C75.5655 182.478 76.4743 182.11 77.5903 182.11C78.2531 182.11 78.8501 182.235 79.3812 182.483C79.9124 182.732 80.351 183.124 80.697 183.66C81.0089 184.133 81.2111 184.681 81.3037 185.305C81.3573 185.67 81.3793 186.197 81.3695 186.884H75.9164C75.9456 187.683 76.1966 188.243 76.6693 188.565C76.9568 188.765 77.3028 188.865 77.7073 188.865C78.1361 188.865 78.4846 188.743 78.7526 188.499C78.8988 188.368 79.0279 188.185 79.14 187.951H81.2672ZM79.2058 185.509C79.1717 184.959 79.0036 184.542 78.7014 184.259C78.4041 183.972 78.0338 183.828 77.5903 183.828C77.1079 183.828 76.7326 183.979 76.4646 184.281C76.2014 184.583 76.0358 184.993 75.9675 185.509H79.2058ZM48.6362 209.29H43.7532V198.515H48.9871C50.3077 198.535 51.2434 198.917 51.7941 199.663C52.1255 200.121 52.2912 200.669 52.2912 201.308C52.2912 201.966 52.1255 202.494 51.7941 202.894C51.6089 203.118 51.336 203.323 50.9754 203.508C51.5261 203.708 51.9403 204.024 52.2181 204.458C52.5007 204.892 52.642 205.418 52.642 206.037C52.642 206.676 52.4812 207.248 52.1596 207.755C51.9549 208.091 51.6991 208.374 51.392 208.603C51.046 208.866 50.6367 209.046 50.164 209.144C49.6962 209.241 49.1869 209.29 48.6362 209.29ZM48.5851 204.546H45.9023V207.419H48.5485C49.0212 207.419 49.3891 207.355 49.6523 207.229C50.1299 206.995 50.3687 206.546 50.3687 205.884C50.3687 205.323 50.1372 204.938 49.6742 204.729C49.4159 204.612 49.0529 204.551 48.5851 204.546ZM49.7035 202.492C49.9959 202.316 50.1421 202.002 50.1421 201.549C50.1421 201.047 49.9471 200.716 49.5573 200.555C49.221 200.443 48.7922 200.387 48.2707 200.387H45.9023V202.762H48.5485C49.0212 202.762 49.4062 202.672 49.7035 202.492ZM54.2177 202.185C54.7684 201.483 55.7138 201.132 57.054 201.132C57.9263 201.132 58.7011 201.305 59.3785 201.651C60.0559 201.997 60.3946 202.65 60.3946 203.61V207.265C60.3946 207.519 60.3995 207.826 60.4092 208.186C60.4238 208.459 60.4652 208.644 60.5335 208.742C60.6017 208.839 60.704 208.92 60.8405 208.983V209.29H58.5744C58.5111 209.129 58.4672 208.978 58.4428 208.837C58.4185 208.696 58.399 208.535 58.3844 208.354C58.0968 208.666 57.7655 208.932 57.3902 209.151C56.9419 209.409 56.4351 209.539 55.8698 209.539C55.1485 209.539 54.5516 209.334 54.0789 208.925C53.611 208.51 53.3771 207.926 53.3771 207.17C53.3771 206.191 53.7548 205.482 54.5101 205.043C54.9244 204.804 55.5335 204.634 56.3376 204.531L57.0467 204.444C57.4316 204.395 57.707 204.334 57.8727 204.261C58.1699 204.134 58.3186 203.937 58.3186 203.669C58.3186 203.342 58.2041 203.118 57.975 202.996C57.7508 202.87 57.4195 202.806 56.9809 202.806C56.4887 202.806 56.1402 202.928 55.9356 203.172C55.7894 203.352 55.6919 203.596 55.6432 203.903H53.633C53.6768 203.206 53.8717 202.633 54.2177 202.185ZM55.7674 207.784C55.9624 207.945 56.2012 208.025 56.4838 208.025C56.9321 208.025 57.3439 207.894 57.7192 207.631C58.0993 207.368 58.2966 206.888 58.3113 206.191V205.416C58.1797 205.499 58.0457 205.567 57.9092 205.62C57.7776 205.669 57.5949 205.716 57.361 205.759L56.8932 205.847C56.4546 205.925 56.1402 206.02 55.9502 206.132C55.6285 206.322 55.4677 206.617 55.4677 207.017C55.4677 207.372 55.5676 207.628 55.7674 207.784ZM67.2919 201.688C67.9157 202.087 68.2738 202.775 68.3664 203.749H66.2831C66.2539 203.481 66.1783 203.269 66.0565 203.113C65.8275 202.831 65.4376 202.689 64.8869 202.689C64.4337 202.689 64.1097 202.76 63.9147 202.901C63.7247 203.043 63.6296 203.208 63.6296 203.398C63.6296 203.637 63.732 203.81 63.9367 203.917C64.1413 204.029 64.865 204.222 66.1077 204.495C66.9361 204.69 67.5575 204.985 67.9717 205.379C68.3811 205.779 68.5857 206.278 68.5857 206.878C68.5857 207.667 68.2909 208.313 67.7012 208.815C67.1164 209.312 66.21 209.561 64.982 209.561C63.7295 209.561 62.8036 209.297 62.2042 208.771C61.6097 208.24 61.3124 207.565 61.3124 206.746H63.425C63.4688 207.117 63.5638 207.38 63.71 207.536C63.9683 207.813 64.4459 207.952 65.1428 207.952C65.5521 207.952 65.8762 207.891 66.115 207.77C66.3587 207.648 66.4805 207.465 66.4805 207.221C66.4805 206.987 66.383 206.81 66.1881 206.688C65.9932 206.566 65.2695 206.356 64.0171 206.059C63.1155 205.835 62.4796 205.555 62.1092 205.218C61.7388 204.887 61.5536 204.409 61.5536 203.786C61.5536 203.05 61.8412 202.419 62.4162 201.892C62.9961 201.361 63.8099 201.096 64.8577 201.096C65.8518 201.096 66.6632 201.293 67.2919 201.688ZM76.5064 206.951C76.4528 207.424 76.2067 207.904 75.7681 208.391C75.0859 209.166 74.1307 209.553 72.9026 209.553C71.889 209.553 70.9948 209.227 70.2199 208.574C69.4451 207.921 69.0577 206.858 69.0577 205.387C69.0577 204.007 69.4061 202.95 70.103 202.214C70.8047 201.478 71.7136 201.11 72.8295 201.11C73.4923 201.11 74.0893 201.235 74.6205 201.483C75.1516 201.732 75.5902 202.124 75.9362 202.66C76.2481 203.133 76.4504 203.681 76.543 204.305C76.5966 204.67 76.6185 205.197 76.6087 205.884H71.1556C71.1848 206.683 71.4358 207.243 71.9085 207.565C72.196 207.765 72.542 207.865 72.9465 207.865C73.3753 207.865 73.7238 207.743 73.9918 207.499C74.138 207.368 74.2672 207.185 74.3792 206.951H76.5064ZM74.445 204.509C74.4109 203.959 74.2428 203.542 73.9406 203.259C73.6434 202.972 73.273 202.828 72.8295 202.828C72.3471 202.828 71.9719 202.979 71.7038 203.281C71.4407 203.583 71.275 203.993 71.2068 204.509H74.445ZM83.0601 201.688C83.6839 202.087 84.0421 202.775 84.1347 203.749H82.0514C82.0221 203.481 81.9466 203.269 81.8248 203.113C81.5957 202.831 81.2059 202.689 80.6552 202.689C80.202 202.689 79.8779 202.76 79.683 202.901C79.4929 203.043 79.3979 203.208 79.3979 203.398C79.3979 203.637 79.5002 203.81 79.7049 203.917C79.9096 204.029 80.6333 204.222 81.8759 204.495C82.7044 204.69 83.3257 204.985 83.74 205.379C84.1493 205.779 84.354 206.278 84.354 206.878C84.354 207.667 84.0592 208.313 83.4695 208.815C82.8847 209.312 81.9783 209.561 80.7502 209.561C79.4978 209.561 78.5719 209.297 77.9725 208.771C77.3779 208.24 77.0807 207.565 77.0807 206.746H79.1932C79.2371 207.117 79.3321 207.38 79.4783 207.536C79.7366 207.813 80.2142 207.952 80.911 207.952C81.3204 207.952 81.6445 207.891 81.8833 207.77C82.1269 207.648 82.2487 207.465 82.2487 207.221C82.2487 206.987 82.1513 206.81 81.9564 206.688C81.7614 206.566 81.0377 206.356 79.7853 206.059C78.8838 205.835 78.2478 205.555 77.8774 205.218C77.5071 204.887 77.3219 204.409 77.3219 203.786C77.3219 203.05 77.6094 202.419 78.1845 201.892C78.7644 201.361 79.5782 201.096 80.626 201.096C81.6201 201.096 82.4315 201.293 83.0601 201.688Z" fill="#111827"/>
<g filter="url(#filter4_d_1_2)">
<rect x="299.622" y="329.663" width="271" height="271" rx="135.5" transform="rotate(-90 299.622 329.663)" fill="#FDFDFD"/>
<rect x="299.974" y="329.311" width="270.296" height="270.296" rx="135.148" transform="rotate(-90 299.974 329.311)" stroke="#C0F4FD" stroke-width="0.704123"/>
</g>
<g filter="url(#filter5_d_1_2)">
<g clip-path="url(#clip4_1_2)">
<rect x="334.393" y="317.735" width="40.0764" height="40.0764" rx="20.0382" transform="rotate(-64.816 334.393 317.735)" fill="#FDFDFD"/>
<path fill-rule="evenodd" clip-rule="evenodd" d="M368.021 307.943C368.021 311.803 364.963 314.933 361.191 314.933C357.419 314.933 354.361 311.803 354.361 307.943C354.361 304.082 357.419 300.952 361.191 300.952C364.963 300.952 368.021 304.082 368.021 307.943Z" fill="#D33833"/>
<path d="M354.64 309.673C354.64 309.673 354.145 302.383 360.858 302.175L360.39 301.393L356.747 302.617L355.706 303.815L354.796 305.559L354.275 307.59L354.432 308.944" fill="#EF3D3A"/>
<path d="M356.514 303.173C355.315 304.4 354.574 306.094 354.574 307.968C354.574 309.842 355.315 311.536 356.514 312.762C357.713 313.989 359.365 314.746 361.191 314.746C363.018 314.746 364.671 313.989 365.869 312.762C367.068 311.536 367.809 309.842 367.809 307.968C367.809 306.094 367.068 304.4 365.869 303.173C364.671 301.947 363.018 301.19 361.191 301.19C359.365 301.19 357.713 301.947 356.514 303.173ZM356.21 313.059C354.937 311.756 354.149 309.955 354.149 307.968C354.149 305.981 354.937 304.18 356.21 302.877C357.484 301.573 359.246 300.765 361.191 300.765C363.137 300.765 364.9 301.573 366.173 302.877C367.446 304.18 368.234 305.981 368.234 307.968C368.234 309.955 367.446 311.756 366.173 313.059C364.9 314.363 363.137 315.171 361.191 315.171C359.246 315.171 357.484 314.363 356.21 313.059Z" fill="#231F20"/>
<path fill-rule="evenodd" clip-rule="evenodd" d="M364.066 307.98L363.025 308.136L361.62 308.293L360.71 308.319L359.825 308.293L359.149 308.084L358.55 307.433L358.082 306.106L357.978 305.819L357.353 305.611L356.989 305.012L356.729 304.153L357.015 303.398L357.692 303.164L358.238 303.424L358.498 303.997L358.81 303.945L358.914 303.815L358.81 303.216L358.784 302.461L358.94 301.419L358.934 300.825L359.409 300.066L360.241 299.467L361.699 298.842L363.312 299.076L364.717 300.092L365.367 301.133L365.783 301.888L365.888 303.763L365.575 305.377L365.003 306.809L364.457 307.564" fill="#F0D6B7"/>
<path fill-rule="evenodd" clip-rule="evenodd" d="M363.182 312.485L359.461 312.641V313.266L359.774 315.453L359.617 315.635L357.016 314.75L356.833 314.437L356.573 311.495L355.975 309.725L355.845 309.308L357.926 307.877L358.577 307.616L359.149 308.319L359.643 308.762L360.216 308.944L360.476 309.022L360.788 310.376L361.022 310.662L361.621 310.454L361.205 311.261L363.468 312.328L363.182 312.485Z" fill="#335061"/>
<path fill-rule="evenodd" clip-rule="evenodd" d="M357.015 303.399L357.691 303.165L358.238 303.425L358.498 303.998L358.81 303.946L358.888 303.633L358.732 303.034L358.888 301.602L358.758 300.821L359.226 300.275L360.241 299.468L359.955 299.077L358.524 299.78L357.925 300.249L357.587 300.978L357.067 301.681L356.911 302.514L357.015 303.399Z" fill="#6D6B6D"/>
<path fill-rule="evenodd" clip-rule="evenodd" d="M358.082 300.951C358.082 300.951 358.473 299.988 360.034 299.519C361.595 299.05 360.112 299.181 360.112 299.181L358.421 299.832L357.77 300.482L357.484 301.003L358.082 300.951Z" fill="#DCD9D8"/>
<path fill-rule="evenodd" clip-rule="evenodd" d="M357.301 303.216C357.301 303.216 356.755 301.394 358.836 301.134L358.758 300.821L357.327 301.16L356.911 302.514L357.015 303.399L357.301 303.216Z" fill="#DCD9D8"/>
<path fill-rule="evenodd" clip-rule="evenodd" d="M358.134 305.637L358.475 305.307C358.475 305.307 358.629 305.325 358.655 305.507C358.681 305.689 358.759 307.329 359.877 308.215C359.979 308.295 359.045 308.084 359.045 308.084L358.212 306.783" fill="#F7E4CD"/>
<path fill-rule="evenodd" clip-rule="evenodd" d="M362.922 305.144C362.922 305.144 362.982 304.354 363.195 304.414C363.408 304.475 363.408 304.688 363.408 304.688C363.408 304.688 362.891 305.022 362.922 305.144Z" fill="#F7E4CD"/>
<path d="M365.082 302.253C365.082 302.253 364.652 302.343 364.613 302.722C364.573 303.1 365.082 302.8 365.16 302.774" fill="#F7E4CD"/>
<path d="M361.933 302.278C361.933 302.278 361.36 302.356 361.36 302.721C361.36 303.086 362.011 303.06 362.193 302.903" fill="#F7E4CD"/>
<path fill-rule="evenodd" clip-rule="evenodd" d="M358.395 303.972C358.395 303.972 357.406 303.373 357.302 303.946C357.198 304.518 356.964 304.935 357.458 305.534L357.12 305.43L356.808 304.623L356.703 303.841L357.302 303.217L357.978 303.269L358.369 303.581L358.395 303.972Z" fill="#F7E4CD"/>
<path fill-rule="evenodd" clip-rule="evenodd" d="M358.863 302.331C358.863 302.331 359.305 300.04 361.543 299.597C363.385 299.233 364.353 299.675 364.717 300.092C364.717 300.092 363.078 298.139 361.517 298.738C359.956 299.337 358.811 300.43 358.837 301.133C358.881 302.33 358.863 302.331 358.863 302.331Z" fill="#F7E4CD"/>
<path fill-rule="evenodd" clip-rule="evenodd" d="M364.9 300.352C364.9 300.352 364.145 300.326 364.118 301.004C364.118 301.004 364.118 301.108 364.17 301.212C364.17 301.212 364.77 300.535 365.134 300.9" fill="#F7E4CD"/>
<path fill-rule="evenodd" clip-rule="evenodd" d="M361.595 301.282C361.595 301.282 361.465 300.243 360.58 300.847C360.007 301.238 360.059 301.784 360.163 301.889C360.267 301.993 360.239 302.203 360.318 302.059C360.397 301.915 360.371 301.446 360.658 301.316C360.944 301.185 361.413 301.04 361.595 301.282Z" fill="#F7E4CD"/>
<path fill-rule="evenodd" clip-rule="evenodd" d="M359.149 308.32L356.703 309.413C356.703 309.413 357.718 313.449 357.198 314.698L356.833 314.568L356.807 313.032L356.131 310.116L355.845 309.309L358.395 307.591L359.149 308.32Z" fill="#49728B"/>
<path fill-rule="evenodd" clip-rule="evenodd" d="M359.401 310.551L359.748 310.974V312.536H359.331C359.331 312.536 359.279 311.443 359.279 311.313C359.279 311.183 359.331 310.714 359.331 310.714" fill="#49728B"/>
<path fill-rule="evenodd" clip-rule="evenodd" d="M359.41 312.771L358.238 312.823L358.576 313.058L359.41 313.188" fill="#49728B"/>
<path fill-rule="evenodd" clip-rule="evenodd" d="M363.416 312.511L364.379 312.485L364.613 314.881L363.624 315.011L363.416 312.511Z" fill="#335061"/>
<path fill-rule="evenodd" clip-rule="evenodd" d="M363.676 312.511L365.133 312.432C365.133 312.432 365.732 310.922 365.732 310.844C365.732 310.766 366.252 308.657 366.252 308.657L365.081 307.434L364.847 307.226L364.223 307.85V310.272L363.676 312.511Z" fill="#335061"/>
<path fill-rule="evenodd" clip-rule="evenodd" d="M364.328 312.328L363.416 312.511L363.546 313.24C363.885 313.397 364.458 312.98 364.458 312.98" fill="#49728B"/>
<path fill-rule="evenodd" clip-rule="evenodd" d="M364.353 307.772L366.174 309.126L366.226 308.501L364.847 307.226L364.353 307.772Z" fill="#49728B"/>
<path fill-rule="evenodd" clip-rule="evenodd" d="M360.312 317.64L359.773 315.453L359.505 313.839L359.461 312.641L361.899 312.511L363.416 312.511L363.278 315.245L363.512 317.354L363.486 317.744L361.509 317.9L360.312 317.64Z" fill="white"/>
<path fill-rule="evenodd" clip-rule="evenodd" d="M363.077 312.485C363.077 312.485 362.947 315.192 363.338 317.119C363.338 317.119 362.557 317.613 361.412 317.744L363.598 317.665L363.858 317.509L363.546 313.24L363.468 312.328" fill="#DCD9D8"/>
<path fill-rule="evenodd" clip-rule="evenodd" d="M364.657 314.672L365.672 314.386L367.597 314.282L367.883 313.396L367.363 311.86L366.764 311.782L365.932 312.043L365.133 312.433L364.709 312.355L364.378 312.485" fill="white"/>
<path fill-rule="evenodd" clip-rule="evenodd" d="M364.639 314.151C364.639 314.151 365.315 313.839 365.419 313.865L365.133 312.433L365.471 312.303C365.471 312.303 365.706 313.657 365.706 313.813C365.706 313.813 367.163 313.891 367.293 313.891C367.293 313.891 367.605 313.292 367.527 312.667L367.813 313.5L367.839 313.969L367.423 314.594L366.955 314.698L366.174 314.672L365.914 314.334L365.003 314.464L364.717 314.568" fill="#DCD9D8"/>
<path d="M363.617 312.303L363.044 310.845L362.446 309.986C362.446 309.986 362.576 309.621 362.758 309.621C362.94 309.621 363.356 309.621 363.356 309.621L363.929 309.829L363.877 310.793L363.617 312.303Z" fill="white"/>
<path fill-rule="evenodd" clip-rule="evenodd" d="M363.728 311.807C363.728 311.807 363 310.402 363 310.193C363 310.193 363.13 309.881 363.312 309.959C363.494 310.037 363.885 310.245 363.885 310.245V309.751L363 309.568L362.402 309.646L363.416 312.042L363.624 312.068" fill="#DCD9D8"/>
<path d="M360.546 308.372L359.825 308.293L359.149 308.085V308.319L359.479 308.684L360.52 309.153" fill="white"/>
<path fill-rule="evenodd" clip-rule="evenodd" d="M359.383 308.449C359.383 308.449 360.19 308.788 360.45 308.71L360.476 309.022L359.747 308.866L359.305 308.554L359.383 308.449Z" fill="#DCD9D8"/>
<path fill-rule="evenodd" clip-rule="evenodd" d="M364.655 309.71C364.213 309.697 363.814 309.644 363.465 309.546C363.489 309.402 363.444 309.262 363.48 309.159C363.577 309.088 363.74 309.09 363.888 309.073C363.76 309.01 363.582 308.986 363.435 309.022C363.431 308.922 363.387 308.861 363.36 308.783C363.608 308.694 364.194 308.113 364.524 308.306C364.681 308.397 364.748 308.92 364.76 309.174C364.77 309.385 364.741 309.598 364.655 309.71Z" fill="#D33833"/>
<path d="M364.655 309.71C364.213 309.697 363.814 309.644 363.465 309.546C363.489 309.402 363.444 309.262 363.48 309.159C363.577 309.088 363.74 309.09 363.888 309.073C363.76 309.01 363.582 308.986 363.435 309.022C363.431 308.922 363.387 308.861 363.36 308.783C363.608 308.694 364.194 308.113 364.524 308.306C364.681 308.397 364.748 308.92 364.76 309.174C364.77 309.385 364.741 309.598 364.655 309.71Z" stroke="#D33833" stroke-width="1.07425"/>
<path fill-rule="evenodd" clip-rule="evenodd" d="M362.543 308.987C362.542 309.02 362.541 309.054 362.539 309.088C362.401 309.178 362.179 309.177 362.028 309.253C362.251 309.263 362.426 309.317 362.578 309.393C362.575 309.477 362.571 309.561 362.568 309.645C362.316 309.818 362.085 310.076 361.787 310.238C361.647 310.315 361.153 310.513 361.003 310.478C360.919 310.458 360.911 310.353 360.877 310.254C360.805 310.042 360.639 309.704 360.625 309.384C360.606 308.981 360.565 308.305 361 308.388C361.35 308.455 361.758 308.616 362.03 308.765C362.196 308.855 362.291 308.968 362.543 308.987Z" fill="#D33833"/>
<path d="M362.543 308.987C362.542 309.02 362.541 309.054 362.539 309.088C362.401 309.178 362.179 309.177 362.028 309.253C362.251 309.263 362.426 309.317 362.578 309.393C362.575 309.477 362.571 309.561 362.568 309.645C362.316 309.818 362.085 310.076 361.787 310.238C361.647 310.315 361.153 310.513 361.003 310.478C360.919 310.458 360.911 310.353 360.877 310.254C360.805 310.042 360.639 309.704 360.625 309.384C360.606 308.981 360.565 308.305 361 308.388C361.35 308.455 361.758 308.616 362.03 308.765C362.196 308.855 362.291 308.968 362.543 308.987Z" stroke="#D33833" stroke-width="1.07425"/>
<path fill-rule="evenodd" clip-rule="evenodd" d="M362.795 309.469C362.756 309.249 362.711 309.187 362.729 308.995C363.315 308.603 363.425 309.667 362.795 309.469Z" fill="#D33833"/>
<path d="M362.795 309.469C362.756 309.249 362.711 309.187 362.729 308.995C363.315 308.603 363.425 309.667 362.795 309.469Z" stroke="#D33833" stroke-width="1.07425"/>
<path fill-rule="evenodd" clip-rule="evenodd" d="M363.643 309.647C363.643 309.647 363.461 309.387 363.591 309.309C363.721 309.231 363.851 309.309 363.929 309.178C364.007 309.048 363.929 308.97 363.955 308.814C363.981 308.658 364.111 308.632 364.241 308.606C364.372 308.58 364.736 308.527 364.788 308.658L364.632 308.189L364.32 308.085L363.331 308.658L363.278 308.944V309.517" fill="#EF3D3A"/>
<path fill-rule="evenodd" clip-rule="evenodd" d="M360.911 310.507C360.88 310.1 360.847 309.695 360.81 309.289C360.755 308.683 360.955 308.788 361.48 308.788C361.561 308.788 361.974 308.884 362.004 308.945C362.146 309.235 361.766 309.17 362.167 309.389C362.505 309.573 363.103 309.277 362.966 308.866C362.89 308.775 362.568 308.838 362.452 308.778C362.249 308.673 362.046 308.567 361.843 308.462C361.584 308.328 360.986 308.132 360.71 308.319C360.012 308.795 360.755 309.983 361.004 310.479" fill="#EF3D3A"/>
<path fill-rule="evenodd" clip-rule="evenodd" d="M361.595 301.282C360.886 301.117 360.533 301.579 360.318 302.058C360.126 302.012 360.203 301.751 360.251 301.618C360.378 301.268 360.89 300.803 361.308 300.866C361.488 300.893 361.731 301.058 361.595 301.282Z" fill="#231F20"/>
<path fill-rule="evenodd" clip-rule="evenodd" d="M365.05 302.091C365.061 302.091 365.072 302.092 365.084 302.092C365.244 302.425 365.383 302.778 365.585 303.072C365.449 303.388 364.559 303.667 364.573 303.101C364.765 303.016 365.098 303.083 365.268 302.976C365.17 302.705 365.027 302.474 365.05 302.091Z" fill="#231F20"/>
<path fill-rule="evenodd" clip-rule="evenodd" d="M361.958 302.099C362.11 302.378 362.16 302.671 362.376 302.881C362.473 302.976 362.662 303.092 362.569 303.356C362.547 303.418 362.386 303.557 362.294 303.584C361.956 303.684 361.168 303.605 361.435 303.183C361.715 303.196 362.09 303.365 362.299 303.162C362.139 302.905 361.853 302.398 361.958 302.099Z" fill="#231F20"/>
<path fill-rule="evenodd" clip-rule="evenodd" d="M364.924 304.934C364.415 305.261 363.848 305.616 363.014 305.534C362.836 305.379 362.768 305.034 362.941 304.806C363.031 304.961 362.975 305.246 363.226 305.289C363.699 305.37 364.249 305 364.59 304.87C364.801 304.514 364.571 304.383 364.381 304.154C363.992 303.685 363.47 303.103 363.489 302.4C363.646 302.286 363.66 302.575 363.683 302.627C363.886 303.103 364.397 303.711 364.77 304.119C364.862 304.219 365.013 304.315 365.03 304.382C365.078 304.574 364.904 304.805 364.924 304.934Z" fill="#231F20"/>
<path fill-rule="evenodd" clip-rule="evenodd" d="M358.217 304.59C358.057 304.499 358.019 304.098 357.832 304.086C357.564 304.07 357.613 304.607 357.614 304.921C357.429 304.754 357.397 304.238 357.532 303.974C357.378 303.898 357.309 304.057 357.224 304.114C357.334 303.314 358.393 303.743 358.217 304.59Z" fill="#231F20"/>
<path fill-rule="evenodd" clip-rule="evenodd" d="M365.247 305.267C365.01 305.718 364.675 306.215 363.98 306.229C363.966 306.083 363.955 305.862 363.981 305.774C364.512 305.723 364.84 305.452 365.247 305.267Z" fill="#231F20"/>
<path fill-rule="evenodd" clip-rule="evenodd" d="M361.918 305.559C362.361 305.792 363.176 305.817 363.778 305.799C363.811 305.931 363.81 306.094 363.811 306.255C363.037 306.294 362.121 306.102 361.918 305.559Z" fill="#231F20"/>
<path fill-rule="evenodd" clip-rule="evenodd" d="M361.834 305.994C362.14 306.764 363.194 306.675 364.082 306.654C364.043 306.754 363.958 306.872 363.853 306.915C363.568 307.031 362.783 307.119 362.388 306.909C362.137 306.775 361.976 306.474 361.839 306.297C361.773 306.212 361.442 305.994 361.834 305.994Z" fill="#231F20"/>
<path fill-rule="evenodd" clip-rule="evenodd" d="M364.886 310.241C364.526 310.858 364.182 311.491 363.755 312.035C363.934 311.508 364.011 310.627 364.038 309.956C364.412 309.78 364.733 309.995 364.886 310.241Z" fill="#81B0C4"/>
<path fill-rule="evenodd" clip-rule="evenodd" d="M366.823 312.457C366.42 312.538 366.136 312.93 365.743 312.904C365.959 312.6 366.338 312.471 366.823 312.457Z" fill="#231F20"/>
<path fill-rule="evenodd" clip-rule="evenodd" d="M367.001 313.088C366.673 313.123 366.287 313.176 365.954 313.148C366.111 312.907 366.719 312.991 367.001 313.088Z" fill="#231F20"/>
<path fill-rule="evenodd" clip-rule="evenodd" d="M367.114 313.631C366.745 313.639 366.286 313.631 365.935 313.602C366.143 313.379 366.875 313.519 367.114 313.631Z" fill="#231F20"/>
<path fill-rule="evenodd" clip-rule="evenodd" d="M364.193 315.118C364.246 315.582 364.429 316.052 364.406 316.56C364.202 316.628 364.085 316.689 363.812 316.688C363.793 316.257 363.735 315.597 363.752 315.186C363.887 315.194 364.085 315.089 364.193 315.118Z" fill="#DCD9D8"/>
<path fill-rule="evenodd" clip-rule="evenodd" d="M363.598 308.287C363.412 308.408 363.255 308.559 363.077 308.688C362.682 308.708 362.467 308.661 362.177 308.434C362.182 308.416 362.211 308.424 362.212 308.402C362.634 308.59 363.171 308.325 363.598 308.287Z" fill="#F0D6B7"/>
<path fill-rule="evenodd" clip-rule="evenodd" d="M361.38 311.168C361.496 310.664 361.951 310.404 362.364 310.127C362.79 310.668 363.049 311.364 363.334 312.035C362.66 311.832 361.971 311.502 361.38 311.168Z" fill="#81B0C4"/>
<path fill-rule="evenodd" clip-rule="evenodd" d="M363.751 315.186C363.734 315.597 363.792 316.256 363.811 316.688C364.084 316.688 364.202 316.628 364.406 316.559C364.429 316.052 364.245 315.582 364.192 315.118C364.084 315.089 363.886 315.194 363.751 315.186ZM359.496 312.846C359.676 314.504 359.937 315.897 360.416 317.365C361.479 317.688 362.759 317.716 363.699 317.425C363.526 316.596 363.601 315.588 363.501 314.704C363.425 314.039 363.463 313.371 363.359 312.693C362.221 312.456 360.613 312.637 359.496 312.846ZM363.628 312.703C363.619 313.415 363.66 314.117 363.715 314.83C363.988 314.789 364.173 314.762 364.427 314.706C364.345 314.02 364.355 313.248 364.187 312.641C363.993 312.642 363.822 312.638 363.628 312.703ZM365.014 312.588C364.885 312.559 364.734 312.587 364.61 312.59C364.668 313.17 364.809 313.81 364.859 314.419C365.054 314.426 365.158 314.334 365.318 314.303C365.327 313.768 365.272 313.031 365.014 312.588ZM367.113 314.507C367.519 314.408 367.775 313.91 367.661 313.399C367.585 313.055 367.449 312.408 367.303 312.188C367.196 312.026 366.905 311.813 366.672 311.962C366.294 312.204 365.628 312.274 365.352 312.568C365.49 313.029 365.533 313.662 365.59 314.246C366.063 314.275 366.644 314.115 367.037 314.285C366.763 314.374 366.407 314.374 366.17 314.504C366.363 314.598 366.817 314.579 367.113 314.507ZM363.335 312.035C363.049 311.363 362.79 310.667 362.364 310.126C361.951 310.403 361.496 310.664 361.38 311.167C361.971 311.501 362.66 311.831 363.335 312.035ZM364.038 309.955C364.011 310.627 363.934 311.508 363.756 312.034C364.182 311.49 364.526 310.857 364.886 310.241C364.733 309.994 364.412 309.78 364.038 309.955ZM363.241 309.671C363.079 309.654 362.942 309.857 362.732 309.77C362.683 309.823 362.64 309.881 362.59 309.933C363.055 310.492 363.266 311.287 363.624 311.945C363.817 311.313 363.795 310.62 363.837 309.93C363.573 309.947 363.426 309.691 363.241 309.671ZM362.728 308.994C362.711 309.186 362.755 309.249 362.794 309.469C363.424 309.666 363.314 308.603 362.728 308.994ZM362.029 308.765C361.758 308.616 361.35 308.455 361 308.388C360.565 308.305 360.606 308.981 360.624 309.385C360.639 309.704 360.805 310.042 360.877 310.254C360.911 310.353 360.918 310.458 361.003 310.478C361.153 310.513 361.646 310.315 361.787 310.239C362.084 310.076 362.315 309.818 362.568 309.645C362.571 309.561 362.574 309.477 362.578 309.393C362.426 309.317 362.25 309.263 362.027 309.254C362.178 309.177 362.401 309.179 362.539 309.088C362.54 309.054 362.542 309.021 362.543 308.987C362.291 308.968 362.195 308.856 362.029 308.765ZM359.437 308.294C359.211 308.522 360.069 308.834 360.341 308.851C360.34 308.706 360.424 308.57 360.407 308.466C360.083 308.409 359.657 308.447 359.437 308.294ZM362.212 308.401C362.211 308.423 362.182 308.415 362.177 308.434C362.467 308.66 362.682 308.707 363.076 308.688C363.254 308.558 363.412 308.407 363.597 308.286C363.171 308.324 362.634 308.589 362.212 308.401ZM364.759 309.174C364.747 308.92 364.68 308.397 364.523 308.305C364.193 308.113 363.607 308.694 363.359 308.783C363.386 308.861 363.431 308.922 363.434 309.022C363.581 308.985 363.76 309.01 363.887 309.073C363.74 309.089 363.577 309.088 363.479 309.158C363.444 309.261 363.488 309.402 363.464 309.545C363.814 309.644 364.212 309.696 364.654 309.709C364.74 309.598 364.769 309.385 364.759 309.174ZM359.058 308.515C358.987 308.465 358.508 307.842 358.443 307.867C357.577 308.209 356.767 308.8 356.043 309.359C356.733 310.84 357.012 312.655 357.061 314.404C357.851 314.774 358.545 315.307 359.618 315.362C359.494 314.484 359.38 313.7 359.31 312.873C359.041 312.759 358.654 312.878 358.402 312.838C358.4 312.534 358.787 312.705 358.819 312.5C358.843 312.345 358.606 312.334 358.683 312.09C358.881 312.162 358.984 312.32 359.194 312.38C359.386 311.959 359.192 311.215 359.219 310.864C359.225 310.798 359.252 310.498 359.4 310.551C359.531 310.597 359.392 311.347 359.407 311.68C359.42 311.987 359.37 312.283 359.494 312.476C360.53 312.334 361.583 312.243 362.704 312.212C362.458 312.106 362.165 312.006 361.843 311.825C361.669 311.727 361.12 311.522 361.07 311.357C360.99 311.093 361.28 310.953 361.33 310.727C360.807 311.012 360.705 310.453 360.581 310.057C360.469 309.698 360.405 309.43 360.378 309.223C359.927 309.008 359.445 308.791 359.058 308.515ZM364.301 307.943C365.023 307.593 365.153 309.251 364.87 309.785C364.914 309.945 365.064 310.006 365.125 310.149C364.723 310.871 364.276 311.544 363.865 312.257C364.17 312.067 364.607 312.223 364.967 312.081C365.098 312.029 365.193 311.728 365.293 311.487C365.566 310.824 365.854 309.989 365.982 309.356C366.011 309.212 366.089 308.898 366.072 308.77C366.04 308.54 365.729 308.37 365.57 308.228C365.279 307.966 365.095 307.735 364.791 307.49C364.667 307.672 364.402 307.794 364.301 307.943ZM357.407 301.541C357.064 301.919 357.136 302.628 357.177 303.133C357.799 302.742 358.623 303.164 358.616 303.829C358.912 303.821 358.727 303.458 358.673 303.225C358.497 302.461 358.968 301.631 358.694 300.933C358.162 300.974 357.725 301.191 357.407 301.541ZM359.867 299.344C359.089 299.565 358.092 300.13 357.772 300.83C358.019 300.794 358.191 300.669 358.436 300.654C358.528 300.648 358.649 300.692 358.755 300.666C358.966 300.613 359.145 300.139 359.304 299.963C359.46 299.79 359.647 299.716 359.775 299.559C359.857 299.52 359.978 299.522 359.983 299.399C359.948 299.361 359.91 299.332 359.867 299.344ZM363.919 299.551C363.111 299.095 361.744 298.752 360.884 299.181C360.191 299.527 359.254 300.099 358.934 300.825C359.233 301.524 358.846 302.166 358.821 302.876C358.808 303.254 358.999 303.585 359.014 303.996C358.911 304.165 358.599 304.186 358.383 304.174C358.311 303.81 358.183 303.401 357.809 303.36C357.278 303.302 356.891 303.741 356.867 304.199C356.838 304.739 357.281 305.633 357.908 305.571C358.151 305.547 358.21 305.304 358.474 305.307C358.618 305.593 358.254 305.682 358.216 305.887C358.206 305.939 358.246 306.146 358.27 306.243C358.384 306.714 358.638 307.324 358.888 307.682C359.205 308.137 359.829 308.206 360.5 308.251C360.619 307.992 361.061 308.014 361.348 308.081C361.004 307.945 360.683 307.613 360.418 307.32C360.113 306.984 359.804 306.623 359.788 306.184C360.365 306.984 360.841 307.683 361.889 308.035C362.682 308.301 363.609 307.913 364.218 307.484C364.471 307.306 364.622 307.024 364.802 306.766C365.474 305.797 365.788 304.416 365.719 303.076C365.691 302.524 365.692 301.973 365.507 301.602C365.313 301.213 364.658 300.866 364.275 301.217C364.204 300.839 364.594 300.605 365.052 300.741C364.725 300.32 364.383 299.813 363.919 299.551ZM365.424 312.014C366.055 311.7 367.234 311.169 367.63 312.016C367.776 312.328 367.948 312.855 368.023 313.177C368.13 313.631 367.907 314.586 367.441 314.739C367.028 314.873 366.547 314.865 366.051 314.765C365.993 314.717 365.927 314.632 365.882 314.543C365.527 314.53 365.195 314.562 364.915 314.708C364.942 314.971 364.765 315.013 364.598 315.067C364.475 315.556 364.845 316.194 364.756 316.64C364.693 316.958 364.303 317.007 364.015 317.066C364.006 317.243 364.028 317.39 364.048 317.54C363.982 317.782 363.688 317.919 363.409 317.953C362.491 318.064 361.097 318.113 360.214 317.796C359.968 317.191 359.774 316.456 359.569 315.765C358.707 315.857 358.011 315.393 357.355 315.089C357.127 314.984 356.813 314.926 356.728 314.745C356.646 314.57 356.679 314.234 356.659 313.916C356.607 313.106 356.562 312.324 356.348 311.494C356.252 311.122 356.085 310.793 355.968 310.434C355.86 310.102 355.672 309.691 355.622 309.359C355.55 308.868 356.012 308.84 356.308 308.627C356.765 308.298 357.124 308.116 357.619 307.819C357.766 307.731 358.208 307.508 358.258 307.405C358.358 307.202 358.087 306.915 358.014 306.755C357.899 306.503 357.839 306.289 357.823 306.04C357.407 305.974 357.093 305.727 356.902 305.448C356.588 304.986 356.369 304.132 356.642 303.483C356.663 303.432 356.77 303.331 356.785 303.253C356.816 303.098 356.727 302.892 356.721 302.728C356.693 301.883 356.864 301.156 357.432 300.901C357.663 299.982 358.488 299.676 359.266 299.219C359.556 299.049 359.877 298.94 360.208 298.818C361.395 298.381 363.216 298.463 364.201 299.208C364.619 299.525 365.287 300.192 365.526 300.676C366.157 301.952 366.112 304.084 365.671 305.636C365.611 305.845 365.525 306.151 365.405 306.401C365.321 306.576 365.061 306.926 365.093 307.08C365.125 307.24 365.686 307.666 365.807 307.782C366.023 307.991 366.435 308.269 366.468 308.532C366.504 308.813 366.344 309.197 366.264 309.468C365.994 310.372 365.73 311.208 365.424 312.014Z" fill="#231F20"/>
<path fill-rule="evenodd" clip-rule="evenodd" d="M361.213 305.756C361.247 305.71 361.436 305.641 361.7 305.768C361.7 305.768 361.387 305.82 361.413 306.341L361.283 306.315C361.283 306.315 361.148 305.842 361.213 305.756Z" fill="#F7E4CD"/>
<path fill-rule="evenodd" clip-rule="evenodd" d="M363.494 310.233C363.494 310.312 363.43 310.376 363.351 310.376C363.272 310.376 363.208 310.312 363.208 310.233C363.208 310.154 363.272 310.09 363.351 310.09C363.43 310.09 363.494 310.154 363.494 310.233Z" fill="#1D1919"/>
<path fill-rule="evenodd" clip-rule="evenodd" d="M363.637 310.897C363.637 310.976 363.573 311.04 363.494 311.04C363.415 311.04 363.351 310.976 363.351 310.897C363.351 310.818 363.415 310.754 363.494 310.754C363.573 310.754 363.637 310.818 363.637 310.897Z" fill="#1D1919"/>
</g>
<rect x="335.38" y="317.379" width="38.592" height="38.592" rx="19.296" transform="rotate(-64.816 335.38 317.379)" stroke="#00D6FF" stroke-opacity="0.24" stroke-width="1.48431"/>
</g>
<g filter="url(#filter6_d_1_2)">
<rect x="291.624" y="272.699" width="40.0764" height="40.0764" rx="20.0382" transform="rotate(-64.816 291.624 272.699)" fill="#FDFDFD"/>
<rect x="292.611" y="272.343" width="38.592" height="38.592" rx="19.296" transform="rotate(-64.816 292.611 272.343)" stroke="#00D6FF" stroke-opacity="0.24" stroke-width="1.48431"/>
<path d="M318.292 272.522L321.883 261.461H314.707L318.292 272.522Z" fill="#E24329"/>
<path d="M309.678 261.461L308.585 264.821C308.486 265.127 308.593 265.463 308.854 265.654L318.293 272.522L309.678 261.461Z" fill="#FCA326"/>
<path d="M309.678 261.461H314.707L312.543 254.8C312.432 254.459 311.95 254.459 311.835 254.8L309.678 261.461Z" fill="#E24329"/>
<path d="M326.912 261.461L328.001 264.821C328.1 265.127 327.993 265.463 327.732 265.654L318.292 272.522L326.912 261.461Z" fill="#FCA326"/>
<path d="M326.912 261.461H321.883L324.043 254.8C324.154 254.459 324.637 254.459 324.751 254.8L326.912 261.461Z" fill="#E24329"/>
<path d="M318.292 272.522L321.883 261.461H326.912L318.292 272.522Z" fill="#FC6D26"/>
<path d="M318.293 272.522L309.679 261.461H314.707L318.293 272.522Z" fill="#FC6D26"/>
</g>
<g filter="url(#filter7_d_1_2)">
<g clip-path="url(#clip5_1_2)">
<rect x="292.599" y="132.735" width="40.0764" height="40.0764" rx="20.0382" transform="rotate(-64.816 292.599 132.735)" fill="#FDFDFD"/>
<g clip-path="url(#clip6_1_2)">
<path d="M313.684 113.537C315.902 113.537 317.701 115.335 317.701 117.553C317.701 119.733 315.963 121.506 313.797 121.566C313.797 121.751 313.805 122.099 313.909 122.31C314.054 122.601 314.923 123.145 315.775 123.145H316.081C316.273 121.776 317.449 120.722 318.871 120.722C320.288 120.722 321.461 121.767 321.66 123.128H323.243C323.443 121.767 324.615 120.722 326.032 120.722C327.589 120.722 328.851 121.984 328.851 123.54C328.851 125.096 327.589 126.358 326.032 126.358C324.615 126.358 323.443 125.313 323.243 123.952H321.66C321.461 125.313 320.288 126.358 318.871 126.358C317.457 126.358 316.286 125.317 316.084 123.96L315.745 123.97C315.188 123.966 314.6 123.817 314.127 123.496C313.998 123.408 313.871 123.316 313.739 123.229L313.738 123.412C313.738 123.471 313.727 124.36 313.726 125.348L313.726 125.557C313.727 126.204 313.732 126.871 313.747 127.358C313.78 128.426 314.649 129.287 315.607 129.489C315.732 129.515 315.946 129.519 316.081 129.507C316.273 128.138 317.449 127.085 318.871 127.085C320.428 127.085 321.69 128.347 321.69 129.903C321.69 131.46 320.428 132.721 318.871 132.721C317.465 132.721 316.299 131.691 316.087 130.345H315.843C314.012 130.245 312.874 128.565 312.894 127.203C312.919 125.489 312.9 123.774 312.899 122.059V121.492C311.056 121.127 309.667 119.503 309.667 117.553C309.667 115.335 311.465 113.537 313.684 113.537ZM318.871 127.909C317.77 127.909 316.877 128.802 316.877 129.903C316.877 131.005 317.77 131.898 318.871 131.898C319.973 131.898 320.866 131.005 320.866 129.903C320.866 128.802 319.973 127.909 318.871 127.909ZM318.871 121.546C317.77 121.546 316.877 122.439 316.877 123.54C316.877 124.641 317.77 125.534 318.871 125.534C319.973 125.534 320.866 124.641 320.866 123.54C320.866 122.439 319.973 121.546 318.871 121.546ZM326.032 121.546C324.93 121.546 324.037 122.439 324.037 123.54C324.037 124.641 324.93 125.534 326.032 125.534C327.134 125.534 328.027 124.641 328.027 123.54C328.027 122.439 327.134 121.546 326.032 121.546ZM327.168 122.7C327.325 122.857 327.329 123.109 327.181 123.27L327.169 123.283L325.947 124.508C325.791 124.664 325.541 124.669 325.379 124.523L325.366 124.51L324.767 123.921C324.605 123.762 324.603 123.501 324.763 123.339C324.919 123.181 325.17 123.175 325.333 123.322L325.346 123.334L325.652 123.636L326.585 122.701C326.746 122.54 327.007 122.54 327.168 122.7ZM319.975 122.694C320.132 122.851 320.136 123.103 319.987 123.264L319.975 123.277L318.753 124.502C318.597 124.658 318.347 124.663 318.185 124.517L318.172 124.504L317.574 123.915C317.412 123.756 317.41 123.495 317.57 123.333C317.725 123.175 317.977 123.169 318.14 123.316L318.152 123.328L318.459 123.63L319.392 122.695C319.553 122.534 319.814 122.534 319.975 122.694ZM313.684 114.361C311.92 114.361 310.491 115.79 310.491 117.553C310.491 119.316 311.92 120.745 313.684 120.745C315.447 120.745 316.877 119.316 316.877 117.553C316.877 115.79 315.447 114.361 313.684 114.361ZM313.351 115.645C314.023 116.049 314.686 116.466 315.339 116.897C315.887 117.259 315.886 117.914 315.332 118.276C314.667 118.711 313.991 119.129 313.304 119.528C312.746 119.853 312.12 119.48 312.105 118.828C312.095 118.408 312.103 117.988 312.103 117.568C312.102 117.159 312.094 116.75 312.104 116.342C312.121 115.649 312.759 115.287 313.351 115.645ZM312.908 116.31V116.6C312.908 116.743 312.908 116.885 312.908 117.025L312.908 117.303V117.714C312.908 118.031 312.908 118.343 312.909 118.655C312.909 118.802 312.986 118.796 313.085 118.735C313.655 118.381 314.225 118.028 314.795 117.676C314.889 117.618 314.892 117.557 314.8 117.499C314.189 117.114 313.577 116.73 312.908 116.31Z" fill="#4A7EBF"/>
<path d="M319.651 130.314C319.878 130.314 320.063 130.13 320.063 129.902C320.063 129.675 319.878 129.49 319.651 129.49C319.423 129.49 319.239 129.675 319.239 129.902C319.239 130.13 319.423 130.314 319.651 130.314Z" fill="#85B3DF"/>
<path d="M318.074 130.314C318.301 130.314 318.486 130.13 318.486 129.902C318.486 129.675 318.301 129.49 318.074 129.49C317.846 129.49 317.662 129.675 317.662 129.902C317.662 130.13 317.846 130.314 318.074 130.314Z" fill="#85B3DF"/>
<path d="M326.032 131.898C324.93 131.898 324.037 131.005 324.037 129.903C324.037 128.802 324.93 127.909 326.032 127.909C327.134 127.909 328.027 128.802 328.027 129.903C328.027 131.005 327.134 131.898 326.032 131.898ZM326.032 127.085C324.615 127.085 323.443 128.13 323.244 129.491H322.783C322.581 129.491 322.418 129.676 322.418 129.903C322.418 130.131 322.581 130.315 322.783 130.315H323.244C323.443 131.676 324.615 132.721 326.032 132.721C327.589 132.721 328.851 131.46 328.851 129.903C328.851 128.347 327.589 127.085 326.032 127.085Z" fill="#85B3DF"/>
</g>
</g>
<rect x="293.586" y="132.379" width="38.592" height="38.592" rx="19.296" transform="rotate(-64.816 293.586 132.379)" stroke="#00D6FF" stroke-opacity="0.24" stroke-width="1.48431"/>
</g>
<g filter="url(#filter8_d_1_2)">
<rect x="334.555" y="86.7831" width="40.0764" height="40.0764" rx="20.0382" transform="rotate(-64.816 334.555 86.7831)" fill="#FDFDFD"/>
<rect x="335.542" y="86.4273" width="38.592" height="38.592" rx="19.296" transform="rotate(-64.816 335.542 86.4273)" stroke="#00D6FF" stroke-opacity="0.24" stroke-width="1.48431"/>
<g clip-path="url(#clip7_1_2)">
<path d="M350.855 69.8711L358.771 73.8043V81.8709L350.855 77.8376V69.8711Z" fill="#30F2A2"/>
<path d="M366.687 69.8711L374.603 73.8043V81.8709L366.687 77.8376V69.8711Z" fill="#30F2A2"/>
<path d="M366.688 69.8711L358.771 73.8043V81.8709L366.688 77.8376V69.8711Z" fill="#14CC80"/>
<path d="M374.603 73.9044L366.687 77.8375V85.9042L374.603 81.8708V73.9044Z" fill="#14CC80"/>
</g>
</g>
<path d="M330.541 189.229C329.737 189.965 328.709 190.333 327.456 190.333C325.907 190.333 324.688 189.836 323.802 188.841C322.915 187.842 322.471 186.473 322.471 184.733C322.471 182.852 322.976 181.402 323.984 180.384C324.861 179.497 325.977 179.054 327.332 179.054C329.145 179.054 330.471 179.648 331.309 180.837C331.772 181.505 332.02 182.175 332.054 182.847H329.803C329.657 182.331 329.469 181.941 329.24 181.678C328.831 181.21 328.224 180.976 327.42 180.976C326.601 180.976 325.956 181.307 325.483 181.97C325.01 182.628 324.774 183.561 324.774 184.77C324.774 185.978 325.022 186.885 325.519 187.489C326.021 188.089 326.657 188.388 327.427 188.388C328.217 188.388 328.819 188.13 329.233 187.613C329.462 187.336 329.652 186.919 329.803 186.363H332.032C331.838 187.538 331.34 188.493 330.541 189.229ZM333.133 179.258H335.37V190.033H333.133V179.258ZM335.067 190.033L339.241 178.929H340.973L336.785 190.033H335.067ZM348.346 189.229C347.542 189.965 346.513 190.333 345.261 190.333C343.711 190.333 342.493 189.836 341.606 188.841C340.719 187.842 340.276 186.473 340.276 184.733C340.276 182.852 340.78 181.402 341.789 180.384C342.666 179.497 343.782 179.054 345.137 179.054C346.95 179.054 348.275 179.648 349.113 180.837C349.576 181.505 349.825 182.175 349.859 182.847H347.607C347.461 182.331 347.274 181.941 347.045 181.678C346.635 181.21 346.029 180.976 345.224 180.976C344.406 180.976 343.76 181.307 343.287 181.97C342.815 182.628 342.578 183.561 342.578 184.77C342.578 185.978 342.827 186.885 343.324 187.489C343.826 188.089 344.462 188.388 345.232 188.388C346.021 188.388 346.623 188.13 347.037 187.613C347.266 187.336 347.456 186.919 347.607 186.363H349.837C349.642 187.538 349.145 188.493 348.346 189.229ZM355.755 190.033H351.113V179.258H355.755C356.422 179.268 356.978 179.346 357.421 179.492C358.177 179.741 358.788 180.196 359.256 180.859C359.631 181.395 359.887 181.975 360.024 182.599C360.16 183.223 360.228 183.817 360.228 184.382C360.228 185.815 359.941 187.029 359.366 188.023C358.586 189.363 357.382 190.033 355.755 190.033ZM357.429 182.007C357.083 181.422 356.398 181.13 355.375 181.13H353.299V188.162H355.375C356.437 188.162 357.178 187.638 357.597 186.59C357.826 186.015 357.94 185.33 357.94 184.536C357.94 183.439 357.77 182.596 357.429 182.007ZM317.971 204.808H315.647V209.033H313.447V198.258H318.732C319.487 198.273 320.067 198.365 320.471 198.536C320.881 198.707 321.227 198.958 321.509 199.289C321.743 199.562 321.929 199.864 322.065 200.195C322.201 200.527 322.27 200.904 322.27 201.328C322.27 201.84 322.141 202.344 321.882 202.841C321.624 203.334 321.198 203.682 320.603 203.887C321.1 204.087 321.451 204.372 321.656 204.742C321.865 205.108 321.97 205.668 321.97 206.423V207.147C321.97 207.639 321.989 207.973 322.028 208.148C322.087 208.426 322.223 208.631 322.438 208.762V209.033H319.96C319.892 208.794 319.843 208.602 319.814 208.455C319.755 208.153 319.723 207.844 319.719 207.527L319.704 206.526C319.694 205.839 319.567 205.38 319.324 205.151C319.085 204.922 318.634 204.808 317.971 204.808ZM319.338 202.849C319.787 202.644 320.011 202.24 320.011 201.635C320.011 200.982 319.794 200.544 319.36 200.32C319.117 200.193 318.751 200.13 318.264 200.13H315.647V203.024H318.198C318.705 203.024 319.085 202.966 319.338 202.849ZM328.706 207.907C328.687 207.932 328.638 208.005 328.56 208.127C328.482 208.248 328.39 208.356 328.282 208.448C327.956 208.741 327.639 208.94 327.332 209.048C327.03 209.155 326.674 209.208 326.265 209.208C325.086 209.208 324.291 208.784 323.882 207.936C323.653 207.469 323.538 206.779 323.538 205.868V201.065H325.673V205.868C325.673 206.321 325.726 206.662 325.834 206.891C326.024 207.296 326.397 207.498 326.952 207.498C327.664 207.498 328.151 207.21 328.414 206.635C328.551 206.323 328.619 205.912 328.619 205.4V201.065H330.731V209.033H328.706V207.907ZM336.05 202.608C335.343 202.608 334.858 202.907 334.595 203.507C334.459 203.823 334.39 204.228 334.39 204.72V209.033H332.314V201.08H334.325V202.242C334.593 201.833 334.846 201.538 335.085 201.358C335.514 201.036 336.057 200.875 336.715 200.875C337.538 200.875 338.211 201.092 338.732 201.526C339.259 201.955 339.522 202.668 339.522 203.668V209.033H337.387V204.187C337.387 203.767 337.331 203.446 337.219 203.222C337.015 202.812 336.625 202.608 336.05 202.608ZM344.752 202.608C344.046 202.608 343.561 202.907 343.298 203.507C343.161 203.823 343.093 204.228 343.093 204.72V209.033H341.017V201.08H343.027V202.242C343.295 201.833 343.549 201.538 343.788 201.358C344.216 201.036 344.76 200.875 345.418 200.875C346.241 200.875 346.914 201.092 347.435 201.526C347.962 201.955 348.225 202.668 348.225 203.668V209.033H346.09V204.187C346.09 203.767 346.034 203.446 345.922 203.222C345.717 202.812 345.328 202.608 344.752 202.608ZM356.525 206.694C356.472 207.167 356.226 207.647 355.787 208.134C355.105 208.909 354.15 209.296 352.922 209.296C351.908 209.296 351.014 208.97 350.239 208.317C349.464 207.664 349.077 206.601 349.077 205.129C349.077 203.75 349.425 202.693 350.122 201.957C350.824 201.221 351.733 200.853 352.849 200.853C353.511 200.853 354.108 200.977 354.64 201.226C355.171 201.475 355.609 201.867 355.955 202.403C356.267 202.876 356.469 203.424 356.562 204.048C356.616 204.413 356.638 204.939 356.628 205.627H351.175C351.204 206.426 351.455 206.986 351.928 207.308C352.215 207.508 352.561 207.608 352.966 207.608C353.394 207.608 353.743 207.486 354.011 207.242C354.157 207.11 354.286 206.928 354.398 206.694H356.525ZM354.464 204.252C354.43 203.702 354.262 203.285 353.96 203.002C353.662 202.715 353.292 202.571 352.849 202.571C352.366 202.571 351.991 202.722 351.723 203.024C351.46 203.326 351.294 203.736 351.226 204.252H354.464ZM361.595 202.988C360.757 202.988 360.194 203.261 359.907 203.806C359.746 204.113 359.666 204.586 359.666 205.225V209.033H357.568V201.065H359.556V202.454C359.877 201.923 360.158 201.56 360.396 201.365C360.786 201.038 361.293 200.875 361.917 200.875C361.956 200.875 361.988 200.878 362.012 200.882C362.041 200.882 362.102 200.885 362.195 200.89V203.024C362.063 203.01 361.946 203 361.844 202.995C361.742 202.99 361.659 202.988 361.595 202.988ZM368.463 201.431C369.087 201.83 369.445 202.517 369.538 203.492H367.455C367.425 203.224 367.35 203.012 367.228 202.856C366.999 202.573 366.609 202.432 366.058 202.432C365.605 202.432 365.281 202.503 365.086 202.644C364.896 202.785 364.801 202.951 364.801 203.141C364.801 203.38 364.903 203.553 365.108 203.66C365.313 203.772 366.036 203.965 367.279 204.238C368.108 204.433 368.729 204.727 369.143 205.122C369.553 205.522 369.757 206.021 369.757 206.621C369.757 207.41 369.462 208.056 368.873 208.558C368.288 209.055 367.382 209.303 366.153 209.303C364.901 209.303 363.975 209.04 363.376 208.514C362.781 207.983 362.484 207.308 362.484 206.489H364.596C364.64 206.859 364.735 207.123 364.882 207.279C365.14 207.556 365.617 207.695 366.314 207.695C366.724 207.695 367.048 207.634 367.286 207.513C367.53 207.391 367.652 207.208 367.652 206.964C367.652 206.73 367.555 206.552 367.36 206.431C367.165 206.309 366.441 206.099 365.189 205.802C364.287 205.578 363.651 205.298 363.281 204.961C362.91 204.63 362.725 204.152 362.725 203.529C362.725 202.793 363.013 202.162 363.588 201.635C364.168 201.104 364.981 200.839 366.029 200.839C367.023 200.839 367.835 201.036 368.463 201.431Z" fill="#111827"/>
</g>
<defs>
<filter id="filter0_d_1_2" x="-175.32" y="49.7205" width="288.885" height="288.885" filterUnits="userSpaceOnUse" color-interpolation-filters="sRGB">
<feFlood flood-opacity="0" result="BackgroundImageFix"/>
<feColorMatrix in="SourceAlpha" type="matrix" values="0 0 0 0 0 0 0 0 0 0 0 0 0 0 0 0 0 0 127 0" result="hardAlpha"/>
<feMorphology radius="2.11237" operator="dilate" in="SourceAlpha" result="effect1_dropShadow_1_2"/>
<feOffset/>
<feGaussianBlur stdDeviation="3.415"/>
<feComposite in2="hardAlpha" operator="out"/>
<feColorMatrix type="matrix" values="0 0 0 0 0 0 0 0 0 0 0 0 0 0 0 0 0 0 0.05 0"/>
<feBlend mode="normal" in2="BackgroundImageFix" result="effect1_dropShadow_1_2"/>
<feBlend mode="normal" in="SourceGraphic" in2="effect1_dropShadow_1_2" result="shape"/>
</filter>
<filter id="filter1_d_1_2" x="116.227" y="107.126" width="163.79" height="174.327" filterUnits="userSpaceOnUse" color-interpolation-filters="sRGB">
<feFlood flood-opacity="0" result="BackgroundImageFix"/>
<feColorMatrix in="SourceAlpha" type="matrix" values="0 0 0 0 0 0 0 0 0 0 0 0 0 0 0 0 0 0 127 0" result="hardAlpha"/>
<feMorphology radius="2.59673" operator="dilate" in="SourceAlpha" result="effect1_dropShadow_1_2"/>
<feOffset/>
<feGaussianBlur stdDeviation="4.19804"/>
<feComposite in2="hardAlpha" operator="out"/>
<feColorMatrix type="matrix" values="0 0 0 0 0 0 0 0 0 0 0 0 0 0 0 0 0 0 0.05 0"/>
<feBlend mode="normal" in2="BackgroundImageFix" result="effect1_dropShadow_1_2"/>
<feBlend mode="normal" in="SourceGraphic" in2="effect1_dropShadow_1_2" result="shape"/>
</filter>
<filter id="filter2_d_1_2" x="46.4002" y="85.2442" width="75.7682" height="75.7682" filterUnits="userSpaceOnUse" color-interpolation-filters="sRGB">
<feFlood flood-opacity="0" result="BackgroundImageFix"/>
<feColorMatrix in="SourceAlpha" type="matrix" values="0 0 0 0 0 0 0 0 0 0 0 0 0 0 0 0 0 0 127 0" result="hardAlpha"/>
<feMorphology radius="2.6513" operator="dilate" in="SourceAlpha" result="effect1_dropShadow_1_2"/>
<feOffset/>
<feGaussianBlur stdDeviation="4.28628"/>
<feComposite in2="hardAlpha" operator="out"/>
<feColorMatrix type="matrix" values="0 0 0 0 0 0 0 0 0 0 0 0 0 0 0 0 0 0 0.05 0"/>
<feBlend mode="normal" in2="BackgroundImageFix" result="effect1_dropShadow_1_2"/>
<feBlend mode="normal" in="SourceGraphic" in2="effect1_dropShadow_1_2" result="shape"/>
</filter>
<filter id="filter3_d_1_2" x="46.4002" y="224.243" width="75.7682" height="75.7682" filterUnits="userSpaceOnUse" color-interpolation-filters="sRGB">
<feFlood flood-opacity="0" result="BackgroundImageFix"/>
<feColorMatrix in="SourceAlpha" type="matrix" values="0 0 0 0 0 0 0 0 0 0 0 0 0 0 0 0 0 0 127 0" result="hardAlpha"/>
<feMorphology radius="2.6513" operator="dilate" in="SourceAlpha" result="effect1_dropShadow_1_2"/>
<feOffset/>
<feGaussianBlur stdDeviation="4.28628"/>
<feComposite in2="hardAlpha" operator="out"/>
<feColorMatrix type="matrix" values="0 0 0 0 0 0 0 0 0 0 0 0 0 0 0 0 0 0 0.05 0"/>
<feBlend mode="normal" in2="BackgroundImageFix" result="effect1_dropShadow_1_2"/>
<feBlend mode="normal" in="SourceGraphic" in2="effect1_dropShadow_1_2" result="shape"/>
</filter>
<filter id="filter4_d_1_2" x="290.68" y="49.7206" width="288.885" height="288.885" filterUnits="userSpaceOnUse" color-interpolation-filters="sRGB">
<feFlood flood-opacity="0" result="BackgroundImageFix"/>
<feColorMatrix in="SourceAlpha" type="matrix" values="0 0 0 0 0 0 0 0 0 0 0 0 0 0 0 0 0 0 127 0" result="hardAlpha"/>
<feMorphology radius="2.11237" operator="dilate" in="SourceAlpha" result="effect1_dropShadow_1_2"/>
<feOffset/>
<feGaussianBlur stdDeviation="3.415"/>
<feComposite in2="hardAlpha" operator="out"/>
<feColorMatrix type="matrix" values="0 0 0 0 0 0 0 0 0 0 0 0 0 0 0 0 0 0 0.05 0"/>
<feBlend mode="normal" in2="BackgroundImageFix" result="effect1_dropShadow_1_2"/>
<feBlend mode="normal" in="SourceGraphic" in2="effect1_dropShadow_1_2" result="shape"/>
</filter>
<filter id="filter5_d_1_2" x="323.169" y="270.244" width="75.7682" height="75.7682" filterUnits="userSpaceOnUse" color-interpolation-filters="sRGB">
<feFlood flood-opacity="0" result="BackgroundImageFix"/>
<feColorMatrix in="SourceAlpha" type="matrix" values="0 0 0 0 0 0 0 0 0 0 0 0 0 0 0 0 0 0 127 0" result="hardAlpha"/>
<feMorphology radius="2.6513" operator="dilate" in="SourceAlpha" result="effect1_dropShadow_1_2"/>
<feOffset/>
<feGaussianBlur stdDeviation="4.28628"/>
<feComposite in2="hardAlpha" operator="out"/>
<feColorMatrix type="matrix" values="0 0 0 0 0 0 0 0 0 0 0 0 0 0 0 0 0 0 0.05 0"/>
<feBlend mode="normal" in2="BackgroundImageFix" result="effect1_dropShadow_1_2"/>
<feBlend mode="normal" in="SourceGraphic" in2="effect1_dropShadow_1_2" result="shape"/>
</filter>
<filter id="filter6_d_1_2" x="280.4" y="225.208" width="75.7682" height="75.7682" filterUnits="userSpaceOnUse" color-interpolation-filters="sRGB">
<feFlood flood-opacity="0" result="BackgroundImageFix"/>
<feColorMatrix in="SourceAlpha" type="matrix" values="0 0 0 0 0 0 0 0 0 0 0 0 0 0 0 0 0 0 127 0" result="hardAlpha"/>
<feMorphology radius="2.6513" operator="dilate" in="SourceAlpha" result="effect1_dropShadow_1_2"/>
<feOffset/>
<feGaussianBlur stdDeviation="4.28628"/>
<feComposite in2="hardAlpha" operator="out"/>
<feColorMatrix type="matrix" values="0 0 0 0 0 0 0 0 0 0 0 0 0 0 0 0 0 0 0.05 0"/>
<feBlend mode="normal" in2="BackgroundImageFix" result="effect1_dropShadow_1_2"/>
<feBlend mode="normal" in="SourceGraphic" in2="effect1_dropShadow_1_2" result="shape"/>
</filter>
<filter id="filter7_d_1_2" x="281.375" y="85.2445" width="75.7682" height="75.7682" filterUnits="userSpaceOnUse" color-interpolation-filters="sRGB">
<feFlood flood-opacity="0" result="BackgroundImageFix"/>
<feColorMatrix in="SourceAlpha" type="matrix" values="0 0 0 0 0 0 0 0 0 0 0 0 0 0 0 0 0 0 127 0" result="hardAlpha"/>
<feMorphology radius="2.6513" operator="dilate" in="SourceAlpha" result="effect1_dropShadow_1_2"/>
<feOffset/>
<feGaussianBlur stdDeviation="4.28628"/>
<feComposite in2="hardAlpha" operator="out"/>
<feColorMatrix type="matrix" values="0 0 0 0 0 0 0 0 0 0 0 0 0 0 0 0 0 0 0.05 0"/>
<feBlend mode="normal" in2="BackgroundImageFix" result="effect1_dropShadow_1_2"/>
<feBlend mode="normal" in="SourceGraphic" in2="effect1_dropShadow_1_2" result="shape"/>
</filter>
<filter id="filter8_d_1_2" x="323.331" y="39.2923" width="75.7682" height="75.7682" filterUnits="userSpaceOnUse" color-interpolation-filters="sRGB">
<feFlood flood-opacity="0" result="BackgroundImageFix"/>
<feColorMatrix in="SourceAlpha" type="matrix" values="0 0 0 0 0 0 0 0 0 0 0 0 0 0 0 0 0 0 127 0" result="hardAlpha"/>
<feMorphology radius="2.6513" operator="dilate" in="SourceAlpha" result="effect1_dropShadow_1_2"/>
<feOffset/>
<feGaussianBlur stdDeviation="4.28628"/>
<feComposite in2="hardAlpha" operator="out"/>
<feColorMatrix type="matrix" values="0 0 0 0 0 0 0 0 0 0 0 0 0 0 0 0 0 0 0.05 0"/>
<feBlend mode="normal" in2="BackgroundImageFix" result="effect1_dropShadow_1_2"/>
<feBlend mode="normal" in="SourceGraphic" in2="effect1_dropShadow_1_2" result="shape"/>
</filter>
<linearGradient id="paint0_linear_1_2" x1="28.2882" y1="171.055" x2="141.064" y2="171.055" gradientUnits="userSpaceOnUse">
<stop stop-color="#CDF4FD" stop-opacity="0.5"/>
<stop offset="1" stop-color="#00D6FF"/>
</linearGradient>
<linearGradient id="paint1_linear_1_2" x1="28.2883" y1="217.525" x2="141.064" y2="217.525" gradientUnits="userSpaceOnUse">
<stop stop-color="#CDF4FD" stop-opacity="0.5"/>
<stop offset="1" stop-color="#00D6FF"/>
</linearGradient>
<linearGradient id="paint2_linear_1_2" x1="27.6401" y1="-1.00252e+07" x2="140.416" y2="-1.00252e+07" gradientUnits="userSpaceOnUse">
<stop stop-color="#CDF4FD"/>
<stop offset="1" stop-color="#00D6FF"/>
</linearGradient>
<linearGradient id="paint3_linear_1_2" x1="388.441" y1="-1.00252e+07" x2="254.45" y2="-1.00252e+07" gradientUnits="userSpaceOnUse">
<stop stop-color="#CDF4FD"/>
<stop offset="1" stop-color="#00D6FF"/>
</linearGradient>
<linearGradient id="paint4_linear_1_2" x1="389.208" y1="171.055" x2="255.217" y2="171.055" gradientUnits="userSpaceOnUse">
<stop stop-color="#CDF4FD" stop-opacity="0.5"/>
<stop offset="1" stop-color="#00D6FF"/>
</linearGradient>
<linearGradient id="paint5_linear_1_2" x1="389.208" y1="217.525" x2="255.217" y2="217.525" gradientUnits="userSpaceOnUse">
<stop stop-color="#CDF4FD" stop-opacity="0.5"/>
<stop offset="1" stop-color="#00D6FF"/>
</linearGradient>
<linearGradient id="paint6_linear_1_2" x1="127.22" y1="194.289" x2="269.025" y2="194.289" gradientUnits="userSpaceOnUse">
<stop stop-color="#00D6FF"/>
<stop offset="1" stop-color="#32F8B9"/>
</linearGradient>
<linearGradient id="paint7_linear_1_2" x1="168.536" y1="230.287" x2="222.374" y2="230.287" gradientUnits="userSpaceOnUse">
<stop stop-color="#00D6FF"/>
<stop offset="1" stop-color="#32F8B9"/>
</linearGradient>
<clipPath id="clip0_1_2">
<rect x="0.875" y="387.79" width="387" height="387" rx="16" transform="rotate(-90 0.875 387.79)" fill="white"/>
</clipPath>
<clipPath id="clip1_1_2">
<rect width="44.5722" height="63.3395" fill="white" transform="translate(178.251 155.109)"/>
</clipPath>
<clipPath id="clip2_1_2">
<rect x="168.536" y="228.787" width="64" height="3" rx="1.5" fill="white"/>
</clipPath>
<clipPath id="clip3_1_2">
<rect width="19.7591" height="19.296" fill="white" transform="translate(74.4052 252.479)"/>
</clipPath>
<clipPath id="clip4_1_2">
<rect x="334.393" y="317.735" width="40.0764" height="40.0764" rx="20.0382" transform="rotate(-64.816 334.393 317.735)" fill="white"/>
</clipPath>
<clipPath id="clip5_1_2">
<rect x="292.599" y="132.735" width="40.0764" height="40.0764" rx="20.0382" transform="rotate(-64.816 292.599 132.735)" fill="white"/>
</clipPath>
<clipPath id="clip6_1_2">
<rect width="19.1843" height="19.1843" fill="white" transform="translate(309.667 113.537)"/>
</clipPath>
<clipPath id="clip7_1_2">
<rect width="23.7489" height="23.7489" fill="white" transform="translate(350.854 66.0137)"/>
</clipPath>
</defs>
</svg>
