<svg width="45" height="45" viewBox="0 0 45 45" fill="none" xmlns="http://www.w3.org/2000/svg">
<g clip-path="url(#clip0_1546_2604)">
<path d="M12.068 18.181V22.5C12.068 22.9706 12.5196 23.8284 14.2863 24.6994C15.9448 25.5154 18.3548 26.1131 21.1557 26.2592C21.3424 26.269 21.5253 26.3153 21.694 26.3958C21.8627 26.4762 22.014 26.589 22.1391 26.7279C22.2642 26.8667 22.3607 27.0289 22.4232 27.205C22.4856 27.3812 22.5128 27.5679 22.503 27.7546C22.4933 27.9412 22.4469 28.1241 22.3665 28.2929C22.2861 28.4616 22.1733 28.6128 22.0344 28.7379C21.8956 28.863 21.7334 28.9596 21.5573 29.022C21.3811 29.0845 21.1944 29.1116 21.0077 29.1019C17.9298 28.9406 15.1213 28.2821 13.0301 27.2517C12.7004 27.0914 12.3792 26.9141 12.068 26.7204V31.0394C12.068 31.2918 12.178 31.6428 12.6031 32.085C13.0339 32.5347 13.7246 33.0015 14.6924 33.4266C16.6185 34.2748 19.3795 34.8346 22.5049 34.8346C23.2754 34.8346 24.0268 34.8005 24.7498 34.736C24.9413 34.7088 25.1362 34.7208 25.3228 34.7714C25.5095 34.8219 25.6838 34.9099 25.8354 35.03C25.9869 35.1501 26.1124 35.2997 26.2043 35.4699C26.2961 35.64 26.3524 35.827 26.3697 36.0196C26.387 36.2122 26.3649 36.4063 26.3047 36.59C26.2446 36.7738 26.1478 36.9434 26.02 37.0885C25.8923 37.2337 25.7363 37.3513 25.5617 37.4342C25.387 37.5172 25.1973 37.5637 25.0041 37.571C24.1938 37.6431 23.3589 37.6811 22.5049 37.6811C19.0797 37.6811 15.9107 37.0738 13.5462 36.032C12.364 35.5121 11.3203 34.8574 10.5499 34.0566C9.77562 33.2501 9.22152 32.2273 9.22152 31.0394V13.9607C9.22152 12.7728 9.77562 11.7499 10.5499 10.9416C11.3203 10.1445 12.364 9.48796 13.5462 8.96801C15.9107 7.92621 19.0797 7.31897 22.5049 7.31897C25.9321 7.31897 29.1011 7.92621 31.4637 8.96801C32.6459 9.48796 33.6896 10.1426 34.46 10.9434C35.2343 11.7499 35.7884 12.7728 35.7884 13.9607C35.7884 15.1486 35.2343 16.1714 34.46 16.9798C33.6896 17.7768 32.6459 18.4334 31.4656 18.9534C29.0992 19.9952 25.9302 20.6024 22.5049 20.6024C19.0797 20.6024 15.9107 19.9952 13.5462 18.9534C13.0357 18.7315 12.5417 18.4734 12.068 18.181ZM12.068 13.9607C12.068 14.2131 12.178 14.5641 12.6031 15.0063C13.0339 15.456 13.7246 15.9228 14.6924 16.3479C16.6185 17.1961 19.3795 17.7559 22.5049 17.7559C25.6284 17.7559 28.3895 17.1961 30.3194 16.3479C31.2834 15.9228 31.976 15.4541 32.4068 15.0044C32.8319 14.5641 32.9419 14.2131 32.9419 13.9607C32.9419 13.7083 32.8319 13.3572 32.4068 12.9151C31.976 12.4653 31.2853 11.9985 30.3175 11.5735C28.3914 10.7252 25.6303 10.1654 22.5049 10.1654C19.3814 10.1654 16.6204 10.7252 14.6905 11.5735C13.7265 11.9985 13.0339 12.4672 12.6031 12.917C12.178 13.3572 12.068 13.7083 12.068 13.9607Z" fill="#2D7E5D"/>
<path d="M34.8205 21.7068C34.8546 21.5498 34.8346 21.3859 34.7637 21.2417C34.6928 21.0975 34.5752 20.9815 34.4301 20.9127C34.2849 20.8438 34.1207 20.8262 33.9642 20.8625C33.8077 20.8988 33.668 20.9871 33.5681 21.1129L26.6892 29.8894C26.607 29.9944 26.5561 30.1204 26.5421 30.253C26.528 30.3855 26.5515 30.5194 26.6099 30.6392C26.6682 30.7591 26.7591 30.8602 26.8721 30.9309C26.9851 31.0017 27.1156 31.0392 27.249 31.0394H31.2852L30.1106 36.5843C30.0769 36.7426 30.0983 36.9077 30.1711 37.0523C30.244 37.1968 30.3639 37.3123 30.5112 37.3795C30.6584 37.4467 30.8242 37.4617 30.9812 37.422C31.1381 37.3823 31.2768 37.2903 31.3744 37.1612L37.3045 29.3334C37.3843 29.2278 37.433 29.1021 37.4452 28.9703C37.4574 28.8386 37.4327 28.706 37.3738 28.5876C37.3148 28.4691 37.224 28.3694 37.1116 28.2997C36.9991 28.23 36.8694 28.193 36.7371 28.1929H33.3631L34.8224 21.7068H34.8205Z" fill="#2D7E5D"/>
</g>
<defs>
<clipPath id="clip0_1546_2604">
<rect width="30.3621" height="30.3621" fill="white" transform="translate(7.32391 7.31897)"/>
</clipPath>
</defs>
</svg>
