<svg width="328" height="328" viewBox="0 0 328 328" fill="none" xmlns="http://www.w3.org/2000/svg">
<g clip-path="url(#clip0_1_121)">
<rect x="0.492188" y="0.283203" width="327" height="327" rx="13.5194" fill="#E8F7FE" style="mix-blend-mode:multiply"/>
<path d="M203.258 78.9131V78.9131C203.258 81.233 201.958 83.3575 199.893 84.4143L163.993 102.786" stroke="url(#paint0_linear_1_121)" stroke-width="1.68992" stroke-dasharray="3.38 3.38"/>
<path d="M124.727 79.0088V79.0088C124.727 81.27 125.993 83.3406 128.006 84.3707L163.992 102.786" stroke="url(#paint1_linear_1_121)" stroke-width="1.68992" stroke-dasharray="3.38 3.38"/>
<path d="M163.992 79.2402L163.992 82.6921L163.992 103.12" stroke="url(#paint2_linear_1_121)" stroke-width="1.68992" stroke-dasharray="3.38 3.38"/>
<path d="M203.258 262.508V262.508C203.258 259.435 201.721 256.566 199.164 254.863L163.993 231.442" stroke="url(#paint3_linear_1_121)" stroke-width="1.68992" stroke-dasharray="3.38 3.38"/>
<path d="M124.727 262.384V262.384C124.727 259.389 126.224 256.593 128.717 254.933L163.992 231.442" stroke="url(#paint4_linear_1_121)" stroke-width="1.68992" stroke-dasharray="3.38 3.38"/>
<path d="M163.992 262.081L163.992 257.589L163.992 231.005" stroke="url(#paint5_linear_1_121)" stroke-width="1.68992" stroke-dasharray="3.38 3.38"/>
<path d="M203.258 262.508V262.508C203.258 259.435 201.721 256.566 199.164 254.863L163.993 231.442" stroke="url(#paint6_linear_1_121)" stroke-width="1.68992" stroke-dasharray="3.38 3.38"/>
<path d="M124.727 262.384V262.384C124.727 259.389 126.224 256.593 128.717 254.933L163.992 231.442" stroke="url(#paint7_linear_1_121)" stroke-width="1.68992" stroke-dasharray="3.38 3.38"/>
<g filter="url(#filter0_d_1_121)">
<rect x="49.6074" y="-141.039" width="228.984" height="228.984" rx="114.492" fill="#FDFDFD"/>
<rect x="49.9049" y="-140.742" width="228.39" height="228.39" rx="114.195" stroke="#C0F4FD" stroke-width="0.594957"/>
</g>
<g filter="url(#filter1_d_1_121)">
<path d="M220.862 151.353C220.885 151.365 220.913 151.361 220.932 151.344C223.629 148.928 224.689 145.151 223.276 141.792C222.395 139.761 221.437 137.768 220.364 135.852L219.176 133.783C218.026 131.867 216.761 129.989 215.42 128.188C213.236 125.275 209.404 124.317 205.955 125.467L202.784 126.513C198.03 128.08 192.907 126.979 188.576 124.469V124.469C184.24 121.955 180.65 118.047 179.618 113.142L178.938 109.908C178.21 106.344 175.451 103.509 171.849 103.087C169.319 102.742 166.751 102.589 164.146 102.589H163.878C161.271 102.589 158.705 102.742 156.176 103.049C152.572 103.47 149.814 106.344 149.086 109.87L148.401 113.138C147.372 118.048 143.772 121.972 139.43 124.485V124.485C135.097 126.993 129.995 128.094 125.234 126.546L122.03 125.505C118.581 124.355 114.75 125.314 112.566 128.226C111.225 130.027 109.959 131.905 108.771 133.821L107.621 135.852C106.549 137.768 105.591 139.761 104.709 141.83C103.291 145.164 104.365 148.958 107.086 151.41L109.618 153.669C113.338 156.987 114.941 161.983 114.941 166.969V166.969V166.969C114.941 171.98 113.329 176.997 109.589 180.333L107.086 182.566C104.365 184.98 103.291 188.774 104.709 192.146C105.591 194.177 106.549 196.169 107.621 198.125L108.771 200.117C109.921 202.072 111.186 203.912 112.566 205.712C114.75 208.625 118.581 209.583 122.03 208.433L125.204 207.386C129.956 205.819 135.078 206.921 139.407 209.43V209.43C143.744 211.944 147.334 215.854 148.362 220.76L149.047 224.029C149.776 227.594 152.535 230.429 156.137 230.851C158.705 231.157 161.31 231.311 163.955 231.311C166.599 231.311 169.205 231.157 171.772 230.851C175.375 230.429 178.134 227.555 178.861 224.029L179.55 220.741C180.577 215.844 184.168 211.93 188.499 209.425V209.425C192.841 206.915 197.959 205.821 202.722 207.392L205.878 208.433C209.327 209.583 213.159 208.625 215.344 205.712C216.685 203.912 217.949 202.072 219.099 200.117L220.287 198.048C221.36 196.132 222.318 194.139 223.199 192.108C224.617 188.774 223.545 184.98 220.824 182.527L218.32 180.294C214.58 176.958 212.968 171.941 212.968 166.93V166.93C212.968 165.936 212.937 164.947 212.877 163.964C212.686 160.808 213.745 157.648 216.104 155.544L220.792 151.362C220.811 151.345 220.839 151.342 220.862 151.353V151.353ZM145.598 166.969C145.598 162.091 147.537 157.412 150.986 153.962C154.436 150.513 159.114 148.575 163.992 148.575C168.871 148.575 173.55 150.513 177 153.962C180.449 157.412 182.387 162.091 182.387 166.969C182.387 171.848 180.449 176.526 177 179.975C173.55 183.425 168.871 185.364 163.992 185.364C159.114 185.364 154.436 183.425 150.986 179.975C147.537 176.526 145.598 171.848 145.598 166.969Z" fill="#F9FAFC"/>
<path d="M163.878 103.686H164.146C166.709 103.686 169.226 103.836 171.7 104.174L171.711 104.176L171.721 104.177C174.795 104.537 177.218 106.969 177.863 110.128L177.864 110.134L178.545 113.368C179.66 118.668 183.514 122.803 188.026 125.418C192.542 128.035 197.993 129.247 203.127 127.555L206.299 126.509L206.302 126.508C209.36 125.488 212.676 126.358 214.542 128.846C215.857 130.613 217.098 132.452 218.225 134.328V134.329L219.413 136.398C220.33 138.037 221.164 139.738 221.94 141.479L222.27 142.229C223.438 145.021 222.635 148.195 220.407 150.333C220.336 150.361 220.267 150.394 220.202 150.437L220.062 150.544L215.374 154.725C212.721 157.091 211.574 160.601 211.782 164.031C211.84 164.991 211.87 165.958 211.87 166.93C211.87 172.153 213.551 177.51 217.59 181.112L220.094 183.346C222.509 185.525 223.398 188.828 222.192 191.671C221.324 193.673 220.384 195.628 219.336 197.501L218.153 199.561C217.03 201.471 215.791 203.276 214.467 205.054C212.6 207.542 209.283 208.412 206.225 207.393L206.222 207.392L203.065 206.351C197.923 204.655 192.478 205.857 187.95 208.476C183.441 211.083 179.586 215.223 178.477 220.516L177.787 223.804V223.808C177.142 226.935 174.715 229.402 171.644 229.762H171.642C169.119 230.062 166.556 230.214 163.955 230.214C161.353 230.214 158.791 230.062 156.267 229.762H156.265C153.19 229.401 150.768 226.969 150.122 223.81L150.121 223.804L149.436 220.535C148.324 215.233 144.472 211.096 139.958 208.48C135.443 205.864 129.993 204.652 124.86 206.345L121.687 207.392L121.684 207.393C118.625 208.412 115.309 207.543 113.443 205.055L113.437 205.045C112.08 203.274 110.84 201.471 109.717 199.561L108.581 197.593C107.53 195.677 106.589 193.72 105.721 191.721C104.505 188.829 105.405 185.524 107.813 183.387L107.816 183.385L110.319 181.151C114.358 177.549 116.038 172.192 116.038 166.969C116.038 161.772 114.368 156.436 110.348 152.85L107.816 150.591C105.475 148.477 104.566 145.31 105.611 142.527L105.719 142.26C106.587 140.221 107.529 138.264 108.579 136.388L108.578 136.387L109.712 134.384C110.882 132.497 112.127 130.652 113.443 128.884C115.309 126.396 118.625 125.526 121.684 126.546L121.691 126.549L124.895 127.59C130.033 129.26 135.462 128.049 139.979 125.435C144.498 122.819 148.362 118.669 149.475 113.363L150.16 110.095V110.092C150.806 106.964 153.232 104.498 156.303 104.139L156.308 104.138C158.792 103.837 161.315 103.686 163.878 103.686ZM163.992 147.478C158.985 147.478 154.176 149.406 150.557 152.849L150.21 153.187C146.555 156.842 144.501 161.8 144.501 166.969C144.501 172.139 146.555 177.096 150.21 180.751C153.866 184.407 158.823 186.461 163.992 186.461C169.162 186.461 174.119 184.407 177.775 180.751C181.43 177.096 183.484 172.139 183.484 166.969C183.484 161.8 181.43 156.842 177.775 153.187L177.429 152.849C173.809 149.406 169.001 147.478 163.992 147.478ZM221.21 150.313C221.261 150.33 221.311 150.35 221.359 150.375C221.311 150.35 221.26 150.331 221.21 150.313Z" stroke="url(#paint8_linear_1_121)" stroke-width="2.19413"/>
</g>
<rect x="130.671" y="131.588" width="70.7234" height="70.7234" rx="35.3617" fill="#F9FAFC"/>
<g clip-path="url(#clip1_1_121)">
<path d="M168.032 142.137L163.894 149.317H163.866L159.771 142.207L168.032 142.137Z" fill="#83FF50" stroke="#83FF50" stroke-width="0.140249" stroke-miterlimit="5.3333"/>
<mask id="mask0_1_121" style="mask-type:luminance" maskUnits="userSpaceOnUse" x="148" y="133" width="23" height="11">
<path d="M170.847 143.428H148.631V133.653H170.847V143.428Z" fill="white"/>
</mask>
<g mask="url(#mask0_1_121)">
<g opacity="0.83">
<path d="M168.066 142.097L168.052 142.125H168.038V142.139L159.763 142.209V142.195H151.474L151.418 142.097L155.583 134.888H163.914L168.066 142.097Z" fill="#96FF5B" fill-opacity="0.6471"/>
</g>
</g>
<path d="M168.05 142.126L163.913 149.307H163.899L168.036 142.126H168.05Z" fill="white"/>
<path d="M163.917 149.411L163.903 149.439L159.752 156.62H151.435L147.269 149.411L151.435 142.202H151.477L155.572 149.313H163.861L163.917 149.411Z" fill="#00D6FF" stroke="#00D6FF" stroke-width="0.140249" stroke-miterlimit="5.3333"/>
<path d="M163.861 149.311H155.586L151.477 142.2H159.765L163.861 149.311Z" fill="#7DFFFF" stroke="#7DFFFF" stroke-width="0.140249" stroke-miterlimit="5.3333"/>
<path d="M168.092 156.441L168.163 156.553H168.036L164.881 156.581L159.762 156.623L163.913 149.443H172.146L168.092 156.441Z" fill="#32E6FF" stroke="#32E6FF" stroke-width="0.140249" stroke-miterlimit="5.3333"/>
<mask id="mask1_1_121" style="mask-type:luminance" maskUnits="userSpaceOnUse" x="157" y="147" width="18" height="20">
<path d="M174.435 166.275H157.619V147.032H174.435V166.275Z" fill="white"/>
</mask>
<g mask="url(#mask1_1_121)">
<g opacity="0.86">
<path d="M172.336 163.655L172.21 163.865H163.893L159.727 156.656L159.741 156.628L163.893 149.447H163.907L159.755 156.614L164.874 156.572L168.044 156.544H168.17L172.252 163.655H172.336Z" fill="#00D5FF" fill-opacity="0.5451"/>
</g>
</g>
<path d="M168.092 156.442L168.162 156.555H168.036L163.941 149.444H172.145L168.092 156.442Z" fill="#20E6FF" stroke="#20E6FF" stroke-width="0.140249" stroke-miterlimit="5.3333"/>
<path d="M176.325 156.554H168.163L168.092 156.442L172.132 149.443H172.216L176.325 156.554Z" fill="#2AF0FF" stroke="#2AF0FF" stroke-width="0.140249" stroke-miterlimit="5.3333"/>
<mask id="mask2_1_121" style="mask-type:luminance" maskUnits="userSpaceOnUse" x="166" y="155" width="12" height="10">
<path d="M177.761 164.846H166.793V155.378H177.761V164.846Z" fill="white"/>
</mask>
<g mask="url(#mask2_1_121)">
<g opacity="0.95">
<path d="M176.381 156.652L172.341 163.65H172.257L168.162 156.554H176.325L176.381 156.652Z" fill="#29EFFF" fill-opacity="0.8"/>
</g>
</g>
<path d="M180.53 149.342L176.365 156.551H176.323L172.227 149.44H163.939L163.882 149.342L163.897 149.314L168.034 142.133V142.119H176.365L180.46 149.216L180.53 149.342Z" fill="#32F8B9" stroke="#32F8B9" stroke-width="0.140249" stroke-miterlimit="5.3333"/>
<mask id="mask3_1_121" style="mask-type:luminance" maskUnits="userSpaceOnUse" x="170" y="146" width="17" height="21">
<path d="M186.779 166.275H170.131V146.906H186.779V166.275Z" fill="white"/>
</mask>
<g mask="url(#mask3_1_121)">
<g opacity="0.85">
<path d="M184.688 156.542L180.523 163.751L172.206 163.863L176.329 156.753L176.273 156.655H176.315L180.481 149.446L180.411 149.334H180.537L184.688 156.542Z" fill="#32F6B8" fill-opacity="0.5647"/>
</g>
</g>
<path d="M151.817 177.261V169.424H155.172V170.616H152.996V172.753H154.589V173.945H152.996V176.069H155.172V177.261H151.817Z" fill="#090909"/>
<path d="M158.127 171.225L157.687 174.308H158.568L158.127 171.225ZM157.505 175.461L157.22 177.262H155.99L157.324 169.438H158.943L160.251 177.262H159.008L158.736 175.461H157.505Z" fill="#090909"/>
<path d="M163.817 171.32C163.817 170.867 163.597 170.633 163.143 170.633H162.431V173.134H163.143C163.325 173.134 163.493 173.069 163.623 172.939C163.752 172.81 163.817 172.641 163.817 172.46V171.32ZM163.117 169.429C163.778 169.429 164.257 169.61 164.568 169.973C164.84 170.284 164.97 170.737 164.97 171.294V172.434C164.97 172.991 164.762 173.457 164.335 173.846L165.216 177.266H163.933L163.221 174.312H163.117H162.431V177.266H161.252V169.442H163.117V169.429Z" fill="#090909"/>
<path d="M167.091 170.621H165.835V169.429H169.526V170.621H168.27V177.266H167.091V170.621Z" fill="#090909"/>
<path d="M171.65 173.943V177.26H170.472V169.436H171.65V172.752H173.075V169.423H174.254V177.247H173.075V173.943H171.65Z" fill="#090909"/>
<path d="M178.528 177.261H175.316V169.437H176.495V176.082H178.528V177.261Z" fill="#090909"/>
<path d="M179.459 173.981L177.878 169.422H179.174L180.055 172.233L180.923 169.422H182.231L180.638 173.981V177.259H179.459V173.981Z" fill="#090909"/>
<path d="M177.153 181.634C177.153 181.18 176.933 180.947 176.479 180.947H175.767V183.447H176.479C176.661 183.447 176.829 183.382 176.959 183.253C177.088 183.123 177.153 182.955 177.153 182.774V181.634ZM176.453 179.742C177.114 179.742 177.593 179.924 177.904 180.287C178.176 180.597 178.306 181.051 178.306 181.608V182.748C178.306 183.305 178.099 183.771 177.671 184.16L178.552 187.579H177.27L176.557 184.626H176.453H175.767V187.579H174.588V179.755H176.453V179.742Z" fill="#49728B"/>
<path d="M171.487 181.54L171.047 184.623H171.928L171.487 181.54ZM170.865 185.776L170.58 187.577H169.35L170.684 179.753H172.303L173.612 187.577H172.368L172.096 185.776H170.865Z" fill="#49728B"/>
<path d="M165.769 183.354V187.573H164.59V179.749H165.769L167.194 183.881V179.736H168.373V187.56H167.194L165.769 183.354Z" fill="#49728B"/>
<path d="M161.577 187.573V187.573C160.612 187.573 159.83 186.791 159.83 185.827V179.749H161.009V185.68C161.009 186.073 161.328 186.392 161.722 186.392V186.392C162.115 186.392 162.434 186.073 162.434 185.68V179.736H163.613V185.814C163.613 186.78 162.833 187.566 161.866 187.573V187.573H161.577Z" fill="#49728B"/>
<path d="M155.499 187.575V179.738H156.678V180.93V183.067V184.259V186.383H158.854V187.575H155.499Z" fill="#49728B"/>
</g>
<g clip-path="url(#clip2_1_121)">
<rect x="138.993" y="196.101" width="54.0775" height="2.53488" rx="1.26744" fill="#DFDFDF"/>
<rect x="138.993" y="195.633" width="45.4905" height="3.46873" fill="url(#paint9_linear_1_121)"/>
</g>
<path d="M163.993 112.904L159.005 104.884C162.93 104.547 165.115 104.541 168.98 104.884L163.993 112.904Z" fill="#00D6FF"/>
<path d="M163.993 221.03L159.005 229.05C162.93 229.387 165.115 229.393 168.98 229.05L163.993 221.03Z" fill="#00D6FF"/>
<g filter="url(#filter2_d_1_121)">
<rect x="216.003" y="48.2344" width="33.863" height="33.863" rx="16.9315" transform="rotate(25.184 216.003 48.2344)" fill="#FDFDFD"/>
<rect x="216.304" y="49.0687" width="32.6088" height="32.6088" rx="16.3044" transform="rotate(25.184 216.304 49.0687)" stroke="#00D6FF" stroke-opacity="0.24" stroke-width="1.25418"/>
<path d="M224.12 78.356L227.154 69.0098H221.091L224.12 78.356Z" fill="#E24329"/>
<path d="M216.842 69.0098L215.918 71.8493C215.835 72.1071 215.925 72.3917 216.146 72.5524L224.121 78.3559L216.842 69.0098Z" fill="#FCA326"/>
<path d="M216.842 69.0108H221.091L219.262 63.382C219.169 63.094 218.761 63.094 218.664 63.382L216.842 69.0108Z" fill="#E24329"/>
<path d="M231.403 69.0098L232.324 71.8493C232.407 72.1071 232.317 72.3917 232.096 72.5524L224.12 78.3559L231.403 69.0098Z" fill="#FCA326"/>
<path d="M231.403 69.0108H227.153L228.979 63.382C229.072 63.094 229.48 63.094 229.577 63.382L231.403 69.0108Z" fill="#E24329"/>
<path d="M224.12 78.3559L227.154 69.0098H231.403L224.12 78.3559Z" fill="#FC6D26"/>
<path d="M224.12 78.3559L216.842 69.0098H221.091L224.12 78.3559Z" fill="#FC6D26"/>
</g>
<g filter="url(#filter3_d_1_121)">
<rect x="98.5546" y="48.2342" width="33.863" height="33.863" rx="16.9315" transform="rotate(25.184 98.5546 48.2342)" fill="#FDFDFD"/>
<rect x="98.8553" y="49.0686" width="32.6088" height="32.6088" rx="16.3044" transform="rotate(25.184 98.8553 49.0686)" stroke="#00D6FF" stroke-opacity="0.24" stroke-width="1.25418"/>
<g clip-path="url(#clip3_1_121)">
<path d="M106.673 62.6092C102.063 62.6092 98.3251 66.3466 98.3251 70.9572C98.3251 74.6455 100.717 77.7746 104.034 78.8785C104.451 78.9557 104.604 78.6974 104.604 78.4769C104.604 78.2778 104.597 77.6202 104.593 76.9227C102.271 77.4277 101.781 75.9377 101.781 75.9377C101.401 74.9728 100.854 74.7163 100.854 74.7163C100.096 74.1982 100.911 74.2088 100.911 74.2088C101.749 74.2677 102.19 75.0691 102.19 75.0691C102.935 76.3453 104.143 75.9763 104.62 75.763C104.695 75.2235 104.911 74.8552 105.15 74.6467C103.295 74.4356 101.346 73.7198 101.346 70.5212C101.346 69.6098 101.672 68.8651 102.206 68.2805C102.12 68.0702 101.834 67.2211 102.287 66.0713C102.287 66.0713 102.988 65.8469 104.584 66.927C105.249 66.742 105.964 66.6493 106.673 66.6461C107.382 66.6493 108.097 66.742 108.764 66.927C110.358 65.8469 111.058 66.0713 111.058 66.0713C111.512 67.2211 111.226 68.0702 111.14 68.2805C111.675 68.8651 111.999 69.6098 111.999 70.5212C111.999 73.7275 110.046 74.4334 108.187 74.6401C108.486 74.8992 108.753 75.4072 108.753 76.186C108.753 77.303 108.743 78.2019 108.743 78.4769C108.743 78.699 108.894 78.9593 109.317 78.8774C112.632 77.7723 115.021 74.6442 115.021 70.9572C115.021 66.3466 111.283 62.6092 106.673 62.6092ZM101.452 74.501C101.433 74.5425 101.368 74.5549 101.309 74.5265C101.248 74.4992 101.214 74.4427 101.234 74.4011C101.252 74.3584 101.317 74.3465 101.377 74.3751C101.438 74.4023 101.473 74.4594 101.452 74.501ZM101.862 74.8674C101.822 74.9043 101.745 74.8872 101.692 74.8289C101.637 74.7707 101.627 74.6928 101.667 74.6554C101.708 74.6185 101.784 74.6357 101.839 74.6939C101.893 74.7528 101.904 74.8301 101.862 74.8674ZM102.144 75.3362C102.093 75.3717 102.009 75.3384 101.958 75.2642C101.906 75.19 101.906 75.1009 101.959 75.0653C102.01 75.0296 102.093 75.0617 102.145 75.1354C102.196 75.2108 102.196 75.2999 102.144 75.3362ZM102.62 75.8791C102.575 75.9296 102.477 75.916 102.406 75.8472C102.333 75.7799 102.313 75.6844 102.358 75.6339C102.405 75.5833 102.503 75.5975 102.575 75.6658C102.647 75.733 102.669 75.8292 102.62 75.8791ZM103.236 76.0624C103.216 76.1278 103.122 76.1575 103.028 76.1297C102.933 76.1011 102.871 76.0245 102.89 75.9585C102.91 75.8927 103.004 75.8617 103.1 75.8914C103.194 75.9199 103.256 75.9959 103.236 76.0624ZM103.937 76.1402C103.939 76.209 103.859 76.2661 103.76 76.2673C103.66 76.2696 103.579 76.2138 103.578 76.1461C103.578 76.0766 103.657 76.02 103.756 76.0184C103.856 76.0164 103.937 76.0717 103.937 76.1402ZM104.625 76.1138C104.637 76.181 104.568 76.2499 104.47 76.2683C104.373 76.286 104.283 76.2446 104.271 76.1779C104.259 76.1091 104.329 76.0401 104.426 76.0223C104.524 76.0051 104.613 76.0455 104.625 76.1138Z" fill="#161614"/>
</g>
</g>
<path d="M156.125 49.0589C155.445 49.6806 154.576 49.9915 153.518 49.9915C152.209 49.9915 151.179 49.5715 150.43 48.7315C149.68 47.8874 149.306 46.7303 149.306 45.2603C149.306 43.6708 149.732 42.4458 150.584 41.5852C151.325 40.8358 152.268 40.4611 153.413 40.4611C154.945 40.4611 156.065 40.9635 156.773 41.9682C157.164 42.5323 157.374 43.0985 157.403 43.6667H155.501C155.377 43.2303 155.219 42.9008 155.025 42.6785C154.679 42.2832 154.167 42.0855 153.487 42.0855C152.795 42.0855 152.25 42.3655 151.85 42.9255C151.451 43.4814 151.251 44.27 151.251 45.2912C151.251 46.3124 151.461 47.0782 151.881 47.5888C152.305 48.0953 152.843 48.3486 153.493 48.3486C154.16 48.3486 154.669 48.1303 155.019 47.6938C155.213 47.4591 155.373 47.1071 155.501 46.6377H157.385C157.22 47.63 156.8 48.4371 156.125 49.0589ZM163.935 43.8582C164.503 44.5706 164.788 45.4126 164.788 46.3844C164.788 47.3727 164.503 48.2188 163.935 48.923C163.367 49.623 162.504 49.973 161.347 49.973C160.19 49.973 159.327 49.623 158.759 48.923C158.191 48.2188 157.907 47.3727 157.907 46.3844C157.907 45.4126 158.191 44.5706 158.759 43.8582C159.327 43.1458 160.19 42.7897 161.347 42.7897C162.504 42.7897 163.367 43.1458 163.935 43.8582ZM161.341 44.2782C160.826 44.2782 160.429 44.4614 160.149 44.8279C159.873 45.1903 159.735 45.7091 159.735 46.3844C159.735 47.0597 159.873 47.5806 160.149 47.9471C160.429 48.3136 160.826 48.4968 161.341 48.4968C161.856 48.4968 162.251 48.3136 162.527 47.9471C162.803 47.5806 162.941 47.0597 162.941 46.3844C162.941 45.7091 162.803 45.1903 162.527 44.8279C162.251 44.4614 161.856 44.2782 161.341 44.2782ZM171.801 40.6464V49.7383H170.091V48.8056C169.839 49.205 169.553 49.4953 169.232 49.6765C168.911 49.8577 168.511 49.9483 168.034 49.9483C167.247 49.9483 166.584 49.6312 166.045 48.9971C165.51 48.3589 165.242 47.5415 165.242 46.545C165.242 45.3962 165.505 44.4923 166.033 43.8335C166.564 43.1747 167.272 42.8452 168.157 42.8452C168.565 42.8452 168.927 42.9358 169.244 43.117C169.561 43.2941 169.819 43.5411 170.016 43.8582V40.6464H171.801ZM167.058 46.4153C167.058 47.0371 167.181 47.5333 167.428 47.9038C167.671 48.2786 168.042 48.4659 168.54 48.4659C169.038 48.4659 169.417 48.2806 169.677 47.91C169.936 47.5394 170.066 47.0597 170.066 46.4709C170.066 45.6473 169.858 45.0585 169.442 44.7044C169.187 44.4903 168.89 44.3832 168.553 44.3832C168.038 44.3832 167.659 44.5788 167.416 44.97C167.177 45.357 167.058 45.8388 167.058 46.4153ZM178.791 47.7618C178.745 48.1612 178.537 48.5668 178.167 48.9786C177.59 49.6333 176.783 49.9606 175.746 49.9606C174.889 49.9606 174.133 49.6848 173.479 49.133C172.824 48.5812 172.497 47.6835 172.497 46.44C172.497 45.2747 172.791 44.3811 173.38 43.7594C173.973 43.1376 174.741 42.8267 175.684 42.8267C176.244 42.8267 176.748 42.9317 177.197 43.1417C177.646 43.3517 178.016 43.6832 178.309 44.1361C178.572 44.5356 178.743 44.9988 178.821 45.5259C178.867 45.8347 178.885 46.2794 178.877 46.86H174.269C174.294 47.5353 174.506 48.0088 174.906 48.2806C175.148 48.4494 175.441 48.5339 175.783 48.5339C176.145 48.5339 176.439 48.4309 176.666 48.225C176.789 48.1138 176.898 47.9594 176.993 47.7618H178.791ZM177.049 45.6988C177.02 45.2335 176.878 44.8814 176.623 44.6426C176.371 44.3997 176.058 44.2782 175.684 44.2782C175.276 44.2782 174.959 44.4059 174.733 44.6612C174.51 44.9164 174.37 45.2623 174.313 45.6988H177.049ZM151.219 65.7383H147.093V56.634H151.515C152.631 56.6505 153.422 56.9737 153.887 57.6038C154.167 57.9908 154.307 58.4541 154.307 58.9935C154.307 59.5494 154.167 59.9961 153.887 60.3338C153.73 60.5232 153.5 60.6962 153.195 60.8526C153.66 61.0215 154.01 61.2891 154.245 61.6556C154.484 62.0221 154.603 62.4668 154.603 62.9897C154.603 63.5291 154.468 64.013 154.196 64.4412C154.023 64.7253 153.807 64.9642 153.547 65.1577C153.255 65.38 152.909 65.5324 152.51 65.6148C152.114 65.6971 151.684 65.7383 151.219 65.7383ZM151.175 61.7297H148.909V64.1571H151.145C151.544 64.1571 151.855 64.1036 152.077 63.9965C152.481 63.7988 152.683 63.42 152.683 62.86C152.683 62.3865 152.487 62.0612 152.096 61.8841C151.878 61.7853 151.571 61.7338 151.175 61.7297ZM152.12 59.9941C152.368 59.8458 152.491 59.5803 152.491 59.1973C152.491 58.7732 152.326 58.4932 151.997 58.3573C151.713 58.2626 151.35 58.2152 150.91 58.2152H148.909V60.2226H151.145C151.544 60.2226 151.869 60.1464 152.12 59.9941ZM155.935 59.7347C156.4 59.1417 157.199 58.8452 158.331 58.8452C159.068 58.8452 159.723 58.9914 160.295 59.2838C160.868 59.5761 161.154 60.1279 161.154 60.9391V64.0274C161.154 64.2415 161.158 64.5009 161.166 64.8056C161.179 65.0362 161.214 65.1927 161.271 65.275C161.329 65.3574 161.416 65.4253 161.531 65.4789V65.7383H159.616C159.563 65.6024 159.525 65.4747 159.505 65.3553C159.484 65.2359 159.468 65.1 159.455 64.9477C159.213 65.2112 158.933 65.4356 158.615 65.6209C158.237 65.8392 157.808 65.9483 157.331 65.9483C156.721 65.9483 156.217 65.7753 155.817 65.4295C155.422 65.0794 155.225 64.5853 155.225 63.9471C155.225 63.1194 155.544 62.5203 156.182 62.1497C156.532 61.9479 157.047 61.8038 157.726 61.7173L158.325 61.6432C158.65 61.602 158.883 61.5506 159.023 61.4888C159.274 61.3818 159.4 61.215 159.4 60.9885C159.4 60.7126 159.303 60.5232 159.11 60.4203C158.92 60.3132 158.64 60.2597 158.27 60.2597C157.854 60.2597 157.559 60.3626 157.386 60.5685C157.263 60.7209 157.18 60.9267 157.139 61.1862H155.441C155.478 60.5973 155.642 60.1135 155.935 59.7347ZM157.244 64.4659C157.409 64.6018 157.611 64.6697 157.85 64.6697C158.228 64.6697 158.576 64.5586 158.893 64.3362C159.215 64.1138 159.381 63.7083 159.394 63.1194V62.4647C159.283 62.5347 159.169 62.5924 159.054 62.6377C158.943 62.6788 158.788 62.7179 158.591 62.755L158.195 62.8291C157.825 62.895 157.559 62.9753 157.399 63.07C157.127 63.2306 156.991 63.4797 156.991 63.8174C156.991 64.118 157.075 64.3341 157.244 64.4659ZM166.982 59.3147C167.509 59.6523 167.812 60.2329 167.89 61.0565H166.13C166.105 60.83 166.041 60.6509 165.938 60.5191C165.745 60.2803 165.415 60.1609 164.95 60.1609C164.567 60.1609 164.293 60.2206 164.128 60.34C163.968 60.4594 163.888 60.5994 163.888 60.76C163.888 60.9617 163.974 61.1079 164.147 61.1985C164.32 61.2932 164.931 61.4559 165.981 61.6865C166.681 61.8512 167.206 62.1003 167.556 62.4338C167.902 62.7715 168.075 63.1935 168.075 63.7C168.075 64.3671 167.826 64.9127 167.328 65.3368C166.834 65.7568 166.068 65.9668 165.03 65.9668C163.972 65.9668 163.19 65.7445 162.683 65.2997C162.181 64.8509 161.93 64.2806 161.93 63.5888H163.715C163.752 63.9018 163.832 64.1241 163.955 64.2559C164.174 64.4906 164.577 64.608 165.166 64.608C165.512 64.608 165.786 64.5565 165.988 64.4536C166.193 64.3506 166.296 64.1962 166.296 63.9903C166.296 63.7927 166.214 63.6424 166.049 63.5394C165.885 63.4365 165.273 63.2594 164.215 63.0082C163.453 62.8188 162.916 62.5821 162.603 62.2979C162.29 62.0179 162.133 61.6144 162.133 61.0873C162.133 60.4656 162.376 59.9323 162.862 59.4876C163.352 59.0388 164.04 58.8144 164.925 58.8144C165.765 58.8144 166.451 58.9811 166.982 59.3147ZM174.768 63.7618C174.723 64.1612 174.515 64.5668 174.144 64.9786C173.568 65.6333 172.761 65.9606 171.723 65.9606C170.866 65.9606 170.111 65.6848 169.456 65.133C168.801 64.5812 168.474 63.6835 168.474 62.44C168.474 61.2747 168.768 60.3811 169.357 59.7594C169.95 59.1376 170.718 58.8267 171.661 58.8267C172.221 58.8267 172.726 58.9317 173.174 59.1417C173.623 59.3517 173.994 59.6832 174.286 60.1361C174.55 60.5356 174.721 60.9988 174.799 61.5259C174.844 61.8347 174.863 62.2794 174.854 62.86H170.247C170.271 63.5353 170.483 64.0088 170.883 64.2806C171.126 64.4494 171.418 64.5339 171.76 64.5339C172.122 64.5339 172.417 64.4309 172.643 64.225C172.767 64.1138 172.876 63.9594 172.971 63.7618H174.768ZM173.026 61.6988C172.997 61.2335 172.855 60.8814 172.6 60.6426C172.349 60.3997 172.036 60.2782 171.661 60.2782C171.253 60.2782 170.936 60.4059 170.71 60.6612C170.488 60.9164 170.348 61.2623 170.29 61.6988H173.026ZM180.306 59.3147C180.833 59.6523 181.135 60.2329 181.214 61.0565H179.453C179.428 60.83 179.365 60.6509 179.262 60.5191C179.068 60.2803 178.739 60.1609 178.273 60.1609C177.891 60.1609 177.617 60.2206 177.452 60.34C177.291 60.4594 177.211 60.5994 177.211 60.76C177.211 60.9617 177.298 61.1079 177.471 61.1985C177.643 61.2932 178.255 61.4559 179.305 61.6865C180.005 61.8512 180.53 62.1003 180.88 62.4338C181.226 62.7715 181.399 63.1935 181.399 63.7C181.399 64.3671 181.15 64.9127 180.651 65.3368C180.157 65.7568 179.391 65.9668 178.354 65.9668C177.296 65.9668 176.513 65.7445 176.007 65.2997C175.504 64.8509 175.253 64.2806 175.253 63.5888H177.038C177.075 63.9018 177.156 64.1241 177.279 64.2559C177.497 64.4906 177.901 64.608 178.49 64.608C178.836 64.608 179.109 64.5565 179.311 64.4536C179.517 64.3506 179.62 64.1962 179.62 63.9903C179.62 63.7927 179.538 63.6424 179.373 63.5394C179.208 63.4365 178.597 63.2594 177.538 63.0082C176.777 62.8188 176.239 62.5821 175.926 62.2979C175.613 62.0179 175.457 61.6144 175.457 61.0873C175.457 60.4656 175.7 59.9323 176.186 59.4876C176.676 59.0388 177.363 58.8144 178.249 58.8144C179.089 58.8144 179.774 58.9811 180.306 59.3147Z" fill="#111827"/>
<g filter="url(#filter4_d_1_121)">
<rect x="49.6074" y="252.713" width="228.984" height="228.984" rx="114.492" fill="#FDFDFD"/>
<rect x="49.9049" y="253.01" width="228.39" height="228.39" rx="114.195" stroke="#C0F4FD" stroke-width="0.594957"/>
</g>
<g filter="url(#filter5_d_1_121)">
<g clip-path="url(#clip4_1_121)">
<rect x="59.6855" y="282.093" width="33.863" height="33.863" rx="16.9315" transform="rotate(25.184 59.6855 282.093)" fill="#FDFDFD"/>
<path fill-rule="evenodd" clip-rule="evenodd" d="M73.4327 304.439C73.4327 307.701 70.849 310.345 67.6617 310.345C64.4744 310.345 61.8906 307.701 61.8906 304.439C61.8906 301.177 64.4744 298.532 67.6617 298.532C70.849 298.532 73.4327 301.177 73.4327 304.439Z" fill="#D33833"/>
<path d="M62.1252 305.901C62.1252 305.901 61.7074 299.741 67.3796 299.565L66.9839 298.905L63.906 299.939L63.0266 300.951L62.2571 302.425L61.8174 304.141L61.9493 305.285" fill="#EF3D3A"/>
<path d="M63.7086 300.41C62.6961 301.446 62.0695 302.878 62.0695 304.461C62.0695 306.044 62.6961 307.476 63.7086 308.512C64.7216 309.548 66.1177 310.188 67.6612 310.188C69.2047 310.188 70.6009 309.548 71.6138 308.512C72.6263 307.476 73.253 306.044 73.253 304.461C73.253 302.878 72.6263 301.446 71.6138 300.41C70.6009 299.373 69.2047 298.734 67.6612 298.734C66.1177 298.734 64.7216 299.373 63.7086 300.41ZM63.4523 308.763C62.3762 307.662 61.7109 306.14 61.7109 304.461C61.7109 302.782 62.3762 301.26 63.4523 300.159C64.5282 299.058 66.0174 298.375 67.6612 298.375C69.305 298.375 70.7944 299.058 71.8701 300.159C72.9463 301.26 73.6116 302.782 73.6115 304.461C73.6116 306.14 72.9463 307.662 71.8701 308.763C70.7944 309.864 69.305 310.547 67.6612 310.547C66.0174 310.547 64.5282 309.864 63.4523 308.763Z" fill="#231F20"/>
<path fill-rule="evenodd" clip-rule="evenodd" d="M70.0906 304.47L69.2111 304.602L68.0239 304.734L67.2544 304.756L66.507 304.734L65.9353 304.558L65.4296 304.008L65.0339 302.886L64.946 302.644L64.4183 302.469L64.1105 301.963L63.8907 301.237L64.1326 300.599L64.7041 300.401L65.1658 300.621L65.3857 301.105L65.6495 301.061L65.7374 300.951L65.6495 300.445L65.6275 299.807L65.7594 298.927L65.7543 298.424L66.1551 297.783L66.8587 297.277L68.0899 296.749L69.4529 296.947L70.6401 297.805L71.1898 298.685L71.5415 299.323L71.6295 300.907L71.3656 302.271L70.882 303.48L70.4203 304.118" fill="#F0D6B7"/>
<path fill-rule="evenodd" clip-rule="evenodd" d="M69.3441 308.277L66.2002 308.409V308.937L66.464 310.785L66.3321 310.939L64.1337 310.191L63.9797 309.927L63.7599 307.441L63.2543 305.945L63.1443 305.593L64.9031 304.383L65.4528 304.163L65.9364 304.757L66.3541 305.131L66.8378 305.285L67.0576 305.351L67.3215 306.495L67.5193 306.737L68.025 306.561L67.6732 307.243L69.5859 308.145L69.3441 308.277Z" fill="#335061"/>
<path fill-rule="evenodd" clip-rule="evenodd" d="M64.1329 300.599L64.7045 300.401L65.1662 300.621L65.3861 301.105L65.6499 301.061L65.7158 300.797L65.5839 300.291L65.7158 299.081L65.6059 298.421L66.0016 297.959L66.859 297.277L66.6172 296.947L65.408 297.541L64.9023 297.937L64.6165 298.553L64.1768 299.147L64.0449 299.851L64.1329 300.599Z" fill="#6D6B6D"/>
<path fill-rule="evenodd" clip-rule="evenodd" d="M65.0349 298.531C65.0349 298.531 65.3647 297.718 66.6838 297.322C68.0029 296.926 66.7498 297.035 66.7498 297.035L65.3208 297.586L64.7711 298.135L64.5293 298.575L65.0349 298.531Z" fill="#DCD9D8"/>
<path fill-rule="evenodd" clip-rule="evenodd" d="M64.3747 300.446C64.3747 300.446 63.913 298.906 65.6718 298.686L65.6059 298.422L64.3967 298.708L64.0449 299.852L64.1329 300.6L64.3747 300.446Z" fill="#DCD9D8"/>
<path fill-rule="evenodd" clip-rule="evenodd" d="M65.0781 302.491L65.366 302.212C65.366 302.212 65.4959 302.227 65.5179 302.381C65.5398 302.535 65.6058 303.921 66.5511 304.669C66.6373 304.737 65.8476 304.559 65.8476 304.559L65.1441 303.459" fill="#F7E4CD"/>
<path fill-rule="evenodd" clip-rule="evenodd" d="M69.124 302.074C69.124 302.074 69.1753 301.407 69.355 301.458C69.5346 301.509 69.5346 301.689 69.5346 301.689C69.5346 301.689 69.0983 301.971 69.124 302.074Z" fill="#F7E4CD"/>
<path d="M70.9488 299.632C70.9488 299.632 70.586 299.708 70.5526 300.028C70.5192 300.348 70.9488 300.094 71.0148 300.072" fill="#F7E4CD"/>
<path d="M68.2879 299.653C68.2879 299.653 67.8038 299.719 67.8038 300.027C67.8038 300.335 68.3539 300.313 68.5078 300.181" fill="#F7E4CD"/>
<path fill-rule="evenodd" clip-rule="evenodd" d="M65.2981 301.084C65.2981 301.084 64.4626 300.578 64.3747 301.062C64.2868 301.546 64.0889 301.898 64.5066 302.404L64.2208 302.316L63.957 301.634L63.8691 300.974L64.3747 300.446L64.9463 300.49L65.2761 300.754L65.2981 301.084Z" fill="#F7E4CD"/>
<path fill-rule="evenodd" clip-rule="evenodd" d="M65.6932 299.697C65.6932 299.697 66.067 297.761 67.9577 297.387C69.5144 297.079 70.3321 297.453 70.6399 297.805C70.6399 297.805 69.2548 296.155 67.9357 296.661C66.6166 297.167 65.6493 298.091 65.6713 298.685C65.7087 299.696 65.6932 299.697 65.6932 299.697Z" fill="#F7E4CD"/>
<path fill-rule="evenodd" clip-rule="evenodd" d="M70.7948 298.026C70.7948 298.026 70.1568 298.004 70.1348 298.576C70.1348 298.576 70.1347 298.664 70.1787 298.752C70.1787 298.752 70.6849 298.18 70.9929 298.488" fill="#F7E4CD"/>
<path fill-rule="evenodd" clip-rule="evenodd" d="M68.0035 298.811C68.0035 298.811 67.8938 297.933 67.1455 298.444C66.6618 298.774 66.7058 299.236 66.7937 299.324C66.8817 299.412 66.8578 299.589 66.9247 299.467C66.9916 299.346 66.9696 298.95 67.2115 298.84C67.4534 298.73 67.8499 298.607 68.0035 298.811Z" fill="#F7E4CD"/>
<path fill-rule="evenodd" clip-rule="evenodd" d="M65.9364 304.757L63.8698 305.681C63.8698 305.681 64.7273 309.091 64.2875 310.147L63.9797 310.037L63.9577 308.739L63.3862 306.275L63.1443 305.593L65.2988 304.142L65.9364 304.757Z" fill="#49728B"/>
<path fill-rule="evenodd" clip-rule="evenodd" d="M66.1485 306.642L66.4417 307V308.32H66.0899C66.0899 308.32 66.046 307.396 66.046 307.286C66.046 307.176 66.0899 306.78 66.0899 306.78" fill="#49728B"/>
<path fill-rule="evenodd" clip-rule="evenodd" d="M66.1571 308.52L65.167 308.564L65.4531 308.762L66.1571 308.872" fill="#49728B"/>
<path fill-rule="evenodd" clip-rule="evenodd" d="M69.541 308.299L70.3545 308.277L70.5523 310.301L69.7169 310.411L69.541 308.299Z" fill="#335061"/>
<path fill-rule="evenodd" clip-rule="evenodd" d="M69.7607 308.299L70.9919 308.233C70.9919 308.233 71.4975 306.957 71.4975 306.891C71.4975 306.825 71.9372 305.043 71.9372 305.043L70.9479 304.009L70.7501 303.833L70.2224 304.361V306.407L69.7607 308.299Z" fill="#335061"/>
<path fill-rule="evenodd" clip-rule="evenodd" d="M70.3111 308.145L69.541 308.299L69.651 308.915C69.937 309.047 70.4211 308.695 70.4211 308.695" fill="#49728B"/>
<path fill-rule="evenodd" clip-rule="evenodd" d="M70.332 304.295L71.871 305.439L71.915 304.911L70.7497 303.833L70.332 304.295Z" fill="#49728B"/>
<path fill-rule="evenodd" clip-rule="evenodd" d="M66.9192 312.633L66.464 310.785L66.2376 309.421L66.2002 308.409L68.2603 308.299L69.542 308.299L69.4254 310.609L69.6233 312.391L69.6013 312.721L67.9305 312.853L66.9192 312.633Z" fill="white"/>
<path fill-rule="evenodd" clip-rule="evenodd" d="M69.2547 308.277C69.2547 308.277 69.1448 310.564 69.4746 312.192C69.4746 312.192 68.815 312.61 67.8477 312.72L69.6944 312.654L69.9142 312.522L69.6504 308.915L69.5845 308.145" fill="#DCD9D8"/>
<path fill-rule="evenodd" clip-rule="evenodd" d="M70.5898 310.125L71.4472 309.883L73.0741 309.795L73.3159 309.048L72.8762 307.75L72.3706 307.684L71.6671 307.904L70.9921 308.233L70.6337 308.168L70.3545 308.277" fill="white"/>
<path fill-rule="evenodd" clip-rule="evenodd" d="M70.5742 309.685C70.5742 309.685 71.1457 309.421 71.2337 309.443L70.9919 308.233L71.2777 308.123C71.2777 308.123 71.4756 309.267 71.4756 309.399C71.4756 309.399 72.7067 309.465 72.8166 309.465C72.8166 309.465 73.0805 308.959 73.0145 308.431L73.2564 309.135L73.2783 309.531L72.9266 310.059L72.5309 310.147L71.8713 310.125L71.6515 309.839L70.882 309.949L70.6401 310.037" fill="#DCD9D8"/>
<path d="M69.711 308.123L69.2274 306.891L68.7217 306.165C68.7217 306.165 68.8316 305.857 68.9855 305.857C69.1394 305.857 69.4912 305.857 69.4912 305.857L69.9748 306.033L69.9309 306.847L69.711 308.123Z" fill="white"/>
<path fill-rule="evenodd" clip-rule="evenodd" d="M69.8058 307.704C69.8058 307.704 69.1902 306.517 69.1902 306.341C69.1902 306.341 69.3001 306.077 69.454 306.143C69.6079 306.209 69.9377 306.384 69.9377 306.384V305.967L69.1902 305.812L68.6846 305.878L69.542 307.902L69.7178 307.924" fill="#DCD9D8"/>
<path d="M67.1163 304.802L66.5071 304.736L65.9354 304.56V304.758L66.2147 305.066L67.0943 305.462" fill="white"/>
<path fill-rule="evenodd" clip-rule="evenodd" d="M66.1335 304.867C66.1335 304.867 66.8157 305.153 67.0357 305.087L67.0576 305.351L66.4416 305.219L66.0675 304.955L66.1335 304.867Z" fill="#DCD9D8"/>
<path fill-rule="evenodd" clip-rule="evenodd" d="M70.5874 305.932C70.2143 305.921 69.8772 305.877 69.5821 305.794C69.6021 305.673 69.5646 305.554 69.5948 305.467C69.677 305.407 69.8149 305.408 69.9392 305.394C69.8317 305.341 69.6806 305.32 69.5566 305.351C69.5537 305.267 69.516 305.215 69.4932 305.149C69.7029 305.074 70.1982 304.583 70.4768 304.746C70.6095 304.823 70.6659 305.265 70.6762 305.48C70.6848 305.658 70.66 305.838 70.5874 305.932Z" fill="#D33833"/>
<path d="M70.5874 305.932C70.2143 305.921 69.8772 305.877 69.5821 305.794C69.6021 305.673 69.5646 305.554 69.5948 305.467C69.677 305.407 69.8149 305.408 69.9392 305.394C69.8317 305.341 69.6806 305.32 69.5566 305.351C69.5537 305.267 69.516 305.215 69.4932 305.149C69.7029 305.074 70.1982 304.583 70.4768 304.746C70.6095 304.823 70.6659 305.265 70.6762 305.48C70.6848 305.658 70.66 305.838 70.5874 305.932Z" stroke="#D33833" stroke-width="0.907704"/>
<path fill-rule="evenodd" clip-rule="evenodd" d="M68.8037 305.322C68.8027 305.35 68.8015 305.378 68.8004 305.407C68.6839 305.484 68.4958 305.483 68.368 305.547C68.5565 305.555 68.7048 305.601 68.8331 305.665C68.8303 305.736 68.8276 305.807 68.8248 305.878C68.6113 306.024 68.4163 306.242 68.1649 306.379C68.0461 306.444 67.629 306.611 67.5025 306.581C67.431 306.565 67.4245 306.476 67.3959 306.392C67.335 306.213 67.1947 305.928 67.1825 305.658C67.1669 305.317 67.1325 304.745 67.4997 304.815C67.7959 304.872 68.1405 305.009 68.3698 305.134C68.51 305.211 68.591 305.305 68.8037 305.322Z" fill="#D33833"/>
<path d="M68.8037 305.322C68.8027 305.35 68.8015 305.378 68.8004 305.407C68.6839 305.484 68.4958 305.483 68.368 305.547C68.5565 305.555 68.7048 305.601 68.8331 305.665C68.8303 305.736 68.8276 305.807 68.8248 305.878C68.6113 306.024 68.4163 306.242 68.1649 306.379C68.0461 306.444 67.629 306.611 67.5025 306.581C67.431 306.565 67.4245 306.476 67.3959 306.392C67.335 306.213 67.1947 305.928 67.1825 305.658C67.1669 305.317 67.1325 304.745 67.4997 304.815C67.7959 304.872 68.1405 305.009 68.3698 305.134C68.51 305.211 68.591 305.305 68.8037 305.322Z" stroke="#D33833" stroke-width="0.907704"/>
<path fill-rule="evenodd" clip-rule="evenodd" d="M69.016 305.729C68.9834 305.543 68.9457 305.49 68.9603 305.328C69.4559 304.997 69.5489 305.896 69.016 305.729Z" fill="#D33833"/>
<path d="M69.016 305.729C68.9834 305.543 68.9457 305.49 68.9603 305.328C69.4559 304.997 69.5489 305.896 69.016 305.729Z" stroke="#D33833" stroke-width="0.907704"/>
<path fill-rule="evenodd" clip-rule="evenodd" d="M69.7327 305.88C69.7327 305.88 69.5787 305.66 69.6887 305.594C69.7987 305.528 69.9086 305.594 69.9746 305.484C70.0406 305.374 69.9746 305.308 69.9966 305.176C70.0185 305.044 70.1286 305.022 70.2385 305C70.3484 304.978 70.6563 304.934 70.7003 305.044L70.5683 304.648L70.3044 304.56L69.4688 305.044L69.4248 305.286V305.77" fill="#EF3D3A"/>
<path fill-rule="evenodd" clip-rule="evenodd" d="M67.4248 306.605C67.3984 306.262 67.3704 305.919 67.3393 305.576C67.2928 305.064 67.4623 305.153 67.9059 305.153C67.9737 305.153 68.3231 305.234 68.3481 305.285C68.4681 305.53 68.1476 305.476 68.4863 305.66C68.7721 305.816 69.2771 305.566 69.1616 305.219C69.0969 305.142 68.8248 305.195 68.7273 305.144C68.5555 305.055 68.3838 304.966 68.212 304.877C67.9935 304.764 67.4884 304.598 67.2554 304.757C66.6651 305.158 67.2927 306.162 67.5033 306.581" fill="#EF3D3A"/>
<path fill-rule="evenodd" clip-rule="evenodd" d="M68.0027 298.811C67.4034 298.672 67.1056 299.062 66.9239 299.467C66.7617 299.428 66.8262 299.207 66.8672 299.095C66.9745 298.8 67.4068 298.407 67.7601 298.46C67.9121 298.483 68.1178 298.622 68.0027 298.811Z" fill="#231F20"/>
<path fill-rule="evenodd" clip-rule="evenodd" d="M70.9208 299.494C70.9303 299.495 70.9398 299.495 70.9493 299.495C71.0847 299.777 71.2019 300.075 71.3728 300.324C71.2583 300.59 70.5061 300.826 70.5177 300.347C70.6804 300.276 70.9612 300.333 71.1054 300.242C71.022 300.013 70.9017 299.818 70.9208 299.494Z" fill="#231F20"/>
<path fill-rule="evenodd" clip-rule="evenodd" d="M68.3099 299.501C68.4384 299.737 68.4802 299.984 68.6629 300.163C68.7451 300.243 68.9051 300.34 68.8258 300.564C68.8073 300.616 68.6719 300.733 68.5937 300.756C68.3081 300.841 67.6427 300.774 67.868 300.418C68.1042 300.429 68.4216 300.571 68.5982 300.4C68.4626 300.183 68.2209 299.754 68.3099 299.501Z" fill="#231F20"/>
<path fill-rule="evenodd" clip-rule="evenodd" d="M70.8157 301.896C70.3858 302.173 69.9064 302.473 69.202 302.403C69.0515 302.272 68.9941 301.981 69.1404 301.789C69.2165 301.92 69.1687 302.16 69.3808 302.197C69.7805 302.265 70.2456 301.952 70.5331 301.843C70.7114 301.542 70.5178 301.431 70.3572 301.238C70.0284 300.841 69.5873 300.35 69.6034 299.756C69.7363 299.659 69.7477 299.903 69.7668 299.947C69.9385 300.349 70.3706 300.864 70.6859 301.208C70.7633 301.292 70.8908 301.374 70.905 301.43C70.9459 301.593 70.7986 301.788 70.8157 301.896Z" fill="#231F20"/>
<path fill-rule="evenodd" clip-rule="evenodd" d="M65.1476 301.606C65.0128 301.529 64.9807 301.19 64.8223 301.18C64.5961 301.166 64.6373 301.62 64.6382 301.886C64.4825 301.744 64.4551 301.309 64.5695 301.085C64.4391 301.021 64.3809 301.156 64.3086 301.203C64.4015 300.527 65.2964 300.89 65.1476 301.606Z" fill="#231F20"/>
<path fill-rule="evenodd" clip-rule="evenodd" d="M71.088 302.178C70.8879 302.559 70.6047 302.979 70.0174 302.991C70.0054 302.868 69.9963 302.681 70.0181 302.606C70.467 302.563 70.7442 302.335 71.088 302.178Z" fill="#231F20"/>
<path fill-rule="evenodd" clip-rule="evenodd" d="M68.2754 302.424C68.6499 302.621 69.3382 302.642 69.8473 302.627C69.8746 302.739 69.8739 302.877 69.875 303.013C69.2206 303.045 68.447 302.883 68.2754 302.424Z" fill="#231F20"/>
<path fill-rule="evenodd" clip-rule="evenodd" d="M68.2049 302.792C68.4639 303.443 69.354 303.368 70.1047 303.35C70.0716 303.434 70 303.534 69.911 303.57C69.6704 303.668 69.007 303.742 68.673 303.565C68.4613 303.452 68.3252 303.198 68.2092 303.049C68.1531 302.976 67.8741 302.792 68.2049 302.792Z" fill="#231F20"/>
<path fill-rule="evenodd" clip-rule="evenodd" d="M70.7834 306.381C70.4795 306.902 70.1887 307.437 69.8281 307.897C69.9793 307.452 70.044 306.707 70.0668 306.14C70.3831 305.992 70.6539 306.173 70.7834 306.381Z" fill="#81B0C4"/>
<path fill-rule="evenodd" clip-rule="evenodd" d="M72.4198 308.254C72.0793 308.322 71.84 308.653 71.5078 308.632C71.6904 308.375 72.0103 308.266 72.4198 308.254Z" fill="#231F20"/>
<path fill-rule="evenodd" clip-rule="evenodd" d="M72.5697 308.787C72.2921 308.816 71.9661 308.861 71.6846 308.838C71.8178 308.634 72.3313 308.705 72.5697 308.787Z" fill="#231F20"/>
<path fill-rule="evenodd" clip-rule="evenodd" d="M72.6661 309.246C72.3542 309.252 71.9664 309.246 71.6699 309.221C71.8453 309.033 72.4638 309.151 72.6661 309.246Z" fill="#231F20"/>
<path fill-rule="evenodd" clip-rule="evenodd" d="M70.1973 310.502C70.242 310.894 70.3972 311.291 70.3778 311.72C70.2054 311.778 70.1064 311.829 69.8754 311.829C69.8591 311.464 69.8104 310.907 69.825 310.559C69.9385 310.567 70.106 310.478 70.1973 310.502Z" fill="#DCD9D8"/>
<path fill-rule="evenodd" clip-rule="evenodd" d="M69.6946 304.729C69.5381 304.832 69.4048 304.959 69.2544 305.069C68.921 305.085 68.7391 305.045 68.4941 304.854C68.4982 304.839 68.5228 304.845 68.5237 304.827C68.8806 304.986 69.3343 304.762 69.6946 304.729Z" fill="#F0D6B7"/>
<path fill-rule="evenodd" clip-rule="evenodd" d="M67.8223 307.164C67.9203 306.739 68.3044 306.519 68.6533 306.285C69.0133 306.742 69.2323 307.33 69.4734 307.898C68.9037 307.726 68.3216 307.447 67.8223 307.164Z" fill="#81B0C4"/>
<path fill-rule="evenodd" clip-rule="evenodd" d="M69.8254 310.56C69.8108 310.907 69.8596 311.465 69.8759 311.829C70.1068 311.83 70.2058 311.779 70.3781 311.721C70.3976 311.292 70.2424 310.895 70.1977 310.503C70.1065 310.479 69.939 310.567 69.8254 310.56ZM66.2299 308.583C66.3822 309.984 66.6027 311.161 67.0072 312.402C67.905 312.674 68.9872 312.698 69.7807 312.452C69.635 311.752 69.6987 310.9 69.6135 310.153C69.5493 309.591 69.582 309.026 69.4941 308.454C68.5326 308.253 67.1735 308.407 66.2299 308.583ZM69.7214 308.462C69.7133 309.064 69.7483 309.657 69.7942 310.259C70.0251 310.225 70.1817 310.202 70.3962 310.155C70.3266 309.575 70.3351 308.922 70.1933 308.409C70.0293 308.411 69.8849 308.408 69.7214 308.462ZM70.8925 308.365C70.7829 308.34 70.6553 308.364 70.5507 308.366C70.5999 308.857 70.7192 309.398 70.7613 309.913C70.926 309.918 71.0139 309.84 71.1494 309.814C71.1567 309.362 71.11 308.74 70.8925 308.365ZM72.6656 309.986C73.0089 309.903 73.2248 309.482 73.1287 309.05C73.0643 308.76 72.9495 308.213 72.8267 308.027C72.736 307.89 72.4899 307.71 72.2934 307.836C71.9738 308.041 71.4107 308.1 71.1776 308.348C71.2945 308.737 71.3308 309.272 71.379 309.766C71.7783 309.79 72.2696 309.656 72.6017 309.799C72.3699 309.874 72.069 309.874 71.8687 309.984C72.0324 310.063 72.4157 310.047 72.6656 309.986ZM69.4732 307.897C69.232 307.33 69.013 306.742 68.653 306.285C68.3042 306.519 67.92 306.739 67.822 307.164C68.3213 307.447 68.9034 307.726 69.4732 307.897ZM70.0675 306.14C70.0447 306.708 69.98 307.452 69.8289 307.897C70.1894 307.437 70.4802 306.902 70.7842 306.382C70.6546 306.174 70.3838 305.992 70.0675 306.14ZM69.3937 305.901C69.2572 305.886 69.1412 306.058 68.9636 305.984C68.9229 306.029 68.8859 306.077 68.8444 306.121C69.2367 306.594 69.415 307.265 69.718 307.821C69.8806 307.287 69.8618 306.702 69.8976 306.119C69.6742 306.134 69.5503 305.917 69.3937 305.901ZM68.9605 305.328C68.9459 305.491 68.9836 305.544 69.0161 305.729C69.5484 305.896 69.4555 304.998 68.9605 305.328ZM68.3702 305.135C68.1409 305.009 67.7964 304.873 67.5001 304.816C67.133 304.746 67.1673 305.317 67.1829 305.658C67.1952 305.928 67.3355 306.214 67.3964 306.393C67.425 306.477 67.4314 306.565 67.503 306.582C67.6294 306.612 68.0465 306.445 68.1654 306.38C68.4167 306.243 68.6118 306.025 68.8253 305.879C68.8281 305.807 68.8308 305.736 68.8336 305.665C68.7052 305.601 68.5569 305.556 68.3685 305.548C68.4963 305.483 68.6843 305.484 68.8008 305.408C68.8019 305.379 68.8031 305.351 68.8041 305.322C68.5915 305.306 68.5104 305.211 68.3702 305.135ZM66.1797 304.736C65.9893 304.93 66.7135 305.193 66.9441 305.208C66.9428 305.085 67.0138 304.97 66.9995 304.882C66.7256 304.834 66.3657 304.866 66.1797 304.736ZM68.5245 304.827C68.5235 304.846 68.4989 304.839 68.4949 304.855C68.7398 305.046 68.9217 305.086 69.255 305.069C69.4054 304.96 69.5386 304.832 69.6952 304.73C69.3348 304.762 68.8813 304.986 68.5245 304.827ZM70.6767 305.48C70.6664 305.265 70.61 304.824 70.4773 304.746C70.1988 304.584 69.7037 305.075 69.4939 305.15C69.5168 305.215 69.5544 305.268 69.5573 305.352C69.6814 305.321 69.8324 305.342 69.9399 305.395C69.8156 305.409 69.6777 305.408 69.5955 305.467C69.5654 305.554 69.6029 305.673 69.5829 305.794C69.8779 305.877 70.215 305.922 70.588 305.933C70.6606 305.838 70.6853 305.658 70.6767 305.48ZM65.8592 304.923C65.7994 304.881 65.3951 304.354 65.3397 304.376C64.608 304.665 63.9238 305.164 63.3125 305.636C63.8954 306.888 64.1307 308.421 64.1722 309.899C64.84 310.212 65.4265 310.662 66.3326 310.709C66.2277 309.967 66.132 309.305 66.0725 308.606C65.8448 308.51 65.5182 308.61 65.3051 308.576C65.3033 308.319 65.6305 308.463 65.6578 308.291C65.6783 308.16 65.4778 308.15 65.5431 307.944C65.7096 308.005 65.7971 308.139 65.9747 308.189C66.1371 307.834 65.9725 307.205 65.9959 306.908C66.0003 306.852 66.0237 306.599 66.1485 306.644C66.259 306.683 66.1422 307.317 66.1543 307.598C66.1653 307.857 66.1231 308.107 66.2279 308.27C67.1035 308.151 67.9932 308.074 68.9406 308.048C68.7321 307.958 68.4846 307.873 68.2131 307.72C68.0659 307.637 67.6021 307.465 67.5596 307.325C67.4918 307.102 67.7374 306.983 67.7794 306.792C67.3374 307.033 67.2512 306.561 67.1466 306.226C67.0519 305.923 66.998 305.697 66.9747 305.522C66.594 305.34 66.1869 305.156 65.8592 304.923ZM70.29 304.44C70.8996 304.144 71.0095 305.545 70.7706 305.997C70.8075 306.131 70.9345 306.183 70.9864 306.304C70.6462 306.914 70.2683 307.483 69.9212 308.086C70.1794 307.925 70.5482 308.057 70.8521 307.937C70.9631 307.893 71.0435 307.638 71.1277 307.435C71.3589 306.875 71.6018 306.169 71.7098 305.634C71.7342 305.513 71.8007 305.247 71.7858 305.139C71.7592 304.945 71.4961 304.801 71.3623 304.681C71.1158 304.459 70.9605 304.264 70.7034 304.057C70.5991 304.211 70.3753 304.315 70.29 304.44ZM64.465 299.03C64.1745 299.35 64.2353 299.949 64.2705 300.376C64.7955 300.045 65.4924 300.402 65.4859 300.964C65.7366 300.957 65.5795 300.651 65.5342 300.453C65.386 299.808 65.7838 299.107 65.5522 298.517C65.1025 298.551 64.733 298.735 64.465 299.03ZM66.5435 297.174C65.8859 297.361 65.043 297.839 64.7728 298.43C64.9821 298.4 65.1273 298.294 65.3337 298.281C65.4118 298.276 65.514 298.314 65.6036 298.291C65.7823 298.247 65.9331 297.846 66.0679 297.697C66.1993 297.551 66.3572 297.489 66.4653 297.356C66.5347 297.323 66.6374 297.325 66.6413 297.221C66.6112 297.189 66.5795 297.164 66.5435 297.174ZM69.9668 297.35C69.2842 296.964 68.1289 296.674 67.4028 297.037C66.8169 297.329 66.025 297.813 65.755 298.425C66.0072 299.017 65.6803 299.559 65.6594 300.159C65.6483 300.479 65.8097 300.757 65.8221 301.105C65.7358 301.248 65.4721 301.265 65.2896 301.256C65.2281 300.948 65.1205 300.602 64.8039 300.567C64.3559 300.518 64.0283 300.889 64.0079 301.277C63.9839 301.733 64.3579 302.489 64.8882 302.436C65.093 302.416 65.1433 302.211 65.3665 302.213C65.4874 302.454 65.1799 302.53 65.1482 302.703C65.14 302.747 65.1737 302.922 65.1934 303.003C65.2897 303.402 65.5044 303.917 65.7157 304.22C65.9839 304.604 66.5108 304.662 67.0777 304.7C67.1789 304.482 67.5519 304.5 67.795 304.557C67.5037 304.441 67.2329 304.162 67.0085 303.914C66.7508 303.63 66.4896 303.325 66.4764 302.954C66.9636 303.63 67.366 304.22 68.2517 304.518C68.922 304.743 69.7047 304.415 70.2197 304.053C70.4334 303.902 70.561 303.664 70.7128 303.445C71.2812 302.627 71.5464 301.46 71.4881 300.328C71.4641 299.861 71.4651 299.396 71.3086 299.082C71.1451 298.754 70.5918 298.46 70.268 298.757C70.208 298.438 70.5373 298.24 70.9241 298.355C70.6483 297.999 70.3588 297.571 69.9668 297.35ZM71.2384 307.88C71.7718 307.615 72.7684 307.166 73.1028 307.881C73.2262 308.145 73.371 308.591 73.4349 308.863C73.5252 309.247 73.337 310.053 72.9427 310.182C72.5944 310.296 72.1879 310.289 71.7684 310.205C71.719 310.164 71.664 310.092 71.6255 310.017C71.326 310.006 71.0455 310.033 70.8088 310.157C70.8312 310.378 70.6814 310.414 70.5409 310.459C70.4368 310.873 70.7493 311.412 70.6745 311.789C70.6211 312.057 70.2911 312.099 70.0485 312.149C70.0406 312.298 70.0591 312.423 70.0757 312.549C70.0202 312.754 69.7714 312.87 69.5357 312.898C68.7601 312.992 67.5825 313.034 66.8365 312.765C66.6284 312.254 66.4644 311.633 66.291 311.049C65.5634 311.127 64.975 310.735 64.4202 310.479C64.2282 310.39 63.9625 310.34 63.8907 310.187C63.8211 310.039 63.8496 309.756 63.8324 309.487C63.7884 308.803 63.7508 308.142 63.5701 307.441C63.4889 307.126 63.3475 306.849 63.2488 306.545C63.1576 306.264 62.9982 305.917 62.9567 305.637C62.8951 305.222 63.2859 305.198 63.5358 305.018C63.9221 304.74 64.2254 304.586 64.6438 304.335C64.7677 304.261 65.1414 304.072 65.1839 303.986C65.2684 303.814 65.0389 303.571 64.9775 303.437C64.8804 303.224 64.8298 303.042 64.8159 302.832C64.4649 302.777 64.1988 302.568 64.0381 302.332C63.7723 301.942 63.5879 301.22 63.8179 300.672C63.836 300.628 63.9259 300.543 63.9392 300.477C63.9654 300.346 63.8899 300.172 63.8853 300.033C63.8611 299.32 64.0059 298.705 64.4858 298.49C64.6807 297.713 65.3781 297.455 66.0352 297.069C66.2808 296.925 66.5515 296.833 66.8311 296.73C67.8342 296.36 69.3732 296.43 70.2057 297.06C70.5587 297.327 71.1229 297.891 71.3247 298.299C71.8578 299.378 71.8199 301.179 71.4471 302.491C71.3969 302.667 71.3243 302.926 71.2228 303.137C71.152 303.285 70.932 303.581 70.9587 303.711C70.9862 303.846 71.4603 304.206 71.5619 304.304C71.7449 304.481 72.0926 304.715 72.1208 304.938C72.1511 305.175 72.0163 305.5 71.9481 305.729C71.7199 306.493 71.4972 307.199 71.2384 307.88Z" fill="#231F20"/>
<path fill-rule="evenodd" clip-rule="evenodd" d="M67.68 302.591C67.7089 302.553 67.8682 302.494 68.091 302.601C68.091 302.601 67.8269 302.645 67.8489 303.086L67.7389 303.064C67.7389 303.064 67.6251 302.664 67.68 302.591Z" fill="#F7E4CD"/>
<path fill-rule="evenodd" clip-rule="evenodd" d="M69.6069 306.375C69.6069 306.442 69.5528 306.496 69.486 306.496C69.4194 306.496 69.3652 306.442 69.3652 306.375C69.3652 306.308 69.4194 306.254 69.486 306.254C69.5528 306.254 69.6069 306.308 69.6069 306.375Z" fill="#1D1919"/>
<path fill-rule="evenodd" clip-rule="evenodd" d="M69.7281 306.935C69.7281 307.002 69.6739 307.056 69.6072 307.056C69.5405 307.056 69.4863 307.002 69.4863 306.935C69.4863 306.869 69.5405 306.814 69.6072 306.814C69.6739 306.814 69.7281 306.869 69.7281 306.935Z" fill="#1D1919"/>
</g>
<rect x="59.9862" y="282.927" width="32.6088" height="32.6088" rx="16.3044" transform="rotate(25.184 59.9862 282.927)" stroke="#00D6FF" stroke-opacity="0.24" stroke-width="1.25418"/>
</g>
<g filter="url(#filter6_d_1_121)">
<rect x="97.7393" y="245.955" width="33.863" height="33.863" rx="16.9315" transform="rotate(25.184 97.7393 245.955)" fill="#FDFDFD"/>
<rect x="98.0399" y="246.789" width="32.6088" height="32.6088" rx="16.3044" transform="rotate(25.184 98.0399 246.789)" stroke="#00D6FF" stroke-opacity="0.24" stroke-width="1.25418"/>
<path d="M105.484 276.085L108.518 266.738H102.455L105.484 276.085Z" fill="#E24329"/>
<path d="M98.2058 266.739L97.282 269.578C97.1984 269.836 97.2887 270.121 97.5093 270.281L105.484 276.085L98.2058 266.739Z" fill="#FCA326"/>
<path d="M98.2062 266.738H102.455L100.627 261.11C100.533 260.822 100.125 260.822 100.028 261.11L98.2062 266.738Z" fill="#E24329"/>
<path d="M112.767 266.739L113.687 269.578C113.771 269.836 113.68 270.121 113.46 270.281L105.484 276.085L112.767 266.739Z" fill="#FCA326"/>
<path d="M112.768 266.738H108.519L110.344 261.11C110.438 260.822 110.846 260.822 110.943 261.11L112.768 266.738Z" fill="#E24329"/>
<path d="M105.484 276.085L108.517 266.739H112.767L105.484 276.085Z" fill="#FC6D26"/>
<path d="M105.485 276.085L98.2062 266.738H102.455L105.485 276.085Z" fill="#FC6D26"/>
</g>
<g filter="url(#filter7_d_1_121)">
<g clip-path="url(#clip5_1_121)">
<rect x="216.003" y="246.778" width="33.863" height="33.863" rx="16.9315" transform="rotate(25.184 216.003 246.778)" fill="#FDFDFD"/>
<g clip-path="url(#clip6_1_121)">
<path d="M219.41 261.2C221.284 261.2 222.804 262.719 222.804 264.594C222.804 266.436 221.336 267.934 219.506 267.985C219.506 268.14 219.512 268.435 219.601 268.613C219.723 268.859 220.457 269.318 221.177 269.318H221.435C221.598 268.161 222.591 267.271 223.793 267.271C224.991 267.271 225.981 268.154 226.15 269.304H227.487C227.656 268.154 228.647 267.271 229.844 267.271C231.159 267.271 232.226 268.337 232.226 269.652C232.226 270.967 231.159 272.034 229.844 272.034C228.647 272.034 227.656 271.15 227.487 270H226.15C225.981 271.15 224.991 272.034 223.793 272.034C222.598 272.034 221.609 271.154 221.438 270.007L221.152 270.015C220.681 270.012 220.184 269.886 219.784 269.615C219.676 269.541 219.568 269.463 219.456 269.389L219.456 269.544C219.456 269.594 219.447 270.345 219.446 271.18L219.446 271.356C219.446 271.903 219.451 272.467 219.463 272.878C219.492 273.781 220.225 274.509 221.035 274.679C221.14 274.701 221.321 274.704 221.435 274.694C221.598 273.538 222.592 272.648 223.793 272.648C225.109 272.648 226.175 273.714 226.175 275.029C226.175 276.344 225.109 277.41 223.793 277.41C222.605 277.41 221.62 276.54 221.441 275.402H221.235C219.688 275.318 218.726 273.898 218.742 272.747C218.763 271.299 218.748 269.85 218.747 268.401V267.922C217.19 267.614 216.016 266.241 216.016 264.594C216.016 262.719 217.535 261.2 219.41 261.2ZM223.793 273.344C222.862 273.344 222.108 274.098 222.108 275.029C222.108 275.96 222.862 276.714 223.793 276.714C224.724 276.714 225.479 275.96 225.479 275.029C225.479 274.098 224.724 273.344 223.793 273.344ZM223.793 267.967C222.862 267.967 222.108 268.722 222.108 269.652C222.108 270.583 222.862 271.337 223.793 271.337C224.724 271.337 225.479 270.583 225.479 269.652C225.479 268.722 224.724 267.967 223.793 267.967ZM229.844 267.967C228.913 267.967 228.158 268.722 228.158 269.652C228.158 270.583 228.913 271.337 229.844 271.337C230.775 271.337 231.529 270.583 231.529 269.652C231.529 268.722 230.775 267.967 229.844 267.967ZM230.804 268.943C230.936 269.075 230.94 269.288 230.814 269.424L230.804 269.435L229.772 270.47C229.64 270.602 229.429 270.606 229.292 270.482L229.281 270.472L228.775 269.974C228.638 269.84 228.637 269.619 228.772 269.482C228.903 269.349 229.116 269.344 229.253 269.468L229.264 269.479L229.523 269.734L230.311 268.943C230.447 268.807 230.668 268.807 230.804 268.943ZM224.726 268.938C224.858 269.07 224.862 269.283 224.736 269.419L224.726 269.43L223.694 270.465C223.562 270.597 223.351 270.601 223.214 270.477L223.203 270.467L222.697 269.969C222.56 269.835 222.559 269.614 222.693 269.477C222.825 269.344 223.037 269.339 223.175 269.463L223.186 269.473L223.445 269.728L224.233 268.938C224.369 268.802 224.589 268.802 224.726 268.938ZM219.41 261.896C217.92 261.896 216.712 263.104 216.712 264.594C216.712 266.083 217.92 267.291 219.41 267.291C220.9 267.291 222.108 266.083 222.108 264.594C222.108 263.104 220.9 261.896 219.41 261.896ZM219.129 262.981C219.697 263.322 220.257 263.675 220.809 264.04C221.272 264.345 221.271 264.898 220.803 265.204C220.241 265.572 219.669 265.925 219.089 266.262C218.617 266.537 218.089 266.221 218.076 265.671C218.068 265.316 218.075 264.961 218.074 264.606C218.074 264.261 218.067 263.915 218.075 263.57C218.089 262.984 218.628 262.679 219.129 262.981ZM218.755 263.543V263.788C218.755 263.909 218.755 264.029 218.755 264.147L218.755 264.382V264.729C218.755 264.997 218.755 265.261 218.755 265.525C218.756 265.649 218.82 265.644 218.904 265.592C219.385 265.293 219.867 264.995 220.349 264.697C220.429 264.648 220.431 264.597 220.353 264.548C219.837 264.222 219.32 263.898 218.755 263.543Z" fill="#4A7EBF"/>
<path d="M224.451 275.377C224.644 275.377 224.8 275.221 224.8 275.029C224.8 274.836 224.644 274.681 224.451 274.681C224.259 274.681 224.103 274.836 224.103 275.029C224.103 275.221 224.259 275.377 224.451 275.377Z" fill="#85B3DF"/>
<path d="M223.119 275.377C223.311 275.377 223.467 275.221 223.467 275.029C223.467 274.836 223.311 274.681 223.119 274.681C222.926 274.681 222.77 274.836 222.77 275.029C222.77 275.221 222.926 275.377 223.119 275.377Z" fill="#85B3DF"/>
<path d="M229.843 276.714C228.912 276.714 228.157 275.959 228.157 275.029C228.157 274.098 228.912 273.344 229.843 273.344C230.774 273.344 231.528 274.098 231.528 275.029C231.528 275.959 230.774 276.714 229.843 276.714ZM229.843 272.647C228.646 272.647 227.655 273.531 227.487 274.681H227.097C226.927 274.681 226.789 274.837 226.789 275.029C226.789 275.221 226.927 275.377 227.097 275.377H227.487C227.655 276.527 228.646 277.41 229.843 277.41C231.158 277.41 232.225 276.344 232.225 275.029C232.225 273.714 231.158 272.647 229.843 272.647Z" fill="#85B3DF"/>
</g>
</g>
<rect x="216.304" y="247.613" width="32.6088" height="32.6088" rx="16.3044" transform="rotate(25.184 216.304 247.613)" stroke="#00D6FF" stroke-opacity="0.24" stroke-width="1.25418"/>
</g>
<g filter="url(#filter8_d_1_121)">
<rect x="254.832" y="282.229" width="33.863" height="33.863" rx="16.9315" transform="rotate(25.184 254.832 282.229)" fill="#FDFDFD"/>
<rect x="255.133" y="283.064" width="32.6088" height="32.6088" rx="16.3044" transform="rotate(25.184 255.133 283.064)" stroke="#00D6FF" stroke-opacity="0.24" stroke-width="1.25418"/>
<g clip-path="url(#clip7_1_121)">
<path d="M252.314 299.262L259.003 302.585V309.401L252.314 305.993V299.262Z" fill="#30F2A2"/>
<path d="M265.691 299.262L272.38 302.585V309.401L265.691 305.993V299.262Z" fill="#30F2A2"/>
<path d="M265.692 299.262L259.003 302.585V309.401L265.692 305.993V299.262Z" fill="#14CC80"/>
<path d="M272.38 302.67L265.691 305.993V312.809L272.38 309.401V302.67Z" fill="#14CC80"/>
</g>
</g>
<path d="M155.196 283.572C154.516 284.193 153.648 284.504 152.589 284.504C151.28 284.504 150.25 284.084 149.501 283.244C148.752 282.4 148.377 281.243 148.377 279.773C148.377 278.184 148.803 276.959 149.655 276.098C150.397 275.349 151.34 274.974 152.484 274.974C154.016 274.974 155.136 275.476 155.844 276.481C156.235 277.045 156.445 277.611 156.474 278.179H154.572C154.448 277.743 154.29 277.414 154.096 277.191C153.75 276.796 153.238 276.598 152.558 276.598C151.867 276.598 151.321 276.878 150.922 277.438C150.522 277.994 150.322 278.783 150.322 279.804C150.322 280.825 150.532 281.591 150.952 282.102C151.377 282.608 151.914 282.861 152.565 282.861C153.232 282.861 153.74 282.643 154.09 282.207C154.284 281.972 154.444 281.62 154.572 281.15H156.456C156.291 282.143 155.871 282.95 155.196 283.572ZM157.386 275.147H159.276V284.251H157.386V275.147ZM159.02 284.251L162.547 274.869H164.01L160.471 284.251H159.02ZM170.24 283.572C169.56 284.193 168.692 284.504 167.633 284.504C166.324 284.504 165.295 284.084 164.545 283.244C163.796 282.4 163.421 281.243 163.421 279.773C163.421 278.184 163.847 276.959 164.7 276.098C165.441 275.349 166.384 274.974 167.528 274.974C169.06 274.974 170.18 275.476 170.888 276.481C171.28 277.045 171.49 277.611 171.518 278.179H169.616C169.493 277.743 169.334 277.414 169.14 277.191C168.795 276.796 168.282 276.598 167.602 276.598C166.911 276.598 166.365 276.878 165.966 277.438C165.566 277.994 165.367 278.783 165.367 279.804C165.367 280.825 165.577 281.591 165.997 282.102C166.421 282.608 166.958 282.861 167.609 282.861C168.276 282.861 168.784 282.643 169.134 282.207C169.328 281.972 169.488 281.62 169.616 281.15H171.5C171.335 282.143 170.915 282.95 170.24 283.572ZM176.5 284.251H172.578V275.147H176.5C177.064 275.155 177.534 275.221 177.908 275.344C178.547 275.554 179.063 275.939 179.459 276.499C179.776 276.952 179.992 277.442 180.107 277.969C180.223 278.496 180.28 278.999 180.28 279.476C180.28 280.687 180.037 281.712 179.551 282.552C178.893 283.685 177.876 284.251 176.5 284.251ZM177.915 277.469C177.622 276.975 177.044 276.728 176.179 276.728H174.425V282.67H176.179C177.077 282.67 177.703 282.227 178.057 281.342C178.25 280.856 178.347 280.277 178.347 279.606C178.347 278.68 178.203 277.967 177.915 277.469ZM144.575 296.681H142.611V300.251H140.752V291.147H145.217C145.855 291.159 146.345 291.237 146.687 291.381C147.033 291.526 147.325 291.738 147.564 292.018C147.762 292.248 147.918 292.504 148.034 292.784C148.149 293.064 148.207 293.383 148.207 293.741C148.207 294.173 148.098 294.599 147.879 295.019C147.661 295.435 147.301 295.73 146.798 295.903C147.218 296.072 147.515 296.312 147.688 296.625C147.865 296.934 147.953 297.408 147.953 298.046V298.657C147.953 299.073 147.97 299.355 148.003 299.504C148.052 299.738 148.168 299.911 148.349 300.022V300.251H146.255C146.197 300.049 146.156 299.887 146.131 299.763C146.082 299.508 146.055 299.246 146.051 298.979L146.039 298.132C146.03 297.552 145.923 297.165 145.717 296.971C145.516 296.778 145.135 296.681 144.575 296.681ZM145.73 295.026C146.109 294.853 146.298 294.511 146.298 294C146.298 293.449 146.115 293.078 145.748 292.889C145.542 292.781 145.234 292.728 144.822 292.728H142.611V295.174H144.766C145.195 295.174 145.516 295.124 145.73 295.026ZM153.645 299.3C153.629 299.32 153.588 299.382 153.522 299.485C153.456 299.588 153.378 299.679 153.287 299.757C153.011 300.004 152.744 300.173 152.484 300.263C152.229 300.354 151.928 300.399 151.582 300.399C150.586 300.399 149.915 300.041 149.569 299.324C149.375 298.929 149.279 298.347 149.279 297.577V293.519H151.082V297.577C151.082 297.959 151.127 298.248 151.218 298.441C151.379 298.783 151.694 298.954 152.163 298.954C152.764 298.954 153.176 298.711 153.398 298.225C153.514 297.962 153.571 297.614 153.571 297.181V293.519H155.356V300.251H153.645V299.3ZM159.85 294.822C159.253 294.822 158.843 295.075 158.621 295.582C158.506 295.849 158.448 296.191 158.448 296.607V300.251H156.694V293.531H158.393V294.513C158.619 294.167 158.833 293.918 159.035 293.766C159.397 293.494 159.856 293.358 160.412 293.358C161.108 293.358 161.676 293.541 162.117 293.908C162.562 294.27 162.784 294.873 162.784 295.717V300.251H160.98V296.156C160.98 295.802 160.933 295.53 160.838 295.341C160.665 294.995 160.336 294.822 159.85 294.822ZM167.204 294.822C166.607 294.822 166.197 295.075 165.975 295.582C165.859 295.849 165.802 296.191 165.802 296.607V300.251H164.048V293.531H165.746V294.513C165.973 294.167 166.187 293.918 166.388 293.766C166.751 293.494 167.21 293.358 167.766 293.358C168.462 293.358 169.03 293.541 169.471 293.908C169.915 294.27 170.138 294.873 170.138 295.717V300.251H168.334V296.156C168.334 295.802 168.287 295.53 168.192 295.341C168.019 294.995 167.69 294.822 167.204 294.822ZM177.151 298.274C177.106 298.674 176.898 299.079 176.528 299.491C175.951 300.146 175.144 300.473 174.106 300.473C173.25 300.473 172.494 300.197 171.84 299.646C171.185 299.094 170.858 298.196 170.858 296.953C170.858 295.787 171.152 294.894 171.741 294.272C172.334 293.65 173.102 293.339 174.045 293.339C174.605 293.339 175.109 293.444 175.558 293.654C176.007 293.864 176.377 294.196 176.67 294.649C176.933 295.048 177.104 295.511 177.182 296.039C177.228 296.347 177.246 296.792 177.238 297.373H172.63C172.655 298.048 172.867 298.522 173.266 298.793C173.509 298.962 173.802 299.047 174.143 299.047C174.506 299.047 174.8 298.944 175.027 298.738C175.15 298.627 175.259 298.472 175.354 298.274H177.151ZM175.41 296.212C175.381 295.746 175.239 295.394 174.983 295.155C174.732 294.912 174.419 294.791 174.045 294.791C173.637 294.791 173.32 294.919 173.093 295.174C172.871 295.429 172.731 295.775 172.673 296.212H175.41ZM181.435 295.143C180.727 295.143 180.251 295.374 180.008 295.835C179.873 296.094 179.805 296.494 179.805 297.033V300.251H178.032V293.519H179.712V294.692C179.984 294.243 180.221 293.936 180.422 293.772C180.752 293.496 181.18 293.358 181.707 293.358C181.74 293.358 181.767 293.36 181.787 293.364C181.812 293.364 181.864 293.366 181.942 293.37V295.174C181.831 295.161 181.732 295.153 181.645 295.149C181.559 295.145 181.489 295.143 181.435 295.143ZM187.239 293.827C187.766 294.165 188.068 294.746 188.146 295.569H186.386C186.361 295.343 186.298 295.164 186.195 295.032C186.001 294.793 185.672 294.674 185.206 294.674C184.823 294.674 184.55 294.733 184.385 294.853C184.224 294.972 184.144 295.112 184.144 295.273C184.144 295.474 184.231 295.621 184.403 295.711C184.576 295.806 185.188 295.969 186.238 296.199C186.938 296.364 187.463 296.613 187.813 296.947C188.159 297.284 188.332 297.706 188.332 298.213C188.332 298.88 188.083 299.425 187.584 299.85C187.09 300.27 186.324 300.48 185.287 300.48C184.228 300.48 183.446 300.257 182.94 299.812C182.437 299.364 182.186 298.793 182.186 298.102H183.971C184.008 298.414 184.088 298.637 184.212 298.769C184.43 299.003 184.834 299.121 185.423 299.121C185.768 299.121 186.042 299.069 186.244 298.966C186.45 298.863 186.553 298.709 186.553 298.503C186.553 298.305 186.471 298.155 186.306 298.052C186.141 297.949 185.53 297.772 184.471 297.521C183.71 297.332 183.172 297.095 182.859 296.811C182.546 296.531 182.39 296.127 182.39 295.6C182.39 294.978 182.633 294.445 183.119 294C183.609 293.551 184.296 293.327 185.182 293.327C186.022 293.327 186.707 293.494 187.239 293.827Z" fill="#111827"/>
</g>
<defs>
<filter id="filter0_d_1_121" x="42.0515" y="-148.595" width="244.096" height="244.096" filterUnits="userSpaceOnUse" color-interpolation-filters="sRGB">
<feFlood flood-opacity="0" result="BackgroundImageFix"/>
<feColorMatrix in="SourceAlpha" type="matrix" values="0 0 0 0 0 0 0 0 0 0 0 0 0 0 0 0 0 0 127 0" result="hardAlpha"/>
<feMorphology radius="1.78487" operator="dilate" in="SourceAlpha" result="effect1_dropShadow_1_121"/>
<feOffset/>
<feGaussianBlur stdDeviation="2.88554"/>
<feComposite in2="hardAlpha" operator="out"/>
<feColorMatrix type="matrix" values="0 0 0 0 0 0 0 0 0 0 0 0 0 0 0 0 0 0 0.05 0"/>
<feBlend mode="normal" in2="BackgroundImageFix" result="effect1_dropShadow_1_121"/>
<feBlend mode="normal" in="SourceGraphic" in2="effect1_dropShadow_1_121" result="shape"/>
</filter>
<filter id="filter1_d_1_121" x="94.7945" y="93.3004" width="138.397" height="147.299" filterUnits="userSpaceOnUse" color-interpolation-filters="sRGB">
<feFlood flood-opacity="0" result="BackgroundImageFix"/>
<feColorMatrix in="SourceAlpha" type="matrix" values="0 0 0 0 0 0 0 0 0 0 0 0 0 0 0 0 0 0 127 0" result="hardAlpha"/>
<feMorphology radius="2.19413" operator="dilate" in="SourceAlpha" result="effect1_dropShadow_1_121"/>
<feOffset/>
<feGaussianBlur stdDeviation="3.54718"/>
<feComposite in2="hardAlpha" operator="out"/>
<feColorMatrix type="matrix" values="0 0 0 0 0 0 0 0 0 0 0 0 0 0 0 0 0 0 0.05 0"/>
<feBlend mode="normal" in2="BackgroundImageFix" result="effect1_dropShadow_1_121"/>
<feBlend mode="normal" in="SourceGraphic" in2="effect1_dropShadow_1_121" result="shape"/>
</filter>
<filter id="filter2_d_1_121" x="192.11" y="38.7507" width="64.0212" height="64.0212" filterUnits="userSpaceOnUse" color-interpolation-filters="sRGB">
<feFlood flood-opacity="0" result="BackgroundImageFix"/>
<feColorMatrix in="SourceAlpha" type="matrix" values="0 0 0 0 0 0 0 0 0 0 0 0 0 0 0 0 0 0 127 0" result="hardAlpha"/>
<feMorphology radius="2.24025" operator="dilate" in="SourceAlpha" result="effect1_dropShadow_1_121"/>
<feOffset/>
<feGaussianBlur stdDeviation="3.62174"/>
<feComposite in2="hardAlpha" operator="out"/>
<feColorMatrix type="matrix" values="0 0 0 0 0 0 0 0 0 0 0 0 0 0 0 0 0 0 0.05 0"/>
<feBlend mode="normal" in2="BackgroundImageFix" result="effect1_dropShadow_1_121"/>
<feBlend mode="normal" in="SourceGraphic" in2="effect1_dropShadow_1_121" result="shape"/>
</filter>
<filter id="filter3_d_1_121" x="74.6613" y="38.7505" width="64.0212" height="64.0212" filterUnits="userSpaceOnUse" color-interpolation-filters="sRGB">
<feFlood flood-opacity="0" result="BackgroundImageFix"/>
<feColorMatrix in="SourceAlpha" type="matrix" values="0 0 0 0 0 0 0 0 0 0 0 0 0 0 0 0 0 0 127 0" result="hardAlpha"/>
<feMorphology radius="2.24025" operator="dilate" in="SourceAlpha" result="effect1_dropShadow_1_121"/>
<feOffset/>
<feGaussianBlur stdDeviation="3.62174"/>
<feComposite in2="hardAlpha" operator="out"/>
<feColorMatrix type="matrix" values="0 0 0 0 0 0 0 0 0 0 0 0 0 0 0 0 0 0 0.05 0"/>
<feBlend mode="normal" in2="BackgroundImageFix" result="effect1_dropShadow_1_121"/>
<feBlend mode="normal" in="SourceGraphic" in2="effect1_dropShadow_1_121" result="shape"/>
</filter>
<filter id="filter4_d_1_121" x="42.0515" y="245.157" width="244.096" height="244.096" filterUnits="userSpaceOnUse" color-interpolation-filters="sRGB">
<feFlood flood-opacity="0" result="BackgroundImageFix"/>
<feColorMatrix in="SourceAlpha" type="matrix" values="0 0 0 0 0 0 0 0 0 0 0 0 0 0 0 0 0 0 127 0" result="hardAlpha"/>
<feMorphology radius="1.78487" operator="dilate" in="SourceAlpha" result="effect1_dropShadow_1_121"/>
<feOffset/>
<feGaussianBlur stdDeviation="2.88554"/>
<feComposite in2="hardAlpha" operator="out"/>
<feColorMatrix type="matrix" values="0 0 0 0 0 0 0 0 0 0 0 0 0 0 0 0 0 0 0.05 0"/>
<feBlend mode="normal" in2="BackgroundImageFix" result="effect1_dropShadow_1_121"/>
<feBlend mode="normal" in="SourceGraphic" in2="effect1_dropShadow_1_121" result="shape"/>
</filter>
<filter id="filter5_d_1_121" x="35.7922" y="272.609" width="64.0212" height="64.0212" filterUnits="userSpaceOnUse" color-interpolation-filters="sRGB">
<feFlood flood-opacity="0" result="BackgroundImageFix"/>
<feColorMatrix in="SourceAlpha" type="matrix" values="0 0 0 0 0 0 0 0 0 0 0 0 0 0 0 0 0 0 127 0" result="hardAlpha"/>
<feMorphology radius="2.24025" operator="dilate" in="SourceAlpha" result="effect1_dropShadow_1_121"/>
<feOffset/>
<feGaussianBlur stdDeviation="3.62174"/>
<feComposite in2="hardAlpha" operator="out"/>
<feColorMatrix type="matrix" values="0 0 0 0 0 0 0 0 0 0 0 0 0 0 0 0 0 0 0.05 0"/>
<feBlend mode="normal" in2="BackgroundImageFix" result="effect1_dropShadow_1_121"/>
<feBlend mode="normal" in="SourceGraphic" in2="effect1_dropShadow_1_121" result="shape"/>
</filter>
<filter id="filter6_d_1_121" x="73.8459" y="236.471" width="64.0212" height="64.0212" filterUnits="userSpaceOnUse" color-interpolation-filters="sRGB">
<feFlood flood-opacity="0" result="BackgroundImageFix"/>
<feColorMatrix in="SourceAlpha" type="matrix" values="0 0 0 0 0 0 0 0 0 0 0 0 0 0 0 0 0 0 127 0" result="hardAlpha"/>
<feMorphology radius="2.24025" operator="dilate" in="SourceAlpha" result="effect1_dropShadow_1_121"/>
<feOffset/>
<feGaussianBlur stdDeviation="3.62174"/>
<feComposite in2="hardAlpha" operator="out"/>
<feColorMatrix type="matrix" values="0 0 0 0 0 0 0 0 0 0 0 0 0 0 0 0 0 0 0.05 0"/>
<feBlend mode="normal" in2="BackgroundImageFix" result="effect1_dropShadow_1_121"/>
<feBlend mode="normal" in="SourceGraphic" in2="effect1_dropShadow_1_121" result="shape"/>
</filter>
<filter id="filter7_d_1_121" x="192.11" y="237.295" width="64.0212" height="64.0212" filterUnits="userSpaceOnUse" color-interpolation-filters="sRGB">
<feFlood flood-opacity="0" result="BackgroundImageFix"/>
<feColorMatrix in="SourceAlpha" type="matrix" values="0 0 0 0 0 0 0 0 0 0 0 0 0 0 0 0 0 0 127 0" result="hardAlpha"/>
<feMorphology radius="2.24025" operator="dilate" in="SourceAlpha" result="effect1_dropShadow_1_121"/>
<feOffset/>
<feGaussianBlur stdDeviation="3.62174"/>
<feComposite in2="hardAlpha" operator="out"/>
<feColorMatrix type="matrix" values="0 0 0 0 0 0 0 0 0 0 0 0 0 0 0 0 0 0 0.05 0"/>
<feBlend mode="normal" in2="BackgroundImageFix" result="effect1_dropShadow_1_121"/>
<feBlend mode="normal" in="SourceGraphic" in2="effect1_dropShadow_1_121" result="shape"/>
</filter>
<filter id="filter8_d_1_121" x="230.939" y="272.746" width="64.0212" height="64.0212" filterUnits="userSpaceOnUse" color-interpolation-filters="sRGB">
<feFlood flood-opacity="0" result="BackgroundImageFix"/>
<feColorMatrix in="SourceAlpha" type="matrix" values="0 0 0 0 0 0 0 0 0 0 0 0 0 0 0 0 0 0 127 0" result="hardAlpha"/>
<feMorphology radius="2.24025" operator="dilate" in="SourceAlpha" result="effect1_dropShadow_1_121"/>
<feOffset/>
<feGaussianBlur stdDeviation="3.62174"/>
<feComposite in2="hardAlpha" operator="out"/>
<feColorMatrix type="matrix" values="0 0 0 0 0 0 0 0 0 0 0 0 0 0 0 0 0 0 0.05 0"/>
<feBlend mode="normal" in2="BackgroundImageFix" result="effect1_dropShadow_1_121"/>
<feBlend mode="normal" in="SourceGraphic" in2="effect1_dropShadow_1_121" result="shape"/>
</filter>
<linearGradient id="paint0_linear_1_121" x1="183.625" y1="45.6634" x2="183.625" y2="102.786" gradientUnits="userSpaceOnUse">
<stop stop-color="#CDF4FD" stop-opacity="0.5"/>
<stop offset="1" stop-color="#00D6FF"/>
</linearGradient>
<linearGradient id="paint1_linear_1_121" x1="144.359" y1="45.6634" x2="144.359" y2="102.786" gradientUnits="userSpaceOnUse">
<stop stop-color="#CDF4FD" stop-opacity="0.5"/>
<stop offset="1" stop-color="#00D6FF"/>
</linearGradient>
<linearGradient id="paint2_linear_1_121" x1="8.47125e+06" y1="45.705" x2="8.47125e+06" y2="102.827" gradientUnits="userSpaceOnUse">
<stop stop-color="#CDF4FD"/>
<stop offset="1" stop-color="#00D6FF"/>
</linearGradient>
<linearGradient id="paint3_linear_1_121" x1="183.625" y1="305.776" x2="183.625" y2="231.442" gradientUnits="userSpaceOnUse">
<stop stop-color="#CDF4FD" stop-opacity="0.5"/>
<stop offset="1" stop-color="#00D6FF"/>
</linearGradient>
<linearGradient id="paint4_linear_1_121" x1="144.359" y1="305.777" x2="144.359" y2="231.442" gradientUnits="userSpaceOnUse">
<stop stop-color="#CDF4FD" stop-opacity="0.5"/>
<stop offset="1" stop-color="#00D6FF"/>
</linearGradient>
<linearGradient id="paint5_linear_1_121" x1="8.47125e+06" y1="305.721" x2="8.47125e+06" y2="231.386" gradientUnits="userSpaceOnUse">
<stop stop-color="#CDF4FD"/>
<stop offset="1" stop-color="#00D6FF"/>
</linearGradient>
<linearGradient id="paint6_linear_1_121" x1="183.625" y1="305.776" x2="183.625" y2="231.442" gradientUnits="userSpaceOnUse">
<stop stop-color="#CDF4FD" stop-opacity="0.5"/>
<stop offset="1" stop-color="#00D6FF"/>
</linearGradient>
<linearGradient id="paint7_linear_1_121" x1="144.359" y1="305.777" x2="144.359" y2="231.442" gradientUnits="userSpaceOnUse">
<stop stop-color="#CDF4FD" stop-opacity="0.5"/>
<stop offset="1" stop-color="#00D6FF"/>
</linearGradient>
<linearGradient id="paint8_linear_1_121" x1="104.083" y1="166.95" x2="223.903" y2="166.95" gradientUnits="userSpaceOnUse">
<stop stop-color="#00D6FF"/>
<stop offset="1" stop-color="#32F8B9"/>
</linearGradient>
<linearGradient id="paint9_linear_1_121" x1="138.993" y1="197.367" x2="184.484" y2="197.367" gradientUnits="userSpaceOnUse">
<stop stop-color="#00D6FF"/>
<stop offset="1" stop-color="#32F8B9"/>
</linearGradient>
<clipPath id="clip0_1_121">
<rect x="0.492188" y="0.283203" width="327" height="327" rx="13.5194" fill="white"/>
</clipPath>
<clipPath id="clip1_1_121">
<rect width="37.6618" height="53.5194" fill="white" transform="translate(147.202 133.844)"/>
</clipPath>
<clipPath id="clip2_1_121">
<rect x="138.993" y="196.101" width="54.0775" height="2.53488" rx="1.26744" fill="white"/>
</clipPath>
<clipPath id="clip3_1_121">
<rect width="16.6957" height="16.3044" fill="white" transform="translate(98.3251 62.6092)"/>
</clipPath>
<clipPath id="clip4_1_121">
<rect x="59.6855" y="282.093" width="33.863" height="33.863" rx="16.9315" transform="rotate(25.184 59.6855 282.093)" fill="white"/>
</clipPath>
<clipPath id="clip5_1_121">
<rect x="216.003" y="246.778" width="33.863" height="33.863" rx="16.9315" transform="rotate(25.184 216.003 246.778)" fill="white"/>
</clipPath>
<clipPath id="clip6_1_121">
<rect width="16.21" height="16.21" fill="white" transform="translate(216.016 261.2)"/>
</clipPath>
<clipPath id="clip7_1_121">
<rect width="20.0669" height="20.0669" fill="white" transform="translate(252.313 296.003)"/>
</clipPath>
</defs>
</svg>
