<svg width="388" height="388" viewBox="0 0 388 388" fill="none" xmlns="http://www.w3.org/2000/svg">
<g clip-path="url(#clip0_5854_16207)">
<rect x="0.875" y="0.790039" width="387" height="387" rx="16" fill="#E8F7FE" style="mix-blend-mode:multiply"/>
<path d="M240.845 93.8477V93.8477C240.845 96.5932 239.307 99.1075 236.863 100.358L194.375 122.101" stroke="url(#paint0_linear_5854_16207)" stroke-width="2" stroke-dasharray="4 4"/>
<path d="M147.905 93.9609V93.9609C147.905 96.637 149.404 99.0876 151.786 100.307L194.375 122.101" stroke="url(#paint1_linear_5854_16207)" stroke-width="2" stroke-dasharray="4 4"/>
<path d="M194.375 94.2354L194.375 98.3206L194.375 122.497" stroke="url(#paint2_linear_5854_16207)" stroke-width="2" stroke-dasharray="4 4"/>
<path d="M240.845 311.13V311.13C240.845 307.494 239.026 304.098 236 302.083L194.375 274.363" stroke="url(#paint3_linear_5854_16207)" stroke-width="2" stroke-dasharray="4 4"/>
<path d="M147.905 310.982V310.982C147.905 307.438 149.677 304.129 152.627 302.164L194.375 274.363" stroke="url(#paint4_linear_5854_16207)" stroke-width="2" stroke-dasharray="4 4"/>
<path d="M194.375 310.625L194.375 305.309L194.375 273.847" stroke="url(#paint5_linear_5854_16207)" stroke-width="2" stroke-dasharray="4 4"/>
<path d="M240.845 311.13V311.13C240.845 307.494 239.026 304.098 236 302.083L194.375 274.363" stroke="url(#paint6_linear_5854_16207)" stroke-width="2" stroke-dasharray="4 4"/>
<path d="M147.905 310.982V310.982C147.905 307.438 149.677 304.129 152.627 302.164L194.375 274.363" stroke="url(#paint7_linear_5854_16207)" stroke-width="2" stroke-dasharray="4 4"/>
<g filter="url(#filter0_d_5854_16207)">
<rect x="59.002" y="-166.463" width="271" height="271" rx="135.5" fill="#FDFDFD"/>
<rect x="59.354" y="-166.111" width="270.296" height="270.296" rx="135.148" stroke="#C0F4FD" stroke-width="0.704123"/>
</g>
<g filter="url(#filter1_d_5854_16207)">
<path d="M261.68 179.579C261.707 179.593 261.74 179.589 261.762 179.569C264.955 176.709 266.209 172.239 264.537 168.263C263.494 165.86 262.36 163.501 261.091 161.234L259.685 158.785C258.324 156.517 256.826 154.295 255.239 152.163C252.655 148.716 248.12 147.582 244.038 148.943L240.285 150.181C234.659 152.036 228.596 150.732 223.47 147.761C218.339 144.787 214.09 140.162 212.869 134.357L212.064 130.53C211.202 126.312 207.936 122.956 203.673 122.457C200.68 122.049 197.641 121.867 194.558 121.867H194.24C191.155 121.867 188.118 122.049 185.124 122.411C180.86 122.91 177.596 126.312 176.734 130.484L175.923 134.352C174.705 140.163 170.445 144.807 165.306 147.781C160.179 150.749 154.14 152.052 148.506 150.221L144.714 148.988C140.632 147.628 136.097 148.762 133.513 152.208C131.926 154.34 130.428 156.562 129.022 158.83L127.661 161.234C126.392 163.501 125.258 165.86 124.215 168.309C122.537 172.254 123.807 176.744 127.027 179.646L130.024 182.319C134.427 186.247 136.324 192.159 136.324 198.06C136.324 203.99 134.416 209.928 129.99 213.876L127.027 216.519C123.807 219.375 122.537 223.866 124.215 227.857C125.258 230.261 126.392 232.619 127.661 234.932L129.022 237.29C130.383 239.604 131.88 241.781 133.513 243.913C136.097 247.359 140.632 248.493 144.714 247.133L148.47 245.894C154.094 244.039 160.156 245.342 165.28 248.312C170.412 251.287 174.66 255.915 175.877 261.721L176.688 265.59C177.55 269.809 180.816 273.164 185.079 273.664C188.118 274.026 191.201 274.208 194.331 274.208C197.46 274.208 200.545 274.026 203.582 273.664C207.846 273.164 211.112 269.763 211.972 265.59L212.788 261.699C214.003 255.903 218.253 251.271 223.379 248.307C228.518 245.335 234.574 244.041 240.212 245.9L243.947 247.133C248.029 248.493 252.564 247.359 255.15 243.913C256.737 241.781 258.233 239.604 259.593 237.29L261 234.841C262.269 232.574 263.403 230.215 264.446 227.811C266.124 223.866 264.855 219.375 261.635 216.473L258.671 213.83C254.245 209.882 252.337 203.945 252.337 198.014C252.337 196.837 252.301 195.667 252.23 194.504C252.004 190.769 253.257 187.029 256.049 184.538L261.597 179.59C261.62 179.57 261.653 179.566 261.68 179.579ZM172.607 198.06C172.607 192.287 174.9 186.75 178.982 182.667C183.066 178.585 188.602 176.291 194.375 176.291C200.15 176.291 205.686 178.585 209.77 182.667C213.852 186.75 216.146 192.287 216.146 198.06C216.146 203.834 213.852 209.371 209.77 213.453C205.686 217.536 200.15 219.83 194.375 219.83C188.602 219.83 183.066 217.536 178.982 213.453C174.9 209.371 172.607 203.834 172.607 198.06Z" fill="#F9FAFC"/>
<path d="M194.24 123.166H194.558C197.59 123.166 200.57 123.344 203.498 123.743L203.51 123.745L203.522 123.746C207.161 124.172 210.028 127.051 210.792 130.789L210.793 130.797L211.599 134.624C212.918 140.897 217.479 145.789 222.819 148.885C228.164 151.983 234.616 153.418 240.691 151.414L244.444 150.176L244.448 150.175C248.068 148.968 251.992 149.997 254.2 152.941C255.567 154.777 256.865 156.68 258.063 158.619L258.571 159.452L259.958 161.867V161.868C261.201 164.089 262.316 166.406 263.346 168.779C264.728 172.082 263.78 175.836 261.148 178.366C261.03 178.412 260.918 178.475 260.814 178.554L260.733 178.621L255.185 183.569C252.045 186.37 250.689 190.524 250.935 194.583C251.003 195.72 251.039 196.865 251.039 198.015C251.039 204.196 253.027 210.535 257.807 214.799L260.771 217.442C263.631 220.024 264.683 223.936 263.251 227.303C262.224 229.669 261.113 231.981 259.874 234.194L258.475 236.632C257.311 238.611 256.041 240.495 254.691 242.346L254.108 243.137C251.898 246.079 247.976 247.106 244.357 245.9L244.354 245.899L240.618 244.667C234.533 242.66 228.088 244.084 222.729 247.183C217.393 250.268 212.831 255.169 211.518 261.433L210.702 265.324L210.701 265.328C209.938 269.029 207.066 271.949 203.431 272.375H203.429C200.443 272.731 197.409 272.91 194.331 272.91C191.252 272.91 188.22 272.731 185.232 272.375H185.23C181.592 271.948 178.725 269.069 177.961 265.33L177.959 265.324L177.148 261.455C175.833 255.18 171.273 250.284 165.931 247.188C160.587 244.092 154.138 242.658 148.063 244.661L144.308 245.899L144.304 245.9C140.684 247.107 136.76 246.078 134.552 243.134L134.544 243.123L133.948 242.335C132.573 240.491 131.304 238.61 130.141 236.632L128.786 234.283C127.7 232.302 126.713 230.284 125.796 228.228L125.406 227.34C123.976 223.921 125.042 220.016 127.889 217.49L127.892 217.487L130.854 214.845C135.634 210.581 137.622 204.241 137.622 198.06C137.622 191.909 135.645 185.595 130.888 181.351L127.896 178.682H127.896C125.032 176.1 123.977 172.186 125.409 168.817C126.437 166.404 127.551 164.089 128.794 161.868L128.793 161.867L130.152 159.47C131.533 157.246 132.999 155.07 134.551 152.986L134.552 152.987C136.76 150.043 140.684 149.013 144.304 150.22L144.312 150.223L148.104 151.455C154.186 153.432 160.611 151.999 165.957 148.904C171.305 145.809 175.878 140.897 177.194 134.618L178.005 130.751L178.006 130.747C178.77 127.046 181.641 124.126 185.275 123.701L185.28 123.7C188.221 123.344 191.207 123.166 194.24 123.166ZM194.375 174.992C188.258 174.992 182.391 177.423 178.064 181.748V181.749C173.739 186.076 171.309 191.942 171.309 198.06C171.309 204.178 173.739 210.046 178.064 214.371C182.391 218.698 188.258 221.128 194.375 221.128C200.494 221.128 206.361 218.698 210.688 214.371C215.013 210.046 217.444 204.178 217.444 198.06C217.444 191.942 215.013 186.076 210.688 181.749L210.688 181.748C206.361 177.423 200.494 174.992 194.375 174.992Z" stroke="url(#paint8_linear_5854_16207)" stroke-width="2.59673"/>
</g>
<rect x="154.939" y="156.188" width="83.7001" height="83.7001" rx="41.8501" fill="#F9FAFC"/>
<g clip-path="url(#clip1_5854_16207)">
<path d="M199.156 168.673L194.26 177.171H194.227L189.38 168.756L199.156 168.673Z" fill="#83FF50" stroke="#83FF50" stroke-width="0.165983" stroke-miterlimit="5.3333"/>
<mask id="mask0_5854_16207" style="mask-type:luminance" maskUnits="userSpaceOnUse" x="176" y="158" width="27" height="13">
<path d="M202.488 170.202H176.196V158.633H202.488V170.202Z" fill="white"/>
</mask>
<g mask="url(#mask0_5854_16207)">
<g opacity="0.83">
<path d="M199.197 168.626L199.181 168.659H199.164V168.676L189.371 168.759V168.742H179.562L179.495 168.626L184.425 160.094H194.284L199.197 168.626Z" fill="#96FF5B" fill-opacity="0.6471"/>
</g>
</g>
<path d="M199.179 168.66L194.282 177.158H194.266L199.162 168.66H199.179Z" fill="white"/>
<path d="M194.287 177.281L194.271 177.314L189.358 185.812H179.515L174.585 177.281L179.515 168.749H179.564L184.411 177.165H194.221L194.287 177.281Z" fill="#00D6FF" stroke="#00D6FF" stroke-width="0.165983" stroke-miterlimit="5.3333"/>
<path d="M194.221 177.164H184.428L179.564 168.749H189.374L194.221 177.164Z" fill="#7DFFFF" stroke="#7DFFFF" stroke-width="0.165983" stroke-miterlimit="5.3333"/>
<path d="M199.23 185.602L199.313 185.734H199.163L195.429 185.768L189.37 185.817L194.283 177.319H204.027L199.23 185.602Z" fill="#32E6FF" stroke="#32E6FF" stroke-width="0.165983" stroke-miterlimit="5.3333"/>
<mask id="mask1_5854_16207" style="mask-type:luminance" maskUnits="userSpaceOnUse" x="186" y="174" width="21" height="24">
<path d="M206.735 197.24H186.834V174.467H206.735V197.24Z" fill="white"/>
</mask>
<g mask="url(#mask1_5854_16207)">
<g opacity="0.86">
<path d="M204.25 194.14L204.101 194.389H194.258L189.328 185.857L189.345 185.824L194.258 177.326H194.274L189.361 185.807L195.42 185.758L199.171 185.724H199.32L204.151 194.14H204.25Z" fill="#00D5FF" fill-opacity="0.5451"/>
</g>
</g>
<path d="M199.229 185.603L199.312 185.735H199.162L194.315 177.32H204.025L199.229 185.603Z" fill="#20E6FF" stroke="#20E6FF" stroke-width="0.165983" stroke-miterlimit="5.3333"/>
<path d="M208.972 185.734H199.312L199.229 185.602L204.009 177.319H204.108L208.972 185.734Z" fill="#2AF0FF" stroke="#2AF0FF" stroke-width="0.165983" stroke-miterlimit="5.3333"/>
<mask id="mask2_5854_16207" style="mask-type:luminance" maskUnits="userSpaceOnUse" x="197" y="184" width="14" height="12">
<path d="M210.673 195.547H197.692V184.343H210.673V195.547Z" fill="white"/>
</mask>
<g mask="url(#mask2_5854_16207)">
<g opacity="0.95">
<path d="M209.038 185.85L204.258 194.133H204.158L199.312 185.734H208.972L209.038 185.85Z" fill="#29EFFF" fill-opacity="0.8"/>
</g>
</g>
<path d="M213.949 177.199L209.02 185.73H208.97L204.123 177.315H194.313L194.247 177.199L194.264 177.166L199.16 168.667V168.651H209.02L213.866 177.05L213.949 177.199Z" fill="#32F8B9" stroke="#32F8B9" stroke-width="0.165983" stroke-miterlimit="5.3333"/>
<mask id="mask3_5854_16207" style="mask-type:luminance" maskUnits="userSpaceOnUse" x="201" y="174" width="21" height="24">
<path d="M221.341 197.24H201.639V174.318H221.341V197.24Z" fill="white"/>
</mask>
<g mask="url(#mask3_5854_16207)">
<g opacity="0.85">
<path d="M218.866 185.721L213.937 194.253L204.094 194.386L208.974 185.97L208.907 185.854H208.957L213.887 177.323L213.804 177.19H213.953L218.866 185.721Z" fill="#32F6B8" fill-opacity="0.5647"/>
</g>
</g>
<path d="M179.966 210.242V200.967H183.936V202.378H181.361V204.907H183.247V206.318H181.361V208.832H183.936V210.242H179.966Z" fill="#090909"/>
<path d="M187.434 203.099L186.913 206.748H187.955L187.434 203.099ZM186.698 208.112L186.361 210.243H184.904L186.483 200.984H188.4L189.948 210.243H188.476L188.154 208.112H186.698Z" fill="#090909"/>
<path d="M194.168 203.21C194.168 202.674 193.908 202.398 193.371 202.398H192.528V205.357H193.371C193.586 205.357 193.785 205.28 193.938 205.127C194.092 204.973 194.168 204.774 194.168 204.559V203.21ZM193.34 200.972C194.122 200.972 194.689 201.187 195.057 201.616C195.379 201.984 195.533 202.521 195.533 203.18V204.529C195.533 205.188 195.287 205.74 194.781 206.2L195.824 210.247H194.306L193.463 206.752H193.34H192.528V210.247H191.133V200.988H193.34V200.972Z" fill="#090909"/>
<path d="M198.042 202.383H196.555V200.972H200.924V202.383H199.437V210.247H198.042V202.383Z" fill="#090909"/>
<path d="M203.439 206.316V210.24H202.044V200.981H203.439V204.905H205.125V200.965H206.52V210.225H205.125V206.316H203.439Z" fill="#090909"/>
<path d="M211.578 210.242H207.776V200.983H209.171V208.847H211.578V210.242Z" fill="#090909"/>
<path d="M212.68 206.361L210.81 200.964H212.343L213.385 204.291L214.412 200.964H215.961L214.075 206.361V210.239H212.68V206.361Z" fill="#090909"/>
<path d="M209.95 215.417C209.95 214.881 209.69 214.605 209.153 214.605H208.31V217.564H209.153C209.368 217.564 209.567 217.487 209.721 217.334C209.874 217.18 209.95 216.981 209.95 216.767V215.417ZM209.123 213.179C209.904 213.179 210.472 213.394 210.84 213.823C211.162 214.191 211.315 214.728 211.315 215.387V216.736C211.315 217.395 211.07 217.947 210.564 218.407L211.606 222.454H210.088L209.245 218.959H209.123H208.31V222.454H206.915V213.195H209.123V213.179Z" fill="#49728B"/>
<path d="M203.245 215.306L202.724 218.955H203.767L203.245 215.306ZM202.509 220.319L202.172 222.45H200.716L202.295 213.191H204.211L205.76 222.45H204.288L203.966 220.319H202.509Z" fill="#49728B"/>
<path d="M196.478 217.453V222.446H195.083V213.187H196.478L198.164 218.076V213.171H199.559V222.431H198.164L196.478 217.453Z" fill="#49728B"/>
<path d="M191.517 222.446C190.376 222.446 189.45 221.521 189.45 220.379V213.187H190.845V220.205C190.845 220.671 191.223 221.048 191.688 221.048C192.154 221.048 192.532 220.671 192.532 220.205V213.171H193.927V220.364C193.927 221.508 193.004 222.438 191.859 222.446H191.517Z" fill="#49728B"/>
<path d="M184.324 222.448V213.173H185.719V214.584V217.113V218.524V221.038H188.295V222.448H184.324Z" fill="#49728B"/>
</g>
<g clip-path="url(#clip2_5854_16207)">
<rect x="164.789" y="232.536" width="64" height="3" rx="1.5" fill="#DFDFDF"/>
<rect x="164.789" y="231.983" width="53.8374" height="4.1052" fill="url(#paint9_linear_5854_16207)"/>
</g>
<path d="M194.376 134.075L188.473 124.583C193.118 124.185 195.704 124.178 200.278 124.583L194.376 134.075Z" fill="#00D6FF"/>
<path d="M194.376 262.04L188.473 271.532C193.118 271.931 195.704 271.938 200.278 271.532L194.376 262.04Z" fill="#00D6FF"/>
<g filter="url(#filter2_d_5854_16207)">
<rect x="255.93" y="57.5391" width="40.0764" height="40.0764" rx="20.0382" transform="rotate(25.184 255.93 57.5391)" fill="#FDFDFD"/>
<rect x="256.285" y="58.5265" width="38.592" height="38.592" rx="19.296" transform="rotate(25.184 256.285 58.5265)" stroke="#00D6FF" stroke-opacity="0.24" stroke-width="1.48431"/>
<path d="M265.536 93.188L269.127 82.127H261.951L265.536 93.188Z" fill="#E24329"/>
<path d="M256.922 82.127L255.828 85.4874C255.729 85.7926 255.836 86.1294 256.097 86.3196L265.536 93.188L256.922 82.127Z" fill="#FCA326"/>
<path d="M256.922 82.1271H261.951L259.786 75.4656C259.676 75.1248 259.193 75.1248 259.078 75.4656L256.922 82.1271Z" fill="#E24329"/>
<path d="M274.154 82.127L275.244 85.4874C275.343 85.7926 275.236 86.1294 274.975 86.3196L265.535 93.188L274.154 82.127Z" fill="#FCA326"/>
<path d="M274.155 82.1271H269.126L271.286 75.4656C271.397 75.1248 271.88 75.1248 271.995 75.4656L274.155 82.1271Z" fill="#E24329"/>
<path d="M265.535 93.188L269.126 82.127H274.154L265.535 93.188Z" fill="#FC6D26"/>
<path d="M265.536 93.188L256.922 82.127H261.951L265.536 93.188Z" fill="#FC6D26"/>
</g>
<g filter="url(#filter3_d_5854_16207)">
<rect x="116.931" y="57.5391" width="40.0764" height="40.0764" rx="20.0382" transform="rotate(25.184 116.931 57.5391)" fill="#FDFDFD"/>
<rect x="117.286" y="58.5265" width="38.592" height="38.592" rx="19.296" transform="rotate(25.184 117.286 58.5265)" stroke="#00D6FF" stroke-opacity="0.24" stroke-width="1.48431"/>
<g clip-path="url(#clip3_5854_16207)">
<path d="M126.538 74.5518C121.082 74.5518 116.658 78.9749 116.658 84.4314C116.658 88.7965 119.489 92.4998 123.415 93.8062C123.908 93.8976 124.09 93.5918 124.09 93.3309C124.09 93.0953 124.08 92.3171 124.076 91.4915C121.328 92.0892 120.748 90.3258 120.748 90.3258C120.298 89.1839 119.651 88.8803 119.651 88.8803C118.754 88.2671 119.718 88.2797 119.718 88.2797C120.71 88.3494 121.233 89.2978 121.233 89.2978C122.114 90.8081 123.544 90.3715 124.108 90.1191C124.196 89.4805 124.452 89.0447 124.735 88.798C122.541 88.5481 120.234 87.701 120.234 83.9154C120.234 82.8368 120.62 81.9554 121.252 81.2636C121.149 81.0147 120.811 80.0099 121.347 78.649C121.347 78.649 122.177 78.3835 124.065 79.6617C124.853 79.4428 125.698 79.333 126.538 79.3293C127.377 79.333 128.223 79.4428 129.013 79.6617C130.899 78.3835 131.727 78.649 131.727 78.649C132.265 80.0099 131.926 81.0147 131.824 81.2636C132.457 81.9554 132.841 82.8368 132.841 83.9154C132.841 87.71 130.529 88.5455 128.329 88.7901C128.684 89.0967 129 89.6979 129 90.6197C129 91.9416 128.988 93.0055 128.988 93.3309C128.988 93.5938 129.166 93.9019 129.667 93.8049C133.59 92.497 136.417 88.795 136.417 84.4314C136.417 78.9749 131.994 74.5518 126.538 74.5518ZM120.358 88.6255C120.337 88.6746 120.259 88.6893 120.189 88.6556C120.117 88.6234 120.077 88.5565 120.1 88.5072C120.122 88.4567 120.199 88.4426 120.271 88.4765C120.342 88.5087 120.383 88.5763 120.358 88.6255ZM120.844 89.0591C120.797 89.1028 120.705 89.0825 120.643 89.0135C120.578 88.9446 120.566 88.8525 120.614 88.8082C120.662 88.7645 120.752 88.7849 120.816 88.8538C120.881 88.9235 120.894 89.015 120.844 89.0591ZM121.178 89.6139C121.117 89.656 121.018 89.6166 120.957 89.5287C120.897 89.4409 120.897 89.3355 120.958 89.2933C121.02 89.2511 121.117 89.289 121.179 89.3762C121.24 89.4656 121.24 89.5709 121.178 89.6139ZM121.742 90.2565C121.687 90.3162 121.572 90.3002 121.488 90.2187C121.401 90.139 121.377 90.026 121.432 89.9663C121.486 89.9064 121.602 89.9232 121.687 90.0041C121.773 90.0836 121.799 90.1974 121.742 90.2565ZM122.47 90.4734C122.446 90.5508 122.335 90.586 122.223 90.5531C122.112 90.5192 122.039 90.4286 122.061 90.3504C122.084 90.2725 122.196 90.2359 122.309 90.271C122.42 90.3047 122.494 90.3947 122.47 90.4734ZM123.3 90.5654C123.302 90.6469 123.208 90.7145 123.09 90.7159C122.972 90.7186 122.876 90.6526 122.875 90.5725C122.875 90.4902 122.968 90.4232 123.086 90.4213C123.203 90.419 123.3 90.4844 123.3 90.5654ZM124.114 90.5342C124.128 90.6137 124.047 90.6953 123.93 90.7171C123.815 90.738 123.709 90.689 123.695 90.6101C123.68 90.5286 123.764 90.447 123.878 90.4259C123.995 90.4056 124.099 90.4534 124.114 90.5342Z" fill="#161614"/>
</g>
</g>
<path d="M185.063 58.8649C184.259 59.6007 183.231 59.9686 181.979 59.9686C180.429 59.9686 179.211 59.4716 178.324 58.4774C177.437 57.4784 176.993 56.109 176.993 54.3693C176.993 52.4882 177.498 51.0384 178.506 50.0199C179.384 49.133 180.5 48.6895 181.854 48.6895C183.667 48.6895 184.993 49.2841 185.831 50.4731C186.294 51.1408 186.542 51.8108 186.577 52.4833H184.325C184.179 51.9668 183.991 51.5769 183.762 51.3138C183.353 50.8459 182.746 50.612 181.942 50.612C181.123 50.612 180.478 50.9434 180.005 51.6062C179.532 52.264 179.296 53.1973 179.296 54.4058C179.296 55.6144 179.544 56.5208 180.042 57.1251C180.543 57.7245 181.179 58.0242 181.949 58.0242C182.739 58.0242 183.341 57.7659 183.755 57.2494C183.984 56.9716 184.174 56.5549 184.325 55.9994H186.555C186.36 57.1738 185.863 58.129 185.063 58.8649ZM194.307 52.71C194.98 53.553 195.316 54.5496 195.316 55.6997C195.316 56.8693 194.98 57.8707 194.307 58.704C193.635 59.5325 192.614 59.9467 191.244 59.9467C189.875 59.9467 188.854 59.5325 188.181 58.704C187.509 57.8707 187.173 56.8693 187.173 55.6997C187.173 54.5496 187.509 53.553 188.181 52.71C188.854 51.8669 189.875 51.4453 191.244 51.4453C192.614 51.4453 193.635 51.8669 194.307 52.71ZM191.237 53.207C190.628 53.207 190.158 53.4239 189.826 53.8576C189.5 54.2864 189.336 54.9005 189.336 55.6997C189.336 56.4989 189.5 57.1154 189.826 57.5491C190.158 57.9828 190.628 58.1997 191.237 58.1997C191.846 58.1997 192.314 57.9828 192.641 57.5491C192.967 57.1154 193.13 56.4989 193.13 55.6997C193.13 54.9005 192.967 54.2864 192.641 53.8576C192.314 53.4239 191.846 53.207 191.237 53.207ZM203.617 48.9088V59.6689H201.592V58.5652C201.295 59.0379 200.956 59.3814 200.576 59.5958C200.196 59.8103 199.723 59.9175 199.158 59.9175C198.227 59.9175 197.442 59.5422 196.804 58.7918C196.17 58.0364 195.854 57.0691 195.854 55.8897C195.854 54.5301 196.166 53.4604 196.789 52.6807C197.418 51.901 198.256 51.5111 199.304 51.5111C199.786 51.5111 200.215 51.6183 200.59 51.8328C200.966 52.0423 201.27 52.3347 201.504 52.71V48.9088H203.617ZM198.003 55.7362C198.003 56.4721 198.149 57.0593 198.441 57.4979C198.729 57.9414 199.167 58.1631 199.757 58.1631C200.347 58.1631 200.795 57.9438 201.102 57.5052C201.409 57.0666 201.563 56.4989 201.563 55.802C201.563 54.8274 201.317 54.1305 200.824 53.7114C200.522 53.458 200.171 53.3313 199.772 53.3313C199.163 53.3313 198.714 53.5628 198.427 54.0257C198.144 54.4838 198.003 55.054 198.003 55.7362ZM211.888 57.3298C211.835 57.8025 211.589 58.2825 211.15 58.7698C210.468 59.5447 209.513 59.9321 208.285 59.9321C207.271 59.9321 206.377 59.6056 205.602 58.9526C204.827 58.2996 204.44 57.2372 204.44 55.7655C204.44 54.3863 204.788 53.3289 205.485 52.593C206.187 51.8571 207.095 51.4892 208.211 51.4892C208.874 51.4892 209.471 51.6135 210.002 51.862C210.534 52.1105 210.972 52.5028 211.318 53.0389C211.63 53.5116 211.832 54.0598 211.925 54.6836C211.978 55.0491 212 55.5754 211.991 56.2625H206.537C206.567 57.0618 206.818 57.6222 207.29 57.9438C207.578 58.1436 207.924 58.2435 208.328 58.2435C208.757 58.2435 209.106 58.1217 209.374 57.878C209.52 57.7464 209.649 57.5637 209.761 57.3298H211.888ZM209.827 54.8883C209.793 54.3376 209.625 53.921 209.323 53.6383C209.025 53.3508 208.655 53.207 208.211 53.207C207.729 53.207 207.354 53.3581 207.086 53.6602C206.823 53.9624 206.657 54.3717 206.589 54.8883H209.827ZM179.257 78.6689H174.374V67.8942H179.608C180.929 67.9137 181.864 68.2962 182.415 69.0418C182.747 69.4999 182.912 70.0482 182.912 70.6866C182.912 71.3445 182.747 71.8732 182.415 72.2728C182.23 72.497 181.957 72.7017 181.596 72.8868C182.147 73.0866 182.561 73.4034 182.839 73.8371C183.122 74.2708 183.263 74.7972 183.263 75.4161C183.263 76.0544 183.102 76.6271 182.781 77.1339C182.576 77.4701 182.32 77.7528 182.013 77.9818C181.667 78.245 181.258 78.4253 180.785 78.5227C180.317 78.6202 179.808 78.6689 179.257 78.6689ZM179.206 73.9248H176.523V76.7976H179.17C179.642 76.7976 180.01 76.7343 180.273 76.6076C180.751 76.3736 180.99 75.9253 180.99 75.2625C180.99 74.7021 180.758 74.3171 180.295 74.1076C180.037 73.9906 179.674 73.9297 179.206 73.9248ZM180.325 71.8708C180.617 71.6953 180.763 71.381 180.763 70.9278C180.763 70.4258 180.568 70.0945 180.178 69.9337C179.842 69.8216 179.413 69.7655 178.892 69.7655H176.523V72.1412H179.17C179.642 72.1412 180.027 72.0511 180.325 71.8708ZM184.839 71.5638C185.39 70.862 186.335 70.5111 187.675 70.5111C188.547 70.5111 189.322 70.6841 190 71.0301C190.677 71.3761 191.016 72.0291 191.016 72.9892V76.6441C191.016 76.8975 191.021 77.2045 191.03 77.5652C191.045 77.8381 191.086 78.0232 191.155 78.1207C191.223 78.2182 191.325 78.2986 191.462 78.3619V78.6689H189.196C189.132 78.5081 189.088 78.3571 189.064 78.2157C189.04 78.0744 189.02 77.9136 189.005 77.7333C188.718 78.0452 188.387 78.3108 188.011 78.5301C187.563 78.7883 187.056 78.9175 186.491 78.9175C185.77 78.9175 185.173 78.7128 184.7 78.3035C184.232 77.8892 183.998 77.3044 183.998 76.5491C183.998 75.5696 184.376 74.8605 185.131 74.4219C185.545 74.1831 186.155 74.0126 186.959 73.9102L187.668 73.8225C188.053 73.7738 188.328 73.7129 188.494 73.6398C188.791 73.5131 188.94 73.3157 188.94 73.0477C188.94 72.7211 188.825 72.497 188.596 72.3751C188.372 72.2484 188.041 72.1851 187.602 72.1851C187.11 72.1851 186.761 72.3069 186.557 72.5506C186.41 72.7309 186.313 72.9746 186.264 73.2816H184.254C184.298 72.5847 184.493 72.0121 184.839 71.5638ZM186.389 77.1631C186.583 77.3239 186.822 77.4043 187.105 77.4043C187.553 77.4043 187.965 77.2728 188.34 77.0096C188.72 76.7464 188.918 76.2664 188.932 75.5696V74.7947C188.801 74.8776 188.667 74.9458 188.53 74.9994C188.399 75.0481 188.216 75.0944 187.982 75.1383L187.514 75.226C187.076 75.304 186.761 75.399 186.571 75.5111C186.25 75.7011 186.089 75.996 186.089 76.3956C186.089 76.7513 186.189 77.0072 186.389 77.1631ZM197.913 71.0667C198.537 71.4663 198.895 72.1534 198.988 73.1281H196.904C196.875 72.86 196.799 72.648 196.678 72.4921C196.449 72.2095 196.059 72.0681 195.508 72.0681C195.055 72.0681 194.731 72.1388 194.536 72.2801C194.346 72.4214 194.251 72.5871 194.251 72.7772C194.251 73.016 194.353 73.189 194.558 73.2962C194.762 73.4083 195.486 73.6008 196.729 73.8737C197.557 74.0686 198.179 74.3634 198.593 74.7582C199.002 75.1578 199.207 75.6573 199.207 76.2567C199.207 77.0462 198.912 77.6919 198.322 78.1938C197.738 78.6909 196.831 78.9394 195.603 78.9394C194.351 78.9394 193.425 78.6763 192.825 78.1499C192.231 77.6188 191.934 76.9438 191.934 76.1251H194.046C194.09 76.4955 194.185 76.7586 194.331 76.9146C194.589 77.1924 195.067 77.3312 195.764 77.3312C196.173 77.3312 196.497 77.2703 196.736 77.1485C196.98 77.0267 197.102 76.8439 197.102 76.6003C197.102 76.3663 197.004 76.1885 196.809 76.0666C196.614 75.9448 195.891 75.7353 194.638 75.438C193.737 75.2138 193.101 74.9336 192.73 74.5973C192.36 74.266 192.175 73.7884 192.175 73.1646C192.175 72.4288 192.462 71.7977 193.037 71.2714C193.617 70.7402 194.431 70.4746 195.479 70.4746C196.473 70.4746 197.284 70.6719 197.913 71.0667ZM207.128 76.3298C207.074 76.8025 206.828 77.2825 206.389 77.7698C205.707 78.5447 204.752 78.9321 203.524 78.9321C202.51 78.9321 201.616 78.6056 200.841 77.9526C200.066 77.2996 199.679 76.2372 199.679 74.7655C199.679 73.3863 200.027 72.3289 200.724 71.593C201.426 70.8571 202.335 70.4892 203.451 70.4892C204.113 70.4892 204.71 70.6135 205.242 70.862C205.773 71.1105 206.211 71.5028 206.557 72.0389C206.869 72.5116 207.071 73.0598 207.164 73.6836C207.218 74.0491 207.24 74.5754 207.23 75.2625H201.777C201.806 76.0618 202.057 76.6222 202.53 76.9438C202.817 77.1436 203.163 77.2435 203.568 77.2435C203.996 77.2435 204.345 77.1217 204.613 76.878C204.759 76.7464 204.888 76.5637 205 76.3298H207.128ZM205.066 73.8883C205.032 73.3376 204.864 72.921 204.562 72.6383C204.264 72.3508 203.894 72.207 203.451 72.207C202.968 72.207 202.593 72.3581 202.325 72.6602C202.062 72.9624 201.896 73.3717 201.828 73.8883H205.066ZM213.681 71.0667C214.305 71.4663 214.663 72.1534 214.756 73.1281H212.672C212.643 72.86 212.568 72.648 212.446 72.4921C212.217 72.2095 211.827 72.0681 211.276 72.0681C210.823 72.0681 210.499 72.1388 210.304 72.2801C210.114 72.4214 210.019 72.5871 210.019 72.7772C210.019 73.016 210.121 73.189 210.326 73.2962C210.531 73.4083 211.254 73.6008 212.497 73.8737C213.325 74.0686 213.947 74.3634 214.361 74.7582C214.77 75.1578 214.975 75.6573 214.975 76.2567C214.975 77.0462 214.68 77.6919 214.091 78.1938C213.506 78.6909 212.599 78.9394 211.371 78.9394C210.119 78.9394 209.193 78.6763 208.594 78.1499C207.999 77.6188 207.702 76.9438 207.702 76.1251H209.814C209.858 76.4955 209.953 76.7586 210.099 76.9146C210.358 77.1924 210.835 77.3312 211.532 77.3312C211.941 77.3312 212.266 77.2703 212.504 77.1485C212.748 77.0267 212.87 76.8439 212.87 76.6003C212.87 76.3663 212.772 76.1885 212.577 76.0666C212.383 75.9448 211.659 75.7353 210.406 75.438C209.505 75.2138 208.869 74.9336 208.499 74.5973C208.128 74.266 207.943 73.7884 207.943 73.1646C207.943 72.4288 208.231 71.7977 208.806 71.2714C209.385 70.7402 210.199 70.4746 211.247 70.4746C212.241 70.4746 213.053 70.6719 213.681 71.0667Z" fill="#111827"/>
<g filter="url(#filter4_d_5854_16207)">
<rect x="59.002" y="299.537" width="271" height="271" rx="135.5" fill="#FDFDFD"/>
<rect x="59.354" y="299.889" width="270.296" height="270.296" rx="135.148" stroke="#C0F4FD" stroke-width="0.704123"/>
</g>
<g filter="url(#filter5_d_5854_16207)">
<g clip-path="url(#clip4_5854_16207)">
<rect x="70.9297" y="334.308" width="40.0764" height="40.0764" rx="20.0382" transform="rotate(25.184 70.9297 334.308)" fill="#FDFDFD"/>
<path fill-rule="evenodd" clip-rule="evenodd" d="M87.199 360.754C87.199 364.615 84.1411 367.744 80.369 367.744C76.597 367.744 73.5391 364.615 73.5391 360.754C73.5391 356.893 76.597 353.764 80.369 353.764C84.1411 353.764 87.199 356.893 87.199 360.754Z" fill="#D33833"/>
<path d="M73.8174 362.484C73.8174 362.484 73.323 355.194 80.0359 354.986L79.5676 354.205L75.925 355.429L74.8842 356.626L73.9736 358.371L73.4531 360.401L73.6093 361.755" fill="#EF3D3A"/>
<path d="M75.6914 355.985C74.493 357.212 73.7515 358.906 73.7515 360.78C73.7515 362.653 74.493 364.348 75.6914 365.574C76.8903 366.801 78.5425 367.558 80.3692 367.558C82.1959 367.558 83.8483 366.801 85.0471 365.574C86.2454 364.348 86.9871 362.653 86.9871 360.78C86.9871 358.906 86.2454 357.212 85.0471 355.985C83.8483 354.759 82.1959 354.002 80.3692 354.002C78.5425 354.002 76.8903 354.759 75.6914 355.985ZM75.388 365.871C74.1145 364.568 73.3271 362.767 73.3271 360.78C73.3271 358.793 74.1145 356.992 75.388 355.688C76.6613 354.385 78.4238 353.577 80.3692 353.577C82.3146 353.577 84.0773 354.385 85.3504 355.688C86.624 356.992 87.4115 358.793 87.4113 360.78C87.4115 362.767 86.624 364.568 85.3504 365.871C84.0773 367.174 82.3146 367.982 80.3692 367.982C78.4238 367.982 76.6613 367.174 75.388 365.871Z" fill="#231F20"/>
<path fill-rule="evenodd" clip-rule="evenodd" d="M83.2437 360.792L82.2029 360.948L80.7979 361.104L79.8872 361.13L79.0026 361.104L78.326 360.896L77.7276 360.245L77.2592 358.917L77.1552 358.631L76.5307 358.422L76.1664 357.824L75.9062 356.964L76.1925 356.209L76.8689 355.975L77.4154 356.235L77.6756 356.808L77.9878 356.756L78.0919 356.626L77.9878 356.027L77.9618 355.272L78.1179 354.231L78.1118 353.636L78.5862 352.877L79.4188 352.278L80.8759 351.653L82.4891 351.888L83.8941 352.903L84.5446 353.944L84.9609 354.699L85.065 356.574L84.7527 358.188L84.1804 359.62L83.6339 360.375" fill="#F0D6B7"/>
<path fill-rule="evenodd" clip-rule="evenodd" d="M82.3598 365.296L78.6391 365.452V366.077L78.9513 368.264L78.7952 368.447L76.1933 367.561L76.0111 367.249L75.7509 364.307L75.1526 362.537L75.0225 362.12L77.1039 360.688L77.7545 360.428L78.3268 361.131L78.8212 361.573L79.3936 361.756L79.6538 361.834L79.966 363.187L80.2002 363.474L80.7987 363.266L80.3823 364.073L82.646 365.14L82.3598 365.296Z" fill="#335061"/>
<path fill-rule="evenodd" clip-rule="evenodd" d="M76.192 356.21L76.8685 355.976L77.4149 356.237L77.6751 356.809L77.9873 356.757L78.0654 356.445L77.9093 355.846L78.0654 354.414L77.9353 353.633L78.4036 353.086L79.4183 352.279L79.1321 351.889L77.7011 352.592L77.1026 353.06L76.7644 353.789L76.244 354.492L76.0879 355.325L76.192 356.21Z" fill="#6D6B6D"/>
<path fill-rule="evenodd" clip-rule="evenodd" d="M77.2605 353.763C77.2605 353.763 77.6508 352.799 79.2119 352.331C80.7731 351.862 79.29 351.992 79.29 351.992L77.5988 352.643L76.9483 353.294L76.6621 353.815L77.2605 353.763Z" fill="#DCD9D8"/>
<path fill-rule="evenodd" clip-rule="evenodd" d="M76.4791 356.028C76.4791 356.028 75.9327 354.206 78.0143 353.945L77.9362 353.633L76.5052 353.971L76.0889 355.325L76.193 356.21L76.4791 356.028Z" fill="#DCD9D8"/>
<path fill-rule="evenodd" clip-rule="evenodd" d="M77.3115 358.448L77.6522 358.118C77.6522 358.118 77.806 358.136 77.8319 358.318C77.8579 358.501 77.936 360.141 79.0548 361.026C79.1568 361.107 78.2222 360.896 78.2222 360.896L77.3896 359.594" fill="#F7E4CD"/>
<path fill-rule="evenodd" clip-rule="evenodd" d="M82.0999 357.955C82.0999 357.955 82.1606 357.165 82.3732 357.226C82.5859 357.287 82.5859 357.499 82.5859 357.499C82.5859 357.499 82.0695 357.834 82.0999 357.955Z" fill="#F7E4CD"/>
<path d="M84.2591 355.064C84.2591 355.064 83.8298 355.155 83.7903 355.534C83.7507 355.912 84.2591 355.612 84.3372 355.586" fill="#F7E4CD"/>
<path d="M81.1099 355.09C81.1099 355.09 80.5371 355.168 80.5371 355.533C80.5371 355.897 81.188 355.871 81.3703 355.715" fill="#F7E4CD"/>
<path fill-rule="evenodd" clip-rule="evenodd" d="M77.5721 356.783C77.5721 356.783 76.5833 356.185 76.4792 356.757C76.3752 357.33 76.141 357.747 76.6354 358.345L76.2971 358.241L75.9849 357.434L75.8809 356.653L76.4792 356.028L77.1558 356.08L77.546 356.393L77.5721 356.783Z" fill="#F7E4CD"/>
<path fill-rule="evenodd" clip-rule="evenodd" d="M78.0401 355.142C78.0401 355.142 78.4824 352.851 80.7201 352.409C82.5623 352.044 83.5301 352.487 83.8944 352.903C83.8944 352.903 82.2552 350.951 80.694 351.55C79.1329 352.148 77.9881 353.242 78.0141 353.945C78.0584 355.142 78.0401 355.142 78.0401 355.142Z" fill="#F7E4CD"/>
<path fill-rule="evenodd" clip-rule="evenodd" d="M84.0771 353.164C84.0771 353.164 83.322 353.138 83.2959 353.816C83.2959 353.816 83.2958 353.92 83.3479 354.024C83.3479 354.024 83.9469 353.347 84.3115 353.711" fill="#F7E4CD"/>
<path fill-rule="evenodd" clip-rule="evenodd" d="M80.7728 354.094C80.7728 354.094 80.6429 353.054 79.7574 353.659C79.1849 354.049 79.237 354.596 79.341 354.7C79.4451 354.804 79.4168 355.014 79.496 354.87C79.5752 354.726 79.5492 354.257 79.8355 354.127C80.1217 353.997 80.591 353.852 80.7728 354.094Z" fill="#F7E4CD"/>
<path fill-rule="evenodd" clip-rule="evenodd" d="M78.3268 361.131L75.8811 362.225C75.8811 362.225 76.8958 366.26 76.3754 367.51L76.0111 367.38L75.9851 365.844L75.3087 362.928L75.0225 362.121L77.5723 360.402L78.3268 361.131Z" fill="#49728B"/>
<path fill-rule="evenodd" clip-rule="evenodd" d="M78.5784 363.362L78.9254 363.786V365.348H78.509C78.509 365.348 78.457 364.255 78.457 364.124C78.457 363.994 78.509 363.526 78.509 363.526" fill="#49728B"/>
<path fill-rule="evenodd" clip-rule="evenodd" d="M78.5878 365.583L77.416 365.635L77.7546 365.87L78.5878 366" fill="#49728B"/>
<path fill-rule="evenodd" clip-rule="evenodd" d="M82.5938 365.323L83.5564 365.297L83.7906 367.692L82.8019 367.822L82.5938 365.323Z" fill="#335061"/>
<path fill-rule="evenodd" clip-rule="evenodd" d="M82.8535 365.322L84.3106 365.244C84.3106 365.244 84.909 363.734 84.909 363.656C84.909 363.578 85.4294 361.469 85.4294 361.469L84.2585 360.245L84.0244 360.037L83.3999 360.662V363.083L82.8535 365.322Z" fill="#335061"/>
<path fill-rule="evenodd" clip-rule="evenodd" d="M83.5051 365.14L82.5938 365.322L82.7239 366.052C83.0624 366.208 83.6353 365.791 83.6353 365.791" fill="#49728B"/>
<path fill-rule="evenodd" clip-rule="evenodd" d="M83.5303 360.584L85.3516 361.938L85.4036 361.313L84.0246 360.037L83.5303 360.584Z" fill="#49728B"/>
<path fill-rule="evenodd" clip-rule="evenodd" d="M79.4896 370.451L78.9509 368.264L78.683 366.65L78.6387 365.452L81.0768 365.323L82.5936 365.322L82.4557 368.056L82.6899 370.165L82.6639 370.556L80.6865 370.712L79.4896 370.451Z" fill="white"/>
<path fill-rule="evenodd" clip-rule="evenodd" d="M82.255 365.296C82.255 365.296 82.125 368.004 82.5153 369.93C82.5153 369.93 81.7347 370.425 80.5898 370.555L82.7755 370.477L83.0356 370.321L82.7234 366.051L82.6453 365.14" fill="#DCD9D8"/>
<path fill-rule="evenodd" clip-rule="evenodd" d="M83.8351 367.484L84.8499 367.197L86.7752 367.093L87.0615 366.208L86.5411 364.672L85.9427 364.594L85.1101 364.854L84.3112 365.244L83.8871 365.167L83.5566 365.296" fill="white"/>
<path fill-rule="evenodd" clip-rule="evenodd" d="M83.8164 366.963C83.8164 366.963 84.4928 366.65 84.597 366.676L84.3108 365.244L84.649 365.114C84.649 365.114 84.8832 366.468 84.8832 366.624C84.8832 366.624 86.3402 366.702 86.4703 366.702C86.4703 366.702 86.7826 366.104 86.7045 365.479L86.9908 366.312L87.0168 366.78L86.6005 367.405L86.1321 367.509L85.3516 367.483L85.0914 367.145L84.1807 367.275L83.8945 367.379" fill="#DCD9D8"/>
<path d="M82.7939 365.114L82.2215 363.656L81.623 362.797C81.623 362.797 81.7531 362.433 81.9353 362.433C82.1174 362.433 82.5337 362.433 82.5337 362.433L83.1061 362.641L83.0541 363.604L82.7939 365.114Z" fill="white"/>
<path fill-rule="evenodd" clip-rule="evenodd" d="M82.9061 364.619C82.9061 364.619 82.1775 363.213 82.1775 363.005C82.1775 363.005 82.3075 362.692 82.4897 362.77C82.6719 362.849 83.0622 363.057 83.0622 363.057V362.562L82.1775 362.38L81.5791 362.458L82.5938 364.853L82.8019 364.879" fill="#DCD9D8"/>
<path d="M79.7238 361.183L79.0028 361.105L78.3262 360.896V361.131L78.6568 361.496L79.6978 361.964" fill="white"/>
<path fill-rule="evenodd" clip-rule="evenodd" d="M78.5605 361.261C78.5605 361.261 79.3678 361.6 79.6282 361.521L79.6541 361.834L78.9251 361.678L78.4824 361.365L78.5605 361.261Z" fill="#DCD9D8"/>
<path fill-rule="evenodd" clip-rule="evenodd" d="M83.8322 362.521C83.3906 362.508 82.9916 362.456 82.6423 362.357C82.6661 362.214 82.6216 362.073 82.6573 361.97C82.7547 361.9 82.9179 361.901 83.065 361.884C82.9378 361.822 82.759 361.797 82.6121 361.833C82.6087 361.734 82.5641 361.672 82.5371 361.594C82.7854 361.506 83.3715 360.924 83.7012 361.117C83.8583 361.209 83.925 361.731 83.9372 361.986C83.9473 362.197 83.9181 362.409 83.8322 362.521Z" fill="#D33833"/>
<path d="M83.8322 362.521C83.3906 362.508 82.9916 362.456 82.6423 362.357C82.6661 362.214 82.6216 362.073 82.6573 361.97C82.7547 361.9 82.9179 361.901 83.065 361.884C82.9378 361.822 82.759 361.797 82.6121 361.833C82.6087 361.734 82.5641 361.672 82.5371 361.594C82.7854 361.506 83.3715 360.924 83.7012 361.117C83.8583 361.209 83.925 361.731 83.9372 361.986C83.9473 362.197 83.9181 362.409 83.8322 362.521Z" stroke="#D33833" stroke-width="1.07425"/>
<path fill-rule="evenodd" clip-rule="evenodd" d="M81.7209 361.799C81.7197 361.832 81.7183 361.866 81.717 361.899C81.5791 361.99 81.3566 361.989 81.2053 362.065C81.4283 362.075 81.6039 362.129 81.7558 362.204C81.7524 362.289 81.7492 362.373 81.7459 362.457C81.4933 362.63 81.2624 362.888 80.965 363.05C80.8243 363.127 80.3307 363.324 80.181 363.289C80.0963 363.27 80.0887 363.165 80.0549 363.065C79.9828 362.853 79.8167 362.515 79.8022 362.196C79.7838 361.793 79.7431 361.116 80.1776 361.199C80.5282 361.266 80.936 361.428 81.2074 361.576C81.3733 361.667 81.4692 361.779 81.7209 361.799Z" fill="#D33833"/>
<path d="M81.7209 361.799C81.7197 361.832 81.7183 361.866 81.717 361.899C81.5791 361.99 81.3566 361.989 81.2053 362.065C81.4283 362.075 81.6039 362.129 81.7558 362.204C81.7524 362.289 81.7492 362.373 81.7459 362.457C81.4933 362.63 81.2624 362.888 80.965 363.05C80.8243 363.127 80.3307 363.324 80.181 363.289C80.0963 363.27 80.0887 363.165 80.0549 363.065C79.9828 362.853 79.8167 362.515 79.8022 362.196C79.7838 361.793 79.7431 361.116 80.1776 361.199C80.5282 361.266 80.936 361.428 81.2074 361.576C81.3733 361.667 81.4692 361.779 81.7209 361.799Z" stroke="#D33833" stroke-width="1.07425"/>
<path fill-rule="evenodd" clip-rule="evenodd" d="M81.9721 362.281C81.9335 362.061 81.8889 361.998 81.9062 361.806C82.4927 361.415 82.6028 362.478 81.9721 362.281Z" fill="#D33833"/>
<path d="M81.9721 362.281C81.9335 362.061 81.8889 361.998 81.9062 361.806C82.4927 361.415 82.6028 362.478 81.9721 362.281Z" stroke="#D33833" stroke-width="1.07425"/>
<path fill-rule="evenodd" clip-rule="evenodd" d="M82.8204 362.459C82.8204 362.459 82.6382 362.198 82.7683 362.12C82.8985 362.042 83.0286 362.12 83.1067 361.99C83.1848 361.86 83.1067 361.782 83.1327 361.626C83.1587 361.469 83.289 361.443 83.419 361.417C83.5491 361.391 83.9135 361.339 83.9655 361.469L83.8094 361.001L83.4971 360.896L82.5081 361.469L82.4561 361.756V362.329" fill="#EF3D3A"/>
<path fill-rule="evenodd" clip-rule="evenodd" d="M80.089 363.318C80.0578 362.912 80.0247 362.506 79.9879 362.1C79.9328 361.494 80.1334 361.6 80.6584 361.6C80.7386 361.6 81.1522 361.696 81.1818 361.756C81.3237 362.046 80.9445 361.982 81.3452 362.201C81.6835 362.385 82.2812 362.088 82.1445 361.678C82.068 361.587 81.7459 361.65 81.6305 361.59C81.4272 361.484 81.224 361.379 81.0207 361.273C80.762 361.139 80.1643 360.943 79.8886 361.131C79.1899 361.607 79.9327 362.794 80.1819 363.29" fill="#EF3D3A"/>
<path fill-rule="evenodd" clip-rule="evenodd" d="M80.7726 354.093C80.0633 353.928 79.7108 354.39 79.4958 354.87C79.3038 354.823 79.3802 354.562 79.4287 354.429C79.5557 354.08 80.0674 353.615 80.4854 353.678C80.6653 353.705 80.9088 353.869 80.7726 354.093Z" fill="#231F20"/>
<path fill-rule="evenodd" clip-rule="evenodd" d="M84.2273 354.902C84.2384 354.903 84.2497 354.903 84.2609 354.904C84.4212 355.237 84.5599 355.59 84.7621 355.884C84.6267 356.2 83.7364 356.479 83.7502 355.912C83.9427 355.828 84.275 355.895 84.4457 355.787C84.347 355.516 84.2046 355.286 84.2273 354.902Z" fill="#231F20"/>
<path fill-rule="evenodd" clip-rule="evenodd" d="M81.1357 354.91C81.2878 355.189 81.3373 355.482 81.5535 355.693C81.6508 355.788 81.8402 355.904 81.7463 356.168C81.7244 356.23 81.5641 356.369 81.4716 356.396C81.1336 356.496 80.346 356.417 80.6128 355.995C80.8923 356.008 81.268 356.177 81.4769 355.974C81.3164 355.717 81.0304 355.209 81.1357 354.91Z" fill="#231F20"/>
<path fill-rule="evenodd" clip-rule="evenodd" d="M84.1017 357.745C83.5929 358.072 83.0256 358.428 82.1919 358.345C82.0138 358.19 81.9459 357.846 82.1189 357.618C82.209 357.773 82.1524 358.058 82.4034 358.101C82.8765 358.182 83.427 357.811 83.7673 357.682C83.9783 357.326 83.7491 357.195 83.559 356.966C83.1699 356.496 82.6479 355.915 82.6669 355.212C82.8242 355.098 82.8378 355.386 82.8603 355.439C83.0635 355.915 83.5749 356.523 83.948 356.93C84.0397 357.031 84.1906 357.127 84.2074 357.193C84.2557 357.386 84.0814 357.617 84.1017 357.745Z" fill="#231F20"/>
<path fill-rule="evenodd" clip-rule="evenodd" d="M77.3943 357.402C77.2348 357.311 77.1967 356.909 77.0094 356.898C76.7416 356.882 76.7904 357.419 76.7915 357.733C76.6072 357.566 76.5748 357.05 76.7102 356.785C76.5559 356.709 76.487 356.869 76.4014 356.925C76.5114 356.125 77.5704 356.554 77.3943 357.402Z" fill="#231F20"/>
<path fill-rule="evenodd" clip-rule="evenodd" d="M84.4244 358.078C84.1876 358.529 83.8525 359.026 83.1574 359.041C83.1432 358.895 83.1324 358.673 83.1582 358.585C83.6895 358.534 84.0176 358.264 84.4244 358.078Z" fill="#231F20"/>
<path fill-rule="evenodd" clip-rule="evenodd" d="M81.0957 358.37C81.5389 358.603 82.3535 358.628 82.956 358.611C82.9883 358.743 82.9875 358.906 82.9888 359.067C82.2144 359.106 81.2988 358.914 81.0957 358.37Z" fill="#231F20"/>
<path fill-rule="evenodd" clip-rule="evenodd" d="M81.0114 358.806C81.3179 359.576 82.3714 359.487 83.2598 359.466C83.2207 359.566 83.1359 359.684 83.0305 359.727C82.7459 359.842 81.9607 359.93 81.5655 359.72C81.3148 359.587 81.1538 359.286 81.0165 359.109C80.9502 359.024 80.6199 358.806 81.0114 358.806Z" fill="#231F20"/>
<path fill-rule="evenodd" clip-rule="evenodd" d="M84.0632 363.053C83.7035 363.669 83.3594 364.302 82.9326 364.846C83.1115 364.32 83.1881 363.439 83.2151 362.767C83.5894 362.592 83.9099 362.807 84.0632 363.053Z" fill="#81B0C4"/>
<path fill-rule="evenodd" clip-rule="evenodd" d="M86.0003 365.269C85.5973 365.349 85.3141 365.741 84.9209 365.716C85.137 365.411 85.5156 365.283 86.0003 365.269Z" fill="#231F20"/>
<path fill-rule="evenodd" clip-rule="evenodd" d="M86.1784 365.9C85.8499 365.934 85.464 365.987 85.1309 365.96C85.2886 365.719 85.8963 365.802 86.1784 365.9Z" fill="#231F20"/>
<path fill-rule="evenodd" clip-rule="evenodd" d="M86.2923 366.442C85.9231 366.45 85.4642 366.443 85.1133 366.413C85.3209 366.19 86.0529 366.331 86.2923 366.442Z" fill="#231F20"/>
<path fill-rule="evenodd" clip-rule="evenodd" d="M83.3706 367.93C83.4235 368.394 83.6072 368.863 83.5842 369.371C83.3802 369.44 83.263 369.5 82.9897 369.5C82.9704 369.068 82.9127 368.408 82.9299 367.997C83.0644 368.006 83.2626 367.901 83.3706 367.93Z" fill="#DCD9D8"/>
<path fill-rule="evenodd" clip-rule="evenodd" d="M82.7753 361.099C82.59 361.22 82.4322 361.371 82.2543 361.5C81.8597 361.519 81.6444 361.473 81.3545 361.246C81.3593 361.228 81.3884 361.236 81.3895 361.213C81.8118 361.402 82.3488 361.137 82.7753 361.099Z" fill="#F0D6B7"/>
<path fill-rule="evenodd" clip-rule="evenodd" d="M80.5586 363.979C80.6746 363.476 81.1292 363.216 81.5421 362.938C81.9682 363.48 82.2273 364.176 82.5127 364.847C81.8385 364.644 81.1495 364.314 80.5586 363.979Z" fill="#81B0C4"/>
<path fill-rule="evenodd" clip-rule="evenodd" d="M82.9297 367.997C82.9125 368.408 82.9701 369.068 82.9894 369.499C83.2627 369.5 83.3799 369.44 83.5838 369.371C83.6069 368.863 83.4232 368.393 83.3703 367.93C83.2623 367.901 83.0641 368.006 82.9297 367.997ZM78.6745 365.658C78.8547 367.316 79.1157 368.709 79.5944 370.177C80.6569 370.5 81.9377 370.528 82.8768 370.237C82.7044 369.408 82.7797 368.399 82.6789 367.515C82.603 366.851 82.6417 366.182 82.5376 365.504C81.3996 365.267 79.7912 365.449 78.6745 365.658ZM82.8066 365.515C82.797 366.227 82.8384 366.929 82.8928 367.642C83.166 367.601 83.3514 367.573 83.6052 367.518C83.5228 366.831 83.5329 366.059 83.365 365.452C83.171 365.454 83.0001 365.45 82.8066 365.515ZM84.1925 365.4C84.0629 365.37 83.9119 365.399 83.788 365.401C83.8463 365.982 83.9875 366.622 84.0373 367.231C84.2322 367.237 84.3363 367.145 84.4966 367.114C84.5052 366.58 84.4499 365.843 84.1925 365.4ZM86.291 367.318C86.6973 367.22 86.9528 366.722 86.8391 366.21C86.7629 365.867 86.6271 365.22 86.4817 365C86.3743 364.837 86.0831 364.624 85.8505 364.773C85.4723 365.016 84.8059 365.086 84.53 365.379C84.6684 365.84 84.7113 366.473 84.7683 367.057C85.2409 367.087 85.8223 366.927 86.2154 367.096C85.941 367.185 85.585 367.186 85.3479 367.316C85.5416 367.409 85.9952 367.39 86.291 367.318ZM82.5128 364.846C82.2274 364.175 81.9683 363.479 81.5422 362.938C81.1293 363.215 80.6747 363.475 80.5587 363.978C81.1496 364.313 81.8385 364.643 82.5128 364.846ZM83.2162 362.767C83.1892 363.438 83.1127 364.319 82.9338 364.846C83.3605 364.302 83.7046 363.669 84.0644 363.052C83.911 362.806 83.5905 362.591 83.2162 362.767ZM82.4188 362.483C82.2572 362.466 82.1199 362.669 81.9097 362.581C81.8616 362.634 81.8178 362.692 81.7687 362.744C82.233 363.304 82.444 364.098 82.8026 364.756C82.995 364.124 82.9728 363.432 83.0152 362.742C82.7508 362.759 82.6041 362.503 82.4188 362.483ZM81.9061 361.806C81.8888 361.998 81.9334 362.06 81.9719 362.28C82.6019 362.477 82.4919 361.415 81.9061 361.806ZM81.2075 361.576C80.9361 361.428 80.5284 361.266 80.1778 361.199C79.7432 361.116 79.7839 361.793 79.8024 362.196C79.8168 362.516 79.9829 362.853 80.055 363.066C80.0888 363.165 80.0964 363.27 80.1811 363.289C80.3308 363.324 80.8244 363.127 80.9651 363.05C81.2626 362.888 81.4934 362.63 81.746 362.457C81.7493 362.373 81.7525 362.289 81.7559 362.204C81.604 362.129 81.4284 362.075 81.2054 362.065C81.3567 361.989 81.5792 361.99 81.7171 361.9C81.7184 361.866 81.7198 361.832 81.721 361.799C81.4694 361.779 81.3734 361.667 81.2075 361.576ZM78.615 361.105C78.3897 361.334 79.2468 361.646 79.5197 361.663C79.5182 361.518 79.6022 361.381 79.5853 361.278C79.2611 361.221 78.8352 361.258 78.615 361.105ZM81.39 361.213C81.389 361.235 81.3598 361.227 81.3551 361.245C81.6449 361.472 81.8602 361.519 82.2547 361.499C82.4326 361.37 82.5903 361.219 82.7755 361.098C82.3491 361.136 81.8123 361.401 81.39 361.213ZM83.9372 361.986C83.925 361.731 83.8583 361.208 83.7012 361.117C83.3716 360.924 82.7856 361.506 82.5374 361.594C82.5644 361.672 82.609 361.734 82.6124 361.833C82.7592 361.797 82.938 361.822 83.0652 361.884C82.9181 361.901 82.7549 361.9 82.6576 361.97C82.6219 362.073 82.6663 362.214 82.6426 362.357C82.9918 362.455 83.3907 362.508 83.8322 362.521C83.9181 362.409 83.9473 362.196 83.9372 361.986ZM78.2357 361.327C78.165 361.276 77.6864 360.653 77.6209 360.679C76.7549 361.021 75.9452 361.611 75.2217 362.17C75.9115 363.652 76.19 365.466 76.2392 367.215C77.0295 367.585 77.7236 368.118 78.796 368.174C78.6719 367.295 78.5586 366.512 78.4882 365.685C78.2187 365.571 77.8322 365.69 77.58 365.649C77.5779 365.345 77.9651 365.516 77.9974 365.312C78.0217 365.157 77.7843 365.145 77.8616 364.902C78.0587 364.973 78.1623 365.132 78.3725 365.191C78.5646 364.771 78.3698 364.027 78.3975 363.675C78.4027 363.609 78.4304 363.31 78.5781 363.362C78.7089 363.409 78.5707 364.159 78.585 364.492C78.598 364.798 78.548 365.095 78.6721 365.287C79.7083 365.146 80.7613 365.055 81.8825 365.024C81.6358 364.918 81.3428 364.818 81.0216 364.637C80.8474 364.538 80.2984 364.334 80.2481 364.168C80.168 363.905 80.4585 363.764 80.5082 363.538C79.9852 363.824 79.8831 363.265 79.7594 362.868C79.6473 362.51 79.5834 362.242 79.5559 362.035C79.1053 361.82 78.6236 361.602 78.2357 361.327ZM83.4796 360.754C84.201 360.404 84.3311 362.063 84.0483 362.597C84.092 362.756 84.2423 362.817 84.3037 362.96C83.901 363.682 83.4539 364.356 83.043 365.069C83.3487 364.879 83.7851 365.035 84.1448 364.892C84.2762 364.84 84.3713 364.539 84.4709 364.298C84.7446 363.636 85.032 362.8 85.1599 362.168C85.1888 362.024 85.2674 361.71 85.2498 361.582C85.2184 361.352 84.907 361.182 84.7486 361.04C84.4568 360.777 84.2731 360.547 83.9687 360.301C83.8453 360.484 83.5805 360.606 83.4796 360.754ZM76.5857 354.352C76.2419 354.731 76.3139 355.44 76.3555 355.944C76.9769 355.553 77.8017 355.975 77.7939 356.641C78.0906 356.633 77.9047 356.27 77.8511 356.036C77.6757 355.273 78.1465 354.443 77.8724 353.745C77.3402 353.785 76.9029 354.003 76.5857 354.352ZM79.0456 352.155C78.2673 352.376 77.2698 352.942 76.95 353.642C77.1977 353.606 77.3696 353.481 77.6139 353.465C77.7062 353.459 77.8271 353.504 77.9333 353.478C78.1447 353.425 78.3232 352.951 78.4827 352.774C78.6382 352.602 78.8251 352.528 78.953 352.371C79.0352 352.331 79.1567 352.334 79.1614 352.21C79.1258 352.172 79.0883 352.143 79.0456 352.155ZM83.097 352.363C82.2892 351.907 80.9218 351.564 80.0625 351.993C79.3692 352.339 78.4319 352.911 78.1124 353.636C78.4109 354.336 78.024 354.977 77.9993 355.688C77.9861 356.066 78.1772 356.396 78.1918 356.808C78.0897 356.976 77.7776 356.997 77.5616 356.986C77.4889 356.621 77.3615 356.212 76.9868 356.171C76.4566 356.113 76.0689 356.552 76.0448 357.011C76.0163 357.551 76.459 358.445 77.0865 358.383C77.3289 358.359 77.3885 358.116 77.6526 358.118C77.7957 358.404 77.4318 358.494 77.3943 358.698C77.3846 358.751 77.4245 358.957 77.4477 359.054C77.5617 359.525 77.8158 360.135 78.0659 360.494C78.3833 360.949 79.0069 361.018 79.6778 361.062C79.7976 360.804 80.2391 360.825 80.5267 360.893C80.182 360.756 79.8615 360.425 79.5959 360.132C79.2909 359.795 78.9818 359.435 78.9662 358.995C79.5427 359.795 80.019 360.494 81.0673 360.846C81.8605 361.112 82.7869 360.724 83.3963 360.296C83.6492 360.118 83.8002 359.836 83.98 359.577C84.6526 358.609 84.9664 357.227 84.8975 355.888C84.869 355.335 84.8703 354.785 84.6851 354.413C84.4915 354.025 83.8367 353.677 83.4535 354.029C83.3824 353.651 83.7722 353.417 84.23 353.553C83.9035 353.132 83.561 352.625 83.097 352.363ZM84.602 364.826C85.2333 364.512 86.4127 363.981 86.8085 364.827C86.9545 365.139 87.1258 365.666 87.2015 365.988C87.3083 366.443 87.0856 367.398 86.6189 367.55C86.2067 367.685 85.7257 367.677 85.2292 367.577C85.1707 367.528 85.1056 367.443 85.0601 367.355C84.7056 367.341 84.3736 367.374 84.0935 367.52C84.1201 367.782 83.9427 367.824 83.7765 367.878C83.6532 368.367 84.0231 369.006 83.9345 369.452C83.8714 369.769 83.4808 369.819 83.1937 369.878C83.1843 370.055 83.2063 370.202 83.2259 370.351C83.1602 370.593 82.8658 370.731 82.5868 370.765C81.6689 370.875 80.2753 370.925 79.3924 370.607C79.146 370.003 78.952 369.267 78.7467 368.577C77.8857 368.669 77.1893 368.205 76.5327 367.901C76.3054 367.796 75.991 367.738 75.9061 367.556C75.8237 367.381 75.8574 367.045 75.837 366.728C75.785 365.917 75.7405 365.136 75.5266 364.306C75.4305 363.933 75.2631 363.605 75.1464 363.246C75.0384 362.913 74.8498 362.502 74.8007 362.171C74.7277 361.679 75.1903 361.652 75.486 361.439C75.9432 361.11 76.3021 360.927 76.7973 360.63C76.944 360.542 77.3862 360.319 77.4366 360.217C77.5366 360.013 77.2649 359.726 77.1923 359.567C77.0774 359.315 77.0175 359.1 77.001 358.852C76.5856 358.786 76.2707 358.539 76.0805 358.26C75.7659 357.798 75.5477 356.944 75.8199 356.294C75.8413 356.243 75.9477 356.143 75.9634 356.064C75.9944 355.909 75.9051 355.704 75.8996 355.539C75.871 354.695 76.0424 353.967 76.6104 353.713C76.841 352.793 77.6664 352.488 78.444 352.031C78.7346 351.86 79.0551 351.751 79.386 351.629C80.5731 351.192 82.3945 351.274 83.3797 352.02C83.7975 352.336 84.4653 353.004 84.7041 353.487C85.335 354.763 85.2901 356.896 84.8489 358.448C84.7896 358.656 84.7035 358.962 84.5834 359.213C84.4997 359.388 84.2394 359.737 84.271 359.892C84.3035 360.051 84.8645 360.477 84.9848 360.594C85.2014 360.803 85.6129 361.08 85.6463 361.344C85.6821 361.625 85.5226 362.009 85.4418 362.28C85.1718 363.184 84.9082 364.02 84.602 364.826Z" fill="#231F20"/>
<path fill-rule="evenodd" clip-rule="evenodd" d="M80.3907 358.567C80.425 358.522 80.6135 358.452 80.8772 358.579C80.8772 358.579 80.5646 358.631 80.5907 359.153L80.4604 359.127C80.4604 359.127 80.3258 358.654 80.3907 358.567Z" fill="#F7E4CD"/>
<path fill-rule="evenodd" clip-rule="evenodd" d="M82.6708 363.045C82.6708 363.124 82.6068 363.188 82.5277 363.188C82.4488 363.188 82.3848 363.124 82.3848 363.045C82.3848 362.966 82.4488 362.901 82.5277 362.901C82.6068 362.901 82.6708 362.966 82.6708 363.045Z" fill="#1D1919"/>
<path fill-rule="evenodd" clip-rule="evenodd" d="M82.8154 363.709C82.8154 363.788 82.7513 363.852 82.6723 363.852C82.5934 363.852 82.5293 363.788 82.5293 363.709C82.5293 363.63 82.5934 363.565 82.6723 363.565C82.7513 363.565 82.8154 363.63 82.8154 363.709Z" fill="#1D1919"/>
</g>
<rect x="71.2855" y="335.295" width="38.592" height="38.592" rx="19.296" transform="rotate(25.184 71.2855 335.295)" stroke="#00D6FF" stroke-opacity="0.24" stroke-width="1.48431"/>
</g>
<g filter="url(#filter6_d_5854_16207)">
<rect x="115.966" y="291.539" width="40.0764" height="40.0764" rx="20.0382" transform="rotate(25.184 115.966 291.539)" fill="#FDFDFD"/>
<rect x="116.322" y="292.526" width="38.592" height="38.592" rx="19.296" transform="rotate(25.184 116.322 292.526)" stroke="#00D6FF" stroke-opacity="0.24" stroke-width="1.48431"/>
<path d="M125.132 327.197L128.722 316.136H121.547L125.132 327.197Z" fill="#E24329"/>
<path d="M116.517 316.136L115.424 319.496C115.325 319.801 115.432 320.138 115.693 320.328L125.132 327.197L116.517 316.136Z" fill="#FCA326"/>
<path d="M116.518 316.136H121.546L119.382 309.474C119.271 309.134 118.789 309.134 118.674 309.474L116.518 316.136Z" fill="#E24329"/>
<path d="M133.75 316.136L134.84 319.496C134.939 319.801 134.832 320.138 134.571 320.328L125.131 327.197L133.75 316.136Z" fill="#FCA326"/>
<path d="M133.751 316.136H128.722L130.882 309.474C130.993 309.134 131.476 309.134 131.59 309.474L133.751 316.136Z" fill="#E24329"/>
<path d="M125.131 327.197L128.721 316.136H133.75L125.131 327.197Z" fill="#FC6D26"/>
<path d="M125.132 327.197L116.518 316.136H121.546L125.132 327.197Z" fill="#FC6D26"/>
</g>
<g filter="url(#filter7_d_5854_16207)">
<g clip-path="url(#clip5_5854_16207)">
<rect x="255.93" y="292.514" width="40.0764" height="40.0764" rx="20.0382" transform="rotate(25.184 255.93 292.514)" fill="#FDFDFD"/>
<g clip-path="url(#clip6_5854_16207)">
<path d="M259.96 309.582C262.179 309.582 263.977 311.38 263.977 313.598C263.977 315.778 262.24 317.551 260.074 317.611C260.074 317.796 260.082 318.144 260.186 318.355C260.331 318.646 261.2 319.19 262.051 319.19H262.358C262.55 317.82 263.726 316.767 265.148 316.767C266.565 316.767 267.737 317.812 267.937 319.173H269.52C269.72 317.812 270.892 316.767 272.309 316.767C273.866 316.767 275.128 318.028 275.128 319.585C275.128 321.141 273.866 322.403 272.309 322.403C270.892 322.403 269.72 321.358 269.52 319.997H267.937C267.737 321.358 266.565 322.403 265.148 322.403C263.734 322.403 262.563 321.362 262.361 320.005L262.022 320.015C261.465 320.01 260.876 319.862 260.404 319.54C260.275 319.453 260.148 319.361 260.015 319.274L260.015 319.457C260.015 319.516 260.004 320.405 260.003 321.393L260.003 321.602C260.003 322.249 260.009 322.916 260.024 323.403C260.057 324.471 260.926 325.332 261.884 325.534C262.009 325.56 262.223 325.564 262.358 325.552C262.55 324.183 263.726 323.13 265.148 323.13C266.705 323.13 267.967 324.392 267.967 325.948C267.967 327.505 266.705 328.766 265.148 328.766C263.742 328.766 262.576 327.736 262.364 326.39H262.12C260.289 326.29 259.151 324.61 259.17 323.248C259.195 321.534 259.177 319.819 259.176 318.104V317.537C257.333 317.172 255.943 315.548 255.943 313.598C255.943 311.38 257.742 309.582 259.96 309.582ZM265.148 323.954C264.047 323.954 263.153 324.847 263.153 325.948C263.153 327.05 264.047 327.943 265.148 327.943C266.25 327.943 267.143 327.05 267.143 325.948C267.143 324.847 266.25 323.954 265.148 323.954ZM265.148 317.591C264.047 317.591 263.153 318.483 263.153 319.585C263.153 320.686 264.047 321.579 265.148 321.579C266.25 321.579 267.143 320.686 267.143 319.585C267.143 318.483 266.25 317.591 265.148 317.591ZM272.309 317.591C271.207 317.591 270.314 318.483 270.314 319.585C270.314 320.686 271.207 321.579 272.309 321.579C273.41 321.579 274.304 320.686 274.304 319.585C274.304 318.483 273.41 317.591 272.309 317.591ZM273.445 318.745C273.602 318.902 273.606 319.153 273.458 319.315L273.446 319.328L272.223 320.553C272.068 320.709 271.818 320.714 271.656 320.568L271.643 320.555L271.044 319.966C270.882 319.807 270.88 319.546 271.04 319.384C271.195 319.226 271.447 319.22 271.61 319.367L271.622 319.379L271.929 319.681L272.862 318.746C273.023 318.585 273.284 318.585 273.445 318.745ZM266.251 318.739C266.408 318.896 266.413 319.147 266.264 319.309L266.252 319.322L265.03 320.547C264.874 320.703 264.624 320.708 264.462 320.561L264.449 320.549L263.851 319.96C263.689 319.801 263.687 319.54 263.846 319.378C264.002 319.22 264.254 319.214 264.416 319.361L264.429 319.373L264.736 319.675L265.669 318.74C265.83 318.579 266.09 318.579 266.251 318.739ZM259.96 310.406C258.197 310.406 256.767 311.835 256.767 313.598C256.767 315.361 258.197 316.79 259.96 316.79C261.724 316.79 263.153 315.361 263.153 313.598C263.153 311.835 261.724 310.406 259.96 310.406ZM259.628 311.69C260.3 312.094 260.963 312.511 261.616 312.942C262.164 313.304 262.163 313.959 261.609 314.321C260.943 314.756 260.267 315.174 259.581 315.573C259.022 315.898 258.397 315.524 258.382 314.873C258.372 314.453 258.38 314.033 258.38 313.613C258.379 313.204 258.371 312.795 258.381 312.386C258.398 311.693 259.036 311.332 259.628 311.69ZM259.185 312.355V312.645C259.185 312.788 259.185 312.93 259.185 313.07L259.185 313.348V313.759C259.185 314.076 259.185 314.388 259.186 314.7C259.186 314.847 259.263 314.841 259.361 314.779C259.931 314.426 260.502 314.073 261.072 313.721C261.166 313.663 261.169 313.602 261.077 313.544C260.466 313.159 259.854 312.775 259.185 312.355Z" fill="#4A7EBF"/>
<path d="M265.928 326.359C266.155 326.359 266.34 326.175 266.34 325.947C266.34 325.72 266.155 325.535 265.928 325.535C265.7 325.535 265.516 325.72 265.516 325.947C265.516 326.175 265.7 326.359 265.928 326.359Z" fill="#85B3DF"/>
<path d="M264.35 326.359C264.578 326.359 264.762 326.175 264.762 325.947C264.762 325.72 264.578 325.535 264.35 325.535C264.123 325.535 263.938 325.72 263.938 325.947C263.938 326.175 264.123 326.359 264.35 326.359Z" fill="#85B3DF"/>
<path d="M272.308 327.943C271.207 327.943 270.314 327.05 270.314 325.948C270.314 324.847 271.207 323.954 272.308 323.954C273.41 323.954 274.303 324.847 274.303 325.948C274.303 327.05 273.41 327.943 272.308 327.943ZM272.308 323.13C270.892 323.13 269.719 324.175 269.52 325.536H269.059C268.858 325.536 268.694 325.721 268.694 325.948C268.694 326.176 268.858 326.36 269.059 326.36H269.52C269.719 327.721 270.892 328.766 272.308 328.766C273.865 328.766 275.127 327.505 275.127 325.948C275.127 324.392 273.865 323.13 272.308 323.13Z" fill="#85B3DF"/>
</g>
</g>
<rect x="256.285" y="293.501" width="38.592" height="38.592" rx="19.296" transform="rotate(25.184 256.285 293.501)" stroke="#00D6FF" stroke-opacity="0.24" stroke-width="1.48431"/>
</g>
<g filter="url(#filter8_d_5854_16207)">
<rect x="301.882" y="334.47" width="40.0764" height="40.0764" rx="20.0382" transform="rotate(25.184 301.882 334.47)" fill="#FDFDFD"/>
<rect x="302.238" y="335.457" width="38.592" height="38.592" rx="19.296" transform="rotate(25.184 302.238 335.457)" stroke="#00D6FF" stroke-opacity="0.24" stroke-width="1.48431"/>
<g clip-path="url(#clip7_5854_16207)">
<path d="M298.902 354.627L306.819 358.56V366.627L298.902 362.593V354.627Z" fill="#30F2A2"/>
<path d="M314.735 354.627L322.652 358.56V366.627L314.735 362.593V354.627Z" fill="#30F2A2"/>
<path d="M314.736 354.627L306.819 358.56V366.627L314.736 362.593V354.627Z" fill="#14CC80"/>
<path d="M322.652 358.66L314.735 362.593V370.66L322.652 366.627V358.66Z" fill="#14CC80"/>
</g>
</g>
<path d="M183.878 336.406C183.074 337.142 182.046 337.51 180.793 337.51C179.244 337.51 178.025 337.013 177.138 336.018C176.252 335.019 175.808 333.65 175.808 331.91C175.808 330.029 176.312 328.579 177.321 327.561C178.198 326.674 179.314 326.231 180.669 326.231C182.482 326.231 183.807 326.825 184.646 328.014C185.109 328.682 185.357 329.352 185.391 330.024H183.14C182.994 329.508 182.806 329.118 182.577 328.855C182.168 328.387 181.561 328.153 180.757 328.153C179.938 328.153 179.292 328.484 178.82 329.147C178.347 329.805 178.111 330.738 178.111 331.947C178.111 333.155 178.359 334.062 178.856 334.666C179.358 335.266 179.994 335.565 180.764 335.565C181.554 335.565 182.155 335.307 182.57 334.79C182.799 334.513 182.989 334.096 183.14 333.54H185.369C185.174 334.715 184.677 335.67 183.878 336.406ZM186.47 326.435H188.707V337.21H186.47V326.435ZM188.404 337.21L192.578 326.106H194.31L190.122 337.21H188.404ZM201.683 336.406C200.879 337.142 199.85 337.51 198.598 337.51C197.048 337.51 195.83 337.013 194.943 336.018C194.056 335.019 193.613 333.65 193.613 331.91C193.613 330.029 194.117 328.579 195.126 327.561C196.003 326.674 197.119 326.231 198.474 326.231C200.286 326.231 201.612 326.825 202.45 328.014C202.913 328.682 203.162 329.352 203.196 330.024H200.944C200.798 329.508 200.611 329.118 200.381 328.855C199.972 328.387 199.365 328.153 198.561 328.153C197.743 328.153 197.097 328.484 196.624 329.147C196.152 329.805 195.915 330.738 195.915 331.947C195.915 333.155 196.164 334.062 196.661 334.666C197.163 335.266 197.799 335.565 198.569 335.565C199.358 335.565 199.96 335.307 200.374 334.79C200.603 334.513 200.793 334.096 200.944 333.54H203.174C202.979 334.715 202.482 335.67 201.683 336.406ZM209.092 337.21H204.45V326.435H209.092C209.759 326.445 210.315 326.523 210.758 326.669C211.514 326.918 212.125 327.373 212.593 328.036C212.968 328.572 213.224 329.152 213.361 329.776C213.497 330.4 213.565 330.994 213.565 331.559C213.565 332.992 213.278 334.206 212.703 335.2C211.923 336.54 210.719 337.21 209.092 337.21ZM210.766 329.184C210.42 328.599 209.735 328.307 208.712 328.307H206.636V335.339H208.712C209.774 335.339 210.515 334.815 210.934 333.767C211.163 333.192 211.277 332.507 211.277 331.713C211.277 330.616 211.107 329.773 210.766 329.184ZM171.308 351.985H168.984V356.21H166.784V345.435H172.069C172.824 345.45 173.404 345.542 173.808 345.713C174.218 345.884 174.564 346.135 174.846 346.466C175.08 346.739 175.265 347.041 175.402 347.372C175.538 347.704 175.607 348.081 175.607 348.505C175.607 349.017 175.477 349.521 175.219 350.019C174.961 350.511 174.534 350.859 173.94 351.064C174.437 351.264 174.788 351.549 174.993 351.919C175.202 352.285 175.307 352.845 175.307 353.6V354.324C175.307 354.816 175.326 355.15 175.365 355.325C175.424 355.603 175.56 355.808 175.775 355.939V356.21H173.297C173.228 355.971 173.18 355.779 173.15 355.632C173.092 355.33 173.06 355.021 173.055 354.704L173.041 353.703C173.031 353.016 172.904 352.557 172.661 352.328C172.422 352.099 171.971 351.985 171.308 351.985ZM172.675 350.026C173.124 349.821 173.348 349.417 173.348 348.812C173.348 348.159 173.131 347.721 172.697 347.497C172.454 347.37 172.088 347.307 171.601 347.307H168.984V350.201H171.535C172.042 350.201 172.422 350.143 172.675 350.026ZM182.043 355.084C182.024 355.109 181.975 355.182 181.897 355.304C181.819 355.425 181.727 355.533 181.619 355.625C181.293 355.918 180.976 356.117 180.669 356.225C180.367 356.332 180.011 356.385 179.602 356.385C178.423 356.385 177.628 355.961 177.219 355.113C176.99 354.646 176.875 353.956 176.875 353.045V348.242H179.01V353.045C179.01 353.498 179.063 353.839 179.171 354.068C179.361 354.473 179.733 354.675 180.289 354.675C181 354.675 181.488 354.387 181.751 353.812C181.887 353.5 181.956 353.089 181.956 352.577V348.242H184.068V356.21H182.043V355.084ZM189.387 349.785C188.68 349.785 188.195 350.084 187.932 350.684C187.795 351 187.727 351.405 187.727 351.897V356.21H185.651V348.257H187.661V349.419C187.929 349.01 188.183 348.715 188.422 348.535C188.851 348.213 189.394 348.052 190.052 348.052C190.875 348.052 191.548 348.269 192.069 348.703C192.596 349.132 192.859 349.846 192.859 350.845V356.21H190.724V351.364C190.724 350.944 190.668 350.623 190.556 350.399C190.351 349.989 189.962 349.785 189.387 349.785ZM198.089 349.785C197.383 349.785 196.898 350.084 196.635 350.684C196.498 351 196.43 351.405 196.43 351.897V356.21H194.354V348.257H196.364V349.419C196.632 349.01 196.886 348.715 197.125 348.535C197.553 348.213 198.097 348.052 198.755 348.052C199.578 348.052 200.251 348.269 200.772 348.703C201.298 349.132 201.562 349.846 201.562 350.845V356.21H199.427V351.364C199.427 350.944 199.371 350.623 199.259 350.399C199.054 349.989 198.664 349.785 198.089 349.785ZM209.862 353.871C209.809 354.344 209.563 354.824 209.124 355.311C208.442 356.086 207.487 356.473 206.259 356.473C205.245 356.473 204.351 356.147 203.576 355.494C202.801 354.841 202.414 353.778 202.414 352.306C202.414 350.927 202.762 349.87 203.459 349.134C204.161 348.398 205.07 348.03 206.186 348.03C206.848 348.03 207.445 348.154 207.976 348.403C208.508 348.652 208.946 349.044 209.292 349.58C209.604 350.053 209.806 350.601 209.899 351.225C209.953 351.59 209.974 352.116 209.965 352.804H204.512C204.541 353.603 204.792 354.163 205.264 354.485C205.552 354.685 205.898 354.785 206.302 354.785C206.731 354.785 207.08 354.663 207.348 354.419C207.494 354.287 207.623 354.105 207.735 353.871H209.862ZM207.801 351.429C207.767 350.879 207.599 350.462 207.297 350.179C206.999 349.892 206.629 349.748 206.186 349.748C205.703 349.748 205.328 349.899 205.06 350.201C204.797 350.503 204.631 350.913 204.563 351.429H207.801ZM214.932 350.165C214.094 350.165 213.531 350.438 213.244 350.983C213.083 351.29 213.002 351.763 213.002 352.402V356.21H210.904V348.242H212.893V349.631C213.214 349.1 213.495 348.737 213.733 348.542C214.123 348.215 214.63 348.052 215.254 348.052C215.293 348.052 215.325 348.055 215.349 348.059C215.378 348.059 215.439 348.062 215.532 348.067V350.201C215.4 350.187 215.283 350.177 215.181 350.172C215.078 350.167 214.996 350.165 214.932 350.165ZM221.8 348.608C222.424 349.007 222.782 349.694 222.875 350.669H220.792C220.762 350.401 220.687 350.189 220.565 350.033C220.336 349.75 219.946 349.609 219.395 349.609C218.942 349.609 218.618 349.68 218.423 349.821C218.233 349.962 218.138 350.128 218.138 350.318C218.138 350.557 218.24 350.73 218.445 350.837C218.65 350.949 219.373 351.142 220.616 351.415C221.445 351.61 222.066 351.904 222.48 352.299C222.889 352.699 223.094 353.198 223.094 353.798C223.094 354.587 222.799 355.233 222.21 355.735C221.625 356.232 220.718 356.48 219.49 356.48C218.238 356.48 217.312 356.217 216.713 355.691C216.118 355.16 215.821 354.485 215.821 353.666H217.933C217.977 354.036 218.072 354.3 218.218 354.456C218.477 354.733 218.954 354.872 219.651 354.872C220.061 354.872 220.385 354.811 220.623 354.69C220.867 354.568 220.989 354.385 220.989 354.141C220.989 353.907 220.891 353.729 220.696 353.608C220.502 353.486 219.778 353.276 218.525 352.979C217.624 352.755 216.988 352.475 216.618 352.138C216.247 351.807 216.062 351.329 216.062 350.706C216.062 349.97 216.35 349.339 216.925 348.812C217.505 348.281 218.318 348.016 219.366 348.016C220.36 348.016 221.172 348.213 221.8 348.608Z" fill="#111827"/>
<path d="M194.375 27.9131L214.84 0.790039H173.91L194.375 27.9131Z" fill="#96FF5B" fill-opacity="0.64"/>
</g>
<defs>
<filter id="filter0_d_5854_16207" x="50.0596" y="-175.405" width="288.885" height="288.885" filterUnits="userSpaceOnUse" color-interpolation-filters="sRGB">
<feFlood flood-opacity="0" result="BackgroundImageFix"/>
<feColorMatrix in="SourceAlpha" type="matrix" values="0 0 0 0 0 0 0 0 0 0 0 0 0 0 0 0 0 0 127 0" result="hardAlpha"/>
<feMorphology radius="2.11237" operator="dilate" in="SourceAlpha" result="effect1_dropShadow_5854_16207"/>
<feOffset/>
<feGaussianBlur stdDeviation="3.415"/>
<feComposite in2="hardAlpha" operator="out"/>
<feColorMatrix type="matrix" values="0 0 0 0 0 0 0 0 0 0 0 0 0 0 0 0 0 0 0.05 0"/>
<feBlend mode="normal" in2="BackgroundImageFix" result="effect1_dropShadow_5854_16207"/>
<feBlend mode="normal" in="SourceGraphic" in2="effect1_dropShadow_5854_16207" result="shape"/>
</filter>
<filter id="filter1_d_5854_16207" x="112.481" y="110.874" width="163.79" height="174.327" filterUnits="userSpaceOnUse" color-interpolation-filters="sRGB">
<feFlood flood-opacity="0" result="BackgroundImageFix"/>
<feColorMatrix in="SourceAlpha" type="matrix" values="0 0 0 0 0 0 0 0 0 0 0 0 0 0 0 0 0 0 127 0" result="hardAlpha"/>
<feMorphology radius="2.59673" operator="dilate" in="SourceAlpha" result="effect1_dropShadow_5854_16207"/>
<feOffset/>
<feGaussianBlur stdDeviation="4.19804"/>
<feComposite in2="hardAlpha" operator="out"/>
<feColorMatrix type="matrix" values="0 0 0 0 0 0 0 0 0 0 0 0 0 0 0 0 0 0 0.05 0"/>
<feBlend mode="normal" in2="BackgroundImageFix" result="effect1_dropShadow_5854_16207"/>
<feBlend mode="normal" in="SourceGraphic" in2="effect1_dropShadow_5854_16207" result="shape"/>
</filter>
<filter id="filter2_d_5854_16207" x="227.652" y="46.3152" width="75.768" height="75.768" filterUnits="userSpaceOnUse" color-interpolation-filters="sRGB">
<feFlood flood-opacity="0" result="BackgroundImageFix"/>
<feColorMatrix in="SourceAlpha" type="matrix" values="0 0 0 0 0 0 0 0 0 0 0 0 0 0 0 0 0 0 127 0" result="hardAlpha"/>
<feMorphology radius="2.6513" operator="dilate" in="SourceAlpha" result="effect1_dropShadow_5854_16207"/>
<feOffset/>
<feGaussianBlur stdDeviation="4.28628"/>
<feComposite in2="hardAlpha" operator="out"/>
<feColorMatrix type="matrix" values="0 0 0 0 0 0 0 0 0 0 0 0 0 0 0 0 0 0 0.05 0"/>
<feBlend mode="normal" in2="BackgroundImageFix" result="effect1_dropShadow_5854_16207"/>
<feBlend mode="normal" in="SourceGraphic" in2="effect1_dropShadow_5854_16207" result="shape"/>
</filter>
<filter id="filter3_d_5854_16207" x="88.6531" y="46.3152" width="75.768" height="75.768" filterUnits="userSpaceOnUse" color-interpolation-filters="sRGB">
<feFlood flood-opacity="0" result="BackgroundImageFix"/>
<feColorMatrix in="SourceAlpha" type="matrix" values="0 0 0 0 0 0 0 0 0 0 0 0 0 0 0 0 0 0 127 0" result="hardAlpha"/>
<feMorphology radius="2.6513" operator="dilate" in="SourceAlpha" result="effect1_dropShadow_5854_16207"/>
<feOffset/>
<feGaussianBlur stdDeviation="4.28628"/>
<feComposite in2="hardAlpha" operator="out"/>
<feColorMatrix type="matrix" values="0 0 0 0 0 0 0 0 0 0 0 0 0 0 0 0 0 0 0.05 0"/>
<feBlend mode="normal" in2="BackgroundImageFix" result="effect1_dropShadow_5854_16207"/>
<feBlend mode="normal" in="SourceGraphic" in2="effect1_dropShadow_5854_16207" result="shape"/>
</filter>
<filter id="filter4_d_5854_16207" x="50.0596" y="290.595" width="288.885" height="288.885" filterUnits="userSpaceOnUse" color-interpolation-filters="sRGB">
<feFlood flood-opacity="0" result="BackgroundImageFix"/>
<feColorMatrix in="SourceAlpha" type="matrix" values="0 0 0 0 0 0 0 0 0 0 0 0 0 0 0 0 0 0 127 0" result="hardAlpha"/>
<feMorphology radius="2.11237" operator="dilate" in="SourceAlpha" result="effect1_dropShadow_5854_16207"/>
<feOffset/>
<feGaussianBlur stdDeviation="3.415"/>
<feComposite in2="hardAlpha" operator="out"/>
<feColorMatrix type="matrix" values="0 0 0 0 0 0 0 0 0 0 0 0 0 0 0 0 0 0 0.05 0"/>
<feBlend mode="normal" in2="BackgroundImageFix" result="effect1_dropShadow_5854_16207"/>
<feBlend mode="normal" in="SourceGraphic" in2="effect1_dropShadow_5854_16207" result="shape"/>
</filter>
<filter id="filter5_d_5854_16207" x="42.6521" y="323.084" width="75.768" height="75.768" filterUnits="userSpaceOnUse" color-interpolation-filters="sRGB">
<feFlood flood-opacity="0" result="BackgroundImageFix"/>
<feColorMatrix in="SourceAlpha" type="matrix" values="0 0 0 0 0 0 0 0 0 0 0 0 0 0 0 0 0 0 127 0" result="hardAlpha"/>
<feMorphology radius="2.6513" operator="dilate" in="SourceAlpha" result="effect1_dropShadow_5854_16207"/>
<feOffset/>
<feGaussianBlur stdDeviation="4.28628"/>
<feComposite in2="hardAlpha" operator="out"/>
<feColorMatrix type="matrix" values="0 0 0 0 0 0 0 0 0 0 0 0 0 0 0 0 0 0 0.05 0"/>
<feBlend mode="normal" in2="BackgroundImageFix" result="effect1_dropShadow_5854_16207"/>
<feBlend mode="normal" in="SourceGraphic" in2="effect1_dropShadow_5854_16207" result="shape"/>
</filter>
<filter id="filter6_d_5854_16207" x="87.6883" y="280.315" width="75.768" height="75.768" filterUnits="userSpaceOnUse" color-interpolation-filters="sRGB">
<feFlood flood-opacity="0" result="BackgroundImageFix"/>
<feColorMatrix in="SourceAlpha" type="matrix" values="0 0 0 0 0 0 0 0 0 0 0 0 0 0 0 0 0 0 127 0" result="hardAlpha"/>
<feMorphology radius="2.6513" operator="dilate" in="SourceAlpha" result="effect1_dropShadow_5854_16207"/>
<feOffset/>
<feGaussianBlur stdDeviation="4.28628"/>
<feComposite in2="hardAlpha" operator="out"/>
<feColorMatrix type="matrix" values="0 0 0 0 0 0 0 0 0 0 0 0 0 0 0 0 0 0 0.05 0"/>
<feBlend mode="normal" in2="BackgroundImageFix" result="effect1_dropShadow_5854_16207"/>
<feBlend mode="normal" in="SourceGraphic" in2="effect1_dropShadow_5854_16207" result="shape"/>
</filter>
<filter id="filter7_d_5854_16207" x="227.652" y="281.29" width="75.768" height="75.768" filterUnits="userSpaceOnUse" color-interpolation-filters="sRGB">
<feFlood flood-opacity="0" result="BackgroundImageFix"/>
<feColorMatrix in="SourceAlpha" type="matrix" values="0 0 0 0 0 0 0 0 0 0 0 0 0 0 0 0 0 0 127 0" result="hardAlpha"/>
<feMorphology radius="2.6513" operator="dilate" in="SourceAlpha" result="effect1_dropShadow_5854_16207"/>
<feOffset/>
<feGaussianBlur stdDeviation="4.28628"/>
<feComposite in2="hardAlpha" operator="out"/>
<feColorMatrix type="matrix" values="0 0 0 0 0 0 0 0 0 0 0 0 0 0 0 0 0 0 0.05 0"/>
<feBlend mode="normal" in2="BackgroundImageFix" result="effect1_dropShadow_5854_16207"/>
<feBlend mode="normal" in="SourceGraphic" in2="effect1_dropShadow_5854_16207" result="shape"/>
</filter>
<filter id="filter8_d_5854_16207" x="273.604" y="323.246" width="75.768" height="75.768" filterUnits="userSpaceOnUse" color-interpolation-filters="sRGB">
<feFlood flood-opacity="0" result="BackgroundImageFix"/>
<feColorMatrix in="SourceAlpha" type="matrix" values="0 0 0 0 0 0 0 0 0 0 0 0 0 0 0 0 0 0 127 0" result="hardAlpha"/>
<feMorphology radius="2.6513" operator="dilate" in="SourceAlpha" result="effect1_dropShadow_5854_16207"/>
<feOffset/>
<feGaussianBlur stdDeviation="4.28628"/>
<feComposite in2="hardAlpha" operator="out"/>
<feColorMatrix type="matrix" values="0 0 0 0 0 0 0 0 0 0 0 0 0 0 0 0 0 0 0.05 0"/>
<feBlend mode="normal" in2="BackgroundImageFix" result="effect1_dropShadow_5854_16207"/>
<feBlend mode="normal" in="SourceGraphic" in2="effect1_dropShadow_5854_16207" result="shape"/>
</filter>
<linearGradient id="paint0_linear_5854_16207" x1="217.61" y1="54.4971" x2="217.61" y2="122.101" gradientUnits="userSpaceOnUse">
<stop stop-color="#CDF4FD" stop-opacity="0.5"/>
<stop offset="1" stop-color="#00D6FF"/>
</linearGradient>
<linearGradient id="paint1_linear_5854_16207" x1="171.14" y1="54.4972" x2="171.14" y2="122.101" gradientUnits="userSpaceOnUse">
<stop stop-color="#CDF4FD" stop-opacity="0.5"/>
<stop offset="1" stop-color="#00D6FF"/>
</linearGradient>
<linearGradient id="paint2_linear_5854_16207" x1="1.00256e+07" y1="54.5468" x2="1.00256e+07" y2="122.15" gradientUnits="userSpaceOnUse">
<stop stop-color="#CDF4FD"/>
<stop offset="1" stop-color="#00D6FF"/>
</linearGradient>
<linearGradient id="paint3_linear_5854_16207" x1="217.61" y1="362.338" x2="217.61" y2="274.363" gradientUnits="userSpaceOnUse">
<stop stop-color="#CDF4FD" stop-opacity="0.5"/>
<stop offset="1" stop-color="#00D6FF"/>
</linearGradient>
<linearGradient id="paint4_linear_5854_16207" x1="171.14" y1="362.338" x2="171.14" y2="274.363" gradientUnits="userSpaceOnUse">
<stop stop-color="#CDF4FD" stop-opacity="0.5"/>
<stop offset="1" stop-color="#00D6FF"/>
</linearGradient>
<linearGradient id="paint5_linear_5854_16207" x1="1.00256e+07" y1="362.273" x2="1.00256e+07" y2="274.298" gradientUnits="userSpaceOnUse">
<stop stop-color="#CDF4FD"/>
<stop offset="1" stop-color="#00D6FF"/>
</linearGradient>
<linearGradient id="paint6_linear_5854_16207" x1="217.61" y1="362.338" x2="217.61" y2="274.363" gradientUnits="userSpaceOnUse">
<stop stop-color="#CDF4FD" stop-opacity="0.5"/>
<stop offset="1" stop-color="#00D6FF"/>
</linearGradient>
<linearGradient id="paint7_linear_5854_16207" x1="171.14" y1="362.338" x2="171.14" y2="274.363" gradientUnits="userSpaceOnUse">
<stop stop-color="#CDF4FD" stop-opacity="0.5"/>
<stop offset="1" stop-color="#00D6FF"/>
</linearGradient>
<linearGradient id="paint8_linear_5854_16207" x1="123.474" y1="198.038" x2="265.278" y2="198.038" gradientUnits="userSpaceOnUse">
<stop stop-color="#00D6FF"/>
<stop offset="1" stop-color="#32F8B9"/>
</linearGradient>
<linearGradient id="paint9_linear_5854_16207" x1="164.789" y1="234.036" x2="218.626" y2="234.036" gradientUnits="userSpaceOnUse">
<stop stop-color="#00D6FF"/>
<stop offset="1" stop-color="#32F8B9"/>
</linearGradient>
<clipPath id="clip0_5854_16207">
<rect x="0.875" y="0.790039" width="387" height="387" rx="16" fill="white"/>
</clipPath>
<clipPath id="clip1_5854_16207">
<rect width="44.5722" height="63.3395" fill="white" transform="translate(174.504 158.857)"/>
</clipPath>
<clipPath id="clip2_5854_16207">
<rect x="164.789" y="232.536" width="64" height="3" rx="1.5" fill="white"/>
</clipPath>
<clipPath id="clip3_5854_16207">
<rect width="19.7591" height="19.296" fill="white" transform="translate(116.658 74.5518)"/>
</clipPath>
<clipPath id="clip4_5854_16207">
<rect x="70.9297" y="334.308" width="40.0764" height="40.0764" rx="20.0382" transform="rotate(25.184 70.9297 334.308)" fill="white"/>
</clipPath>
<clipPath id="clip5_5854_16207">
<rect x="255.93" y="292.514" width="40.0764" height="40.0764" rx="20.0382" transform="rotate(25.184 255.93 292.514)" fill="white"/>
</clipPath>
<clipPath id="clip6_5854_16207">
<rect width="19.1843" height="19.1843" fill="white" transform="translate(255.943 309.582)"/>
</clipPath>
<clipPath id="clip7_5854_16207">
<rect width="23.7489" height="23.7489" fill="white" transform="translate(298.902 350.77)"/>
</clipPath>
</defs>
</svg>
