<svg width="375" height="1112" viewBox="0 0 375 1112" fill="none" xmlns="http://www.w3.org/2000/svg" xmlns:xlink="http://www.w3.org/1999/xlink">
<g clip-path="url(#clip0_4592_753)">
<g filter="url(#filter0_d_4592_753)">
<path d="M148.776 3.45273L226.052 3.45273L264.69 70.3759L226.052 137.299L148.776 137.299L110.138 70.3759L148.776 3.45273Z" fill="white" stroke="url(#paint0_linear_4592_753)" stroke-width="3.39891"/>
<image href="assets/img/investors/innovation-endeavors.png" x="131.266" y="51.8411" width="112.468" height="37.1358" loading="lazy"/>
</g>
<g filter="url(#filter1_d_4592_753)">
<path d="M25.0257 76.5785L102.302 76.5785L140.94 143.502L102.302 210.425L25.0257 210.425L-13.6124 143.502L25.0257 76.5785Z" fill="white" stroke="url(#paint1_linear_4592_753)" stroke-width="3.39891"/>
<g clip-path="url(#clip1_4592_753)">
<path d="M48.9429 143.365V141.752H70.4417V143.365H48.9429Z" fill="#858686"/>
<path d="M12.022 145.365C12.3266 144.67 12.6145 144.012 12.902 143.355C13.1181 142.862 13.3365 142.369 13.5477 141.874C13.5912 141.772 13.6498 141.737 13.7605 141.74C14.0563 141.747 14.3526 141.75 14.648 141.74C14.7802 141.735 14.8301 141.787 14.8785 141.9C15.3508 142.998 15.8272 144.094 16.3078 145.188C16.3263 145.231 16.349 145.272 16.3883 145.35C16.5213 145.04 16.6407 144.764 16.7586 144.488C17.1307 143.617 17.5006 142.745 17.8785 141.876C17.903 141.819 17.9866 141.75 18.0436 141.749C18.5786 141.74 19.1136 141.743 19.6713 141.743C19.4654 142.229 19.2663 142.7 19.0668 143.171C18.4018 144.725 17.7377 146.279 17.0744 147.834C17.0159 147.972 16.9452 148.02 16.7967 148.013C16.5323 148.001 16.2678 148 16.0033 148.013C15.8476 148.021 15.7724 147.969 15.7109 147.827C15.2325 146.718 14.7447 145.614 14.2592 144.508C14.2471 144.48 14.2305 144.455 14.2048 144.409C13.9781 144.925 13.7616 145.423 13.5428 145.922C13.2538 146.579 12.9666 147.238 12.6697 147.892C12.6506 147.923 12.6248 147.949 12.5941 147.968C12.5634 147.987 12.5286 148 12.4925 148.004C12.1781 148.015 11.8632 148.015 11.5479 148.004C11.5117 147.999 11.4772 147.985 11.4471 147.965C11.417 147.944 11.392 147.917 11.3741 147.886C10.7166 146.362 10.0634 144.837 9.41423 143.31C9.22683 142.871 9.0393 142.433 8.85164 141.995C8.81839 141.917 8.78778 141.837 8.75 141.743C9.31033 141.743 9.85138 141.74 10.3921 141.749C10.4435 141.749 10.5168 141.821 10.5406 141.877C10.9554 142.843 11.3669 143.812 11.7749 144.784C11.8516 144.965 11.9291 145.147 12.022 145.365Z" fill="#858686"/>
<path d="M75.5066 142.17C76.0139 141.801 76.6301 141.605 77.2605 141.613C77.9424 141.608 78.6063 141.826 79.1497 142.231C79.6931 142.636 80.0855 143.206 80.2661 143.853C80.5983 145.043 80.4139 146.15 79.5815 147.101C78.9937 147.774 78.2171 148.093 77.3235 148.138C76.6334 148.172 76.0122 147.976 75.4447 147.536V147.993H73.7876V138.851H75.5066V142.17ZM75.5142 144.876C75.5142 145.148 75.5076 145.42 75.5175 145.694C75.5208 145.773 75.5498 145.872 75.6045 145.924C75.761 146.072 75.9219 146.227 76.1085 146.333C76.9054 146.789 77.8997 146.585 78.3895 145.882C78.9062 145.139 78.7507 144.066 78.0453 143.502C77.3875 142.978 76.2448 143.115 75.6384 143.786C75.5952 143.829 75.5613 143.88 75.5388 143.937C75.5169 143.993 75.5071 144.054 75.5104 144.115C75.5224 144.368 75.5142 144.622 75.5142 144.876Z" fill="#858686"/>
<path d="M39.5042 138.846H41.2211V143.738C41.5611 143.427 41.8565 143.156 42.1513 142.883C42.5264 142.535 42.8979 142.184 43.2765 141.84C43.3339 141.786 43.4082 141.753 43.4873 141.745C44.2362 141.739 44.985 141.742 45.7343 141.743C45.7445 141.743 45.7551 141.751 45.7895 141.767L42.6912 144.573L46.1809 148.007H45.9674C45.338 148.007 44.7084 148.003 44.0782 148.011C44.0135 148.013 43.9489 148.002 43.8892 147.977C43.8296 147.952 43.7765 147.914 43.7337 147.866C42.9631 147.084 42.19 146.304 41.4145 145.527C41.3669 145.48 41.3163 145.436 41.235 145.359V147.993H39.5034L39.5042 138.846Z" fill="#858686"/>
<path d="M113.732 147.998H112.02V138.853H113.72V142.153C113.944 142.037 114.136 141.924 114.335 141.837C115.626 141.277 117.207 141.778 117.92 142.972C118.211 143.461 118.308 144.004 118.316 144.557C118.331 145.679 118.32 146.8 118.32 147.922C118.318 147.946 118.315 147.969 118.31 147.993H116.601V147.772C116.601 146.744 116.604 145.715 116.599 144.686C116.597 144.513 116.58 144.34 116.548 144.17C116.414 143.42 115.761 143.134 115.15 143.182C114.675 143.219 114.273 143.425 113.923 143.737C113.858 143.789 113.806 143.856 113.772 143.931C113.737 144.007 113.721 144.089 113.724 144.172C113.733 145.368 113.729 146.564 113.729 147.76L113.732 147.998Z" fill="#858686"/>
<path d="M28.7758 144.89C28.7886 146.697 27.2954 148.176 25.3147 148.139C23.5208 148.106 22.0076 146.792 22 144.891C21.9925 142.99 23.5238 141.602 25.4179 141.61C27.312 141.617 28.7758 143.043 28.7758 144.89ZM23.732 144.88C23.732 145.851 24.442 146.577 25.3881 146.576C26.3341 146.574 27.0566 145.845 27.0562 144.883C27.0562 143.915 26.3262 143.169 25.3824 143.173C24.4386 143.177 23.732 143.909 23.732 144.88Z" fill="#858686"/>
<path d="M85.0814 145.312C85.1717 145.944 85.5006 146.387 86.0769 146.626C86.7237 146.895 87.5195 146.841 88.3699 146.068L89.3522 147.038C89.234 147.147 89.1027 147.286 88.9549 147.403C87.7685 148.343 85.9099 148.394 84.6786 147.512C83.867 146.931 83.479 146.113 83.4155 145.148C83.3537 144.207 83.5989 143.35 84.2244 142.612C85.2341 141.418 87.2431 141.263 88.4104 142.304C89.2641 143.065 89.5815 144.03 89.4995 145.144C89.4885 145.287 89.4371 145.315 89.3046 145.315C87.9698 145.31 86.6345 145.312 85.2998 145.312H85.0814ZM87.7427 144.054C87.6563 143.398 87.0773 142.94 86.3965 142.99C85.7157 143.04 85.1804 143.622 85.1876 144.054H87.7427Z" fill="#858686"/>
<path d="M92.9009 141.751H94.5509V142.198C94.761 142.081 94.9487 141.964 95.1474 141.87C96.7301 141.123 98.9728 142.006 99.1594 144.125C99.2169 144.783 99.1972 145.448 99.2021 146.11C99.2086 146.735 99.2021 147.36 99.2021 147.996H97.4826V147.78C97.4826 146.726 97.4864 145.673 97.4826 144.619C97.4826 144.263 97.4339 143.912 97.1936 143.623C96.8986 143.268 96.4975 143.151 96.0498 143.18C95.5671 143.211 95.1589 143.418 94.8059 143.737C94.7413 143.791 94.6904 143.857 94.6565 143.933C94.622 144.008 94.6062 144.09 94.6089 144.173C94.6182 145.368 94.6138 146.564 94.6138 147.76V147.993H92.9009V141.751Z" fill="#858686"/>
<path d="M107.454 145.75L108.769 146.72C108.328 147.312 107.784 147.761 107.073 147.966C106.016 148.272 104.98 148.216 104.02 147.642C103.096 147.088 102.569 146.263 102.476 145.202C102.311 143.309 103.626 141.797 105.57 141.63C106.713 141.533 107.683 141.899 108.461 142.736C108.499 142.776 108.53 142.823 108.571 142.876L107.355 143.928C106.952 143.445 106.456 143.157 105.82 143.177C105.589 143.182 105.363 143.235 105.155 143.331C104.946 143.428 104.761 143.566 104.611 143.738C103.993 144.419 104.053 145.563 104.733 146.15C105.536 146.845 106.595 146.694 107.454 145.75Z" fill="#858686"/>
<path d="M33.8186 142.327C34.5365 141.666 35.3394 141.522 36.2424 141.666C36.1755 142.201 36.1113 142.712 36.0535 143.182C35.6942 143.198 35.359 143.179 35.0383 143.237C34.5962 143.316 34.2486 143.58 33.9856 143.935C33.9197 144.03 33.8839 144.142 33.8825 144.258C33.8753 145.435 33.8779 146.612 33.8779 147.79V147.999H32.1724V141.752H33.8197L33.8186 142.327Z" fill="#858686"/>
</g>
</g>
<g filter="url(#filter2_d_4592_753)">
<path d="M272.417 76.4531L349.765 76.4531L388.44 143.439L349.765 210.424L272.417 210.424L233.743 143.439L272.417 76.4531Z" fill="white" stroke="url(#paint2_linear_4592_753)" stroke-width="3.40207"/>
<image href="assets/img/investors/468-capital.png" x="256.178" y="131.789" width="110" height="21.2183" loading="lazy"/>
</g>
<g filter="url(#filter3_d_4592_753)">
<path d="M148.776 150.453L226.052 150.453L264.69 217.376L226.052 284.299L148.776 284.299L110.138 217.376L148.776 150.453Z" fill="white" stroke="url(#paint3_linear_4592_753)" stroke-width="3.39891"/>
<image href="assets/img/investors/hashicorp.png" x="134.865" y="201.512" width="103.939" height="24.756" loading="lazy"/>
<text fill="#858686" xml:space="preserve" style="white-space: pre" font-size="11.8962" font-weight="bold" letter-spacing="0em"><tspan x="166.662" y="239.718">Alumni</tspan></text>
</g>
<g filter="url(#filter4_d_4592_753)">
<path d="M25.0262 223.397L102.302 223.397L140.94 290.32L102.302 357.243L25.0262 357.243L-13.6119 290.32L25.0262 223.397Z" fill="white" stroke="url(#paint4_linear_4592_753)" stroke-width="3.38043"/>
<image href="assets/img/investors/uncorrelated-ventures.png" x="20.5254" y="294.276" width="86.45" height="28.0431" loading="lazy"/>
<path d="M67.5711 258.385C70.1905 258.385 72.8099 258.385 75.5087 258.385C75.5253 260.216 75.5397 262.047 75.5483 263.879C75.552 264.501 75.5569 265.122 75.5631 265.744C75.572 266.642 75.576 267.54 75.5792 268.439C75.5829 268.713 75.5866 268.987 75.5905 269.27C75.5912 272.99 74.5508 275.809 72.0088 278.519C70.0957 280.31 67.5157 281.53 64.8802 281.536C64.4982 281.516 64.1162 281.497 63.7226 281.476C63.7226 283.064 63.7226 284.651 63.7226 286.287C60.1767 286.287 57.3821 285.212 54.8229 282.679C53.0424 280.374 51.9026 277.958 51.9092 275.025C51.9092 274.755 51.9092 274.485 51.9093 274.208C51.9105 273.921 51.9117 273.633 51.913 273.337C51.9134 273.041 51.9137 272.744 51.9141 272.438C51.9154 271.492 51.9184 270.546 51.9215 269.6C51.9228 268.957 51.9238 268.315 51.9248 267.673C51.9272 266.1 51.9319 264.528 51.9365 262.955C54.5559 262.955 57.1753 262.955 59.8741 262.955C59.8803 263.876 59.8865 264.797 59.8929 265.746C59.9021 266.639 59.913 267.532 59.924 268.425C59.9308 269.045 59.9359 269.665 59.9393 270.286C59.9444 271.178 59.9557 272.07 59.968 272.962C59.9683 273.238 59.9686 273.515 59.9689 273.8C60.0022 275.624 60.2114 276.522 61.5127 277.823C62.1892 278.23 62.1892 278.23 63.7226 278.349C63.7226 276.841 63.7226 275.333 63.7226 273.779C64.437 273.541 65.1514 273.303 65.8874 273.057C66.5147 272.522 66.963 272.109 67.3306 271.374C67.3593 270.959 67.3732 270.543 67.38 270.127C67.3848 269.867 67.3896 269.607 67.3945 269.339C67.3985 269.057 67.4026 268.776 67.4067 268.485C67.4142 268.054 67.4142 268.054 67.4218 267.614C67.4376 266.692 67.4518 265.771 67.4659 264.849C67.4763 264.226 67.4868 263.602 67.4974 262.979C67.5234 261.447 67.5472 259.916 67.5711 258.385Z" fill="#7C7C7C"/>
</g>
<g filter="url(#filter5_d_4592_753)">
<path d="M272.526 223.396L349.802 223.396L388.44 290.319L349.802 357.243L272.526 357.243L233.888 290.319L272.526 223.396Z" fill="white" stroke="url(#paint5_linear_4592_753)" stroke-width="3.38043"/>
<image href="assets/img/investors/gaingels.png" x="254.758" y="277.798" width="112.984" height="25.1076" loading="lazy"/>
</g>
<g filter="url(#filter6_d_4592_753)">
<path d="M25.0257 370.214L102.302 370.214L140.94 437.137L102.302 504.06L25.0257 504.06L-13.6124 437.137L25.0257 370.214Z" fill="#83FF50" fill-opacity="0.2"/>
<path d="M-13.1218 437.137L25.271 370.639L102.057 370.639L140.449 437.137L102.057 503.636L25.271 503.636L-13.1218 437.137Z" stroke="white" stroke-opacity="0.6" stroke-width="0.849727"/>
<g clip-path="url(#clip2_4592_753)">
<image href="assets/img/investors/shanku-niyogi.png" x="43.356" y="376.973" width="40.7869" height="40.7869" rx="20.3934" loading="lazy"/>
</g>
<text fill="black" xml:space="preserve" style="white-space: pre" font-size="12" font-weight="bold" letter-spacing="0em"><tspan x="22.0425" y="430.2">Shanku Niyogi</tspan></text>
<text fill="black" xml:space="preserve" style="white-space: pre" font-size="12" letter-spacing="0em"><tspan x="25.3882" y="447.508">Former PM of &#10;</tspan><tspan x="39.3862" y="459.508">VScode, &#10;</tspan><tspan x="20.689" y="471.508">GitHub Actions, &#10;</tspan><tspan x="26.0327" y="483.508">Codespace &#38; &#10;</tspan><tspan x="45.0522" y="495.508">Copilot</tspan></text>
</g>
<g filter="url(#filter7_d_4592_753)">
<path d="M272.526 370.213L349.802 370.213L388.44 437.137L349.802 504.06L272.526 504.06L233.888 437.137L272.526 370.213Z" fill="#83FF50" fill-opacity="0.2"/>
<path d="M234.378 437.137L272.771 370.638L349.557 370.638L387.949 437.137L349.557 503.635L272.771 503.635L234.378 437.137Z" stroke="white" stroke-opacity="0.6" stroke-width="0.849727"/>
<g clip-path="url(#clip3_4592_753)">
<image href="assets/img/investors/david-cramer.png" x="291.076" y="396.981" width="40.7869" height="40.7869" rx="20.3934" loading="lazy"/>
</g>
<text fill="black" xml:space="preserve" style="white-space: pre" font-size="12" font-weight="bold" letter-spacing="0em"><tspan x="272.417" y="450.208">David Cramer</tspan></text>
<text fill="black" xml:space="preserve" style="white-space: pre" font-size="12" letter-spacing="0em"><tspan x="289.105" y="467.516">Founder&#10;</tspan><tspan x="294.12" y="479.516">Sentry</tspan></text>
</g>
<g filter="url(#filter8_d_4592_753)">
<path d="M148.776 297.271L226.052 297.271L264.69 364.194L226.052 431.117L148.776 431.117L110.138 364.194L148.776 297.271Z" fill="#00D5FF" fill-opacity="0.17"/>
<path d="M110.628 364.194L149.021 297.695L225.807 297.695L264.199 364.194L225.807 430.692L149.021 430.692L110.628 364.194Z" stroke="white" stroke-opacity="0.6" stroke-width="0.849727"/>
<image href="assets/img/investors/mirko-novakovic.png" x="167.098" y="322.511" width="40.7869" height="40.7869" rx="20.3934" loading="lazy"/>
<text fill="black" xml:space="preserve" style="white-space: pre" font-size="12" font-weight="bold" letter-spacing="0em"><tspan x="139.767" y="377.635">Mirko Novakovic</tspan></text>
<text fill="black" xml:space="preserve" style="white-space: pre" font-size="12" letter-spacing="0em"><tspan x="165.126" y="396.785">Founder&#10;</tspan><tspan x="167.792" y="408.785">Instana</tspan></text>
</g>
<g filter="url(#filter9_d_4592_753)">
<path d="M25.0257 517.032L102.302 517.032L140.94 583.955L102.302 650.878L25.0257 650.878L-13.6124 583.955L25.0257 517.032Z" fill="#00D5FF" fill-opacity="0.17"/>
<path d="M-13.1218 583.955L25.271 517.457L102.057 517.457L140.449 583.955L102.057 650.453L25.271 650.453L-13.1218 583.955Z" stroke="white" stroke-opacity="0.6" stroke-width="0.849727"/>
<image href="assets/img/investors/florian-leibert.png" x="43.3564" y="540.824" width="40.7869" height="40.7869" rx="20.3934" loading="lazy"/>
<text fill="black" xml:space="preserve" style="white-space: pre" font-size="12" font-weight="bold" letter-spacing="0em"><tspan x="22.0371" y="595.068">Florian Leibert</tspan></text>
<text fill="black" xml:space="preserve" style="white-space: pre" font-size="12" letter-spacing="0em"><tspan x="35.707" y="613.292">Cofounder&#10;</tspan><tspan x="30.7148" y="625.292">Mesosphere</tspan></text>
</g>
<g filter="url(#filter10_d_4592_753)">
<path d="M272.526 517.032L349.802 517.032L388.44 583.955L349.802 650.878L272.526 650.878L233.888 583.955L272.526 517.032Z" fill="#00D5FF" fill-opacity="0.17"/>
<path d="M234.378 583.955L272.771 517.457L349.557 517.457L387.949 583.955L349.557 650.453L272.771 650.453L234.378 583.955Z" stroke="white" stroke-opacity="0.6" stroke-width="0.849727"/>
<image href="assets/img/investors/jeff-dean.png" x="290.442" y="531.278" width="40.7869" height="40.7869" rx="20.3934" loading="lazy"/>
<text fill="black" xml:space="preserve" style="white-space: pre" font-size="12" font-weight="bold" letter-spacing="0em"><tspan x="283.807" y="585.603">Jeff Dean</tspan></text>
<text fill="black" xml:space="preserve" style="white-space: pre" font-size="12" letter-spacing="0em"><tspan x="270.781" y="603.551">Chief Scientist, </tspan><tspan x="291.471" y="615.551">Google </tspan><tspan x="281.797" y="627.551">DeepMind, </tspan><tspan x="272.445" y="639.551">Google Fellow</tspan></text>
</g>
<g filter="url(#filter11_d_4592_753)">
<path d="M148.776 444.088L226.052 444.088L264.69 511.012L226.052 577.935L148.776 577.935L110.138 511.012L148.776 444.088Z" fill="#83FF50" fill-opacity="0.2"/>
<path d="M110.628 511.012L149.021 444.513L225.807 444.513L264.199 511.012L225.807 577.51L149.021 577.51L110.628 511.012Z" stroke="white" stroke-opacity="0.6" stroke-width="0.849727"/>
<image href="assets/img/investors/olivier-pomel.png" x="166.837" y="470.253" width="40.7869" height="40.7869" rx="20.3934" loading="lazy"/>
<text fill="black" xml:space="preserve" style="white-space: pre" font-size="12" font-weight="bold" letter-spacing="0em"><tspan x="148.846" y="524.579">Olivier Pomel</tspan></text>
<text fill="black" xml:space="preserve" style="white-space: pre" font-size="12" letter-spacing="0em"><tspan x="174.223" y="542.527">CEO&#10;</tspan><tspan x="164.525" y="554.527">Datadog</tspan></text>
</g>
<g filter="url(#filter12_d_4592_753)">
<path d="M148.776 590.906L226.052 590.906L264.69 657.829L226.052 724.753L148.776 724.753L110.138 657.829L148.776 590.906Z" fill="#83FF50" fill-opacity="0.2"/>
<path d="M110.628 657.829L149.021 591.331L225.807 591.331L264.199 657.829L225.807 724.328L149.021 724.328L110.628 657.829Z" stroke="white" stroke-opacity="0.6" stroke-width="0.849727"/>
<image href="assets/img/investors/cosmin-nicolaescu.png" x="167.136" y="610.693" width="40.7869" height="40.7869" rx="20.3934" loading="lazy"/>
<text fill="black" xml:space="preserve" style="white-space: pre" font-size="12" font-weight="bold" letter-spacing="0em"><tspan x="163.841" y="665.018">Cosmin &#10;</tspan><tspan x="155.819" y="677.018">Nicolaescu</tspan></text>
<text fill="black" xml:space="preserve" style="white-space: pre" font-size="12" letter-spacing="0em"><tspan x="174.962" y="694.966">CTO&#10;</tspan><tspan x="175.19" y="706.966">Brex</tspan></text>
</g>
<g filter="url(#filter13_d_4592_753)">
<path d="M25.0257 663.85L102.302 663.85L140.94 730.773L102.302 797.696L25.0257 797.696L-13.6124 730.773L25.0257 663.85Z" fill="#00D5FF" fill-opacity="0.17"/>
<path d="M-13.1218 730.773L25.271 664.275L102.057 664.275L140.449 730.773L102.057 797.271L25.271 797.271L-13.1218 730.773Z" stroke="white" stroke-opacity="0.6" stroke-width="0.849727"/>
<image href="assets/img/investors/wes-mcKinney.png" x="43.647" y="683.898" width="40.3611" height="40.7869" rx="20.1806" loading="lazy"/>
<text fill="black" xml:space="preserve" style="white-space: pre" font-size="12" font-weight="bold" letter-spacing="0em"><tspan x="21.5581" y="738.224">Wes McKinney</tspan></text>
<text fill="black" xml:space="preserve" style="white-space: pre" font-size="12" letter-spacing="0em"><tspan x="13.4251" y="756.172">Creator of Pandas, </tspan><tspan x="19.7708" y="768.172">Python Software </tspan><tspan x="14.7493" y="780.172">Foundation Fellow</tspan></text>
</g>
<g filter="url(#filter14_d_4592_753)">
<path d="M148.776 737.724L226.052 737.724L264.69 804.647L226.052 871.57L148.776 871.57L110.138 804.647L148.776 737.724Z" fill="#00D5FF" fill-opacity="0.17"/>
<path d="M110.628 804.647L149.021 738.149L225.807 738.149L264.199 804.647L225.807 871.146L149.021 871.146L110.628 804.647Z" stroke="white" stroke-opacity="0.6" stroke-width="0.849727"/>
<image href="assets/img/investors/ben-hindman.png" x="167.185" y="769.534" width="40.7869" height="40.7869" rx="20.3934" loading="lazy"/>
<text fill="black" xml:space="preserve" style="white-space: pre" font-size="12" font-weight="bold" letter-spacing="0em"><tspan x="148.877" y="823.859">Ben Hindman</tspan></text>
<text fill="black" xml:space="preserve" style="white-space: pre" font-size="12" letter-spacing="0em"><tspan x="141.529" y="841.807">Creator of Mesos</tspan></text>
</g>
<g filter="url(#filter15_d_4592_753)">
<path d="M272.526 663.817L349.802 663.817L388.44 730.74L349.802 797.663L272.526 797.663L233.888 730.74L272.526 663.817Z" fill="#00D5FF" fill-opacity="0.17"/>
<path d="M234.378 730.74L272.771 664.242L349.557 664.242L387.949 730.74L349.557 797.238L272.771 797.238L234.378 730.74Z" stroke="white" stroke-opacity="0.6" stroke-width="0.849727"/>
<image href="assets/img/investors/josé-valim.png" x="291" y="696.728" width="40.7869" height="40.7869" rx="20.3934" loading="lazy"/>
<text fill="black" xml:space="preserve" style="white-space: pre" font-size="12" font-weight="bold" letter-spacing="0em"><tspan x="280.345" y="750.421">Jos&#xe9; Valim</tspan></text>
<text fill="black" xml:space="preserve" style="white-space: pre" font-size="12" letter-spacing="0em"><tspan x="270.015" y="767.263">Creator of Elixir</tspan></text>
</g>
<g filter="url(#filter16_d_4592_753)">
<path d="M25.0257 810.668L102.302 810.668L140.94 877.591L102.302 944.514L25.0257 944.514L-13.6124 877.591L25.0257 810.668Z" fill="#83FF50" fill-opacity="0.2"/>
<path d="M-13.1218 877.591L25.271 811.092L102.057 811.092L140.449 877.591L102.057 944.089L25.271 944.089L-13.1218 877.591Z" stroke="white" stroke-opacity="0.6" stroke-width="0.849727"/>
<image href="assets/img/investors/spencer-kimball.png" x="42.6406" y="837.586" width="41.6547" height="40.7869" rx="20.3934" loading="lazy"/>
<text fill="black" xml:space="preserve" style="white-space: pre" font-size="12" font-weight="bold" letter-spacing="0em"><tspan x="16.4111" y="891.279">Spencer Kimball</tspan></text>
<text fill="black" xml:space="preserve" style="white-space: pre" font-size="12" letter-spacing="0em"><tspan x="50.46" y="908.121">CEO&#10;</tspan><tspan x="20.085" y="920.121">Cockroach Labs</tspan></text>
</g>
<g filter="url(#filter17_d_4592_753)">
<path d="M234.378 877.557L272.771 811.059L349.557 811.059L387.949 877.557L349.557 944.056L272.771 944.056L234.378 877.557Z" fill="#83FF50" fill-opacity="0.2" stroke="white" stroke-width="0.849727"/>
<image href="assets/img/investors/charlie-marsh.png" x="290.887" y="830.626" width="40.7869" height="40.7869" rx="20.3934" loading="lazy"/>
<text fill="black" xml:space="preserve" style="white-space: pre" font-size="12" font-weight="bold" letter-spacing="0em"><tspan x="271.565" y="884.951">Charlie Marsh</tspan></text>
<text fill="black" xml:space="preserve" style="white-space: pre" font-size="12" letter-spacing="0em"><tspan x="270.329" y="902.899">Creator of Ruff &#10;</tspan><tspan x="305.608" y="914.899">&#38; &#10;</tspan><tspan x="302.942" y="926.899">UV</tspan></text>
</g>
<g filter="url(#filter18_d_4592_753)">
<path d="M148.776 884.542L226.052 884.542L264.69 951.465L226.052 1018.39L148.776 1018.39L110.138 951.465L148.776 884.542Z" fill="#00D5FF" fill-opacity="0.17"/>
<path d="M110.628 951.465L149.021 884.967L225.807 884.967L264.199 951.465L225.807 1017.96L149.021 1017.96L110.628 951.465Z" stroke="white" stroke-opacity="0.6" stroke-width="0.849727"/>
<image href="assets/img/investors/david-aronchick.png" x="167.107" y="896.431" width="40.7869" height="40.7869" rx="20.3934" loading="lazy"/>
<text fill="black" xml:space="preserve" style="white-space: pre" font-size="12" font-weight="bold" letter-spacing="0em"><tspan x="140.333" y="950.757">David Aronchick</tspan></text>
<text fill="black" xml:space="preserve" style="white-space: pre" font-size="12" letter-spacing="0em"><tspan x="149.139" y="968.705">Former PM of &#10;</tspan><tspan x="153.452" y="980.705">Kubernetes, &#10;</tspan><tspan x="159.129" y="992.705">Creator of &#10;</tspan><tspan x="160.799" y="1004.7">KubeFlow</tspan></text>
</g>
<g filter="url(#filter19_d_4592_753)">
<path d="M25.0257 957.485L102.302 957.485L140.94 1024.41L102.302 1091.33L25.0257 1091.33L-13.6124 1024.41L25.0257 957.485Z" fill="#83FF50" fill-opacity="0.2"/>
<path d="M-13.1218 1024.41L25.271 957.91L102.057 957.91L140.449 1024.41L102.057 1090.91L25.271 1090.91L-13.1218 1024.41Z" stroke="white" stroke-opacity="0.6" stroke-width="0.849727"/>
<image href="assets/img/investors/mitch-wainer.png" x="43.1973" y="983.481" width="40.7869" height="40.7869" rx="20.3934" loading="lazy"/>
<text fill="black" xml:space="preserve" style="white-space: pre" font-size="12" font-weight="bold" letter-spacing="0em"><tspan x="26.4482" y="1037.81">Mitch Wainer</tspan></text>
<text fill="black" xml:space="preserve" style="white-space: pre" font-size="12" letter-spacing="0em"><tspan x="35.5479" y="1055.75">Cofounder&#10;</tspan><tspan x="29.208" y="1067.75">DigitalOcean</tspan></text>
</g>
<g filter="url(#filter20_d_4592_753)">
<path d="M272.526 957.452L349.802 957.452L388.44 1024.38L349.802 1091.3L272.526 1091.3L233.888 1024.38L272.526 957.452Z" fill="#83FF50" fill-opacity="0.2"/>
<path d="M234.378 1024.38L272.771 957.877L349.557 957.877L387.949 1024.38L349.557 1090.87L272.771 1090.87L234.378 1024.38Z" stroke="white" stroke-opacity="0.6" stroke-width="0.849727"/>
<image href="assets/img/investors/dan-barak.png" x="290.766" y="983.253" width="40.7869" height="40.7869" rx="20.3934" loading="lazy"/>
<text fill="black" xml:space="preserve" style="white-space: pre" font-size="12" font-weight="bold" letter-spacing="0em"><tspan x="281.452" y="1037.58">Dan Barak</tspan></text>
<text fill="black" xml:space="preserve" style="white-space: pre" font-size="12" letter-spacing="0em"><tspan x="288.454" y="1055.53">Head of &#10;</tspan><tspan x="265.433" y="1067.53">Product at Netlify</tspan></text>
</g>
</g>
<defs>
<filter id="filter0_d_4592_753" x="101.575" y="-4.84709" width="171.678" height="150.446" filterUnits="userSpaceOnUse" color-interpolation-filters="sRGB">
<feFlood flood-opacity="0" result="BackgroundImageFix"/>
<feColorMatrix in="SourceAlpha" type="matrix" values="0 0 0 0 0 0 0 0 0 0 0 0 0 0 0 0 0 0 127 0" result="hardAlpha"/>
<feOffset/>
<feGaussianBlur stdDeviation="3.30013"/>
<feComposite in2="hardAlpha" operator="out"/>
<feColorMatrix type="matrix" values="0 0 0 0 0 0 0 0 0 0 0 0 0 0 0 0 0 0 0.09 0"/>
<feBlend mode="normal" in2="BackgroundImageFix" result="effect1_dropShadow_4592_753"/>
<feBlend mode="normal" in="SourceGraphic" in2="effect1_dropShadow_4592_753" result="shape"/>
</filter>
<filter id="filter1_d_4592_753" x="-22.175" y="68.2786" width="171.678" height="150.446" filterUnits="userSpaceOnUse" color-interpolation-filters="sRGB">
<feFlood flood-opacity="0" result="BackgroundImageFix"/>
<feColorMatrix in="SourceAlpha" type="matrix" values="0 0 0 0 0 0 0 0 0 0 0 0 0 0 0 0 0 0 127 0" result="hardAlpha"/>
<feOffset/>
<feGaussianBlur stdDeviation="3.30013"/>
<feComposite in2="hardAlpha" operator="out"/>
<feColorMatrix type="matrix" values="0 0 0 0 0 0 0 0 0 0 0 0 0 0 0 0 0 0 0.09 0"/>
<feBlend mode="normal" in2="BackgroundImageFix" result="effect1_dropShadow_4592_753"/>
<feBlend mode="normal" in="SourceGraphic" in2="effect1_dropShadow_4592_753" result="shape"/>
</filter>
<filter id="filter2_d_4592_753" x="225.172" y="68.1455" width="171.838" height="150.586" filterUnits="userSpaceOnUse" color-interpolation-filters="sRGB">
<feFlood flood-opacity="0" result="BackgroundImageFix"/>
<feColorMatrix in="SourceAlpha" type="matrix" values="0 0 0 0 0 0 0 0 0 0 0 0 0 0 0 0 0 0 127 0" result="hardAlpha"/>
<feOffset/>
<feGaussianBlur stdDeviation="3.30321"/>
<feComposite in2="hardAlpha" operator="out"/>
<feColorMatrix type="matrix" values="0 0 0 0 0 0 0 0 0 0 0 0 0 0 0 0 0 0 0.09 0"/>
<feBlend mode="normal" in2="BackgroundImageFix" result="effect1_dropShadow_4592_753"/>
<feBlend mode="normal" in="SourceGraphic" in2="effect1_dropShadow_4592_753" result="shape"/>
</filter>=
<filter id="filter3_d_4592_753" x="101.575" y="142.153" width="171.678" height="150.446" filterUnits="userSpaceOnUse" color-interpolation-filters="sRGB">
<feFlood flood-opacity="0" result="BackgroundImageFix"/>
<feColorMatrix in="SourceAlpha" type="matrix" values="0 0 0 0 0 0 0 0 0 0 0 0 0 0 0 0 0 0 127 0" result="hardAlpha"/>
<feOffset/>
<feGaussianBlur stdDeviation="3.30013"/>
<feComposite in2="hardAlpha" operator="out"/>
<feColorMatrix type="matrix" values="0 0 0 0 0 0 0 0 0 0 0 0 0 0 0 0 0 0 0.09 0"/>
<feBlend mode="normal" in2="BackgroundImageFix" result="effect1_dropShadow_4592_753"/>
<feBlend mode="normal" in="SourceGraphic" in2="effect1_dropShadow_4592_753" result="shape"/>
</filter>
<filter id="filter4_d_4592_753" x="-22.1637" y="215.106" width="171.656" height="150.427" filterUnits="userSpaceOnUse" color-interpolation-filters="sRGB">
<feFlood flood-opacity="0" result="BackgroundImageFix"/>
<feColorMatrix in="SourceAlpha" type="matrix" values="0 0 0 0 0 0 0 0 0 0 0 0 0 0 0 0 0 0 127 0" result="hardAlpha"/>
<feOffset/>
<feGaussianBlur stdDeviation="3.30013"/>
<feComposite in2="hardAlpha" operator="out"/>
<feColorMatrix type="matrix" values="0 0 0 0 0 0 0 0 0 0 0 0 0 0 0 0 0 0 0.09 0"/>
<feBlend mode="normal" in2="BackgroundImageFix" result="effect1_dropShadow_4592_753"/>
<feBlend mode="normal" in="SourceGraphic" in2="effect1_dropShadow_4592_753" result="shape"/>
</filter>
<filter id="filter5_d_4592_753" x="225.336" y="215.106" width="171.656" height="150.427" filterUnits="userSpaceOnUse" color-interpolation-filters="sRGB">
<feFlood flood-opacity="0" result="BackgroundImageFix"/>
<feColorMatrix in="SourceAlpha" type="matrix" values="0 0 0 0 0 0 0 0 0 0 0 0 0 0 0 0 0 0 127 0" result="hardAlpha"/>
<feOffset/>
<feGaussianBlur stdDeviation="3.30013"/>
<feComposite in2="hardAlpha" operator="out"/>
<feColorMatrix type="matrix" values="0 0 0 0 0 0 0 0 0 0 0 0 0 0 0 0 0 0 0.09 0"/>
<feBlend mode="normal" in2="BackgroundImageFix" result="effect1_dropShadow_4592_753"/>
<feBlend mode="normal" in="SourceGraphic" in2="effect1_dropShadow_4592_753" result="shape"/>
</filter>
<filter id="filter6_d_4592_753" x="-20.6003" y="363.161" width="168.701" height="148.018" filterUnits="userSpaceOnUse" color-interpolation-filters="sRGB">
<feFlood flood-opacity="0" result="BackgroundImageFix"/>
<feColorMatrix in="SourceAlpha" type="matrix" values="0 0 0 0 0 0 0 0 0 0 0 0 0 0 0 0 0 0 127 0" result="hardAlpha"/>
<feOffset/>
<feGaussianBlur stdDeviation="3.30013"/>
<feComposite in2="hardAlpha" operator="out"/>
<feColorMatrix type="matrix" values="0 0 0 0 0 0 0 0 0 0 0 0 0 0 0 0 0 0 0.09 0"/>
<feBlend mode="normal" in2="BackgroundImageFix" result="effect1_dropShadow_4592_753"/>
<feBlend mode="normal" in="SourceGraphic" in2="effect1_dropShadow_4592_753" result="shape"/>
</filter>
<filter id="filter7_d_4592_753" x="226.9" y="363.161" width="168.701" height="148.018" filterUnits="userSpaceOnUse" color-interpolation-filters="sRGB">
<feFlood flood-opacity="0" result="BackgroundImageFix"/>
<feColorMatrix in="SourceAlpha" type="matrix" values="0 0 0 0 0 0 0 0 0 0 0 0 0 0 0 0 0 0 127 0" result="hardAlpha"/>
<feOffset/>
<feGaussianBlur stdDeviation="3.30013"/>
<feComposite in2="hardAlpha" operator="out"/>
<feColorMatrix type="matrix" values="0 0 0 0 0 0 0 0 0 0 0 0 0 0 0 0 0 0 0.09 0"/>
<feBlend mode="normal" in2="BackgroundImageFix" result="effect1_dropShadow_4592_753"/>
<feBlend mode="normal" in="SourceGraphic" in2="effect1_dropShadow_4592_753" result="shape"/>
</filter>
<filter id="filter8_d_4592_753" x="103.15" y="290.218" width="168.701" height="148.018" filterUnits="userSpaceOnUse" color-interpolation-filters="sRGB">
<feFlood flood-opacity="0" result="BackgroundImageFix"/>
<feColorMatrix in="SourceAlpha" type="matrix" values="0 0 0 0 0 0 0 0 0 0 0 0 0 0 0 0 0 0 127 0" result="hardAlpha"/>
<feOffset/>
<feGaussianBlur stdDeviation="3.30013"/>
<feComposite in2="hardAlpha" operator="out"/>
<feColorMatrix type="matrix" values="0 0 0 0 0 0 0 0 0 0 0 0 0 0 0 0 0 0 0.09 0"/>
<feBlend mode="normal" in2="BackgroundImageFix" result="effect1_dropShadow_4592_753"/>
<feBlend mode="normal" in="SourceGraphic" in2="effect1_dropShadow_4592_753" result="shape"/>
</filter>
<filter id="filter9_d_4592_753" x="-20.6003" y="509.979" width="168.701" height="148.018" filterUnits="userSpaceOnUse" color-interpolation-filters="sRGB">
<feFlood flood-opacity="0" result="BackgroundImageFix"/>
<feColorMatrix in="SourceAlpha" type="matrix" values="0 0 0 0 0 0 0 0 0 0 0 0 0 0 0 0 0 0 127 0" result="hardAlpha"/>
<feOffset/>
<feGaussianBlur stdDeviation="3.30013"/>
<feComposite in2="hardAlpha" operator="out"/>
<feColorMatrix type="matrix" values="0 0 0 0 0 0 0 0 0 0 0 0 0 0 0 0 0 0 0.09 0"/>
<feBlend mode="normal" in2="BackgroundImageFix" result="effect1_dropShadow_4592_753"/>
<feBlend mode="normal" in="SourceGraphic" in2="effect1_dropShadow_4592_753" result="shape"/>
</filter>
<filter id="filter10_d_4592_753" x="226.9" y="509.979" width="168.701" height="148.018" filterUnits="userSpaceOnUse" color-interpolation-filters="sRGB">
<feFlood flood-opacity="0" result="BackgroundImageFix"/>
<feColorMatrix in="SourceAlpha" type="matrix" values="0 0 0 0 0 0 0 0 0 0 0 0 0 0 0 0 0 0 127 0" result="hardAlpha"/>
<feOffset/>
<feGaussianBlur stdDeviation="3.30013"/>
<feComposite in2="hardAlpha" operator="out"/>
<feColorMatrix type="matrix" values="0 0 0 0 0 0 0 0 0 0 0 0 0 0 0 0 0 0 0.09 0"/>
<feBlend mode="normal" in2="BackgroundImageFix" result="effect1_dropShadow_4592_753"/>
<feBlend mode="normal" in="SourceGraphic" in2="effect1_dropShadow_4592_753" result="shape"/>
</filter>
<filter id="filter11_d_4592_753" x="103.15" y="437.035" width="168.701" height="148.018" filterUnits="userSpaceOnUse" color-interpolation-filters="sRGB">
<feFlood flood-opacity="0" result="BackgroundImageFix"/>
<feColorMatrix in="SourceAlpha" type="matrix" values="0 0 0 0 0 0 0 0 0 0 0 0 0 0 0 0 0 0 127 0" result="hardAlpha"/>
<feOffset/>
<feGaussianBlur stdDeviation="3.30013"/>
<feComposite in2="hardAlpha" operator="out"/>
<feColorMatrix type="matrix" values="0 0 0 0 0 0 0 0 0 0 0 0 0 0 0 0 0 0 0.09 0"/>
<feBlend mode="normal" in2="BackgroundImageFix" result="effect1_dropShadow_4592_753"/>
<feBlend mode="normal" in="SourceGraphic" in2="effect1_dropShadow_4592_753" result="shape"/>
</filter>
<filter id="filter12_d_4592_753" x="103.15" y="583.853" width="168.701" height="148.018" filterUnits="userSpaceOnUse" color-interpolation-filters="sRGB">
<feFlood flood-opacity="0" result="BackgroundImageFix"/>
<feColorMatrix in="SourceAlpha" type="matrix" values="0 0 0 0 0 0 0 0 0 0 0 0 0 0 0 0 0 0 127 0" result="hardAlpha"/>
<feOffset/>
<feGaussianBlur stdDeviation="3.30013"/>
<feComposite in2="hardAlpha" operator="out"/>
<feColorMatrix type="matrix" values="0 0 0 0 0 0 0 0 0 0 0 0 0 0 0 0 0 0 0.09 0"/>
<feBlend mode="normal" in2="BackgroundImageFix" result="effect1_dropShadow_4592_753"/>
<feBlend mode="normal" in="SourceGraphic" in2="effect1_dropShadow_4592_753" result="shape"/>
</filter>
<filter id="filter13_d_4592_753" x="-20.6003" y="656.797" width="168.701" height="148.018" filterUnits="userSpaceOnUse" color-interpolation-filters="sRGB">
<feFlood flood-opacity="0" result="BackgroundImageFix"/>
<feColorMatrix in="SourceAlpha" type="matrix" values="0 0 0 0 0 0 0 0 0 0 0 0 0 0 0 0 0 0 127 0" result="hardAlpha"/>
<feOffset/>
<feGaussianBlur stdDeviation="3.30013"/>
<feComposite in2="hardAlpha" operator="out"/>
<feColorMatrix type="matrix" values="0 0 0 0 0 0 0 0 0 0 0 0 0 0 0 0 0 0 0.09 0"/>
<feBlend mode="normal" in2="BackgroundImageFix" result="effect1_dropShadow_4592_753"/>
<feBlend mode="normal" in="SourceGraphic" in2="effect1_dropShadow_4592_753" result="shape"/>
</filter>
<filter id="filter14_d_4592_753" x="103.15" y="730.671" width="168.701" height="148.018" filterUnits="userSpaceOnUse" color-interpolation-filters="sRGB">
<feFlood flood-opacity="0" result="BackgroundImageFix"/>
<feColorMatrix in="SourceAlpha" type="matrix" values="0 0 0 0 0 0 0 0 0 0 0 0 0 0 0 0 0 0 127 0" result="hardAlpha"/>
<feOffset/>
<feGaussianBlur stdDeviation="3.30013"/>
<feComposite in2="hardAlpha" operator="out"/>
<feColorMatrix type="matrix" values="0 0 0 0 0 0 0 0 0 0 0 0 0 0 0 0 0 0 0.09 0"/>
<feBlend mode="normal" in2="BackgroundImageFix" result="effect1_dropShadow_4592_753"/>
<feBlend mode="normal" in="SourceGraphic" in2="effect1_dropShadow_4592_753" result="shape"/>
</filter>
<filter id="filter15_d_4592_753" x="226.9" y="656.764" width="168.701" height="148.018" filterUnits="userSpaceOnUse" color-interpolation-filters="sRGB">
<feFlood flood-opacity="0" result="BackgroundImageFix"/>
<feColorMatrix in="SourceAlpha" type="matrix" values="0 0 0 0 0 0 0 0 0 0 0 0 0 0 0 0 0 0 127 0" result="hardAlpha"/>
<feOffset/>
<feGaussianBlur stdDeviation="3.30013"/>
<feComposite in2="hardAlpha" operator="out"/>
<feColorMatrix type="matrix" values="0 0 0 0 0 0 0 0 0 0 0 0 0 0 0 0 0 0 0.09 0"/>
<feBlend mode="normal" in2="BackgroundImageFix" result="effect1_dropShadow_4592_753"/>
<feBlend mode="normal" in="SourceGraphic" in2="effect1_dropShadow_4592_753" result="shape"/>
</filter>
<filter id="filter16_d_4592_753" x="-20.6003" y="803.615" width="168.701" height="148.018" filterUnits="userSpaceOnUse" color-interpolation-filters="sRGB">
<feFlood flood-opacity="0" result="BackgroundImageFix"/>
<feColorMatrix in="SourceAlpha" type="matrix" values="0 0 0 0 0 0 0 0 0 0 0 0 0 0 0 0 0 0 127 0" result="hardAlpha"/>
<feOffset/>
<feGaussianBlur stdDeviation="3.30013"/>
<feComposite in2="hardAlpha" operator="out"/>
<feColorMatrix type="matrix" values="0 0 0 0 0 0 0 0 0 0 0 0 0 0 0 0 0 0 0.09 0"/>
<feBlend mode="normal" in2="BackgroundImageFix" result="effect1_dropShadow_4592_753"/>
<feBlend mode="normal" in="SourceGraphic" in2="effect1_dropShadow_4592_753" result="shape"/>
</filter>
<filter id="filter17_d_4592_753" x="226.9" y="803.581" width="168.701" height="148.018" filterUnits="userSpaceOnUse" color-interpolation-filters="sRGB">
<feFlood flood-opacity="0" result="BackgroundImageFix"/>
<feColorMatrix in="SourceAlpha" type="matrix" values="0 0 0 0 0 0 0 0 0 0 0 0 0 0 0 0 0 0 127 0" result="hardAlpha"/>
<feOffset/>
<feGaussianBlur stdDeviation="3.30013"/>
<feComposite in2="hardAlpha" operator="out"/>
<feColorMatrix type="matrix" values="0 0 0 0 0 0 0 0 0 0 0 0 0 0 0 0 0 0 0.09 0"/>
<feBlend mode="normal" in2="BackgroundImageFix" result="effect1_dropShadow_4592_753"/>
<feBlend mode="normal" in="SourceGraphic" in2="effect1_dropShadow_4592_753" result="shape"/>
</filter>
<filter id="filter18_d_4592_753" x="103.15" y="877.489" width="168.701" height="148.018" filterUnits="userSpaceOnUse" color-interpolation-filters="sRGB">
<feFlood flood-opacity="0" result="BackgroundImageFix"/>
<feColorMatrix in="SourceAlpha" type="matrix" values="0 0 0 0 0 0 0 0 0 0 0 0 0 0 0 0 0 0 127 0" result="hardAlpha"/>
<feOffset/>
<feGaussianBlur stdDeviation="3.30013"/>
<feComposite in2="hardAlpha" operator="out"/>
<feColorMatrix type="matrix" values="0 0 0 0 0 0 0 0 0 0 0 0 0 0 0 0 0 0 0.09 0"/>
<feBlend mode="normal" in2="BackgroundImageFix" result="effect1_dropShadow_4592_753"/>
<feBlend mode="normal" in="SourceGraphic" in2="effect1_dropShadow_4592_753" result="shape"/>
</filter>
<filter id="filter19_d_4592_753" x="-20.6003" y="950.432" width="168.701" height="148.018" filterUnits="userSpaceOnUse" color-interpolation-filters="sRGB">
<feFlood flood-opacity="0" result="BackgroundImageFix"/>
<feColorMatrix in="SourceAlpha" type="matrix" values="0 0 0 0 0 0 0 0 0 0 0 0 0 0 0 0 0 0 127 0" result="hardAlpha"/>
<feOffset/>
<feGaussianBlur stdDeviation="3.30013"/>
<feComposite in2="hardAlpha" operator="out"/>
<feColorMatrix type="matrix" values="0 0 0 0 0 0 0 0 0 0 0 0 0 0 0 0 0 0 0.09 0"/>
<feBlend mode="normal" in2="BackgroundImageFix" result="effect1_dropShadow_4592_753"/>
<feBlend mode="normal" in="SourceGraphic" in2="effect1_dropShadow_4592_753" result="shape"/>
</filter>
<filter id="filter20_d_4592_753" x="226.9" y="950.399" width="168.701" height="148.018" filterUnits="userSpaceOnUse" color-interpolation-filters="sRGB">
<feFlood flood-opacity="0" result="BackgroundImageFix"/>
<feColorMatrix in="SourceAlpha" type="matrix" values="0 0 0 0 0 0 0 0 0 0 0 0 0 0 0 0 0 0 127 0" result="hardAlpha"/>
<feOffset/>
<feGaussianBlur stdDeviation="3.30013"/>
<feComposite in2="hardAlpha" operator="out"/>
<feColorMatrix type="matrix" values="0 0 0 0 0 0 0 0 0 0 0 0 0 0 0 0 0 0 0.09 0"/>
<feBlend mode="normal" in2="BackgroundImageFix" result="effect1_dropShadow_4592_753"/>
<feBlend mode="normal" in="SourceGraphic" in2="effect1_dropShadow_4592_753" result="shape"/>
</filter>
<linearGradient id="paint0_linear_4592_753" x1="128.058" y1="146.004" x2="249.352" y2="39.6481" gradientUnits="userSpaceOnUse">
<stop stop-color="#00D6FF"/>
<stop offset="1" stop-color="#32F8B9"/>
</linearGradient>
<linearGradient id="paint1_linear_4592_753" x1="4.30829" y1="219.13" x2="125.602" y2="112.774" gradientUnits="userSpaceOnUse">
<stop stop-color="#00D6FF"/>
<stop offset="1" stop-color="#32F8B9"/>
</linearGradient>
<linearGradient id="paint2_linear_4592_753" x1="251.68" y1="219.137" x2="373.087" y2="112.682" gradientUnits="userSpaceOnUse">
<stop stop-color="#00D6FF"/>
<stop offset="1" stop-color="#32F8B9"/>
</linearGradient>
<linearGradient id="paint3_linear_4592_753" x1="128.058" y1="293.004" x2="249.352" y2="186.648" gradientUnits="userSpaceOnUse">
<stop stop-color="#00D6FF"/>
<stop offset="1" stop-color="#32F8B9"/>
</linearGradient>
<linearGradient id="paint4_linear_4592_753" x1="4.30878" y1="365.948" x2="125.602" y2="259.592" gradientUnits="userSpaceOnUse">
<stop stop-color="#00D6FF"/>
<stop offset="1" stop-color="#32F8B9"/>
</linearGradient>
<linearGradient id="paint5_linear_4592_753" x1="251.809" y1="365.947" x2="373.102" y2="259.592" gradientUnits="userSpaceOnUse">
<stop stop-color="#00D6FF"/>
<stop offset="1" stop-color="#32F8B9"/>
</linearGradient>
<clipPath id="clip0_4592_753">
<rect width="375" height="1112" fill="white"/>
</clipPath>
<clipPath id="clip1_4592_753">
<rect width="110" height="9.30348" fill="white" transform="translate(8.75 138.846)"/>
</clipPath>
<clipPath id="clip2_4592_753">
<rect x="43.356" y="376.973" width="40.7869" height="40.7869" rx="20.3934" fill="white"/>
</clipPath>
<clipPath id="clip3_4592_753">
<rect x="291.076" y="396.981" width="40.7869" height="40.7869" rx="20.3934" fill="white"/>
</clipPath>
</defs>
</svg>
