<svg width="1440" height="553" viewBox="0 0 1440 553" fill="none" xmlns="http://www.w3.org/2000/svg" xmlns:xlink="http://www.w3.org/1999/xlink">
<g filter="url(#filter0_d_4523_868)">
<path d="M674.127 14.6011L765.069 14.6011L810.54 93.3595L765.069 172.118L674.127 172.118L628.655 93.3595L674.127 14.6011Z" fill="white" stroke="url(#paint0_linear_4523_868)" stroke-width="4"/>
<image href="assets/img/investors/innovation-endeavors.png" x="653.52" y="71.5469" width="132.358" height="43.7032" loading="lazy"/>
</g>
<g filter="url(#filter1_d_4523_868)">
<path d="M674.127 198.077L765.069 198.077L810.54 276.835L765.069 355.593L674.127 355.593L628.655 276.835L674.127 198.077Z" fill="white" stroke="url(#paint1_linear_4523_868)" stroke-width="4"/>
<image href="assets/img/investors/hashicorp.png" x="657.756" y="258.166" width="122.321" height="29.1341" loading="lazy"/>
<text fill="#858686" xml:space="preserve" style="white-space: pre" font-size="14" font-weight="bold" letter-spacing="0em"><tspan x="695.176" y="303.128">Alumni</tspan></text>
</g>
<g filter="url(#filter2_d_4523_868)">
<path d="M979.087 197.647L1070.53 197.647L1116.25 276.835L1070.53 356.024L979.087 356.024L933.368 276.835L979.087 197.647Z" fill="white" stroke="url(#paint2_linear_4523_868)" stroke-width="4"/>
<image href="assets/img/investors/gaingels.png" x="958.062" y="262.019" width="133.692" height="29.7093" loading="lazy"/>
</g>
<g filter="url(#filter3_d_4523_868)">
<path d="M521.336 106.699L612.278 106.699L657.749 185.457L612.278 264.216L521.336 264.216L475.864 185.457L521.336 106.699Z" fill="white" stroke="url(#paint3_linear_4523_868)" stroke-width="4"/>
<g clip-path="url(#clip0_4523_868)">
<path d="M545.575 185.304V182.98H576.549V185.304H545.575Z" fill="#858686"/>
<path d="M492.384 188.186C492.823 187.184 493.238 186.237 493.652 185.29C493.963 184.579 494.278 183.869 494.582 183.156C494.645 183.009 494.729 182.96 494.889 182.963C495.315 182.974 495.742 182.978 496.167 182.963C496.358 182.956 496.43 183.031 496.499 183.194C497.18 184.775 497.866 186.354 498.559 187.931C498.585 187.993 498.618 188.052 498.674 188.164C498.866 187.717 499.038 187.32 499.208 186.923C499.744 185.667 500.277 184.411 500.821 183.159C500.857 183.077 500.977 182.978 501.059 182.976C501.83 182.963 502.601 182.968 503.404 182.968C503.108 183.667 502.821 184.347 502.533 185.024C501.575 187.264 500.618 189.503 499.663 191.743C499.579 191.942 499.477 192.011 499.263 192.001C498.882 191.983 498.501 191.982 498.12 192.001C497.895 192.012 497.787 191.937 497.698 191.733C497.009 190.135 496.307 188.544 495.607 186.951C495.59 186.911 495.566 186.875 495.529 186.808C495.202 187.551 494.89 188.27 494.575 188.988C494.159 189.935 493.745 190.884 493.317 191.827C493.29 191.871 493.252 191.908 493.208 191.936C493.164 191.964 493.114 191.982 493.062 191.988C492.609 192.004 492.155 192.004 491.701 191.988C491.649 191.98 491.599 191.961 491.556 191.931C491.512 191.902 491.476 191.863 491.45 191.818C490.503 189.622 489.562 187.425 488.627 185.225C488.357 184.593 488.087 183.961 487.816 183.33C487.768 183.218 487.724 183.103 487.67 182.968C488.477 182.968 489.257 182.963 490.036 182.977C490.11 182.977 490.215 183.081 490.25 183.16C490.847 184.553 491.44 185.949 492.028 187.348C492.138 187.609 492.25 187.872 492.384 188.186Z" fill="#858686"/>
<path d="M583.846 183.584C584.577 183.051 585.464 182.769 586.373 182.78C587.355 182.774 588.311 183.087 589.094 183.671C589.877 184.254 590.443 185.076 590.703 186.008C591.181 187.722 590.916 189.317 589.716 190.688C588.87 191.656 587.751 192.116 586.463 192.181C585.469 192.23 584.574 191.948 583.757 191.314V191.972H581.369V178.801H583.846V183.584ZM583.857 187.481C583.857 187.874 583.847 188.266 583.861 188.66C583.866 188.773 583.908 188.916 583.987 188.991C584.212 189.205 584.444 189.429 584.713 189.58C585.861 190.237 587.294 189.944 587.999 188.931C588.743 187.86 588.52 186.315 587.503 185.503C586.556 184.747 584.909 184.944 584.036 185.912C583.973 185.973 583.924 186.047 583.892 186.129C583.861 186.21 583.846 186.297 583.851 186.385C583.869 186.75 583.857 187.116 583.857 187.481Z" fill="#858686"/>
<path d="M531.977 178.795H534.45V185.842C534.94 185.394 535.366 185.004 535.79 184.61C536.331 184.109 536.866 183.603 537.411 183.108C537.494 183.03 537.601 182.982 537.715 182.971C538.794 182.962 539.873 182.967 540.952 182.968C540.967 182.968 540.982 182.98 541.032 183.002L536.568 187.045L541.596 191.993H541.288C540.381 191.993 539.474 191.987 538.567 191.998C538.473 192.002 538.38 191.985 538.294 191.949C538.208 191.913 538.132 191.859 538.07 191.79C536.96 190.663 535.846 189.54 534.729 188.42C534.66 188.352 534.587 188.288 534.47 188.178V191.972H531.976L531.977 178.795Z" fill="#858686"/>
<path d="M638.917 191.979H636.451V178.805H638.901V183.559C639.223 183.392 639.499 183.229 639.787 183.103C641.647 182.296 643.924 183.018 644.951 184.739C645.371 185.442 645.51 186.226 645.522 187.022C645.544 188.638 645.528 190.254 645.528 191.87C645.525 191.904 645.52 191.938 645.514 191.972H643.051V191.654C643.051 190.172 643.055 188.69 643.048 187.208C643.045 186.958 643.02 186.71 642.975 186.465C642.782 185.385 641.841 184.972 640.961 185.041C640.276 185.095 639.697 185.391 639.193 185.84C639.099 185.916 639.025 186.012 638.975 186.121C638.925 186.23 638.902 186.348 638.906 186.467C638.919 188.19 638.913 189.914 638.913 191.637L638.917 191.979Z" fill="#858686"/>
<path d="M516.521 187.502C516.539 190.105 514.388 192.235 511.534 192.182C508.95 192.134 506.77 190.242 506.759 187.503C506.748 184.765 508.954 182.764 511.683 182.775C514.412 182.787 516.521 184.841 516.521 187.502ZM509.254 187.488C509.254 188.885 510.277 189.932 511.64 189.93C513.003 189.928 514.044 188.877 514.043 187.492C514.043 186.096 512.992 185.022 511.632 185.028C510.272 185.033 509.254 186.088 509.254 187.488Z" fill="#858686"/>
<path d="M597.641 188.11C597.771 189.02 598.245 189.658 599.075 190.003C600.007 190.39 601.153 190.313 602.379 189.199L603.794 190.596C603.624 190.754 603.434 190.953 603.222 191.122C601.512 192.476 598.835 192.549 597.061 191.279C595.891 190.442 595.332 189.264 595.241 187.873C595.152 186.517 595.505 185.284 596.406 184.219C597.861 182.5 600.755 182.276 602.437 183.775C603.667 184.872 604.124 186.262 604.006 187.867C603.99 188.074 603.916 188.114 603.725 188.113C601.802 188.107 599.879 188.11 597.956 188.11H597.641ZM601.475 186.297C601.351 185.352 600.516 184.693 599.536 184.764C598.555 184.836 597.784 185.675 597.794 186.297H601.475Z" fill="#858686"/>
<path d="M608.906 182.98H611.283V183.623C611.586 183.455 611.857 183.286 612.143 183.15C614.423 182.074 617.654 183.347 617.923 186.399C618.006 187.348 617.977 188.306 617.984 189.259C617.994 190.16 617.984 191.06 617.984 191.976H615.507V191.665C615.507 190.147 615.513 188.63 615.507 187.111C615.507 186.599 615.437 186.093 615.091 185.676C614.666 185.165 614.088 184.996 613.443 185.038C612.748 185.083 612.159 185.382 611.651 185.841C611.558 185.918 611.484 186.014 611.436 186.123C611.386 186.231 611.363 186.35 611.367 186.468C611.38 188.191 611.374 189.914 611.374 191.637V191.971H608.906V182.98Z" fill="#858686"/>
<path d="M629.873 188.741L631.767 190.137C631.133 190.991 630.349 191.637 629.325 191.933C627.801 192.375 626.308 192.294 624.926 191.466C623.594 190.669 622.836 189.48 622.702 187.952C622.464 185.224 624.358 183.045 627.159 182.805C628.805 182.665 630.202 183.192 631.324 184.398C631.379 184.457 631.423 184.524 631.483 184.6L629.73 186.116C629.15 185.419 628.435 185.004 627.518 185.034C627.186 185.041 626.86 185.116 626.56 185.256C626.26 185.395 625.994 185.595 625.777 185.842C624.887 186.823 624.973 188.471 625.953 189.317C627.11 190.319 628.635 190.1 629.873 188.741Z" fill="#858686"/>
<path d="M523.786 183.809C524.82 182.856 525.977 182.649 527.278 182.857C527.181 183.627 527.089 184.364 527.006 185.041C526.488 185.064 526.005 185.037 525.543 185.119C524.906 185.233 524.405 185.614 524.026 186.125C523.931 186.263 523.88 186.424 523.878 186.59C523.867 188.287 523.871 189.982 523.871 191.68V191.981H521.414V182.981H523.787L523.786 183.809Z" fill="#858686"/>
</g>
</g>
<g filter="url(#filter4_d_4523_868)">
<path d="M369.045 197.647L460.484 197.647L506.204 276.835L460.484 356.024L369.045 356.024L323.325 276.835L369.045 197.647Z" fill="white" stroke="url(#paint4_linear_4523_868)" stroke-width="4"/>
<image href="assets/img/investors/uncorrelated-ventures.png" x="363.719" y="281.517" width="102.295" height="33.1828" loading="lazy"/>
<path d="M419.387 239.048C422.487 239.048 425.586 239.048 428.78 239.048C428.8 241.215 428.816 243.381 428.827 245.548C428.831 246.284 428.837 247.02 428.844 247.756C428.855 248.819 428.859 249.881 428.863 250.944C428.868 251.269 428.872 251.594 428.877 251.928C428.877 256.33 427.646 259.666 424.638 262.872C422.375 264.992 419.322 266.434 416.203 266.442C415.751 266.419 415.299 266.395 414.834 266.371C414.834 268.25 414.834 270.128 414.834 272.063C410.638 272.063 407.331 270.792 404.303 267.794C402.196 265.067 400.847 262.208 400.855 258.737C400.855 258.418 400.855 258.099 400.855 257.771C400.857 257.431 400.858 257.091 400.86 256.741C400.86 256.389 400.86 256.038 400.861 255.676C400.862 254.557 400.866 253.437 400.87 252.318C400.871 251.558 400.872 250.798 400.873 250.038C400.876 248.177 400.882 246.316 400.887 244.456C403.987 244.456 407.086 244.456 410.28 244.456C410.287 245.545 410.294 246.635 410.302 247.758C410.313 248.815 410.326 249.871 410.339 250.928C410.347 251.662 410.353 252.396 410.357 253.13C410.363 254.185 410.376 255.241 410.391 256.296C410.391 256.623 410.392 256.951 410.392 257.288C410.431 259.446 410.679 260.509 412.219 262.049C413.019 262.53 413.019 262.53 414.834 262.671C414.834 260.887 414.834 259.102 414.834 257.263C415.679 256.982 416.524 256.7 417.395 256.41C418.137 255.776 418.668 255.287 419.103 254.417C419.137 253.926 419.153 253.434 419.161 252.942C419.167 252.634 419.173 252.326 419.178 252.009C419.183 251.676 419.188 251.343 419.193 251C419.202 250.489 419.202 250.489 419.211 249.968C419.229 248.878 419.246 247.787 419.263 246.697C419.275 245.959 419.288 245.221 419.3 244.483C419.331 242.672 419.359 240.86 419.387 239.048Z" fill="#7C7C7C"/>
</g>
<g filter="url(#filter5_d_4523_868)">
<path d="M826.427 106.699L917.37 106.699L962.841 185.457L917.37 264.216L826.427 264.216L780.956 185.457L826.427 106.699Z" fill="white" stroke="url(#paint5_linear_4523_868)" stroke-width="4"/>
<image href="assets/img/investors/468-capital.png" x="800.787" y="171.76" width="142.425" height="27.4729" loading="lazy"/>
</g>
<g filter="url(#filter6_d_4523_868)">
<path d="M222.159 288.742L313.101 288.742L358.572 367.5L313.101 446.259L222.159 446.259L176.688 367.5L222.159 288.742Z" fill="#83FF50" fill-opacity="0.2"/>
<path d="M177.265 367.5L222.447 289.242L312.813 289.242L357.995 367.5L312.813 445.759L222.447 445.759L177.265 367.5Z" stroke="white" stroke-opacity="0.6"/>
<image href="assets/img/investors/spencer-kimball.png" x="242.889" y="320.604" width="49.0213" height="48" rx="24" loading="lazy"/>
<text fill="black" xml:space="preserve" style="white-space: pre" font-size="14" font-weight="bold" letter-spacing="0em"><tspan x="212.5" y="383.202">Spencer Kimball</tspan></text>
<text fill="black" xml:space="preserve" style="white-space: pre" font-size="12" letter-spacing="0em"><tspan x="254.392" y="402.698">CEO&#10;</tspan><tspan x="224.017" y="416.698">Cockroach Labs</tspan></text>
</g>
<g filter="url(#filter7_d_4523_868)">
<path d="M826.427 288.742L917.37 288.742L962.841 367.5L917.37 446.259L826.427 446.259L780.956 367.5L826.427 288.742Z" fill="#83FF50" fill-opacity="0.2"/>
<path d="M781.534 367.5L826.716 289.242L917.081 289.242L962.264 367.5L917.081 445.759L826.716 445.759L781.534 367.5Z" stroke="white" stroke-opacity="0.6"/>
<image href="assets/img/investors/dan-barak.png" x="847.893" y="318.289" width="48" height="48" rx="24" loading="lazy"/>
<text fill="black" xml:space="preserve" style="white-space: pre" font-size="14" font-weight="bold" letter-spacing="0em"><tspan x="837.235" y="383.119">Dan Barak</tspan></text>
<text fill="black" xml:space="preserve" style="white-space: pre" font-size="12" letter-spacing="0em"><tspan x="849.188" y="404.429">Head of &#10;</tspan><tspan x="826.167" y="418.429">Product at Netlify</tspan></text>
</g>
<g filter="url(#filter8_d_4523_868)">
<path d="M222.159 106.699L313.101 106.699L358.572 185.457L313.101 264.216L222.159 264.216L176.688 185.457L222.159 106.699Z" fill="#83FF50" fill-opacity="0.2"/>
<path d="M177.265 185.457L222.447 107.199L312.813 107.199L357.995 185.457L312.813 263.716L222.447 263.716L177.265 185.457Z" stroke="white" stroke-opacity="0.6"/>
<image href="assets/img/investors/olivier-pomel.png" x="243.414" y="136.674" width="48" height="48" rx="24" loading="lazy"/>
<text fill="black" xml:space="preserve" style="white-space: pre" font-size="14" font-weight="bold" letter-spacing="0em"><tspan x="222.632" y="201.503">Olivier Pomel</tspan></text>
<text fill="black" xml:space="preserve" style="white-space: pre" font-size="12" letter-spacing="0em"><tspan x="254.406" y="222.813">CEO&#10;</tspan><tspan x="244.709" y="236.813">Datadog</tspan></text>
</g>
<g filter="url(#filter9_d_4523_868)">
<path d="M1129.12 106.699L1220.06 106.699L1265.53 185.457L1220.06 264.216L1129.12 264.216L1083.65 185.457L1129.12 106.699Z" fill="#83FF50" fill-opacity="0.2"/>
<path d="M1084.22 185.457L1129.41 107.199L1219.77 107.199L1264.95 185.457L1219.77 263.716L1129.41 263.716L1084.22 185.457Z" stroke="white" stroke-opacity="0.6"/>
<image href="assets/img/investors/cosmin-nicolaescu.png" x="1150.73" y="128.229" width="48" height="48" rx="24" loading="lazy"/>
<text fill="black" xml:space="preserve" style="white-space: pre" font-size="14" font-weight="bold" letter-spacing="0em"><tspan x="1147.09" y="193.058">Cosmin &#10;</tspan><tspan x="1137.73" y="209.058">Nicolaescu</tspan></text>
<text fill="black" xml:space="preserve" style="white-space: pre" font-size="12" letter-spacing="0em"><tspan x="1162.16" y="230.368">CTO&#10;</tspan><tspan x="1162.39" y="244.368">Brex</tspan></text>
</g>
<g filter="url(#filter10_d_4523_868)">
<path d="M369.293 14.6011L460.235 14.6011L505.707 93.3595L460.235 172.118L369.293 172.118L323.822 93.3595L369.293 14.6011Z" fill="#00D5FF" fill-opacity="0.17"/>
<path d="M324.399 93.3595L369.582 15.1011L459.947 15.1011L505.129 93.3595L459.947 171.618L369.582 171.618L324.399 93.3595Z" stroke="white" stroke-opacity="0.6"/>
<image href="assets/img/investors/florian-leibert.png" x="390.866" y="43.8723" width="48" height="48" rx="24" loading="lazy"/>
<text fill="black" xml:space="preserve" style="white-space: pre" font-size="12.7936" font-weight="bold" letter-spacing="0em"><tspan x="370.394" y="107.252">Florian Leibert</tspan></text>
<text fill="black" xml:space="preserve" style="white-space: pre" font-size="10.9659" letter-spacing="0em"><tspan x="389.239" y="127.104">Cofounder&#10;</tspan><tspan x="384.677" y="139.898">Mesosphere</tspan></text>
</g>
<g filter="url(#filter11_d_4523_868)">
<path d="M979.336 14.6011L1070.28 14.6011L1115.75 93.3595L1070.28 172.118L979.336 172.118L933.864 93.3595L979.336 14.6011Z" fill="#00D5FF" fill-opacity="0.17"/>
<path d="M934.442 93.3595L979.624 15.1011L1069.99 15.1011L1115.17 93.3595L1069.99 171.618L979.624 171.618L934.442 93.3595Z" stroke="white" stroke-opacity="0.6"/>
<image href="assets/img/investors/jeff-dean.png" x="1000.42" y="37.6719" width="48" height="48" rx="24" loading="lazy"/>
<text fill="black" xml:space="preserve" style="white-space: pre" font-size="14" font-weight="bold" letter-spacing="0em"><tspan x="992.887" y="102.501">Jeff Dean</tspan></text>
<text fill="black" xml:space="preserve" style="white-space: pre" font-size="12" letter-spacing="0em"><tspan x="984.366" y="123.812">Chief Scientist, </tspan><tspan x="974.347" y="137.812">Google DeepMind, </tspan><tspan x="986.03" y="151.812">Google Fellow</tspan></text>
</g>
<g filter="url(#filter12_d_4523_868)">
<path d="M369.293 381.182L460.235 381.182L505.707 459.941L460.235 538.699L369.293 538.699L323.822 459.941L369.293 381.182Z" fill="#00D5FF" fill-opacity="0.17"/>
<path d="M324.399 459.941L369.582 381.682L459.947 381.682L505.129 459.941L459.947 538.199L369.582 538.199L324.399 459.941Z" stroke="white" stroke-opacity="0.6"/>
<image href="assets/img/investors/ben-hindman.png" x="390.958" y="417.739" width="48" height="48" rx="24" loading="lazy"/>
<text fill="black" xml:space="preserve" style="white-space: pre" font-size="14" font-weight="bold" letter-spacing="0em"><tspan x="369.806" y="482.569">Ben Hindman</tspan></text>
<text fill="black" xml:space="preserve" style="white-space: pre" font-size="12" letter-spacing="0em"><tspan x="368.909" y="503.879">Creator of Mesos</tspan></text>
</g>
<g filter="url(#filter13_d_4523_868)">
<path d="M71.7931 14.6011L162.735 14.6011L208.207 93.3595L162.735 172.118L71.7931 172.118L26.3219 93.3595L71.7931 14.6011Z" fill="#83FF50" fill-opacity="0.2"/>
<path d="M26.8992 93.3595L72.0818 15.1011L162.447 15.1011L207.629 93.3595L162.447 171.618L72.0818 171.618L26.8992 93.3595Z" stroke="white" stroke-opacity="0.6"/>
<g clip-path="url(#clip1_4523_868)">
<image href="assets/img/investors/shanku-niyogi.png" x="93.3657" y="29.9214" width="48" height="48" rx="24" loading="lazy"/>
</g>
<text fill="black" xml:space="preserve" style="white-space: pre" font-size="14" font-weight="bold" letter-spacing="0em"><tspan x="68.7075" y="92.5198">Shanku Niyogi</tspan></text>
<text fill="black" xml:space="preserve" style="white-space: pre" font-size="12" letter-spacing="0em"><tspan x="54.6411" y="112.016">Former PM of VScode, &#10;</tspan><tspan x="74.3052" y="126.016">GitHub Actions, &#10;</tspan><tspan x="79.6489" y="140.016">Codespace &#38; &#10;</tspan><tspan x="98.6685" y="154.016">Copilot</tspan></text>
</g>
<g filter="url(#filter14_d_4523_868)">
<path d="M1277.66 14.6011L1368.6 14.6011L1414.07 93.3595L1368.6 172.118L1277.66 172.118L1232.19 93.3595L1277.66 14.6011Z" fill="#83FF50" fill-opacity="0.2"/>
<path d="M1232.76 93.3595L1277.95 15.1011L1368.31 15.1011L1413.49 93.3595L1368.31 171.618L1277.95 171.618L1232.76 93.3595Z" stroke="white" stroke-opacity="0.6"/>
<g clip-path="url(#clip2_4523_868)">
<image href="assets/img/investors/david-cramer.png" x="1299.49" y="46.2849" width="48" height="48" rx="24" loading="lazy"/>
</g>
<text fill="black" xml:space="preserve" style="white-space: pre" font-size="14" font-weight="bold" letter-spacing="0em"><tspan x="1277.93" y="108.883">David Cramer</tspan></text>
<text fill="black" xml:space="preserve" style="white-space: pre" font-size="12" letter-spacing="0em"><tspan x="1301.12" y="128.379">Founder&#10;</tspan><tspan x="1306.14" y="142.379">Sentry</tspan></text>
</g>
<g filter="url(#filter15_d_4523_868)">
<path d="M979.336 381.182L1070.28 381.182L1115.75 459.941L1070.28 538.699L979.336 538.699L933.864 459.941L979.336 381.182Z" fill="#00D5FF" fill-opacity="0.17"/>
<path d="M934.442 459.941L979.624 381.682L1069.99 381.682L1115.17 459.941L1069.99 538.199L979.624 538.199L934.442 459.941Z" stroke="white" stroke-opacity="0.6"/>
<image href="assets/img/investors/david-aronchick.png" x="1000.91" y="394.479" width="48" height="48" rx="24" loading="lazy"/>
<text fill="black" xml:space="preserve" style="white-space: pre" font-size="14" font-weight="bold" letter-spacing="0em"><tspan x="969.879" y="459.309">David Aronchick</tspan></text>
<text fill="black" xml:space="preserve" style="white-space: pre" font-size="12" letter-spacing="0em"><tspan x="986.547" y="480.619">Former PM of &#10;</tspan><tspan x="990.859" y="494.619">Kubernetes, &#10;</tspan><tspan x="996.537" y="508.619">Creator of &#10;</tspan><tspan x="998.207" y="522.619">KubeFlow</tspan></text>
</g>
<g filter="url(#filter16_d_4523_868)">
<path d="M521.336 288.742L612.278 288.742L657.749 367.5L612.278 446.259L521.336 446.259L475.864 367.5L521.336 288.742Z" fill="#83FF50" fill-opacity="0.2"/>
<path d="M476.442 367.5L521.624 289.242L611.989 289.242L657.172 367.5L611.989 445.759L521.624 445.759L476.442 367.5Z" stroke="white" stroke-opacity="0.6"/>
<image href="assets/img/investors/mitch-wainer.png" x="542.721" y="318.518" width="48" height="48" rx="24" loading="lazy"/>
<text fill="black" xml:space="preserve" style="white-space: pre" font-size="14" font-weight="bold" letter-spacing="0em"><tspan x="523.388" y="383.347">Mitch Wainer</tspan></text>
<text fill="black" xml:space="preserve" style="white-space: pre" font-size="12" letter-spacing="0em"><tspan x="538.678" y="404.657">Cofounder&#10;</tspan><tspan x="532.338" y="418.657">DigitalOcean</tspan></text>
</g>
<g filter="url(#filter17_d_4523_868)">
<path d="M1084.22 367.5L1129.41 289.242L1219.77 289.242L1264.95 367.5L1219.77 445.759L1129.41 445.759L1084.22 367.5Z" fill="#83FF50" fill-opacity="0.2" stroke="white"/>
<image href="assets/img/investors/charlie-marsh.png" x="1150.73" y="325.514" width="48" height="48" rx="24" loading="lazy"/>
<text fill="black" xml:space="preserve" style="white-space: pre" font-size="14" font-weight="bold" letter-spacing="0em"><tspan x="1128.39" y="390.343">Charlie Marsh</tspan></text>
<text fill="black" xml:space="preserve" style="white-space: pre" font-size="12" letter-spacing="0em"><tspan x="1113.75" y="411.653">Creator of Ruff and UV</tspan></text>
</g>
<g filter="url(#filter18_d_4523_868)">
<path d="M674.127 381.182L765.069 381.182L810.54 459.941L765.069 538.699L674.127 538.699L628.655 459.941L674.127 381.182Z" fill="#00D5FF" fill-opacity="0.17"/>
<path d="M629.233 459.941L674.415 381.682L764.78 381.682L809.963 459.941L764.78 538.199L674.415 538.199L629.233 459.941Z" stroke="white" stroke-opacity="0.6"/>
<image href="assets/img/investors/mirko-novakovic.png" x="695.688" y="411.247" width="48" height="48" rx="24" loading="lazy"/>
<text fill="black" xml:space="preserve" style="white-space: pre" font-size="14" font-weight="bold" letter-spacing="0em"><tspan x="664.01" y="476.077">Mirko Novakovic</tspan></text>
<text fill="black" xml:space="preserve" style="white-space: pre" font-size="12" letter-spacing="0em"><tspan x="697.323" y="497.387">Founder&#10;</tspan><tspan x="699.989" y="511.387">Instana</tspan></text>
</g>
<g filter="url(#filter19_d_4523_868)">
<path d="M71.7931 198.077L162.735 198.077L208.207 276.835L162.735 355.593L71.7931 355.593L26.3219 276.835L71.7931 198.077Z" fill="#00D5FF" fill-opacity="0.17"/>
<path d="M26.8992 276.835L72.0818 198.577L162.447 198.577L207.629 276.835L162.447 355.093L72.0818 355.093L26.8992 276.835Z" stroke="white" stroke-opacity="0.6"/>
<image href="assets/img/investors/wes-mckinney.png" x="93.707" y="220.915" width="47.499" height="48" rx="23.7495" loading="lazy"/>
<text fill="black" xml:space="preserve" style="white-space: pre" font-size="14" font-weight="bold" letter-spacing="0em"><tspan x="68.1421" y="285.745">Wes McKinney</tspan></text>
<text fill="black" xml:space="preserve" style="white-space: pre" font-size="12" letter-spacing="0em"><tspan x="67.0542" y="307.055">Creator of Pandas, </tspan><tspan x="73.3999" y="321.055">Python Software </tspan><tspan x="68.3784" y="335.055">Foundation Fellow</tspan></text>
</g>
<g filter="url(#filter20_d_4523_868)">
<path d="M1277.66 198.077L1368.6 198.077L1414.07 276.835L1368.6 355.593L1277.66 355.593L1232.19 276.835L1277.66 198.077Z" fill="#00D5FF" fill-opacity="0.17"/>
<path d="M1232.76 276.835L1277.95 198.577L1368.31 198.577L1413.49 276.835L1368.31 355.093L1277.95 355.093L1232.76 276.835Z" stroke="white" stroke-opacity="0.6"/>
<image href="assets/img/investors/josé-valim.png" x="1299.4" y="237.931" width="48" height="48" rx="24" loading="lazy"/>
<text fill="black" xml:space="preserve" style="white-space: pre" font-size="14" font-weight="bold" letter-spacing="0em"><tspan x="1287.18" y="300.529">Jos&#xe9; Valim</tspan></text>
<text fill="black" xml:space="preserve" style="white-space: pre" font-size="12" letter-spacing="0em"><tspan x="1282.02" y="318.724">Creator of Elixir</tspan></text>
</g>
<defs>
<filter id="filter0_d_4523_868" x="618.578" y="4.83356" width="202.039" height="177.052" filterUnits="userSpaceOnUse" color-interpolation-filters="sRGB">
<feFlood flood-opacity="0" result="BackgroundImageFix"/>
<feColorMatrix in="SourceAlpha" type="matrix" values="0 0 0 0 0 0 0 0 0 0 0 0 0 0 0 0 0 0 127 0" result="hardAlpha"/>
<feOffset/>
<feGaussianBlur stdDeviation="3.88376"/>
<feComposite in2="hardAlpha" operator="out"/>
<feColorMatrix type="matrix" values="0 0 0 0 0 0 0 0 0 0 0 0 0 0 0 0 0 0 0.09 0"/>
<feBlend mode="normal" in2="BackgroundImageFix" result="effect1_dropShadow_4523_868"/>
<feBlend mode="normal" in="SourceGraphic" in2="effect1_dropShadow_4523_868" result="shape"/>
</filter>
<filter id="filter1_d_4523_868" x="618.578" y="188.309" width="202.039" height="177.052" filterUnits="userSpaceOnUse" color-interpolation-filters="sRGB">
<feFlood flood-opacity="0" result="BackgroundImageFix"/>
<feColorMatrix in="SourceAlpha" type="matrix" values="0 0 0 0 0 0 0 0 0 0 0 0 0 0 0 0 0 0 127 0" result="hardAlpha"/>
<feOffset/>
<feGaussianBlur stdDeviation="3.88376"/>
<feComposite in2="hardAlpha" operator="out"/>
<feColorMatrix type="matrix" values="0 0 0 0 0 0 0 0 0 0 0 0 0 0 0 0 0 0 0.09 0"/>
<feBlend mode="normal" in2="BackgroundImageFix" result="effect1_dropShadow_4523_868"/>
<feBlend mode="normal" in="SourceGraphic" in2="effect1_dropShadow_4523_868" result="shape"/>
</filter>
<filter id="filter2_d_4523_868" x="923.248" y="187.837" width="203.117" height="177.998" filterUnits="userSpaceOnUse" color-interpolation-filters="sRGB">
<feFlood flood-opacity="0" result="BackgroundImageFix"/>
<feColorMatrix in="SourceAlpha" type="matrix" values="0 0 0 0 0 0 0 0 0 0 0 0 0 0 0 0 0 0 127 0" result="hardAlpha"/>
<feOffset/>
<feGaussianBlur stdDeviation="3.90498"/>
<feComposite in2="hardAlpha" operator="out"/>
<feColorMatrix type="matrix" values="0 0 0 0 0 0 0 0 0 0 0 0 0 0 0 0 0 0 0.09 0"/>
<feBlend mode="normal" in2="BackgroundImageFix" result="effect1_dropShadow_4523_868"/>
<feBlend mode="normal" in="SourceGraphic" in2="effect1_dropShadow_4523_868" result="shape"/>
</filter>
<filter id="filter3_d_4523_868" x="465.787" y="96.9312" width="202.039" height="177.052" filterUnits="userSpaceOnUse" color-interpolation-filters="sRGB">
<feFlood flood-opacity="0" result="BackgroundImageFix"/>
<feColorMatrix in="SourceAlpha" type="matrix" values="0 0 0 0 0 0 0 0 0 0 0 0 0 0 0 0 0 0 127 0" result="hardAlpha"/>
<feOffset/>
<feGaussianBlur stdDeviation="3.88376"/>
<feComposite in2="hardAlpha" operator="out"/>
<feColorMatrix type="matrix" values="0 0 0 0 0 0 0 0 0 0 0 0 0 0 0 0 0 0 0.09 0"/>
<feBlend mode="normal" in2="BackgroundImageFix" result="effect1_dropShadow_4523_868"/>
<feBlend mode="normal" in="SourceGraphic" in2="effect1_dropShadow_4523_868" result="shape"/>
</filter>
<filter id="filter4_d_4523_868" x="313.206" y="187.837" width="203.118" height="177.998" filterUnits="userSpaceOnUse" color-interpolation-filters="sRGB">
<feFlood flood-opacity="0" result="BackgroundImageFix"/>
<feColorMatrix in="SourceAlpha" type="matrix" values="0 0 0 0 0 0 0 0 0 0 0 0 0 0 0 0 0 0 127 0" result="hardAlpha"/>
<feOffset/>
<feGaussianBlur stdDeviation="3.90499"/>
<feComposite in2="hardAlpha" operator="out"/>
<feColorMatrix type="matrix" values="0 0 0 0 0 0 0 0 0 0 0 0 0 0 0 0 0 0 0.09 0"/>
<feBlend mode="normal" in2="BackgroundImageFix" result="effect1_dropShadow_4523_868"/>
<feBlend mode="normal" in="SourceGraphic" in2="effect1_dropShadow_4523_868" result="shape"/>
</filter>
<filter id="filter5_d_4523_868" x="770.879" y="96.9312" width="202.039" height="177.052" filterUnits="userSpaceOnUse" color-interpolation-filters="sRGB">
<feFlood flood-opacity="0" result="BackgroundImageFix"/>
<feColorMatrix in="SourceAlpha" type="matrix" values="0 0 0 0 0 0 0 0 0 0 0 0 0 0 0 0 0 0 127 0" result="hardAlpha"/>
<feOffset/>
<feGaussianBlur stdDeviation="3.88376"/>
<feComposite in2="hardAlpha" operator="out"/>
<feColorMatrix type="matrix" values="0 0 0 0 0 0 0 0 0 0 0 0 0 0 0 0 0 0 0.09 0"/>
<feBlend mode="normal" in2="BackgroundImageFix" result="effect1_dropShadow_4523_868"/>
<feBlend mode="normal" in="SourceGraphic" in2="effect1_dropShadow_4523_868" result="shape"/>
</filter>
<filter id="filter6_d_4523_868" x="168.464" y="280.441" width="198.535" height="174.195" filterUnits="userSpaceOnUse" color-interpolation-filters="sRGB">
<feFlood flood-opacity="0" result="BackgroundImageFix"/>
<feColorMatrix in="SourceAlpha" type="matrix" values="0 0 0 0 0 0 0 0 0 0 0 0 0 0 0 0 0 0 127 0" result="hardAlpha"/>
<feOffset/>
<feGaussianBlur stdDeviation="3.88376"/>
<feComposite in2="hardAlpha" operator="out"/>
<feColorMatrix type="matrix" values="0 0 0 0 0 0 0 0 0 0 0 0 0 0 0 0 0 0 0.09 0"/>
<feBlend mode="normal" in2="BackgroundImageFix" result="effect1_dropShadow_4523_868"/>
<feBlend mode="normal" in="SourceGraphic" in2="effect1_dropShadow_4523_868" result="shape"/>
</filter>
<filter id="filter7_d_4523_868" x="772.732" y="280.441" width="198.535" height="174.195" filterUnits="userSpaceOnUse" color-interpolation-filters="sRGB">
<feFlood flood-opacity="0" result="BackgroundImageFix"/>
<feColorMatrix in="SourceAlpha" type="matrix" values="0 0 0 0 0 0 0 0 0 0 0 0 0 0 0 0 0 0 127 0" result="hardAlpha"/>
<feOffset/>
<feGaussianBlur stdDeviation="3.88376"/>
<feComposite in2="hardAlpha" operator="out"/>
<feColorMatrix type="matrix" values="0 0 0 0 0 0 0 0 0 0 0 0 0 0 0 0 0 0 0.09 0"/>
<feBlend mode="normal" in2="BackgroundImageFix" result="effect1_dropShadow_4523_868"/>
<feBlend mode="normal" in="SourceGraphic" in2="effect1_dropShadow_4523_868" result="shape"/>
</filter>
<filter id="filter8_d_4523_868" x="168.464" y="98.3985" width="198.535" height="174.195" filterUnits="userSpaceOnUse" color-interpolation-filters="sRGB">
<feFlood flood-opacity="0" result="BackgroundImageFix"/>
<feColorMatrix in="SourceAlpha" type="matrix" values="0 0 0 0 0 0 0 0 0 0 0 0 0 0 0 0 0 0 127 0" result="hardAlpha"/>
<feOffset/>
<feGaussianBlur stdDeviation="3.88376"/>
<feComposite in2="hardAlpha" operator="out"/>
<feColorMatrix type="matrix" values="0 0 0 0 0 0 0 0 0 0 0 0 0 0 0 0 0 0 0.09 0"/>
<feBlend mode="normal" in2="BackgroundImageFix" result="effect1_dropShadow_4523_868"/>
<feBlend mode="normal" in="SourceGraphic" in2="effect1_dropShadow_4523_868" result="shape"/>
</filter>
<filter id="filter9_d_4523_868" x="1075.42" y="98.3985" width="198.535" height="174.195" filterUnits="userSpaceOnUse" color-interpolation-filters="sRGB">
<feFlood flood-opacity="0" result="BackgroundImageFix"/>
<feColorMatrix in="SourceAlpha" type="matrix" values="0 0 0 0 0 0 0 0 0 0 0 0 0 0 0 0 0 0 127 0" result="hardAlpha"/>
<feOffset/>
<feGaussianBlur stdDeviation="3.88376"/>
<feComposite in2="hardAlpha" operator="out"/>
<feColorMatrix type="matrix" values="0 0 0 0 0 0 0 0 0 0 0 0 0 0 0 0 0 0 0.09 0"/>
<feBlend mode="normal" in2="BackgroundImageFix" result="effect1_dropShadow_4523_868"/>
<feBlend mode="normal" in="SourceGraphic" in2="effect1_dropShadow_4523_868" result="shape"/>
</filter>
<filter id="filter10_d_4523_868" x="315.598" y="6.30084" width="198.535" height="174.195" filterUnits="userSpaceOnUse" color-interpolation-filters="sRGB">
<feFlood flood-opacity="0" result="BackgroundImageFix"/>
<feColorMatrix in="SourceAlpha" type="matrix" values="0 0 0 0 0 0 0 0 0 0 0 0 0 0 0 0 0 0 127 0" result="hardAlpha"/>
<feOffset/>
<feGaussianBlur stdDeviation="3.88376"/>
<feComposite in2="hardAlpha" operator="out"/>
<feColorMatrix type="matrix" values="0 0 0 0 0 0 0 0 0 0 0 0 0 0 0 0 0 0 0.09 0"/>
<feBlend mode="normal" in2="BackgroundImageFix" result="effect1_dropShadow_4523_868"/>
<feBlend mode="normal" in="SourceGraphic" in2="effect1_dropShadow_4523_868" result="shape"/>
</filter>
<filter id="filter11_d_4523_868" x="925.641" y="6.30084" width="198.535" height="174.195" filterUnits="userSpaceOnUse" color-interpolation-filters="sRGB">
<feFlood flood-opacity="0" result="BackgroundImageFix"/>
<feColorMatrix in="SourceAlpha" type="matrix" values="0 0 0 0 0 0 0 0 0 0 0 0 0 0 0 0 0 0 127 0" result="hardAlpha"/>
<feOffset/>
<feGaussianBlur stdDeviation="3.88376"/>
<feComposite in2="hardAlpha" operator="out"/>
<feColorMatrix type="matrix" values="0 0 0 0 0 0 0 0 0 0 0 0 0 0 0 0 0 0 0.09 0"/>
<feBlend mode="normal" in2="BackgroundImageFix" result="effect1_dropShadow_4523_868"/>
<feBlend mode="normal" in="SourceGraphic" in2="effect1_dropShadow_4523_868" result="shape"/>
</filter>
<filter id="filter12_d_4523_868" x="315.598" y="372.882" width="198.535" height="174.195" filterUnits="userSpaceOnUse" color-interpolation-filters="sRGB">
<feFlood flood-opacity="0" result="BackgroundImageFix"/>
<feColorMatrix in="SourceAlpha" type="matrix" values="0 0 0 0 0 0 0 0 0 0 0 0 0 0 0 0 0 0 127 0" result="hardAlpha"/>
<feOffset/>
<feGaussianBlur stdDeviation="3.88376"/>
<feComposite in2="hardAlpha" operator="out"/>
<feColorMatrix type="matrix" values="0 0 0 0 0 0 0 0 0 0 0 0 0 0 0 0 0 0 0.09 0"/>
<feBlend mode="normal" in2="BackgroundImageFix" result="effect1_dropShadow_4523_868"/>
<feBlend mode="normal" in="SourceGraphic" in2="effect1_dropShadow_4523_868" result="shape"/>
</filter>
<filter id="filter13_d_4523_868" x="18.0982" y="6.30084" width="198.535" height="174.195" filterUnits="userSpaceOnUse" color-interpolation-filters="sRGB">
<feFlood flood-opacity="0" result="BackgroundImageFix"/>
<feColorMatrix in="SourceAlpha" type="matrix" values="0 0 0 0 0 0 0 0 0 0 0 0 0 0 0 0 0 0 127 0" result="hardAlpha"/>
<feOffset/>
<feGaussianBlur stdDeviation="3.88376"/>
<feComposite in2="hardAlpha" operator="out"/>
<feColorMatrix type="matrix" values="0 0 0 0 0 0 0 0 0 0 0 0 0 0 0 0 0 0 0.09 0"/>
<feBlend mode="normal" in2="BackgroundImageFix" result="effect1_dropShadow_4523_868"/>
<feBlend mode="normal" in="SourceGraphic" in2="effect1_dropShadow_4523_868" result="shape"/>
</filter>
<filter id="filter14_d_4523_868" x="1223.96" y="6.30084" width="198.535" height="174.195" filterUnits="userSpaceOnUse" color-interpolation-filters="sRGB">
<feFlood flood-opacity="0" result="BackgroundImageFix"/>
<feColorMatrix in="SourceAlpha" type="matrix" values="0 0 0 0 0 0 0 0 0 0 0 0 0 0 0 0 0 0 127 0" result="hardAlpha"/>
<feOffset/>
<feGaussianBlur stdDeviation="3.88376"/>
<feComposite in2="hardAlpha" operator="out"/>
<feColorMatrix type="matrix" values="0 0 0 0 0 0 0 0 0 0 0 0 0 0 0 0 0 0 0.09 0"/>
<feBlend mode="normal" in2="BackgroundImageFix" result="effect1_dropShadow_4523_868"/>
<feBlend mode="normal" in="SourceGraphic" in2="effect1_dropShadow_4523_868" result="shape"/>
</filter>
<filter id="filter15_d_4523_868" x="925.641" y="372.882" width="198.535" height="174.195" filterUnits="userSpaceOnUse" color-interpolation-filters="sRGB">
<feFlood flood-opacity="0" result="BackgroundImageFix"/>
<feColorMatrix in="SourceAlpha" type="matrix" values="0 0 0 0 0 0 0 0 0 0 0 0 0 0 0 0 0 0 127 0" result="hardAlpha"/>
<feOffset/>
<feGaussianBlur stdDeviation="3.88376"/>
<feComposite in2="hardAlpha" operator="out"/>
<feColorMatrix type="matrix" values="0 0 0 0 0 0 0 0 0 0 0 0 0 0 0 0 0 0 0.09 0"/>
<feBlend mode="normal" in2="BackgroundImageFix" result="effect1_dropShadow_4523_868"/>
<feBlend mode="normal" in="SourceGraphic" in2="effect1_dropShadow_4523_868" result="shape"/>
</filter>
<filter id="filter16_d_4523_868" x="467.641" y="280.441" width="198.535" height="174.195" filterUnits="userSpaceOnUse" color-interpolation-filters="sRGB">
<feFlood flood-opacity="0" result="BackgroundImageFix"/>
<feColorMatrix in="SourceAlpha" type="matrix" values="0 0 0 0 0 0 0 0 0 0 0 0 0 0 0 0 0 0 127 0" result="hardAlpha"/>
<feOffset/>
<feGaussianBlur stdDeviation="3.88376"/>
<feComposite in2="hardAlpha" operator="out"/>
<feColorMatrix type="matrix" values="0 0 0 0 0 0 0 0 0 0 0 0 0 0 0 0 0 0 0.09 0"/>
<feBlend mode="normal" in2="BackgroundImageFix" result="effect1_dropShadow_4523_868"/>
<feBlend mode="normal" in="SourceGraphic" in2="effect1_dropShadow_4523_868" result="shape"/>
</filter>
<filter id="filter17_d_4523_868" x="1075.42" y="280.441" width="198.535" height="174.195" filterUnits="userSpaceOnUse" color-interpolation-filters="sRGB">
<feFlood flood-opacity="0" result="BackgroundImageFix"/>
<feColorMatrix in="SourceAlpha" type="matrix" values="0 0 0 0 0 0 0 0 0 0 0 0 0 0 0 0 0 0 127 0" result="hardAlpha"/>
<feOffset/>
<feGaussianBlur stdDeviation="3.88376"/>
<feComposite in2="hardAlpha" operator="out"/>
<feColorMatrix type="matrix" values="0 0 0 0 0 0 0 0 0 0 0 0 0 0 0 0 0 0 0.09 0"/>
<feBlend mode="normal" in2="BackgroundImageFix" result="effect1_dropShadow_4523_868"/>
<feBlend mode="normal" in="SourceGraphic" in2="effect1_dropShadow_4523_868" result="shape"/>
</filter>
<filter id="filter18_d_4523_868" x="620.432" y="372.882" width="198.535" height="174.195" filterUnits="userSpaceOnUse" color-interpolation-filters="sRGB">
<feFlood flood-opacity="0" result="BackgroundImageFix"/>
<feColorMatrix in="SourceAlpha" type="matrix" values="0 0 0 0 0 0 0 0 0 0 0 0 0 0 0 0 0 0 127 0" result="hardAlpha"/>
<feOffset/>
<feGaussianBlur stdDeviation="3.88376"/>
<feComposite in2="hardAlpha" operator="out"/>
<feColorMatrix type="matrix" values="0 0 0 0 0 0 0 0 0 0 0 0 0 0 0 0 0 0 0.09 0"/>
<feBlend mode="normal" in2="BackgroundImageFix" result="effect1_dropShadow_4523_868"/>
<feBlend mode="normal" in="SourceGraphic" in2="effect1_dropShadow_4523_868" result="shape"/>
</filter>
<filter id="filter19_d_4523_868" x="18.0982" y="189.776" width="198.535" height="174.195" filterUnits="userSpaceOnUse" color-interpolation-filters="sRGB">
<feFlood flood-opacity="0" result="BackgroundImageFix"/>
<feColorMatrix in="SourceAlpha" type="matrix" values="0 0 0 0 0 0 0 0 0 0 0 0 0 0 0 0 0 0 127 0" result="hardAlpha"/>
<feOffset/>
<feGaussianBlur stdDeviation="3.88376"/>
<feComposite in2="hardAlpha" operator="out"/>
<feColorMatrix type="matrix" values="0 0 0 0 0 0 0 0 0 0 0 0 0 0 0 0 0 0 0.09 0"/>
<feBlend mode="normal" in2="BackgroundImageFix" result="effect1_dropShadow_4523_868"/>
<feBlend mode="normal" in="SourceGraphic" in2="effect1_dropShadow_4523_868" result="shape"/>
</filter>
<filter id="filter20_d_4523_868" x="1223.96" y="189.776" width="198.535" height="174.195" filterUnits="userSpaceOnUse" color-interpolation-filters="sRGB">
<feFlood flood-opacity="0" result="BackgroundImageFix"/>
<feColorMatrix in="SourceAlpha" type="matrix" values="0 0 0 0 0 0 0 0 0 0 0 0 0 0 0 0 0 0 127 0" result="hardAlpha"/>
<feOffset/>
<feGaussianBlur stdDeviation="3.88376"/>
<feComposite in2="hardAlpha" operator="out"/>
<feColorMatrix type="matrix" values="0 0 0 0 0 0 0 0 0 0 0 0 0 0 0 0 0 0 0.09 0"/>
<feBlend mode="normal" in2="BackgroundImageFix" result="effect1_dropShadow_4523_868"/>
<feBlend mode="normal" in="SourceGraphic" in2="effect1_dropShadow_4523_868" result="shape"/>
</filter>
<linearGradient id="paint0_linear_4523_868" x1="649.745" y1="182.362" x2="792.489" y2="57.1975" gradientUnits="userSpaceOnUse">
<stop stop-color="#00D6FF"/>
<stop offset="1" stop-color="#32F8B9"/>
</linearGradient>
<linearGradient id="paint1_linear_4523_868" x1="649.745" y1="365.838" x2="792.489" y2="240.673" gradientUnits="userSpaceOnUse">
<stop stop-color="#00D6FF"/>
<stop offset="1" stop-color="#32F8B9"/>
</linearGradient>
<linearGradient id="paint2_linear_4523_868" x1="954.573" y1="366.324" x2="1098.1" y2="240.476" gradientUnits="userSpaceOnUse">
<stop stop-color="#00D6FF"/>
<stop offset="1" stop-color="#32F8B9"/>
</linearGradient>
<linearGradient id="paint3_linear_4523_868" x1="496.954" y1="274.46" x2="639.698" y2="149.295" gradientUnits="userSpaceOnUse">
<stop stop-color="#00D6FF"/>
<stop offset="1" stop-color="#32F8B9"/>
</linearGradient>
<linearGradient id="paint4_linear_4523_868" x1="344.53" y1="366.324" x2="488.054" y2="240.476" gradientUnits="userSpaceOnUse">
<stop stop-color="#00D6FF"/>
<stop offset="1" stop-color="#32F8B9"/>
</linearGradient>
<linearGradient id="paint5_linear_4523_868" x1="802.046" y1="274.46" x2="944.79" y2="149.295" gradientUnits="userSpaceOnUse">
<stop stop-color="#00D6FF"/>
<stop offset="1" stop-color="#32F8B9"/>
</linearGradient>
<clipPath id="clip0_4523_868">
<rect width="158.477" height="13.4036" fill="white" transform="translate(487.67 178.795)"/>
</clipPath>
<clipPath id="clip1_4523_868">
<rect x="93.3657" y="29.9214" width="48" height="48" rx="24" fill="white"/>
</clipPath>
<clipPath id="clip2_4523_868">
<rect x="1299.49" y="46.2849" width="48" height="48" rx="24" fill="white"/>
</clipPath>
</defs>
</svg>
