<svg width="59" height="60" viewBox="0 0 59 60" fill="none" xmlns="http://www.w3.org/2000/svg">
  <circle cx="29.5002" cy="30.0837" r="29" fill="#81FEFC" stroke="white"/>
  <circle cx="29.5001" cy="30.0838" r="26.3678" fill="#34F8BB"/>
  <circle cx="29.5006" cy="30.0839" r="23.856" fill="#D7FEF9"/>
  <circle cx="29.5004" cy="30.0839" r="20.6476" fill="white"/>

  <g>
    <path d="M25.2861 38.3859C25.2861 38.3859 24.0622 39.0976 26.1571 39.3384C28.6949 39.6279 29.992 39.5864 32.7887 39.0571C32.7887 39.0571 33.524 39.5181 34.5508 39.9175C28.2813 42.6045 20.3617 39.7618 25.2861 38.3859Z" fill="#5382A1"/>
    <path d="M24.5198 34.8795C24.5198 34.8795 23.1472 35.8956 25.2435 36.1124C27.9545 36.3921 30.0955 36.415 33.8001 35.7016C33.8001 35.7016 34.3125 36.2211 35.1182 36.5052C27.538 38.7218 19.0951 36.68 24.5198 34.8795Z" fill="#5382A1"/>
    <path d="M30.9784 28.9315C32.5232 30.7101 30.5726 32.3106 30.5726 32.3106C30.5726 32.3106 34.4951 30.2857 32.6936 27.75C31.0112 25.3853 29.7209 24.2104 36.7057 20.1594C36.7057 20.1594 25.7419 22.8977 30.9784 28.9315Z" fill="#E76F00"/>
    <path d="M39.2703 40.9794C39.2703 40.9794 40.176 41.7256 38.2729 42.3029C34.654 43.3992 23.2109 43.7302 20.032 42.3466C18.8893 41.8495 21.0322 41.1596 21.7063 41.0148C22.4093 40.8624 22.8111 40.8908 22.8111 40.8908C21.5402 39.9956 14.597 42.6486 19.2842 43.4084C32.067 45.4814 42.586 42.475 39.2703 40.9794Z" fill="#5382A1"/>
    <path d="M25.8744 31.2465C25.8744 31.2465 20.0537 32.6291 23.8131 33.1311C25.4005 33.3436 28.5648 33.2955 31.5124 33.0486C33.9212 32.8454 36.34 32.4133 36.34 32.4133C36.34 32.4133 35.4906 32.7771 34.8761 33.1967C28.9653 34.7513 17.5467 34.0281 20.8339 32.4379C23.614 31.0941 25.8744 31.2465 25.8744 31.2465Z" fill="#5382A1"/>
    <path d="M36.3161 37.0829C42.3247 33.9606 39.5466 30.9601 37.6074 31.3643C37.1322 31.4633 36.9202 31.549 36.9202 31.549C36.9202 31.549 37.0967 31.2726 37.4337 31.1529C41.2699 29.8043 44.2201 35.1307 36.1953 37.2403C36.1953 37.2403 36.2883 37.1573 36.3161 37.0829Z" fill="#5382A1"/>
    <path d="M32.6934 13.6182C32.6934 13.6182 36.0211 16.947 29.5373 22.0657C24.3379 26.1718 28.3517 28.513 29.5351 31.1879C26.5002 28.4497 24.2729 26.0391 25.7671 23.7957C27.9603 20.5024 34.0361 18.9058 32.6934 13.6182Z" fill="#E76F00"/>
    <path d="M26.4648 45.5437C32.2323 45.9129 41.089 45.3389 41.2988 42.6099C41.2988 42.6099 40.8956 43.6444 36.5322 44.466C31.6095 45.3924 25.5381 45.2843 21.937 44.6905C21.937 44.6905 22.6742 45.3007 26.4648 45.5437Z" fill="#5382A1"/>
  </g>
</svg>
