<svg width="45" height="45" viewBox="0 0 45 45" fill="none" xmlns="http://www.w3.org/2000/svg">
<g id="carbon:automatic">
<path id="Vector" d="M22.5 37.9688C19.9249 37.9697 17.3905 37.327 15.1271 36.099C12.8637 34.871 10.9431 33.0967 9.54 30.9375H16.875V28.125H5.625V39.375H8.4375V34.193C10.1557 36.2543 12.3059 37.9129 14.7359 39.0513C17.166 40.1898 19.8165 40.7804 22.5 40.7813V37.9688ZM28.125 14.0625H35.4586C33.6403 11.2676 30.9675 9.13521 27.8385 7.98328C24.7095 6.83135 21.292 6.72157 18.0955 7.67031C14.899 8.61906 12.0948 10.5755 10.1009 13.248C8.10704 15.9204 7.0303 19.1657 7.03125 22.5H4.21875C4.22033 18.7414 5.37991 15.0746 7.53971 11.9986C9.6995 8.92256 12.7546 6.58667 16.2893 5.30882C19.8239 4.03096 23.6665 3.8732 27.294 4.857C30.9215 5.84081 34.1578 7.91839 36.5625 10.807V5.625H39.375V16.875H28.125V14.0625Z" fill="#2D7E5D"/>
<path id="Vector_2" d="M41.1034 31.954V37.8628C41.1034 39.821 37.9292 41.4081 34.0129 41.4081C30.0966 41.4081 26.9224 39.821 26.9224 37.8628V31.954M41.1034 31.954V26.0453M41.1034 31.954C41.1034 33.9122 37.9292 35.4993 34.0129 35.4993C30.0966 35.4993 26.9224 33.9122 26.9224 31.954M26.9224 31.954V26.0453M41.1034 26.0453C41.1034 24.0871 37.9292 22.5 34.0129 22.5C30.0966 22.5 26.9224 24.0871 26.9224 26.0453M41.1034 26.0453C41.1034 28.0034 37.9292 29.5905 34.0129 29.5905C30.0966 29.5905 26.9224 28.0034 26.9224 26.0453" stroke="#2D7E5D" stroke-width="2.36351" stroke-linecap="round" stroke-linejoin="round"/>
</g>
</svg>
