<svg width="18" height="19" viewBox="0 0 18 19" fill="none" xmlns="http://www.w3.org/2000/svg">
<path d="M9.96979 3.06392C10.3011 2.72732 10.6957 2.45963 11.131 2.27629C11.5663 2.09296 12.0335 1.9976 12.5058 1.99573C12.9781 1.99385 13.4461 2.08549 13.8828 2.26536C14.3195 2.44523 14.7163 2.70978 15.0502 3.04374C15.3842 3.3777 15.6487 3.77448 15.8286 4.21118C16.0085 4.64788 16.1001 5.11587 16.0982 5.58816C16.0964 6.06045 16.001 6.5277 15.8177 6.96296C15.6343 7.39821 15.3666 7.79287 15.03 8.12417L12.7575 10.3967L11.6963 9.33692L13.9688 7.06367C14.3587 6.674 14.5778 6.14542 14.5779 5.5942C14.578 5.04299 14.3592 4.51429 13.9695 4.12442C13.5799 3.73455 13.0513 3.51545 12.5001 3.51531C11.9489 3.51517 11.4202 3.734 11.0303 4.12367L8.75704 6.39692L7.69654 5.33642L9.96904 3.06392H9.96979ZM11.5598 7.59392L7.49854 11.6544L6.43804 10.5939L10.4985 6.53342L11.5598 7.59392ZM6.30229 8.85092L4.02979 11.1242C3.63992 11.514 3.4209 12.0428 3.4209 12.5942C3.4209 13.1455 3.63992 13.6743 4.02979 14.0642C4.41966 14.454 4.94843 14.6731 5.49979 14.6731C6.05115 14.6731 6.57992 14.454 6.96979 14.0642L9.24229 11.7909L10.3028 12.8514L8.03029 15.1239C7.35926 15.7951 6.44911 16.1721 5.50005 16.1722C4.551 16.1723 3.64079 15.7953 2.96966 15.1243C2.29853 14.4533 1.92146 13.5431 1.92139 12.5941C1.92132 11.645 2.29826 10.7348 2.96929 10.0637L5.24179 7.79117L6.30304 8.85092H6.30229Z" fill="#000000"/>
</svg>
