<svg width="40" height="40" viewBox="0 0 40 40" fill="none" xmlns="http://www.w3.org/2000/svg">
<path d="M20 33.7068H10.8621C10.0543 33.7068 9.27953 33.3859 8.7083 32.8147C8.13707 32.2434 7.81616 31.4687 7.81616 30.6609V21.523C7.81616 20.7151 8.13707 19.9404 8.7083 19.3692C9.27953 18.7979 10.0543 18.477 10.8621 18.477H26.0919C26.8998 18.477 27.6745 18.7979 28.2457 19.3692C28.817 19.9404 29.1379 20.7151 29.1379 21.523V22.2845" stroke="#2D7E5D" stroke-width="2.8429" stroke-linecap="round" stroke-linejoin="round"/>
<path d="M12.385 18.477V12.3851C12.385 10.7694 13.0268 9.21992 14.1693 8.07746C15.3117 6.93501 16.8613 6.29318 18.4769 6.29318C20.0926 6.29318 21.6421 6.93501 22.7846 8.07746C23.927 9.21992 24.5688 10.7694 24.5688 12.3851V18.477M16.9539 26.0919C16.9539 26.4958 17.1144 26.8832 17.4 27.1688C17.6856 27.4544 18.073 27.6149 18.4769 27.6149C18.8808 27.6149 19.2682 27.4544 19.5538 27.1688C19.8395 26.8832 19.9999 26.4958 19.9999 26.0919C19.9999 25.688 19.8395 25.3006 19.5538 25.015C19.2682 24.7294 18.8808 24.5689 18.4769 24.5689C18.073 24.5689 17.6856 24.7294 17.4 25.015C17.1144 25.3006 16.9539 25.688 16.9539 26.0919Z" stroke="#2D7E5D" stroke-width="2.8429" stroke-linecap="round" stroke-linejoin="round"/>
<path d="M22.5886 30.305C22.2239 30.6698 22.2239 31.2611 22.5886 31.6259L28.5323 37.5695C28.897 37.9343 29.4884 37.9343 29.8531 37.5695C30.2178 37.2048 30.2178 36.6135 29.8531 36.2487L24.5698 30.9655L29.8531 25.6822C30.2178 25.3175 30.2178 24.7261 29.8531 24.3614C29.4884 23.9966 28.897 23.9966 28.5323 24.3614L22.5886 30.305ZM32.1838 30.0315L23.249 30.0315L23.249 31.8994L32.1838 31.8994L32.1838 30.0315Z" fill="#2D7E5D"/>
</svg>
