<svg width="45" height="46" viewBox="0 0 45 46" fill="none" xmlns="http://www.w3.org/2000/svg">
<g id="carbon:automatic">
<path id="Vector" d="M36.5625 22.5039H30.9375C30.1918 22.5047 29.4769 22.8012 28.9496 23.3285C28.4223 23.8558 28.1257 24.5707 28.125 25.3164V42.1914H30.9375V35.1602H36.5625V42.1914H39.375V25.3164C39.3743 24.5707 39.0777 23.8558 38.5504 23.3285C38.0231 22.8012 37.3082 22.5047 36.5625 22.5039ZM30.9375 32.3477V25.3164H36.5625V32.3477H30.9375ZM22.5 37.9727C19.9249 37.9736 17.3905 37.3309 15.1271 36.1029C12.8637 34.8749 10.9431 33.1007 9.54 30.9414H16.875V28.1289H5.625V39.3789H8.4375V34.1969C10.1557 36.2582 12.3059 37.9168 14.7359 39.0553C17.166 40.1937 19.8165 40.7843 22.5 40.7852V37.9727ZM28.125 14.0664H35.4586C33.6403 11.2715 30.9675 9.13915 27.8385 7.98722C24.7095 6.83529 21.292 6.72551 18.0955 7.67425C14.899 8.62299 12.0948 10.5794 10.1009 13.2519C8.10704 15.9243 7.0303 19.1696 7.03125 22.5039H4.21875C4.22033 18.7454 5.37991 15.0786 7.53971 12.0025C9.6995 8.9265 12.7546 6.59061 16.2893 5.31275C19.8239 4.0349 23.6665 3.87714 27.294 4.86094C30.9215 5.84474 34.1578 7.92233 36.5625 10.811V5.62894H39.375V16.8789H28.125V14.0664Z" fill="#2D7E5D"/>
</g>
</svg>
