<svg width="488" height="488" viewBox="0 0 496 496" fill="none" xmlns="http://www.w3.org/2000/svg">
<g opacity="0.24" filter="url(#filter0_d_4469_9885)">
<rect x="16.9062" y="17.0265" width="462.188" height="462.188" rx="231.094" fill="white"/>
<rect x="17.5446" y="17.6649" width="460.911" height="460.911" rx="230.455" stroke="#00D6FF" stroke-opacity="0.08" stroke-width="1.27676"/>
</g>
<g opacity="0.32" filter="url(#filter1_d_4469_9885)">
<rect x="72" y="72.1204" width="352" height="352" rx="176" fill="white"/>
<rect x="72.4862" y="72.6065" width="351.028" height="351.028" rx="175.514" stroke="#00D6FF" stroke-opacity="0.08" stroke-width="0.972376"/>
</g>
<g opacity="0.59" filter="url(#filter2_d_4469_9885)">
<rect x="135" y="135.12" width="226" height="226" rx="113" fill="#FDFDFD"/>
<rect x="135.419" y="135.539" width="225.163" height="225.163" rx="112.581" stroke="#00D6FF" stroke-opacity="0.08" stroke-width="0.837037"/>
</g>
<path d="M249.5 251.62L141.5 226.12M141.5 226.12L102.5 148.12M141.5 226.12L105.5 340.526" stroke="url(#paint0_linear_4469_9885)" stroke-width="2"/>
<path d="M250 252.12L237.5 74.5265" stroke="url(#paint1_linear_4469_9885)" stroke-width="2"/>
<path d="M251 252.12L361.5 225.026L358.5 115.62" stroke="url(#paint2_linear_4469_9885)" stroke-width="2"/>
<path d="M352 121.526L243 258.026" stroke="#83FF50" stroke-width="2"/>
<path d="M246.5 248.526L217 402.526" stroke="url(#paint3_linear_4469_9885)" stroke-width="2"/>
<path d="M416.5 331.026L246.5 248.526L316.5 348.026" stroke="url(#paint4_linear_4469_9885)" stroke-width="2"/>
<path d="M107 338.026L217 403.026" stroke="url(#paint5_linear_4469_9885)"/>
<path d="M344 389.026L317 346.526" stroke="url(#paint6_linear_4469_9885)" stroke-width="2"/>
<path d="M362 225.026L414.5 332.526" stroke="url(#paint7_linear_4469_9885)"/>
<path d="M237 75.0265L141.5 224.526" stroke="url(#paint8_linear_4469_9885)"/>
<path d="M140.5 225.026L69.5 223.526" stroke="url(#paint9_linear_4469_9885)" stroke-width="2"/>
<path d="M358.5 116.026L236 78.0265" stroke="url(#paint10_linear_4469_9885)"/>
<path d="M361.5 223.026L423 194.526" stroke="url(#paint11_linear_4469_9885)" stroke-width="2"/>
<path d="M237 75.0265L100.5 147.526" stroke="url(#paint12_linear_4469_9885)"/>
<path d="M416 332.026L314 347.526L217 403.026" stroke="url(#paint13_linear_4469_9885)"/>
<g filter="url(#filter3_d_4469_9885)">
<rect x="191" y="376.12" width="52" height="52" rx="26" fill="#F9FAFC"/>
<rect x="192" y="377.12" width="50" height="50" rx="25" stroke="#34F8B6" stroke-width="2"/>
<path d="M217.389 392.625L217.912 391.403C217.747 391.332 217.569 391.296 217.389 391.296C217.209 391.296 217.031 391.332 216.865 391.403L217.389 392.625ZM217.389 411.773L216.729 412.927C217.138 413.161 217.64 413.161 218.048 412.927L217.389 411.773ZM216.865 391.403L210.064 394.318L211.11 396.762L217.912 393.848L216.865 391.403ZM208.613 396.519V403.816H211.272V396.519H208.613ZM212.499 410.51L216.729 412.928L218.048 410.62L213.818 408.202L212.499 410.51ZM218.048 412.928L222.279 410.511L220.96 408.203L216.729 410.62L218.048 412.928ZM226.164 403.815V396.519H223.505V403.816L226.164 403.815ZM224.713 394.319L217.912 391.404L216.865 393.849L223.666 396.763L224.713 394.319ZM226.164 396.519C226.164 395.561 225.594 394.697 224.713 394.319L223.666 396.763C223.618 396.743 223.577 396.709 223.549 396.665C223.52 396.622 223.505 396.571 223.505 396.519H226.164ZM222.279 410.511C223.459 409.837 224.44 408.862 225.123 407.686C225.805 406.51 226.164 405.175 226.164 403.815H223.505C223.505 404.706 223.27 405.58 222.823 406.351C222.376 407.121 221.733 407.761 220.96 408.203L222.279 410.511ZM208.613 403.814C208.613 405.173 208.972 406.509 209.655 407.685C210.337 408.861 211.318 409.835 212.499 410.51L213.818 408.202C213.044 407.76 212.401 407.121 211.954 406.35C211.507 405.58 211.272 404.705 211.272 403.814H208.613ZM210.064 394.318C209.633 394.502 209.266 394.809 209.008 395.201C208.75 395.592 208.613 396.05 208.613 396.519H211.272C211.272 396.625 211.208 396.72 211.11 396.762L210.064 394.318Z" fill="black"/>
<path d="M220.58 400.072L216.325 404.327L214.198 402.199" stroke="black" stroke-width="2.09677" stroke-linecap="round" stroke-linejoin="round"/>
</g>
<g filter="url(#filter4_d_4469_9885)">
<rect x="297" y="327.12" width="38" height="38" rx="19" fill="#F9FAFC"/>
<rect x="298" y="328.12" width="36" height="36" rx="18" stroke="#34F8B6" stroke-width="2"/>
<path d="M309.7 339.88C309.7 339.467 309.865 339.07 310.157 338.777C310.45 338.485 310.846 338.32 311.26 338.32H317.5C317.707 338.32 317.905 338.403 318.052 338.549L321.952 342.449C322.098 342.595 322.18 342.793 322.18 343V352.36C322.18 352.774 322.016 353.171 321.723 353.463C321.431 353.756 321.034 353.92 320.62 353.92H311.26C310.846 353.92 310.45 353.756 310.157 353.463C309.865 353.171 309.7 352.774 309.7 352.36V339.88ZM320.297 343L317.5 340.203V343H320.297ZM315.94 339.88H311.26V352.36H320.62V344.56H316.72C316.513 344.56 316.315 344.478 316.169 344.332C316.022 344.186 315.94 343.987 315.94 343.78V339.88ZM312.82 346.9C312.82 346.693 312.902 346.495 313.049 346.349C313.195 346.202 313.393 346.12 313.6 346.12H318.28C318.487 346.12 318.685 346.202 318.832 346.349C318.978 346.495 319.06 346.693 319.06 346.9C319.06 347.107 318.978 347.306 318.832 347.452C318.685 347.598 318.487 347.68 318.28 347.68H313.6C313.393 347.68 313.195 347.598 313.049 347.452C312.902 347.306 312.82 347.107 312.82 346.9ZM312.82 350.02C312.82 349.813 312.902 349.615 313.049 349.469C313.195 349.322 313.393 349.24 313.6 349.24H318.28C318.487 349.24 318.685 349.322 318.832 349.469C318.978 349.615 319.06 349.813 319.06 350.02C319.06 350.227 318.978 350.426 318.832 350.572C318.685 350.718 318.487 350.8 318.28 350.8H313.6C313.393 350.8 313.195 350.718 313.049 350.572C312.902 350.426 312.82 350.227 312.82 350.02Z" fill="black"/>
</g>
<g filter="url(#filter5_d_4469_9885)">
<rect x="390" y="306.12" width="50" height="50" rx="25" fill="#F9FAFC"/>
<rect x="391" y="307.12" width="48" height="48" rx="24" stroke="#34F8B6" stroke-width="2"/>
<path d="M420.95 323.47L425.37 327.89M425.37 323.47L420.95 327.89M426.475 334.52L422.607 338.94L420.397 336.73" stroke="black" stroke-width="1.7" stroke-linecap="round" stroke-linejoin="round"/>
<path d="M416.53 323.47H404.375V327.89H416.53V323.47ZM416.53 334.52H404.375V338.94H416.53V334.52Z" fill="black" stroke="black" stroke-width="1.7" stroke-linecap="round" stroke-linejoin="round"/>
</g>
<g filter="url(#filter6_d_4469_9885)">
<rect x="335" y="198.026" width="52" height="52" rx="26" fill="#F9FAFC"/>
<rect x="336" y="199.026" width="50" height="50" rx="25" stroke="#83FF50" stroke-width="2"/>
<path d="M361.226 237.802L366.647 221.1H355.812L361.226 237.802Z" fill="#E24329"/>
<path d="M348.219 221.1L346.568 226.174C346.418 226.635 346.58 227.144 346.974 227.431L361.226 237.802L348.219 221.1Z" fill="#FCA326"/>
<path d="M348.219 221.1H355.812L352.544 211.041C352.377 210.526 351.648 210.526 351.475 211.041L348.219 221.1Z" fill="#E24329"/>
<path d="M374.241 221.1L375.886 226.174C376.035 226.635 375.874 227.144 375.479 227.431L361.226 237.802L374.241 221.1Z" fill="#FCA326"/>
<path d="M374.241 221.1H366.647L369.909 211.041C370.077 210.526 370.805 210.526 370.979 211.041L374.241 221.1Z" fill="#E24329"/>
<path d="M361.226 237.802L366.647 221.1H374.241L361.226 237.802Z" fill="#FC6D26"/>
<path d="M361.226 237.802L348.219 221.1H355.812L361.226 237.802Z" fill="#FC6D26"/>
</g>
<g filter="url(#filter7_d_4469_9885)">
<rect x="206" y="44.1204" width="62" height="62" rx="31" fill="#F9FAFC"/>
<rect x="207" y="45.1204" width="60" height="60" rx="30" stroke="#83FF50" stroke-width="2"/>
<g clip-path="url(#clip0_4469_9885)">
<path d="M237.432 57.1204C227.254 57.1204 219 65.3725 219 75.5525C219 83.6963 224.281 90.6055 231.605 93.0427C232.526 93.2134 232.864 92.6429 232.864 92.156C232.864 91.7165 232.847 90.2645 232.839 88.7244C227.712 89.8394 226.629 86.5496 226.629 86.5496C225.791 84.4191 224.583 83.8526 224.583 83.8526C222.911 82.7086 224.709 82.7321 224.709 82.7321C226.56 82.8621 227.534 84.6315 227.534 84.6315C229.178 87.4494 231.846 86.6348 232.898 86.1638C233.064 84.9725 233.541 84.1594 234.069 83.6991C229.974 83.233 225.671 81.6525 225.671 74.5898C225.671 72.5774 226.391 70.9332 227.57 69.6424C227.379 69.1781 226.748 67.3034 227.748 64.7645C227.748 64.7645 229.296 64.2691 232.819 66.6539C234.289 66.2455 235.866 66.0407 237.432 66.0337C238.999 66.0407 240.577 66.2455 242.05 66.6539C245.568 64.2691 247.113 64.7645 247.113 64.7645C248.117 67.3034 247.485 69.1781 247.294 69.6424C248.476 70.9332 249.191 72.5774 249.191 74.5898C249.191 81.6693 244.879 83.2281 240.775 83.6844C241.436 84.2564 242.025 85.3781 242.025 87.0978C242.025 89.564 242.004 91.5489 242.004 92.156C242.004 92.6465 242.335 93.2213 243.27 93.0403C250.589 90.6003 255.864 83.6936 255.864 75.5525C255.864 65.3725 247.612 57.1204 237.432 57.1204ZM225.903 83.3773C225.863 83.4689 225.719 83.4964 225.588 83.4335C225.454 83.3734 225.379 83.2485 225.422 83.1567C225.462 83.0624 225.606 83.0361 225.74 83.0993C225.874 83.1594 225.95 83.2855 225.903 83.3773ZM226.81 84.1863C226.722 84.2678 226.55 84.23 226.434 84.1012C226.313 83.9727 226.291 83.8008 226.38 83.7181C226.47 83.6366 226.637 83.6748 226.758 83.8033C226.878 83.9333 226.902 84.1039 226.81 84.1863ZM227.432 85.2214C227.319 85.2999 227.134 85.2263 227.02 85.0624C226.907 84.8985 226.907 84.7019 227.023 84.6232C227.137 84.5444 227.319 84.6152 227.435 84.7779C227.547 84.9446 227.547 85.1412 227.432 85.2214ZM228.484 86.4202C228.383 86.5316 228.168 86.5017 228.01 86.3497C227.849 86.2011 227.804 85.9901 227.906 85.8787C228.008 85.767 228.224 85.7985 228.383 85.9492C228.543 86.0976 228.592 86.31 228.484 86.4202ZM229.844 86.8249C229.799 86.9693 229.592 87.0349 229.383 86.9735C229.174 86.9104 229.038 86.7413 229.08 86.5954C229.124 86.4501 229.332 86.3817 229.542 86.4473C229.75 86.5102 229.887 86.6781 229.844 86.8249ZM231.391 86.9966C231.396 87.1486 231.219 87.2746 231 87.2774C230.779 87.2823 230.601 87.1593 230.599 87.0097C230.599 86.8562 230.772 86.7313 230.992 86.7277C231.211 86.7234 231.391 86.8455 231.391 86.9966ZM232.911 86.9383C232.937 87.0866 232.785 87.2389 232.567 87.2795C232.353 87.3186 232.155 87.227 232.128 87.0799C232.101 86.9279 232.256 86.7756 232.47 86.7362C232.688 86.6984 232.883 86.7875 232.911 86.9383Z" fill="#161614"/>
</g>
</g>
<g filter="url(#filter8_d_4469_9885)">
<rect x="72" y="116.12" width="62" height="62" rx="31" fill="#F9FAFC"/>
<rect x="73" y="117.12" width="60" height="60" rx="30" stroke="#05D9F9" stroke-width="2"/>
<path d="M120.101 144.62C120.016 144.554 119.222 143.963 117.549 143.963C117.107 143.965 116.666 144.002 116.23 144.075C115.906 141.885 114.071 140.818 113.988 140.77L113.539 140.515L113.243 140.935C112.873 141.5 112.603 142.123 112.444 142.777C112.145 144.027 112.327 145.2 112.971 146.204C112.193 146.631 110.946 146.736 110.694 146.745H90.0468C89.5075 146.746 89.0699 147.176 89.067 147.708C89.0429 149.491 89.3494 151.264 89.9713 152.939C90.6825 154.778 91.7407 156.133 93.1173 156.962C94.66 157.893 97.1663 158.426 100.007 158.426C101.291 158.43 102.572 158.315 103.834 158.084C105.588 157.766 107.276 157.162 108.827 156.295C110.106 155.565 111.257 154.636 112.235 153.544C113.871 151.718 114.846 149.685 115.57 147.878C115.667 147.878 115.765 147.878 115.859 147.878C117.65 147.878 118.751 147.171 119.359 146.579C119.762 146.201 120.077 145.741 120.282 145.231L120.41 144.861L120.101 144.62Z" fill="black"/>
<path d="M91.8623 146.272H94.5852C94.7165 146.272 94.8229 146.155 94.8229 146.01V143.337C94.8237 143.192 94.7178 143.074 94.5865 143.074C94.5861 143.074 94.5856 143.074 94.5852 143.074H91.8623C91.7309 143.074 91.6245 143.191 91.6245 143.336C91.6245 143.336 91.6245 143.337 91.6245 143.337V146.01C91.6245 146.155 91.7309 146.272 91.8623 146.272Z" fill="black"/>
<path d="M95.7017 146.272H98.4234C98.5547 146.272 98.6611 146.155 98.6611 146.01V143.337C98.6618 143.192 98.556 143.074 98.4247 143.074C98.4243 143.074 98.4238 143.074 98.4234 143.074H95.7016C95.5696 143.074 95.4626 143.192 95.4626 143.337V146.01C95.4634 146.155 95.5702 146.272 95.7017 146.272Z" fill="black"/>
<path d="M99.5388 146.272H102.262C102.393 146.272 102.499 146.155 102.499 146.01V143.337C102.5 143.192 102.394 143.074 102.263 143.074C102.263 143.074 102.262 143.074 102.262 143.074H99.5388C99.4074 143.074 99.301 143.191 99.301 143.336C99.301 143.336 99.301 143.337 99.301 143.337V146.01C99.3011 146.155 99.4075 146.272 99.5388 146.272Z" fill="black"/>
<path d="M103.377 146.272H106.098C106.23 146.272 106.337 146.155 106.337 146.01V143.337C106.337 143.192 106.23 143.074 106.098 143.074H103.377C103.245 143.074 103.139 143.191 103.139 143.336C103.139 143.336 103.139 143.337 103.139 143.337V146.01C103.139 146.155 103.245 146.272 103.377 146.272Z" fill="black"/>
<path d="M95.7016 142.434H98.4234C98.5549 142.433 98.6611 142.315 98.6611 142.17V139.497C98.6611 139.353 98.5546 139.235 98.4234 139.235H95.7016C95.5702 139.235 95.4634 139.352 95.4626 139.497V142.17C95.4634 142.315 95.5699 142.433 95.7016 142.434Z" fill="black"/>
<path d="M99.5388 142.434H102.262C102.393 142.433 102.499 142.315 102.499 142.17V139.497C102.499 139.353 102.393 139.235 102.262 139.235H99.5388C99.4074 139.235 99.301 139.353 99.301 139.497V142.17C99.301 142.315 99.4073 142.433 99.5388 142.434Z" fill="black"/>
<path d="M103.377 142.434H106.098C106.23 142.433 106.337 142.315 106.337 142.17V139.497C106.337 139.352 106.23 139.235 106.098 139.235H103.377C103.245 139.235 103.139 139.353 103.139 139.497V142.17C103.139 142.315 103.245 142.433 103.377 142.434Z" fill="black"/>
<path d="M103.377 139.235H106.098C106.23 139.235 106.337 139.118 106.337 138.973V136.299C106.337 136.154 106.23 136.037 106.098 136.037H103.377C103.245 136.037 103.139 136.154 103.139 136.299V138.973C103.139 139.118 103.245 139.235 103.377 139.235Z" fill="black"/>
<path d="M107.214 146.272H109.936C110.068 146.272 110.174 146.155 110.175 146.01V143.337C110.175 143.192 110.068 143.074 109.936 143.074H107.214C107.083 143.074 106.977 143.191 106.977 143.336C106.977 143.336 106.977 143.337 106.977 143.337V146.01C106.977 146.155 107.083 146.272 107.214 146.272Z" fill="black"/>
</g>
<g filter="url(#filter9_d_4469_9885)">
<rect x="64" y="218.026" width="10" height="10" rx="5" fill="#05D9F9"/>
<rect x="64.2903" y="218.317" width="9.41935" height="9.41935" rx="4.70968" stroke="#05D9F9" stroke-opacity="0.4" stroke-width="0.580645"/>
</g>
<g filter="url(#filter10_d_4469_9885)">
<rect x="418" y="188.026" width="12" height="12" rx="6" fill="#83FF50"/>
<rect x="418.29" y="188.317" width="11.4194" height="11.4194" rx="5.70968" stroke="#83FF50" stroke-opacity="0.4" stroke-width="0.580645"/>
</g>
<g filter="url(#filter11_d_4469_9885)">
<rect x="339" y="384.026" width="10" height="10" rx="5" fill="#34F8B6"/>
<rect x="339.161" y="384.188" width="9.67742" height="9.67742" rx="4.83871" stroke="#34F8B6" stroke-width="0.322581"/>
</g>
<g filter="url(#filter12_d_4469_9885)">
<rect x="118" y="201.12" width="44" height="44" rx="22" fill="#F9FAFC"/>
<rect x="119" y="202.12" width="42" height="42" rx="21" stroke="#05D9F9" stroke-width="2"/>
<path d="M142.862 214.083C143.051 214.137 143.229 214.227 143.384 214.348C143.539 214.47 143.668 214.621 143.765 214.793C143.862 214.965 143.923 215.154 143.947 215.35C143.97 215.545 143.955 215.744 143.902 215.933L139.471 231.72C139.363 232.104 139.108 232.428 138.761 232.623C138.414 232.818 138.004 232.867 137.621 232.76C137.238 232.652 136.913 232.397 136.718 232.05C136.523 231.704 136.474 231.294 136.582 230.91L141.013 215.121C141.066 214.932 141.156 214.754 141.278 214.599C141.4 214.445 141.551 214.315 141.722 214.219C141.894 214.122 142.083 214.06 142.279 214.037C142.475 214.014 142.673 214.029 142.863 214.082L142.862 214.083ZM135.802 218.118C136.083 218.4 136.24 218.781 136.24 219.178C136.24 219.576 136.083 219.957 135.802 220.238L132.622 223.421L135.804 226.603C136.085 226.885 136.243 227.266 136.243 227.664C136.243 228.062 136.085 228.444 135.803 228.725C135.522 229.006 135.14 229.164 134.742 229.164C134.344 229.164 133.963 229.006 133.682 228.724L129.439 224.481C129.158 224.2 129 223.819 129 223.421C129 223.024 129.158 222.643 129.439 222.361L133.681 218.118C133.82 217.979 133.985 217.868 134.167 217.793C134.349 217.718 134.545 217.679 134.742 217.679C134.939 217.679 135.134 217.718 135.316 217.793C135.498 217.868 135.662 217.979 135.802 218.118ZM144.682 220.238C144.534 220.101 144.416 219.935 144.334 219.751C144.252 219.567 144.208 219.369 144.204 219.167C144.201 218.966 144.238 218.766 144.313 218.579C144.389 218.392 144.501 218.223 144.644 218.08C144.786 217.938 144.956 217.826 145.142 217.75C145.329 217.675 145.529 217.638 145.731 217.641C145.932 217.645 146.131 217.689 146.315 217.771C146.499 217.853 146.664 217.971 146.802 218.118L151.045 222.36C151.326 222.642 151.484 223.023 151.484 223.421C151.484 223.819 151.326 224.2 151.045 224.481L146.803 228.724C146.663 228.864 146.498 228.974 146.316 229.05C146.134 229.125 145.939 229.164 145.742 229.164C145.545 229.164 145.35 229.125 145.168 229.05C144.986 228.975 144.821 228.864 144.681 228.725C144.542 228.586 144.431 228.42 144.356 228.238C144.28 228.056 144.242 227.861 144.242 227.664C144.242 227.467 144.28 227.272 144.356 227.09C144.431 226.908 144.541 226.743 144.681 226.603L147.863 223.421L144.682 220.238Z" fill="black"/>
</g>
<g filter="url(#filter13_d_4469_9885)">
<rect x="338.5" y="97.1204" width="38" height="38" rx="19" fill="#F9FAFC"/>
<rect x="339.5" y="98.1204" width="36" height="36" rx="18" stroke="#83FF50" stroke-width="2"/>
<path fill-rule="evenodd" clip-rule="evenodd" d="M365.429 115.765C365.429 120.036 362.045 123.499 357.871 123.499C353.698 123.499 350.314 120.036 350.314 115.765C350.314 111.493 353.698 108.03 357.871 108.03C362.045 108.03 365.429 111.493 365.429 115.765Z" fill="#D33833"/>
<path d="M350.622 117.68C350.622 117.68 350.075 109.614 357.503 109.384L356.985 108.52L352.954 109.874L351.802 111.199L350.795 113.129L350.219 115.376L350.392 116.874" fill="#EF3D3A"/>
<path d="M352.695 110.488C351.369 111.846 350.549 113.72 350.549 115.793C350.549 117.867 351.369 119.741 352.695 121.098C354.022 122.456 355.85 123.293 357.871 123.293C359.892 123.293 361.721 122.456 363.047 121.098C364.373 119.741 365.194 117.867 365.194 115.793C365.194 113.72 364.373 111.846 363.047 110.488C361.721 109.131 359.892 108.294 357.871 108.293C355.85 108.294 354.022 109.131 352.695 110.488ZM352.359 121.427C350.95 119.985 350.079 117.992 350.079 115.793C350.079 113.595 350.95 111.602 352.359 110.16C353.768 108.717 355.718 107.823 357.871 107.824C360.024 107.823 361.974 108.717 363.383 110.16C364.792 111.602 365.663 113.595 365.663 115.793C365.663 117.992 364.792 119.985 363.383 121.427C361.974 122.869 360.024 123.763 357.871 123.763C355.718 123.763 353.768 122.869 352.359 121.427Z" fill="#231F20"/>
<path fill-rule="evenodd" clip-rule="evenodd" d="M361.052 115.808L359.901 115.98L358.346 116.153L357.338 116.182L356.359 116.153L355.611 115.923L354.949 115.203L354.43 113.733L354.315 113.417L353.624 113.186L353.221 112.524L352.933 111.573L353.25 110.737L353.999 110.478L354.603 110.766L354.891 111.4L355.237 111.342L355.352 111.198L355.237 110.536L355.208 109.7L355.38 108.548L355.374 107.89L355.899 107.05L356.82 106.388L358.432 105.696L360.217 105.955L361.772 107.079L362.492 108.231L362.952 109.067L363.067 111.141L362.722 112.927L362.089 114.511L361.484 115.347" fill="#F0D6B7"/>
<path fill-rule="evenodd" clip-rule="evenodd" d="M360.074 120.791L355.957 120.964V121.655L356.302 124.075L356.129 124.277L353.25 123.297L353.049 122.952L352.761 119.697L352.099 117.738L351.955 117.277L354.258 115.692L354.978 115.404L355.611 116.182L356.158 116.672L356.792 116.873L357.079 116.96L357.425 118.458L357.684 118.775L358.346 118.544L357.885 119.437L360.39 120.618L360.074 120.791Z" fill="#335061"/>
<path fill-rule="evenodd" clip-rule="evenodd" d="M353.25 110.737L353.999 110.478L354.603 110.766L354.891 111.4L355.237 111.342L355.323 110.997L355.15 110.334L355.323 108.75L355.179 107.885L355.697 107.28L356.82 106.387L356.503 105.955L354.92 106.733L354.258 107.252L353.884 108.058L353.308 108.836L353.135 109.758L353.25 110.737Z" fill="#6D6B6D"/>
<path fill-rule="evenodd" clip-rule="evenodd" d="M354.431 108.03C354.431 108.03 354.863 106.964 356.59 106.445C358.318 105.927 356.677 106.071 356.677 106.071L354.805 106.791L354.085 107.511L353.769 108.087L354.431 108.03Z" fill="#DCD9D8"/>
<path fill-rule="evenodd" clip-rule="evenodd" d="M353.567 110.536C353.567 110.536 352.962 108.519 355.265 108.231L355.179 107.885L353.596 108.26L353.135 109.758L353.25 110.737L353.567 110.536Z" fill="#DCD9D8"/>
<path fill-rule="evenodd" clip-rule="evenodd" d="M354.488 113.215L354.865 112.849C354.865 112.849 355.035 112.869 355.064 113.071C355.093 113.272 355.179 115.087 356.417 116.067C356.53 116.156 355.496 115.923 355.496 115.923L354.575 114.482" fill="#F7E4CD"/>
<path fill-rule="evenodd" clip-rule="evenodd" d="M359.786 112.668C359.786 112.668 359.853 111.794 360.088 111.861C360.323 111.929 360.323 112.164 360.323 112.164C360.323 112.164 359.752 112.533 359.786 112.668Z" fill="#F7E4CD"/>
<path d="M362.176 109.47C362.176 109.47 361.701 109.57 361.657 109.989C361.613 110.407 362.176 110.075 362.262 110.046" fill="#F7E4CD"/>
<path d="M358.692 109.499C358.692 109.499 358.058 109.585 358.058 109.989C358.058 110.392 358.778 110.363 358.98 110.19" fill="#F7E4CD"/>
<path fill-rule="evenodd" clip-rule="evenodd" d="M354.776 111.371C354.776 111.371 353.682 110.709 353.567 111.342C353.452 111.976 353.193 112.437 353.74 113.1L353.366 112.984L353.02 112.091L352.905 111.227L353.567 110.536L354.316 110.593L354.748 110.939L354.776 111.371Z" fill="#F7E4CD"/>
<path fill-rule="evenodd" clip-rule="evenodd" d="M355.294 109.556C355.294 109.556 355.784 107.021 358.26 106.532C360.298 106.128 361.369 106.618 361.772 107.079C361.772 107.079 359.958 104.918 358.231 105.581C356.504 106.243 355.237 107.453 355.266 108.231C355.315 109.556 355.294 109.556 355.294 109.556Z" fill="#F7E4CD"/>
<path fill-rule="evenodd" clip-rule="evenodd" d="M361.974 107.367C361.974 107.367 361.139 107.338 361.11 108.087C361.11 108.087 361.11 108.203 361.167 108.318C361.167 108.318 361.83 107.569 362.233 107.972" fill="#F7E4CD"/>
<path fill-rule="evenodd" clip-rule="evenodd" d="M358.318 108.396C358.318 108.396 358.174 107.246 357.195 107.914C356.561 108.347 356.619 108.952 356.734 109.067C356.849 109.182 356.818 109.414 356.905 109.255C356.993 109.096 356.964 108.577 357.281 108.433C357.598 108.289 358.117 108.128 358.318 108.396Z" fill="#F7E4CD"/>
<path fill-rule="evenodd" clip-rule="evenodd" d="M355.611 116.182L352.905 117.392C352.905 117.392 354.028 121.857 353.452 123.24L353.049 123.096L353.02 121.396L352.272 118.17L351.955 117.277L354.776 115.375L355.611 116.182Z" fill="#49728B"/>
<path fill-rule="evenodd" clip-rule="evenodd" d="M355.889 118.652L356.273 119.12V120.849H355.813C355.813 120.849 355.755 119.639 355.755 119.495C355.755 119.351 355.813 118.832 355.813 118.832" fill="#49728B"/>
<path fill-rule="evenodd" clip-rule="evenodd" d="M355.899 121.108L354.604 121.166L354.978 121.425L355.899 121.569" fill="#49728B"/>
<path fill-rule="evenodd" clip-rule="evenodd" d="M360.333 120.82L361.398 120.791L361.657 123.441L360.563 123.585L360.333 120.82Z" fill="#335061"/>
<path fill-rule="evenodd" clip-rule="evenodd" d="M360.621 120.82L362.233 120.733C362.233 120.733 362.895 119.063 362.895 118.976C362.895 118.89 363.471 116.556 363.471 116.556L362.175 115.203L361.916 114.972L361.225 115.663V118.343L360.621 120.82Z" fill="#335061"/>
<path fill-rule="evenodd" clip-rule="evenodd" d="M361.34 120.618L360.333 120.82L360.476 121.627C360.851 121.799 361.484 121.338 361.484 121.338" fill="#49728B"/>
<path fill-rule="evenodd" clip-rule="evenodd" d="M361.369 115.577L363.384 117.075L363.442 116.384L361.916 114.972L361.369 115.577Z" fill="#49728B"/>
<path fill-rule="evenodd" clip-rule="evenodd" d="M356.898 126.495L356.302 124.075L356.005 122.289L355.956 120.964L358.654 120.82L360.332 120.82L360.18 123.845L360.439 126.178L360.41 126.61L358.222 126.783L356.898 126.495Z" fill="white"/>
<path fill-rule="evenodd" clip-rule="evenodd" d="M359.958 120.791C359.958 120.791 359.814 123.787 360.246 125.919C360.246 125.919 359.382 126.466 358.115 126.61L360.534 126.524L360.822 126.351L360.476 121.627L360.39 120.618" fill="#DCD9D8"/>
<path fill-rule="evenodd" clip-rule="evenodd" d="M361.706 123.211L362.829 122.894L364.959 122.779L365.276 121.8L364.7 120.1L364.038 120.014L363.117 120.302L362.233 120.733L361.763 120.647L361.398 120.791" fill="white"/>
<path fill-rule="evenodd" clip-rule="evenodd" d="M361.686 122.635C361.686 122.635 362.434 122.289 362.549 122.318L362.233 120.734L362.607 120.59C362.607 120.59 362.866 122.088 362.866 122.26C362.866 122.26 364.478 122.347 364.622 122.347C364.622 122.347 364.968 121.684 364.881 120.993L365.198 121.915L365.227 122.433L364.766 123.125L364.248 123.24L363.384 123.211L363.096 122.837L362.089 122.981L361.772 123.096" fill="#DCD9D8"/>
<path d="M360.554 120.59L359.921 118.977L359.259 118.026C359.259 118.026 359.403 117.623 359.604 117.623C359.806 117.623 360.266 117.623 360.266 117.623L360.9 117.853L360.842 118.919L360.554 120.59Z" fill="white"/>
<path fill-rule="evenodd" clip-rule="evenodd" d="M360.678 120.042C360.678 120.042 359.872 118.487 359.872 118.256C359.872 118.256 360.016 117.91 360.217 117.997C360.419 118.083 360.851 118.314 360.851 118.314V117.766L359.872 117.565L359.21 117.651L360.333 120.301L360.563 120.33" fill="#DCD9D8"/>
<path d="M357.158 116.24L356.36 116.153L355.611 115.923V116.182L355.977 116.586L357.129 117.104" fill="white"/>
<path fill-rule="evenodd" clip-rule="evenodd" d="M355.87 116.326C355.87 116.326 356.763 116.701 357.051 116.614L357.079 116.96L356.273 116.787L355.784 116.442L355.87 116.326Z" fill="#DCD9D8"/>
<path fill-rule="evenodd" clip-rule="evenodd" d="M361.703 117.721C361.214 117.707 360.773 117.649 360.386 117.54C360.413 117.381 360.364 117.225 360.403 117.111C360.511 117.034 360.691 117.035 360.854 117.017C360.713 116.947 360.516 116.92 360.353 116.96C360.349 116.85 360.3 116.782 360.27 116.696C360.545 116.597 361.193 115.954 361.558 116.167C361.732 116.269 361.806 116.847 361.819 117.129C361.831 117.362 361.798 117.597 361.703 117.721Z" fill="#D33833"/>
<path d="M361.703 117.721C361.214 117.707 360.773 117.649 360.386 117.54C360.413 117.381 360.364 117.225 360.403 117.111C360.511 117.034 360.691 117.035 360.854 117.017C360.713 116.947 360.516 116.92 360.353 116.96C360.349 116.85 360.3 116.782 360.27 116.696C360.545 116.597 361.193 115.954 361.558 116.167C361.732 116.269 361.806 116.847 361.819 117.129C361.831 117.362 361.798 117.597 361.703 117.721Z" stroke="#D33833" stroke-width="1.18865"/>
<path fill-rule="evenodd" clip-rule="evenodd" d="M359.367 116.922C359.366 116.959 359.364 116.996 359.363 117.033C359.21 117.133 358.964 117.132 358.796 117.216C359.043 117.227 359.238 117.287 359.406 117.371C359.402 117.464 359.398 117.557 359.395 117.65C359.115 117.841 358.86 118.127 358.531 118.306C358.375 118.391 357.829 118.61 357.663 118.571C357.569 118.549 357.561 118.433 357.524 118.323C357.444 118.089 357.26 117.715 357.244 117.361C357.224 116.915 357.179 116.167 357.659 116.259C358.047 116.333 358.498 116.511 358.799 116.676C358.982 116.776 359.089 116.9 359.367 116.922Z" fill="#D33833"/>
<path d="M359.367 116.922C359.366 116.959 359.364 116.996 359.363 117.033C359.21 117.133 358.964 117.132 358.796 117.216C359.043 117.227 359.238 117.287 359.406 117.371C359.402 117.464 359.398 117.557 359.395 117.65C359.115 117.841 358.86 118.127 358.531 118.306C358.375 118.391 357.829 118.61 357.663 118.571C357.569 118.549 357.561 118.433 357.524 118.323C357.444 118.089 357.26 117.715 357.244 117.361C357.224 116.915 357.179 116.167 357.659 116.259C358.047 116.333 358.498 116.511 358.799 116.676C358.982 116.776 359.089 116.9 359.367 116.922Z" stroke="#D33833" stroke-width="1.18865"/>
<path fill-rule="evenodd" clip-rule="evenodd" d="M359.645 117.455C359.602 117.211 359.553 117.142 359.572 116.93C360.22 116.497 360.342 117.673 359.645 117.455Z" fill="#D33833"/>
<path d="M359.645 117.455C359.602 117.211 359.553 117.142 359.572 116.93C360.22 116.497 360.342 117.673 359.645 117.455Z" stroke="#D33833" stroke-width="1.18865"/>
<path fill-rule="evenodd" clip-rule="evenodd" d="M360.584 117.652C360.584 117.652 360.382 117.364 360.526 117.277C360.67 117.191 360.814 117.277 360.9 117.133C360.987 116.989 360.9 116.903 360.929 116.73C360.958 116.557 361.102 116.528 361.246 116.499C361.39 116.47 361.793 116.413 361.851 116.557L361.678 116.038L361.332 115.923L360.238 116.557L360.18 116.874V117.508" fill="#EF3D3A"/>
<path fill-rule="evenodd" clip-rule="evenodd" d="M357.56 118.602C357.526 118.153 357.489 117.704 357.448 117.254C357.387 116.584 357.609 116.701 358.19 116.701C358.279 116.701 358.737 116.807 358.769 116.874C358.926 117.195 358.507 117.123 358.95 117.365C359.324 117.569 359.986 117.241 359.834 116.787C359.75 116.686 359.393 116.756 359.266 116.689C359.041 116.573 358.816 116.456 358.591 116.339C358.305 116.191 357.643 115.974 357.338 116.182C356.565 116.708 357.387 118.022 357.663 118.571" fill="#EF3D3A"/>
<path fill-rule="evenodd" clip-rule="evenodd" d="M358.318 108.396C357.533 108.213 357.143 108.724 356.905 109.255C356.693 109.203 356.777 108.914 356.831 108.767C356.972 108.38 357.538 107.866 358 107.936C358.199 107.966 358.469 108.148 358.318 108.396Z" fill="#231F20"/>
<path fill-rule="evenodd" clip-rule="evenodd" d="M362.141 109.29C362.153 109.29 362.166 109.291 362.178 109.291C362.355 109.66 362.509 110.05 362.733 110.376C362.583 110.725 361.598 111.034 361.613 110.407C361.826 110.314 362.194 110.388 362.383 110.269C362.273 109.969 362.116 109.714 362.141 109.29Z" fill="#231F20"/>
<path fill-rule="evenodd" clip-rule="evenodd" d="M358.72 109.299C358.888 109.608 358.943 109.932 359.182 110.166C359.29 110.271 359.5 110.399 359.396 110.691C359.371 110.76 359.194 110.913 359.092 110.944C358.718 111.054 357.846 110.966 358.141 110.5C358.451 110.514 358.866 110.701 359.098 110.476C358.92 110.192 358.603 109.63 358.72 109.299Z" fill="#231F20"/>
<path fill-rule="evenodd" clip-rule="evenodd" d="M362.001 112.436C361.438 112.798 360.81 113.191 359.888 113.1C359.691 112.928 359.615 112.547 359.807 112.295C359.907 112.466 359.844 112.782 360.122 112.829C360.645 112.919 361.254 112.509 361.631 112.366C361.864 111.972 361.611 111.827 361.4 111.573C360.97 111.054 360.392 110.41 360.413 109.633C360.587 109.507 360.602 109.826 360.627 109.884C360.852 110.41 361.418 111.084 361.831 111.534C361.932 111.645 362.099 111.752 362.118 111.825C362.171 112.038 361.978 112.294 362.001 112.436Z" fill="#231F20"/>
<path fill-rule="evenodd" clip-rule="evenodd" d="M354.579 112.055C354.403 111.954 354.361 111.51 354.153 111.498C353.857 111.48 353.911 112.074 353.912 112.421C353.709 112.236 353.673 111.666 353.822 111.373C353.652 111.289 353.576 111.465 353.481 111.528C353.603 110.643 354.774 111.117 354.579 112.055Z" fill="#231F20"/>
<path fill-rule="evenodd" clip-rule="evenodd" d="M362.36 112.804C362.097 113.303 361.727 113.853 360.958 113.869C360.942 113.708 360.93 113.463 360.958 113.365C361.546 113.309 361.909 113.009 362.36 112.804Z" fill="#231F20"/>
<path fill-rule="evenodd" clip-rule="evenodd" d="M358.675 113.128C359.166 113.386 360.067 113.413 360.734 113.394C360.77 113.54 360.769 113.721 360.77 113.899C359.913 113.942 358.9 113.729 358.675 113.128Z" fill="#231F20"/>
<path fill-rule="evenodd" clip-rule="evenodd" d="M358.582 113.609C358.921 114.461 360.087 114.363 361.07 114.339C361.026 114.45 360.932 114.581 360.816 114.628C360.501 114.756 359.632 114.853 359.195 114.621C358.917 114.474 358.739 114.14 358.587 113.945C358.514 113.85 358.149 113.609 358.582 113.609Z" fill="#231F20"/>
<path fill-rule="evenodd" clip-rule="evenodd" d="M361.96 118.309C361.562 118.991 361.181 119.691 360.709 120.293C360.907 119.71 360.992 118.736 361.022 117.993C361.436 117.799 361.79 118.036 361.96 118.309Z" fill="#81B0C4"/>
<path fill-rule="evenodd" clip-rule="evenodd" d="M364.101 120.76C363.656 120.849 363.343 121.283 362.908 121.255C363.147 120.918 363.565 120.776 364.101 120.76Z" fill="#231F20"/>
<path fill-rule="evenodd" clip-rule="evenodd" d="M364.298 121.458C363.935 121.496 363.508 121.555 363.14 121.525C363.314 121.258 363.986 121.35 364.298 121.458Z" fill="#231F20"/>
<path fill-rule="evenodd" clip-rule="evenodd" d="M364.424 122.059C364.016 122.068 363.508 122.06 363.12 122.028C363.35 121.781 364.159 121.936 364.424 122.059Z" fill="#231F20"/>
<path fill-rule="evenodd" clip-rule="evenodd" d="M361.192 123.706C361.251 124.219 361.454 124.738 361.429 125.3C361.203 125.376 361.073 125.443 360.771 125.443C360.749 124.965 360.686 124.235 360.705 123.78C360.853 123.79 361.073 123.674 361.192 123.706Z" fill="#DCD9D8"/>
<path fill-rule="evenodd" clip-rule="evenodd" d="M360.534 116.146C360.329 116.28 360.155 116.447 359.958 116.59C359.521 116.612 359.283 116.56 358.962 116.309C358.967 116.289 359 116.298 359.001 116.273C359.468 116.482 360.062 116.188 360.534 116.146Z" fill="#F0D6B7"/>
<path fill-rule="evenodd" clip-rule="evenodd" d="M358.081 119.333C358.209 118.777 358.712 118.488 359.169 118.182C359.641 118.781 359.927 119.551 360.243 120.294C359.497 120.069 358.735 119.704 358.081 119.333Z" fill="#81B0C4"/>
<path fill-rule="evenodd" clip-rule="evenodd" d="M360.704 123.78C360.685 124.235 360.749 124.965 360.77 125.442C361.073 125.443 361.202 125.376 361.428 125.3C361.453 124.738 361.25 124.219 361.192 123.706C361.072 123.674 360.853 123.79 360.704 123.78ZM355.996 121.192C356.195 123.026 356.484 124.568 357.014 126.192C358.189 126.549 359.606 126.58 360.646 126.258C360.455 125.341 360.538 124.225 360.427 123.247C360.343 122.512 360.385 121.772 360.27 121.022C359.011 120.76 357.231 120.961 355.996 121.192ZM360.568 121.033C360.557 121.821 360.603 122.598 360.663 123.387C360.966 123.341 361.171 123.311 361.452 123.249C361.36 122.49 361.372 121.636 361.186 120.964C360.971 120.966 360.782 120.962 360.568 121.033ZM362.101 120.906C361.958 120.873 361.791 120.905 361.654 120.908C361.718 121.55 361.875 122.258 361.93 122.932C362.145 122.939 362.261 122.837 362.438 122.803C362.447 122.211 362.386 121.396 362.101 120.906ZM364.423 123.029C364.873 122.92 365.156 122.369 365.03 121.803C364.945 121.423 364.795 120.707 364.634 120.464C364.516 120.284 364.193 120.048 363.936 120.213C363.517 120.481 362.78 120.559 362.475 120.884C362.628 121.394 362.675 122.094 362.739 122.74C363.261 122.773 363.905 122.596 364.34 122.783C364.036 122.882 363.642 122.883 363.38 123.026C363.594 123.13 364.096 123.109 364.423 123.029ZM360.243 120.294C359.927 119.55 359.64 118.78 359.169 118.182C358.712 118.488 358.209 118.777 358.081 119.333C358.735 119.703 359.497 120.068 360.243 120.294ZM361.021 117.993C360.991 118.736 360.907 119.71 360.709 120.293C361.181 119.691 361.562 118.991 361.96 118.309C361.79 118.036 361.435 117.799 361.021 117.993ZM360.139 117.679C359.96 117.66 359.808 117.885 359.576 117.787C359.522 117.846 359.474 117.91 359.419 117.968C359.933 118.587 360.167 119.466 360.563 120.194C360.776 119.495 360.752 118.729 360.799 117.965C360.506 117.984 360.344 117.701 360.139 117.679ZM359.572 116.93C359.552 117.142 359.602 117.211 359.644 117.454C360.341 117.672 360.22 116.497 359.572 116.93ZM358.799 116.676C358.498 116.511 358.047 116.333 357.659 116.259C357.178 116.167 357.223 116.915 357.244 117.361C357.26 117.715 357.443 118.089 357.523 118.323C357.561 118.433 357.569 118.549 357.663 118.571C357.828 118.61 358.375 118.391 358.53 118.306C358.859 118.127 359.115 117.841 359.394 117.65C359.398 117.557 359.402 117.464 359.405 117.371C359.237 117.287 359.043 117.227 358.796 117.216C358.964 117.132 359.21 117.133 359.362 117.033C359.364 116.996 359.365 116.959 359.367 116.922C359.088 116.9 358.982 116.776 358.799 116.676ZM355.93 116.154C355.681 116.407 356.629 116.753 356.931 116.771C356.929 116.611 357.022 116.46 357.004 116.345C356.645 116.282 356.174 116.324 355.93 116.154ZM359.001 116.273C358.999 116.298 358.967 116.289 358.962 116.309C359.283 116.56 359.521 116.612 359.957 116.59C360.154 116.447 360.329 116.28 360.534 116.146C360.062 116.188 359.468 116.482 359.001 116.273ZM361.819 117.128C361.805 116.847 361.732 116.268 361.558 116.167C361.193 115.954 360.545 116.597 360.27 116.695C360.3 116.781 360.349 116.85 360.353 116.96C360.516 116.92 360.713 116.947 360.854 117.016C360.691 117.035 360.511 117.033 360.403 117.111C360.364 117.225 360.413 117.381 360.387 117.539C360.773 117.648 361.214 117.706 361.703 117.721C361.798 117.597 361.83 117.362 361.819 117.128ZM355.51 116.399C355.432 116.343 354.903 115.654 354.83 115.683C353.872 116.061 352.976 116.714 352.175 117.333C352.939 118.972 353.247 120.98 353.301 122.915C354.176 123.324 354.944 123.914 356.13 123.976C355.993 123.004 355.868 122.136 355.79 121.221C355.492 121.095 355.064 121.227 354.785 121.182C354.782 120.846 355.211 121.035 355.247 120.809C355.273 120.637 355.011 120.625 355.096 120.355C355.314 120.434 355.429 120.61 355.662 120.675C355.874 120.21 355.659 119.387 355.689 118.998C355.695 118.925 355.726 118.593 355.889 118.652C356.034 118.703 355.881 119.533 355.897 119.901C355.911 120.24 355.856 120.569 355.993 120.781C357.14 120.625 358.305 120.524 359.545 120.49C359.272 120.373 358.948 120.262 358.593 120.062C358.4 119.953 357.793 119.727 357.737 119.544C357.648 119.252 357.97 119.096 358.025 118.846C357.446 119.162 357.333 118.543 357.196 118.105C357.072 117.708 357.002 117.412 356.971 117.183C356.473 116.945 355.939 116.704 355.51 116.399ZM361.313 115.766C362.111 115.379 362.255 117.214 361.942 117.805C361.99 117.981 362.157 118.049 362.224 118.207C361.779 119.006 361.284 119.751 360.83 120.54C361.168 120.329 361.651 120.502 362.049 120.345C362.194 120.287 362.299 119.954 362.409 119.688C362.712 118.954 363.03 118.03 363.172 117.33C363.204 117.171 363.291 116.823 363.271 116.681C363.237 116.427 362.892 116.239 362.717 116.082C362.394 115.791 362.191 115.536 361.854 115.265C361.717 115.466 361.424 115.602 361.313 115.766ZM353.685 108.682C353.304 109.101 353.384 109.886 353.43 110.444C354.117 110.011 355.03 110.478 355.021 111.214C355.35 111.206 355.144 110.804 355.085 110.545C354.891 109.7 355.412 108.783 355.108 108.01C354.519 108.055 354.036 108.295 353.685 108.682ZM356.406 106.251C355.545 106.496 354.442 107.122 354.088 107.896C354.362 107.856 354.552 107.718 354.822 107.701C354.924 107.694 355.058 107.743 355.176 107.714C355.41 107.656 355.607 107.131 355.784 106.936C355.956 106.745 356.162 106.664 356.304 106.49C356.395 106.446 356.529 106.449 356.535 106.312C356.495 106.27 356.454 106.238 356.406 106.251ZM360.889 106.481C359.995 105.976 358.482 105.597 357.532 106.071C356.764 106.454 355.727 107.087 355.374 107.89C355.704 108.664 355.276 109.374 355.249 110.16C355.234 110.578 355.446 110.944 355.462 111.399C355.349 111.586 355.003 111.609 354.764 111.596C354.684 111.193 354.543 110.74 354.128 110.695C353.542 110.63 353.113 111.116 353.086 111.624C353.055 112.221 353.544 113.211 354.239 113.142C354.507 113.116 354.573 112.847 354.865 112.849C355.023 113.166 354.621 113.265 354.579 113.491C354.569 113.549 354.613 113.778 354.638 113.885C354.765 114.406 355.046 115.081 355.322 115.478C355.674 115.981 356.364 116.057 357.106 116.107C357.239 115.821 357.727 115.844 358.045 115.919C357.664 115.768 357.309 115.402 357.015 115.077C356.678 114.705 356.336 114.306 356.319 113.819C356.956 114.705 357.483 115.478 358.643 115.868C359.521 116.162 360.546 115.733 361.22 115.259C361.5 115.062 361.667 114.749 361.866 114.463C362.611 113.392 362.958 111.863 362.881 110.381C362.85 109.77 362.851 109.161 362.646 108.75C362.432 108.32 361.708 107.935 361.284 108.324C361.205 107.906 361.636 107.647 362.143 107.798C361.782 107.331 361.403 106.771 360.889 106.481ZM362.555 120.271C363.253 119.924 364.558 119.336 364.996 120.273C365.158 120.618 365.347 121.201 365.431 121.558C365.549 122.06 365.303 123.117 364.786 123.286C364.33 123.435 363.798 123.425 363.249 123.315C363.184 123.261 363.112 123.167 363.061 123.069C362.669 123.054 362.302 123.091 361.992 123.252C362.021 123.542 361.825 123.589 361.641 123.649C361.505 124.19 361.914 124.896 361.816 125.39C361.746 125.741 361.314 125.796 360.996 125.861C360.986 126.057 361.01 126.22 361.032 126.385C360.959 126.653 360.633 126.805 360.325 126.843C359.309 126.965 357.767 127.02 356.79 126.668C356.518 125.999 356.303 125.185 356.076 124.421C355.123 124.523 354.352 124.01 353.626 123.674C353.374 123.557 353.026 123.493 352.933 123.292C352.841 123.099 352.879 122.727 352.856 122.376C352.799 121.479 352.749 120.614 352.513 119.696C352.406 119.284 352.221 118.92 352.092 118.523C351.973 118.155 351.764 117.7 351.709 117.333C351.629 116.789 352.141 116.759 352.468 116.524C352.974 116.159 353.371 115.958 353.919 115.629C354.081 115.531 354.57 115.285 354.626 115.171C354.737 114.946 354.436 114.629 354.356 114.452C354.229 114.173 354.162 113.936 354.144 113.661C353.684 113.588 353.336 113.314 353.126 113.006C352.777 112.495 352.536 111.55 352.837 110.831C352.861 110.775 352.979 110.663 352.996 110.576C353.03 110.405 352.932 110.177 352.925 109.995C352.894 109.061 353.083 108.256 353.712 107.974C353.967 106.957 354.88 106.619 355.741 106.114C356.062 105.925 356.417 105.804 356.783 105.669C358.097 105.186 360.112 105.277 361.202 106.102C361.664 106.451 362.403 107.19 362.667 107.725C363.366 109.137 363.316 111.496 362.828 113.214C362.762 113.444 362.667 113.783 362.534 114.06C362.441 114.254 362.153 114.641 362.188 114.812C362.224 114.988 362.845 115.46 362.978 115.588C363.218 115.819 363.673 116.127 363.71 116.418C363.75 116.729 363.573 117.154 363.484 117.454C363.185 118.454 362.893 119.379 362.555 120.271Z" fill="#231F20"/>
<path fill-rule="evenodd" clip-rule="evenodd" d="M357.895 113.346C357.933 113.295 358.141 113.218 358.433 113.359C358.433 113.359 358.087 113.417 358.116 113.993L357.972 113.964C357.972 113.964 357.823 113.441 357.895 113.346Z" fill="#F7E4CD"/>
<path fill-rule="evenodd" clip-rule="evenodd" d="M360.42 118.3C360.42 118.387 360.348 118.458 360.261 118.458C360.173 118.458 360.102 118.387 360.102 118.3C360.102 118.212 360.173 118.141 360.261 118.141C360.348 118.141 360.42 118.212 360.42 118.3Z" fill="#1D1919"/>
<path fill-rule="evenodd" clip-rule="evenodd" d="M360.578 119.034C360.578 119.122 360.507 119.193 360.419 119.193C360.332 119.193 360.26 119.122 360.26 119.034C360.26 118.947 360.332 118.875 360.419 118.875C360.507 118.875 360.578 118.947 360.578 119.034Z" fill="#1D1919"/>
</g>
<path d="M249 252.026L107 343.526" stroke="url(#paint14_linear_4469_9885)" stroke-width="2"/>
<g filter="url(#filter14_d_4469_9885)">
<rect x="78" y="311.026" width="56" height="56" rx="28" fill="#F9FAFC"/>
<rect x="79" y="312.026" width="54" height="54" rx="27" stroke="#05D9F9" stroke-width="2"/>
<path d="M91.7469 340.528C90.9177 339.699 90.9177 338.354 91.7469 337.525L104.498 324.773C105.328 323.944 106.672 323.944 107.502 324.773L120.253 337.525C121.082 338.354 121.082 339.699 120.253 340.528L107.502 353.28C106.672 354.109 105.328 354.109 104.498 353.28L91.7469 340.528Z" fill="#EE513B"/>
<path d="M101.908 327.404L100.617 328.696L103.952 332.031C103.817 332.32 103.742 332.643 103.742 332.983C103.742 333.95 104.349 334.774 105.203 335.096V343.255C104.349 343.577 103.742 344.402 103.742 345.368C103.742 346.615 104.753 347.626 106 347.626C107.247 347.626 108.257 346.615 108.257 345.368C108.257 344.492 107.758 343.732 107.029 343.358V335.108L110.217 338.296C110.089 338.579 110.017 338.894 110.017 339.226C110.017 340.472 111.028 341.483 112.275 341.483C113.522 341.483 114.533 340.472 114.533 339.226C114.533 337.979 113.522 336.968 112.275 336.968C112.033 336.968 111.799 337.006 111.58 337.077L108.157 333.653C108.222 333.441 108.257 333.216 108.257 332.983C108.257 331.736 107.247 330.726 106 330.726C105.767 330.726 105.542 330.761 105.33 330.826L101.908 327.404Z" fill="white"/>
</g>
<g filter="url(#filter15_d_4469_9885)">
<rect x="185" y="185.12" width="126" height="126" rx="63" fill="#F9FAFC"/>
<rect x="185" y="185.12" width="126" height="126" rx="63" stroke="url(#paint15_linear_4469_9885)" stroke-width="3.85714"/>
<path d="M249.408 222.294L243.626 232.329H243.587L237.863 222.392L249.408 222.294Z" fill="#83FF50" stroke="#83FF50" stroke-width="0.196001" stroke-miterlimit="5.3333"/>
<mask id="mask0_4469_9885" style="mask-type:luminance" maskUnits="userSpaceOnUse" x="222" y="210" width="32" height="15">
<path d="M253.342 224.1H222.295V210.439H253.342V224.1Z" fill="white"/>
</mask>
<g mask="url(#mask0_4469_9885)">
<g opacity="0.83">
<path d="M249.457 222.238L249.437 222.277H249.418V222.297L237.854 222.395V222.375H226.27L226.191 222.238L232.013 212.163H243.655L249.457 222.238Z" fill="#96FF5B" fill-opacity="0.6471"/>
</g>
</g>
<path d="M249.433 222.279L243.651 232.315H243.632L249.414 222.279H249.433Z" fill="white"/>
<path d="M243.658 232.459L243.639 232.498L237.837 242.534H226.214L220.393 232.459L226.214 222.385H226.273L231.996 232.322H243.58L243.658 232.459Z" fill="#00D6FF" stroke="#00D6FF" stroke-width="0.196001" stroke-miterlimit="5.3333"/>
<path d="M243.578 232.321H232.014L226.271 222.383H237.855L243.578 232.321Z" fill="#7DFFFF" stroke="#7DFFFF" stroke-width="0.196001" stroke-miterlimit="5.3333"/>
<path d="M249.493 242.286L249.591 242.443H249.415L245.005 242.482L237.851 242.541L243.653 232.505H255.158L249.493 242.286Z" fill="#32E6FF" stroke="#32E6FF" stroke-width="0.196001" stroke-miterlimit="5.3333"/>
<mask id="mask1_4469_9885" style="mask-type:luminance" maskUnits="userSpaceOnUse" x="234" y="229" width="25" height="28">
<path d="M258.357 256.029H234.856V229.138H258.357V256.029Z" fill="white"/>
</mask>
<g mask="url(#mask1_4469_9885)">
<g opacity="0.86">
<path d="M255.424 252.369L255.247 252.663H243.625L237.803 242.588L237.823 242.549L243.625 232.514H243.644L237.842 242.529L244.997 242.471L249.426 242.431H249.603L255.306 252.369H255.424Z" fill="#00D5FF" fill-opacity="0.5451"/>
</g>
</g>
<path d="M249.492 242.286L249.59 242.443H249.414L243.691 232.505H255.157L249.492 242.286Z" fill="#20E6FF" stroke="#20E6FF" stroke-width="0.196001" stroke-miterlimit="5.3333"/>
<path d="M260.997 242.442H249.589L249.491 242.285L255.136 232.504H255.254L260.997 242.442Z" fill="#2AF0FF" stroke="#2AF0FF" stroke-width="0.196001" stroke-miterlimit="5.3333"/>
<mask id="mask2_4469_9885" style="mask-type:luminance" maskUnits="userSpaceOnUse" x="247" y="240" width="17" height="15">
<path d="M263.002 254.03H247.675V240.799H263.002V254.03Z" fill="white"/>
</mask>
<g mask="url(#mask2_4469_9885)">
<g opacity="0.95">
<path d="M261.072 242.58L255.428 252.361H255.31L249.587 242.443H260.994L261.072 242.58Z" fill="#29EFFF" fill-opacity="0.8"/>
</g>
</g>
<path d="M266.875 232.362L261.054 242.437H260.995L255.272 232.499H243.688L243.609 232.362L243.629 232.323L249.411 222.288V222.268H261.054L266.777 232.186L266.875 232.362Z" fill="#32F8B9" stroke="#32F8B9" stroke-width="0.196001" stroke-miterlimit="5.3333"/>
<mask id="mask3_4469_9885" style="mask-type:luminance" maskUnits="userSpaceOnUse" x="252" y="228" width="24" height="29">
<path d="M275.607 256.029H252.342V228.961H275.607V256.029Z" fill="white"/>
</mask>
<g mask="url(#mask3_4469_9885)">
<g opacity="0.85">
<path d="M272.686 242.428L266.865 252.502L255.242 252.659L261.004 242.722L260.926 242.585H260.985L266.806 232.51L266.708 232.353H266.884L272.686 242.428Z" fill="#32F6B8" fill-opacity="0.5647"/>
</g>
</g>
<path d="M226.749 271.381V260.429H231.437V262.095H228.396V265.082H230.623V266.747H228.396V269.716H231.437V271.381H226.749Z" fill="#090909"/>
<path d="M235.566 262.948L234.95 267.257H236.181L235.566 262.948ZM234.697 268.868L234.298 271.384H232.579L234.443 260.45H236.706L238.534 271.384H236.797L236.416 268.868H234.697Z" fill="#090909"/>
<path d="M243.519 263.079C243.519 262.446 243.211 262.12 242.577 262.12H241.582V265.614H242.577C242.831 265.614 243.066 265.523 243.247 265.342C243.428 265.161 243.519 264.926 243.519 264.672V263.079ZM242.541 260.436C243.464 260.436 244.134 260.69 244.569 261.196C244.949 261.631 245.13 262.265 245.13 263.043V264.636C245.13 265.414 244.84 266.066 244.243 266.609L245.474 271.388H243.682L242.686 267.261H242.541H241.582V271.388H239.934V260.454H242.541V260.436Z" fill="#090909"/>
<path d="M248.093 262.101H246.337V260.436H251.496V262.101H249.74V271.388H248.093V262.101Z" fill="#090909"/>
<path d="M254.466 266.746V271.38H252.819V260.446H254.466V265.08H256.457V260.428H258.105V271.362H256.457V266.746H254.466Z" fill="#090909"/>
<path d="M264.077 271.381H259.588V260.447H261.235V269.734H264.077V271.381Z" fill="#090909"/>
<path d="M265.378 266.798L263.169 260.426H264.98L266.211 264.354L267.424 260.426H269.252L267.025 266.798V271.378H265.378V266.798Z" fill="#090909"/>
<path d="M262.154 277.492C262.154 276.859 261.846 276.533 261.213 276.533H260.217V280.027H261.213C261.466 280.027 261.701 279.936 261.882 279.755C262.063 279.574 262.154 279.339 262.154 279.086V277.492ZM261.176 274.849C262.1 274.849 262.769 275.103 263.204 275.61C263.584 276.044 263.765 276.678 263.765 277.456V279.049C263.765 279.828 263.475 280.479 262.878 281.023L264.109 285.802H262.317L261.321 281.674H261.176H260.217V285.802H258.57V274.868H261.176V274.849Z" fill="#49728B"/>
<path d="M254.236 277.362L253.62 281.67H254.851L254.236 277.362ZM253.367 283.281L252.968 285.798H251.249L253.113 274.863H255.376L257.204 285.798H255.467L255.086 283.281H253.367Z" fill="#49728B"/>
<path d="M246.245 279.897V285.794H244.597V274.859H246.245L248.236 280.633V274.841H249.883V285.775H248.236L246.245 279.897Z" fill="#49728B"/>
<path d="M240.387 285.794C239.039 285.794 237.946 284.701 237.946 283.353V274.859H239.593V283.147C239.593 283.697 240.039 284.143 240.589 284.143C241.139 284.143 241.584 283.697 241.584 283.147V274.841H243.232V283.334C243.232 284.685 242.142 285.784 240.791 285.794H240.387Z" fill="#49728B"/>
<path d="M231.893 285.795V274.842H233.54V276.508V279.495V281.16V284.129H236.581V285.795H231.893Z" fill="#49728B"/>
</g>
<text fill="#111827" xml:space="preserve" style="white-space: pre" font-size="12" font-weight="bold" letter-spacing="-0.03em"><tspan x="24" y="243.663">Applications</tspan></text>
<text fill="#111827" xml:space="preserve" style="white-space: pre" font-size="12" font-weight="bold" letter-spacing="-0.03em"><tspan x="434" y="197.663">CI/CD</tspan></text>
<text fill="#111827" xml:space="preserve" style="white-space: pre" font-size="12" font-weight="bold" letter-spacing="-0.03em"><tspan x="317" y="407.663">Guardrails</tspan></text>
<defs>
<filter id="filter0_d_4469_9885" x="0.691377" y="0.811616" width="494.617" height="494.617" filterUnits="userSpaceOnUse" color-interpolation-filters="sRGB">
<feFlood flood-opacity="0" result="BackgroundImageFix"/>
<feColorMatrix in="SourceAlpha" type="matrix" values="0 0 0 0 0 0 0 0 0 0 0 0 0 0 0 0 0 0 127 0" result="hardAlpha"/>
<feMorphology radius="3.83029" operator="dilate" in="SourceAlpha" result="effect1_dropShadow_4469_9885"/>
<feOffset/>
<feGaussianBlur stdDeviation="6.19229"/>
<feComposite in2="hardAlpha" operator="out"/>
<feColorMatrix type="matrix" values="0 0 0 0 0 0 0 0 0 0 0 0 0 0 0 0 0 0 0.05 0"/>
<feBlend mode="normal" in2="BackgroundImageFix" result="effect1_dropShadow_4469_9885"/>
<feBlend mode="normal" in="SourceGraphic" in2="effect1_dropShadow_4469_9885" result="shape"/>
</filter>
<filter id="filter1_d_4469_9885" x="59.6508" y="59.7712" width="376.698" height="376.698" filterUnits="userSpaceOnUse" color-interpolation-filters="sRGB">
<feFlood flood-opacity="0" result="BackgroundImageFix"/>
<feColorMatrix in="SourceAlpha" type="matrix" values="0 0 0 0 0 0 0 0 0 0 0 0 0 0 0 0 0 0 127 0" result="hardAlpha"/>
<feMorphology radius="2.91713" operator="dilate" in="SourceAlpha" result="effect1_dropShadow_4469_9885"/>
<feOffset/>
<feGaussianBlur stdDeviation="4.71602"/>
<feComposite in2="hardAlpha" operator="out"/>
<feColorMatrix type="matrix" values="0 0 0 0 0 0 0 0 0 0 0 0 0 0 0 0 0 0 0.05 0"/>
<feBlend mode="normal" in2="BackgroundImageFix" result="effect1_dropShadow_4469_9885"/>
<feBlend mode="normal" in="SourceGraphic" in2="effect1_dropShadow_4469_9885" result="shape"/>
</filter>
<filter id="filter2_d_4469_9885" x="124.37" y="124.49" width="247.261" height="247.261" filterUnits="userSpaceOnUse" color-interpolation-filters="sRGB">
<feFlood flood-opacity="0" result="BackgroundImageFix"/>
<feColorMatrix in="SourceAlpha" type="matrix" values="0 0 0 0 0 0 0 0 0 0 0 0 0 0 0 0 0 0 127 0" result="hardAlpha"/>
<feMorphology radius="2.51111" operator="dilate" in="SourceAlpha" result="effect1_dropShadow_4469_9885"/>
<feOffset/>
<feGaussianBlur stdDeviation="4.05963"/>
<feComposite in2="hardAlpha" operator="out"/>
<feColorMatrix type="matrix" values="0 0 0 0 0 0 0 0 0 0 0 0 0 0 0 0 0 0 0.05 0"/>
<feBlend mode="normal" in2="BackgroundImageFix" result="effect1_dropShadow_4469_9885"/>
<feBlend mode="normal" in="SourceGraphic" in2="effect1_dropShadow_4469_9885" result="shape"/>
</filter>
<filter id="filter3_d_4469_9885" x="181.828" y="366.948" width="70.3444" height="70.3444" filterUnits="userSpaceOnUse" color-interpolation-filters="sRGB">
<feFlood flood-opacity="0" result="BackgroundImageFix"/>
<feColorMatrix in="SourceAlpha" type="matrix" values="0 0 0 0 0 0 0 0 0 0 0 0 0 0 0 0 0 0 127 0" result="hardAlpha"/>
<feMorphology radius="2.16667" operator="dilate" in="SourceAlpha" result="effect1_dropShadow_4469_9885"/>
<feOffset/>
<feGaussianBlur stdDeviation="3.50278"/>
<feComposite in2="hardAlpha" operator="out"/>
<feColorMatrix type="matrix" values="0 0 0 0 0 0 0 0 0 0 0 0 0 0 0 0 0 0 0.05 0"/>
<feBlend mode="normal" in2="BackgroundImageFix" result="effect1_dropShadow_4469_9885"/>
<feBlend mode="normal" in="SourceGraphic" in2="effect1_dropShadow_4469_9885" result="shape"/>
</filter>
<filter id="filter4_d_4469_9885" x="290.297" y="320.418" width="51.4056" height="51.4056" filterUnits="userSpaceOnUse" color-interpolation-filters="sRGB">
<feFlood flood-opacity="0" result="BackgroundImageFix"/>
<feColorMatrix in="SourceAlpha" type="matrix" values="0 0 0 0 0 0 0 0 0 0 0 0 0 0 0 0 0 0 127 0" result="hardAlpha"/>
<feMorphology radius="1.58333" operator="dilate" in="SourceAlpha" result="effect1_dropShadow_4469_9885"/>
<feOffset/>
<feGaussianBlur stdDeviation="2.55972"/>
<feComposite in2="hardAlpha" operator="out"/>
<feColorMatrix type="matrix" values="0 0 0 0 0 0 0 0 0 0 0 0 0 0 0 0 0 0 0.05 0"/>
<feBlend mode="normal" in2="BackgroundImageFix" result="effect1_dropShadow_4469_9885"/>
<feBlend mode="normal" in="SourceGraphic" in2="effect1_dropShadow_4469_9885" result="shape"/>
</filter>
<filter id="filter5_d_4469_9885" x="381.181" y="297.301" width="67.6389" height="67.6389" filterUnits="userSpaceOnUse" color-interpolation-filters="sRGB">
<feFlood flood-opacity="0" result="BackgroundImageFix"/>
<feColorMatrix in="SourceAlpha" type="matrix" values="0 0 0 0 0 0 0 0 0 0 0 0 0 0 0 0 0 0 127 0" result="hardAlpha"/>
<feMorphology radius="2.08333" operator="dilate" in="SourceAlpha" result="effect1_dropShadow_4469_9885"/>
<feOffset/>
<feGaussianBlur stdDeviation="3.36806"/>
<feComposite in2="hardAlpha" operator="out"/>
<feColorMatrix type="matrix" values="0 0 0 0 0 0 0 0 0 0 0 0 0 0 0 0 0 0 0.05 0"/>
<feBlend mode="normal" in2="BackgroundImageFix" result="effect1_dropShadow_4469_9885"/>
<feBlend mode="normal" in="SourceGraphic" in2="effect1_dropShadow_4469_9885" result="shape"/>
</filter>
<filter id="filter6_d_4469_9885" x="325.828" y="188.854" width="70.3444" height="70.3444" filterUnits="userSpaceOnUse" color-interpolation-filters="sRGB">
<feFlood flood-opacity="0" result="BackgroundImageFix"/>
<feColorMatrix in="SourceAlpha" type="matrix" values="0 0 0 0 0 0 0 0 0 0 0 0 0 0 0 0 0 0 127 0" result="hardAlpha"/>
<feMorphology radius="2.16667" operator="dilate" in="SourceAlpha" result="effect1_dropShadow_4469_9885"/>
<feOffset/>
<feGaussianBlur stdDeviation="3.50278"/>
<feComposite in2="hardAlpha" operator="out"/>
<feColorMatrix type="matrix" values="0 0 0 0 0 0 0 0 0 0 0 0 0 0 0 0 0 0 0.05 0"/>
<feBlend mode="normal" in2="BackgroundImageFix" result="effect1_dropShadow_4469_9885"/>
<feBlend mode="normal" in="SourceGraphic" in2="effect1_dropShadow_4469_9885" result="shape"/>
</filter>
<filter id="filter7_d_4469_9885" x="195.064" y="33.1843" width="83.8722" height="83.8722" filterUnits="userSpaceOnUse" color-interpolation-filters="sRGB">
<feFlood flood-opacity="0" result="BackgroundImageFix"/>
<feColorMatrix in="SourceAlpha" type="matrix" values="0 0 0 0 0 0 0 0 0 0 0 0 0 0 0 0 0 0 127 0" result="hardAlpha"/>
<feMorphology radius="2.58333" operator="dilate" in="SourceAlpha" result="effect1_dropShadow_4469_9885"/>
<feOffset/>
<feGaussianBlur stdDeviation="4.17639"/>
<feComposite in2="hardAlpha" operator="out"/>
<feColorMatrix type="matrix" values="0 0 0 0 0 0 0 0 0 0 0 0 0 0 0 0 0 0 0.05 0"/>
<feBlend mode="normal" in2="BackgroundImageFix" result="effect1_dropShadow_4469_9885"/>
<feBlend mode="normal" in="SourceGraphic" in2="effect1_dropShadow_4469_9885" result="shape"/>
</filter>
<filter id="filter8_d_4469_9885" x="61.0639" y="105.184" width="83.8722" height="83.8722" filterUnits="userSpaceOnUse" color-interpolation-filters="sRGB">
<feFlood flood-opacity="0" result="BackgroundImageFix"/>
<feColorMatrix in="SourceAlpha" type="matrix" values="0 0 0 0 0 0 0 0 0 0 0 0 0 0 0 0 0 0 127 0" result="hardAlpha"/>
<feMorphology radius="2.58333" operator="dilate" in="SourceAlpha" result="effect1_dropShadow_4469_9885"/>
<feOffset/>
<feGaussianBlur stdDeviation="4.17639"/>
<feComposite in2="hardAlpha" operator="out"/>
<feColorMatrix type="matrix" values="0 0 0 0 0 0 0 0 0 0 0 0 0 0 0 0 0 0 0.05 0"/>
<feBlend mode="normal" in2="BackgroundImageFix" result="effect1_dropShadow_4469_9885"/>
<feBlend mode="normal" in="SourceGraphic" in2="effect1_dropShadow_4469_9885" result="shape"/>
</filter>
<filter id="filter9_d_4469_9885" x="60.825" y="214.851" width="16.35" height="16.35" filterUnits="userSpaceOnUse" color-interpolation-filters="sRGB">
<feFlood flood-opacity="0" result="BackgroundImageFix"/>
<feColorMatrix in="SourceAlpha" type="matrix" values="0 0 0 0 0 0 0 0 0 0 0 0 0 0 0 0 0 0 127 0" result="hardAlpha"/>
<feMorphology radius="0.75" operator="dilate" in="SourceAlpha" result="effect1_dropShadow_4469_9885"/>
<feOffset/>
<feGaussianBlur stdDeviation="1.2125"/>
<feComposite in2="hardAlpha" operator="out"/>
<feColorMatrix type="matrix" values="0 0 0 0 0 0 0 0 0 0 0 0 0 0 0 0 0 0 0.05 0"/>
<feBlend mode="normal" in2="BackgroundImageFix" result="effect1_dropShadow_4469_9885"/>
<feBlend mode="normal" in="SourceGraphic" in2="effect1_dropShadow_4469_9885" result="shape"/>
</filter>
<filter id="filter10_d_4469_9885" x="414.825" y="184.851" width="18.35" height="18.35" filterUnits="userSpaceOnUse" color-interpolation-filters="sRGB">
<feFlood flood-opacity="0" result="BackgroundImageFix"/>
<feColorMatrix in="SourceAlpha" type="matrix" values="0 0 0 0 0 0 0 0 0 0 0 0 0 0 0 0 0 0 127 0" result="hardAlpha"/>
<feMorphology radius="0.75" operator="dilate" in="SourceAlpha" result="effect1_dropShadow_4469_9885"/>
<feOffset/>
<feGaussianBlur stdDeviation="1.2125"/>
<feComposite in2="hardAlpha" operator="out"/>
<feColorMatrix type="matrix" values="0 0 0 0 0 0 0 0 0 0 0 0 0 0 0 0 0 0 0.05 0"/>
<feBlend mode="normal" in2="BackgroundImageFix" result="effect1_dropShadow_4469_9885"/>
<feBlend mode="normal" in="SourceGraphic" in2="effect1_dropShadow_4469_9885" result="shape"/>
</filter>
<filter id="filter11_d_4469_9885" x="337.236" y="382.263" width="13.5278" height="13.5278" filterUnits="userSpaceOnUse" color-interpolation-filters="sRGB">
<feFlood flood-opacity="0" result="BackgroundImageFix"/>
<feColorMatrix in="SourceAlpha" type="matrix" values="0 0 0 0 0 0 0 0 0 0 0 0 0 0 0 0 0 0 127 0" result="hardAlpha"/>
<feMorphology radius="0.416667" operator="dilate" in="SourceAlpha" result="effect1_dropShadow_4469_9885"/>
<feOffset/>
<feGaussianBlur stdDeviation="0.673611"/>
<feComposite in2="hardAlpha" operator="out"/>
<feColorMatrix type="matrix" values="0 0 0 0 0 0 0 0 0 0 0 0 0 0 0 0 0 0 0.05 0"/>
<feBlend mode="normal" in2="BackgroundImageFix" result="effect1_dropShadow_4469_9885"/>
<feBlend mode="normal" in="SourceGraphic" in2="effect1_dropShadow_4469_9885" result="shape"/>
</filter>
<filter id="filter12_d_4469_9885" x="110.239" y="193.359" width="59.5222" height="59.5222" filterUnits="userSpaceOnUse" color-interpolation-filters="sRGB">
<feFlood flood-opacity="0" result="BackgroundImageFix"/>
<feColorMatrix in="SourceAlpha" type="matrix" values="0 0 0 0 0 0 0 0 0 0 0 0 0 0 0 0 0 0 127 0" result="hardAlpha"/>
<feMorphology radius="1.83333" operator="dilate" in="SourceAlpha" result="effect1_dropShadow_4469_9885"/>
<feOffset/>
<feGaussianBlur stdDeviation="2.96389"/>
<feComposite in2="hardAlpha" operator="out"/>
<feColorMatrix type="matrix" values="0 0 0 0 0 0 0 0 0 0 0 0 0 0 0 0 0 0 0.05 0"/>
<feBlend mode="normal" in2="BackgroundImageFix" result="effect1_dropShadow_4469_9885"/>
<feBlend mode="normal" in="SourceGraphic" in2="effect1_dropShadow_4469_9885" result="shape"/>
</filter>
<filter id="filter13_d_4469_9885" x="331.797" y="90.4176" width="51.4056" height="51.4056" filterUnits="userSpaceOnUse" color-interpolation-filters="sRGB">
<feFlood flood-opacity="0" result="BackgroundImageFix"/>
<feColorMatrix in="SourceAlpha" type="matrix" values="0 0 0 0 0 0 0 0 0 0 0 0 0 0 0 0 0 0 127 0" result="hardAlpha"/>
<feMorphology radius="1.58333" operator="dilate" in="SourceAlpha" result="effect1_dropShadow_4469_9885"/>
<feOffset/>
<feGaussianBlur stdDeviation="2.55972"/>
<feComposite in2="hardAlpha" operator="out"/>
<feColorMatrix type="matrix" values="0 0 0 0 0 0 0 0 0 0 0 0 0 0 0 0 0 0 0.05 0"/>
<feBlend mode="normal" in2="BackgroundImageFix" result="effect1_dropShadow_4469_9885"/>
<feBlend mode="normal" in="SourceGraphic" in2="effect1_dropShadow_4469_9885" result="shape"/>
</filter>
<filter id="filter14_d_4469_9885" x="68.1222" y="301.149" width="75.7556" height="75.7556" filterUnits="userSpaceOnUse" color-interpolation-filters="sRGB">
<feFlood flood-opacity="0" result="BackgroundImageFix"/>
<feColorMatrix in="SourceAlpha" type="matrix" values="0 0 0 0 0 0 0 0 0 0 0 0 0 0 0 0 0 0 127 0" result="hardAlpha"/>
<feMorphology radius="2.33333" operator="dilate" in="SourceAlpha" result="effect1_dropShadow_4469_9885"/>
<feOffset/>
<feGaussianBlur stdDeviation="3.77222"/>
<feComposite in2="hardAlpha" operator="out"/>
<feColorMatrix type="matrix" values="0 0 0 0 0 0 0 0 0 0 0 0 0 0 0 0 0 0 0.05 0"/>
<feBlend mode="normal" in2="BackgroundImageFix" result="effect1_dropShadow_4469_9885"/>
<feBlend mode="normal" in="SourceGraphic" in2="effect1_dropShadow_4469_9885" result="shape"/>
</filter>
<filter id="filter15_d_4469_9885" x="173.979" y="174.1" width="148.041" height="148.041" filterUnits="userSpaceOnUse" color-interpolation-filters="sRGB">
<feFlood flood-opacity="0" result="BackgroundImageFix"/>
<feColorMatrix in="SourceAlpha" type="matrix" values="0 0 0 0 0 0 0 0 0 0 0 0 0 0 0 0 0 0 127 0" result="hardAlpha"/>
<feMorphology radius="2.14773" operator="dilate" in="SourceAlpha" result="effect1_dropShadow_4469_9885"/>
<feOffset/>
<feGaussianBlur stdDeviation="3.47216"/>
<feComposite in2="hardAlpha" operator="out"/>
<feColorMatrix type="matrix" values="0 0 0 0 0 0 0 0 0 0 0 0 0 0 0 0 0 0 0.17 0"/>
<feBlend mode="normal" in2="BackgroundImageFix" result="effect1_dropShadow_4469_9885"/>
<feBlend mode="normal" in="SourceGraphic" in2="effect1_dropShadow_4469_9885" result="shape"/>
</filter>
<linearGradient id="paint0_linear_4469_9885" x1="87" y1="219.87" x2="249.5" y2="219.87" gradientUnits="userSpaceOnUse">
<stop stop-color="#CDF4FD"/>
<stop offset="1" stop-color="#00D6FF"/>
</linearGradient>
<linearGradient id="paint1_linear_4469_9885" x1="244" y1="135.12" x2="244" y2="252.12" gradientUnits="userSpaceOnUse">
<stop stop-color="#83FF50"/>
<stop offset="1" stop-color="#83FF50" stop-opacity="0.6"/>
</linearGradient>
<linearGradient id="paint2_linear_4469_9885" x1="304.75" y1="115.62" x2="304.75" y2="252.12" gradientUnits="userSpaceOnUse">
<stop stop-color="#83FF50"/>
<stop offset="1" stop-color="#83FF50" stop-opacity="0.6"/>
</linearGradient>
<linearGradient id="paint3_linear_4469_9885" x1="231.75" y1="248.526" x2="231.75" y2="402.526" gradientUnits="userSpaceOnUse">
<stop stop-color="#34F8B6"/>
<stop offset="1" stop-color="#34F8B6" stop-opacity="0.4"/>
</linearGradient>
<linearGradient id="paint4_linear_4469_9885" x1="231.75" y1="248.526" x2="231.75" y2="402.526" gradientUnits="userSpaceOnUse">
<stop stop-color="#34F8B6"/>
<stop offset="1" stop-color="#34F8B6" stop-opacity="0.4"/>
</linearGradient>
<linearGradient id="paint5_linear_4469_9885" x1="91" y1="289.026" x2="221" y2="403.026" gradientUnits="userSpaceOnUse">
<stop stop-color="#8FEEFD"/>
<stop offset="1" stop-color="#34F8B6"/>
</linearGradient>
<linearGradient id="paint6_linear_4469_9885" x1="91.0001" y1="289.027" x2="221" y2="403.027" gradientUnits="userSpaceOnUse">
<stop stop-color="#8FEEFD"/>
<stop offset="1" stop-color="#34F8B6"/>
</linearGradient>
<linearGradient id="paint7_linear_4469_9885" x1="91" y1="289.026" x2="221" y2="403.026" gradientUnits="userSpaceOnUse">
<stop stop-color="#8FEEFD"/>
<stop offset="1" stop-color="#34F8B6"/>
</linearGradient>
<linearGradient id="paint8_linear_4469_9885" x1="-24.0001" y1="154.526" x2="106" y2="268.527" gradientUnits="userSpaceOnUse">
<stop stop-color="#8FEEFD"/>
<stop offset="1" stop-color="#34F8B6"/>
</linearGradient>
<linearGradient id="paint9_linear_4469_9885" x1="61.4609" y1="224.399" x2="140.5" y2="224.399" gradientUnits="userSpaceOnUse">
<stop stop-color="#CDF4FD"/>
<stop offset="1" stop-color="#00D6FF"/>
</linearGradient>
<linearGradient id="paint10_linear_4469_9885" x1="299.7" y1="90.9918" x2="299.7" y2="116.026" gradientUnits="userSpaceOnUse">
<stop stop-color="#83FF50"/>
<stop offset="1" stop-color="#83FF50" stop-opacity="0.6"/>
</linearGradient>
<linearGradient id="paint11_linear_4469_9885" x1="299.7" y1="90.9919" x2="299.7" y2="116.027" gradientUnits="userSpaceOnUse">
<stop stop-color="#83FF50"/>
<stop offset="1" stop-color="#83FF50" stop-opacity="0.6"/>
</linearGradient>
<linearGradient id="paint12_linear_4469_9885" x1="-24.0001" y1="154.526" x2="106" y2="268.527" gradientUnits="userSpaceOnUse">
<stop stop-color="#8FEEFD"/>
<stop offset="1" stop-color="#34F8B6"/>
</linearGradient>
<linearGradient id="paint13_linear_4469_9885" x1="91" y1="289.026" x2="221" y2="403.026" gradientUnits="userSpaceOnUse">
<stop stop-color="#8FEEFD"/>
<stop offset="1" stop-color="#34F8B6"/>
</linearGradient>
<linearGradient id="paint14_linear_4469_9885" x1="92.0272" y1="286.148" x2="249" y2="286.148" gradientUnits="userSpaceOnUse">
<stop stop-color="#CDF4FD"/>
<stop offset="1" stop-color="#00D6FF"/>
</linearGradient>
<linearGradient id="paint15_linear_4469_9885" x1="185" y1="248.12" x2="311" y2="248.12" gradientUnits="userSpaceOnUse">
<stop stop-color="#00D6FF"/>
<stop offset="0.505" stop-color="#83FF50"/>
<stop offset="1" stop-color="#32F8B9"/>
</linearGradient>
<clipPath id="clip0_4469_9885">
<rect width="36.864" height="36" fill="white" transform="translate(219 57.1204)"/>
</clipPath>
</defs>
</svg>
