<svg width="918" height="2000" viewBox="0 0 918 608" fill="none" xmlns="http://www.w3.org/2000/svg">
<g opacity="0.24" filter="url(#filter0_d_5137_10121)">
<rect x="17" y="-172" width="884" height="884" rx="442" fill="white"/>
<rect x="17.6384" y="-171.362" width="882.723" height="882.723" rx="441.362" stroke="#00D6FF" stroke-opacity="0.08" stroke-width="1.27676"/>
</g>
<g opacity="0.24" filter="url(#filter1_d_5137_10121)">
<rect x="137" y="-52" width="644" height="645" rx="322" fill="white"/>
<rect x="137.638" y="-51.3616" width="642.723" height="643.723" rx="321.362" stroke="#00D6FF" stroke-opacity="0.08" stroke-width="1.27676"/>
</g>
<g opacity="0.24" filter="url(#filter2_d_5137_10121)">
<rect x="227.906" y="39" width="462.188" height="462.188" rx="231.094" fill="white"/>
<rect x="228.545" y="39.6384" width="460.911" height="460.911" rx="230.455" stroke="#00D6FF" stroke-opacity="0.08" stroke-width="1.27676"/>
</g>
<g opacity="0.32" filter="url(#filter3_d_5137_10121)">
<rect x="283" y="94.0939" width="352" height="352" rx="176" fill="white"/>
<rect x="283.486" y="94.5801" width="351.028" height="351.028" rx="175.514" stroke="#00D6FF" stroke-opacity="0.08" stroke-width="0.972376"/>
</g>
<g opacity="0.59" filter="url(#filter4_d_5137_10121)">
<rect x="346" y="157.094" width="226" height="226" rx="113" fill="#FDFDFD"/>
<rect x="346.419" y="157.512" width="225.163" height="225.163" rx="112.581" stroke="#00D6FF" stroke-opacity="0.08" stroke-width="0.837037"/>
</g>
<path d="M460.5 273.594L352.5 248.094M352.5 248.094L313.5 170.094M352.5 248.094L316.5 362.5" stroke="#5DCDE8" stroke-width="2"/>
<path d="M461 274.094L448.5 96.5" stroke="#5DCDE8" stroke-width="2"/>
<path d="M462 274.094L572.5 247L569.5 137.594" stroke="#5DCDE8" stroke-width="2"/>
<path d="M563 143.5L454 280" stroke="#5DCDE8" stroke-width="2"/>
<path d="M457.5 270.5L428 424.5" stroke="#5DCDE8" stroke-width="2"/>
<path d="M627.5 353L457.5 270.5L527.5 370" stroke="#5DCDE8" stroke-width="2"/>
<path d="M318 360L428 425" stroke="#5DCDE8"/>
<path d="M555 411L528 368.5" stroke="#5DCDE8" stroke-width="2"/>
<path d="M573 247L625.5 354.5" stroke="#5DCDE8"/>
<path d="M448 97L352.5 246.5" stroke="#5DCDE8"/>
<path d="M351.5 247L280.5 245.5" stroke="#5DCDE8" stroke-width="2"/>
<path d="M569.5 138L447 100" stroke="#5DCDE8"/>
<path d="M572.5 245L634 216.5" stroke="#5DCDE8" stroke-width="2"/>
<path d="M448 97L311.5 169.5" stroke="#5DCDE8"/>
<path d="M627 354L525 369.5L428 425" stroke="#5DCDE8"/>
<g filter="url(#filter5_d_5137_10121)">
<rect x="402" y="398.094" width="52" height="52" rx="26" fill="#F9FAFC"/>
<rect x="403" y="399.094" width="50" height="50" rx="25" stroke="#32F8B9" stroke-width="2"/>
<path d="M428.389 414.599L428.912 413.377C428.747 413.306 428.569 413.269 428.389 413.269C428.209 413.269 428.031 413.306 427.866 413.377L428.389 414.599ZM428.389 433.746L427.73 434.9C428.138 435.134 428.64 435.134 429.049 434.9L428.389 433.746ZM427.866 413.377L421.064 416.291L422.111 418.736L428.912 415.821L427.866 413.377ZM419.613 418.492V425.789H422.273V418.492H419.613ZM423.499 432.484L427.73 434.901L429.049 432.593L424.818 430.175L423.499 432.484ZM429.049 434.901L433.279 432.485L431.96 430.176L427.73 432.593L429.049 434.901ZM437.165 425.788V418.492H434.506V425.789L437.165 425.788ZM435.714 416.292L428.912 413.378L427.866 415.822L434.666 418.737L435.714 416.292ZM437.165 418.492C437.165 417.535 436.595 416.67 435.714 416.292L434.666 418.737C434.618 418.716 434.578 418.682 434.549 418.639C434.521 418.595 434.505 418.544 434.506 418.492H437.165ZM433.279 432.485C434.46 431.81 435.441 430.835 436.123 429.659C436.806 428.483 437.165 427.148 437.165 425.788H434.506C434.506 426.679 434.27 427.554 433.823 428.324C433.376 429.095 432.733 429.734 431.96 430.176L433.279 432.485ZM419.613 425.787C419.613 427.147 419.973 428.482 420.655 429.658C421.337 430.834 422.319 431.809 423.499 432.484L424.818 430.175C424.045 429.733 423.402 429.094 422.955 428.324C422.508 427.553 422.272 426.678 422.273 425.787H419.613ZM421.064 416.291C420.633 416.476 420.266 416.783 420.008 417.174C419.751 417.565 419.613 418.024 419.613 418.492H422.273C422.273 418.599 422.209 418.693 422.111 418.736L421.064 416.291Z" fill="black"/>
<path d="M431.581 422.045L427.326 426.3L425.198 424.173" stroke="black" stroke-width="2.09677" stroke-linecap="round" stroke-linejoin="round"/>
</g>
<g filter="url(#filter6_d_5137_10121)">
<rect x="508" y="349.094" width="38" height="38" rx="19" fill="#F9FAFC"/>
<rect x="509" y="350.094" width="36" height="36" rx="18" stroke="#32F8B9" stroke-width="2"/>
<path d="M520.7 361.854C520.7 361.44 520.865 361.043 521.157 360.751C521.45 360.458 521.846 360.294 522.26 360.294H528.5C528.707 360.294 528.905 360.376 529.052 360.522L532.952 364.422C533.098 364.569 533.18 364.767 533.18 364.974V374.334C533.18 374.748 533.016 375.144 532.723 375.437C532.431 375.729 532.034 375.894 531.62 375.894H522.26C521.846 375.894 521.45 375.729 521.157 375.437C520.865 375.144 520.7 374.748 520.7 374.334V361.854ZM531.297 364.974L528.5 362.177V364.974H531.297ZM526.94 361.854H522.26V374.334H531.62V366.534H527.72C527.513 366.534 527.315 366.452 527.169 366.305C527.022 366.159 526.94 365.961 526.94 365.754V361.854ZM523.82 368.874C523.82 368.667 523.902 368.469 524.049 368.322C524.195 368.176 524.393 368.094 524.6 368.094H529.28C529.487 368.094 529.685 368.176 529.832 368.322C529.978 368.469 530.06 368.667 530.06 368.874C530.06 369.081 529.978 369.279 529.832 369.425C529.685 369.572 529.487 369.654 529.28 369.654H524.6C524.393 369.654 524.195 369.572 524.049 369.425C523.902 369.279 523.82 369.081 523.82 368.874ZM523.82 371.994C523.82 371.787 523.902 371.589 524.049 371.442C524.195 371.296 524.393 371.214 524.6 371.214H529.28C529.487 371.214 529.685 371.296 529.832 371.442C529.978 371.589 530.06 371.787 530.06 371.994C530.06 372.201 529.978 372.399 529.832 372.545C529.685 372.692 529.487 372.774 529.28 372.774H524.6C524.393 372.774 524.195 372.692 524.049 372.545C523.902 372.399 523.82 372.201 523.82 371.994Z" fill="black"/>
</g>
<g filter="url(#filter7_d_5137_10121)">
<rect x="601" y="328.094" width="50" height="50" rx="25" fill="#F9FAFC"/>
<rect x="602" y="329.094" width="48" height="48" rx="24" stroke="#32F8B9" stroke-width="2"/>
<path d="M631.95 345.444L636.37 349.864M636.37 345.444L631.95 349.864M637.475 356.494L633.607 360.914L631.397 358.704" stroke="black" stroke-width="1.7" stroke-linecap="round" stroke-linejoin="round"/>
<path d="M627.53 345.444H615.375V349.864H627.53V345.444ZM627.53 356.494H615.375V360.914H627.53V356.494Z" fill="black" stroke="black" stroke-width="1.7" stroke-linecap="round" stroke-linejoin="round"/>
</g>
<g filter="url(#filter8_d_5137_10121)">
<rect x="546" y="220" width="52" height="52" rx="26" fill="#F9FAFC"/>
<rect x="547" y="221" width="50" height="50" rx="25" stroke="#00D6FF" stroke-width="2"/>
<path d="M572.226 259.775L577.647 243.073H566.812L572.226 259.775Z" fill="#E24329"/>
<path d="M559.219 243.073L557.568 248.148C557.418 248.608 557.58 249.117 557.974 249.404L572.226 259.775L559.219 243.073Z" fill="#FCA326"/>
<path d="M559.219 243.073H566.812L563.544 233.015C563.377 232.5 562.648 232.5 562.475 233.015L559.219 243.073Z" fill="#E24329"/>
<path d="M585.241 243.073L586.886 248.148C587.035 248.608 586.874 249.117 586.479 249.404L572.226 259.775L585.241 243.073Z" fill="#FCA326"/>
<path d="M585.241 243.073H577.647L580.91 233.015C581.077 232.5 581.806 232.5 581.979 233.015L585.241 243.073Z" fill="#E24329"/>
<path d="M572.226 259.775L577.647 243.073H585.241L572.226 259.775Z" fill="#FC6D26"/>
<path d="M572.226 259.775L559.219 243.073H566.812L572.226 259.775Z" fill="#FC6D26"/>
</g>
<g filter="url(#filter9_d_5137_10121)">
<rect x="417" y="66.0939" width="62" height="62" rx="31" fill="#F9FAFC"/>
<rect x="418" y="67.0939" width="60" height="60" rx="30" stroke="#00D6FF" stroke-width="2"/>
<g clip-path="url(#clip0_5137_10121)">
<path d="M448.432 79.0939C438.254 79.0939 430 87.346 430 97.526C430 105.67 435.281 112.579 442.605 115.016C443.526 115.187 443.864 114.616 443.864 114.13C443.864 113.69 443.847 112.238 443.839 110.698C438.712 111.813 437.629 108.523 437.629 108.523C436.791 106.393 435.583 105.826 435.583 105.826C433.911 104.682 435.709 104.706 435.709 104.706C437.56 104.836 438.534 106.605 438.534 106.605C440.178 109.423 442.846 108.608 443.898 108.137C444.064 106.946 444.541 106.133 445.069 105.673C440.974 105.206 436.671 103.626 436.671 96.5633C436.671 94.551 437.391 92.9067 438.57 91.6159C438.379 91.1516 437.748 89.2769 438.748 86.738C438.748 86.738 440.296 86.2426 443.819 88.6274C445.289 88.219 446.866 88.0142 448.432 88.0072C449.999 88.0142 451.577 88.219 453.05 88.6274C456.568 86.2426 458.113 86.738 458.113 86.738C459.117 89.2769 458.485 91.1516 458.294 91.6159C459.476 92.9067 460.191 94.551 460.191 96.5633C460.191 103.643 455.879 105.202 451.775 105.658C452.436 106.23 453.025 107.352 453.025 109.071C453.025 111.538 453.004 113.522 453.004 114.13C453.004 114.62 453.335 115.195 454.27 115.014C461.589 112.574 466.864 105.667 466.864 97.526C466.864 87.346 458.612 79.0939 448.432 79.0939ZM436.903 105.351C436.863 105.442 436.719 105.47 436.588 105.407C436.454 105.347 436.379 105.222 436.422 105.13C436.462 105.036 436.606 105.01 436.74 105.073C436.874 105.133 436.95 105.259 436.903 105.351ZM437.81 106.16C437.722 106.241 437.55 106.204 437.434 106.075C437.313 105.946 437.291 105.774 437.38 105.692C437.47 105.61 437.637 105.648 437.758 105.777C437.878 105.907 437.902 106.077 437.81 106.16ZM438.432 107.195C438.319 107.273 438.134 107.2 438.02 107.036C437.907 106.872 437.907 106.675 438.023 106.597C438.137 106.518 438.319 106.589 438.435 106.751C438.547 106.918 438.547 107.115 438.432 107.195ZM439.484 108.394C439.383 108.505 439.168 108.475 439.01 108.323C438.849 108.175 438.804 107.964 438.906 107.852C439.008 107.741 439.224 107.772 439.383 107.923C439.543 108.071 439.592 108.284 439.484 108.394ZM440.844 108.798C440.799 108.943 440.592 109.008 440.383 108.947C440.174 108.884 440.038 108.715 440.08 108.569C440.124 108.424 440.332 108.355 440.542 108.421C440.75 108.484 440.887 108.652 440.844 108.798ZM442.391 108.97C442.396 109.122 442.219 109.248 442 109.251C441.779 109.256 441.601 109.133 441.599 108.983C441.599 108.83 441.772 108.705 441.992 108.701C442.211 108.697 442.391 108.819 442.391 108.97ZM443.911 108.912C443.937 109.06 443.785 109.212 443.567 109.253C443.353 109.292 443.155 109.201 443.128 109.053C443.101 108.901 443.256 108.749 443.47 108.71C443.688 108.672 443.883 108.761 443.911 108.912Z" fill="#161614"/>
</g>
</g>
<g filter="url(#filter10_d_5137_10121)">
<rect x="283" y="138.094" width="62" height="62" rx="31" fill="#F9FAFC"/>
<rect x="284" y="139.094" width="60" height="60" rx="30" stroke="#83FF50" stroke-width="2"/>
<path d="M331.101 166.594C331.016 166.527 330.222 165.936 328.549 165.936C328.107 165.938 327.666 165.976 327.23 166.048C326.906 163.859 325.07 162.792 324.988 162.744L324.539 162.488L324.243 162.909C323.873 163.474 323.603 164.096 323.444 164.751C323.144 166 323.327 167.174 323.971 168.177C323.193 168.604 321.946 168.71 321.694 168.719H301.047C300.507 168.72 300.07 169.149 300.067 169.681C300.043 171.465 300.349 173.237 300.971 174.912C301.682 176.752 302.74 178.106 304.117 178.935C305.66 179.867 308.166 180.399 311.007 180.399C312.291 180.403 313.572 180.289 314.833 180.057C316.587 179.74 318.275 179.135 319.827 178.269C321.106 177.538 322.257 176.61 323.235 175.518C324.871 173.692 325.845 171.659 326.57 169.851C326.667 169.851 326.764 169.851 326.859 169.851C328.65 169.851 329.751 169.145 330.358 168.553C330.762 168.175 331.077 167.715 331.282 167.204L331.41 166.835L331.101 166.594Z" fill="black"/>
<path d="M302.862 168.246H305.585C305.716 168.246 305.822 168.128 305.822 167.984V165.311C305.823 165.166 305.717 165.048 305.586 165.047C305.586 165.047 305.585 165.047 305.585 165.047H302.862C302.73 165.047 302.624 165.164 302.624 165.309C302.624 165.31 302.624 165.31 302.624 165.311V167.983C302.624 168.128 302.73 168.246 302.862 168.246Z" fill="black"/>
<path d="M306.701 168.246H309.423C309.554 168.246 309.66 168.128 309.66 167.984V165.311C309.661 165.166 309.555 165.048 309.424 165.047C309.424 165.047 309.423 165.047 309.423 165.047H306.701C306.569 165.047 306.462 165.165 306.462 165.311V167.983C306.463 168.128 306.569 168.246 306.701 168.246Z" fill="black"/>
<path d="M310.539 168.246H313.261C313.393 168.246 313.499 168.128 313.499 167.984V165.311C313.5 165.166 313.394 165.048 313.263 165.047C313.262 165.047 313.262 165.047 313.261 165.047H310.539C310.407 165.047 310.301 165.164 310.301 165.309C310.301 165.31 310.301 165.31 310.301 165.311V167.983C310.301 168.128 310.407 168.246 310.539 168.246Z" fill="black"/>
<path d="M314.376 168.246H317.098C317.23 168.246 317.336 168.128 317.337 167.984V165.311C317.337 165.165 317.23 165.047 317.098 165.047H314.376C314.245 165.047 314.139 165.164 314.139 165.309C314.139 165.31 314.139 165.31 314.139 165.311V167.983C314.139 168.128 314.245 168.246 314.376 168.246Z" fill="black"/>
<path d="M306.701 164.407H309.423C309.554 164.406 309.66 164.289 309.66 164.144V161.471C309.66 161.326 309.554 161.209 309.423 161.209H306.701C306.569 161.209 306.463 161.326 306.462 161.471V164.144C306.463 164.289 306.569 164.406 306.701 164.407Z" fill="black"/>
<path d="M310.539 164.407H313.261C313.393 164.406 313.499 164.289 313.499 164.144V161.471C313.499 161.326 313.393 161.209 313.261 161.209H310.539C310.407 161.209 310.301 161.326 310.301 161.471V164.144C310.301 164.289 310.407 164.406 310.539 164.407Z" fill="black"/>
<path d="M314.376 164.407H317.098C317.23 164.406 317.336 164.289 317.337 164.144V161.471C317.336 161.326 317.23 161.209 317.098 161.209H314.376C314.245 161.209 314.139 161.326 314.139 161.471V164.144C314.139 164.289 314.245 164.406 314.376 164.407Z" fill="black"/>
<path d="M314.376 161.209H317.098C317.23 161.209 317.336 161.092 317.337 160.947V158.273C317.336 158.128 317.23 158.01 317.098 158.01H314.376C314.245 158.01 314.139 158.128 314.139 158.273V160.947C314.139 161.092 314.245 161.209 314.376 161.209Z" fill="black"/>
<path d="M318.214 168.246H320.936C321.067 168.246 321.174 168.128 321.175 167.984V165.311C321.175 165.165 321.068 165.047 320.936 165.047H318.214C318.083 165.047 317.977 165.164 317.977 165.309C317.977 165.31 317.977 165.31 317.977 165.311V167.983C317.977 168.128 318.083 168.246 318.214 168.246Z" fill="black"/>
</g>
<g filter="url(#filter11_d_5137_10121)">
<rect x="275" y="240" width="10" height="10" rx="5" fill="#5DCDE8"/>
<rect x="275.29" y="240.29" width="9.41935" height="9.41935" rx="4.70968" stroke="#5DCDE8" stroke-width="0.580645"/>
</g>
<g filter="url(#filter12_d_5137_10121)">
<rect x="629" y="210" width="12" height="12" rx="6" fill="#5DCDE8"/>
<rect x="629.29" y="210.29" width="11.4194" height="11.4194" rx="5.70968" stroke="#5DCDE8" stroke-width="0.580645"/>
</g>
<g filter="url(#filter13_d_5137_10121)">
<rect x="550" y="406" width="10" height="10" rx="5" fill="#5DCDE8"/>
<rect x="550.161" y="406.161" width="9.67742" height="9.67742" rx="4.83871" stroke="#5DCDE8" stroke-width="0.322581"/>
</g>
<g filter="url(#filter14_d_5137_10121)">
<rect x="329" y="223.094" width="44" height="44" rx="22" fill="#F9FAFC"/>
<rect x="330" y="224.094" width="42" height="42" rx="21" stroke="#83FF50" stroke-width="2"/>
<path d="M353.862 236.057C354.051 236.11 354.229 236.2 354.384 236.322C354.539 236.443 354.668 236.595 354.765 236.766C354.862 236.938 354.923 237.127 354.947 237.323C354.97 237.519 354.955 237.717 354.902 237.907L350.471 253.694C350.363 254.077 350.108 254.402 349.761 254.597C349.414 254.792 349.004 254.841 348.621 254.733C348.238 254.626 347.913 254.371 347.718 254.024C347.523 253.677 347.474 253.267 347.582 252.884L352.013 237.095C352.066 236.905 352.156 236.728 352.278 236.573C352.4 236.418 352.551 236.289 352.722 236.192C352.894 236.096 353.083 236.034 353.279 236.011C353.475 235.987 353.673 236.003 353.863 236.056L353.862 236.057ZM346.802 240.092C347.083 240.373 347.24 240.754 347.24 241.152C347.24 241.549 347.083 241.931 346.802 242.212L343.622 245.395L346.804 248.577C347.085 248.858 347.243 249.24 347.243 249.638C347.243 250.036 347.085 250.417 346.803 250.698C346.522 250.98 346.14 251.138 345.742 251.138C345.344 251.137 344.963 250.979 344.682 250.698L340.439 246.455C340.158 246.174 340 245.792 340 245.395C340 244.997 340.158 244.616 340.439 244.335L344.681 240.092C344.82 239.953 344.985 239.842 345.167 239.767C345.349 239.691 345.545 239.652 345.742 239.652C345.939 239.652 346.134 239.691 346.316 239.767C346.498 239.842 346.662 239.953 346.802 240.092ZM355.682 242.212C355.534 242.075 355.416 241.909 355.334 241.725C355.252 241.541 355.208 241.342 355.204 241.141C355.201 240.94 355.238 240.739 355.313 240.553C355.389 240.366 355.501 240.196 355.644 240.054C355.786 239.911 355.956 239.799 356.142 239.724C356.329 239.648 356.529 239.611 356.731 239.615C356.932 239.618 357.131 239.662 357.315 239.744C357.499 239.826 357.664 239.945 357.802 240.092L362.045 244.334C362.326 244.615 362.484 244.997 362.484 245.394C362.484 245.792 362.326 246.174 362.045 246.455L357.803 250.698C357.663 250.837 357.498 250.948 357.316 251.023C357.134 251.099 356.939 251.137 356.742 251.138C356.545 251.138 356.35 251.099 356.168 251.023C355.986 250.948 355.821 250.838 355.681 250.698C355.542 250.559 355.431 250.394 355.356 250.212C355.28 250.03 355.242 249.835 355.242 249.638C355.242 249.441 355.28 249.246 355.356 249.064C355.431 248.882 355.541 248.716 355.681 248.577L358.863 245.395L355.682 242.212Z" fill="black"/>
</g>
<g filter="url(#filter15_d_5137_10121)">
<rect x="549.5" y="119.094" width="38" height="38" rx="19" fill="#F9FAFC"/>
<rect x="550.5" y="120.094" width="36" height="36" rx="18" stroke="#00D6FF" stroke-width="2"/>
<path fill-rule="evenodd" clip-rule="evenodd" d="M576.429 137.738C576.429 142.01 573.046 145.473 568.872 145.473C564.698 145.473 561.314 142.01 561.314 137.738C561.314 133.466 564.698 130.003 568.872 130.003C573.046 130.003 576.429 133.466 576.429 137.738Z" fill="#D33833"/>
<path d="M561.622 139.654C561.622 139.654 561.075 131.588 568.503 131.357L567.984 130.493L563.954 131.847L562.802 133.172L561.795 135.102L561.219 137.349L561.392 138.847" fill="#EF3D3A"/>
<path d="M563.695 132.462C562.369 133.819 561.549 135.693 561.549 137.767C561.549 139.84 562.369 141.715 563.695 143.072C565.022 144.429 566.85 145.267 568.871 145.267C570.892 145.267 572.721 144.429 574.047 143.072C575.373 141.715 576.194 139.84 576.194 137.767C576.194 135.693 575.373 133.819 574.047 132.462C572.721 131.105 570.892 130.267 568.871 130.267C566.85 130.267 565.022 131.105 563.695 132.462ZM563.359 143.4C561.95 141.958 561.079 139.965 561.079 137.767C561.079 135.568 561.95 133.576 563.359 132.133C564.768 130.691 566.718 129.797 568.871 129.797C571.024 129.797 572.974 130.691 574.383 132.133C575.792 133.576 576.663 135.568 576.663 137.767C576.663 139.965 575.792 141.958 574.383 143.4C572.974 144.842 571.024 145.736 568.871 145.736C566.718 145.736 564.768 144.842 563.359 143.4Z" fill="#231F20"/>
<path fill-rule="evenodd" clip-rule="evenodd" d="M572.052 137.781L570.901 137.954L569.346 138.127L568.338 138.156L567.36 138.127L566.611 137.896L565.949 137.176L565.431 135.707L565.316 135.39L564.625 135.16L564.221 134.497L563.934 133.546L564.25 132.711L564.999 132.452L565.603 132.74L565.891 133.374L566.237 133.316L566.352 133.172L566.237 132.509L566.208 131.674L566.381 130.522L566.374 129.863L566.899 129.024L567.82 128.361L569.433 127.67L571.217 127.929L572.772 129.052L573.492 130.205L573.952 131.04L574.068 133.114L573.722 134.9L573.089 136.485L572.484 137.32" fill="#F0D6B7"/>
<path fill-rule="evenodd" clip-rule="evenodd" d="M571.074 142.765L566.957 142.937V143.629L567.302 146.049L567.13 146.25L564.251 145.271L564.049 144.925L563.761 141.67L563.099 139.711L562.955 139.25L565.258 137.666L565.978 137.378L566.611 138.156L567.158 138.645L567.792 138.847L568.08 138.933L568.425 140.431L568.684 140.748L569.346 140.518L568.886 141.411L571.39 142.592L571.074 142.765Z" fill="#335061"/>
<path fill-rule="evenodd" clip-rule="evenodd" d="M564.25 132.711L564.998 132.452L565.603 132.74L565.891 133.373L566.236 133.316L566.323 132.97L566.15 132.308L566.323 130.723L566.179 129.859L566.697 129.254L567.82 128.361L567.503 127.929L565.92 128.707L565.258 129.225L564.883 130.032L564.308 130.81L564.135 131.731L564.25 132.711Z" fill="#6D6B6D"/>
<path fill-rule="evenodd" clip-rule="evenodd" d="M565.431 130.003C565.431 130.003 565.863 128.937 567.59 128.419C569.317 127.9 567.676 128.044 567.676 128.044L565.805 128.764L565.085 129.485L564.769 130.061L565.431 130.003Z" fill="#DCD9D8"/>
<path fill-rule="evenodd" clip-rule="evenodd" d="M564.567 132.509C564.567 132.509 563.962 130.493 566.265 130.205L566.179 129.859L564.595 130.233L564.135 131.731L564.25 132.711L564.567 132.509Z" fill="#DCD9D8"/>
<path fill-rule="evenodd" clip-rule="evenodd" d="M565.488 135.188L565.865 134.823C565.865 134.823 566.035 134.843 566.064 135.044C566.093 135.246 566.179 137.061 567.417 138.041C567.53 138.13 566.496 137.896 566.496 137.896L565.575 136.456" fill="#F7E4CD"/>
<path fill-rule="evenodd" clip-rule="evenodd" d="M570.786 134.641C570.786 134.641 570.853 133.768 571.088 133.835C571.323 133.902 571.323 134.137 571.323 134.137C571.323 134.137 570.752 134.507 570.786 134.641Z" fill="#F7E4CD"/>
<path d="M573.175 131.443C573.175 131.443 572.7 131.544 572.657 131.962C572.613 132.381 573.175 132.049 573.262 132.02" fill="#F7E4CD"/>
<path d="M569.691 131.472C569.691 131.472 569.058 131.559 569.058 131.962C569.058 132.365 569.778 132.337 569.979 132.164" fill="#F7E4CD"/>
<path fill-rule="evenodd" clip-rule="evenodd" d="M565.777 133.345C565.777 133.345 564.683 132.682 564.567 133.316C564.452 133.95 564.193 134.411 564.74 135.073L564.366 134.958L564.02 134.065L563.905 133.201L564.567 132.509L565.316 132.567L565.748 132.913L565.777 133.345Z" fill="#F7E4CD"/>
<path fill-rule="evenodd" clip-rule="evenodd" d="M566.295 131.53C566.295 131.53 566.784 128.995 569.26 128.505C571.299 128.102 572.37 128.591 572.773 129.052C572.773 129.052 570.959 126.892 569.231 127.554C567.504 128.217 566.237 129.427 566.266 130.205C566.315 131.529 566.295 131.53 566.295 131.53Z" fill="#F7E4CD"/>
<path fill-rule="evenodd" clip-rule="evenodd" d="M572.973 129.34C572.973 129.34 572.138 129.312 572.109 130.061C572.109 130.061 572.109 130.176 572.167 130.291C572.167 130.291 572.829 129.542 573.233 129.946" fill="#F7E4CD"/>
<path fill-rule="evenodd" clip-rule="evenodd" d="M569.318 130.369C569.318 130.369 569.174 129.219 568.195 129.888C567.561 130.32 567.619 130.925 567.734 131.041C567.849 131.156 567.818 131.388 567.905 131.229C567.993 131.069 567.964 130.551 568.281 130.407C568.598 130.262 569.117 130.101 569.318 130.369Z" fill="#F7E4CD"/>
<path fill-rule="evenodd" clip-rule="evenodd" d="M566.611 138.155L563.905 139.365C563.905 139.365 565.028 143.831 564.452 145.213L564.049 145.069L564.02 143.37L563.272 140.143L562.955 139.25L565.776 137.349L566.611 138.155Z" fill="#49728B"/>
<path fill-rule="evenodd" clip-rule="evenodd" d="M566.889 140.625L567.273 141.094V142.823H566.812C566.812 142.823 566.755 141.613 566.755 141.468C566.755 141.324 566.812 140.806 566.812 140.806" fill="#49728B"/>
<path fill-rule="evenodd" clip-rule="evenodd" d="M566.899 143.082L565.604 143.139L565.978 143.398L566.899 143.542" fill="#49728B"/>
<path fill-rule="evenodd" clip-rule="evenodd" d="M571.333 142.793L572.398 142.765L572.657 145.415L571.563 145.559L571.333 142.793Z" fill="#335061"/>
<path fill-rule="evenodd" clip-rule="evenodd" d="M571.62 142.793L573.232 142.707C573.232 142.707 573.894 141.036 573.894 140.95C573.894 140.863 574.47 138.53 574.47 138.53L573.175 137.176L572.916 136.946L572.225 137.637V140.316L571.62 142.793Z" fill="#335061"/>
<path fill-rule="evenodd" clip-rule="evenodd" d="M572.341 142.592L571.333 142.793L571.477 143.6C571.851 143.773 572.485 143.312 572.485 143.312" fill="#49728B"/>
<path fill-rule="evenodd" clip-rule="evenodd" d="M572.369 137.551L574.385 139.049L574.442 138.357L572.916 136.946L572.369 137.551Z" fill="#49728B"/>
<path fill-rule="evenodd" clip-rule="evenodd" d="M567.898 148.469L567.302 146.049L567.005 144.263L566.956 142.937L569.654 142.794L571.332 142.793L571.18 145.819L571.439 148.152L571.41 148.584L569.222 148.757L567.898 148.469Z" fill="white"/>
<path fill-rule="evenodd" clip-rule="evenodd" d="M570.958 142.765C570.958 142.765 570.814 145.761 571.246 147.892C571.246 147.892 570.382 148.44 569.115 148.584L571.534 148.497L571.821 148.325L571.476 143.6L571.39 142.592" fill="#DCD9D8"/>
<path fill-rule="evenodd" clip-rule="evenodd" d="M572.706 145.185L573.828 144.868L575.959 144.753L576.276 143.773L575.7 142.074L575.038 141.987L574.116 142.275L573.232 142.707L572.763 142.621L572.397 142.765" fill="white"/>
<path fill-rule="evenodd" clip-rule="evenodd" d="M572.686 144.608C572.686 144.608 573.434 144.263 573.549 144.292L573.233 142.707L573.607 142.563C573.607 142.563 573.866 144.061 573.866 144.234C573.866 144.234 575.478 144.32 575.622 144.32C575.622 144.32 575.968 143.658 575.881 142.966L576.198 143.888L576.227 144.407L575.766 145.098L575.248 145.213L574.384 145.185L574.096 144.81L573.089 144.954L572.772 145.069" fill="#DCD9D8"/>
<path d="M571.554 142.563L570.921 140.95L570.259 140C570.259 140 570.403 139.596 570.604 139.596C570.806 139.596 571.266 139.596 571.266 139.596L571.9 139.827L571.842 140.893L571.554 142.563Z" fill="white"/>
<path fill-rule="evenodd" clip-rule="evenodd" d="M571.678 142.016C571.678 142.016 570.872 140.46 570.872 140.23C570.872 140.23 571.016 139.884 571.218 139.97C571.419 140.057 571.851 140.287 571.851 140.287V139.74L570.872 139.538L570.21 139.625L571.333 142.275L571.563 142.304" fill="#DCD9D8"/>
<path d="M568.158 138.213L567.36 138.127L566.611 137.896V138.155L566.977 138.559L568.129 139.078" fill="white"/>
<path fill-rule="evenodd" clip-rule="evenodd" d="M566.871 138.3C566.871 138.3 567.763 138.674 568.051 138.588L568.08 138.933L567.274 138.761L566.784 138.415L566.871 138.3Z" fill="#DCD9D8"/>
<path fill-rule="evenodd" clip-rule="evenodd" d="M572.704 139.695C572.215 139.68 571.773 139.622 571.387 139.513C571.413 139.355 571.364 139.199 571.404 139.085C571.511 139.007 571.692 139.008 571.855 138.99C571.714 138.921 571.516 138.893 571.354 138.933C571.35 138.823 571.3 138.755 571.271 138.669C571.545 138.571 572.194 137.928 572.559 138.141C572.732 138.242 572.806 138.821 572.82 139.102C572.831 139.335 572.799 139.571 572.704 139.695Z" fill="#D33833"/>
<path d="M572.704 139.695C572.215 139.68 571.773 139.622 571.387 139.513C571.413 139.355 571.364 139.199 571.404 139.085C571.511 139.007 571.692 139.008 571.855 138.99C571.714 138.921 571.516 138.893 571.354 138.933C571.35 138.823 571.3 138.755 571.271 138.669C571.545 138.571 572.194 137.928 572.559 138.141C572.732 138.242 572.806 138.821 572.82 139.102C572.831 139.335 572.799 139.571 572.704 139.695Z" stroke="#D33833" stroke-width="1.18865"/>
<path fill-rule="evenodd" clip-rule="evenodd" d="M570.367 138.895C570.365 138.932 570.364 138.969 570.362 139.007C570.21 139.107 569.964 139.106 569.796 139.19C570.043 139.201 570.237 139.26 570.405 139.344C570.402 139.437 570.398 139.53 570.394 139.624C570.115 139.815 569.859 140.1 569.53 140.28C569.375 140.365 568.828 140.583 568.663 140.545C568.569 140.523 568.561 140.407 568.523 140.297C568.444 140.062 568.26 139.688 568.244 139.335C568.223 138.888 568.178 138.14 568.659 138.232C569.047 138.306 569.498 138.485 569.799 138.649C569.982 138.75 570.088 138.874 570.367 138.895Z" fill="#D33833"/>
<path d="M570.367 138.895C570.365 138.932 570.364 138.969 570.362 139.007C570.21 139.107 569.964 139.106 569.796 139.19C570.043 139.201 570.237 139.26 570.405 139.344C570.402 139.437 570.398 139.53 570.394 139.624C570.115 139.815 569.859 140.1 569.53 140.28C569.375 140.365 568.828 140.583 568.663 140.545C568.569 140.523 568.561 140.407 568.523 140.297C568.444 140.062 568.26 139.688 568.244 139.335C568.223 138.888 568.178 138.14 568.659 138.232C569.047 138.306 569.498 138.485 569.799 138.649C569.982 138.75 570.088 138.874 570.367 138.895Z" stroke="#D33833" stroke-width="1.18865"/>
<path fill-rule="evenodd" clip-rule="evenodd" d="M570.645 139.428C570.602 139.185 570.552 139.115 570.572 138.903C571.22 138.47 571.342 139.646 570.645 139.428Z" fill="#D33833"/>
<path d="M570.645 139.428C570.602 139.185 570.552 139.115 570.572 138.903C571.22 138.47 571.342 139.646 570.645 139.428Z" stroke="#D33833" stroke-width="1.18865"/>
<path fill-rule="evenodd" clip-rule="evenodd" d="M571.584 139.625C571.584 139.625 571.382 139.337 571.526 139.251C571.67 139.164 571.814 139.251 571.901 139.107C571.987 138.963 571.901 138.876 571.929 138.703C571.958 138.53 572.102 138.502 572.246 138.473C572.39 138.444 572.793 138.386 572.851 138.53L572.678 138.012L572.333 137.897L571.238 138.53L571.181 138.847V139.481" fill="#EF3D3A"/>
<path fill-rule="evenodd" clip-rule="evenodd" d="M568.56 140.576C568.526 140.126 568.489 139.677 568.448 139.228C568.388 138.557 568.609 138.674 569.19 138.674C569.279 138.674 569.737 138.78 569.77 138.847C569.927 139.168 569.507 139.097 569.95 139.339C570.325 139.543 570.986 139.215 570.835 138.761C570.75 138.66 570.394 138.729 570.266 138.663C570.041 138.546 569.816 138.43 569.591 138.313C569.305 138.164 568.644 137.948 568.339 138.155C567.566 138.681 568.387 139.996 568.663 140.545" fill="#EF3D3A"/>
<path fill-rule="evenodd" clip-rule="evenodd" d="M569.318 130.369C568.533 130.186 568.143 130.698 567.905 131.228C567.693 131.177 567.778 130.888 567.831 130.741C567.972 130.354 568.538 129.839 569.001 129.909C569.2 129.939 569.469 130.121 569.318 130.369Z" fill="#231F20"/>
<path fill-rule="evenodd" clip-rule="evenodd" d="M573.141 131.263C573.154 131.264 573.166 131.264 573.179 131.265C573.356 131.633 573.509 132.024 573.733 132.349C573.583 132.699 572.598 133.008 572.613 132.381C572.827 132.287 573.194 132.362 573.383 132.243C573.274 131.943 573.116 131.687 573.141 131.263Z" fill="#231F20"/>
<path fill-rule="evenodd" clip-rule="evenodd" d="M569.72 131.273C569.888 131.582 569.943 131.906 570.182 132.139C570.29 132.244 570.499 132.372 570.395 132.664C570.371 132.733 570.194 132.887 570.091 132.917C569.717 133.028 568.846 132.94 569.141 132.473C569.45 132.488 569.866 132.674 570.097 132.45C569.92 132.166 569.603 131.604 569.72 131.273Z" fill="#231F20"/>
<path fill-rule="evenodd" clip-rule="evenodd" d="M573 134.409C572.437 134.771 571.81 135.165 570.887 135.073C570.69 134.902 570.615 134.52 570.806 134.268C570.906 134.44 570.843 134.755 571.121 134.803C571.645 134.892 572.254 134.482 572.63 134.339C572.864 133.945 572.61 133.8 572.4 133.547C571.969 133.028 571.392 132.384 571.413 131.606C571.587 131.48 571.602 131.799 571.627 131.857C571.852 132.384 572.417 133.057 572.83 133.508C572.932 133.619 573.099 133.725 573.117 133.798C573.171 134.012 572.978 134.267 573 134.409Z" fill="#231F20"/>
<path fill-rule="evenodd" clip-rule="evenodd" d="M565.58 134.029C565.403 133.928 565.361 133.484 565.154 133.471C564.858 133.453 564.912 134.047 564.913 134.395C564.709 134.209 564.673 133.639 564.823 133.346C564.652 133.263 564.576 133.439 564.481 133.501C564.603 132.617 565.774 133.091 565.58 134.029Z" fill="#231F20"/>
<path fill-rule="evenodd" clip-rule="evenodd" d="M573.36 134.778C573.098 135.277 572.727 135.827 571.958 135.843C571.942 135.681 571.93 135.436 571.959 135.339C572.547 135.282 572.91 134.983 573.36 134.778Z" fill="#231F20"/>
<path fill-rule="evenodd" clip-rule="evenodd" d="M569.676 135.101C570.166 135.359 571.068 135.387 571.735 135.367C571.77 135.514 571.769 135.694 571.771 135.872C570.914 135.915 569.9 135.703 569.676 135.101Z" fill="#231F20"/>
<path fill-rule="evenodd" clip-rule="evenodd" d="M569.582 135.582C569.921 136.434 571.087 136.336 572.07 136.313C572.027 136.423 571.933 136.554 571.816 136.601C571.501 136.73 570.633 136.827 570.195 136.595C569.918 136.447 569.74 136.114 569.588 135.918C569.514 135.824 569.149 135.583 569.582 135.582Z" fill="#231F20"/>
<path fill-rule="evenodd" clip-rule="evenodd" d="M572.96 140.282C572.562 140.964 572.181 141.665 571.709 142.266C571.907 141.684 571.992 140.709 572.022 139.966C572.436 139.772 572.79 140.01 572.96 140.282Z" fill="#81B0C4"/>
<path fill-rule="evenodd" clip-rule="evenodd" d="M575.102 142.734C574.656 142.823 574.343 143.256 573.908 143.228C574.147 142.891 574.566 142.749 575.102 142.734Z" fill="#231F20"/>
<path fill-rule="evenodd" clip-rule="evenodd" d="M575.298 143.431C574.935 143.47 574.508 143.529 574.14 143.498C574.314 143.232 574.986 143.324 575.298 143.431Z" fill="#231F20"/>
<path fill-rule="evenodd" clip-rule="evenodd" d="M575.424 144.033C575.015 144.042 574.508 144.034 574.12 144.001C574.35 143.754 575.159 143.91 575.424 144.033Z" fill="#231F20"/>
<path fill-rule="evenodd" clip-rule="evenodd" d="M572.192 145.679C572.251 146.192 572.454 146.712 572.429 147.274C572.203 147.35 572.073 147.417 571.771 147.416C571.749 146.939 571.686 146.209 571.705 145.754C571.853 145.763 572.073 145.647 572.192 145.679Z" fill="#DCD9D8"/>
<path fill-rule="evenodd" clip-rule="evenodd" d="M571.534 138.12C571.329 138.254 571.154 138.421 570.958 138.564C570.521 138.585 570.283 138.534 569.962 138.283C569.967 138.263 569.999 138.272 570.001 138.247C570.468 138.455 571.062 138.162 571.534 138.12Z" fill="#F0D6B7"/>
<path fill-rule="evenodd" clip-rule="evenodd" d="M569.081 141.307C569.209 140.75 569.713 140.462 570.169 140.155C570.641 140.754 570.928 141.524 571.244 142.267C570.497 142.042 569.735 141.677 569.081 141.307Z" fill="#81B0C4"/>
<path fill-rule="evenodd" clip-rule="evenodd" d="M571.704 145.754C571.685 146.209 571.749 146.939 571.77 147.416C572.073 147.416 572.202 147.35 572.428 147.274C572.454 146.712 572.25 146.192 572.192 145.679C572.072 145.647 571.853 145.763 571.704 145.754ZM566.996 143.165C567.195 144.999 567.484 146.541 568.014 148.165C569.19 148.523 570.607 148.554 571.646 148.231C571.455 147.315 571.538 146.199 571.427 145.221C571.343 144.485 571.386 143.745 571.27 142.995C570.011 142.733 568.232 142.934 566.996 143.165ZM571.568 143.007C571.558 143.795 571.603 144.572 571.664 145.36C571.966 145.315 572.171 145.285 572.452 145.223C572.361 144.464 572.372 143.609 572.186 142.938C571.971 142.94 571.782 142.935 571.568 143.007ZM573.102 142.88C572.958 142.847 572.791 142.879 572.654 142.881C572.719 143.523 572.875 144.232 572.93 144.906C573.146 144.913 573.261 144.811 573.438 144.777C573.448 144.185 573.387 143.37 573.102 142.88ZM575.424 145.003C575.873 144.893 576.156 144.342 576.03 143.777C575.946 143.396 575.795 142.68 575.635 142.437C575.516 142.257 575.194 142.022 574.936 142.186C574.518 142.455 573.78 142.533 573.475 142.857C573.628 143.367 573.676 144.067 573.739 144.713C574.262 144.746 574.905 144.569 575.34 144.757C575.036 144.855 574.642 144.856 574.38 144.999C574.594 145.103 575.096 145.082 575.424 145.003ZM571.243 142.267C570.927 141.524 570.641 140.754 570.169 140.155C569.712 140.462 569.209 140.75 569.081 141.307C569.735 141.677 570.497 142.042 571.243 142.267ZM572.021 139.966C571.992 140.709 571.907 141.684 571.709 142.266C572.181 141.665 572.562 140.964 572.96 140.282C572.79 140.01 572.436 139.772 572.021 139.966ZM571.139 139.652C570.96 139.633 570.808 139.858 570.576 139.761C570.523 139.82 570.474 139.884 570.42 139.941C570.933 140.561 571.167 141.44 571.564 142.168C571.777 141.468 571.752 140.702 571.799 139.939C571.506 139.957 571.344 139.674 571.139 139.652ZM570.572 138.903C570.553 139.115 570.602 139.185 570.645 139.428C571.342 139.646 571.22 138.471 570.572 138.903ZM569.799 138.649C569.498 138.485 569.047 138.306 568.659 138.232C568.179 138.14 568.224 138.888 568.244 139.335C568.26 139.688 568.444 140.062 568.524 140.297C568.561 140.407 568.569 140.523 568.663 140.545C568.829 140.583 569.375 140.365 569.531 140.28C569.86 140.1 570.115 139.815 570.395 139.623C570.398 139.53 570.402 139.437 570.406 139.344C570.237 139.26 570.043 139.201 569.796 139.19C569.964 139.106 570.21 139.107 570.363 139.007C570.364 138.969 570.366 138.932 570.367 138.895C570.089 138.874 569.982 138.75 569.799 138.649ZM566.93 138.128C566.681 138.381 567.629 138.726 567.931 138.745C567.93 138.585 568.023 138.433 568.004 138.318C567.645 138.255 567.174 138.297 566.93 138.128ZM570.001 138.247C570 138.271 569.967 138.262 569.962 138.283C570.283 138.533 570.521 138.585 570.957 138.564C571.154 138.421 571.329 138.254 571.534 138.12C571.062 138.162 570.468 138.455 570.001 138.247ZM572.819 139.102C572.806 138.821 572.732 138.242 572.558 138.141C572.193 137.928 571.545 138.571 571.27 138.669C571.3 138.755 571.35 138.823 571.353 138.933C571.516 138.893 571.714 138.921 571.854 138.99C571.692 139.008 571.511 139.007 571.403 139.084C571.364 139.199 571.413 139.354 571.387 139.513C571.773 139.622 572.215 139.68 572.703 139.694C572.798 139.571 572.83 139.335 572.819 139.102ZM566.511 138.373C566.432 138.317 565.903 137.627 565.83 137.656C564.872 138.034 563.976 138.688 563.176 139.306C563.939 140.945 564.247 142.953 564.301 144.888C565.176 145.298 565.944 145.888 567.13 145.949C566.993 144.977 566.868 144.11 566.79 143.195C566.492 143.069 566.064 143.2 565.785 143.156C565.783 142.819 566.211 143.008 566.247 142.782C566.274 142.611 566.011 142.598 566.097 142.329C566.315 142.408 566.429 142.583 566.662 142.649C566.874 142.184 566.659 141.36 566.69 140.971C566.695 140.898 566.726 140.567 566.889 140.625C567.034 140.677 566.881 141.507 566.897 141.875C566.911 142.214 566.856 142.542 566.993 142.755C568.14 142.599 569.305 142.498 570.546 142.464C570.273 142.347 569.949 142.236 569.593 142.035C569.4 141.927 568.793 141.7 568.737 141.517C568.649 141.225 568.97 141.07 569.025 140.82C568.446 141.136 568.333 140.517 568.196 140.079C568.072 139.682 568.002 139.385 567.971 139.156C567.473 138.919 566.94 138.678 566.511 138.373ZM572.313 137.739C573.111 137.352 573.255 139.187 572.942 139.778C572.99 139.955 573.157 140.022 573.225 140.181C572.779 140.979 572.284 141.724 571.83 142.514C572.168 142.303 572.651 142.476 573.049 142.318C573.194 142.261 573.3 141.928 573.41 141.661C573.713 140.928 574.031 140.003 574.172 139.304C574.204 139.144 574.291 138.797 574.272 138.655C574.237 138.401 573.892 138.212 573.717 138.055C573.394 137.765 573.191 137.51 572.854 137.238C572.718 137.44 572.424 137.575 572.313 137.739ZM564.685 130.656C564.304 131.074 564.384 131.859 564.43 132.417C565.118 131.985 566.03 132.452 566.022 133.188C566.35 133.179 566.144 132.778 566.085 132.519C565.891 131.674 566.412 130.756 566.109 129.983C565.52 130.028 565.036 130.269 564.685 130.656ZM567.407 128.225C566.545 128.469 565.442 129.095 565.088 129.869C565.362 129.83 565.552 129.691 565.822 129.674C565.925 129.667 566.058 129.717 566.176 129.688C566.41 129.63 566.607 129.105 566.784 128.909C566.956 128.719 567.163 128.637 567.304 128.463C567.395 128.419 567.53 128.422 567.535 128.286C567.495 128.244 567.454 128.212 567.407 128.225ZM571.889 128.455C570.996 127.95 569.483 127.57 568.532 128.045C567.765 128.427 566.728 129.061 566.374 129.863C566.704 130.638 566.276 131.347 566.249 132.134C566.234 132.552 566.446 132.917 566.462 133.373C566.349 133.559 566.004 133.582 565.765 133.569C565.684 133.167 565.543 132.714 565.129 132.668C564.542 132.604 564.113 133.09 564.086 133.598C564.055 134.195 564.545 135.184 565.239 135.116C565.507 135.089 565.573 134.82 565.865 134.823C566.024 135.139 565.621 135.238 565.58 135.464C565.569 135.523 565.613 135.751 565.639 135.858C565.765 136.38 566.046 137.054 566.323 137.451C566.674 137.955 567.364 138.031 568.106 138.08C568.239 137.794 568.727 137.818 569.045 137.893C568.664 137.741 568.309 137.375 568.016 137.051C567.678 136.679 567.336 136.279 567.319 135.793C567.957 136.678 568.484 137.452 569.644 137.841C570.521 138.136 571.546 137.706 572.221 137.232C572.501 137.035 572.668 136.723 572.866 136.437C573.611 135.366 573.958 133.837 573.882 132.355C573.85 131.744 573.852 131.134 573.647 130.723C573.432 130.293 572.708 129.909 572.284 130.298C572.205 129.879 572.637 129.621 573.143 129.771C572.782 129.305 572.403 128.744 571.889 128.455ZM573.555 142.245C574.253 141.897 575.558 141.31 575.996 142.246C576.158 142.591 576.347 143.175 576.431 143.531C576.549 144.034 576.303 145.09 575.786 145.259C575.33 145.408 574.798 145.399 574.249 145.289C574.184 145.235 574.112 145.141 574.062 145.043C573.669 145.028 573.302 145.064 572.992 145.225C573.022 145.516 572.825 145.562 572.641 145.622C572.505 146.163 572.914 146.87 572.816 147.363C572.746 147.715 572.314 147.769 571.997 147.835C571.986 148.03 572.01 148.193 572.032 148.358C571.959 148.626 571.634 148.779 571.325 148.816C570.309 148.938 568.767 148.993 567.79 148.642C567.518 147.973 567.303 147.159 567.076 146.395C566.123 146.497 565.353 145.983 564.626 145.647C564.375 145.531 564.027 145.466 563.933 145.266C563.842 145.072 563.879 144.7 563.856 144.349C563.799 143.452 563.75 142.587 563.513 141.669C563.407 141.257 563.221 140.894 563.092 140.496C562.973 140.129 562.764 139.674 562.71 139.307C562.629 138.763 563.141 138.733 563.468 138.497C563.974 138.133 564.371 137.931 564.919 137.602C565.081 137.505 565.571 137.258 565.626 137.145C565.737 136.92 565.436 136.602 565.356 136.426C565.229 136.147 565.163 135.909 565.144 135.634C564.685 135.561 564.336 135.288 564.126 134.979C563.778 134.468 563.536 133.523 563.837 132.805C563.861 132.748 563.979 132.637 563.996 132.55C564.031 132.379 563.932 132.151 563.926 131.969C563.894 131.035 564.084 130.23 564.712 129.948C564.967 128.931 565.881 128.593 566.741 128.087C567.063 127.898 567.417 127.778 567.783 127.643C569.097 127.159 571.112 127.25 572.202 128.075C572.665 128.425 573.403 129.164 573.668 129.698C574.366 131.11 574.316 133.47 573.828 135.187C573.762 135.418 573.667 135.757 573.534 136.034C573.442 136.227 573.154 136.614 573.188 136.785C573.225 136.962 573.845 137.433 573.978 137.562C574.218 137.793 574.673 138.1 574.71 138.392C574.75 138.703 574.573 139.128 574.484 139.427C574.185 140.428 573.894 141.353 573.555 142.245Z" fill="#231F20"/>
<path fill-rule="evenodd" clip-rule="evenodd" d="M568.895 135.319C568.932 135.269 569.141 135.192 569.433 135.332C569.433 135.332 569.087 135.39 569.116 135.967L568.972 135.938C568.972 135.938 568.823 135.415 568.895 135.319Z" fill="#F7E4CD"/>
<path fill-rule="evenodd" clip-rule="evenodd" d="M571.42 140.273C571.42 140.361 571.349 140.432 571.261 140.432C571.174 140.432 571.103 140.361 571.103 140.273C571.103 140.186 571.174 140.114 571.261 140.114C571.349 140.114 571.42 140.186 571.42 140.273Z" fill="#1D1919"/>
<path fill-rule="evenodd" clip-rule="evenodd" d="M571.578 141.008C571.578 141.095 571.507 141.166 571.419 141.166C571.332 141.166 571.261 141.095 571.261 141.008C571.261 140.92 571.332 140.849 571.419 140.849C571.507 140.849 571.578 140.92 571.578 141.008Z" fill="#1D1919"/>
</g>
<path d="M460 274L318 365.5" stroke="#5DCDE8" stroke-width="2"/>
<g filter="url(#filter16_d_5137_10121)">
<rect x="289" y="333" width="56" height="56" rx="28" fill="#F9FAFC"/>
<rect x="290" y="334" width="54" height="54" rx="27" stroke="#83FF50" stroke-width="2"/>
<path d="M302.747 362.502C301.918 361.672 301.918 360.328 302.747 359.498L315.498 346.747C316.328 345.918 317.672 345.918 318.502 346.747L331.253 359.498C332.082 360.328 332.082 361.672 331.253 362.502L318.502 375.253C317.672 376.082 316.328 376.082 315.498 375.253L302.747 362.502Z" fill="#EE513B"/>
<path d="M312.908 349.378L311.617 350.669L314.952 354.004C314.817 354.294 314.742 354.616 314.742 354.957C314.742 355.923 315.349 356.748 316.203 357.07V365.228C315.349 365.551 314.742 366.375 314.742 367.342C314.742 368.589 315.753 369.599 317 369.599C318.247 369.599 319.258 368.589 319.258 367.342C319.258 366.465 318.759 365.706 318.029 365.332V357.081L321.217 360.269C321.089 360.553 321.017 360.868 321.017 361.199C321.017 362.446 322.028 363.457 323.275 363.457C324.522 363.457 325.533 362.446 325.533 361.199C325.533 359.952 324.522 358.941 323.275 358.941C323.033 358.941 322.8 358.979 322.581 359.05L319.157 355.626C319.222 355.415 319.258 355.19 319.258 354.957C319.258 353.71 318.247 352.699 317 352.699C316.767 352.699 316.542 352.734 316.331 352.8L312.908 349.378Z" fill="white"/>
</g>
<g filter="url(#filter17_d_5137_10121)">
<rect x="396" y="207.094" width="126" height="126" rx="63" fill="#F9FAFC"/>
<rect x="396" y="207.094" width="126" height="126" rx="63" stroke="url(#paint0_linear_5137_10121)" stroke-width="3.85714"/>
<path d="M460.408 244.268L454.626 254.303H454.587L448.863 244.366L460.408 244.268Z" fill="#83FF50" stroke="#83FF50" stroke-width="0.196001" stroke-miterlimit="5.3333"/>
<mask id="mask0_5137_10121" style="mask-type:luminance" maskUnits="userSpaceOnUse" x="433" y="232" width="32" height="15">
<path d="M464.342 246.074H433.295V232.412H464.342V246.074Z" fill="white"/>
</mask>
<g mask="url(#mask0_5137_10121)">
<g opacity="0.83">
<path d="M460.456 244.211L460.436 244.25H460.417V244.27L448.853 244.368V244.348H437.269L437.19 244.211L443.012 234.137H454.654L460.456 244.211Z" fill="#96FF5B" fill-opacity="0.6471"/>
</g>
</g>
<path d="M460.433 244.252L454.65 254.288H454.631L460.413 244.252H460.433Z" fill="white"/>
<path d="M454.658 254.433L454.639 254.472L448.837 264.507H437.214L431.393 254.433L437.214 244.358H437.273L442.996 254.295H454.58L454.658 254.433Z" fill="#00D6FF" stroke="#00D6FF" stroke-width="0.196001" stroke-miterlimit="5.3333"/>
<path d="M454.578 254.294H443.013L437.271 244.357H448.854L454.578 254.294Z" fill="#7DFFFF" stroke="#7DFFFF" stroke-width="0.196001" stroke-miterlimit="5.3333"/>
<path d="M460.493 264.259L460.591 264.416H460.415L456.005 264.455L448.851 264.514L454.652 254.479H466.158L460.493 264.259Z" fill="#32E6FF" stroke="#32E6FF" stroke-width="0.196001" stroke-miterlimit="5.3333"/>
<mask id="mask1_5137_10121" style="mask-type:luminance" maskUnits="userSpaceOnUse" x="445" y="251" width="25" height="28">
<path d="M469.356 278.003H445.855V251.111H469.356V278.003Z" fill="white"/>
</mask>
<g mask="url(#mask1_5137_10121)">
<g opacity="0.86">
<path d="M466.423 274.342L466.247 274.636H454.624L448.803 264.562L448.822 264.522L454.624 254.487H454.644L448.842 264.503L455.996 264.444L460.426 264.405H460.602L466.306 274.342H466.423Z" fill="#00D5FF" fill-opacity="0.5451"/>
</g>
</g>
<path d="M460.492 264.259L460.59 264.416H460.414L454.69 254.479H466.157L460.492 264.259Z" fill="#20E6FF" stroke="#20E6FF" stroke-width="0.196001" stroke-miterlimit="5.3333"/>
<path d="M471.997 264.415H460.589L460.491 264.258L466.136 254.478H466.254L471.997 264.415Z" fill="#2AF0FF" stroke="#2AF0FF" stroke-width="0.196001" stroke-miterlimit="5.3333"/>
<mask id="mask2_5137_10121" style="mask-type:luminance" maskUnits="userSpaceOnUse" x="458" y="262" width="17" height="15">
<path d="M474.002 276.003H458.674V262.773H474.002V276.003Z" fill="white"/>
</mask>
<g mask="url(#mask2_5137_10121)">
<g opacity="0.95">
<path d="M472.072 264.554L466.427 274.334H466.309L460.586 264.416H471.993L472.072 264.554Z" fill="#29EFFF" fill-opacity="0.8"/>
</g>
</g>
<path d="M477.875 254.336L472.054 264.41H471.995L466.272 254.473H454.688L454.609 254.336L454.629 254.296L460.411 244.261V244.241H472.054L477.777 254.159L477.875 254.336Z" fill="#32F8B9" stroke="#32F8B9" stroke-width="0.196001" stroke-miterlimit="5.3333"/>
<mask id="mask3_5137_10121" style="mask-type:luminance" maskUnits="userSpaceOnUse" x="463" y="250" width="24" height="29">
<path d="M486.607 278.002H463.342V250.934H486.607V278.002Z" fill="white"/>
</mask>
<g mask="url(#mask3_5137_10121)">
<g opacity="0.85">
<path d="M483.686 264.401L477.865 274.476L466.242 274.633L472.005 264.695L471.926 264.558H471.985L477.806 254.484L477.708 254.327H477.885L483.686 264.401Z" fill="#32F6B8" fill-opacity="0.5647"/>
</g>
</g>
<path d="M437.748 293.355V282.403H442.437V284.068H439.395V287.055H441.622V288.72H439.395V291.689H442.437V293.355H437.748Z" fill="#090909"/>
<path d="M446.565 284.922L445.95 289.23H447.181L446.565 284.922ZM445.696 290.841L445.298 293.358H443.578L445.443 282.423H447.706L449.534 293.358H447.796L447.416 290.841H445.696Z" fill="#090909"/>
<path d="M454.518 285.053C454.518 284.419 454.21 284.093 453.577 284.093H452.581V287.587H453.577C453.83 287.587 454.065 287.496 454.246 287.315C454.427 287.134 454.518 286.899 454.518 286.646V285.053ZM453.54 282.41C454.464 282.41 455.133 282.663 455.568 283.17C455.948 283.604 456.129 284.238 456.129 285.016V286.609C456.129 287.388 455.84 288.04 455.242 288.583L456.473 293.362H454.681L453.685 289.234H453.54H452.581V293.362H450.934V282.428H453.54V282.41Z" fill="#090909"/>
<path d="M459.092 284.075H457.336V282.409H462.495V284.075H460.739V293.362H459.092V284.075Z" fill="#090909"/>
<path d="M465.466 288.719V293.354H463.818V282.419H465.466V287.054H467.457V282.401H469.104V293.336H467.457V288.719H465.466Z" fill="#090909"/>
<path d="M475.076 293.355H470.587V282.421H472.234V291.707H475.076V293.355Z" fill="#090909"/>
<path d="M476.378 288.772L474.169 282.399H475.979L477.21 286.328L478.423 282.399H480.252L478.025 288.772V293.352H476.378V288.772Z" fill="#090909"/>
<path d="M473.154 299.466C473.154 298.832 472.846 298.506 472.212 298.506H471.217V302H472.212C472.466 302 472.701 301.91 472.882 301.729C473.063 301.548 473.154 301.312 473.154 301.059V299.466ZM472.176 296.823C473.099 296.823 473.769 297.076 474.204 297.583C474.584 298.018 474.765 298.651 474.765 299.43V301.023C474.765 301.801 474.475 302.453 473.878 302.996L475.109 307.775H473.317L472.321 303.648H472.176H471.217V307.775H469.569V296.841H472.176V296.823Z" fill="#49728B"/>
<path d="M465.236 299.335L464.621 303.644H465.852L465.236 299.335ZM464.367 305.255L463.969 307.771H462.249L464.114 296.837H466.377L468.205 307.771H466.467L466.087 305.255H464.367Z" fill="#49728B"/>
<path d="M457.245 301.871V307.767H455.598V296.833H457.245L459.236 302.606V296.815H460.884V307.749H459.236L457.245 301.871Z" fill="#49728B"/>
<path d="M451.386 307.767C450.038 307.767 448.945 306.674 448.945 305.326V296.833H450.593V305.121C450.593 305.671 451.038 306.116 451.588 306.116C452.138 306.116 452.584 305.671 452.584 305.121V296.815H454.231V305.308C454.231 306.659 453.141 307.757 451.79 307.767H451.386Z" fill="#49728B"/>
<path d="M442.893 307.768V296.816H444.54V298.481V301.468V303.134V306.103H447.581V307.768H442.893Z" fill="#49728B"/>
</g>
<text fill="#111827" xml:space="preserve" style="white-space: pre" font-family="Helvetica" font-size="12" font-weight="bold" letter-spacing="-0.03em"><tspan x="235" y="265.637">Applications</tspan></text>
<text fill="#111827" xml:space="preserve" style="white-space: pre" font-family="Helvetica" font-size="12" font-weight="bold" letter-spacing="-0.03em"><tspan x="645" y="219.637">CI/CD</tspan></text>
<text fill="#111827" xml:space="preserve" style="white-space: pre" font-family="Helvetica" font-size="12" font-weight="bold" letter-spacing="-0.03em"><tspan x="528" y="429.637">Guardrails</tspan></text>
<defs>
<filter id="filter0_d_5137_10121" x="0.785127" y="-188.215" width="916.43" height="916.43" filterUnits="userSpaceOnUse" color-interpolation-filters="sRGB">
<feFlood flood-opacity="0" result="BackgroundImageFix"/>
<feColorMatrix in="SourceAlpha" type="matrix" values="0 0 0 0 0 0 0 0 0 0 0 0 0 0 0 0 0 0 127 0" result="hardAlpha"/>
<feMorphology radius="3.83029" operator="dilate" in="SourceAlpha" result="effect1_dropShadow_5137_10121"/>
<feOffset/>
<feGaussianBlur stdDeviation="6.19229"/>
<feComposite in2="hardAlpha" operator="out"/>
<feColorMatrix type="matrix" values="0 0 0 0 0 0 0 0 0 0 0 0 0 0 0 0 0 0 0.05 0"/>
<feBlend mode="normal" in2="BackgroundImageFix" result="effect1_dropShadow_5137_10121"/>
<feBlend mode="normal" in="SourceGraphic" in2="effect1_dropShadow_5137_10121" result="shape"/>
</filter>
<filter id="filter1_d_5137_10121" x="120.785" y="-68.2149" width="676.43" height="677.43" filterUnits="userSpaceOnUse" color-interpolation-filters="sRGB">
<feFlood flood-opacity="0" result="BackgroundImageFix"/>
<feColorMatrix in="SourceAlpha" type="matrix" values="0 0 0 0 0 0 0 0 0 0 0 0 0 0 0 0 0 0 127 0" result="hardAlpha"/>
<feMorphology radius="3.83029" operator="dilate" in="SourceAlpha" result="effect1_dropShadow_5137_10121"/>
<feOffset/>
<feGaussianBlur stdDeviation="6.19229"/>
<feComposite in2="hardAlpha" operator="out"/>
<feColorMatrix type="matrix" values="0 0 0 0 0 0 0 0 0 0 0 0 0 0 0 0 0 0 0.05 0"/>
<feBlend mode="normal" in2="BackgroundImageFix" result="effect1_dropShadow_5137_10121"/>
<feBlend mode="normal" in="SourceGraphic" in2="effect1_dropShadow_5137_10121" result="shape"/>
</filter>
<filter id="filter2_d_5137_10121" x="211.691" y="22.7851" width="494.617" height="494.617" filterUnits="userSpaceOnUse" color-interpolation-filters="sRGB">
<feFlood flood-opacity="0" result="BackgroundImageFix"/>
<feColorMatrix in="SourceAlpha" type="matrix" values="0 0 0 0 0 0 0 0 0 0 0 0 0 0 0 0 0 0 127 0" result="hardAlpha"/>
<feMorphology radius="3.83029" operator="dilate" in="SourceAlpha" result="effect1_dropShadow_5137_10121"/>
<feOffset/>
<feGaussianBlur stdDeviation="6.19229"/>
<feComposite in2="hardAlpha" operator="out"/>
<feColorMatrix type="matrix" values="0 0 0 0 0 0 0 0 0 0 0 0 0 0 0 0 0 0 0.05 0"/>
<feBlend mode="normal" in2="BackgroundImageFix" result="effect1_dropShadow_5137_10121"/>
<feBlend mode="normal" in="SourceGraphic" in2="effect1_dropShadow_5137_10121" result="shape"/>
</filter>
<filter id="filter3_d_5137_10121" x="270.651" y="81.7447" width="376.698" height="376.698" filterUnits="userSpaceOnUse" color-interpolation-filters="sRGB">
<feFlood flood-opacity="0" result="BackgroundImageFix"/>
<feColorMatrix in="SourceAlpha" type="matrix" values="0 0 0 0 0 0 0 0 0 0 0 0 0 0 0 0 0 0 127 0" result="hardAlpha"/>
<feMorphology radius="2.91713" operator="dilate" in="SourceAlpha" result="effect1_dropShadow_5137_10121"/>
<feOffset/>
<feGaussianBlur stdDeviation="4.71602"/>
<feComposite in2="hardAlpha" operator="out"/>
<feColorMatrix type="matrix" values="0 0 0 0 0 0 0 0 0 0 0 0 0 0 0 0 0 0 0.05 0"/>
<feBlend mode="normal" in2="BackgroundImageFix" result="effect1_dropShadow_5137_10121"/>
<feBlend mode="normal" in="SourceGraphic" in2="effect1_dropShadow_5137_10121" result="shape"/>
</filter>
<filter id="filter4_d_5137_10121" x="335.37" y="146.464" width="247.261" height="247.261" filterUnits="userSpaceOnUse" color-interpolation-filters="sRGB">
<feFlood flood-opacity="0" result="BackgroundImageFix"/>
<feColorMatrix in="SourceAlpha" type="matrix" values="0 0 0 0 0 0 0 0 0 0 0 0 0 0 0 0 0 0 127 0" result="hardAlpha"/>
<feMorphology radius="2.51111" operator="dilate" in="SourceAlpha" result="effect1_dropShadow_5137_10121"/>
<feOffset/>
<feGaussianBlur stdDeviation="4.05963"/>
<feComposite in2="hardAlpha" operator="out"/>
<feColorMatrix type="matrix" values="0 0 0 0 0 0 0 0 0 0 0 0 0 0 0 0 0 0 0.05 0"/>
<feBlend mode="normal" in2="BackgroundImageFix" result="effect1_dropShadow_5137_10121"/>
<feBlend mode="normal" in="SourceGraphic" in2="effect1_dropShadow_5137_10121" result="shape"/>
</filter>
<filter id="filter5_d_5137_10121" x="392.828" y="388.922" width="70.3444" height="70.3444" filterUnits="userSpaceOnUse" color-interpolation-filters="sRGB">
<feFlood flood-opacity="0" result="BackgroundImageFix"/>
<feColorMatrix in="SourceAlpha" type="matrix" values="0 0 0 0 0 0 0 0 0 0 0 0 0 0 0 0 0 0 127 0" result="hardAlpha"/>
<feMorphology radius="2.16667" operator="dilate" in="SourceAlpha" result="effect1_dropShadow_5137_10121"/>
<feOffset/>
<feGaussianBlur stdDeviation="3.50278"/>
<feComposite in2="hardAlpha" operator="out"/>
<feColorMatrix type="matrix" values="0 0 0 0 0 0 0 0 0 0 0 0 0 0 0 0 0 0 0.05 0"/>
<feBlend mode="normal" in2="BackgroundImageFix" result="effect1_dropShadow_5137_10121"/>
<feBlend mode="normal" in="SourceGraphic" in2="effect1_dropShadow_5137_10121" result="shape"/>
</filter>
<filter id="filter6_d_5137_10121" x="501.297" y="342.391" width="51.4056" height="51.4056" filterUnits="userSpaceOnUse" color-interpolation-filters="sRGB">
<feFlood flood-opacity="0" result="BackgroundImageFix"/>
<feColorMatrix in="SourceAlpha" type="matrix" values="0 0 0 0 0 0 0 0 0 0 0 0 0 0 0 0 0 0 127 0" result="hardAlpha"/>
<feMorphology radius="1.58333" operator="dilate" in="SourceAlpha" result="effect1_dropShadow_5137_10121"/>
<feOffset/>
<feGaussianBlur stdDeviation="2.55972"/>
<feComposite in2="hardAlpha" operator="out"/>
<feColorMatrix type="matrix" values="0 0 0 0 0 0 0 0 0 0 0 0 0 0 0 0 0 0 0.05 0"/>
<feBlend mode="normal" in2="BackgroundImageFix" result="effect1_dropShadow_5137_10121"/>
<feBlend mode="normal" in="SourceGraphic" in2="effect1_dropShadow_5137_10121" result="shape"/>
</filter>
<filter id="filter7_d_5137_10121" x="592.181" y="319.274" width="67.6389" height="67.6389" filterUnits="userSpaceOnUse" color-interpolation-filters="sRGB">
<feFlood flood-opacity="0" result="BackgroundImageFix"/>
<feColorMatrix in="SourceAlpha" type="matrix" values="0 0 0 0 0 0 0 0 0 0 0 0 0 0 0 0 0 0 127 0" result="hardAlpha"/>
<feMorphology radius="2.08333" operator="dilate" in="SourceAlpha" result="effect1_dropShadow_5137_10121"/>
<feOffset/>
<feGaussianBlur stdDeviation="3.36806"/>
<feComposite in2="hardAlpha" operator="out"/>
<feColorMatrix type="matrix" values="0 0 0 0 0 0 0 0 0 0 0 0 0 0 0 0 0 0 0.05 0"/>
<feBlend mode="normal" in2="BackgroundImageFix" result="effect1_dropShadow_5137_10121"/>
<feBlend mode="normal" in="SourceGraphic" in2="effect1_dropShadow_5137_10121" result="shape"/>
</filter>
<filter id="filter8_d_5137_10121" x="536.828" y="210.828" width="70.3444" height="70.3444" filterUnits="userSpaceOnUse" color-interpolation-filters="sRGB">
<feFlood flood-opacity="0" result="BackgroundImageFix"/>
<feColorMatrix in="SourceAlpha" type="matrix" values="0 0 0 0 0 0 0 0 0 0 0 0 0 0 0 0 0 0 127 0" result="hardAlpha"/>
<feMorphology radius="2.16667" operator="dilate" in="SourceAlpha" result="effect1_dropShadow_5137_10121"/>
<feOffset/>
<feGaussianBlur stdDeviation="3.50278"/>
<feComposite in2="hardAlpha" operator="out"/>
<feColorMatrix type="matrix" values="0 0 0 0 0 0 0 0 0 0 0 0 0 0 0 0 0 0 0.05 0"/>
<feBlend mode="normal" in2="BackgroundImageFix" result="effect1_dropShadow_5137_10121"/>
<feBlend mode="normal" in="SourceGraphic" in2="effect1_dropShadow_5137_10121" result="shape"/>
</filter>
<filter id="filter9_d_5137_10121" x="406.064" y="55.1578" width="83.8722" height="83.8722" filterUnits="userSpaceOnUse" color-interpolation-filters="sRGB">
<feFlood flood-opacity="0" result="BackgroundImageFix"/>
<feColorMatrix in="SourceAlpha" type="matrix" values="0 0 0 0 0 0 0 0 0 0 0 0 0 0 0 0 0 0 127 0" result="hardAlpha"/>
<feMorphology radius="2.58333" operator="dilate" in="SourceAlpha" result="effect1_dropShadow_5137_10121"/>
<feOffset/>
<feGaussianBlur stdDeviation="4.17639"/>
<feComposite in2="hardAlpha" operator="out"/>
<feColorMatrix type="matrix" values="0 0 0 0 0 0 0 0 0 0 0 0 0 0 0 0 0 0 0.05 0"/>
<feBlend mode="normal" in2="BackgroundImageFix" result="effect1_dropShadow_5137_10121"/>
<feBlend mode="normal" in="SourceGraphic" in2="effect1_dropShadow_5137_10121" result="shape"/>
</filter>
<filter id="filter10_d_5137_10121" x="272.064" y="127.158" width="83.8722" height="83.8722" filterUnits="userSpaceOnUse" color-interpolation-filters="sRGB">
<feFlood flood-opacity="0" result="BackgroundImageFix"/>
<feColorMatrix in="SourceAlpha" type="matrix" values="0 0 0 0 0 0 0 0 0 0 0 0 0 0 0 0 0 0 127 0" result="hardAlpha"/>
<feMorphology radius="2.58333" operator="dilate" in="SourceAlpha" result="effect1_dropShadow_5137_10121"/>
<feOffset/>
<feGaussianBlur stdDeviation="4.17639"/>
<feComposite in2="hardAlpha" operator="out"/>
<feColorMatrix type="matrix" values="0 0 0 0 0 0 0 0 0 0 0 0 0 0 0 0 0 0 0.05 0"/>
<feBlend mode="normal" in2="BackgroundImageFix" result="effect1_dropShadow_5137_10121"/>
<feBlend mode="normal" in="SourceGraphic" in2="effect1_dropShadow_5137_10121" result="shape"/>
</filter>
<filter id="filter11_d_5137_10121" x="271.825" y="236.825" width="16.35" height="16.35" filterUnits="userSpaceOnUse" color-interpolation-filters="sRGB">
<feFlood flood-opacity="0" result="BackgroundImageFix"/>
<feColorMatrix in="SourceAlpha" type="matrix" values="0 0 0 0 0 0 0 0 0 0 0 0 0 0 0 0 0 0 127 0" result="hardAlpha"/>
<feMorphology radius="0.75" operator="dilate" in="SourceAlpha" result="effect1_dropShadow_5137_10121"/>
<feOffset/>
<feGaussianBlur stdDeviation="1.2125"/>
<feComposite in2="hardAlpha" operator="out"/>
<feColorMatrix type="matrix" values="0 0 0 0 0 0 0 0 0 0 0 0 0 0 0 0 0 0 0.05 0"/>
<feBlend mode="normal" in2="BackgroundImageFix" result="effect1_dropShadow_5137_10121"/>
<feBlend mode="normal" in="SourceGraphic" in2="effect1_dropShadow_5137_10121" result="shape"/>
</filter>
<filter id="filter12_d_5137_10121" x="625.825" y="206.825" width="18.35" height="18.35" filterUnits="userSpaceOnUse" color-interpolation-filters="sRGB">
<feFlood flood-opacity="0" result="BackgroundImageFix"/>
<feColorMatrix in="SourceAlpha" type="matrix" values="0 0 0 0 0 0 0 0 0 0 0 0 0 0 0 0 0 0 127 0" result="hardAlpha"/>
<feMorphology radius="0.75" operator="dilate" in="SourceAlpha" result="effect1_dropShadow_5137_10121"/>
<feOffset/>
<feGaussianBlur stdDeviation="1.2125"/>
<feComposite in2="hardAlpha" operator="out"/>
<feColorMatrix type="matrix" values="0 0 0 0 0 0 0 0 0 0 0 0 0 0 0 0 0 0 0.05 0"/>
<feBlend mode="normal" in2="BackgroundImageFix" result="effect1_dropShadow_5137_10121"/>
<feBlend mode="normal" in="SourceGraphic" in2="effect1_dropShadow_5137_10121" result="shape"/>
</filter>
<filter id="filter13_d_5137_10121" x="548.236" y="404.236" width="13.5278" height="13.5278" filterUnits="userSpaceOnUse" color-interpolation-filters="sRGB">
<feFlood flood-opacity="0" result="BackgroundImageFix"/>
<feColorMatrix in="SourceAlpha" type="matrix" values="0 0 0 0 0 0 0 0 0 0 0 0 0 0 0 0 0 0 127 0" result="hardAlpha"/>
<feMorphology radius="0.416667" operator="dilate" in="SourceAlpha" result="effect1_dropShadow_5137_10121"/>
<feOffset/>
<feGaussianBlur stdDeviation="0.673611"/>
<feComposite in2="hardAlpha" operator="out"/>
<feColorMatrix type="matrix" values="0 0 0 0 0 0 0 0 0 0 0 0 0 0 0 0 0 0 0.05 0"/>
<feBlend mode="normal" in2="BackgroundImageFix" result="effect1_dropShadow_5137_10121"/>
<feBlend mode="normal" in="SourceGraphic" in2="effect1_dropShadow_5137_10121" result="shape"/>
</filter>
<filter id="filter14_d_5137_10121" x="321.239" y="215.333" width="59.5222" height="59.5222" filterUnits="userSpaceOnUse" color-interpolation-filters="sRGB">
<feFlood flood-opacity="0" result="BackgroundImageFix"/>
<feColorMatrix in="SourceAlpha" type="matrix" values="0 0 0 0 0 0 0 0 0 0 0 0 0 0 0 0 0 0 127 0" result="hardAlpha"/>
<feMorphology radius="1.83333" operator="dilate" in="SourceAlpha" result="effect1_dropShadow_5137_10121"/>
<feOffset/>
<feGaussianBlur stdDeviation="2.96389"/>
<feComposite in2="hardAlpha" operator="out"/>
<feColorMatrix type="matrix" values="0 0 0 0 0 0 0 0 0 0 0 0 0 0 0 0 0 0 0.05 0"/>
<feBlend mode="normal" in2="BackgroundImageFix" result="effect1_dropShadow_5137_10121"/>
<feBlend mode="normal" in="SourceGraphic" in2="effect1_dropShadow_5137_10121" result="shape"/>
</filter>
<filter id="filter15_d_5137_10121" x="542.797" y="112.391" width="51.4056" height="51.4056" filterUnits="userSpaceOnUse" color-interpolation-filters="sRGB">
<feFlood flood-opacity="0" result="BackgroundImageFix"/>
<feColorMatrix in="SourceAlpha" type="matrix" values="0 0 0 0 0 0 0 0 0 0 0 0 0 0 0 0 0 0 127 0" result="hardAlpha"/>
<feMorphology radius="1.58333" operator="dilate" in="SourceAlpha" result="effect1_dropShadow_5137_10121"/>
<feOffset/>
<feGaussianBlur stdDeviation="2.55972"/>
<feComposite in2="hardAlpha" operator="out"/>
<feColorMatrix type="matrix" values="0 0 0 0 0 0 0 0 0 0 0 0 0 0 0 0 0 0 0.05 0"/>
<feBlend mode="normal" in2="BackgroundImageFix" result="effect1_dropShadow_5137_10121"/>
<feBlend mode="normal" in="SourceGraphic" in2="effect1_dropShadow_5137_10121" result="shape"/>
</filter>
<filter id="filter16_d_5137_10121" x="279.122" y="323.122" width="75.7556" height="75.7556" filterUnits="userSpaceOnUse" color-interpolation-filters="sRGB">
<feFlood flood-opacity="0" result="BackgroundImageFix"/>
<feColorMatrix in="SourceAlpha" type="matrix" values="0 0 0 0 0 0 0 0 0 0 0 0 0 0 0 0 0 0 127 0" result="hardAlpha"/>
<feMorphology radius="2.33333" operator="dilate" in="SourceAlpha" result="effect1_dropShadow_5137_10121"/>
<feOffset/>
<feGaussianBlur stdDeviation="3.77222"/>
<feComposite in2="hardAlpha" operator="out"/>
<feColorMatrix type="matrix" values="0 0 0 0 0 0 0 0 0 0 0 0 0 0 0 0 0 0 0.05 0"/>
<feBlend mode="normal" in2="BackgroundImageFix" result="effect1_dropShadow_5137_10121"/>
<feBlend mode="normal" in="SourceGraphic" in2="effect1_dropShadow_5137_10121" result="shape"/>
</filter>
<filter id="filter17_d_5137_10121" x="384.979" y="196.073" width="148.042" height="148.041" filterUnits="userSpaceOnUse" color-interpolation-filters="sRGB">
<feFlood flood-opacity="0" result="BackgroundImageFix"/>
<feColorMatrix in="SourceAlpha" type="matrix" values="0 0 0 0 0 0 0 0 0 0 0 0 0 0 0 0 0 0 127 0" result="hardAlpha"/>
<feMorphology radius="2.14773" operator="dilate" in="SourceAlpha" result="effect1_dropShadow_5137_10121"/>
<feOffset/>
<feGaussianBlur stdDeviation="3.47216"/>
<feComposite in2="hardAlpha" operator="out"/>
<feColorMatrix type="matrix" values="0 0 0 0 0 0 0 0 0 0 0 0 0 0 0 0 0 0 0.17 0"/>
<feBlend mode="normal" in2="BackgroundImageFix" result="effect1_dropShadow_5137_10121"/>
<feBlend mode="normal" in="SourceGraphic" in2="effect1_dropShadow_5137_10121" result="shape"/>
</filter>
<linearGradient id="paint0_linear_5137_10121" x1="396" y1="270.094" x2="522" y2="270.094" gradientUnits="userSpaceOnUse">
<stop stop-color="#00D6FF"/>
<stop offset="0.505" stop-color="#83FF50"/>
<stop offset="1" stop-color="#32F8B9"/>
</linearGradient>
<clipPath id="clip0_5137_10121">
<rect width="36.864" height="36" fill="white" transform="translate(430 79.0939)"/>
</clipPath>
</defs>
</svg>
