<svg width="488" height="488" viewBox="0 0 496 496" fill="none" xmlns="http://www.w3.org/2000/svg">
<g opacity="0.32" filter="url(#filter0_d_4458_1370)">
<rect x="72" y="72.0939" width="352" height="352" rx="176" fill="white"/>
<rect x="72.4862" y="72.5801" width="351.028" height="351.028" rx="175.514" stroke="#00D6FF" stroke-opacity="0.08" stroke-width="0.972376"/>
</g>
<g opacity="0.24" filter="url(#filter1_d_4458_1370)">
<rect x="16.9102" y="17" width="462.188" height="462.188" rx="231.094" fill="white"/>
<rect x="17.5485" y="17.6384" width="460.911" height="460.911" rx="230.455" stroke="#00D6FF" stroke-opacity="0.08" stroke-width="1.27676"/>
</g>
<g opacity="0.59" filter="url(#filter2_d_4458_1370)">
<rect x="135" y="135.094" width="226" height="226" rx="113" fill="#FDFDFD"/>
<rect x="135.419" y="135.512" width="225.163" height="225.163" rx="112.581" stroke="#00D6FF" stroke-opacity="0.08" stroke-width="0.837037"/>
</g>
<path d="M249.5 251.594L141.5 226.094M141.5 226.094L102.5 148.094M141.5 226.094L105.5 340.5" stroke="url(#paint0_linear_4458_1370)" stroke-width="2"/>
<path d="M250 252.094L237.5 74.5" stroke="url(#paint1_linear_4458_1370)" stroke-width="2"/>
<path d="M251 252.094L361.5 225L358.5 115.594" stroke="url(#paint2_linear_4458_1370)" stroke-width="2"/>
<path d="M352 121.5L243 258" stroke="#83FF50" stroke-width="2"/>
<path d="M246.5 248.5L217 402.5" stroke="url(#paint3_linear_4458_1370)" stroke-width="2"/>
<path d="M416.5 331L246.5 248.5L316.5 348" stroke="url(#paint4_linear_4458_1370)" stroke-width="2"/>
<path d="M107 338L217 403" stroke="url(#paint5_linear_4458_1370)"/>
<path d="M344 389L317 346.5" stroke="url(#paint6_linear_4458_1370)" stroke-width="2"/>
<path d="M362 225L414.5 332.5" stroke="url(#paint7_linear_4458_1370)"/>
<path d="M237 75L141.5 224.5" stroke="url(#paint8_linear_4458_1370)"/>
<path d="M140.5 225L69.5 223.5" stroke="url(#paint9_linear_4458_1370)" stroke-width="2"/>
<path d="M358.5 116L236 78" stroke="url(#paint10_linear_4458_1370)"/>
<path d="M361.5 223L423 194.5" stroke="url(#paint11_linear_4458_1370)" stroke-width="2"/>
<path d="M237 75L100.5 147.5" stroke="url(#paint12_linear_4458_1370)"/>
<path d="M416 332L314 347.5L217 403" stroke="url(#paint13_linear_4458_1370)"/>
<g filter="url(#filter3_d_4458_1370)">
<rect x="191" y="376.094" width="52" height="52" rx="26" fill="#F9FAFC"/>
<rect x="192" y="377.094" width="50" height="50" rx="25" stroke="#34F8B6" stroke-width="2"/>
<path d="M217.389 392.599L217.912 391.377C217.747 391.306 217.569 391.269 217.389 391.269C217.209 391.269 217.031 391.306 216.865 391.377L217.389 392.599ZM217.389 411.746L216.729 412.9C217.138 413.134 217.64 413.134 218.048 412.9L217.389 411.746ZM216.865 391.377L210.064 394.291L211.11 396.736L217.912 393.821L216.865 391.377ZM208.613 396.492V403.789H211.272V396.492H208.613ZM212.499 410.483L216.729 412.901L218.048 410.593L213.818 408.175L212.499 410.483ZM218.048 412.901L222.279 410.485L220.96 408.176L216.729 410.593L218.048 412.901ZM226.164 403.788V396.492H223.505V403.789L226.164 403.788ZM224.713 394.292L217.912 391.378L216.865 393.822L223.666 396.737L224.713 394.292ZM226.164 396.492C226.164 395.535 225.594 394.67 224.713 394.292L223.666 396.737C223.618 396.716 223.577 396.682 223.549 396.639C223.52 396.595 223.505 396.544 223.505 396.492H226.164ZM222.279 410.485C223.459 409.81 224.44 408.835 225.123 407.659C225.805 406.483 226.164 405.148 226.164 403.788H223.505C223.505 404.679 223.27 405.554 222.823 406.324C222.376 407.095 221.733 407.734 220.96 408.176L222.279 410.485ZM208.613 403.787C208.613 405.147 208.972 406.482 209.655 407.658C210.337 408.834 211.318 409.809 212.499 410.483L213.818 408.175C213.044 407.733 212.401 407.094 211.954 406.324C211.507 405.553 211.272 404.678 211.272 403.787H208.613ZM210.064 394.291C209.633 394.476 209.266 394.783 209.008 395.174C208.75 395.565 208.613 396.024 208.613 396.492H211.272C211.272 396.599 211.208 396.693 211.11 396.736L210.064 394.291Z" fill="black"/>
<path d="M220.58 400.045L216.325 404.3L214.198 402.173" stroke="black" stroke-width="2.09677" stroke-linecap="round" stroke-linejoin="round"/>
</g>
<g filter="url(#filter4_d_4458_1370)">
<rect x="297" y="327.094" width="38" height="38" rx="19" fill="#F9FAFC"/>
<rect x="298" y="328.094" width="36" height="36" rx="18" stroke="#34F8B6" stroke-width="2"/>
<path d="M309.7 339.854C309.7 339.44 309.865 339.043 310.157 338.751C310.45 338.458 310.846 338.294 311.26 338.294H317.5C317.707 338.294 317.905 338.376 318.052 338.522L321.952 342.422C322.098 342.569 322.18 342.767 322.18 342.974V352.334C322.18 352.748 322.016 353.144 321.723 353.437C321.431 353.73 321.034 353.894 320.62 353.894H311.26C310.846 353.894 310.45 353.73 310.157 353.437C309.865 353.144 309.7 352.748 309.7 352.334V339.854ZM320.297 342.974L317.5 340.177V342.974H320.297ZM315.94 339.854H311.26V352.334H320.62V344.534H316.72C316.513 344.534 316.315 344.452 316.169 344.305C316.022 344.159 315.94 343.961 315.94 343.754V339.854ZM312.82 346.874C312.82 346.667 312.902 346.469 313.049 346.322C313.195 346.176 313.393 346.094 313.6 346.094H318.28C318.487 346.094 318.685 346.176 318.832 346.322C318.978 346.469 319.06 346.667 319.06 346.874C319.06 347.081 318.978 347.279 318.832 347.425C318.685 347.572 318.487 347.654 318.28 347.654H313.6C313.393 347.654 313.195 347.572 313.049 347.425C312.902 347.279 312.82 347.081 312.82 346.874ZM312.82 349.994C312.82 349.787 312.902 349.589 313.049 349.442C313.195 349.296 313.393 349.214 313.6 349.214H318.28C318.487 349.214 318.685 349.296 318.832 349.442C318.978 349.589 319.06 349.787 319.06 349.994C319.06 350.201 318.978 350.399 318.832 350.545C318.685 350.692 318.487 350.774 318.28 350.774H313.6C313.393 350.774 313.195 350.692 313.049 350.545C312.902 350.399 312.82 350.201 312.82 349.994Z" fill="black"/>
</g>
<g filter="url(#filter5_d_4458_1370)">
<rect x="390" y="306.094" width="50" height="50" rx="25" fill="#F9FAFC"/>
<rect x="391" y="307.094" width="48" height="48" rx="24" stroke="#34F8B6" stroke-width="2"/>
<path d="M420.95 323.444L425.37 327.864M425.37 323.444L420.95 327.864M426.475 334.494L422.607 338.914L420.397 336.704" stroke="black" stroke-width="1.7" stroke-linecap="round" stroke-linejoin="round"/>
<path d="M416.53 323.444H404.375V327.864H416.53V323.444ZM416.53 334.494H404.375V338.914H416.53V334.494Z" fill="black" stroke="black" stroke-width="1.7" stroke-linecap="round" stroke-linejoin="round"/>
</g>
<g filter="url(#filter6_d_4458_1370)">
<rect x="335" y="198" width="52" height="52" rx="26" fill="#F9FAFC"/>
<rect x="336" y="199" width="50" height="50" rx="25" stroke="#83FF50" stroke-width="2"/>
<path d="M361.225 237.775L366.647 221.073H355.812L361.225 237.775Z" fill="#E24329"/>
<path d="M348.219 221.073L346.568 226.148C346.418 226.608 346.58 227.117 346.974 227.404L361.226 237.775L348.219 221.073Z" fill="#FCA326"/>
<path d="M348.219 221.073H355.812L352.544 211.015C352.377 210.5 351.648 210.5 351.475 211.015L348.219 221.073Z" fill="#E24329"/>
<path d="M374.241 221.073L375.886 226.148C376.035 226.608 375.874 227.117 375.479 227.404L361.226 237.775L374.241 221.073Z" fill="#FCA326"/>
<path d="M374.241 221.073H366.647L369.909 211.015C370.076 210.5 370.805 210.5 370.979 211.015L374.241 221.073Z" fill="#E24329"/>
<path d="M361.226 237.775L366.647 221.073H374.241L361.226 237.775Z" fill="#FC6D26"/>
<path d="M361.226 237.775L348.219 221.073H355.812L361.226 237.775Z" fill="#FC6D26"/>
</g>
<g filter="url(#filter7_d_4458_1370)">
<rect x="206" y="44.0939" width="62" height="62" rx="31" fill="#F9FAFC"/>
<rect x="207" y="45.0939" width="60" height="60" rx="30" stroke="#83FF50" stroke-width="2"/>
<g clip-path="url(#clip0_4458_1370)">
<path d="M237.432 57.0939C227.254 57.0939 219 65.346 219 75.526C219 83.6698 224.281 90.579 231.605 93.0162C232.526 93.1869 232.864 92.6164 232.864 92.1296C232.864 91.69 232.847 90.238 232.839 88.6979C227.712 89.8129 226.629 86.5231 226.629 86.5231C225.791 84.3926 224.583 83.8261 224.583 83.8261C222.911 82.6821 224.709 82.7056 224.709 82.7056C226.56 82.8356 227.534 84.6051 227.534 84.6051C229.178 87.4229 231.846 86.6083 232.898 86.1373C233.064 84.946 233.541 84.1329 234.069 83.6726C229.974 83.2065 225.671 81.626 225.671 74.5633C225.671 72.551 226.391 70.9067 227.57 69.6159C227.379 69.1516 226.748 67.2769 227.748 64.738C227.748 64.738 229.296 64.2426 232.819 66.6274C234.289 66.219 235.866 66.0142 237.432 66.0072C238.999 66.0142 240.577 66.219 242.05 66.6274C245.568 64.2426 247.113 64.738 247.113 64.738C248.117 67.2769 247.485 69.1516 247.294 69.6159C248.476 70.9067 249.191 72.551 249.191 74.5633C249.191 81.6428 244.879 83.2016 240.775 83.6579C241.436 84.2299 242.025 85.3516 242.025 87.0713C242.025 89.5375 242.004 91.5225 242.004 92.1296C242.004 92.6201 242.335 93.1948 243.27 93.0138C250.589 90.5738 255.864 83.6671 255.864 75.526C255.864 65.346 247.612 57.0939 237.432 57.0939ZM225.903 83.3509C225.863 83.4424 225.719 83.4699 225.588 83.407C225.454 83.3469 225.379 83.2221 225.422 83.1302C225.462 83.0359 225.606 83.0096 225.74 83.0728C225.874 83.1329 225.95 83.259 225.903 83.3509ZM226.81 84.1599C226.722 84.2414 226.55 84.2035 226.434 84.0747C226.313 83.9462 226.291 83.7744 226.38 83.6916C226.47 83.6101 226.637 83.6483 226.758 83.7768C226.878 83.9068 226.902 84.0774 226.81 84.1599ZM227.432 85.1949C227.319 85.2734 227.134 85.1998 227.02 85.0359C226.907 84.872 226.907 84.6754 227.023 84.5967C227.137 84.5179 227.319 84.5888 227.435 84.7514C227.547 84.9181 227.547 85.1147 227.432 85.1949ZM228.484 86.3937C228.383 86.5051 228.168 86.4752 228.01 86.3232C227.849 86.1746 227.804 85.9637 227.906 85.8522C228.008 85.7405 228.224 85.772 228.383 85.9228C228.543 86.0711 228.592 86.2835 228.484 86.3937ZM229.844 86.7984C229.799 86.9428 229.592 87.0084 229.383 86.9471C229.174 86.8839 229.038 86.7148 229.08 86.5689C229.124 86.4236 229.332 86.3552 229.542 86.4208C229.75 86.4837 229.887 86.6516 229.844 86.7984ZM231.391 86.9701C231.396 87.1221 231.219 87.2481 231 87.2509C230.779 87.2558 230.601 87.1328 230.599 86.9832C230.599 86.8297 230.772 86.7048 230.992 86.7012C231.211 86.6969 231.391 86.819 231.391 86.9701ZM232.911 86.9118C232.937 87.0602 232.785 87.2125 232.567 87.2531C232.353 87.2921 232.155 87.2006 232.128 87.0534C232.101 86.9014 232.256 86.7491 232.47 86.7097C232.688 86.6719 232.883 86.761 232.911 86.9118Z" fill="#161614"/>
</g>
</g>
<g filter="url(#filter8_d_4458_1370)">
<rect x="72" y="116.094" width="62" height="62" rx="31" fill="#F9FAFC"/>
<rect x="73" y="117.094" width="60" height="60" rx="30" stroke="#05D9F9" stroke-width="2"/>
<path d="M120.101 144.594C120.016 144.527 119.222 143.936 117.549 143.936C117.107 143.938 116.666 143.976 116.23 144.048C115.906 141.859 114.07 140.792 113.988 140.744L113.539 140.488L113.243 140.909C112.873 141.474 112.603 142.096 112.444 142.751C112.144 144 112.327 145.174 112.971 146.177C112.193 146.604 110.946 146.71 110.694 146.719H90.0466C89.5073 146.72 89.0697 147.149 89.0667 147.681C89.0427 149.465 89.3491 151.237 89.971 152.912C90.6823 154.752 91.7404 156.106 93.1171 156.935C94.6597 157.867 97.166 158.399 100.007 158.399C101.291 158.403 102.572 158.289 103.833 158.057C105.587 157.74 107.275 157.135 108.827 156.269C110.106 155.538 111.257 154.61 112.235 153.518C113.871 151.692 114.845 149.659 115.57 147.851C115.667 147.851 115.764 147.851 115.859 147.851C117.65 147.851 118.751 147.145 119.358 146.553C119.762 146.175 120.077 145.715 120.282 145.204L120.41 144.835L120.101 144.594Z" fill="black"/>
<path d="M91.8618 146.246H94.5847C94.716 146.246 94.8224 146.128 94.8224 145.984V145.984V143.311C94.8232 143.166 94.7173 143.048 94.586 143.047C94.5856 143.047 94.5851 143.047 94.5847 143.047H91.8618C91.7304 143.047 91.624 143.164 91.624 143.309C91.624 143.31 91.624 143.31 91.624 143.311V145.983C91.624 146.128 91.7304 146.246 91.8618 146.246V146.246" fill="black"/>
<path d="M95.7014 146.246H98.4232C98.5544 146.246 98.6608 146.128 98.6608 145.984V145.984V143.311C98.6615 143.166 98.5557 143.048 98.4245 143.047C98.424 143.047 98.4236 143.047 98.4231 143.047H95.7014C95.5694 143.047 95.4624 143.165 95.4624 143.311V145.983C95.4632 146.128 95.5699 146.246 95.7014 146.246" fill="black"/>
<path d="M99.5386 146.246H102.261C102.393 146.246 102.499 146.128 102.499 145.984V145.984V143.311C102.5 143.166 102.394 143.048 102.263 143.047C102.262 143.047 102.262 143.047 102.261 143.047H99.5385C99.4072 143.047 99.3008 143.164 99.3008 143.309C99.3008 143.31 99.3008 143.31 99.3008 143.311V145.983C99.3008 146.128 99.4073 146.246 99.5386 146.246V146.246" fill="black"/>
<path d="M103.376 146.246H106.098C106.23 146.246 106.336 146.128 106.337 145.984V143.311C106.337 143.165 106.23 143.047 106.098 143.047V143.047H103.376C103.245 143.047 103.139 143.164 103.139 143.309C103.139 143.31 103.139 143.31 103.139 143.311V145.983C103.139 146.128 103.245 146.246 103.376 146.246V146.246" fill="black"/>
<path d="M95.7014 142.407H98.4232C98.5546 142.406 98.6608 142.289 98.6608 142.144V139.471C98.6608 139.326 98.5544 139.209 98.4232 139.209V139.209H95.7014C95.5699 139.209 95.4631 139.326 95.4624 139.471V142.144C95.4631 142.289 95.5697 142.406 95.7014 142.407" fill="black"/>
<path d="M99.5385 142.407H102.261C102.393 142.406 102.499 142.289 102.499 142.144V139.471C102.499 139.326 102.393 139.209 102.261 139.209V139.209H99.5385C99.4072 139.209 99.3008 139.326 99.3008 139.471V139.471V142.144C99.3008 142.289 99.407 142.406 99.5385 142.407" fill="black"/>
<path d="M103.376 142.407H106.098C106.23 142.406 106.336 142.289 106.337 142.144V139.471C106.336 139.326 106.23 139.209 106.098 139.209H103.376C103.245 139.209 103.139 139.326 103.139 139.471V139.471V142.144C103.139 142.289 103.245 142.406 103.376 142.407" fill="black"/>
<path d="M103.376 139.209H106.098C106.23 139.209 106.336 139.092 106.337 138.947V136.273C106.336 136.128 106.23 136.01 106.098 136.01H103.376C103.245 136.01 103.139 136.128 103.139 136.273V136.273V138.947C103.139 139.092 103.245 139.209 103.376 139.209" fill="black"/>
<path d="M107.214 146.246H109.936C110.067 146.246 110.174 146.128 110.175 145.984V143.311C110.175 143.165 110.068 143.047 109.936 143.047V143.047H107.214C107.083 143.047 106.977 143.164 106.977 143.309C106.977 143.31 106.977 143.31 106.977 143.311V145.983C106.977 146.128 107.083 146.246 107.214 146.246" fill="black"/>
</g>
<g filter="url(#filter9_d_4458_1370)">
<rect x="64" y="218" width="10" height="10" rx="5" fill="#05D9F9"/>
<rect x="64.2903" y="218.29" width="9.41935" height="9.41935" rx="4.70968" stroke="#05D9F9" stroke-opacity="0.4" stroke-width="0.580645"/>
</g>
<g filter="url(#filter10_d_4458_1370)">
<rect x="418" y="188" width="12" height="12" rx="6" fill="#83FF50"/>
<rect x="418.29" y="188.29" width="11.4194" height="11.4194" rx="5.70968" stroke="#83FF50" stroke-opacity="0.4" stroke-width="0.580645"/>
</g>
<g filter="url(#filter11_d_4458_1370)">
<rect x="339" y="384" width="10" height="10" rx="5" fill="#34F8B6"/>
<rect x="339.161" y="384.161" width="9.67742" height="9.67742" rx="4.83871" stroke="#34F8B6" stroke-width="0.322581"/>
</g>
<g filter="url(#filter12_d_4458_1370)">
<rect x="118" y="201.094" width="44" height="44" rx="22" fill="#F9FAFC"/>
<rect x="119" y="202.094" width="42" height="42" rx="21" stroke="#05D9F9" stroke-width="2"/>
<path d="M142.862 214.057C143.051 214.11 143.229 214.2 143.384 214.322C143.539 214.443 143.668 214.595 143.765 214.766C143.862 214.938 143.923 215.127 143.947 215.323C143.97 215.519 143.955 215.717 143.902 215.907L139.471 231.694C139.363 232.077 139.108 232.402 138.761 232.597C138.414 232.792 138.004 232.841 137.621 232.733C137.238 232.626 136.913 232.371 136.718 232.024C136.523 231.677 136.474 231.267 136.582 230.884L141.013 215.095C141.066 214.905 141.156 214.728 141.278 214.573C141.4 214.418 141.551 214.289 141.722 214.192C141.894 214.096 142.083 214.034 142.279 214.011C142.475 213.987 142.673 214.003 142.863 214.056L142.862 214.057ZM135.802 218.092C136.083 218.373 136.24 218.754 136.24 219.152C136.24 219.549 136.083 219.931 135.802 220.212L132.622 223.395L135.804 226.577C136.085 226.858 136.243 227.24 136.243 227.638C136.243 228.036 136.085 228.417 135.803 228.698C135.522 228.98 135.14 229.138 134.742 229.138C134.344 229.137 133.963 228.979 133.682 228.698L129.439 224.455C129.158 224.174 129 223.792 129 223.395C129 222.997 129.158 222.616 129.439 222.335L133.681 218.092C133.82 217.953 133.985 217.842 134.167 217.767C134.349 217.691 134.545 217.652 134.742 217.652C134.939 217.652 135.134 217.691 135.316 217.767C135.498 217.842 135.662 217.953 135.802 218.092ZM144.682 220.212C144.534 220.075 144.416 219.909 144.334 219.725C144.252 219.541 144.208 219.342 144.204 219.141C144.201 218.94 144.238 218.739 144.313 218.553C144.389 218.366 144.501 218.196 144.644 218.054C144.786 217.911 144.956 217.799 145.142 217.724C145.329 217.648 145.529 217.611 145.731 217.615C145.932 217.618 146.131 217.662 146.315 217.744C146.499 217.826 146.664 217.945 146.802 218.092L151.045 222.334C151.326 222.615 151.484 222.997 151.484 223.394C151.484 223.792 151.326 224.174 151.045 224.455L146.803 228.698C146.663 228.837 146.498 228.948 146.316 229.023C146.134 229.099 145.939 229.137 145.742 229.138C145.545 229.138 145.35 229.099 145.168 229.023C144.986 228.948 144.821 228.838 144.681 228.698C144.542 228.559 144.431 228.394 144.356 228.212C144.28 228.03 144.242 227.835 144.242 227.638C144.242 227.441 144.28 227.246 144.356 227.064C144.431 226.882 144.541 226.716 144.681 226.577L147.863 223.395L144.682 220.212Z" fill="black"/>
</g>
<g filter="url(#filter13_d_4458_1370)">
<rect x="338.5" y="97.0939" width="38" height="38" rx="19" fill="#F9FAFC"/>
<rect x="339.5" y="98.0939" width="36" height="36" rx="18" stroke="#83FF50" stroke-width="2"/>
<path fill-rule="evenodd" clip-rule="evenodd" d="M364.912 115.811C364.912 120 361.594 123.397 357.5 123.397C353.406 123.397 350.087 120 350.087 115.811C350.087 111.621 353.406 108.224 357.5 108.224C361.594 108.224 364.912 111.621 364.912 115.811Z" fill="#D33833"/>
<path d="M350.39 117.689C350.39 117.689 349.853 109.778 357.138 109.552L356.63 108.704L352.677 110.032L351.547 111.332L350.559 113.225L349.994 115.429L350.164 116.898" fill="#EF3D3A"/>
<path d="M352.423 110.635C351.123 111.967 350.318 113.805 350.318 115.839C350.318 117.872 351.123 119.711 352.423 121.042C353.724 122.373 355.518 123.195 357.5 123.195C359.483 123.195 361.276 122.373 362.577 121.042C363.877 119.711 364.682 117.872 364.682 115.839C364.682 113.805 363.877 111.967 362.577 110.635C361.276 109.304 359.483 108.483 357.5 108.482C355.518 108.483 353.724 109.304 352.423 110.635ZM352.094 121.364C350.712 119.95 349.857 117.995 349.857 115.839C349.857 113.682 350.712 111.728 352.094 110.313C353.476 108.898 355.389 108.022 357.5 108.022C359.611 108.022 361.525 108.898 362.906 110.313C364.288 111.728 365.143 113.682 365.143 115.839C365.143 117.995 364.288 119.95 362.906 121.364C361.525 122.779 359.611 123.656 357.5 123.656C355.389 123.656 353.476 122.779 352.094 121.364Z" fill="#231F20"/>
<path fill-rule="evenodd" clip-rule="evenodd" d="M360.621 115.853L359.491 116.022L357.966 116.192L356.978 116.22L356.018 116.192L355.283 115.966L354.634 115.259L354.126 113.818L354.013 113.507L353.335 113.281L352.94 112.632L352.657 111.699L352.968 110.88L353.702 110.625L354.295 110.908L354.577 111.53L354.916 111.473L355.029 111.332L354.916 110.682L354.888 109.862L355.057 108.732L355.051 108.087L355.566 107.263L356.469 106.613L358.051 105.935L359.802 106.189L361.326 107.291L362.032 108.421L362.484 109.241L362.597 111.275L362.258 113.027L361.637 114.581L361.044 115.401" fill="#F0D6B7"/>
<path fill-rule="evenodd" clip-rule="evenodd" d="M359.66 120.741L355.622 120.91V121.588L355.961 123.962L355.791 124.16L352.968 123.199L352.77 122.86L352.487 119.667L351.838 117.746L351.697 117.294L353.956 115.74L354.662 115.457L355.283 116.22L355.82 116.7L356.441 116.898L356.723 116.983L357.062 118.452L357.316 118.763L357.966 118.537L357.514 119.413L359.971 120.571L359.66 120.741Z" fill="#335061"/>
<path fill-rule="evenodd" clip-rule="evenodd" d="M352.968 110.88L353.702 110.625L354.295 110.908L354.577 111.529L354.916 111.473L355.001 111.134L354.831 110.484L355.001 108.93L354.859 108.082L355.368 107.489L356.469 106.613L356.158 106.189L354.605 106.952L353.956 107.461L353.589 108.252L353.024 109.015L352.854 109.919L352.968 110.88Z" fill="#6D6B6D"/>
<path fill-rule="evenodd" clip-rule="evenodd" d="M354.125 108.224C354.125 108.224 354.549 107.178 356.243 106.67C357.938 106.161 356.328 106.302 356.328 106.302L354.493 107.009L353.787 107.715L353.476 108.28L354.125 108.224Z" fill="#DCD9D8"/>
<path fill-rule="evenodd" clip-rule="evenodd" d="M353.278 110.682C353.278 110.682 352.685 108.704 354.944 108.421L354.859 108.082L353.306 108.45L352.854 109.919L352.968 110.88L353.278 110.682Z" fill="#DCD9D8"/>
<path fill-rule="evenodd" clip-rule="evenodd" d="M354.182 113.31L354.552 112.951C354.552 112.951 354.719 112.971 354.747 113.168C354.775 113.366 354.86 115.146 356.074 116.107C356.185 116.195 355.171 115.966 355.171 115.966L354.267 114.553" fill="#F7E4CD"/>
<path fill-rule="evenodd" clip-rule="evenodd" d="M359.377 112.773C359.377 112.773 359.443 111.916 359.674 111.982C359.904 112.048 359.904 112.279 359.904 112.279C359.904 112.279 359.344 112.641 359.377 112.773Z" fill="#F7E4CD"/>
<path d="M361.722 109.636C361.722 109.636 361.256 109.735 361.213 110.145C361.17 110.555 361.722 110.23 361.806 110.202" fill="#F7E4CD"/>
<path d="M358.304 109.665C358.304 109.665 357.683 109.75 357.683 110.145C357.683 110.541 358.389 110.512 358.587 110.343" fill="#F7E4CD"/>
<path fill-rule="evenodd" clip-rule="evenodd" d="M354.464 111.501C354.464 111.501 353.391 110.851 353.278 111.473C353.165 112.095 352.911 112.547 353.448 113.197L353.081 113.084L352.742 112.208L352.629 111.36L353.278 110.682L354.013 110.738L354.436 111.077L354.464 111.501Z" fill="#F7E4CD"/>
<path fill-rule="evenodd" clip-rule="evenodd" d="M354.973 109.721C354.973 109.721 355.453 107.235 357.881 106.754C359.881 106.359 360.931 106.839 361.326 107.291C361.326 107.291 359.547 105.172 357.853 105.822C356.159 106.472 354.916 107.659 354.944 108.421C354.992 109.721 354.973 109.721 354.973 109.721Z" fill="#F7E4CD"/>
<path fill-rule="evenodd" clip-rule="evenodd" d="M361.524 107.574C361.524 107.574 360.705 107.545 360.677 108.28C360.677 108.28 360.677 108.393 360.733 108.506C360.733 108.506 361.383 107.771 361.778 108.167" fill="#F7E4CD"/>
<path fill-rule="evenodd" clip-rule="evenodd" d="M357.938 108.583C357.938 108.583 357.797 107.455 356.836 108.111C356.215 108.534 356.272 109.128 356.385 109.241C356.498 109.354 356.467 109.581 356.553 109.425C356.639 109.269 356.611 108.76 356.921 108.619C357.232 108.478 357.741 108.32 357.938 108.583Z" fill="#F7E4CD"/>
<path fill-rule="evenodd" clip-rule="evenodd" d="M355.283 116.22L352.629 117.407C352.629 117.407 353.73 121.786 353.165 123.142L352.77 123.001L352.742 121.334L352.007 118.17L351.697 117.294L354.464 115.429L355.283 116.22Z" fill="#49728B"/>
<path fill-rule="evenodd" clip-rule="evenodd" d="M355.557 118.642L355.933 119.102V120.797H355.481C355.481 120.797 355.425 119.611 355.425 119.469C355.425 119.328 355.481 118.819 355.481 118.819" fill="#49728B"/>
<path fill-rule="evenodd" clip-rule="evenodd" d="M355.566 121.052L354.295 121.108L354.662 121.362L355.566 121.504" fill="#49728B"/>
<path fill-rule="evenodd" clip-rule="evenodd" d="M359.914 120.769L360.959 120.741L361.213 123.34L360.14 123.482L359.914 120.769Z" fill="#335061"/>
<path fill-rule="evenodd" clip-rule="evenodd" d="M360.196 120.769L361.778 120.684C361.778 120.684 362.427 119.045 362.427 118.961C362.427 118.876 362.992 116.587 362.992 116.587L361.721 115.259L361.467 115.033L360.789 115.711V118.339L360.196 120.769Z" fill="#335061"/>
<path fill-rule="evenodd" clip-rule="evenodd" d="M360.902 120.571L359.914 120.769L360.055 121.56C360.422 121.73 361.044 121.277 361.044 121.277" fill="#49728B"/>
<path fill-rule="evenodd" clip-rule="evenodd" d="M360.931 115.627L362.907 117.096L362.964 116.418L361.467 115.033L360.931 115.627Z" fill="#49728B"/>
<path fill-rule="evenodd" clip-rule="evenodd" d="M356.546 126.336L355.961 123.962L355.67 122.21L355.622 120.91L358.268 120.769L359.914 120.769L359.765 123.736L360.019 126.025L359.991 126.449L357.845 126.618L356.546 126.336Z" fill="white"/>
<path fill-rule="evenodd" clip-rule="evenodd" d="M359.547 120.741C359.547 120.741 359.406 123.679 359.829 125.77C359.829 125.77 358.982 126.307 357.74 126.448L360.112 126.364L360.394 126.194L360.055 121.56L359.971 120.571" fill="#DCD9D8"/>
<path fill-rule="evenodd" clip-rule="evenodd" d="M361.261 123.115L362.363 122.804L364.452 122.691L364.763 121.73L364.198 120.063L363.549 119.978L362.645 120.261L361.778 120.684L361.318 120.6L360.959 120.741" fill="white"/>
<path fill-rule="evenodd" clip-rule="evenodd" d="M361.242 122.549C361.242 122.549 361.976 122.21 362.089 122.238L361.778 120.684L362.145 120.543C362.145 120.543 362.399 122.012 362.399 122.182C362.399 122.182 363.981 122.267 364.122 122.267C364.122 122.267 364.461 121.617 364.376 120.939L364.687 121.843L364.715 122.351L364.263 123.029L363.755 123.142L362.908 123.114L362.625 122.747L361.637 122.888L361.326 123.001" fill="#DCD9D8"/>
<path d="M360.132 120.543L359.511 118.961L358.861 118.028C358.861 118.028 359.002 117.633 359.2 117.633C359.398 117.633 359.85 117.633 359.85 117.633L360.471 117.859L360.414 118.904L360.132 120.543Z" fill="white"/>
<path fill-rule="evenodd" clip-rule="evenodd" d="M360.253 120.006C360.253 120.006 359.462 118.48 359.462 118.254C359.462 118.254 359.604 117.915 359.801 118C359.999 118.085 360.423 118.311 360.423 118.311V117.774L359.462 117.576L358.813 117.661L359.914 120.261L360.14 120.289" fill="#DCD9D8"/>
<path d="M356.799 116.277L356.017 116.192L355.283 115.966V116.22L355.641 116.616L356.771 117.124" fill="white"/>
<path fill-rule="evenodd" clip-rule="evenodd" d="M355.538 116.361C355.538 116.361 356.413 116.729 356.696 116.644L356.724 116.983L355.933 116.814L355.453 116.475L355.538 116.361Z" fill="#DCD9D8"/>
<path fill-rule="evenodd" clip-rule="evenodd" d="M361.258 117.729C360.779 117.715 360.346 117.658 359.967 117.551C359.993 117.396 359.945 117.243 359.983 117.131C360.089 117.055 360.266 117.056 360.426 117.038C360.288 116.97 360.094 116.944 359.934 116.983C359.931 116.875 359.882 116.808 359.853 116.724C360.122 116.627 360.758 115.997 361.116 116.205C361.287 116.305 361.359 116.872 361.372 117.148C361.383 117.377 361.351 117.608 361.258 117.729Z" fill="#D33833"/>
<path fill-rule="evenodd" clip-rule="evenodd" d="M358.967 116.945C358.966 116.982 358.965 117.018 358.963 117.055C358.814 117.153 358.572 117.152 358.408 117.235C358.65 117.245 358.84 117.304 359.005 117.386C359.002 117.477 358.998 117.568 358.995 117.66C358.72 117.848 358.47 118.127 358.147 118.304C357.994 118.387 357.459 118.601 357.296 118.563C357.204 118.542 357.196 118.428 357.159 118.32C357.081 118.09 356.901 117.723 356.885 117.377C356.865 116.939 356.821 116.205 357.293 116.295C357.673 116.368 358.116 116.543 358.41 116.704C358.59 116.803 358.694 116.924 358.967 116.945Z" fill="#D33833"/>
<path fill-rule="evenodd" clip-rule="evenodd" d="M359.239 117.468C359.197 117.229 359.149 117.161 359.168 116.953C359.804 116.529 359.923 117.682 359.239 117.468Z" fill="#D33833"/>
<path fill-rule="evenodd" clip-rule="evenodd" d="M360.16 117.661C360.16 117.661 359.962 117.379 360.104 117.294C360.245 117.209 360.386 117.294 360.471 117.153C360.555 117.011 360.471 116.927 360.499 116.757C360.527 116.588 360.668 116.559 360.81 116.531C360.951 116.503 361.346 116.446 361.403 116.588L361.233 116.079L360.894 115.966L359.821 116.588L359.765 116.898V117.52" fill="#EF3D3A"/>
<path fill-rule="evenodd" clip-rule="evenodd" d="M357.195 118.594C357.162 118.153 357.126 117.712 357.086 117.272C357.026 116.614 357.244 116.729 357.813 116.729C357.9 116.729 358.349 116.833 358.381 116.898C358.535 117.213 358.124 117.143 358.559 117.38C358.926 117.581 359.575 117.259 359.426 116.814C359.343 116.715 358.994 116.783 358.868 116.718C358.648 116.603 358.427 116.489 358.207 116.374C357.926 116.229 357.277 116.016 356.978 116.22C356.22 116.736 357.026 118.025 357.296 118.563" fill="#EF3D3A"/>
<path fill-rule="evenodd" clip-rule="evenodd" d="M357.938 108.583C357.168 108.403 356.786 108.905 356.552 109.425C356.344 109.375 356.427 109.091 356.479 108.947C356.617 108.568 357.172 108.063 357.626 108.131C357.821 108.161 358.085 108.339 357.938 108.583Z" fill="#231F20"/>
<path fill-rule="evenodd" clip-rule="evenodd" d="M361.688 109.46C361.7 109.46 361.713 109.461 361.725 109.461C361.899 109.823 362.049 110.206 362.269 110.525C362.122 110.867 361.156 111.17 361.171 110.555C361.379 110.464 361.74 110.537 361.925 110.42C361.818 110.126 361.664 109.876 361.688 109.46Z" fill="#231F20"/>
<path fill-rule="evenodd" clip-rule="evenodd" d="M358.332 109.469C358.497 109.772 358.551 110.09 358.786 110.319C358.891 110.422 359.097 110.547 358.995 110.833C358.971 110.901 358.797 111.052 358.697 111.081C358.33 111.19 357.475 111.104 357.765 110.646C358.068 110.66 358.476 110.843 358.702 110.623C358.528 110.344 358.218 109.794 358.332 109.469Z" fill="#231F20"/>
<path fill-rule="evenodd" clip-rule="evenodd" d="M361.55 112.546C360.998 112.901 360.382 113.286 359.478 113.197C359.284 113.029 359.211 112.655 359.398 112.407C359.496 112.576 359.435 112.885 359.707 112.931C360.221 113.019 360.818 112.617 361.187 112.477C361.416 112.09 361.168 111.948 360.961 111.7C360.539 111.19 359.973 110.559 359.993 109.796C360.164 109.673 360.179 109.985 360.203 110.042C360.424 110.559 360.979 111.219 361.384 111.661C361.483 111.77 361.647 111.874 361.665 111.946C361.718 112.156 361.528 112.406 361.55 112.546Z" fill="#231F20"/>
<path fill-rule="evenodd" clip-rule="evenodd" d="M354.271 112.172C354.098 112.073 354.057 111.638 353.854 111.625C353.563 111.608 353.616 112.19 353.617 112.531C353.418 112.349 353.382 111.79 353.529 111.503C353.362 111.421 353.287 111.594 353.194 111.655C353.314 110.788 354.462 111.252 354.271 112.172Z" fill="#231F20"/>
<path fill-rule="evenodd" clip-rule="evenodd" d="M361.903 112.907C361.646 113.396 361.282 113.935 360.528 113.951C360.512 113.793 360.501 113.552 360.529 113.457C361.105 113.402 361.461 113.108 361.903 112.907Z" fill="#231F20"/>
<path fill-rule="evenodd" clip-rule="evenodd" d="M358.289 113.224C358.77 113.477 359.654 113.504 360.308 113.485C360.343 113.629 360.342 113.806 360.343 113.98C359.503 114.022 358.509 113.814 358.289 113.224Z" fill="#231F20"/>
<path fill-rule="evenodd" clip-rule="evenodd" d="M358.197 113.696C358.53 114.532 359.673 114.435 360.638 114.412C360.595 114.521 360.503 114.649 360.389 114.695C360.08 114.821 359.228 114.917 358.799 114.689C358.527 114.544 358.352 114.217 358.203 114.025C358.131 113.933 357.773 113.696 358.197 113.696Z" fill="#231F20"/>
<path fill-rule="evenodd" clip-rule="evenodd" d="M361.51 118.306C361.12 118.975 360.746 119.662 360.283 120.252C360.477 119.681 360.56 118.725 360.59 117.996C360.996 117.806 361.344 118.039 361.51 118.306Z" fill="#81B0C4"/>
<path fill-rule="evenodd" clip-rule="evenodd" d="M363.611 120.71C363.174 120.798 362.867 121.223 362.44 121.196C362.675 120.865 363.085 120.726 363.611 120.71Z" fill="#231F20"/>
<path fill-rule="evenodd" clip-rule="evenodd" d="M363.804 121.395C363.448 121.432 363.029 121.49 362.668 121.46C362.839 121.199 363.498 121.289 363.804 121.395Z" fill="#231F20"/>
<path fill-rule="evenodd" clip-rule="evenodd" d="M363.927 121.985C363.527 121.993 363.029 121.985 362.649 121.954C362.874 121.712 363.668 121.864 363.927 121.985Z" fill="#231F20"/>
<path fill-rule="evenodd" clip-rule="evenodd" d="M360.757 123.599C360.815 124.103 361.014 124.612 360.989 125.163C360.768 125.238 360.641 125.303 360.344 125.303C360.323 124.835 360.261 124.119 360.279 123.672C360.425 123.682 360.64 123.568 360.757 123.599Z" fill="#DCD9D8"/>
<path fill-rule="evenodd" clip-rule="evenodd" d="M360.111 116.185C359.91 116.316 359.739 116.48 359.546 116.62C359.118 116.641 358.884 116.591 358.57 116.345C358.575 116.325 358.607 116.334 358.608 116.309C359.066 116.514 359.649 116.226 360.111 116.185Z" fill="#F0D6B7"/>
<path fill-rule="evenodd" clip-rule="evenodd" d="M357.706 119.311C357.832 118.765 358.325 118.482 358.773 118.181C359.236 118.769 359.517 119.524 359.827 120.253C359.095 120.032 358.347 119.674 357.706 119.311Z" fill="#81B0C4"/>
<path fill-rule="evenodd" clip-rule="evenodd" d="M360.278 123.672C360.26 124.119 360.322 124.835 360.343 125.303C360.64 125.303 360.767 125.238 360.988 125.163C361.013 124.612 360.814 124.103 360.757 123.599C360.639 123.568 360.424 123.682 360.278 123.672ZM355.66 121.134C355.856 122.933 356.139 124.445 356.659 126.038C357.812 126.388 359.202 126.419 360.221 126.103C360.034 125.204 360.116 124.109 360.006 123.15C359.924 122.428 359.966 121.703 359.853 120.967C358.618 120.71 356.872 120.907 355.66 121.134ZM360.145 120.978C360.134 121.751 360.179 122.513 360.238 123.287C360.535 123.242 360.736 123.212 361.012 123.152C360.922 122.407 360.933 121.569 360.751 120.91C360.54 120.912 360.355 120.908 360.145 120.978ZM361.649 120.854C361.508 120.822 361.344 120.853 361.21 120.855C361.273 121.485 361.427 122.18 361.481 122.841C361.692 122.848 361.805 122.748 361.979 122.714C361.988 122.134 361.928 121.334 361.649 120.854ZM363.926 122.936C364.367 122.829 364.645 122.288 364.521 121.733C364.439 121.36 364.291 120.658 364.133 120.42C364.017 120.243 363.701 120.012 363.448 120.174C363.038 120.437 362.315 120.513 362.015 120.832C362.165 121.332 362.212 122.019 362.274 122.652C362.787 122.684 363.418 122.511 363.844 122.695C363.547 122.791 363.16 122.792 362.903 122.933C363.113 123.034 363.606 123.014 363.926 122.936ZM359.826 120.253C359.516 119.524 359.235 118.769 358.773 118.181C358.325 118.482 357.831 118.765 357.705 119.311C358.347 119.674 359.094 120.032 359.826 120.253ZM360.589 117.996C360.56 118.725 360.477 119.681 360.283 120.252C360.746 119.662 361.12 118.975 361.51 118.306C361.344 118.039 360.996 117.806 360.589 117.996ZM359.724 117.688C359.549 117.669 359.4 117.89 359.172 117.794C359.119 117.852 359.072 117.915 359.018 117.971C359.522 118.579 359.751 119.441 360.14 120.155C360.349 119.469 360.325 118.718 360.371 117.969C360.084 117.987 359.925 117.709 359.724 117.688ZM359.168 116.953C359.149 117.161 359.197 117.229 359.239 117.468C359.923 117.682 359.803 116.529 359.168 116.953ZM358.409 116.704C358.115 116.543 357.672 116.368 357.292 116.295C356.82 116.205 356.864 116.939 356.884 117.377C356.9 117.723 357.08 118.09 357.159 118.32C357.195 118.428 357.204 118.542 357.295 118.563C357.458 118.601 357.994 118.387 358.146 118.304C358.469 118.127 358.72 117.848 358.994 117.66C358.997 117.568 359.001 117.477 359.005 117.386C358.84 117.304 358.649 117.245 358.407 117.235C358.571 117.152 358.813 117.153 358.962 117.055C358.964 117.018 358.965 116.982 358.967 116.945C358.694 116.924 358.589 116.803 358.409 116.704ZM355.596 116.193C355.351 116.441 356.281 116.78 356.578 116.798C356.576 116.641 356.667 116.493 356.649 116.38C356.297 116.318 355.835 116.359 355.596 116.193ZM358.607 116.309C358.606 116.334 358.575 116.325 358.57 116.345C358.884 116.591 359.118 116.641 359.546 116.62C359.739 116.48 359.91 116.316 360.111 116.185C359.648 116.226 359.066 116.514 358.607 116.309ZM361.372 117.148C361.359 116.872 361.286 116.305 361.116 116.205C360.758 115.997 360.122 116.627 359.853 116.724C359.882 116.808 359.93 116.875 359.934 116.983C360.093 116.944 360.287 116.97 360.426 117.038C360.266 117.056 360.089 117.055 359.983 117.131C359.944 117.243 359.993 117.396 359.967 117.551C360.346 117.658 360.779 117.715 361.258 117.729C361.351 117.608 361.383 117.377 361.372 117.148ZM355.184 116.433C355.107 116.378 354.588 115.702 354.517 115.73C353.577 116.101 352.698 116.742 351.913 117.349C352.662 118.956 352.964 120.926 353.017 122.824C353.875 123.225 354.628 123.804 355.792 123.864C355.658 122.911 355.535 122.06 355.458 121.163C355.166 121.039 354.746 121.168 354.473 121.124C354.47 120.794 354.89 120.98 354.925 120.758C354.952 120.59 354.694 120.577 354.778 120.313C354.992 120.391 355.104 120.563 355.333 120.627C355.541 120.171 355.33 119.363 355.36 118.982C355.365 118.91 355.395 118.585 355.556 118.642C355.698 118.693 355.548 119.507 355.563 119.868C355.577 120.201 355.523 120.523 355.658 120.731C356.782 120.578 357.925 120.479 359.142 120.446C358.874 120.331 358.556 120.222 358.208 120.025C358.019 119.919 357.423 119.697 357.368 119.517C357.281 119.231 357.597 119.079 357.65 118.833C357.083 119.143 356.972 118.536 356.838 118.106C356.716 117.717 356.647 117.426 356.617 117.202C356.128 116.968 355.605 116.732 355.184 116.433ZM360.875 115.812C361.658 115.432 361.799 117.232 361.492 117.812C361.54 117.985 361.703 118.051 361.77 118.206C361.333 118.989 360.847 119.721 360.402 120.495C360.733 120.288 361.207 120.458 361.597 120.303C361.74 120.247 361.843 119.92 361.951 119.658C362.248 118.939 362.56 118.032 362.699 117.346C362.73 117.19 362.816 116.849 362.796 116.71C362.762 116.46 362.424 116.276 362.253 116.122C361.936 115.837 361.736 115.586 361.406 115.32C361.272 115.518 360.985 115.651 360.875 115.812ZM353.393 108.864C353.02 109.275 353.098 110.044 353.144 110.592C353.818 110.167 354.713 110.625 354.705 111.347C355.027 111.339 354.825 110.945 354.767 110.691C354.576 109.863 355.087 108.962 354.79 108.205C354.212 108.248 353.738 108.484 353.393 108.864ZM356.063 106.48C355.218 106.719 354.136 107.333 353.789 108.093C354.058 108.053 354.244 107.918 354.509 107.901C354.609 107.895 354.741 107.943 354.856 107.914C355.085 107.857 355.279 107.343 355.452 107.151C355.621 106.964 355.824 106.884 355.963 106.713C356.052 106.67 356.184 106.673 356.189 106.539C356.15 106.498 356.109 106.466 356.063 106.48ZM360.46 106.705C359.583 106.21 358.099 105.838 357.167 106.303C356.414 106.678 355.397 107.299 355.05 108.087C355.374 108.846 354.954 109.542 354.928 110.313C354.913 110.724 355.121 111.082 355.137 111.529C355.026 111.712 354.687 111.734 354.452 111.722C354.374 111.327 354.235 110.882 353.829 110.838C353.253 110.775 352.832 111.251 352.806 111.749C352.775 112.335 353.256 113.306 353.937 113.238C354.2 113.212 354.265 112.948 354.551 112.951C354.707 113.261 354.312 113.359 354.271 113.58C354.26 113.638 354.304 113.862 354.329 113.967C354.453 114.478 354.728 115.14 355 115.529C355.344 116.023 356.021 116.098 356.749 116.146C356.879 115.866 357.358 115.889 357.671 115.962C357.296 115.814 356.949 115.454 356.66 115.136C356.329 114.771 355.994 114.38 355.977 113.903C356.603 114.771 357.12 115.53 358.257 115.912C359.118 116.201 360.123 115.779 360.785 115.315C361.059 115.121 361.223 114.815 361.418 114.534C362.148 113.484 362.489 111.984 362.414 110.53C362.383 109.931 362.385 109.333 362.184 108.93C361.973 108.508 361.263 108.131 360.847 108.513C360.77 108.102 361.193 107.849 361.69 107.996C361.335 107.539 360.964 106.989 360.46 106.705ZM362.093 120.231C362.779 119.89 364.059 119.314 364.488 120.232C364.647 120.571 364.833 121.143 364.915 121.493C365.031 121.986 364.789 123.022 364.282 123.187C363.835 123.334 363.313 123.325 362.774 123.216C362.711 123.164 362.64 123.071 362.591 122.976C362.206 122.961 361.846 122.996 361.542 123.154C361.57 123.439 361.378 123.485 361.197 123.544C361.064 124.074 361.465 124.767 361.369 125.251C361.301 125.596 360.877 125.649 360.565 125.714C360.555 125.905 360.579 126.065 360.6 126.227C360.529 126.49 360.209 126.64 359.906 126.676C358.91 126.796 357.398 126.85 356.439 126.505C356.172 125.849 355.961 125.051 355.739 124.301C354.804 124.401 354.048 123.898 353.336 123.568C353.089 123.454 352.748 123.391 352.656 123.194C352.566 123.004 352.603 122.639 352.581 122.295C352.524 121.415 352.476 120.567 352.244 119.666C352.14 119.262 351.958 118.906 351.831 118.516C351.714 118.155 351.509 117.709 351.456 117.349C351.377 116.816 351.879 116.786 352.2 116.555C352.696 116.197 353.086 116 353.623 115.677C353.782 115.582 354.262 115.34 354.317 115.228C354.425 115.008 354.131 114.696 354.052 114.523C353.927 114.249 353.862 114.017 353.844 113.747C353.393 113.676 353.052 113.407 352.845 113.104C352.504 112.603 352.267 111.677 352.562 110.972C352.585 110.916 352.701 110.807 352.718 110.722C352.752 110.554 352.655 110.33 352.649 110.152C352.618 109.236 352.804 108.446 353.42 108.17C353.67 107.172 354.566 106.84 355.41 106.345C355.726 106.159 356.073 106.041 356.433 105.909C357.721 105.434 359.698 105.524 360.767 106.333C361.22 106.676 361.945 107.4 362.204 107.925C362.889 109.31 362.84 111.624 362.361 113.309C362.297 113.535 362.204 113.867 362.073 114.139C361.982 114.329 361.7 114.708 361.734 114.876C361.769 115.049 362.378 115.511 362.509 115.637C362.744 115.864 363.191 116.166 363.227 116.452C363.266 116.757 363.093 117.173 363.005 117.468C362.712 118.449 362.426 119.356 362.093 120.231Z" fill="#231F20"/>
<path fill-rule="evenodd" clip-rule="evenodd" d="M357.523 113.438C357.56 113.388 357.765 113.313 358.051 113.451C358.051 113.451 357.712 113.507 357.74 114.073L357.599 114.044C357.599 114.044 357.453 113.532 357.523 113.438Z" fill="#F7E4CD"/>
<path fill-rule="evenodd" clip-rule="evenodd" d="M359.999 118.297C359.999 118.383 359.93 118.452 359.844 118.452C359.758 118.452 359.688 118.383 359.688 118.297C359.688 118.211 359.758 118.141 359.844 118.141C359.93 118.141 359.999 118.211 359.999 118.297Z" fill="#1D1919"/>
<path fill-rule="evenodd" clip-rule="evenodd" d="M360.155 119.017C360.155 119.103 360.085 119.173 360 119.173C359.914 119.173 359.844 119.103 359.844 119.017C359.844 118.932 359.914 118.862 360 118.862C360.085 118.862 360.155 118.932 360.155 119.017Z" fill="#1D1919"/>
</g>
<path d="M249 252L107 343.5" stroke="url(#paint14_linear_4458_1370)" stroke-width="2"/>
<g filter="url(#filter14_d_4458_1370)">
<rect x="78" y="311" width="56" height="56" rx="28" fill="#F9FAFC"/>
<rect x="79" y="312" width="54" height="54" rx="27" stroke="#05D9F9" stroke-width="2"/>
<g clip-path="url(#clip1_4458_1370)">
<mask id="mask0_4458_1370" style="mask-type:luminance" maskUnits="userSpaceOnUse" x="89" y="322" width="34" height="34">
<path d="M89.75 322.79H122.21V355.25H89.75V322.79Z" fill="white"/>
</mask>
<g mask="url(#mask0_4458_1370)">
<path d="M121.599 337.575L107.426 323.403C107.232 323.209 107.001 323.054 106.747 322.949C106.494 322.844 106.222 322.79 105.947 322.79C105.672 322.79 105.4 322.844 105.147 322.949C104.893 323.054 104.662 323.209 104.468 323.403L101.526 326.346L105.259 330.079C105.698 329.93 106.169 329.906 106.621 330.012C107.072 330.117 107.485 330.346 107.813 330.674C108.143 331.004 108.373 331.42 108.477 331.874C108.581 332.329 108.555 332.804 108.402 333.244L112.001 336.842C112.442 336.689 112.917 336.663 113.372 336.768C113.826 336.872 114.242 337.102 114.572 337.433C114.803 337.664 114.986 337.938 115.111 338.239C115.236 338.541 115.301 338.865 115.301 339.191C115.301 339.518 115.236 339.841 115.111 340.143C114.986 340.445 114.803 340.719 114.572 340.95C114.105 341.417 113.472 341.679 112.812 341.679C112.152 341.679 111.519 341.417 111.052 340.95C110.705 340.603 110.469 340.16 110.373 339.679C110.277 339.197 110.325 338.698 110.512 338.244L107.156 334.889V343.72C107.51 343.895 107.818 344.151 108.053 344.469C108.288 344.786 108.444 345.155 108.509 345.545C108.573 345.935 108.543 346.334 108.422 346.711C108.301 347.087 108.093 347.429 107.813 347.708C107.582 347.939 107.308 348.122 107.006 348.247C106.705 348.372 106.381 348.436 106.055 348.436C105.728 348.436 105.404 348.372 105.103 348.247C104.801 348.122 104.527 347.939 104.296 347.708C104.065 347.477 103.882 347.203 103.756 346.901C103.631 346.599 103.567 346.276 103.567 345.949C103.567 345.622 103.631 345.299 103.756 344.997C103.882 344.695 104.065 344.421 104.296 344.19C104.529 343.957 104.805 343.772 105.11 343.646V334.735C104.806 334.61 104.531 334.426 104.299 334.194C104.067 333.963 103.883 333.687 103.757 333.384C103.632 333.081 103.567 332.756 103.568 332.428C103.569 332.1 103.634 331.775 103.76 331.473L100.08 327.792L90.3611 337.508C89.9695 337.901 89.7495 338.432 89.7495 338.987C89.7495 339.541 89.9695 340.073 90.3611 340.465L104.535 354.639C104.927 355.03 105.459 355.25 106.013 355.25C106.567 355.25 107.099 355.03 107.491 354.639L121.599 340.532C121.99 340.139 122.21 339.608 122.21 339.053C122.21 338.499 121.99 337.967 121.599 337.575Z" fill="#F03C2E"/>
</g>
</g>
</g>
<g filter="url(#filter15_d_4458_1370)">
<rect x="185" y="185.094" width="126" height="126" rx="63" fill="#F9FAFC"/>
<rect x="185" y="185.094" width="126" height="126" rx="63" stroke="url(#paint15_linear_4458_1370)" stroke-width="3.85714"/>
<path d="M251.108 223.012L244.956 233.689H244.914L238.825 223.116L251.108 223.012Z" fill="#83FF50" stroke="#83FF50" stroke-width="0.20853" stroke-miterlimit="5.3333"/>
<mask id="mask1_4458_1370" style="mask-type:luminance" maskUnits="userSpaceOnUse" x="222" y="210" width="34" height="15">
<path d="M255.294 224.934H222.263V210.399H255.294V224.934Z" fill="white"/>
</mask>
<g mask="url(#mask1_4458_1370)">
<g opacity="0.83">
<path d="M251.16 222.952L251.139 222.994H251.119V223.015L238.815 223.119V223.098H226.491L226.408 222.952L232.601 212.234H244.988L251.16 222.952Z" fill="#96FF5B" fill-opacity="0.6471"/>
</g>
</g>
<path d="M251.135 222.996L244.983 233.673H244.962L251.114 222.996H251.135Z" fill="white"/>
<path d="M244.99 233.827L244.969 233.869L238.797 244.546H226.431L220.238 233.827L226.431 223.109H226.494L232.583 233.681H244.907L244.99 233.827Z" fill="#00D6FF" stroke="#00D6FF" stroke-width="0.20853" stroke-miterlimit="5.3333"/>
<path d="M244.905 233.68H232.602L226.492 223.107H238.816L244.905 233.68Z" fill="#7DFFFF" stroke="#7DFFFF" stroke-width="0.20853" stroke-miterlimit="5.3333"/>
<path d="M251.198 244.281L251.302 244.448H251.115L246.423 244.49L238.812 244.552L244.984 233.876H257.225L251.198 244.281Z" fill="#32E6FF" stroke="#32E6FF" stroke-width="0.20853" stroke-miterlimit="5.3333"/>
<mask id="mask2_4458_1370" style="mask-type:luminance" maskUnits="userSpaceOnUse" x="235" y="230" width="26" height="29">
<path d="M260.63 258.903H235.627V230.293H260.63V258.903Z" fill="white"/>
</mask>
<g mask="url(#mask2_4458_1370)">
<g opacity="0.86">
<path d="M257.51 255.009L257.322 255.322H244.956L238.763 244.603L238.784 244.562L244.956 233.885H244.977L238.804 244.541L246.416 244.478L251.129 244.436H251.316L257.384 255.009H257.51Z" fill="#00D5FF" fill-opacity="0.5451"/>
</g>
</g>
<path d="M251.199 244.282L251.303 244.448H251.115L245.026 233.876H257.225L251.199 244.282Z" fill="#20E6FF" stroke="#20E6FF" stroke-width="0.20853" stroke-miterlimit="5.3333"/>
<path d="M263.437 244.448H251.301L251.197 244.281L257.202 233.875H257.328L263.437 244.448Z" fill="#2AF0FF" stroke="#2AF0FF" stroke-width="0.20853" stroke-miterlimit="5.3333"/>
<mask id="mask3_4458_1370" style="mask-type:luminance" maskUnits="userSpaceOnUse" x="249" y="242" width="17" height="15">
<path d="M265.573 256.776H249.266V242.701H265.573V256.776Z" fill="white"/>
</mask>
<g mask="url(#mask3_4458_1370)">
<g opacity="0.95">
<path d="M263.52 244.595L257.514 255.001H257.389L251.3 244.449H263.437L263.52 244.595Z" fill="#29EFFF" fill-opacity="0.8"/>
</g>
</g>
<path d="M269.691 233.724L263.498 244.442H263.435L257.346 233.87H245.022L244.938 233.724L244.959 233.682L251.111 223.005V222.984H263.498L269.587 233.536L269.691 233.724Z" fill="#32F8B9" stroke="#32F8B9" stroke-width="0.20853" stroke-miterlimit="5.3333"/>
<mask id="mask4_4458_1370" style="mask-type:luminance" maskUnits="userSpaceOnUse" x="254" y="230" width="25" height="29">
<path d="M278.983 258.903H254.231V230.105H278.983V258.903Z" fill="white"/>
</mask>
<g mask="url(#mask4_4458_1370)">
<g opacity="0.85">
<path d="M275.876 244.433L269.682 255.151L257.316 255.318L263.447 244.746L263.364 244.6H263.426L269.62 233.881L269.515 233.714H269.703L275.876 244.433Z" fill="#32F6B8" fill-opacity="0.5647"/>
</g>
</g>
<path d="M226.5 272.782V261.702H231.243V263.387H228.167V266.408H230.419V268.093H228.167V271.097H231.243V272.782H226.5Z" fill="#090909"/>
<path d="M235.42 264.25L234.797 268.609H236.042L235.42 264.25ZM234.541 270.239L234.138 272.784H232.398L234.284 261.722H236.574L238.423 272.784H236.665L236.281 270.239H234.541Z" fill="#090909"/>
<path d="M243.466 264.382C243.466 263.741 243.154 263.412 242.513 263.412H241.506V266.946H242.513C242.77 266.946 243.008 266.855 243.191 266.672C243.374 266.489 243.466 266.25 243.466 265.994V264.382ZM242.477 261.709C243.411 261.709 244.088 261.965 244.528 262.478C244.912 262.917 245.096 263.558 245.096 264.346V265.957C245.096 266.745 244.802 267.404 244.198 267.954L245.443 272.789H243.63L242.623 268.613H242.477H241.506V272.789H239.839V261.727H242.477V261.709Z" fill="#090909"/>
<path d="M248.093 263.393H246.317V261.708H251.536V263.393H249.76V272.788H248.093V263.393Z" fill="#090909"/>
<path d="M254.541 268.092V272.78H252.874V261.719H254.541V266.407H256.555V261.7H258.222V272.762H256.555V268.092H254.541Z" fill="#090909"/>
<path d="M264.264 272.782H259.722V261.72H261.389V271.115H264.264V272.782Z" fill="#090909"/>
<path d="M265.581 268.145L263.346 261.698H265.178L266.423 265.672L267.65 261.698H269.5L267.247 268.145V272.778H265.581V268.145Z" fill="#090909"/>
<text fill="#111827" xml:space="preserve" style="white-space: pre" font-size="12" font-weight="bold" letter-spacing="-0.03em"><tspan x="227.708" y="285.425">LUNAR</tspan></text>
</g>
<text fill="#111827" xml:space="preserve" style="white-space: pre" font-size="12" font-weight="bold" letter-spacing="-0.03em"><tspan x="24" y="243.637">Applications</tspan></text>
<text fill="#111827" xml:space="preserve" style="white-space: pre" font-size="12" font-weight="bold" letter-spacing="-0.03em"><tspan x="434" y="197.637">CI/CD</tspan></text>
<text fill="#111827" xml:space="preserve" style="white-space: pre" font-size="12" font-weight="bold" letter-spacing="-0.03em"><tspan x="317" y="407.637">Guardrails</tspan></text>
<defs>
<filter id="filter0_d_4458_1370" x="59.6508" y="59.7447" width="376.698" height="376.698" filterUnits="userSpaceOnUse" color-interpolation-filters="sRGB">
<feFlood flood-opacity="0" result="BackgroundImageFix"/>
<feColorMatrix in="SourceAlpha" type="matrix" values="0 0 0 0 0 0 0 0 0 0 0 0 0 0 0 0 0 0 127 0" result="hardAlpha"/>
<feMorphology radius="2.91713" operator="dilate" in="SourceAlpha" result="effect1_dropShadow_4458_1370"/>
<feOffset/>
<feGaussianBlur stdDeviation="4.71602"/>
<feComposite in2="hardAlpha" operator="out"/>
<feColorMatrix type="matrix" values="0 0 0 0 0 0 0 0 0 0 0 0 0 0 0 0 0 0 0.05 0"/>
<feBlend mode="normal" in2="BackgroundImageFix" result="effect1_dropShadow_4458_1370"/>
<feBlend mode="normal" in="SourceGraphic" in2="effect1_dropShadow_4458_1370" result="shape"/>
</filter>
<filter id="filter1_d_4458_1370" x="0.695283" y="0.785127" width="494.617" height="494.617" filterUnits="userSpaceOnUse" color-interpolation-filters="sRGB">
<feFlood flood-opacity="0" result="BackgroundImageFix"/>
<feColorMatrix in="SourceAlpha" type="matrix" values="0 0 0 0 0 0 0 0 0 0 0 0 0 0 0 0 0 0 127 0" result="hardAlpha"/>
<feMorphology radius="3.83029" operator="dilate" in="SourceAlpha" result="effect1_dropShadow_4458_1370"/>
<feOffset/>
<feGaussianBlur stdDeviation="6.19229"/>
<feComposite in2="hardAlpha" operator="out"/>
<feColorMatrix type="matrix" values="0 0 0 0 0 0 0 0 0 0 0 0 0 0 0 0 0 0 0.05 0"/>
<feBlend mode="normal" in2="BackgroundImageFix" result="effect1_dropShadow_4458_1370"/>
<feBlend mode="normal" in="SourceGraphic" in2="effect1_dropShadow_4458_1370" result="shape"/>
</filter>
<filter id="filter2_d_4458_1370" x="124.37" y="124.464" width="247.261" height="247.261" filterUnits="userSpaceOnUse" color-interpolation-filters="sRGB">
<feFlood flood-opacity="0" result="BackgroundImageFix"/>
<feColorMatrix in="SourceAlpha" type="matrix" values="0 0 0 0 0 0 0 0 0 0 0 0 0 0 0 0 0 0 127 0" result="hardAlpha"/>
<feMorphology radius="2.51111" operator="dilate" in="SourceAlpha" result="effect1_dropShadow_4458_1370"/>
<feOffset/>
<feGaussianBlur stdDeviation="4.05963"/>
<feComposite in2="hardAlpha" operator="out"/>
<feColorMatrix type="matrix" values="0 0 0 0 0 0 0 0 0 0 0 0 0 0 0 0 0 0 0.05 0"/>
<feBlend mode="normal" in2="BackgroundImageFix" result="effect1_dropShadow_4458_1370"/>
<feBlend mode="normal" in="SourceGraphic" in2="effect1_dropShadow_4458_1370" result="shape"/>
</filter>
<filter id="filter3_d_4458_1370" x="181.828" y="366.922" width="70.3444" height="70.3444" filterUnits="userSpaceOnUse" color-interpolation-filters="sRGB">
<feFlood flood-opacity="0" result="BackgroundImageFix"/>
<feColorMatrix in="SourceAlpha" type="matrix" values="0 0 0 0 0 0 0 0 0 0 0 0 0 0 0 0 0 0 127 0" result="hardAlpha"/>
<feMorphology radius="2.16667" operator="dilate" in="SourceAlpha" result="effect1_dropShadow_4458_1370"/>
<feOffset/>
<feGaussianBlur stdDeviation="3.50278"/>
<feComposite in2="hardAlpha" operator="out"/>
<feColorMatrix type="matrix" values="0 0 0 0 0 0 0 0 0 0 0 0 0 0 0 0 0 0 0.05 0"/>
<feBlend mode="normal" in2="BackgroundImageFix" result="effect1_dropShadow_4458_1370"/>
<feBlend mode="normal" in="SourceGraphic" in2="effect1_dropShadow_4458_1370" result="shape"/>
</filter>
<filter id="filter4_d_4458_1370" x="290.297" y="320.391" width="51.4056" height="51.4056" filterUnits="userSpaceOnUse" color-interpolation-filters="sRGB">
<feFlood flood-opacity="0" result="BackgroundImageFix"/>
<feColorMatrix in="SourceAlpha" type="matrix" values="0 0 0 0 0 0 0 0 0 0 0 0 0 0 0 0 0 0 127 0" result="hardAlpha"/>
<feMorphology radius="1.58333" operator="dilate" in="SourceAlpha" result="effect1_dropShadow_4458_1370"/>
<feOffset/>
<feGaussianBlur stdDeviation="2.55972"/>
<feComposite in2="hardAlpha" operator="out"/>
<feColorMatrix type="matrix" values="0 0 0 0 0 0 0 0 0 0 0 0 0 0 0 0 0 0 0.05 0"/>
<feBlend mode="normal" in2="BackgroundImageFix" result="effect1_dropShadow_4458_1370"/>
<feBlend mode="normal" in="SourceGraphic" in2="effect1_dropShadow_4458_1370" result="shape"/>
</filter>
<filter id="filter5_d_4458_1370" x="381.181" y="297.274" width="67.6389" height="67.6389" filterUnits="userSpaceOnUse" color-interpolation-filters="sRGB">
<feFlood flood-opacity="0" result="BackgroundImageFix"/>
<feColorMatrix in="SourceAlpha" type="matrix" values="0 0 0 0 0 0 0 0 0 0 0 0 0 0 0 0 0 0 127 0" result="hardAlpha"/>
<feMorphology radius="2.08333" operator="dilate" in="SourceAlpha" result="effect1_dropShadow_4458_1370"/>
<feOffset/>
<feGaussianBlur stdDeviation="3.36806"/>
<feComposite in2="hardAlpha" operator="out"/>
<feColorMatrix type="matrix" values="0 0 0 0 0 0 0 0 0 0 0 0 0 0 0 0 0 0 0.05 0"/>
<feBlend mode="normal" in2="BackgroundImageFix" result="effect1_dropShadow_4458_1370"/>
<feBlend mode="normal" in="SourceGraphic" in2="effect1_dropShadow_4458_1370" result="shape"/>
</filter>
<filter id="filter6_d_4458_1370" x="325.828" y="188.828" width="70.3444" height="70.3444" filterUnits="userSpaceOnUse" color-interpolation-filters="sRGB">
<feFlood flood-opacity="0" result="BackgroundImageFix"/>
<feColorMatrix in="SourceAlpha" type="matrix" values="0 0 0 0 0 0 0 0 0 0 0 0 0 0 0 0 0 0 127 0" result="hardAlpha"/>
<feMorphology radius="2.16667" operator="dilate" in="SourceAlpha" result="effect1_dropShadow_4458_1370"/>
<feOffset/>
<feGaussianBlur stdDeviation="3.50278"/>
<feComposite in2="hardAlpha" operator="out"/>
<feColorMatrix type="matrix" values="0 0 0 0 0 0 0 0 0 0 0 0 0 0 0 0 0 0 0.05 0"/>
<feBlend mode="normal" in2="BackgroundImageFix" result="effect1_dropShadow_4458_1370"/>
<feBlend mode="normal" in="SourceGraphic" in2="effect1_dropShadow_4458_1370" result="shape"/>
</filter>
<filter id="filter7_d_4458_1370" x="195.064" y="33.1578" width="83.8722" height="83.8722" filterUnits="userSpaceOnUse" color-interpolation-filters="sRGB">
<feFlood flood-opacity="0" result="BackgroundImageFix"/>
<feColorMatrix in="SourceAlpha" type="matrix" values="0 0 0 0 0 0 0 0 0 0 0 0 0 0 0 0 0 0 127 0" result="hardAlpha"/>
<feMorphology radius="2.58333" operator="dilate" in="SourceAlpha" result="effect1_dropShadow_4458_1370"/>
<feOffset/>
<feGaussianBlur stdDeviation="4.17639"/>
<feComposite in2="hardAlpha" operator="out"/>
<feColorMatrix type="matrix" values="0 0 0 0 0 0 0 0 0 0 0 0 0 0 0 0 0 0 0.05 0"/>
<feBlend mode="normal" in2="BackgroundImageFix" result="effect1_dropShadow_4458_1370"/>
<feBlend mode="normal" in="SourceGraphic" in2="effect1_dropShadow_4458_1370" result="shape"/>
</filter>
<filter id="filter8_d_4458_1370" x="61.0639" y="105.158" width="83.8722" height="83.8722" filterUnits="userSpaceOnUse" color-interpolation-filters="sRGB">
<feFlood flood-opacity="0" result="BackgroundImageFix"/>
<feColorMatrix in="SourceAlpha" type="matrix" values="0 0 0 0 0 0 0 0 0 0 0 0 0 0 0 0 0 0 127 0" result="hardAlpha"/>
<feMorphology radius="2.58333" operator="dilate" in="SourceAlpha" result="effect1_dropShadow_4458_1370"/>
<feOffset/>
<feGaussianBlur stdDeviation="4.17639"/>
<feComposite in2="hardAlpha" operator="out"/>
<feColorMatrix type="matrix" values="0 0 0 0 0 0 0 0 0 0 0 0 0 0 0 0 0 0 0.05 0"/>
<feBlend mode="normal" in2="BackgroundImageFix" result="effect1_dropShadow_4458_1370"/>
<feBlend mode="normal" in="SourceGraphic" in2="effect1_dropShadow_4458_1370" result="shape"/>
</filter>
<filter id="filter9_d_4458_1370" x="60.825" y="214.825" width="16.35" height="16.35" filterUnits="userSpaceOnUse" color-interpolation-filters="sRGB">
<feFlood flood-opacity="0" result="BackgroundImageFix"/>
<feColorMatrix in="SourceAlpha" type="matrix" values="0 0 0 0 0 0 0 0 0 0 0 0 0 0 0 0 0 0 127 0" result="hardAlpha"/>
<feMorphology radius="0.75" operator="dilate" in="SourceAlpha" result="effect1_dropShadow_4458_1370"/>
<feOffset/>
<feGaussianBlur stdDeviation="1.2125"/>
<feComposite in2="hardAlpha" operator="out"/>
<feColorMatrix type="matrix" values="0 0 0 0 0 0 0 0 0 0 0 0 0 0 0 0 0 0 0.05 0"/>
<feBlend mode="normal" in2="BackgroundImageFix" result="effect1_dropShadow_4458_1370"/>
<feBlend mode="normal" in="SourceGraphic" in2="effect1_dropShadow_4458_1370" result="shape"/>
</filter>
<filter id="filter10_d_4458_1370" x="414.825" y="184.825" width="18.35" height="18.35" filterUnits="userSpaceOnUse" color-interpolation-filters="sRGB">
<feFlood flood-opacity="0" result="BackgroundImageFix"/>
<feColorMatrix in="SourceAlpha" type="matrix" values="0 0 0 0 0 0 0 0 0 0 0 0 0 0 0 0 0 0 127 0" result="hardAlpha"/>
<feMorphology radius="0.75" operator="dilate" in="SourceAlpha" result="effect1_dropShadow_4458_1370"/>
<feOffset/>
<feGaussianBlur stdDeviation="1.2125"/>
<feComposite in2="hardAlpha" operator="out"/>
<feColorMatrix type="matrix" values="0 0 0 0 0 0 0 0 0 0 0 0 0 0 0 0 0 0 0.05 0"/>
<feBlend mode="normal" in2="BackgroundImageFix" result="effect1_dropShadow_4458_1370"/>
<feBlend mode="normal" in="SourceGraphic" in2="effect1_dropShadow_4458_1370" result="shape"/>
</filter>
<filter id="filter11_d_4458_1370" x="337.236" y="382.236" width="13.5278" height="13.5278" filterUnits="userSpaceOnUse" color-interpolation-filters="sRGB">
<feFlood flood-opacity="0" result="BackgroundImageFix"/>
<feColorMatrix in="SourceAlpha" type="matrix" values="0 0 0 0 0 0 0 0 0 0 0 0 0 0 0 0 0 0 127 0" result="hardAlpha"/>
<feMorphology radius="0.416667" operator="dilate" in="SourceAlpha" result="effect1_dropShadow_4458_1370"/>
<feOffset/>
<feGaussianBlur stdDeviation="0.673611"/>
<feComposite in2="hardAlpha" operator="out"/>
<feColorMatrix type="matrix" values="0 0 0 0 0 0 0 0 0 0 0 0 0 0 0 0 0 0 0.05 0"/>
<feBlend mode="normal" in2="BackgroundImageFix" result="effect1_dropShadow_4458_1370"/>
<feBlend mode="normal" in="SourceGraphic" in2="effect1_dropShadow_4458_1370" result="shape"/>
</filter>
<filter id="filter12_d_4458_1370" x="110.239" y="193.333" width="59.5222" height="59.5222" filterUnits="userSpaceOnUse" color-interpolation-filters="sRGB">
<feFlood flood-opacity="0" result="BackgroundImageFix"/>
<feColorMatrix in="SourceAlpha" type="matrix" values="0 0 0 0 0 0 0 0 0 0 0 0 0 0 0 0 0 0 127 0" result="hardAlpha"/>
<feMorphology radius="1.83333" operator="dilate" in="SourceAlpha" result="effect1_dropShadow_4458_1370"/>
<feOffset/>
<feGaussianBlur stdDeviation="2.96389"/>
<feComposite in2="hardAlpha" operator="out"/>
<feColorMatrix type="matrix" values="0 0 0 0 0 0 0 0 0 0 0 0 0 0 0 0 0 0 0.05 0"/>
<feBlend mode="normal" in2="BackgroundImageFix" result="effect1_dropShadow_4458_1370"/>
<feBlend mode="normal" in="SourceGraphic" in2="effect1_dropShadow_4458_1370" result="shape"/>
</filter>
<filter id="filter13_d_4458_1370" x="331.797" y="90.3911" width="51.4056" height="51.4056" filterUnits="userSpaceOnUse" color-interpolation-filters="sRGB">
<feFlood flood-opacity="0" result="BackgroundImageFix"/>
<feColorMatrix in="SourceAlpha" type="matrix" values="0 0 0 0 0 0 0 0 0 0 0 0 0 0 0 0 0 0 127 0" result="hardAlpha"/>
<feMorphology radius="1.58333" operator="dilate" in="SourceAlpha" result="effect1_dropShadow_4458_1370"/>
<feOffset/>
<feGaussianBlur stdDeviation="2.55972"/>
<feComposite in2="hardAlpha" operator="out"/>
<feColorMatrix type="matrix" values="0 0 0 0 0 0 0 0 0 0 0 0 0 0 0 0 0 0 0.05 0"/>
<feBlend mode="normal" in2="BackgroundImageFix" result="effect1_dropShadow_4458_1370"/>
<feBlend mode="normal" in="SourceGraphic" in2="effect1_dropShadow_4458_1370" result="shape"/>
</filter>
<filter id="filter14_d_4458_1370" x="68.1222" y="301.122" width="75.7556" height="75.7556" filterUnits="userSpaceOnUse" color-interpolation-filters="sRGB">
<feFlood flood-opacity="0" result="BackgroundImageFix"/>
<feColorMatrix in="SourceAlpha" type="matrix" values="0 0 0 0 0 0 0 0 0 0 0 0 0 0 0 0 0 0 127 0" result="hardAlpha"/>
<feMorphology radius="2.33333" operator="dilate" in="SourceAlpha" result="effect1_dropShadow_4458_1370"/>
<feOffset/>
<feGaussianBlur stdDeviation="3.77222"/>
<feComposite in2="hardAlpha" operator="out"/>
<feColorMatrix type="matrix" values="0 0 0 0 0 0 0 0 0 0 0 0 0 0 0 0 0 0 0.05 0"/>
<feBlend mode="normal" in2="BackgroundImageFix" result="effect1_dropShadow_4458_1370"/>
<feBlend mode="normal" in="SourceGraphic" in2="effect1_dropShadow_4458_1370" result="shape"/>
</filter>
<filter id="filter15_d_4458_1370" x="173.979" y="174.073" width="148.042" height="148.041" filterUnits="userSpaceOnUse" color-interpolation-filters="sRGB">
<feFlood flood-opacity="0" result="BackgroundImageFix"/>
<feColorMatrix in="SourceAlpha" type="matrix" values="0 0 0 0 0 0 0 0 0 0 0 0 0 0 0 0 0 0 127 0" result="hardAlpha"/>
<feMorphology radius="2.14773" operator="dilate" in="SourceAlpha" result="effect1_dropShadow_4458_1370"/>
<feOffset/>
<feGaussianBlur stdDeviation="3.47216"/>
<feComposite in2="hardAlpha" operator="out"/>
<feColorMatrix type="matrix" values="0 0 0 0 0 0 0 0 0 0 0 0 0 0 0 0 0 0 0.17 0"/>
<feBlend mode="normal" in2="BackgroundImageFix" result="effect1_dropShadow_4458_1370"/>
<feBlend mode="normal" in="SourceGraphic" in2="effect1_dropShadow_4458_1370" result="shape"/>
</filter>
<linearGradient id="paint0_linear_4458_1370" x1="87" y1="219.844" x2="249.5" y2="219.844" gradientUnits="userSpaceOnUse">
<stop stop-color="#CDF4FD"/>
<stop offset="1" stop-color="#00D6FF"/>
</linearGradient>
<linearGradient id="paint1_linear_4458_1370" x1="244" y1="135.094" x2="244" y2="252.094" gradientUnits="userSpaceOnUse">
<stop stop-color="#83FF50"/>
<stop offset="1" stop-color="#83FF50" stop-opacity="0.6"/>
</linearGradient>
<linearGradient id="paint2_linear_4458_1370" x1="304.75" y1="115.594" x2="304.75" y2="252.094" gradientUnits="userSpaceOnUse">
<stop stop-color="#83FF50"/>
<stop offset="1" stop-color="#83FF50" stop-opacity="0.6"/>
</linearGradient>
<linearGradient id="paint3_linear_4458_1370" x1="231.75" y1="248.5" x2="231.75" y2="402.5" gradientUnits="userSpaceOnUse">
<stop stop-color="#34F8B6"/>
<stop offset="1" stop-color="#34F8B6" stop-opacity="0.4"/>
</linearGradient>
<linearGradient id="paint4_linear_4458_1370" x1="231.75" y1="248.5" x2="231.75" y2="402.5" gradientUnits="userSpaceOnUse">
<stop stop-color="#34F8B6"/>
<stop offset="1" stop-color="#34F8B6" stop-opacity="0.4"/>
</linearGradient>
<linearGradient id="paint5_linear_4458_1370" x1="91" y1="289" x2="221" y2="403" gradientUnits="userSpaceOnUse">
<stop stop-color="#8FEEFD"/>
<stop offset="1" stop-color="#34F8B6"/>
</linearGradient>
<linearGradient id="paint6_linear_4458_1370" x1="91.0001" y1="289" x2="221" y2="403" gradientUnits="userSpaceOnUse">
<stop stop-color="#8FEEFD"/>
<stop offset="1" stop-color="#34F8B6"/>
</linearGradient>
<linearGradient id="paint7_linear_4458_1370" x1="91" y1="289" x2="221" y2="403" gradientUnits="userSpaceOnUse">
<stop stop-color="#8FEEFD"/>
<stop offset="1" stop-color="#34F8B6"/>
</linearGradient>
<linearGradient id="paint8_linear_4458_1370" x1="-24.0001" y1="154.5" x2="106" y2="268.5" gradientUnits="userSpaceOnUse">
<stop stop-color="#8FEEFD"/>
<stop offset="1" stop-color="#34F8B6"/>
</linearGradient>
<linearGradient id="paint9_linear_4458_1370" x1="61.4609" y1="224.373" x2="140.5" y2="224.373" gradientUnits="userSpaceOnUse">
<stop stop-color="#CDF4FD"/>
<stop offset="1" stop-color="#00D6FF"/>
</linearGradient>
<linearGradient id="paint10_linear_4458_1370" x1="299.7" y1="90.9654" x2="299.7" y2="116" gradientUnits="userSpaceOnUse">
<stop stop-color="#83FF50"/>
<stop offset="1" stop-color="#83FF50" stop-opacity="0.6"/>
</linearGradient>
<linearGradient id="paint11_linear_4458_1370" x1="299.7" y1="90.9654" x2="299.7" y2="116" gradientUnits="userSpaceOnUse">
<stop stop-color="#83FF50"/>
<stop offset="1" stop-color="#83FF50" stop-opacity="0.6"/>
</linearGradient>
<linearGradient id="paint12_linear_4458_1370" x1="-24.0001" y1="154.5" x2="106" y2="268.5" gradientUnits="userSpaceOnUse">
<stop stop-color="#8FEEFD"/>
<stop offset="1" stop-color="#34F8B6"/>
</linearGradient>
<linearGradient id="paint13_linear_4458_1370" x1="91" y1="289" x2="221" y2="403" gradientUnits="userSpaceOnUse">
<stop stop-color="#8FEEFD"/>
<stop offset="1" stop-color="#34F8B6"/>
</linearGradient>
<linearGradient id="paint14_linear_4458_1370" x1="92.0272" y1="286.121" x2="249" y2="286.121" gradientUnits="userSpaceOnUse">
<stop stop-color="#CDF4FD"/>
<stop offset="1" stop-color="#00D6FF"/>
</linearGradient>
<linearGradient id="paint15_linear_4458_1370" x1="185" y1="248.094" x2="311" y2="248.094" gradientUnits="userSpaceOnUse">
<stop stop-color="#00D6FF"/>
<stop offset="0.505" stop-color="#83FF50"/>
<stop offset="1" stop-color="#32F8B9"/>
</linearGradient>
<clipPath id="clip0_4458_1370">
<rect width="36.864" height="36" fill="white" transform="translate(219 57.0939)"/>
</clipPath>
<clipPath id="clip1_4458_1370">
<rect width="32.5" height="32.5" fill="white" transform="translate(89.75 322.75)"/>
</clipPath>
</defs>
</svg>
