<svg width="32" height="33" viewBox="0 0 32 33" fill="none" xmlns="http://www.w3.org/2000/svg">
<path d="M5.33332 13.8333V24.4999H26.6667V13.8333L16 17.8333L5.33332 13.8333ZM5.33332 8.49992V11.1666L16 15.1666L26.6667 11.1666V8.49992H5.33332ZM5.33332 5.83325H26.6667C27.3739 5.83325 28.0522 6.1142 28.5523 6.6143C29.0524 7.1144 29.3333 7.79267 29.3333 8.49992V24.4999C29.3333 25.2072 29.0524 25.8854 28.5523 26.3855C28.0522 26.8856 27.3739 27.1666 26.6667 27.1666H5.33332C4.62608 27.1666 3.9478 26.8856 3.4477 26.3855C2.94761 25.8854 2.66666 25.2072 2.66666 24.4999V8.49992C2.66666 7.79267 2.94761 7.1144 3.4477 6.6143C3.9478 6.1142 4.62608 5.83325 5.33332 5.83325Z" fill="#2D7E5D"/>
</svg>
