<svg width="375" height="105" viewBox="0 0 375 105" fill="none" xmlns="http://www.w3.org/2000/svg">
<g clip-path="url(#clip0_6082_11023)">
<g filter="url(#filter0_d_6082_11023)">
<rect x="67.0312" y="11.7441" width="239.999" height="217.499" rx="108.75" fill="#E8F7FE"/>
<rect x="67.1875" y="11.9004" width="239.687" height="217.187" rx="108.593" stroke="#00D6FF" stroke-opacity="0.08" stroke-width="0.312499"/>
</g>
<g filter="url(#filter1_d_6082_11023)">
<g clip-path="url(#clip1_6082_11023)">
<rect x="34.5312" y="37.4082" width="71.9221" height="42.9386" rx="10.7346" fill="white"/>
<rect x="41.2402" y="43.0439" width="5.36679" height="5.36679" rx="0.766684" fill="#B7892D"/>
<path d="M42.6759 46.6616C42.6759 46.6616 42.6757 43.9111 42.6759 45.0615C42.6761 46.2119 43.3173 46.0621 44.6698 46.0621" stroke="white" stroke-width="0.287506"/>
<circle cx="42.6755" cy="44.2771" r="0.497606" stroke="white" stroke-width="0.287506"/>
<circle cx="42.6755" cy="47.1775" r="0.497606" stroke="white" stroke-width="0.287506"/>
<circle cx="45.1716" cy="45.9783" r="0.497606" stroke="white" stroke-width="0.287506"/>
<rect x="49.1568" y="42.9098" width="49.111" height="31.9356" rx="1.20765" stroke="#B7892D" stroke-width="0.268366"/>
<g clip-path="url(#clip2_6082_11023)">
<path d="M54.1047 46.0293C52.9272 46.0293 51.9912 46.9653 51.9912 48.1428C51.9912 49.3203 52.9272 50.2563 54.1047 50.2563C55.2822 50.2563 56.2182 49.3203 56.2182 48.1428C56.2182 46.9653 55.2822 46.0293 54.1047 46.0293ZM54.9199 49.1995L54.1047 48.3843L53.2895 49.1995L53.048 48.958L53.8632 48.1428L53.048 47.3276L53.2895 47.086L54.1047 47.9013L54.9199 47.086L55.1615 47.3276L54.3462 48.1428L55.1615 48.958L54.9199 49.1995Z" fill="#BE3536"/>
</g>
<rect x="57.8613" y="45.9961" width="33.4116" height="2.07984" rx="0.268366" fill="#EE9B9C"/>
<rect x="57.8613" y="48.8809" width="20.1945" height="1.40892" rx="0.268366" fill="#DFDFDF"/>
<rect x="51.6895" y="69.3154" width="20.1945" height="2.89985" rx="0.268366" fill="#DFDFDF"/>
<rect x="86.4707" y="69.3154" width="9.71412" height="2.89985" rx="0.268366" fill="#DFDFDF"/>
<rect x="82.79" y="69.3154" width="2.90142" height="2.90008" rx="0.268366" fill="#DFDFDF"/>
<g clip-path="url(#clip3_6082_11023)">
<path fill-rule="evenodd" clip-rule="evenodd" d="M54.1039 54.6864L54.698 55.2805C54.7296 55.3121 54.7723 55.3298 54.8169 55.3298C54.8615 55.3298 54.9043 55.3121 54.9358 55.2805C54.9673 55.249 54.985 55.2062 54.985 55.1616C54.985 55.1171 54.9673 55.0743 54.9358 55.0428L54.3414 54.4486L54.9357 53.8544C54.9513 53.8388 54.9637 53.8203 54.9721 53.7999C54.9805 53.7795 54.9849 53.7576 54.9849 53.7356C54.9849 53.7135 54.9805 53.6916 54.9721 53.6713C54.9636 53.6509 54.9512 53.6323 54.9356 53.6167C54.92 53.6011 54.9015 53.5888 54.8811 53.5803C54.8607 53.5719 54.8388 53.5675 54.8168 53.5675C54.7947 53.5675 54.7728 53.5719 54.7524 53.5803C54.7321 53.5888 54.7135 53.6012 54.6979 53.6168L54.1039 54.211L53.5097 53.6168C53.4942 53.6007 53.4757 53.5879 53.4552 53.5791C53.4347 53.5703 53.4126 53.5656 53.3903 53.5654C53.368 53.5652 53.3459 53.5695 53.3252 53.5779C53.3045 53.5864 53.2858 53.5988 53.27 53.6146C53.2542 53.6304 53.2417 53.6491 53.2332 53.6698C53.2248 53.6904 53.2205 53.7126 53.2207 53.7349C53.2209 53.7572 53.2255 53.7792 53.2343 53.7998C53.2431 53.8203 53.2559 53.8388 53.272 53.8543L53.8663 54.4486L53.2721 55.0429C53.256 55.0584 53.2432 55.0769 53.2344 55.0975C53.2256 55.118 53.221 55.14 53.2208 55.1623C53.2206 55.1846 53.2249 55.2068 53.2334 55.2274C53.2418 55.2481 53.2543 55.2668 53.2701 55.2826C53.2859 55.2984 53.3047 55.3109 53.3253 55.3193C53.346 55.3277 53.3681 55.332 53.3904 55.3318C53.4127 55.3316 53.4348 55.3269 53.4553 55.3181C53.4758 55.3093 53.4943 55.2965 53.5098 55.2804L54.1039 54.6864Z" fill="#BE3536"/>
</g>
<rect x="57.8613" y="53.7451" width="29.3806" height="1.40892" rx="0.268366" fill="#DFDFDF"/>
<g clip-path="url(#clip4_6082_11023)">
<circle cx="54.1047" cy="59.4142" r="0.883951" fill="#CFA700"/>
</g>
<rect x="57.8613" y="58.709" width="34.6837" height="1.40892" rx="0.268366" fill="#CFA700"/>
<g clip-path="url(#clip5_6082_11023)">
<path fill-rule="evenodd" clip-rule="evenodd" d="M54.9493 63.786C54.9742 63.8109 54.9882 63.8446 54.9882 63.8798C54.9882 63.915 54.9742 63.9487 54.9493 63.9736L53.9546 64.9683C53.9415 64.9814 53.9259 64.9919 53.9087 64.999C53.8915 65.0061 53.8731 65.0098 53.8545 65.0098C53.8359 65.0098 53.8175 65.0061 53.8004 64.999C53.7832 64.9919 53.7676 64.9814 53.7544 64.9683L53.2602 64.4742C53.2476 64.4619 53.2375 64.4473 53.2305 64.4311C53.2235 64.4149 53.2199 64.3975 53.2197 64.3799C53.2196 64.3623 53.2229 64.3448 53.2296 64.3285C53.2363 64.3122 53.2461 64.2973 53.2586 64.2849C53.2711 64.2724 53.2859 64.2626 53.3022 64.2559C53.3185 64.2492 53.336 64.2459 53.3536 64.246C53.3712 64.2462 53.3886 64.2498 53.4048 64.2568C53.421 64.2637 53.4356 64.2739 53.4479 64.2865L53.8545 64.6931L54.7616 63.786C54.7739 63.7736 54.7885 63.7639 54.8046 63.7572C54.8207 63.7505 54.838 63.7471 54.8554 63.7471C54.8729 63.7471 54.8901 63.7505 54.9062 63.7572C54.9224 63.7639 54.937 63.7736 54.9493 63.786Z" fill="#5AC41A"/>
</g>
<rect x="57.8613" y="63.6738" width="29.3806" height="1.40892" rx="0.268366" fill="#5AC41A"/>
<path d="M47.6738 45.6201L48.9336 44.6729L49.1484 44.5117L49.1484 46.9424L48.9336 46.7812L47.6738 45.834L47.5312 45.7266L47.6738 45.6201Z" stroke="#B7892D" stroke-width="0.268366"/>
<path d="M49.3752 44.5068L47.7549 45.7306L49.3581 46.947L49.3752 44.5068Z" fill="white"/>
<path d="M42.7823 60.873L34.5312 54.6475V67.0986L42.7823 60.873Z" fill="#FFD2D3"/>
</g>
</g>
<rect x="38.7842" y="99.7285" width="293.749" height="4.53979" fill="#A47C52"/>
<path d="M180.272 88.104C180.438 88.138 180.605 88.172 180.777 88.207C181.313 88.3167 181.849 88.4288 182.384 88.541C182.939 88.6553 183.493 88.7689 184.048 88.8826C184.414 88.9576 184.781 89.033 185.147 89.1085C186.828 89.4543 188.514 89.7725 190.205 90.0705C191.069 90.2288 191.795 90.4115 192.565 90.8329C192.955 90.9407 193.347 91.0374 193.741 91.1267C195.288 91.4993 196.807 91.9473 198.326 92.4217C199.211 92.6967 200.068 92.9448 200.981 93.1165C203.607 93.6284 205.161 95.3518 206.956 97.218C207.321 97.5944 207.696 97.9532 208.079 98.3117C208.55 98.8249 208.55 98.8249 208.55 99.5301C206.357 99.5794 204.165 99.6168 201.972 99.6397C200.953 99.6507 199.935 99.6656 198.917 99.6897C197.932 99.7129 196.948 99.7254 195.963 99.7308C195.589 99.7347 195.215 99.7423 194.841 99.7538C192.903 99.811 191.495 99.7997 189.95 98.4613C189.765 98.2671 189.58 98.073 189.39 97.873C188.428 97.12 187.484 97.3606 186.321 97.4486C185.135 97.3986 184.452 96.8689 183.539 96.1521C182.748 95.6561 182.217 95.5174 181.283 95.5341C180.633 96.0693 180.633 96.0693 180.107 96.8122C179.549 97.5459 179.549 97.5459 178.932 98.1198C178.036 98.2015 178.036 98.2015 177.287 98.1198C177.358 96.6862 178.058 95.8913 178.932 94.8289C179.246 94.4373 179.559 94.0456 179.872 93.6536C179.545 93.8918 179.545 93.8918 179.21 94.1348C178.917 94.3466 178.623 94.5584 178.33 94.7702C178.186 94.8744 178.043 94.9786 177.896 95.086C177.18 95.6014 176.465 96.082 175.693 96.5111C175.104 96.8481 174.697 97.1184 174.231 97.5909C173.38 98.2291 172.919 98.2237 171.88 98.1198C171.972 96.8481 172.364 96.3171 173.276 95.446C173.486 95.2405 173.697 95.0351 173.914 94.8234C174.466 94.3588 174.466 94.1348 174.936 94.1348C174.936 93.9796 174.936 94.0485 174.936 93.8887C174.392 94.2753 173.849 94.6622 173.305 95.0493C173.073 95.2145 173.073 95.2145 172.836 95.3831C172.091 95.8901 172.091 95.8901 171.41 96.4743C170.72 96.5184 170.72 96.5184 170 96.4743C169.845 96.3192 169.689 96.1641 169.53 96.0042C169.612 94.7708 170.227 94.2464 171.084 93.4323C172.401 92.2961 173.816 91.3093 175.406 90.5978C174.585 90.4564 173.874 90.4268 173.055 90.5978C172.401 91.1001 171.85 91.6565 171.27 92.2423C170.659 92.7516 170.4 92.858 169.618 92.8456C169.356 92.802 169.094 92.7583 168.824 92.7134C168.735 91.8255 168.743 91.4195 169.262 90.6759C169.452 90.4804 169.642 90.285 169.838 90.0836C170.12 89.7877 170.12 89.7877 170.408 89.4859C170.584 89.3098 170.759 89.1338 170.94 88.9524C171.045 88.8286 171.15 88.7048 171.258 88.5772C171.756 88.1525 172.08 88.1298 172.728 88.0755C172.94 88.0566 173.152 88.0376 173.37 88.0181C173.591 88.0016 173.812 87.9851 174.04 87.9681C174.256 87.9488 174.473 87.9296 174.696 87.9098C176.62 87.7473 178.373 87.7101 180.272 88.104Z" fill="#F1BF9F"/>
<path d="M206.325 33.6399C206.679 33.634 206.679 33.634 207.041 33.6279C208.562 33.8005 209.797 34.5918 211.055 35.4175C211.198 35.51 211.341 35.6024 211.488 35.6977C212.322 36.2438 213.114 36.819 213.891 37.4449C215.014 38.3405 216.09 38.8207 217.505 39.0609C219.296 39.4259 220.899 40.6661 221.897 42.1755C222.5 44.8393 221.343 47.465 220.43 49.9217C220.083 50.8606 220.024 51.3465 220.208 52.3272C220.468 53.8941 220.619 55.4606 220.752 57.0431C220.782 57.4018 220.782 57.4018 220.814 57.7677C220.926 59.1573 220.977 60.5266 220.957 61.9206C221.186 61.9654 221.186 61.9654 221.419 62.0112C224.774 62.7112 227.896 64.7983 230.691 66.7118C230.826 66.8036 230.961 66.8954 231.1 66.99C231.535 67.327 231.535 67.327 231.996 67.8109C233.627 69.4123 235.101 69.4246 237.27 69.4104C237.685 69.4022 238.099 69.3933 238.513 69.3838C239.135 69.3746 239.756 69.3682 240.377 69.3671C240.761 69.366 241.145 69.3601 241.529 69.3484C243.01 69.3363 243.986 69.7309 245.1 70.75C246.184 72.1605 246.413 73.034 246.401 74.8141C246.401 75.024 246.402 75.2339 246.402 75.4502C246.403 76.1438 246.401 76.8374 246.398 77.531C246.398 78.0128 246.398 78.4946 246.398 78.9764C246.397 79.986 246.395 80.9955 246.392 82.005C246.388 83.3003 246.387 84.5956 246.387 85.8909C246.387 86.8856 246.386 87.8803 246.384 88.8751C246.384 89.3528 246.383 89.8305 246.383 90.3082C246.382 90.975 246.38 91.6418 246.378 92.3086C246.378 92.5068 246.378 92.705 246.378 92.9093C246.374 93.687 246.356 94.3211 246.109 95.0641C245.954 95.0641 245.798 95.0641 245.639 95.0641C245.551 95.2677 245.551 95.2677 245.462 95.4755C245.114 96.1021 244.788 96.4938 244.228 96.9446C243.464 97.1209 243.464 97.1209 242.818 97.1797C242.822 97.4046 242.822 97.4046 242.826 97.6342C242.828 97.8284 242.83 98.0226 242.833 98.2227C242.835 98.4164 242.838 98.61 242.841 98.8095C242.818 99.2952 242.877 99.5041 242.642 99.7392C241.376 99.7392 240.812 99.7392 239.134 99.7392C234.271 99.5801 237.558 97.7454 236.665 96.7527C234.916 94.8223 233.616 93.8868 231.05 93.2718C230.526 93.1363 230.001 93.0001 229.477 92.8632C229.225 92.7985 228.973 92.7337 228.713 92.667C227.798 92.4219 226.905 92.1306 226.011 91.8173C224.802 91.3997 223.618 91.0953 222.368 90.833C222.192 90.7583 222.017 90.6835 221.836 90.6065C221.032 90.3024 220.223 90.1708 219.379 90.036C217.957 89.7977 216.547 89.5288 215.139 89.2207C214.794 89.1468 214.449 89.073 214.104 88.9994C213.585 88.8883 213.066 88.7759 212.548 88.6588C210.312 88.1562 208.333 87.9451 206.046 88.1691C205.217 88.2465 204.409 88.2551 203.577 88.2474C202.088 88.3548 201.402 88.9765 200.438 90.0746C199.746 90.977 199.481 91.59 199.332 92.7135C200.392 92.7331 200.954 92.7041 201.769 91.9918C201.959 91.7985 202.148 91.6052 202.343 91.406C203.006 90.7548 203.368 90.4004 204.287 90.2233C204.92 90.2298 205.523 90.2666 206.148 90.3629C205.825 91.0094 205.447 91.0812 204.797 91.3913C203.606 92.0256 202.622 92.7725 201.623 93.6684C201.486 93.7875 201.348 93.9065 201.207 94.0292C200.774 94.4144 200.774 94.4144 200.272 95.0641C200.267 95.7244 200.267 95.7244 200.507 96.2394C201.433 96.3517 201.97 96.2743 202.707 95.7252C202.975 95.5082 203.241 95.2878 203.504 95.0641C204.924 93.8888 204.924 93.8888 205.443 93.8888C205.443 94.044 205.443 94.1991 205.443 94.3589C205.065 94.7235 205.065 94.7235 204.562 95.1376C203.078 96.3739 203.078 96.3739 202.387 98.1199C203.926 98.1199 204.669 97.4476 205.816 96.4717C206.282 96.0877 206.707 95.7886 207.236 95.5049C208.063 95.0453 208.771 94.516 209.51 93.9292C209.909 93.6538 209.909 93.6538 210.379 93.6538C210.071 94.3325 209.732 94.8201 209.219 95.3579C208.457 96.2166 208.138 97.0308 207.794 98.1199C208.822 98.072 209.303 98.0163 210.056 97.288C210.429 96.8037 210.801 96.3188 211.173 95.8336C211.79 95.2992 211.79 95.2992 212.612 95.2854C213.455 95.5401 213.938 95.8324 214.625 96.3716C215.715 97.1171 216.368 97.2534 217.681 97.165C219.029 97.0803 219.64 97.2641 220.693 98.1199C221.023 98.4258 224.008 99.442 224.321 99.7653C224.125 99.7653 222.736 99.7635 221.427 99.7653C217.604 99.7708 213.782 99.775 209.959 99.7775C208.184 99.7787 206.409 99.7804 204.634 99.7831C203.087 99.7854 201.541 99.7869 199.994 99.7874C199.175 99.7878 198.355 99.7885 197.536 99.7902C196.622 99.7921 195.709 99.7921 194.795 99.792C194.522 99.7929 194.249 99.7937 193.968 99.7946C193.72 99.7943 193.472 99.7939 193.217 99.7936C193.001 99.7938 192.784 99.794 192.561 99.7943C192.045 99.7653 192.045 99.7653 191.575 99.5303C191.51 96.2086 191.689 92.9605 192.045 89.6577C192.195 89.6568 192.346 89.6558 192.501 89.6548C193.186 89.647 193.872 89.6304 194.557 89.6137C194.794 89.6123 195.031 89.6109 195.275 89.6095C196.754 89.6011 196.754 89.6011 197.941 88.8231C198.089 88.6331 198.238 88.4431 198.391 88.2474C198.547 88.2474 198.702 88.2474 198.862 88.2474C198.83 88.0088 198.798 87.7702 198.765 87.5244C198.615 86.4041 198.466 85.2837 198.318 84.1632C198.291 83.9614 198.264 83.7596 198.237 83.5517C197.858 80.6926 197.5 77.833 197.193 74.9652C197.168 74.7365 197.143 74.5079 197.117 74.2723C197.096 74.0756 197.075 73.8788 197.054 73.6761C197.003 73.1882 197.003 73.1882 196.746 72.7334C196.659 72.1036 196.609 71.476 196.563 70.8419C196.521 70.163 196.521 70.163 196.422 69.5564C196.361 68.9861 196.348 68.5832 196.511 68.0322C197.123 67.3843 197.834 67.0164 198.626 66.6218C198.833 66.5154 199.039 66.4091 199.252 66.2995C200.535 65.6774 201.805 65.2627 203.184 64.9158C203.767 64.7502 204.279 64.5433 204.826 64.2859C206.192 63.6441 207.916 62.8608 209.439 62.8608C209.323 62.0463 209.323 62.0463 209.204 61.2154C208.775 61.2372 208.775 61.2372 208.337 61.2595C207.415 61.2546 206.861 61.1389 206.148 60.5102C205.84 59.761 205.84 59.761 205.678 59.0999C205.523 59.0999 205.368 59.0999 205.208 59.0999C205.092 58.169 205.092 58.169 204.973 57.2194C204.818 57.2194 204.663 57.2194 204.503 57.2194C204.111 55.7768 203.989 54.3758 203.969 52.8891C203.965 52.6234 203.965 52.6234 203.961 52.3524C203.951 51.6129 203.945 50.8735 203.943 50.1339C203.941 49.588 203.933 49.0423 203.924 48.4964C203.926 48.3311 203.927 48.1658 203.928 47.9955C203.904 46.8062 203.578 46.161 202.858 45.2313C202.756 45.0803 202.655 44.9292 202.55 44.7736C202.462 44.6438 202.375 44.5139 202.285 44.3801C202.084 44.0811 201.883 43.7821 201.682 43.483C201.532 43.261 201.532 43.261 201.379 43.0345C199.349 40.004 199.349 40.004 199.567 38.4145C200.274 37.9431 200.876 37.7261 201.682 37.4743C201.915 37.3967 202.148 37.3192 202.387 37.2392C202.45 37.0792 202.513 36.9193 202.578 36.7544C203.291 34.9927 204.345 33.6474 206.325 33.6399Z" fill="#287AA3"/>
<path d="M210.778 88.104C210.945 88.138 211.112 88.172 211.284 88.207C211.82 88.3167 212.356 88.4288 212.891 88.541C213.446 88.6553 214 88.7689 214.555 88.8826C214.921 88.9576 215.287 89.033 215.654 89.1085C217.335 89.4543 219.021 89.7725 220.712 90.0705C221.576 90.2288 222.302 90.4115 223.072 90.8329C223.461 90.9407 223.854 91.0374 224.248 91.1267C225.795 91.4993 227.314 91.9473 228.833 92.4217C229.718 92.6967 230.575 92.9448 231.488 93.1165C234.114 93.6284 235.668 95.3518 237.463 97.218C237.828 97.5944 238.203 97.9532 238.585 98.3117C239.056 98.8249 239.099 99.0257 239.099 99.7308C236.907 99.7801 234.658 99.7309 232.465 99.7538C231.447 99.7648 230.402 99.7297 229.384 99.7538C228.399 99.777 227.455 99.7254 226.47 99.7308C226.096 99.7347 225.722 99.7423 225.348 99.7538C223.41 99.811 222.001 99.7997 220.457 98.4613C220.272 98.2671 220.087 98.073 219.897 97.873C218.935 97.12 217.991 97.3606 216.828 97.4486C215.642 97.3986 214.959 96.8689 214.045 96.1521C213.255 95.6561 212.724 95.5174 211.789 95.5341C211.14 96.0693 211.14 96.0693 210.614 96.8122C210.056 97.5459 210.056 97.5459 209.439 98.1198C208.543 98.2015 208.543 98.2015 207.793 98.1198C207.865 96.6862 208.565 95.8913 209.439 94.8289C209.752 94.4373 210.066 94.0456 210.379 93.6536C210.051 93.8918 210.051 93.8918 209.717 94.1348C209.424 94.3466 209.13 94.5584 208.836 94.7702C208.693 94.8744 208.55 94.9786 208.403 95.086C207.686 95.6014 206.972 96.082 206.2 96.5111C205.611 96.8481 205.204 97.1184 204.738 97.5909C203.887 98.2291 203.426 98.2237 202.387 98.1198C202.478 96.8481 202.871 96.3171 203.783 95.446C203.993 95.2405 204.204 95.0351 204.421 94.8234C204.973 94.3588 204.973 94.1348 205.443 94.1348C205.443 93.9796 205.443 94.0485 205.443 93.8887C204.899 94.2753 204.355 94.6622 203.812 95.0493C203.58 95.2145 203.58 95.2145 203.342 95.3831C202.598 95.8901 202.598 95.8901 201.917 96.4743C201.226 96.5184 201.226 96.5184 200.507 96.4743C200.351 96.3192 200.196 96.1641 200.036 96.0042C200.119 94.7708 200.734 94.2464 201.591 93.4323C202.908 92.2961 204.323 91.3093 205.913 90.5978C205.092 90.4564 204.38 90.4268 203.562 90.5978C202.908 91.1001 202.357 91.6565 201.777 92.2423C201.166 92.7516 200.906 92.858 200.125 92.8456C199.863 92.802 199.601 92.7583 199.331 92.7134C199.242 91.8255 199.25 91.4195 199.769 90.6759C199.959 90.4804 200.149 90.285 200.345 90.0836C200.627 89.7877 200.627 89.7877 200.915 89.4859C201.091 89.3098 201.266 89.1338 201.447 88.9524C201.552 88.8286 201.657 88.7048 201.765 88.5772C202.263 88.1525 202.586 88.1298 203.234 88.0755C203.446 88.0566 203.658 88.0376 203.877 88.0181C204.098 88.0016 204.319 87.9851 204.547 87.9681C204.763 87.9488 204.98 87.9296 205.203 87.9098C207.127 87.7473 208.88 87.7101 210.778 88.104Z" fill="#F1BF9F"/>
<path d="M206.325 33.6399C206.561 33.6359 206.798 33.632 207.041 33.6279C208.562 33.8005 209.798 34.5918 211.056 35.4175C211.199 35.51 211.341 35.6024 211.489 35.6977C212.322 36.2438 213.115 36.819 213.891 37.4449C215.014 38.3405 216.091 38.8207 217.505 39.0609C219.296 39.4259 220.899 40.6661 221.898 42.1755C222.501 44.8393 221.343 47.465 220.43 49.9217C220.083 50.8606 220.024 51.3465 220.208 52.3272C220.468 53.8941 220.62 55.4606 220.752 57.0431C220.783 57.4018 220.783 57.4018 220.814 57.7677C220.927 59.1573 220.978 60.5266 220.958 61.9206C220.798 61.8407 221.113 61.9982 220.958 61.9206V62.1556C220.927 62.367 220.927 62.367 220.896 62.5826C220.498 63.7605 219.004 64.2834 217.98 64.8579C215.324 66.1512 212.245 65.9835 209.44 65.2114C209.362 64.5909 209.52 63.5002 209.44 62.8608C209.226 62.9432 209.659 62.7759 209.44 62.8608C209.323 62.0463 209.323 62.0463 209.205 61.2154C208.775 61.2372 208.775 61.2372 208.338 61.2595C207.416 61.2546 206.861 61.1389 206.149 60.5102C205.647 59.8521 205.597 59.8359 205.209 59.0999C205.141 58.9717 204.572 57.7766 204.503 57.2194C204.112 55.7768 203.99 54.3758 203.969 52.8891C203.965 52.6234 203.965 52.6234 203.961 52.3524C203.952 51.6129 203.946 50.8735 203.944 50.1339C203.941 49.588 203.934 49.0423 203.925 48.4964C203.926 48.3311 203.927 48.1658 203.928 47.9955C203.905 46.8062 203.579 46.161 202.858 45.2313C202.756 45.0803 202.655 44.9292 202.55 44.7736C202.463 44.6438 202.375 44.5139 202.285 44.3801C202.084 44.0811 201.883 43.7821 201.683 43.483C201.583 43.335 201.483 43.187 201.38 43.0345C199.349 40.004 199.349 40.004 199.567 38.4145C200.274 37.9431 200.877 37.7261 201.683 37.4743C201.915 37.3967 202.148 37.3192 202.388 37.2392C202.451 37.0792 202.514 36.9193 202.579 36.7544C203.291 34.9927 204.345 33.6474 206.325 33.6399Z" fill="#F0BE9D"/>
<path d="M206.325 33.6399C206.561 33.6359 206.798 33.632 207.041 33.6279C208.562 33.8005 209.797 34.5918 211.055 35.4175C211.198 35.51 211.341 35.6024 211.488 35.6977C212.322 36.2438 213.114 36.819 213.891 37.4449C215.014 38.3405 216.091 38.8207 217.505 39.0609C219.103 39.3866 220.375 40.3946 221.487 41.5511C222.264 42.7327 222.11 44.1101 221.898 45.4663C220.981 49.3684 220.981 49.3684 219.782 50.1676C219.601 49.1512 219.555 48.2473 219.606 47.2146C219.614 46.3327 219.573 45.7802 219.033 45.0697C218.43 44.4892 218.43 44.4892 217.755 44.3939C217.1 44.549 216.909 44.7135 216.491 45.2313C216.374 45.6825 216.374 45.6825 216.371 46.1743C216.358 46.4413 216.358 46.4413 216.346 46.7137C216.34 46.8984 216.335 47.0831 216.33 47.2734C216.322 47.4608 216.314 47.6482 216.305 47.8413C216.286 48.3032 216.271 48.7652 216.256 49.2273C215.946 49.2273 215.636 49.2273 215.316 49.2273C215.318 48.9607 215.318 48.9607 215.32 48.6887C215.325 47.879 215.328 47.0694 215.331 46.2597C215.334 45.8402 215.334 45.8402 215.337 45.4122C215.338 45.0054 215.338 45.0054 215.339 44.5904C215.341 44.2174 215.341 44.2174 215.343 43.8369C215.316 43.1078 215.216 42.4215 215.081 41.7054C214.858 41.7684 214.635 41.8314 214.405 41.8964C214.253 41.9387 214.1 41.981 213.943 42.0246C213.603 42.1256 213.266 42.2371 212.933 42.3586C211.03 43.0217 209.253 42.905 207.265 42.7912C206.556 42.7694 205.908 42.7609 205.208 42.8807C204.474 43.6219 204.163 44.2828 204.092 45.3194C204.072 45.6006 204.053 45.8818 204.033 46.1715C203.878 46.1715 203.723 46.1715 203.563 46.1715C203.173 45.6899 202.814 45.2099 202.461 44.7024C202.357 44.5539 202.253 44.4054 202.146 44.2524C199.485 40.4119 199.485 40.4119 199.42 39.0903C199.567 38.4145 199.567 38.4145 200.272 37.9444C200.739 37.779 201.209 37.6221 201.682 37.4743C201.915 37.3967 202.148 37.3192 202.388 37.2392C202.451 37.0792 202.514 36.9193 202.579 36.7544C203.291 34.9927 204.345 33.6474 206.325 33.6399Z" fill="#2D334B"/>
<path d="M236.224 69.2734C236.413 69.2715 236.602 69.2696 236.796 69.2676C237.197 69.2643 237.598 69.2618 238 69.26C238.609 69.256 239.219 69.2456 239.829 69.2352C240.219 69.2329 240.609 69.2309 240.999 69.2293C241.18 69.2252 241.361 69.221 241.547 69.2168C243.012 69.2226 244 69.6294 245.1 70.6369C246.185 72.0473 246.413 72.9209 246.401 74.7009C246.402 74.9109 246.402 75.1208 246.403 75.3371C246.404 76.0307 246.401 76.7242 246.399 77.4178C246.398 77.8997 246.398 78.3815 246.398 78.8633C246.398 79.8728 246.396 80.8823 246.393 81.8918C246.389 83.1871 246.388 84.4824 246.388 85.7777C246.388 86.7724 246.387 87.7672 246.385 88.7619C246.384 89.2396 246.384 89.7173 246.384 90.195C246.383 90.8618 246.381 91.5287 246.379 92.1955C246.379 92.3937 246.379 92.5919 246.379 92.7961C246.375 93.5739 246.354 94.3332 246.106 95.0762C245.951 95.0762 246.266 95.0762 246.106 95.0762C245.758 95.7028 244.801 96.4907 244.241 96.9415C243.477 97.1178 243.476 97.118 242.83 97.1768C242.564 96.3805 242.542 95.637 242.526 94.7976C242.518 94.4807 242.51 94.1638 242.502 93.8468C242.491 93.3518 242.481 92.8568 242.471 92.3618C242.434 90.4935 242.331 88.685 241.987 86.8424C241.86 86.1528 241.793 85.4692 241.746 84.7699C241.672 83.7659 241.096 82.7816 240.938 81.7876C240.895 81.6539 240.853 81.5203 240.809 81.3826C240.528 80.5209 240.238 79.6831 239.88 78.8493C239.526 78.0236 239.256 77.1984 238.998 76.3389C238.858 75.8645 238.151 75.1691 238.151 75.1691C238.085 75.0019 238.22 75.3415 238.151 75.1691C237.826 74.3599 237.367 73.6824 236.869 72.9728C236.735 72.7769 236.735 72.7769 236.599 72.5771C236.002 71.7178 235.338 70.9998 234.591 70.2696C234.436 70.0369 234.186 69.3455 234.026 69.1057C234.57 68.97 235.569 69.2795 236.224 69.2734Z" fill="#4E4E4F"/>
<path d="M190.903 42.6027L122.638 46.386C121.403 46.4544 120.489 47.5636 120.659 48.789L126.249 89.0825C126.395 90.1366 127.301 90.918 128.365 90.9073L196.763 90.2221C198.033 90.2094 199.005 89.0889 198.839 87.8301L193.117 44.4384C192.973 43.3416 192.007 42.5414 190.903 42.6027Z" fill="#D9D9D9"/>
<path d="M157.738 70.1845L156.796 69.7441L149.145 99.7532H152.511H173.695V98.424C173.683 97.2982 173.236 97.142 172.222 97.0948H155.037L153.844 95.4158L157.738 70.1845Z" fill="#EFEFF0"/>
<path d="M156.801 69.7393H148.594L137.547 94.5036C136.334 97.2228 136.224 98.4353 137.547 99.7503H152.698C151.105 98.8501 150.858 97.9648 151.119 95.9727L156.801 69.7393Z" fill="#999998"/>
<g filter="url(#filter2_d_6082_11023)">
<path d="M170.444 17.0804C170.444 7.94163 177.853 0.533203 186.992 0.533203C196.13 0.533203 203.539 7.94163 203.539 17.0804C203.539 26.2192 196.13 33.6276 186.992 33.6276C177.853 33.6276 170.444 26.2192 170.444 17.0804Z" fill="#F9FAFC"/>
<path d="M186.991 0.689453C196.044 0.689453 203.383 8.02775 203.383 17.0801C203.383 26.1326 196.044 33.4717 186.991 33.4717C177.939 33.4715 170.601 26.1324 170.601 17.0801C170.601 8.02786 177.939 0.689628 186.991 0.689453Z" stroke="#8B8B8B" stroke-opacity="0.1" stroke-width="0.312499"/>
<path d="M188.123 12.58L185.744 16.708H185.728L183.374 12.6203L188.123 12.58Z" fill="#83FF50" stroke="#83FF50" stroke-width="0.071215" stroke-miterlimit="5.3333"/>
<mask id="mask0_6082_11023" style="mask-type:luminance" maskUnits="userSpaceOnUse" x="176" y="7" width="14" height="7">
<path d="M189.741 13.3223H176.97V7.70268H189.741V13.3223Z" fill="white"/>
</mask>
<g mask="url(#mask0_6082_11023)">
<g opacity="0.83">
<path d="M188.143 12.5546L188.134 12.5708H188.126V12.5788L183.369 12.6191V12.6111H178.605L178.572 12.5546L180.967 8.41049H185.756L188.143 12.5546Z" fill="#96FF5B" fill-opacity="0.6471"/>
</g>
</g>
<path d="M188.134 12.5728L185.755 16.7012H185.747L188.126 12.5728H188.134Z" fill="white"/>
<path d="M185.758 16.7611L185.75 16.7773L183.363 20.9053H178.582L176.188 16.7611L178.582 12.617H178.606L180.961 16.7047H185.725L185.758 16.7611Z" fill="#00D6FF" stroke="#00D6FF" stroke-width="0.071215" stroke-miterlimit="5.3333"/>
<path d="M185.725 16.7041H180.968L178.605 12.6164H183.37L185.725 16.7041Z" fill="#7DFFFF" stroke="#7DFFFF" stroke-width="0.071215" stroke-miterlimit="5.3333"/>
<path d="M188.158 20.8024L188.199 20.8669H188.126L186.312 20.883L183.369 20.9072L185.756 16.7792H190.488L188.158 20.8024Z" fill="#32E6FF" stroke="#32E6FF" stroke-width="0.071215" stroke-miterlimit="5.3333"/>
<mask id="mask1_6082_11023" style="mask-type:luminance" maskUnits="userSpaceOnUse" x="182" y="15" width="10" height="12">
<path d="M191.804 26.457H182.137V15.3952H191.804V26.457Z" fill="white"/>
</mask>
<g mask="url(#mask1_6082_11023)">
<g opacity="0.86">
<path d="M190.597 24.9513L190.524 25.0723H185.743L183.349 20.9281L183.357 20.912L185.743 16.784H185.751L183.365 20.9039L186.308 20.8797L188.13 20.8636H188.202L190.548 24.9513H190.597Z" fill="#00D5FF" fill-opacity="0.5451"/>
</g>
</g>
<path d="M188.157 20.8027L188.197 20.8672H188.125L185.771 16.7795H190.487L188.157 20.8027Z" fill="#20E6FF" stroke="#20E6FF" stroke-width="0.071215" stroke-miterlimit="5.3333"/>
<path d="M192.889 20.8672H188.197L188.156 20.8027L190.478 16.7795H190.527L192.889 20.8672Z" fill="#2AF0FF" stroke="#2AF0FF" stroke-width="0.071215" stroke-miterlimit="5.3333"/>
<mask id="mask2_6082_11023" style="mask-type:luminance" maskUnits="userSpaceOnUse" x="187" y="20" width="7" height="6">
<path d="M193.714 25.6348H187.409V20.1925H193.714V25.6348Z" fill="white"/>
</mask>
<g mask="url(#mask2_6082_11023)">
<g opacity="0.95">
<path d="M192.921 20.926L190.599 24.9492H190.551L188.196 20.8696H192.889L192.921 20.926Z" fill="#29EFFF" fill-opacity="0.8"/>
</g>
</g>
<path d="M195.308 16.7211L192.913 20.8652H192.889L190.535 16.7775H185.77L185.737 16.7211L185.745 16.705L188.124 12.5769V12.5689H192.913L195.267 16.6485L195.308 16.7211Z" fill="#32F8B9" stroke="#32F8B9" stroke-width="0.071215" stroke-miterlimit="5.3333"/>
<mask id="mask3_6082_11023" style="mask-type:luminance" maskUnits="userSpaceOnUse" x="189" y="15" width="10" height="12">
<path d="M198.899 26.4561H189.329V15.3217H198.899V26.4561Z" fill="white"/>
</mask>
<g mask="url(#mask3_6082_11023)">
<g opacity="0.85">
<path d="M197.698 20.8597L195.304 25.0039L190.522 25.0684L192.893 20.9807L192.861 20.9242H192.885L195.279 16.7801L195.239 16.7156H195.312L197.698 20.8597Z" fill="#32F6B8" fill-opacity="0.5647"/>
</g>
</g>
</g>
<g filter="url(#filter3_d_6082_11023)">
<rect x="260.319" y="45.4414" width="78.8992" height="26.8715" rx="13.4357" fill="white"/>
<g filter="url(#filter4_d_6082_11023)">
<g clip-path="url(#clip6_6082_11023)">
<rect x="264.321" y="50.0156" width="17.7237" height="17.7237" rx="8.86186" fill="#F9FAFC"/>
<g clip-path="url(#clip7_6082_11023)">
<path d="M273.306 53.7324C270.397 53.7324 268.037 56.0914 268.037 59.0016C268.037 61.3296 269.547 63.3047 271.64 64.0014C271.904 64.0502 272 63.8871 272 63.748C272 63.6223 271.996 63.2072 271.993 62.7669C270.527 63.0857 270.218 62.1453 270.218 62.1453C269.978 61.5362 269.633 61.3743 269.633 61.3743C269.155 61.0472 269.669 61.054 269.669 61.054C270.198 61.0911 270.477 61.5969 270.477 61.5969C270.947 62.4025 271.709 62.1696 272.01 62.035C272.057 61.6944 272.194 61.462 272.345 61.3304C271.174 61.1971 269.944 60.7453 269.944 58.7264C269.944 58.1511 270.15 57.681 270.487 57.312C270.432 57.1793 270.252 56.6434 270.538 55.9176C270.538 55.9176 270.98 55.776 271.987 56.4577C272.408 56.341 272.858 56.2824 273.306 56.2804C273.754 56.2824 274.205 56.341 274.626 56.4577C275.632 55.776 276.074 55.9176 276.074 55.9176C276.361 56.6434 276.18 57.1793 276.125 57.312C276.463 57.681 276.668 58.1511 276.668 58.7264C276.668 60.7501 275.435 61.1958 274.262 61.3262C274.451 61.4897 274.619 61.8104 274.619 62.302C274.619 63.007 274.613 63.5744 274.613 63.748C274.613 63.8882 274.708 64.0525 274.975 64.0007C277.067 63.3032 278.575 61.3288 278.575 59.0016C278.575 56.0914 276.216 53.7324 273.306 53.7324ZM270.011 61.2384C269.999 61.2646 269.958 61.2724 269.92 61.2545C269.882 61.2373 269.861 61.2016 269.873 61.1753C269.884 61.1484 269.926 61.1409 269.964 61.1589C270.002 61.1761 270.024 61.2122 270.011 61.2384ZM270.27 61.4697C270.245 61.493 270.196 61.4822 270.162 61.4453C270.128 61.4086 270.121 61.3595 270.147 61.3358C270.173 61.3125 270.22 61.3234 270.255 61.3602C270.289 61.3973 270.296 61.4461 270.27 61.4697ZM270.448 61.7656C270.415 61.788 270.362 61.767 270.33 61.7201C270.298 61.6733 270.298 61.6171 270.331 61.5946C270.363 61.572 270.415 61.5923 270.448 61.6388C270.481 61.6864 270.481 61.7426 270.448 61.7656ZM270.748 62.1083C270.719 62.1401 270.658 62.1316 270.613 62.0881C270.567 62.0456 270.554 61.9853 270.583 61.9535C270.612 61.9215 270.674 61.9305 270.719 61.9736C270.765 62.016 270.779 62.0768 270.748 62.1083ZM271.137 62.224C271.124 62.2652 271.065 62.284 271.005 62.2665C270.946 62.2484 270.907 62.2001 270.919 62.1583C270.931 62.1168 270.991 62.0973 271.051 62.116C271.11 62.134 271.149 62.182 271.137 62.224ZM271.579 62.273C271.581 62.3165 271.53 62.3525 271.467 62.3533C271.404 62.3547 271.353 62.3195 271.353 62.2768C271.353 62.2329 271.402 62.1972 271.465 62.1962C271.528 62.1949 271.579 62.2298 271.579 62.273ZM272.014 62.2564C272.021 62.2988 271.978 62.3423 271.915 62.3539C271.854 62.3651 271.798 62.3389 271.79 62.2969C271.782 62.2534 271.827 62.2099 271.888 62.1986C271.95 62.1878 272.006 62.2133 272.014 62.2564Z" fill="#161614"/>
</g>
</g>
<rect x="264.607" y="50.3015" width="17.152" height="17.152" rx="8.576" stroke="#8B8B8B" stroke-opacity="0.1" stroke-width="0.571733"/>
</g>
<g filter="url(#filter5_d_6082_11023)">
<rect x="290.907" y="50.0156" width="17.7237" height="17.7237" rx="8.86186" fill="#F9FAFC"/>
<rect x="291.193" y="50.3015" width="17.152" height="17.152" rx="8.576" stroke="#8B8B8B" stroke-opacity="0.1" stroke-width="0.571733"/>
<path d="M300.922 55.2378C300.998 55.2592 301.069 55.2954 301.132 55.3444C301.194 55.3935 301.247 55.4543 301.285 55.5236C301.324 55.5928 301.349 55.669 301.359 55.7478C301.368 55.8266 301.362 55.9065 301.34 55.983L299.556 62.3422C299.512 62.4965 299.41 62.6273 299.27 62.7058C299.13 62.7843 298.965 62.8042 298.811 62.7609C298.656 62.7176 298.525 62.6148 298.447 62.4751C298.368 62.3354 298.349 62.1702 298.392 62.0159L300.177 55.6559C300.198 55.5795 300.234 55.508 300.284 55.4456C300.333 55.3832 300.393 55.3311 300.463 55.2922C300.532 55.2534 300.608 55.2285 300.687 55.2191C300.766 55.2097 300.846 55.2159 300.922 55.2374L300.922 55.2378ZM298.078 56.8631C298.191 56.9764 298.254 57.13 298.254 57.2901C298.254 57.4502 298.191 57.6038 298.078 57.7171L296.797 58.9992L298.078 60.281C298.192 60.3943 298.255 60.548 298.255 60.7083C298.255 60.8686 298.192 61.0222 298.078 61.1355C297.965 61.2488 297.811 61.3125 297.651 61.3124C297.491 61.3124 297.337 61.2487 297.224 61.1353L295.515 59.4262C295.401 59.3129 295.338 59.1593 295.338 58.9992C295.338 58.8391 295.401 58.6855 295.515 58.5722L297.223 56.8631C297.279 56.807 297.346 56.7624 297.419 56.732C297.493 56.7016 297.571 56.686 297.651 56.686C297.73 56.686 297.809 56.7016 297.882 56.732C297.955 56.7624 298.022 56.807 298.078 56.8631ZM301.655 57.7171C301.595 57.6618 301.548 57.5951 301.515 57.5209C301.482 57.4468 301.464 57.3668 301.462 57.2857C301.461 57.2046 301.476 57.124 301.506 57.0487C301.537 56.9735 301.582 56.9052 301.639 56.8478C301.697 56.7904 301.765 56.7452 301.84 56.7148C301.916 56.6844 301.996 56.6695 302.077 56.6709C302.158 56.6723 302.238 56.6901 302.312 56.7231C302.387 56.7561 302.453 56.8038 302.509 56.8631L304.218 58.5718C304.331 58.6852 304.395 58.8388 304.395 58.999C304.395 59.1592 304.331 59.3129 304.218 59.4262L302.509 61.1353C302.453 61.1915 302.386 61.236 302.313 61.2664C302.24 61.2968 302.161 61.3124 302.082 61.3124C302.002 61.3124 301.924 61.2968 301.851 61.2665C301.777 61.2361 301.711 61.1916 301.654 61.1355C301.598 61.0794 301.554 61.0128 301.523 60.9395C301.493 60.8662 301.477 60.7877 301.477 60.7083C301.477 60.6289 301.493 60.5504 301.523 60.477C301.554 60.4037 301.598 60.3371 301.654 60.281L302.936 58.9992L301.655 57.7171Z" fill="black"/>
</g>
<g filter="url(#filter6_d_6082_11023)">
<path d="M317.492 58.8775C317.492 53.9832 321.46 50.0156 326.354 50.0156C331.248 50.0156 335.216 53.9832 335.216 58.8775C335.216 63.7718 331.248 67.7394 326.354 67.7394C321.46 67.7394 317.492 63.7718 317.492 58.8775Z" fill="#F9FAFC"/>
<path d="M326.354 50.3018C331.091 50.302 334.93 54.1417 334.93 58.8779C334.929 63.614 331.091 67.4529 326.354 67.4531C321.618 67.4531 317.779 63.6141 317.778 58.8779C317.778 54.1415 321.618 50.3018 326.354 50.3018Z" stroke="#8B8B8B" stroke-opacity="0.1" stroke-width="0.571733"/>
<g clip-path="url(#clip8_6082_11023)">
<path d="M321.843 59.353C321.581 59.0905 321.581 58.665 321.843 58.4026L325.879 54.3668C326.142 54.1043 326.567 54.1043 326.83 54.3668L330.865 58.4026C331.128 58.665 331.128 59.0905 330.865 59.353L326.83 63.3888C326.567 63.6513 326.142 63.6513 325.879 63.3888L321.843 59.353Z" fill="#EE513B"/>
<path d="M325.059 55.1992L324.65 55.6079L325.706 56.6634C325.663 56.7551 325.639 56.8572 325.639 56.965C325.639 57.2708 325.832 57.5318 326.102 57.6337V60.2159C325.832 60.3178 325.639 60.5788 325.639 60.8847C325.639 61.2793 325.959 61.5993 326.354 61.5993C326.749 61.5993 327.069 61.2793 327.069 60.8847C327.069 60.6074 326.911 60.3669 326.68 60.2485V57.6373L327.689 58.6463C327.648 58.736 327.626 58.8357 327.626 58.9406C327.626 59.3352 327.945 59.6552 328.34 59.6552C328.735 59.6552 329.055 59.3352 329.055 58.9406C329.055 58.5459 328.735 58.226 328.34 58.226C328.263 58.226 328.19 58.2381 328.12 58.2604L327.037 57.1768C327.057 57.1099 327.069 57.0387 327.069 56.965C327.069 56.5703 326.749 56.2504 326.354 56.2504C326.28 56.2504 326.209 56.2615 326.142 56.2823L325.059 55.1992Z" fill="white"/>
</g>
</g>
</g>
</g>
<defs>
<filter id="filter0_d_6082_11023" x="63.0625" y="7.7754" width="247.937" height="225.437" filterUnits="userSpaceOnUse" color-interpolation-filters="sRGB">
<feFlood flood-opacity="0" result="BackgroundImageFix"/>
<feColorMatrix in="SourceAlpha" type="matrix" values="0 0 0 0 0 0 0 0 0 0 0 0 0 0 0 0 0 0 127 0" result="hardAlpha"/>
<feMorphology radius="0.937498" operator="dilate" in="SourceAlpha" result="effect1_dropShadow_6082_11023"/>
<feOffset/>
<feGaussianBlur stdDeviation="1.51562"/>
<feComposite in2="hardAlpha" operator="out"/>
<feColorMatrix type="matrix" values="0 0 0 0 0 0 0 0 0 0 0 0 0 0 0 0 0 0 0.05 0"/>
<feBlend mode="normal" in2="BackgroundImageFix" result="effect1_dropShadow_6082_11023"/>
<feBlend mode="normal" in="SourceGraphic" in2="effect1_dropShadow_6082_11023" result="shape"/>
</filter>
<filter id="filter1_d_6082_11023" x="33.5383" y="36.4152" width="73.9078" height="44.9244" filterUnits="userSpaceOnUse" color-interpolation-filters="sRGB">
<feFlood flood-opacity="0" result="BackgroundImageFix"/>
<feColorMatrix in="SourceAlpha" type="matrix" values="0 0 0 0 0 0 0 0 0 0 0 0 0 0 0 0 0 0 127 0" result="hardAlpha"/>
<feOffset/>
<feGaussianBlur stdDeviation="0.496477"/>
<feComposite in2="hardAlpha" operator="out"/>
<feColorMatrix type="matrix" values="0 0 0 0 0 0 0 0 0 0 0 0 0 0 0 0 0 0 0.1 0"/>
<feBlend mode="normal" in2="BackgroundImageFix" result="effect1_dropShadow_6082_11023"/>
<feBlend mode="normal" in="SourceGraphic" in2="effect1_dropShadow_6082_11023" result="shape"/>
</filter>
<filter id="filter2_d_6082_11023" x="166.714" y="-3.19685" width="40.5548" height="40.5548" filterUnits="userSpaceOnUse" color-interpolation-filters="sRGB">
<feFlood flood-opacity="0" result="BackgroundImageFix"/>
<feColorMatrix in="SourceAlpha" type="matrix" values="0 0 0 0 0 0 0 0 0 0 0 0 0 0 0 0 0 0 127 0" result="hardAlpha"/>
<feMorphology radius="1.10315" operator="erode" in="SourceAlpha" result="effect1_dropShadow_6082_11023"/>
<feOffset/>
<feGaussianBlur stdDeviation="2.4166"/>
<feComposite in2="hardAlpha" operator="out"/>
<feColorMatrix type="matrix" values="0 0 0 0 0 0 0 0 0 0 0 0 0 0 0 0 0 0 0.05 0"/>
<feBlend mode="normal" in2="BackgroundImageFix" result="effect1_dropShadow_6082_11023"/>
<feBlend mode="normal" in="SourceGraphic" in2="effect1_dropShadow_6082_11023" result="shape"/>
</filter>
<filter id="filter3_d_6082_11023" x="259.262" y="44.3837" width="81.0148" height="28.9865" filterUnits="userSpaceOnUse" color-interpolation-filters="sRGB">
<feFlood flood-opacity="0" result="BackgroundImageFix"/>
<feColorMatrix in="SourceAlpha" type="matrix" values="0 0 0 0 0 0 0 0 0 0 0 0 0 0 0 0 0 0 127 0" result="hardAlpha"/>
<feOffset/>
<feGaussianBlur stdDeviation="0.528853"/>
<feComposite in2="hardAlpha" operator="out"/>
<feColorMatrix type="matrix" values="0 0 0 0 0 0 0 0 0 0 0 0 0 0 0 0 0 0 0.1 0"/>
<feBlend mode="normal" in2="BackgroundImageFix" result="effect1_dropShadow_6082_11023"/>
<feBlend mode="normal" in="SourceGraphic" in2="effect1_dropShadow_6082_11023" result="shape"/>
</filter>
<filter id="filter4_d_6082_11023" x="261.195" y="46.8894" width="23.9762" height="23.9762" filterUnits="userSpaceOnUse" color-interpolation-filters="sRGB">
<feFlood flood-opacity="0" result="BackgroundImageFix"/>
<feColorMatrix in="SourceAlpha" type="matrix" values="0 0 0 0 0 0 0 0 0 0 0 0 0 0 0 0 0 0 127 0" result="hardAlpha"/>
<feMorphology radius="0.738489" operator="dilate" in="SourceAlpha" result="effect1_dropShadow_6082_11023"/>
<feOffset/>
<feGaussianBlur stdDeviation="1.19389"/>
<feComposite in2="hardAlpha" operator="out"/>
<feColorMatrix type="matrix" values="0 0 0 0 0 0 0 0 0 0 0 0 0 0 0 0 0 0 0.05 0"/>
<feBlend mode="normal" in2="BackgroundImageFix" result="effect1_dropShadow_6082_11023"/>
<feBlend mode="normal" in="SourceGraphic" in2="effect1_dropShadow_6082_11023" result="shape"/>
</filter>
<filter id="filter5_d_6082_11023" x="287.781" y="46.8894" width="23.9762" height="23.9762" filterUnits="userSpaceOnUse" color-interpolation-filters="sRGB">
<feFlood flood-opacity="0" result="BackgroundImageFix"/>
<feColorMatrix in="SourceAlpha" type="matrix" values="0 0 0 0 0 0 0 0 0 0 0 0 0 0 0 0 0 0 127 0" result="hardAlpha"/>
<feMorphology radius="0.738489" operator="dilate" in="SourceAlpha" result="effect1_dropShadow_6082_11023"/>
<feOffset/>
<feGaussianBlur stdDeviation="1.19389"/>
<feComposite in2="hardAlpha" operator="out"/>
<feColorMatrix type="matrix" values="0 0 0 0 0 0 0 0 0 0 0 0 0 0 0 0 0 0 0.05 0"/>
<feBlend mode="normal" in2="BackgroundImageFix" result="effect1_dropShadow_6082_11023"/>
<feBlend mode="normal" in="SourceGraphic" in2="effect1_dropShadow_6082_11023" result="shape"/>
</filter>
<filter id="filter6_d_6082_11023" x="314.031" y="46.5544" width="24.6461" height="24.6461" filterUnits="userSpaceOnUse" color-interpolation-filters="sRGB">
<feFlood flood-opacity="0" result="BackgroundImageFix"/>
<feColorMatrix in="SourceAlpha" type="matrix" values="0 0 0 0 0 0 0 0 0 0 0 0 0 0 0 0 0 0 127 0" result="hardAlpha"/>
<feMorphology radius="0.817612" operator="dilate" in="SourceAlpha" result="effect1_dropShadow_6082_11023"/>
<feOffset/>
<feGaussianBlur stdDeviation="1.32181"/>
<feComposite in2="hardAlpha" operator="out"/>
<feColorMatrix type="matrix" values="0 0 0 0 0 0 0 0 0 0 0 0 0 0 0 0 0 0 0.05 0"/>
<feBlend mode="normal" in2="BackgroundImageFix" result="effect1_dropShadow_6082_11023"/>
<feBlend mode="normal" in="SourceGraphic" in2="effect1_dropShadow_6082_11023" result="shape"/>
</filter>
<clipPath id="clip0_6082_11023">
<rect x="-0.507812" y="0.533203" width="374.999" height="103.75" rx="4.99999" fill="white"/>
</clipPath>
<clipPath id="clip1_6082_11023">
<rect x="34.5312" y="37.4082" width="71.9221" height="42.9386" rx="10.7346" fill="white"/>
</clipPath>
<clipPath id="clip2_6082_11023">
<rect width="4.83059" height="4.83059" fill="white" transform="translate(51.6895 45.7275)"/>
</clipPath>
<clipPath id="clip3_6082_11023">
<rect width="2.68904" height="2.68904" fill="white" transform="translate(52.7598 53.1045)"/>
</clipPath>
<clipPath id="clip4_6082_11023">
<rect width="2.68904" height="2.68904" fill="white" transform="translate(52.7598 58.0693)"/>
</clipPath>
<clipPath id="clip5_6082_11023">
<rect width="2.68904" height="2.68904" fill="white" transform="translate(52.7598 63.0342)"/>
</clipPath>
<clipPath id="clip6_6082_11023">
<rect x="264.321" y="50.0156" width="17.7237" height="17.7237" rx="8.86186" fill="white"/>
</clipPath>
<clipPath id="clip7_6082_11023">
<rect width="10.5382" height="10.2912" fill="white" transform="translate(268.037 53.7324)"/>
</clipPath>
<clipPath id="clip8_6082_11023">
<rect width="10.7608" height="10.7608" fill="white" transform="translate(320.974 53.4971)"/>
</clipPath>
</defs>
</svg>
