<svg width="1024" height="284" viewBox="0 0 1024 284" fill="none" xmlns="http://www.w3.org/2000/svg">
<g clip-path="url(#clip0_6082_7143)">
<g filter="url(#filter0_d_6082_7143)">
<rect x="184.423" y="30.6045" width="655.358" height="593.918" rx="296.959" fill="#E8F7FE"/>
<rect x="184.85" y="31.0312" width="654.505" height="593.065" rx="296.532" stroke="#00D6FF" stroke-opacity="0.08" stroke-width="0.853331"/>
</g>
<g filter="url(#filter1_d_6082_7143)">
<g clip-path="url(#clip1_6082_7143)">
<rect x="95.6758" y="100.684" width="196.395" height="117.251" rx="29.3127" fill="white"/>
<rect x="113.996" y="116.072" width="14.6549" height="14.6549" rx="2.09356" fill="#B7892D"/>
<path d="M117.916 125.952C117.916 125.952 117.916 118.441 117.916 121.582C117.917 124.724 119.668 124.315 123.361 124.315" stroke="white" stroke-width="0.785084"/>
<circle cx="117.915" cy="119.44" r="1.3588" stroke="white" stroke-width="0.785084"/>
<circle cx="117.915" cy="127.36" r="1.3588" stroke="white" stroke-width="0.785084"/>
<circle cx="124.731" cy="124.086" r="1.3588" stroke="white" stroke-width="0.785084"/>
<rect x="135.614" y="115.706" width="134.106" height="87.2054" rx="3.29768" stroke="#B7892D" stroke-width="0.732818"/>
<path d="M149.124 124.226C145.908 124.226 143.353 126.781 143.353 129.997C143.353 133.212 145.908 135.768 149.124 135.768C152.339 135.768 154.895 133.212 154.895 129.997C154.895 126.781 152.339 124.226 149.124 124.226ZM151.35 132.882L149.124 130.656L146.898 132.882L146.238 132.223L148.464 129.997L146.238 127.771L146.898 127.111L149.124 129.337L151.35 127.111L152.009 127.771L149.783 129.997L152.009 132.223L151.35 132.882Z" fill="#BE3536"/>
<rect x="159.384" y="124.134" width="91.2359" height="5.67934" rx="0.732818" fill="#EE9B9C"/>
<rect x="159.384" y="132.012" width="55.1446" height="3.8473" rx="0.732818" fill="#DFDFDF"/>
<rect x="142.529" y="187.812" width="55.1446" height="7.91852" rx="0.732818" fill="#DFDFDF"/>
<rect x="237.505" y="187.812" width="26.526" height="7.91852" rx="0.732818" fill="#DFDFDF"/>
<rect x="227.455" y="187.812" width="7.9228" height="7.91915" rx="0.732818" fill="#DFDFDF"/>
<path fill-rule="evenodd" clip-rule="evenodd" d="M149.123 147.866L150.745 149.488C150.831 149.574 150.948 149.622 151.07 149.622C151.191 149.622 151.308 149.574 151.394 149.488C151.48 149.402 151.529 149.285 151.529 149.163C151.529 149.042 151.48 148.925 151.394 148.839L149.771 147.216L151.394 145.594C151.437 145.551 151.47 145.501 151.493 145.445C151.516 145.389 151.528 145.33 151.528 145.269C151.528 145.209 151.516 145.149 151.493 145.094C151.47 145.038 151.436 144.987 151.394 144.945C151.351 144.902 151.301 144.868 151.245 144.845C151.189 144.822 151.13 144.81 151.069 144.81C151.009 144.81 150.949 144.822 150.894 144.845C150.838 144.868 150.787 144.902 150.745 144.945L149.123 146.567L147.5 144.945C147.458 144.901 147.407 144.866 147.351 144.842C147.295 144.818 147.235 144.805 147.174 144.805C147.113 144.804 147.053 144.816 146.996 144.839C146.94 144.862 146.889 144.896 146.846 144.939C146.802 144.982 146.768 145.033 146.745 145.09C146.722 145.146 146.71 145.206 146.711 145.267C146.711 145.328 146.724 145.389 146.748 145.445C146.772 145.501 146.807 145.551 146.851 145.594L148.474 147.216L146.851 148.839C146.807 148.881 146.772 148.932 146.748 148.988C146.724 149.044 146.712 149.104 146.711 149.165C146.711 149.226 146.722 149.287 146.746 149.343C146.769 149.399 146.803 149.451 146.846 149.494C146.889 149.537 146.94 149.571 146.997 149.594C147.053 149.617 147.113 149.629 147.174 149.628C147.235 149.627 147.296 149.615 147.352 149.591C147.407 149.567 147.458 149.532 147.5 149.488L149.123 147.866Z" fill="#BE3536"/>
<rect x="159.384" y="145.295" width="80.2286" height="3.8473" rx="0.732818" fill="#DFDFDF"/>
<circle cx="149.124" cy="160.774" r="2.41377" fill="#CFA700"/>
<rect x="159.384" y="158.851" width="94.7096" height="3.8473" rx="0.732818" fill="#CFA700"/>
<path fill-rule="evenodd" clip-rule="evenodd" d="M151.432 172.714C151.5 172.782 151.538 172.874 151.538 172.97C151.538 173.066 151.5 173.158 151.432 173.226L148.716 175.942C148.68 175.978 148.637 176.007 148.59 176.026C148.543 176.045 148.493 176.055 148.442 176.055C148.392 176.055 148.341 176.045 148.295 176.026C148.248 176.007 148.205 175.978 148.169 175.942L146.82 174.593C146.785 174.559 146.757 174.519 146.738 174.475C146.719 174.431 146.709 174.384 146.709 174.335C146.709 174.287 146.718 174.24 146.736 174.195C146.754 174.151 146.781 174.11 146.815 174.076C146.849 174.042 146.89 174.015 146.934 173.997C146.979 173.979 147.026 173.969 147.075 173.97C147.123 173.97 147.17 173.98 147.214 173.999C147.259 174.018 147.299 174.046 147.332 174.081L148.442 175.191L150.919 172.714C150.953 172.68 150.993 172.653 151.037 172.635C151.081 172.617 151.128 172.607 151.176 172.607C151.223 172.607 151.27 172.617 151.314 172.635C151.358 172.653 151.398 172.68 151.432 172.714Z" fill="#5AC41A"/>
<rect x="159.384" y="172.408" width="80.2286" height="3.8473" rx="0.732818" fill="#5AC41A"/>
<path d="M131.566 123.107L135.005 120.521L135.591 120.081L135.591 126.72L135.005 126.278L131.566 123.693L131.177 123.4L131.566 123.107Z" stroke="#B7892D" stroke-width="0.732818"/>
<path d="M136.211 120.069L131.786 123.411L136.164 126.733L136.211 120.069Z" fill="white"/>
<path d="M118.207 164.759L95.6758 147.759V181.759L118.207 164.759Z" fill="#FFD2D3"/>
</g>
</g>
<rect x="107.29" y="270.861" width="802.131" height="12.3967" fill="#A47C52"/>
<path d="M493.645 239.118C494.1 239.211 494.556 239.304 495.025 239.399C496.489 239.699 497.952 240.005 499.414 240.312C500.928 240.624 502.442 240.934 503.956 241.244C504.957 241.449 505.957 241.655 506.958 241.861C511.549 242.805 516.153 243.674 520.77 244.488C523.129 244.92 525.113 245.419 527.215 246.57C528.278 246.864 529.349 247.128 530.425 247.372C534.649 248.39 538.798 249.613 542.945 250.908C545.363 251.659 547.702 252.337 550.195 252.806C557.366 254.203 561.61 258.91 566.51 264.005C567.507 265.033 568.532 266.013 569.576 266.992C570.863 268.393 570.863 268.393 570.863 270.319C564.875 270.454 558.889 270.556 552.9 270.618C550.119 270.648 547.339 270.689 544.558 270.755C541.869 270.818 539.182 270.852 536.492 270.867C535.471 270.878 534.451 270.898 533.43 270.93C528.137 271.086 524.291 271.055 520.073 267.4C519.568 266.87 519.064 266.34 518.544 265.794C515.918 263.738 513.341 264.395 510.163 264.635C506.925 264.499 505.061 263.052 502.566 261.095C500.406 259.74 498.958 259.362 496.406 259.407C494.631 260.869 494.631 260.869 493.196 262.897C491.672 264.901 491.672 264.901 489.987 266.468C487.54 266.691 487.54 266.691 485.494 266.468C485.689 262.553 487.6 260.383 489.987 257.482C490.843 256.412 491.699 255.343 492.554 254.272C491.659 254.923 491.659 254.923 490.747 255.586C489.945 256.165 489.144 256.743 488.342 257.321C487.951 257.606 487.56 257.89 487.157 258.184C485.202 259.591 483.25 260.903 481.144 262.075C479.535 262.995 478.424 263.733 477.149 265.024C474.826 266.766 473.568 266.752 470.731 266.468C470.98 262.995 472.052 261.545 474.542 259.167C475.117 258.606 475.692 258.045 476.284 257.467C477.791 256.198 477.791 255.586 479.075 255.586C479.075 255.162 479.075 255.351 479.075 254.914C477.59 255.97 476.106 257.026 474.622 258.083C473.987 258.535 473.987 258.535 473.339 258.995C471.307 260.379 471.307 260.379 469.447 261.975C467.561 262.095 467.561 262.095 465.596 261.975C465.172 261.551 464.748 261.127 464.312 260.691C464.538 257.323 466.216 255.891 468.557 253.668C472.154 250.565 476.016 247.871 480.359 245.928C478.118 245.542 476.174 245.461 473.94 245.928C472.154 247.299 470.648 248.819 469.066 250.419C467.396 251.809 466.688 252.1 464.553 252.066C463.838 251.947 463.123 251.828 462.386 251.705C462.142 249.28 462.164 248.172 463.582 246.141C464.101 245.607 464.62 245.074 465.154 244.524C465.925 243.716 465.925 243.716 466.711 242.892C467.19 242.411 467.67 241.93 468.163 241.435C468.45 241.097 468.737 240.759 469.032 240.41C470.392 239.25 471.275 239.189 473.045 239.04C473.624 238.989 474.202 238.937 474.799 238.884C475.402 238.839 476.006 238.793 476.628 238.747C477.219 238.694 477.81 238.642 478.419 238.588C483.674 238.144 488.46 238.042 493.645 239.118Z" fill="#F1BF9F"/>
<path d="M564.787 90.3929C565.755 90.3768 565.755 90.3768 566.743 90.3604C570.897 90.8315 574.269 92.9924 577.705 95.2471C578.095 95.4996 578.485 95.752 578.887 96.0121C581.163 97.5034 583.327 99.074 585.447 100.783C588.514 103.229 591.454 104.54 595.316 105.196C600.206 106.193 604.583 109.579 607.311 113.701C608.958 120.975 605.796 128.145 603.303 134.853C602.356 137.417 602.195 138.744 602.697 141.422C603.407 145.7 603.821 149.978 604.182 154.299C604.266 155.279 604.266 155.279 604.352 156.278C604.66 160.072 604.799 163.812 604.743 167.618C605.368 167.741 605.368 167.741 606.006 167.866C615.167 169.777 623.691 175.476 631.323 180.701C631.692 180.952 632.061 181.203 632.441 181.461C633.628 182.381 633.628 182.381 634.888 183.703C639.341 188.076 643.367 188.109 649.29 188.07C650.421 188.048 651.552 188.024 652.683 187.998C654.38 187.972 656.075 187.955 657.772 187.952C658.821 187.949 659.87 187.933 660.918 187.901C664.963 187.868 667.628 188.946 670.668 191.728C673.63 195.58 674.254 197.965 674.221 202.826C674.223 203.399 674.224 203.972 674.225 204.563C674.228 206.457 674.221 208.351 674.214 210.245C674.213 211.561 674.212 212.876 674.213 214.192C674.212 216.949 674.206 219.705 674.198 222.462C674.187 225.999 674.184 229.536 674.185 233.073C674.185 235.789 674.181 238.506 674.176 241.222C674.174 242.526 674.173 243.831 674.173 245.135C674.171 246.956 674.166 248.777 674.159 250.598C674.159 251.139 674.159 251.68 674.16 252.238C674.148 254.362 674.1 256.093 673.424 258.122C673 258.122 672.576 258.122 672.14 258.122C671.902 258.678 671.902 258.678 671.659 259.245C670.708 260.956 669.817 262.026 668.289 263.257C666.203 263.738 666.203 263.738 664.437 263.899C664.449 264.513 664.449 264.513 664.46 265.14C664.466 265.67 664.472 266.201 664.478 266.747C664.485 267.276 664.492 267.805 664.5 268.349C664.437 269.676 664.6 270.246 663.958 270.888C660.501 270.888 658.96 270.888 654.378 270.888C641.099 270.454 650.074 265.444 647.636 262.733C642.861 257.462 639.311 254.907 632.304 253.228C630.872 252.858 629.44 252.486 628.009 252.112C627.32 251.935 626.632 251.759 625.922 251.576C623.423 250.907 620.984 250.112 618.544 249.256C615.241 248.116 612.01 247.285 608.595 246.568C608.116 246.364 607.637 246.16 607.144 245.95C604.949 245.119 602.74 244.76 600.433 244.392C596.551 243.741 592.7 243.007 588.855 242.166C587.913 241.964 586.972 241.762 586.03 241.561C584.612 241.258 583.196 240.951 581.782 240.631C575.676 239.259 570.272 238.682 564.026 239.294C561.763 239.505 559.556 239.529 557.285 239.508C553.217 239.801 551.345 241.499 548.713 244.497C546.823 246.962 546.1 248.635 545.691 251.703C548.586 251.757 550.12 251.678 552.348 249.733C552.865 249.205 553.382 248.677 553.915 248.133C555.724 246.355 556.713 245.387 559.223 244.904C560.953 244.921 562.597 245.022 564.305 245.285C563.423 247.05 562.39 247.246 560.615 248.093C557.364 249.825 554.676 251.865 551.949 254.311C551.574 254.636 551.199 254.961 550.812 255.296C549.629 256.348 549.629 256.348 548.259 258.122C548.246 259.925 548.246 259.925 548.901 261.331C551.43 261.638 552.896 261.427 554.908 259.927C555.641 259.335 556.366 258.733 557.084 258.122C560.962 254.913 560.962 254.913 562.38 254.913C562.38 255.336 562.38 255.76 562.38 256.196C561.347 257.192 561.347 257.192 559.973 258.323C555.92 261.699 555.92 261.699 554.036 266.466C558.237 266.466 560.265 264.63 563.398 261.966C564.671 260.917 565.83 260.1 567.274 259.326C569.533 258.071 571.466 256.625 573.485 255.023C574.575 254.271 574.575 254.271 575.859 254.271C575.017 256.124 574.091 257.456 572.69 258.924C570.61 261.269 569.738 263.493 568.799 266.466C571.606 266.336 572.921 266.183 574.977 264.195C575.995 262.872 577.011 261.548 578.025 260.223C579.71 258.764 579.71 258.764 581.954 258.726C584.256 259.422 585.576 260.22 587.453 261.692C590.429 263.728 592.213 264.1 595.797 263.859C599.479 263.627 601.148 264.129 604.021 266.466C604.923 267.302 613.073 270.077 613.928 270.96C613.392 270.96 609.601 270.954 606.027 270.96C595.588 270.974 585.149 270.986 574.71 270.993C569.863 270.996 565.016 271.001 560.17 271.008C555.946 271.014 551.723 271.018 547.5 271.02C545.262 271.021 543.025 271.023 540.788 271.027C538.293 271.033 535.799 271.033 533.304 271.032C532.559 271.035 531.813 271.037 531.045 271.039C530.368 271.038 529.691 271.038 528.994 271.037C528.403 271.037 527.813 271.038 527.204 271.038C525.793 270.96 525.793 270.96 524.509 270.318C524.332 261.247 524.82 252.378 525.793 243.359C526.204 243.356 526.615 243.354 527.039 243.351C528.911 243.33 530.781 243.285 532.653 243.239C533.3 243.235 533.946 243.231 534.613 243.227C538.654 243.204 538.654 243.204 541.893 241.08C542.299 240.561 542.705 240.042 543.124 239.508C543.547 239.508 543.971 239.508 544.407 239.508C544.32 238.856 544.233 238.205 544.143 237.534C543.735 234.474 543.329 231.415 542.923 228.355C542.85 227.804 542.777 227.253 542.702 226.685C541.668 218.878 540.69 211.07 539.851 203.239C539.782 202.614 539.714 201.99 539.644 201.347C539.587 200.809 539.53 200.272 539.471 199.719C539.333 198.386 539.333 198.386 538.631 197.144C538.392 195.424 538.256 193.711 538.132 191.979C538.015 190.126 538.015 190.126 537.746 188.469C537.579 186.912 537.544 185.811 537.989 184.307C539.661 182.538 541.601 181.533 543.766 180.456C544.329 180.165 544.893 179.875 545.473 179.576C548.976 177.877 552.444 176.744 556.212 175.797C557.802 175.345 559.202 174.78 560.695 174.077C564.423 172.324 569.132 170.186 573.292 170.186C572.974 167.962 572.974 167.962 572.65 165.693C571.478 165.752 571.478 165.752 570.283 165.813C567.765 165.8 566.251 165.484 564.305 163.767C563.463 161.721 563.463 161.721 563.022 159.916C562.598 159.916 562.174 159.916 561.738 159.916C561.42 157.374 561.42 157.374 561.096 154.781C560.672 154.781 560.249 154.781 559.812 154.781C558.743 150.841 558.41 147.016 558.353 142.956C558.342 142.231 558.342 142.231 558.331 141.491C558.306 139.471 558.289 137.452 558.284 135.433C558.278 133.942 558.256 132.452 558.233 130.961C558.236 130.51 558.239 130.058 558.243 129.593C558.178 126.346 557.287 124.584 555.319 122.045C555.042 121.633 554.765 121.22 554.479 120.796C554.24 120.441 554.001 120.086 553.755 119.721C553.206 118.904 552.658 118.088 552.11 117.271C551.7 116.665 551.7 116.665 551.283 116.047C545.737 107.771 545.737 107.771 546.333 103.431C548.264 102.144 549.909 101.551 552.11 100.863C552.745 100.652 553.381 100.44 554.036 100.222C554.208 99.7847 554.38 99.3479 554.557 98.8977C556.502 94.0871 559.381 90.4135 564.787 90.3929Z" fill="#287AA3"/>
<path d="M576.95 239.118C577.405 239.211 577.86 239.304 578.33 239.399C579.794 239.699 581.256 240.005 582.719 240.312C584.233 240.624 585.747 240.934 587.261 241.244C588.262 241.449 589.262 241.655 590.262 241.861C594.854 242.805 599.458 243.674 604.074 244.488C606.434 244.92 608.417 245.419 610.52 246.57C611.583 246.864 612.654 247.128 613.729 247.372C617.954 248.39 622.103 249.613 626.249 250.908C628.668 251.659 631.007 252.337 633.5 252.806C640.671 254.203 644.915 258.91 649.815 264.005C650.812 265.033 651.837 266.013 652.881 266.992C654.167 268.393 654.284 268.942 654.284 270.867C648.297 271.002 642.158 270.867 636.17 270.93C633.388 270.96 630.536 270.864 627.755 270.93C625.067 270.993 622.486 270.852 619.797 270.867C618.776 270.878 617.755 270.898 616.735 270.93C611.442 271.086 607.596 271.055 603.377 267.4C602.873 266.87 602.369 266.34 601.849 265.794C599.223 263.738 596.645 264.395 593.468 264.635C590.23 264.499 588.366 263.052 585.871 261.095C583.711 259.74 582.263 259.362 579.71 259.407C577.936 260.869 577.936 260.869 576.501 262.897C574.976 264.901 574.976 264.901 573.291 266.468C570.844 266.691 570.844 266.691 568.798 266.468C568.994 262.553 570.905 260.383 573.291 257.482C574.148 256.412 575.004 255.343 575.859 254.272C574.964 254.923 574.964 254.923 574.051 255.586C573.25 256.165 572.448 256.743 571.647 257.321C571.256 257.606 570.865 257.89 570.462 258.184C568.506 259.591 566.555 260.903 564.448 262.075C562.84 262.995 561.728 263.733 560.454 265.024C558.13 266.766 556.873 266.752 554.035 266.468C554.285 262.995 555.357 261.545 557.846 259.167C558.421 258.606 558.997 258.045 559.589 257.467C561.096 256.198 561.096 255.586 562.38 255.586C562.38 255.162 562.38 255.351 562.38 254.914C560.895 255.97 559.411 257.026 557.927 258.083C557.292 258.535 557.292 258.535 556.644 258.995C554.612 260.379 554.612 260.379 552.752 261.975C550.866 262.095 550.866 262.095 548.9 261.975C548.477 261.551 548.053 261.127 547.617 260.691C547.843 257.323 549.521 255.891 551.861 253.668C555.459 250.565 559.321 247.871 563.663 245.928C561.423 245.542 559.479 245.461 557.245 245.928C555.459 247.299 553.953 248.819 552.37 250.419C550.701 251.809 549.992 252.1 547.857 252.066C547.142 251.947 546.428 251.828 545.691 251.705C545.447 249.28 545.469 248.172 546.887 246.141C547.406 245.607 547.925 245.074 548.459 244.524C549.23 243.716 549.23 243.716 550.016 242.892C550.495 242.411 550.974 241.93 551.468 241.435C551.755 241.097 552.041 240.759 552.337 240.41C553.697 239.25 554.58 239.189 556.35 239.04C556.928 238.989 557.507 238.937 558.103 238.884C558.707 238.839 559.311 238.793 559.933 238.747C560.524 238.694 561.115 238.642 561.724 238.588C566.979 238.144 571.765 238.042 576.95 239.118Z" fill="#F1BF9F"/>
<path d="M564.788 90.3929C565.433 90.3822 566.079 90.3714 566.744 90.3604C570.897 90.8315 574.27 92.9924 577.705 95.2471C578.096 95.4996 578.486 95.752 578.888 96.0121C581.164 97.5034 583.328 99.074 585.448 100.783C588.515 103.229 591.455 104.54 595.317 105.196C600.207 106.193 604.584 109.579 607.312 113.701C608.959 120.975 605.797 128.145 603.304 134.853C602.357 137.417 602.196 138.744 602.698 141.422C603.407 145.7 603.822 149.978 604.183 154.299C604.267 155.279 604.267 155.279 604.353 156.278C604.66 160.072 604.8 163.812 604.744 167.618C604.308 167.4 605.168 167.83 604.744 167.618V168.26C604.661 168.837 604.661 168.837 604.576 169.426C603.489 172.642 599.411 174.07 596.613 175.639C589.36 179.171 580.954 178.713 573.293 176.604C573.081 174.91 573.511 171.932 573.293 170.186C572.71 170.411 573.893 169.954 573.293 170.186C572.975 167.962 572.975 167.962 572.651 165.693C571.479 165.752 571.479 165.752 570.284 165.813C567.766 165.8 566.252 165.484 564.306 163.767C562.935 161.97 562.801 161.925 561.739 159.916C561.554 159.566 560.001 156.302 559.813 154.781C558.744 150.841 558.411 147.016 558.354 142.956C558.343 142.231 558.343 142.231 558.332 141.491C558.307 139.471 558.29 137.452 558.285 135.433C558.279 133.942 558.257 132.452 558.234 130.961C558.237 130.51 558.24 130.058 558.244 129.593C558.179 126.346 557.288 124.584 555.32 122.045C555.043 121.633 554.766 121.22 554.48 120.796C554.241 120.441 554.002 120.086 553.756 119.721C553.207 118.904 552.659 118.088 552.111 117.271C551.838 116.867 551.565 116.463 551.283 116.047C545.738 107.771 545.738 107.771 546.334 103.431C548.265 102.144 549.91 101.551 552.111 100.863C552.746 100.652 553.382 100.44 554.036 100.222C554.209 99.7847 554.381 99.3479 554.558 98.8977C556.503 94.0871 559.381 90.4135 564.788 90.3929Z" fill="#F0BE9D"/>
<path d="M564.788 90.3929C565.433 90.3822 566.078 90.3714 566.743 90.3604C570.897 90.8315 574.27 92.9924 577.705 95.2471C578.095 95.4996 578.486 95.752 578.888 96.0121C581.164 97.5034 583.328 99.074 585.448 100.783C588.515 103.229 591.455 104.54 595.317 105.196C599.68 106.085 603.154 108.838 606.191 111.996C608.312 115.222 607.893 118.984 607.312 122.687C604.808 133.342 604.808 133.342 601.535 135.525C601.041 132.749 600.915 130.281 601.053 127.461C601.077 125.053 600.965 123.544 599.489 121.604C597.843 120.019 597.843 120.019 595.999 119.759C594.211 120.182 593.689 120.631 592.549 122.045C592.229 123.277 592.229 123.277 592.22 124.62C592.186 125.349 592.186 125.349 592.151 126.093C592.137 126.598 592.122 127.102 592.107 127.622C592.085 128.133 592.063 128.645 592.041 129.172C591.988 130.434 591.946 131.695 591.907 132.957C591.059 132.957 590.212 132.957 589.339 132.957C589.344 132.229 589.344 132.229 589.349 131.486C589.363 129.275 589.371 127.064 589.379 124.853C589.387 123.708 589.387 123.708 589.396 122.539C589.399 121.428 589.399 121.428 589.402 120.295C589.407 119.277 589.407 119.277 589.412 118.238C589.338 116.247 589.068 114.373 588.697 112.417C588.088 112.589 587.479 112.761 586.852 112.939C586.436 113.054 586.02 113.17 585.591 113.289C584.663 113.565 583.742 113.869 582.832 114.201C577.637 116.012 572.782 115.693 567.355 115.382C565.419 115.323 563.649 115.3 561.739 115.627C559.735 117.651 558.885 119.455 558.69 122.286C558.637 123.054 558.584 123.822 558.529 124.613C558.106 124.613 557.682 124.613 557.246 124.613C556.181 123.298 555.202 121.987 554.237 120.601C553.953 120.196 553.669 119.79 553.376 119.372C546.111 108.885 546.111 108.885 545.933 105.276C546.334 103.431 546.334 103.431 548.259 102.147C549.535 101.695 550.819 101.267 552.111 100.863C552.746 100.652 553.382 100.44 554.036 100.222C554.208 99.7847 554.38 99.3479 554.558 98.8977C556.503 94.0871 559.381 90.4135 564.788 90.3929Z" fill="#2D334B"/>
<path d="M646.431 187.697C646.947 187.692 647.463 187.687 647.994 187.682C649.089 187.673 650.185 187.666 651.28 187.661C652.945 187.65 654.61 187.622 656.275 187.593C657.34 187.587 658.405 187.581 659.469 187.577C659.964 187.566 660.458 187.554 660.967 187.543C664.969 187.559 667.664 188.67 670.67 191.421C673.632 195.272 674.255 197.657 674.223 202.518C674.224 203.091 674.225 203.665 674.227 204.255C674.229 206.149 674.222 208.043 674.215 209.937C674.214 211.253 674.214 212.568 674.214 213.884C674.213 216.641 674.208 219.397 674.199 222.154C674.188 225.691 674.186 229.228 674.186 232.765C674.186 235.481 674.183 238.198 674.178 240.914C674.176 242.218 674.175 243.523 674.174 244.827C674.173 246.648 674.167 248.469 674.16 250.29C674.161 250.831 674.161 251.372 674.161 251.93C674.149 254.054 674.094 256.127 673.417 258.156C672.994 258.156 673.854 258.156 673.417 258.156C672.467 259.867 669.852 262.019 668.324 263.25C666.238 263.731 666.234 263.732 664.469 263.892C663.744 261.718 663.685 259.688 663.639 257.396C663.618 256.53 663.597 255.665 663.575 254.799C663.545 253.448 663.517 252.096 663.491 250.744C663.39 245.642 663.107 240.704 662.168 235.672C661.821 233.789 661.637 231.923 661.51 230.013C661.309 227.272 659.736 224.584 659.304 221.869C659.187 221.505 659.071 221.14 658.95 220.764C658.184 218.41 657.391 216.123 656.416 213.846C655.449 211.591 654.71 209.338 654.006 206.991C653.625 205.695 651.694 203.797 651.694 203.797C651.513 203.34 651.881 204.267 651.694 203.797C650.805 201.587 649.552 199.737 648.192 197.799C647.827 197.264 647.827 197.264 647.456 196.719C645.824 194.372 644.012 192.412 641.973 190.418C641.55 189.782 640.867 187.894 640.431 187.24C641.915 186.869 644.644 187.714 646.431 187.697Z" fill="#4E4E4F"/>
<path d="M522.675 114.87L336.266 125.201C332.893 125.387 330.4 128.416 330.864 131.762L346.127 241.791C346.526 244.669 349.001 246.803 351.907 246.773L538.677 244.902C542.145 244.868 544.8 241.808 544.347 238.371L528.722 119.882C528.327 116.887 525.691 114.702 522.675 114.87Z" fill="#D9D9D9"/>
<path d="M432.113 190.185L429.54 188.982L408.646 270.927H417.84H475.685V267.298C475.654 264.223 474.432 263.797 471.663 263.668H424.736L421.48 259.083L432.113 190.185Z" fill="#EFEFF0"/>
<path d="M429.554 188.969H407.144L376.977 256.592C373.667 264.017 373.365 267.328 376.977 270.919H418.349C414 268.461 413.326 266.043 414.039 260.603L429.554 188.969Z" fill="#999998"/>
<g filter="url(#filter2_d_6082_7143)">
<path d="M466.81 45.1751C466.81 20.2202 487.04 -0.00976562 511.994 -0.00976562C536.949 -0.00976562 557.179 20.2202 557.179 45.1751C557.179 70.13 536.949 90.36 511.994 90.36C487.04 90.36 466.81 70.13 466.81 45.1751Z" fill="#F9FAFC"/>
<path d="M511.994 0.416992C536.713 0.416992 556.753 20.4557 556.753 45.1748C556.753 69.8941 536.713 89.9336 511.994 89.9336C487.275 89.9334 467.236 69.894 467.236 45.1748C467.236 20.4558 487.275 0.417155 511.994 0.416992Z" stroke="#8B8B8B" stroke-opacity="0.1" stroke-width="0.853331"/>
<path d="M515.083 32.8879L508.588 44.1602H508.544L502.115 32.998L515.083 32.8879Z" fill="#83FF50" stroke="#83FF50" stroke-width="0.194464" stroke-miterlimit="5.3333"/>
<mask id="mask0_6082_7143" style="mask-type:luminance" maskUnits="userSpaceOnUse" x="484" y="19" width="36" height="16">
<path d="M519.502 34.915H484.629V19.5698H519.502V34.915Z" fill="white"/>
</mask>
<g mask="url(#mask0_6082_7143)">
<g opacity="0.83">
<path d="M515.138 32.82L515.116 32.864H515.094V32.886L502.104 32.9961V32.9741H489.093L489.005 32.82L495.544 21.5037H508.621L515.138 32.82Z" fill="#96FF5B" fill-opacity="0.6471"/>
</g>
</g>
<path d="M515.112 32.8674L508.617 44.1406H508.595L515.09 32.8674H515.112Z" fill="white"/>
<path d="M508.624 44.3048L508.602 44.3489L502.086 55.6211H489.03L482.491 44.3048L489.03 32.9885H489.096L495.525 44.1507H508.536L508.624 44.3048Z" fill="#00D6FF" stroke="#00D6FF" stroke-width="0.194464" stroke-miterlimit="5.3333"/>
<path d="M508.534 44.1484H495.544L489.094 32.9863H502.105L508.534 44.1484Z" fill="#7DFFFF" stroke="#7DFFFF" stroke-width="0.194464" stroke-miterlimit="5.3333"/>
<path d="M515.179 55.3407L515.289 55.5169H515.091L510.137 55.5609L502.102 55.627L508.618 44.3547H521.542L515.179 55.3407Z" fill="#32E6FF" stroke="#32E6FF" stroke-width="0.194464" stroke-miterlimit="5.3333"/>
<mask id="mask1_6082_7143" style="mask-type:luminance" maskUnits="userSpaceOnUse" x="498" y="40" width="28" height="31">
<path d="M525.134 70.7812H498.736V40.5752H525.134V70.7812Z" fill="white"/>
</mask>
<g mask="url(#mask1_6082_7143)">
<g opacity="0.86">
<path d="M521.84 66.6698L521.642 67H508.587L502.048 55.6837L502.07 55.6397L508.587 44.3674H508.609L502.092 55.6177L510.128 55.5516L515.103 55.5076H515.302L521.708 66.6698H521.84Z" fill="#00D5FF" fill-opacity="0.5451"/>
</g>
</g>
<path d="M515.178 55.3414L515.288 55.5176H515.09L508.661 44.3554H521.541L515.178 55.3414Z" fill="#20E6FF" stroke="#20E6FF" stroke-width="0.194464" stroke-miterlimit="5.3333"/>
<path d="M528.099 55.5176H515.286L515.176 55.3414L521.516 44.3554H521.649L528.099 55.5176Z" fill="#2AF0FF" stroke="#2AF0FF" stroke-width="0.194464" stroke-miterlimit="5.3333"/>
<mask id="mask2_6082_7143" style="mask-type:luminance" maskUnits="userSpaceOnUse" x="513" y="53" width="18" height="16">
<path d="M530.353 68.5352H513.136V53.674H530.353V68.5352Z" fill="white"/>
</mask>
<g mask="url(#mask2_6082_7143)">
<g opacity="0.95">
<path d="M528.185 55.6761L521.844 66.6621H521.712L515.283 55.522H528.097L528.185 55.6761Z" fill="#29EFFF" fill-opacity="0.8"/>
</g>
</g>
<path d="M534.702 44.1954L528.164 55.5117H528.098L521.669 44.3496H508.657L508.569 44.1954L508.591 44.1514L515.086 32.8792V32.8571H528.164L534.592 43.9973L534.702 44.1954Z" fill="#32F8B9" stroke="#32F8B9" stroke-width="0.194464" stroke-miterlimit="5.3333"/>
<mask id="mask3_6082_7143" style="mask-type:luminance" maskUnits="userSpaceOnUse" x="518" y="40" width="27" height="31">
<path d="M544.511 70.7793H518.378V40.3751H544.511V70.7793Z" fill="white"/>
</mask>
<g mask="url(#mask3_6082_7143)">
<g opacity="0.85">
<path d="M541.23 55.4988L534.691 66.8151L521.636 66.9912L528.108 55.829L528.02 55.6749H528.086L534.625 44.3587L534.515 44.1825H534.713L541.23 55.4988Z" fill="#32F6B8" fill-opacity="0.5647"/>
</g>
</g>
</g>
<g filter="url(#filter3_d_6082_7143)">
<rect x="712.228" y="122.621" width="215.447" height="73.377" rx="36.6885" fill="white"/>
<g filter="url(#filter4_d_6082_7143)">
<rect x="723.156" y="135.111" width="48.3976" height="48.3976" rx="24.1988" fill="#F9FAFC"/>
<rect x="723.937" y="135.892" width="46.8364" height="46.8364" rx="23.4182" stroke="#8B8B8B" stroke-opacity="0.1" stroke-width="1.56121"/>
<g clip-path="url(#clip2_6082_7143)">
<path d="M747.691 145.26C739.746 145.26 733.303 151.701 733.303 159.648C733.303 166.005 737.425 171.398 743.142 173.301C743.861 173.434 744.125 172.989 744.125 172.609C744.125 172.266 744.112 171.132 744.106 169.93C740.103 170.8 739.258 168.232 739.258 168.232C738.604 166.569 737.661 166.127 737.661 166.127C736.355 165.234 737.759 165.252 737.759 165.252C739.204 165.354 739.965 166.735 739.965 166.735C741.248 168.935 743.331 168.299 744.152 167.931C744.281 167.001 744.654 166.367 745.065 166.007C741.869 165.643 738.51 164.41 738.51 158.897C738.51 157.326 739.072 156.042 739.992 155.035C739.843 154.672 739.351 153.209 740.132 151.227C740.132 151.227 741.34 150.84 744.09 152.702C745.237 152.383 746.468 152.223 747.691 152.218C748.914 152.223 750.146 152.383 751.295 152.702C754.042 150.84 755.248 151.227 755.248 151.227C756.031 153.209 755.539 154.672 755.389 155.035C756.312 156.042 756.87 157.326 756.87 158.897C756.87 164.423 753.504 165.64 750.3 165.996C750.816 166.442 751.276 167.318 751.276 168.66C751.276 170.586 751.259 172.135 751.259 172.609C751.259 172.992 751.518 173.44 752.248 173.299C757.962 171.394 762.079 166.003 762.079 159.648C762.079 151.701 755.637 145.26 747.691 145.26ZM738.692 165.756C738.66 165.828 738.547 165.849 738.445 165.8C738.341 165.753 738.282 165.656 738.316 165.584C738.347 165.51 738.46 165.49 738.564 165.539C738.668 165.586 738.728 165.684 738.692 165.756ZM739.399 166.388C739.331 166.451 739.197 166.422 739.106 166.321C739.011 166.221 738.994 166.087 739.063 166.022C739.134 165.959 739.264 165.988 739.359 166.089C739.453 166.19 739.471 166.323 739.399 166.388ZM739.885 167.196C739.797 167.257 739.653 167.199 739.563 167.072C739.475 166.944 739.475 166.79 739.565 166.729C739.655 166.667 739.797 166.722 739.887 166.849C739.975 166.98 739.975 167.133 739.885 167.196ZM740.706 168.131C740.627 168.218 740.459 168.195 740.336 168.076C740.21 167.96 740.175 167.796 740.255 167.709C740.334 167.622 740.503 167.646 740.627 167.764C740.752 167.88 740.79 168.045 740.706 168.131ZM741.767 168.447C741.732 168.56 741.571 168.611 741.408 168.563C741.245 168.514 741.139 168.382 741.171 168.268C741.205 168.155 741.368 168.101 741.532 168.153C741.694 168.202 741.801 168.333 741.767 168.447ZM742.975 168.581C742.979 168.7 742.841 168.798 742.67 168.801C742.498 168.804 742.359 168.708 742.357 168.592C742.357 168.472 742.492 168.374 742.664 168.371C742.835 168.368 742.975 168.463 742.975 168.581ZM744.162 168.536C744.182 168.652 744.063 168.771 743.893 168.802C743.726 168.833 743.572 168.761 743.55 168.646C743.53 168.528 743.651 168.409 743.817 168.378C743.988 168.349 744.14 168.418 744.162 168.536Z" fill="#161614"/>
</g>
</g>
<g filter="url(#filter5_d_6082_7143)">
<rect x="795.753" y="135.111" width="48.3976" height="48.3976" rx="24.1988" fill="#F9FAFC"/>
<rect x="796.534" y="135.892" width="46.8364" height="46.8364" rx="23.4182" stroke="#8B8B8B" stroke-opacity="0.1" stroke-width="1.56121"/>
<path d="M823.1 149.37C823.308 149.429 823.504 149.528 823.674 149.662C823.845 149.795 823.987 149.962 824.093 150.151C824.2 150.34 824.268 150.548 824.293 150.763C824.319 150.978 824.302 151.196 824.244 151.405L819.37 168.77C819.252 169.191 818.971 169.549 818.589 169.763C818.208 169.977 817.757 170.031 817.335 169.913C816.914 169.795 816.557 169.514 816.342 169.133C816.128 168.751 816.074 168.3 816.192 167.879L821.066 150.512C821.124 150.303 821.223 150.108 821.357 149.938C821.491 149.767 821.658 149.625 821.847 149.519C822.035 149.413 822.244 149.345 822.459 149.319C822.674 149.294 822.892 149.31 823.101 149.369L823.1 149.37ZM815.334 153.808C815.643 154.118 815.817 154.537 815.817 154.974C815.817 155.412 815.643 155.831 815.334 156.14L811.836 159.642L815.336 163.142C815.646 163.451 815.819 163.871 815.819 164.308C815.819 164.746 815.645 165.166 815.336 165.475C815.026 165.784 814.606 165.958 814.169 165.958C813.731 165.958 813.312 165.784 813.002 165.475L808.335 160.807C808.026 160.498 807.853 160.079 807.853 159.642C807.853 159.204 808.026 158.785 808.335 158.476L813.001 153.808C813.154 153.655 813.336 153.534 813.536 153.451C813.737 153.368 813.951 153.325 814.168 153.325C814.385 153.325 814.599 153.368 814.8 153.451C815 153.534 815.181 153.655 815.334 153.808ZM825.102 156.14C824.939 155.989 824.809 155.807 824.719 155.605C824.629 155.402 824.581 155.184 824.577 154.962C824.573 154.741 824.613 154.521 824.696 154.315C824.779 154.11 824.903 153.923 825.06 153.767C825.216 153.61 825.403 153.486 825.608 153.403C825.814 153.32 826.034 153.28 826.255 153.284C826.477 153.288 826.695 153.336 826.898 153.426C827.1 153.516 827.282 153.646 827.433 153.808L832.1 158.474C832.41 158.784 832.584 159.203 832.584 159.641C832.584 160.078 832.41 160.498 832.1 160.807L827.435 165.475C827.281 165.628 827.099 165.749 826.899 165.832C826.699 165.915 826.485 165.958 826.268 165.958C826.051 165.958 825.837 165.916 825.636 165.833C825.436 165.75 825.254 165.628 825.101 165.475C824.948 165.322 824.826 165.14 824.743 164.94C824.66 164.74 824.617 164.525 824.617 164.308C824.617 164.092 824.66 163.877 824.743 163.677C824.826 163.477 824.947 163.295 825.1 163.142L828.6 159.642L825.102 156.14Z" fill="black"/>
</g>
<g filter="url(#filter6_d_6082_7143)">
<path d="M868.349 159.31C868.349 145.945 879.183 135.111 892.547 135.111C905.912 135.111 916.746 145.945 916.746 159.31C916.746 172.675 905.912 183.509 892.547 183.509C879.183 183.509 868.349 172.675 868.349 159.31Z" fill="#F9FAFC"/>
<path d="M892.548 135.892C905.481 135.892 915.966 146.377 915.966 159.311C915.966 172.244 905.481 182.728 892.548 182.729C879.614 182.729 869.129 172.244 869.129 159.311C869.129 146.377 879.614 135.892 892.548 135.892Z" stroke="#8B8B8B" stroke-opacity="0.1" stroke-width="1.56121"/>
<path d="M880.23 160.607C879.513 159.891 879.513 158.729 880.23 158.012L891.25 146.992C891.967 146.275 893.129 146.275 893.846 146.992L904.866 158.012C905.583 158.729 905.583 159.891 904.866 160.607L893.846 171.628C893.129 172.344 891.967 172.344 891.25 171.628L880.23 160.607Z" fill="#EE513B"/>
<path d="M889.01 149.266L887.895 150.382L890.777 153.264C890.66 153.514 890.595 153.793 890.595 154.087C890.595 154.923 891.12 155.635 891.858 155.914V162.964C891.12 163.243 890.595 163.955 890.595 164.791C890.595 165.868 891.469 166.742 892.546 166.742C893.624 166.742 894.498 165.868 894.498 164.791C894.498 164.033 894.066 163.377 893.436 163.054V155.923L896.191 158.678C896.08 158.923 896.019 159.196 896.019 159.482C896.019 160.56 896.892 161.433 897.97 161.433C899.048 161.433 899.921 160.56 899.921 159.482C899.921 158.404 899.048 157.531 897.97 157.531C897.76 157.531 897.559 157.564 897.37 157.625L894.411 154.666C894.467 154.483 894.498 154.289 894.498 154.087C894.498 153.01 893.624 152.136 892.546 152.136C892.345 152.136 892.151 152.166 891.968 152.223L889.01 149.266Z" fill="white"/>
</g>
</g>
</g>
<defs>
<filter id="filter0_d_6082_7143" x="173.586" y="19.7672" width="677.033" height="615.593" filterUnits="userSpaceOnUse" color-interpolation-filters="sRGB">
<feFlood flood-opacity="0" result="BackgroundImageFix"/>
<feColorMatrix in="SourceAlpha" type="matrix" values="0 0 0 0 0 0 0 0 0 0 0 0 0 0 0 0 0 0 127 0" result="hardAlpha"/>
<feMorphology radius="2.55999" operator="dilate" in="SourceAlpha" result="effect1_dropShadow_6082_7143"/>
<feOffset/>
<feGaussianBlur stdDeviation="4.13865"/>
<feComposite in2="hardAlpha" operator="out"/>
<feColorMatrix type="matrix" values="0 0 0 0 0 0 0 0 0 0 0 0 0 0 0 0 0 0 0.05 0"/>
<feBlend mode="normal" in2="BackgroundImageFix" result="effect1_dropShadow_6082_7143"/>
<feBlend mode="normal" in="SourceGraphic" in2="effect1_dropShadow_6082_7143" result="shape"/>
</filter>
<filter id="filter1_d_6082_7143" x="92.9644" y="97.9722" width="201.818" height="122.674" filterUnits="userSpaceOnUse" color-interpolation-filters="sRGB">
<feFlood flood-opacity="0" result="BackgroundImageFix"/>
<feColorMatrix in="SourceAlpha" type="matrix" values="0 0 0 0 0 0 0 0 0 0 0 0 0 0 0 0 0 0 127 0" result="hardAlpha"/>
<feOffset/>
<feGaussianBlur stdDeviation="1.35571"/>
<feComposite in2="hardAlpha" operator="out"/>
<feColorMatrix type="matrix" values="0 0 0 0 0 0 0 0 0 0 0 0 0 0 0 0 0 0 0.1 0"/>
<feBlend mode="normal" in2="BackgroundImageFix" result="effect1_dropShadow_6082_7143"/>
<feBlend mode="normal" in="SourceGraphic" in2="effect1_dropShadow_6082_7143" result="shape"/>
</filter>
<filter id="filter2_d_6082_7143" x="456.624" y="-10.1953" width="110.741" height="110.741" filterUnits="userSpaceOnUse" color-interpolation-filters="sRGB">
<feFlood flood-opacity="0" result="BackgroundImageFix"/>
<feColorMatrix in="SourceAlpha" type="matrix" values="0 0 0 0 0 0 0 0 0 0 0 0 0 0 0 0 0 0 127 0" result="hardAlpha"/>
<feMorphology radius="3.01232" operator="erode" in="SourceAlpha" result="effect1_dropShadow_6082_7143"/>
<feOffset/>
<feGaussianBlur stdDeviation="6.59893"/>
<feComposite in2="hardAlpha" operator="out"/>
<feColorMatrix type="matrix" values="0 0 0 0 0 0 0 0 0 0 0 0 0 0 0 0 0 0 0.05 0"/>
<feBlend mode="normal" in2="BackgroundImageFix" result="effect1_dropShadow_6082_7143"/>
<feBlend mode="normal" in="SourceGraphic" in2="effect1_dropShadow_6082_7143" result="shape"/>
</filter>
<filter id="filter3_d_6082_7143" x="709.339" y="119.733" width="221.224" height="79.1534" filterUnits="userSpaceOnUse" color-interpolation-filters="sRGB">
<feFlood flood-opacity="0" result="BackgroundImageFix"/>
<feColorMatrix in="SourceAlpha" type="matrix" values="0 0 0 0 0 0 0 0 0 0 0 0 0 0 0 0 0 0 127 0" result="hardAlpha"/>
<feOffset/>
<feGaussianBlur stdDeviation="1.44412"/>
<feComposite in2="hardAlpha" operator="out"/>
<feColorMatrix type="matrix" values="0 0 0 0 0 0 0 0 0 0 0 0 0 0 0 0 0 0 0.1 0"/>
<feBlend mode="normal" in2="BackgroundImageFix" result="effect1_dropShadow_6082_7143"/>
<feBlend mode="normal" in="SourceGraphic" in2="effect1_dropShadow_6082_7143" result="shape"/>
</filter>
<filter id="filter4_d_6082_7143" x="714.619" y="126.575" width="65.4711" height="65.4711" filterUnits="userSpaceOnUse" color-interpolation-filters="sRGB">
<feFlood flood-opacity="0" result="BackgroundImageFix"/>
<feColorMatrix in="SourceAlpha" type="matrix" values="0 0 0 0 0 0 0 0 0 0 0 0 0 0 0 0 0 0 127 0" result="hardAlpha"/>
<feMorphology radius="2.01657" operator="dilate" in="SourceAlpha" result="effect1_dropShadow_6082_7143"/>
<feOffset/>
<feGaussianBlur stdDeviation="3.26011"/>
<feComposite in2="hardAlpha" operator="out"/>
<feColorMatrix type="matrix" values="0 0 0 0 0 0 0 0 0 0 0 0 0 0 0 0 0 0 0.05 0"/>
<feBlend mode="normal" in2="BackgroundImageFix" result="effect1_dropShadow_6082_7143"/>
<feBlend mode="normal" in="SourceGraphic" in2="effect1_dropShadow_6082_7143" result="shape"/>
</filter>
<filter id="filter5_d_6082_7143" x="787.216" y="126.575" width="65.4711" height="65.4711" filterUnits="userSpaceOnUse" color-interpolation-filters="sRGB">
<feFlood flood-opacity="0" result="BackgroundImageFix"/>
<feColorMatrix in="SourceAlpha" type="matrix" values="0 0 0 0 0 0 0 0 0 0 0 0 0 0 0 0 0 0 127 0" result="hardAlpha"/>
<feMorphology radius="2.01657" operator="dilate" in="SourceAlpha" result="effect1_dropShadow_6082_7143"/>
<feOffset/>
<feGaussianBlur stdDeviation="3.26011"/>
<feComposite in2="hardAlpha" operator="out"/>
<feColorMatrix type="matrix" values="0 0 0 0 0 0 0 0 0 0 0 0 0 0 0 0 0 0 0.05 0"/>
<feBlend mode="normal" in2="BackgroundImageFix" result="effect1_dropShadow_6082_7143"/>
<feBlend mode="normal" in="SourceGraphic" in2="effect1_dropShadow_6082_7143" result="shape"/>
</filter>
<filter id="filter6_d_6082_7143" x="858.897" y="125.66" width="67.3004" height="67.3004" filterUnits="userSpaceOnUse" color-interpolation-filters="sRGB">
<feFlood flood-opacity="0" result="BackgroundImageFix"/>
<feColorMatrix in="SourceAlpha" type="matrix" values="0 0 0 0 0 0 0 0 0 0 0 0 0 0 0 0 0 0 127 0" result="hardAlpha"/>
<feMorphology radius="2.23263" operator="dilate" in="SourceAlpha" result="effect1_dropShadow_6082_7143"/>
<feOffset/>
<feGaussianBlur stdDeviation="3.60941"/>
<feComposite in2="hardAlpha" operator="out"/>
<feColorMatrix type="matrix" values="0 0 0 0 0 0 0 0 0 0 0 0 0 0 0 0 0 0 0.05 0"/>
<feBlend mode="normal" in2="BackgroundImageFix" result="effect1_dropShadow_6082_7143"/>
<feBlend mode="normal" in="SourceGraphic" in2="effect1_dropShadow_6082_7143" result="shape"/>
</filter>
<clipPath id="clip0_6082_7143">
<rect x="-0.00390625" y="-0.00976562" width="1024" height="283.306" rx="13.6533" fill="white"/>
</clipPath>
<clipPath id="clip1_6082_7143">
<rect x="95.6758" y="100.684" width="196.395" height="117.251" rx="29.3127" fill="white"/>
</clipPath>
<clipPath id="clip2_6082_7143">
<rect width="28.7763" height="28.1018" fill="white" transform="translate(733.303 145.26)"/>
</clipPath>
</defs>
</svg>
