<svg width="1201" height="333" viewBox="0 0 1201 333" fill="none" xmlns="http://www.w3.org/2000/svg">
<g clip-path="url(#clip0_5634_6959)">
<g filter="url(#filter0_d_5634_6959)">
<rect x="217" y="36.6113" width="768" height="696" rx="348" fill="#E8F7FE"/>
<rect x="217.5" y="37.1113" width="767" height="695" rx="347.5" stroke="#00D6FF" stroke-opacity="0.08"/>
</g>
<g filter="url(#filter1_d_5634_6959)">
<rect x="113" y="118.735" width="230.151" height="137.404" rx="34.351" fill="white"/>
<rect x="134.469" y="136.77" width="17.1738" height="17.1738" rx="2.45339" fill="#B7892D"/>
<path d="M139.063 148.346C139.063 148.346 139.062 139.545 139.063 143.226C139.063 146.907 141.115 146.428 145.443 146.428" stroke="white" stroke-width="0.920023"/>
<circle cx="139.062" cy="140.716" r="1.59245" stroke="white" stroke-width="0.920023"/>
<circle cx="139.062" cy="149.997" r="1.59245" stroke="white" stroke-width="0.920023"/>
<circle cx="147.049" cy="146.16" r="1.59245" stroke="white" stroke-width="0.920023"/>
<rect x="159.803" y="136.34" width="157.156" height="102.194" rx="3.86448" stroke="#B7892D" stroke-width="0.858774"/>
<path d="M175.636 146.323C171.868 146.323 168.873 149.318 168.873 153.086C168.873 156.854 171.868 159.849 175.636 159.849C179.404 159.849 182.399 156.854 182.399 153.086C182.399 149.318 179.404 146.323 175.636 146.323ZM178.244 156.468L175.636 153.859L173.027 156.468L172.254 155.695L174.863 153.086L172.254 150.478L173.027 149.705L175.636 152.313L178.244 149.705L179.017 150.478L176.409 153.086L179.017 155.695L178.244 156.468Z" fill="#BE3536"/>
<rect x="187.659" y="146.217" width="106.917" height="6.6555" rx="0.858774" fill="#EE9B9C"/>
<rect x="187.659" y="155.448" width="64.6227" height="4.50856" rx="0.858774" fill="#DFDFDF"/>
<rect x="167.907" y="220.839" width="64.6227" height="9.27954" rx="0.858774" fill="#DFDFDF"/>
<rect x="279.207" y="220.839" width="31.0853" height="9.27954" rx="0.858774" fill="#DFDFDF"/>
<rect x="267.43" y="220.839" width="9.28381" height="9.27954" rx="0.858774" fill="#DFDFDF"/>
<path fill-rule="evenodd" clip-rule="evenodd" d="M175.635 174.028L177.536 175.929C177.637 176.03 177.774 176.087 177.917 176.087C178.059 176.087 178.196 176.03 178.297 175.929C178.398 175.828 178.455 175.691 178.455 175.549C178.455 175.406 178.398 175.269 178.297 175.168L176.395 173.267L178.297 171.365C178.347 171.315 178.386 171.256 178.413 171.191C178.44 171.126 178.454 171.056 178.454 170.985C178.454 170.914 178.44 170.844 178.413 170.779C178.386 170.714 178.347 170.655 178.297 170.605C178.247 170.555 178.187 170.515 178.122 170.488C178.057 170.461 177.987 170.447 177.916 170.447C177.846 170.447 177.776 170.461 177.71 170.488C177.645 170.515 177.586 170.555 177.536 170.605L175.635 172.506L173.733 170.605C173.684 170.553 173.625 170.512 173.559 170.484C173.493 170.456 173.423 170.441 173.351 170.44C173.28 170.44 173.209 170.453 173.143 170.48C173.077 170.507 173.017 170.547 172.966 170.598C172.916 170.648 172.876 170.708 172.849 170.774C172.822 170.84 172.808 170.911 172.809 170.983C172.809 171.054 172.824 171.125 172.852 171.19C172.88 171.256 172.921 171.315 172.973 171.365L174.875 173.267L172.973 175.169C172.922 175.218 172.881 175.278 172.853 175.343C172.824 175.409 172.81 175.479 172.809 175.551C172.808 175.622 172.822 175.693 172.849 175.759C172.876 175.825 172.916 175.885 172.967 175.936C173.017 175.986 173.077 176.026 173.143 176.053C173.209 176.08 173.28 176.094 173.352 176.093C173.423 176.092 173.494 176.078 173.559 176.049C173.625 176.021 173.684 175.98 173.734 175.929L175.635 174.028Z" fill="#BE3536"/>
<rect x="187.659" y="171.014" width="94.0181" height="4.50856" rx="0.858774" fill="#DFDFDF"/>
<circle cx="175.636" cy="189.154" r="2.8288" fill="#CFA700"/>
<rect x="187.659" y="186.9" width="110.988" height="4.50856" rx="0.858774" fill="#CFA700"/>
<path fill-rule="evenodd" clip-rule="evenodd" d="M178.342 203.146C178.421 203.226 178.466 203.334 178.466 203.446C178.466 203.559 178.421 203.667 178.342 203.746L175.159 206.93C175.116 206.972 175.066 207.005 175.012 207.028C174.957 207.051 174.898 207.062 174.838 207.062C174.779 207.062 174.72 207.051 174.665 207.028C174.61 207.005 174.56 206.972 174.518 206.93L172.936 205.348C172.896 205.309 172.863 205.262 172.841 205.211C172.819 205.159 172.807 205.103 172.807 205.047C172.806 204.99 172.817 204.934 172.838 204.882C172.86 204.83 172.891 204.782 172.931 204.743C172.971 204.703 173.018 204.671 173.071 204.65C173.123 204.628 173.179 204.618 173.235 204.618C173.291 204.619 173.347 204.63 173.399 204.653C173.451 204.675 173.498 204.707 173.537 204.748L174.838 206.049L177.741 203.146C177.78 203.107 177.827 203.075 177.879 203.054C177.93 203.032 177.985 203.021 178.041 203.021C178.097 203.021 178.152 203.032 178.204 203.054C178.255 203.075 178.302 203.107 178.342 203.146Z" fill="#5AC41A"/>
<rect x="187.659" y="202.788" width="94.0181" height="4.50856" rx="0.858774" fill="#5AC41A"/>
<path d="M155.06 145.014L159.089 141.984L159.776 141.467L159.776 149.247L159.089 148.729L155.06 145.7L154.603 145.357L155.06 145.014Z" stroke="#B7892D" stroke-width="0.858774"/>
<path d="M160.503 141.452L155.317 145.368L160.448 149.261L160.503 141.452Z" fill="white"/>
<path d="M139.889 193.458L113 173.169V213.746L139.889 193.458Z" fill="#FFD2D3"/>
</g>
<rect x="126.611" y="318.163" width="940" height="14.5274" fill="#A47C52"/>
<path d="M579.372 280.963C579.906 281.072 580.439 281.18 580.989 281.293C582.705 281.643 584.419 282.002 586.133 282.361C587.907 282.727 589.681 283.091 591.456 283.454C592.628 283.695 593.8 283.936 594.973 284.177C600.353 285.284 605.749 286.302 611.159 287.256C613.924 287.762 616.248 288.347 618.712 289.695C619.958 290.04 621.213 290.35 622.473 290.636C627.424 291.828 632.286 293.261 637.145 294.78C639.98 295.659 642.72 296.453 645.641 297.003C654.046 298.641 659.019 304.156 664.761 310.128C665.929 311.332 667.131 312.48 668.354 313.628C669.862 315.27 669.862 315.27 669.862 317.527C662.845 317.684 655.83 317.804 648.812 317.877C645.553 317.913 642.294 317.96 639.036 318.037C635.885 318.111 632.735 318.151 629.584 318.169C628.387 318.181 627.191 318.206 625.995 318.242C619.792 318.426 615.285 318.389 610.342 314.106C609.751 313.485 609.16 312.864 608.551 312.224C605.473 309.814 602.453 310.584 598.729 310.866C594.935 310.706 592.75 309.011 589.826 306.717C587.295 305.13 585.598 304.686 582.607 304.739C580.528 306.452 580.528 306.452 578.846 308.829C577.059 311.177 577.059 311.177 575.085 313.013C572.217 313.275 572.217 313.275 569.82 313.013C570.049 308.426 572.288 305.882 575.085 302.483C576.089 301.23 577.092 299.976 578.094 298.722C577.045 299.484 577.045 299.484 575.975 300.261C575.036 300.939 574.097 301.617 573.157 302.295C572.699 302.628 572.241 302.962 571.769 303.305C569.477 304.954 567.19 306.493 564.722 307.866C562.837 308.944 561.534 309.809 560.041 311.321C557.318 313.363 555.844 313.346 552.519 313.013C552.811 308.944 554.068 307.245 556.985 304.457C557.659 303.8 558.333 303.142 559.027 302.465C560.793 300.978 560.793 300.261 562.298 300.261C562.298 299.765 562.298 299.985 562.298 299.474C560.558 300.711 558.818 301.949 557.079 303.188C556.335 303.717 556.335 303.717 555.576 304.256C553.195 305.878 553.195 305.878 551.015 307.748C548.805 307.889 548.805 307.889 546.502 307.748C546.005 307.252 545.509 306.755 544.997 306.244C545.262 302.297 547.229 300.619 549.972 298.014C554.187 294.378 558.713 291.22 563.802 288.943C561.176 288.491 558.898 288.396 556.28 288.943C554.187 290.55 552.422 292.331 550.568 294.206C548.611 295.835 547.781 296.176 545.279 296.136C544.441 295.996 543.604 295.857 542.741 295.713C542.454 292.872 542.48 291.572 544.142 289.193C544.75 288.567 545.358 287.942 545.984 287.298C546.888 286.351 546.888 286.351 547.809 285.385C548.37 284.822 548.932 284.258 549.51 283.678C549.846 283.282 550.182 282.885 550.528 282.477C552.123 281.118 553.157 281.045 555.231 280.872C555.909 280.811 556.588 280.751 557.286 280.688C557.994 280.635 558.701 280.582 559.43 280.528C560.123 280.466 560.815 280.405 561.529 280.341C567.687 279.821 573.296 279.702 579.372 280.963Z" fill="#F1BF9F"/>
<path d="M662.741 106.676C663.876 106.657 663.876 106.657 665.033 106.638C669.901 107.19 673.854 109.722 677.879 112.364C678.336 112.66 678.794 112.956 679.265 113.261C681.932 115.008 684.468 116.849 686.953 118.852C690.546 121.718 693.992 123.255 698.518 124.023C704.248 125.191 709.378 129.16 712.574 133.99C714.504 142.514 710.799 150.917 707.878 158.778C706.767 161.782 706.579 163.337 707.168 166.475C707.999 171.489 708.485 176.502 708.907 181.566C709.006 182.714 709.006 182.714 709.107 183.885C709.467 188.332 709.63 192.714 709.565 197.174C710.298 197.318 710.298 197.318 711.045 197.464C721.78 199.704 731.77 206.383 740.714 212.506C741.146 212.8 741.579 213.094 742.024 213.397C743.414 214.475 743.414 214.475 744.891 216.023C750.11 221.148 754.827 221.187 761.768 221.142C763.094 221.116 764.419 221.087 765.745 221.057C767.733 221.027 769.72 221.007 771.708 221.003C772.938 221 774.167 220.981 775.396 220.943C780.135 220.905 783.258 222.168 786.821 225.429C790.292 229.942 791.023 232.738 790.985 238.434C790.987 239.106 790.988 239.777 790.99 240.469C790.992 242.689 790.984 244.908 790.976 247.128C790.975 248.67 790.975 250.212 790.975 251.753C790.974 254.984 790.967 258.214 790.957 261.445C790.945 265.59 790.942 269.735 790.942 273.88C790.942 277.063 790.938 280.246 790.933 283.429C790.93 284.958 790.929 286.486 790.928 288.015C790.926 290.149 790.92 292.283 790.912 294.416C790.912 295.051 790.913 295.685 790.913 296.338C790.899 298.827 790.843 300.856 790.05 303.234C789.554 303.234 789.057 303.234 788.546 303.234C788.267 303.886 788.267 303.886 787.982 304.55C786.868 306.556 785.824 307.809 784.033 309.252C781.588 309.816 781.588 309.816 779.52 310.004C779.533 310.724 779.533 310.724 779.546 311.458C779.553 312.08 779.56 312.701 779.567 313.342C779.575 313.961 779.584 314.581 779.593 315.219C779.52 316.774 779.71 317.442 778.958 318.194C774.907 318.194 773.101 318.194 767.731 318.194C752.17 317.685 762.688 311.814 759.83 308.637C754.234 302.46 750.075 299.467 741.863 297.499C740.185 297.065 738.507 296.629 736.83 296.191C736.023 295.984 735.216 295.777 734.385 295.563C731.456 294.779 728.598 293.847 725.738 292.844C721.868 291.508 718.081 290.534 714.079 289.695C713.518 289.455 712.957 289.216 712.379 288.969C709.806 287.997 707.217 287.575 704.515 287.144C699.964 286.382 695.453 285.521 690.946 284.535C689.842 284.299 688.739 284.062 687.636 283.827C685.974 283.471 684.314 283.112 682.657 282.737C675.501 281.129 669.169 280.453 661.849 281.17C659.198 281.418 656.611 281.445 653.95 281.42C649.183 281.764 646.989 283.754 643.904 287.268C641.69 290.155 640.843 292.117 640.363 295.712C643.755 295.775 645.554 295.682 648.165 293.403C648.771 292.784 649.377 292.165 650.001 291.528C652.121 289.444 653.28 288.31 656.221 287.743C658.248 287.764 660.175 287.882 662.177 288.19C661.143 290.259 659.933 290.489 657.852 291.481C654.043 293.511 650.893 295.901 647.697 298.768C647.257 299.149 646.817 299.53 646.364 299.922C644.978 301.155 644.978 301.155 643.372 303.234C643.357 305.347 643.357 305.347 644.124 306.995C647.088 307.354 648.806 307.107 651.164 305.35C652.023 304.655 652.874 303.95 653.715 303.234C658.259 299.473 658.259 299.473 659.921 299.473C659.921 299.97 659.921 300.466 659.921 300.977C658.71 302.144 658.71 302.144 657.1 303.469C652.351 307.425 652.351 307.425 650.142 313.013C655.066 313.013 657.442 310.861 661.113 307.738C662.606 306.509 663.964 305.552 665.656 304.644C668.303 303.174 670.568 301.48 672.934 299.602C674.212 298.721 674.212 298.721 675.717 298.721C674.73 300.893 673.644 302.453 672.003 304.174C669.565 306.922 668.543 309.528 667.442 313.013C670.732 312.859 672.273 312.681 674.682 310.351C675.875 308.801 677.066 307.249 678.255 305.696C680.23 303.986 680.23 303.986 682.86 303.942C685.557 304.757 687.104 305.693 689.303 307.418C692.79 309.804 694.881 310.24 699.082 309.957C703.396 309.686 705.352 310.274 708.719 313.013C709.776 313.991 719.327 317.243 720.329 318.278C719.701 318.278 715.258 318.272 711.07 318.278C698.837 318.296 686.603 318.309 674.37 318.317C668.69 318.321 663.01 318.326 657.33 318.335C652.381 318.342 647.432 318.347 642.483 318.349C639.861 318.35 637.239 318.352 634.617 318.357C631.694 318.364 628.771 318.364 625.847 318.363C624.974 318.366 624.1 318.369 623.199 318.372C622.406 318.37 621.613 318.369 620.796 318.368C620.104 318.369 619.412 318.37 618.699 318.37C617.045 318.278 617.045 318.278 615.541 317.526C615.333 306.896 615.905 296.503 617.045 285.934C617.527 285.93 618.009 285.927 618.505 285.924C620.699 285.899 622.891 285.846 625.084 285.792C625.842 285.788 626.6 285.784 627.381 285.779C632.116 285.752 632.116 285.752 635.912 283.263C636.388 282.655 636.864 282.047 637.355 281.42C637.851 281.42 638.348 281.42 638.859 281.42C638.757 280.657 638.655 279.893 638.55 279.107C638.071 275.522 637.595 271.936 637.12 268.351C637.034 267.705 636.948 267.059 636.86 266.394C635.649 257.245 634.503 248.094 633.519 238.917C633.439 238.186 633.359 237.454 633.276 236.7C633.21 236.07 633.143 235.441 633.074 234.792C632.913 233.231 632.913 233.231 632.089 231.775C631.81 229.76 631.651 227.752 631.505 225.723C631.368 223.55 631.368 223.55 631.052 221.609C630.857 219.784 630.816 218.495 631.337 216.732C633.297 214.658 635.571 213.481 638.107 212.218C638.767 211.878 639.427 211.538 640.108 211.187C644.213 209.196 648.277 207.869 652.692 206.759C654.555 206.229 656.196 205.567 657.946 204.743C662.315 202.69 667.833 200.183 672.708 200.183C672.336 197.577 672.336 197.577 671.956 194.918C670.583 194.988 670.583 194.988 669.182 195.059C666.232 195.043 664.457 194.673 662.177 192.661C661.19 190.264 661.19 190.264 660.673 188.148C660.176 188.148 659.68 188.148 659.168 188.148C658.796 185.169 658.796 185.169 658.416 182.131C657.92 182.131 657.423 182.131 656.912 182.131C655.659 177.514 655.268 173.031 655.202 168.274C655.189 167.424 655.189 167.424 655.176 166.556C655.147 164.19 655.127 161.824 655.121 159.457C655.114 157.71 655.088 155.964 655.061 154.217C655.064 153.688 655.068 153.159 655.072 152.614C654.997 148.808 653.952 146.744 651.646 143.769C651.322 143.285 650.997 142.802 650.662 142.304C650.382 141.888 650.102 141.473 649.813 141.045C649.17 140.088 648.528 139.131 647.885 138.174C647.405 137.464 647.405 137.464 646.916 136.739C640.418 127.041 640.418 127.041 641.116 121.955C643.379 120.446 645.306 119.752 647.885 118.946C648.63 118.698 649.375 118.45 650.142 118.194C650.344 117.682 650.545 117.17 650.753 116.642C653.032 111.005 656.406 106.7 662.741 106.676Z" fill="#287AA3"/>
<path d="M676.995 280.963C677.529 281.072 678.062 281.18 678.612 281.293C680.328 281.643 682.042 282.002 683.756 282.361C685.53 282.727 687.304 283.091 689.079 283.454C690.251 283.695 691.423 283.936 692.596 284.177C697.976 285.284 703.372 286.302 708.782 287.256C711.547 287.762 713.871 288.347 716.335 289.695C717.581 290.04 718.836 290.35 720.096 290.636C725.047 291.828 729.909 293.261 734.768 294.78C737.603 295.659 740.343 296.453 743.265 297.003C751.669 298.641 756.642 304.156 762.384 310.128C763.552 311.332 764.754 312.48 765.977 313.628C767.485 315.27 767.622 315.912 767.622 318.169C760.605 318.326 753.411 318.169 746.394 318.242C743.134 318.278 739.792 318.165 736.533 318.242C733.382 318.316 730.358 318.151 727.207 318.169C726.01 318.181 724.814 318.206 723.618 318.242C717.415 318.426 712.908 318.389 707.965 314.106C707.374 313.485 706.783 312.864 706.174 312.224C703.096 309.814 700.076 310.584 696.352 310.866C692.558 310.706 690.373 309.011 687.449 306.717C684.918 305.13 683.221 304.686 680.23 304.739C678.151 306.452 678.151 306.452 676.469 308.829C674.683 311.177 674.683 311.177 672.708 313.013C669.84 313.275 669.84 313.275 667.443 313.013C667.672 308.426 669.911 305.882 672.708 302.483C673.712 301.23 674.715 299.976 675.717 298.722C674.668 299.484 674.668 299.484 673.598 300.261C672.659 300.939 671.72 301.617 670.78 302.295C670.322 302.628 669.864 302.962 669.392 303.305C667.1 304.954 664.813 306.493 662.345 307.866C660.46 308.944 659.157 309.809 657.664 311.321C654.941 313.363 653.467 313.346 650.142 313.013C650.434 308.944 651.691 307.245 654.608 304.457C655.282 303.8 655.956 303.142 656.65 302.465C658.416 300.978 658.416 300.261 659.921 300.261C659.921 299.765 659.921 299.985 659.921 299.474C658.181 300.711 656.441 301.949 654.702 303.188C653.958 303.717 653.958 303.717 653.199 304.256C650.818 305.878 650.818 305.878 648.638 307.748C646.428 307.889 646.428 307.889 644.125 307.748C643.628 307.252 643.132 306.755 642.62 306.244C642.885 302.297 644.852 300.619 647.595 298.014C651.81 294.378 656.336 291.22 661.425 288.943C658.799 288.491 656.521 288.396 653.903 288.943C651.81 290.55 650.045 292.331 648.191 294.206C646.234 295.835 645.404 296.176 642.902 296.136C642.064 295.996 641.227 295.857 640.364 295.713C640.077 292.872 640.103 291.572 641.765 289.193C642.373 288.567 642.981 287.942 643.607 287.298C644.511 286.351 644.511 286.351 645.432 285.385C645.993 284.822 646.555 284.258 647.133 283.678C647.469 283.282 647.805 282.885 648.151 282.477C649.746 281.118 650.78 281.045 652.854 280.872C653.532 280.811 654.211 280.751 654.909 280.688C655.617 280.635 656.324 280.582 657.053 280.528C657.746 280.466 658.439 280.405 659.152 280.341C665.31 279.821 670.919 279.702 676.995 280.963Z" fill="#F1BF9F"/>
<path d="M662.741 106.676C663.498 106.663 664.254 106.651 665.033 106.638C669.901 107.19 673.854 109.722 677.879 112.364C678.336 112.66 678.794 112.956 679.265 113.261C681.932 115.008 684.468 116.849 686.953 118.852C690.546 121.718 693.992 123.255 698.518 124.023C704.248 125.191 709.378 129.16 712.574 133.99C714.504 142.514 710.799 150.917 707.878 158.778C706.767 161.782 706.579 163.337 707.168 166.475C707.999 171.489 708.485 176.502 708.907 181.566C709.006 182.714 709.006 182.714 709.106 183.885C709.467 188.332 709.63 192.714 709.565 197.174C709.054 196.919 710.062 197.423 709.565 197.174V197.927C709.468 198.603 709.468 198.603 709.369 199.293C708.094 203.062 703.315 204.735 700.037 206.574C691.537 210.712 681.686 210.176 672.708 207.705C672.46 205.719 672.964 202.229 672.708 200.183C672.025 200.447 673.411 199.911 672.708 200.183C672.335 197.577 672.335 197.577 671.956 194.918C670.583 194.988 670.583 194.988 669.182 195.059C666.232 195.043 664.457 194.673 662.177 192.661C660.57 190.555 660.413 190.503 659.168 188.148C658.952 187.738 657.131 183.914 656.912 182.131C655.659 177.514 655.268 173.031 655.202 168.274C655.189 167.424 655.189 167.424 655.176 166.556C655.147 164.19 655.127 161.824 655.121 159.457C655.114 157.71 655.088 155.964 655.061 154.217C655.064 153.688 655.068 153.159 655.072 152.614C654.997 148.808 653.952 146.744 651.646 143.769C651.322 143.285 650.997 142.802 650.662 142.304C650.382 141.888 650.102 141.473 649.813 141.045C649.17 140.088 648.528 139.131 647.885 138.174C647.565 137.7 647.245 137.227 646.916 136.739C640.417 127.041 640.417 127.041 641.116 121.955C643.378 120.446 645.306 119.752 647.885 118.946C648.63 118.698 649.375 118.45 650.142 118.194C650.344 117.682 650.545 117.17 650.753 116.642C653.032 111.005 656.406 106.7 662.741 106.676Z" fill="#F0BE9D"/>
<path d="M662.741 106.676C663.498 106.663 664.254 106.651 665.033 106.638C669.901 107.19 673.854 109.722 677.879 112.364C678.336 112.66 678.794 112.956 679.265 113.261C681.932 115.008 684.468 116.849 686.953 118.852C690.546 121.718 693.992 123.255 698.518 124.023C703.631 125.065 707.702 128.291 711.261 131.992C713.746 135.773 713.255 140.181 712.574 144.521C709.641 157.007 709.641 157.007 705.804 159.565C705.226 156.312 705.078 153.42 705.24 150.115C705.268 147.293 705.136 145.525 703.407 143.251C701.478 141.394 701.478 141.394 699.317 141.089C697.222 141.585 696.61 142.112 695.274 143.769C694.899 145.212 694.899 145.212 694.889 146.786C694.849 147.641 694.849 147.641 694.808 148.512C694.791 149.103 694.774 149.694 694.757 150.303C694.731 150.903 694.705 151.503 694.679 152.121C694.617 153.599 694.568 155.077 694.522 156.556C693.529 156.556 692.536 156.556 691.513 156.556C691.519 155.703 691.519 155.703 691.525 154.832C691.54 152.241 691.55 149.65 691.56 147.059C691.569 145.717 691.569 145.717 691.579 144.347C691.582 143.046 691.582 143.046 691.586 141.718C691.592 140.524 691.592 140.524 691.598 139.306C691.512 136.973 691.195 134.777 690.761 132.486C690.047 132.687 689.333 132.889 688.598 133.097C688.111 133.232 687.623 133.368 687.121 133.507C686.033 133.83 684.954 134.187 683.887 134.576C677.799 136.698 672.11 136.324 665.75 135.96C663.481 135.89 661.407 135.863 659.168 136.247C656.82 138.619 655.824 140.733 655.595 144.051C655.533 144.95 655.471 145.85 655.407 146.777C654.911 146.777 654.414 146.777 653.903 146.777C652.656 145.236 651.508 143.7 650.377 142.076C650.044 141.601 649.711 141.126 649.368 140.636C640.855 128.346 640.855 128.346 640.646 124.117C641.116 121.955 641.116 121.955 643.372 120.45C644.867 119.921 646.372 119.419 647.885 118.946C648.63 118.698 649.375 118.45 650.142 118.194C650.344 117.682 650.545 117.17 650.753 116.642C653.032 111.005 656.406 106.7 662.741 106.676Z" fill="#2D334B"/>
<path d="M758.419 220.704C759.023 220.698 759.627 220.692 760.25 220.686C761.533 220.675 762.817 220.667 764.101 220.661C766.052 220.649 768.003 220.616 769.955 220.582C771.202 220.575 772.45 220.568 773.698 220.563C774.277 220.55 774.856 220.537 775.453 220.523C780.142 220.542 783.301 221.844 786.823 225.068C790.294 229.581 791.025 232.376 790.987 238.072C790.989 238.744 790.99 239.416 790.992 240.108C790.994 242.328 790.986 244.547 790.978 246.767C790.977 248.308 790.977 249.85 790.977 251.392C790.976 254.623 790.969 257.853 790.959 261.084C790.947 265.228 790.944 269.373 790.944 273.518C790.944 276.701 790.94 279.885 790.934 283.068C790.932 284.596 790.931 286.125 790.93 287.654C790.928 289.788 790.922 291.921 790.914 294.055C790.914 294.69 790.914 295.324 790.915 295.977C790.901 298.466 790.836 300.896 790.043 303.274C789.547 303.274 790.555 303.274 790.043 303.274C788.929 305.279 785.865 307.8 784.074 309.243C781.629 309.807 781.625 309.807 779.557 309.996C778.708 307.447 778.638 305.068 778.584 302.382C778.559 301.368 778.534 300.354 778.509 299.34C778.474 297.756 778.441 296.172 778.411 294.587C778.292 288.609 777.96 282.822 776.86 276.925C776.453 274.719 776.238 272.531 776.09 270.293C775.853 267.081 774.01 263.931 773.504 260.75C773.367 260.322 773.231 259.895 773.09 259.454C772.192 256.696 771.263 254.015 770.119 251.347C768.987 248.705 768.12 246.064 767.295 243.314C766.849 241.796 764.586 239.571 764.586 239.571C764.374 239.036 764.805 240.122 764.586 239.571C763.544 236.981 762.075 234.813 760.482 232.542C760.055 231.916 760.055 231.916 759.619 231.276C757.707 228.526 755.583 226.229 753.195 223.892C752.698 223.148 751.898 220.935 751.387 220.168C753.126 219.734 756.324 220.724 758.419 220.704Z" fill="#4E4E4F"/>
<path d="M613.391 135.36L394.943 147.467C390.99 147.686 388.068 151.235 388.612 155.156L406.498 284.096C406.966 287.469 409.866 289.969 413.271 289.935L632.144 287.743C636.207 287.702 639.319 284.116 638.788 280.088L620.477 141.234C620.014 137.725 616.926 135.164 613.391 135.36Z" fill="#D9D9D9"/>
<path d="M507.263 223.62L504.249 222.211L479.764 318.24H490.538H558.325V313.987C558.288 310.384 556.857 309.884 553.611 309.733H498.618L494.802 304.361L507.263 223.62Z" fill="#EFEFF0"/>
<path d="M504.265 222.194H478.003L442.651 301.44C438.771 310.142 438.418 314.022 442.651 318.23H491.134C486.037 315.349 485.247 312.516 486.083 306.141L504.265 222.194Z" fill="#999998"/>
<g filter="url(#filter2_d_5634_6959)">
<path d="M547.924 53.6865C547.924 24.4424 571.631 0.735352 600.875 0.735352C630.119 0.735352 653.826 24.4424 653.826 53.6865C653.826 82.9306 630.119 106.638 600.875 106.638C571.631 106.638 547.924 82.9306 547.924 53.6865Z" fill="#F9FAFC"/>
<path d="M600.875 1.23535C629.843 1.23535 653.326 24.7185 653.326 53.6865C653.326 82.6545 629.843 106.138 600.875 106.138C571.907 106.138 548.424 82.6545 548.424 53.6865C548.424 24.7185 571.907 1.23535 600.875 1.23535Z" stroke="#8B8B8B" stroke-opacity="0.1"/>
<path d="M604.493 39.2874L596.882 52.4971H596.831L589.297 39.4164L604.493 39.2874Z" fill="#83FF50" stroke="#83FF50" stroke-width="0.227889" stroke-miterlimit="5.3333"/>
<mask id="mask0_5634_6959" style="mask-type:luminance" maskUnits="userSpaceOnUse" x="568" y="23" width="42" height="19">
<path d="M609.673 41.6641H568.806V23.6813H609.673V41.6641Z" fill="white"/>
</mask>
<g mask="url(#mask0_5634_6959)">
<g opacity="0.83">
<path d="M604.558 39.2086L604.533 39.2602H604.507V39.286L589.285 39.415V39.3892H574.037L573.934 39.2086L581.596 25.9473H596.922L604.558 39.2086Z" fill="#96FF5B" fill-opacity="0.6471"/>
</g>
</g>
<path d="M604.528 39.2654L596.916 52.4756H596.891L604.502 39.2654H604.528Z" fill="white"/>
<path d="M596.926 52.6684L596.9 52.72L589.263 65.9297H573.963L566.301 52.6684L573.963 39.4071H574.041L581.574 52.4878H596.822L596.926 52.6684Z" fill="#00D6FF" stroke="#00D6FF" stroke-width="0.227889" stroke-miterlimit="5.3333"/>
<path d="M596.82 52.4834H581.598L574.038 39.4027H589.286L596.82 52.4834Z" fill="#7DFFFF" stroke="#7DFFFF" stroke-width="0.227889" stroke-miterlimit="5.3333"/>
<path d="M604.607 65.6011L604.736 65.8075H604.503L598.698 65.8591L589.281 65.9365L596.918 52.7268H612.063L604.607 65.6011Z" fill="#32E6FF" stroke="#32E6FF" stroke-width="0.227889" stroke-miterlimit="5.3333"/>
<mask id="mask1_5634_6959" style="mask-type:luminance" maskUnits="userSpaceOnUse" x="585" y="48" width="32" height="36">
<path d="M616.273 83.6934H585.339V48.2955H616.273V83.6934Z" fill="white"/>
</mask>
<g mask="url(#mask1_5634_6959)">
<g opacity="0.86">
<path d="M612.412 78.8757L612.18 79.2627H596.88L589.218 66.0014L589.244 65.9498L596.88 52.7401H596.906L589.269 65.924L598.686 65.8466L604.517 65.795H604.749L612.257 78.8757H612.412Z" fill="#00D5FF" fill-opacity="0.5451"/>
</g>
</g>
<path d="M604.606 65.6012L604.735 65.8076H604.502L596.969 52.7269H612.062L604.606 65.6012Z" fill="#20E6FF" stroke="#20E6FF" stroke-width="0.227889" stroke-miterlimit="5.3333"/>
<path d="M619.748 65.8076H604.733L604.604 65.6012L612.034 52.7269H612.189L619.748 65.8076Z" fill="#2AF0FF" stroke="#2AF0FF" stroke-width="0.227889" stroke-miterlimit="5.3333"/>
<mask id="mask2_5634_6959" style="mask-type:luminance" maskUnits="userSpaceOnUse" x="602" y="63" width="21" height="19">
<path d="M622.388 81.0625H602.212V63.6471H622.388V81.0625Z" fill="white"/>
</mask>
<g mask="url(#mask2_5634_6959)">
<g opacity="0.95">
<path d="M619.847 65.9929L612.417 78.8672H612.262L604.729 65.8123H619.744L619.847 65.9929Z" fill="#29EFFF" fill-opacity="0.8"/>
</g>
</g>
<path d="M627.486 52.5385L619.824 65.7998H619.746L612.212 52.7191H596.965L596.861 52.5385L596.887 52.4869L604.498 39.2772V39.2514H619.824L627.357 52.3063L627.486 52.5385Z" fill="#32F8B9" stroke="#32F8B9" stroke-width="0.227889" stroke-miterlimit="5.3333"/>
<mask id="mask3_5634_6959" style="mask-type:luminance" maskUnits="userSpaceOnUse" x="608" y="48" width="31" height="36">
<path d="M638.98 83.6924H608.355V48.0623H638.98V83.6924Z" fill="white"/>
</mask>
<g mask="url(#mask3_5634_6959)">
<g opacity="0.85">
<path d="M635.135 65.7862L627.472 79.0475L612.173 79.2539L619.758 66.1732L619.655 65.9926H619.732L627.395 52.7313L627.266 52.5249H627.498L635.135 65.7862Z" fill="#32F6B8" fill-opacity="0.5647"/>
</g>
</g>
</g>
<g filter="url(#filter3_d_5634_6959)">
<rect x="835.523" y="144.443" width="252.478" height="85.9889" rx="42.9944" fill="white"/>
<g filter="url(#filter4_d_5634_6959)">
<rect x="848.33" y="159.08" width="56.7161" height="56.7161" rx="28.358" fill="#F9FAFC"/>
<rect x="849.245" y="159.995" width="54.8865" height="54.8865" rx="27.4433" stroke="#8B8B8B" stroke-opacity="0.1" stroke-width="1.82955"/>
<g clip-path="url(#clip1_5634_6959)">
<path d="M877.083 170.973C867.772 170.973 860.222 178.522 860.222 187.834C860.222 195.284 865.053 201.604 871.752 203.834C872.595 203.99 872.904 203.468 872.904 203.022C872.904 202.62 872.889 201.292 872.882 199.883C868.191 200.903 867.201 197.894 867.201 197.894C866.434 195.945 865.329 195.427 865.329 195.427C863.799 194.38 865.444 194.402 865.444 194.402C867.137 194.521 868.029 196.139 868.029 196.139C869.533 198.717 871.973 197.972 872.935 197.541C873.087 196.451 873.524 195.707 874.006 195.286C870.261 194.86 866.324 193.414 866.324 186.953C866.324 185.112 866.983 183.608 868.061 182.427C867.886 182.003 867.309 180.288 868.225 177.965C868.225 177.965 869.64 177.512 872.863 179.694C874.208 179.32 875.65 179.133 877.083 179.126C878.516 179.133 879.959 179.32 881.307 179.694C884.525 177.512 885.939 177.965 885.939 177.965C886.857 180.288 886.279 182.003 886.104 182.427C887.186 183.608 887.84 185.112 887.84 186.953C887.84 193.429 883.895 194.855 880.141 195.273C880.745 195.796 881.284 196.822 881.284 198.395C881.284 200.651 881.265 202.467 881.265 203.022C881.265 203.471 881.568 203.997 882.423 203.831C889.119 201.599 893.944 195.281 893.944 187.834C893.944 178.522 886.395 170.973 877.083 170.973ZM866.537 194.992C866.5 195.076 866.368 195.101 866.248 195.043C866.125 194.988 866.057 194.874 866.096 194.79C866.133 194.704 866.265 194.68 866.387 194.738C866.509 194.793 866.579 194.908 866.537 194.992ZM867.366 195.732C867.286 195.807 867.129 195.772 867.022 195.654C866.912 195.537 866.891 195.379 866.972 195.304C867.055 195.229 867.208 195.264 867.318 195.382C867.429 195.5 867.45 195.657 867.366 195.732ZM867.935 196.679C867.832 196.751 867.663 196.683 867.558 196.533C867.455 196.383 867.455 196.204 867.561 196.132C867.665 196.06 867.832 196.124 867.938 196.273C868.041 196.426 868.041 196.605 867.935 196.679ZM868.897 197.775C868.805 197.877 868.608 197.85 868.464 197.711C868.317 197.575 868.276 197.382 868.368 197.28C868.462 197.178 868.66 197.207 868.805 197.345C868.951 197.48 868.996 197.675 868.897 197.775ZM870.141 198.146C870.1 198.278 869.911 198.338 869.72 198.282C869.529 198.224 869.404 198.069 869.443 197.936C869.482 197.803 869.673 197.74 869.865 197.8C870.056 197.858 870.181 198.011 870.141 198.146ZM871.556 198.303C871.561 198.442 871.399 198.557 871.199 198.56C870.997 198.564 870.834 198.451 870.832 198.315C870.832 198.174 870.99 198.06 871.192 198.057C871.392 198.053 871.556 198.164 871.556 198.303ZM872.947 198.249C872.971 198.385 872.832 198.524 872.632 198.562C872.437 198.597 872.256 198.514 872.231 198.379C872.206 198.24 872.348 198.101 872.544 198.065C872.743 198.03 872.921 198.111 872.947 198.249Z" fill="#161614"/>
</g>
</g>
<g filter="url(#filter5_d_5634_6959)">
<rect x="933.404" y="159.08" width="56.7161" height="56.7161" rx="28.358" fill="#F9FAFC"/>
<rect x="934.319" y="159.995" width="54.8865" height="54.8865" rx="27.4433" stroke="#8B8B8B" stroke-opacity="0.1" stroke-width="1.82955"/>
<path d="M965.451 175.79C965.695 175.859 965.924 175.975 966.124 176.132C966.324 176.288 966.491 176.483 966.615 176.705C966.74 176.926 966.819 177.17 966.85 177.422C966.88 177.674 966.86 177.93 966.791 178.175L961.08 198.524C960.941 199.018 960.612 199.437 960.165 199.688C959.718 199.939 959.19 200.003 958.696 199.864C958.202 199.726 957.783 199.397 957.532 198.95C957.281 198.503 957.217 197.974 957.356 197.48L963.067 177.128C963.136 176.884 963.252 176.655 963.409 176.455C963.566 176.256 963.761 176.089 963.982 175.964C964.204 175.84 964.447 175.761 964.7 175.73C964.952 175.7 965.208 175.72 965.452 175.789L965.451 175.79ZM956.35 180.991C956.712 181.354 956.916 181.845 956.916 182.358C956.916 182.87 956.712 183.361 956.35 183.724L952.251 187.827L956.353 191.928C956.716 192.291 956.919 192.783 956.919 193.296C956.919 193.809 956.715 194.301 956.352 194.663C955.99 195.026 955.498 195.229 954.985 195.229C954.472 195.229 953.98 195.025 953.618 194.662L948.148 189.193C947.786 188.831 947.583 188.339 947.583 187.827C947.583 187.314 947.786 186.823 948.148 186.461L953.616 180.991C953.796 180.812 954.009 180.669 954.244 180.572C954.479 180.475 954.73 180.425 954.984 180.425C955.238 180.425 955.49 180.475 955.724 180.572C955.959 180.669 956.171 180.812 956.35 180.991ZM967.797 183.724C967.607 183.547 967.454 183.333 967.349 183.096C967.243 182.859 967.186 182.603 967.182 182.344C967.177 182.084 967.225 181.826 967.322 181.585C967.419 181.345 967.564 181.126 967.748 180.942C967.931 180.759 968.15 180.614 968.391 180.517C968.631 180.419 968.889 180.372 969.149 180.376C969.409 180.381 969.665 180.438 969.902 180.543C970.139 180.649 970.352 180.801 970.529 180.991L975.999 186.459C976.361 186.822 976.565 187.314 976.565 187.826C976.565 188.339 976.361 188.831 975.999 189.193L970.531 194.662C970.351 194.842 970.138 194.985 969.903 195.082C969.669 195.179 969.417 195.229 969.164 195.229C968.91 195.229 968.658 195.179 968.424 195.082C968.189 194.985 967.976 194.843 967.796 194.663C967.616 194.484 967.474 194.27 967.377 194.036C967.28 193.801 967.229 193.55 967.229 193.296C967.229 193.042 967.279 192.791 967.376 192.556C967.474 192.321 967.616 192.108 967.795 191.928L971.897 187.827L967.797 183.724Z" fill="black"/>
</g>
<g filter="url(#filter6_d_5634_6959)">
<path d="M1018.48 187.438C1018.48 171.776 1031.17 159.08 1046.84 159.08C1062.5 159.08 1075.19 171.776 1075.19 187.438C1075.19 203.1 1062.5 215.796 1046.84 215.796C1031.17 215.796 1018.48 203.1 1018.48 187.438Z" fill="#F9FAFC"/>
<path d="M1046.84 159.995C1061.99 159.995 1074.28 172.282 1074.28 187.438C1074.28 202.595 1061.99 214.882 1046.84 214.882C1031.68 214.882 1019.39 202.595 1019.39 187.438C1019.39 172.282 1031.68 159.995 1046.84 159.995Z" stroke="#8B8B8B" stroke-opacity="0.1" stroke-width="1.82955"/>
<path d="M1032.4 188.959C1031.56 188.119 1031.56 186.757 1032.4 185.918L1045.32 173.003C1046.16 172.163 1047.52 172.163 1048.36 173.003L1061.27 185.918C1062.11 186.757 1062.11 188.119 1061.27 188.959L1048.36 201.874C1047.52 202.713 1046.16 202.713 1045.32 201.874L1032.4 188.959Z" fill="#EE513B"/>
<path d="M1042.69 175.668L1041.38 176.976L1044.76 180.354C1044.63 180.647 1044.55 180.974 1044.55 181.318C1044.55 182.297 1045.16 183.132 1046.03 183.458V191.721C1045.16 192.047 1044.55 192.883 1044.55 193.861C1044.55 195.124 1045.57 196.148 1046.84 196.148C1048.1 196.148 1049.12 195.124 1049.12 193.861C1049.12 192.974 1048.62 192.205 1047.88 191.826V183.47L1051.11 186.699C1050.98 186.986 1050.91 187.305 1050.91 187.64C1050.91 188.903 1051.93 189.927 1053.19 189.927C1054.45 189.927 1055.48 188.903 1055.48 187.64C1055.48 186.377 1054.45 185.354 1053.19 185.354C1052.95 185.354 1052.71 185.392 1052.49 185.464L1049.02 181.996C1049.09 181.782 1049.12 181.554 1049.12 181.318C1049.12 180.055 1048.1 179.032 1046.84 179.032C1046.6 179.032 1046.37 179.067 1046.16 179.134L1042.69 175.668Z" fill="white"/>
</g>
</g>
</g>
<defs>
<filter id="filter0_d_5634_6959" x="204.3" y="23.9113" width="793.4" height="721.4" filterUnits="userSpaceOnUse" color-interpolation-filters="sRGB">
<feFlood flood-opacity="0" result="BackgroundImageFix"/>
<feColorMatrix in="SourceAlpha" type="matrix" values="0 0 0 0 0 0 0 0 0 0 0 0 0 0 0 0 0 0 127 0" result="hardAlpha"/>
<feMorphology radius="3" operator="dilate" in="SourceAlpha" result="effect1_dropShadow_5634_6959"/>
<feOffset/>
<feGaussianBlur stdDeviation="4.85"/>
<feComposite in2="hardAlpha" operator="out"/>
<feColorMatrix type="matrix" values="0 0 0 0 0 0 0 0 0 0 0 0 0 0 0 0 0 0 0.05 0"/>
<feBlend mode="normal" in2="BackgroundImageFix" result="effect1_dropShadow_5634_6959"/>
<feBlend mode="normal" in="SourceGraphic" in2="effect1_dropShadow_5634_6959" result="shape"/>
</filter>
<filter id="filter1_d_5634_6959" x="109.823" y="115.558" width="236.506" height="143.758" filterUnits="userSpaceOnUse" color-interpolation-filters="sRGB">
<feFlood flood-opacity="0" result="BackgroundImageFix"/>
<feColorMatrix in="SourceAlpha" type="matrix" values="0 0 0 0 0 0 0 0 0 0 0 0 0 0 0 0 0 0 127 0" result="hardAlpha"/>
<feOffset/>
<feGaussianBlur stdDeviation="1.58873"/>
<feComposite in2="hardAlpha" operator="out"/>
<feColorMatrix type="matrix" values="0 0 0 0 0 0 0 0 0 0 0 0 0 0 0 0 0 0 0.1 0"/>
<feBlend mode="normal" in2="BackgroundImageFix" result="effect1_dropShadow_5634_6959"/>
<feBlend mode="normal" in="SourceGraphic" in2="effect1_dropShadow_5634_6959" result="shape"/>
</filter>
<filter id="filter2_d_5634_6959" x="535.988" y="-11.2009" width="129.775" height="129.775" filterUnits="userSpaceOnUse" color-interpolation-filters="sRGB">
<feFlood flood-opacity="0" result="BackgroundImageFix"/>
<feColorMatrix in="SourceAlpha" type="matrix" values="0 0 0 0 0 0 0 0 0 0 0 0 0 0 0 0 0 0 127 0" result="hardAlpha"/>
<feMorphology radius="3.53008" operator="erode" in="SourceAlpha" result="effect1_dropShadow_5634_6959"/>
<feOffset/>
<feGaussianBlur stdDeviation="7.73314"/>
<feComposite in2="hardAlpha" operator="out"/>
<feColorMatrix type="matrix" values="0 0 0 0 0 0 0 0 0 0 0 0 0 0 0 0 0 0 0.05 0"/>
<feBlend mode="normal" in2="BackgroundImageFix" result="effect1_dropShadow_5634_6959"/>
<feBlend mode="normal" in="SourceGraphic" in2="effect1_dropShadow_5634_6959" result="shape"/>
</filter>
<filter id="filter3_d_5634_6959" x="832.139" y="141.059" width="259.248" height="92.7586" filterUnits="userSpaceOnUse" color-interpolation-filters="sRGB">
<feFlood flood-opacity="0" result="BackgroundImageFix"/>
<feColorMatrix in="SourceAlpha" type="matrix" values="0 0 0 0 0 0 0 0 0 0 0 0 0 0 0 0 0 0 127 0" result="hardAlpha"/>
<feOffset/>
<feGaussianBlur stdDeviation="1.69233"/>
<feComposite in2="hardAlpha" operator="out"/>
<feColorMatrix type="matrix" values="0 0 0 0 0 0 0 0 0 0 0 0 0 0 0 0 0 0 0.1 0"/>
<feBlend mode="normal" in2="BackgroundImageFix" result="effect1_dropShadow_5634_6959"/>
<feBlend mode="normal" in="SourceGraphic" in2="effect1_dropShadow_5634_6959" result="shape"/>
</filter>
<filter id="filter4_d_5634_6959" x="838.326" y="149.076" width="76.724" height="76.724" filterUnits="userSpaceOnUse" color-interpolation-filters="sRGB">
<feFlood flood-opacity="0" result="BackgroundImageFix"/>
<feColorMatrix in="SourceAlpha" type="matrix" values="0 0 0 0 0 0 0 0 0 0 0 0 0 0 0 0 0 0 127 0" result="hardAlpha"/>
<feMorphology radius="2.36317" operator="dilate" in="SourceAlpha" result="effect1_dropShadow_5634_6959"/>
<feOffset/>
<feGaussianBlur stdDeviation="3.82046"/>
<feComposite in2="hardAlpha" operator="out"/>
<feColorMatrix type="matrix" values="0 0 0 0 0 0 0 0 0 0 0 0 0 0 0 0 0 0 0.05 0"/>
<feBlend mode="normal" in2="BackgroundImageFix" result="effect1_dropShadow_5634_6959"/>
<feBlend mode="normal" in="SourceGraphic" in2="effect1_dropShadow_5634_6959" result="shape"/>
</filter>
<filter id="filter5_d_5634_6959" x="923.4" y="149.076" width="76.724" height="76.724" filterUnits="userSpaceOnUse" color-interpolation-filters="sRGB">
<feFlood flood-opacity="0" result="BackgroundImageFix"/>
<feColorMatrix in="SourceAlpha" type="matrix" values="0 0 0 0 0 0 0 0 0 0 0 0 0 0 0 0 0 0 127 0" result="hardAlpha"/>
<feMorphology radius="2.36317" operator="dilate" in="SourceAlpha" result="effect1_dropShadow_5634_6959"/>
<feOffset/>
<feGaussianBlur stdDeviation="3.82046"/>
<feComposite in2="hardAlpha" operator="out"/>
<feColorMatrix type="matrix" values="0 0 0 0 0 0 0 0 0 0 0 0 0 0 0 0 0 0 0.05 0"/>
<feBlend mode="normal" in2="BackgroundImageFix" result="effect1_dropShadow_5634_6959"/>
<feBlend mode="normal" in="SourceGraphic" in2="effect1_dropShadow_5634_6959" result="shape"/>
</filter>
<filter id="filter6_d_5634_6959" x="1007.4" y="148.004" width="78.8677" height="78.8677" filterUnits="userSpaceOnUse" color-interpolation-filters="sRGB">
<feFlood flood-opacity="0" result="BackgroundImageFix"/>
<feColorMatrix in="SourceAlpha" type="matrix" values="0 0 0 0 0 0 0 0 0 0 0 0 0 0 0 0 0 0 127 0" result="hardAlpha"/>
<feMorphology radius="2.61637" operator="dilate" in="SourceAlpha" result="effect1_dropShadow_5634_6959"/>
<feOffset/>
<feGaussianBlur stdDeviation="4.22979"/>
<feComposite in2="hardAlpha" operator="out"/>
<feColorMatrix type="matrix" values="0 0 0 0 0 0 0 0 0 0 0 0 0 0 0 0 0 0 0.05 0"/>
<feBlend mode="normal" in2="BackgroundImageFix" result="effect1_dropShadow_5634_6959"/>
<feBlend mode="normal" in="SourceGraphic" in2="effect1_dropShadow_5634_6959" result="shape"/>
</filter>
<clipPath id="clip0_5634_6959">
<rect x="0.875" y="0.735352" width="1200" height="332" rx="16" fill="white"/>
</clipPath>
<clipPath id="clip1_5634_6959">
<rect width="33.7223" height="32.9319" fill="white" transform="translate(860.222 170.973)"/>
</clipPath>
</defs>
</svg>
