<svg width="45" height="45" viewBox="0 0 45 45" fill="none" xmlns="http://www.w3.org/2000/svg">
<path d="M22.5004 10.7813V28.3665M22.5004 28.3665L16.6387 22.5048M22.5004 28.3665L28.3621 22.5048" stroke="#2D7E5D" stroke-width="2.93086" stroke-linecap="round" stroke-linejoin="round"/>
<path d="M16.6383 13.7122H10.7766C9.99925 13.7122 9.25377 14.021 8.70413 14.5706C8.15449 15.1203 7.8457 15.8657 7.8457 16.643V31.2973C7.8457 32.0747 8.15449 32.8201 8.70413 33.3698C9.25377 33.9194 9.99925 34.2282 10.7766 34.2282H34.2234C35.0007 34.2282 35.7462 33.9194 36.2959 33.3698C36.8455 32.8201 37.1543 32.0747 37.1543 31.2973V16.643C37.1543 15.8657 36.8455 15.1203 36.2959 14.5706C35.7462 14.021 35.0007 13.7122 34.2234 13.7122H28.3617" stroke="#2D7E5D" stroke-width="2.93086" stroke-linecap="round" stroke-linejoin="round"/>
</svg>
