<svg width="46" height="45" viewBox="0 0 46 45" fill="none" xmlns="http://www.w3.org/2000/svg">
<rect x="5.02734" y="14.8549" width="35.9433" height="23.395" rx="2.11254" stroke="#2D7E5D" stroke-width="2"/>
<path d="M27.8938 19.8244L27.8938 19.8244C27.633 19.856 27.5224 20.1754 27.7083 20.3613L29.0343 21.6873L23.8206 26.901L21.4809 24.5637C21.4809 24.5637 21.4809 24.5636 21.4809 24.5636C21.2813 24.3641 20.9613 24.3675 20.7651 24.5637L20.7651 24.5637L13.092 32.2391L13.092 32.2391L13.0916 32.2396C13.0329 32.2988 13 32.3789 13 32.4623C13 32.5457 13.0329 32.6257 13.0916 32.685L13.0918 32.6852L14.1652 33.7633L14.1654 33.7635C14.2881 33.8863 14.4889 33.8863 14.6116 33.7635C14.6117 33.7635 14.6117 33.7635 14.6117 33.7635L21.123 27.2545L23.4603 29.5919L23.461 29.5926C23.6596 29.7879 23.9791 29.7889 24.1762 29.5919L30.5611 23.2117L31.8871 24.5377L31.8873 24.5379C31.9293 24.5796 31.9821 24.6088 32.0397 24.622C32.0974 24.6352 32.1576 24.6319 32.2135 24.6126C32.2694 24.5933 32.3188 24.5587 32.356 24.5127C32.3932 24.4667 32.4167 24.4112 32.4239 24.3525L32.424 24.3522L32.9962 19.603C32.9962 19.6026 32.9963 19.6021 32.9963 19.6017C33.0235 19.3977 32.848 19.2253 32.6443 19.2521C32.644 19.2521 32.6437 19.2522 32.6434 19.2522L27.8938 19.8244Z" fill="#2D7E5D" stroke="#2D7E5D" stroke-width="0.25"/>
<path d="M6.74805 14.2724V9.82595C6.74805 9.74409 6.81441 9.67773 6.89626 9.67773H13.4995L13.9426 10.1965M13.9426 10.1965L15.4621 11.9751H39.249V14.2724V10.3447C39.249 10.2628 39.1827 10.1965 39.1008 10.1965H13.9426Z" stroke="#2D7E5D" stroke-width="1.25"/>
<path d="M8.60352 9.67772V5.89822C8.60352 5.81636 8.66987 5.75 8.75173 5.75H14.585L14.9777 6.19345M14.9777 6.19345L16.3238 7.71386H37.3982V9.67772V6.34167C37.3982 6.25981 37.3319 6.19345 37.25 6.19345H14.9777Z" stroke="#2D7E5D" stroke-width="1.25"/>
</svg>
