<svg width="45" height="45" viewBox="0 0 45 45" fill="none" xmlns="http://www.w3.org/2000/svg">
<rect x="6.7793" y="6.77863" width="31.4428" height="31.4428" rx="5.27839" stroke="#2D7E5D" stroke-width="2"/>
<path d="M12.1018 22.55H13.1018V21.55H12.1018V22.55ZM12.1018 26.7939H11.1018V27.7939H12.1018V26.7939ZM15.7026 26.7939V27.7939H16.7026V26.7939H15.7026ZM15.7026 18.3061H16.7026V17.3061H15.7026V18.3061ZM12.1018 18.3061H11.1018V19.3061H12.1018V18.3061ZM12.1018 13.2905V12.2905H11.1018V13.2905H12.1018ZM22.1328 13.2905H23.1328V12.2905H22.1328V13.2905ZM22.1328 32.9669H21.1328V33.9669H22.1328V32.9669ZM27.1483 32.9669V33.9669H28.1483V32.9669H27.1483ZM27.1483 22.55V21.55H26.1483V22.55H27.1483ZM33.953 23.55C34.5053 23.55 34.953 23.1023 34.953 22.55C34.953 21.9977 34.5053 21.55 33.953 21.55V23.55ZM7.7793 23.55H12.1018V21.55H7.7793V23.55ZM11.1018 22.55V26.7939H13.1018V22.55H11.1018ZM12.1018 27.7939H15.7026V25.7939H12.1018V27.7939ZM16.7026 26.7939V18.3061H14.7026V26.7939H16.7026ZM15.7026 17.3061H12.1018V19.3061H15.7026V17.3061ZM13.1018 18.3061V13.2905H11.1018V18.3061H13.1018ZM12.1018 14.2905H22.1328V12.2905H12.1018V14.2905ZM21.1328 13.2905V32.9669H23.1328V13.2905H21.1328ZM22.1328 33.9669H27.1483V31.9669H22.1328V33.9669ZM28.1483 32.9669V22.55H26.1483V32.9669H28.1483ZM27.1483 23.55H33.953V21.55H27.1483V23.55Z" fill="#2D7E5D"/>
<path d="M31.5215 18.063L34.9635 22.4998L31.5215 26.937" stroke="#2D7E5D" stroke-width="2" stroke-linecap="round"/>
</svg>
