<svg fill="none" height="248" viewBox="0 0 785 248" width="785" xmlns="http://www.w3.org/2000/svg" xmlns:xlink="http://www.w3.org/1999/xlink"><clipPath id="a"><path d="m0 0h785v248h-785z"/></clipPath><g clip-path="url(#a)" clip-rule="evenodd" fill-rule="evenodd"><path d="m100.792 210.982h-17.96c-3.847 0-6.596-.733-9.529-5.68l-41.782-72.206c-.735-1.1-1.101-1.466-1.651-1.466-.549 0-.918.366-.918 1.466v74.221c-.0024.971-.389 1.901-1.0754 2.588-.6863.687-1.6167 1.074-2.5876 1.077h-21.626c-.97094-.003-1.90125-.39-2.58763-1.077-.686373-.687-1.07299407-1.617-1.0753682-2.588v-125.5341c-.00065707-.9146.1789502-1.8203.5285542-2.6655.349603-.8451.862344-1.613 1.508924-2.2599.64657-.6468 1.41429-1.1599 2.25928-1.5099.84498-.3499 1.75065-.5299 2.66524-.5297h18.51c3.663 0 5.497 1.832 7.697 5.68l43.433 75.5061c.733 1.099.916 1.465 1.465 1.465.369 0 .918-.366.918-1.648v-77.5201c0-2.018 1.649-3.483 3.663-3.483h21.626c2.015 0 3.666 1.465 3.666 3.483v125.7171c0 3.849-3.299 6.964-7.148 6.964zm80.993-44.898h-10.446c-12.828 0-16.127 4.398-16.127 13.377v1.649c0 7.697 3.849 9.164 11.546 9.164 5.496 0 10.627-1.833 15.027-4.031zm25.473 44.898h-20.525c-.971-.003-1.902-.39-2.589-1.076-.687-.687-1.074-1.618-1.077-2.589v-2.933c-7.147 5.133-14.478 8.246-25.472 8.246-15.943 0-31.337-7.696-31.337-31.52v-1.649c0-21.443 13.743-30.971 45.081-30.971h9.897v-6.598c0-10.444-5.133-12.645-13.746-12.645-11.729 0-24.74.733-30.422 1.282h-.916c-1.831 0-3.299-.915-3.299-3.296v-14.845c0-2.017 1.285-3.482 3.482-4.032 6.782-1.651 19.61-3.848 31.705-3.848 26.39 0 42.883 10.627 42.883 37.384v65.425c-.003.971-.39 1.901-1.077 2.588s-1.617 1.074-2.588 1.077zm158.33 0h-22.173c-2.018 0-3.668-1.831-3.668-3.849v-62.492c0-11.729-2.747-15.211-11.177-15.211-3.116 0-8.613.732-14.112 3.299.366 3.666.549 7.881.549 11.912v62.492c0 2.018-1.648 3.849-3.663 3.849h-22.175c-2.017 0-3.851-1.831-3.851-3.849v-62.492c0-11.729-2.198-15.211-10.628-15.211-3.482 0-8.246 1.834-13.928 4.765v72.938c0 2.018-1.649 3.849-3.663 3.849h-22.176c-2.015 0-3.849-1.831-3.849-3.849v-97.495c.003-.971.39-1.902 1.077-2.589s1.618-1.074 2.589-1.076h20.891c.971.002 1.902.389 2.589 1.076s1.074 1.618 1.076 2.589v4.032c7.697-5.131 16.494-9.162 27.123-9.162 9.714 0 16.493 2.747 21.624 8.979 10.63-6.049 17.96-8.979 29.873-8.979 24.189 0 31.52 16.126 31.52 40.133v62.492c0 2.018-1.832 3.849-3.848 3.849zm83.924-62.309c0-13.56-6.23-20.342-16.493-20.342-10.079 0-16.86 6.965-16.86 20.342v.733h33.353zm25.107 19.06h-58.46v.366c0 10.446 4.398 19.975 18.876 19.975 11.546 0 27.856-.915 35.187-1.649h.549c2.015 0 3.482.916 3.482 2.931v13.929c0 2.933-.732 4.215-3.849 4.948-11.728 2.932-21.626 4.397-37.569 4.397-22.175 0-45.999-11.728-45.999-47.097v-12.829c0-29.503 17.227-48.196 46.365-48.196 30.056 0 45.267 20.525 45.267 48.196v10.63c0 2.75-1.465 4.399-3.849 4.399zm47.458 43.249h-22.358c-2.015 0-3.847-1.831-3.847-3.849v-133.0471c0-2.017 1.832-3.666 3.847-3.666h22.358c2.015 0 3.483 1.649 3.483 3.666v133.0471c0 2.018-1.468 3.849-3.483 3.849zm116.917-100.794-30.786 107.942c-5.681 19.792-13.194 29.87-40.137 29.87-6.778 0-17.592-1.465-22.173-2.93-2.016-.733-3.848-1.285-3.848-3.3v-14.844c0-2.016 1.648-3.482 3.666-3.482h.366c6.046.366 16.859 1.466 22.908 1.466 6.596 0 9.897-2.199 12.095-9.53l1.648-5.679h-2.747c-6.781 0-12.464-1.102-17.045-17.046l-24.19-82.467c-.184-.55-.184-.916-.184-1.282 0-1.834 1.102-2.933 3.666-2.933h24.373c1.832 0 3.117 1.648 3.483 3.482l16.495 68.908c.55 2.563 1.099 3.481 2.198 3.481h1.649l17.042-72.389c.366-1.834 1.834-3.482 3.85-3.482h24.374c1.831 0 3.48 1.465 3.48 3.299 0 .366-.183.549-.183.916z" fill="#14212d"/><path d="m745.885.604004-13.155 27.747996c-.506-.604-.634-.939-1.202-1.497-2.031-2.0487-4.437-3.6886-7.086-4.831-2.653-1.161-5.51-1.749-8.499-1.749-4.404 0-8.392 1.167-12.021 3.493-3.629 2.327-6.328 5.479-8.111 9.444l-24.498 54.473 39.281 18.251 13.136-27.661c.511.641.499.921 1.097 1.507 2.053 2.06 4.453 3.668 7.177 4.821 2.748 1.177 5.614 1.754 8.629 1.754 4.375 0 8.315-1.191 11.806-3.595 3.503-2.39 6.189-5.572 8.112-9.537l24.449-54.441z" fill="#111111"/></g></svg>