<svg width="582" height="329" viewBox="0 0 582 329" fill="none" xmlns="http://www.w3.org/2000/svg">
<rect width="582" height="329" rx="20" fill="white"/>
<g clip-path="url(#clip0_19_647)">
<path d="M197.1 182.108C201.133 182.108 204.433 178.808 204.433 174.775V138.109C204.433 134.076 201.133 130.776 197.1 130.776H138.435C134.402 130.776 131.102 134.076 131.102 138.109V174.775C131.102 178.808 134.402 182.108 138.435 182.108H127.435C125.418 182.108 123.768 183.758 123.768 185.775C123.768 187.791 125.418 189.441 127.435 189.441H208.1C210.116 189.441 211.766 187.791 211.766 185.775C211.766 183.758 210.116 182.108 208.1 182.108H197.1ZM142.101 138.109H193.433C195.45 138.109 197.1 139.759 197.1 141.776V171.108C197.1 173.125 195.45 174.775 193.433 174.775H142.101C140.085 174.775 138.435 173.125 138.435 171.108V141.776C138.435 139.759 140.085 138.109 142.101 138.109Z" fill="#2D7E5D"/>
</g>
<g clip-path="url(#clip1_19_647)">
<path d="M443.494 182.148C447.529 182.148 450.831 178.846 450.831 174.81V138.122C450.831 134.087 447.529 130.785 443.494 130.785H384.793C380.758 130.785 377.456 134.087 377.456 138.122V174.81C377.456 178.846 380.758 182.148 384.793 182.148H373.787C371.769 182.148 370.118 183.799 370.118 185.816C370.118 187.834 371.769 189.485 373.787 189.485H454.5C456.518 189.485 458.169 187.834 458.169 185.816C458.169 183.799 456.518 182.148 454.5 182.148H443.494ZM388.462 138.122H439.825C441.843 138.122 443.494 139.773 443.494 141.791V171.141C443.494 173.159 441.843 174.81 439.825 174.81H388.462C386.444 174.81 384.793 173.159 384.793 171.141V141.791C384.793 139.773 386.444 138.122 388.462 138.122Z" fill="#2D7E5D"/>
</g>
<line x1="211.766" y1="162.365" x2="370.118" y2="162.365" stroke="#2D7E5D" stroke-width="2.5" stroke-dasharray="6 3"/>
<path fill-rule="evenodd" clip-rule="evenodd" d="M406.023 200.229L403.055 190.598L396.198 197.984L399.339 198.701C392.715 221.096 379.22 240.886 360.713 255.242C341.135 270.429 317.06 278.67 292.282 278.667C267.504 278.664 243.431 270.417 223.856 255.226C204.281 240.034 190.317 218.762 184.163 194.76L180.681 195.653C187.032 220.428 201.446 242.385 221.652 258.066C241.857 273.747 266.705 282.259 292.281 282.262C317.858 282.265 342.708 273.759 362.917 258.083C382.08 243.219 396.037 222.709 402.851 199.504L406.023 200.229Z" fill="#2D7E5D"/>
<path fill-rule="evenodd" clip-rule="evenodd" d="M181.388 119.3L184.356 128.931L191.213 121.545L188.003 120.811C194.693 98.6658 208.113 79.1031 226.454 64.8765C246.037 49.6858 270.119 41.4425 294.904 41.4454C319.688 41.4484 343.768 49.6974 363.348 64.8928C382.928 80.0882 396.896 101.366 403.052 125.375L406.505 124.489C400.153 99.7144 385.739 77.757 365.534 62.0764C345.328 46.3959 320.48 37.8835 294.904 37.8804C269.328 37.8774 244.478 46.3839 224.269 62.0596C205.277 76.7907 191.399 97.0661 184.519 120.015L181.388 119.3Z" fill="#2D7E5D"/>
<rect width="41.0552" height="41.0552" transform="translate(271.767 139.704)" fill="white"/>
<path d="M306.033 152.909L297.052 143.929C296.933 143.81 296.791 143.715 296.635 143.651C296.48 143.586 296.313 143.553 296.144 143.553H280.748C280.068 143.553 279.415 143.824 278.934 144.305C278.453 144.786 278.182 145.439 278.182 146.119V174.345C278.182 175.025 278.453 175.678 278.934 176.159C279.415 176.64 280.068 176.911 280.748 176.911H303.842C304.523 176.911 305.175 176.64 305.656 176.159C306.138 175.678 306.408 175.025 306.408 174.345V153.817C306.408 153.649 306.375 153.482 306.311 153.326C306.246 153.17 306.152 153.029 306.033 152.909ZM289.354 167.022C289.473 167.141 289.568 167.283 289.632 167.439C289.697 167.594 289.73 167.761 289.73 167.93C289.73 168.098 289.697 168.265 289.632 168.421C289.568 168.577 289.473 168.718 289.354 168.838C289.235 168.957 289.093 169.051 288.938 169.116C288.782 169.18 288.615 169.214 288.446 169.214C288.278 169.214 288.111 169.18 287.955 169.116C287.799 169.051 287.658 168.957 287.539 168.838L283.69 164.989C283.57 164.87 283.476 164.728 283.411 164.572C283.347 164.417 283.313 164.25 283.313 164.081C283.313 163.912 283.347 163.745 283.411 163.59C283.476 163.434 283.57 163.292 283.69 163.173L287.539 159.324C287.779 159.084 288.106 158.948 288.446 158.948C288.787 158.948 289.113 159.084 289.354 159.324C289.595 159.565 289.73 159.892 289.73 160.232C289.73 160.573 289.595 160.899 289.354 161.14L286.411 164.081L289.354 167.022ZM300.901 164.989L297.052 168.838C296.811 169.078 296.485 169.214 296.144 169.214C295.804 169.214 295.477 169.078 295.236 168.838C294.996 168.597 294.86 168.27 294.86 167.93C294.86 167.589 294.996 167.263 295.236 167.022L298.179 164.081L295.236 161.14C294.996 160.899 294.86 160.573 294.86 160.232C294.86 159.892 294.996 159.565 295.236 159.324C295.477 159.084 295.804 158.948 296.144 158.948C296.485 158.948 296.811 159.084 297.052 159.324L300.901 163.173C301.02 163.292 301.115 163.434 301.179 163.59C301.244 163.745 301.277 163.912 301.277 164.081C301.277 164.25 301.244 164.417 301.179 164.572C301.115 164.728 301.02 164.87 300.901 164.989ZM296.144 153.817V146.761L303.201 153.817H296.144Z" fill="#2D7E5D"/>
<rect width="33.1941" height="33.1941" transform="translate(209.94 47.0778)" fill="white"/>
<path d="M219.898 50.3972C219.018 50.3972 218.173 50.7469 217.551 51.3694C216.928 51.992 216.579 52.8363 216.579 53.7166V73.6331C216.579 74.5134 216.928 75.3577 217.551 75.9803C218.173 76.6028 219.018 76.9525 219.898 76.9525H229.352C228.263 76.0805 227.44 74.9199 226.978 73.6032C226.392 73.5113 225.858 73.2129 225.472 72.7618C225.086 72.3106 224.874 71.7364 224.874 71.1428C224.874 70.5492 225.087 69.9752 225.473 69.5243C225.859 69.0734 226.394 68.7753 226.98 68.6838C227.35 67.6292 227.952 66.6714 228.743 65.8813C229.533 65.0912 230.491 64.4891 231.546 64.1197C231.638 63.5331 231.936 62.9987 232.387 62.6127C232.838 62.2267 233.412 62.0146 234.006 62.0146C234.599 62.0146 235.173 62.2267 235.624 62.6127C236.075 62.9987 236.374 63.5331 236.465 64.1197L236.495 64.128V53.7166C236.495 52.8363 236.145 51.992 235.523 51.3694C234.9 50.7469 234.056 50.3972 233.176 50.3972H219.898ZM234.928 72.5244C234.747 72.6468 234.544 72.7323 234.329 72.7757C234.115 72.8192 233.894 72.8199 233.68 72.7778C233.465 72.7357 233.261 72.6516 233.079 72.5303C232.897 72.4091 232.741 72.253 232.619 72.0712C232.498 71.8893 232.413 71.6853 232.371 71.4707C232.329 71.2562 232.329 71.0354 232.372 70.821C232.416 70.6066 232.501 70.4029 232.623 70.2216C232.745 70.0402 232.902 69.8848 233.084 69.7643C233.45 69.5394 233.889 69.4651 234.308 69.5568C234.728 69.6486 235.095 69.8993 235.334 70.2564C235.572 70.6135 235.663 71.0491 235.587 71.4717C235.511 71.8943 235.275 72.271 234.927 72.5227L234.928 72.5244ZM239.73 70.3137H240.644C240.865 70.3137 241.076 70.4011 241.231 70.5567C241.387 70.7124 241.474 70.9234 241.474 71.1435C241.474 71.3636 241.387 71.5747 241.231 71.7303C241.076 71.8859 240.865 71.9734 240.644 71.9734H239.73C239.55 73.2077 238.977 74.351 238.095 75.233C237.213 76.115 236.07 76.6884 234.835 76.8678V77.7823C234.835 78.0024 234.748 78.2135 234.592 78.3691C234.437 78.5248 234.226 78.6122 234.006 78.6122C233.786 78.6122 233.574 78.5248 233.419 78.3691C233.263 78.2135 233.176 78.0024 233.176 77.7823V76.8678C231.941 76.6884 230.798 76.115 229.916 75.233C229.034 74.351 228.461 73.2077 228.281 71.9734H227.367C227.147 71.9734 226.936 71.8859 226.78 71.7303C226.624 71.5747 226.537 71.3636 226.537 71.1435C226.537 70.9234 226.624 70.7124 226.78 70.5567C226.936 70.4011 227.147 70.3137 227.367 70.3137H228.281C228.461 69.0794 229.034 67.936 229.916 67.0541C230.798 66.1721 231.941 65.5987 233.176 65.4192V64.5047C233.176 64.2846 233.263 64.0735 233.419 63.9179C233.574 63.7623 233.786 63.6749 234.006 63.6749C234.226 63.6749 234.437 63.7623 234.592 63.9179C234.748 64.0735 234.835 64.2846 234.835 64.5047V65.4192C236.07 65.5987 237.213 66.1721 238.095 67.0541C238.977 67.936 239.55 69.0794 239.73 70.3137ZM234.412 75.2729C234.955 75.2195 235.481 75.0598 235.962 74.8029C236.442 74.5461 236.867 74.1971 237.213 73.7759C237.559 73.3547 237.818 72.8695 237.976 72.3481C238.134 71.8267 238.188 71.2792 238.135 70.7369C238.082 70.1946 237.922 69.6682 237.665 69.1876C237.408 68.7071 237.059 68.2818 236.638 67.9361C236.217 67.5904 235.732 67.3311 235.21 67.1729C234.689 67.0147 234.141 66.9608 233.599 67.0142C232.504 67.122 231.496 67.6605 230.798 68.5112C230.1 69.3618 229.768 70.455 229.876 71.5502C229.984 72.6453 230.523 73.6528 231.373 74.3509C232.224 75.0491 233.317 75.3807 234.412 75.2729Z" fill="#2D7E5D"/>
<rect width="30.2188" height="30.2188" transform="translate(347 50.3972)" fill="white"/>
<path d="M374.7 70.543V55.4336C374.7 54.7658 374.435 54.1252 373.963 53.653C373.491 53.1807 372.85 52.9154 372.182 52.9154H357.073C356.405 52.9154 355.764 53.1807 355.292 53.653C354.82 54.1252 354.555 54.7658 354.555 55.4336V70.543C354.555 71.2109 354.82 71.8514 355.292 72.3237C355.764 72.7959 356.405 73.0613 357.073 73.0613H372.182C372.85 73.0613 373.491 72.7959 373.963 72.3237C374.435 71.8514 374.7 71.2109 374.7 70.543ZM360.85 65.5066L363.406 68.9188L367.146 64.2474L372.182 70.543H357.073M349.518 57.9519V75.5795C349.518 76.2474 349.783 76.8879 350.256 77.3601C350.728 77.8324 351.368 78.0977 352.036 78.0977H369.664V75.5795H352.036V57.9519" fill="#2D7E5D"/>
<rect width="48.4616" height="33.9231" transform="translate(268.064 260.038)" fill="white"/>
<path d="M313.402 274.505C313.297 274.422 312.315 273.692 310.245 273.692C309.698 273.694 309.153 273.74 308.614 273.83C308.213 271.122 305.943 269.802 305.841 269.743L305.285 269.427L304.92 269.947C304.462 270.646 304.128 271.416 303.932 272.225C303.561 273.771 303.786 275.222 304.583 276.464C303.621 276.992 302.079 277.122 301.766 277.133H276.228C275.561 277.134 275.02 277.666 275.017 278.324C274.987 280.529 275.366 282.722 276.135 284.794C277.015 287.069 278.324 288.744 280.026 289.77C281.934 290.922 285.034 291.581 288.548 291.581C290.136 291.585 291.72 291.444 293.281 291.157C295.451 290.765 297.538 290.017 299.458 288.945C301.039 288.042 302.463 286.893 303.673 285.543C305.696 283.285 306.901 280.769 307.798 278.534C307.918 278.534 308.038 278.534 308.155 278.534C310.37 278.534 311.733 277.66 312.484 276.928C312.983 276.461 313.373 275.891 313.626 275.26L313.784 274.803L313.402 274.505Z" fill="#2D7E5D"/>
<path d="M278.474 276.548H281.842C282.004 276.548 282.136 276.403 282.136 276.224V276.224V272.918C282.137 272.738 282.006 272.593 281.843 272.592C281.843 272.592 281.842 272.592 281.842 272.592H278.474C278.311 272.592 278.18 272.737 278.18 272.916C278.18 272.916 278.18 272.917 278.18 272.918V276.224C278.18 276.403 278.311 276.548 278.474 276.548V276.548" fill="#2D7E5D"/>
<path d="M283.223 276.548H286.589C286.751 276.548 286.883 276.403 286.883 276.224V276.224V272.918C286.884 272.738 286.753 272.593 286.591 272.592C286.59 272.592 286.59 272.592 286.589 272.592H283.223C283.059 272.592 282.927 272.737 282.927 272.918V276.224C282.928 276.403 283.06 276.548 283.223 276.548" fill="#2D7E5D"/>
<path d="M287.968 276.548H291.336C291.499 276.548 291.63 276.403 291.63 276.224V276.224V272.918C291.631 272.738 291.5 272.593 291.338 272.592C291.337 272.592 291.337 272.592 291.336 272.592H287.968C287.806 272.592 287.674 272.737 287.674 272.916C287.674 272.916 287.674 272.917 287.674 272.918V276.224C287.674 276.403 287.806 276.548 287.968 276.548V276.548" fill="#2D7E5D"/>
<path d="M292.715 276.548H296.082C296.245 276.548 296.377 276.403 296.378 276.224V272.918C296.378 272.737 296.245 272.592 296.082 272.592V272.592H292.715C292.553 272.592 292.422 272.737 292.422 272.916C292.422 272.916 292.422 272.917 292.422 272.918V276.224C292.422 276.403 292.553 276.548 292.715 276.548V276.548" fill="#2D7E5D"/>
<path d="M283.223 271.8H286.589C286.752 271.799 286.883 271.654 286.883 271.475V268.168C286.883 267.989 286.751 267.844 286.589 267.844V267.844H283.223C283.06 267.844 282.928 267.989 282.927 268.168V271.475C282.928 271.654 283.06 271.799 283.223 271.8" fill="#2D7E5D"/>
<path d="M287.968 271.8H291.336C291.499 271.799 291.63 271.654 291.63 271.475V268.168C291.63 267.989 291.499 267.844 291.336 267.844V267.844H287.968C287.806 267.844 287.674 267.989 287.674 268.168V268.168V271.475C287.674 271.654 287.806 271.799 287.968 271.8" fill="#2D7E5D"/>
<path d="M292.715 271.8H296.082C296.245 271.799 296.377 271.654 296.378 271.475V268.168C296.377 267.989 296.245 267.844 296.082 267.844H292.715C292.553 267.844 292.422 267.989 292.422 268.168V268.168V271.475C292.422 271.654 292.553 271.799 292.715 271.8" fill="#2D7E5D"/>
<path d="M292.715 267.053H296.082C296.245 267.053 296.377 266.908 296.378 266.729V263.421C296.377 263.242 296.245 263.097 296.082 263.097H292.715C292.553 263.097 292.422 263.242 292.422 263.421V263.421V266.729C292.422 266.908 292.553 267.053 292.715 267.053" fill="#2D7E5D"/>
<path d="M297.463 276.548H300.829C300.992 276.548 301.124 276.403 301.125 276.224V272.918C301.125 272.737 300.992 272.592 300.829 272.592V272.592H297.463C297.3 272.592 297.169 272.737 297.169 272.916C297.169 272.916 297.169 272.917 297.169 272.918V276.224C297.169 276.403 297.3 276.548 297.463 276.548" fill="#2D7E5D"/>
<defs>
<clipPath id="clip0_19_647">
<rect width="87.998" height="87.998" fill="white" transform="translate(123.768 116.11)"/>
</clipPath>
<clipPath id="clip1_19_647">
<rect width="88.0506" height="88.0506" fill="white" transform="translate(370.118 116.11)"/>
</clipPath>
</defs>
</svg>
