<svg width="582" height="296" viewBox="0 0 582 296" fill="none" xmlns="http://www.w3.org/2000/svg">
<g clip-path="url(#clip0_19_647)">
<rect width="582" height="296" rx="20" fill="white"/>
<g clip-path="url(#clip1_19_647)">
<path d="M142.504 172.323C141.651 172.323 140.936 172.034 140.357 171.456C139.779 170.878 139.491 170.163 139.493 169.312C139.493 168.459 139.782 167.743 140.36 167.165C140.939 166.586 141.653 166.298 142.504 166.3H145.516V127.152C145.516 125.496 146.106 124.078 147.287 122.897C148.467 121.717 149.884 121.128 151.539 121.13H199.721C201.377 121.13 202.795 121.72 203.976 122.9C205.156 124.081 205.746 125.498 205.744 127.152V166.3H208.755C209.608 166.3 210.324 166.589 210.902 167.168C211.48 167.746 211.768 168.461 211.766 169.312C211.766 170.165 211.477 170.881 210.899 171.459C210.321 172.037 209.606 172.325 208.755 172.323H142.504ZM171.113 166.3H180.147C180.548 166.3 180.9 166.15 181.201 165.849C181.502 165.548 181.653 165.196 181.653 164.795C181.653 164.393 181.502 164.042 181.201 163.741C180.9 163.44 180.548 163.289 180.147 163.289H171.113C170.711 163.289 170.36 163.44 170.059 163.741C169.758 164.042 169.607 164.393 169.607 164.795C169.607 165.196 169.758 165.548 170.059 165.849C170.36 166.15 170.711 166.3 171.113 166.3Z" fill="#2D7E5D"/>
</g>
<g clip-path="url(#clip2_19_647)">
<path d="M373.13 172.323C372.276 172.323 371.561 172.034 370.983 171.456C370.404 170.878 370.116 170.163 370.118 169.312C370.118 168.459 370.407 167.743 370.986 167.165C371.564 166.586 372.278 166.298 373.13 166.3H376.141V127.152C376.141 125.496 376.731 124.078 377.912 122.897C379.092 121.717 380.51 121.128 382.164 121.13H430.346C432.002 121.13 433.421 121.72 434.601 122.9C435.782 124.081 436.371 125.498 436.369 127.152V166.3H439.38C440.233 166.3 440.949 166.589 441.527 167.168C442.105 167.746 442.394 168.461 442.392 169.312C442.392 170.165 442.102 170.881 441.524 171.459C440.946 172.037 440.231 172.325 439.38 172.323H373.13ZM401.738 166.3H410.772C411.173 166.3 411.525 166.15 411.826 165.849C412.127 165.548 412.278 165.196 412.278 164.795C412.278 164.393 412.127 164.042 411.826 163.741C411.525 163.44 411.173 163.289 410.772 163.289H401.738C401.336 163.289 400.985 163.44 400.684 163.741C400.383 164.042 400.232 164.393 400.232 164.795C400.232 165.196 400.383 165.548 400.684 165.849C400.985 166.15 401.336 166.3 401.738 166.3Z" fill="#2D7E5D"/>
</g>
<line x1="211.766" y1="150.536" x2="370.118" y2="150.536" stroke="#2D7E5D" stroke-width="2.15777" stroke-dasharray="2.88 2.88"/>
<path fill-rule="evenodd" clip-rule="evenodd" d="M406.505 188.725L403.537 179.093L396.68 186.479L400.475 187.347C393.636 209.561 380.106 229.178 361.671 243.477C341.819 258.876 317.407 267.233 292.282 267.23C267.157 267.227 242.747 258.864 222.898 243.46C203.049 228.056 188.889 206.486 182.649 182.148L180.681 182.653C187.032 207.428 201.446 229.385 221.652 245.066C241.857 260.747 266.705 269.259 292.281 269.262C317.858 269.265 342.708 260.759 362.917 245.083C381.722 230.496 395.514 210.473 402.462 187.801L406.505 188.725Z" fill="#2D7E5D"/>
<path fill-rule="evenodd" clip-rule="evenodd" d="M180.68 107.418L183.648 117.049L190.505 109.663L186.71 108.796C193.55 86.5816 207.08 66.9647 225.514 52.6656C245.367 37.2663 269.779 28.9099 294.904 28.9129C320.029 28.9159 344.439 37.2781 364.288 52.6821C384.137 68.0861 398.296 89.6562 404.536 113.994L406.505 113.489C400.153 88.7145 385.739 66.757 365.534 51.0765C345.328 35.3959 320.48 26.8835 294.904 26.8805C269.328 26.8774 244.478 35.3839 224.268 51.0597C205.463 65.6465 191.671 85.6695 184.723 108.342L180.68 107.418Z" fill="#2D7E5D"/>
<rect width="33.6234" height="33.6234" transform="translate(275.483 131.42)" fill="white"/>
<path d="M303.546 142.235L296.191 134.88C296.093 134.782 295.977 134.705 295.85 134.652C295.722 134.6 295.585 134.572 295.447 134.573H282.839C282.281 134.573 281.747 134.794 281.353 135.188C280.959 135.582 280.737 136.117 280.737 136.674V159.79C280.737 160.347 280.959 160.882 281.353 161.276C281.747 161.67 282.281 161.892 282.839 161.892H301.752C302.309 161.892 302.844 161.67 303.238 161.276C303.632 160.882 303.853 160.347 303.853 159.79V142.978C303.853 142.84 303.826 142.704 303.774 142.576C303.721 142.449 303.643 142.333 303.546 142.235ZM289.886 153.793C289.984 153.891 290.061 154.007 290.114 154.134C290.167 154.262 290.194 154.398 290.194 154.536C290.194 154.675 290.167 154.811 290.114 154.939C290.061 155.066 289.984 155.182 289.886 155.28C289.789 155.377 289.673 155.455 289.545 155.508C289.418 155.561 289.281 155.588 289.143 155.588C289.005 155.588 288.868 155.561 288.741 155.508C288.613 155.455 288.497 155.377 288.4 155.28L285.247 152.128C285.15 152.03 285.072 151.914 285.019 151.787C284.966 151.659 284.939 151.522 284.939 151.384C284.939 151.246 284.966 151.109 285.019 150.982C285.072 150.854 285.15 150.738 285.247 150.641L288.4 147.489C288.597 147.292 288.864 147.181 289.143 147.181C289.422 147.181 289.689 147.292 289.886 147.489C290.084 147.686 290.194 147.953 290.194 148.232C290.194 148.511 290.084 148.778 289.886 148.975L287.476 151.384L289.886 153.793ZM299.343 152.128L296.191 155.28C295.994 155.477 295.726 155.588 295.447 155.588C295.169 155.588 294.901 155.477 294.704 155.28C294.507 155.083 294.396 154.815 294.396 154.536C294.396 154.258 294.507 153.99 294.704 153.793L297.114 151.384L294.704 148.975C294.507 148.778 294.396 148.511 294.396 148.232C294.396 147.953 294.507 147.686 294.704 147.489C294.901 147.292 295.169 147.181 295.447 147.181C295.726 147.181 295.994 147.292 296.191 147.489L299.343 150.641C299.441 150.738 299.518 150.854 299.571 150.982C299.624 151.109 299.651 151.246 299.651 151.384C299.651 151.522 299.624 151.659 299.571 151.787C299.518 151.914 299.441 152.03 299.343 152.128ZM295.447 142.978V137.199L301.226 142.978H295.447Z" fill="#2D7E5D"/>
<rect width="22.6553" height="22.6553" transform="translate(215.209 40.3472)" fill="white"/>
<path d="M222.006 42.6127C221.405 42.6127 220.829 42.8514 220.404 43.2763C219.979 43.7012 219.74 44.2774 219.74 44.8783V58.4714C219.74 59.0723 219.979 59.6485 220.404 60.0734C220.829 60.4983 221.405 60.737 222.006 60.737H228.458C227.715 60.1418 227.153 59.3497 226.838 58.451C226.438 58.3883 226.073 58.1846 225.81 57.8767C225.547 57.5688 225.402 57.177 225.402 56.7718C225.402 56.3666 225.547 55.9749 225.811 55.6671C226.074 55.3594 226.439 55.156 226.839 55.0935C227.092 54.3737 227.503 53.72 228.042 53.1807C228.582 52.6415 229.236 52.2306 229.956 51.9784C230.018 51.5781 230.222 51.2134 230.53 50.9499C230.837 50.6865 231.229 50.5417 231.634 50.5417C232.039 50.5417 232.431 50.6865 232.739 50.9499C233.047 51.2134 233.25 51.5781 233.313 51.9784L233.333 51.9841V44.8783C233.333 44.2774 233.095 43.7012 232.67 43.2763C232.245 42.8514 231.669 42.6127 231.068 42.6127H222.006ZM232.264 57.7147C232.14 57.7983 232.001 57.8566 231.855 57.8863C231.709 57.916 231.558 57.9164 231.412 57.8877C231.265 57.859 231.126 57.8015 231.002 57.7188C230.878 57.636 230.771 57.5295 230.688 57.4054C230.605 57.2813 230.548 57.142 230.519 56.9956C230.49 56.8492 230.49 56.6985 230.52 56.5522C230.549 56.4058 230.607 56.2668 230.691 56.143C230.774 56.0193 230.881 55.9132 231.006 55.831C231.255 55.6775 231.555 55.6267 231.841 55.6893C232.127 55.752 232.378 55.9231 232.541 56.1668C232.704 56.4105 232.766 56.7078 232.714 56.9962C232.662 57.2847 232.5 57.5418 232.263 57.7136L232.264 57.7147ZM235.541 56.2059H236.165C236.316 56.2059 236.46 56.2656 236.566 56.3718C236.672 56.478 236.732 56.6221 236.732 56.7723C236.732 56.9225 236.672 57.0666 236.566 57.1728C236.46 57.279 236.316 57.3387 236.165 57.3387H235.541C235.419 58.1811 235.027 58.9614 234.425 59.5634C233.823 60.1653 233.043 60.5567 232.201 60.6792V61.3033C232.201 61.4535 232.141 61.5976 232.035 61.7038C231.929 61.81 231.785 61.8697 231.634 61.8697C231.484 61.8697 231.34 61.81 231.234 61.7038C231.128 61.5976 231.068 61.4535 231.068 61.3033V60.6792C230.225 60.5567 229.445 60.1653 228.843 59.5634C228.241 58.9614 227.85 58.1811 227.727 57.3387H227.103C226.953 57.3387 226.809 57.279 226.703 57.1728C226.597 57.0666 226.537 56.9225 226.537 56.7723C226.537 56.6221 226.597 56.478 226.703 56.3718C226.809 56.2656 226.953 56.2059 227.103 56.2059H227.727C227.85 55.3635 228.241 54.5831 228.843 53.9812C229.445 53.3792 230.225 52.9879 231.068 52.8654V52.2412C231.068 52.091 231.128 51.9469 231.234 51.8407C231.34 51.7345 231.484 51.6748 231.634 51.6748C231.785 51.6748 231.929 51.7345 232.035 51.8407C232.141 51.9469 232.201 52.091 232.201 52.2412V52.8654C233.043 52.9879 233.823 53.3792 234.425 53.9812C235.027 54.5831 235.419 55.3635 235.541 56.2059ZM231.912 59.5906C232.282 59.5542 232.641 59.4452 232.969 59.2699C233.297 59.0946 233.587 58.8564 233.823 58.5689C234.059 58.2814 234.236 57.9503 234.344 57.5944C234.452 57.2385 234.489 56.8649 234.453 56.4948C234.416 56.1246 234.307 55.7653 234.132 55.4374C233.957 55.1094 233.718 54.8191 233.431 54.5832C233.143 54.3473 232.812 54.1703 232.456 54.0623C232.101 53.9543 231.727 53.9175 231.357 53.954C230.609 54.0276 229.922 54.3951 229.445 54.9757C228.969 55.5563 228.742 56.3023 228.816 57.0498C228.89 57.7973 229.257 58.4849 229.838 58.9614C230.418 59.4379 231.164 59.6642 231.912 59.5906Z" fill="#2D7E5D"/>
<rect width="23.2986" height="23.2986" transform="translate(350.866 40.0255)" fill="white"/>
<path d="M372.223 55.5579V43.9086C372.223 43.3936 372.018 42.8998 371.654 42.5357C371.29 42.1716 370.796 41.967 370.281 41.967H358.632C358.117 41.967 357.623 42.1716 357.259 42.5357C356.895 42.8998 356.691 43.3936 356.691 43.9086V55.5579C356.691 56.0728 356.895 56.5666 357.259 56.9307C357.623 57.2949 358.117 57.4994 358.632 57.4994H370.281C370.796 57.4994 371.29 57.2949 371.654 56.9307C372.018 56.5666 372.223 56.0728 372.223 55.5579ZM361.544 51.6748L363.515 54.3056L366.398 50.704L370.281 55.5579H358.632M352.807 45.8501V59.441C352.807 59.9559 353.012 60.4497 353.376 60.8139C353.74 61.178 354.234 61.3825 354.749 61.3825H368.34V59.441H354.749V45.8501" fill="#2D7E5D"/>
<rect width="23.0633" height="23.0633" transform="translate(282.973 254.679)" fill="white"/>
<path d="M289.276 256.985C288.852 256.985 288.507 257.316 288.507 257.721V265.826H300.502V257.721C300.502 257.316 300.157 256.985 299.733 256.985H289.276ZM291.735 258.754H293.582C293.838 258.754 294.041 258.953 294.041 259.195C294.041 259.254 294.028 259.313 294.005 259.367C293.981 259.422 293.947 259.471 293.904 259.512C293.862 259.553 293.811 259.585 293.756 259.606C293.701 259.628 293.642 259.638 293.582 259.636H291.735C291.676 259.638 291.617 259.627 291.562 259.606C291.507 259.584 291.457 259.552 291.414 259.511C291.372 259.47 291.337 259.421 291.314 259.367C291.29 259.313 291.277 259.254 291.276 259.195C291.276 258.953 291.483 258.754 291.735 258.754ZM286.096 266.211C285.646 266.211 285.279 266.556 285.279 266.979V274.667C285.279 275.09 285.646 275.435 286.096 275.435H292.045C291.619 275.435 291.277 275.09 291.277 274.667V268.516H288.97C288.715 268.516 288.507 268.309 288.507 268.053C288.507 267.798 288.715 267.594 288.97 267.594H291.277V266.21L286.096 266.211ZM302.961 266.211H291.661V274.667C291.661 275.091 292.027 275.436 292.477 275.436H302.961C303.385 275.436 303.73 275.09 303.73 274.667V266.98C303.73 266.556 303.384 266.211 302.961 266.211ZM295.426 274.051H292.661V273.13H295.426V274.051ZM297.274 272.667H292.661V271.745H297.274V272.667ZM296.811 268.517H294.967C294.352 268.517 294.352 267.595 294.967 267.595H296.811C297.384 267.634 297.384 268.474 296.811 268.517Z" fill="#2D7E5D"/>
</g>
<defs>
<clipPath id="clip0_19_647">
<rect width="582" height="296" rx="20" fill="white"/>
</clipPath>
<clipPath id="clip1_19_647">
<rect width="72.2733" height="72.2733" fill="white" transform="translate(139.493 112.095)"/>
</clipPath>
<clipPath id="clip2_19_647">
<rect width="72.2733" height="72.2733" fill="white" transform="translate(370.118 112.095)"/>
</clipPath>
</defs>
</svg>
