<?xml version="1.0" encoding="UTF-8" standalone="no"?>
<svg
   id="Layer_1"
   data-name="Layer 1"
   viewBox="0 0 1383.76 402.76"
   version="1.1"
   sodipodi:docname="nocd.svg"
   width="1383.76"
   height="402.76001"
   inkscape:version="1.2.2 (b0a84865, 2022-12-01)"
   xmlns:inkscape="http://www.inkscape.org/namespaces/inkscape"
   xmlns:sodipodi="http://sodipodi.sourceforge.net/DTD/sodipodi-0.dtd"
   xmlns="http://www.w3.org/2000/svg"
   xmlns:svg="http://www.w3.org/2000/svg">
  <sodipodi:namedview
     id="namedview29"
     pagecolor="#ffffff"
     bordercolor="#000000"
     borderopacity="0.25"
     inkscape:showpageshadow="2"
     inkscape:pageopacity="0.0"
     inkscape:pagecheckerboard="0"
     inkscape:deskcolor="#d1d1d1"
     showgrid="false"
     inkscape:zoom="0.90044516"
     inkscape:cx="566.9418"
     inkscape:cy="202.67753"
     inkscape:window-width="1920"
     inkscape:window-height="1027"
     inkscape:window-x="0"
     inkscape:window-y="25"
     inkscape:window-maximized="1"
     inkscape:current-layer="Layer_1" />
  <defs
     id="defs4">
    <style
       id="style2">.cls-1{fill:#00a3ad}.cls-2{fill:#ff5d47}</style>
  </defs>
  <path
     d="m 690.44,251.73 v 106.45 h -37.4 V 251.73 c 0,-32.37 -25.89,-59 -58.25,-59 -31.65,0 -58.26,26.61 -58.26,59 V 358.18 H 499.88 V 160.39 h 37.4 v 18.7 c 16.54,-12.95 37.4,-23 58.26,-23 25.17,0 49.62,9.35 67.6,27.33 17.23,18.68 27.3,42.42 27.3,68.31 z m 239.5,7.19 c 0,27.33 -10.79,53.22 -30.93,73.36 a 102.32,102.32 0 0 1 -72.64,30.21 c -27.33,0 -53.22,-10.79 -73.36,-30.21 -19.42,-20.14 -30.2,-46 -30.2,-73.36 0,-27.36 10.78,-53.22 30.2,-73.36 a 104.54,104.54 0 0 1 73.36,-29.49 c 27.33,0 53.22,10.07 72.64,29.49 20.14,20.14 30.93,46.03 30.93,73.36 z m -37.4,0 a 66.17,66.17 0 1 0 -66.17,66.17 c 36.68,0.72 66.17,-29.49 66.17,-66.17 z"
     class="cls-1"
     id="path6" />
  <path
     d="m 1153.61,320.05 c -3.59,4.32 -7.19,8.63 -10.79,12.23 -19.41,19.42 -45.31,29.49 -72.64,29.49 -27.33,0 -53.94,-10.07 -73.35,-29.49 -19.42,-20.14 -30.21,-46 -30.21,-73.36 0,-27.36 10.79,-53.22 30.21,-73.36 19.41,-19.42 46,-29.49 73.35,-29.49 27.35,0 53.23,10.07 72.64,29.49 a 82.11,82.11 0 0 1 10.06,12.23 l -29.48,22.29 c -12.23,-16.54 -31.65,-27.33 -53.23,-27.33 -36.68,0 -66.16,30.21 -66.16,66.89 0,36.68 29.48,66.88 66.16,66.88 a 65,65 0 0 0 53.23,-28 z M 1346.36,41 h 37.4 v 316.45 h -37.4 v -23 c -18.7,15.82 -41.71,27.33 -66.17,27.33 a 104.54,104.54 0 0 1 -73.31,-29.5 c -19.41,-20.14 -30.2,-46 -30.2,-73.36 0,-27.36 10.79,-53.22 30.2,-73.36 a 104.54,104.54 0 0 1 73.36,-29.49 c 24.46,0 48.19,11.51 66.17,27.33 z m 0,217.92 c 0,-36.68 -29.49,-66.89 -66.17,-66.89 -36.68,0 -66.16,30.21 -66.16,66.89 0,36.68 29.48,66.89 66.16,66.89 36.68,0 66.17,-30.21 66.17,-66.89 z"
     class="cls-2"
     id="path8" />
  <circle
     cx="-95.791351"
     cy="141.48895"
     r="40.279999"
     class="cls-1"
     transform="rotate(-79.1)"
     id="circle10" />
  <circle
     cx="281.92999"
     cy="120.83"
     r="40.279999"
     class="cls-1"
     id="circle12" />
  <circle
     cx="201.38"
     cy="40.279999"
     r="40.279999"
     class="cls-2"
     id="circle14" />
  <circle
     cx="201.38"
     cy="201.38"
     r="40.279999"
     class="cls-2"
     id="circle16" />
  <circle
     cx="362.48001"
     cy="201.38"
     r="40.279999"
     class="cls-2"
     id="circle18" />
  <circle
     cx="201.38"
     cy="362.48001"
     r="40.279999"
     class="cls-2"
     id="circle20" />
  <circle
     cx="40.279999"
     cy="201.38"
     r="40.279999"
     class="cls-2"
     id="circle22" />
  <circle
     cx="281.92999"
     cy="281.92999"
     r="40.279999"
     class="cls-1"
     id="circle24" />
  <circle
     cx="-257.64212"
     cy="164.63713"
     r="40.279999"
     class="cls-1"
     transform="rotate(-80.8)"
     id="circle26" />
</svg>
