<?xml version="1.0" encoding="utf-8"?>
<!-- Generator: Adobe Illustrator 25.4.1, SVG Export Plug-In . SVG Version: 6.00 Build 0)  -->
<svg version="1.1" id="Capa_3" xmlns="http://www.w3.org/2000/svg" xmlns:xlink="http://www.w3.org/1999/xlink" x="0px" y="0px"
	 viewBox="0 0 540 750" enable-background="new 0 0 540 750" xml:space="preserve">
<g>
	
		<linearGradient id="SVGID_1_" gradientUnits="userSpaceOnUse" x1="-0.2441" y1="-392.9891" x2="539.7559" y2="-392.9891" gradientTransform="matrix(1 0 0 1 0 692)">
		<stop  offset="0" style="stop-color:#0092FF"/>
		<stop  offset="1" style="stop-color:#04DFFD"/>
	</linearGradient>
	<path fill="url(#SVGID_1_)" d="M539.8,70.7c0-0.1,0-0.1,0-0.1s0-0.1,0-0.1c0-0.1,0-0.1,0-0.1s0-0.1,0-0.1s0-0.1,0-0.1v-0.1v-0.1
		c0-0.1,0-0.1,0-0.1s0-0.1-0.1-0.1c0-0.1,0-0.1-0.1-0.1c0-0.1,0-0.1-0.1-0.1c0-0.1-0.1-0.1-0.1-0.1s-0.1-0.1-0.1-0.1l-0.1-0.1
		c0-0.1-0.1-0.1-0.1-0.1l-0.1-0.1l-0.1-0.1c0,0-0.1-0.1-0.1-0.1s-0.1-0.1-0.1-0.1s-0.1-0.1-0.1-0.1c0,0-0.1,0-0.1-0.1l-53.7-28.6
		l0,0l0,0h-0.1l0,0l-0.1-0.1h-0.1c0,0-0.1,0-0.1-0.1h-0.1h-0.1l0,0l0,0l0,0l-68.8-14c-0.2-0.1-0.3-0.1-0.5-0.1c-0.1,0-0.1,0-0.1,0
		s-0.1,0-0.1,0l0,0h-0.1c-0.1,0-0.1,0-0.1,0l0,0L353.9,33l-27.7-16l0,0c-0.1,0-0.1-0.1-0.1-0.1s-0.1-0.1-0.2-0.1h-0.1l0,0L270.4,0
		h-0.1h-0.1h-0.1h-0.1H270H270h-0.1c0,0,0,0-0.1,0c0,0,0,0-0.1,0h-0.1h-0.1h-0.1h-0.1h-0.1h-0.1h-0.1l-55.4,16.8l0,0h-0.1
		c-0.1,0-0.1,0.1-0.1,0.1c-0.1,0-0.1,0.1-0.1,0.1l0,0l-27.7,16L125,25.7c-0.1,0-0.1,0-0.1,0h-0.1l0,0c-0.1,0-0.1,0-0.2,0
		c-0.1,0-0.1,0-0.1,0c-0.1,0-0.1,0-0.2,0s-0.1,0-0.2,0.1c-0.1,0-0.1,0-0.1,0L55,39.7H55h-0.1c0,0-0.1,0-0.1,0.1
		c-0.1,0-0.1,0-0.1,0.1c0,0-0.1,0-0.1,0.1h-0.1l0,0l0,0l0,0L0.8,68.5c0,0-0.1,0-0.1,0.1c-0.1,0-0.1,0.1-0.1,0.1s-0.1,0.1-0.1,0.1
		l-0.1,0.1l-0.1,0.1c-0.1,0.1-0.1,0.1-0.1,0.1l-0.1,0.1l-0.1,0.1c0,0.1-0.1,0.1-0.1,0.1C0,69.3,0,69.3,0,69.4s-0.1,0.1-0.1,0.1
		s-0.1,0.1-0.1,0.1s0,0.1-0.1,0.1c0,0.1,0,0.1,0,0.1V70v0.1c0,0.1,0,0.1,0,0.1s0,0.1,0,0.1c0,0.1,0,0.1,0,0.1s0,0.1,0,0.1
		s0,0.1,0,0.1s0,0.1,0,0.1s0,0.1,0.1,0.1v0.1l32.5,88.7v0.1c0,0,0,0.1,0.1,0.1c0,0,0,0,0,0.1l35.9,73l0,0l0,0l0,0
		c0,0.1,0.1,0.1,0.1,0.1c0,0,0,0,0,0.1l0,0l0,0c0,0,0,0.1,0.1,0.1c0.1,0.1,0.1,0.1,0.1,0.2l0,0l0,0l0,0l0,0l0,0l72.6,70.2l0.1,0.1
		c0.1,0.1,0.1,0.1,0.1,0.1c0.1,0.1,0.1,0.1,0.1,0.1c0.1,0,0.1,0.1,0.1,0.1c0.1,0,0.1,0.1,0.2,0.1s0.1,0.1,0.2,0.1s0.1,0,0.2,0.1h0.1
		l45.6,3.7l-18,63.6l-0.5,0.4c-0.7,0.6-0.9,1.6-0.5,2.4L148.1,423l-29.9,43.5c0,0,0,0,0,0.1c-0.1,0.1-0.1,0.1-0.1,0.2
		c0,0.1-0.1,0.1-0.1,0.1c0,0.1-0.1,0.1-0.1,0.2c0,0.1-0.1,0.1-0.1,0.2c0,0.1,0,0.1,0,0.2c0,0.1,0,0.1,0,0.2c0,0.1,0,0.1,0,0.2
		s0,0.1,0,0.2s0.1,0.1,0.1,0.2s0.1,0.1,0.1,0.2s0.1,0.1,0.1,0.1c0.1,0.1,0.1,0.1,0.1,0.2c0,0,0,0,0,0.1l0.1,0.1
		c0.1,0.1,0.1,0.1,0.2,0.2c0.1,0.1,0.1,0.1,0.1,0.1l0.1,0.1c0.1,0.1,0.1,0.1,0.2,0.1c0,0,0,0,0.1,0c0.1,0.1,0.3,0.1,0.4,0.1h0.1
		c0.1,0,0.3,0.1,0.4,0.1l0,0l0,0c0.1,0,0.3,0,0.4-0.1h0.1c0.1-0.1,0.3-0.1,0.4-0.1c0,0,0,0,0.1,0c0.1-0.1,0.1-0.1,0.2-0.1l46.9-33.8
		l0.1-0.1c0.1-0.1,0.1-0.1,0.1-0.1l0,0c0,0,0,0,0-0.1c0.1-0.1,0.1-0.1,0.1-0.1c0.1-0.1,0.1-0.1,0.1-0.1l0.1-0.1l0,0l31-52v-0.1
		l0.1-0.1l0,0l0,0l25.1-50.6l4.2,115.4v0.1v0.1l0,0l0,0l0,0l12,92.1l0,0l0,0l0,0v0.1c0,0.1,0,0.1,0.1,0.2c0,0.1,0,0.1,0,0.1l0,0v0.1
		c0,0.1,0.1,0.1,0.1,0.1s0.1,0.1,0.1,0.1l0,0l0,0l27,46.2l0,0c0,0,0,0.1,0.1,0.1l0.1,0.1c0,0.1,0.1,0.1,0.1,0.1
		c0,0.1,0.1,0.1,0.1,0.1c0,0,0,0.1,0.1,0.1c0,0,0,0,0.1,0l0.1,0.1c0.1,0,0.1,0.1,0.1,0.1s0.1,0.1,0.1,0.1c0,0,0,0,0.1,0.1l0,0h0.1
		c0.1,0,0.1,0.1,0.1,0.1s0.1,0.1,0.2,0.1h0.1h0.1l0,0l0,0l40.1,10.4l0,0h0.1c0,0,0,0,0.1,0l0,0c0.1,0,0.1,0,0.1,0c0.1,0,0.2,0,0.3,0
		l0,0l0,0l0,0l0,0l0,0l0,0c0.1,0,0.2,0,0.3,0h0.1c0,0,0,0,0.1,0l0,0l0,0c0,0,0,0,0.1,0l0,0c0.1,0,0.1,0,0.1,0s0.1-0.1,0.1-0.1l0,0
		c0.1,0,0.1,0,0.1-0.1l0,0l0,0l37.1-18.8l0,0l0,0l0,0l0,0c0.1,0,0.1-0.1,0.1-0.1c0.1-0.1,0.1-0.1,0.2-0.1l0,0c0,0,0,0,0.1-0.1
		l0.1-0.1c0.1-0.1,0.1-0.1,0.1-0.1c0,0,0-0.1,0.1-0.1l0,0c0,0,0-0.1,0.1-0.1c0,0,0,0,0.1-0.1l19.8-30.2l0,0c0.1-0.1,0.1-0.1,0.1-0.2
		c0-0.1,0.1-0.1,0.1-0.1c0-0.1,0.1-0.1,0.1-0.2c0-0.1,0-0.1,0.1-0.1c0-0.1,0-0.1,0-0.2c0-0.1,0-0.1,0-0.2c0-0.1,0-0.1,0-0.2
		c0-0.1,0-0.1,0-0.2c0,0,0,0,0-0.1s-0.1-0.1-0.1-0.1c0-0.1-0.1-0.1-0.1-0.2c0-0.1-0.1-0.1-0.1-0.2s-0.1-0.1-0.1-0.1
		c-0.1-0.1-0.1-0.1-0.1-0.2c-0.1-0.1-0.1-0.1-0.1-0.1c-0.1-0.1-0.1-0.1-0.2-0.1l-0.1-0.1l0,0c-0.1-0.1-0.1-0.1-0.3-0.1
		c-0.1,0-0.1-0.1-0.1-0.1c-0.1,0-0.1-0.1-0.3-0.1c-0.1,0-0.1,0-0.1-0.1c-0.1,0-0.1,0-0.2,0c-0.1,0-0.1,0-0.2,0s-0.1,0-0.2,0
		c-0.1,0-0.1,0-0.2,0c0,0,0,0-0.1,0l-30,7.5l-7-13.5c0-0.1-0.1-0.1-0.1-0.1c-0.1-0.1-0.1-0.1-0.1-0.2c-0.1-0.1-0.1-0.1-0.1-0.1
		c-0.1-0.1-0.1-0.1-0.1-0.1c-0.1-0.1-0.1-0.1-0.2-0.1c-0.1,0-0.1-0.1-0.1-0.1c-0.1-0.1-0.1-0.1-0.2-0.1c-0.1,0-0.1-0.1-0.1-0.1l0,0
		c-0.1,0-0.2-0.1-0.3-0.1s-0.1,0-0.1,0s-0.2,0-0.3,0s-0.1,0-0.1,0s-0.1,0-0.2,0c-0.1,0-0.1,0-0.2,0.1c-0.1,0-0.1,0.1-0.1,0.1
		s-0.1,0.1-0.2,0.1l0,0c-0.1,0-0.1,0.1-0.1,0.1c-0.1,0.1-0.1,0.1-0.2,0.1c-0.1,0.1-0.1,0.1-0.1,0.1s-0.1,0.1-0.1,0.1
		c-0.1,0.1-0.1,0.1-0.1,0.1c-0.1,0.1-0.1,0.1-0.1,0.1c-0.1,0.1-0.1,0.1-0.1,0.2c0,0.1-0.1,0.1-0.1,0.1l-5.3,15.2L299,538.5
		l11.5-91.1v-0.1v-0.1l4.2-115.4l25.1,50.6l0,0l0,0c0,0,0,0.1,0.1,0.1v0.1l31,52l0,0l0.1,0.1c0.1,0.1,0.1,0.1,0.1,0.1
		c0.1,0.1,0.1,0.1,0.1,0.1c0,0,0,0,0.1,0.1l0,0c0.1,0.1,0.1,0.1,0.1,0.1l0.1,0.1l46.9,33.8c0.1,0.1,0.1,0.1,0.2,0.1c0,0,0,0,0.1,0
		c0.1,0.1,0.3,0.1,0.4,0.1h0.1c0.1,0,0.3,0.1,0.4,0.1l0,0l0,0c0.1,0,0.3,0,0.4-0.1h0.1c0.1-0.1,0.3-0.1,0.4-0.1c0,0,0,0,0.1,0
		c0.1-0.1,0.1-0.1,0.2-0.1l0.1-0.1c0.1-0.1,0.1-0.1,0.1-0.1c0.1-0.1,0.1-0.1,0.2-0.2l0.1-0.1c0,0,0,0,0-0.1c0.1-0.1,0.1-0.1,0.1-0.2
		c0-0.1,0.1-0.1,0.1-0.1c0-0.1,0.1-0.1,0.1-0.2s0.1-0.1,0.1-0.2s0-0.1,0-0.2s0-0.1,0-0.2s0-0.1,0-0.2s0-0.1,0-0.2s0-0.1-0.1-0.2
		c0-0.1-0.1-0.1-0.1-0.2s-0.1-0.1-0.1-0.1c0-0.1-0.1-0.1-0.1-0.2c0,0,0,0,0-0.1l-29.9-43.5L370,373l-18.6-65.3l45.6-3.6h0.1
		c0.1,0,0.1,0,0.2-0.1c0.1,0,0.1,0,0.2-0.1c0.1,0,0.1-0.1,0.2-0.1c0.1,0,0.1-0.1,0.1-0.1c0.1,0,0.1-0.1,0.1-0.1
		c0.1-0.1,0.1-0.1,0.1-0.1l0.1-0.1l72.6-70.2l0,0l0,0l0,0l0,0l0,0c0.1-0.1,0.1-0.1,0.1-0.2c0,0,0-0.1,0.1-0.1l0,0l0,0c0,0,0,0,0-0.1
		s0.1-0.1,0.1-0.1l0,0l0,0l0,0l35.9-73c0,0,0,0,0-0.1c0,0,0-0.1,0.1-0.1v-0.1L539.5,71v-0.1c0-0.1,0-0.1,0.1-0.1
		C539.8,70.7,539.8,70.7,539.8,70.7z M395.9,300.2l-38.9,3.1l97.8-60L395.9,300.2z M327.9,545.3l4.4,8.5l-7.8,1.6L327.9,545.3z
		 M150.7,426.6l12.6,7.4l-35,25.2L150.7,426.6z M152.7,423.1l15.9-37.2l-3.3,44.5L152.7,423.1z M173.3,376.6l21.6,6.4l-25.3,42.5
		L173.3,376.6z M196.9,379.3l-22.3-6.5l44.9-38.9L196.9,379.3z M143.6,300.2l-58.8-56.9l97.7,60L143.6,300.2z M271.8,498.4V342.6
		l14.9,100.8c0.1,0.3,0.1,0.5,0.3,0.8L271.8,498.4z M179.1,227.5l-14.3-41.7l37.6,5.6L179.1,227.5z M311.2,171.5l-37-6.8l50.5-43.2
		L311.2,171.5z M374.1,140.4l-42.2-25l27.9-22.2L374.1,140.4z M363.2,90.2l13.4-20l-0.9,61.6L363.2,90.2z M329.9,111.9l-7.2-57.5
		l35.1,35.3L329.9,111.9z M271.8,161.5v-53.9l52.1,9.3L271.8,161.5z M267.7,161.5L215.7,117l52.1-9.3V161.5z M179.6,93.3l27.9,22.2
		l-42.2,25L179.6,93.3z M163.8,131.8l-0.9-61.6l13.4,20L163.8,131.8z M181.6,89.7l35.1-35.3l-7.1,57.5L181.6,89.7z M265.3,164.7
		l-37,6.8l-13.5-50L265.3,164.7z M267.7,168.3v133.4l-38.4-126.4L267.7,168.3z M271.8,168.3l38.4,7l-38.4,126.4V168.3z M329.7,118.8
		l44.6,26.4l-40.8,42.1L315,173.1L329.7,118.8z M375.5,149.7l0.1,31.9l-36.3,5.4L375.5,149.7z M380.7,65.7l94.2,15.2l-95.3,60.2
		L380.7,65.7z M360.6,86.7l-34-34.2l48.8,12.2L360.6,86.7z M326,113.3l-52.4-9.3l45-50.5L326,113.3z M213.5,113.3l7.4-59.8l45,50.5
		L213.5,113.3z M178.9,86.7l-14.7-22l48.8-12.2L178.9,86.7z M159.9,141.1L64.6,80.7l94.3-15L159.9,141.1z M160,145.9l-0.1,32.6
		L72.9,90.8L160,145.9z M164,149.7l36.3,37.4l-36.3-5.4L164,149.7z M206,187.2l-40.8-42.1l44.6-26.4l14.6,54.3L206,187.2z
		 M228.7,321.5l0.1-134.2l38.4,126.4L228.7,321.5z M267.7,498.4l-15.1-53.9l15.1-101.9V498.4z M310.7,187.3l0.1,134.2l-38.5-7.8
		L310.7,187.3z M314.7,177.9l16.8,12.9l-16.7,107.3L314.7,177.9z M337,191.5l37.6-5.6l-14.3,41.7L337,191.5z M358.9,232.6l-9.8,59.6
		l-12.2-93.7L358.9,232.6z M379.5,145.9l87-54.9l-86.9,87.5L379.5,145.9z M389.8,63.1l92-18.9l-3.1,33.3L389.8,63.1z M326.5,48.3
		l26.4-10.8l19.9,22.4L326.5,48.3z M271.8,100V6.5l45.5,42.4L271.8,100z M267.7,100l-45.5-51l45.5-42.4V100z M166.7,59.9l19.9-22.4
		L213,48.3L166.7,59.9z M60.8,77.2l-3.1-33.1l91.9,19L60.8,77.2z M155.8,180.1L36.7,157.3l23.1-74L155.8,180.1z M175.7,230.1
		L78.2,230l82.6-43.7L175.7,230.1z M176.9,234.1L188,302L77.2,234L176.9,234.1z M180.6,232.6l22-34.1l-12.2,93.8L180.6,232.6z
		 M224.8,177.9l-0.1,120.2L208,190.8L224.8,177.9z M267.3,317.8l-17,115l-21.2-107.3L267.3,317.8z M267.5,512.4l-22.3,21.9l6.5-78.3
		L267.5,512.4z M272,512.4l15.8-56.4l6.5,78.3L272,512.4z M294.2,539.9l-22.4,38.4v-60.6L294.2,539.9z M289.2,433l-17-115.2
		l38.3,7.8L289.2,433z M333.5,204.1l13.1,100.7l-31.2,15.6L333.5,204.1z M362.6,234.1l99.6-0.1l-110.7,67.9L362.6,234.1z
		 M363.8,230.1l15-43.9l82.6,43.7L363.8,230.1z M479.5,83.5l23.2,73.8l-119,22.8L479.5,83.5z M485.8,44.8l45.8,24.4l-48.9,8.1
		L485.8,44.8z M385,60l30.8-30.1L474,41.7L385,60z M378.7,60.5l-21.2-23.8l51.9-6.2L378.7,60.5z M322.6,45.6l4-23.6l22.3,12.8
		L322.6,45.6z M318.7,44.8L277.5,6.3l45.4,13.8L318.7,44.8z M220.8,44.8l-4.1-24.6L262,6.3L220.8,44.8z M212.9,22l4,23.6l-26.3-10.7
		L212.9,22z M160.8,60.5L130,30.4l52,6.3L160.8,60.5z M123.7,29.9l30.8,30.2L65.5,41.6L123.7,29.9z M53.7,44.8l3,32.4L7.9,69.3
		L53.7,44.8z M56.4,81.2l-22.3,71.5L4.8,72.8L56.4,81.2z M155.9,184.2l-84.8,45l-33.3-67.5L155.9,184.2z M206,204.1l18.1,116.3
		l-31.2-15.6L206,204.1z M248.2,443l-15.2,2.1l-3.4-96L248.2,443z M248.4,447l-6,73.2l-9-71.2L248.4,447z M267.7,517.8v60.6
		L245.3,540L267.7,517.8z M296,544.9l11.3,48.4l-34.4-8.9L296,544.9z M334.2,557.4l6.8,12.9l-14.9-11.3L334.2,557.4z M343.3,577.1
		l-30,15.2l9.2-30.9L343.3,577.1z M347.2,573.4l-8.9-17l24-6L347.2,573.4z M310.2,588.3L300,544.5l19,14.3L310.2,588.3z M291.1,447
		l15.1,2.1l-9,71.2L291.1,447z M306.5,445.1l-15.2-2.1l18.7-94L306.5,445.1z M319.3,332.6L364,373l-21.4,6.3L319.3,332.6z
		 M366.3,376.6l3.6,48.8l-25.3-42.5L366.3,376.6z M388.8,426.6l22.4,32.6l-35-25.2L388.8,426.6z M374.2,430.4l-3.3-44.5l15.9,37.2
		L374.2,430.4z M316.4,324.5l31.2-15.6l16.7,58.9L316.4,324.5z M468.5,229.2l-84.8-45l118.1-22.6L468.5,229.2z M505.4,152.7
		l-22.4-71.3l51.7-8.6L505.4,152.7z M192,308.9l31.9,16l-48.3,41.8L192,308.9z"/>
	<g id="Group_4271_00000043452285575078592300000002375327798751032493_" transform="translate(-465.189 -785.201)">
		
			<linearGradient id="Path_15381_00000132065020000342079990000016016957821628988328_" gradientUnits="userSpaceOnUse" x1="909.4548" y1="14.1851" x2="923.0385" y2="25.3005" gradientTransform="matrix(23.6857 0 0 28.9473 -21030.1426 976.0429)">
			<stop  offset="0" style="stop-color:#0092FF"/>
			<stop  offset="0.206" style="stop-color:#009BFE"/>
			<stop  offset="0.549" style="stop-color:#01B4FE"/>
			<stop  offset="0.984" style="stop-color:#03DDFD"/>
			<stop  offset="0.994" style="stop-color:#04DFFD"/>
		</linearGradient>
		
			<path id="Path_15381_00000169525725258003795410000012327506267500035991_" fill="url(#Path_15381_00000132065020000342079990000016016957821628988328_)" d="
			M628.5,1491.5c0,3.7,0.3,9.1,0.8,16.6H628c-2.3-5.8-4.6-11.1-6.9-15.9l-24.2-51c-0.8-1.9-2-3.5-3.4-4.9c-1.5-1.1-3.2-1.6-5-1.5
			h-12.8c-3.8-0.5-7.1,2.2-7.6,5.9c-0.1,0.6-0.1,1.3,0.1,1.9v90.6H588v-58.4c0.1-5.3-0.3-10.5-1-15.7h1.5c1.5,5.3,3.4,10.4,5.8,15.3
			l25.1,52.5c0.8,1.9,2,3.5,3.4,4.9c1.5,1.1,3.2,1.6,5,1.5h13.2c5,0,7.5-2.6,7.5-7.8v-90.6h-20V1491.5z"/>
		
			<linearGradient id="Path_15382_00000119088686050567725440000005573943292586681497_" gradientUnits="userSpaceOnUse" x1="909.7687" y1="11.8441" x2="924.2922" y2="22.5682" gradientTransform="matrix(22.157 0 0 30.0087 -19595.2734 979.6978)">
			<stop  offset="0" style="stop-color:#0092FF"/>
			<stop  offset="0.206" style="stop-color:#009BFE"/>
			<stop  offset="0.549" style="stop-color:#01B4FE"/>
			<stop  offset="0.984" style="stop-color:#03DDFD"/>
			<stop  offset="0.994" style="stop-color:#04DFFD"/>
		</linearGradient>
		
			<path id="Path_15382_00000119838894688082520390000018309627238122239149_" fill="url(#Path_15382_00000119088686050567725440000005573943292586681497_)" d="
			M723,1511.6c-5.2,3.1-11.1,4.8-17.2,5c-5.1,0.5-10-2.2-12.3-6.8c-2.2-4.6-3.3-13-3.3-25.2c-0.1-5.8,0.2-11.5,1-17.1
			c0.4-3.5,1.7-7,3.8-9.9c1.6-2.2,3.9-3.8,6.4-4.6c3.3-0.8,6.7-1.2,10-1.1c7.6,0,16.5,0.2,27,0.7l1.7-16c-9.6-2.5-19.4-3.6-29.3-3.4
			c-15.9,0-27,3.7-33.3,11c-6.3,7.3-9.5,20.6-9.5,39.8c0,18.1,2.4,31.1,7.2,39.2c4.8,8.1,13.9,12.8,23.3,12.1
			c10.4,0.2,20.5-4,27.6-11.7l1.9,9.8h15.5v-56.8h-20.4L723,1511.6L723,1511.6z"/>
		<g id="Group_4271-2_00000022518349209592107540000008517418627433938862_" transform="translate(552.482 785.372)">
			<path id="Path_15383_00000143585006500637093690000010625596762328050607_" fill="none" d="M247.1,664.8l-15.2,0.2v27.7h15.2
				c4,0.4,8.1-0.6,11.3-2.9c4-6.8,4.1-15.2,0.1-22C255.2,665.4,251.2,664.4,247.1,664.8z"/>
			
				<linearGradient id="Path_15384_00000060751492668087640520000004223052980936482722_" gradientUnits="userSpaceOnUse" x1="-194.6361" y1="10.8289" x2="-180.0855" y2="21.815" gradientTransform="matrix(22.118 0 0 29.295 4355.8022 191.7003)">
				<stop  offset="0" style="stop-color:#0092FF"/>
				<stop  offset="0.206" style="stop-color:#009BFE"/>
				<stop  offset="0.549" style="stop-color:#01B4FE"/>
				<stop  offset="0.984" style="stop-color:#03DDFD"/>
				<stop  offset="0.994" style="stop-color:#04DFFD"/>
			</linearGradient>
			
				<path id="Path_15384_00000046334179418830270970000006681972459083394216_" fill="url(#Path_15384_00000060751492668087640520000004223052980936482722_)" d="
				M264.5,702.4v-0.7c5.5-0.3,10.7-3,14.1-7.4c3.1-5.1,4.6-11,4.2-17c0-11-2.7-18.7-8-22.8c-5.3-4.2-14.5-6.2-27.3-6.2
				c-15.7,0-27.8,0.4-36.4,1.3v98.4h20.8v-38.5l14.8,0.2c2.3-0.2,4.6,0.5,6.6,1.8c1.8,1.7,3.1,4,3.7,6.5l7.2,30.1h22.3l-8.3-30.6
				C277.2,709.9,271.7,704,264.5,702.4z M258.5,689.7c-3.3,2.3-7.4,3.4-11.3,2.9h-15.2V665l15.2-0.2c4-0.4,8.1,0.5,11.4,2.8
				C262.6,674.5,262.5,683,258.5,689.7L258.5,689.7z"/>
		</g>
		
			<linearGradient id="Path_15385_00000140714890311533019100000018087350969498181039_" gradientUnits="userSpaceOnUse" x1="910.1385" y1="9.1793" x2="926.9059" y2="20.2065" gradientTransform="matrix(19.191 0 0 29.186 -16813.6074 976.8213)">
			<stop  offset="0" style="stop-color:#0092FF"/>
			<stop  offset="0.206" style="stop-color:#009BFE"/>
			<stop  offset="0.549" style="stop-color:#01B4FE"/>
			<stop  offset="0.984" style="stop-color:#03DDFD"/>
			<stop  offset="0.994" style="stop-color:#04DFFD"/>
		</linearGradient>
		
			<path id="Path_15385_00000103261824263794971180000015775676553024533899_" fill="url(#Path_15385_00000140714890311533019100000018087350969498181039_)" d="
			M877.2,1453.7c1.3-1.2,3.2-1.9,5-1.7h36.7l1-16.1c-8.6-1-23.4-1.5-44.3-1.5c-5.6-0.3-11.1,1.7-15.2,5.4c-3.9,3.8-6,9-5.8,14.5
			v59.6c-0.2,5.4,1.9,10.7,5.8,14.5c4.2,3.7,9.7,5.6,15.2,5.4c20.8,0,35.6-0.5,44.3-1.5l-1-16h-36.7c-1.8,0.2-3.7-0.4-5-1.7
			c-1.2-1.7-1.7-3.7-1.5-5.7v-19h38.1v-15.7h-38.1v-15C875.6,1457.3,876.1,1455.3,877.2,1453.7z"/>
		
			<linearGradient id="Path_15386_00000104676408980554637860000011960555040495886210_" gradientUnits="userSpaceOnUse" x1="911.3909" y1="7.583" x2="927.171" y2="18.3107" gradientTransform="matrix(20.3912 0 0 29.9888 -17893.666 979.6191)">
			<stop  offset="0" style="stop-color:#0092FF"/>
			<stop  offset="0.206" style="stop-color:#009BFE"/>
			<stop  offset="0.549" style="stop-color:#01B4FE"/>
			<stop  offset="0.984" style="stop-color:#03DDFD"/>
			<stop  offset="0.994" style="stop-color:#04DFFD"/>
		</linearGradient>
		
			<path id="Path_15386_00000075142683137020112070000013892569273755276439_" fill="url(#Path_15386_00000104676408980554637860000011960555040495886210_)" d="
			M983.3,1477.7l-18.2-6.4c-2.9-0.8-5.6-2.2-7.9-4.1c-1.6-2-2.3-4.5-2.1-7c0-4,0.9-6.5,2.8-7.5c3.5-1.3,7.3-1.8,11.1-1.5
			c11.9,0,21.9,0.2,29.9,0.4l1.4-14.8c-10.3-2.7-20.8-4-31.4-3.9c-12.9,0-22,1.8-27.1,5.5s-7.7,10.9-7.7,21.7
			c-0.3,6.3,1.3,12.6,4.6,18c3.8,5.1,9.1,8.9,15.2,10.8l19.2,7c2.6,0.7,5,2,7.1,3.8c1.5,2,2.2,4.6,1.9,7c0.4,2.9-0.6,5.8-2.8,7.7
			c-3.5,1.6-7.4,2.2-11.3,1.8c-1.4,0-11.9-0.2-31.6-0.7l-1.2,15.7c10.7,2.4,21.8,3.7,32.8,3.7c13.3,0,22.5-2,27.7-5.9
			c5.2-3.9,7.7-11.5,7.7-22.5c0.3-6.3-1.3-12.6-4.6-18.1C995,1483.4,989.5,1479.6,983.3,1477.7z"/>
		
			<linearGradient id="Path_15387_00000026145462940336982120000015778816748705139585_" gradientUnits="userSpaceOnUse" x1="877.5931" y1="42.6621" x2="931.7238" y2="69.4159" gradientTransform="matrix(5.9446 0 0 12.0243 -4740.1221 907.8018)">
			<stop  offset="0" style="stop-color:#0092FF"/>
			<stop  offset="0.206" style="stop-color:#009BFE"/>
			<stop  offset="0.549" style="stop-color:#01B4FE"/>
			<stop  offset="0.984" style="stop-color:#03DDFD"/>
			<stop  offset="0.994" style="stop-color:#04DFFD"/>
		</linearGradient>
		
			<path id="Path_15387_00000171683516500058606250000010466525436021330056_" fill="url(#Path_15387_00000026145462940336982120000015778816748705139585_)" d="
			M517.3,1433.7c-3.3-0.5-6.7-0.7-10.1-0.7c-3.3,0-6.7,0.2-9.9,0.7v26.2c-0.3,3.8,0.4,7.7,2.2,11.1c4.5,4,11.2,4,15.7,0
			c1.8-3.4,2.6-7.3,2.2-11.1L517.3,1433.7z"/>
		
			<linearGradient id="Path_15388_00000180350433518390246790000002873555683423035016_" gradientUnits="userSpaceOnUse" x1="908.7296" y1="15.6957" x2="922.126" y2="26.6852" gradientTransform="matrix(24.02 0 0 29.284 -21367.2754 977.5483)">
			<stop  offset="0" style="stop-color:#0092FF"/>
			<stop  offset="0.206" style="stop-color:#009BFE"/>
			<stop  offset="0.549" style="stop-color:#01B4FE"/>
			<stop  offset="0.984" style="stop-color:#03DDFD"/>
			<stop  offset="0.994" style="stop-color:#04DFFD"/>
		</linearGradient>
		
			<path id="Path_15388_00000086685163395408839660000002454316027870106800_" fill="url(#Path_15388_00000180350433518390246790000002873555683423035016_)" d="
			M525.9,1435.4v49.6c-0.1,12.5-1.4,21-3.9,25.5c-6.7,8.1-18.6,9.4-26.8,2.7c-1-0.8-1.9-1.7-2.7-2.7c-2.6-4.5-3.9-13.1-3.9-25.5
			v-49.6c-5.2,1.5-9.7,4.4-13.2,8.4c-6,7.3-8.9,20.6-8.9,40.2s3,32.9,8.9,40.2c6,7.3,16.6,10.9,31.9,10.9s25.9-3.7,32-10.9
			s9-20.6,9-40.2c0-19.5-3-32.9-9-40.2C535.7,1439.8,531.1,1436.8,525.9,1435.4z"/>
	</g>
</g>
</svg>
