<svg width="40" height="40" viewBox="0 0 40 40" fill="none" xmlns="http://www.w3.org/2000/svg">
<path d="M18.5001 33.7501C16.2111 33.751 13.9583 33.1796 11.9463 32.0881C9.93439 30.9966 8.22722 29.4194 6.98002 27.5001H13.5V25.0001H3.50001V35.0001H6.00002V30.3938C7.52731 32.2261 9.43859 33.7004 11.5986 34.7124C13.7587 35.7244 16.1147 36.2493 18.5001 36.2501V33.7501ZM23.5001 12.5H30.0189C28.4026 10.0157 26.0267 8.12019 23.2454 7.09625C20.4641 6.0723 17.4263 5.97472 14.5849 6.81805C11.7436 7.66138 9.25096 9.40045 7.47862 11.776C5.70627 14.1515 4.74917 17.0362 4.75001 20.0001H2.25C2.2514 16.6591 3.28215 13.3997 5.20198 10.6654C7.1218 7.93116 9.83746 5.85481 12.9794 4.71893C16.1213 3.58305 19.5369 3.44282 22.7614 4.31732C25.9859 5.19181 28.8626 7.03856 31.0001 9.60626V4.99999H33.5001V15H23.5001V12.5Z" fill="#2D7E5D" stroke="white" stroke-width="0.25"/>
<rect x="29.2558" y="19.6523" width="2.90628" height="15.2387" rx="0.896395" stroke="#2D7E5D" stroke-width="1.79279"/>
<rect x="24.4522" y="21.8811" width="2.90628" height="12.9606" rx="0.896395" transform="rotate(15 24.4522 21.8811)" stroke="#2D7E5D" stroke-width="1.79279"/>
<rect x="34.8573" y="19.6523" width="2.90628" height="15.2387" rx="0.896395" stroke="#2D7E5D" stroke-width="1.79279"/>
</svg>
