<svg width="46" height="45" viewBox="0 0 46 45" fill="none" xmlns="http://www.w3.org/2000/svg">
<path d="M5.51937 34.843L22.2136 14.4399L38.9078 34.843H5.51937Z" stroke="#2D7E5D" stroke-width="2"/>
<path d="M14.9961 23.6374L16.8586 25.3242L19.3867 23.6374L22.0476 25.3242L24.1097 23.6374L26.6376 25.3242L29.1654 23.6374" stroke="#2D7E5D" stroke-width="2" stroke-linecap="round"/>
<path d="M2.46094 26.8235L8.35896 19.3737L12.9579 25.1832" stroke="#2D7E5D" stroke-width="2" stroke-linecap="round"/>
<path d="M42.8535 26.8235L36.9555 19.3737L32.3565 25.1832" stroke="#2D7E5D" stroke-width="2" stroke-linecap="round"/>
<path d="M22.2129 10.7708V6.28605C22.2129 6.09146 22.2129 5.99447 22.2767 5.94844C22.3406 5.9024 22.4326 5.93309 22.6168 5.99447L28.7055 8.02446C29.0665 8.14478 29.247 8.20493 29.247 8.31543C29.247 8.42592 29.0665 8.48608 28.7055 8.60639L22.2129 10.7708ZM22.2129 10.7708V14.4539" stroke="#2D7E5D" stroke-width="2" stroke-linecap="round"/>
</svg>
