<svg width="40" height="41" viewBox="0 0 40 41" fill="none" xmlns="http://www.w3.org/2000/svg">
<path d="M31.2097 14.592L24.1158 7.49809C23.9746 7.35674 23.8069 7.2446 23.6224 7.16809C23.4379 7.09158 23.24 7.05219 23.0403 7.05219H10.8792C10.2073 7.05219 9.56289 7.31911 9.08776 7.79424C8.61263 8.26938 8.3457 8.91379 8.3457 9.58573V31.8809C8.3457 32.5529 8.61263 33.1973 9.08776 33.6724C9.56289 34.1476 10.2073 34.4145 10.8792 34.4145H29.1208C29.7927 34.4145 30.4371 34.1476 30.9123 33.6724C31.3874 33.1973 31.6543 32.5529 31.6543 31.8809V15.6662C31.6543 15.2634 31.4944 14.877 31.2097 14.592ZM26.9673 14.6528H24.0537V11.7392L26.9673 14.6528ZM11.386 31.3742V10.0924H21.0134V16.173C21.0134 16.5761 21.1736 16.9628 21.4587 17.2478C21.7438 17.5329 22.1304 17.6931 22.5336 17.6931H28.6141V31.3742H11.386ZM23.6078 25.2316C24.0707 24.2608 24.1756 23.1576 23.904 22.117C23.6323 21.0763 23.0016 20.1652 22.1232 19.5445C21.2449 18.9238 20.1754 18.6335 19.1038 18.7249C18.0321 18.8164 17.0273 19.2836 16.2668 20.0441C15.5062 20.8046 15.039 21.8095 14.9476 22.8811C14.8561 23.9528 15.1464 25.0222 15.7671 25.9006C16.3878 26.779 17.2989 27.4097 18.3396 27.6813C19.3803 27.953 20.4835 27.8481 21.4543 27.3852L22.9744 28.9053C23.26 29.1909 23.6473 29.3513 24.0512 29.3513C24.455 29.3513 24.8423 29.1909 25.1279 28.9053C25.4135 28.6197 25.5739 28.2324 25.5739 27.8285C25.5739 27.4247 25.4135 27.0373 25.1279 26.7518L23.6078 25.2316ZM17.9732 23.2669C17.9732 22.9662 18.0623 22.6723 18.2294 22.4223C18.3964 22.1724 18.6338 21.9775 18.9116 21.8625C19.1893 21.7474 19.495 21.7173 19.7899 21.776C20.0847 21.8346 20.3556 21.9794 20.5682 22.192C20.7808 22.4046 20.9256 22.6754 20.9842 22.9703C21.0429 23.2652 21.0128 23.5708 20.8977 23.8486C20.7827 24.1264 20.5878 24.3638 20.3378 24.5308C20.0879 24.6979 19.794 24.787 19.4933 24.787C19.0901 24.787 18.7035 24.6269 18.4184 24.3418C18.1333 24.0567 17.9732 23.67 17.9732 23.2669Z" fill="#2D7E5D"/>
</svg>
