<svg width="46" height="46" viewBox="0 0 46 46" fill="none" xmlns="http://www.w3.org/2000/svg">
<g id="iconoir:pc-check">
<g id="Group">
<path id="Vector" d="M13.625 41.254H32.375" stroke="#2D7E5D" stroke-width="3" stroke-linecap="round" stroke-linejoin="round"/>
<path id="Vector_2" d="M4.25 31.879V7.50397C4.25 6.50941 4.64509 5.55558 5.34835 4.85232C6.05161 4.14906 7.00544 3.75397 8 3.75397H38C38.9946 3.75397 39.9484 4.14906 40.6516 4.85232C41.3549 5.55558 41.75 6.50941 41.75 7.50397V31.879C41.75 32.8735 41.3549 33.8274 40.6516 34.5306C39.9484 35.2339 38.9946 35.629 38 35.629H8C7.00544 35.629 6.05161 35.2339 5.34835 34.5306C4.64509 33.8274 4.25 32.8735 4.25 31.879Z" stroke="#2D7E5D" stroke-width="3"/>
<path id="Vector_3" d="M17.375 19.6915L21.125 23.4415L28.625 15.9415" stroke="#2D7E5D" stroke-width="3" stroke-linecap="round" stroke-linejoin="round"/>
</g>
</g>
</svg>
