<svg width="46" height="46" viewBox="0 0 46 46" fill="none" xmlns="http://www.w3.org/2000/svg">
<g id="mdi:margin">
<path id="Vector" d="M39.1884 6.7187V16.6364L36.2131 13.6611L10.4271 39.4472L6.45996 35.4801L32.246 9.69402L29.2707 6.7187H39.1884ZM33.2378 38.4554C31.6596 38.4554 30.146 37.8285 29.0301 36.7125C27.9141 35.5966 27.2872 34.083 27.2872 32.5048V28.5377C27.2872 26.9595 27.9141 25.4459 29.0301 24.33C30.146 23.214 31.6596 22.5871 33.2378 22.5871C34.816 22.5871 36.3296 23.214 37.4455 24.33C38.5615 25.4459 39.1884 26.9595 39.1884 28.5377V32.5048C39.1884 34.083 38.5615 35.5966 37.4455 36.7125C36.3296 37.8285 34.816 38.4554 33.2378 38.4554ZM33.2378 26.5541C32.7117 26.5541 32.2072 26.7631 31.8352 27.1351C31.4632 27.5071 31.2543 28.0116 31.2543 28.5377V32.5048C31.2543 33.0309 31.4632 33.5354 31.8352 33.9074C32.2072 34.2794 32.7117 34.4883 33.2378 34.4883C33.7639 34.4883 34.2684 34.2794 34.6404 33.9074C35.0124 33.5354 35.2214 33.0309 35.2214 32.5048V28.5377C35.2214 28.0116 35.0124 27.5071 34.6404 27.1351C34.2684 26.7631 33.7639 26.5541 33.2378 26.5541ZM13.4024 22.5871C11.8242 22.5871 10.3106 21.9601 9.19463 20.8442C8.07867 19.7282 7.45173 18.2146 7.45173 16.6364V12.6693C7.45173 11.0911 8.07867 9.57756 9.19463 8.4616C10.3106 7.34564 11.8242 6.7187 13.4024 6.7187C14.9806 6.7187 16.4941 7.34564 17.6101 8.4616C18.7261 9.57756 19.353 11.0911 19.353 12.6693V16.6364C19.353 18.2146 18.7261 19.7282 17.6101 20.8442C16.4941 21.9601 14.9806 22.5871 13.4024 22.5871ZM13.4024 10.6858C12.8763 10.6858 12.3718 10.8948 11.9998 11.2668C11.6278 11.6387 11.4188 12.1433 11.4188 12.6693V16.6364C11.4188 17.1625 11.6278 17.667 11.9998 18.039C12.3718 18.411 12.8763 18.62 13.4024 18.62C13.9284 18.62 14.433 18.411 14.8049 18.039C15.1769 17.667 15.3859 17.1625 15.3859 16.6364V12.6693C15.3859 12.1433 15.1769 11.6387 14.8049 11.2668C14.433 10.8948 13.9284 10.6858 13.4024 10.6858Z" fill="#2D7E5D"/>
</g>
</svg>
