<svg width="41" height="40" viewBox="0 0 41 40" fill="none" xmlns="http://www.w3.org/2000/svg">
<path d="M27.0507 20.5L29.8437 17.707C30.0312 17.5195 30.1365 17.2652 30.1365 17C30.1365 16.7348 30.0312 16.4805 29.8437 16.293L27.5507 14L29.6367 11.914L32.7227 15L34.1367 13.586L26.5507 6L25.1367 7.414L28.2227 10.5L26.1367 12.586L23.8437 10.293C23.6562 10.1055 23.4019 10.0002 23.1367 10.0002C22.8716 10.0002 22.6172 10.1055 22.4297 10.293L19.6367 13.086L12.8437 6.293C12.6562 6.10553 12.4019 6.00021 12.1367 6.00021C11.8716 6.00021 11.6172 6.10553 11.4297 6.293L6.42972 11.293C6.24225 11.4805 6.13693 11.7348 6.13693 12C6.13693 12.2652 6.24225 12.5195 6.42972 12.707L13.2227 19.5L10.4297 22.293C10.2422 22.4805 10.1369 22.7348 10.1369 23C10.1369 23.2652 10.2422 23.5195 10.4297 23.707L12.7227 26L10.6367 28.086L7.55072 25L6.13672 26.414L13.7227 34L15.1367 32.586L12.0507 29.5L14.1367 27.414L16.4297 29.707C16.6172 29.8945 16.8716 29.9998 17.1367 29.9998C17.4019 29.9998 17.6562 29.8945 17.8437 29.707L20.6367 26.914L27.4297 33.707C27.6172 33.8945 27.8716 33.9998 28.1367 33.9998C28.4019 33.9998 28.6562 33.8945 28.8437 33.707L33.8437 28.707C34.0312 28.5195 34.1365 28.2652 34.1365 28C34.1365 27.7348 34.0312 27.4805 33.8437 27.293L27.0507 20.5ZM8.55072 12L12.1367 8.414L14.2227 10.5L10.6367 14.086L8.55072 12ZM12.0507 15.5L15.6367 11.914L18.2227 14.5L14.6367 18.086L12.0507 15.5ZM17.1367 27.586L12.5507 23L23.1367 12.414L27.7227 17L17.1367 27.586ZM22.0507 25.5L25.6367 21.914L28.2227 24.5L24.6367 28.086L22.0507 25.5ZM28.1367 31.586L26.0507 29.5L29.6367 25.914L31.7227 28L28.1367 31.586Z" fill="#2D7E5D"/>
</svg>
