<svg width="57" height="57" viewBox="0 0 57 57" fill="none" xmlns="http://www.w3.org/2000/svg">
<path d="M28.7124 4.96545C24.0975 4.96545 19.5862 6.33393 15.7491 8.89783C11.9119 11.4617 8.92123 15.1059 7.15518 19.3695C5.38914 23.6331 4.92706 28.3247 5.82738 32.8509C6.7277 37.3771 8.94999 41.5347 12.2132 44.7979C15.4764 48.0612 19.634 50.2835 24.1603 51.1838C28.6865 52.0841 33.378 51.622 37.6417 49.856C41.9053 48.0899 45.5494 45.0992 48.1133 41.2621C50.6772 37.4249 52.0457 32.9137 52.0457 28.2988C52.0457 25.2346 51.4422 22.2004 50.2696 19.3695C49.097 16.5386 47.3782 13.9663 45.2115 11.7996C43.0448 9.63293 40.4726 7.91421 37.6417 6.7416C34.8107 5.56899 31.7765 4.96545 28.7124 4.96545ZM24.0457 38.7988V17.7988L38.0457 28.2988L24.0457 38.7988Z" fill="white"/>
</svg>
