<svg width="27" height="17" viewBox="0 0 27 17" fill="none" xmlns="http://www.w3.org/2000/svg">
<path d="M0.123291 13.4531V15.4005C0.123291 15.7606 0.415791 16.0531 0.775891 16.0531H2.07199C2.15768 16.0533 2.24255 16.0365 2.32174 16.0038C2.40092 15.971 2.47284 15.9229 2.53337 15.8623C2.5939 15.8016 2.64184 15.7296 2.67444 15.6504C2.70703 15.5711 2.72363 15.4862 2.72329 15.4005V13.4531C2.72329 12.2064 3.76459 10.4982 5.32329 9.84042V7.10392C2.31249 7.80072 0.123291 10.8141 0.123291 13.4531ZM15.8078 1.36443L12.5188 3.83182C12.0677 4.16982 11.5191 4.35312 10.9549 4.35312H7.92979C7.20829 4.35312 6.62329 4.93813 6.62329 5.65963V10.8479C6.62329 11.5681 7.20829 12.1531 7.92979 12.1531H10.9549C11.5191 12.1531 12.0677 12.3364 12.5188 12.6744L15.8091 15.1418C16.5972 15.7335 17.5562 16.0533 18.5417 16.0531H20.9233V0.453125H18.5417C17.5563 0.453125 16.5969 0.772925 15.8078 1.36443ZM22.2233 3.05312V5.65312H26.1233V3.05312H22.2233ZM22.2233 13.4531H26.1233V10.8531H22.2233V13.4531Z" fill="#2D7E5D"/>
</svg>
