<svg width="388" height="388" viewBox="0 0 388 388" fill="none" xmlns="http://www.w3.org/2000/svg">
<g clip-path="url(#clip0_5634_6930)">
<rect x="0.875" y="0.790039" width="387" height="387" rx="16" fill="#E8F7FE" style="mix-blend-mode:multiply"/>
<path d="M194.375 27.9131L214.84 0.790039H173.91L194.375 27.9131Z" fill="#96FF5B" fill-opacity="0.64"/>
<g filter="url(#filter0_d_5634_6930)">
<rect x="28.377" y="62.29" width="332" height="264" rx="16" fill="white" shape-rendering="crispEdges"/>
<rect x="25.377" y="59.29" width="338" height="270" rx="19" stroke="url(#paint0_linear_5634_6930)" stroke-width="6" shape-rendering="crispEdges"/>
<path d="M56.127 81.5399L47.127 90.5399L43.002 86.4149L44.0595 85.3574L47.127 88.4174L55.0695 80.4824L56.127 81.5399Z" fill="#5AC41A"/>
<text fill="#475569" xml:space="preserve" style="white-space: pre" font-family="Helvetica" font-size="14" letter-spacing="0em"><tspan x="68.377" y="91.1196">Production services require 70% test </tspan><tspan x="68.377" y="119.12">coverage</tspan></text>
<path d="M56.127 153.54L47.127 162.54L43.002 158.415L44.0595 157.357L47.127 160.417L55.0695 152.482L56.127 153.54Z" fill="#5AC41A"/>
<text fill="#475569" xml:space="preserve" style="white-space: pre" font-family="Helvetica" font-size="14" letter-spacing="0em"><tspan x="68.377" y="163.12">Infra-as-code matches what is deployed in </tspan><tspan x="68.377" y="191.12">production</tspan></text>
<path d="M56.127 225.54L47.127 234.54L43.002 230.415L44.0595 229.357L47.127 232.417L55.0695 224.482L56.127 225.54Z" fill="#5AC41A"/>
<text fill="#475569" xml:space="preserve" style="white-space: pre" font-family="Helvetica" font-size="14" letter-spacing="0em"><tspan x="68.377" y="235.12">Kubernetes manifests adhere to company </tspan><tspan x="68.377" y="263.12">standards</tspan></text>
<path fill-rule="evenodd" clip-rule="evenodd" d="M49.3828 303.844L52.7466 307.208C52.9251 307.386 53.1672 307.487 53.4196 307.487C53.6721 307.487 53.9141 307.386 54.0926 307.208C54.2711 307.029 54.3714 306.787 54.3714 306.535C54.3714 306.282 54.2711 306.04 54.0926 305.862L50.7276 302.498L54.092 299.134C54.1803 299.046 54.2504 298.941 54.2982 298.825C54.346 298.71 54.3706 298.586 54.3706 298.461C54.3705 298.336 54.3459 298.213 54.298 298.097C54.2502 297.982 54.1801 297.877 54.0917 297.789C54.0033 297.7 53.8984 297.63 53.7829 297.582C53.6675 297.535 53.5437 297.51 53.4188 297.51C53.2938 297.51 53.1701 297.535 53.0546 297.582C52.9392 297.63 52.8343 297.7 52.746 297.789L49.3828 301.153L46.019 297.789C45.9313 297.698 45.8263 297.625 45.7102 297.575C45.5942 297.526 45.4693 297.499 45.343 297.498C45.2167 297.497 45.0914 297.521 44.9744 297.569C44.8575 297.617 44.7512 297.687 44.6618 297.776C44.5724 297.866 44.5017 297.972 44.4538 298.089C44.4059 298.206 44.3818 298.331 44.3828 298.457C44.3839 298.584 44.4101 298.709 44.4599 298.825C44.5097 298.941 44.5821 299.046 44.673 299.134L48.038 302.498L44.6736 305.862C44.5828 305.95 44.5103 306.055 44.4605 306.171C44.4107 306.288 44.3845 306.412 44.3835 306.539C44.3824 306.665 44.4066 306.79 44.4545 306.907C44.5024 307.024 44.5731 307.13 44.6624 307.22C44.7518 307.309 44.8581 307.38 44.975 307.427C45.092 307.475 45.2173 307.499 45.3436 307.498C45.47 307.497 45.5948 307.471 45.7109 307.421C45.8269 307.371 45.9319 307.298 46.0196 307.207L49.3828 303.844Z" fill="#BE3536"/>
<rect width="282" height="28" transform="translate(68.377 288.29)" fill="#FCEBEB"/>
<text fill="#475569" xml:space="preserve" style="white-space: pre" font-family="Helvetica" font-size="14" letter-spacing="0em"><tspan x="69.127" y="306.477">Dockerfiles shouldn&#39;t contain any latest tags</tspan></text>
</g>
</g>
<defs>
<filter id="filter0_d_5634_6930" x="11.377" y="48.29" width="366" height="298" filterUnits="userSpaceOnUse" color-interpolation-filters="sRGB">
<feFlood flood-opacity="0" result="BackgroundImageFix"/>
<feColorMatrix in="SourceAlpha" type="matrix" values="0 0 0 0 0 0 0 0 0 0 0 0 0 0 0 0 0 0 127 0" result="hardAlpha"/>
<feOffset dy="3"/>
<feGaussianBlur stdDeviation="5.5"/>
<feComposite in2="hardAlpha" operator="out"/>
<feColorMatrix type="matrix" values="0 0 0 0 0.34902 0 0 0 0 0.34902 0 0 0 0 0.34902 0 0 0 0.25 0"/>
<feBlend mode="normal" in2="BackgroundImageFix" result="effect1_dropShadow_5634_6930"/>
<feBlend mode="normal" in="SourceGraphic" in2="effect1_dropShadow_5634_6930" result="shape"/>
</filter>
<linearGradient id="paint0_linear_5634_6930" x1="18.692" y1="42.956" x2="402.631" y2="283.043" gradientUnits="userSpaceOnUse">
<stop stop-color="white"/>
<stop offset="1" stop-color="#F1F1F1"/>
</linearGradient>
<clipPath id="clip0_5634_6930">
<rect x="0.875" y="0.790039" width="387" height="387" rx="16" fill="white"/>
</clipPath>
</defs>
</svg>
