<svg width="46" height="46" viewBox="0 0 46 46" fill="none" xmlns="http://www.w3.org/2000/svg">
<g id="mdi:puzzle-plus-outline">
<path id="Vector" d="M25.25 41.254V40.6915C25.25 37.8977 23 35.629 20.1875 35.629C17.375 35.629 15.125 37.8977 15.125 40.6915V41.254H8C7.00544 41.254 6.05161 40.8589 5.34835 40.1556C4.64509 39.4524 4.25 38.4985 4.25 37.504V30.379H4.8125C7.60625 30.379 9.875 28.129 9.875 25.3165C9.875 22.504 7.60625 20.254 4.8125 20.254H4.25V13.129C4.25 11.0665 5.9375 9.37897 8 9.37897H13.7C14.15 6.19147 16.8875 3.75397 20.1875 3.75397C23.4875 3.75397 26.225 6.19147 26.675 9.37897H32.375C33.3696 9.37897 34.3234 9.77406 35.0266 10.4773C35.7299 11.1806 36.125 12.1344 36.125 13.129V18.829C39.3125 19.279 41.75 22.0165 41.75 25.3165C41.75 25.504 41.75 25.6915 41.6937 25.8602C40.5312 25.204 39.2563 24.754 37.8688 24.529C37.5312 23.3665 36.4625 22.504 35.1875 22.504H32.375V13.129H23V10.3165C23 8.76022 21.7437 7.50397 20.1875 7.50397C18.6313 7.50397 17.375 8.76022 17.375 10.3165V13.129H8V17.104C11.3 18.379 13.625 21.5665 13.625 25.3165C13.625 29.0665 11.2812 32.254 8 33.529V37.504H11.975C12.6175 35.8479 13.7455 34.4247 15.211 33.4209C16.6765 32.4171 18.4112 31.8796 20.1875 31.879C22.0063 31.879 23.6938 32.4415 25.1 33.3977C24.5514 36.0865 25.0119 38.8831 26.3938 41.254H25.25ZM34.25 28.129V33.754H28.625V37.504H34.25V43.129H38V37.504H43.625V33.754H38V28.129H34.25Z" fill="#2D7E5D"/>
</g>
</svg>
