<svg width="59" height="60" viewBox="0 0 59 60" fill="none" xmlns="http://www.w3.org/2000/svg">
  <circle cx="29.5" cy="30.0837" r="29" fill="white" stroke="white"/>
  <circle cx="29.4998" cy="30.0838" r="26.3678" fill="#4175DD"/>
  <circle cx="29.5003" cy="30.0839" r="23.856" fill="white"/>
  <circle cx="29.5001" cy="30.0839" r="20.6476" fill="white"/>
  <g>
    <path d="M29.1696 16.0841C28.0287 16.0894 26.9392 16.1867 25.9805 16.3565C23.1563 16.8557 22.6435 17.9005 22.6435 19.8274V22.3723H29.3174V23.2206H22.6435H20.1388C18.1992 23.2206 16.5008 24.387 15.9696 26.606C15.3568 29.1494 15.3296 30.7365 15.9696 33.3923C16.444 35.3691 17.5769 36.7776 19.5166 36.7776H21.8112V33.7269C21.8112 31.5229 23.7172 29.5789 25.9805 29.5789H32.6466C34.5022 29.5789 35.9836 28.0502 35.9836 26.1857V19.8274C35.9836 18.0179 34.4578 16.6585 32.6466 16.3565C31.5001 16.1655 30.3106 16.0788 29.1696 16.0841ZM25.5604 18.1309C26.2498 18.1309 26.8128 18.7033 26.8128 19.4072C26.8128 20.1086 26.2498 20.6757 25.5604 20.6757C24.8686 20.6757 24.3081 20.1086 24.3081 19.4072C24.3081 18.7033 24.8686 18.1309 25.5604 18.1309Z" fill="#5A9FD4"/>
    <path d="M36.8157 23.2206V26.1857C36.8157 28.4845 34.8677 30.4193 32.6464 30.4193H25.9803C24.1543 30.4193 22.6433 31.9829 22.6433 33.8125V40.1707C22.6433 41.9803 24.2161 43.0447 25.9803 43.5639C28.0929 44.1854 30.1187 44.2977 32.6464 43.5639C34.3266 43.0772 35.9834 42.0977 35.9834 40.1707V37.6259H29.3172V36.7776H35.9834H39.3204C41.26 36.7776 41.9828 35.424 42.6573 33.3922C43.3541 31.3006 43.3245 29.2891 42.6573 26.6059C42.178 24.674 41.2625 23.2206 39.3204 23.2206H36.8157ZM33.0665 39.3225C33.7583 39.3225 34.3188 39.8896 34.3188 40.591C34.3188 41.2949 33.7583 41.8673 33.0665 41.8673C32.3771 41.8673 31.8141 41.2949 31.8141 40.591C31.8141 39.8896 32.3771 39.3225 33.0665 39.3225Z" fill="#FFD43B"/>
  </g>
</svg>
