<svg xmlns="http://www.w3.org/2000/svg" width="21" height="20" viewBox="0 0 21 20" fill="none">
    <path d="M20.5 0H0.5V20H20.5V0Z" fill="white"/>
    <path d="M6.99135 12.9825C8.05716 12.9825 8.92117 12.1184 8.92117 11.0526C8.92117 9.98681 8.05716 9.1228 6.99135 9.1228C5.92554 9.1228 5.06152 9.98681 5.06152 11.0526C5.06152 12.1184 5.92554 12.9825 6.99135 12.9825Z" fill="#111827"/>
    <path d="M6.99164 13.3334C5.7341 13.3334 4.71094 12.3102 4.71094 11.0527C4.71094 9.79513 5.7341 8.77197 6.99164 8.77197C8.24918 8.77197 9.27234 9.79513 9.27234 11.0527C9.27234 12.3102 8.24918 13.3334 6.99164 13.3334ZM6.99164 9.47373C6.12111 9.47373 5.41269 10.1821 5.41269 11.0527C5.41269 11.9232 6.12111 12.6316 6.99164 12.6316C7.86217 12.6316 8.57059 11.9232 8.57059 11.0527C8.57059 10.1821 7.86217 9.47373 6.99164 9.47373Z" fill="#111827"/>
    <path d="M12.9562 12.9825C14.022 12.9825 14.886 12.1184 14.886 11.0526C14.886 9.98681 14.022 9.1228 12.9562 9.1228C11.8904 9.1228 11.0264 9.98681 11.0264 11.0526C11.0264 12.1184 11.8904 12.9825 12.9562 12.9825Z" fill="#111827"/>
    <path d="M12.9565 13.3334C11.6989 13.3334 10.6758 12.3102 10.6758 11.0527C10.6758 9.79513 11.6989 8.77197 12.9565 8.77197C14.214 8.77197 15.2372 9.79513 15.2372 11.0527C15.2372 12.3102 14.214 13.3334 12.9565 13.3334ZM12.9565 9.47373C12.086 9.47373 11.3775 10.1821 11.3775 11.0527C11.3775 11.9232 12.086 12.6316 12.9565 12.6316C13.827 12.6316 14.5354 11.9232 14.5354 11.0527C14.5354 10.1821 13.827 9.47373 12.9565 9.47373Z" fill="#111827"/>
    <path d="M5.06181 11.2281C4.86778 11.2281 4.71094 11.0713 4.71094 10.8772C4.71094 8.16847 6.91445 5.96497 9.62322 5.96497C9.81725 5.96497 9.9741 6.12181 9.9741 6.31584C9.9741 6.50988 9.81725 6.66672 9.62322 6.66672C7.30146 6.66672 5.41269 8.55549 5.41269 10.8772C5.41269 11.0713 5.25585 11.2281 5.06181 11.2281Z" fill="#111827"/>
    <path d="M11.0267 11.2281C10.8326 11.2281 10.6758 11.0713 10.6758 10.8772C10.6758 8.16847 12.8793 5.96497 15.5881 5.96497C15.7821 5.96497 15.9389 6.12181 15.9389 6.31584C15.9389 6.50988 15.7821 6.66672 15.5881 6.66672C13.2663 6.66672 11.3775 8.55549 11.3775 10.8772C11.3775 11.0713 11.2207 11.2281 11.0267 11.2281Z" fill="#111827"/>
</svg>