<svg width="20" height="21" viewBox="0 0 20 21" fill="none" xmlns="http://www.w3.org/2000/svg">
<g clip-path="url(#clip0_1259_1792)">
<path d="M20 0.0939331H0V20.0939H20V0.0939331Z" fill="white"/>
<path d="M6.49123 13.0764C7.55704 13.0764 8.42105 12.2124 8.42105 11.1466C8.42105 10.0807 7.55704 9.21674 6.49123 9.21674C5.42541 9.21674 4.5614 10.0807 4.5614 11.1466C4.5614 12.2124 5.42541 13.0764 6.49123 13.0764Z" fill="#2D7E5D"/>
<path d="M6.49127 13.4273C5.23373 13.4273 4.21057 12.4041 4.21057 11.1466C4.21057 9.88902 5.23373 8.86586 6.49127 8.86586C7.74882 8.86586 8.77197 9.88902 8.77197 11.1466C8.77197 12.4041 7.74882 13.4273 6.49127 13.4273ZM6.49127 9.56761C5.62075 9.56761 4.91233 10.276 4.91233 11.1466C4.91233 12.0171 5.62075 12.7255 6.49127 12.7255C7.3618 12.7255 8.07022 12.0171 8.07022 11.1466C8.07022 10.276 7.3618 9.56761 6.49127 9.56761Z" fill="#2D7E5D"/>
<path d="M12.4561 13.0764C13.5219 13.0764 14.3859 12.2124 14.3859 11.1466C14.3859 10.0807 13.5219 9.21674 12.4561 9.21674C11.3903 9.21674 10.5262 10.0807 10.5262 11.1466C10.5262 12.2124 11.3903 13.0764 12.4561 13.0764Z" fill="#2D7E5D"/>
<path d="M12.4561 13.4273C11.1986 13.4273 10.1754 12.4041 10.1754 11.1466C10.1754 9.88902 11.1986 8.86586 12.4561 8.86586C13.7137 8.86586 14.7368 9.88902 14.7368 11.1466C14.7368 12.4041 13.7137 13.4273 12.4561 13.4273ZM12.4561 9.56761C11.5856 9.56761 10.8772 10.276 10.8772 11.1466C10.8772 12.0171 11.5856 12.7255 12.4561 12.7255C13.3266 12.7255 14.0351 12.0171 14.0351 11.1466C14.0351 10.276 13.3266 9.56761 12.4561 9.56761Z" fill="#2D7E5D"/>
<path d="M4.56145 11.322C4.36741 11.322 4.21057 11.1652 4.21057 10.9711C4.21057 8.26235 6.41408 6.05885 9.12285 6.05885C9.31689 6.05885 9.47373 6.21569 9.47373 6.40972C9.47373 6.60376 9.31689 6.7606 9.12285 6.7606C6.8011 6.7606 4.91233 8.64937 4.91233 10.9711C4.91233 11.1652 4.75548 11.322 4.56145 11.322Z" fill="#2D7E5D"/>
<path d="M10.5263 11.322C10.3323 11.322 10.1754 11.1652 10.1754 10.9711C10.1754 8.26235 12.3789 6.05885 15.0877 6.05885C15.2817 6.05885 15.4386 6.21569 15.4386 6.40972C15.4386 6.60376 15.2817 6.7606 15.0877 6.7606C12.7659 6.7606 10.8772 8.64937 10.8772 10.9711C10.8772 11.1652 10.7203 11.322 10.5263 11.322Z" fill="#2D7E5D"/>
</g>
<defs>
<clipPath id="clip0_1259_1792">
<rect width="20" height="20" fill="white" transform="translate(0 0.0939331)"/>
</clipPath>
</defs>
</svg>
