<?xml version="1.0" encoding="UTF-8" standalone="no"?>
<svg fill="#000000" width="36px" height="36px" viewBox="0 0 64 64" version="1.1" xmlns="http://www.w3.org/2000/svg" xmlns:xlink="http://www.w3.org/1999/xlink" xml:space="preserve" xmlns:serif="http://www.serif.com/" style="fill-rule:evenodd;clip-rule:evenodd;stroke-linejoin:round;stroke-miterlimit:2;">
  <path id="quote-1" d="M27.194,12l0,8.025c-2.537,0.14 -4.458,0.603 -5.761,1.39c-1.304,0.787 -2.22,2.063 -2.749,3.829c-0.528,1.766 -0.793,4.292 -0.793,7.579l9.303,0l0,19.145l-19.081,0l0,-18.201c0,-7.518 1.612,-13.025 4.836,-16.522c3.225,-3.497 7.973,-5.245 14.245,-5.245Zm28.806,0l0,8.025c-2.537,0.14 -4.457,0.586 -5.761,1.338c-1.304,0.751 -2.247,2.028 -2.828,3.829c-0.581,1.8 -0.872,4.344 -0.872,7.631l9.461,0l0,19.145l-19.186,0l0,-18.201c0,-7.518 1.603,-13.025 4.809,-16.522c3.207,-3.497 7.999,-5.245 14.377,-5.245Z" style="fill-rule:nonzero;" fill="#6b7280"/>
</svg>