<svg width="384" height="296" viewBox="0 0 384 296" fill="none" xmlns="http://www.w3.org/2000/svg">
<rect width="384" height="296" rx="20" fill="white"/>
<path d="M171.444 150.369H135.16C134.056 150.369 133.16 149.474 133.16 148.369V126.85" stroke="#A5A5A5" stroke-width="2.8"/>
<path d="M130.139 174.122H93.8555C92.7509 174.122 91.8555 175.018 91.8555 176.122V197.641" stroke="#A5A5A5" stroke-width="2.8"/>
<path d="M172.432 172.906V151.739" stroke="#A5A5A5" stroke-width="2.8"/>
<path d="M212.516 206.265V176.122C212.516 175.018 211.62 174.122 210.516 174.122H171.488" stroke="#A5A5A5" stroke-width="2.8"/>
<path d="M212.516 296V206.265" stroke="#A5A5A5" stroke-width="2.8"/>
<path d="M213.11 217.1H229.443" stroke="#A5A5A5" stroke-width="2.8"/>
<rect width="12.8847" height="12.8847" rx="3.22117" transform="matrix(-1 0 0 1 243.333 210.657)" fill="#A5A5A5" stroke="#A5A5A5" stroke-width="2.81841"/>
<path d="M266.485 133.418H236.865C235.76 133.418 234.865 132.523 234.865 131.418V116.433" stroke="#A5A5A5" stroke-width="2.8"/>
<rect width="12.8847" height="12.8847" rx="3.22117" transform="matrix(-1 0 0 1 241.307 103.548)" fill="#A5A5A5" stroke="#A5A5A5" stroke-width="2.81841"/>
<path d="M266.279 133.418H295.899C297.004 133.418 297.899 132.523 297.899 131.418V116.433" stroke="#A5A5A5" stroke-width="2.8"/>
<rect x="291.457" y="103.548" width="12.8847" height="12.8847" rx="3.22117" fill="#A5A5A5" stroke="#A5A5A5" stroke-width="2.81841"/>
<path d="M247.183 217.1H263.737C264.842 217.1 265.737 216.204 265.737 215.1V191.359" stroke="#A5A5A5" stroke-width="2.8"/>
<rect width="12.8847" height="12.8847" rx="3.22117" transform="matrix(-1 0 0 1 272.179 178.474)" fill="#A5A5A5" stroke="#A5A5A5" stroke-width="2.81841"/>
<path d="M171.488 174.122H122.217" stroke="#A5A5A5" stroke-width="2.8"/>
<path d="M133.16 125.341V92.6759" stroke="#A5A5A5" stroke-width="2.8"/>
<rect width="12.8847" height="12.8847" rx="3.22117" transform="matrix(-1 0 0 1 139.603 79.7911)" fill="white" stroke="#A5A5A5" stroke-width="2.81841"/>
<path d="M172.432 151.739L172.432 138.226" stroke="#A5A5A5" stroke-width="2.8"/>
<rect width="12.8847" height="12.8847" rx="3.22117" transform="matrix(-1 0 0 1 178.875 125.341)" fill="#A5A5A5" stroke="#A5A5A5" stroke-width="2.81841"/>
<path d="M134.562 126.422H67.9758" stroke="#A5A5A5" stroke-width="2.8"/>
<rect width="12.8847" height="12.8847" rx="3.22117" transform="matrix(-1 0 0 1 67.0479 119.98)" fill="white" stroke="#A5A5A5" stroke-width="2.81841"/>
<path d="M265.737 174.414L265.737 133.507" stroke="#A5A5A5" stroke-width="2.8"/>
<rect width="12.8847" height="12.8847" rx="3.22117" transform="matrix(-1 0 0 1 272.722 49.002)" fill="#A5A5A5" stroke="#A5A5A5" stroke-width="2.81841"/>
<path d="M266.279 81.6167V61.8867" stroke="#A5A5A5" stroke-width="2.8"/>
<path d="M266.485 81.6167H236.865C235.76 81.6167 234.865 82.5121 234.865 83.6167V98.6025" stroke="#A5A5A5" stroke-width="2.8"/>
<path d="M266.279 81.6167H295.899C297.004 81.6167 297.899 82.5121 297.899 83.6167V98.6025" stroke="#A5A5A5" stroke-width="2.8"/>
<circle cx="237.077" cy="217.001" r="12.3697" fill="white" stroke="white" stroke-width="0.738094"/>
<circle cx="237.077" cy="217.001" r="11.1028" fill="#535E73"/>
<circle cx="237.077" cy="217.001" r="10.0452" fill="white"/>
<circle cx="237.077" cy="217.001" r="8.69416" fill="white"/>
<g clip-path="url(#clip0_383_1656)">
<path d="M233.017 215.32V217C233.017 217.183 233.193 217.517 233.88 217.856C234.525 218.173 235.462 218.406 236.552 218.463C236.624 218.466 236.696 218.484 236.761 218.516C236.827 218.547 236.886 218.591 236.934 218.645C236.983 218.699 237.02 218.762 237.045 218.83C237.069 218.899 237.08 218.972 237.076 219.044C237.072 219.117 237.054 219.188 237.023 219.254C236.991 219.319 236.948 219.378 236.894 219.427C236.84 219.475 236.776 219.513 236.708 219.537C236.639 219.561 236.567 219.572 236.494 219.568C235.297 219.505 234.205 219.249 233.391 218.849C233.263 218.786 233.138 218.717 233.017 218.642V220.322C233.017 220.42 233.06 220.557 233.225 220.728C233.393 220.903 233.661 221.085 234.038 221.25C234.787 221.58 235.861 221.798 237.077 221.798C237.376 221.798 237.669 221.785 237.95 221.76C238.024 221.749 238.1 221.754 238.173 221.773C238.245 221.793 238.313 221.827 238.372 221.874C238.431 221.921 238.48 221.979 238.515 222.045C238.551 222.111 238.573 222.184 238.58 222.259C238.587 222.334 238.578 222.409 238.555 222.481C238.531 222.552 238.493 222.618 238.444 222.675C238.394 222.731 238.333 222.777 238.266 222.809C238.198 222.841 238.124 222.859 238.049 222.862C237.733 222.89 237.409 222.905 237.077 222.905C235.744 222.905 234.512 222.669 233.592 222.264C233.132 222.061 232.726 221.807 232.427 221.495C232.125 221.182 231.91 220.784 231.91 220.322V213.679C231.91 213.217 232.125 212.819 232.427 212.505C232.726 212.195 233.132 211.939 233.592 211.737C234.512 211.332 235.744 211.096 237.077 211.096C238.41 211.096 239.642 211.332 240.561 211.737C241.021 211.939 241.427 212.194 241.727 212.505C242.028 212.819 242.243 213.217 242.243 213.679C242.243 214.141 242.028 214.539 241.727 214.853C241.427 215.163 241.021 215.419 240.562 215.621C239.641 216.026 238.409 216.262 237.077 216.262C235.744 216.262 234.512 216.026 233.592 215.621C233.393 215.535 233.201 215.434 233.017 215.32ZM233.017 213.679C233.017 213.777 233.06 213.914 233.225 214.086C233.393 214.261 233.661 214.442 234.038 214.607C234.787 214.937 235.861 215.155 237.077 215.155C238.291 215.155 239.365 214.937 240.116 214.607C240.491 214.442 240.76 214.26 240.928 214.085C241.093 213.914 241.136 213.777 241.136 213.679C241.136 213.581 241.093 213.444 240.928 213.272C240.76 213.097 240.492 212.916 240.115 212.75C239.366 212.421 238.292 212.203 237.077 212.203C235.862 212.203 234.788 212.421 234.037 212.75C233.662 212.916 233.393 213.098 233.225 213.273C233.06 213.444 233.017 213.581 233.017 213.679Z" fill="#9DA3B0"/>
<path d="M241.867 216.692C241.881 216.631 241.873 216.568 241.845 216.512C241.818 216.455 241.772 216.41 241.715 216.384C241.659 216.357 241.595 216.35 241.534 216.364C241.473 216.378 241.419 216.412 241.38 216.461L238.705 219.875C238.673 219.916 238.653 219.965 238.647 220.017C238.642 220.068 238.651 220.12 238.674 220.167C238.696 220.213 238.732 220.253 238.776 220.28C238.82 220.308 238.87 220.322 238.922 220.322H240.492L240.035 222.479C240.022 222.541 240.031 222.605 240.059 222.661C240.087 222.717 240.134 222.762 240.191 222.788C240.248 222.815 240.313 222.82 240.374 222.805C240.435 222.789 240.489 222.754 240.527 222.703L242.833 219.659C242.864 219.618 242.883 219.569 242.888 219.518C242.893 219.466 242.883 219.415 242.86 219.369C242.837 219.323 242.802 219.284 242.758 219.257C242.715 219.23 242.664 219.215 242.613 219.215H241.3L241.868 216.692H241.867Z" fill="#9DA3B0"/>
</g>
<circle cx="265.737" cy="184.916" r="12.3697" fill="white" stroke="white" stroke-width="0.738094"/>
<circle cx="265.737" cy="184.916" r="11.1028" fill="#535E73"/>
<circle cx="265.737" cy="184.916" r="10.0452" fill="white"/>
<circle cx="265.737" cy="184.916" r="8.69416" fill="white"/>
<g clip-path="url(#clip1_383_1656)">
<path d="M261.677 183.236V184.915C261.677 185.098 261.853 185.432 262.54 185.771C263.185 186.088 264.123 186.321 265.212 186.378C265.285 186.381 265.356 186.399 265.421 186.431C265.487 186.462 265.546 186.506 265.594 186.56C265.643 186.614 265.681 186.677 265.705 186.745C265.729 186.814 265.74 186.887 265.736 186.959C265.732 187.032 265.714 187.103 265.683 187.169C265.652 187.234 265.608 187.293 265.554 187.342C265.5 187.39 265.437 187.428 265.368 187.452C265.3 187.476 265.227 187.487 265.154 187.483C263.957 187.421 262.865 187.164 262.051 186.764C261.923 186.701 261.798 186.632 261.677 186.557V188.237C261.677 188.335 261.72 188.472 261.885 188.644C262.053 188.818 262.322 189 262.698 189.165C263.447 189.495 264.521 189.713 265.737 189.713C266.036 189.713 266.329 189.7 266.61 189.675C266.684 189.664 266.76 189.669 266.833 189.688C266.905 189.708 266.973 189.742 267.032 189.789C267.091 189.836 267.14 189.894 267.176 189.96C267.211 190.026 267.233 190.099 267.24 190.174C267.247 190.249 267.238 190.324 267.215 190.396C267.191 190.467 267.154 190.533 267.104 190.59C267.054 190.646 266.994 190.692 266.926 190.724C266.858 190.756 266.784 190.775 266.709 190.777C266.394 190.805 266.069 190.82 265.737 190.82C264.404 190.82 263.172 190.584 262.252 190.179C261.792 189.977 261.386 189.722 261.087 189.41C260.786 189.097 260.57 188.699 260.57 188.237V181.594C260.57 181.132 260.786 180.734 261.087 180.42C261.386 180.11 261.792 179.854 262.252 179.652C263.172 179.247 264.404 179.011 265.737 179.011C267.07 179.011 268.302 179.247 269.221 179.652C269.681 179.854 270.087 180.109 270.387 180.42C270.688 180.734 270.903 181.132 270.903 181.594C270.903 182.056 270.688 182.454 270.387 182.768C270.087 183.078 269.681 183.334 269.222 183.536C268.302 183.941 267.069 184.177 265.737 184.177C264.404 184.177 263.172 183.941 262.252 183.536C262.054 183.45 261.861 183.349 261.677 183.236ZM261.677 181.594C261.677 181.692 261.72 181.829 261.885 182.001C262.053 182.176 262.322 182.357 262.698 182.523C263.447 182.852 264.521 183.07 265.737 183.07C266.952 183.07 268.026 182.852 268.776 182.523C269.151 182.357 269.421 182.175 269.588 182C269.753 181.829 269.796 181.692 269.796 181.594C269.796 181.496 269.753 181.359 269.588 181.187C269.421 181.012 269.152 180.831 268.775 180.665C268.026 180.336 266.952 180.118 265.737 180.118C264.522 180.118 263.448 180.336 262.697 180.665C262.322 180.831 262.053 181.013 261.885 181.188C261.72 181.359 261.677 181.496 261.677 181.594Z" fill="#9DA3B0"/>
<path d="M270.527 184.607C270.541 184.546 270.533 184.483 270.505 184.427C270.478 184.37 270.432 184.325 270.376 184.299C270.319 184.272 270.255 184.265 270.194 184.279C270.133 184.293 270.079 184.328 270.04 184.376L267.365 187.79C267.333 187.831 267.313 187.88 267.307 187.932C267.302 187.983 267.311 188.035 267.334 188.082C267.357 188.128 267.392 188.168 267.436 188.195C267.48 188.223 267.531 188.237 267.582 188.237H269.152L268.695 190.394C268.682 190.456 268.691 190.52 268.719 190.576C268.747 190.632 268.794 190.677 268.851 190.703C268.909 190.73 268.973 190.735 269.034 190.72C269.095 190.705 269.149 190.669 269.187 190.619L271.494 187.574C271.525 187.533 271.544 187.484 271.548 187.433C271.553 187.381 271.543 187.33 271.52 187.284C271.498 187.238 271.462 187.199 271.419 187.172C271.375 187.145 271.324 187.13 271.273 187.13H269.961L270.528 184.607H270.527Z" fill="#9DA3B0"/>
</g>
<circle cx="235.202" cy="109.018" r="12.3697" fill="white" stroke="white" stroke-width="0.738094"/>
<circle cx="235.202" cy="109.018" r="11.1028" fill="#535E73"/>
<circle cx="235.202" cy="109.018" r="10.0452" fill="white"/>
<circle cx="235.202" cy="109.018" r="8.69416" fill="white"/>
<g clip-path="url(#clip2_383_1656)">
<path d="M231.142 107.338V109.018C231.142 109.201 231.318 109.535 232.005 109.873C232.65 110.191 233.587 110.423 234.677 110.48C234.749 110.484 234.821 110.502 234.886 110.533C234.952 110.564 235.011 110.608 235.059 110.662C235.108 110.716 235.145 110.779 235.17 110.848C235.194 110.916 235.205 110.989 235.201 111.062C235.197 111.134 235.179 111.205 235.148 111.271C235.116 111.337 235.073 111.396 235.019 111.444C234.965 111.493 234.901 111.53 234.833 111.555C234.764 111.579 234.692 111.59 234.619 111.586C233.422 111.523 232.33 111.267 231.516 110.866C231.388 110.804 231.263 110.735 231.142 110.659V112.339C231.142 112.438 231.185 112.574 231.35 112.746C231.518 112.921 231.786 113.103 232.163 113.268C232.912 113.598 233.986 113.816 235.202 113.816C235.501 113.816 235.794 113.802 236.075 113.777C236.149 113.767 236.225 113.771 236.298 113.791C236.37 113.811 236.438 113.845 236.497 113.892C236.556 113.938 236.605 113.996 236.64 114.063C236.676 114.129 236.698 114.202 236.705 114.276C236.712 114.351 236.703 114.427 236.68 114.498C236.656 114.57 236.618 114.636 236.569 114.692C236.519 114.749 236.458 114.794 236.391 114.827C236.323 114.859 236.249 114.877 236.174 114.88C235.858 114.908 235.534 114.923 235.202 114.923C233.869 114.923 232.637 114.687 231.717 114.281C231.257 114.079 230.851 113.824 230.552 113.513C230.25 113.199 230.035 112.801 230.035 112.339V105.697C230.035 105.234 230.25 104.837 230.552 104.522C230.851 104.212 231.257 103.957 231.717 103.755C232.637 103.349 233.869 103.113 235.202 103.113C236.535 103.113 237.767 103.349 238.686 103.755C239.146 103.957 239.552 104.211 239.852 104.523C240.153 104.837 240.368 105.234 240.368 105.697C240.368 106.159 240.153 106.556 239.852 106.871C239.552 107.181 239.146 107.436 238.687 107.638C237.766 108.044 236.534 108.28 235.202 108.28C233.869 108.28 232.637 108.044 231.717 107.638C231.518 107.552 231.326 107.452 231.142 107.338ZM231.142 105.697C231.142 105.795 231.185 105.931 231.35 106.103C231.518 106.278 231.786 106.46 232.163 106.625C232.912 106.955 233.986 107.173 235.202 107.173C236.416 107.173 237.49 106.955 238.241 106.625C238.616 106.46 238.885 106.277 239.053 106.102C239.218 105.931 239.261 105.795 239.261 105.697C239.261 105.598 239.218 105.462 239.053 105.29C238.885 105.115 238.617 104.933 238.24 104.768C237.491 104.438 236.417 104.22 235.202 104.22C233.987 104.22 232.913 104.438 232.162 104.768C231.787 104.933 231.518 105.116 231.35 105.291C231.185 105.462 231.142 105.598 231.142 105.697Z" fill="#9DA3B0"/>
<path d="M239.992 108.71C240.006 108.649 239.998 108.585 239.97 108.529C239.943 108.473 239.897 108.428 239.84 108.401C239.784 108.374 239.72 108.367 239.659 108.382C239.598 108.396 239.544 108.43 239.505 108.479L236.83 111.893C236.798 111.934 236.778 111.983 236.772 112.034C236.767 112.086 236.776 112.138 236.799 112.184C236.821 112.231 236.857 112.27 236.901 112.298C236.945 112.325 236.995 112.34 237.047 112.34H238.617L238.16 114.497C238.147 114.558 238.156 114.622 238.184 114.679C238.212 114.735 238.259 114.78 238.316 114.806C238.373 114.832 238.438 114.838 238.499 114.823C238.56 114.807 238.614 114.771 238.652 114.721L240.958 111.676C240.989 111.635 241.008 111.586 241.013 111.535C241.018 111.484 241.008 111.432 240.985 111.386C240.962 111.34 240.927 111.301 240.883 111.274C240.84 111.247 240.789 111.233 240.738 111.233H239.425L239.993 108.71H239.992Z" fill="#9DA3B0"/>
</g>
<circle cx="172.965" cy="130.923" r="12.3697" fill="white" stroke="white" stroke-width="0.738094"/>
<circle cx="172.965" cy="130.923" r="11.1028" fill="#535E73"/>
<circle cx="172.966" cy="130.923" r="10.0452" fill="white"/>
<circle cx="172.966" cy="130.923" r="8.69416" fill="white"/>
<g clip-path="url(#clip3_383_1656)">
<path d="M168.906 129.243V130.923C168.906 131.106 169.081 131.439 169.769 131.778C170.414 132.095 171.351 132.328 172.44 132.385C172.513 132.388 172.584 132.407 172.65 132.438C172.715 132.469 172.774 132.513 172.823 132.567C172.872 132.621 172.909 132.684 172.933 132.753C172.958 132.821 172.968 132.894 172.965 132.966C172.961 133.039 172.943 133.11 172.911 133.176C172.88 133.241 172.836 133.3 172.782 133.349C172.728 133.397 172.665 133.435 172.597 133.459C172.528 133.484 172.455 133.494 172.383 133.49C171.186 133.428 170.093 133.171 169.28 132.771C169.152 132.708 169.027 132.639 168.906 132.564V134.244C168.906 134.342 168.949 134.479 169.114 134.651C169.281 134.826 169.55 135.007 169.927 135.172C170.676 135.502 171.75 135.72 172.965 135.72C173.265 135.72 173.557 135.707 173.838 135.682C173.913 135.671 173.989 135.676 174.061 135.696C174.134 135.715 174.202 135.749 174.261 135.796C174.32 135.843 174.368 135.901 174.404 135.967C174.44 136.033 174.462 136.106 174.468 136.181C174.475 136.256 174.467 136.331 174.443 136.403C174.42 136.474 174.382 136.54 174.332 136.597C174.283 136.653 174.222 136.699 174.154 136.731C174.086 136.764 174.012 136.782 173.937 136.784C173.622 136.813 173.297 136.827 172.965 136.827C171.633 136.827 170.4 136.591 169.481 136.186C169.021 135.984 168.615 135.729 168.315 135.418C168.014 135.104 167.799 134.706 167.799 134.244V127.601C167.799 127.139 168.014 126.741 168.315 126.427C168.615 126.117 169.021 125.861 169.481 125.659C170.4 125.254 171.633 125.018 172.965 125.018C174.298 125.018 175.531 125.254 176.45 125.659C176.91 125.861 177.316 126.116 177.615 126.428C177.916 126.741 178.132 127.139 178.132 127.601C178.132 128.063 177.916 128.461 177.615 128.775C177.316 129.085 176.91 129.341 176.451 129.543C175.53 129.948 174.298 130.184 172.965 130.184C171.633 130.184 170.4 129.948 169.481 129.543C169.282 129.457 169.09 129.356 168.906 129.243ZM168.906 127.601C168.906 127.699 168.949 127.836 169.114 128.008C169.281 128.183 169.55 128.364 169.927 128.53C170.676 128.86 171.75 129.077 172.965 129.077C174.18 129.077 175.254 128.86 176.005 128.53C176.38 128.364 176.649 128.182 176.817 128.007C176.982 127.836 177.025 127.699 177.025 127.601C177.025 127.503 176.982 127.366 176.817 127.194C176.649 127.019 176.38 126.838 176.004 126.673C175.255 126.343 174.181 126.125 172.965 126.125C171.75 126.125 170.676 126.343 169.926 126.673C169.551 126.838 169.281 127.02 169.114 127.195C168.949 127.366 168.906 127.503 168.906 127.601Z" fill="#9DA3B0"/>
<path d="M177.756 130.615C177.769 130.554 177.761 130.49 177.734 130.434C177.706 130.378 177.661 130.332 177.604 130.306C177.548 130.279 177.484 130.272 177.423 130.286C177.362 130.3 177.308 130.335 177.269 130.384L174.593 133.797C174.561 133.838 174.541 133.887 174.536 133.939C174.531 133.99 174.54 134.042 174.562 134.089C174.585 134.136 174.62 134.175 174.664 134.202C174.708 134.23 174.759 134.244 174.811 134.245H176.381L175.924 136.401C175.911 136.463 175.919 136.527 175.948 136.583C175.976 136.639 176.022 136.684 176.08 136.711C176.137 136.737 176.202 136.743 176.263 136.727C176.324 136.712 176.378 136.676 176.416 136.626L178.722 133.581C178.753 133.54 178.772 133.491 178.777 133.44C178.782 133.389 178.772 133.337 178.749 133.291C178.726 133.245 178.691 133.206 178.647 133.179C178.603 133.152 178.553 133.137 178.501 133.137H177.189L177.757 130.615H177.756Z" fill="#9DA3B0"/>
</g>
<circle cx="297.9" cy="109.917" r="12.3697" fill="white" stroke="white" stroke-width="0.738094"/>
<circle cx="297.899" cy="109.917" r="11.1028" fill="#535E73"/>
<circle cx="297.9" cy="109.917" r="10.0452" fill="white"/>
<circle cx="297.9" cy="109.917" r="8.69416" fill="white"/>
<g clip-path="url(#clip4_383_1656)">
<path d="M293.84 108.236V109.916C293.84 110.099 294.015 110.433 294.703 110.772C295.348 111.089 296.285 111.322 297.375 111.379C297.447 111.382 297.518 111.4 297.584 111.432C297.65 111.463 297.708 111.507 297.757 111.561C297.806 111.615 297.843 111.678 297.868 111.746C297.892 111.815 297.902 111.888 297.899 111.96C297.895 112.033 297.877 112.104 297.845 112.17C297.814 112.235 297.77 112.294 297.716 112.343C297.662 112.391 297.599 112.429 297.531 112.453C297.462 112.477 297.39 112.488 297.317 112.484C296.12 112.421 295.027 112.165 294.214 111.765C294.086 111.702 293.961 111.633 293.84 111.558V113.238C293.84 113.336 293.883 113.473 294.048 113.644C294.215 113.819 294.484 114.001 294.861 114.166C295.61 114.496 296.684 114.714 297.899 114.714C298.199 114.714 298.491 114.701 298.772 114.676C298.847 114.665 298.923 114.67 298.995 114.689C299.068 114.709 299.136 114.743 299.195 114.79C299.254 114.837 299.302 114.895 299.338 114.961C299.374 115.027 299.396 115.1 299.403 115.175C299.409 115.25 299.401 115.325 299.377 115.397C299.354 115.468 299.316 115.534 299.267 115.591C299.217 115.647 299.156 115.693 299.088 115.725C299.02 115.757 298.947 115.775 298.871 115.778C298.556 115.806 298.231 115.821 297.899 115.821C296.567 115.821 295.334 115.585 294.415 115.18C293.955 114.977 293.549 114.723 293.249 114.411C292.948 114.098 292.733 113.7 292.733 113.238V106.595C292.733 106.133 292.948 105.735 293.249 105.421C293.549 105.111 293.955 104.855 294.415 104.653C295.334 104.248 296.567 104.012 297.899 104.012C299.232 104.012 300.465 104.248 301.384 104.653C301.844 104.855 302.25 105.11 302.549 105.421C302.85 105.735 303.066 106.133 303.066 106.595C303.066 107.057 302.85 107.455 302.549 107.769C302.25 108.079 301.844 108.335 301.385 108.537C300.464 108.942 299.232 109.178 297.899 109.178C296.567 109.178 295.334 108.942 294.415 108.537C294.216 108.451 294.024 108.35 293.84 108.236ZM293.84 106.595C293.84 106.693 293.883 106.83 294.048 107.002C294.215 107.177 294.484 107.358 294.861 107.523C295.61 107.853 296.684 108.071 297.899 108.071C299.114 108.071 300.188 107.853 300.939 107.523C301.314 107.358 301.583 107.176 301.751 107.001C301.916 106.83 301.959 106.693 301.959 106.595C301.959 106.497 301.916 106.36 301.751 106.188C301.583 106.013 301.314 105.832 300.938 105.666C300.189 105.337 299.115 105.119 297.899 105.119C296.684 105.119 295.61 105.337 294.86 105.666C294.485 105.832 294.215 106.014 294.048 106.189C293.883 106.36 293.84 106.497 293.84 106.595Z" fill="#9DA3B0"/>
<path d="M302.69 109.608C302.703 109.547 302.695 109.484 302.668 109.428C302.64 109.371 302.595 109.326 302.538 109.3C302.482 109.273 302.418 109.266 302.357 109.28C302.296 109.294 302.242 109.328 302.203 109.377L299.527 112.791C299.495 112.832 299.475 112.881 299.47 112.933C299.465 112.984 299.474 113.036 299.496 113.083C299.519 113.129 299.554 113.169 299.598 113.196C299.642 113.224 299.693 113.238 299.745 113.238H301.315L300.858 115.395C300.845 115.457 300.853 115.521 300.882 115.577C300.91 115.633 300.957 115.678 301.014 115.704C301.071 115.731 301.136 115.736 301.197 115.721C301.258 115.706 301.312 115.67 301.35 115.619L303.656 112.575C303.687 112.534 303.706 112.485 303.711 112.434C303.716 112.382 303.706 112.331 303.683 112.285C303.66 112.239 303.625 112.2 303.581 112.173C303.537 112.146 303.487 112.131 303.435 112.131H302.123L302.691 109.608H302.69Z" fill="#9DA3B0"/>
</g>
<circle cx="266.279" cy="55.444" r="12.3697" fill="white" stroke="white" stroke-width="0.738094"/>
<circle cx="266.279" cy="55.4439" r="11.1028" fill="#535E73"/>
<circle cx="266.28" cy="55.4441" r="10.0452" fill="white"/>
<circle cx="266.28" cy="55.4441" r="8.69416" fill="white"/>
<g clip-path="url(#clip5_383_1656)">
<path d="M262.22 53.7638V55.4437C262.22 55.6268 262.395 55.9604 263.083 56.2992C263.728 56.6166 264.665 56.8491 265.754 56.9059C265.827 56.9097 265.898 56.9277 265.964 56.959C266.029 56.9903 266.088 57.0342 266.137 57.0882C266.186 57.1422 266.223 57.2052 266.247 57.2738C266.272 57.3423 266.282 57.4149 266.278 57.4875C266.275 57.5601 266.257 57.6313 266.225 57.6969C266.194 57.7625 266.15 57.8213 266.096 57.87C266.042 57.9187 265.979 57.9562 265.911 57.9805C265.842 58.0048 265.769 58.0153 265.697 58.0116C264.5 57.9488 263.407 57.6927 262.594 57.2919C262.466 57.2296 262.341 57.1606 262.22 57.0852V58.7652C262.22 58.8633 262.262 58.9999 262.428 59.1718C262.595 59.3468 262.864 59.5283 263.24 59.6937C263.99 60.0236 265.064 60.2413 266.279 60.2413C266.579 60.2413 266.871 60.2281 267.152 60.203C267.227 60.1924 267.303 60.1971 267.375 60.2167C267.448 60.2364 267.516 60.2706 267.575 60.3173C267.634 60.364 267.682 60.4222 267.718 60.4884C267.754 60.5546 267.776 60.6273 267.782 60.7022C267.789 60.7771 267.781 60.8526 267.757 60.9241C267.734 60.9956 267.696 61.0615 267.646 61.118C267.597 61.1744 267.536 61.2202 267.468 61.2525C267.4 61.2847 267.326 61.3028 267.251 61.3057C266.936 61.3337 266.611 61.3485 266.279 61.3485C264.947 61.3485 263.714 61.1123 262.795 60.7071C262.335 60.5048 261.929 60.2502 261.629 59.9387C261.328 59.625 261.113 59.2272 261.113 58.7652V52.1223C261.113 51.6603 261.328 51.2624 261.629 50.948C261.929 50.638 262.335 50.3826 262.795 50.1804C263.714 49.7752 264.947 49.539 266.279 49.539C267.612 49.539 268.845 49.7752 269.764 50.1804C270.224 50.3826 270.63 50.6373 270.929 50.9487C271.23 51.2624 271.446 51.6603 271.446 52.1223C271.446 52.5843 271.23 52.9822 270.929 53.2966C270.63 53.6066 270.224 53.862 269.764 54.0642C268.844 54.4694 267.611 54.7056 266.279 54.7056C264.947 54.7056 263.714 54.4694 262.795 54.0642C262.596 53.9779 262.404 53.8775 262.22 53.7638ZM262.22 52.1223C262.22 52.2205 262.262 52.357 262.428 52.529C262.595 52.7039 262.864 52.8855 263.24 53.0508C263.99 53.3808 265.064 53.5985 266.279 53.5985C267.494 53.5985 268.568 53.3808 269.319 53.0508C269.694 52.8855 269.963 52.7032 270.131 52.5283C270.296 52.357 270.339 52.2205 270.339 52.1223C270.339 52.0241 270.296 51.8876 270.131 51.7156C269.963 51.5407 269.694 51.3591 269.318 51.1938C268.569 50.8639 267.495 50.6461 266.279 50.6461C265.064 50.6461 263.99 50.8639 263.24 51.1938C262.865 51.3591 262.595 51.5414 262.428 51.7163C262.262 51.8876 262.22 52.0241 262.22 52.1223Z" fill="#9DA3B0"/>
<path d="M271.07 55.1358C271.083 55.0747 271.075 55.0109 271.048 54.9549C271.02 54.8988 270.974 54.8537 270.918 54.8269C270.862 54.8001 270.798 54.7932 270.737 54.8074C270.676 54.8215 270.622 54.8558 270.583 54.9048L267.907 58.3184C267.875 58.3593 267.855 58.4083 267.85 58.4598C267.844 58.5114 267.854 58.5635 267.876 58.6101C267.899 58.6567 267.934 58.696 267.978 58.7235C268.022 58.7511 268.073 58.7657 268.125 58.7657H269.695L269.238 60.9224C269.225 60.984 269.233 61.0482 269.261 61.1045C269.29 61.1607 269.336 61.2056 269.394 61.2317C269.451 61.2579 269.515 61.2637 269.577 61.2483C269.638 61.2328 269.692 61.1971 269.729 61.1468L272.036 58.1022C272.067 58.0611 272.086 58.0122 272.091 57.961C272.096 57.9097 272.086 57.8582 272.063 57.8121C272.04 57.766 272.005 57.7272 271.961 57.7001C271.917 57.673 271.867 57.6586 271.815 57.6586H270.503L271.071 55.1358H271.07Z" fill="#9DA3B0"/>
</g>
<circle cx="133.562" cy="84.5176" r="29" fill="white" stroke="white"/>
<circle cx="133.561" cy="84.5177" r="26.3678" fill="#4175DD"/>
<circle cx="133.562" cy="84.5177" r="23.856" fill="white"/>
<circle cx="133.562" cy="84.5177" r="20.6476" fill="white"/>
<path d="M118.915 81.7785C118.848 81.7785 118.832 81.7498 118.865 81.7068L119.214 81.3196C119.247 81.2766 119.33 81.2479 119.396 81.2479H125.321C125.388 81.2479 125.404 81.2909 125.371 81.334L125.089 81.7068C125.056 81.7498 124.973 81.7929 124.923 81.7929L118.915 81.7785Z" fill="#00ACD7"/>
<path d="M116.189 83.4277C116.123 83.4277 116.107 83.3983 116.14 83.3541L116.487 82.9564C116.52 82.9122 116.603 82.8828 116.669 82.8828H124.211C124.277 82.8828 124.31 82.927 124.293 82.9711L124.161 83.3246C124.144 83.3835 124.078 83.413 124.012 83.413L116.189 83.4277Z" fill="#00ACD7"/>
<path d="M120.549 85.0482C120.483 85.0482 120.466 85.0052 120.499 84.9622L120.731 84.6037C120.764 84.5606 120.83 84.5176 120.896 84.5176H124.198C124.265 84.5176 124.298 84.5606 124.298 84.618L124.265 84.9622C124.265 85.0195 124.198 85.0626 124.149 85.0626L120.549 85.0482Z" fill="#00ACD7"/>
<path d="M137.93 81.6316C136.861 81.9043 136.131 82.1088 135.078 82.3815C134.823 82.4497 134.806 82.4667 134.586 82.2111C134.331 81.9213 134.144 81.7338 133.788 81.5634C132.718 81.035 131.683 81.1884 130.715 81.8191C129.561 82.569 128.967 83.6769 128.984 85.0574C129.001 86.421 129.934 87.5459 131.275 87.7334C132.43 87.8868 133.397 87.4777 134.161 86.6085C134.314 86.421 134.45 86.2165 134.62 85.9778C134.009 85.9778 133.245 85.9778 131.343 85.9778C130.987 85.9778 130.902 85.7563 131.021 85.4665C131.241 84.9381 131.649 84.0518 131.887 83.6087C131.937 83.5064 132.056 83.336 132.311 83.336C133.177 83.336 136.368 83.336 138.49 83.336C138.456 83.7962 138.456 84.2564 138.388 84.7166C138.202 85.9437 137.743 87.0687 136.996 88.0572C135.774 89.6764 134.178 90.682 132.158 90.9547C130.495 91.1763 128.95 90.8525 127.592 89.8298C126.335 88.8753 125.622 87.6141 125.436 86.046C125.215 84.1882 125.758 82.5179 126.879 81.0521C128.084 79.467 129.68 78.4614 131.632 78.1034C133.228 77.8137 134.756 78.0012 136.131 78.9386C137.03 79.5351 137.675 80.3533 138.1 81.3418C138.202 81.4952 138.134 81.5804 137.93 81.6316Z" fill="#00ACD7"/>
<path fill-rule="evenodd" clip-rule="evenodd" d="M139.407 89.5571C140.596 90.5798 142.005 91.0229 143.549 91.057C143.701 91.0395 143.854 91.0259 144.009 91.0123C144.305 90.9862 144.606 90.9596 144.908 90.9036C146.486 90.5798 147.861 89.8639 148.982 88.722C150.561 87.1198 151.223 85.2449 150.934 82.944C150.713 81.3077 149.882 80.0635 148.54 79.1431C147.063 78.1375 145.434 77.9671 143.702 78.2739C141.682 78.6318 140.188 79.484 138.949 81.1203C137.794 82.6372 137.268 84.3416 137.574 86.2676C137.777 87.58 138.406 88.6879 139.407 89.5571ZM147.578 83.9888C147.582 84.0461 147.585 84.1064 147.59 84.1711C147.505 85.6369 146.775 86.7277 145.434 87.4265C144.534 87.8867 143.601 87.9379 142.667 87.5288C141.445 86.9834 140.8 85.6369 141.105 84.3075C141.479 82.7053 142.497 81.6997 144.076 81.3418C145.689 80.9668 147.234 81.9213 147.539 83.6087C147.563 83.7293 147.57 83.85 147.578 83.9888Z" fill="#00ACD7"/>
<circle cx="59.8721" cy="126.422" r="29" fill="white" stroke="white"/>
<circle cx="59.8719" cy="126.422" r="26.3678" fill="#4175DD"/>
<circle cx="59.8724" cy="126.422" r="23.856" fill="white"/>
<circle cx="59.8722" cy="126.422" r="20.6476" fill="white"/>
<g clip-path="url(#clip6_383_1656)">
<path d="M57.0702 121.642H61.3558C63.9931 121.642 63.9931 124.279 61.3558 124.279H57.0702V121.642ZM46.8506 133.839H60.0371V130.213H57.0702V127.576H60.3668C63.9931 127.576 62.0151 133.839 64.9821 133.839H73.2237V127.576H71.2457V128.235C71.2457 130.872 68.2787 130.543 67.9491 128.894C67.6194 127.246 66.3007 125.927 65.9711 125.927C70.916 123.29 67.9491 118.015 63.9931 118.015H48.4989V121.642H51.7955V130.213H46.8506V133.839Z" fill="black" stroke="black" stroke-width="0.116481" stroke-linejoin="round"/>
<path d="M59.8721 140.597C67.701 140.597 74.0476 134.251 74.0476 126.422C74.0476 118.593 67.701 112.246 59.8721 112.246C52.0431 112.246 45.6965 118.593 45.6965 126.422C45.6965 134.251 52.0431 140.597 59.8721 140.597Z" stroke="black" stroke-width="1.04833"/>
<path d="M75.0366 127.411L76.6849 126.422L75.0366 125.433V127.411Z" fill="black" stroke="black" stroke-width="0.349444" stroke-linejoin="round"/>
<path d="M74.5523 130.35L76.3619 129.702L74.9382 128.41L74.5523 130.35Z" fill="black" stroke="black" stroke-width="0.349444" stroke-linejoin="round"/>
<path d="M73.5038 133.139L75.4051 132.856L74.2607 131.311L73.5038 133.139Z" fill="black" stroke="black" stroke-width="0.349444" stroke-linejoin="round"/>
<path d="M71.9314 135.669L73.8513 135.763L73.0303 134.025L71.9314 135.669Z" fill="black" stroke="black" stroke-width="0.349444" stroke-linejoin="round"/>
<path d="M69.8955 137.844L71.7604 138.31L71.2942 136.446L69.8955 137.844Z" fill="black" stroke="black" stroke-width="0.349444" stroke-linejoin="round"/>
<path d="M67.4748 139.58L69.2128 140.401L69.1194 138.481L67.4748 139.58Z" fill="black" stroke="black" stroke-width="0.349444" stroke-linejoin="round"/>
<path d="M64.7617 140.811L66.3062 141.955L66.5891 140.054L64.7617 140.811Z" fill="black" stroke="black" stroke-width="0.349444" stroke-linejoin="round"/>
<path d="M61.8606 141.488L63.1521 142.912L63.8005 141.102L61.8606 141.488Z" fill="black" stroke="black" stroke-width="0.349444" stroke-linejoin="round"/>
<path d="M58.8831 141.586L59.8721 143.235L60.8611 141.586H58.8831Z" fill="black" stroke="black" stroke-width="0.349444" stroke-linejoin="round"/>
<path d="M55.9436 141.102L56.592 142.912L57.8835 141.488L55.9436 141.102Z" fill="black" stroke="black" stroke-width="0.349444" stroke-linejoin="round"/>
<path d="M53.155 140.054L53.4379 141.955L54.9824 140.811L53.155 140.054Z" fill="black" stroke="black" stroke-width="0.349444" stroke-linejoin="round"/>
<path d="M50.6249 138.481L50.5315 140.401L52.2695 139.58L50.6249 138.481Z" fill="black" stroke="black" stroke-width="0.349444" stroke-linejoin="round"/>
<path d="M48.4497 136.446L47.9835 138.31L49.8484 137.844L48.4497 136.446Z" fill="black" stroke="black" stroke-width="0.349444" stroke-linejoin="round"/>
<path d="M46.7138 134.025L45.8928 135.763L47.8127 135.669L46.7138 134.025Z" fill="black" stroke="black" stroke-width="0.349444" stroke-linejoin="round"/>
<path d="M45.4835 131.311L44.3392 132.856L46.2405 133.139L45.4835 131.311Z" fill="black" stroke="black" stroke-width="0.349444" stroke-linejoin="round"/>
<path d="M44.806 128.41L43.3823 129.702L45.1919 130.35L44.806 128.41Z" fill="black" stroke="black" stroke-width="0.349444" stroke-linejoin="round"/>
<path d="M44.7075 125.433L43.0592 126.422L44.7075 127.411V125.433Z" fill="black" stroke="black" stroke-width="0.349444" stroke-linejoin="round"/>
<path d="M45.1918 122.493L43.3822 123.142L44.8059 124.433L45.1918 122.493Z" fill="black" stroke="black" stroke-width="0.349444" stroke-linejoin="round"/>
<path d="M46.2403 119.705L44.339 119.988L45.4834 121.532L46.2403 119.705Z" fill="black" stroke="black" stroke-width="0.349444" stroke-linejoin="round"/>
<path d="M47.8128 117.175L45.8928 117.081L46.7139 118.819L47.8128 117.175Z" fill="black" stroke="black" stroke-width="0.349444" stroke-linejoin="round"/>
<path d="M49.8486 115L47.9837 114.533L48.45 116.398L49.8486 115Z" fill="black" stroke="black" stroke-width="0.349444" stroke-linejoin="round"/>
<path d="M52.2694 113.264L50.5313 112.443L50.6248 114.363L52.2694 113.264Z" fill="black" stroke="black" stroke-width="0.349444" stroke-linejoin="round"/>
<path d="M54.9824 112.033L53.438 110.889L53.155 112.79L54.9824 112.033Z" fill="black" stroke="black" stroke-width="0.349444" stroke-linejoin="round"/>
<path d="M57.8836 111.356L56.592 109.932L55.9436 111.742L57.8836 111.356Z" fill="black" stroke="black" stroke-width="0.349444" stroke-linejoin="round"/>
<path d="M60.861 111.257L59.872 109.609L58.8831 111.257H60.861Z" fill="black" stroke="black" stroke-width="0.349444" stroke-linejoin="round"/>
<path d="M63.8006 111.742L63.1522 109.932L61.8606 111.356L63.8006 111.742Z" fill="black" stroke="black" stroke-width="0.349444" stroke-linejoin="round"/>
<path d="M66.5891 112.79L66.3062 110.889L64.7617 112.033L66.5891 112.79Z" fill="black" stroke="black" stroke-width="0.349444" stroke-linejoin="round"/>
<path d="M69.1192 114.363L69.2127 112.443L67.4746 113.264L69.1192 114.363Z" fill="black" stroke="black" stroke-width="0.349444" stroke-linejoin="round"/>
<path d="M71.2944 116.398L71.7606 114.533L69.8958 115L71.2944 116.398Z" fill="black" stroke="black" stroke-width="0.349444" stroke-linejoin="round"/>
<path d="M73.0305 118.819L73.8516 117.081L71.9316 117.175L73.0305 118.819Z" fill="black" stroke="black" stroke-width="0.349444" stroke-linejoin="round"/>
<path d="M74.2608 121.532L75.4052 119.988L73.5039 119.705L74.2608 121.532Z" fill="black" stroke="black" stroke-width="0.349444" stroke-linejoin="round"/>
<path d="M74.9381 124.433L76.3618 123.142L74.5522 122.493L74.9381 124.433Z" fill="black" stroke="black" stroke-width="0.349444" stroke-linejoin="round"/>
<path d="M57.5645 112.576L59.8721 114.884L62.1797 112.576H57.5645Z" fill="black" stroke="black" stroke-width="0.698887" stroke-linejoin="round"/>
<path d="M72.3274 119.949L70.8458 122.856L73.7536 124.338L72.3274 119.949Z" fill="black" stroke="black" stroke-width="0.698887" stroke-linejoin="round"/>
<path d="M69.8774 136.267L66.6541 135.757L66.1436 138.98L69.8774 136.267Z" fill="black" stroke="black" stroke-width="0.698887" stroke-linejoin="round"/>
<path d="M53.6006 138.98L53.0901 135.757L49.8667 136.267L53.6006 138.98Z" fill="black" stroke="black" stroke-width="0.698887" stroke-linejoin="round"/>
<path d="M45.991 124.338L48.8988 122.856L47.4172 119.949L45.991 124.338Z" fill="black" stroke="black" stroke-width="0.698887" stroke-linejoin="round"/>
</g>
<circle cx="91.8555" cy="216.357" r="29" fill="white" stroke="white"/>
<circle cx="91.8553" cy="216.357" r="26.3678" fill="#4175DD"/>
<circle cx="91.8558" cy="216.357" r="23.856" fill="white"/>
<circle cx="91.8556" cy="216.357" r="20.6476" fill="white"/>
<g clip-path="url(#clip7_383_1656)">
<path d="M106.309 207.777L92.6455 232.209C92.3634 232.714 91.6387 232.717 91.3523 232.215L77.4182 207.779C77.1063 207.232 77.574 206.57 78.1939 206.68L91.8718 209.125C91.959 209.141 92.0483 209.141 92.1356 209.125L105.527 206.684C106.145 206.571 106.615 207.229 106.309 207.777Z" fill="url(#paint0_linear_383_1656)"/>
<path d="M98.3876 203.474L88.2764 205.455C88.1102 205.488 87.9872 205.628 87.9771 205.797L87.3552 216.302C87.3405 216.55 87.5678 216.742 87.8092 216.686L90.6243 216.036C90.8877 215.976 91.1257 216.207 91.0716 216.472L90.2352 220.568C90.1789 220.844 90.4377 221.079 90.7069 220.997L92.4457 220.469C92.7152 220.387 92.9742 220.624 92.9172 220.9L91.5881 227.333C91.5049 227.735 92.0401 227.955 92.2634 227.61L92.4125 227.379L100.652 210.936C100.79 210.661 100.552 210.347 100.249 210.406L97.3516 210.965C97.0793 211.017 96.8476 210.764 96.9245 210.497L98.8158 203.941C98.8927 203.674 98.6602 203.42 98.3876 203.474Z" fill="url(#paint1_linear_383_1656)"/>
</g>
<mask id="path-121-outside-1_383_1656" maskUnits="userSpaceOnUse" x="239.241" y="22.2023" width="54" height="14" fill="black">
<rect fill="white" x="239.241" y="22.2023" width="54" height="14"/>
<path d="M245.64 25.018C245.04 25.018 244.498 25.1233 244.014 25.3338C243.53 25.5338 243.119 25.8337 242.783 26.2337C242.446 26.6232 242.188 27.1021 242.009 27.6704C241.83 28.2283 241.741 28.8598 241.741 29.565C241.741 30.4913 241.883 31.2965 242.167 31.9807C242.462 32.6648 242.893 33.1911 243.462 33.5595C244.04 33.9279 244.761 34.1121 245.625 34.1121C246.119 34.1121 246.588 34.07 247.03 33.9858C247.472 33.9016 247.903 33.7963 248.324 33.67V34.9015C247.903 35.0594 247.467 35.1752 247.014 35.2488C246.572 35.3225 246.04 35.3594 245.419 35.3594C244.272 35.3594 243.314 35.1225 242.546 34.6489C241.777 34.1752 241.199 33.5016 240.809 32.628C240.43 31.7544 240.241 30.7281 240.241 29.5493C240.241 28.6967 240.357 27.9178 240.588 27.2126C240.83 26.5074 241.177 25.8969 241.63 25.3811C242.093 24.8654 242.662 24.4707 243.335 24.197C244.009 23.9128 244.782 23.7707 245.656 23.7707C246.235 23.7707 246.793 23.8286 247.33 23.9444C247.866 24.0602 248.345 24.2233 248.766 24.4338L248.198 25.6338C247.851 25.4759 247.461 25.3338 247.03 25.2075C246.609 25.0812 246.146 25.018 245.64 25.018Z"/>
<path d="M253.8 26.5968C254.832 26.5968 255.595 26.8231 256.09 27.2757C256.584 27.7283 256.832 28.4493 256.832 29.4387V35.2015H255.821L255.553 34.0016H255.49C255.248 34.3068 254.995 34.5647 254.732 34.7752C254.479 34.9752 254.184 35.1225 253.848 35.2173C253.521 35.312 253.121 35.3594 252.648 35.3594C252.143 35.3594 251.685 35.2699 251.274 35.091C250.874 34.912 250.558 34.6384 250.327 34.27C250.095 33.891 249.98 33.4174 249.98 32.849C249.98 32.007 250.311 31.3597 250.974 30.9071C251.637 30.4439 252.658 30.1913 254.037 30.1492L255.474 30.1018V29.5966C255.474 28.8914 255.321 28.402 255.016 28.1283C254.711 27.8546 254.279 27.7178 253.721 27.7178C253.279 27.7178 252.858 27.7862 252.458 27.9231C252.058 28.0494 251.685 28.1967 251.337 28.3651L250.911 27.3231C251.279 27.1231 251.716 26.9547 252.221 26.8179C252.727 26.6705 253.253 26.5968 253.8 26.5968ZM254.211 31.1123C253.158 31.1544 252.427 31.3228 252.016 31.6175C251.616 31.9122 251.416 32.328 251.416 32.8648C251.416 33.3385 251.558 33.6858 251.843 33.9068C252.137 34.1279 252.511 34.2384 252.964 34.2384C253.679 34.2384 254.274 34.0437 254.748 33.6542C255.221 33.2542 255.458 32.6438 255.458 31.8228V31.0649L254.211 31.1123Z"/>
<path d="M262.84 35.3594C262.093 35.3594 261.424 35.2067 260.835 34.9015C260.256 34.5963 259.798 34.1226 259.461 33.4805C259.135 32.8385 258.972 32.0175 258.972 31.0176C258.972 29.9755 259.145 29.1282 259.493 28.4756C259.84 27.8231 260.308 27.3442 260.898 27.0389C261.498 26.7337 262.177 26.581 262.935 26.581C263.366 26.581 263.782 26.6284 264.182 26.7231C264.582 26.8073 264.908 26.9126 265.161 27.0389L264.734 28.1915C264.482 28.0967 264.187 28.0073 263.85 27.9231C263.513 27.8389 263.198 27.7968 262.903 27.7968C262.335 27.7968 261.866 27.9178 261.498 28.1599C261.129 28.402 260.856 28.7598 260.677 29.2335C260.498 29.7071 260.408 30.2966 260.408 31.0018C260.408 31.6754 260.498 32.2491 260.677 32.7227C260.856 33.1964 261.124 33.5542 261.482 33.7963C261.84 34.0384 262.287 34.1594 262.824 34.1594C263.287 34.1594 263.692 34.1121 264.04 34.0174C264.398 33.9226 264.724 33.8068 265.019 33.67V34.9015C264.734 35.0489 264.419 35.1594 264.071 35.2331C263.735 35.3173 263.324 35.3594 262.84 35.3594Z"/>
<path d="M268.421 26.7231C268.421 26.9231 268.41 27.1284 268.389 27.3389C268.378 27.5494 268.363 27.7389 268.342 27.9073H268.436C268.615 27.6126 268.842 27.3705 269.115 27.181C269.389 26.9915 269.694 26.8495 270.031 26.7547C270.368 26.6495 270.715 26.5968 271.073 26.5968C271.757 26.5968 272.326 26.7074 272.778 26.9284C273.241 27.1389 273.589 27.4705 273.82 27.9231C274.052 28.3757 274.167 28.9651 274.167 29.6914V35.2015H272.794V29.7861C272.794 29.1019 272.641 28.5914 272.336 28.2546C272.031 27.9178 271.552 27.7494 270.899 27.7494C270.268 27.7494 269.773 27.8704 269.415 28.1125C269.057 28.3441 268.799 28.6914 268.642 29.1545C268.494 29.6071 268.421 30.165 268.421 30.8281V35.2015H267.031V23.2023H268.421V26.7231Z"/>
<path d="M280.059 26.581C280.785 26.581 281.406 26.7389 281.922 27.0547C282.448 27.3705 282.848 27.8178 283.122 28.3967C283.406 28.9651 283.548 29.6335 283.548 30.4018V31.2386H277.754C277.775 32.1964 278.017 32.928 278.48 33.4332C278.954 33.9279 279.612 34.1752 280.454 34.1752C280.991 34.1752 281.464 34.1279 281.875 34.0331C282.296 33.9279 282.727 33.7805 283.169 33.5911V34.8068C282.738 34.9962 282.312 35.1331 281.891 35.2173C281.47 35.312 280.97 35.3594 280.391 35.3594C279.591 35.3594 278.88 35.1962 278.259 34.8699C277.649 34.5436 277.17 34.0595 276.823 33.4174C276.486 32.7648 276.317 31.9701 276.317 31.0334C276.317 30.1071 276.47 29.3124 276.775 28.6493C277.091 27.9862 277.528 27.4757 278.086 27.1179C278.654 26.76 279.312 26.581 280.059 26.581ZM280.043 27.7178C279.38 27.7178 278.854 27.9336 278.465 28.3651C278.086 28.7862 277.859 29.3756 277.786 30.1334H282.096C282.096 29.6492 282.022 29.2282 281.875 28.8704C281.727 28.5125 281.501 28.2336 281.196 28.0336C280.901 27.8231 280.517 27.7178 280.043 27.7178Z"/>
<path d="M288.703 35.3594C287.65 35.3594 286.808 34.9962 286.176 34.27C285.545 33.5332 285.229 32.4385 285.229 30.986C285.229 29.5335 285.545 28.4388 286.176 27.702C286.818 26.9547 287.666 26.581 288.718 26.581C289.16 26.581 289.545 26.6389 289.871 26.7547C290.197 26.86 290.481 27.0073 290.723 27.1968C290.965 27.3863 291.171 27.5968 291.339 27.8283H291.434C291.423 27.6915 291.402 27.4915 291.371 27.2284C291.35 26.9547 291.339 26.7389 291.339 26.581V23.2023H292.729V35.2015H291.608L291.402 34.0647H291.339C291.171 34.3068 290.965 34.5278 290.723 34.7278C290.481 34.9173 290.192 35.0699 289.855 35.1857C289.529 35.3015 289.145 35.3594 288.703 35.3594ZM288.924 34.2068C289.818 34.2068 290.444 33.9647 290.802 33.4805C291.171 32.9858 291.355 32.2438 291.355 31.2544V31.0018C291.355 29.9492 291.181 29.144 290.834 28.5862C290.487 28.0178 289.845 27.7336 288.908 27.7336C288.16 27.7336 287.597 28.0336 287.218 28.6335C286.85 29.223 286.666 30.0176 286.666 31.0176C286.666 32.028 286.85 32.8122 287.218 33.37C287.597 33.9279 288.166 34.2068 288.924 34.2068Z"/>
</mask>
<path d="M245.64 25.018C245.04 25.018 244.498 25.1233 244.014 25.3338C243.53 25.5338 243.119 25.8337 242.783 26.2337C242.446 26.6232 242.188 27.1021 242.009 27.6704C241.83 28.2283 241.741 28.8598 241.741 29.565C241.741 30.4913 241.883 31.2965 242.167 31.9807C242.462 32.6648 242.893 33.1911 243.462 33.5595C244.04 33.9279 244.761 34.1121 245.625 34.1121C246.119 34.1121 246.588 34.07 247.03 33.9858C247.472 33.9016 247.903 33.7963 248.324 33.67V34.9015C247.903 35.0594 247.467 35.1752 247.014 35.2488C246.572 35.3225 246.04 35.3594 245.419 35.3594C244.272 35.3594 243.314 35.1225 242.546 34.6489C241.777 34.1752 241.199 33.5016 240.809 32.628C240.43 31.7544 240.241 30.7281 240.241 29.5493C240.241 28.6967 240.357 27.9178 240.588 27.2126C240.83 26.5074 241.177 25.8969 241.63 25.3811C242.093 24.8654 242.662 24.4707 243.335 24.197C244.009 23.9128 244.782 23.7707 245.656 23.7707C246.235 23.7707 246.793 23.8286 247.33 23.9444C247.866 24.0602 248.345 24.2233 248.766 24.4338L248.198 25.6338C247.851 25.4759 247.461 25.3338 247.03 25.2075C246.609 25.0812 246.146 25.018 245.64 25.018Z" fill="#535E73"/>
<path d="M253.8 26.5968C254.832 26.5968 255.595 26.8231 256.09 27.2757C256.584 27.7283 256.832 28.4493 256.832 29.4387V35.2015H255.821L255.553 34.0016H255.49C255.248 34.3068 254.995 34.5647 254.732 34.7752C254.479 34.9752 254.184 35.1225 253.848 35.2173C253.521 35.312 253.121 35.3594 252.648 35.3594C252.143 35.3594 251.685 35.2699 251.274 35.091C250.874 34.912 250.558 34.6384 250.327 34.27C250.095 33.891 249.98 33.4174 249.98 32.849C249.98 32.007 250.311 31.3597 250.974 30.9071C251.637 30.4439 252.658 30.1913 254.037 30.1492L255.474 30.1018V29.5966C255.474 28.8914 255.321 28.402 255.016 28.1283C254.711 27.8546 254.279 27.7178 253.721 27.7178C253.279 27.7178 252.858 27.7862 252.458 27.9231C252.058 28.0494 251.685 28.1967 251.337 28.3651L250.911 27.3231C251.279 27.1231 251.716 26.9547 252.221 26.8179C252.727 26.6705 253.253 26.5968 253.8 26.5968ZM254.211 31.1123C253.158 31.1544 252.427 31.3228 252.016 31.6175C251.616 31.9122 251.416 32.328 251.416 32.8648C251.416 33.3385 251.558 33.6858 251.843 33.9068C252.137 34.1279 252.511 34.2384 252.964 34.2384C253.679 34.2384 254.274 34.0437 254.748 33.6542C255.221 33.2542 255.458 32.6438 255.458 31.8228V31.0649L254.211 31.1123Z" fill="#535E73"/>
<path d="M262.84 35.3594C262.093 35.3594 261.424 35.2067 260.835 34.9015C260.256 34.5963 259.798 34.1226 259.461 33.4805C259.135 32.8385 258.972 32.0175 258.972 31.0176C258.972 29.9755 259.145 29.1282 259.493 28.4756C259.84 27.8231 260.308 27.3442 260.898 27.0389C261.498 26.7337 262.177 26.581 262.935 26.581C263.366 26.581 263.782 26.6284 264.182 26.7231C264.582 26.8073 264.908 26.9126 265.161 27.0389L264.734 28.1915C264.482 28.0967 264.187 28.0073 263.85 27.9231C263.513 27.8389 263.198 27.7968 262.903 27.7968C262.335 27.7968 261.866 27.9178 261.498 28.1599C261.129 28.402 260.856 28.7598 260.677 29.2335C260.498 29.7071 260.408 30.2966 260.408 31.0018C260.408 31.6754 260.498 32.2491 260.677 32.7227C260.856 33.1964 261.124 33.5542 261.482 33.7963C261.84 34.0384 262.287 34.1594 262.824 34.1594C263.287 34.1594 263.692 34.1121 264.04 34.0174C264.398 33.9226 264.724 33.8068 265.019 33.67V34.9015C264.734 35.0489 264.419 35.1594 264.071 35.2331C263.735 35.3173 263.324 35.3594 262.84 35.3594Z" fill="#535E73"/>
<path d="M268.421 26.7231C268.421 26.9231 268.41 27.1284 268.389 27.3389C268.378 27.5494 268.363 27.7389 268.342 27.9073H268.436C268.615 27.6126 268.842 27.3705 269.115 27.181C269.389 26.9915 269.694 26.8495 270.031 26.7547C270.368 26.6495 270.715 26.5968 271.073 26.5968C271.757 26.5968 272.326 26.7074 272.778 26.9284C273.241 27.1389 273.589 27.4705 273.82 27.9231C274.052 28.3757 274.167 28.9651 274.167 29.6914V35.2015H272.794V29.7861C272.794 29.1019 272.641 28.5914 272.336 28.2546C272.031 27.9178 271.552 27.7494 270.899 27.7494C270.268 27.7494 269.773 27.8704 269.415 28.1125C269.057 28.3441 268.799 28.6914 268.642 29.1545C268.494 29.6071 268.421 30.165 268.421 30.8281V35.2015H267.031V23.2023H268.421V26.7231Z" fill="#535E73"/>
<path d="M280.059 26.581C280.785 26.581 281.406 26.7389 281.922 27.0547C282.448 27.3705 282.848 27.8178 283.122 28.3967C283.406 28.9651 283.548 29.6335 283.548 30.4018V31.2386H277.754C277.775 32.1964 278.017 32.928 278.48 33.4332C278.954 33.9279 279.612 34.1752 280.454 34.1752C280.991 34.1752 281.464 34.1279 281.875 34.0331C282.296 33.9279 282.727 33.7805 283.169 33.5911V34.8068C282.738 34.9962 282.312 35.1331 281.891 35.2173C281.47 35.312 280.97 35.3594 280.391 35.3594C279.591 35.3594 278.88 35.1962 278.259 34.8699C277.649 34.5436 277.17 34.0595 276.823 33.4174C276.486 32.7648 276.317 31.9701 276.317 31.0334C276.317 30.1071 276.47 29.3124 276.775 28.6493C277.091 27.9862 277.528 27.4757 278.086 27.1179C278.654 26.76 279.312 26.581 280.059 26.581ZM280.043 27.7178C279.38 27.7178 278.854 27.9336 278.465 28.3651C278.086 28.7862 277.859 29.3756 277.786 30.1334H282.096C282.096 29.6492 282.022 29.2282 281.875 28.8704C281.727 28.5125 281.501 28.2336 281.196 28.0336C280.901 27.8231 280.517 27.7178 280.043 27.7178Z" fill="#535E73"/>
<path d="M288.703 35.3594C287.65 35.3594 286.808 34.9962 286.176 34.27C285.545 33.5332 285.229 32.4385 285.229 30.986C285.229 29.5335 285.545 28.4388 286.176 27.702C286.818 26.9547 287.666 26.581 288.718 26.581C289.16 26.581 289.545 26.6389 289.871 26.7547C290.197 26.86 290.481 27.0073 290.723 27.1968C290.965 27.3863 291.171 27.5968 291.339 27.8283H291.434C291.423 27.6915 291.402 27.4915 291.371 27.2284C291.35 26.9547 291.339 26.7389 291.339 26.581V23.2023H292.729V35.2015H291.608L291.402 34.0647H291.339C291.171 34.3068 290.965 34.5278 290.723 34.7278C290.481 34.9173 290.192 35.0699 289.855 35.1857C289.529 35.3015 289.145 35.3594 288.703 35.3594ZM288.924 34.2068C289.818 34.2068 290.444 33.9647 290.802 33.4805C291.171 32.9858 291.355 32.2438 291.355 31.2544V31.0018C291.355 29.9492 291.181 29.144 290.834 28.5862C290.487 28.0178 289.845 27.7336 288.908 27.7336C288.16 27.7336 287.597 28.0336 287.218 28.6335C286.85 29.223 286.666 30.0176 286.666 31.0176C286.666 32.028 286.85 32.8122 287.218 33.37C287.597 33.9279 288.166 34.2068 288.924 34.2068Z" fill="#535E73"/>
<path d="M245.64 25.018C245.04 25.018 244.498 25.1233 244.014 25.3338C243.53 25.5338 243.119 25.8337 242.783 26.2337C242.446 26.6232 242.188 27.1021 242.009 27.6704C241.83 28.2283 241.741 28.8598 241.741 29.565C241.741 30.4913 241.883 31.2965 242.167 31.9807C242.462 32.6648 242.893 33.1911 243.462 33.5595C244.04 33.9279 244.761 34.1121 245.625 34.1121C246.119 34.1121 246.588 34.07 247.03 33.9858C247.472 33.9016 247.903 33.7963 248.324 33.67V34.9015C247.903 35.0594 247.467 35.1752 247.014 35.2488C246.572 35.3225 246.04 35.3594 245.419 35.3594C244.272 35.3594 243.314 35.1225 242.546 34.6489C241.777 34.1752 241.199 33.5016 240.809 32.628C240.43 31.7544 240.241 30.7281 240.241 29.5493C240.241 28.6967 240.357 27.9178 240.588 27.2126C240.83 26.5074 241.177 25.8969 241.63 25.3811C242.093 24.8654 242.662 24.4707 243.335 24.197C244.009 23.9128 244.782 23.7707 245.656 23.7707C246.235 23.7707 246.793 23.8286 247.33 23.9444C247.866 24.0602 248.345 24.2233 248.766 24.4338L248.198 25.6338C247.851 25.4759 247.461 25.3338 247.03 25.2075C246.609 25.0812 246.146 25.018 245.64 25.018Z" stroke="#535E73" stroke-width="0.657847" mask="url(#path-121-outside-1_383_1656)"/>
<path d="M253.8 26.5968C254.832 26.5968 255.595 26.8231 256.09 27.2757C256.584 27.7283 256.832 28.4493 256.832 29.4387V35.2015H255.821L255.553 34.0016H255.49C255.248 34.3068 254.995 34.5647 254.732 34.7752C254.479 34.9752 254.184 35.1225 253.848 35.2173C253.521 35.312 253.121 35.3594 252.648 35.3594C252.143 35.3594 251.685 35.2699 251.274 35.091C250.874 34.912 250.558 34.6384 250.327 34.27C250.095 33.891 249.98 33.4174 249.98 32.849C249.98 32.007 250.311 31.3597 250.974 30.9071C251.637 30.4439 252.658 30.1913 254.037 30.1492L255.474 30.1018V29.5966C255.474 28.8914 255.321 28.402 255.016 28.1283C254.711 27.8546 254.279 27.7178 253.721 27.7178C253.279 27.7178 252.858 27.7862 252.458 27.9231C252.058 28.0494 251.685 28.1967 251.337 28.3651L250.911 27.3231C251.279 27.1231 251.716 26.9547 252.221 26.8179C252.727 26.6705 253.253 26.5968 253.8 26.5968ZM254.211 31.1123C253.158 31.1544 252.427 31.3228 252.016 31.6175C251.616 31.9122 251.416 32.328 251.416 32.8648C251.416 33.3385 251.558 33.6858 251.843 33.9068C252.137 34.1279 252.511 34.2384 252.964 34.2384C253.679 34.2384 254.274 34.0437 254.748 33.6542C255.221 33.2542 255.458 32.6438 255.458 31.8228V31.0649L254.211 31.1123Z" stroke="#535E73" stroke-width="0.657847" mask="url(#path-121-outside-1_383_1656)"/>
<path d="M262.84 35.3594C262.093 35.3594 261.424 35.2067 260.835 34.9015C260.256 34.5963 259.798 34.1226 259.461 33.4805C259.135 32.8385 258.972 32.0175 258.972 31.0176C258.972 29.9755 259.145 29.1282 259.493 28.4756C259.84 27.8231 260.308 27.3442 260.898 27.0389C261.498 26.7337 262.177 26.581 262.935 26.581C263.366 26.581 263.782 26.6284 264.182 26.7231C264.582 26.8073 264.908 26.9126 265.161 27.0389L264.734 28.1915C264.482 28.0967 264.187 28.0073 263.85 27.9231C263.513 27.8389 263.198 27.7968 262.903 27.7968C262.335 27.7968 261.866 27.9178 261.498 28.1599C261.129 28.402 260.856 28.7598 260.677 29.2335C260.498 29.7071 260.408 30.2966 260.408 31.0018C260.408 31.6754 260.498 32.2491 260.677 32.7227C260.856 33.1964 261.124 33.5542 261.482 33.7963C261.84 34.0384 262.287 34.1594 262.824 34.1594C263.287 34.1594 263.692 34.1121 264.04 34.0174C264.398 33.9226 264.724 33.8068 265.019 33.67V34.9015C264.734 35.0489 264.419 35.1594 264.071 35.2331C263.735 35.3173 263.324 35.3594 262.84 35.3594Z" stroke="#535E73" stroke-width="0.657847" mask="url(#path-121-outside-1_383_1656)"/>
<path d="M268.421 26.7231C268.421 26.9231 268.41 27.1284 268.389 27.3389C268.378 27.5494 268.363 27.7389 268.342 27.9073H268.436C268.615 27.6126 268.842 27.3705 269.115 27.181C269.389 26.9915 269.694 26.8495 270.031 26.7547C270.368 26.6495 270.715 26.5968 271.073 26.5968C271.757 26.5968 272.326 26.7074 272.778 26.9284C273.241 27.1389 273.589 27.4705 273.82 27.9231C274.052 28.3757 274.167 28.9651 274.167 29.6914V35.2015H272.794V29.7861C272.794 29.1019 272.641 28.5914 272.336 28.2546C272.031 27.9178 271.552 27.7494 270.899 27.7494C270.268 27.7494 269.773 27.8704 269.415 28.1125C269.057 28.3441 268.799 28.6914 268.642 29.1545C268.494 29.6071 268.421 30.165 268.421 30.8281V35.2015H267.031V23.2023H268.421V26.7231Z" stroke="#535E73" stroke-width="0.657847" mask="url(#path-121-outside-1_383_1656)"/>
<path d="M280.059 26.581C280.785 26.581 281.406 26.7389 281.922 27.0547C282.448 27.3705 282.848 27.8178 283.122 28.3967C283.406 28.9651 283.548 29.6335 283.548 30.4018V31.2386H277.754C277.775 32.1964 278.017 32.928 278.48 33.4332C278.954 33.9279 279.612 34.1752 280.454 34.1752C280.991 34.1752 281.464 34.1279 281.875 34.0331C282.296 33.9279 282.727 33.7805 283.169 33.5911V34.8068C282.738 34.9962 282.312 35.1331 281.891 35.2173C281.47 35.312 280.97 35.3594 280.391 35.3594C279.591 35.3594 278.88 35.1962 278.259 34.8699C277.649 34.5436 277.17 34.0595 276.823 33.4174C276.486 32.7648 276.317 31.9701 276.317 31.0334C276.317 30.1071 276.47 29.3124 276.775 28.6493C277.091 27.9862 277.528 27.4757 278.086 27.1179C278.654 26.76 279.312 26.581 280.059 26.581ZM280.043 27.7178C279.38 27.7178 278.854 27.9336 278.465 28.3651C278.086 28.7862 277.859 29.3756 277.786 30.1334H282.096C282.096 29.6492 282.022 29.2282 281.875 28.8704C281.727 28.5125 281.501 28.2336 281.196 28.0336C280.901 27.8231 280.517 27.7178 280.043 27.7178Z" stroke="#535E73" stroke-width="0.657847" mask="url(#path-121-outside-1_383_1656)"/>
<path d="M288.703 35.3594C287.65 35.3594 286.808 34.9962 286.176 34.27C285.545 33.5332 285.229 32.4385 285.229 30.986C285.229 29.5335 285.545 28.4388 286.176 27.702C286.818 26.9547 287.666 26.581 288.718 26.581C289.16 26.581 289.545 26.6389 289.871 26.7547C290.197 26.86 290.481 27.0073 290.723 27.1968C290.965 27.3863 291.171 27.5968 291.339 27.8283H291.434C291.423 27.6915 291.402 27.4915 291.371 27.2284C291.35 26.9547 291.339 26.7389 291.339 26.581V23.2023H292.729V35.2015H291.608L291.402 34.0647H291.339C291.171 34.3068 290.965 34.5278 290.723 34.7278C290.481 34.9173 290.192 35.0699 289.855 35.1857C289.529 35.3015 289.145 35.3594 288.703 35.3594ZM288.924 34.2068C289.818 34.2068 290.444 33.9647 290.802 33.4805C291.171 32.9858 291.355 32.2438 291.355 31.2544V31.0018C291.355 29.9492 291.181 29.144 290.834 28.5862C290.487 28.0178 289.845 27.7336 288.908 27.7336C288.16 27.7336 287.597 28.0336 287.218 28.6335C286.85 29.223 286.666 30.0176 286.666 31.0176C286.666 32.028 286.85 32.8122 287.218 33.37C287.597 33.9279 288.166 34.2068 288.924 34.2068Z" stroke="#535E73" stroke-width="0.657847" mask="url(#path-121-outside-1_383_1656)"/>
<defs>
<linearGradient id="paint0_linear_383_1656" x1="77.078" y1="205.807" x2="94.0829" y2="228.901" gradientUnits="userSpaceOnUse">
<stop stop-color="#41D1FF"/>
<stop offset="1" stop-color="#BD34FE"/>
</linearGradient>
<linearGradient id="paint1_linear_383_1656" x1="91.087" y1="204.012" x2="94.1632" y2="225.113" gradientUnits="userSpaceOnUse">
<stop stop-color="#FFEA83"/>
<stop offset="0.0833333" stop-color="#FFDD35"/>
<stop offset="1" stop-color="#FFA800"/>
</linearGradient>
<clipPath id="clip0_383_1656">
<rect width="11.8095" height="11.8095" fill="white" transform="translate(231.172 211.096)"/>
</clipPath>
<clipPath id="clip1_383_1656">
<rect width="11.8095" height="11.8095" fill="white" transform="translate(259.832 179.011)"/>
</clipPath>
<clipPath id="clip2_383_1656">
<rect width="11.8095" height="11.8095" fill="white" transform="translate(229.297 103.113)"/>
</clipPath>
<clipPath id="clip3_383_1656">
<rect width="11.8095" height="11.8095" fill="white" transform="translate(167.061 125.018)"/>
</clipPath>
<clipPath id="clip4_383_1656">
<rect width="11.8095" height="11.8095" fill="white" transform="translate(291.995 104.012)"/>
</clipPath>
<clipPath id="clip5_383_1656">
<rect width="11.8095" height="11.8095" fill="white" transform="translate(260.375 49.539)"/>
</clipPath>
<clipPath id="clip6_383_1656">
<rect width="34.9444" height="34.9444" fill="white" transform="translate(42.3999 108.95)"/>
</clipPath>
<clipPath id="clip7_383_1656">
<rect width="30.4455" height="30" fill="white" transform="translate(76.6328 203.357)"/>
</clipPath>
</defs>
</svg>
