<?xml version="1.0" encoding="UTF-8" standalone="no"?>
<svg
   id="Layer_1"
   x="0px"
   y="0px"
   viewBox="0 0 166.5 61.900002"
   xml:space="preserve"
   version="1.1"
   sodipodi:docname="reco-labs.svg"
   inkscape:version="1.2.2 (b0a84865, 2022-12-01)"
   width="166.5"
   height="61.900002"
   xmlns:inkscape="http://www.inkscape.org/namespaces/inkscape"
   xmlns:sodipodi="http://sodipodi.sourceforge.net/DTD/sodipodi-0.dtd"
   xmlns="http://www.w3.org/2000/svg"
   xmlns:svg="http://www.w3.org/2000/svg"><defs
     id="defs21" /><sodipodi:namedview
     id="namedview19"
     pagecolor="#ffffff"
     bordercolor="#000000"
     borderopacity="0.25"
     inkscape:showpageshadow="2"
     inkscape:pageopacity="0.0"
     inkscape:pagecheckerboard="0"
     inkscape:deskcolor="#d1d1d1"
     showgrid="false"
     inkscape:zoom="7.1485943"
     inkscape:cx="74.630057"
     inkscape:cy="30.985113"
     inkscape:window-width="1920"
     inkscape:window-height="1027"
     inkscape:window-x="0"
     inkscape:window-y="25"
     inkscape:window-maximized="1"
     inkscape:current-layer="Layer_1" /><style
     type="text/css"
     id="style2">	.st0{fill:#FFFFFF;}</style><g
     id="g16"
     style="fill:#000000"
     transform="translate(-3.6,-0.1)">	<path
   class="st0"
   d="m 74.7,61.7 c -7.8,0 -13.4,-1.8 -16.6,-5.5 -3.2,-3.6 -4.9,-9.4 -4.9,-17.2 0,-6.9 1.5,-12.2 4.4,-16.1 2.9,-3.9 7.8,-5.8 14.7,-5.8 4,0 7.3,0.8 9.7,2.3 2.4,1.5 4.2,3.5 5.4,6 1.1,2.5 1.7,5.3 1.7,8.3 v 7.4 H 55.7 c 0.1,4.1 0.8,7.6 2,10.3 1.2,2.7 3.2,4.7 6,6 2.8,1.3 6.6,2 11.3,2 3.7,0 7.4,-0.8 11.1,-2.3 v 2.3 c -3.5,1.5 -7.4,2.3 -11.4,2.3 z m -19,-22.9 h 30.9 v -4.7 c 0,-4.5 -1.1,-8 -3.4,-10.7 -2.3,-2.7 -5.9,-4 -10.9,-4 -6.2,0 -10.5,1.7 -12.9,5.2 -2.4,3.4 -3.7,8.1 -3.7,14.2 z"
   id="path4"
   style="fill:#000000" />	<path
   class="st0"
   d="m 114.9,61.7 c -7.3,0 -12.5,-2 -15.7,-6 -3.2,-4 -4.7,-9.4 -4.7,-16.3 0,-7.5 1.9,-13.1 5.7,-16.8 3.8,-3.7 9,-5.5 15.6,-5.5 2.6,0 4.7,0.2 6.3,0.5 1.5,0.4 3.1,0.9 4.6,1.6 v 2.3 c -1.7,-0.8 -3.4,-1.4 -5,-1.7 -1.7,-0.4 -3.5,-0.5 -5.5,-0.5 -6.1,0 -10.8,1.6 -14.1,4.9 -3.3,3.3 -5,8.3 -5,15.1 0,6.7 1.4,11.8 4.2,15.1 2.8,3.3 7.6,5 14.3,5 1.9,0 3.8,-0.2 5.8,-0.6 1.9,-0.4 3.7,-1 5.3,-1.6 v 2.3 c -1.6,0.7 -3.3,1.2 -5.3,1.6 -2,0.4 -4.1,0.6 -6.5,0.6 z"
   id="path6"
   style="fill:#000000" />	<path
   class="st0"
   d="m 150.6,61.7 c -6.9,0 -11.9,-1.9 -14.9,-5.7 -3,-3.8 -4.6,-9.3 -4.6,-16.6 0,-7.3 1.5,-12.8 4.6,-16.6 3.1,-3.8 8,-5.7 14.9,-5.7 6.9,0 11.8,1.9 14.9,5.7 3.1,3.8 4.6,9.3 4.6,16.6 0,7.3 -1.5,12.8 -4.5,16.6 -3,3.8 -8,5.7 -15,5.7 z m 0,-2.3 c 6.3,0 10.7,-1.7 13.2,-5 2.6,-3.3 3.8,-8.3 3.8,-15 0,-6.7 -1.3,-11.7 -3.8,-15 -2.6,-3.3 -7,-5 -13.2,-5 -6.2,0 -10.6,1.7 -13.2,5 -2.6,3.3 -3.9,8.3 -3.9,15 0,6.7 1.3,11.7 3.8,15 2.7,3.3 7.1,5 13.3,5 z"
   id="path8"
   style="fill:#000000" />	<path
   class="st0"
   d="m 26.7,36.2 c 3.1,0 5.5,-0.2 7.3,-0.5 0,0 0,0 0,0 4.4,-0.7 7.8,-2.4 10,-5.2 2.2,-2.8 3.3,-6.6 3.3,-11.2 C 47.3,14.2 46,10.1 43.4,7.2 40.8,4.2 36.6,2.7 30.7,2.7 H 16.2 V 5 h 14.6 c 9.3,0 13.9,4.8 13.9,14.3 0,5.2 -1.4,9 -4.1,11.2 -2.7,2.2 -6.4,3.4 -11,3.4 H 16.2 v 2.3 H 25 c 0.6,-0.1 1.2,0 1.7,0 0,0 0,0 0,0 z"
   id="path10"
   style="fill:#000000" />	<path
   class="st0"
   d="M 9.5,52.9 V 39.2 c 2,-0.5 3.4,-2.3 3.4,-4.4 0,-2.1 -1.5,-3.9 -3.4,-4.4 V 9.1 c 1.9,-0.6 3.3,-2.3 3.3,-4.4 0,-2.5 -2.1,-4.6 -4.6,-4.6 -2.5,0 -4.6,2.1 -4.6,4.6 0,2.2 1.5,4 3.5,4.5 v 21.2 c -1.9,0.5 -3.4,2.3 -3.4,4.4 0,2.1 1.4,3.9 3.4,4.4 V 53 c -1.9,0.5 -3.4,2.3 -3.4,4.4 0,2.5 2.1,4.6 4.6,4.6 2.5,0 4.6,-2.1 4.6,-4.6 0,-2.1 -1.4,-3.9 -3.4,-4.5 z M 5.6,4.7 c 0,-1.4 1.2,-2.6 2.6,-2.6 1.4,0 2.6,1.2 2.6,2.6 0,1.4 -1.2,2.6 -2.6,2.6 C 6.8,7.3 5.6,6.1 5.6,4.7 Z m 0.1,30.1 c 0,-1.4 1.2,-2.6 2.6,-2.6 1.4,0 2.6,1.2 2.6,2.6 0,1.4 -1.2,2.6 -2.6,2.6 -1.4,0 -2.6,-1.2 -2.6,-2.6 z M 8.3,60 c -1.4,0 -2.6,-1.2 -2.6,-2.6 0,-1.4 1.2,-2.6 2.6,-2.6 1.4,0 2.6,1.2 2.6,2.6 0,1.4 -1.1,2.6 -2.6,2.6 z"
   id="path12"
   style="fill:#000000" />	<path
   class="st0"
   d="m 44.7,52.8 c -0.3,0 -0.5,0 -0.8,0.1 L 39.3,42 c -0.5,-1.2 -1.1,-2.3 -1.6,-3.1 -0.8,0.3 -1.7,0.5 -2.5,0.6 0.6,0.8 1.2,1.9 1.7,3.1 l 4.9,11.3 c -1,0.8 -1.7,2.1 -1.7,3.5 0,2.5 2.1,4.6 4.6,4.6 2.5,0 4.6,-2.1 4.6,-4.6 0.1,-2.6 -2,-4.6 -4.6,-4.6 z m -2.6,4.6 c 0,-0.6 0.2,-1.1 0.5,-1.6 v 0 c 0.5,-0.6 1.2,-1 2.1,-1 0,0 0,0 0.1,0 v 0 c 1.4,0 2.6,1.2 2.6,2.6 0,0.7 -0.3,1.3 -0.7,1.8 -0.1,0.1 -0.2,0.2 -0.3,0.2 -0.1,0 -0.1,0.1 -0.2,0.1 -0.1,0 -0.1,0.1 -0.2,0.1 -0.4,0.2 -0.8,0.4 -1.3,0.4 -1.4,0 -2.6,-1.2 -2.6,-2.6 z"
   id="path14"
   style="fill:#000000" /></g></svg>
