<?xml version="1.0" encoding="UTF-8" standalone="no"?>
<svg
   width="93"
   viewBox="0 0 93 28.96533"
   fill="none"
   version="1.1"
   id="svg20"
   sodipodi:docname="replay.svg"
   height="28.96533"
   inkscape:version="1.2.2 (b0a84865, 2022-12-01)"
   xmlns:inkscape="http://www.inkscape.org/namespaces/inkscape"
   xmlns:sodipodi="http://sodipodi.sourceforge.net/DTD/sodipodi-0.dtd"
   xmlns="http://www.w3.org/2000/svg"
   xmlns:svg="http://www.w3.org/2000/svg">
  <defs
     id="defs24" />
  <sodipodi:namedview
     id="namedview22"
     pagecolor="#ffffff"
     bordercolor="#000000"
     borderopacity="0.25"
     inkscape:showpageshadow="2"
     inkscape:pageopacity="0.0"
     inkscape:pagecheckerboard="0"
     inkscape:deskcolor="#d1d1d1"
     showgrid="false"
     inkscape:zoom="13.255319"
     inkscape:cx="41.68138"
     inkscape:cy="14.522472"
     inkscape:window-width="1920"
     inkscape:window-height="1027"
     inkscape:window-x="0"
     inkscape:window-y="25"
     inkscape:window-maximized="1"
     inkscape:current-layer="svg20" />
  <path
     d="M 11.5154,5.668221 6.77252,2.924811 2.02956,0.18139202 C 1.82385,0.06251402 1.59055,-4.497574e-5 1.35308,2.4259924e-8 1.11561,4.502426e-5 0.88232,0.06269102 0.67667,0.18164702 0.471008,0.30060202 0.300217,0.47167802 0.181442,0.67769102 0.062667,0.88371102 9e-5,1.117401 0,1.355311 v 10.97352 c 8e-5,0.238 0.06265,0.4717 0.181422,0.6777 0.118771,0.206 0.289561,0.3771 0.495218,0.4961 0.20566,0.1189 0.43895,0.1816 0.67643,0.1816 0.23747,10e-5 0.47078,-0.0625 0.67649,-0.1814 l 4.74296,-2.7434 4.74288,-2.74335 c 0.2057,-0.11897 0.3765,-0.29009 0.4953,-0.49616 0.1188,-0.20606 0.1813,-0.43982 0.1813,-0.67777 0,-0.23795 -0.0625,-0.47171 -0.1813,-0.67778 -0.1188,-0.20606 -0.2896,-0.37718 -0.4953,-0.49615 z"
     fill="#f41c52"
     id="path2" />
  <path
     d="m 11.5154,20.949231 -4.74289,-2.7434 -4.74295,-2.7434 c -0.20571,-0.1189 -0.43902,-0.1814 -0.6765,-0.1814 -0.23748,10e-5 -0.47076,0.0627 -0.67642,0.1817 -0.205657,0.119 -0.37645,0.29 -0.495222,0.4961 C 0.062647,16.164831 8e-5,16.398531 0,16.636431 v 10.9735 c 8e-5,0.2379 0.062647,0.4716 0.181418,0.6777 0.118772,0.206 0.289565,0.3771 0.495222,0.496 0.20566,0.119 0.43894,0.1816 0.67642,0.1817 0.23748,0 0.47079,-0.0625 0.6765,-0.1814 l 4.74295,-2.7434 4.74289,-2.7434 c 0.2057,-0.1189 0.3766,-0.2901 0.4953,-0.4961 0.1188,-0.2061 0.1813,-0.4399 0.1813,-0.6778 0,-0.238 -0.0625,-0.4718 -0.1813,-0.6778 -0.1187,-0.2061 -0.2896,-0.3772 -0.4953,-0.4962 z"
     fill="#f41c52"
     id="path4" />
  <path
     d="m 25.0424,13.310231 -4.7429,-2.7434 -4.743,-2.74335 c -0.2057,-0.11888 -0.439,-0.18144 -0.6764,-0.18139 -0.2375,4e-5 -0.4708,0.06269 -0.6765,0.18165 -0.2056,0.11895 -0.3764,0.29003 -0.4952,0.49604 -0.1188,0.20602 -0.1813,0.43971 -0.1814,0.67762 v 10.97353 c 1e-4,0.2379 0.0626,0.4716 0.1814,0.6777 0.1188,0.206 0.2896,0.3771 0.4952,0.496 0.2057,0.119 0.439,0.1816 0.6765,0.1817 0.2374,0 0.4707,-0.0626 0.6764,-0.1814 l 4.743,-2.7434 4.7429,-2.7434 c 0.2057,-0.119 0.3765,-0.2901 0.4953,-0.4962 0.1187,-0.206 0.1813,-0.4398 0.1813,-0.6777 0,-0.238 -0.0626,-0.4718 -0.1813,-0.6778 -0.1188,-0.2061 -0.2896,-0.3772 -0.4953,-0.4962 z"
     fill="#f41c52"
     id="path6" />
  <path
     d="M 37.8162,19.226831 V 6.029781 h 4.4591 c 1.0311,0 1.8774,0.17614 2.5389,0.5284 0.6616,0.34797 1.1513,0.82697 1.4692,1.43699 0.3179,0.61002 0.4769,1.30381 0.4769,2.08136 0,0.7776 -0.159,1.4671 -0.4769,2.0685 -0.3179,0.6014 -0.8055,1.074 -1.4627,1.4177 -0.6573,0.3393 -1.4972,0.509 -2.5196,0.509 h -3.6086 v -1.4434 h 3.5571 c 0.7045,0 1.2716,-0.1031 1.7011,-0.3093 0.4339,-0.2062 0.7475,-0.4983 0.9409,-0.8764 0.1976,-0.3823 0.2964,-0.8377 0.2964,-1.3661 0,-0.5284 -0.0988,-0.99019 -0.2964,-1.38542 -0.1977,-0.39522 -0.5134,-0.70024 -0.9473,-0.91503 -0.4339,-0.21909 -1.0074,-0.32864 -1.7205,-0.32864 h -2.8096 v 11.77939 z m 6.2119,-5.9283 3.2477,5.9283 H 45.42 l -3.1962,-5.9283 z"
     fill="#f41c52"
     id="path8" />
  <path
     d="m 53.2606,19.433031 c -0.9537,0 -1.7764,-0.2105 -2.4681,-0.6315 -0.6873,-0.4253 -1.2179,-1.0181 -1.5916,-1.7785 -0.3694,-0.7646 -0.5542,-1.6539 -0.5542,-2.6677 0,-1.0139 0.1848,-1.9074 0.5542,-2.6807 0.3737,-0.7776 0.8936,-1.3833 1.5594,-1.8172 0.6702,-0.43816 1.452,-0.65725 2.3456,-0.65725 0.5155,0 1.0246,0.08592 1.5272,0.25775 0.5026,0.1718 0.9601,0.4511 1.3725,0.8377 0.4125,0.3823 0.7411,0.8893 0.986,1.5208 0.2448,0.6315 0.3673,1.409 0.3673,2.3327 v 0.6443 h -7.6296 v -1.3145 h 6.083 c 0,-0.5585 -0.1117,-1.0568 -0.3351,-1.495 -0.219,-0.4382 -0.5326,-0.784 -0.9408,-1.0375 -0.4038,-0.2534 -0.8806,-0.3801 -1.4305,-0.3801 -0.6057,0 -1.1298,0.1503 -1.5723,0.451 -0.4382,0.2964 -0.7754,0.6831 -1.0117,1.1599 -0.2363,0.4769 -0.3544,0.9881 -0.3544,1.5337 v 0.8763 c 0,0.7475 0.1289,1.3812 0.3866,1.901 0.2621,0.5155 0.6251,0.9086 1.089,1.1792 0.464,0.2664 1.0031,0.3995 1.6175,0.3995 0.3995,0 0.7603,-0.0558 1.0825,-0.1675 0.3265,-0.116 0.6079,-0.2878 0.8442,-0.5155 0.2363,-0.232 0.4188,-0.5198 0.5477,-0.8635 l 1.4692,0.4124 c -0.1546,0.4983 -0.4145,0.9365 -0.7797,1.3146 -0.3652,0.3737 -0.8162,0.6658 -1.3532,0.8763 -0.537,0.2062 -1.1406,0.3093 -1.8107,0.3093 z"
     fill="#f41c52"
     id="path10" />
  <path
     d="M 59.6722,22.938531 V 9.329061 h 1.4692 v 1.57227 h 0.1805 c 0.1116,-0.1718 0.2663,-0.3909 0.4639,-0.6572 0.2019,-0.2707 0.4898,-0.5113 0.8635,-0.7218 0.378,-0.21475 0.8893,-0.32215 1.5336,-0.32215 0.8335,0 1.5681,0.20835 2.2039,0.62505 0.6358,0.4167 1.1319,1.0074 1.4885,1.7721 0.3566,0.7646 0.5348,1.6668 0.5348,2.7064 0,1.0482 -0.1782,1.9568 -0.5348,2.7258 -0.3566,0.7646 -0.8506,1.3575 -1.4821,1.7785 -0.6315,0.4167 -1.3597,0.625 -2.1845,0.625 -0.6358,0 -1.1448,-0.1052 -1.5272,-0.3157 -0.3823,-0.2148 -0.6766,-0.4575 -0.8828,-0.7282 -0.2062,-0.2749 -0.3652,-0.5026 -0.4768,-0.683 H 61.193 v 5.2324 z m 1.495,-8.6606 c 0,0.7475 0.1095,1.4069 0.3286,1.9783 0.2191,0.5671 0.5392,1.0117 0.9602,1.3339 0.421,0.3179 0.9365,0.4768 1.5465,0.4768 0.6358,0 1.1664,-0.1675 1.5917,-0.5026 0.4295,-0.3394 0.7517,-0.7947 0.9665,-1.3661 0.2191,-0.5756 0.3287,-1.2157 0.3287,-1.9203 0,-0.6959 -0.1074,-1.3231 -0.3222,-1.8816 -0.2105,-0.5627 -0.5306,-1.0074 -0.9602,-1.3339 -0.4253,-0.3308 -0.9601,-0.4961 -1.6045,-0.4961 -0.6186,0 -1.1384,0.1568 -1.5594,0.4704 -0.421,0.3093 -0.7389,0.7432 -0.9537,1.3016 -0.2148,0.5542 -0.3222,1.2007 -0.3222,1.9396 z"
     fill="#f41c52"
     id="path12" />
  <path
     d="m 72.2507,6.029781 v 13.19705 H 70.7299 V 6.029781 Z"
     fill="#f41c52"
     id="path14" />
  <path
     d="m 77.9487,19.458831 c -0.6272,0 -1.1964,-0.1181 -1.7076,-0.3544 -0.5112,-0.2406 -0.9172,-0.5864 -1.2179,-1.0375 -0.3007,-0.4553 -0.4511,-1.0052 -0.4511,-1.6496 0,-0.5671 0.1117,-1.0267 0.3351,-1.379 0.2234,-0.3566 0.5219,-0.6358 0.8957,-0.8377 0.3737,-0.2019 0.7861,-0.3523 1.2372,-0.4511 0.4554,-0.1031 0.9129,-0.1847 1.3726,-0.2448 0.6014,-0.0774 1.089,-0.1354 1.4627,-0.174 0.3781,-0.043 0.653,-0.1139 0.8248,-0.2127 0.1762,-0.0988 0.2642,-0.2706 0.2642,-0.5155 v -0.0515 c 0,-0.6358 -0.1739,-1.1299 -0.5219,-1.4821 -0.3437,-0.3523 -0.8656,-0.5284 -1.5659,-0.5284 -0.726,0 -1.2952,0.1589 -1.7076,0.4768 -0.4124,0.3179 -0.7024,0.6573 -0.8699,1.0182 l -1.4435,-0.5156 c 0.2578,-0.6014 0.6015,-1.0696 1.0311,-1.4047 0.4338,-0.3394 0.9064,-0.5757 1.4176,-0.70885 0.5155,-0.13747 1.0224,-0.2062 1.5208,-0.2062 0.3179,0 0.683,0.03866 1.0954,0.11599 0.4167,0.07303 0.8184,0.22556 1.205,0.45756 0.391,0.2319 0.7153,0.5821 0.9731,1.0503 0.2577,0.4683 0.3866,1.0955 0.3866,1.8816 v 6.5212 h -1.5208 v -1.3403 h -0.0773 c -0.1031,0.2148 -0.2749,0.4446 -0.5155,0.6895 -0.2406,0.2449 -0.5606,0.4532 -0.9601,0.6251 -0.3996,0.1718 -0.8871,0.2577 -1.4628,0.2577 z m 0.232,-1.3661 c 0.6014,0 1.1083,-0.1181 1.5207,-0.3544 0.4167,-0.2363 0.7303,-0.5413 0.9408,-0.915 0.2148,-0.3738 0.3222,-0.7669 0.3222,-1.1793 v -1.3918 c -0.0644,0.0773 -0.2062,0.1482 -0.4253,0.2126 -0.2148,0.0601 -0.4639,0.1138 -0.7475,0.1611 -0.2792,0.043 -0.552,0.0816 -0.8183,0.116 -0.2621,0.0301 -0.4747,0.0558 -0.638,0.0773 -0.3952,0.0516 -0.7646,0.1353 -1.1083,0.2513 -0.3394,0.1117 -0.6143,0.2814 -0.8248,0.5091 -0.2062,0.2234 -0.3093,0.5284 -0.3093,0.915 0,0.5284 0.1954,0.9279 0.5864,1.1986 0.3952,0.2663 0.8957,0.3995 1.5014,0.3995 z"
     fill="#f41c52"
     id="path16" />
  <path
     d="m 85.886,22.938531 c -0.2578,0 -0.4876,-0.0215 -0.6895,-0.0644 -0.2019,-0.0387 -0.3416,-0.0773 -0.4189,-0.116 l 0.3866,-1.3403 c 0.3695,0.0945 0.696,0.1288 0.9795,0.1031 0.2835,-0.0258 0.5349,-0.1525 0.7539,-0.3802 0.2234,-0.2234 0.4275,-0.5864 0.6122,-1.089 l 0.2836,-0.7733 -3.6602,-9.94937 h 1.6497 l 2.7322,7.88727 h 0.1031 l 2.7322,-7.88727 H 93 l -4.2014,11.34127 c -0.189,0.5112 -0.4232,0.9343 -0.7024,1.2694 -0.2792,0.3394 -0.6036,0.5907 -0.973,0.754 -0.3652,0.1632 -0.7776,0.2448 -1.2372,0.2448 z"
     fill="#f41c52"
     id="path18" />
</svg>
