<svg width="40" height="40" viewBox="0 0 40 40" fill="none" xmlns="http://www.w3.org/2000/svg">
<path d="M18.731 5.00342V6.40935C17.9061 6.57056 17.1063 6.853 16.4265 7.30789L15.4505 6.33062L13.6534 8.08896L14.6694 9.10373C14.2368 9.75663 13.932 10.4856 13.7708 11.252H12.4824V13.7514H13.7708C13.932 14.5178 14.2368 15.2468 14.6694 15.8997L13.6534 16.9145L15.4505 18.6716L16.4265 17.6968C17.1051 18.1504 17.9061 18.4341 18.731 18.5941V20H21.2304V18.5941C21.9927 18.4279 22.7101 18.1542 23.3399 17.7343L24.2772 18.6716L26.0343 16.9145L25.097 15.9772C25.5469 15.3136 25.8681 14.5612 26.0343 13.7514H27.479V11.252H26.0343C25.8713 10.4556 25.5528 9.69929 25.097 9.02625L26.0343 8.08896L24.2759 6.33062L23.3387 7.2679C22.7101 6.84925 21.9915 6.57556 21.2304 6.40935V5.00342H18.731ZM19.9032 8.75256C21.9865 8.75256 23.6523 10.4172 23.6523 12.5017C23.6523 14.5862 21.9865 16.2509 19.9032 16.2509C17.8187 16.2509 16.154 14.5862 16.154 12.5017C16.154 10.4172 17.8187 8.75256 19.9032 8.75256ZM9.98295 20V21.3672C9.15891 21.5192 8.37468 21.8382 7.67848 22.3045L6.70245 21.3272L4.90536 23.0855L5.92138 24.1003C5.48884 24.7532 5.18394 25.4822 5.02283 26.2486H3.73438V28.748H5.02283C5.18529 29.5291 5.49772 30.2477 5.92138 30.8963L4.90536 31.911L6.70245 33.6694L7.67848 32.6921C8.37468 33.1584 9.15891 33.4774 9.98295 33.6294V34.9966H12.4824V33.5907C13.2447 33.4244 13.962 33.1508 14.5919 32.7308L15.5292 33.6681L17.2863 31.911L16.349 30.9737C16.7996 30.3121 17.1179 29.5694 17.2863 28.7867L18.7684 28.748L18.691 26.2486L17.285 26.2873C17.1275 25.4773 16.8087 24.7072 16.3478 24.0228L17.285 23.0855L15.5279 21.3272L14.5907 22.2645C13.9608 21.8458 13.2422 21.5721 12.4811 21.4059V20H9.98295ZM27.479 20V21.4059C26.6542 21.5671 25.8543 21.8496 25.1745 22.3045L24.1985 21.3272L22.4014 23.0855L23.4174 24.1003C22.9849 24.7532 22.68 25.4822 22.5188 26.2486H21.2304V28.748H22.5188C22.68 29.5144 22.9849 30.2434 23.4174 30.8963L22.4014 31.911L24.1985 33.6694L25.1745 32.6921C25.8531 33.147 26.6542 33.4294 27.479 33.5907V34.9966H29.9784V33.5907C30.7178 33.4216 31.4195 33.117 32.0479 32.6921L33.0252 33.6694L34.7823 31.911L33.845 30.9737C34.2986 30.3137 34.6171 29.5704 34.7823 28.7867L36.2645 28.748L36.187 26.2486L34.7811 26.2873C34.6186 25.4725 34.2537 24.7302 33.8038 24.0616L34.7811 23.0855L33.0227 21.3272L32.0479 22.3045C31.415 21.8966 30.7141 21.6054 29.9784 21.4447V20H27.479ZM11.1539 23.7491C13.2385 23.7491 14.9031 25.4138 14.9031 27.4983C14.9031 29.5828 13.2385 31.2474 11.1539 31.2474C9.07066 31.2474 7.40479 29.5828 7.40479 27.4983C7.40479 25.4138 9.07066 23.7491 11.1539 23.7491ZM28.6499 23.7491C30.7345 23.7491 32.3991 25.4138 32.3991 27.4983C32.3991 29.5828 30.7345 31.2474 28.6499 31.2474C26.5667 31.2474 24.9008 29.5828 24.9008 27.4983C24.9008 25.4138 26.5667 23.7491 28.6499 23.7491Z" fill="#2D7E5D"/>
</svg>
