<svg width="388" height="388" viewBox="0 0 388 388" fill="none" xmlns="http://www.w3.org/2000/svg">
<rect x="0.875" y="0.790039" width="387" height="387" rx="16" fill="#E8F7FE" style="mix-blend-mode:multiply"/>
<path d="M193.966 112.144L198.592 104.13H189.339L193.966 112.144ZM88.2416 50.9773H87.4403V52.6189H88.2416H89.043V50.9773H88.2416ZM88.2416 55.9021H87.4403V59.1853H88.2416H89.043V55.9021H88.2416ZM88.2416 62.4685H87.4403V65.7517H88.2416H89.043V62.4685H88.2416ZM88.2416 69.0349H87.4403V72.318H88.2416H89.043V69.0349H88.2416ZM88.2416 75.6012H87.4403V78.8844H88.2416H89.043V75.6012H88.2416ZM88.2416 82.1676H87.4403V83.8092H88.2416H89.043V82.1676H88.2416ZM88.2416 83.8092H87.4403C87.4403 84.4627 87.5044 85.102 87.6268 85.721L88.4129 85.5655L89.1991 85.4099C89.0968 84.8929 89.043 84.3577 89.043 83.8092H88.2416ZM89.7574 88.8092L89.0915 89.255C89.8068 90.3234 90.7265 91.2431 91.7949 91.9584L92.2407 91.2925L92.6865 90.6266C91.7922 90.0279 91.022 89.2577 90.4233 88.3634L89.7574 88.8092ZM95.4844 92.637L95.3289 93.4231C95.9479 93.5455 96.5872 93.6096 97.2407 93.6096V92.8082V92.0069C96.6922 92.0069 96.157 91.9531 95.6399 91.8508L95.4844 92.637ZM97.2407 92.8082V93.6096H98.8072V92.8082V92.0069H97.2407V92.8082ZM101.94 92.8082V93.6096H105.073V92.8082V92.0069H101.94V92.8082ZM108.206 92.8082V93.6096H111.339V92.8082V92.0069H108.206V92.8082ZM114.473 92.8082V93.6096H117.606V92.8082V92.0069H114.473V92.8082ZM120.739 92.8082V93.6096H123.872V92.8082V92.0069H120.739V92.8082ZM127.005 92.8082V93.6096H130.138V92.8082V92.0069H127.005V92.8082ZM133.271 92.8082V93.6096H136.404V92.8082V92.0069H133.271V92.8082ZM139.537 92.8082V93.6096H142.67V92.8082V92.0069H139.537V92.8082ZM145.803 92.8082V93.6096H148.936V92.8082V92.0069H145.803V92.8082ZM152.069 92.8082V93.6096H155.202V92.8082V92.0069H152.069V92.8082ZM158.336 92.8082V93.6096H161.469V92.8082V92.0069H158.336V92.8082ZM164.602 92.8082V93.6096H167.735V92.8082V92.0069H164.602V92.8082ZM170.868 92.8082V93.6096H174.001V92.8082V92.0069H170.868V92.8082ZM177.134 92.8082V93.6096H180.267V92.8082V92.0069H177.134V92.8082ZM183.4 92.8082V93.6096H184.967V92.8082V92.0069H183.4V92.8082ZM184.967 92.8082V93.6096C185.515 93.6096 186.05 93.6634 186.567 93.7657L186.723 92.9795L186.878 92.1934C186.259 92.071 185.62 92.0069 184.967 92.0069V92.8082ZM189.967 94.324L189.521 94.9899C190.415 95.5886 191.185 96.3588 191.784 97.2531L192.45 96.8073L193.116 96.3615C192.401 95.2931 191.481 94.3734 190.412 93.6581L189.967 94.324ZM193.794 100.051L193.008 100.207C193.111 100.724 193.164 101.259 193.164 101.807H193.966H194.767C194.767 101.154 194.703 100.514 194.58 99.8955L193.794 100.051ZM193.966 101.807H193.164V103.099H193.966H194.767V101.807H193.966ZM193.966 105.683H193.164V108.268H193.966H194.767V105.683H193.966Z" fill="#04D8FB"/>
<path d="M193.966 112.144L198.592 104.13H189.339L193.966 112.144ZM157.509 50.9774H156.708V52.619H157.509H158.311V50.9774H157.509ZM157.509 55.9022H156.708V59.1854H157.509H158.311V55.9022H157.509ZM157.509 62.4686H156.708V65.7517H157.509H158.311V62.4686H157.509ZM157.509 69.0349H156.708V72.3181H157.509H158.311V69.0349H157.509ZM157.509 75.6013H156.708V78.8845H157.509H158.311V75.6013H157.509ZM157.509 82.1677H156.708V83.8093H157.509H158.311V82.1677H157.509ZM157.509 83.8093H156.708C156.708 84.4628 156.772 85.1021 156.894 85.7211L157.681 85.5655L158.467 85.41C158.364 84.8929 158.311 84.3578 158.311 83.8093H157.509ZM159.025 88.8093L158.359 89.2551C159.074 90.3235 159.994 91.2432 161.062 91.9585L161.508 91.2926L161.954 90.6267C161.06 90.0279 160.29 89.2578 159.691 88.3635L159.025 88.8093ZM164.752 92.637L164.596 93.4231C165.215 93.5456 165.855 93.6097 166.508 93.6097V92.8083V92.0069C165.96 92.0069 165.425 91.9532 164.908 91.8509L164.752 92.637ZM166.508 92.8083V93.6097H168.046V92.8083V92.0069H166.508V92.8083ZM171.123 92.8083V93.6097H174.199V92.8083V92.0069H171.123V92.8083ZM177.276 92.8083V93.6097H180.352V92.8083V92.0069H177.276V92.8083ZM183.428 92.8083V93.6097H184.967V92.8083V92.0069H183.428V92.8083ZM184.967 92.8083V93.6097C185.515 93.6097 186.05 93.6634 186.567 93.7657L186.723 92.9796L186.878 92.1935C186.259 92.071 185.62 92.0069 184.967 92.0069V92.8083ZM189.967 94.3241L189.521 94.99C190.415 95.5887 191.185 96.3588 191.784 97.2532L192.45 96.8073L193.116 96.3615C192.401 95.2931 191.481 94.3734 190.412 93.6582L189.967 94.3241ZM193.794 100.051L193.008 100.207C193.111 100.724 193.164 101.259 193.164 101.807H193.966H194.767C194.767 101.154 194.703 100.515 194.581 99.8956L193.794 100.051ZM193.966 101.807H193.164V103.099H193.966H194.767V101.807H193.966ZM193.966 105.684H193.164V108.268H193.966H194.767V105.684H193.966Z" fill="#04D8FB"/>
<path d="M193.966 112.144L189.339 104.13H198.592L193.966 112.144ZM228.676 50.9774H229.477V52.619H228.676H227.875V50.9774H228.676ZM228.676 55.9022H229.477V59.1854H228.676H227.875V55.9022H228.676ZM228.676 62.4686H229.477V65.7517H228.676H227.875V62.4686H228.676ZM228.676 69.0349H229.477V72.3181H228.676H227.875V69.0349H228.676ZM228.676 75.6013H229.477V78.8845H228.676H227.875V75.6013H228.676ZM228.676 82.1677H229.477V83.8093H228.676H227.875V82.1677H228.676ZM228.676 83.8093H229.477C229.477 84.4628 229.413 85.1021 229.291 85.7211L228.505 85.5655L227.719 85.41C227.821 84.8929 227.875 84.3578 227.875 83.8093H228.676ZM227.16 88.8093L227.826 89.2551C227.111 90.3235 226.191 91.2432 225.123 91.9585L224.677 91.2926L224.231 90.6267C225.126 90.0279 225.896 89.2578 226.494 88.3635L227.16 88.8093ZM221.433 92.637L221.589 93.4231C220.97 93.5456 220.331 93.6097 219.677 93.6097V92.8083V92.0069C220.226 92.0069 220.761 91.9532 221.278 91.8509L221.433 92.637ZM219.677 92.8083V93.6097H218.284V92.8083V92.0069H219.677V92.8083ZM215.499 92.8083V93.6097H212.714V92.8083V92.0069H215.499V92.8083ZM209.928 92.8083V93.6097H207.143V92.8083V92.0069H209.928V92.8083ZM204.357 92.8083V93.6097H202.965V92.8083V92.0069H204.357V92.8083ZM202.965 92.8083V93.6097C202.416 93.6097 201.881 93.6634 201.364 93.7657L201.208 92.9796L201.053 92.1935C201.672 92.071 202.311 92.0069 202.965 92.0069V92.8083ZM197.965 94.3241L198.411 94.99C197.516 95.5887 196.746 96.3588 196.147 97.2532L195.481 96.8073L194.816 96.3615C195.531 95.2931 196.451 94.3734 197.519 93.6582L197.965 94.3241ZM194.137 100.051L194.923 100.207C194.821 100.724 194.767 101.259 194.767 101.807H193.966H193.164C193.164 101.154 193.228 100.515 193.351 99.8956L194.137 100.051ZM193.966 101.807H194.767V103.099H193.966H193.164V101.807H193.966ZM193.966 105.684H194.767V108.268H193.966H193.164V105.684H193.966Z" fill="#04D8FB"/>
<path d="M193.966 112.144L189.339 104.13H198.592L193.966 112.144ZM302.526 50.9774H303.327V52.619H302.526H301.724V50.9774H302.526ZM302.526 55.9022H303.327V59.1854H302.526H301.724V55.9022H302.526ZM302.526 62.4686H303.327V65.7517H302.526H301.724V62.4686H302.526ZM302.526 69.0349H303.327V72.3181H302.526H301.724V69.0349H302.526ZM302.526 75.6013H303.327V78.8845H302.526H301.724V75.6013H302.526ZM302.526 82.1677H303.327V83.8093H302.526H301.724V82.1677H302.526ZM302.526 83.8093H303.327C303.327 84.4628 303.263 85.1021 303.14 85.7211L302.354 85.5655L301.568 85.41C301.67 84.8929 301.724 84.3578 301.724 83.8093H302.526ZM301.01 88.8093L301.676 89.2551C300.96 90.3235 300.041 91.2432 298.972 91.9585L298.526 91.2926L298.081 90.6267C298.975 90.0279 299.745 89.2578 300.344 88.3635L301.01 88.8093ZM295.283 92.637L295.438 93.4231C294.819 93.5456 294.18 93.6097 293.526 93.6097V92.8083V92.0069C294.075 92.0069 294.61 91.9532 295.127 91.8509L295.283 92.637ZM293.526 92.8083V93.6097H291.909V92.8083V92.0069H293.526V92.8083ZM288.675 92.8083V93.6097H285.441V92.8083V92.0069H288.675V92.8083ZM282.206 92.8083V93.6097H278.972V92.8083V92.0069H282.206V92.8083ZM275.738 92.8083V93.6097H272.503V92.8083V92.0069H275.738V92.8083ZM269.269 92.8083V93.6097H266.035V92.8083V92.0069H269.269V92.8083ZM262.8 92.8083V93.6097H259.566V92.8083V92.0069H262.8V92.8083ZM256.331 92.8083V93.6097H253.097V92.8083V92.0069H256.331V92.8083ZM249.863 92.8083V93.6097H246.628V92.8083V92.0069H249.863V92.8083ZM243.394 92.8083V93.6097H240.16V92.8083V92.0069H243.394V92.8083ZM236.925 92.8083V93.6097H233.691V92.8083V92.0069H236.925V92.8083ZM230.457 92.8083V93.6097H227.222V92.8083V92.0069H230.457V92.8083ZM223.988 92.8083V93.6097H220.754V92.8083V92.0069H223.988V92.8083ZM217.519 92.8083V93.6097H214.285V92.8083V92.0069H217.519V92.8083ZM211.051 92.8083V93.6097H207.816V92.8083V92.0069H211.051V92.8083ZM204.582 92.8083V93.6097H202.965V92.8083V92.0069H204.582V92.8083ZM202.965 92.8083V93.6097C202.416 93.6097 201.881 93.6634 201.364 93.7657L201.208 92.9796L201.053 92.1935C201.672 92.071 202.311 92.0069 202.965 92.0069V92.8083ZM197.965 94.3241L198.411 94.99C197.516 95.5887 196.746 96.3588 196.147 97.2532L195.481 96.8073L194.816 96.3615C195.531 95.2931 196.45 94.3734 197.519 93.6582L197.965 94.3241ZM194.137 100.051L194.923 100.207C194.821 100.724 194.767 101.259 194.767 101.807H193.966H193.164C193.164 101.154 193.228 100.515 193.351 99.8956L194.137 100.051ZM193.966 101.807H194.767V103.099H193.966H193.164V101.807H193.966ZM193.966 105.684H194.767V108.268H193.966H193.164V105.684H193.966Z" fill="#04D8FB"/>
<g filter="url(#filter0_d_1_2)">
<rect x="65.3962" y="28.2148" width="45.0811" height="45.0811" rx="22.5406" fill="#FDFDFD"/>
<rect x="66.2311" y="29.0497" width="43.4115" height="43.4115" rx="21.7057" stroke="#00D6FF" stroke-opacity="0.24" stroke-width="1.66967"/>
<text fill="black" xml:space="preserve" style="white-space: pre" font-family="Source Code Pro" font-size="15.7483" font-weight="bold" letter-spacing="-0.03em"><tspan x="73.8758" y="56.0874">&#60;/&#62;</tspan></text>
</g>
<g filter="url(#filter1_d_1_2)">
<rect x="136.35" y="28.215" width="45.0811" height="45.0811" rx="22.5406" fill="#FDFDFD"/>
<rect x="137.184" y="29.0499" width="43.4115" height="43.4115" rx="21.7057" stroke="#00D6FF" stroke-opacity="0.24" stroke-width="1.66967"/>
<text fill="black" xml:space="preserve" style="white-space: pre" font-family="Source Code Pro" font-size="15.7483" font-weight="bold" letter-spacing="-0.12em"><tspan x="146.517" y="56.0876">&#60; &#62;</tspan></text>
</g>
<g filter="url(#filter2_d_1_2)">
<rect x="207.303" y="28.2148" width="45.0811" height="45.0811" rx="22.5406" fill="#FDFDFD"/>
<rect x="208.138" y="29.0497" width="43.4115" height="43.4115" rx="21.7057" stroke="#00D6FF" stroke-opacity="0.24" stroke-width="1.66967"/>
<text fill="black" xml:space="preserve" style="white-space: pre" font-family="Source Code Pro" font-size="15.7483" font-weight="bold" letter-spacing="-0.03em"><tspan x="215.782" y="56.0874">&#60;/&#62;</tspan></text>
</g>
<g filter="url(#filter3_d_1_2)">
<rect x="278.257" y="28.215" width="45.0811" height="45.0811" rx="22.5406" fill="#FDFDFD"/>
<rect x="279.091" y="29.0499" width="43.4115" height="43.4115" rx="21.7057" stroke="#00D6FF" stroke-opacity="0.24" stroke-width="1.66967"/>
<text fill="black" xml:space="preserve" style="white-space: pre" font-family="Source Code Pro" font-size="15.7483" font-weight="bold" letter-spacing="-0.03em"><tspan x="291.235" y="56.0876">&#62;_</tspan></text>
</g>
<g filter="url(#filter4_d_1_2)">
<rect x="37.0022" y="132.913" width="315" height="195" rx="30.0615" fill="#111214" shape-rendering="crispEdges"/>
<rect x="37.0022" y="132.913" width="315" height="195" rx="30.0615" stroke="url(#paint0_linear_1_2)" stroke-width="5" shape-rendering="crispEdges"/>
<text fill="#D09A66" xml:space="preserve" style="white-space: pre" font-family="Source Code Pro" font-size="15.3021" font-weight="600" letter-spacing="-0.03em"><tspan x="63.3977" y="172.582">{</tspan></text>
<text fill="#D09A66" xml:space="preserve" style="white-space: pre" font-family="Source Code Pro" font-size="15.3021" font-weight="600" letter-spacing="-0.03em"><tspan x="75.3977" y="193.512">&#34;unit_tests&#34;:</tspan></text>
<rect x="203.607" y="183.413" width="122" height="10" fill="#B8E9FF" fill-opacity="0.6"/>
<text fill="#D09A66" xml:space="preserve" style="white-space: pre" font-family="Source Code Pro" font-size="15.3021" font-weight="600" letter-spacing="-0.03em"><tspan x="75.3977" y="214.512">&#34;test_coverage&#34;:</tspan></text>
<rect x="229.607" y="204.413" width="96" height="10" fill="#B8E9FF" fill-opacity="0.6"/>
<text fill="#D09A66" xml:space="preserve" style="white-space: pre" font-family="Source Code Pro" font-size="15.3021" font-weight="600" letter-spacing="-0.03em"><tspan x="75.3977" y="235.512">&#34;sbom&#34;:</tspan></text>
<rect x="151.607" y="225.413" width="174" height="10" fill="#B8E9FF" fill-opacity="0.6"/>
<text fill="#D09A66" xml:space="preserve" style="white-space: pre" font-family="Source Code Pro" font-size="15.3021" font-weight="600" letter-spacing="-0.03em"><tspan x="75.3977" y="256.512">&#34;vulnerabilities&#34;:</tspan></text>
<rect x="247.607" y="246.413" width="78" height="10" fill="#B8E9FF" fill-opacity="0.6"/>
<text fill="#D09A66" xml:space="preserve" style="white-space: pre" font-family="Source Code Pro" font-size="15.3021" font-weight="600" letter-spacing="-0.03em"><tspan x="75.3977" y="277.512">&#34;codeowners&#34;:</tspan></text>
<rect x="203.607" y="267.413" width="122" height="10" fill="#B8E9FF" fill-opacity="0.6"/>
<text fill="#D09A66" xml:space="preserve" style="white-space: pre" font-family="Source Code Pro" font-size="15.3021" font-weight="600" letter-spacing="-0.03em"><tspan x="63.3977" y="298.443">}</tspan></text>
<g clip-path="url(#clip0_1_2)">
<rect x="107.735" y="305.164" width="45.2095" height="45.2095" rx="22.6047" fill="white"/>
<g filter="url(#filter5_d_1_2)">
<mask id="path-32-inside-1_1_2" fill="white">
<path d="M138.413 340.687C137.956 340.687 137.573 340.532 137.264 340.222C136.955 339.912 136.8 339.528 136.799 339.072V330.999C136.799 330.541 136.954 330.158 137.264 329.849C137.574 329.54 137.957 329.385 138.413 329.384H141.642C142.1 329.384 142.484 329.539 142.794 329.849C143.104 330.159 143.258 330.542 143.257 330.999V339.072C143.257 339.529 143.102 339.913 142.792 340.223C142.482 340.533 142.099 340.688 141.642 340.687H138.413ZM128.725 340.687C128.268 340.687 127.885 340.532 127.576 340.222C127.267 339.912 127.112 339.528 127.111 339.072V316.467C127.111 316.01 127.266 315.626 127.576 315.318C127.886 315.009 128.269 314.854 128.725 314.853H131.955C132.412 314.853 132.796 315.008 133.106 315.318C133.416 315.628 133.57 316.011 133.569 316.467V339.072C133.569 339.529 133.414 339.913 133.104 340.223C132.794 340.533 132.411 340.688 131.955 340.687H128.725ZM119.038 340.687C118.58 340.687 118.197 340.532 117.888 340.222C117.579 339.912 117.424 339.528 117.423 339.072V324.54C117.423 324.083 117.578 323.7 117.888 323.391C118.198 323.082 118.581 322.927 119.038 322.926H122.267C122.724 322.926 123.108 323.081 123.418 323.391C123.728 323.701 123.883 324.084 123.882 324.54V339.072C123.882 339.529 123.727 339.913 123.417 340.223C123.107 340.533 122.723 340.688 122.267 340.687H119.038Z"/>
</mask>
<path d="M138.413 340.687C137.956 340.687 137.573 340.532 137.264 340.222C136.955 339.912 136.8 339.528 136.799 339.072V330.999C136.799 330.541 136.954 330.158 137.264 329.849C137.574 329.54 137.957 329.385 138.413 329.384H141.642C142.1 329.384 142.484 329.539 142.794 329.849C143.104 330.159 143.258 330.542 143.257 330.999V339.072C143.257 339.529 143.102 339.913 142.792 340.223C142.482 340.533 142.099 340.688 141.642 340.687H138.413ZM128.725 340.687C128.268 340.687 127.885 340.532 127.576 340.222C127.267 339.912 127.112 339.528 127.111 339.072V316.467C127.111 316.01 127.266 315.626 127.576 315.318C127.886 315.009 128.269 314.854 128.725 314.853H131.955C132.412 314.853 132.796 315.008 133.106 315.318C133.416 315.628 133.57 316.011 133.569 316.467V339.072C133.569 339.529 133.414 339.913 133.104 340.223C132.794 340.533 132.411 340.688 131.955 340.687H128.725ZM119.038 340.687C118.58 340.687 118.197 340.532 117.888 340.222C117.579 339.912 117.424 339.528 117.423 339.072V324.54C117.423 324.083 117.578 323.7 117.888 323.391C118.198 323.082 118.581 322.927 119.038 322.926H122.267C122.724 322.926 123.108 323.081 123.418 323.391C123.728 323.701 123.883 324.084 123.882 324.54V339.072C123.882 339.529 123.727 339.913 123.417 340.223C123.107 340.533 122.723 340.688 122.267 340.687H119.038Z" fill="#F9FAFC"/>
<path d="M138.413 340.687C137.956 340.687 137.573 340.532 137.264 340.222C136.955 339.912 136.8 339.528 136.799 339.072V330.999C136.799 330.541 136.954 330.158 137.264 329.849C137.574 329.54 137.957 329.385 138.413 329.384H141.642C142.1 329.384 142.484 329.539 142.794 329.849C143.104 330.159 143.258 330.542 143.257 330.999V339.072C143.257 339.529 143.102 339.913 142.792 340.223C142.482 340.533 142.099 340.688 141.642 340.687H138.413ZM128.725 340.687C128.268 340.687 127.885 340.532 127.576 340.222C127.267 339.912 127.112 339.528 127.111 339.072V316.467C127.111 316.01 127.266 315.626 127.576 315.318C127.886 315.009 128.269 314.854 128.725 314.853H131.955C132.412 314.853 132.796 315.008 133.106 315.318C133.416 315.628 133.57 316.011 133.569 316.467V339.072C133.569 339.529 133.414 339.913 133.104 340.223C132.794 340.533 132.411 340.688 131.955 340.687H128.725ZM119.038 340.687C118.58 340.687 118.197 340.532 117.888 340.222C117.579 339.912 117.424 339.528 117.423 339.072V324.54C117.423 324.083 117.578 323.7 117.888 323.391C118.198 323.082 118.581 322.927 119.038 322.926H122.267C122.724 322.926 123.108 323.081 123.418 323.391C123.728 323.701 123.883 324.084 123.882 324.54V339.072C123.882 339.529 123.727 339.913 123.417 340.223C123.107 340.533 122.723 340.688 122.267 340.687H119.038Z" stroke="url(#paint1_linear_1_2)" stroke-width="9.85006" mask="url(#path-32-inside-1_1_2)"/>
</g>
</g>
<g clip-path="url(#clip1_1_2)">
<rect x="172.32" y="305.164" width="45.2095" height="45.2095" rx="22.6047" fill="white"/>
<g filter="url(#filter6_d_1_2)">
<path d="M193.444 313.53V342.012C193.444 343.045 192.491 343.82 191.49 343.594C184.273 341.98 178.912 335.505 178.912 327.771C178.912 320.037 184.273 313.562 191.49 311.948C191.726 311.896 191.97 311.899 192.205 311.955C192.44 312.01 192.659 312.118 192.847 312.27C193.034 312.422 193.185 312.614 193.289 312.832C193.392 313.05 193.445 313.289 193.444 313.53ZM196.722 313.53V324.526C196.722 325.414 197.448 326.14 198.336 326.14H209.3C210.333 326.14 211.108 325.188 210.882 324.17C209.51 318.099 204.746 313.32 198.692 311.948C197.674 311.722 196.722 312.497 196.722 313.53ZM196.722 331.016V342.012C196.722 343.045 197.674 343.82 198.692 343.594C204.763 342.222 209.526 337.426 210.898 331.355C211.124 330.354 210.333 329.386 209.316 329.386H198.352C197.448 329.402 196.722 330.128 196.722 331.016Z" fill="url(#paint2_linear_1_2)"/>
</g>
</g>
<g clip-path="url(#clip2_1_2)">
<rect x="236.905" y="305.164" width="45.2095" height="45.2095" rx="22.6047" fill="white"/>
<g filter="url(#filter7_d_1_2)">
<mask id="path-36-inside-2_1_2" fill="white">
<path fill-rule="evenodd" clip-rule="evenodd" d="M255.508 312.429C256.03 312.437 256.536 312.613 256.95 312.931C257.363 313.249 257.663 313.693 257.804 314.195L263.068 332.909L265.314 326.919C265.487 326.457 265.797 326.059 266.202 325.778C266.608 325.497 267.089 325.346 267.583 325.346H272.427C273.069 325.346 273.685 325.601 274.139 326.055C274.593 326.51 274.848 327.126 274.848 327.768C274.848 328.41 274.593 329.026 274.139 329.481C273.685 329.935 273.069 330.19 272.427 330.19H269.262L265.007 341.536C264.828 342.014 264.503 342.424 264.077 342.706C263.651 342.988 263.147 343.128 262.637 343.107C262.127 343.085 261.636 342.903 261.236 342.586C260.835 342.269 260.545 341.834 260.407 341.342L255.35 323.36L253.749 328.488C253.595 328.981 253.288 329.412 252.872 329.719C252.456 330.025 251.953 330.19 251.436 330.19H246.593C245.95 330.19 245.334 329.935 244.88 329.481C244.426 329.026 244.171 328.41 244.171 327.768C244.171 327.126 244.426 326.51 244.88 326.055C245.334 325.601 245.95 325.346 246.593 325.346H249.655L253.161 314.129C253.316 313.631 253.629 313.196 254.052 312.889C254.475 312.583 254.986 312.421 255.508 312.429Z"/>
</mask>
<path fill-rule="evenodd" clip-rule="evenodd" d="M255.508 312.429C256.03 312.437 256.536 312.613 256.95 312.931C257.363 313.249 257.663 313.693 257.804 314.195L263.068 332.909L265.314 326.919C265.487 326.457 265.797 326.059 266.202 325.778C266.608 325.497 267.089 325.346 267.583 325.346H272.427C273.069 325.346 273.685 325.601 274.139 326.055C274.593 326.51 274.848 327.126 274.848 327.768C274.848 328.41 274.593 329.026 274.139 329.481C273.685 329.935 273.069 330.19 272.427 330.19H269.262L265.007 341.536C264.828 342.014 264.503 342.424 264.077 342.706C263.651 342.988 263.147 343.128 262.637 343.107C262.127 343.085 261.636 342.903 261.236 342.586C260.835 342.269 260.545 341.834 260.407 341.342L255.35 323.36L253.749 328.488C253.595 328.981 253.288 329.412 252.872 329.719C252.456 330.025 251.953 330.19 251.436 330.19H246.593C245.95 330.19 245.334 329.935 244.88 329.481C244.426 329.026 244.171 328.41 244.171 327.768C244.171 327.126 244.426 326.51 244.88 326.055C245.334 325.601 245.95 325.346 246.593 325.346H249.655L253.161 314.129C253.316 313.631 253.629 313.196 254.052 312.889C254.475 312.583 254.986 312.421 255.508 312.429Z" fill="#F9FAFC"/>
<path fill-rule="evenodd" clip-rule="evenodd" d="M255.508 312.429C256.03 312.437 256.536 312.613 256.95 312.931C257.363 313.249 257.663 313.693 257.804 314.195L263.068 332.909L265.314 326.919C265.487 326.457 265.797 326.059 266.202 325.778C266.608 325.497 267.089 325.346 267.583 325.346H272.427C273.069 325.346 273.685 325.601 274.139 326.055C274.593 326.51 274.848 327.126 274.848 327.768C274.848 328.41 274.593 329.026 274.139 329.481C273.685 329.935 273.069 330.19 272.427 330.19H269.262L265.007 341.536C264.828 342.014 264.503 342.424 264.077 342.706C263.651 342.988 263.147 343.128 262.637 343.107C262.127 343.085 261.636 342.903 261.236 342.586C260.835 342.269 260.545 341.834 260.407 341.342L255.35 323.36L253.749 328.488C253.595 328.981 253.288 329.412 252.872 329.719C252.456 330.025 251.953 330.19 251.436 330.19H246.593C245.95 330.19 245.334 329.935 244.88 329.481C244.426 329.026 244.171 328.41 244.171 327.768C244.171 327.126 244.426 326.51 244.88 326.055C245.334 325.601 245.95 325.346 246.593 325.346H249.655L253.161 314.129C253.316 313.631 253.629 313.196 254.052 312.889C254.475 312.583 254.986 312.421 255.508 312.429Z" stroke="url(#paint3_linear_1_2)" stroke-width="6.4585" mask="url(#path-36-inside-2_1_2)"/>
</g>
</g>
</g>
<g clip-path="url(#clip3_1_2)">
<rect x="160.002" y="112.144" width="69" height="52" rx="8.99905" fill="white"/>
<g filter="url(#filter8_d_1_2)">
<mask id="path-38-inside-3_1_2" fill="white">
<path d="M183.561 121.887H183.554C183.518 120.413 182.305 119.268 180.829 119.248V119.244H170.886V119.251C169.424 119.287 168.309 120.425 168.276 121.888H168.269V154.335H168.274C168.302 155.792 169.439 156.926 170.886 156.982V157.044H180.829C182.351 157.043 183.561 155.856 183.561 154.335V121.887ZM175.915 153.883C175.392 153.889 174.872 153.792 174.387 153.596C173.902 153.401 173.461 153.111 173.089 152.743C172.717 152.376 172.421 151.938 172.22 151.456C172.018 150.973 171.914 150.455 171.914 149.932C171.914 149.409 172.018 148.891 172.22 148.409C172.422 147.926 172.717 147.489 173.089 147.121C173.461 146.754 173.903 146.464 174.388 146.268C174.873 146.073 175.392 145.976 175.915 145.982C176.954 145.995 177.946 146.418 178.676 147.157C179.406 147.896 179.816 148.894 179.815 149.933C179.815 150.972 179.406 151.969 178.676 152.709C177.946 153.448 176.954 153.87 175.915 153.883ZM180.4 139.681H171.43V122.405H180.4V139.681ZM202.013 121.887H202.006C201.97 120.413 200.757 119.268 199.281 119.248V119.244H189.338V119.251C187.876 119.287 186.761 120.425 186.728 121.888H186.721V154.335H186.726C186.754 155.792 187.891 156.926 189.338 156.982V157.044H199.281C200.803 157.043 202.013 155.856 202.013 154.335V121.887ZM194.367 153.883C193.844 153.889 193.325 153.792 192.84 153.596C192.354 153.401 191.913 153.111 191.541 152.743C191.169 152.376 190.873 151.938 190.672 151.456C190.47 150.973 190.366 150.455 190.366 149.932C190.366 149.409 190.47 148.891 190.672 148.409C190.874 147.926 191.169 147.489 191.541 147.121C191.914 146.754 192.355 146.464 192.84 146.268C193.325 146.073 193.844 145.976 194.367 145.982C195.406 145.995 196.398 146.417 197.128 147.157C197.858 147.896 198.268 148.893 198.268 149.933C198.268 150.972 197.858 151.969 197.128 152.708C196.398 153.448 195.406 153.87 194.367 153.883ZM198.852 139.681H189.882V122.405H198.853L198.852 139.681ZM220.465 121.887H220.458C220.422 120.413 219.209 119.268 217.733 119.248V119.244H207.79V119.251C206.328 119.287 205.213 120.425 205.18 121.888H205.174V154.335H205.179C205.206 155.792 206.343 156.926 207.79 156.982V157.044H217.733C219.255 157.043 220.465 155.856 220.465 154.335V121.887ZM212.819 153.883C212.296 153.889 211.777 153.792 211.292 153.596C210.807 153.401 210.366 153.111 209.994 152.743C209.622 152.376 209.326 151.938 209.124 151.456C208.923 150.973 208.819 150.455 208.819 149.932C208.819 149.409 208.923 148.891 209.125 148.409C209.326 147.926 209.622 147.489 209.994 147.121C210.366 146.754 210.808 146.464 211.293 146.268C211.778 146.073 212.297 145.976 212.82 145.982C213.859 145.995 214.851 146.418 215.581 147.157C216.311 147.896 216.72 148.894 216.72 149.933C216.72 150.972 216.311 151.969 215.581 152.709C214.85 153.448 213.858 153.87 212.819 153.883ZM217.305 139.681H208.335V122.405H217.305V139.681Z"/>
</mask>
<path d="M183.561 121.887H183.554C183.518 120.413 182.305 119.268 180.829 119.248V119.244H170.886V119.251C169.424 119.287 168.309 120.425 168.276 121.888H168.269V154.335H168.274C168.302 155.792 169.439 156.926 170.886 156.982V157.044H180.829C182.351 157.043 183.561 155.856 183.561 154.335V121.887ZM175.915 153.883C175.392 153.889 174.872 153.792 174.387 153.596C173.902 153.401 173.461 153.111 173.089 152.743C172.717 152.376 172.421 151.938 172.22 151.456C172.018 150.973 171.914 150.455 171.914 149.932C171.914 149.409 172.018 148.891 172.22 148.409C172.422 147.926 172.717 147.489 173.089 147.121C173.461 146.754 173.903 146.464 174.388 146.268C174.873 146.073 175.392 145.976 175.915 145.982C176.954 145.995 177.946 146.418 178.676 147.157C179.406 147.896 179.816 148.894 179.815 149.933C179.815 150.972 179.406 151.969 178.676 152.709C177.946 153.448 176.954 153.87 175.915 153.883ZM180.4 139.681H171.43V122.405H180.4V139.681ZM202.013 121.887H202.006C201.97 120.413 200.757 119.268 199.281 119.248V119.244H189.338V119.251C187.876 119.287 186.761 120.425 186.728 121.888H186.721V154.335H186.726C186.754 155.792 187.891 156.926 189.338 156.982V157.044H199.281C200.803 157.043 202.013 155.856 202.013 154.335V121.887ZM194.367 153.883C193.844 153.889 193.325 153.792 192.84 153.596C192.354 153.401 191.913 153.111 191.541 152.743C191.169 152.376 190.873 151.938 190.672 151.456C190.47 150.973 190.366 150.455 190.366 149.932C190.366 149.409 190.47 148.891 190.672 148.409C190.874 147.926 191.169 147.489 191.541 147.121C191.914 146.754 192.355 146.464 192.84 146.268C193.325 146.073 193.844 145.976 194.367 145.982C195.406 145.995 196.398 146.417 197.128 147.157C197.858 147.896 198.268 148.893 198.268 149.933C198.268 150.972 197.858 151.969 197.128 152.708C196.398 153.448 195.406 153.87 194.367 153.883ZM198.852 139.681H189.882V122.405H198.853L198.852 139.681ZM220.465 121.887H220.458C220.422 120.413 219.209 119.268 217.733 119.248V119.244H207.79V119.251C206.328 119.287 205.213 120.425 205.18 121.888H205.174V154.335H205.179C205.206 155.792 206.343 156.926 207.79 156.982V157.044H217.733C219.255 157.043 220.465 155.856 220.465 154.335V121.887ZM212.819 153.883C212.296 153.889 211.777 153.792 211.292 153.596C210.807 153.401 210.366 153.111 209.994 152.743C209.622 152.376 209.326 151.938 209.124 151.456C208.923 150.973 208.819 150.455 208.819 149.932C208.819 149.409 208.923 148.891 209.125 148.409C209.326 147.926 209.622 147.489 209.994 147.121C210.366 146.754 210.808 146.464 211.293 146.268C211.778 146.073 212.297 145.976 212.82 145.982C213.859 145.995 214.851 146.418 215.581 147.157C216.311 147.896 216.72 148.894 216.72 149.933C216.72 150.972 216.311 151.969 215.581 152.709C214.85 153.448 213.858 153.87 212.819 153.883ZM217.305 139.681H208.335V122.405H217.305V139.681Z" fill="#F9FAFC"/>
<path d="M183.561 121.887H183.554C183.518 120.413 182.305 119.268 180.829 119.248V119.244H170.886V119.251C169.424 119.287 168.309 120.425 168.276 121.888H168.269V154.335H168.274C168.302 155.792 169.439 156.926 170.886 156.982V157.044H180.829C182.351 157.043 183.561 155.856 183.561 154.335V121.887ZM175.915 153.883C175.392 153.889 174.872 153.792 174.387 153.596C173.902 153.401 173.461 153.111 173.089 152.743C172.717 152.376 172.421 151.938 172.22 151.456C172.018 150.973 171.914 150.455 171.914 149.932C171.914 149.409 172.018 148.891 172.22 148.409C172.422 147.926 172.717 147.489 173.089 147.121C173.461 146.754 173.903 146.464 174.388 146.268C174.873 146.073 175.392 145.976 175.915 145.982C176.954 145.995 177.946 146.418 178.676 147.157C179.406 147.896 179.816 148.894 179.815 149.933C179.815 150.972 179.406 151.969 178.676 152.709C177.946 153.448 176.954 153.87 175.915 153.883ZM180.4 139.681H171.43V122.405H180.4V139.681ZM202.013 121.887H202.006C201.97 120.413 200.757 119.268 199.281 119.248V119.244H189.338V119.251C187.876 119.287 186.761 120.425 186.728 121.888H186.721V154.335H186.726C186.754 155.792 187.891 156.926 189.338 156.982V157.044H199.281C200.803 157.043 202.013 155.856 202.013 154.335V121.887ZM194.367 153.883C193.844 153.889 193.325 153.792 192.84 153.596C192.354 153.401 191.913 153.111 191.541 152.743C191.169 152.376 190.873 151.938 190.672 151.456C190.47 150.973 190.366 150.455 190.366 149.932C190.366 149.409 190.47 148.891 190.672 148.409C190.874 147.926 191.169 147.489 191.541 147.121C191.914 146.754 192.355 146.464 192.84 146.268C193.325 146.073 193.844 145.976 194.367 145.982C195.406 145.995 196.398 146.417 197.128 147.157C197.858 147.896 198.268 148.893 198.268 149.933C198.268 150.972 197.858 151.969 197.128 152.708C196.398 153.448 195.406 153.87 194.367 153.883ZM198.852 139.681H189.882V122.405H198.853L198.852 139.681ZM220.465 121.887H220.458C220.422 120.413 219.209 119.268 217.733 119.248V119.244H207.79V119.251C206.328 119.287 205.213 120.425 205.18 121.888H205.174V154.335H205.179C205.206 155.792 206.343 156.926 207.79 156.982V157.044H217.733C219.255 157.043 220.465 155.856 220.465 154.335V121.887ZM212.819 153.883C212.296 153.889 211.777 153.792 211.292 153.596C210.807 153.401 210.366 153.111 209.994 152.743C209.622 152.376 209.326 151.938 209.124 151.456C208.923 150.973 208.819 150.455 208.819 149.932C208.819 149.409 208.923 148.891 209.125 148.409C209.326 147.926 209.622 147.489 209.994 147.121C210.366 146.754 210.808 146.464 211.293 146.268C211.778 146.073 212.297 145.976 212.82 145.982C213.859 145.995 214.851 146.418 215.581 147.157C216.311 147.896 216.72 148.894 216.72 149.933C216.72 150.972 216.311 151.969 215.581 152.709C214.85 153.448 213.858 153.87 212.819 153.883ZM217.305 139.681H208.335V122.405H217.305V139.681Z" stroke="url(#paint4_linear_1_2)" stroke-width="6.86237" mask="url(#path-38-inside-3_1_2)"/>
</g>
</g>
<defs>
<filter id="filter0_d_1_2" x="52.7707" y="15.5893" width="70.3322" height="70.3322" filterUnits="userSpaceOnUse" color-interpolation-filters="sRGB">
<feFlood flood-opacity="0" result="BackgroundImageFix"/>
<feColorMatrix in="SourceAlpha" type="matrix" values="0 0 0 0 0 0 0 0 0 0 0 0 0 0 0 0 0 0 127 0" result="hardAlpha"/>
<feMorphology radius="2.9824" operator="dilate" in="SourceAlpha" result="effect1_dropShadow_1_2"/>
<feOffset/>
<feGaussianBlur stdDeviation="4.82155"/>
<feComposite in2="hardAlpha" operator="out"/>
<feColorMatrix type="matrix" values="0 0 0 0 0 0 0 0 0 0 0 0 0 0 0 0 0 0 0.05 0"/>
<feBlend mode="normal" in2="BackgroundImageFix" result="effect1_dropShadow_1_2"/>
<feBlend mode="normal" in="SourceGraphic" in2="effect1_dropShadow_1_2" result="shape"/>
</filter>
<filter id="filter1_d_1_2" x="123.724" y="15.5895" width="70.3322" height="70.3322" filterUnits="userSpaceOnUse" color-interpolation-filters="sRGB">
<feFlood flood-opacity="0" result="BackgroundImageFix"/>
<feColorMatrix in="SourceAlpha" type="matrix" values="0 0 0 0 0 0 0 0 0 0 0 0 0 0 0 0 0 0 127 0" result="hardAlpha"/>
<feMorphology radius="2.9824" operator="dilate" in="SourceAlpha" result="effect1_dropShadow_1_2"/>
<feOffset/>
<feGaussianBlur stdDeviation="4.82155"/>
<feComposite in2="hardAlpha" operator="out"/>
<feColorMatrix type="matrix" values="0 0 0 0 0 0 0 0 0 0 0 0 0 0 0 0 0 0 0.05 0"/>
<feBlend mode="normal" in2="BackgroundImageFix" result="effect1_dropShadow_1_2"/>
<feBlend mode="normal" in="SourceGraphic" in2="effect1_dropShadow_1_2" result="shape"/>
</filter>
<filter id="filter2_d_1_2" x="194.678" y="15.5893" width="70.3322" height="70.3322" filterUnits="userSpaceOnUse" color-interpolation-filters="sRGB">
<feFlood flood-opacity="0" result="BackgroundImageFix"/>
<feColorMatrix in="SourceAlpha" type="matrix" values="0 0 0 0 0 0 0 0 0 0 0 0 0 0 0 0 0 0 127 0" result="hardAlpha"/>
<feMorphology radius="2.9824" operator="dilate" in="SourceAlpha" result="effect1_dropShadow_1_2"/>
<feOffset/>
<feGaussianBlur stdDeviation="4.82155"/>
<feComposite in2="hardAlpha" operator="out"/>
<feColorMatrix type="matrix" values="0 0 0 0 0 0 0 0 0 0 0 0 0 0 0 0 0 0 0.05 0"/>
<feBlend mode="normal" in2="BackgroundImageFix" result="effect1_dropShadow_1_2"/>
<feBlend mode="normal" in="SourceGraphic" in2="effect1_dropShadow_1_2" result="shape"/>
</filter>
<filter id="filter3_d_1_2" x="265.631" y="15.5895" width="70.3322" height="70.3322" filterUnits="userSpaceOnUse" color-interpolation-filters="sRGB">
<feFlood flood-opacity="0" result="BackgroundImageFix"/>
<feColorMatrix in="SourceAlpha" type="matrix" values="0 0 0 0 0 0 0 0 0 0 0 0 0 0 0 0 0 0 127 0" result="hardAlpha"/>
<feMorphology radius="2.9824" operator="dilate" in="SourceAlpha" result="effect1_dropShadow_1_2"/>
<feOffset/>
<feGaussianBlur stdDeviation="4.82155"/>
<feComposite in2="hardAlpha" operator="out"/>
<feColorMatrix type="matrix" values="0 0 0 0 0 0 0 0 0 0 0 0 0 0 0 0 0 0 0.05 0"/>
<feBlend mode="normal" in2="BackgroundImageFix" result="effect1_dropShadow_1_2"/>
<feBlend mode="normal" in="SourceGraphic" in2="effect1_dropShadow_1_2" result="shape"/>
</filter>
<filter id="filter4_d_1_2" x="25.2402" y="122.147" width="340.516" height="240.476" filterUnits="userSpaceOnUse" color-interpolation-filters="sRGB">
<feFlood flood-opacity="0" result="BackgroundImageFix"/>
<feColorMatrix in="SourceAlpha" type="matrix" values="0 0 0 0 0 0 0 0 0 0 0 0 0 0 0 0 0 0 127 0" result="hardAlpha"/>
<feOffset dx="0.995917" dy="1.99183"/>
<feGaussianBlur stdDeviation="5.12897"/>
<feComposite in2="hardAlpha" operator="out"/>
<feColorMatrix type="matrix" values="0 0 0 0 0 0 0 0 0 0 0 0 0 0 0 0 0 0 0.25 0"/>
<feBlend mode="normal" in2="BackgroundImageFix" result="effect1_dropShadow_1_2"/>
<feBlend mode="normal" in="SourceGraphic" in2="effect1_dropShadow_1_2" result="shape"/>
</filter>
<filter id="filter5_d_1_2" x="96.5738" y="294.003" width="67.5326" height="67.5326" filterUnits="userSpaceOnUse" color-interpolation-filters="sRGB">
<feFlood flood-opacity="0" result="BackgroundImageFix"/>
<feColorMatrix in="SourceAlpha" type="matrix" values="0 0 0 0 0 0 0 0 0 0 0 0 0 0 0 0 0 0 127 0" result="hardAlpha"/>
<feMorphology radius="4.92503" operator="dilate" in="SourceAlpha" result="effect1_dropShadow_1_2"/>
<feOffset/>
<feGaussianBlur stdDeviation="7.96213"/>
<feComposite in2="hardAlpha" operator="out"/>
<feColorMatrix type="matrix" values="0 0 0 0 0 0 0 0 0 0 0 0 0 0 0 0 0 0 0.05 0"/>
<feBlend mode="normal" in2="BackgroundImageFix" result="effect1_dropShadow_1_2"/>
<feBlend mode="normal" in="SourceGraphic" in2="effect1_dropShadow_1_2" result="shape"/>
</filter>
<filter id="filter6_d_1_2" x="158.063" y="291.059" width="73.7231" height="73.4241" filterUnits="userSpaceOnUse" color-interpolation-filters="sRGB">
<feFlood flood-opacity="0" result="BackgroundImageFix"/>
<feColorMatrix in="SourceAlpha" type="matrix" values="0 0 0 0 0 0 0 0 0 0 0 0 0 0 0 0 0 0 127 0" result="hardAlpha"/>
<feMorphology radius="4.92503" operator="dilate" in="SourceAlpha" result="effect1_dropShadow_1_2"/>
<feOffset/>
<feGaussianBlur stdDeviation="7.96213"/>
<feComposite in2="hardAlpha" operator="out"/>
<feColorMatrix type="matrix" values="0 0 0 0 0 0 0 0 0 0 0 0 0 0 0 0 0 0 0.05 0"/>
<feBlend mode="normal" in2="BackgroundImageFix" result="effect1_dropShadow_1_2"/>
<feBlend mode="normal" in="SourceGraphic" in2="effect1_dropShadow_1_2" result="shape"/>
</filter>
<filter id="filter7_d_1_2" x="223.321" y="291.58" width="72.3764" height="72.3789" filterUnits="userSpaceOnUse" color-interpolation-filters="sRGB">
<feFlood flood-opacity="0" result="BackgroundImageFix"/>
<feColorMatrix in="SourceAlpha" type="matrix" values="0 0 0 0 0 0 0 0 0 0 0 0 0 0 0 0 0 0 127 0" result="hardAlpha"/>
<feMorphology radius="4.92503" operator="dilate" in="SourceAlpha" result="effect1_dropShadow_1_2"/>
<feOffset/>
<feGaussianBlur stdDeviation="7.96213"/>
<feComposite in2="hardAlpha" operator="out"/>
<feColorMatrix type="matrix" values="0 0 0 0 0 0 0 0 0 0 0 0 0 0 0 0 0 0 0.05 0"/>
<feBlend mode="normal" in2="BackgroundImageFix" result="effect1_dropShadow_1_2"/>
<feBlend mode="normal" in="SourceGraphic" in2="effect1_dropShadow_1_2" result="shape"/>
</filter>
<filter id="filter8_d_1_2" x="153.744" y="104.719" width="81.2467" height="66.8504" filterUnits="userSpaceOnUse" color-interpolation-filters="sRGB">
<feFlood flood-opacity="0" result="BackgroundImageFix"/>
<feColorMatrix in="SourceAlpha" type="matrix" values="0 0 0 0 0 0 0 0 0 0 0 0 0 0 0 0 0 0 127 0" result="hardAlpha"/>
<feMorphology radius="3.43118" operator="dilate" in="SourceAlpha" result="effect1_dropShadow_1_2"/>
<feOffset/>
<feGaussianBlur stdDeviation="5.54708"/>
<feComposite in2="hardAlpha" operator="out"/>
<feColorMatrix type="matrix" values="0 0 0 0 0 0 0 0 0 0 0 0 0 0 0 0 0 0 0.05 0"/>
<feBlend mode="normal" in2="BackgroundImageFix" result="effect1_dropShadow_1_2"/>
<feBlend mode="normal" in="SourceGraphic" in2="effect1_dropShadow_1_2" result="shape"/>
</filter>
<linearGradient id="paint0_linear_1_2" x1="194.502" y1="132.913" x2="194.502" y2="327.913" gradientUnits="userSpaceOnUse">
<stop stop-color="#02D7FD"/>
<stop offset="1" stop-color="#32F7BA"/>
</linearGradient>
<linearGradient id="paint1_linear_1_2" x1="117.423" y1="327.77" x2="143.257" y2="327.77" gradientUnits="userSpaceOnUse">
<stop stop-color="#00D6FF"/>
<stop offset="1" stop-color="#32F8B9"/>
</linearGradient>
<linearGradient id="paint2_linear_1_2" x1="178.912" y1="327.771" x2="210.937" y2="327.771" gradientUnits="userSpaceOnUse">
<stop stop-color="#00D6FF"/>
<stop offset="1" stop-color="#32F8B9"/>
</linearGradient>
<linearGradient id="paint3_linear_1_2" x1="244.171" y1="327.769" x2="274.848" y2="327.769" gradientUnits="userSpaceOnUse">
<stop stop-color="#00D6FF"/>
<stop offset="1" stop-color="#32F8B9"/>
</linearGradient>
<linearGradient id="paint4_linear_1_2" x1="168.269" y1="138.144" x2="220.465" y2="138.144" gradientUnits="userSpaceOnUse">
<stop stop-color="#00D6FF"/>
<stop offset="1" stop-color="#32F8B9"/>
</linearGradient>
<clipPath id="clip0_1_2">
<rect x="107.735" y="305.164" width="45.2095" height="45.2095" rx="22.6047" fill="white"/>
</clipPath>
<clipPath id="clip1_1_2">
<rect x="172.32" y="305.164" width="45.2095" height="45.2095" rx="22.6047" fill="white"/>
</clipPath>
<clipPath id="clip2_1_2">
<rect x="236.905" y="305.164" width="45.2095" height="45.2095" rx="22.6047" fill="white"/>
</clipPath>
<clipPath id="clip3_1_2">
<rect x="160.002" y="112.144" width="69" height="52" rx="8.99905" fill="white"/>
</clipPath>
</defs>
</svg>
