<svg width="387" height="388" viewBox="0 0 387 388" fill="none" xmlns="http://www.w3.org/2000/svg">
<g clip-path="url(#clip0_6766_6151)">
<rect x="-0.00390625" y="0.698242" width="387" height="387" rx="16" fill="#E8F7FE" style="mix-blend-mode:multiply"/>
<path d="M193.496 27.8213L213.961 0.698242H173.031L193.496 27.8213Z" fill="#96FF5B" fill-opacity="0.64"/>
<path d="M193.086 112.052L197.713 104.039H188.46L193.086 112.052ZM87.3623 50.8857H86.5609V52.5273H87.3623H88.1637V50.8857H87.3623ZM87.3623 55.8105H86.5609V59.0937H87.3623H88.1637V55.8105H87.3623ZM87.3623 62.3769H86.5609V65.6601H87.3623H88.1637V62.3769H87.3623ZM87.3623 68.9433H86.5609V72.2265H87.3623H88.1637V68.9433H87.3623ZM87.3623 75.5096H86.5609V78.7928H87.3623H88.1637V75.5096H87.3623ZM87.3623 82.076H86.5609V83.7176H87.3623H88.1637V82.076H87.3623ZM87.3623 83.7176H86.5609C86.5609 84.3711 86.625 85.0104 86.7475 85.6294L87.5336 85.4739L88.3197 85.3184C88.2174 84.8013 88.1637 84.2661 88.1637 83.7176H87.3623ZM88.8781 88.7176L88.2122 89.1634C88.9274 90.2318 89.8471 91.1515 90.9155 91.8668L91.3613 91.2009L91.8072 90.535C90.9128 89.9363 90.1427 89.1661 89.544 88.2718L88.8781 88.7176ZM94.6051 92.5454L94.4496 93.3315C95.0685 93.4539 95.7079 93.518 96.3614 93.518V92.7167V91.9153C95.8128 91.9153 95.2777 91.8615 94.7606 91.7592L94.6051 92.5454ZM96.3614 92.7167V93.518H97.9279V92.7167V91.9153H96.3614V92.7167ZM101.061 92.7167V93.518H104.194V92.7167V91.9153H101.061V92.7167ZM107.327 92.7167V93.518H110.46V92.7167V91.9153H107.327V92.7167ZM113.593 92.7167V93.518H116.726V92.7167V91.9153H113.593V92.7167ZM119.859 92.7167V93.518H122.992V92.7167V91.9153H119.859V92.7167ZM126.126 92.7167V93.518H129.259V92.7167V91.9153H126.126V92.7167ZM132.392 92.7167V93.518H135.525V92.7167V91.9153H132.392V92.7167ZM138.658 92.7167V93.518H141.791V92.7167V91.9153H138.658V92.7167ZM144.924 92.7167V93.518H148.057V92.7167V91.9153H144.924V92.7167ZM151.19 92.7167V93.518H154.323V92.7167V91.9153H151.19V92.7167ZM157.456 92.7167V93.518H160.589V92.7167V91.9153H157.456V92.7167ZM163.722 92.7167V93.518H166.855V92.7167V91.9153H163.722V92.7167ZM169.988 92.7167V93.518H173.122V92.7167V91.9153H169.988V92.7167ZM176.255 92.7167V93.518H179.388V92.7167V91.9153H176.255V92.7167ZM182.521 92.7167V93.518H184.087V92.7167V91.9153H182.521V92.7167ZM184.087 92.7167V93.518C184.636 93.518 185.171 93.5718 185.688 93.6741L185.844 92.8879L185.999 92.1018C185.38 91.9794 184.741 91.9153 184.087 91.9153V92.7167ZM189.087 94.2324L188.641 94.8983C189.536 95.497 190.306 96.2672 190.905 97.1615L191.571 96.7157L192.236 96.2699C191.521 95.2015 190.602 94.2818 189.533 93.5665L189.087 94.2324ZM192.915 99.9594L192.129 100.115C192.231 100.632 192.285 101.167 192.285 101.716H193.086H193.888C193.888 101.062 193.824 100.423 193.701 99.8039L192.915 99.9594ZM193.086 101.716H192.285V103.008H193.086H193.888V101.716H193.086ZM193.086 105.592H192.285V108.176H193.086H193.888V105.592H193.086Z" fill="#04D8FB"/>
<path d="M193.086 112.052L197.713 104.039H188.46L193.086 112.052ZM156.63 50.8857H155.829V52.5273H156.63H157.431V50.8857H156.63ZM156.63 55.8105H155.829V59.0937H156.63H157.431V55.8105H156.63ZM156.63 62.3769H155.829V65.6601H156.63H157.431V62.3769H156.63ZM156.63 68.9433H155.829V72.2265H156.63H157.431V68.9433H156.63ZM156.63 75.5096H155.829V78.7928H156.63H157.431V75.5096H156.63ZM156.63 82.076H155.829V83.7176H156.63H157.431V82.076H156.63ZM156.63 83.7176H155.829C155.829 84.3711 155.893 85.0104 156.015 85.6294L156.801 85.4739L157.587 85.3184C157.485 84.8013 157.431 84.2661 157.431 83.7176H156.63ZM158.146 88.7176L157.48 89.1634C158.195 90.2318 159.115 91.1515 160.183 91.8668L160.629 91.2009L161.075 90.535C160.18 89.9363 159.41 89.1661 158.812 88.2718L158.146 88.7176ZM163.873 92.5454L163.717 93.3315C164.336 93.4539 164.975 93.518 165.629 93.518V92.7167V91.9153C165.08 91.9153 164.545 91.8615 164.028 91.7592L163.873 92.5454ZM165.629 92.7167V93.518H167.167V92.7167V91.9153H165.629V92.7167ZM170.244 92.7167V93.518H173.32V92.7167V91.9153H170.244V92.7167ZM176.396 92.7167V93.518H179.473V92.7167V91.9153H176.396V92.7167ZM182.549 92.7167V93.518H184.087V92.7167V91.9153H182.549V92.7167ZM184.087 92.7167V93.518C184.636 93.518 185.171 93.5718 185.688 93.6741L185.844 92.8879L185.999 92.1018C185.38 91.9794 184.741 91.9153 184.087 91.9153V92.7167ZM189.087 94.2324L188.642 94.8983C189.536 95.497 190.306 96.2672 190.905 97.1615L191.571 96.7157L192.237 96.2699C191.521 95.2015 190.602 94.2818 189.533 93.5665L189.087 94.2324ZM192.915 99.9594L192.129 100.115C192.231 100.632 192.285 101.167 192.285 101.716H193.086H193.888C193.888 101.062 193.824 100.423 193.701 99.8039L192.915 99.9594ZM193.086 101.716H192.285V103.008H193.086H193.888V101.716H193.086ZM193.086 105.592H192.285V108.176H193.086H193.888V105.592H193.086Z" fill="#04D8FB"/>
<path d="M193.086 112.052L188.46 104.039H197.713L193.086 112.052ZM227.797 50.8857H228.598V52.5273H227.797H226.996V50.8857H227.797ZM227.797 55.8105H228.598V59.0937H227.797H226.996V55.8105H227.797ZM227.797 62.3769H228.598V65.6601H227.797H226.996V62.3769H227.797ZM227.797 68.9433H228.598V72.2265H227.797H226.996V68.9433H227.797ZM227.797 75.5096H228.598V78.7928H227.797H226.996V75.5096H227.797ZM227.797 82.076H228.598V83.7176H227.797H226.996V82.076H227.797ZM227.797 83.7176H228.598C228.598 84.3711 228.534 85.0104 228.412 85.6294L227.626 85.4739L226.839 85.3184C226.942 84.8013 226.996 84.2661 226.996 83.7176H227.797ZM226.281 88.7176L226.947 89.1634C226.232 90.2318 225.312 91.1515 224.244 91.8668L223.798 91.2009L223.352 90.535C224.246 89.9363 225.016 89.1661 225.615 88.2718L226.281 88.7176ZM220.554 92.5454L220.71 93.3315C220.091 93.4539 219.451 93.518 218.798 93.518V92.7167V91.9153C219.346 91.9153 219.881 91.8615 220.399 91.7592L220.554 92.5454ZM218.798 92.7167V93.518H217.405V92.7167V91.9153H218.798V92.7167ZM214.62 92.7167V93.518H211.834V92.7167V91.9153H214.62V92.7167ZM209.049 92.7167V93.518H206.264V92.7167V91.9153H209.049V92.7167ZM203.478 92.7167V93.518H202.086V92.7167V91.9153H203.478V92.7167ZM202.086 92.7167V93.518C201.537 93.518 201.002 93.5718 200.485 93.6741L200.329 92.8879L200.174 92.1018C200.793 91.9794 201.432 91.9153 202.086 91.9153V92.7167ZM197.086 94.2324L197.531 94.8983C196.637 95.497 195.867 96.2672 195.268 97.1615L194.602 96.7157L193.936 96.2699C194.652 95.2015 195.571 94.2818 196.64 93.5665L197.086 94.2324ZM193.258 99.9594L194.044 100.115C193.942 100.632 193.888 101.167 193.888 101.716H193.086H192.285C192.285 101.062 192.349 100.423 192.472 99.8039L193.258 99.9594ZM193.086 101.716H193.888V103.008H193.086H192.285V101.716H193.086ZM193.086 105.592H193.888V108.176H193.086H192.285V105.592H193.086Z" fill="#04D8FB"/>
<path d="M193.087 112.052L188.46 104.039H197.713L193.087 112.052ZM301.646 50.8857H302.448V52.5273H301.646H300.845V50.8857H301.646ZM301.646 55.8105H302.448V59.0937H301.646H300.845V55.8105H301.646ZM301.646 62.3769H302.448V65.6601H301.646H300.845V62.3769H301.646ZM301.646 68.9433H302.448V72.2265H301.646H300.845V68.9433H301.646ZM301.646 75.5096H302.448V78.7928H301.646H300.845V75.5096H301.646ZM301.646 82.076H302.448V83.7176H301.646H300.845V82.076H301.646ZM301.646 83.7176H302.448C302.448 84.3711 302.384 85.0104 302.261 85.6294L301.475 85.4739L300.689 85.3184C300.791 84.8013 300.845 84.2661 300.845 83.7176H301.646ZM300.131 88.7176L300.797 89.1634C300.081 90.2318 299.162 91.1515 298.093 91.8668L297.647 91.2009L297.202 90.535C298.096 89.9363 298.866 89.1661 299.465 88.2718L300.131 88.7176ZM294.404 92.5454L294.559 93.3315C293.94 93.4539 293.301 93.518 292.647 93.518V92.7167V91.9153C293.196 91.9153 293.731 91.8615 294.248 91.7592L294.404 92.5454ZM292.647 92.7167V93.518H291.03V92.7167V91.9153H292.647V92.7167ZM287.796 92.7167V93.518H284.562V92.7167V91.9153H287.796V92.7167ZM281.327 92.7167V93.518H278.093V92.7167V91.9153H281.327V92.7167ZM274.859 92.7167V93.518H271.624V92.7167V91.9153H274.859V92.7167ZM268.39 92.7167V93.518H265.155V92.7167V91.9153H268.39V92.7167ZM261.921 92.7167V93.518H258.687V92.7167V91.9153H261.921V92.7167ZM255.452 92.7167V93.518H252.218V92.7167V91.9153H255.452V92.7167ZM248.984 92.7167V93.518H245.749V92.7167V91.9153H248.984V92.7167ZM242.515 92.7167V93.518H239.281V92.7167V91.9153H242.515V92.7167ZM236.046 92.7167V93.518H232.812V92.7167V91.9153H236.046V92.7167ZM229.578 92.7167V93.518H226.343V92.7167V91.9153H229.578V92.7167ZM223.109 92.7167V93.518H219.875V92.7167V91.9153H223.109V92.7167ZM216.64 92.7167V93.518H213.406V92.7167V91.9153H216.64V92.7167ZM210.172 92.7167V93.518H206.937V92.7167V91.9153H210.172V92.7167ZM203.703 92.7167V93.518H202.086V92.7167V91.9153H203.703V92.7167ZM202.086 92.7167V93.518C201.537 93.518 201.002 93.5718 200.485 93.6741L200.329 92.8879L200.174 92.1018C200.793 91.9794 201.432 91.9153 202.086 91.9153V92.7167ZM197.086 94.2324L197.531 94.8983C196.637 95.497 195.867 96.2672 195.268 97.1615L194.602 96.7157L193.936 96.2699C194.652 95.2015 195.571 94.2818 196.64 93.5665L197.086 94.2324ZM193.258 99.9594L194.044 100.115C193.942 100.632 193.888 101.167 193.888 101.716H193.087H192.285C192.285 101.062 192.349 100.423 192.472 99.8039L193.258 99.9594ZM193.087 101.716H193.888V103.008H193.087H192.285V101.716H193.087ZM193.087 105.592H193.888V108.176H193.087H192.285V105.592H193.087Z" fill="#04D8FB"/>
<g filter="url(#filter0_d_6766_6151)">
<rect x="64.5176" y="28.123" width="45.0811" height="45.0811" rx="22.5406" fill="#FDFDFD"/>
<rect x="65.3524" y="28.9579" width="43.4115" height="43.4115" rx="21.7057" stroke="#00D6FF" stroke-opacity="0.24" stroke-width="1.66967"/>
<text fill="black" xml:space="preserve" style="white-space: pre" font-family="Source Code Pro" font-size="15.7483" font-weight="bold" letter-spacing="-0.03em"><tspan x="72.9971" y="55.9955">&#60;/&#62;</tspan></text>
</g>
<g filter="url(#filter1_d_6766_6151)">
<rect x="135.471" y="28.123" width="45.0811" height="45.0811" rx="22.5406" fill="#FDFDFD"/>
<rect x="136.306" y="28.9579" width="43.4115" height="43.4115" rx="21.7057" stroke="#00D6FF" stroke-opacity="0.24" stroke-width="1.66967"/>
<text fill="black" xml:space="preserve" style="white-space: pre" font-family="Source Code Pro" font-size="15.7483" font-weight="bold" letter-spacing="-0.12em"><tspan x="145.638" y="55.9955">&#60; &#62;</tspan></text>
</g>
<g filter="url(#filter2_d_6766_6151)">
<rect x="206.425" y="28.123" width="45.0811" height="45.0811" rx="22.5406" fill="#FDFDFD"/>
<rect x="207.26" y="28.9579" width="43.4115" height="43.4115" rx="21.7057" stroke="#00D6FF" stroke-opacity="0.24" stroke-width="1.66967"/>
<text fill="black" xml:space="preserve" style="white-space: pre" font-family="Source Code Pro" font-size="15.7483" font-weight="bold" letter-spacing="-0.03em"><tspan x="214.904" y="55.9955">&#60;/&#62;</tspan></text>
</g>
<g filter="url(#filter3_d_6766_6151)">
<rect x="277.378" y="28.123" width="45.0811" height="45.0811" rx="22.5406" fill="#FDFDFD"/>
<rect x="278.213" y="28.9579" width="43.4115" height="43.4115" rx="21.7057" stroke="#00D6FF" stroke-opacity="0.24" stroke-width="1.66967"/>
<text fill="black" xml:space="preserve" style="white-space: pre" font-family="Source Code Pro" font-size="15.7483" font-weight="bold" letter-spacing="-0.03em"><tspan x="290.356" y="55.9955">&#62;_</tspan></text>
</g>
<g filter="url(#filter4_d_6766_6151)">
<rect x="36.123" y="132.821" width="315" height="195" rx="30.0615" fill="#111214" shape-rendering="crispEdges"/>
<rect x="36.123" y="132.821" width="315" height="195" rx="30.0615" stroke="url(#paint0_linear_6766_6151)" stroke-width="5" shape-rendering="crispEdges"/>
<text fill="#D09A66" xml:space="preserve" style="white-space: pre" font-family="Source Code Pro" font-size="15.3021" font-weight="600" letter-spacing="-0.03em"><tspan x="62.5186" y="172.491">{</tspan></text>
<text fill="#D09A66" xml:space="preserve" style="white-space: pre" font-family="Source Code Pro" font-size="15.3021" font-weight="600" letter-spacing="-0.03em"><tspan x="74.5186" y="193.421">&#34;unit_tests&#34;:</tspan></text>
<rect x="202.728" y="183.321" width="122" height="10" fill="#B8E9FF" fill-opacity="0.6"/>
<text fill="#D09A66" xml:space="preserve" style="white-space: pre" font-family="Source Code Pro" font-size="15.3021" font-weight="600" letter-spacing="-0.03em"><tspan x="74.5186" y="214.421">&#34;test_coverage&#34;:</tspan></text>
<rect x="228.728" y="204.321" width="96" height="10" fill="#B8E9FF" fill-opacity="0.6"/>
<text fill="#D09A66" xml:space="preserve" style="white-space: pre" font-family="Source Code Pro" font-size="15.3021" font-weight="600" letter-spacing="-0.03em"><tspan x="74.5186" y="235.421">&#34;sbom&#34;:</tspan></text>
<rect x="150.728" y="225.321" width="174" height="10" fill="#B8E9FF" fill-opacity="0.6"/>
<text fill="#D09A66" xml:space="preserve" style="white-space: pre" font-family="Source Code Pro" font-size="15.3021" font-weight="600" letter-spacing="-0.03em"><tspan x="74.5186" y="256.421">&#34;vulnerabilities&#34;:</tspan></text>
<rect x="246.728" y="246.321" width="78" height="10" fill="#B8E9FF" fill-opacity="0.6"/>
<text fill="#D09A66" xml:space="preserve" style="white-space: pre" font-family="Source Code Pro" font-size="15.3021" font-weight="600" letter-spacing="-0.03em"><tspan x="74.5186" y="277.421">&#34;codeowners&#34;:</tspan></text>
<rect x="202.728" y="267.321" width="122" height="10" fill="#B8E9FF" fill-opacity="0.6"/>
<text fill="#D09A66" xml:space="preserve" style="white-space: pre" font-family="Source Code Pro" font-size="15.3021" font-weight="600" letter-spacing="-0.03em"><tspan x="62.5186" y="298.351">}</tspan></text>
<g clip-path="url(#clip1_6766_6151)">
<rect x="106.855" y="305.072" width="45.2095" height="45.2095" rx="22.6047" fill="white"/>
<g filter="url(#filter5_d_6766_6151)">
<mask id="path-33-inside-1_6766_6151" fill="white">
<path d="M137.534 340.595C137.077 340.595 136.693 340.44 136.384 340.13C136.076 339.82 135.921 339.437 135.919 338.98V330.907C135.919 330.45 136.074 330.066 136.384 329.757C136.694 329.448 137.078 329.293 137.534 329.292H140.763C141.221 329.292 141.605 329.447 141.915 329.757C142.225 330.067 142.379 330.451 142.378 330.907V338.98C142.378 339.438 142.223 339.821 141.913 340.131C141.603 340.441 141.22 340.596 140.763 340.595H137.534ZM127.846 340.595C127.389 340.595 127.006 340.44 126.697 340.13C126.388 339.82 126.233 339.437 126.232 338.98V316.375C126.232 315.918 126.387 315.535 126.697 315.226C127.007 314.917 127.39 314.762 127.846 314.761H131.076C131.533 314.761 131.917 314.916 132.227 315.226C132.537 315.536 132.691 315.919 132.69 316.375V338.98C132.69 339.438 132.535 339.821 132.225 340.131C131.915 340.441 131.532 340.596 131.076 340.595H127.846ZM118.159 340.595C117.701 340.595 117.318 340.44 117.009 340.13C116.7 339.82 116.545 339.437 116.544 338.98V324.448C116.544 323.991 116.699 323.608 117.009 323.299C117.319 322.99 117.702 322.835 118.159 322.834H121.388C121.845 322.834 122.229 322.989 122.539 323.299C122.849 323.609 123.004 323.992 123.002 324.448V338.98C123.002 339.438 122.847 339.821 122.537 340.131C122.227 340.441 121.844 340.596 121.388 340.595H118.159Z"/>
</mask>
<path d="M137.534 340.595C137.077 340.595 136.693 340.44 136.384 340.13C136.076 339.82 135.921 339.437 135.919 338.98V330.907C135.919 330.45 136.074 330.066 136.384 329.757C136.694 329.448 137.078 329.293 137.534 329.292H140.763C141.221 329.292 141.605 329.447 141.915 329.757C142.225 330.067 142.379 330.451 142.378 330.907V338.98C142.378 339.438 142.223 339.821 141.913 340.131C141.603 340.441 141.22 340.596 140.763 340.595H137.534ZM127.846 340.595C127.389 340.595 127.006 340.44 126.697 340.13C126.388 339.82 126.233 339.437 126.232 338.98V316.375C126.232 315.918 126.387 315.535 126.697 315.226C127.007 314.917 127.39 314.762 127.846 314.761H131.076C131.533 314.761 131.917 314.916 132.227 315.226C132.537 315.536 132.691 315.919 132.69 316.375V338.98C132.69 339.438 132.535 339.821 132.225 340.131C131.915 340.441 131.532 340.596 131.076 340.595H127.846ZM118.159 340.595C117.701 340.595 117.318 340.44 117.009 340.13C116.7 339.82 116.545 339.437 116.544 338.98V324.448C116.544 323.991 116.699 323.608 117.009 323.299C117.319 322.99 117.702 322.835 118.159 322.834H121.388C121.845 322.834 122.229 322.989 122.539 323.299C122.849 323.609 123.004 323.992 123.002 324.448V338.98C123.002 339.438 122.847 339.821 122.537 340.131C122.227 340.441 121.844 340.596 121.388 340.595H118.159Z" fill="#F9FAFC"/>
<path d="M137.534 340.595C137.077 340.595 136.693 340.44 136.384 340.13C136.076 339.82 135.921 339.437 135.919 338.98V330.907C135.919 330.45 136.074 330.066 136.384 329.757C136.694 329.448 137.078 329.293 137.534 329.292H140.763C141.221 329.292 141.605 329.447 141.915 329.757C142.225 330.067 142.379 330.451 142.378 330.907V338.98C142.378 339.438 142.223 339.821 141.913 340.131C141.603 340.441 141.22 340.596 140.763 340.595H137.534ZM127.846 340.595C127.389 340.595 127.006 340.44 126.697 340.13C126.388 339.82 126.233 339.437 126.232 338.98V316.375C126.232 315.918 126.387 315.535 126.697 315.226C127.007 314.917 127.39 314.762 127.846 314.761H131.076C131.533 314.761 131.917 314.916 132.227 315.226C132.537 315.536 132.691 315.919 132.69 316.375V338.98C132.69 339.438 132.535 339.821 132.225 340.131C131.915 340.441 131.532 340.596 131.076 340.595H127.846ZM118.159 340.595C117.701 340.595 117.318 340.44 117.009 340.13C116.7 339.82 116.545 339.437 116.544 338.98V324.448C116.544 323.991 116.699 323.608 117.009 323.299C117.319 322.99 117.702 322.835 118.159 322.834H121.388C121.845 322.834 122.229 322.989 122.539 323.299C122.849 323.609 123.004 323.992 123.002 324.448V338.98C123.002 339.438 122.847 339.821 122.537 340.131C122.227 340.441 121.844 340.596 121.388 340.595H118.159Z" stroke="url(#paint1_linear_6766_6151)" stroke-width="9.85006" mask="url(#path-33-inside-1_6766_6151)"/>
</g>
</g>
<g clip-path="url(#clip2_6766_6151)">
<rect x="171.44" y="305.072" width="45.2095" height="45.2095" rx="22.6047" fill="white"/>
<g filter="url(#filter6_d_6766_6151)">
<path d="M192.565 313.438V341.92C192.565 342.953 191.612 343.729 190.611 343.502C183.394 341.888 178.033 335.413 178.033 327.679C178.033 319.945 183.394 313.47 190.611 311.856C190.847 311.805 191.091 311.807 191.326 311.863C191.561 311.919 191.78 312.026 191.968 312.178C192.155 312.33 192.306 312.522 192.41 312.74C192.513 312.958 192.566 313.197 192.565 313.438ZM195.843 313.438V324.434C195.843 325.322 196.569 326.048 197.457 326.048H208.42C209.454 326.048 210.229 325.096 210.003 324.079C208.63 318.008 203.867 313.228 197.812 311.856C196.795 311.63 195.843 312.405 195.843 313.438ZM195.843 330.925V341.92C195.843 342.953 196.795 343.729 197.812 343.502C203.883 342.13 208.646 337.335 210.019 331.264C210.245 330.263 209.454 329.294 208.437 329.294H197.473C196.569 329.31 195.843 330.037 195.843 330.925Z" fill="url(#paint2_linear_6766_6151)"/>
</g>
</g>
<g clip-path="url(#clip3_6766_6151)">
<rect x="236.025" y="305.072" width="45.2095" height="45.2095" rx="22.6047" fill="white"/>
<g filter="url(#filter7_d_6766_6151)">
<mask id="path-37-inside-2_6766_6151" fill="white">
<path fill-rule="evenodd" clip-rule="evenodd" d="M254.629 312.337C255.151 312.345 255.656 312.521 256.07 312.839C256.484 313.158 256.784 313.601 256.925 314.104L262.189 332.817L264.435 326.827C264.608 326.365 264.917 325.967 265.323 325.686C265.728 325.405 266.21 325.254 266.703 325.254H271.547C272.189 325.254 272.805 325.509 273.26 325.964C273.714 326.418 273.969 327.034 273.969 327.676C273.969 328.318 273.714 328.934 273.26 329.389C272.805 329.843 272.189 330.098 271.547 330.098H268.382L264.128 341.444C263.949 341.922 263.623 342.332 263.197 342.614C262.772 342.896 262.268 343.037 261.757 343.015C261.247 342.994 260.757 342.811 260.356 342.494C259.956 342.177 259.666 341.742 259.528 341.25L254.471 323.268L252.869 328.396C252.715 328.889 252.408 329.32 251.992 329.627C251.576 329.933 251.073 330.098 250.557 330.098H245.713C245.071 330.098 244.455 329.843 244 329.389C243.546 328.934 243.291 328.318 243.291 327.676C243.291 327.034 243.546 326.418 244 325.964C244.455 325.509 245.071 325.254 245.713 325.254H248.776L252.281 314.037C252.437 313.539 252.75 313.104 253.173 312.797C253.596 312.491 254.107 312.329 254.629 312.337Z"/>
</mask>
<path fill-rule="evenodd" clip-rule="evenodd" d="M254.629 312.337C255.151 312.345 255.656 312.521 256.07 312.839C256.484 313.158 256.784 313.601 256.925 314.104L262.189 332.817L264.435 326.827C264.608 326.365 264.917 325.967 265.323 325.686C265.728 325.405 266.21 325.254 266.703 325.254H271.547C272.189 325.254 272.805 325.509 273.26 325.964C273.714 326.418 273.969 327.034 273.969 327.676C273.969 328.318 273.714 328.934 273.26 329.389C272.805 329.843 272.189 330.098 271.547 330.098H268.382L264.128 341.444C263.949 341.922 263.623 342.332 263.197 342.614C262.772 342.896 262.268 343.037 261.757 343.015C261.247 342.994 260.757 342.811 260.356 342.494C259.956 342.177 259.666 341.742 259.528 341.25L254.471 323.268L252.869 328.396C252.715 328.889 252.408 329.32 251.992 329.627C251.576 329.933 251.073 330.098 250.557 330.098H245.713C245.071 330.098 244.455 329.843 244 329.389C243.546 328.934 243.291 328.318 243.291 327.676C243.291 327.034 243.546 326.418 244 325.964C244.455 325.509 245.071 325.254 245.713 325.254H248.776L252.281 314.037C252.437 313.539 252.75 313.104 253.173 312.797C253.596 312.491 254.107 312.329 254.629 312.337Z" fill="#F9FAFC"/>
<path fill-rule="evenodd" clip-rule="evenodd" d="M254.629 312.337C255.151 312.345 255.656 312.521 256.07 312.839C256.484 313.158 256.784 313.601 256.925 314.104L262.189 332.817L264.435 326.827C264.608 326.365 264.917 325.967 265.323 325.686C265.728 325.405 266.21 325.254 266.703 325.254H271.547C272.189 325.254 272.805 325.509 273.26 325.964C273.714 326.418 273.969 327.034 273.969 327.676C273.969 328.318 273.714 328.934 273.26 329.389C272.805 329.843 272.189 330.098 271.547 330.098H268.382L264.128 341.444C263.949 341.922 263.623 342.332 263.197 342.614C262.772 342.896 262.268 343.037 261.757 343.015C261.247 342.994 260.757 342.811 260.356 342.494C259.956 342.177 259.666 341.742 259.528 341.25L254.471 323.268L252.869 328.396C252.715 328.889 252.408 329.32 251.992 329.627C251.576 329.933 251.073 330.098 250.557 330.098H245.713C245.071 330.098 244.455 329.843 244 329.389C243.546 328.934 243.291 328.318 243.291 327.676C243.291 327.034 243.546 326.418 244 325.964C244.455 325.509 245.071 325.254 245.713 325.254H248.776L252.281 314.037C252.437 313.539 252.75 313.104 253.173 312.797C253.596 312.491 254.107 312.329 254.629 312.337Z" stroke="url(#paint3_linear_6766_6151)" stroke-width="6.4585" mask="url(#path-37-inside-2_6766_6151)"/>
</g>
</g>
</g>
<g clip-path="url(#clip4_6766_6151)">
<rect x="159.123" y="112.052" width="69" height="52" rx="8.99905" fill="white"/>
<g filter="url(#filter8_d_6766_6151)">
<mask id="path-39-inside-3_6766_6151" fill="white">
<path d="M182.682 121.796H182.675C182.639 120.321 181.426 119.176 179.95 119.156V119.152H170.007V119.159C168.545 119.195 167.43 120.333 167.397 121.796H167.391V154.243H167.396C167.423 155.7 168.56 156.834 170.007 156.891V156.952H179.95C181.472 156.951 182.682 155.764 182.682 154.244V121.796ZM175.036 153.791C174.513 153.798 173.994 153.7 173.509 153.505C173.024 153.309 172.582 153.019 172.21 152.652C171.838 152.284 171.543 151.846 171.341 151.364C171.139 150.881 171.035 150.363 171.036 149.84C171.036 149.317 171.139 148.8 171.341 148.317C171.543 147.834 171.838 147.397 172.211 147.029C172.583 146.662 173.024 146.372 173.509 146.176C173.994 145.981 174.514 145.884 175.036 145.89C176.076 145.904 177.067 146.326 177.798 147.065C178.528 147.805 178.937 148.802 178.937 149.841C178.937 150.88 178.527 151.877 177.797 152.617C177.067 153.356 176.075 153.778 175.036 153.791ZM179.521 139.589H170.551V122.313H179.521V139.589ZM201.134 121.796H201.128C201.091 120.321 199.878 119.176 198.403 119.156V119.152H188.459V119.159C186.997 119.195 185.882 120.333 185.849 121.796H185.843V154.243H185.848C185.875 155.7 187.013 156.834 188.459 156.891V156.952H198.403C199.924 156.951 201.134 155.764 201.134 154.244V121.796ZM193.488 153.791C192.965 153.798 192.446 153.7 191.961 153.505C191.476 153.309 191.034 153.019 190.662 152.652C190.29 152.284 189.995 151.846 189.793 151.364C189.591 150.881 189.488 150.363 189.488 149.84C189.488 149.317 189.592 148.8 189.793 148.317C189.995 147.834 190.291 147.397 190.663 147.029C191.035 146.662 191.476 146.372 191.961 146.176C192.447 145.981 192.966 145.884 193.489 145.89C194.528 145.904 195.52 146.326 196.25 147.065C196.98 147.804 197.389 148.802 197.389 149.841C197.389 150.88 196.98 151.877 196.25 152.616C195.52 153.356 194.527 153.778 193.488 153.791ZM197.973 139.589H189.004V122.313H197.974L197.973 139.589ZM219.587 121.796H219.58C219.544 120.321 218.331 119.176 216.855 119.156V119.152H206.912V119.159C205.45 119.195 204.334 120.333 204.301 121.796H204.295V154.243H204.3C204.327 155.7 205.465 156.834 206.912 156.891V156.952H216.855C218.376 156.951 219.587 155.764 219.587 154.244V121.796ZM211.941 153.791C211.418 153.798 210.899 153.7 210.414 153.505C209.929 153.309 209.487 153.019 209.115 152.652C208.743 152.284 208.447 151.846 208.246 151.364C208.044 150.881 207.94 150.363 207.94 149.84C207.94 149.317 208.044 148.8 208.246 148.317C208.448 147.834 208.743 147.397 209.115 147.029C209.488 146.662 209.929 146.372 210.414 146.176C210.899 145.981 211.418 145.884 211.941 145.89C212.98 145.904 213.972 146.326 214.702 147.065C215.432 147.805 215.842 148.802 215.842 149.841C215.842 150.88 215.432 151.877 214.702 152.617C213.972 153.356 212.98 153.778 211.941 153.791ZM216.426 139.589H207.456V122.313H216.426V139.589Z"/>
</mask>
<path d="M182.682 121.796H182.675C182.639 120.321 181.426 119.176 179.95 119.156V119.152H170.007V119.159C168.545 119.195 167.43 120.333 167.397 121.796H167.391V154.243H167.396C167.423 155.7 168.56 156.834 170.007 156.891V156.952H179.95C181.472 156.951 182.682 155.764 182.682 154.244V121.796ZM175.036 153.791C174.513 153.798 173.994 153.7 173.509 153.505C173.024 153.309 172.582 153.019 172.21 152.652C171.838 152.284 171.543 151.846 171.341 151.364C171.139 150.881 171.035 150.363 171.036 149.84C171.036 149.317 171.139 148.8 171.341 148.317C171.543 147.834 171.838 147.397 172.211 147.029C172.583 146.662 173.024 146.372 173.509 146.176C173.994 145.981 174.514 145.884 175.036 145.89C176.076 145.904 177.067 146.326 177.798 147.065C178.528 147.805 178.937 148.802 178.937 149.841C178.937 150.88 178.527 151.877 177.797 152.617C177.067 153.356 176.075 153.778 175.036 153.791ZM179.521 139.589H170.551V122.313H179.521V139.589ZM201.134 121.796H201.128C201.091 120.321 199.878 119.176 198.403 119.156V119.152H188.459V119.159C186.997 119.195 185.882 120.333 185.849 121.796H185.843V154.243H185.848C185.875 155.7 187.013 156.834 188.459 156.891V156.952H198.403C199.924 156.951 201.134 155.764 201.134 154.244V121.796ZM193.488 153.791C192.965 153.798 192.446 153.7 191.961 153.505C191.476 153.309 191.034 153.019 190.662 152.652C190.29 152.284 189.995 151.846 189.793 151.364C189.591 150.881 189.488 150.363 189.488 149.84C189.488 149.317 189.592 148.8 189.793 148.317C189.995 147.834 190.291 147.397 190.663 147.029C191.035 146.662 191.476 146.372 191.961 146.176C192.447 145.981 192.966 145.884 193.489 145.89C194.528 145.904 195.52 146.326 196.25 147.065C196.98 147.804 197.389 148.802 197.389 149.841C197.389 150.88 196.98 151.877 196.25 152.616C195.52 153.356 194.527 153.778 193.488 153.791ZM197.973 139.589H189.004V122.313H197.974L197.973 139.589ZM219.587 121.796H219.58C219.544 120.321 218.331 119.176 216.855 119.156V119.152H206.912V119.159C205.45 119.195 204.334 120.333 204.301 121.796H204.295V154.243H204.3C204.327 155.7 205.465 156.834 206.912 156.891V156.952H216.855C218.376 156.951 219.587 155.764 219.587 154.244V121.796ZM211.941 153.791C211.418 153.798 210.899 153.7 210.414 153.505C209.929 153.309 209.487 153.019 209.115 152.652C208.743 152.284 208.447 151.846 208.246 151.364C208.044 150.881 207.94 150.363 207.94 149.84C207.94 149.317 208.044 148.8 208.246 148.317C208.448 147.834 208.743 147.397 209.115 147.029C209.488 146.662 209.929 146.372 210.414 146.176C210.899 145.981 211.418 145.884 211.941 145.89C212.98 145.904 213.972 146.326 214.702 147.065C215.432 147.805 215.842 148.802 215.842 149.841C215.842 150.88 215.432 151.877 214.702 152.617C213.972 153.356 212.98 153.778 211.941 153.791ZM216.426 139.589H207.456V122.313H216.426V139.589Z" fill="#F9FAFC"/>
<path d="M182.682 121.796H182.675C182.639 120.321 181.426 119.176 179.95 119.156V119.152H170.007V119.159C168.545 119.195 167.43 120.333 167.397 121.796H167.391V154.243H167.396C167.423 155.7 168.56 156.834 170.007 156.891V156.952H179.95C181.472 156.951 182.682 155.764 182.682 154.244V121.796ZM175.036 153.791C174.513 153.798 173.994 153.7 173.509 153.505C173.024 153.309 172.582 153.019 172.21 152.652C171.838 152.284 171.543 151.846 171.341 151.364C171.139 150.881 171.035 150.363 171.036 149.84C171.036 149.317 171.139 148.8 171.341 148.317C171.543 147.834 171.838 147.397 172.211 147.029C172.583 146.662 173.024 146.372 173.509 146.176C173.994 145.981 174.514 145.884 175.036 145.89C176.076 145.904 177.067 146.326 177.798 147.065C178.528 147.805 178.937 148.802 178.937 149.841C178.937 150.88 178.527 151.877 177.797 152.617C177.067 153.356 176.075 153.778 175.036 153.791ZM179.521 139.589H170.551V122.313H179.521V139.589ZM201.134 121.796H201.128C201.091 120.321 199.878 119.176 198.403 119.156V119.152H188.459V119.159C186.997 119.195 185.882 120.333 185.849 121.796H185.843V154.243H185.848C185.875 155.7 187.013 156.834 188.459 156.891V156.952H198.403C199.924 156.951 201.134 155.764 201.134 154.244V121.796ZM193.488 153.791C192.965 153.798 192.446 153.7 191.961 153.505C191.476 153.309 191.034 153.019 190.662 152.652C190.29 152.284 189.995 151.846 189.793 151.364C189.591 150.881 189.488 150.363 189.488 149.84C189.488 149.317 189.592 148.8 189.793 148.317C189.995 147.834 190.291 147.397 190.663 147.029C191.035 146.662 191.476 146.372 191.961 146.176C192.447 145.981 192.966 145.884 193.489 145.89C194.528 145.904 195.52 146.326 196.25 147.065C196.98 147.804 197.389 148.802 197.389 149.841C197.389 150.88 196.98 151.877 196.25 152.616C195.52 153.356 194.527 153.778 193.488 153.791ZM197.973 139.589H189.004V122.313H197.974L197.973 139.589ZM219.587 121.796H219.58C219.544 120.321 218.331 119.176 216.855 119.156V119.152H206.912V119.159C205.45 119.195 204.334 120.333 204.301 121.796H204.295V154.243H204.3C204.327 155.7 205.465 156.834 206.912 156.891V156.952H216.855C218.376 156.951 219.587 155.764 219.587 154.244V121.796ZM211.941 153.791C211.418 153.798 210.899 153.7 210.414 153.505C209.929 153.309 209.487 153.019 209.115 152.652C208.743 152.284 208.447 151.846 208.246 151.364C208.044 150.881 207.94 150.363 207.94 149.84C207.94 149.317 208.044 148.8 208.246 148.317C208.448 147.834 208.743 147.397 209.115 147.029C209.488 146.662 209.929 146.372 210.414 146.176C210.899 145.981 211.418 145.884 211.941 145.89C212.98 145.904 213.972 146.326 214.702 147.065C215.432 147.805 215.842 148.802 215.842 149.841C215.842 150.88 215.432 151.877 214.702 152.617C213.972 153.356 212.98 153.778 211.941 153.791ZM216.426 139.589H207.456V122.313H216.426V139.589Z" stroke="url(#paint4_linear_6766_6151)" stroke-width="6.86237" mask="url(#path-39-inside-3_6766_6151)"/>
</g>
</g>
</g>
<defs>
<filter id="filter0_d_6766_6151" x="51.8921" y="15.4975" width="70.3321" height="70.3321" filterUnits="userSpaceOnUse" color-interpolation-filters="sRGB">
<feFlood flood-opacity="0" result="BackgroundImageFix"/>
<feColorMatrix in="SourceAlpha" type="matrix" values="0 0 0 0 0 0 0 0 0 0 0 0 0 0 0 0 0 0 127 0" result="hardAlpha"/>
<feMorphology radius="2.9824" operator="dilate" in="SourceAlpha" result="effect1_dropShadow_6766_6151"/>
<feOffset/>
<feGaussianBlur stdDeviation="4.82155"/>
<feComposite in2="hardAlpha" operator="out"/>
<feColorMatrix type="matrix" values="0 0 0 0 0 0 0 0 0 0 0 0 0 0 0 0 0 0 0.05 0"/>
<feBlend mode="normal" in2="BackgroundImageFix" result="effect1_dropShadow_6766_6151"/>
<feBlend mode="normal" in="SourceGraphic" in2="effect1_dropShadow_6766_6151" result="shape"/>
</filter>
<filter id="filter1_d_6766_6151" x="122.845" y="15.4975" width="70.3321" height="70.3321" filterUnits="userSpaceOnUse" color-interpolation-filters="sRGB">
<feFlood flood-opacity="0" result="BackgroundImageFix"/>
<feColorMatrix in="SourceAlpha" type="matrix" values="0 0 0 0 0 0 0 0 0 0 0 0 0 0 0 0 0 0 127 0" result="hardAlpha"/>
<feMorphology radius="2.9824" operator="dilate" in="SourceAlpha" result="effect1_dropShadow_6766_6151"/>
<feOffset/>
<feGaussianBlur stdDeviation="4.82155"/>
<feComposite in2="hardAlpha" operator="out"/>
<feColorMatrix type="matrix" values="0 0 0 0 0 0 0 0 0 0 0 0 0 0 0 0 0 0 0.05 0"/>
<feBlend mode="normal" in2="BackgroundImageFix" result="effect1_dropShadow_6766_6151"/>
<feBlend mode="normal" in="SourceGraphic" in2="effect1_dropShadow_6766_6151" result="shape"/>
</filter>
<filter id="filter2_d_6766_6151" x="193.799" y="15.4975" width="70.3321" height="70.3321" filterUnits="userSpaceOnUse" color-interpolation-filters="sRGB">
<feFlood flood-opacity="0" result="BackgroundImageFix"/>
<feColorMatrix in="SourceAlpha" type="matrix" values="0 0 0 0 0 0 0 0 0 0 0 0 0 0 0 0 0 0 127 0" result="hardAlpha"/>
<feMorphology radius="2.9824" operator="dilate" in="SourceAlpha" result="effect1_dropShadow_6766_6151"/>
<feOffset/>
<feGaussianBlur stdDeviation="4.82155"/>
<feComposite in2="hardAlpha" operator="out"/>
<feColorMatrix type="matrix" values="0 0 0 0 0 0 0 0 0 0 0 0 0 0 0 0 0 0 0.05 0"/>
<feBlend mode="normal" in2="BackgroundImageFix" result="effect1_dropShadow_6766_6151"/>
<feBlend mode="normal" in="SourceGraphic" in2="effect1_dropShadow_6766_6151" result="shape"/>
</filter>
<filter id="filter3_d_6766_6151" x="264.752" y="15.4975" width="70.3321" height="70.3321" filterUnits="userSpaceOnUse" color-interpolation-filters="sRGB">
<feFlood flood-opacity="0" result="BackgroundImageFix"/>
<feColorMatrix in="SourceAlpha" type="matrix" values="0 0 0 0 0 0 0 0 0 0 0 0 0 0 0 0 0 0 127 0" result="hardAlpha"/>
<feMorphology radius="2.9824" operator="dilate" in="SourceAlpha" result="effect1_dropShadow_6766_6151"/>
<feOffset/>
<feGaussianBlur stdDeviation="4.82155"/>
<feComposite in2="hardAlpha" operator="out"/>
<feColorMatrix type="matrix" values="0 0 0 0 0 0 0 0 0 0 0 0 0 0 0 0 0 0 0.05 0"/>
<feBlend mode="normal" in2="BackgroundImageFix" result="effect1_dropShadow_6766_6151"/>
<feBlend mode="normal" in="SourceGraphic" in2="effect1_dropShadow_6766_6151" result="shape"/>
</filter>
<filter id="filter4_d_6766_6151" x="24.361" y="122.055" width="340.516" height="240.477" filterUnits="userSpaceOnUse" color-interpolation-filters="sRGB">
<feFlood flood-opacity="0" result="BackgroundImageFix"/>
<feColorMatrix in="SourceAlpha" type="matrix" values="0 0 0 0 0 0 0 0 0 0 0 0 0 0 0 0 0 0 127 0" result="hardAlpha"/>
<feOffset dx="0.995917" dy="1.99183"/>
<feGaussianBlur stdDeviation="5.12897"/>
<feComposite in2="hardAlpha" operator="out"/>
<feColorMatrix type="matrix" values="0 0 0 0 0 0 0 0 0 0 0 0 0 0 0 0 0 0 0.25 0"/>
<feBlend mode="normal" in2="BackgroundImageFix" result="effect1_dropShadow_6766_6151"/>
<feBlend mode="normal" in="SourceGraphic" in2="effect1_dropShadow_6766_6151" result="shape"/>
</filter>
<filter id="filter5_d_6766_6151" x="95.6947" y="293.911" width="67.5326" height="67.5326" filterUnits="userSpaceOnUse" color-interpolation-filters="sRGB">
<feFlood flood-opacity="0" result="BackgroundImageFix"/>
<feColorMatrix in="SourceAlpha" type="matrix" values="0 0 0 0 0 0 0 0 0 0 0 0 0 0 0 0 0 0 127 0" result="hardAlpha"/>
<feMorphology radius="4.92503" operator="dilate" in="SourceAlpha" result="effect1_dropShadow_6766_6151"/>
<feOffset/>
<feGaussianBlur stdDeviation="7.96213"/>
<feComposite in2="hardAlpha" operator="out"/>
<feColorMatrix type="matrix" values="0 0 0 0 0 0 0 0 0 0 0 0 0 0 0 0 0 0 0.05 0"/>
<feBlend mode="normal" in2="BackgroundImageFix" result="effect1_dropShadow_6766_6151"/>
<feBlend mode="normal" in="SourceGraphic" in2="effect1_dropShadow_6766_6151" result="shape"/>
</filter>
<filter id="filter6_d_6766_6151" x="157.184" y="290.967" width="73.723" height="73.4242" filterUnits="userSpaceOnUse" color-interpolation-filters="sRGB">
<feFlood flood-opacity="0" result="BackgroundImageFix"/>
<feColorMatrix in="SourceAlpha" type="matrix" values="0 0 0 0 0 0 0 0 0 0 0 0 0 0 0 0 0 0 127 0" result="hardAlpha"/>
<feMorphology radius="4.92503" operator="dilate" in="SourceAlpha" result="effect1_dropShadow_6766_6151"/>
<feOffset/>
<feGaussianBlur stdDeviation="7.96213"/>
<feComposite in2="hardAlpha" operator="out"/>
<feColorMatrix type="matrix" values="0 0 0 0 0 0 0 0 0 0 0 0 0 0 0 0 0 0 0.05 0"/>
<feBlend mode="normal" in2="BackgroundImageFix" result="effect1_dropShadow_6766_6151"/>
<feBlend mode="normal" in="SourceGraphic" in2="effect1_dropShadow_6766_6151" result="shape"/>
</filter>
<filter id="filter7_d_6766_6151" x="222.442" y="291.488" width="72.3763" height="72.3792" filterUnits="userSpaceOnUse" color-interpolation-filters="sRGB">
<feFlood flood-opacity="0" result="BackgroundImageFix"/>
<feColorMatrix in="SourceAlpha" type="matrix" values="0 0 0 0 0 0 0 0 0 0 0 0 0 0 0 0 0 0 127 0" result="hardAlpha"/>
<feMorphology radius="4.92503" operator="dilate" in="SourceAlpha" result="effect1_dropShadow_6766_6151"/>
<feOffset/>
<feGaussianBlur stdDeviation="7.96213"/>
<feComposite in2="hardAlpha" operator="out"/>
<feColorMatrix type="matrix" values="0 0 0 0 0 0 0 0 0 0 0 0 0 0 0 0 0 0 0.05 0"/>
<feBlend mode="normal" in2="BackgroundImageFix" result="effect1_dropShadow_6766_6151"/>
<feBlend mode="normal" in="SourceGraphic" in2="effect1_dropShadow_6766_6151" result="shape"/>
</filter>
<filter id="filter8_d_6766_6151" x="152.865" y="104.627" width="81.247" height="66.8505" filterUnits="userSpaceOnUse" color-interpolation-filters="sRGB">
<feFlood flood-opacity="0" result="BackgroundImageFix"/>
<feColorMatrix in="SourceAlpha" type="matrix" values="0 0 0 0 0 0 0 0 0 0 0 0 0 0 0 0 0 0 127 0" result="hardAlpha"/>
<feMorphology radius="3.43118" operator="dilate" in="SourceAlpha" result="effect1_dropShadow_6766_6151"/>
<feOffset/>
<feGaussianBlur stdDeviation="5.54708"/>
<feComposite in2="hardAlpha" operator="out"/>
<feColorMatrix type="matrix" values="0 0 0 0 0 0 0 0 0 0 0 0 0 0 0 0 0 0 0.05 0"/>
<feBlend mode="normal" in2="BackgroundImageFix" result="effect1_dropShadow_6766_6151"/>
<feBlend mode="normal" in="SourceGraphic" in2="effect1_dropShadow_6766_6151" result="shape"/>
</filter>
<linearGradient id="paint0_linear_6766_6151" x1="193.623" y1="132.821" x2="193.623" y2="327.821" gradientUnits="userSpaceOnUse">
<stop stop-color="#02D7FD"/>
<stop offset="1" stop-color="#32F7BA"/>
</linearGradient>
<linearGradient id="paint1_linear_6766_6151" x1="116.544" y1="327.678" x2="142.378" y2="327.678" gradientUnits="userSpaceOnUse">
<stop stop-color="#00D6FF"/>
<stop offset="1" stop-color="#32F8B9"/>
</linearGradient>
<linearGradient id="paint2_linear_6766_6151" x1="178.033" y1="327.679" x2="210.058" y2="327.679" gradientUnits="userSpaceOnUse">
<stop stop-color="#00D6FF"/>
<stop offset="1" stop-color="#32F8B9"/>
</linearGradient>
<linearGradient id="paint3_linear_6766_6151" x1="243.291" y1="327.677" x2="273.969" y2="327.677" gradientUnits="userSpaceOnUse">
<stop stop-color="#00D6FF"/>
<stop offset="1" stop-color="#32F8B9"/>
</linearGradient>
<linearGradient id="paint4_linear_6766_6151" x1="167.391" y1="138.052" x2="219.587" y2="138.052" gradientUnits="userSpaceOnUse">
<stop stop-color="#00D6FF"/>
<stop offset="1" stop-color="#32F8B9"/>
</linearGradient>
<clipPath id="clip0_6766_6151">
<rect x="-0.00390625" y="0.698242" width="387" height="387" rx="16" fill="white"/>
</clipPath>
<clipPath id="clip1_6766_6151">
<rect x="106.855" y="305.072" width="45.2095" height="45.2095" rx="22.6047" fill="white"/>
</clipPath>
<clipPath id="clip2_6766_6151">
<rect x="171.44" y="305.072" width="45.2095" height="45.2095" rx="22.6047" fill="white"/>
</clipPath>
<clipPath id="clip3_6766_6151">
<rect x="236.025" y="305.072" width="45.2095" height="45.2095" rx="22.6047" fill="white"/>
</clipPath>
<clipPath id="clip4_6766_6151">
<rect x="159.123" y="112.052" width="69" height="52" rx="8.99905" fill="white"/>
</clipPath>
</defs>
</svg>
