<svg width="388" height="388" viewBox="0 0 388 388" fill="none" xmlns="http://www.w3.org/2000/svg">
<g clip-path="url(#clip0_5714_21372)">
<rect x="0.875" y="0.790039" width="387" height="387" rx="16" fill="#E8F7FE" style="mix-blend-mode:multiply"/>
<path d="M194.375 27.9131L214.84 0.790039H173.91L194.375 27.9131Z" fill="#96FF5B" fill-opacity="0.64"/>
<path d="M193.965 112.144L198.592 104.13H189.339L193.965 112.144ZM88.2412 50.9775H87.4398V52.6191H88.2412H89.0426V50.9775H88.2412ZM88.2412 55.9023H87.4398V59.1855H88.2412H89.0426V55.9023H88.2412ZM88.2412 62.4687H87.4398V65.7519H88.2412H89.0426V62.4687H88.2412ZM88.2412 69.0351H87.4398V72.3183H88.2412H89.0426V69.0351H88.2412ZM88.2412 75.6014H87.4398V78.8846H88.2412H89.0426V75.6014H88.2412ZM88.2412 82.1678H87.4398V83.8094H88.2412H89.0426V82.1678H88.2412ZM88.2412 83.8094H87.4398C87.4398 84.4629 87.5039 85.1022 87.6264 85.7212L88.4125 85.5657L89.1986 85.4102C89.0963 84.8931 89.0426 84.3579 89.0426 83.8094H88.2412ZM89.757 88.8094L89.0911 89.2552C89.8063 90.3236 90.726 91.2433 91.7944 91.9586L92.2402 91.2927L92.6861 90.6268C91.7917 90.0281 91.0216 89.2579 90.4229 88.3636L89.757 88.8094ZM95.484 92.6372L95.3285 93.4233C95.9474 93.5457 96.5868 93.6098 97.2403 93.6098V92.8085V92.0071C96.6918 92.0071 96.1566 91.9533 95.6395 91.851L95.484 92.6372ZM97.2403 92.8085V93.6098H98.8068V92.8085V92.0071H97.2403V92.8085ZM101.94 92.8085V93.6098H105.073V92.8085V92.0071H101.94V92.8085ZM108.206 92.8085V93.6098H111.339V92.8085V92.0071H108.206V92.8085ZM114.472 92.8085V93.6098H117.605V92.8085V92.0071H114.472V92.8085ZM120.738 92.8085V93.6098H123.871V92.8085V92.0071H120.738V92.8085ZM127.004 92.8085V93.6098H130.137V92.8085V92.0071H127.004V92.8085ZM133.271 92.8085V93.6098H136.404V92.8085V92.0071H133.271V92.8085ZM139.537 92.8085V93.6098H142.67V92.8085V92.0071H139.537V92.8085ZM145.803 92.8085V93.6098H148.936V92.8085V92.0071H145.803V92.8085ZM152.069 92.8085V93.6098H155.202V92.8085V92.0071H152.069V92.8085ZM158.335 92.8085V93.6098H161.468V92.8085V92.0071H158.335V92.8085ZM164.601 92.8085V93.6098H167.734V92.8085V92.0071H164.601V92.8085ZM170.867 92.8085V93.6098H174V92.8085V92.0071H170.867V92.8085ZM177.134 92.8085V93.6098H180.267V92.8085V92.0071H177.134V92.8085ZM183.4 92.8085V93.6098H184.966V92.8085V92.0071H183.4V92.8085ZM184.966 92.8085V93.6098C185.515 93.6098 186.05 93.6636 186.567 93.7659L186.722 92.9797L186.878 92.1936C186.259 92.0712 185.62 92.0071 184.966 92.0071V92.8085ZM189.966 94.3242L189.52 94.9901C190.415 95.5888 191.185 96.359 191.784 97.2533L192.449 96.8075L193.115 96.3617C192.4 95.2933 191.48 94.3736 190.412 93.6583L189.966 94.3242ZM193.794 100.051L193.008 100.207C193.11 100.724 193.164 101.259 193.164 101.808H193.965H194.767C194.767 101.154 194.703 100.515 194.58 99.8957L193.794 100.051ZM193.965 101.808H193.164V103.1H193.965H194.767V101.808H193.965ZM193.965 105.684H193.164V108.268H193.965H194.767V105.684H193.965Z" fill="#04D8FB"/>
<path d="M193.965 112.144L198.592 104.13H189.339L193.965 112.144ZM157.509 50.9775H156.707V52.6191H157.509H158.31V50.9775H157.509ZM157.509 55.9023H156.707V59.1855H157.509H158.31V55.9023H157.509ZM157.509 62.4687H156.707V65.7519H157.509H158.31V62.4687H157.509ZM157.509 69.0351H156.707V72.3183H157.509H158.31V69.0351H157.509ZM157.509 75.6014H156.707V78.8846H157.509H158.31V75.6014H157.509ZM157.509 82.1678H156.707V83.8094H157.509H158.31V82.1678H157.509ZM157.509 83.8094H156.707C156.707 84.4629 156.772 85.1022 156.894 85.7212L157.68 85.5657L158.466 85.4102C158.364 84.8931 158.31 84.3579 158.31 83.8094H157.509ZM159.025 88.8094L158.359 89.2552C159.074 90.3236 159.994 91.2433 161.062 91.9586L161.508 91.2927L161.954 90.6268C161.059 90.0281 160.289 89.2579 159.69 88.3636L159.025 88.8094ZM164.752 92.6372L164.596 93.4233C165.215 93.5457 165.854 93.6098 166.508 93.6098V92.8085V92.0071C165.959 92.0071 165.424 91.9533 164.907 91.851L164.752 92.6372ZM166.508 92.8085V93.6098H168.046V92.8085V92.0071H166.508V92.8085ZM171.122 92.8085V93.6098H174.199V92.8085V92.0071H171.122V92.8085ZM177.275 92.8085V93.6098H180.352V92.8085V92.0071H177.275V92.8085ZM183.428 92.8085V93.6098H184.966V92.8085V92.0071H183.428V92.8085ZM184.966 92.8085V93.6098C185.515 93.6098 186.05 93.6636 186.567 93.7659L186.723 92.9797L186.878 92.1936C186.259 92.0712 185.62 92.0071 184.966 92.0071V92.8085ZM189.966 94.3242L189.52 94.9901C190.415 95.5888 191.185 96.359 191.784 97.2533L192.45 96.8075L193.115 96.3617C192.4 95.2933 191.48 94.3736 190.412 93.6583L189.966 94.3242ZM193.794 100.051L193.008 100.207C193.11 100.724 193.164 101.259 193.164 101.808H193.965H194.767C194.767 101.154 194.703 100.515 194.58 99.8957L193.794 100.051ZM193.965 101.808H193.164V103.1H193.965H194.767V101.808H193.965ZM193.965 105.684H193.164V108.268H193.965H194.767V105.684H193.965Z" fill="#04D8FB"/>
<path d="M193.965 112.144L189.339 104.13H198.592L193.965 112.144ZM228.676 50.9775H229.477V52.6191H228.676H227.874V50.9775H228.676ZM228.676 55.9023H229.477V59.1855H228.676H227.874V55.9023H228.676ZM228.676 62.4687H229.477V65.7519H228.676H227.874V62.4687H228.676ZM228.676 69.0351H229.477V72.3183H228.676H227.874V69.0351H228.676ZM228.676 75.6014H229.477V78.8846H228.676H227.874V75.6014H228.676ZM228.676 82.1678H229.477V83.8094H228.676H227.874V82.1678H228.676ZM228.676 83.8094H229.477C229.477 84.4629 229.413 85.1022 229.291 85.7212L228.504 85.5657L227.718 85.4102C227.821 84.8931 227.874 84.3579 227.874 83.8094H228.676ZM227.16 88.8094L227.826 89.2552C227.111 90.3236 226.191 91.2433 225.123 91.9586L224.677 91.2927L224.231 90.6268C225.125 90.0281 225.895 89.2579 226.494 88.3636L227.16 88.8094ZM221.433 92.6372L221.589 93.4233C220.97 93.5457 220.33 93.6098 219.677 93.6098V92.8085V92.0071C220.225 92.0071 220.76 91.9533 221.277 91.851L221.433 92.6372ZM219.677 92.8085V93.6098H218.284V92.8085V92.0071H219.677V92.8085ZM215.499 92.8085V93.6098H212.713V92.8085V92.0071H215.499V92.8085ZM209.928 92.8085V93.6098H207.143V92.8085V92.0071H209.928V92.8085ZM204.357 92.8085V93.6098H202.964V92.8085V92.0071H204.357V92.8085ZM202.964 92.8085V93.6098C202.416 93.6098 201.881 93.6636 201.364 93.7659L201.208 92.9797L201.053 92.1936C201.672 92.0712 202.311 92.0071 202.964 92.0071V92.8085ZM197.964 94.3242L198.41 94.9901C197.516 95.5888 196.746 96.359 196.147 97.2533L195.481 96.8075L194.815 96.3617C195.531 95.2933 196.45 94.3736 197.519 93.6583L197.964 94.3242ZM194.137 100.051L194.923 100.207C194.821 100.724 194.767 101.259 194.767 101.808H193.965H193.164C193.164 101.154 193.228 100.515 193.351 99.8957L194.137 100.051ZM193.965 101.808H194.767V103.1H193.965H193.164V101.808H193.965ZM193.965 105.684H194.767V108.268H193.965H193.164V105.684H193.965Z" fill="#04D8FB"/>
<path d="M193.966 112.144L189.339 104.13H198.592L193.966 112.144ZM302.525 50.9775H303.327V52.6191H302.525H301.724V50.9775H302.525ZM302.525 55.9023H303.327V59.1855H302.525H301.724V55.9023H302.525ZM302.525 62.4687H303.327V65.7519H302.525H301.724V62.4687H302.525ZM302.525 69.0351H303.327V72.3183H302.525H301.724V69.0351H302.525ZM302.525 75.6014H303.327V78.8846H302.525H301.724V75.6014H302.525ZM302.525 82.1678H303.327V83.8094H302.525H301.724V82.1678H302.525ZM302.525 83.8094H303.327C303.327 84.4629 303.263 85.1022 303.14 85.7212L302.354 85.5657L301.568 85.4102C301.67 84.8931 301.724 84.3579 301.724 83.8094H302.525ZM301.01 88.8094L301.676 89.2552C300.96 90.3236 300.041 91.2433 298.972 91.9586L298.526 91.2927L298.081 90.6268C298.975 90.0281 299.745 89.2579 300.344 88.3636L301.01 88.8094ZM295.283 92.6372L295.438 93.4233C294.819 93.5457 294.18 93.6098 293.526 93.6098V92.8085V92.0071C294.075 92.0071 294.61 91.9533 295.127 91.851L295.283 92.6372ZM293.526 92.8085V93.6098H291.909V92.8085V92.0071H293.526V92.8085ZM288.675 92.8085V93.6098H285.44V92.8085V92.0071H288.675V92.8085ZM282.206 92.8085V93.6098H278.972V92.8085V92.0071H282.206V92.8085ZM275.737 92.8085V93.6098H272.503V92.8085V92.0071H275.737V92.8085ZM269.269 92.8085V93.6098H266.034V92.8085V92.0071H269.269V92.8085ZM262.8 92.8085V93.6098H259.566V92.8085V92.0071H262.8V92.8085ZM256.331 92.8085V93.6098H253.097V92.8085V92.0071H256.331V92.8085ZM249.863 92.8085V93.6098H246.628V92.8085V92.0071H249.863V92.8085ZM243.394 92.8085V93.6098H240.16V92.8085V92.0071H243.394V92.8085ZM236.925 92.8085V93.6098H233.691V92.8085V92.0071H236.925V92.8085ZM230.457 92.8085V93.6098H227.222V92.8085V92.0071H230.457V92.8085ZM223.988 92.8085V93.6098H220.754V92.8085V92.0071H223.988V92.8085ZM217.519 92.8085V93.6098H214.285V92.8085V92.0071H217.519V92.8085ZM211.05 92.8085V93.6098H207.816V92.8085V92.0071H211.05V92.8085ZM204.582 92.8085V93.6098H202.965V92.8085V92.0071H204.582V92.8085ZM202.965 92.8085V93.6098C202.416 93.6098 201.881 93.6636 201.364 93.7659L201.208 92.9797L201.053 92.1936C201.672 92.0712 202.311 92.0071 202.965 92.0071V92.8085ZM197.965 94.3242L198.41 94.9901C197.516 95.5888 196.746 96.359 196.147 97.2533L195.481 96.8075L194.815 96.3617C195.531 95.2933 196.45 94.3736 197.519 93.6583L197.965 94.3242ZM194.137 100.051L194.923 100.207C194.821 100.724 194.767 101.259 194.767 101.808H193.966H193.164C193.164 101.154 193.228 100.515 193.351 99.8957L194.137 100.051ZM193.966 101.808H194.767V103.1H193.966H193.164V101.808H193.966ZM193.966 105.684H194.767V108.268H193.966H193.164V105.684H193.966Z" fill="#04D8FB"/>
<g filter="url(#filter0_d_5714_21372)">
<rect x="65.3965" y="28.2148" width="45.0811" height="45.0811" rx="22.5406" fill="#FDFDFD"/>
<rect x="66.2313" y="29.0497" width="43.4115" height="43.4115" rx="21.7057" stroke="#00D6FF" stroke-opacity="0.24" stroke-width="1.66967"/>
<path d="M81.7816 55.2052L75.7028 51.2681V49.6617L81.7816 45.7247V47.8192L77.6083 50.4334V50.4964L81.7816 53.1106V55.2052ZM84.0118 58.2131L89.193 44.512H91.13L85.9488 58.2131H84.0118ZM93.3601 55.2052V53.1106L97.5334 50.4964V50.4334L93.3601 47.8192V45.7247L99.439 49.6617V51.2681L93.3601 55.2052Z" fill="black"/>
</g>
<g filter="url(#filter1_d_5714_21372)">
<rect x="136.35" y="28.2148" width="45.0811" height="45.0811" rx="22.5406" fill="#FDFDFD"/>
<rect x="137.184" y="29.0497" width="43.4115" height="43.4115" rx="21.7057" stroke="#00D6FF" stroke-opacity="0.24" stroke-width="1.66967"/>
<path d="M154.422 55.2052L148.343 51.2681V49.6617L154.422 45.7247V47.8192L150.249 50.4334V50.4964L154.422 53.1106V55.2052ZM163.166 55.2052V53.1106L167.339 50.4964V50.4334L163.166 47.8192V45.7247L169.245 49.6617V51.2681L163.166 55.2052Z" fill="black"/>
</g>
<g filter="url(#filter2_d_5714_21372)">
<rect x="207.304" y="28.2148" width="45.0811" height="45.0811" rx="22.5406" fill="#FDFDFD"/>
<rect x="208.139" y="29.0497" width="43.4115" height="43.4115" rx="21.7057" stroke="#00D6FF" stroke-opacity="0.24" stroke-width="1.66967"/>
<path d="M223.689 55.2052L217.61 51.2681V49.6617L223.689 45.7247V47.8192L219.516 50.4334V50.4964L223.689 53.1106V55.2052ZM225.919 58.2131L231.1 44.512H233.037L227.856 58.2131H225.919ZM235.267 55.2052V53.1106L239.441 50.4964V50.4334L235.267 47.8192V45.7247L241.346 49.6617V51.2681L235.267 55.2052Z" fill="black"/>
</g>
<g filter="url(#filter3_d_5714_21372)">
<rect x="278.257" y="28.2148" width="45.0811" height="45.0811" rx="22.5406" fill="#FDFDFD"/>
<rect x="279.092" y="29.0497" width="43.4115" height="43.4115" rx="21.7057" stroke="#00D6FF" stroke-opacity="0.24" stroke-width="1.66967"/>
<path d="M292.779 55.2052V53.1106L296.952 50.4964V50.4334L292.779 47.8192V45.7247L298.858 49.6617V51.2681L292.779 55.2052ZM301.151 58.2761V56.5438H308.71V58.2761H301.151Z" fill="black"/>
</g>
<g filter="url(#filter4_d_5714_21372)">
<rect x="37.002" y="132.913" width="315" height="195" rx="30.0615" fill="#111214" shape-rendering="crispEdges"/>
<rect x="37.002" y="132.913" width="315" height="195" rx="30.0615" stroke="url(#paint0_linear_5714_21372)" stroke-width="5" shape-rendering="crispEdges"/>
<path d="M69.9774 174.809C69.0082 174.809 68.289 174.656 67.8198 174.35C67.3607 174.054 67.1312 173.504 67.1312 172.698C67.1312 172.33 67.1414 172.004 67.1618 171.718C67.1924 171.422 67.2179 171.132 67.2383 170.846C67.2689 170.56 67.2842 170.249 67.2842 169.913C67.2842 169.729 67.223 169.551 67.1006 169.377C66.9781 169.204 66.7588 169.061 66.4426 168.949C66.1365 168.826 65.6979 168.765 65.1266 168.765V167.694C65.6979 167.694 66.1365 167.638 66.4426 167.526C66.7588 167.403 66.9781 167.255 67.1006 167.082C67.223 166.908 67.2842 166.73 67.2842 166.546C67.2842 166.22 67.2689 165.914 67.2383 165.628C67.2179 165.332 67.1924 165.036 67.1618 164.741C67.1414 164.445 67.1312 164.118 67.1312 163.761C67.1312 162.955 67.3607 162.404 67.8198 162.109C68.289 161.803 69.0082 161.65 69.9774 161.65H71.0332V162.614H70.3293C69.86 162.614 69.4979 162.654 69.2429 162.736C68.998 162.807 68.8297 162.935 68.7379 163.119C68.6461 163.292 68.6002 163.532 68.6002 163.838C68.6002 164.256 68.6104 164.684 68.6308 165.123C68.6614 165.552 68.6767 166 68.6767 166.47C68.6767 167.01 68.5696 167.413 68.3553 167.679C68.1411 167.934 67.7637 168.107 67.223 168.199V168.26C67.7637 168.352 68.1411 168.53 68.3553 168.796C68.5696 169.051 68.6767 169.448 68.6767 169.989C68.6767 170.479 68.6614 170.933 68.6308 171.351C68.6104 171.759 68.6002 172.182 68.6002 172.621C68.6002 172.927 68.6461 173.167 68.7379 173.34C68.8297 173.524 68.998 173.651 69.2429 173.723C69.4979 173.804 69.86 173.845 70.3293 173.845H71.0332V174.809H69.9774Z" fill="#D09A66"/>
<path d="M77.5244 188.409L77.0654 184.875L77.0195 182.916H79.1618L79.1159 184.875L78.6568 188.409H77.5244ZM81.3194 188.409L80.8603 184.875L80.8144 182.916H82.9567L82.9108 184.875L82.4517 188.409H81.3194ZM87.6943 193.597C86.817 193.597 86.1794 193.331 85.7816 192.801C85.3837 192.271 85.1848 191.521 85.1848 190.552V185.9H86.9445V190.322C86.9445 190.924 87.0466 191.368 87.2506 191.653C87.4648 191.939 87.8321 192.082 88.3523 192.082C88.6992 192.082 89.0154 192 89.3011 191.837C89.5969 191.664 89.908 191.373 90.2345 190.965V185.9H91.9942V193.413H90.5558L90.4181 192.22H90.3569C89.9999 192.628 89.6071 192.959 89.1786 193.214C88.7502 193.469 88.2554 193.597 87.6943 193.597ZM94.0846 193.413V185.9H95.5383L95.676 187.032H95.7373C96.0943 186.665 96.4871 186.354 96.9155 186.099C97.3542 185.844 97.8642 185.716 98.4457 185.716C99.3128 185.716 99.9504 185.981 100.358 186.512C100.767 187.042 100.971 187.792 100.971 188.761V193.413H99.1955V188.991C99.1955 188.389 99.0884 187.945 98.8742 187.66C98.66 187.374 98.2978 187.231 97.7877 187.231C97.4205 187.231 97.094 187.318 96.8084 187.491C96.5228 187.665 96.2065 187.93 95.8597 188.287V193.413H94.0846ZM106.091 193.413V187.292H102.831V185.9H107.851V193.413H106.091ZM106.841 184.523C106.484 184.523 106.183 184.415 105.938 184.201C105.703 183.987 105.586 183.701 105.586 183.344C105.586 182.987 105.703 182.702 105.938 182.487C106.183 182.263 106.484 182.151 106.841 182.151C107.208 182.151 107.509 182.263 107.743 182.487C107.978 182.702 108.095 182.987 108.095 183.344C108.095 183.701 107.978 183.987 107.743 184.201C107.509 184.415 107.208 184.523 106.841 184.523ZM116.245 193.597C115.48 193.597 114.873 193.464 114.424 193.199C113.976 192.923 113.654 192.546 113.46 192.067C113.267 191.587 113.17 191.031 113.17 190.399V187.292H111.165V185.976L113.246 185.9L113.476 183.543H114.929V185.9H118.357V187.292H114.929V190.383C114.929 190.791 114.986 191.133 115.098 191.409C115.21 191.674 115.394 191.873 115.649 192.005C115.904 192.128 116.24 192.189 116.659 192.189C116.985 192.189 117.281 192.163 117.546 192.112C117.811 192.061 118.066 191.99 118.311 191.898L118.648 193.168C118.311 193.28 117.949 193.377 117.561 193.459C117.174 193.551 116.735 193.597 116.245 193.597ZM119.897 195.739V194.362H127.242V195.739H119.897ZM133.678 193.597C132.913 193.597 132.306 193.464 131.857 193.199C131.408 192.923 131.087 192.546 130.893 192.067C130.699 191.587 130.602 191.031 130.602 190.399V187.292H128.597V185.976L130.679 185.9L130.908 183.543H132.362V185.9H135.789V187.292H132.362V190.383C132.362 190.791 132.418 191.133 132.53 191.409C132.642 191.674 132.826 191.873 133.081 192.005C133.336 192.128 133.673 192.189 134.091 192.189C134.417 192.189 134.713 192.163 134.978 192.112C135.244 192.061 135.499 191.99 135.744 191.898L136.08 193.168C135.744 193.28 135.381 193.377 134.994 193.459C134.606 193.551 134.167 193.597 133.678 193.597ZM141.461 193.597C140.695 193.597 140.002 193.444 139.379 193.138C138.757 192.821 138.262 192.373 137.895 191.791C137.528 191.199 137.344 190.485 137.344 189.649C137.344 188.833 137.528 188.134 137.895 187.552C138.262 186.961 138.742 186.507 139.334 186.191C139.925 185.874 140.558 185.716 141.231 185.716C141.976 185.716 142.603 185.869 143.113 186.175C143.633 186.481 144.026 186.905 144.291 187.445C144.567 187.976 144.705 188.588 144.705 189.282C144.705 189.455 144.694 189.623 144.674 189.786C144.664 189.94 144.648 190.067 144.628 190.169H138.614V188.914H143.496L143.159 189.312C143.159 188.567 142.991 188.011 142.654 187.644C142.328 187.267 141.869 187.078 141.277 187.078C140.859 187.078 140.481 187.175 140.145 187.369C139.818 187.563 139.558 187.853 139.364 188.241C139.17 188.618 139.073 189.088 139.073 189.649C139.073 190.23 139.181 190.71 139.395 191.087C139.619 191.465 139.925 191.75 140.313 191.944C140.711 192.138 141.17 192.235 141.69 192.235C142.088 192.235 142.455 192.179 142.792 192.067C143.128 191.954 143.465 191.801 143.802 191.607L144.399 192.709C144.001 192.964 143.552 193.178 143.052 193.352C142.552 193.515 142.022 193.597 141.461 193.597ZM149.764 193.597C149.06 193.597 148.386 193.484 147.744 193.26C147.101 193.025 146.545 192.75 146.076 192.434L146.841 191.317C147.29 191.613 147.774 191.847 148.295 192.021C148.815 192.184 149.381 192.265 149.993 192.265C150.513 192.265 150.896 192.179 151.141 192.005C151.396 191.822 151.523 191.607 151.523 191.363C151.523 191.24 151.493 191.128 151.432 191.026C151.381 190.924 151.284 190.832 151.141 190.751C150.998 190.659 150.789 190.572 150.513 190.49C150.238 190.409 149.881 190.322 149.442 190.23C148.443 190.016 147.708 189.725 147.239 189.358C146.769 188.991 146.535 188.527 146.535 187.966C146.535 187.302 146.821 186.762 147.392 186.344C147.973 185.925 148.789 185.716 149.84 185.716C150.462 185.716 151.044 185.818 151.585 186.022C152.135 186.226 152.6 186.456 152.977 186.711L152.166 187.797C151.809 187.552 151.416 187.369 150.988 187.246C150.559 187.114 150.126 187.047 149.687 187.047C149.35 187.047 149.08 187.083 148.876 187.155C148.682 187.226 148.534 187.328 148.432 187.461C148.341 187.583 148.295 187.721 148.295 187.874C148.295 188.139 148.448 188.338 148.754 188.471C149.06 188.603 149.56 188.746 150.253 188.899C151.059 189.072 151.681 189.271 152.12 189.496C152.559 189.71 152.86 189.96 153.023 190.246C153.196 190.521 153.283 190.863 153.283 191.271C153.283 191.699 153.145 192.092 152.87 192.449C152.605 192.796 152.212 193.076 151.692 193.291C151.171 193.495 150.529 193.597 149.764 193.597ZM159.826 193.597C159.061 193.597 158.454 193.464 158.005 193.199C157.557 192.923 157.235 192.546 157.041 192.067C156.848 191.587 156.751 191.031 156.751 190.399V187.292H154.746V185.976L156.827 185.9L157.057 183.543H158.51V185.9H161.938V187.292H158.51V190.383C158.51 190.791 158.567 191.133 158.679 191.409C158.791 191.674 158.975 191.873 159.23 192.005C159.485 192.128 159.821 192.189 160.24 192.189C160.566 192.189 160.862 192.163 161.127 192.112C161.392 192.061 161.647 191.99 161.892 191.898L162.229 193.168C161.892 193.28 161.53 193.377 161.142 193.459C160.755 193.551 160.316 193.597 159.826 193.597ZM167.196 193.597C166.492 193.597 165.819 193.484 165.176 193.26C164.533 193.025 163.977 192.75 163.508 192.434L164.273 191.317C164.722 191.613 165.207 191.847 165.727 192.021C166.247 192.184 166.813 192.265 167.426 192.265C167.946 192.265 168.328 192.179 168.573 192.005C168.828 191.822 168.956 191.607 168.956 191.363C168.956 191.24 168.925 191.128 168.864 191.026C168.813 190.924 168.716 190.832 168.573 190.751C168.43 190.659 168.221 190.572 167.946 190.49C167.67 190.409 167.313 190.322 166.875 190.23C165.875 190.016 165.14 189.725 164.671 189.358C164.202 188.991 163.967 188.527 163.967 187.966C163.967 187.302 164.253 186.762 164.824 186.344C165.406 185.925 166.222 185.716 167.273 185.716C167.895 185.716 168.476 185.818 169.017 186.022C169.568 186.226 170.032 186.456 170.409 186.711L169.598 187.797C169.241 187.552 168.849 187.369 168.42 187.246C167.992 187.114 167.558 187.047 167.12 187.047C166.783 187.047 166.513 187.083 166.308 187.155C166.115 187.226 165.967 187.328 165.865 187.461C165.773 187.583 165.727 187.721 165.727 187.874C165.727 188.139 165.88 188.338 166.186 188.471C166.492 188.603 166.992 188.746 167.686 188.899C168.492 189.072 169.114 189.271 169.553 189.496C169.991 189.71 170.292 189.96 170.455 190.246C170.629 190.521 170.715 190.863 170.715 191.271C170.715 191.699 170.578 192.092 170.302 192.449C170.037 192.796 169.644 193.076 169.124 193.291C168.604 193.495 167.961 193.597 167.196 193.597ZM173.403 188.409L172.944 184.875L172.898 182.916H175.04L174.994 184.875L174.535 188.409H173.403ZM177.198 188.409L176.739 184.875L176.693 182.916H178.835L178.789 184.875L178.33 188.409H177.198ZM184.583 188.394C184.154 188.394 183.792 188.246 183.496 187.95C183.21 187.654 183.068 187.287 183.068 186.848C183.068 186.4 183.21 186.032 183.496 185.747C183.792 185.451 184.154 185.303 184.583 185.303C185.021 185.303 185.383 185.451 185.669 185.747C185.955 186.032 186.097 186.4 186.097 186.848C186.097 187.287 185.955 187.654 185.669 187.95C185.383 188.246 185.021 188.394 184.583 188.394ZM184.583 193.597C184.154 193.597 183.792 193.449 183.496 193.153C183.21 192.857 183.068 192.49 183.068 192.051C183.068 191.602 183.21 191.235 183.496 190.949C183.792 190.654 184.154 190.506 184.583 190.506C185.021 190.506 185.383 190.654 185.669 190.949C185.955 191.235 186.097 191.602 186.097 192.051C186.097 192.49 185.955 192.857 185.669 193.153C185.383 193.449 185.021 193.597 184.583 193.597Z" fill="#D09A66"/>
<rect x="203.606" y="183.413" width="122" height="10" fill="#B8E9FF" fill-opacity="0.6"/>
<path d="M77.5244 209.409L77.0654 205.875L77.0195 203.916H79.1618L79.1159 205.875L78.6568 209.409H77.5244ZM81.3194 209.409L80.8603 205.875L80.8144 203.916H82.9567L82.9108 205.875L82.4517 209.409H81.3194ZM90.0968 214.597C89.3317 214.597 88.7247 214.464 88.2758 214.199C87.827 213.923 87.5056 213.546 87.3118 213.067C87.118 212.587 87.0211 212.031 87.0211 211.399V208.292H85.0165V206.976L87.0976 206.9L87.3271 204.543H88.7808V206.9H92.2085V208.292H88.7808V211.383C88.7808 211.791 88.8369 212.133 88.9491 212.409C89.0613 212.674 89.245 212.873 89.5 213.005C89.755 213.128 90.0917 213.189 90.5099 213.189C90.8364 213.189 91.1322 213.163 91.3974 213.112C91.6627 213.061 91.9177 212.99 92.1626 212.898L92.4992 214.168C92.1626 214.28 91.8004 214.377 91.4128 214.459C91.0251 214.551 90.5864 214.597 90.0968 214.597ZM97.8795 214.597C97.1144 214.597 96.4208 214.444 95.7985 214.138C95.1762 213.821 94.6814 213.373 94.3142 212.791C93.9469 212.199 93.7633 211.485 93.7633 210.649C93.7633 209.833 93.9469 209.134 94.3142 208.552C94.6814 207.961 95.1609 207.507 95.7526 207.191C96.3442 206.874 96.9767 206.716 97.65 206.716C98.3947 206.716 99.0221 206.869 99.5322 207.175C100.052 207.481 100.445 207.905 100.71 208.445C100.986 208.976 101.124 209.588 101.124 210.282C101.124 210.455 101.113 210.623 101.093 210.786C101.083 210.94 101.067 211.067 101.047 211.169H95.0334V209.914H99.9147L99.5781 210.312C99.5781 209.567 99.4098 209.011 99.0731 208.644C98.7467 208.267 98.2876 208.078 97.6959 208.078C97.2777 208.078 96.9002 208.175 96.5636 208.369C96.2371 208.563 95.977 208.853 95.7832 209.241C95.5893 209.618 95.4924 210.088 95.4924 210.649C95.4924 211.23 95.5995 211.71 95.8138 212.087C96.0382 212.465 96.3442 212.75 96.7319 212.944C97.1297 213.138 97.5888 213.235 98.1091 213.235C98.5069 213.235 98.8742 213.179 99.2108 213.067C99.5475 212.954 99.8841 212.801 100.221 212.607L100.818 213.709C100.42 213.964 99.9708 214.178 99.471 214.352C98.9711 214.515 98.4406 214.597 97.8795 214.597ZM106.183 214.597C105.479 214.597 104.805 214.484 104.163 214.26C103.52 214.025 102.964 213.75 102.495 213.434L103.26 212.317C103.709 212.613 104.193 212.847 104.714 213.021C105.234 213.184 105.8 213.265 106.412 213.265C106.932 213.265 107.315 213.179 107.56 213.005C107.815 212.822 107.942 212.607 107.942 212.363C107.942 212.24 107.912 212.128 107.851 212.026C107.8 211.924 107.703 211.832 107.56 211.751C107.417 211.659 107.208 211.572 106.932 211.49C106.657 211.409 106.3 211.322 105.861 211.23C104.862 211.016 104.127 210.725 103.658 210.358C103.188 209.991 102.954 209.527 102.954 208.966C102.954 208.302 103.239 207.762 103.811 207.344C104.392 206.925 105.208 206.716 106.259 206.716C106.881 206.716 107.463 206.818 108.004 207.022C108.554 207.226 109.019 207.456 109.396 207.711L108.585 208.797C108.228 208.552 107.835 208.369 107.407 208.246C106.978 208.114 106.545 208.047 106.106 208.047C105.769 208.047 105.499 208.083 105.295 208.155C105.101 208.226 104.953 208.328 104.851 208.461C104.76 208.583 104.714 208.721 104.714 208.874C104.714 209.139 104.867 209.338 105.173 209.471C105.479 209.603 105.979 209.746 106.672 209.899C107.478 210.072 108.1 210.271 108.539 210.496C108.978 210.71 109.279 210.96 109.442 211.246C109.615 211.521 109.702 211.863 109.702 212.271C109.702 212.699 109.564 213.092 109.289 213.449C109.024 213.796 108.631 214.076 108.111 214.291C107.59 214.495 106.948 214.597 106.183 214.597ZM116.245 214.597C115.48 214.597 114.873 214.464 114.424 214.199C113.976 213.923 113.654 213.546 113.46 213.067C113.267 212.587 113.17 212.031 113.17 211.399V208.292H111.165V206.976L113.246 206.9L113.476 204.543H114.929V206.9H118.357V208.292H114.929V211.383C114.929 211.791 114.986 212.133 115.098 212.409C115.21 212.674 115.394 212.873 115.649 213.005C115.904 213.128 116.24 213.189 116.659 213.189C116.985 213.189 117.281 213.163 117.546 213.112C117.811 213.061 118.066 212.99 118.311 212.898L118.648 214.168C118.311 214.28 117.949 214.377 117.561 214.459C117.174 214.551 116.735 214.597 116.245 214.597ZM119.897 216.739V215.362H127.242V216.739H119.897ZM132.959 214.597C132.173 214.597 131.464 214.444 130.832 214.138C130.209 213.821 129.715 213.373 129.347 212.791C128.99 212.199 128.812 211.49 128.812 210.664C128.812 209.828 129.006 209.119 129.393 208.537C129.791 207.945 130.316 207.497 130.969 207.191C131.622 206.874 132.326 206.716 133.081 206.716C133.693 206.716 134.234 206.818 134.703 207.022C135.172 207.216 135.56 207.466 135.866 207.772L135.024 208.874C134.729 208.639 134.428 208.461 134.122 208.338C133.826 208.216 133.509 208.155 133.173 208.155C132.673 208.155 132.229 208.262 131.842 208.476C131.464 208.68 131.168 208.971 130.954 209.348C130.74 209.726 130.633 210.164 130.633 210.664C130.633 211.164 130.735 211.603 130.939 211.98C131.153 212.358 131.444 212.648 131.811 212.852C132.188 213.056 132.627 213.158 133.127 213.158C133.555 213.158 133.948 213.077 134.305 212.913C134.662 212.75 134.984 212.556 135.269 212.332L136.004 213.464C135.575 213.832 135.096 214.112 134.565 214.306C134.035 214.5 133.499 214.597 132.959 214.597ZM141.001 214.597C140.338 214.597 139.721 214.444 139.15 214.138C138.579 213.821 138.115 213.373 137.757 212.791C137.4 212.199 137.222 211.49 137.222 210.664C137.222 209.828 137.4 209.119 137.757 208.537C138.115 207.945 138.579 207.497 139.15 207.191C139.721 206.874 140.338 206.716 141.001 206.716C141.665 206.716 142.282 206.874 142.853 207.191C143.424 207.497 143.888 207.945 144.246 208.537C144.603 209.119 144.781 209.828 144.781 210.664C144.781 211.49 144.603 212.199 144.246 212.791C143.888 213.373 143.424 213.821 142.853 214.138C142.282 214.444 141.665 214.597 141.001 214.597ZM141.001 213.158C141.41 213.158 141.762 213.056 142.057 212.852C142.353 212.648 142.578 212.358 142.731 211.98C142.884 211.603 142.96 211.164 142.96 210.664C142.96 210.164 142.884 209.726 142.731 209.348C142.578 208.971 142.353 208.68 142.057 208.476C141.762 208.262 141.41 208.155 141.001 208.155C140.593 208.155 140.241 208.262 139.946 208.476C139.66 208.68 139.436 208.971 139.272 209.348C139.119 209.726 139.043 210.164 139.043 210.664C139.043 211.164 139.119 211.603 139.272 211.98C139.436 212.358 139.66 212.648 139.946 212.852C140.241 213.056 140.593 213.158 141.001 213.158ZM148.754 214.413L145.754 206.9H147.53L148.983 210.802C149.116 211.169 149.243 211.541 149.366 211.919C149.498 212.296 149.621 212.679 149.733 213.067H149.794C149.917 212.679 150.039 212.296 150.161 211.919C150.284 211.541 150.411 211.169 150.544 210.802L151.998 206.9H153.681L150.758 214.413H148.754ZM158.893 214.597C158.128 214.597 157.434 214.444 156.812 214.138C156.19 213.821 155.695 213.373 155.328 212.791C154.96 212.199 154.777 211.485 154.777 210.649C154.777 209.833 154.96 209.134 155.328 208.552C155.695 207.961 156.174 207.507 156.766 207.191C157.358 206.874 157.99 206.716 158.663 206.716C159.408 206.716 160.036 206.869 160.546 207.175C161.066 207.481 161.459 207.905 161.724 208.445C161.999 208.976 162.137 209.588 162.137 210.282C162.137 210.455 162.127 210.623 162.106 210.786C162.096 210.94 162.081 211.067 162.06 211.169H156.047V209.914H160.928L160.591 210.312C160.591 209.567 160.423 209.011 160.087 208.644C159.76 208.267 159.301 208.078 158.709 208.078C158.291 208.078 157.914 208.175 157.577 208.369C157.251 208.563 156.99 208.853 156.797 209.241C156.603 209.618 156.506 210.088 156.506 210.649C156.506 211.23 156.613 211.71 156.827 212.087C157.052 212.465 157.358 212.75 157.745 212.944C158.143 213.138 158.602 213.235 159.122 213.235C159.52 213.235 159.888 213.179 160.224 213.067C160.561 212.954 160.898 212.801 161.234 212.607L161.831 213.709C161.433 213.964 160.984 214.178 160.484 214.352C159.985 214.515 159.454 214.597 158.893 214.597ZM164.549 214.413V206.9H166.002L166.155 208.598H166.201C166.579 207.986 167.043 207.522 167.594 207.206C168.155 206.879 168.757 206.716 169.4 206.716C169.706 206.716 169.971 206.742 170.195 206.793C170.42 206.844 170.639 206.92 170.853 207.022L170.486 208.506C170.241 208.425 170.022 208.369 169.828 208.338C169.644 208.297 169.41 208.277 169.124 208.277C168.614 208.277 168.114 208.425 167.624 208.721C167.145 209.017 166.711 209.532 166.324 210.266V214.413H164.549ZM174.872 214.597C174.382 214.597 173.948 214.505 173.571 214.321C173.194 214.127 172.898 213.867 172.683 213.541C172.469 213.214 172.362 212.832 172.362 212.393C172.362 211.557 172.76 210.919 173.556 210.48C174.362 210.032 175.693 209.741 177.55 209.608C177.529 209.333 177.453 209.083 177.32 208.858C177.198 208.634 177.009 208.461 176.754 208.338C176.499 208.206 176.167 208.139 175.759 208.139C175.474 208.139 175.193 208.175 174.918 208.246C174.642 208.318 174.367 208.415 174.091 208.537C173.826 208.66 173.561 208.792 173.296 208.935L172.653 207.757C172.959 207.573 173.296 207.405 173.663 207.252C174.03 207.088 174.418 206.961 174.826 206.869C175.234 206.767 175.652 206.716 176.081 206.716C176.784 206.716 177.371 206.844 177.84 207.099C178.32 207.344 178.682 207.711 178.927 208.2C179.182 208.68 179.309 209.266 179.309 209.96V214.413H177.871L177.733 213.48H177.687C177.289 213.786 176.846 214.051 176.356 214.275C175.877 214.49 175.382 214.597 174.872 214.597ZM175.407 213.22C175.785 213.22 176.147 213.138 176.494 212.975C176.851 212.801 177.203 212.577 177.55 212.301V210.71C176.652 210.771 175.948 210.873 175.438 211.016C174.928 211.149 174.571 211.322 174.367 211.536C174.163 211.751 174.061 211.99 174.061 212.255C174.061 212.48 174.122 212.664 174.244 212.806C174.367 212.949 174.525 213.056 174.719 213.128C174.923 213.189 175.152 213.22 175.407 213.22ZM184.368 217.734C183.675 217.734 183.073 217.657 182.563 217.504C182.053 217.361 181.655 217.142 181.369 216.846C181.083 216.55 180.941 216.178 180.941 215.729C180.941 215.433 181.043 215.148 181.247 214.872C181.451 214.597 181.747 214.357 182.134 214.153V214.092C181.94 213.969 181.762 213.811 181.599 213.617C181.446 213.413 181.369 213.153 181.369 212.837C181.369 212.592 181.451 212.342 181.614 212.087C181.777 211.832 181.996 211.613 182.272 211.429V211.368C182.007 211.174 181.777 210.914 181.583 210.588C181.4 210.251 181.308 209.863 181.308 209.425C181.308 208.843 181.451 208.353 181.736 207.956C182.022 207.548 182.399 207.242 182.869 207.037C183.338 206.823 183.848 206.716 184.399 206.716C184.848 206.716 185.241 206.777 185.577 206.9H188.653V208.246H186.924C187.056 208.389 187.169 208.573 187.26 208.797C187.362 209.011 187.413 209.241 187.413 209.486C187.413 210.037 187.276 210.506 187 210.894C186.735 211.271 186.378 211.557 185.929 211.751C185.48 211.944 184.97 212.041 184.399 212.041C184.225 212.041 184.037 212.026 183.833 211.995C183.639 211.955 183.445 211.898 183.251 211.827C183.098 211.919 182.981 212.021 182.899 212.133C182.828 212.245 182.792 212.378 182.792 212.531C182.792 212.766 182.909 212.944 183.144 213.067C183.389 213.179 183.746 213.235 184.215 213.235H185.745C186.725 213.235 187.459 213.378 187.949 213.663C188.449 213.939 188.699 214.408 188.699 215.071C188.699 215.561 188.52 216.01 188.163 216.418C187.816 216.826 187.316 217.147 186.664 217.382C186.021 217.616 185.256 217.734 184.368 217.734ZM184.399 210.924C184.664 210.924 184.904 210.868 185.118 210.756C185.332 210.633 185.501 210.46 185.623 210.236C185.756 210.011 185.822 209.741 185.822 209.425C185.822 209.119 185.756 208.858 185.623 208.644C185.501 208.42 185.332 208.246 185.118 208.124C184.904 208.002 184.664 207.94 184.399 207.94C184.144 207.94 183.909 208.002 183.695 208.124C183.481 208.246 183.307 208.42 183.175 208.644C183.042 208.858 182.976 209.119 182.976 209.425C182.976 209.741 183.042 210.011 183.175 210.236C183.307 210.46 183.481 210.633 183.695 210.756C183.909 210.868 184.144 210.924 184.399 210.924ZM184.583 216.571C185.072 216.571 185.496 216.515 185.853 216.402C186.22 216.29 186.5 216.142 186.694 215.959C186.898 215.775 187 215.576 187 215.362C187 215.066 186.873 214.867 186.618 214.765C186.373 214.673 185.995 214.627 185.485 214.627H184.292C184.047 214.627 183.833 214.617 183.649 214.597C183.465 214.576 183.297 214.551 183.144 214.52C182.879 214.673 182.69 214.831 182.578 214.995C182.466 215.158 182.41 215.326 182.41 215.5C182.41 215.836 182.598 216.096 182.976 216.28C183.353 216.474 183.889 216.571 184.583 216.571ZM193.758 214.597C192.993 214.597 192.299 214.444 191.677 214.138C191.054 213.821 190.56 213.373 190.192 212.791C189.825 212.199 189.642 211.485 189.642 210.649C189.642 209.833 189.825 209.134 190.192 208.552C190.56 207.961 191.039 207.507 191.631 207.191C192.222 206.874 192.855 206.716 193.528 206.716C194.273 206.716 194.9 206.869 195.41 207.175C195.931 207.481 196.323 207.905 196.589 208.445C196.864 208.976 197.002 209.588 197.002 210.282C197.002 210.455 196.992 210.623 196.971 210.786C196.961 210.94 196.946 211.067 196.925 211.169H190.912V209.914H195.793L195.456 210.312C195.456 209.567 195.288 209.011 194.951 208.644C194.625 208.267 194.166 208.078 193.574 208.078C193.156 208.078 192.778 208.175 192.442 208.369C192.115 208.563 191.855 208.853 191.661 209.241C191.468 209.618 191.371 210.088 191.371 210.649C191.371 211.23 191.478 211.71 191.692 212.087C191.916 212.465 192.222 212.75 192.61 212.944C193.008 213.138 193.467 213.235 193.987 213.235C194.385 213.235 194.752 213.179 195.089 213.067C195.426 212.954 195.762 212.801 196.099 212.607L196.696 213.709C196.298 213.964 195.849 214.178 195.349 214.352C194.849 214.515 194.319 214.597 193.758 214.597ZM199.551 209.409L199.092 205.875L199.046 203.916H201.189L201.143 205.875L200.684 209.409H199.551ZM203.346 209.409L202.887 205.875L202.841 203.916H204.984L204.938 205.875L204.479 209.409H203.346ZM210.731 209.394C210.303 209.394 209.941 209.246 209.645 208.95C209.359 208.654 209.216 208.287 209.216 207.848C209.216 207.4 209.359 207.032 209.645 206.747C209.941 206.451 210.303 206.303 210.731 206.303C211.17 206.303 211.532 206.451 211.818 206.747C212.103 207.032 212.246 207.4 212.246 207.848C212.246 208.287 212.103 208.654 211.818 208.95C211.532 209.246 211.17 209.394 210.731 209.394ZM210.731 214.597C210.303 214.597 209.941 214.449 209.645 214.153C209.359 213.857 209.216 213.49 209.216 213.051C209.216 212.602 209.359 212.235 209.645 211.949C209.941 211.654 210.303 211.506 210.731 211.506C211.17 211.506 211.532 211.654 211.818 211.949C212.103 212.235 212.246 212.602 212.246 213.051C212.246 213.49 212.103 213.857 211.818 214.153C211.532 214.449 211.17 214.597 210.731 214.597Z" fill="#D09A66"/>
<rect x="229.606" y="204.413" width="96" height="10" fill="#B8E9FF" fill-opacity="0.6"/>
<path d="M77.5244 230.409L77.0654 226.875L77.0195 224.916H79.1618L79.1159 226.875L78.6568 230.409H77.5244ZM81.3194 230.409L80.8603 226.875L80.8144 224.916H82.9567L82.9108 226.875L82.4517 230.409H81.3194ZM88.7502 235.597C88.0463 235.597 87.373 235.484 86.7303 235.26C86.0876 235.025 85.5317 234.75 85.0624 234.434L85.8275 233.317C86.2764 233.613 86.7609 233.847 87.2812 234.021C87.8015 234.184 88.3676 234.265 88.9797 234.265C89.5 234.265 89.8825 234.179 90.1274 234.005C90.3824 233.822 90.5099 233.607 90.5099 233.363C90.5099 233.24 90.4793 233.128 90.4181 233.026C90.3671 232.924 90.2702 232.832 90.1274 232.751C89.9846 232.659 89.7754 232.572 89.5 232.49C89.2246 232.409 88.8675 232.322 88.4288 232.23C87.4291 232.016 86.6946 231.725 86.2253 231.358C85.7561 230.991 85.5215 230.527 85.5215 229.966C85.5215 229.302 85.8071 228.762 86.3784 228.344C86.9598 227.925 87.776 227.716 88.8267 227.716C89.449 227.716 90.0305 227.818 90.5711 228.022C91.122 228.226 91.5862 228.456 91.9636 228.711L91.1526 229.797C90.7956 229.552 90.4028 229.369 89.9744 229.246C89.5459 229.114 89.1123 229.047 88.6737 229.047C88.337 229.047 88.0667 229.083 87.8627 229.155C87.6688 229.226 87.5209 229.328 87.4189 229.461C87.3271 229.583 87.2812 229.721 87.2812 229.874C87.2812 230.139 87.4342 230.338 87.7403 230.471C88.0463 230.603 88.5462 230.746 89.2399 230.899C90.0458 231.072 90.668 231.271 91.1067 231.496C91.5454 231.71 91.8463 231.96 92.0095 232.246C92.183 232.521 92.2697 232.863 92.2697 233.271C92.2697 233.699 92.1319 234.092 91.8565 234.449C91.5913 234.796 91.1985 235.076 90.6783 235.291C90.158 235.495 89.5153 235.597 88.7502 235.597ZM97.8642 235.597C97.5072 235.597 97.1348 235.51 96.7472 235.337C96.3697 235.163 96.0127 234.913 95.676 234.587H95.6301L95.4771 235.413H94.0846V224.61H95.8597V227.395L95.7832 228.711H95.8291C96.1453 228.405 96.5024 228.165 96.9002 227.992C97.3083 227.808 97.7163 227.716 98.1244 227.716C98.7773 227.716 99.3281 227.874 99.777 228.191C100.236 228.507 100.588 228.951 100.833 229.522C101.078 230.083 101.2 230.751 101.2 231.526C101.2 232.383 101.042 233.118 100.726 233.73C100.409 234.332 99.9963 234.796 99.4863 235.122C98.9864 235.439 98.4457 235.597 97.8642 235.597ZM97.5123 234.143C97.8591 234.143 98.1754 234.046 98.461 233.852C98.7467 233.658 98.9711 233.373 99.1343 232.995C99.2975 232.608 99.3792 232.128 99.3792 231.557C99.3792 231.057 99.3179 230.629 99.1955 230.272C99.0731 229.915 98.8844 229.644 98.6293 229.461C98.3845 229.267 98.053 229.17 97.6347 229.17C97.3491 229.17 97.0583 229.241 96.7625 229.384C96.4667 229.527 96.1657 229.756 95.8597 230.073V233.454C96.1351 233.699 96.4208 233.878 96.7166 233.99C97.0124 234.092 97.2777 234.143 97.5123 234.143ZM106.137 235.597C105.474 235.597 104.856 235.444 104.285 235.138C103.714 234.821 103.25 234.373 102.893 233.791C102.536 233.199 102.357 232.49 102.357 231.664C102.357 230.828 102.536 230.119 102.893 229.537C103.25 228.945 103.714 228.497 104.285 228.191C104.856 227.874 105.474 227.716 106.137 227.716C106.8 227.716 107.417 227.874 107.988 228.191C108.56 228.497 109.024 228.945 109.381 229.537C109.738 230.119 109.916 230.828 109.916 231.664C109.916 232.49 109.738 233.199 109.381 233.791C109.024 234.373 108.56 234.821 107.988 235.138C107.417 235.444 106.8 235.597 106.137 235.597ZM106.137 234.158C106.545 234.158 106.897 234.056 107.193 233.852C107.488 233.648 107.713 233.358 107.866 232.98C108.019 232.603 108.095 232.164 108.095 231.664C108.095 231.164 108.019 230.726 107.866 230.348C107.713 229.971 107.488 229.68 107.193 229.476C106.897 229.262 106.545 229.155 106.137 229.155C105.729 229.155 105.377 229.262 105.081 229.476C104.795 229.68 104.571 229.971 104.408 230.348C104.255 230.726 104.178 231.164 104.178 231.664C104.178 232.164 104.255 232.603 104.408 232.98C104.571 233.358 104.795 233.648 105.081 233.852C105.377 234.056 105.729 234.158 106.137 234.158ZM110.966 235.413V227.9H112.328L112.466 228.848H112.512C112.675 228.522 112.884 228.252 113.139 228.037C113.394 227.823 113.741 227.716 114.18 227.716C114.526 227.716 114.817 227.823 115.052 228.037C115.286 228.242 115.45 228.553 115.541 228.971C115.715 228.604 115.934 228.303 116.199 228.068C116.465 227.833 116.817 227.716 117.255 227.716C117.786 227.716 118.194 227.925 118.479 228.344C118.775 228.752 118.923 229.333 118.923 230.088V235.413H117.225V230.21C117.225 229.547 117.026 229.216 116.628 229.216C116.424 229.216 116.25 229.292 116.108 229.445C115.975 229.598 115.832 229.838 115.679 230.164V235.413H114.21V230.21C114.21 229.884 114.164 229.639 114.072 229.476C113.981 229.302 113.828 229.216 113.613 229.216C113.42 229.216 113.251 229.292 113.108 229.445C112.966 229.598 112.823 229.838 112.68 230.164V235.413H110.966ZM121.105 230.409L120.646 226.875L120.6 224.916H122.743L122.697 226.875L122.238 230.409H121.105ZM124.9 230.409L124.441 226.875L124.395 224.916H126.538L126.492 226.875L126.033 230.409H124.9ZM132.285 230.394C131.857 230.394 131.495 230.246 131.199 229.95C130.913 229.654 130.77 229.287 130.77 228.848C130.77 228.4 130.913 228.032 131.199 227.747C131.495 227.451 131.857 227.303 132.285 227.303C132.724 227.303 133.086 227.451 133.372 227.747C133.657 228.032 133.8 228.4 133.8 228.848C133.8 229.287 133.657 229.654 133.372 229.95C133.086 230.246 132.724 230.394 132.285 230.394ZM132.285 235.597C131.857 235.597 131.495 235.449 131.199 235.153C130.913 234.857 130.77 234.49 130.77 234.051C130.77 233.602 130.913 233.235 131.199 232.949C131.495 232.654 131.857 232.506 132.285 232.506C132.724 232.506 133.086 232.654 133.372 232.949C133.657 233.235 133.8 233.602 133.8 234.051C133.8 234.49 133.657 234.857 133.372 235.153C133.086 235.449 132.724 235.597 132.285 235.597Z" fill="#D09A66"/>
<rect x="151.606" y="225.413" width="174" height="10" fill="#B8E9FF" fill-opacity="0.6"/>
<path d="M77.5244 251.409L77.0654 247.875L77.0195 245.916H79.1618L79.1159 247.875L78.6568 251.409H77.5244ZM81.3194 251.409L80.8603 247.875L80.8144 245.916H82.9567L82.9108 247.875L82.4517 251.409H81.3194ZM87.7403 256.413L84.741 248.9H86.5161L87.9698 252.802C88.1024 253.169 88.2299 253.541 88.3523 253.919C88.485 254.296 88.6074 254.679 88.7196 255.067H88.7808C88.9032 254.679 89.0256 254.296 89.148 253.919C89.2705 253.541 89.398 253.169 89.5306 252.802L90.9843 248.9H92.6675L89.7448 256.413H87.7403ZM96.4105 256.597C95.5332 256.597 94.8956 256.331 94.4978 255.801C94.0999 255.271 93.901 254.521 93.901 253.552V248.9H95.6607V253.322C95.6607 253.924 95.7628 254.368 95.9668 254.653C96.181 254.939 96.5483 255.082 97.0685 255.082C97.4154 255.082 97.7316 255 98.0173 254.837C98.3131 254.664 98.6242 254.373 98.9507 253.965V248.9H100.71V256.413H99.272L99.1343 255.22H99.0731C98.7161 255.628 98.3233 255.959 97.8949 256.214C97.4664 256.469 96.9716 256.597 96.4105 256.597ZM107.667 256.597C106.8 256.597 106.137 256.342 105.678 255.832C105.229 255.311 105.004 254.592 105.004 253.674V247.002H102.556V245.61H106.764V253.766C106.764 254.276 106.892 254.638 107.147 254.852C107.412 255.056 107.733 255.158 108.111 255.158C108.304 255.158 108.503 255.138 108.707 255.097C108.911 255.046 109.141 254.97 109.396 254.868L109.809 256.168C109.452 256.291 109.115 256.393 108.799 256.474C108.493 256.556 108.116 256.597 107.667 256.597ZM111.517 256.413V248.9H112.971L113.108 250.032H113.17C113.527 249.665 113.919 249.354 114.348 249.099C114.787 248.844 115.297 248.716 115.878 248.716C116.745 248.716 117.383 248.981 117.791 249.512C118.199 250.042 118.403 250.792 118.403 251.761V256.413H116.628V251.991C116.628 251.389 116.521 250.945 116.307 250.66C116.092 250.374 115.73 250.231 115.22 250.231C114.853 250.231 114.526 250.318 114.241 250.491C113.955 250.665 113.639 250.93 113.292 251.287V256.413H111.517ZM124.028 256.597C123.263 256.597 122.569 256.444 121.947 256.138C121.325 255.821 120.83 255.373 120.463 254.791C120.096 254.199 119.912 253.485 119.912 252.649C119.912 251.833 120.096 251.134 120.463 250.552C120.83 249.961 121.309 249.507 121.901 249.191C122.493 248.874 123.125 248.716 123.799 248.716C124.543 248.716 125.171 248.869 125.681 249.175C126.201 249.481 126.594 249.905 126.859 250.445C127.134 250.976 127.272 251.588 127.272 252.282C127.272 252.455 127.262 252.623 127.242 252.786C127.231 252.94 127.216 253.067 127.196 253.169H121.182V251.914H126.063L125.727 252.312C125.727 251.567 125.558 251.011 125.222 250.644C124.895 250.267 124.436 250.078 123.845 250.078C123.426 250.078 123.049 250.175 122.712 250.369C122.386 250.563 122.126 250.853 121.932 251.241C121.738 251.618 121.641 252.088 121.641 252.649C121.641 253.23 121.748 253.71 121.962 254.087C122.187 254.465 122.493 254.75 122.881 254.944C123.278 255.138 123.737 255.235 124.258 255.235C124.656 255.235 125.023 255.179 125.359 255.067C125.696 254.954 126.033 254.801 126.369 254.607L126.966 255.709C126.568 255.964 126.119 256.178 125.62 256.352C125.12 256.515 124.589 256.597 124.028 256.597ZM129.684 256.413V248.9H131.138L131.291 250.598H131.337C131.714 249.986 132.178 249.522 132.729 249.206C133.29 248.879 133.892 248.716 134.535 248.716C134.841 248.716 135.106 248.742 135.33 248.793C135.555 248.844 135.774 248.92 135.988 249.022L135.621 250.506C135.376 250.425 135.157 250.369 134.963 250.338C134.78 250.297 134.545 250.277 134.259 250.277C133.749 250.277 133.249 250.425 132.76 250.721C132.28 251.017 131.847 251.532 131.459 252.266V256.413H129.684ZM140.007 256.597C139.517 256.597 139.084 256.505 138.706 256.321C138.329 256.127 138.033 255.867 137.819 255.541C137.604 255.214 137.497 254.832 137.497 254.393C137.497 253.557 137.895 252.919 138.691 252.48C139.497 252.032 140.828 251.741 142.685 251.608C142.664 251.333 142.588 251.083 142.455 250.858C142.333 250.634 142.144 250.461 141.889 250.338C141.634 250.206 141.302 250.139 140.894 250.139C140.609 250.139 140.328 250.175 140.053 250.246C139.777 250.318 139.502 250.415 139.226 250.537C138.961 250.66 138.696 250.792 138.431 250.935L137.788 249.757C138.094 249.573 138.431 249.405 138.798 249.252C139.165 249.088 139.553 248.961 139.961 248.869C140.369 248.767 140.787 248.716 141.216 248.716C141.92 248.716 142.506 248.844 142.975 249.099C143.455 249.344 143.817 249.711 144.062 250.2C144.317 250.68 144.444 251.266 144.444 251.96V256.413H143.006L142.868 255.48H142.822C142.425 255.786 141.981 256.051 141.491 256.275C141.012 256.49 140.517 256.597 140.007 256.597ZM140.542 255.22C140.92 255.22 141.282 255.138 141.629 254.975C141.986 254.801 142.338 254.577 142.685 254.301V252.71C141.787 252.771 141.083 252.873 140.573 253.016C140.063 253.149 139.706 253.322 139.502 253.536C139.298 253.751 139.196 253.99 139.196 254.255C139.196 254.48 139.257 254.664 139.379 254.806C139.502 254.949 139.66 255.056 139.854 255.128C140.058 255.189 140.287 255.22 140.542 255.22ZM150.161 256.597C149.804 256.597 149.432 256.51 149.044 256.337C148.667 256.163 148.31 255.913 147.973 255.587H147.927L147.774 256.413H146.382V245.61H148.157V248.395L148.08 249.711H148.126C148.443 249.405 148.8 249.165 149.197 248.992C149.605 248.808 150.014 248.716 150.422 248.716C151.074 248.716 151.625 248.874 152.074 249.191C152.533 249.507 152.885 249.951 153.13 250.522C153.375 251.083 153.497 251.751 153.497 252.526C153.497 253.383 153.339 254.118 153.023 254.73C152.707 255.332 152.294 255.796 151.783 256.122C151.284 256.439 150.743 256.597 150.161 256.597ZM149.81 255.143C150.156 255.143 150.473 255.046 150.758 254.852C151.044 254.658 151.268 254.373 151.432 253.995C151.595 253.608 151.676 253.128 151.676 252.557C151.676 252.057 151.615 251.629 151.493 251.272C151.37 250.915 151.182 250.644 150.927 250.461C150.682 250.267 150.35 250.17 149.932 250.17C149.646 250.17 149.356 250.241 149.06 250.384C148.764 250.527 148.463 250.756 148.157 251.073V254.454C148.432 254.699 148.718 254.878 149.014 254.99C149.31 255.092 149.575 255.143 149.81 255.143ZM158.388 256.413V250.292H155.129V248.9H160.148V256.413H158.388ZM159.138 247.523C158.781 247.523 158.48 247.415 158.235 247.201C158 246.987 157.883 246.701 157.883 246.344C157.883 245.987 158 245.702 158.235 245.487C158.48 245.263 158.781 245.151 159.138 245.151C159.505 245.151 159.806 245.263 160.041 245.487C160.275 245.702 160.393 245.987 160.393 246.344C160.393 246.701 160.275 246.987 160.041 247.201C159.806 247.415 159.505 247.523 159.138 247.523ZM168.68 256.597C167.813 256.597 167.15 256.342 166.691 255.832C166.242 255.311 166.018 254.592 166.018 253.674V247.002H163.569V245.61H167.777V253.766C167.777 254.276 167.905 254.638 168.16 254.852C168.425 255.056 168.747 255.158 169.124 255.158C169.318 255.158 169.517 255.138 169.721 255.097C169.925 255.046 170.154 254.97 170.409 254.868L170.823 256.168C170.466 256.291 170.129 256.393 169.813 256.474C169.507 256.556 169.129 256.597 168.68 256.597ZM175.82 256.413V250.292H172.561V248.9H177.58V256.413H175.82ZM176.57 247.523C176.213 247.523 175.912 247.415 175.667 247.201C175.433 246.987 175.315 246.701 175.315 246.344C175.315 245.987 175.433 245.702 175.667 245.487C175.912 245.263 176.213 245.151 176.57 245.151C176.937 245.151 177.238 245.263 177.473 245.487C177.708 245.702 177.825 245.987 177.825 246.344C177.825 246.701 177.708 246.987 177.473 247.201C177.238 247.415 176.937 247.523 176.57 247.523ZM185.975 256.597C185.21 256.597 184.603 256.464 184.154 256.199C183.705 255.923 183.384 255.546 183.19 255.067C182.996 254.587 182.899 254.031 182.899 253.399V250.292H180.895V248.976L182.976 248.9L183.205 246.543H184.659V248.9H188.087V250.292H184.659V253.383C184.659 253.791 184.715 254.133 184.827 254.409C184.94 254.674 185.123 254.873 185.378 255.005C185.633 255.128 185.97 255.189 186.388 255.189C186.715 255.189 187.01 255.163 187.276 255.112C187.541 255.061 187.796 254.99 188.041 254.898L188.377 256.168C188.041 256.28 187.679 256.377 187.291 256.459C186.903 256.551 186.465 256.597 185.975 256.597ZM193.253 256.413V250.292H189.993V248.9H195.013V256.413H193.253ZM194.003 247.523C193.646 247.523 193.345 247.415 193.1 247.201C192.865 246.987 192.748 246.701 192.748 246.344C192.748 245.987 192.865 245.702 193.1 245.487C193.345 245.263 193.646 245.151 194.003 245.151C194.37 245.151 194.671 245.263 194.905 245.487C195.14 245.702 195.257 245.987 195.257 246.344C195.257 246.701 195.14 246.987 194.905 247.201C194.671 247.415 194.37 247.523 194.003 247.523ZM202.474 256.597C201.709 256.597 201.015 256.444 200.393 256.138C199.771 255.821 199.276 255.373 198.909 254.791C198.541 254.199 198.358 253.485 198.358 252.649C198.358 251.833 198.541 251.134 198.909 250.552C199.276 249.961 199.755 249.507 200.347 249.191C200.939 248.874 201.571 248.716 202.244 248.716C202.989 248.716 203.617 248.869 204.127 249.175C204.647 249.481 205.04 249.905 205.305 250.445C205.58 250.976 205.718 251.588 205.718 252.282C205.718 252.455 205.708 252.623 205.687 252.786C205.677 252.94 205.662 253.067 205.642 253.169H199.628V251.914H204.509L204.173 252.312C204.173 251.567 204.004 251.011 203.668 250.644C203.341 250.267 202.882 250.078 202.29 250.078C201.872 250.078 201.495 250.175 201.158 250.369C200.832 250.563 200.571 250.853 200.378 251.241C200.184 251.618 200.087 252.088 200.087 252.649C200.087 253.23 200.194 253.71 200.408 254.087C200.633 254.465 200.939 254.75 201.326 254.944C201.724 255.138 202.183 255.235 202.704 255.235C203.101 255.235 203.469 255.179 203.805 255.067C204.142 254.954 204.479 254.801 204.815 254.607L205.412 255.709C205.014 255.964 204.565 256.178 204.065 256.352C203.566 256.515 203.035 256.597 202.474 256.597ZM210.777 256.597C210.073 256.597 209.4 256.484 208.757 256.26C208.114 256.025 207.558 255.75 207.089 255.434L207.854 254.317C208.303 254.613 208.788 254.847 209.308 255.021C209.828 255.184 210.394 255.265 211.007 255.265C211.527 255.265 211.909 255.179 212.154 255.005C212.409 254.822 212.537 254.607 212.537 254.363C212.537 254.24 212.506 254.128 212.445 254.026C212.394 253.924 212.297 253.832 212.154 253.751C212.011 253.659 211.802 253.572 211.527 253.49C211.251 253.409 210.894 253.322 210.456 253.23C209.456 253.016 208.721 252.725 208.252 252.358C207.783 251.991 207.548 251.527 207.548 250.966C207.548 250.302 207.834 249.762 208.405 249.344C208.987 248.925 209.803 248.716 210.854 248.716C211.476 248.716 212.057 248.818 212.598 249.022C213.149 249.226 213.613 249.456 213.99 249.711L213.179 250.797C212.822 250.552 212.43 250.369 212.001 250.246C211.573 250.114 211.139 250.047 210.701 250.047C210.364 250.047 210.094 250.083 209.889 250.155C209.696 250.226 209.548 250.328 209.446 250.461C209.354 250.583 209.308 250.721 209.308 250.874C209.308 251.139 209.461 251.338 209.767 251.471C210.073 251.603 210.573 251.746 211.267 251.899C212.073 252.072 212.695 252.271 213.134 252.496C213.572 252.71 213.873 252.96 214.036 253.246C214.21 253.521 214.296 253.863 214.296 254.271C214.296 254.699 214.159 255.092 213.883 255.449C213.618 255.796 213.225 256.076 212.705 256.291C212.185 256.495 211.542 256.597 210.777 256.597ZM216.984 251.409L216.525 247.875L216.479 245.916H218.621L218.575 247.875L218.116 251.409H216.984ZM220.779 251.409L220.32 247.875L220.274 245.916H222.416L222.37 247.875L221.911 251.409H220.779ZM228.164 251.394C227.735 251.394 227.373 251.246 227.077 250.95C226.791 250.654 226.649 250.287 226.649 249.848C226.649 249.4 226.791 249.032 227.077 248.747C227.373 248.451 227.735 248.303 228.164 248.303C228.602 248.303 228.964 248.451 229.25 248.747C229.536 249.032 229.678 249.4 229.678 249.848C229.678 250.287 229.536 250.654 229.25 250.95C228.964 251.246 228.602 251.394 228.164 251.394ZM228.164 256.597C227.735 256.597 227.373 256.449 227.077 256.153C226.791 255.857 226.649 255.49 226.649 255.051C226.649 254.602 226.791 254.235 227.077 253.949C227.373 253.654 227.735 253.506 228.164 253.506C228.602 253.506 228.964 253.654 229.25 253.949C229.536 254.235 229.678 254.602 229.678 255.051C229.678 255.49 229.536 255.857 229.25 256.153C228.964 256.449 228.602 256.597 228.164 256.597Z" fill="#D09A66"/>
<rect x="247.606" y="246.413" width="78" height="10" fill="#B8E9FF" fill-opacity="0.6"/>
<path d="M77.5244 272.409L77.0654 268.875L77.0195 266.916H79.1618L79.1159 268.875L78.6568 272.409H77.5244ZM81.3194 272.409L80.8603 268.875L80.8144 266.916H82.9567L82.9108 268.875L82.4517 272.409H81.3194ZM89.3776 277.597C88.5921 277.597 87.8831 277.444 87.2506 277.138C86.6283 276.821 86.1335 276.373 85.7663 275.791C85.4092 275.199 85.2307 274.49 85.2307 273.664C85.2307 272.828 85.4245 272.119 85.8122 271.537C86.21 270.945 86.7354 270.497 87.3883 270.191C88.0412 269.874 88.7451 269.716 89.5 269.716C90.1121 269.716 90.6527 269.818 91.122 270.022C91.5913 270.216 91.9789 270.466 92.285 270.772L91.4434 271.874C91.1475 271.639 90.8466 271.461 90.5405 271.338C90.2447 271.216 89.9284 271.155 89.5918 271.155C89.0919 271.155 88.6482 271.262 88.2605 271.476C87.8831 271.68 87.5872 271.971 87.373 272.348C87.1588 272.726 87.0517 273.164 87.0517 273.664C87.0517 274.164 87.1537 274.603 87.3577 274.98C87.5719 275.358 87.8627 275.648 88.2299 275.852C88.6074 276.056 89.046 276.158 89.5459 276.158C89.9744 276.158 90.3671 276.077 90.7242 275.913C91.0812 275.75 91.4025 275.556 91.6882 275.332L92.4227 276.464C91.9942 276.832 91.5148 277.112 90.9843 277.306C90.4538 277.5 89.9182 277.597 89.3776 277.597ZM97.4205 277.597C96.7574 277.597 96.1402 277.444 95.5689 277.138C94.9977 276.821 94.5335 276.373 94.1764 275.791C93.8194 275.199 93.6409 274.49 93.6409 273.664C93.6409 272.828 93.8194 272.119 94.1764 271.537C94.5335 270.945 94.9977 270.497 95.5689 270.191C96.1402 269.874 96.7574 269.716 97.4205 269.716C98.0836 269.716 98.7008 269.874 99.272 270.191C99.8433 270.497 100.307 270.945 100.665 271.537C101.022 272.119 101.2 272.828 101.2 273.664C101.2 274.49 101.022 275.199 100.665 275.791C100.307 276.373 99.8433 276.821 99.272 277.138C98.7008 277.444 98.0836 277.597 97.4205 277.597ZM97.4205 276.158C97.8285 276.158 98.1805 276.056 98.4763 275.852C98.7722 275.648 98.9966 275.358 99.1496 274.98C99.3026 274.603 99.3792 274.164 99.3792 273.664C99.3792 273.164 99.3026 272.726 99.1496 272.348C98.9966 271.971 98.7722 271.68 98.4763 271.476C98.1805 271.262 97.8285 271.155 97.4205 271.155C97.0124 271.155 96.6605 271.262 96.3646 271.476C96.079 271.68 95.8546 271.971 95.6914 272.348C95.5383 272.726 95.4618 273.164 95.4618 273.664C95.4618 274.164 95.5383 274.603 95.6914 274.98C95.8546 275.358 96.079 275.648 96.3646 275.852C96.6605 276.056 97.0124 276.158 97.4205 276.158ZM105.571 277.597C104.612 277.597 103.836 277.25 103.245 276.556C102.653 275.862 102.357 274.898 102.357 273.664C102.357 272.848 102.515 272.144 102.831 271.552C103.148 270.961 103.561 270.507 104.071 270.191C104.581 269.874 105.117 269.716 105.678 269.716C106.106 269.716 106.484 269.793 106.81 269.946C107.147 270.099 107.458 270.318 107.743 270.604H107.789L107.698 269.334V266.61H109.473V277.413H108.019L107.881 276.541H107.835C107.55 276.827 107.208 277.076 106.81 277.291C106.412 277.495 105.999 277.597 105.571 277.597ZM105.999 276.143C106.305 276.143 106.601 276.072 106.886 275.929C107.172 275.776 107.442 275.546 107.698 275.24V271.858C107.432 271.603 107.167 271.425 106.902 271.323C106.637 271.221 106.366 271.17 106.091 271.17C105.744 271.17 105.423 271.267 105.127 271.461C104.841 271.654 104.612 271.935 104.438 272.302C104.265 272.669 104.178 273.118 104.178 273.649C104.178 274.455 104.336 275.072 104.652 275.5C104.979 275.929 105.428 276.143 105.999 276.143ZM115.312 277.597C114.547 277.597 113.853 277.444 113.231 277.138C112.609 276.821 112.114 276.373 111.747 275.791C111.379 275.199 111.196 274.485 111.196 273.649C111.196 272.833 111.379 272.134 111.747 271.552C112.114 270.961 112.593 270.507 113.185 270.191C113.777 269.874 114.409 269.716 115.082 269.716C115.827 269.716 116.455 269.869 116.965 270.175C117.485 270.481 117.878 270.905 118.143 271.445C118.418 271.976 118.556 272.588 118.556 273.282C118.556 273.455 118.546 273.623 118.525 273.786C118.515 273.94 118.5 274.067 118.479 274.169H112.466V272.914H117.347L117.01 273.312C117.01 272.567 116.842 272.011 116.506 271.644C116.179 271.267 115.72 271.078 115.128 271.078C114.71 271.078 114.333 271.175 113.996 271.369C113.67 271.563 113.409 271.853 113.216 272.241C113.022 272.618 112.925 273.088 112.925 273.649C112.925 274.23 113.032 274.71 113.246 275.087C113.471 275.465 113.777 275.75 114.164 275.944C114.562 276.138 115.021 276.235 115.541 276.235C115.939 276.235 116.307 276.179 116.643 276.067C116.98 275.954 117.317 275.801 117.653 275.607L118.25 276.709C117.852 276.964 117.403 277.178 116.903 277.352C116.403 277.515 115.873 277.597 115.312 277.597ZM123.569 277.597C122.906 277.597 122.289 277.444 121.718 277.138C121.146 276.821 120.682 276.373 120.325 275.791C119.968 275.199 119.789 274.49 119.789 273.664C119.789 272.828 119.968 272.119 120.325 271.537C120.682 270.945 121.146 270.497 121.718 270.191C122.289 269.874 122.906 269.716 123.569 269.716C124.232 269.716 124.849 269.874 125.421 270.191C125.992 270.497 126.456 270.945 126.813 271.537C127.17 272.119 127.349 272.828 127.349 273.664C127.349 274.49 127.17 275.199 126.813 275.791C126.456 276.373 125.992 276.821 125.421 277.138C124.849 277.444 124.232 277.597 123.569 277.597ZM123.569 276.158C123.977 276.158 124.329 276.056 124.625 275.852C124.921 275.648 125.145 275.358 125.298 274.98C125.451 274.603 125.528 274.164 125.528 273.664C125.528 273.164 125.451 272.726 125.298 272.348C125.145 271.971 124.921 271.68 124.625 271.476C124.329 271.262 123.977 271.155 123.569 271.155C123.161 271.155 122.809 271.262 122.513 271.476C122.228 271.68 122.003 271.971 121.84 272.348C121.687 272.726 121.61 273.164 121.61 273.664C121.61 274.164 121.687 274.603 121.84 274.98C122.003 275.358 122.228 275.648 122.513 275.852C122.809 276.056 123.161 276.158 123.569 276.158ZM129.21 277.413L127.786 269.9H129.516L130.189 273.802C130.25 274.169 130.301 274.531 130.342 274.888C130.393 275.235 130.439 275.592 130.48 275.959H130.526C130.577 275.592 130.633 275.23 130.694 274.873C130.765 274.516 130.842 274.159 130.923 273.802L131.612 270.634H133.066L133.739 273.802C133.821 274.169 133.897 274.531 133.969 274.888C134.05 275.235 134.116 275.592 134.167 275.959H134.229C134.28 275.592 134.32 275.235 134.351 274.888C134.392 274.531 134.443 274.169 134.504 273.802L135.147 269.9H136.784L135.407 277.413H133.265L132.637 274.414C132.586 274.118 132.53 273.786 132.469 273.419C132.418 273.052 132.367 272.644 132.316 272.195H132.255C132.204 272.583 132.153 272.955 132.102 273.312C132.061 273.669 132.01 274.036 131.949 274.414L131.337 277.413H129.21ZM137.666 277.413V269.9H139.119L139.257 271.032H139.318C139.675 270.665 140.068 270.354 140.497 270.099C140.935 269.844 141.445 269.716 142.027 269.716C142.894 269.716 143.531 269.981 143.939 270.512C144.348 271.042 144.552 271.792 144.552 272.761V277.413H142.777V272.991C142.777 272.389 142.669 271.945 142.455 271.66C142.241 271.374 141.879 271.231 141.369 271.231C141.001 271.231 140.675 271.318 140.389 271.491C140.104 271.665 139.788 271.93 139.441 272.287V277.413H137.666ZM150.177 277.597C149.412 277.597 148.718 277.444 148.096 277.138C147.473 276.821 146.979 276.373 146.611 275.791C146.244 275.199 146.061 274.485 146.061 273.649C146.061 272.833 146.244 272.134 146.611 271.552C146.979 270.961 147.458 270.507 148.05 270.191C148.641 269.874 149.274 269.716 149.947 269.716C150.692 269.716 151.319 269.869 151.829 270.175C152.35 270.481 152.742 270.905 153.008 271.445C153.283 271.976 153.421 272.588 153.421 273.282C153.421 273.455 153.411 273.623 153.39 273.786C153.38 273.94 153.365 274.067 153.344 274.169H147.331V272.914H152.212L151.875 273.312C151.875 272.567 151.707 272.011 151.37 271.644C151.044 271.267 150.585 271.078 149.993 271.078C149.575 271.078 149.197 271.175 148.861 271.369C148.534 271.563 148.274 271.853 148.08 272.241C147.887 272.618 147.79 273.088 147.79 273.649C147.79 274.23 147.897 274.71 148.111 275.087C148.335 275.465 148.641 275.75 149.029 275.944C149.427 276.138 149.886 276.235 150.406 276.235C150.804 276.235 151.171 276.179 151.508 276.067C151.845 275.954 152.181 275.801 152.518 275.607L153.115 276.709C152.717 276.964 152.268 277.178 151.768 277.352C151.268 277.515 150.738 277.597 150.177 277.597ZM155.833 277.413V269.9H157.286L157.439 271.598H157.485C157.863 270.986 158.327 270.522 158.878 270.206C159.439 269.879 160.041 269.716 160.683 269.716C160.989 269.716 161.255 269.742 161.479 269.793C161.703 269.844 161.923 269.92 162.137 270.022L161.77 271.506C161.525 271.425 161.306 271.369 161.112 271.338C160.928 271.297 160.694 271.277 160.408 271.277C159.898 271.277 159.398 271.425 158.908 271.721C158.429 272.017 157.995 272.532 157.608 273.266V277.413H155.833ZM167.196 277.597C166.492 277.597 165.819 277.484 165.176 277.26C164.533 277.025 163.977 276.75 163.508 276.434L164.273 275.317C164.722 275.613 165.207 275.847 165.727 276.021C166.247 276.184 166.813 276.265 167.426 276.265C167.946 276.265 168.328 276.179 168.573 276.005C168.828 275.822 168.956 275.607 168.956 275.363C168.956 275.24 168.925 275.128 168.864 275.026C168.813 274.924 168.716 274.832 168.573 274.751C168.43 274.659 168.221 274.572 167.946 274.49C167.67 274.409 167.313 274.322 166.875 274.23C165.875 274.016 165.14 273.725 164.671 273.358C164.202 272.991 163.967 272.527 163.967 271.966C163.967 271.302 164.253 270.762 164.824 270.344C165.406 269.925 166.222 269.716 167.273 269.716C167.895 269.716 168.476 269.818 169.017 270.022C169.568 270.226 170.032 270.456 170.409 270.711L169.598 271.797C169.241 271.552 168.849 271.369 168.42 271.246C167.992 271.114 167.558 271.047 167.12 271.047C166.783 271.047 166.513 271.083 166.308 271.155C166.115 271.226 165.967 271.328 165.865 271.461C165.773 271.583 165.727 271.721 165.727 271.874C165.727 272.139 165.88 272.338 166.186 272.471C166.492 272.603 166.992 272.746 167.686 272.899C168.492 273.072 169.114 273.271 169.553 273.496C169.991 273.71 170.292 273.96 170.455 274.246C170.629 274.521 170.715 274.863 170.715 275.271C170.715 275.699 170.578 276.092 170.302 276.449C170.037 276.796 169.644 277.076 169.124 277.291C168.604 277.495 167.961 277.597 167.196 277.597ZM173.403 272.409L172.944 268.875L172.898 266.916H175.04L174.994 268.875L174.535 272.409H173.403ZM177.198 272.409L176.739 268.875L176.693 266.916H178.835L178.789 268.875L178.33 272.409H177.198ZM184.583 272.394C184.154 272.394 183.792 272.246 183.496 271.95C183.21 271.654 183.068 271.287 183.068 270.848C183.068 270.4 183.21 270.032 183.496 269.747C183.792 269.451 184.154 269.303 184.583 269.303C185.021 269.303 185.383 269.451 185.669 269.747C185.955 270.032 186.097 270.4 186.097 270.848C186.097 271.287 185.955 271.654 185.669 271.95C185.383 272.246 185.021 272.394 184.583 272.394ZM184.583 277.597C184.154 277.597 183.792 277.449 183.496 277.153C183.21 276.857 183.068 276.49 183.068 276.051C183.068 275.602 183.21 275.235 183.496 274.949C183.792 274.654 184.154 274.506 184.583 274.506C185.021 274.506 185.383 274.654 185.669 274.949C185.955 275.235 186.097 275.602 186.097 276.051C186.097 276.49 185.955 276.857 185.669 277.153C185.383 277.449 185.021 277.597 184.583 277.597Z" fill="#D09A66"/>
<rect x="203.606" y="267.413" width="122" height="10" fill="#B8E9FF" fill-opacity="0.6"/>
<path d="M64.9583 300.67V299.706H65.6622C66.1314 299.706 66.4885 299.665 66.7333 299.583C66.9883 299.512 67.1618 299.384 67.2536 299.201C67.3454 299.027 67.3913 298.788 67.3913 298.481C67.3913 298.043 67.376 297.619 67.3454 297.211C67.325 296.793 67.3148 296.339 67.3148 295.85C67.3148 295.309 67.4219 294.911 67.6361 294.656C67.8504 294.391 68.2278 294.212 68.7685 294.12V294.059C68.2278 293.967 67.8504 293.794 67.6361 293.539C67.4219 293.274 67.3148 292.871 67.3148 292.33C67.3148 291.861 67.325 291.412 67.3454 290.983C67.376 290.545 67.3913 290.116 67.3913 289.698C67.3913 289.392 67.3454 289.152 67.2536 288.979C67.1618 288.795 66.9883 288.668 66.7333 288.596C66.4885 288.515 66.1314 288.474 65.6622 288.474H64.9583V287.51H66.0141C66.9832 287.51 67.6973 287.663 68.1564 287.969C68.6155 288.265 68.845 288.816 68.845 289.622C68.845 289.979 68.8348 290.305 68.8144 290.601C68.794 290.897 68.7685 291.193 68.7379 291.488C68.7073 291.774 68.692 292.08 68.692 292.407C68.692 292.59 68.7532 292.769 68.8756 292.942C68.998 293.116 69.2122 293.263 69.5183 293.386C69.8345 293.498 70.2783 293.554 70.8496 293.554V294.625C70.2783 294.625 69.8345 294.687 69.5183 294.809C69.2122 294.921 68.998 295.064 68.8756 295.237C68.7532 295.411 68.692 295.589 68.692 295.773C68.692 296.11 68.7073 296.421 68.7379 296.706C68.7685 296.992 68.794 297.283 68.8144 297.579C68.8348 297.864 68.845 298.191 68.845 298.558C68.845 299.364 68.6155 299.915 68.1564 300.211C67.6973 300.517 66.9832 300.67 66.0141 300.67H64.9583Z" fill="#D09A66"/>
<g clip-path="url(#clip1_5714_21372)">
<rect x="107.734" y="305.164" width="45.2095" height="45.2095" rx="22.6047" fill="white"/>
<g filter="url(#filter5_d_5714_21372)">
<path d="M138.413 340.687C137.955 340.687 137.572 340.532 137.263 340.222C136.954 339.912 136.799 339.528 136.798 339.072V330.999C136.798 330.541 136.953 330.158 137.263 329.849C137.573 329.54 137.957 329.385 138.413 329.384H141.642C142.1 329.384 142.483 329.539 142.793 329.849C143.103 330.159 143.258 330.542 143.257 330.999V339.072C143.257 339.529 143.102 339.913 142.792 340.223C142.482 340.533 142.099 340.688 141.642 340.687H138.413ZM128.725 340.687C128.268 340.687 127.885 340.532 127.576 340.222C127.267 339.912 127.112 339.528 127.111 339.072V316.467C127.111 316.01 127.266 315.626 127.576 315.318C127.886 315.009 128.269 314.854 128.725 314.853H131.954C132.412 314.853 132.796 315.008 133.106 315.318C133.416 315.628 133.57 316.011 133.569 316.467V339.072C133.569 339.529 133.414 339.913 133.104 340.223C132.794 340.533 132.411 340.688 131.954 340.687H128.725ZM119.037 340.687C118.58 340.687 118.197 340.532 117.888 340.222C117.579 339.912 117.424 339.528 117.423 339.072V324.54C117.423 324.083 117.578 323.7 117.888 323.391C118.198 323.082 118.581 322.927 119.037 322.926H122.267C122.724 322.926 123.108 323.081 123.418 323.391C123.728 323.701 123.882 324.084 123.881 324.54V339.072C123.881 339.529 123.726 339.913 123.416 340.223C123.106 340.533 122.723 340.688 122.267 340.687H119.037Z" fill="#F9FAFC"/>
<path d="M140.794 331.847V338.224H139.261V331.847H140.794ZM131.106 317.315V338.224H129.573V317.315H131.106ZM121.419 325.388V338.224H119.886V325.388H121.419Z" stroke="url(#paint1_linear_5714_21372)" stroke-width="4.92503"/>
</g>
</g>
<g clip-path="url(#clip2_5714_21372)">
<rect x="172.319" y="305.164" width="45.2095" height="45.2095" rx="22.6047" fill="white"/>
<g filter="url(#filter6_d_5714_21372)">
<path d="M193.444 313.53V342.012C193.444 343.045 192.491 343.82 191.49 343.594C184.273 341.98 178.912 335.505 178.912 327.771C178.912 320.037 184.273 313.562 191.49 311.948C191.726 311.896 191.97 311.899 192.205 311.955C192.44 312.01 192.659 312.118 192.847 312.27C193.034 312.422 193.185 312.614 193.288 312.832C193.392 313.05 193.445 313.289 193.444 313.53ZM196.721 313.53V324.526C196.721 325.414 197.448 326.14 198.336 326.14H209.299C210.333 326.14 211.108 325.188 210.882 324.17C209.509 318.099 204.746 313.32 198.691 311.948C197.674 311.722 196.721 312.497 196.721 313.53ZM196.721 331.016V342.012C196.721 343.045 197.674 343.82 198.691 343.594C204.762 342.222 209.525 337.426 210.898 331.355C211.124 330.354 210.333 329.386 209.315 329.386H198.352C197.448 329.402 196.721 330.128 196.721 331.016Z" fill="url(#paint2_linear_5714_21372)"/>
</g>
</g>
<g clip-path="url(#clip3_5714_21372)">
<rect x="236.904" y="305.164" width="45.2095" height="45.2095" rx="22.6047" fill="white"/>
<g filter="url(#filter7_d_5714_21372)">
<path fill-rule="evenodd" clip-rule="evenodd" d="M255.508 312.429C256.03 312.437 256.535 312.613 256.949 312.931C257.363 313.249 257.663 313.693 257.804 314.195L263.067 332.909L265.313 326.919C265.486 326.457 265.796 326.059 266.202 325.777C266.607 325.496 267.089 325.346 267.582 325.346H272.426C273.068 325.346 273.684 325.601 274.138 326.055C274.593 326.51 274.848 327.126 274.848 327.768C274.848 328.41 274.593 329.026 274.138 329.48C273.684 329.935 273.068 330.19 272.426 330.19H269.261L265.007 341.536C264.828 342.014 264.502 342.424 264.076 342.706C263.651 342.988 263.147 343.128 262.636 343.107C262.126 343.085 261.636 342.903 261.235 342.586C260.835 342.269 260.545 341.834 260.407 341.342L255.35 323.36L253.748 328.488C253.594 328.981 253.287 329.412 252.871 329.718C252.455 330.025 251.952 330.19 251.436 330.19H246.592C245.95 330.19 245.333 329.935 244.879 329.48C244.425 329.026 244.17 328.41 244.17 327.768C244.17 327.126 244.425 326.51 244.879 326.055C245.333 325.601 245.95 325.346 246.592 325.346H249.655L253.16 314.129C253.316 313.63 253.628 313.195 254.052 312.889C254.475 312.583 254.985 312.421 255.508 312.429Z" fill="#F9FAFC"/>
<path d="M255.484 314.043C255.658 314.046 255.827 314.105 255.965 314.211C256.102 314.317 256.202 314.465 256.249 314.632V314.633L261.513 333.346L262.849 338.093L264.579 333.476L266.825 327.485V327.484C266.883 327.331 266.987 327.198 267.122 327.104C267.257 327.011 267.418 326.961 267.582 326.961H272.426C272.64 326.961 272.846 327.046 272.997 327.197C273.148 327.349 273.233 327.554 273.233 327.768C273.233 327.982 273.148 328.187 272.997 328.339C272.846 328.49 272.64 328.575 272.426 328.575H268.143L267.749 329.623L263.495 340.969L263.494 340.97C263.434 341.129 263.326 341.266 263.185 341.36C263.043 341.454 262.874 341.501 262.704 341.494C262.534 341.487 262.371 341.426 262.237 341.32C262.104 341.215 262.007 341.069 261.961 340.905L256.904 322.923L255.431 317.685L253.809 322.879L252.207 328.007L252.206 328.008C252.155 328.172 252.053 328.316 251.914 328.418C251.775 328.52 251.608 328.575 251.436 328.575H246.592C246.378 328.575 246.173 328.49 246.021 328.339C245.87 328.187 245.784 327.982 245.784 327.768C245.784 327.554 245.87 327.349 246.021 327.197C246.173 327.046 246.378 326.961 246.592 326.961H250.842L251.196 325.827L254.701 314.61C254.753 314.444 254.858 314.299 254.999 314.197C255.14 314.095 255.31 314.04 255.484 314.043Z" stroke="url(#paint3_linear_5714_21372)" stroke-width="3.22925"/>
</g>
</g>
</g>
<g clip-path="url(#clip4_5714_21372)">
<rect x="160.002" y="112.144" width="69" height="52" rx="8.99905" fill="white"/>
<g filter="url(#filter8_d_5714_21372)">
<path d="M183.561 121.887H183.554C183.518 120.413 182.305 119.268 180.829 119.248V119.244H170.886V119.251C169.424 119.287 168.309 120.425 168.276 121.888H168.27V154.335H168.275C168.302 155.792 169.439 156.926 170.886 156.982V157.044H180.829C182.351 157.043 183.561 155.856 183.561 154.335V121.887ZM175.915 153.883C175.392 153.889 174.873 153.792 174.388 153.596C173.903 153.401 173.461 153.111 173.089 152.743C172.717 152.376 172.421 151.938 172.22 151.456C172.018 150.973 171.914 150.455 171.914 149.932C171.914 149.409 172.018 148.891 172.22 148.409C172.422 147.926 172.717 147.489 173.09 147.121C173.462 146.754 173.903 146.464 174.388 146.268C174.873 146.073 175.392 145.976 175.915 145.982C176.954 145.995 177.946 146.418 178.676 147.157C179.406 147.896 179.816 148.894 179.816 149.933C179.816 150.972 179.406 151.969 178.676 152.709C177.946 153.448 176.954 153.87 175.915 153.883ZM180.4 139.681H171.43V122.405H180.4V139.681ZM202.013 121.887H202.006C201.97 120.413 200.757 119.268 199.281 119.248V119.244H189.338V119.251C187.876 119.287 186.761 120.425 186.728 121.888H186.722V154.335H186.727C186.754 155.792 187.892 156.926 189.338 156.982V157.044H199.281C200.803 157.043 202.013 155.856 202.013 154.335V121.887ZM194.367 153.883C193.844 153.889 193.325 153.792 192.84 153.596C192.355 153.401 191.913 153.111 191.541 152.743C191.169 152.376 190.874 151.938 190.672 151.456C190.47 150.973 190.367 150.455 190.367 149.932C190.367 149.409 190.47 148.891 190.672 148.409C190.874 147.926 191.169 147.489 191.542 147.121C191.914 146.754 192.355 146.464 192.84 146.268C193.325 146.073 193.845 145.976 194.368 145.982C195.407 145.995 196.399 146.417 197.129 147.157C197.859 147.896 198.268 148.893 198.268 149.933C198.268 150.972 197.859 151.969 197.129 152.708C196.399 153.448 195.406 153.87 194.367 153.883ZM198.852 139.681H189.883V122.405H198.853L198.852 139.681ZM220.466 121.887H220.459C220.422 120.413 219.209 119.268 217.734 119.248V119.244H207.79V119.251C206.328 119.287 205.213 120.425 205.18 121.888H205.174V154.335H205.179C205.206 155.792 206.344 156.926 207.79 156.982V157.044H217.734C219.255 157.043 220.466 155.856 220.466 154.335V121.887ZM212.82 153.883C212.297 153.889 211.778 153.792 211.293 153.596C210.807 153.401 210.366 153.111 209.994 152.743C209.622 152.376 209.326 151.938 209.125 151.456C208.923 150.973 208.819 150.455 208.819 149.932C208.819 149.409 208.923 148.891 209.125 148.409C209.327 147.926 209.622 147.489 209.994 147.121C210.367 146.754 210.808 146.464 211.293 146.268C211.778 146.073 212.297 145.976 212.82 145.982C213.859 145.995 214.851 146.418 215.581 147.157C216.311 147.896 216.721 148.894 216.721 149.933C216.72 150.972 216.311 151.969 215.581 152.709C214.851 153.448 213.859 153.87 212.82 153.883ZM217.305 139.681H208.335V122.405H217.305V139.681Z" fill="#F9FAFC"/>
<path d="M218.75 141.396V154.335C218.75 154.888 218.327 155.328 217.732 155.328H214.498C215.361 155.052 216.154 154.57 216.802 153.914C217.849 152.854 218.436 151.423 218.437 149.933C218.437 148.442 217.849 147.012 216.802 145.951C215.755 144.891 214.332 144.286 212.842 144.267C212.092 144.257 211.347 144.396 210.651 144.677C209.956 144.957 209.323 145.373 208.789 145.9C208.255 146.427 207.831 147.055 207.542 147.747C207.253 148.439 207.104 149.182 207.104 149.932C207.103 150.682 207.253 151.425 207.542 152.117C207.831 152.809 208.255 153.437 208.788 153.964C209.322 154.491 209.956 154.907 210.651 155.188C210.781 155.24 210.913 155.286 211.046 155.328H209.404L207.857 155.269C207.301 155.247 206.905 154.833 206.895 154.303L206.89 154.047V141.396H218.75ZM200.298 141.396V154.335C200.298 154.888 199.874 155.328 199.28 155.328H196.046C196.909 155.052 197.701 154.57 198.35 153.914C199.397 152.854 199.983 151.423 199.983 149.933C199.983 148.442 199.397 147.012 198.35 145.951C197.303 144.891 195.88 144.286 194.39 144.267C193.64 144.257 192.895 144.396 192.199 144.677C191.503 144.957 190.87 145.373 190.336 145.9C189.802 146.427 189.378 147.055 189.089 147.747C188.8 148.439 188.651 149.182 188.651 149.932C188.651 150.682 188.8 151.425 189.089 152.117C189.378 152.809 189.802 153.437 190.336 153.964C190.87 154.491 191.503 154.907 192.198 155.188C192.328 155.24 192.46 155.286 192.593 155.328H190.952L189.405 155.269C188.849 155.247 188.452 154.833 188.442 154.303L188.438 154.047V141.396H200.298ZM181.846 141.396V154.335C181.846 154.888 181.422 155.328 180.828 155.328H177.594C178.456 155.052 179.248 154.57 179.896 153.914C180.944 152.854 181.531 151.423 181.531 149.933C181.531 148.442 180.944 147.012 179.897 145.951C178.85 144.891 177.428 144.286 175.938 144.267C175.188 144.257 174.443 144.396 173.747 144.677C173.051 144.957 172.418 145.373 171.884 145.9C171.35 146.427 170.927 147.055 170.638 147.747C170.348 148.439 170.199 149.182 170.199 149.932C170.199 150.682 170.348 151.425 170.637 152.117C170.926 152.809 171.35 153.437 171.884 153.964C172.418 154.491 173.05 154.907 173.746 155.188C173.876 155.24 174.008 155.286 174.141 155.328H172.5L170.953 155.269C170.396 155.247 170 154.833 169.99 154.303L169.985 154.047V141.396H181.846Z" stroke="url(#paint4_linear_5714_21372)" stroke-width="3.43118"/>
</g>
</g>
</g>
<defs>
<filter id="filter0_d_5714_21372" x="52.771" y="15.5893" width="70.3321" height="70.3321" filterUnits="userSpaceOnUse" color-interpolation-filters="sRGB">
<feFlood flood-opacity="0" result="BackgroundImageFix"/>
<feColorMatrix in="SourceAlpha" type="matrix" values="0 0 0 0 0 0 0 0 0 0 0 0 0 0 0 0 0 0 127 0" result="hardAlpha"/>
<feMorphology radius="2.9824" operator="dilate" in="SourceAlpha" result="effect1_dropShadow_5714_21372"/>
<feOffset/>
<feGaussianBlur stdDeviation="4.82155"/>
<feComposite in2="hardAlpha" operator="out"/>
<feColorMatrix type="matrix" values="0 0 0 0 0 0 0 0 0 0 0 0 0 0 0 0 0 0 0.05 0"/>
<feBlend mode="normal" in2="BackgroundImageFix" result="effect1_dropShadow_5714_21372"/>
<feBlend mode="normal" in="SourceGraphic" in2="effect1_dropShadow_5714_21372" result="shape"/>
</filter>
<filter id="filter1_d_5714_21372" x="123.724" y="15.5893" width="70.3321" height="70.3321" filterUnits="userSpaceOnUse" color-interpolation-filters="sRGB">
<feFlood flood-opacity="0" result="BackgroundImageFix"/>
<feColorMatrix in="SourceAlpha" type="matrix" values="0 0 0 0 0 0 0 0 0 0 0 0 0 0 0 0 0 0 127 0" result="hardAlpha"/>
<feMorphology radius="2.9824" operator="dilate" in="SourceAlpha" result="effect1_dropShadow_5714_21372"/>
<feOffset/>
<feGaussianBlur stdDeviation="4.82155"/>
<feComposite in2="hardAlpha" operator="out"/>
<feColorMatrix type="matrix" values="0 0 0 0 0 0 0 0 0 0 0 0 0 0 0 0 0 0 0.05 0"/>
<feBlend mode="normal" in2="BackgroundImageFix" result="effect1_dropShadow_5714_21372"/>
<feBlend mode="normal" in="SourceGraphic" in2="effect1_dropShadow_5714_21372" result="shape"/>
</filter>
<filter id="filter2_d_5714_21372" x="194.678" y="15.5893" width="70.3321" height="70.3321" filterUnits="userSpaceOnUse" color-interpolation-filters="sRGB">
<feFlood flood-opacity="0" result="BackgroundImageFix"/>
<feColorMatrix in="SourceAlpha" type="matrix" values="0 0 0 0 0 0 0 0 0 0 0 0 0 0 0 0 0 0 127 0" result="hardAlpha"/>
<feMorphology radius="2.9824" operator="dilate" in="SourceAlpha" result="effect1_dropShadow_5714_21372"/>
<feOffset/>
<feGaussianBlur stdDeviation="4.82155"/>
<feComposite in2="hardAlpha" operator="out"/>
<feColorMatrix type="matrix" values="0 0 0 0 0 0 0 0 0 0 0 0 0 0 0 0 0 0 0.05 0"/>
<feBlend mode="normal" in2="BackgroundImageFix" result="effect1_dropShadow_5714_21372"/>
<feBlend mode="normal" in="SourceGraphic" in2="effect1_dropShadow_5714_21372" result="shape"/>
</filter>
<filter id="filter3_d_5714_21372" x="265.631" y="15.5893" width="70.3321" height="70.3321" filterUnits="userSpaceOnUse" color-interpolation-filters="sRGB">
<feFlood flood-opacity="0" result="BackgroundImageFix"/>
<feColorMatrix in="SourceAlpha" type="matrix" values="0 0 0 0 0 0 0 0 0 0 0 0 0 0 0 0 0 0 127 0" result="hardAlpha"/>
<feMorphology radius="2.9824" operator="dilate" in="SourceAlpha" result="effect1_dropShadow_5714_21372"/>
<feOffset/>
<feGaussianBlur stdDeviation="4.82155"/>
<feComposite in2="hardAlpha" operator="out"/>
<feColorMatrix type="matrix" values="0 0 0 0 0 0 0 0 0 0 0 0 0 0 0 0 0 0 0.05 0"/>
<feBlend mode="normal" in2="BackgroundImageFix" result="effect1_dropShadow_5714_21372"/>
<feBlend mode="normal" in="SourceGraphic" in2="effect1_dropShadow_5714_21372" result="shape"/>
</filter>
<filter id="filter4_d_5714_21372" x="25.2399" y="122.147" width="340.516" height="240.477" filterUnits="userSpaceOnUse" color-interpolation-filters="sRGB">
<feFlood flood-opacity="0" result="BackgroundImageFix"/>
<feColorMatrix in="SourceAlpha" type="matrix" values="0 0 0 0 0 0 0 0 0 0 0 0 0 0 0 0 0 0 127 0" result="hardAlpha"/>
<feOffset dx="0.995917" dy="1.99183"/>
<feGaussianBlur stdDeviation="5.12897"/>
<feComposite in2="hardAlpha" operator="out"/>
<feColorMatrix type="matrix" values="0 0 0 0 0 0 0 0 0 0 0 0 0 0 0 0 0 0 0.25 0"/>
<feBlend mode="normal" in2="BackgroundImageFix" result="effect1_dropShadow_5714_21372"/>
<feBlend mode="normal" in="SourceGraphic" in2="effect1_dropShadow_5714_21372" result="shape"/>
</filter>
<filter id="filter5_d_5714_21372" x="96.5736" y="294.003" width="67.5326" height="67.5326" filterUnits="userSpaceOnUse" color-interpolation-filters="sRGB">
<feFlood flood-opacity="0" result="BackgroundImageFix"/>
<feColorMatrix in="SourceAlpha" type="matrix" values="0 0 0 0 0 0 0 0 0 0 0 0 0 0 0 0 0 0 127 0" result="hardAlpha"/>
<feMorphology radius="4.92503" operator="dilate" in="SourceAlpha" result="effect1_dropShadow_5714_21372"/>
<feOffset/>
<feGaussianBlur stdDeviation="7.96213"/>
<feComposite in2="hardAlpha" operator="out"/>
<feColorMatrix type="matrix" values="0 0 0 0 0 0 0 0 0 0 0 0 0 0 0 0 0 0 0.05 0"/>
<feBlend mode="normal" in2="BackgroundImageFix" result="effect1_dropShadow_5714_21372"/>
<feBlend mode="normal" in="SourceGraphic" in2="effect1_dropShadow_5714_21372" result="shape"/>
</filter>
<filter id="filter6_d_5714_21372" x="158.063" y="291.059" width="73.723" height="73.4242" filterUnits="userSpaceOnUse" color-interpolation-filters="sRGB">
<feFlood flood-opacity="0" result="BackgroundImageFix"/>
<feColorMatrix in="SourceAlpha" type="matrix" values="0 0 0 0 0 0 0 0 0 0 0 0 0 0 0 0 0 0 127 0" result="hardAlpha"/>
<feMorphology radius="4.92503" operator="dilate" in="SourceAlpha" result="effect1_dropShadow_5714_21372"/>
<feOffset/>
<feGaussianBlur stdDeviation="7.96213"/>
<feComposite in2="hardAlpha" operator="out"/>
<feColorMatrix type="matrix" values="0 0 0 0 0 0 0 0 0 0 0 0 0 0 0 0 0 0 0.05 0"/>
<feBlend mode="normal" in2="BackgroundImageFix" result="effect1_dropShadow_5714_21372"/>
<feBlend mode="normal" in="SourceGraphic" in2="effect1_dropShadow_5714_21372" result="shape"/>
</filter>
<filter id="filter7_d_5714_21372" x="223.321" y="291.579" width="72.3763" height="72.3792" filterUnits="userSpaceOnUse" color-interpolation-filters="sRGB">
<feFlood flood-opacity="0" result="BackgroundImageFix"/>
<feColorMatrix in="SourceAlpha" type="matrix" values="0 0 0 0 0 0 0 0 0 0 0 0 0 0 0 0 0 0 127 0" result="hardAlpha"/>
<feMorphology radius="4.92503" operator="dilate" in="SourceAlpha" result="effect1_dropShadow_5714_21372"/>
<feOffset/>
<feGaussianBlur stdDeviation="7.96213"/>
<feComposite in2="hardAlpha" operator="out"/>
<feColorMatrix type="matrix" values="0 0 0 0 0 0 0 0 0 0 0 0 0 0 0 0 0 0 0.05 0"/>
<feBlend mode="normal" in2="BackgroundImageFix" result="effect1_dropShadow_5714_21372"/>
<feBlend mode="normal" in="SourceGraphic" in2="effect1_dropShadow_5714_21372" result="shape"/>
</filter>
<filter id="filter8_d_5714_21372" x="153.744" y="104.719" width="81.247" height="66.8505" filterUnits="userSpaceOnUse" color-interpolation-filters="sRGB">
<feFlood flood-opacity="0" result="BackgroundImageFix"/>
<feColorMatrix in="SourceAlpha" type="matrix" values="0 0 0 0 0 0 0 0 0 0 0 0 0 0 0 0 0 0 127 0" result="hardAlpha"/>
<feMorphology radius="3.43118" operator="dilate" in="SourceAlpha" result="effect1_dropShadow_5714_21372"/>
<feOffset/>
<feGaussianBlur stdDeviation="5.54708"/>
<feComposite in2="hardAlpha" operator="out"/>
<feColorMatrix type="matrix" values="0 0 0 0 0 0 0 0 0 0 0 0 0 0 0 0 0 0 0.05 0"/>
<feBlend mode="normal" in2="BackgroundImageFix" result="effect1_dropShadow_5714_21372"/>
<feBlend mode="normal" in="SourceGraphic" in2="effect1_dropShadow_5714_21372" result="shape"/>
</filter>
<linearGradient id="paint0_linear_5714_21372" x1="194.502" y1="132.913" x2="194.502" y2="327.913" gradientUnits="userSpaceOnUse">
<stop stop-color="#02D7FD"/>
<stop offset="1" stop-color="#32F7BA"/>
</linearGradient>
<linearGradient id="paint1_linear_5714_21372" x1="117.423" y1="327.77" x2="143.257" y2="327.77" gradientUnits="userSpaceOnUse">
<stop stop-color="#00D6FF"/>
<stop offset="1" stop-color="#32F8B9"/>
</linearGradient>
<linearGradient id="paint2_linear_5714_21372" x1="178.912" y1="327.771" x2="210.937" y2="327.771" gradientUnits="userSpaceOnUse">
<stop stop-color="#00D6FF"/>
<stop offset="1" stop-color="#32F8B9"/>
</linearGradient>
<linearGradient id="paint3_linear_5714_21372" x1="244.17" y1="327.769" x2="274.848" y2="327.769" gradientUnits="userSpaceOnUse">
<stop stop-color="#00D6FF"/>
<stop offset="1" stop-color="#32F8B9"/>
</linearGradient>
<linearGradient id="paint4_linear_5714_21372" x1="168.27" y1="138.144" x2="220.466" y2="138.144" gradientUnits="userSpaceOnUse">
<stop stop-color="#00D6FF"/>
<stop offset="1" stop-color="#32F8B9"/>
</linearGradient>
<clipPath id="clip0_5714_21372">
<rect x="0.875" y="0.790039" width="387" height="387" rx="16" fill="white"/>
</clipPath>
<clipPath id="clip1_5714_21372">
<rect x="107.734" y="305.164" width="45.2095" height="45.2095" rx="22.6047" fill="white"/>
</clipPath>
<clipPath id="clip2_5714_21372">
<rect x="172.319" y="305.164" width="45.2095" height="45.2095" rx="22.6047" fill="white"/>
</clipPath>
<clipPath id="clip3_5714_21372">
<rect x="236.904" y="305.164" width="45.2095" height="45.2095" rx="22.6047" fill="white"/>
</clipPath>
<clipPath id="clip4_5714_21372">
<rect x="160.002" y="112.144" width="69" height="52" rx="8.99905" fill="white"/>
</clipPath>
</defs>
</svg>
