<svg width="387" height="388" viewBox="0 0 387 388" fill="none" xmlns="http://www.w3.org/2000/svg">
<rect x="-0.00390625" y="0.698242" width="387" height="387" rx="16" fill="#E8F7FE" style="mix-blend-mode:multiply"/>
<path d="M193.087 112.052L197.713 104.038H188.46L193.087 112.052ZM87.3627 50.8855H86.5614V52.5271H87.3627H88.1641V50.8855H87.3627ZM87.3627 55.8103H86.5614V59.0935H87.3627H88.1641V55.8103H87.3627ZM87.3627 62.3767H86.5614V65.6599H87.3627H88.1641V62.3767H87.3627ZM87.3627 68.9431H86.5614V72.2262H87.3627H88.1641V68.9431H87.3627ZM87.3627 75.5094H86.5614V78.7926H87.3627H88.1641V75.5094H87.3627ZM87.3627 82.0758H86.5614V83.7174H87.3627H88.1641V82.0758H87.3627ZM87.3627 83.7174H86.5614C86.5614 84.3709 86.6254 85.0102 86.7479 85.6292L87.534 85.4737L88.3201 85.3182C88.2179 84.8011 88.1641 84.2659 88.1641 83.7174H87.3627ZM88.8785 88.7174L88.2126 89.1632C88.9279 90.2316 89.8476 91.1513 90.916 91.8666L91.3618 91.2007L91.8076 90.5348C90.9133 89.9361 90.1431 89.1659 89.5444 88.2716L88.8785 88.7174ZM94.6055 92.5452L94.45 93.3313C95.069 93.4537 95.7083 93.5178 96.3618 93.5178V92.7164V91.9151C95.8133 91.9151 95.2781 91.8613 94.761 91.759L94.6055 92.5452ZM96.3618 92.7164V93.5178H97.9283V92.7164V91.9151H96.3618V92.7164ZM101.061 92.7164V93.5178H104.194V92.7164V91.9151H101.061V92.7164ZM107.328 92.7164V93.5178H110.461V92.7164V91.9151H107.328V92.7164ZM113.594 92.7164V93.5178H116.727V92.7164V91.9151H113.594V92.7164ZM119.86 92.7164V93.5178H122.993V92.7164V91.9151H119.86V92.7164ZM126.126 92.7164V93.5178H129.259V92.7164V91.9151H126.126V92.7164ZM132.392 92.7164V93.5178H135.525V92.7164V91.9151H132.392V92.7164ZM138.658 92.7164V93.5178H141.791V92.7164V91.9151H138.658V92.7164ZM144.924 92.7164V93.5178H148.057V92.7164V91.9151H144.924V92.7164ZM151.19 92.7164V93.5178H154.324V92.7164V91.9151H151.19V92.7164ZM157.457 92.7164V93.5178H160.59V92.7164V91.9151H157.457V92.7164ZM163.723 92.7164V93.5178H166.856V92.7164V91.9151H163.723V92.7164ZM169.989 92.7164V93.5178H173.122V92.7164V91.9151H169.989V92.7164ZM176.255 92.7164V93.5178H179.388V92.7164V91.9151H176.255V92.7164ZM182.521 92.7164V93.5178H184.088V92.7164V91.9151H182.521V92.7164ZM184.088 92.7164V93.5178C184.636 93.5178 185.171 93.5716 185.688 93.6739L185.844 92.8877L185.999 92.1016C185.381 91.9792 184.741 91.9151 184.088 91.9151V92.7164ZM189.088 94.2322L188.642 94.8981C189.536 95.4968 190.306 96.267 190.905 97.1613L191.571 96.7155L192.237 96.2697C191.522 95.2013 190.602 94.2816 189.534 93.5663L189.088 94.2322ZM192.915 99.9592L192.129 100.115C192.232 100.632 192.285 101.167 192.285 101.715H193.087H193.888C193.888 101.062 193.824 100.423 193.702 99.8037L192.915 99.9592ZM193.087 101.715H192.285V103.008H193.087H193.888V101.715H193.087ZM193.087 105.592H192.285V108.176H193.087H193.888V105.592H193.087Z" fill="#04D8FB"/>
<path d="M193.087 112.052L197.713 104.038H188.46L193.087 112.052ZM156.63 50.8856H155.829V52.5272H156.63H157.432V50.8856H156.63ZM156.63 55.8104H155.829V59.0936H156.63H157.432V55.8104H156.63ZM156.63 62.3768H155.829V65.6599H156.63H157.432V62.3768H156.63ZM156.63 68.9431H155.829V72.2263H156.63H157.432V68.9431H156.63ZM156.63 75.5095H155.829V78.7927H156.63H157.432V75.5095H156.63ZM156.63 82.0759H155.829V83.7175H156.63H157.432V82.0759H156.63ZM156.63 83.7175H155.829C155.829 84.371 155.893 85.0103 156.015 85.6293L156.802 85.4737L157.588 85.3182C157.485 84.8011 157.432 84.266 157.432 83.7175H156.63ZM158.146 88.7175L157.48 89.1633C158.195 90.2317 159.115 91.1514 160.184 91.8667L160.629 91.2008L161.075 90.5349C160.181 89.9361 159.411 89.166 158.812 88.2717L158.146 88.7175ZM163.873 92.5452L163.718 93.3314C164.337 93.4538 164.976 93.5179 165.629 93.5179V92.7165V91.9152C165.081 91.9152 164.546 91.8614 164.029 91.7591L163.873 92.5452ZM165.629 92.7165V93.5179H167.168V92.7165V91.9152H165.629V92.7165ZM170.244 92.7165V93.5179H173.32V92.7165V91.9152H170.244V92.7165ZM176.397 92.7165V93.5179H179.473V92.7165V91.9152H176.397V92.7165ZM182.55 92.7165V93.5179H184.088V92.7165V91.9152H182.55V92.7165ZM184.088 92.7165V93.5179C184.636 93.5179 185.171 93.5716 185.689 93.6739L185.844 92.8878L186 92.1017C185.381 91.9792 184.741 91.9152 184.088 91.9152V92.7165ZM189.088 94.2323L188.642 94.8982C189.536 95.4969 190.306 96.267 190.905 97.1614L191.571 96.7156L192.237 96.2697C191.522 95.2013 190.602 94.2816 189.534 93.5664L189.088 94.2323ZM192.916 99.9593L192.129 100.115C192.232 100.632 192.285 101.167 192.285 101.716H193.087H193.888C193.888 101.062 193.824 100.423 193.702 99.8038L192.916 99.9593ZM193.087 101.716H192.285V103.008H193.087H193.888V101.716H193.087ZM193.087 105.592H192.285V108.176H193.087H193.888V105.592H193.087Z" fill="#04D8FB"/>
<path d="M193.087 112.052L188.46 104.038H197.713L193.087 112.052ZM227.797 50.8856H228.599V52.5272H227.797H226.996V50.8856H227.797ZM227.797 55.8104H228.599V59.0936H227.797H226.996V55.8104H227.797ZM227.797 62.3768H228.599V65.6599H227.797H226.996V62.3768H227.797ZM227.797 68.9431H228.599V72.2263H227.797H226.996V68.9431H227.797ZM227.797 75.5095H228.599V78.7927H227.797H226.996V75.5095H227.797ZM227.797 82.0759H228.599V83.7175H227.797H226.996V82.0759H227.797ZM227.797 83.7175H228.599C228.599 84.371 228.534 85.0103 228.412 85.6293L227.626 85.4737L226.84 85.3182C226.942 84.8011 226.996 84.266 226.996 83.7175H227.797ZM226.281 88.7175L226.947 89.1633C226.232 90.2317 225.312 91.1514 224.244 91.8667L223.798 91.2008L223.352 90.5349C224.247 89.9361 225.017 89.166 225.616 88.2717L226.281 88.7175ZM220.554 92.5452L220.71 93.3314C220.091 93.4538 219.452 93.5179 218.798 93.5179V92.7165V91.9152C219.347 91.9152 219.882 91.8614 220.399 91.7591L220.554 92.5452ZM218.798 92.7165V93.5179H217.405V92.7165V91.9152H218.798V92.7165ZM214.62 92.7165V93.5179H211.835V92.7165V91.9152H214.62V92.7165ZM209.049 92.7165V93.5179H206.264V92.7165V91.9152H209.049V92.7165ZM203.479 92.7165V93.5179H202.086V92.7165V91.9152H203.479V92.7165ZM202.086 92.7165V93.5179C201.537 93.5179 201.002 93.5716 200.485 93.6739L200.33 92.8878L200.174 92.1017C200.793 91.9792 201.432 91.9152 202.086 91.9152V92.7165ZM197.086 94.2323L197.532 94.8982C196.637 95.4969 195.867 96.267 195.268 97.1614L194.603 96.7156L193.937 96.2697C194.652 95.2013 195.572 94.2816 196.64 93.5664L197.086 94.2323ZM193.258 99.9593L194.044 100.115C193.942 100.632 193.888 101.167 193.888 101.716H193.087H192.285C192.285 101.062 192.35 100.423 192.472 99.8038L193.258 99.9593ZM193.087 101.716H193.888V103.008H193.087H192.285V101.716H193.087ZM193.087 105.592H193.888V108.176H193.087H192.285V105.592H193.087Z" fill="#04D8FB"/>
<path d="M193.087 112.052L188.46 104.038H197.713L193.087 112.052ZM301.647 50.8856H302.448V52.5272H301.647H300.845V50.8856H301.647ZM301.647 55.8104H302.448V59.0936H301.647H300.845V55.8104H301.647ZM301.647 62.3768H302.448V65.6599H301.647H300.845V62.3768H301.647ZM301.647 68.9431H302.448V72.2263H301.647H300.845V68.9431H301.647ZM301.647 75.5095H302.448V78.7927H301.647H300.845V75.5095H301.647ZM301.647 82.0759H302.448V83.7175H301.647H300.845V82.0759H301.647ZM301.647 83.7175H302.448C302.448 84.371 302.384 85.0103 302.261 85.6293L301.475 85.4737L300.689 85.3182C300.791 84.8011 300.845 84.266 300.845 83.7175H301.647ZM300.131 88.7175L300.797 89.1633C300.081 90.2317 299.162 91.1514 298.093 91.8667L297.648 91.2008L297.202 90.5349C298.096 89.9361 298.866 89.166 299.465 88.2717L300.131 88.7175ZM294.404 92.5452L294.559 93.3314C293.94 93.4538 293.301 93.5179 292.648 93.5179V92.7165V91.9152C293.196 91.9152 293.731 91.8614 294.248 91.7591L294.404 92.5452ZM292.648 92.7165V93.5179H291.03V92.7165V91.9152H292.648V92.7165ZM287.796 92.7165V93.5179H284.562V92.7165V91.9152H287.796V92.7165ZM281.327 92.7165V93.5179H278.093V92.7165V91.9152H281.327V92.7165ZM274.859 92.7165V93.5179H271.624V92.7165V91.9152H274.859V92.7165ZM268.39 92.7165V93.5179H265.156V92.7165V91.9152H268.39V92.7165ZM261.921 92.7165V93.5179H258.687V92.7165V91.9152H261.921V92.7165ZM255.453 92.7165V93.5179H252.218V92.7165V91.9152H255.453V92.7165ZM248.984 92.7165V93.5179H245.75V92.7165V91.9152H248.984V92.7165ZM242.515 92.7165V93.5179H239.281V92.7165V91.9152H242.515V92.7165ZM236.046 92.7165V93.5179H232.812V92.7165V91.9152H236.046V92.7165ZM229.578 92.7165V93.5179H226.343V92.7165V91.9152H229.578V92.7165ZM223.109 92.7165V93.5179H219.875V92.7165V91.9152H223.109V92.7165ZM216.64 92.7165V93.5179H213.406V92.7165V91.9152H216.64V92.7165ZM210.172 92.7165V93.5179H206.937V92.7165V91.9152H210.172V92.7165ZM203.703 92.7165V93.5179H202.086V92.7165V91.9152H203.703V92.7165ZM202.086 92.7165V93.5179C201.537 93.5179 201.002 93.5716 200.485 93.6739L200.33 92.8878L200.174 92.1017C200.793 91.9792 201.432 91.9152 202.086 91.9152V92.7165ZM197.086 94.2323L197.532 94.8982C196.637 95.4969 195.867 96.267 195.268 97.1614L194.603 96.7155L193.937 96.2697C194.652 95.2013 195.572 94.2816 196.64 93.5664L197.086 94.2323ZM193.258 99.9593L194.044 100.115C193.942 100.632 193.888 101.167 193.888 101.716H193.087H192.285C192.285 101.062 192.349 100.423 192.472 99.8038L193.258 99.9593ZM193.087 101.716H193.888V103.008H193.087H192.285V101.716H193.087ZM193.087 105.592H193.888V108.176H193.087H192.285V105.592H193.087Z" fill="#04D8FB"/>
<g filter="url(#filter0_d_1_2)">
<rect x="64.5173" y="28.123" width="45.0811" height="45.0811" rx="22.5406" fill="#FDFDFD"/>
<rect x="65.3522" y="28.9579" width="43.4115" height="43.4115" rx="21.7057" stroke="#00D6FF" stroke-opacity="0.24" stroke-width="1.66967"/>
<text fill="black" xml:space="preserve" style="white-space: pre" font-family="Source Code Pro" font-size="15.7483" font-weight="bold" letter-spacing="-0.03em"><tspan x="72.9969" y="55.9956">&#60;/&#62;</tspan></text>
</g>
<g filter="url(#filter1_d_1_2)">
<rect x="135.471" y="28.1232" width="45.0811" height="45.0811" rx="22.5406" fill="#FDFDFD"/>
<rect x="136.306" y="28.9581" width="43.4115" height="43.4115" rx="21.7057" stroke="#00D6FF" stroke-opacity="0.24" stroke-width="1.66967"/>
<text fill="black" xml:space="preserve" style="white-space: pre" font-family="Source Code Pro" font-size="15.7483" font-weight="bold" letter-spacing="-0.12em"><tspan x="145.638" y="55.9958">&#60; &#62;</tspan></text>
</g>
<g filter="url(#filter2_d_1_2)">
<rect x="206.424" y="28.123" width="45.0811" height="45.0811" rx="22.5406" fill="#FDFDFD"/>
<rect x="207.259" y="28.9579" width="43.4115" height="43.4115" rx="21.7057" stroke="#00D6FF" stroke-opacity="0.24" stroke-width="1.66967"/>
<text fill="black" xml:space="preserve" style="white-space: pre" font-family="Source Code Pro" font-size="15.7483" font-weight="bold" letter-spacing="-0.03em"><tspan x="214.903" y="55.9956">&#60;/&#62;</tspan></text>
</g>
<g filter="url(#filter3_d_1_2)">
<rect x="277.378" y="28.1232" width="45.0811" height="45.0811" rx="22.5406" fill="#FDFDFD"/>
<rect x="278.212" y="28.9581" width="43.4115" height="43.4115" rx="21.7057" stroke="#00D6FF" stroke-opacity="0.24" stroke-width="1.66967"/>
<text fill="black" xml:space="preserve" style="white-space: pre" font-family="Source Code Pro" font-size="15.7483" font-weight="bold" letter-spacing="-0.03em"><tspan x="290.357" y="55.9958">&#62;_</tspan></text>
</g>
<g filter="url(#filter4_d_1_2)">
<rect x="36.1233" y="132.821" width="315" height="195" rx="30.0615" fill="#111214" shape-rendering="crispEdges"/>
<rect x="36.1233" y="132.821" width="315" height="195" rx="30.0615" stroke="url(#paint0_linear_1_2)" stroke-width="5" shape-rendering="crispEdges"/>
<text fill="#D09A66" xml:space="preserve" style="white-space: pre" font-family="Source Code Pro" font-size="15.3021" font-weight="600" letter-spacing="-0.03em"><tspan x="62.5188" y="172.491">{</tspan></text>
<text fill="#D09A66" xml:space="preserve" style="white-space: pre" font-family="Source Code Pro" font-size="15.3021" font-weight="600" letter-spacing="-0.03em"><tspan x="74.5188" y="193.421">&#34;unit_tests&#34;:</tspan></text>
<rect x="202.728" y="183.321" width="122" height="10" fill="#B8E9FF" fill-opacity="0.6"/>
<text fill="#D09A66" xml:space="preserve" style="white-space: pre" font-family="Source Code Pro" font-size="15.3021" font-weight="600" letter-spacing="-0.03em"><tspan x="74.5188" y="214.421">&#34;test_coverage&#34;:</tspan></text>
<rect x="228.728" y="204.321" width="96" height="10" fill="#B8E9FF" fill-opacity="0.6"/>
<text fill="#D09A66" xml:space="preserve" style="white-space: pre" font-family="Source Code Pro" font-size="15.3021" font-weight="600" letter-spacing="-0.03em"><tspan x="74.5188" y="235.421">&#34;sbom&#34;:</tspan></text>
<rect x="150.728" y="225.321" width="174" height="10" fill="#B8E9FF" fill-opacity="0.6"/>
<text fill="#D09A66" xml:space="preserve" style="white-space: pre" font-family="Source Code Pro" font-size="15.3021" font-weight="600" letter-spacing="-0.03em"><tspan x="74.5188" y="256.421">&#34;vulnerabilities&#34;:</tspan></text>
<rect x="246.728" y="246.321" width="78" height="10" fill="#B8E9FF" fill-opacity="0.6"/>
<text fill="#D09A66" xml:space="preserve" style="white-space: pre" font-family="Source Code Pro" font-size="15.3021" font-weight="600" letter-spacing="-0.03em"><tspan x="74.5188" y="277.421">&#34;codeowners&#34;:</tspan></text>
<rect x="202.728" y="267.321" width="122" height="10" fill="#B8E9FF" fill-opacity="0.6"/>
<text fill="#D09A66" xml:space="preserve" style="white-space: pre" font-family="Source Code Pro" font-size="15.3021" font-weight="600" letter-spacing="-0.03em"><tspan x="62.5188" y="298.351">}</tspan></text>
<g clip-path="url(#clip0_1_2)">
<rect x="106.856" y="305.072" width="45.2095" height="45.2095" rx="22.6047" fill="white"/>
<g filter="url(#filter5_d_1_2)">
<mask id="path-32-inside-1_1_2" fill="white">
<path d="M137.534 340.595C137.077 340.595 136.694 340.44 136.385 340.13C136.076 339.82 135.921 339.437 135.92 338.98V330.907C135.92 330.45 136.075 330.066 136.385 329.757C136.695 329.448 137.078 329.293 137.534 329.292H140.764C141.221 329.292 141.605 329.447 141.915 329.757C142.225 330.067 142.379 330.451 142.378 330.907V338.98C142.378 339.438 142.223 339.821 141.913 340.131C141.603 340.441 141.22 340.596 140.764 340.595H137.534ZM127.847 340.595C127.389 340.595 127.006 340.44 126.697 340.13C126.388 339.82 126.233 339.437 126.232 338.98V316.375C126.232 315.918 126.387 315.535 126.697 315.226C127.007 314.917 127.39 314.762 127.847 314.761H131.076C131.533 314.761 131.917 314.916 132.227 315.226C132.537 315.536 132.692 315.919 132.69 316.375V338.98C132.69 339.438 132.535 339.821 132.225 340.131C131.915 340.441 131.532 340.596 131.076 340.595H127.847ZM118.159 340.595C117.701 340.595 117.318 340.44 117.009 340.13C116.7 339.82 116.545 339.437 116.544 338.98V324.448C116.544 323.991 116.699 323.608 117.009 323.299C117.319 322.99 117.702 322.835 118.159 322.834H121.388C121.846 322.834 122.229 322.989 122.539 323.299C122.849 323.609 123.004 323.992 123.003 324.448V338.98C123.003 339.438 122.848 339.821 122.538 340.131C122.228 340.441 121.844 340.596 121.388 340.595H118.159Z"/>
</mask>
<path d="M137.534 340.595C137.077 340.595 136.694 340.44 136.385 340.13C136.076 339.82 135.921 339.437 135.92 338.98V330.907C135.92 330.45 136.075 330.066 136.385 329.757C136.695 329.448 137.078 329.293 137.534 329.292H140.764C141.221 329.292 141.605 329.447 141.915 329.757C142.225 330.067 142.379 330.451 142.378 330.907V338.98C142.378 339.438 142.223 339.821 141.913 340.131C141.603 340.441 141.22 340.596 140.764 340.595H137.534ZM127.847 340.595C127.389 340.595 127.006 340.44 126.697 340.13C126.388 339.82 126.233 339.437 126.232 338.98V316.375C126.232 315.918 126.387 315.535 126.697 315.226C127.007 314.917 127.39 314.762 127.847 314.761H131.076C131.533 314.761 131.917 314.916 132.227 315.226C132.537 315.536 132.692 315.919 132.69 316.375V338.98C132.69 339.438 132.535 339.821 132.225 340.131C131.915 340.441 131.532 340.596 131.076 340.595H127.847ZM118.159 340.595C117.701 340.595 117.318 340.44 117.009 340.13C116.7 339.82 116.545 339.437 116.544 338.98V324.448C116.544 323.991 116.699 323.608 117.009 323.299C117.319 322.99 117.702 322.835 118.159 322.834H121.388C121.846 322.834 122.229 322.989 122.539 323.299C122.849 323.609 123.004 323.992 123.003 324.448V338.98C123.003 339.438 122.848 339.821 122.538 340.131C122.228 340.441 121.844 340.596 121.388 340.595H118.159Z" fill="#F9FAFC"/>
<path d="M137.534 340.595C137.077 340.595 136.694 340.44 136.385 340.13C136.076 339.82 135.921 339.437 135.92 338.98V330.907C135.92 330.45 136.075 330.066 136.385 329.757C136.695 329.448 137.078 329.293 137.534 329.292H140.764C141.221 329.292 141.605 329.447 141.915 329.757C142.225 330.067 142.379 330.451 142.378 330.907V338.98C142.378 339.438 142.223 339.821 141.913 340.131C141.603 340.441 141.22 340.596 140.764 340.595H137.534ZM127.847 340.595C127.389 340.595 127.006 340.44 126.697 340.13C126.388 339.82 126.233 339.437 126.232 338.98V316.375C126.232 315.918 126.387 315.535 126.697 315.226C127.007 314.917 127.39 314.762 127.847 314.761H131.076C131.533 314.761 131.917 314.916 132.227 315.226C132.537 315.536 132.692 315.919 132.69 316.375V338.98C132.69 339.438 132.535 339.821 132.225 340.131C131.915 340.441 131.532 340.596 131.076 340.595H127.847ZM118.159 340.595C117.701 340.595 117.318 340.44 117.009 340.13C116.7 339.82 116.545 339.437 116.544 338.98V324.448C116.544 323.991 116.699 323.608 117.009 323.299C117.319 322.99 117.702 322.835 118.159 322.834H121.388C121.846 322.834 122.229 322.989 122.539 323.299C122.849 323.609 123.004 323.992 123.003 324.448V338.98C123.003 339.438 122.848 339.821 122.538 340.131C122.228 340.441 121.844 340.596 121.388 340.595H118.159Z" stroke="url(#paint1_linear_1_2)" stroke-width="9.85006" mask="url(#path-32-inside-1_1_2)"/>
</g>
</g>
<g clip-path="url(#clip1_1_2)">
<rect x="171.441" y="305.072" width="45.2095" height="45.2095" rx="22.6047" fill="white"/>
<g filter="url(#filter6_d_1_2)">
<path d="M192.565 313.438V341.92C192.565 342.953 191.612 343.729 190.611 343.502C183.394 341.888 178.033 335.413 178.033 327.679C178.033 319.945 183.394 313.47 190.611 311.856C190.847 311.805 191.092 311.807 191.326 311.863C191.561 311.919 191.78 312.026 191.968 312.178C192.155 312.33 192.306 312.522 192.41 312.74C192.513 312.958 192.566 313.197 192.565 313.438ZM195.843 313.438V324.434C195.843 325.322 196.569 326.048 197.457 326.048H208.421C209.454 326.048 210.229 325.096 210.003 324.079C208.631 318.008 203.867 313.228 197.813 311.856C196.795 311.63 195.843 312.405 195.843 313.438ZM195.843 330.925V341.92C195.843 342.953 196.795 343.729 197.813 343.502C203.884 342.13 208.647 337.335 210.019 331.264C210.245 330.263 209.454 329.294 208.437 329.294H197.474C196.569 329.31 195.843 330.037 195.843 330.925Z" fill="url(#paint2_linear_1_2)"/>
</g>
</g>
<g clip-path="url(#clip2_1_2)">
<rect x="236.026" y="305.072" width="45.2095" height="45.2095" rx="22.6047" fill="white"/>
<g filter="url(#filter7_d_1_2)">
<mask id="path-36-inside-2_1_2" fill="white">
<path fill-rule="evenodd" clip-rule="evenodd" d="M254.63 312.337C255.152 312.345 255.657 312.521 256.071 312.839C256.485 313.158 256.784 313.601 256.926 314.104L262.189 332.817L264.435 326.827C264.608 326.365 264.918 325.967 265.323 325.686C265.729 325.405 266.21 325.254 266.704 325.254H271.548C272.19 325.254 272.806 325.509 273.26 325.964C273.714 326.418 273.97 327.034 273.97 327.676C273.97 328.319 273.714 328.935 273.26 329.389C272.806 329.843 272.19 330.098 271.548 330.098H268.383L264.128 341.444C263.949 341.922 263.624 342.332 263.198 342.614C262.772 342.896 262.268 343.037 261.758 343.015C261.248 342.994 260.757 342.811 260.357 342.494C259.956 342.178 259.666 341.742 259.528 341.25L254.471 323.268L252.87 328.396C252.716 328.889 252.409 329.321 251.993 329.627C251.577 329.933 251.074 330.098 250.557 330.098H245.714C245.071 330.098 244.455 329.843 244.001 329.389C243.547 328.935 243.292 328.319 243.292 327.676C243.292 327.034 243.547 326.418 244.001 325.964C244.455 325.509 245.071 325.254 245.714 325.254H248.777L252.282 314.037C252.438 313.539 252.75 313.104 253.173 312.797C253.596 312.491 254.107 312.33 254.63 312.337Z"/>
</mask>
<path fill-rule="evenodd" clip-rule="evenodd" d="M254.63 312.337C255.152 312.345 255.657 312.521 256.071 312.839C256.485 313.158 256.784 313.601 256.926 314.104L262.189 332.817L264.435 326.827C264.608 326.365 264.918 325.967 265.323 325.686C265.729 325.405 266.21 325.254 266.704 325.254H271.548C272.19 325.254 272.806 325.509 273.26 325.964C273.714 326.418 273.97 327.034 273.97 327.676C273.97 328.319 273.714 328.935 273.26 329.389C272.806 329.843 272.19 330.098 271.548 330.098H268.383L264.128 341.444C263.949 341.922 263.624 342.332 263.198 342.614C262.772 342.896 262.268 343.037 261.758 343.015C261.248 342.994 260.757 342.811 260.357 342.494C259.956 342.178 259.666 341.742 259.528 341.25L254.471 323.268L252.87 328.396C252.716 328.889 252.409 329.321 251.993 329.627C251.577 329.933 251.074 330.098 250.557 330.098H245.714C245.071 330.098 244.455 329.843 244.001 329.389C243.547 328.935 243.292 328.319 243.292 327.676C243.292 327.034 243.547 326.418 244.001 325.964C244.455 325.509 245.071 325.254 245.714 325.254H248.777L252.282 314.037C252.438 313.539 252.75 313.104 253.173 312.797C253.596 312.491 254.107 312.33 254.63 312.337Z" fill="#F9FAFC"/>
<path fill-rule="evenodd" clip-rule="evenodd" d="M254.63 312.337C255.152 312.345 255.657 312.521 256.071 312.839C256.485 313.158 256.784 313.601 256.926 314.104L262.189 332.817L264.435 326.827C264.608 326.365 264.918 325.967 265.323 325.686C265.729 325.405 266.21 325.254 266.704 325.254H271.548C272.19 325.254 272.806 325.509 273.26 325.964C273.714 326.418 273.97 327.034 273.97 327.676C273.97 328.319 273.714 328.935 273.26 329.389C272.806 329.843 272.19 330.098 271.548 330.098H268.383L264.128 341.444C263.949 341.922 263.624 342.332 263.198 342.614C262.772 342.896 262.268 343.037 261.758 343.015C261.248 342.994 260.757 342.811 260.357 342.494C259.956 342.178 259.666 341.742 259.528 341.25L254.471 323.268L252.87 328.396C252.716 328.889 252.409 329.321 251.993 329.627C251.577 329.933 251.074 330.098 250.557 330.098H245.714C245.071 330.098 244.455 329.843 244.001 329.389C243.547 328.935 243.292 328.319 243.292 327.676C243.292 327.034 243.547 326.418 244.001 325.964C244.455 325.509 245.071 325.254 245.714 325.254H248.777L252.282 314.037C252.438 313.539 252.75 313.104 253.173 312.797C253.596 312.491 254.107 312.33 254.63 312.337Z" stroke="url(#paint3_linear_1_2)" stroke-width="6.4585" mask="url(#path-36-inside-2_1_2)"/>
</g>
</g>
</g>
<g clip-path="url(#clip3_1_2)">
<rect x="159.123" y="112.052" width="69" height="52" rx="8.99905" fill="white"/>
<g filter="url(#filter8_d_1_2)">
<mask id="path-38-inside-3_1_2" fill="white">
<path d="M182.682 121.796H182.675C182.639 120.321 181.426 119.176 179.95 119.156V119.152H170.007V119.159C168.545 119.195 167.43 120.333 167.397 121.796H167.39V154.243H167.395C167.423 155.7 168.56 156.834 170.007 156.891V156.952H179.95C181.472 156.951 182.682 155.764 182.682 154.244V121.796ZM175.036 153.791C174.513 153.798 173.994 153.7 173.509 153.505C173.023 153.309 172.582 153.019 172.21 152.652C171.838 152.284 171.542 151.846 171.341 151.364C171.139 150.881 171.035 150.363 171.035 149.84C171.035 149.317 171.139 148.8 171.341 148.317C171.543 147.834 171.838 147.397 172.21 147.029C172.583 146.662 173.024 146.372 173.509 146.176C173.994 145.981 174.513 145.884 175.036 145.89C176.075 145.904 177.067 146.326 177.797 147.065C178.527 147.805 178.937 148.802 178.937 149.841C178.936 150.88 178.527 151.877 177.797 152.617C177.067 153.356 176.075 153.778 175.036 153.791ZM179.521 139.589H170.551V122.313H179.521V139.589ZM201.134 121.796H201.127C201.091 120.321 199.878 119.176 198.402 119.156V119.152H188.459V119.159C186.997 119.195 185.882 120.333 185.849 121.796H185.843V154.243H185.848C185.875 155.7 187.012 156.834 188.459 156.891V156.952H198.402C199.924 156.951 201.134 155.764 201.134 154.244V121.796ZM193.488 153.791C192.965 153.798 192.446 153.7 191.961 153.505C191.476 153.309 191.034 153.019 190.662 152.652C190.29 152.284 189.994 151.846 189.793 151.364C189.591 150.881 189.487 150.363 189.487 149.84C189.487 149.317 189.591 148.8 189.793 148.317C189.995 147.834 190.29 147.397 190.662 147.029C191.035 146.662 191.476 146.372 191.961 146.176C192.446 145.981 192.965 145.884 193.488 145.89C194.527 145.904 195.519 146.326 196.249 147.065C196.98 147.804 197.389 148.802 197.389 149.841C197.389 150.88 196.98 151.877 196.249 152.616C195.519 153.356 194.527 153.778 193.488 153.791ZM197.973 139.589H189.004V122.313H197.974L197.973 139.589ZM219.586 121.796H219.579C219.543 120.321 218.33 119.176 216.854 119.156V119.152H206.911V119.159C205.449 119.195 204.334 120.333 204.301 121.796H204.295V154.243H204.3C204.327 155.7 205.464 156.834 206.911 156.891V156.952H216.854C218.376 156.951 219.586 155.764 219.586 154.244V121.796ZM211.941 153.791C211.418 153.798 210.898 153.7 210.413 153.505C209.928 153.309 209.487 153.019 209.115 152.652C208.743 152.284 208.447 151.846 208.246 151.364C208.044 150.881 207.94 150.363 207.94 149.84C207.94 149.317 208.044 148.8 208.246 148.317C208.448 147.834 208.743 147.397 209.115 147.029C209.487 146.662 209.929 146.372 210.414 146.176C210.899 145.981 211.418 145.884 211.941 145.89C212.98 145.904 213.972 146.326 214.702 147.065C215.432 147.805 215.842 148.802 215.841 149.841C215.841 150.88 215.432 151.877 214.702 152.617C213.972 153.356 212.98 153.778 211.941 153.791ZM216.426 139.589H207.456V122.313H216.426V139.589Z"/>
</mask>
<path d="M182.682 121.796H182.675C182.639 120.321 181.426 119.176 179.95 119.156V119.152H170.007V119.159C168.545 119.195 167.43 120.333 167.397 121.796H167.39V154.243H167.395C167.423 155.7 168.56 156.834 170.007 156.891V156.952H179.95C181.472 156.951 182.682 155.764 182.682 154.244V121.796ZM175.036 153.791C174.513 153.798 173.994 153.7 173.509 153.505C173.023 153.309 172.582 153.019 172.21 152.652C171.838 152.284 171.542 151.846 171.341 151.364C171.139 150.881 171.035 150.363 171.035 149.84C171.035 149.317 171.139 148.8 171.341 148.317C171.543 147.834 171.838 147.397 172.21 147.029C172.583 146.662 173.024 146.372 173.509 146.176C173.994 145.981 174.513 145.884 175.036 145.89C176.075 145.904 177.067 146.326 177.797 147.065C178.527 147.805 178.937 148.802 178.937 149.841C178.936 150.88 178.527 151.877 177.797 152.617C177.067 153.356 176.075 153.778 175.036 153.791ZM179.521 139.589H170.551V122.313H179.521V139.589ZM201.134 121.796H201.127C201.091 120.321 199.878 119.176 198.402 119.156V119.152H188.459V119.159C186.997 119.195 185.882 120.333 185.849 121.796H185.843V154.243H185.848C185.875 155.7 187.012 156.834 188.459 156.891V156.952H198.402C199.924 156.951 201.134 155.764 201.134 154.244V121.796ZM193.488 153.791C192.965 153.798 192.446 153.7 191.961 153.505C191.476 153.309 191.034 153.019 190.662 152.652C190.29 152.284 189.994 151.846 189.793 151.364C189.591 150.881 189.487 150.363 189.487 149.84C189.487 149.317 189.591 148.8 189.793 148.317C189.995 147.834 190.29 147.397 190.662 147.029C191.035 146.662 191.476 146.372 191.961 146.176C192.446 145.981 192.965 145.884 193.488 145.89C194.527 145.904 195.519 146.326 196.249 147.065C196.98 147.804 197.389 148.802 197.389 149.841C197.389 150.88 196.98 151.877 196.249 152.616C195.519 153.356 194.527 153.778 193.488 153.791ZM197.973 139.589H189.004V122.313H197.974L197.973 139.589ZM219.586 121.796H219.579C219.543 120.321 218.33 119.176 216.854 119.156V119.152H206.911V119.159C205.449 119.195 204.334 120.333 204.301 121.796H204.295V154.243H204.3C204.327 155.7 205.464 156.834 206.911 156.891V156.952H216.854C218.376 156.951 219.586 155.764 219.586 154.244V121.796ZM211.941 153.791C211.418 153.798 210.898 153.7 210.413 153.505C209.928 153.309 209.487 153.019 209.115 152.652C208.743 152.284 208.447 151.846 208.246 151.364C208.044 150.881 207.94 150.363 207.94 149.84C207.94 149.317 208.044 148.8 208.246 148.317C208.448 147.834 208.743 147.397 209.115 147.029C209.487 146.662 209.929 146.372 210.414 146.176C210.899 145.981 211.418 145.884 211.941 145.89C212.98 145.904 213.972 146.326 214.702 147.065C215.432 147.805 215.842 148.802 215.841 149.841C215.841 150.88 215.432 151.877 214.702 152.617C213.972 153.356 212.98 153.778 211.941 153.791ZM216.426 139.589H207.456V122.313H216.426V139.589Z" fill="#F9FAFC"/>
<path d="M182.682 121.796H182.675C182.639 120.321 181.426 119.176 179.95 119.156V119.152H170.007V119.159C168.545 119.195 167.43 120.333 167.397 121.796H167.39V154.243H167.395C167.423 155.7 168.56 156.834 170.007 156.891V156.952H179.95C181.472 156.951 182.682 155.764 182.682 154.244V121.796ZM175.036 153.791C174.513 153.798 173.994 153.7 173.509 153.505C173.023 153.309 172.582 153.019 172.21 152.652C171.838 152.284 171.542 151.846 171.341 151.364C171.139 150.881 171.035 150.363 171.035 149.84C171.035 149.317 171.139 148.8 171.341 148.317C171.543 147.834 171.838 147.397 172.21 147.029C172.583 146.662 173.024 146.372 173.509 146.176C173.994 145.981 174.513 145.884 175.036 145.89C176.075 145.904 177.067 146.326 177.797 147.065C178.527 147.805 178.937 148.802 178.937 149.841C178.936 150.88 178.527 151.877 177.797 152.617C177.067 153.356 176.075 153.778 175.036 153.791ZM179.521 139.589H170.551V122.313H179.521V139.589ZM201.134 121.796H201.127C201.091 120.321 199.878 119.176 198.402 119.156V119.152H188.459V119.159C186.997 119.195 185.882 120.333 185.849 121.796H185.843V154.243H185.848C185.875 155.7 187.012 156.834 188.459 156.891V156.952H198.402C199.924 156.951 201.134 155.764 201.134 154.244V121.796ZM193.488 153.791C192.965 153.798 192.446 153.7 191.961 153.505C191.476 153.309 191.034 153.019 190.662 152.652C190.29 152.284 189.994 151.846 189.793 151.364C189.591 150.881 189.487 150.363 189.487 149.84C189.487 149.317 189.591 148.8 189.793 148.317C189.995 147.834 190.29 147.397 190.662 147.029C191.035 146.662 191.476 146.372 191.961 146.176C192.446 145.981 192.965 145.884 193.488 145.89C194.527 145.904 195.519 146.326 196.249 147.065C196.98 147.804 197.389 148.802 197.389 149.841C197.389 150.88 196.98 151.877 196.249 152.616C195.519 153.356 194.527 153.778 193.488 153.791ZM197.973 139.589H189.004V122.313H197.974L197.973 139.589ZM219.586 121.796H219.579C219.543 120.321 218.33 119.176 216.854 119.156V119.152H206.911V119.159C205.449 119.195 204.334 120.333 204.301 121.796H204.295V154.243H204.3C204.327 155.7 205.464 156.834 206.911 156.891V156.952H216.854C218.376 156.951 219.586 155.764 219.586 154.244V121.796ZM211.941 153.791C211.418 153.798 210.898 153.7 210.413 153.505C209.928 153.309 209.487 153.019 209.115 152.652C208.743 152.284 208.447 151.846 208.246 151.364C208.044 150.881 207.94 150.363 207.94 149.84C207.94 149.317 208.044 148.8 208.246 148.317C208.448 147.834 208.743 147.397 209.115 147.029C209.487 146.662 209.929 146.372 210.414 146.176C210.899 145.981 211.418 145.884 211.941 145.89C212.98 145.904 213.972 146.326 214.702 147.065C215.432 147.805 215.842 148.802 215.841 149.841C215.841 150.88 215.432 151.877 214.702 152.617C213.972 153.356 212.98 153.778 211.941 153.791ZM216.426 139.589H207.456V122.313H216.426V139.589Z" stroke="url(#paint4_linear_1_2)" stroke-width="6.86237" mask="url(#path-38-inside-3_1_2)"/>
</g>
</g>
<defs>
<filter id="filter0_d_1_2" x="51.8918" y="15.4975" width="70.3322" height="70.3322" filterUnits="userSpaceOnUse" color-interpolation-filters="sRGB">
<feFlood flood-opacity="0" result="BackgroundImageFix"/>
<feColorMatrix in="SourceAlpha" type="matrix" values="0 0 0 0 0 0 0 0 0 0 0 0 0 0 0 0 0 0 127 0" result="hardAlpha"/>
<feMorphology radius="2.9824" operator="dilate" in="SourceAlpha" result="effect1_dropShadow_1_2"/>
<feOffset/>
<feGaussianBlur stdDeviation="4.82155"/>
<feComposite in2="hardAlpha" operator="out"/>
<feColorMatrix type="matrix" values="0 0 0 0 0 0 0 0 0 0 0 0 0 0 0 0 0 0 0.05 0"/>
<feBlend mode="normal" in2="BackgroundImageFix" result="effect1_dropShadow_1_2"/>
<feBlend mode="normal" in="SourceGraphic" in2="effect1_dropShadow_1_2" result="shape"/>
</filter>
<filter id="filter1_d_1_2" x="122.845" y="15.4977" width="70.3322" height="70.3322" filterUnits="userSpaceOnUse" color-interpolation-filters="sRGB">
<feFlood flood-opacity="0" result="BackgroundImageFix"/>
<feColorMatrix in="SourceAlpha" type="matrix" values="0 0 0 0 0 0 0 0 0 0 0 0 0 0 0 0 0 0 127 0" result="hardAlpha"/>
<feMorphology radius="2.9824" operator="dilate" in="SourceAlpha" result="effect1_dropShadow_1_2"/>
<feOffset/>
<feGaussianBlur stdDeviation="4.82155"/>
<feComposite in2="hardAlpha" operator="out"/>
<feColorMatrix type="matrix" values="0 0 0 0 0 0 0 0 0 0 0 0 0 0 0 0 0 0 0.05 0"/>
<feBlend mode="normal" in2="BackgroundImageFix" result="effect1_dropShadow_1_2"/>
<feBlend mode="normal" in="SourceGraphic" in2="effect1_dropShadow_1_2" result="shape"/>
</filter>
<filter id="filter2_d_1_2" x="193.799" y="15.4975" width="70.3322" height="70.3322" filterUnits="userSpaceOnUse" color-interpolation-filters="sRGB">
<feFlood flood-opacity="0" result="BackgroundImageFix"/>
<feColorMatrix in="SourceAlpha" type="matrix" values="0 0 0 0 0 0 0 0 0 0 0 0 0 0 0 0 0 0 127 0" result="hardAlpha"/>
<feMorphology radius="2.9824" operator="dilate" in="SourceAlpha" result="effect1_dropShadow_1_2"/>
<feOffset/>
<feGaussianBlur stdDeviation="4.82155"/>
<feComposite in2="hardAlpha" operator="out"/>
<feColorMatrix type="matrix" values="0 0 0 0 0 0 0 0 0 0 0 0 0 0 0 0 0 0 0.05 0"/>
<feBlend mode="normal" in2="BackgroundImageFix" result="effect1_dropShadow_1_2"/>
<feBlend mode="normal" in="SourceGraphic" in2="effect1_dropShadow_1_2" result="shape"/>
</filter>
<filter id="filter3_d_1_2" x="264.752" y="15.4977" width="70.3322" height="70.3322" filterUnits="userSpaceOnUse" color-interpolation-filters="sRGB">
<feFlood flood-opacity="0" result="BackgroundImageFix"/>
<feColorMatrix in="SourceAlpha" type="matrix" values="0 0 0 0 0 0 0 0 0 0 0 0 0 0 0 0 0 0 127 0" result="hardAlpha"/>
<feMorphology radius="2.9824" operator="dilate" in="SourceAlpha" result="effect1_dropShadow_1_2"/>
<feOffset/>
<feGaussianBlur stdDeviation="4.82155"/>
<feComposite in2="hardAlpha" operator="out"/>
<feColorMatrix type="matrix" values="0 0 0 0 0 0 0 0 0 0 0 0 0 0 0 0 0 0 0.05 0"/>
<feBlend mode="normal" in2="BackgroundImageFix" result="effect1_dropShadow_1_2"/>
<feBlend mode="normal" in="SourceGraphic" in2="effect1_dropShadow_1_2" result="shape"/>
</filter>
<filter id="filter4_d_1_2" x="24.3613" y="122.055" width="340.516" height="240.476" filterUnits="userSpaceOnUse" color-interpolation-filters="sRGB">
<feFlood flood-opacity="0" result="BackgroundImageFix"/>
<feColorMatrix in="SourceAlpha" type="matrix" values="0 0 0 0 0 0 0 0 0 0 0 0 0 0 0 0 0 0 127 0" result="hardAlpha"/>
<feOffset dx="0.995917" dy="1.99183"/>
<feGaussianBlur stdDeviation="5.12897"/>
<feComposite in2="hardAlpha" operator="out"/>
<feColorMatrix type="matrix" values="0 0 0 0 0 0 0 0 0 0 0 0 0 0 0 0 0 0 0.25 0"/>
<feBlend mode="normal" in2="BackgroundImageFix" result="effect1_dropShadow_1_2"/>
<feBlend mode="normal" in="SourceGraphic" in2="effect1_dropShadow_1_2" result="shape"/>
</filter>
<filter id="filter5_d_1_2" x="95.6949" y="293.911" width="67.5326" height="67.5326" filterUnits="userSpaceOnUse" color-interpolation-filters="sRGB">
<feFlood flood-opacity="0" result="BackgroundImageFix"/>
<feColorMatrix in="SourceAlpha" type="matrix" values="0 0 0 0 0 0 0 0 0 0 0 0 0 0 0 0 0 0 127 0" result="hardAlpha"/>
<feMorphology radius="4.92503" operator="dilate" in="SourceAlpha" result="effect1_dropShadow_1_2"/>
<feOffset/>
<feGaussianBlur stdDeviation="7.96213"/>
<feComposite in2="hardAlpha" operator="out"/>
<feColorMatrix type="matrix" values="0 0 0 0 0 0 0 0 0 0 0 0 0 0 0 0 0 0 0.05 0"/>
<feBlend mode="normal" in2="BackgroundImageFix" result="effect1_dropShadow_1_2"/>
<feBlend mode="normal" in="SourceGraphic" in2="effect1_dropShadow_1_2" result="shape"/>
</filter>
<filter id="filter6_d_1_2" x="157.184" y="290.967" width="73.7231" height="73.4241" filterUnits="userSpaceOnUse" color-interpolation-filters="sRGB">
<feFlood flood-opacity="0" result="BackgroundImageFix"/>
<feColorMatrix in="SourceAlpha" type="matrix" values="0 0 0 0 0 0 0 0 0 0 0 0 0 0 0 0 0 0 127 0" result="hardAlpha"/>
<feMorphology radius="4.92503" operator="dilate" in="SourceAlpha" result="effect1_dropShadow_1_2"/>
<feOffset/>
<feGaussianBlur stdDeviation="7.96213"/>
<feComposite in2="hardAlpha" operator="out"/>
<feColorMatrix type="matrix" values="0 0 0 0 0 0 0 0 0 0 0 0 0 0 0 0 0 0 0.05 0"/>
<feBlend mode="normal" in2="BackgroundImageFix" result="effect1_dropShadow_1_2"/>
<feBlend mode="normal" in="SourceGraphic" in2="effect1_dropShadow_1_2" result="shape"/>
</filter>
<filter id="filter7_d_1_2" x="222.442" y="291.488" width="72.3764" height="72.3789" filterUnits="userSpaceOnUse" color-interpolation-filters="sRGB">
<feFlood flood-opacity="0" result="BackgroundImageFix"/>
<feColorMatrix in="SourceAlpha" type="matrix" values="0 0 0 0 0 0 0 0 0 0 0 0 0 0 0 0 0 0 127 0" result="hardAlpha"/>
<feMorphology radius="4.92503" operator="dilate" in="SourceAlpha" result="effect1_dropShadow_1_2"/>
<feOffset/>
<feGaussianBlur stdDeviation="7.96213"/>
<feComposite in2="hardAlpha" operator="out"/>
<feColorMatrix type="matrix" values="0 0 0 0 0 0 0 0 0 0 0 0 0 0 0 0 0 0 0.05 0"/>
<feBlend mode="normal" in2="BackgroundImageFix" result="effect1_dropShadow_1_2"/>
<feBlend mode="normal" in="SourceGraphic" in2="effect1_dropShadow_1_2" result="shape"/>
</filter>
<filter id="filter8_d_1_2" x="152.865" y="104.627" width="81.2467" height="66.8504" filterUnits="userSpaceOnUse" color-interpolation-filters="sRGB">
<feFlood flood-opacity="0" result="BackgroundImageFix"/>
<feColorMatrix in="SourceAlpha" type="matrix" values="0 0 0 0 0 0 0 0 0 0 0 0 0 0 0 0 0 0 127 0" result="hardAlpha"/>
<feMorphology radius="3.43118" operator="dilate" in="SourceAlpha" result="effect1_dropShadow_1_2"/>
<feOffset/>
<feGaussianBlur stdDeviation="5.54708"/>
<feComposite in2="hardAlpha" operator="out"/>
<feColorMatrix type="matrix" values="0 0 0 0 0 0 0 0 0 0 0 0 0 0 0 0 0 0 0.05 0"/>
<feBlend mode="normal" in2="BackgroundImageFix" result="effect1_dropShadow_1_2"/>
<feBlend mode="normal" in="SourceGraphic" in2="effect1_dropShadow_1_2" result="shape"/>
</filter>
<linearGradient id="paint0_linear_1_2" x1="193.623" y1="132.821" x2="193.623" y2="327.821" gradientUnits="userSpaceOnUse">
<stop stop-color="#02D7FD"/>
<stop offset="1" stop-color="#32F7BA"/>
</linearGradient>
<linearGradient id="paint1_linear_1_2" x1="116.544" y1="327.678" x2="142.378" y2="327.678" gradientUnits="userSpaceOnUse">
<stop stop-color="#00D6FF"/>
<stop offset="1" stop-color="#32F8B9"/>
</linearGradient>
<linearGradient id="paint2_linear_1_2" x1="178.033" y1="327.679" x2="210.058" y2="327.679" gradientUnits="userSpaceOnUse">
<stop stop-color="#00D6FF"/>
<stop offset="1" stop-color="#32F8B9"/>
</linearGradient>
<linearGradient id="paint3_linear_1_2" x1="243.292" y1="327.677" x2="273.97" y2="327.677" gradientUnits="userSpaceOnUse">
<stop stop-color="#00D6FF"/>
<stop offset="1" stop-color="#32F8B9"/>
</linearGradient>
<linearGradient id="paint4_linear_1_2" x1="167.39" y1="138.052" x2="219.586" y2="138.052" gradientUnits="userSpaceOnUse">
<stop stop-color="#00D6FF"/>
<stop offset="1" stop-color="#32F8B9"/>
</linearGradient>
<clipPath id="clip0_1_2">
<rect x="106.856" y="305.072" width="45.2095" height="45.2095" rx="22.6047" fill="white"/>
</clipPath>
<clipPath id="clip1_1_2">
<rect x="171.441" y="305.072" width="45.2095" height="45.2095" rx="22.6047" fill="white"/>
</clipPath>
<clipPath id="clip2_1_2">
<rect x="236.026" y="305.072" width="45.2095" height="45.2095" rx="22.6047" fill="white"/>
</clipPath>
<clipPath id="clip3_1_2">
<rect x="159.123" y="112.052" width="69" height="52" rx="8.99905" fill="white"/>
</clipPath>
</defs>
</svg>
