<svg width="388" height="388" viewBox="0 0 388 388" fill="none" xmlns="http://www.w3.org/2000/svg">
<g clip-path="url(#clip0_5714_21372)">
<rect x="0.875" y="0.790039" width="387" height="387" rx="16" fill="#E8F7FE" style="mix-blend-mode:multiply"/>
<path d="M194.375 27.9131L214.84 0.790039H173.91L194.375 27.9131Z" fill="#96FF5B" fill-opacity="0.64"/>
<path d="M193.965 112.144L198.592 104.13H189.339L193.965 112.144ZM88.2412 50.9775H87.4398V52.6191H88.2412H89.0426V50.9775H88.2412ZM88.2412 55.9023H87.4398V59.1855H88.2412H89.0426V55.9023H88.2412ZM88.2412 62.4687H87.4398V65.7519H88.2412H89.0426V62.4687H88.2412ZM88.2412 69.0351H87.4398V72.3183H88.2412H89.0426V69.0351H88.2412ZM88.2412 75.6014H87.4398V78.8846H88.2412H89.0426V75.6014H88.2412ZM88.2412 82.1678H87.4398V83.8094H88.2412H89.0426V82.1678H88.2412ZM88.2412 83.8094H87.4398C87.4398 84.4629 87.5039 85.1022 87.6264 85.7212L88.4125 85.5657L89.1986 85.4102C89.0963 84.8931 89.0426 84.3579 89.0426 83.8094H88.2412ZM89.757 88.8094L89.0911 89.2552C89.8063 90.3236 90.726 91.2433 91.7944 91.9586L92.2402 91.2927L92.6861 90.6268C91.7917 90.0281 91.0216 89.2579 90.4229 88.3636L89.757 88.8094ZM95.484 92.6372L95.3285 93.4233C95.9474 93.5457 96.5868 93.6098 97.2403 93.6098V92.8085V92.0071C96.6918 92.0071 96.1566 91.9533 95.6395 91.851L95.484 92.6372ZM97.2403 92.8085V93.6098H98.8068V92.8085V92.0071H97.2403V92.8085ZM101.94 92.8085V93.6098H105.073V92.8085V92.0071H101.94V92.8085ZM108.206 92.8085V93.6098H111.339V92.8085V92.0071H108.206V92.8085ZM114.472 92.8085V93.6098H117.605V92.8085V92.0071H114.472V92.8085ZM120.738 92.8085V93.6098H123.871V92.8085V92.0071H120.738V92.8085ZM127.004 92.8085V93.6098H130.137V92.8085V92.0071H127.004V92.8085ZM133.271 92.8085V93.6098H136.404V92.8085V92.0071H133.271V92.8085ZM139.537 92.8085V93.6098H142.67V92.8085V92.0071H139.537V92.8085ZM145.803 92.8085V93.6098H148.936V92.8085V92.0071H145.803V92.8085ZM152.069 92.8085V93.6098H155.202V92.8085V92.0071H152.069V92.8085ZM158.335 92.8085V93.6098H161.468V92.8085V92.0071H158.335V92.8085ZM164.601 92.8085V93.6098H167.734V92.8085V92.0071H164.601V92.8085ZM170.867 92.8085V93.6098H174V92.8085V92.0071H170.867V92.8085ZM177.134 92.8085V93.6098H180.267V92.8085V92.0071H177.134V92.8085ZM183.4 92.8085V93.6098H184.966V92.8085V92.0071H183.4V92.8085ZM184.966 92.8085V93.6098C185.515 93.6098 186.05 93.6636 186.567 93.7659L186.722 92.9797L186.878 92.1936C186.259 92.0712 185.62 92.0071 184.966 92.0071V92.8085ZM189.966 94.3242L189.52 94.9901C190.415 95.5888 191.185 96.359 191.784 97.2533L192.449 96.8075L193.115 96.3617C192.4 95.2933 191.48 94.3736 190.412 93.6583L189.966 94.3242ZM193.794 100.051L193.008 100.207C193.11 100.724 193.164 101.259 193.164 101.808H193.965H194.767C194.767 101.154 194.703 100.515 194.58 99.8957L193.794 100.051ZM193.965 101.808H193.164V103.1H193.965H194.767V101.808H193.965ZM193.965 105.684H193.164V108.268H193.965H194.767V105.684H193.965Z" fill="#04D8FB"/>
<path d="M193.965 112.144L198.592 104.13H189.339L193.965 112.144ZM157.509 50.9775H156.707V52.6191H157.509H158.31V50.9775H157.509ZM157.509 55.9023H156.707V59.1855H157.509H158.31V55.9023H157.509ZM157.509 62.4687H156.707V65.7519H157.509H158.31V62.4687H157.509ZM157.509 69.0351H156.707V72.3183H157.509H158.31V69.0351H157.509ZM157.509 75.6014H156.707V78.8846H157.509H158.31V75.6014H157.509ZM157.509 82.1678H156.707V83.8094H157.509H158.31V82.1678H157.509ZM157.509 83.8094H156.707C156.707 84.4629 156.772 85.1022 156.894 85.7212L157.68 85.5657L158.466 85.4102C158.364 84.8931 158.31 84.3579 158.31 83.8094H157.509ZM159.025 88.8094L158.359 89.2552C159.074 90.3236 159.994 91.2433 161.062 91.9586L161.508 91.2927L161.954 90.6268C161.059 90.0281 160.289 89.2579 159.69 88.3636L159.025 88.8094ZM164.752 92.6372L164.596 93.4233C165.215 93.5457 165.854 93.6098 166.508 93.6098V92.8085V92.0071C165.959 92.0071 165.424 91.9533 164.907 91.851L164.752 92.6372ZM166.508 92.8085V93.6098H168.046V92.8085V92.0071H166.508V92.8085ZM171.122 92.8085V93.6098H174.199V92.8085V92.0071H171.122V92.8085ZM177.275 92.8085V93.6098H180.352V92.8085V92.0071H177.275V92.8085ZM183.428 92.8085V93.6098H184.966V92.8085V92.0071H183.428V92.8085ZM184.966 92.8085V93.6098C185.515 93.6098 186.05 93.6636 186.567 93.7659L186.723 92.9797L186.878 92.1936C186.259 92.0712 185.62 92.0071 184.966 92.0071V92.8085ZM189.966 94.3242L189.52 94.9901C190.415 95.5888 191.185 96.359 191.784 97.2533L192.45 96.8075L193.115 96.3617C192.4 95.2933 191.48 94.3736 190.412 93.6583L189.966 94.3242ZM193.794 100.051L193.008 100.207C193.11 100.724 193.164 101.259 193.164 101.808H193.965H194.767C194.767 101.154 194.703 100.515 194.58 99.8957L193.794 100.051ZM193.965 101.808H193.164V103.1H193.965H194.767V101.808H193.965ZM193.965 105.684H193.164V108.268H193.965H194.767V105.684H193.965Z" fill="#04D8FB"/>
<path d="M193.965 112.144L189.339 104.13H198.592L193.965 112.144ZM228.676 50.9775H229.477V52.6191H228.676H227.874V50.9775H228.676ZM228.676 55.9023H229.477V59.1855H228.676H227.874V55.9023H228.676ZM228.676 62.4687H229.477V65.7519H228.676H227.874V62.4687H228.676ZM228.676 69.0351H229.477V72.3183H228.676H227.874V69.0351H228.676ZM228.676 75.6014H229.477V78.8846H228.676H227.874V75.6014H228.676ZM228.676 82.1678H229.477V83.8094H228.676H227.874V82.1678H228.676ZM228.676 83.8094H229.477C229.477 84.4629 229.413 85.1022 229.291 85.7212L228.504 85.5657L227.718 85.4102C227.821 84.8931 227.874 84.3579 227.874 83.8094H228.676ZM227.16 88.8094L227.826 89.2552C227.111 90.3236 226.191 91.2433 225.123 91.9586L224.677 91.2927L224.231 90.6268C225.125 90.0281 225.895 89.2579 226.494 88.3636L227.16 88.8094ZM221.433 92.6372L221.589 93.4233C220.97 93.5457 220.33 93.6098 219.677 93.6098V92.8085V92.0071C220.225 92.0071 220.76 91.9533 221.277 91.851L221.433 92.6372ZM219.677 92.8085V93.6098H218.284V92.8085V92.0071H219.677V92.8085ZM215.499 92.8085V93.6098H212.713V92.8085V92.0071H215.499V92.8085ZM209.928 92.8085V93.6098H207.143V92.8085V92.0071H209.928V92.8085ZM204.357 92.8085V93.6098H202.964V92.8085V92.0071H204.357V92.8085ZM202.964 92.8085V93.6098C202.416 93.6098 201.881 93.6636 201.364 93.7659L201.208 92.9797L201.053 92.1936C201.672 92.0712 202.311 92.0071 202.964 92.0071V92.8085ZM197.964 94.3242L198.41 94.9901C197.516 95.5888 196.746 96.359 196.147 97.2533L195.481 96.8075L194.815 96.3617C195.531 95.2933 196.45 94.3736 197.519 93.6583L197.964 94.3242ZM194.137 100.051L194.923 100.207C194.821 100.724 194.767 101.259 194.767 101.808H193.965H193.164C193.164 101.154 193.228 100.515 193.351 99.8957L194.137 100.051ZM193.965 101.808H194.767V103.1H193.965H193.164V101.808H193.965ZM193.965 105.684H194.767V108.268H193.965H193.164V105.684H193.965Z" fill="#04D8FB"/>
<path d="M193.966 112.144L189.339 104.13H198.592L193.966 112.144ZM302.525 50.9775H303.327V52.6191H302.525H301.724V50.9775H302.525ZM302.525 55.9023H303.327V59.1855H302.525H301.724V55.9023H302.525ZM302.525 62.4687H303.327V65.7519H302.525H301.724V62.4687H302.525ZM302.525 69.0351H303.327V72.3183H302.525H301.724V69.0351H302.525ZM302.525 75.6014H303.327V78.8846H302.525H301.724V75.6014H302.525ZM302.525 82.1678H303.327V83.8094H302.525H301.724V82.1678H302.525ZM302.525 83.8094H303.327C303.327 84.4629 303.263 85.1022 303.14 85.7212L302.354 85.5657L301.568 85.4102C301.67 84.8931 301.724 84.3579 301.724 83.8094H302.525ZM301.01 88.8094L301.676 89.2552C300.96 90.3236 300.041 91.2433 298.972 91.9586L298.526 91.2927L298.081 90.6268C298.975 90.0281 299.745 89.2579 300.344 88.3636L301.01 88.8094ZM295.283 92.6372L295.438 93.4233C294.819 93.5457 294.18 93.6098 293.526 93.6098V92.8085V92.0071C294.075 92.0071 294.61 91.9533 295.127 91.851L295.283 92.6372ZM293.526 92.8085V93.6098H291.909V92.8085V92.0071H293.526V92.8085ZM288.675 92.8085V93.6098H285.44V92.8085V92.0071H288.675V92.8085ZM282.206 92.8085V93.6098H278.972V92.8085V92.0071H282.206V92.8085ZM275.737 92.8085V93.6098H272.503V92.8085V92.0071H275.737V92.8085ZM269.269 92.8085V93.6098H266.034V92.8085V92.0071H269.269V92.8085ZM262.8 92.8085V93.6098H259.566V92.8085V92.0071H262.8V92.8085ZM256.331 92.8085V93.6098H253.097V92.8085V92.0071H256.331V92.8085ZM249.863 92.8085V93.6098H246.628V92.8085V92.0071H249.863V92.8085ZM243.394 92.8085V93.6098H240.16V92.8085V92.0071H243.394V92.8085ZM236.925 92.8085V93.6098H233.691V92.8085V92.0071H236.925V92.8085ZM230.457 92.8085V93.6098H227.222V92.8085V92.0071H230.457V92.8085ZM223.988 92.8085V93.6098H220.754V92.8085V92.0071H223.988V92.8085ZM217.519 92.8085V93.6098H214.285V92.8085V92.0071H217.519V92.8085ZM211.05 92.8085V93.6098H207.816V92.8085V92.0071H211.05V92.8085ZM204.582 92.8085V93.6098H202.965V92.8085V92.0071H204.582V92.8085ZM202.965 92.8085V93.6098C202.416 93.6098 201.881 93.6636 201.364 93.7659L201.208 92.9797L201.053 92.1936C201.672 92.0712 202.311 92.0071 202.965 92.0071V92.8085ZM197.965 94.3242L198.41 94.9901C197.516 95.5888 196.746 96.359 196.147 97.2533L195.481 96.8075L194.815 96.3617C195.531 95.2933 196.45 94.3736 197.519 93.6583L197.965 94.3242ZM194.137 100.051L194.923 100.207C194.821 100.724 194.767 101.259 194.767 101.808H193.966H193.164C193.164 101.154 193.228 100.515 193.351 99.8957L194.137 100.051ZM193.966 101.808H194.767V103.1H193.966H193.164V101.808H193.966ZM193.966 105.684H194.767V108.268H193.966H193.164V105.684H193.966Z" fill="#04D8FB"/>
<g filter="url(#filter0_d_5714_21372)">
<rect x="65.3965" y="28.2148" width="45.0811" height="45.0811" rx="22.5406" fill="#FDFDFD"/>
<rect x="66.2313" y="29.0497" width="43.4115" height="43.4115" rx="21.7057" stroke="#00D6FF" stroke-opacity="0.24" stroke-width="1.66967"/>
<path d="M81.7816 55.2052L75.7028 51.2681V49.6617L81.7816 45.7247V47.8192L77.6083 50.4334V50.4964L81.7816 53.1106V55.2052ZM84.0118 58.2131L89.193 44.512H91.13L85.9488 58.2131H84.0118ZM93.3601 55.2052V53.1106L97.5334 50.4964V50.4334L93.3601 47.8192V45.7247L99.439 49.6617V51.2681L93.3601 55.2052Z" fill="black"/>
</g>
<g filter="url(#filter1_d_5714_21372)">
<rect x="136.35" y="28.2148" width="45.0811" height="45.0811" rx="22.5406" fill="#FDFDFD"/>
<rect x="137.184" y="29.0497" width="43.4115" height="43.4115" rx="21.7057" stroke="#00D6FF" stroke-opacity="0.24" stroke-width="1.66967"/>
<path d="M154.422 55.2052L148.343 51.2681V49.6617L154.422 45.7247V47.8192L150.249 50.4334V50.4964L154.422 53.1106V55.2052ZM163.166 55.2052V53.1106L167.339 50.4964V50.4334L163.166 47.8192V45.7247L169.245 49.6617V51.2681L163.166 55.2052Z" fill="black"/>
</g>
<g filter="url(#filter2_d_5714_21372)">
<rect x="207.304" y="28.2148" width="45.0811" height="45.0811" rx="22.5406" fill="#FDFDFD"/>
<rect x="208.139" y="29.0497" width="43.4115" height="43.4115" rx="21.7057" stroke="#00D6FF" stroke-opacity="0.24" stroke-width="1.66967"/>
<path d="M223.689 55.2052L217.61 51.2681V49.6617L223.689 45.7247V47.8192L219.516 50.4334V50.4964L223.689 53.1106V55.2052ZM225.919 58.2131L231.1 44.512H233.037L227.856 58.2131H225.919ZM235.267 55.2052V53.1106L239.441 50.4964V50.4334L235.267 47.8192V45.7247L241.346 49.6617V51.2681L235.267 55.2052Z" fill="black"/>
</g>
<g filter="url(#filter3_d_5714_21372)">
<rect x="278.257" y="28.2148" width="45.0811" height="45.0811" rx="22.5406" fill="#FDFDFD"/>
<rect x="279.092" y="29.0497" width="43.4115" height="43.4115" rx="21.7057" stroke="#00D6FF" stroke-opacity="0.24" stroke-width="1.66967"/>
<path d="M292.779 55.2052V53.1106L296.952 50.4964V50.4334L292.779 47.8192V45.7247L298.858 49.6617V51.2681L292.779 55.2052ZM301.151 58.2761V56.5438H308.71V58.2761H301.151Z" fill="black"/>
</g>
<g filter="url(#filter4_d_5714_21372)">
<rect x="37.002" y="132.913" width="315" height="195" rx="30.0615" fill="#111214" shape-rendering="crispEdges"/>
<rect x="37.002" y="132.913" width="315" height="195" rx="30.0615" stroke="url(#paint0_linear_5714_21372)" stroke-width="5" shape-rendering="crispEdges"/>
<path d="M75.9774 174.949C75.0082 174.949 74.289 174.796 73.8198 174.49C73.3607 174.194 73.1312 173.643 73.1312 172.837C73.1312 172.47 73.1414 172.144 73.1618 171.858C73.1924 171.562 73.2179 171.271 73.2383 170.986C73.2689 170.7 73.2842 170.389 73.2842 170.052C73.2842 169.869 73.223 169.69 73.1006 169.517C72.9781 169.343 72.7588 169.2 72.4426 169.088C72.1365 168.966 71.6979 168.905 71.1266 168.905V167.833C71.6979 167.833 72.1365 167.777 72.4426 167.665C72.7588 167.543 72.9781 167.395 73.1006 167.221C73.223 167.048 73.2842 166.869 73.2842 166.686C73.2842 166.359 73.2689 166.053 73.2383 165.768C73.2179 165.472 73.1924 165.176 73.1618 164.88C73.1414 164.584 73.1312 164.258 73.1312 163.901C73.1312 163.095 73.3607 162.544 73.8198 162.248C74.289 161.942 75.0082 161.789 75.9774 161.789H77.0332V162.753H76.3293C75.86 162.753 75.4979 162.794 75.2429 162.876C74.998 162.947 74.8297 163.075 74.7379 163.258C74.6461 163.432 74.6002 163.671 74.6002 163.977C74.6002 164.396 74.6104 164.824 74.6308 165.263C74.6614 165.691 74.6767 166.14 74.6767 166.609C74.6767 167.15 74.5696 167.553 74.3553 167.818C74.1411 168.073 73.7637 168.247 73.223 168.338V168.4C73.7637 168.491 74.1411 168.67 74.3553 168.935C74.5696 169.19 74.6767 169.588 74.6767 170.129C74.6767 170.618 74.6614 171.072 74.6308 171.491C74.6104 171.899 74.6002 172.322 74.6002 172.761C74.6002 173.067 74.6461 173.307 74.7379 173.48C74.8297 173.664 74.998 173.791 75.2429 173.863C75.4979 173.944 75.86 173.985 76.3293 173.985H77.0332V174.949H75.9774Z" fill="#D09A66"/>
<path d="M71.5244 188.549L71.0654 185.014L71.0195 183.056H73.1618L73.1159 185.014L72.6568 188.549H71.5244ZM75.3194 188.549L74.8603 185.014L74.8144 183.056H76.9567L76.9108 185.014L76.4517 188.549H75.3194ZM81.6943 193.736C80.817 193.736 80.1794 193.471 79.7816 192.941C79.3837 192.41 79.1848 191.66 79.1848 190.691V186.039H80.9445V190.462C80.9445 191.064 81.0466 191.507 81.2506 191.793C81.4648 192.079 81.8321 192.221 82.3523 192.221C82.6992 192.221 83.0154 192.14 83.3011 191.977C83.5969 191.803 83.908 191.512 84.2345 191.104V186.039H85.9942V193.553H84.5558L84.4181 192.359H84.3569C83.9999 192.767 83.6071 193.099 83.1786 193.354C82.7502 193.609 82.2554 193.736 81.6943 193.736ZM88.0846 193.553V186.039H89.5383L89.676 187.172H89.7373C90.0943 186.805 90.4871 186.493 90.9155 186.238C91.3542 185.983 91.8642 185.856 92.4457 185.856C93.3128 185.856 93.9504 186.121 94.3585 186.652C94.7665 187.182 94.9706 187.932 94.9706 188.901V193.553H93.1955V189.13C93.1955 188.529 93.0884 188.085 92.8742 187.799C92.66 187.514 92.2978 187.371 91.7877 187.371C91.4205 187.371 91.094 187.457 90.8084 187.631C90.5228 187.804 90.2065 188.069 89.8597 188.427V193.553H88.0846ZM100.091 193.553V187.432H96.8314V186.039H101.851V193.553H100.091ZM100.841 184.662C100.484 184.662 100.183 184.555 99.9378 184.341C99.7031 184.127 99.5858 183.841 99.5858 183.484C99.5858 183.127 99.7031 182.841 99.9378 182.627C100.183 182.403 100.484 182.29 100.841 182.29C101.208 182.29 101.509 182.403 101.743 182.627C101.978 182.841 102.095 183.127 102.095 183.484C102.095 183.841 101.978 184.127 101.743 184.341C101.509 184.555 101.208 184.662 100.841 184.662ZM110.245 193.736C109.48 193.736 108.873 193.604 108.424 193.339C107.976 193.063 107.654 192.686 107.46 192.206C107.267 191.727 107.17 191.171 107.17 190.538V187.432H105.165V186.116L107.246 186.039L107.476 183.683H108.929V186.039H112.357V187.432H108.929V190.523C108.929 190.931 108.986 191.273 109.098 191.548C109.21 191.813 109.394 192.012 109.649 192.145C109.904 192.267 110.24 192.329 110.659 192.329C110.985 192.329 111.281 192.303 111.546 192.252C111.811 192.201 112.066 192.13 112.311 192.038L112.648 193.308C112.311 193.42 111.949 193.517 111.561 193.599C111.174 193.69 110.735 193.736 110.245 193.736ZM113.897 195.879V194.501H121.242V195.879H113.897ZM127.678 193.736C126.913 193.736 126.306 193.604 125.857 193.339C125.408 193.063 125.087 192.686 124.893 192.206C124.699 191.727 124.602 191.171 124.602 190.538V187.432H122.597V186.116L124.679 186.039L124.908 183.683H126.362V186.039H129.789V187.432H126.362V190.523C126.362 190.931 126.418 191.273 126.53 191.548C126.642 191.813 126.826 192.012 127.081 192.145C127.336 192.267 127.673 192.329 128.091 192.329C128.417 192.329 128.713 192.303 128.978 192.252C129.244 192.201 129.499 192.13 129.744 192.038L130.08 193.308C129.744 193.42 129.381 193.517 128.994 193.599C128.606 193.69 128.167 193.736 127.678 193.736ZM135.461 193.736C134.695 193.736 134.002 193.583 133.379 193.277C132.757 192.961 132.262 192.512 131.895 191.931C131.528 191.339 131.344 190.625 131.344 189.788C131.344 188.972 131.528 188.274 131.895 187.692C132.262 187.1 132.742 186.646 133.334 186.33C133.925 186.014 134.558 185.856 135.231 185.856C135.976 185.856 136.603 186.009 137.113 186.315C137.633 186.621 138.026 187.044 138.291 187.585C138.567 188.115 138.705 188.727 138.705 189.421C138.705 189.595 138.694 189.763 138.674 189.926C138.664 190.079 138.648 190.207 138.628 190.309H132.614V189.054H137.496L137.159 189.452C137.159 188.707 136.991 188.151 136.654 187.784C136.328 187.406 135.869 187.218 135.277 187.218C134.859 187.218 134.481 187.315 134.145 187.508C133.818 187.702 133.558 187.993 133.364 188.381C133.17 188.758 133.073 189.227 133.073 189.788C133.073 190.37 133.181 190.849 133.395 191.227C133.619 191.604 133.925 191.89 134.313 192.084C134.711 192.278 135.17 192.374 135.69 192.374C136.088 192.374 136.455 192.318 136.792 192.206C137.128 192.094 137.465 191.941 137.802 191.747L138.399 192.849C138.001 193.104 137.552 193.318 137.052 193.492C136.552 193.655 136.022 193.736 135.461 193.736ZM143.764 193.736C143.06 193.736 142.386 193.624 141.744 193.4C141.101 193.165 140.545 192.89 140.076 192.573L140.841 191.456C141.29 191.752 141.774 191.987 142.295 192.16C142.815 192.323 143.381 192.405 143.993 192.405C144.513 192.405 144.896 192.318 145.141 192.145C145.396 191.961 145.523 191.747 145.523 191.502C145.523 191.38 145.493 191.268 145.432 191.166C145.381 191.064 145.284 190.972 145.141 190.89C144.998 190.798 144.789 190.712 144.513 190.63C144.238 190.548 143.881 190.462 143.442 190.37C142.443 190.156 141.708 189.865 141.239 189.498C140.769 189.13 140.535 188.666 140.535 188.105C140.535 187.442 140.821 186.901 141.392 186.483C141.973 186.065 142.789 185.856 143.84 185.856C144.462 185.856 145.044 185.958 145.585 186.162C146.135 186.366 146.6 186.595 146.977 186.85L146.166 187.937C145.809 187.692 145.416 187.508 144.988 187.386C144.559 187.253 144.126 187.187 143.687 187.187C143.35 187.187 143.08 187.223 142.876 187.294C142.682 187.366 142.534 187.468 142.432 187.6C142.341 187.723 142.295 187.86 142.295 188.013C142.295 188.279 142.448 188.478 142.754 188.61C143.06 188.743 143.56 188.886 144.253 189.039C145.059 189.212 145.681 189.411 146.12 189.635C146.559 189.85 146.86 190.1 147.023 190.385C147.196 190.661 147.283 191.002 147.283 191.41C147.283 191.839 147.145 192.232 146.87 192.589C146.605 192.936 146.212 193.216 145.692 193.43C145.171 193.634 144.529 193.736 143.764 193.736ZM153.826 193.736C153.061 193.736 152.454 193.604 152.005 193.339C151.557 193.063 151.235 192.686 151.041 192.206C150.848 191.727 150.751 191.171 150.751 190.538V187.432H148.746V186.116L150.827 186.039L151.057 183.683H152.51V186.039H155.938V187.432H152.51V190.523C152.51 190.931 152.567 191.273 152.679 191.548C152.791 191.813 152.975 192.012 153.23 192.145C153.485 192.267 153.821 192.329 154.24 192.329C154.566 192.329 154.862 192.303 155.127 192.252C155.392 192.201 155.647 192.13 155.892 192.038L156.229 193.308C155.892 193.42 155.53 193.517 155.142 193.599C154.755 193.69 154.316 193.736 153.826 193.736ZM161.196 193.736C160.492 193.736 159.819 193.624 159.176 193.4C158.533 193.165 157.977 192.89 157.508 192.573L158.273 191.456C158.722 191.752 159.207 191.987 159.727 192.16C160.247 192.323 160.813 192.405 161.426 192.405C161.946 192.405 162.328 192.318 162.573 192.145C162.828 191.961 162.956 191.747 162.956 191.502C162.956 191.38 162.925 191.268 162.864 191.166C162.813 191.064 162.716 190.972 162.573 190.89C162.43 190.798 162.221 190.712 161.946 190.63C161.67 190.548 161.313 190.462 160.875 190.37C159.875 190.156 159.14 189.865 158.671 189.498C158.202 189.13 157.967 188.666 157.967 188.105C157.967 187.442 158.253 186.901 158.824 186.483C159.406 186.065 160.222 185.856 161.273 185.856C161.895 185.856 162.476 185.958 163.017 186.162C163.568 186.366 164.032 186.595 164.409 186.85L163.598 187.937C163.241 187.692 162.849 187.508 162.42 187.386C161.992 187.253 161.558 187.187 161.12 187.187C160.783 187.187 160.513 187.223 160.308 187.294C160.115 187.366 159.967 187.468 159.865 187.6C159.773 187.723 159.727 187.86 159.727 188.013C159.727 188.279 159.88 188.478 160.186 188.61C160.492 188.743 160.992 188.886 161.686 189.039C162.492 189.212 163.114 189.411 163.553 189.635C163.991 189.85 164.292 190.1 164.455 190.385C164.629 190.661 164.715 191.002 164.715 191.41C164.715 191.839 164.578 192.232 164.302 192.589C164.037 192.936 163.644 193.216 163.124 193.43C162.604 193.634 161.961 193.736 161.196 193.736ZM167.403 188.549L166.944 185.014L166.898 183.056H169.04L168.994 185.014L168.535 188.549H167.403ZM171.198 188.549L170.739 185.014L170.693 183.056H172.835L172.789 185.014L172.33 188.549H171.198ZM178.583 188.534C178.154 188.534 177.792 188.386 177.496 188.09C177.21 187.794 177.068 187.427 177.068 186.988C177.068 186.539 177.21 186.172 177.496 185.886C177.792 185.591 178.154 185.443 178.583 185.443C179.021 185.443 179.383 185.591 179.669 185.886C179.955 186.172 180.097 186.539 180.097 186.988C180.097 187.427 179.955 187.794 179.669 188.09C179.383 188.386 179.021 188.534 178.583 188.534ZM178.583 193.736C178.154 193.736 177.792 193.588 177.496 193.293C177.21 192.997 177.068 192.63 177.068 192.191C177.068 191.742 177.21 191.375 177.496 191.089C177.792 190.793 178.154 190.645 178.583 190.645C179.021 190.645 179.383 190.793 179.669 191.089C179.955 191.375 180.097 191.742 180.097 192.191C180.097 192.63 179.955 192.997 179.669 193.293C179.383 193.588 179.021 193.736 178.583 193.736Z" fill="#D09A66"/>
<rect x="197.606" y="183.553" width="122" height="10" fill="#B8E9FF" fill-opacity="0.6"/>
<path d="M71.5244 209.48L71.0654 205.945L71.0195 203.986H73.1618L73.1159 205.945L72.6568 209.48H71.5244ZM75.3194 209.48L74.8603 205.945L74.8144 203.986H76.9567L76.9108 205.945L76.4517 209.48H75.3194ZM84.0968 214.667C83.3317 214.667 82.7247 214.534 82.2758 214.269C81.827 213.994 81.5056 213.616 81.3118 213.137C81.118 212.657 81.0211 212.101 81.0211 211.469V208.363H79.0165V207.047L81.0976 206.97L81.3271 204.614H82.7808V206.97H86.2085V208.363H82.7808V211.454C82.7808 211.862 82.8369 212.203 82.9491 212.479C83.0613 212.744 83.245 212.943 83.5 213.076C83.755 213.198 84.0917 213.259 84.5099 213.259C84.8364 213.259 85.1322 213.234 85.3974 213.183C85.6627 213.132 85.9177 213.06 86.1626 212.968L86.4992 214.239C86.1626 214.351 85.8004 214.448 85.4128 214.529C85.0251 214.621 84.5864 214.667 84.0968 214.667ZM91.8795 214.667C91.1144 214.667 90.4208 214.514 89.7985 214.208C89.1762 213.892 88.6814 213.443 88.3142 212.861C87.9469 212.27 87.7633 211.556 87.7633 210.719C87.7633 209.903 87.9469 209.204 88.3142 208.623C88.6814 208.031 89.1609 207.577 89.7526 207.261C90.3442 206.945 90.9767 206.786 91.65 206.786C92.3947 206.786 93.0221 206.939 93.5322 207.246C94.0524 207.552 94.4452 207.975 94.7104 208.516C94.9859 209.046 95.1236 209.658 95.1236 210.352C95.1236 210.525 95.1134 210.694 95.093 210.857C95.0828 211.01 95.0675 211.137 95.0471 211.239H89.0334V209.985H93.9147L93.5781 210.382C93.5781 209.638 93.4098 209.082 93.0731 208.715C92.7467 208.337 92.2876 208.148 91.6959 208.148C91.2777 208.148 90.9002 208.245 90.5636 208.439C90.2371 208.633 89.977 208.924 89.7832 209.311C89.5893 209.689 89.4924 210.158 89.4924 210.719C89.4924 211.301 89.5995 211.78 89.8138 212.157C90.0382 212.535 90.3442 212.821 90.7319 213.014C91.1297 213.208 91.5888 213.305 92.1091 213.305C92.5069 213.305 92.8742 213.249 93.2108 213.137C93.5475 213.025 93.8841 212.872 94.2208 212.678L94.8175 213.78C94.4197 214.035 93.9708 214.249 93.471 214.422C92.9711 214.585 92.4406 214.667 91.8795 214.667ZM100.183 214.667C99.4787 214.667 98.8054 214.555 98.1627 214.33C97.52 214.096 96.9641 213.82 96.4948 213.504L97.2599 212.387C97.7088 212.683 98.1933 212.917 98.7136 213.091C99.2339 213.254 99.8 213.336 100.412 213.336C100.932 213.336 101.315 213.249 101.56 213.076C101.815 212.892 101.942 212.678 101.942 212.433C101.942 212.311 101.912 212.198 101.851 212.096C101.8 211.994 101.703 211.902 101.56 211.821C101.417 211.729 101.208 211.642 100.932 211.561C100.657 211.479 100.3 211.392 99.8613 211.301C98.8615 211.086 98.127 210.796 97.6578 210.428C97.1885 210.061 96.9539 209.597 96.9539 209.036C96.9539 208.373 97.2395 207.832 97.8108 207.414C98.3923 206.996 99.2084 206.786 100.259 206.786C100.881 206.786 101.463 206.888 102.004 207.092C102.554 207.297 103.019 207.526 103.396 207.781L102.585 208.868C102.228 208.623 101.835 208.439 101.407 208.317C100.978 208.184 100.545 208.118 100.106 208.118C99.7694 208.118 99.4991 208.153 99.2951 208.225C99.1012 208.296 98.9533 208.398 98.8513 208.531C98.7595 208.653 98.7136 208.791 98.7136 208.944C98.7136 209.209 98.8666 209.408 99.1727 209.541C99.4787 209.673 99.9786 209.816 100.672 209.969C101.478 210.143 102.1 210.342 102.539 210.566C102.978 210.78 103.279 211.03 103.442 211.316C103.615 211.591 103.702 211.933 103.702 212.341C103.702 212.77 103.564 213.162 103.289 213.519C103.024 213.866 102.631 214.147 102.111 214.361C101.59 214.565 100.948 214.667 100.183 214.667ZM110.245 214.667C109.48 214.667 108.873 214.534 108.424 214.269C107.976 213.994 107.654 213.616 107.46 213.137C107.267 212.657 107.17 212.101 107.17 211.469V208.363H105.165V207.047L107.246 206.97L107.476 204.614H108.929V206.97H112.357V208.363H108.929V211.454C108.929 211.862 108.986 212.203 109.098 212.479C109.21 212.744 109.394 212.943 109.649 213.076C109.904 213.198 110.24 213.259 110.659 213.259C110.985 213.259 111.281 213.234 111.546 213.183C111.811 213.132 112.066 213.06 112.311 212.968L112.648 214.239C112.311 214.351 111.949 214.448 111.561 214.529C111.174 214.621 110.735 214.667 110.245 214.667ZM113.897 216.809V215.432H121.242V216.809H113.897ZM126.959 214.667C126.173 214.667 125.464 214.514 124.832 214.208C124.209 213.892 123.715 213.443 123.347 212.861C122.99 212.27 122.812 211.561 122.812 210.734C122.812 209.898 123.006 209.189 123.393 208.607C123.791 208.016 124.316 207.567 124.969 207.261C125.622 206.945 126.326 206.786 127.081 206.786C127.693 206.786 128.234 206.888 128.703 207.092C129.172 207.286 129.56 207.536 129.866 207.842L129.024 208.944C128.729 208.709 128.428 208.531 128.122 208.408C127.826 208.286 127.509 208.225 127.173 208.225C126.673 208.225 126.229 208.332 125.842 208.546C125.464 208.75 125.168 209.041 124.954 209.418C124.74 209.796 124.633 210.235 124.633 210.734C124.633 211.234 124.735 211.673 124.939 212.05C125.153 212.428 125.444 212.719 125.811 212.923C126.188 213.127 126.627 213.229 127.127 213.229C127.555 213.229 127.948 213.147 128.305 212.984C128.662 212.821 128.984 212.627 129.269 212.402L130.004 213.535C129.575 213.902 129.096 214.182 128.565 214.376C128.035 214.57 127.499 214.667 126.959 214.667ZM135.001 214.667C134.338 214.667 133.721 214.514 133.15 214.208C132.579 213.892 132.115 213.443 131.757 212.861C131.4 212.27 131.222 211.561 131.222 210.734C131.222 209.898 131.4 209.189 131.757 208.607C132.115 208.016 132.579 207.567 133.15 207.261C133.721 206.945 134.338 206.786 135.001 206.786C135.665 206.786 136.282 206.945 136.853 207.261C137.424 207.567 137.888 208.016 138.246 208.607C138.603 209.189 138.781 209.898 138.781 210.734C138.781 211.561 138.603 212.27 138.246 212.861C137.888 213.443 137.424 213.892 136.853 214.208C136.282 214.514 135.665 214.667 135.001 214.667ZM135.001 213.229C135.41 213.229 135.762 213.127 136.057 212.923C136.353 212.719 136.578 212.428 136.731 212.05C136.884 211.673 136.96 211.234 136.96 210.734C136.96 210.235 136.884 209.796 136.731 209.418C136.578 209.041 136.353 208.75 136.057 208.546C135.762 208.332 135.41 208.225 135.001 208.225C134.593 208.225 134.241 208.332 133.946 208.546C133.66 208.75 133.436 209.041 133.272 209.418C133.119 209.796 133.043 210.235 133.043 210.734C133.043 211.234 133.119 211.673 133.272 212.05C133.436 212.428 133.66 212.719 133.946 212.923C134.241 213.127 134.593 213.229 135.001 213.229ZM142.754 214.483L139.754 206.97H141.53L142.983 210.872C143.116 211.239 143.243 211.612 143.366 211.989C143.498 212.367 143.621 212.749 143.733 213.137H143.794C143.917 212.749 144.039 212.367 144.161 211.989C144.284 211.612 144.411 211.239 144.544 210.872L145.998 206.97H147.681L144.758 214.483H142.754ZM152.893 214.667C152.128 214.667 151.434 214.514 150.812 214.208C150.19 213.892 149.695 213.443 149.328 212.861C148.96 212.27 148.777 211.556 148.777 210.719C148.777 209.903 148.96 209.204 149.328 208.623C149.695 208.031 150.174 207.577 150.766 207.261C151.358 206.945 151.99 206.786 152.663 206.786C153.408 206.786 154.036 206.939 154.546 207.246C155.066 207.552 155.459 207.975 155.724 208.516C155.999 209.046 156.137 209.658 156.137 210.352C156.137 210.525 156.127 210.694 156.106 210.857C156.096 211.01 156.081 211.137 156.06 211.239H150.047V209.985H154.928L154.591 210.382C154.591 209.638 154.423 209.082 154.087 208.715C153.76 208.337 153.301 208.148 152.709 208.148C152.291 208.148 151.914 208.245 151.577 208.439C151.251 208.633 150.99 208.924 150.797 209.311C150.603 209.689 150.506 210.158 150.506 210.719C150.506 211.301 150.613 211.78 150.827 212.157C151.052 212.535 151.358 212.821 151.745 213.014C152.143 213.208 152.602 213.305 153.122 213.305C153.52 213.305 153.888 213.249 154.224 213.137C154.561 213.025 154.898 212.872 155.234 212.678L155.831 213.78C155.433 214.035 154.984 214.249 154.484 214.422C153.985 214.585 153.454 214.667 152.893 214.667ZM158.549 214.483V206.97H160.002L160.155 208.669H160.201C160.579 208.057 161.043 207.592 161.594 207.276C162.155 206.95 162.757 206.786 163.4 206.786C163.706 206.786 163.971 206.812 164.195 206.863C164.42 206.914 164.639 206.99 164.853 207.092L164.486 208.577C164.241 208.495 164.022 208.439 163.828 208.408C163.644 208.368 163.41 208.347 163.124 208.347C162.614 208.347 162.114 208.495 161.624 208.791C161.145 209.087 160.711 209.602 160.324 210.337V214.483H158.549ZM168.872 214.667C168.382 214.667 167.948 214.575 167.571 214.392C167.194 214.198 166.898 213.938 166.683 213.611C166.469 213.285 166.362 212.902 166.362 212.464C166.362 211.627 166.76 210.989 167.556 210.551C168.362 210.102 169.693 209.811 171.55 209.679C171.529 209.403 171.453 209.153 171.32 208.929C171.198 208.704 171.009 208.531 170.754 208.408C170.499 208.276 170.167 208.21 169.759 208.21C169.474 208.21 169.193 208.245 168.918 208.317C168.642 208.388 168.367 208.485 168.091 208.607C167.826 208.73 167.561 208.862 167.296 209.005L166.653 207.827C166.959 207.643 167.296 207.475 167.663 207.322C168.03 207.159 168.418 207.031 168.826 206.939C169.234 206.837 169.652 206.786 170.081 206.786C170.784 206.786 171.371 206.914 171.84 207.169C172.32 207.414 172.682 207.781 172.927 208.271C173.182 208.75 173.309 209.337 173.309 210.03V214.483H171.871L171.733 213.55H171.687C171.289 213.856 170.846 214.121 170.356 214.346C169.877 214.56 169.382 214.667 168.872 214.667ZM169.407 213.29C169.785 213.29 170.147 213.208 170.494 213.045C170.851 212.872 171.203 212.647 171.55 212.372V210.78C170.652 210.842 169.948 210.944 169.438 211.086C168.928 211.219 168.571 211.392 168.367 211.607C168.163 211.821 168.061 212.061 168.061 212.326C168.061 212.55 168.122 212.734 168.244 212.877C168.367 213.02 168.525 213.127 168.719 213.198C168.923 213.259 169.152 213.29 169.407 213.29ZM178.368 217.804C177.675 217.804 177.073 217.727 176.563 217.574C176.053 217.432 175.655 217.212 175.369 216.916C175.083 216.621 174.941 216.248 174.941 215.799C174.941 215.504 175.043 215.218 175.247 214.942C175.451 214.667 175.747 214.427 176.134 214.223V214.162C175.94 214.04 175.762 213.882 175.599 213.688C175.446 213.484 175.369 213.224 175.369 212.907C175.369 212.662 175.451 212.413 175.614 212.157C175.777 211.902 175.996 211.683 176.272 211.499V211.438C176.007 211.244 175.777 210.984 175.583 210.658C175.4 210.321 175.308 209.934 175.308 209.495C175.308 208.913 175.451 208.424 175.736 208.026C176.022 207.618 176.399 207.312 176.869 207.108C177.338 206.894 177.848 206.786 178.399 206.786C178.848 206.786 179.241 206.848 179.577 206.97H182.653V208.317H180.924C181.056 208.459 181.169 208.643 181.26 208.868C181.362 209.082 181.413 209.311 181.413 209.556C181.413 210.107 181.276 210.576 181 210.964C180.735 211.341 180.378 211.627 179.929 211.821C179.48 212.015 178.97 212.112 178.399 212.112C178.225 212.112 178.037 212.096 177.833 212.066C177.639 212.025 177.445 211.969 177.251 211.897C177.098 211.989 176.981 212.091 176.899 212.203C176.828 212.316 176.792 212.448 176.792 212.601C176.792 212.836 176.909 213.014 177.144 213.137C177.389 213.249 177.746 213.305 178.215 213.305H179.745C180.725 213.305 181.459 213.448 181.949 213.734C182.449 214.009 182.699 214.478 182.699 215.141C182.699 215.631 182.52 216.08 182.163 216.488C181.816 216.896 181.316 217.217 180.664 217.452C180.021 217.687 179.256 217.804 178.368 217.804ZM178.399 210.995C178.664 210.995 178.904 210.938 179.118 210.826C179.332 210.704 179.501 210.53 179.623 210.306C179.756 210.082 179.822 209.811 179.822 209.495C179.822 209.189 179.756 208.929 179.623 208.715C179.501 208.49 179.332 208.317 179.118 208.194C178.904 208.072 178.664 208.011 178.399 208.011C178.144 208.011 177.909 208.072 177.695 208.194C177.481 208.317 177.307 208.49 177.175 208.715C177.042 208.929 176.976 209.189 176.976 209.495C176.976 209.811 177.042 210.082 177.175 210.306C177.307 210.53 177.481 210.704 177.695 210.826C177.909 210.938 178.144 210.995 178.399 210.995ZM178.583 216.641C179.072 216.641 179.496 216.585 179.853 216.473C180.22 216.36 180.5 216.213 180.694 216.029C180.898 215.845 181 215.646 181 215.432C181 215.136 180.873 214.937 180.618 214.835C180.373 214.744 179.995 214.698 179.485 214.698H178.292C178.047 214.698 177.833 214.687 177.649 214.667C177.465 214.647 177.297 214.621 177.144 214.591C176.879 214.744 176.69 214.902 176.578 215.065C176.466 215.228 176.41 215.396 176.41 215.57C176.41 215.906 176.598 216.167 176.976 216.35C177.353 216.544 177.889 216.641 178.583 216.641ZM187.758 214.667C186.993 214.667 186.299 214.514 185.677 214.208C185.054 213.892 184.56 213.443 184.192 212.861C183.825 212.27 183.642 211.556 183.642 210.719C183.642 209.903 183.825 209.204 184.192 208.623C184.56 208.031 185.039 207.577 185.631 207.261C186.222 206.945 186.855 206.786 187.528 206.786C188.273 206.786 188.9 206.939 189.41 207.246C189.931 207.552 190.323 207.975 190.589 208.516C190.864 209.046 191.002 209.658 191.002 210.352C191.002 210.525 190.992 210.694 190.971 210.857C190.961 211.01 190.946 211.137 190.925 211.239H184.912V209.985H189.793L189.456 210.382C189.456 209.638 189.288 209.082 188.951 208.715C188.625 208.337 188.166 208.148 187.574 208.148C187.156 208.148 186.778 208.245 186.442 208.439C186.115 208.633 185.855 208.924 185.661 209.311C185.468 209.689 185.371 210.158 185.371 210.719C185.371 211.301 185.478 211.78 185.692 212.157C185.916 212.535 186.222 212.821 186.61 213.014C187.008 213.208 187.467 213.305 187.987 213.305C188.385 213.305 188.752 213.249 189.089 213.137C189.426 213.025 189.762 212.872 190.099 212.678L190.696 213.78C190.298 214.035 189.849 214.249 189.349 214.422C188.849 214.585 188.319 214.667 187.758 214.667ZM193.551 209.48L193.092 205.945L193.046 203.986H195.189L195.143 205.945L194.684 209.48H193.551ZM197.346 209.48L196.887 205.945L196.841 203.986H198.984L198.938 205.945L198.479 209.48H197.346ZM204.731 209.464C204.303 209.464 203.941 209.316 203.645 209.021C203.359 208.725 203.216 208.357 203.216 207.919C203.216 207.47 203.359 207.103 203.645 206.817C203.941 206.521 204.303 206.373 204.731 206.373C205.17 206.373 205.532 206.521 205.818 206.817C206.103 207.103 206.246 207.47 206.246 207.919C206.246 208.357 206.103 208.725 205.818 209.021C205.532 209.316 205.17 209.464 204.731 209.464ZM204.731 214.667C204.303 214.667 203.941 214.519 203.645 214.223C203.359 213.927 203.216 213.56 203.216 213.122C203.216 212.673 203.359 212.305 203.645 212.02C203.941 211.724 204.303 211.576 204.731 211.576C205.17 211.576 205.532 211.724 205.818 212.02C206.103 212.305 206.246 212.673 206.246 213.122C206.246 213.56 206.103 213.927 205.818 214.223C205.532 214.519 205.17 214.667 204.731 214.667Z" fill="#D09A66"/>
<rect x="223.606" y="204.483" width="96" height="10" fill="#B8E9FF" fill-opacity="0.6"/>
<path d="M71.5244 230.409L71.0654 226.875L71.0195 224.916H73.1618L73.1159 226.875L72.6568 230.409H71.5244ZM75.3194 230.409L74.8603 226.875L74.8144 224.916H76.9567L76.9108 226.875L76.4517 230.409H75.3194ZM82.7502 235.597C82.0463 235.597 81.373 235.484 80.7303 235.26C80.0876 235.025 79.5317 234.75 79.0624 234.434L79.8275 233.317C80.2764 233.613 80.7609 233.847 81.2812 234.021C81.8015 234.184 82.3676 234.265 82.9797 234.265C83.5 234.265 83.8825 234.179 84.1274 234.005C84.3824 233.822 84.5099 233.607 84.5099 233.363C84.5099 233.24 84.4793 233.128 84.4181 233.026C84.3671 232.924 84.2702 232.832 84.1274 232.751C83.9846 232.659 83.7754 232.572 83.5 232.49C83.2246 232.409 82.8675 232.322 82.4288 232.23C81.4291 232.016 80.6946 231.725 80.2253 231.358C79.7561 230.991 79.5215 230.527 79.5215 229.966C79.5215 229.302 79.8071 228.762 80.3784 228.344C80.9598 227.925 81.776 227.716 82.8267 227.716C83.449 227.716 84.0305 227.818 84.5711 228.022C85.122 228.226 85.5862 228.456 85.9636 228.711L85.1526 229.797C84.7956 229.552 84.4028 229.369 83.9744 229.246C83.5459 229.114 83.1123 229.047 82.6737 229.047C82.337 229.047 82.0667 229.083 81.8627 229.155C81.6688 229.226 81.5209 229.328 81.4189 229.461C81.3271 229.583 81.2812 229.721 81.2812 229.874C81.2812 230.139 81.4342 230.338 81.7403 230.471C82.0463 230.603 82.5462 230.746 83.2399 230.899C84.0458 231.072 84.668 231.271 85.1067 231.496C85.5454 231.71 85.8463 231.96 86.0095 232.246C86.183 232.521 86.2697 232.863 86.2697 233.271C86.2697 233.699 86.1319 234.092 85.8565 234.449C85.5913 234.796 85.1985 235.076 84.6783 235.291C84.158 235.495 83.5153 235.597 82.7502 235.597ZM91.8642 235.597C91.5072 235.597 91.1348 235.51 90.7472 235.337C90.3697 235.163 90.0127 234.913 89.676 234.587H89.6301L89.4771 235.413H88.0846V224.61H89.8597V227.395L89.7832 228.711H89.8291C90.1453 228.405 90.5024 228.165 90.9002 227.992C91.3083 227.808 91.7163 227.716 92.1244 227.716C92.7773 227.716 93.3281 227.874 93.777 228.191C94.2361 228.507 94.588 228.951 94.8328 229.522C95.0777 230.083 95.2001 230.751 95.2001 231.526C95.2001 232.383 95.042 233.118 94.7257 233.73C94.4095 234.332 93.9963 234.796 93.4863 235.122C92.9864 235.439 92.4457 235.597 91.8642 235.597ZM91.5123 234.143C91.8591 234.143 92.1754 234.046 92.461 233.852C92.7467 233.658 92.9711 233.373 93.1343 232.995C93.2975 232.608 93.3792 232.128 93.3792 231.557C93.3792 231.057 93.3179 230.629 93.1955 230.272C93.0731 229.915 92.8844 229.644 92.6293 229.461C92.3845 229.267 92.053 229.17 91.6347 229.17C91.3491 229.17 91.0583 229.241 90.7625 229.384C90.4667 229.527 90.1657 229.756 89.8597 230.073V233.454C90.1351 233.699 90.4208 233.878 90.7166 233.99C91.0124 234.092 91.2777 234.143 91.5123 234.143ZM100.137 235.597C99.4736 235.597 98.8564 235.444 98.2851 235.138C97.7139 234.821 97.2497 234.373 96.8927 233.791C96.5356 233.199 96.3571 232.49 96.3571 231.664C96.3571 230.828 96.5356 230.119 96.8927 229.537C97.2497 228.945 97.7139 228.497 98.2851 228.191C98.8564 227.874 99.4736 227.716 100.137 227.716C100.8 227.716 101.417 227.874 101.988 228.191C102.56 228.497 103.024 228.945 103.381 229.537C103.738 230.119 103.916 230.828 103.916 231.664C103.916 232.49 103.738 233.199 103.381 233.791C103.024 234.373 102.56 234.821 101.988 235.138C101.417 235.444 100.8 235.597 100.137 235.597ZM100.137 234.158C100.545 234.158 100.897 234.056 101.193 233.852C101.488 233.648 101.713 233.358 101.866 232.98C102.019 232.603 102.095 232.164 102.095 231.664C102.095 231.164 102.019 230.726 101.866 230.348C101.713 229.971 101.488 229.68 101.193 229.476C100.897 229.262 100.545 229.155 100.137 229.155C99.7286 229.155 99.3767 229.262 99.0808 229.476C98.7952 229.68 98.5708 229.971 98.4076 230.348C98.2545 230.726 98.178 231.164 98.178 231.664C98.178 232.164 98.2545 232.603 98.4076 232.98C98.5708 233.358 98.7952 233.648 99.0808 233.852C99.3767 234.056 99.7286 234.158 100.137 234.158ZM104.966 235.413V227.9H106.328L106.466 228.848H106.512C106.675 228.522 106.884 228.252 107.139 228.037C107.394 227.823 107.741 227.716 108.18 227.716C108.526 227.716 108.817 227.823 109.052 228.037C109.286 228.242 109.45 228.553 109.541 228.971C109.715 228.604 109.934 228.303 110.199 228.068C110.465 227.833 110.817 227.716 111.255 227.716C111.786 227.716 112.194 227.925 112.479 228.344C112.775 228.752 112.923 229.333 112.923 230.088V235.413H111.225V230.21C111.225 229.547 111.026 229.216 110.628 229.216C110.424 229.216 110.25 229.292 110.108 229.445C109.975 229.598 109.832 229.838 109.679 230.164V235.413H108.21V230.21C108.21 229.884 108.164 229.639 108.072 229.476C107.981 229.302 107.828 229.216 107.613 229.216C107.42 229.216 107.251 229.292 107.108 229.445C106.966 229.598 106.823 229.838 106.68 230.164V235.413H104.966ZM115.105 230.409L114.646 226.875L114.6 224.916H116.743L116.697 226.875L116.238 230.409H115.105ZM118.9 230.409L118.441 226.875L118.395 224.916H120.538L120.492 226.875L120.033 230.409H118.9ZM126.285 230.394C125.857 230.394 125.495 230.246 125.199 229.95C124.913 229.654 124.77 229.287 124.77 228.848C124.77 228.4 124.913 228.032 125.199 227.747C125.495 227.451 125.857 227.303 126.285 227.303C126.724 227.303 127.086 227.451 127.372 227.747C127.657 228.032 127.8 228.4 127.8 228.848C127.8 229.287 127.657 229.654 127.372 229.95C127.086 230.246 126.724 230.394 126.285 230.394ZM126.285 235.597C125.857 235.597 125.495 235.449 125.199 235.153C124.913 234.857 124.77 234.49 124.77 234.051C124.77 233.602 124.913 233.235 125.199 232.949C125.495 232.654 125.857 232.506 126.285 232.506C126.724 232.506 127.086 232.654 127.372 232.949C127.657 233.235 127.8 233.602 127.8 234.051C127.8 234.49 127.657 234.857 127.372 235.153C127.086 235.449 126.724 235.597 126.285 235.597Z" fill="#D09A66"/>
<rect x="145.606" y="225.413" width="174" height="10" fill="#B8E9FF" fill-opacity="0.6"/>
<path d="M71.5244 251.339L71.0654 247.804L71.0195 245.846H73.1618L73.1159 247.804L72.6568 251.339H71.5244ZM75.3194 251.339L74.8603 247.804L74.8144 245.846H76.9567L76.9108 247.804L76.4517 251.339H75.3194ZM81.7403 256.343L78.741 248.829H80.5161L81.9698 252.731C82.1024 253.099 82.2299 253.471 82.3523 253.849C82.485 254.226 82.6074 254.609 82.7196 254.996H82.7808C82.9032 254.609 83.0256 254.226 83.148 253.849C83.2705 253.471 83.398 253.099 83.5306 252.731L84.9843 248.829H86.6675L83.7448 256.343H81.7403ZM90.4105 256.526C89.5332 256.526 88.8956 256.261 88.4978 255.731C88.0999 255.2 87.901 254.45 87.901 253.481V248.829H89.6607V253.252C89.6607 253.854 89.7628 254.297 89.9668 254.583C90.181 254.869 90.5483 255.011 91.0685 255.011C91.4154 255.011 91.7316 254.93 92.0173 254.767C92.3131 254.593 92.6242 254.302 92.9507 253.894V248.829H94.7104V256.343H93.272L93.1343 255.149H93.0731C92.7161 255.557 92.3233 255.889 91.8949 256.144C91.4664 256.399 90.9716 256.526 90.4105 256.526ZM101.667 256.526C100.8 256.526 100.137 256.271 99.6776 255.761C99.2288 255.241 99.0043 254.522 99.0043 253.604V246.932H96.556V245.54H100.764V253.696C100.764 254.206 100.892 254.568 101.147 254.782C101.412 254.986 101.733 255.088 102.111 255.088C102.304 255.088 102.503 255.068 102.707 255.027C102.911 254.976 103.141 254.899 103.396 254.797L103.809 256.098C103.452 256.22 103.115 256.322 102.799 256.404C102.493 256.486 102.116 256.526 101.667 256.526ZM105.517 256.343V248.829H106.971L107.108 249.962H107.17C107.527 249.595 107.919 249.283 108.348 249.028C108.787 248.773 109.297 248.646 109.878 248.646C110.745 248.646 111.383 248.911 111.791 249.442C112.199 249.972 112.403 250.722 112.403 251.691V256.343H110.628V251.92C110.628 251.319 110.521 250.875 110.307 250.589C110.092 250.304 109.73 250.161 109.22 250.161C108.853 250.161 108.526 250.247 108.241 250.421C107.955 250.594 107.639 250.86 107.292 251.217V256.343H105.517ZM118.028 256.526C117.263 256.526 116.569 256.373 115.947 256.067C115.325 255.751 114.83 255.302 114.463 254.721C114.096 254.129 113.912 253.415 113.912 252.578C113.912 251.762 114.096 251.064 114.463 250.482C114.83 249.89 115.309 249.436 115.901 249.12C116.493 248.804 117.125 248.646 117.799 248.646C118.543 248.646 119.171 248.799 119.681 249.105C120.201 249.411 120.594 249.834 120.859 250.375C121.134 250.905 121.272 251.518 121.272 252.211C121.272 252.385 121.262 252.553 121.242 252.716C121.231 252.869 121.216 252.997 121.196 253.099H115.182V251.844H120.063L119.727 252.242C119.727 251.497 119.558 250.941 119.222 250.574C118.895 250.196 118.436 250.008 117.845 250.008C117.426 250.008 117.049 250.105 116.712 250.298C116.386 250.492 116.126 250.783 115.932 251.171C115.738 251.548 115.641 252.017 115.641 252.578C115.641 253.16 115.748 253.639 115.962 254.017C116.187 254.394 116.493 254.68 116.881 254.874C117.278 255.068 117.737 255.165 118.258 255.165C118.656 255.165 119.023 255.108 119.359 254.996C119.696 254.884 120.033 254.731 120.369 254.537L120.966 255.639C120.568 255.894 120.119 256.108 119.62 256.282C119.12 256.445 118.589 256.526 118.028 256.526ZM123.684 256.343V248.829H125.138L125.291 250.528H125.337C125.714 249.916 126.178 249.452 126.729 249.135C127.29 248.809 127.892 248.646 128.535 248.646C128.841 248.646 129.106 248.671 129.33 248.722C129.555 248.773 129.774 248.85 129.988 248.952L129.621 250.436C129.376 250.355 129.157 250.298 128.963 250.268C128.78 250.227 128.545 250.207 128.259 250.207C127.749 250.207 127.249 250.355 126.76 250.65C126.28 250.946 125.847 251.461 125.459 252.196V256.343H123.684ZM134.007 256.526C133.517 256.526 133.084 256.435 132.706 256.251C132.329 256.057 132.033 255.797 131.819 255.471C131.604 255.144 131.497 254.762 131.497 254.323C131.497 253.486 131.895 252.849 132.691 252.41C133.497 251.961 134.828 251.671 136.685 251.538C136.664 251.262 136.588 251.013 136.455 250.788C136.333 250.564 136.144 250.39 135.889 250.268C135.634 250.135 135.302 250.069 134.894 250.069C134.609 250.069 134.328 250.105 134.053 250.176C133.777 250.247 133.502 250.344 133.226 250.467C132.961 250.589 132.696 250.722 132.431 250.865L131.788 249.686C132.094 249.503 132.431 249.334 132.798 249.181C133.165 249.018 133.553 248.891 133.961 248.799C134.369 248.697 134.787 248.646 135.216 248.646C135.92 248.646 136.506 248.773 136.975 249.028C137.455 249.273 137.817 249.64 138.062 250.13C138.317 250.61 138.444 251.196 138.444 251.89V256.343H137.006L136.868 255.409H136.822C136.425 255.715 135.981 255.981 135.491 256.205C135.012 256.419 134.517 256.526 134.007 256.526ZM134.542 255.149C134.92 255.149 135.282 255.068 135.629 254.904C135.986 254.731 136.338 254.507 136.685 254.231V252.64C135.787 252.701 135.083 252.803 134.573 252.946C134.063 253.078 133.706 253.252 133.502 253.466C133.298 253.68 133.196 253.92 133.196 254.185C133.196 254.41 133.257 254.593 133.379 254.736C133.502 254.879 133.66 254.986 133.854 255.057C134.058 255.119 134.287 255.149 134.542 255.149ZM144.161 256.526C143.804 256.526 143.432 256.44 143.044 256.266C142.667 256.093 142.31 255.843 141.973 255.516H141.927L141.774 256.343H140.382V245.54H142.157V248.324L142.08 249.64H142.126C142.443 249.334 142.8 249.095 143.197 248.921C143.605 248.738 144.014 248.646 144.422 248.646C145.074 248.646 145.625 248.804 146.074 249.12C146.533 249.436 146.885 249.88 147.13 250.451C147.375 251.013 147.497 251.681 147.497 252.456C147.497 253.313 147.339 254.047 147.023 254.66C146.707 255.261 146.294 255.726 145.783 256.052C145.284 256.368 144.743 256.526 144.161 256.526ZM143.81 255.073C144.156 255.073 144.473 254.976 144.758 254.782C145.044 254.588 145.268 254.302 145.432 253.925C145.595 253.537 145.676 253.058 145.676 252.487C145.676 251.987 145.615 251.558 145.493 251.201C145.37 250.844 145.182 250.574 144.927 250.39C144.682 250.196 144.35 250.1 143.932 250.1C143.646 250.1 143.356 250.171 143.06 250.314C142.764 250.457 142.463 250.686 142.157 251.002V254.384C142.432 254.629 142.718 254.807 143.014 254.92C143.31 255.022 143.575 255.073 143.81 255.073ZM152.388 256.343V250.222H149.129V248.829H154.148V256.343H152.388ZM153.138 247.452C152.781 247.452 152.48 247.345 152.235 247.131C152 246.917 151.883 246.631 151.883 246.274C151.883 245.917 152 245.631 152.235 245.417C152.48 245.193 152.781 245.08 153.138 245.08C153.505 245.08 153.806 245.193 154.041 245.417C154.275 245.631 154.393 245.917 154.393 246.274C154.393 246.631 154.275 246.917 154.041 247.131C153.806 247.345 153.505 247.452 153.138 247.452ZM162.68 256.526C161.813 256.526 161.15 256.271 160.691 255.761C160.242 255.241 160.018 254.522 160.018 253.604V246.932H157.569V245.54H161.777V253.696C161.777 254.206 161.905 254.568 162.16 254.782C162.425 254.986 162.747 255.088 163.124 255.088C163.318 255.088 163.517 255.068 163.721 255.027C163.925 254.976 164.154 254.899 164.409 254.797L164.823 256.098C164.466 256.22 164.129 256.322 163.813 256.404C163.507 256.486 163.129 256.526 162.68 256.526ZM169.82 256.343V250.222H166.561V248.829H171.58V256.343H169.82ZM170.57 247.452C170.213 247.452 169.912 247.345 169.667 247.131C169.433 246.917 169.315 246.631 169.315 246.274C169.315 245.917 169.433 245.631 169.667 245.417C169.912 245.193 170.213 245.08 170.57 245.08C170.937 245.08 171.238 245.193 171.473 245.417C171.708 245.631 171.825 245.917 171.825 246.274C171.825 246.631 171.708 246.917 171.473 247.131C171.238 247.345 170.937 247.452 170.57 247.452ZM179.975 256.526C179.21 256.526 178.603 256.394 178.154 256.129C177.705 255.853 177.384 255.476 177.19 254.996C176.996 254.517 176.899 253.961 176.899 253.328V250.222H174.895V248.906L176.976 248.829L177.205 246.473H178.659V248.829H182.087V250.222H178.659V253.313C178.659 253.721 178.715 254.063 178.827 254.338C178.94 254.603 179.123 254.802 179.378 254.935C179.633 255.057 179.97 255.119 180.388 255.119C180.715 255.119 181.01 255.093 181.276 255.042C181.541 254.991 181.796 254.92 182.041 254.828L182.377 256.098C182.041 256.21 181.679 256.307 181.291 256.389C180.903 256.48 180.465 256.526 179.975 256.526ZM187.253 256.343V250.222H183.993V248.829H189.013V256.343H187.253ZM188.003 247.452C187.646 247.452 187.345 247.345 187.1 247.131C186.865 246.917 186.748 246.631 186.748 246.274C186.748 245.917 186.865 245.631 187.1 245.417C187.345 245.193 187.646 245.08 188.003 245.08C188.37 245.08 188.671 245.193 188.905 245.417C189.14 245.631 189.257 245.917 189.257 246.274C189.257 246.631 189.14 246.917 188.905 247.131C188.671 247.345 188.37 247.452 188.003 247.452ZM196.474 256.526C195.709 256.526 195.015 256.373 194.393 256.067C193.771 255.751 193.276 255.302 192.909 254.721C192.541 254.129 192.358 253.415 192.358 252.578C192.358 251.762 192.541 251.064 192.909 250.482C193.276 249.89 193.755 249.436 194.347 249.12C194.939 248.804 195.571 248.646 196.244 248.646C196.989 248.646 197.617 248.799 198.127 249.105C198.647 249.411 199.04 249.834 199.305 250.375C199.58 250.905 199.718 251.518 199.718 252.211C199.718 252.385 199.708 252.553 199.687 252.716C199.677 252.869 199.662 252.997 199.642 253.099H193.628V251.844H198.509L198.173 252.242C198.173 251.497 198.004 250.941 197.668 250.574C197.341 250.196 196.882 250.008 196.29 250.008C195.872 250.008 195.495 250.105 195.158 250.298C194.832 250.492 194.571 250.783 194.378 251.171C194.184 251.548 194.087 252.017 194.087 252.578C194.087 253.16 194.194 253.639 194.408 254.017C194.633 254.394 194.939 254.68 195.326 254.874C195.724 255.068 196.183 255.165 196.704 255.165C197.101 255.165 197.469 255.108 197.805 254.996C198.142 254.884 198.479 254.731 198.815 254.537L199.412 255.639C199.014 255.894 198.565 256.108 198.065 256.282C197.566 256.445 197.035 256.526 196.474 256.526ZM204.777 256.526C204.073 256.526 203.4 256.414 202.757 256.19C202.114 255.955 201.558 255.68 201.089 255.363L201.854 254.246C202.303 254.542 202.788 254.777 203.308 254.95C203.828 255.114 204.394 255.195 205.007 255.195C205.527 255.195 205.909 255.108 206.154 254.935C206.409 254.751 206.537 254.537 206.537 254.292C206.537 254.17 206.506 254.058 206.445 253.956C206.394 253.854 206.297 253.762 206.154 253.68C206.011 253.588 205.802 253.502 205.527 253.42C205.251 253.338 204.894 253.252 204.456 253.16C203.456 252.946 202.721 252.655 202.252 252.288C201.783 251.92 201.548 251.456 201.548 250.895C201.548 250.232 201.834 249.691 202.405 249.273C202.987 248.855 203.803 248.646 204.854 248.646C205.476 248.646 206.057 248.748 206.598 248.952C207.149 249.156 207.613 249.385 207.99 249.64L207.179 250.727C206.822 250.482 206.43 250.298 206.001 250.176C205.573 250.043 205.139 249.977 204.701 249.977C204.364 249.977 204.094 250.013 203.889 250.084C203.696 250.156 203.548 250.258 203.446 250.39C203.354 250.513 203.308 250.65 203.308 250.803C203.308 251.069 203.461 251.268 203.767 251.4C204.073 251.533 204.573 251.676 205.267 251.829C206.073 252.002 206.695 252.201 207.134 252.425C207.572 252.64 207.873 252.89 208.036 253.175C208.21 253.451 208.296 253.792 208.296 254.2C208.296 254.629 208.159 255.022 207.883 255.379C207.618 255.726 207.225 256.006 206.705 256.22C206.185 256.424 205.542 256.526 204.777 256.526ZM210.984 251.339L210.525 247.804L210.479 245.846H212.621L212.575 247.804L212.116 251.339H210.984ZM214.779 251.339L214.32 247.804L214.274 245.846H216.416L216.37 247.804L215.911 251.339H214.779ZM222.164 251.324C221.735 251.324 221.373 251.176 221.077 250.88C220.791 250.584 220.649 250.217 220.649 249.778C220.649 249.329 220.791 248.962 221.077 248.676C221.373 248.381 221.735 248.233 222.164 248.233C222.602 248.233 222.964 248.381 223.25 248.676C223.536 248.962 223.678 249.329 223.678 249.778C223.678 250.217 223.536 250.584 223.25 250.88C222.964 251.176 222.602 251.324 222.164 251.324ZM222.164 256.526C221.735 256.526 221.373 256.378 221.077 256.083C220.791 255.787 220.649 255.42 220.649 254.981C220.649 254.532 220.791 254.165 221.077 253.879C221.373 253.583 221.735 253.435 222.164 253.435C222.602 253.435 222.964 253.583 223.25 253.879C223.536 254.165 223.678 254.532 223.678 254.981C223.678 255.42 223.536 255.787 223.25 256.083C222.964 256.378 222.602 256.526 222.164 256.526Z" fill="#D09A66"/>
<rect x="241.606" y="246.343" width="78" height="10" fill="#B8E9FF" fill-opacity="0.6"/>
<path d="M71.5244 272.27L71.0654 268.735L71.0195 266.776H73.1618L73.1159 268.735L72.6568 272.27H71.5244ZM75.3194 272.27L74.8603 268.735L74.8144 266.776H76.9567L76.9108 268.735L76.4517 272.27H75.3194ZM83.3776 277.457C82.5921 277.457 81.8831 277.304 81.2506 276.998C80.6283 276.682 80.1335 276.233 79.7663 275.651C79.4092 275.06 79.2307 274.351 79.2307 273.524C79.2307 272.688 79.4245 271.979 79.8122 271.397C80.21 270.806 80.7354 270.357 81.3883 270.051C82.0412 269.735 82.7451 269.576 83.5 269.576C84.1121 269.576 84.6527 269.679 85.122 269.883C85.5913 270.076 85.9789 270.326 86.285 270.632L85.4434 271.734C85.1475 271.499 84.8466 271.321 84.5405 271.199C84.2447 271.076 83.9284 271.015 83.5918 271.015C83.0919 271.015 82.6482 271.122 82.2605 271.336C81.8831 271.54 81.5872 271.831 81.373 272.208C81.1588 272.586 81.0517 273.025 81.0517 273.524C81.0517 274.024 81.1537 274.463 81.3577 274.84C81.5719 275.218 81.8627 275.509 82.2299 275.713C82.6074 275.917 83.046 276.019 83.5459 276.019C83.9744 276.019 84.3671 275.937 84.7242 275.774C85.0812 275.611 85.4025 275.417 85.6882 275.192L86.4227 276.325C85.9942 276.692 85.5148 276.972 84.9843 277.166C84.4538 277.36 83.9182 277.457 83.3776 277.457ZM91.4205 277.457C90.7574 277.457 90.1402 277.304 89.5689 276.998C88.9977 276.682 88.5335 276.233 88.1764 275.651C87.8194 275.06 87.6409 274.351 87.6409 273.524C87.6409 272.688 87.8194 271.979 88.1764 271.397C88.5335 270.806 88.9977 270.357 89.5689 270.051C90.1402 269.735 90.7574 269.576 91.4205 269.576C92.0836 269.576 92.7008 269.735 93.272 270.051C93.8433 270.357 94.3075 270.806 94.6645 271.397C95.0216 271.979 95.2001 272.688 95.2001 273.524C95.2001 274.351 95.0216 275.06 94.6645 275.651C94.3075 276.233 93.8433 276.682 93.272 276.998C92.7008 277.304 92.0836 277.457 91.4205 277.457ZM91.4205 276.019C91.8285 276.019 92.1805 275.917 92.4763 275.713C92.7722 275.509 92.9966 275.218 93.1496 274.84C93.3026 274.463 93.3792 274.024 93.3792 273.524C93.3792 273.025 93.3026 272.586 93.1496 272.208C92.9966 271.831 92.7722 271.54 92.4763 271.336C92.1805 271.122 91.8285 271.015 91.4205 271.015C91.0124 271.015 90.6605 271.122 90.3646 271.336C90.079 271.54 89.8546 271.831 89.6914 272.208C89.5383 272.586 89.4618 273.025 89.4618 273.524C89.4618 274.024 89.5383 274.463 89.6914 274.84C89.8546 275.218 90.079 275.509 90.3646 275.713C90.6605 275.917 91.0124 276.019 91.4205 276.019ZM99.5705 277.457C98.6116 277.457 97.8363 277.11 97.2446 276.417C96.6529 275.723 96.3571 274.759 96.3571 273.524C96.3571 272.708 96.5152 272.004 96.8314 271.413C97.1477 270.821 97.5608 270.367 98.0709 270.051C98.581 269.735 99.1166 269.576 99.6776 269.576C100.106 269.576 100.484 269.653 100.81 269.806C101.147 269.959 101.458 270.178 101.743 270.464H101.789L101.698 269.194V266.47H103.473V277.273H102.019L101.881 276.401H101.835C101.55 276.687 101.208 276.937 100.81 277.151C100.412 277.355 99.999 277.457 99.5705 277.457ZM99.999 276.003C100.305 276.003 100.601 275.932 100.886 275.789C101.172 275.636 101.442 275.407 101.698 275.101V271.719C101.432 271.464 101.167 271.285 100.902 271.183C100.637 271.081 100.366 271.03 100.091 271.03C99.7439 271.03 99.4226 271.127 99.1268 271.321C98.8411 271.515 98.6116 271.795 98.4382 272.163C98.2647 272.53 98.178 272.979 98.178 273.509C98.178 274.315 98.3361 274.932 98.6524 275.361C98.9788 275.789 99.4277 276.003 99.999 276.003ZM109.312 277.457C108.547 277.457 107.853 277.304 107.231 276.998C106.609 276.682 106.114 276.233 105.747 275.651C105.379 275.06 105.196 274.346 105.196 273.509C105.196 272.693 105.379 271.994 105.747 271.413C106.114 270.821 106.593 270.367 107.185 270.051C107.777 269.735 108.409 269.576 109.082 269.576C109.827 269.576 110.455 269.73 110.965 270.036C111.485 270.342 111.878 270.765 112.143 271.306C112.418 271.836 112.556 272.448 112.556 273.142C112.556 273.315 112.546 273.484 112.525 273.647C112.515 273.8 112.5 273.927 112.479 274.029H106.466V272.775H111.347L111.01 273.172C111.01 272.428 110.842 271.872 110.506 271.505C110.179 271.127 109.72 270.938 109.128 270.938C108.71 270.938 108.333 271.035 107.996 271.229C107.67 271.423 107.409 271.714 107.216 272.101C107.022 272.479 106.925 272.948 106.925 273.509C106.925 274.091 107.032 274.57 107.246 274.948C107.471 275.325 107.777 275.611 108.164 275.804C108.562 275.998 109.021 276.095 109.541 276.095C109.939 276.095 110.307 276.039 110.643 275.927C110.98 275.815 111.317 275.662 111.653 275.468L112.25 276.57C111.852 276.825 111.403 277.039 110.903 277.212C110.403 277.375 109.873 277.457 109.312 277.457ZM117.569 277.457C116.906 277.457 116.289 277.304 115.718 276.998C115.146 276.682 114.682 276.233 114.325 275.651C113.968 275.06 113.789 274.351 113.789 273.524C113.789 272.688 113.968 271.979 114.325 271.397C114.682 270.806 115.146 270.357 115.718 270.051C116.289 269.735 116.906 269.576 117.569 269.576C118.232 269.576 118.849 269.735 119.421 270.051C119.992 270.357 120.456 270.806 120.813 271.397C121.17 271.979 121.349 272.688 121.349 273.524C121.349 274.351 121.17 275.06 120.813 275.651C120.456 276.233 119.992 276.682 119.421 276.998C118.849 277.304 118.232 277.457 117.569 277.457ZM117.569 276.019C117.977 276.019 118.329 275.917 118.625 275.713C118.921 275.509 119.145 275.218 119.298 274.84C119.451 274.463 119.528 274.024 119.528 273.524C119.528 273.025 119.451 272.586 119.298 272.208C119.145 271.831 118.921 271.54 118.625 271.336C118.329 271.122 117.977 271.015 117.569 271.015C117.161 271.015 116.809 271.122 116.513 271.336C116.228 271.54 116.003 271.831 115.84 272.208C115.687 272.586 115.61 273.025 115.61 273.524C115.61 274.024 115.687 274.463 115.84 274.84C116.003 275.218 116.228 275.509 116.513 275.713C116.809 275.917 117.161 276.019 117.569 276.019ZM123.21 277.273L121.786 269.76H123.516L124.189 273.662C124.25 274.029 124.301 274.392 124.342 274.749C124.393 275.095 124.439 275.452 124.48 275.82H124.526C124.577 275.452 124.633 275.09 124.694 274.733C124.765 274.376 124.842 274.019 124.923 273.662L125.612 270.495H127.066L127.739 273.662C127.821 274.029 127.897 274.392 127.969 274.749C128.05 275.095 128.116 275.452 128.167 275.82H128.229C128.28 275.452 128.32 275.095 128.351 274.749C128.392 274.392 128.443 274.029 128.504 273.662L129.147 269.76H130.784L129.407 277.273H127.265L126.637 274.274C126.586 273.978 126.53 273.647 126.469 273.28C126.418 272.912 126.367 272.504 126.316 272.055H126.255C126.204 272.443 126.153 272.815 126.102 273.172C126.061 273.53 126.01 273.897 125.949 274.274L125.337 277.273H123.21ZM131.666 277.273V269.76H133.119L133.257 270.892H133.318C133.675 270.525 134.068 270.214 134.497 269.959C134.935 269.704 135.445 269.576 136.027 269.576C136.894 269.576 137.531 269.842 137.939 270.372C138.348 270.903 138.552 271.652 138.552 272.622V277.273H136.777V272.851C136.777 272.249 136.669 271.805 136.455 271.52C136.241 271.234 135.879 271.091 135.369 271.091C135.001 271.091 134.675 271.178 134.389 271.352C134.104 271.525 133.788 271.79 133.441 272.147V277.273H131.666ZM144.177 277.457C143.412 277.457 142.718 277.304 142.096 276.998C141.473 276.682 140.979 276.233 140.611 275.651C140.244 275.06 140.061 274.346 140.061 273.509C140.061 272.693 140.244 271.994 140.611 271.413C140.979 270.821 141.458 270.367 142.05 270.051C142.641 269.735 143.274 269.576 143.947 269.576C144.692 269.576 145.319 269.73 145.829 270.036C146.35 270.342 146.742 270.765 147.008 271.306C147.283 271.836 147.421 272.448 147.421 273.142C147.421 273.315 147.411 273.484 147.39 273.647C147.38 273.8 147.365 273.927 147.344 274.029H141.331V272.775H146.212L145.875 273.172C145.875 272.428 145.707 271.872 145.37 271.505C145.044 271.127 144.585 270.938 143.993 270.938C143.575 270.938 143.197 271.035 142.861 271.229C142.534 271.423 142.274 271.714 142.08 272.101C141.887 272.479 141.79 272.948 141.79 273.509C141.79 274.091 141.897 274.57 142.111 274.948C142.335 275.325 142.641 275.611 143.029 275.804C143.427 275.998 143.886 276.095 144.406 276.095C144.804 276.095 145.171 276.039 145.508 275.927C145.845 275.815 146.181 275.662 146.518 275.468L147.115 276.57C146.717 276.825 146.268 277.039 145.768 277.212C145.268 277.375 144.738 277.457 144.177 277.457ZM149.833 277.273V269.76H151.286L151.439 271.459H151.485C151.863 270.847 152.327 270.382 152.878 270.066C153.439 269.74 154.041 269.576 154.683 269.576C154.989 269.576 155.255 269.602 155.479 269.653C155.703 269.704 155.923 269.781 156.137 269.883L155.77 271.367C155.525 271.285 155.306 271.229 155.112 271.199C154.928 271.158 154.694 271.137 154.408 271.137C153.898 271.137 153.398 271.285 152.908 271.581C152.429 271.877 151.995 272.392 151.608 273.127V277.273H149.833ZM161.196 277.457C160.492 277.457 159.819 277.345 159.176 277.12C158.533 276.886 157.977 276.61 157.508 276.294L158.273 275.177C158.722 275.473 159.207 275.708 159.727 275.881C160.247 276.044 160.813 276.126 161.426 276.126C161.946 276.126 162.328 276.039 162.573 275.866C162.828 275.682 162.956 275.468 162.956 275.223C162.956 275.101 162.925 274.988 162.864 274.886C162.813 274.784 162.716 274.692 162.573 274.611C162.43 274.519 162.221 274.432 161.946 274.351C161.67 274.269 161.313 274.182 160.875 274.091C159.875 273.876 159.14 273.586 158.671 273.218C158.202 272.851 157.967 272.387 157.967 271.826C157.967 271.163 158.253 270.622 158.824 270.204C159.406 269.786 160.222 269.576 161.273 269.576C161.895 269.576 162.476 269.679 163.017 269.883C163.568 270.087 164.032 270.316 164.409 270.571L163.598 271.658C163.241 271.413 162.849 271.229 162.42 271.107C161.992 270.974 161.558 270.908 161.12 270.908C160.783 270.908 160.513 270.943 160.308 271.015C160.115 271.086 159.967 271.188 159.865 271.321C159.773 271.443 159.727 271.581 159.727 271.734C159.727 271.999 159.88 272.198 160.186 272.331C160.492 272.463 160.992 272.606 161.686 272.759C162.492 272.933 163.114 273.132 163.553 273.356C163.991 273.57 164.292 273.82 164.455 274.106C164.629 274.381 164.715 274.723 164.715 275.131C164.715 275.56 164.578 275.952 164.302 276.309C164.037 276.656 163.644 276.937 163.124 277.151C162.604 277.355 161.961 277.457 161.196 277.457ZM167.403 272.27L166.944 268.735L166.898 266.776H169.04L168.994 268.735L168.535 272.27H167.403ZM171.198 272.27L170.739 268.735L170.693 266.776H172.835L172.789 268.735L172.33 272.27H171.198ZM178.583 272.254C178.154 272.254 177.792 272.106 177.496 271.811C177.21 271.515 177.068 271.148 177.068 270.709C177.068 270.26 177.21 269.893 177.496 269.607C177.792 269.311 178.154 269.163 178.583 269.163C179.021 269.163 179.383 269.311 179.669 269.607C179.955 269.893 180.097 270.26 180.097 270.709C180.097 271.148 179.955 271.515 179.669 271.811C179.383 272.106 179.021 272.254 178.583 272.254ZM178.583 277.457C178.154 277.457 177.792 277.309 177.496 277.013C177.21 276.717 177.068 276.35 177.068 275.912C177.068 275.463 177.21 275.095 177.496 274.81C177.792 274.514 178.154 274.366 178.583 274.366C179.021 274.366 179.383 274.514 179.669 274.81C179.955 275.095 180.097 275.463 180.097 275.912C180.097 276.35 179.955 276.717 179.669 277.013C179.383 277.309 179.021 277.457 178.583 277.457Z" fill="#D09A66"/>
<rect x="197.606" y="267.273" width="122" height="10" fill="#B8E9FF" fill-opacity="0.6"/>
<path d="M70.9583 300.529V299.565H71.6622C72.1314 299.565 72.4885 299.524 72.7333 299.443C72.9883 299.371 73.1618 299.244 73.2536 299.06C73.3454 298.887 73.3913 298.647 73.3913 298.341C73.3913 297.902 73.376 297.479 73.3454 297.071C73.325 296.653 73.3148 296.199 73.3148 295.709C73.3148 295.168 73.4219 294.77 73.6361 294.515C73.8504 294.25 74.2278 294.072 74.7685 293.98V293.919C74.2278 293.827 73.8504 293.653 73.6361 293.398C73.4219 293.133 73.3148 292.73 73.3148 292.189C73.3148 291.72 73.325 291.271 73.3454 290.843C73.376 290.404 73.3913 289.976 73.3913 289.557C73.3913 289.251 73.3454 289.012 73.2536 288.838C73.1618 288.655 72.9883 288.527 72.7333 288.456C72.4885 288.374 72.1314 288.333 71.6622 288.333H70.9583V287.369H72.0141C72.9832 287.369 73.6973 287.522 74.1564 287.828C74.6155 288.124 74.845 288.675 74.845 289.481C74.845 289.838 74.8348 290.164 74.8144 290.46C74.794 290.756 74.7685 291.052 74.7379 291.348C74.7073 291.633 74.692 291.939 74.692 292.266C74.692 292.45 74.7532 292.628 74.8756 292.801C74.998 292.975 75.2122 293.123 75.5183 293.245C75.8345 293.357 76.2783 293.414 76.8496 293.414V294.485C76.2783 294.485 75.8345 294.546 75.5183 294.668C75.2122 294.781 74.998 294.923 74.8756 295.097C74.7532 295.27 74.692 295.449 74.692 295.632C74.692 295.969 74.7073 296.28 74.7379 296.566C74.7685 296.851 74.794 297.142 74.8144 297.438C74.8348 297.724 74.845 298.05 74.845 298.417C74.845 299.223 74.6155 299.774 74.1564 300.07C73.6973 300.376 72.9832 300.529 72.0141 300.529H70.9583Z" fill="#D09A66"/>
<g clip-path="url(#clip1_5714_21372)">
<rect x="107.734" y="305.164" width="45.2095" height="45.2095" rx="22.6047" fill="white"/>
<g filter="url(#filter5_d_5714_21372)">
<path d="M138.413 340.687C137.955 340.687 137.572 340.532 137.263 340.222C136.954 339.912 136.799 339.528 136.798 339.072V330.999C136.798 330.541 136.953 330.158 137.263 329.849C137.573 329.54 137.957 329.385 138.413 329.384H141.642C142.1 329.384 142.483 329.539 142.793 329.849C143.103 330.159 143.258 330.542 143.257 330.999V339.072C143.257 339.529 143.102 339.913 142.792 340.223C142.482 340.533 142.099 340.688 141.642 340.687H138.413ZM128.725 340.687C128.268 340.687 127.885 340.532 127.576 340.222C127.267 339.912 127.112 339.528 127.111 339.072V316.467C127.111 316.01 127.266 315.626 127.576 315.318C127.886 315.009 128.269 314.854 128.725 314.853H131.954C132.412 314.853 132.796 315.008 133.106 315.318C133.416 315.628 133.57 316.011 133.569 316.467V339.072C133.569 339.529 133.414 339.913 133.104 340.223C132.794 340.533 132.411 340.688 131.954 340.687H128.725ZM119.037 340.687C118.58 340.687 118.197 340.532 117.888 340.222C117.579 339.912 117.424 339.528 117.423 339.072V324.54C117.423 324.083 117.578 323.7 117.888 323.391C118.198 323.082 118.581 322.927 119.037 322.926H122.267C122.724 322.926 123.108 323.081 123.418 323.391C123.728 323.701 123.882 324.084 123.881 324.54V339.072C123.881 339.529 123.726 339.913 123.416 340.223C123.106 340.533 122.723 340.688 122.267 340.687H119.037Z" fill="#F9FAFC"/>
<path d="M140.794 331.847V338.224H139.261V331.847H140.794ZM131.106 317.315V338.224H129.573V317.315H131.106ZM121.419 325.388V338.224H119.886V325.388H121.419Z" stroke="url(#paint1_linear_5714_21372)" stroke-width="4.92503"/>
</g>
</g>
<g clip-path="url(#clip2_5714_21372)">
<rect x="172.319" y="305.164" width="45.2095" height="45.2095" rx="22.6047" fill="white"/>
<g filter="url(#filter6_d_5714_21372)">
<path d="M193.444 313.53V342.012C193.444 343.045 192.491 343.82 191.49 343.594C184.273 341.98 178.912 335.505 178.912 327.771C178.912 320.037 184.273 313.562 191.49 311.948C191.726 311.896 191.97 311.899 192.205 311.955C192.44 312.01 192.659 312.118 192.847 312.27C193.034 312.422 193.185 312.614 193.288 312.832C193.392 313.05 193.445 313.289 193.444 313.53ZM196.721 313.53V324.526C196.721 325.414 197.448 326.14 198.336 326.14H209.299C210.333 326.14 211.108 325.188 210.882 324.17C209.509 318.099 204.746 313.32 198.691 311.948C197.674 311.722 196.721 312.497 196.721 313.53ZM196.721 331.016V342.012C196.721 343.045 197.674 343.82 198.691 343.594C204.762 342.222 209.525 337.426 210.898 331.355C211.124 330.354 210.333 329.386 209.315 329.386H198.352C197.448 329.402 196.721 330.128 196.721 331.016Z" fill="url(#paint2_linear_5714_21372)"/>
</g>
</g>
<g clip-path="url(#clip3_5714_21372)">
<rect x="236.904" y="305.164" width="45.2095" height="45.2095" rx="22.6047" fill="white"/>
<g filter="url(#filter7_d_5714_21372)">
<path fill-rule="evenodd" clip-rule="evenodd" d="M255.508 312.429C256.03 312.437 256.535 312.613 256.949 312.931C257.363 313.249 257.663 313.693 257.804 314.195L263.067 332.909L265.313 326.919C265.486 326.457 265.796 326.059 266.202 325.777C266.607 325.496 267.089 325.346 267.582 325.346H272.426C273.068 325.346 273.684 325.601 274.138 326.055C274.593 326.51 274.848 327.126 274.848 327.768C274.848 328.41 274.593 329.026 274.138 329.48C273.684 329.935 273.068 330.19 272.426 330.19H269.261L265.007 341.536C264.828 342.014 264.502 342.424 264.076 342.706C263.651 342.988 263.147 343.128 262.636 343.107C262.126 343.085 261.636 342.903 261.235 342.586C260.835 342.269 260.545 341.834 260.407 341.342L255.35 323.36L253.748 328.488C253.594 328.981 253.287 329.412 252.871 329.718C252.455 330.025 251.952 330.19 251.436 330.19H246.592C245.95 330.19 245.333 329.935 244.879 329.48C244.425 329.026 244.17 328.41 244.17 327.768C244.17 327.126 244.425 326.51 244.879 326.055C245.333 325.601 245.95 325.346 246.592 325.346H249.655L253.16 314.129C253.316 313.63 253.628 313.195 254.052 312.889C254.475 312.583 254.985 312.421 255.508 312.429Z" fill="#F9FAFC"/>
<path d="M255.484 314.043C255.658 314.046 255.827 314.105 255.965 314.211C256.102 314.317 256.202 314.465 256.249 314.632V314.633L261.513 333.346L262.849 338.093L264.579 333.476L266.825 327.485V327.484C266.883 327.331 266.987 327.198 267.122 327.104C267.257 327.011 267.418 326.961 267.582 326.961H272.426C272.64 326.961 272.846 327.046 272.997 327.197C273.148 327.349 273.233 327.554 273.233 327.768C273.233 327.982 273.148 328.187 272.997 328.339C272.846 328.49 272.64 328.575 272.426 328.575H268.143L267.749 329.623L263.495 340.969L263.494 340.97C263.434 341.129 263.326 341.266 263.185 341.36C263.043 341.454 262.874 341.501 262.704 341.494C262.534 341.487 262.371 341.426 262.237 341.32C262.104 341.215 262.007 341.069 261.961 340.905L256.904 322.923L255.431 317.685L253.809 322.879L252.207 328.007L252.206 328.008C252.155 328.172 252.053 328.316 251.914 328.418C251.775 328.52 251.608 328.575 251.436 328.575H246.592C246.378 328.575 246.173 328.49 246.021 328.339C245.87 328.187 245.784 327.982 245.784 327.768C245.784 327.554 245.87 327.349 246.021 327.197C246.173 327.046 246.378 326.961 246.592 326.961H250.842L251.196 325.827L254.701 314.61C254.753 314.444 254.858 314.299 254.999 314.197C255.14 314.095 255.31 314.04 255.484 314.043Z" stroke="url(#paint3_linear_5714_21372)" stroke-width="3.22925"/>
</g>
</g>
</g>
<g clip-path="url(#clip4_5714_21372)">
<rect x="160.002" y="112.144" width="69" height="52" rx="8.99905" fill="white"/>
<g filter="url(#filter8_d_5714_21372)">
<path d="M183.561 121.887H183.554C183.518 120.413 182.305 119.268 180.829 119.248V119.244H170.886V119.251C169.424 119.287 168.309 120.425 168.276 121.888H168.27V154.335H168.275C168.302 155.792 169.439 156.926 170.886 156.982V157.044H180.829C182.351 157.043 183.561 155.856 183.561 154.335V121.887ZM175.915 153.883C175.392 153.889 174.873 153.792 174.388 153.596C173.903 153.401 173.461 153.111 173.089 152.743C172.717 152.376 172.421 151.938 172.22 151.456C172.018 150.973 171.914 150.455 171.914 149.932C171.914 149.409 172.018 148.891 172.22 148.409C172.422 147.926 172.717 147.489 173.09 147.121C173.462 146.754 173.903 146.464 174.388 146.268C174.873 146.073 175.392 145.976 175.915 145.982C176.954 145.995 177.946 146.418 178.676 147.157C179.406 147.896 179.816 148.894 179.816 149.933C179.816 150.972 179.406 151.969 178.676 152.709C177.946 153.448 176.954 153.87 175.915 153.883ZM180.4 139.681H171.43V122.405H180.4V139.681ZM202.013 121.887H202.006C201.97 120.413 200.757 119.268 199.281 119.248V119.244H189.338V119.251C187.876 119.287 186.761 120.425 186.728 121.888H186.722V154.335H186.727C186.754 155.792 187.892 156.926 189.338 156.982V157.044H199.281C200.803 157.043 202.013 155.856 202.013 154.335V121.887ZM194.367 153.883C193.844 153.889 193.325 153.792 192.84 153.596C192.355 153.401 191.913 153.111 191.541 152.743C191.169 152.376 190.874 151.938 190.672 151.456C190.47 150.973 190.367 150.455 190.367 149.932C190.367 149.409 190.47 148.891 190.672 148.409C190.874 147.926 191.169 147.489 191.542 147.121C191.914 146.754 192.355 146.464 192.84 146.268C193.325 146.073 193.845 145.976 194.368 145.982C195.407 145.995 196.399 146.417 197.129 147.157C197.859 147.896 198.268 148.893 198.268 149.933C198.268 150.972 197.859 151.969 197.129 152.708C196.399 153.448 195.406 153.87 194.367 153.883ZM198.852 139.681H189.883V122.405H198.853L198.852 139.681ZM220.466 121.887H220.459C220.422 120.413 219.209 119.268 217.734 119.248V119.244H207.79V119.251C206.328 119.287 205.213 120.425 205.18 121.888H205.174V154.335H205.179C205.206 155.792 206.344 156.926 207.79 156.982V157.044H217.734C219.255 157.043 220.466 155.856 220.466 154.335V121.887ZM212.82 153.883C212.297 153.889 211.778 153.792 211.293 153.596C210.807 153.401 210.366 153.111 209.994 152.743C209.622 152.376 209.326 151.938 209.125 151.456C208.923 150.973 208.819 150.455 208.819 149.932C208.819 149.409 208.923 148.891 209.125 148.409C209.327 147.926 209.622 147.489 209.994 147.121C210.367 146.754 210.808 146.464 211.293 146.268C211.778 146.073 212.297 145.976 212.82 145.982C213.859 145.995 214.851 146.418 215.581 147.157C216.311 147.896 216.721 148.894 216.721 149.933C216.72 150.972 216.311 151.969 215.581 152.709C214.851 153.448 213.859 153.87 212.82 153.883ZM217.305 139.681H208.335V122.405H217.305V139.681Z" fill="#F9FAFC"/>
<path d="M218.75 141.396V154.335C218.75 154.888 218.327 155.328 217.732 155.328H214.498C215.361 155.052 216.154 154.57 216.802 153.914C217.849 152.854 218.436 151.423 218.437 149.933C218.437 148.442 217.849 147.012 216.802 145.951C215.755 144.891 214.332 144.286 212.842 144.267C212.092 144.257 211.347 144.396 210.651 144.677C209.956 144.957 209.323 145.373 208.789 145.9C208.255 146.427 207.831 147.055 207.542 147.747C207.253 148.439 207.104 149.182 207.104 149.932C207.103 150.682 207.253 151.425 207.542 152.117C207.831 152.809 208.255 153.437 208.788 153.964C209.322 154.491 209.956 154.907 210.651 155.188C210.781 155.24 210.913 155.286 211.046 155.328H209.404L207.857 155.269C207.301 155.247 206.905 154.833 206.895 154.303L206.89 154.047V141.396H218.75ZM200.298 141.396V154.335C200.298 154.888 199.874 155.328 199.28 155.328H196.046C196.909 155.052 197.701 154.57 198.35 153.914C199.397 152.854 199.983 151.423 199.983 149.933C199.983 148.442 199.397 147.012 198.35 145.951C197.303 144.891 195.88 144.286 194.39 144.267C193.64 144.257 192.895 144.396 192.199 144.677C191.503 144.957 190.87 145.373 190.336 145.9C189.802 146.427 189.378 147.055 189.089 147.747C188.8 148.439 188.651 149.182 188.651 149.932C188.651 150.682 188.8 151.425 189.089 152.117C189.378 152.809 189.802 153.437 190.336 153.964C190.87 154.491 191.503 154.907 192.198 155.188C192.328 155.24 192.46 155.286 192.593 155.328H190.952L189.405 155.269C188.849 155.247 188.452 154.833 188.442 154.303L188.438 154.047V141.396H200.298ZM181.846 141.396V154.335C181.846 154.888 181.422 155.328 180.828 155.328H177.594C178.456 155.052 179.248 154.57 179.896 153.914C180.944 152.854 181.531 151.423 181.531 149.933C181.531 148.442 180.944 147.012 179.897 145.951C178.85 144.891 177.428 144.286 175.938 144.267C175.188 144.257 174.443 144.396 173.747 144.677C173.051 144.957 172.418 145.373 171.884 145.9C171.35 146.427 170.927 147.055 170.638 147.747C170.348 148.439 170.199 149.182 170.199 149.932C170.199 150.682 170.348 151.425 170.637 152.117C170.926 152.809 171.35 153.437 171.884 153.964C172.418 154.491 173.05 154.907 173.746 155.188C173.876 155.24 174.008 155.286 174.141 155.328H172.5L170.953 155.269C170.396 155.247 170 154.833 169.99 154.303L169.985 154.047V141.396H181.846Z" stroke="url(#paint4_linear_5714_21372)" stroke-width="3.43118"/>
</g>
</g>
</g>
<defs>
<filter id="filter0_d_5714_21372" x="52.771" y="15.5893" width="70.3321" height="70.3321" filterUnits="userSpaceOnUse" color-interpolation-filters="sRGB">
<feFlood flood-opacity="0" result="BackgroundImageFix"/>
<feColorMatrix in="SourceAlpha" type="matrix" values="0 0 0 0 0 0 0 0 0 0 0 0 0 0 0 0 0 0 127 0" result="hardAlpha"/>
<feMorphology radius="2.9824" operator="dilate" in="SourceAlpha" result="effect1_dropShadow_5714_21372"/>
<feOffset/>
<feGaussianBlur stdDeviation="4.82155"/>
<feComposite in2="hardAlpha" operator="out"/>
<feColorMatrix type="matrix" values="0 0 0 0 0 0 0 0 0 0 0 0 0 0 0 0 0 0 0.05 0"/>
<feBlend mode="normal" in2="BackgroundImageFix" result="effect1_dropShadow_5714_21372"/>
<feBlend mode="normal" in="SourceGraphic" in2="effect1_dropShadow_5714_21372" result="shape"/>
</filter>
<filter id="filter1_d_5714_21372" x="123.724" y="15.5893" width="70.3321" height="70.3321" filterUnits="userSpaceOnUse" color-interpolation-filters="sRGB">
<feFlood flood-opacity="0" result="BackgroundImageFix"/>
<feColorMatrix in="SourceAlpha" type="matrix" values="0 0 0 0 0 0 0 0 0 0 0 0 0 0 0 0 0 0 127 0" result="hardAlpha"/>
<feMorphology radius="2.9824" operator="dilate" in="SourceAlpha" result="effect1_dropShadow_5714_21372"/>
<feOffset/>
<feGaussianBlur stdDeviation="4.82155"/>
<feComposite in2="hardAlpha" operator="out"/>
<feColorMatrix type="matrix" values="0 0 0 0 0 0 0 0 0 0 0 0 0 0 0 0 0 0 0.05 0"/>
<feBlend mode="normal" in2="BackgroundImageFix" result="effect1_dropShadow_5714_21372"/>
<feBlend mode="normal" in="SourceGraphic" in2="effect1_dropShadow_5714_21372" result="shape"/>
</filter>
<filter id="filter2_d_5714_21372" x="194.678" y="15.5893" width="70.3321" height="70.3321" filterUnits="userSpaceOnUse" color-interpolation-filters="sRGB">
<feFlood flood-opacity="0" result="BackgroundImageFix"/>
<feColorMatrix in="SourceAlpha" type="matrix" values="0 0 0 0 0 0 0 0 0 0 0 0 0 0 0 0 0 0 127 0" result="hardAlpha"/>
<feMorphology radius="2.9824" operator="dilate" in="SourceAlpha" result="effect1_dropShadow_5714_21372"/>
<feOffset/>
<feGaussianBlur stdDeviation="4.82155"/>
<feComposite in2="hardAlpha" operator="out"/>
<feColorMatrix type="matrix" values="0 0 0 0 0 0 0 0 0 0 0 0 0 0 0 0 0 0 0.05 0"/>
<feBlend mode="normal" in2="BackgroundImageFix" result="effect1_dropShadow_5714_21372"/>
<feBlend mode="normal" in="SourceGraphic" in2="effect1_dropShadow_5714_21372" result="shape"/>
</filter>
<filter id="filter3_d_5714_21372" x="265.631" y="15.5893" width="70.3321" height="70.3321" filterUnits="userSpaceOnUse" color-interpolation-filters="sRGB">
<feFlood flood-opacity="0" result="BackgroundImageFix"/>
<feColorMatrix in="SourceAlpha" type="matrix" values="0 0 0 0 0 0 0 0 0 0 0 0 0 0 0 0 0 0 127 0" result="hardAlpha"/>
<feMorphology radius="2.9824" operator="dilate" in="SourceAlpha" result="effect1_dropShadow_5714_21372"/>
<feOffset/>
<feGaussianBlur stdDeviation="4.82155"/>
<feComposite in2="hardAlpha" operator="out"/>
<feColorMatrix type="matrix" values="0 0 0 0 0 0 0 0 0 0 0 0 0 0 0 0 0 0 0.05 0"/>
<feBlend mode="normal" in2="BackgroundImageFix" result="effect1_dropShadow_5714_21372"/>
<feBlend mode="normal" in="SourceGraphic" in2="effect1_dropShadow_5714_21372" result="shape"/>
</filter>
<filter id="filter4_d_5714_21372" x="25.2399" y="122.147" width="340.516" height="240.477" filterUnits="userSpaceOnUse" color-interpolation-filters="sRGB">
<feFlood flood-opacity="0" result="BackgroundImageFix"/>
<feColorMatrix in="SourceAlpha" type="matrix" values="0 0 0 0 0 0 0 0 0 0 0 0 0 0 0 0 0 0 127 0" result="hardAlpha"/>
<feOffset dx="0.995917" dy="1.99183"/>
<feGaussianBlur stdDeviation="5.12897"/>
<feComposite in2="hardAlpha" operator="out"/>
<feColorMatrix type="matrix" values="0 0 0 0 0 0 0 0 0 0 0 0 0 0 0 0 0 0 0.25 0"/>
<feBlend mode="normal" in2="BackgroundImageFix" result="effect1_dropShadow_5714_21372"/>
<feBlend mode="normal" in="SourceGraphic" in2="effect1_dropShadow_5714_21372" result="shape"/>
</filter>
<filter id="filter5_d_5714_21372" x="96.5736" y="294.003" width="67.5326" height="67.5326" filterUnits="userSpaceOnUse" color-interpolation-filters="sRGB">
<feFlood flood-opacity="0" result="BackgroundImageFix"/>
<feColorMatrix in="SourceAlpha" type="matrix" values="0 0 0 0 0 0 0 0 0 0 0 0 0 0 0 0 0 0 127 0" result="hardAlpha"/>
<feMorphology radius="4.92503" operator="dilate" in="SourceAlpha" result="effect1_dropShadow_5714_21372"/>
<feOffset/>
<feGaussianBlur stdDeviation="7.96213"/>
<feComposite in2="hardAlpha" operator="out"/>
<feColorMatrix type="matrix" values="0 0 0 0 0 0 0 0 0 0 0 0 0 0 0 0 0 0 0.05 0"/>
<feBlend mode="normal" in2="BackgroundImageFix" result="effect1_dropShadow_5714_21372"/>
<feBlend mode="normal" in="SourceGraphic" in2="effect1_dropShadow_5714_21372" result="shape"/>
</filter>
<filter id="filter6_d_5714_21372" x="158.063" y="291.059" width="73.723" height="73.4242" filterUnits="userSpaceOnUse" color-interpolation-filters="sRGB">
<feFlood flood-opacity="0" result="BackgroundImageFix"/>
<feColorMatrix in="SourceAlpha" type="matrix" values="0 0 0 0 0 0 0 0 0 0 0 0 0 0 0 0 0 0 127 0" result="hardAlpha"/>
<feMorphology radius="4.92503" operator="dilate" in="SourceAlpha" result="effect1_dropShadow_5714_21372"/>
<feOffset/>
<feGaussianBlur stdDeviation="7.96213"/>
<feComposite in2="hardAlpha" operator="out"/>
<feColorMatrix type="matrix" values="0 0 0 0 0 0 0 0 0 0 0 0 0 0 0 0 0 0 0.05 0"/>
<feBlend mode="normal" in2="BackgroundImageFix" result="effect1_dropShadow_5714_21372"/>
<feBlend mode="normal" in="SourceGraphic" in2="effect1_dropShadow_5714_21372" result="shape"/>
</filter>
<filter id="filter7_d_5714_21372" x="223.321" y="291.579" width="72.3763" height="72.3792" filterUnits="userSpaceOnUse" color-interpolation-filters="sRGB">
<feFlood flood-opacity="0" result="BackgroundImageFix"/>
<feColorMatrix in="SourceAlpha" type="matrix" values="0 0 0 0 0 0 0 0 0 0 0 0 0 0 0 0 0 0 127 0" result="hardAlpha"/>
<feMorphology radius="4.92503" operator="dilate" in="SourceAlpha" result="effect1_dropShadow_5714_21372"/>
<feOffset/>
<feGaussianBlur stdDeviation="7.96213"/>
<feComposite in2="hardAlpha" operator="out"/>
<feColorMatrix type="matrix" values="0 0 0 0 0 0 0 0 0 0 0 0 0 0 0 0 0 0 0.05 0"/>
<feBlend mode="normal" in2="BackgroundImageFix" result="effect1_dropShadow_5714_21372"/>
<feBlend mode="normal" in="SourceGraphic" in2="effect1_dropShadow_5714_21372" result="shape"/>
</filter>
<filter id="filter8_d_5714_21372" x="153.744" y="104.719" width="81.247" height="66.8505" filterUnits="userSpaceOnUse" color-interpolation-filters="sRGB">
<feFlood flood-opacity="0" result="BackgroundImageFix"/>
<feColorMatrix in="SourceAlpha" type="matrix" values="0 0 0 0 0 0 0 0 0 0 0 0 0 0 0 0 0 0 127 0" result="hardAlpha"/>
<feMorphology radius="3.43118" operator="dilate" in="SourceAlpha" result="effect1_dropShadow_5714_21372"/>
<feOffset/>
<feGaussianBlur stdDeviation="5.54708"/>
<feComposite in2="hardAlpha" operator="out"/>
<feColorMatrix type="matrix" values="0 0 0 0 0 0 0 0 0 0 0 0 0 0 0 0 0 0 0.05 0"/>
<feBlend mode="normal" in2="BackgroundImageFix" result="effect1_dropShadow_5714_21372"/>
<feBlend mode="normal" in="SourceGraphic" in2="effect1_dropShadow_5714_21372" result="shape"/>
</filter>
<linearGradient id="paint0_linear_5714_21372" x1="194.502" y1="132.913" x2="194.502" y2="327.913" gradientUnits="userSpaceOnUse">
<stop stop-color="#02D7FD"/>
<stop offset="1" stop-color="#32F7BA"/>
</linearGradient>
<linearGradient id="paint1_linear_5714_21372" x1="117.423" y1="327.77" x2="143.257" y2="327.77" gradientUnits="userSpaceOnUse">
<stop stop-color="#00D6FF"/>
<stop offset="1" stop-color="#32F8B9"/>
</linearGradient>
<linearGradient id="paint2_linear_5714_21372" x1="178.912" y1="327.771" x2="210.937" y2="327.771" gradientUnits="userSpaceOnUse">
<stop stop-color="#00D6FF"/>
<stop offset="1" stop-color="#32F8B9"/>
</linearGradient>
<linearGradient id="paint3_linear_5714_21372" x1="244.17" y1="327.769" x2="274.848" y2="327.769" gradientUnits="userSpaceOnUse">
<stop stop-color="#00D6FF"/>
<stop offset="1" stop-color="#32F8B9"/>
</linearGradient>
<linearGradient id="paint4_linear_5714_21372" x1="168.27" y1="138.144" x2="220.466" y2="138.144" gradientUnits="userSpaceOnUse">
<stop stop-color="#00D6FF"/>
<stop offset="1" stop-color="#32F8B9"/>
</linearGradient>
<clipPath id="clip0_5714_21372">
<rect x="0.875" y="0.790039" width="387" height="387" rx="16" fill="white"/>
</clipPath>
<clipPath id="clip1_5714_21372">
<rect x="107.734" y="305.164" width="45.2095" height="45.2095" rx="22.6047" fill="white"/>
</clipPath>
<clipPath id="clip2_5714_21372">
<rect x="172.319" y="305.164" width="45.2095" height="45.2095" rx="22.6047" fill="white"/>
</clipPath>
<clipPath id="clip3_5714_21372">
<rect x="236.904" y="305.164" width="45.2095" height="45.2095" rx="22.6047" fill="white"/>
</clipPath>
<clipPath id="clip4_5714_21372">
<rect x="160.002" y="112.144" width="69" height="52" rx="8.99905" fill="white"/>
</clipPath>
</defs>
</svg>
