<svg width="387" height="388" viewBox="0 0 387 388" fill="none" xmlns="http://www.w3.org/2000/svg">
<rect x="-0.00390625" y="0.698242" width="387" height="387" rx="16" fill="#E8F7FE" style="mix-blend-mode:multiply"/>
<path d="M193.087 112.052L197.713 104.038H188.46L193.087 112.052ZM87.3627 50.8855H86.5614V52.5271H87.3627H88.1641V50.8855H87.3627ZM87.3627 55.8103H86.5614V59.0935H87.3627H88.1641V55.8103H87.3627ZM87.3627 62.3767H86.5614V65.6599H87.3627H88.1641V62.3767H87.3627ZM87.3627 68.9431H86.5614V72.2262H87.3627H88.1641V68.9431H87.3627ZM87.3627 75.5094H86.5614V78.7926H87.3627H88.1641V75.5094H87.3627ZM87.3627 82.0758H86.5614V83.7174H87.3627H88.1641V82.0758H87.3627ZM87.3627 83.7174H86.5614C86.5614 84.3709 86.6254 85.0102 86.7479 85.6292L87.534 85.4737L88.3201 85.3182C88.2179 84.8011 88.1641 84.2659 88.1641 83.7174H87.3627ZM88.8785 88.7174L88.2126 89.1632C88.9279 90.2316 89.8476 91.1513 90.916 91.8666L91.3618 91.2007L91.8076 90.5348C90.9133 89.9361 90.1431 89.1659 89.5444 88.2716L88.8785 88.7174ZM94.6055 92.5452L94.45 93.3313C95.069 93.4537 95.7083 93.5178 96.3618 93.5178V92.7164V91.9151C95.8133 91.9151 95.2781 91.8613 94.761 91.759L94.6055 92.5452ZM96.3618 92.7164V93.5178H97.9283V92.7164V91.9151H96.3618V92.7164ZM101.061 92.7164V93.5178H104.194V92.7164V91.9151H101.061V92.7164ZM107.328 92.7164V93.5178H110.461V92.7164V91.9151H107.328V92.7164ZM113.594 92.7164V93.5178H116.727V92.7164V91.9151H113.594V92.7164ZM119.86 92.7164V93.5178H122.993V92.7164V91.9151H119.86V92.7164ZM126.126 92.7164V93.5178H129.259V92.7164V91.9151H126.126V92.7164ZM132.392 92.7164V93.5178H135.525V92.7164V91.9151H132.392V92.7164ZM138.658 92.7164V93.5178H141.791V92.7164V91.9151H138.658V92.7164ZM144.924 92.7164V93.5178H148.057V92.7164V91.9151H144.924V92.7164ZM151.19 92.7164V93.5178H154.324V92.7164V91.9151H151.19V92.7164ZM157.457 92.7164V93.5178H160.59V92.7164V91.9151H157.457V92.7164ZM163.723 92.7164V93.5178H166.856V92.7164V91.9151H163.723V92.7164ZM169.989 92.7164V93.5178H173.122V92.7164V91.9151H169.989V92.7164ZM176.255 92.7164V93.5178H179.388V92.7164V91.9151H176.255V92.7164ZM182.521 92.7164V93.5178H184.088V92.7164V91.9151H182.521V92.7164ZM184.088 92.7164V93.5178C184.636 93.5178 185.171 93.5716 185.688 93.6739L185.844 92.8877L185.999 92.1016C185.381 91.9792 184.741 91.9151 184.088 91.9151V92.7164ZM189.088 94.2322L188.642 94.8981C189.536 95.4968 190.306 96.267 190.905 97.1613L191.571 96.7155L192.237 96.2697C191.522 95.2013 190.602 94.2816 189.534 93.5663L189.088 94.2322ZM192.915 99.9592L192.129 100.115C192.232 100.632 192.285 101.167 192.285 101.715H193.087H193.888C193.888 101.062 193.824 100.423 193.702 99.8037L192.915 99.9592ZM193.087 101.715H192.285V103.008H193.087H193.888V101.715H193.087ZM193.087 105.592H192.285V108.176H193.087H193.888V105.592H193.087Z" fill="#04D8FB"/>
<path d="M193.087 112.052L197.713 104.038H188.46L193.087 112.052ZM156.63 50.8856H155.829V52.5272H156.63H157.432V50.8856H156.63ZM156.63 55.8104H155.829V59.0936H156.63H157.432V55.8104H156.63ZM156.63 62.3768H155.829V65.6599H156.63H157.432V62.3768H156.63ZM156.63 68.9431H155.829V72.2263H156.63H157.432V68.9431H156.63ZM156.63 75.5095H155.829V78.7927H156.63H157.432V75.5095H156.63ZM156.63 82.0759H155.829V83.7175H156.63H157.432V82.0759H156.63ZM156.63 83.7175H155.829C155.829 84.371 155.893 85.0103 156.015 85.6293L156.802 85.4737L157.588 85.3182C157.485 84.8011 157.432 84.266 157.432 83.7175H156.63ZM158.146 88.7175L157.48 89.1633C158.195 90.2317 159.115 91.1514 160.184 91.8667L160.629 91.2008L161.075 90.5349C160.181 89.9361 159.411 89.166 158.812 88.2717L158.146 88.7175ZM163.873 92.5452L163.718 93.3314C164.337 93.4538 164.976 93.5179 165.629 93.5179V92.7165V91.9152C165.081 91.9152 164.546 91.8614 164.029 91.7591L163.873 92.5452ZM165.629 92.7165V93.5179H167.168V92.7165V91.9152H165.629V92.7165ZM170.244 92.7165V93.5179H173.32V92.7165V91.9152H170.244V92.7165ZM176.397 92.7165V93.5179H179.473V92.7165V91.9152H176.397V92.7165ZM182.55 92.7165V93.5179H184.088V92.7165V91.9152H182.55V92.7165ZM184.088 92.7165V93.5179C184.636 93.5179 185.171 93.5716 185.689 93.6739L185.844 92.8878L186 92.1017C185.381 91.9792 184.741 91.9152 184.088 91.9152V92.7165ZM189.088 94.2323L188.642 94.8982C189.536 95.4969 190.306 96.267 190.905 97.1614L191.571 96.7156L192.237 96.2697C191.522 95.2013 190.602 94.2816 189.534 93.5664L189.088 94.2323ZM192.916 99.9593L192.129 100.115C192.232 100.632 192.285 101.167 192.285 101.716H193.087H193.888C193.888 101.062 193.824 100.423 193.702 99.8038L192.916 99.9593ZM193.087 101.716H192.285V103.008H193.087H193.888V101.716H193.087ZM193.087 105.592H192.285V108.176H193.087H193.888V105.592H193.087Z" fill="#04D8FB"/>
<path d="M193.087 112.052L188.46 104.038H197.713L193.087 112.052ZM227.797 50.8856H228.599V52.5272H227.797H226.996V50.8856H227.797ZM227.797 55.8104H228.599V59.0936H227.797H226.996V55.8104H227.797ZM227.797 62.3768H228.599V65.6599H227.797H226.996V62.3768H227.797ZM227.797 68.9431H228.599V72.2263H227.797H226.996V68.9431H227.797ZM227.797 75.5095H228.599V78.7927H227.797H226.996V75.5095H227.797ZM227.797 82.0759H228.599V83.7175H227.797H226.996V82.0759H227.797ZM227.797 83.7175H228.599C228.599 84.371 228.534 85.0103 228.412 85.6293L227.626 85.4737L226.84 85.3182C226.942 84.8011 226.996 84.266 226.996 83.7175H227.797ZM226.281 88.7175L226.947 89.1633C226.232 90.2317 225.312 91.1514 224.244 91.8667L223.798 91.2008L223.352 90.5349C224.247 89.9361 225.017 89.166 225.616 88.2717L226.281 88.7175ZM220.554 92.5452L220.71 93.3314C220.091 93.4538 219.452 93.5179 218.798 93.5179V92.7165V91.9152C219.347 91.9152 219.882 91.8614 220.399 91.7591L220.554 92.5452ZM218.798 92.7165V93.5179H217.405V92.7165V91.9152H218.798V92.7165ZM214.62 92.7165V93.5179H211.835V92.7165V91.9152H214.62V92.7165ZM209.049 92.7165V93.5179H206.264V92.7165V91.9152H209.049V92.7165ZM203.479 92.7165V93.5179H202.086V92.7165V91.9152H203.479V92.7165ZM202.086 92.7165V93.5179C201.537 93.5179 201.002 93.5716 200.485 93.6739L200.33 92.8878L200.174 92.1017C200.793 91.9792 201.432 91.9152 202.086 91.9152V92.7165ZM197.086 94.2323L197.532 94.8982C196.637 95.4969 195.867 96.267 195.268 97.1614L194.603 96.7156L193.937 96.2697C194.652 95.2013 195.572 94.2816 196.64 93.5664L197.086 94.2323ZM193.258 99.9593L194.044 100.115C193.942 100.632 193.888 101.167 193.888 101.716H193.087H192.285C192.285 101.062 192.35 100.423 192.472 99.8038L193.258 99.9593ZM193.087 101.716H193.888V103.008H193.087H192.285V101.716H193.087ZM193.087 105.592H193.888V108.176H193.087H192.285V105.592H193.087Z" fill="#04D8FB"/>
<path d="M193.087 112.052L188.46 104.038H197.713L193.087 112.052ZM301.647 50.8856H302.448V52.5272H301.647H300.845V50.8856H301.647ZM301.647 55.8104H302.448V59.0936H301.647H300.845V55.8104H301.647ZM301.647 62.3768H302.448V65.6599H301.647H300.845V62.3768H301.647ZM301.647 68.9431H302.448V72.2263H301.647H300.845V68.9431H301.647ZM301.647 75.5095H302.448V78.7927H301.647H300.845V75.5095H301.647ZM301.647 82.0759H302.448V83.7175H301.647H300.845V82.0759H301.647ZM301.647 83.7175H302.448C302.448 84.371 302.384 85.0103 302.261 85.6293L301.475 85.4737L300.689 85.3182C300.791 84.8011 300.845 84.266 300.845 83.7175H301.647ZM300.131 88.7175L300.797 89.1633C300.081 90.2317 299.162 91.1514 298.093 91.8667L297.648 91.2008L297.202 90.5349C298.096 89.9361 298.866 89.166 299.465 88.2717L300.131 88.7175ZM294.404 92.5452L294.559 93.3314C293.94 93.4538 293.301 93.5179 292.648 93.5179V92.7165V91.9152C293.196 91.9152 293.731 91.8614 294.248 91.7591L294.404 92.5452ZM292.648 92.7165V93.5179H291.03V92.7165V91.9152H292.648V92.7165ZM287.796 92.7165V93.5179H284.562V92.7165V91.9152H287.796V92.7165ZM281.327 92.7165V93.5179H278.093V92.7165V91.9152H281.327V92.7165ZM274.859 92.7165V93.5179H271.624V92.7165V91.9152H274.859V92.7165ZM268.39 92.7165V93.5179H265.156V92.7165V91.9152H268.39V92.7165ZM261.921 92.7165V93.5179H258.687V92.7165V91.9152H261.921V92.7165ZM255.453 92.7165V93.5179H252.218V92.7165V91.9152H255.453V92.7165ZM248.984 92.7165V93.5179H245.75V92.7165V91.9152H248.984V92.7165ZM242.515 92.7165V93.5179H239.281V92.7165V91.9152H242.515V92.7165ZM236.046 92.7165V93.5179H232.812V92.7165V91.9152H236.046V92.7165ZM229.578 92.7165V93.5179H226.343V92.7165V91.9152H229.578V92.7165ZM223.109 92.7165V93.5179H219.875V92.7165V91.9152H223.109V92.7165ZM216.64 92.7165V93.5179H213.406V92.7165V91.9152H216.64V92.7165ZM210.172 92.7165V93.5179H206.937V92.7165V91.9152H210.172V92.7165ZM203.703 92.7165V93.5179H202.086V92.7165V91.9152H203.703V92.7165ZM202.086 92.7165V93.5179C201.537 93.5179 201.002 93.5716 200.485 93.6739L200.33 92.8878L200.174 92.1017C200.793 91.9792 201.432 91.9152 202.086 91.9152V92.7165ZM197.086 94.2323L197.532 94.8982C196.637 95.4969 195.867 96.267 195.268 97.1614L194.603 96.7155L193.937 96.2697C194.652 95.2013 195.572 94.2816 196.64 93.5664L197.086 94.2323ZM193.258 99.9593L194.044 100.115C193.942 100.632 193.888 101.167 193.888 101.716H193.087H192.285C192.285 101.062 192.349 100.423 192.472 99.8038L193.258 99.9593ZM193.087 101.716H193.888V103.008H193.087H192.285V101.716H193.087ZM193.087 105.592H193.888V108.176H193.087H192.285V105.592H193.087Z" fill="#04D8FB"/>
<g filter="url(#filter0_d_2_73)">
<rect x="64.5173" y="28.123" width="45.0811" height="45.0811" rx="22.5406" fill="#FDFDFD"/>
<rect x="65.3522" y="28.9579" width="43.4115" height="43.4115" rx="21.7057" stroke="#00D6FF" stroke-opacity="0.24" stroke-width="1.66967"/>
<path d="M80.9026 55.1135L74.8237 51.1765V49.5701L80.9026 45.633V47.7276L76.7293 50.3418V50.4048L80.9026 53.019V55.1135ZM83.1327 58.1215L88.3139 44.4204H90.2509L85.0697 58.1215H83.1327ZM92.481 55.1135V53.019L96.6544 50.4048V50.3418L92.481 47.7276V45.633L98.5599 49.5701V51.1765L92.481 55.1135Z" fill="black"/>
</g>
<g filter="url(#filter1_d_2_73)">
<rect x="135.471" y="28.1232" width="45.0811" height="45.0811" rx="22.5406" fill="#FDFDFD"/>
<rect x="136.306" y="28.9581" width="43.4115" height="43.4115" rx="21.7057" stroke="#00D6FF" stroke-opacity="0.24" stroke-width="1.66967"/>
<path d="M153.543 55.1137L147.464 51.1766V49.5703L153.543 45.6332V47.7278L149.37 50.342V50.405L153.543 53.0192V55.1137ZM162.287 55.1137V53.0192L166.46 50.405V50.342L162.287 47.7278V45.6332L168.366 49.5703V51.1766L162.287 55.1137Z" fill="black"/>
</g>
<g filter="url(#filter2_d_2_73)">
<rect x="206.424" y="28.123" width="45.0811" height="45.0811" rx="22.5406" fill="#FDFDFD"/>
<rect x="207.259" y="28.9579" width="43.4115" height="43.4115" rx="21.7057" stroke="#00D6FF" stroke-opacity="0.24" stroke-width="1.66967"/>
<path d="M222.809 55.1135L216.73 51.1765V49.5701L222.809 45.633V47.7276L218.636 50.3418V50.4048L222.809 53.019V55.1135ZM225.039 58.1215L230.22 44.4204H232.158L226.976 58.1215H225.039ZM234.388 55.1135V53.019L238.561 50.4048V50.3418L234.388 47.7276V45.633L240.466 49.5701V51.1765L234.388 55.1135Z" fill="black"/>
</g>
<g filter="url(#filter3_d_2_73)">
<rect x="277.378" y="28.1232" width="45.0811" height="45.0811" rx="22.5406" fill="#FDFDFD"/>
<rect x="278.212" y="28.9581" width="43.4115" height="43.4115" rx="21.7057" stroke="#00D6FF" stroke-opacity="0.24" stroke-width="1.66967"/>
<path d="M291.9 55.1137V53.0192L296.073 50.405V50.342L291.9 47.7278V45.6332L297.979 49.5703V51.1766L291.9 55.1137ZM300.272 58.1846V56.4523H307.831V58.1846H300.272Z" fill="black"/>
</g>
<g filter="url(#filter4_d_2_73)">
<rect x="36.1233" y="132.821" width="315" height="195" rx="30.0615" fill="#111214" shape-rendering="crispEdges"/>
<rect x="36.1233" y="132.821" width="315" height="195" rx="30.0615" stroke="url(#paint0_linear_2_73)" stroke-width="5" shape-rendering="crispEdges"/>
<path d="M69.0987 174.717C68.1295 174.717 67.4103 174.564 66.9411 174.258C66.482 173.962 66.2525 173.411 66.2525 172.605C66.2525 172.238 66.2627 171.912 66.2831 171.626C66.3137 171.33 66.3392 171.04 66.3596 170.754C66.3902 170.468 66.4055 170.157 66.4055 169.82C66.4055 169.637 66.3443 169.458 66.2219 169.285C66.0995 169.111 65.8801 168.969 65.5639 168.856C65.2578 168.734 64.8192 168.673 64.2479 168.673V167.602C64.8192 167.602 65.2578 167.546 65.5639 167.433C65.8801 167.311 66.0995 167.163 66.2219 166.99C66.3443 166.816 66.4055 166.638 66.4055 166.454C66.4055 166.128 66.3902 165.822 66.3596 165.536C66.3392 165.24 66.3137 164.944 66.2831 164.648C66.2627 164.353 66.2525 164.026 66.2525 163.669C66.2525 162.863 66.482 162.312 66.9411 162.016C67.4103 161.71 68.1295 161.557 69.0987 161.557H70.1545V162.521H69.4506C68.9813 162.521 68.6192 162.562 68.3642 162.644C68.1193 162.715 67.951 162.843 67.8592 163.026C67.7674 163.2 67.7215 163.44 67.7215 163.746C67.7215 164.164 67.7317 164.592 67.7521 165.031C67.7827 165.459 67.798 165.908 67.798 166.378C67.798 166.918 67.6909 167.321 67.4766 167.586C67.2624 167.841 66.885 168.015 66.3443 168.107V168.168C66.885 168.26 67.2624 168.438 67.4766 168.703C67.6909 168.958 67.798 169.356 67.798 169.897C67.798 170.387 67.7827 170.841 67.7521 171.259C67.7317 171.667 67.7215 172.09 67.7215 172.529C67.7215 172.835 67.7674 173.075 67.8592 173.248C67.951 173.432 68.1193 173.559 68.3642 173.631C68.6192 173.712 68.9813 173.753 69.4506 173.753H70.1545V174.717H69.0987Z" fill="#D09A66"/>
<path d="M76.6458 188.318L76.1867 184.783L76.1408 182.824H78.2831L78.2372 184.783L77.7781 188.318H76.6458ZM80.4407 188.318L79.9816 184.783L79.9357 182.824H82.078L82.0321 184.783L81.573 188.318H80.4407ZM86.8157 193.505C85.9383 193.505 85.3007 193.24 84.9029 192.709C84.505 192.179 84.3061 191.429 84.3061 190.46V185.808H86.0659V190.23C86.0659 190.832 86.1679 191.276 86.3719 191.562C86.5861 191.847 86.9534 191.99 87.4736 191.99C87.8205 191.99 88.1367 191.908 88.4224 191.745C88.7182 191.572 89.0294 191.281 89.3558 190.873V185.808H91.1155V193.321H89.6771L89.5394 192.128H89.4782C89.1212 192.536 88.7284 192.867 88.3 193.122C87.8715 193.377 87.3767 193.505 86.8157 193.505ZM93.2059 193.321V185.808H94.6596L94.7974 186.94H94.8586C95.2156 186.573 95.6084 186.262 96.0368 186.007C96.4755 185.752 96.9856 185.624 97.567 185.624C98.4341 185.624 99.0717 185.89 99.4798 186.42C99.8878 186.951 100.092 187.7 100.092 188.669V193.321H98.3168V188.899C98.3168 188.297 98.2097 187.853 97.9955 187.568C97.7813 187.282 97.4191 187.139 96.909 187.139C96.5418 187.139 96.2153 187.226 95.9297 187.399C95.6441 187.573 95.3278 187.838 94.981 188.195V193.321H93.2059ZM105.212 193.321V187.2H101.953V185.808H106.972V193.321H105.212ZM105.962 184.431C105.605 184.431 105.304 184.324 105.059 184.109C104.824 183.895 104.707 183.61 104.707 183.253C104.707 182.895 104.824 182.61 105.059 182.396C105.304 182.171 105.605 182.059 105.962 182.059C106.329 182.059 106.63 182.171 106.865 182.396C107.099 182.61 107.217 182.895 107.217 183.253C107.217 183.61 107.099 183.895 106.865 184.109C106.63 184.324 106.329 184.431 105.962 184.431ZM115.367 193.505C114.602 193.505 113.995 193.372 113.546 193.107C113.097 192.832 112.776 192.454 112.582 191.975C112.388 191.495 112.291 190.939 112.291 190.307V187.2H110.286V185.884L112.367 185.808L112.597 183.451H114.051V185.808H117.478V187.2H114.051V190.291C114.051 190.7 114.107 191.041 114.219 191.317C114.331 191.582 114.515 191.781 114.77 191.913C115.025 192.036 115.362 192.097 115.78 192.097C116.106 192.097 116.402 192.072 116.667 192.021C116.933 191.97 117.188 191.898 117.432 191.806L117.769 193.076C117.432 193.189 117.07 193.286 116.683 193.367C116.295 193.459 115.856 193.505 115.367 193.505ZM119.018 195.647V194.27H126.363V195.647H119.018ZM132.799 193.505C132.034 193.505 131.427 193.372 130.978 193.107C130.529 192.832 130.208 192.454 130.014 191.975C129.82 191.495 129.723 190.939 129.723 190.307V187.2H127.719V185.884L129.8 185.808L130.029 183.451H131.483V185.808H134.911V187.2H131.483V190.291C131.483 190.7 131.539 191.041 131.651 191.317C131.764 191.582 131.947 191.781 132.202 191.913C132.457 192.036 132.794 192.097 133.212 192.097C133.539 192.097 133.835 192.072 134.1 192.021C134.365 191.97 134.62 191.898 134.865 191.806L135.202 193.076C134.865 193.189 134.503 193.286 134.115 193.367C133.727 193.459 133.289 193.505 132.799 193.505ZM140.582 193.505C139.817 193.505 139.123 193.352 138.501 193.046C137.879 192.73 137.384 192.281 137.016 191.699C136.649 191.108 136.466 190.393 136.466 189.557C136.466 188.741 136.649 188.042 137.016 187.461C137.384 186.869 137.863 186.415 138.455 186.099C139.047 185.782 139.679 185.624 140.352 185.624C141.097 185.624 141.724 185.777 142.234 186.083C142.755 186.389 143.148 186.813 143.413 187.353C143.688 187.884 143.826 188.496 143.826 189.19C143.826 189.363 143.816 189.531 143.795 189.695C143.785 189.848 143.77 189.975 143.749 190.077H137.736V188.822H142.617L142.28 189.22C142.28 188.476 142.112 187.92 141.775 187.552C141.449 187.175 140.99 186.986 140.398 186.986C139.98 186.986 139.603 187.083 139.266 187.277C138.939 187.471 138.679 187.762 138.485 188.149C138.292 188.527 138.195 188.996 138.195 189.557C138.195 190.138 138.302 190.618 138.516 190.995C138.741 191.373 139.047 191.658 139.434 191.852C139.832 192.046 140.291 192.143 140.811 192.143C141.209 192.143 141.577 192.087 141.913 191.975C142.25 191.862 142.586 191.709 142.923 191.516L143.52 192.617C143.122 192.872 142.673 193.087 142.173 193.26C141.673 193.423 141.143 193.505 140.582 193.505ZM148.885 193.505C148.181 193.505 147.508 193.393 146.865 193.168C146.222 192.934 145.666 192.658 145.197 192.342L145.962 191.225C146.411 191.521 146.896 191.755 147.416 191.929C147.936 192.092 148.502 192.174 149.114 192.174C149.635 192.174 150.017 192.087 150.262 191.913C150.517 191.73 150.645 191.516 150.645 191.271C150.645 191.148 150.614 191.036 150.553 190.934C150.502 190.832 150.405 190.74 150.262 190.659C150.119 190.567 149.91 190.48 149.635 190.399C149.359 190.317 149.002 190.23 148.564 190.138C147.564 189.924 146.829 189.633 146.36 189.266C145.891 188.899 145.656 188.435 145.656 187.874C145.656 187.211 145.942 186.67 146.513 186.252C147.095 185.833 147.911 185.624 148.961 185.624C149.584 185.624 150.165 185.726 150.706 185.93C151.257 186.134 151.721 186.364 152.098 186.619L151.287 187.705C150.93 187.461 150.538 187.277 150.109 187.155C149.681 187.022 149.247 186.956 148.808 186.956C148.472 186.956 148.201 186.991 147.997 187.063C147.804 187.134 147.656 187.236 147.554 187.369C147.462 187.491 147.416 187.629 147.416 187.782C147.416 188.047 147.569 188.246 147.875 188.379C148.181 188.511 148.681 188.654 149.375 188.807C150.18 188.981 150.803 189.18 151.241 189.404C151.68 189.618 151.981 189.868 152.144 190.154C152.318 190.429 152.404 190.771 152.404 191.179C152.404 191.607 152.267 192 151.991 192.357C151.726 192.704 151.333 192.985 150.813 193.199C150.293 193.403 149.65 193.505 148.885 193.505ZM158.948 193.505C158.183 193.505 157.576 193.372 157.127 193.107C156.678 192.832 156.357 192.454 156.163 191.975C155.969 191.495 155.872 190.939 155.872 190.307V187.2H153.867V185.884L155.948 185.808L156.178 183.451H157.632V185.808H161.059V187.2H157.632V190.291C157.632 190.7 157.688 191.041 157.8 191.317C157.912 191.582 158.096 191.781 158.351 191.913C158.606 192.036 158.943 192.097 159.361 192.097C159.687 192.097 159.983 192.072 160.248 192.021C160.514 191.97 160.769 191.898 161.013 191.806L161.35 193.076C161.013 193.189 160.651 193.286 160.264 193.367C159.876 193.459 159.437 193.505 158.948 193.505ZM166.317 193.505C165.613 193.505 164.94 193.393 164.297 193.168C163.655 192.934 163.099 192.658 162.63 192.342L163.395 191.225C163.843 191.521 164.328 191.755 164.848 191.929C165.369 192.092 165.935 192.174 166.547 192.174C167.067 192.174 167.45 192.087 167.695 191.913C167.95 191.73 168.077 191.516 168.077 191.271C168.077 191.148 168.046 191.036 167.985 190.934C167.934 190.832 167.837 190.74 167.695 190.659C167.552 190.567 167.343 190.48 167.067 190.399C166.792 190.317 166.435 190.23 165.996 190.138C164.996 189.924 164.262 189.633 163.792 189.266C163.323 188.899 163.089 188.435 163.089 187.874C163.089 187.211 163.374 186.67 163.946 186.252C164.527 185.833 165.343 185.624 166.394 185.624C167.016 185.624 167.598 185.726 168.138 185.93C168.689 186.134 169.153 186.364 169.531 186.619L168.72 187.705C168.363 187.461 167.97 187.277 167.541 187.155C167.113 187.022 166.679 186.956 166.241 186.956C165.904 186.956 165.634 186.991 165.43 187.063C165.236 187.134 165.088 187.236 164.986 187.369C164.894 187.491 164.848 187.629 164.848 187.782C164.848 188.047 165.001 188.246 165.307 188.379C165.613 188.511 166.113 188.654 166.807 188.807C167.613 188.981 168.235 189.18 168.674 189.404C169.112 189.618 169.413 189.868 169.577 190.154C169.75 190.429 169.837 190.771 169.837 191.179C169.837 191.607 169.699 192 169.424 192.357C169.158 192.704 168.766 192.985 168.245 193.199C167.725 193.403 167.082 193.505 166.317 193.505ZM172.524 188.318L172.065 184.783L172.019 182.824H174.161L174.115 184.783L173.656 188.318H172.524ZM176.319 188.318L175.86 184.783L175.814 182.824H177.956L177.91 184.783L177.451 188.318H176.319ZM183.704 188.302C183.275 188.302 182.913 188.154 182.617 187.858C182.332 187.563 182.189 187.195 182.189 186.757C182.189 186.308 182.332 185.941 182.617 185.655C182.913 185.359 183.275 185.211 183.704 185.211C184.142 185.211 184.505 185.359 184.79 185.655C185.076 185.941 185.219 186.308 185.219 186.757C185.219 187.195 185.076 187.563 184.79 187.858C184.505 188.154 184.142 188.302 183.704 188.302ZM183.704 193.505C183.275 193.505 182.913 193.357 182.617 193.061C182.332 192.765 182.189 192.398 182.189 191.959C182.189 191.511 182.332 191.143 182.617 190.858C182.913 190.562 183.275 190.414 183.704 190.414C184.142 190.414 184.505 190.562 184.79 190.858C185.076 191.143 185.219 191.511 185.219 191.959C185.219 192.398 185.076 192.765 184.79 193.061C184.505 193.357 184.142 193.505 183.704 193.505Z" fill="#D09A66"/>
<rect x="202.728" y="183.321" width="122" height="10" fill="#B8E9FF" fill-opacity="0.6"/>
<path d="M76.6458 209.318L76.1867 205.783L76.1408 203.824H78.2831L78.2372 205.783L77.7781 209.318H76.6458ZM80.4407 209.318L79.9816 205.783L79.9357 203.824H82.078L82.0321 205.783L81.573 209.318H80.4407ZM89.2181 214.505C88.453 214.505 87.846 214.372 87.3971 214.107C86.9483 213.832 86.6269 213.454 86.4331 212.975C86.2393 212.495 86.1424 211.939 86.1424 211.307V208.2H84.1378V206.884L86.2189 206.808L86.4484 204.451H87.9021V206.808H91.3298V208.2H87.9021V211.291C87.9021 211.7 87.9582 212.041 88.0704 212.317C88.1826 212.582 88.3663 212.781 88.6213 212.913C88.8763 213.036 89.213 213.097 89.6312 213.097C89.9577 213.097 90.2535 213.072 90.5188 213.021C90.784 212.97 91.039 212.898 91.2839 212.806L91.6205 214.076C91.2839 214.189 90.9217 214.286 90.5341 214.367C90.1464 214.459 89.7077 214.505 89.2181 214.505ZM97.0009 214.505C96.2358 214.505 95.5421 214.352 94.9198 214.046C94.2975 213.73 93.8027 213.281 93.4355 212.699C93.0682 212.108 92.8846 211.393 92.8846 210.557C92.8846 209.741 93.0682 209.042 93.4355 208.461C93.8027 207.869 94.2822 207.415 94.8739 207.099C95.4655 206.782 96.098 206.624 96.7713 206.624C97.516 206.624 98.1434 206.777 98.6535 207.083C99.1737 207.389 99.5665 207.813 99.8317 208.353C100.107 208.884 100.245 209.496 100.245 210.19C100.245 210.363 100.235 210.531 100.214 210.695C100.204 210.848 100.189 210.975 100.168 211.077H94.1547V209.822H99.036L98.6994 210.22C98.6994 209.476 98.5311 208.92 98.1944 208.552C97.868 208.175 97.4089 207.986 96.8172 207.986C96.399 207.986 96.0215 208.083 95.6849 208.277C95.3584 208.471 95.0983 208.762 94.9045 209.149C94.7106 209.527 94.6137 209.996 94.6137 210.557C94.6137 211.138 94.7208 211.618 94.9351 211.995C95.1595 212.373 95.4655 212.658 95.8532 212.852C96.2511 213.046 96.7101 213.143 97.2304 213.143C97.6282 213.143 97.9955 213.087 98.3321 212.975C98.6688 212.862 99.0054 212.709 99.3421 212.516L99.9389 213.617C99.541 213.872 99.0921 214.087 98.5923 214.26C98.0924 214.423 97.5619 214.505 97.0009 214.505ZM105.304 214.505C104.6 214.505 103.927 214.393 103.284 214.168C102.641 213.934 102.085 213.658 101.616 213.342L102.381 212.225C102.83 212.521 103.315 212.755 103.835 212.929C104.355 213.092 104.921 213.174 105.533 213.174C106.054 213.174 106.436 213.087 106.681 212.913C106.936 212.73 107.064 212.516 107.064 212.271C107.064 212.148 107.033 212.036 106.972 211.934C106.921 211.832 106.824 211.74 106.681 211.659C106.538 211.567 106.329 211.48 106.054 211.399C105.778 211.317 105.421 211.23 104.983 211.138C103.983 210.924 103.248 210.633 102.779 210.266C102.31 209.899 102.075 209.435 102.075 208.874C102.075 208.211 102.361 207.67 102.932 207.252C103.514 206.833 104.33 206.624 105.38 206.624C106.003 206.624 106.584 206.726 107.125 206.93C107.676 207.134 108.14 207.364 108.517 207.619L107.706 208.705C107.349 208.461 106.957 208.277 106.528 208.155C106.1 208.022 105.666 207.956 105.227 207.956C104.891 207.956 104.62 207.991 104.416 208.063C104.223 208.134 104.075 208.236 103.973 208.369C103.881 208.491 103.835 208.629 103.835 208.782C103.835 209.047 103.988 209.246 104.294 209.379C104.6 209.511 105.1 209.654 105.794 209.807C106.599 209.981 107.222 210.18 107.66 210.404C108.099 210.618 108.4 210.868 108.563 211.154C108.737 211.429 108.823 211.771 108.823 212.179C108.823 212.607 108.686 213 108.41 213.357C108.145 213.704 107.752 213.985 107.232 214.199C106.712 214.403 106.069 214.505 105.304 214.505ZM115.367 214.505C114.602 214.505 113.995 214.372 113.546 214.107C113.097 213.832 112.776 213.454 112.582 212.975C112.388 212.495 112.291 211.939 112.291 211.307V208.2H110.286V206.884L112.367 206.808L112.597 204.451H114.051V206.808H117.478V208.2H114.051V211.291C114.051 211.7 114.107 212.041 114.219 212.317C114.331 212.582 114.515 212.781 114.77 212.913C115.025 213.036 115.362 213.097 115.78 213.097C116.106 213.097 116.402 213.072 116.667 213.021C116.933 212.97 117.188 212.898 117.432 212.806L117.769 214.076C117.432 214.189 117.07 214.286 116.683 214.367C116.295 214.459 115.856 214.505 115.367 214.505ZM119.018 216.647V215.27H126.363V216.647H119.018ZM132.08 214.505C131.294 214.505 130.585 214.352 129.953 214.046C129.331 213.73 128.836 213.281 128.469 212.699C128.112 212.108 127.933 211.399 127.933 210.572C127.933 209.736 128.127 209.027 128.515 208.445C128.912 207.854 129.438 207.405 130.091 207.099C130.744 206.782 131.447 206.624 132.202 206.624C132.814 206.624 133.355 206.726 133.824 206.93C134.294 207.124 134.681 207.374 134.987 207.68L134.146 208.782C133.85 208.547 133.549 208.369 133.243 208.246C132.947 208.124 132.631 208.063 132.294 208.063C131.794 208.063 131.35 208.17 130.963 208.384C130.585 208.588 130.29 208.879 130.075 209.256C129.861 209.634 129.754 210.072 129.754 210.572C129.754 211.072 129.856 211.511 130.06 211.888C130.274 212.266 130.565 212.556 130.932 212.76C131.31 212.965 131.748 213.067 132.248 213.067C132.677 213.067 133.069 212.985 133.426 212.822C133.784 212.658 134.105 212.465 134.391 212.24L135.125 213.373C134.697 213.74 134.217 214.02 133.687 214.214C133.156 214.408 132.621 214.505 132.08 214.505ZM140.123 214.505C139.46 214.505 138.843 214.352 138.271 214.046C137.7 213.73 137.236 213.281 136.879 212.699C136.522 212.108 136.343 211.399 136.343 210.572C136.343 209.736 136.522 209.027 136.879 208.445C137.236 207.854 137.7 207.405 138.271 207.099C138.843 206.782 139.46 206.624 140.123 206.624C140.786 206.624 141.403 206.782 141.974 207.099C142.546 207.405 143.01 207.854 143.367 208.445C143.724 209.027 143.902 209.736 143.902 210.572C143.902 211.399 143.724 212.108 143.367 212.699C143.01 213.281 142.546 213.73 141.974 214.046C141.403 214.352 140.786 214.505 140.123 214.505ZM140.123 213.067C140.531 213.067 140.883 212.965 141.179 212.76C141.474 212.556 141.699 212.266 141.852 211.888C142.005 211.511 142.081 211.072 142.081 210.572C142.081 210.072 142.005 209.634 141.852 209.256C141.699 208.879 141.474 208.588 141.179 208.384C140.883 208.17 140.531 208.063 140.123 208.063C139.715 208.063 139.363 208.17 139.067 208.384C138.781 208.588 138.557 208.879 138.394 209.256C138.241 209.634 138.164 210.072 138.164 210.572C138.164 211.072 138.241 211.511 138.394 211.888C138.557 212.266 138.781 212.556 139.067 212.76C139.363 212.965 139.715 213.067 140.123 213.067ZM147.875 214.321L144.876 206.808H146.651L148.105 210.71C148.237 211.077 148.365 211.45 148.487 211.827C148.62 212.205 148.742 212.587 148.854 212.975H148.916C149.038 212.587 149.16 212.205 149.283 211.827C149.405 211.45 149.533 211.077 149.665 210.71L151.119 206.808H152.802L149.88 214.321H147.875ZM158.014 214.505C157.249 214.505 156.555 214.352 155.933 214.046C155.311 213.73 154.816 213.281 154.449 212.699C154.082 212.108 153.898 211.393 153.898 210.557C153.898 209.741 154.082 209.042 154.449 208.461C154.816 207.869 155.296 207.415 155.887 207.099C156.479 206.782 157.111 206.624 157.785 206.624C158.529 206.624 159.157 206.777 159.667 207.083C160.187 207.389 160.58 207.813 160.845 208.353C161.121 208.884 161.258 209.496 161.258 210.19C161.258 210.363 161.248 210.531 161.228 210.695C161.218 210.848 161.202 210.975 161.182 211.077H155.168V209.822H160.049L159.713 210.22C159.713 209.476 159.544 208.92 159.208 208.552C158.881 208.175 158.422 207.986 157.831 207.986C157.412 207.986 157.035 208.083 156.698 208.277C156.372 208.471 156.112 208.762 155.918 209.149C155.724 209.527 155.627 209.996 155.627 210.557C155.627 211.138 155.734 211.618 155.948 211.995C156.173 212.373 156.479 212.658 156.867 212.852C157.264 213.046 157.724 213.143 158.244 213.143C158.642 213.143 159.009 213.087 159.346 212.975C159.682 212.862 160.019 212.709 160.355 212.516L160.952 213.617C160.554 213.872 160.106 214.087 159.606 214.26C159.106 214.423 158.575 214.505 158.014 214.505ZM163.67 214.321V206.808H165.124L165.277 208.507H165.323C165.7 207.894 166.164 207.43 166.715 207.114C167.276 206.788 167.878 206.624 168.521 206.624C168.827 206.624 169.092 206.65 169.317 206.701C169.541 206.752 169.76 206.828 169.975 206.93L169.607 208.415C169.362 208.333 169.143 208.277 168.949 208.246C168.766 208.206 168.531 208.185 168.245 208.185C167.735 208.185 167.235 208.333 166.746 208.629C166.266 208.925 165.833 209.44 165.445 210.174V214.321H163.67ZM173.993 214.505C173.503 214.505 173.07 214.413 172.692 214.229C172.315 214.036 172.019 213.776 171.805 213.449C171.591 213.123 171.483 212.74 171.483 212.301C171.483 211.465 171.881 210.827 172.677 210.389C173.483 209.94 174.814 209.649 176.671 209.516C176.65 209.241 176.574 208.991 176.441 208.767C176.319 208.542 176.13 208.369 175.875 208.246C175.62 208.114 175.289 208.047 174.881 208.047C174.595 208.047 174.314 208.083 174.039 208.155C173.763 208.226 173.488 208.323 173.213 208.445C172.947 208.568 172.682 208.7 172.417 208.843L171.774 207.665C172.08 207.481 172.417 207.313 172.784 207.16C173.151 206.997 173.539 206.869 173.947 206.777C174.355 206.675 174.773 206.624 175.202 206.624C175.906 206.624 176.492 206.752 176.962 207.007C177.441 207.252 177.803 207.619 178.048 208.109C178.303 208.588 178.431 209.175 178.431 209.868V214.321H176.992L176.854 213.388H176.809C176.411 213.694 175.967 213.959 175.477 214.184C174.998 214.398 174.503 214.505 173.993 214.505ZM174.529 213.128C174.906 213.128 175.268 213.046 175.615 212.883C175.972 212.709 176.324 212.485 176.671 212.21V210.618C175.773 210.679 175.069 210.781 174.559 210.924C174.049 211.057 173.692 211.23 173.488 211.444C173.284 211.659 173.182 211.898 173.182 212.164C173.182 212.388 173.243 212.572 173.366 212.715C173.488 212.857 173.646 212.965 173.84 213.036C174.044 213.097 174.274 213.128 174.529 213.128ZM183.49 217.642C182.796 217.642 182.194 217.565 181.684 217.412C181.174 217.269 180.776 217.05 180.49 216.754C180.205 216.458 180.062 216.086 180.062 215.637C180.062 215.341 180.164 215.056 180.368 214.78C180.572 214.505 180.868 214.265 181.255 214.061V214C181.062 213.878 180.883 213.719 180.72 213.526C180.567 213.322 180.49 213.061 180.49 212.745C180.49 212.5 180.572 212.25 180.735 211.995C180.898 211.74 181.118 211.521 181.393 211.337V211.276C181.128 211.082 180.898 210.822 180.705 210.496C180.521 210.159 180.429 209.771 180.429 209.333C180.429 208.751 180.572 208.262 180.858 207.864C181.143 207.456 181.521 207.15 181.99 206.946C182.459 206.731 182.969 206.624 183.52 206.624C183.969 206.624 184.362 206.686 184.698 206.808H187.774V208.155H186.045C186.178 208.297 186.29 208.481 186.382 208.705C186.484 208.92 186.535 209.149 186.535 209.394C186.535 209.945 186.397 210.414 186.122 210.802C185.856 211.179 185.499 211.465 185.05 211.659C184.602 211.853 184.091 211.949 183.52 211.949C183.347 211.949 183.158 211.934 182.954 211.904C182.76 211.863 182.566 211.807 182.373 211.735C182.22 211.827 182.102 211.929 182.021 212.041C181.949 212.153 181.913 212.286 181.913 212.439C181.913 212.674 182.031 212.852 182.265 212.975C182.51 213.087 182.867 213.143 183.337 213.143H184.867C185.846 213.143 186.581 213.286 187.07 213.571C187.57 213.847 187.82 214.316 187.82 214.979C187.82 215.469 187.642 215.918 187.285 216.326C186.938 216.734 186.438 217.055 185.785 217.29C185.142 217.525 184.377 217.642 183.49 217.642ZM183.52 210.832C183.785 210.832 184.025 210.776 184.239 210.664C184.454 210.542 184.622 210.368 184.744 210.144C184.877 209.919 184.943 209.649 184.943 209.333C184.943 209.027 184.877 208.767 184.744 208.552C184.622 208.328 184.454 208.155 184.239 208.032C184.025 207.91 183.785 207.849 183.52 207.849C183.265 207.849 183.031 207.91 182.816 208.032C182.602 208.155 182.429 208.328 182.296 208.552C182.163 208.767 182.097 209.027 182.097 209.333C182.097 209.649 182.163 209.919 182.296 210.144C182.429 210.368 182.602 210.542 182.816 210.664C183.031 210.776 183.265 210.832 183.52 210.832ZM183.704 216.479C184.193 216.479 184.617 216.423 184.974 216.311C185.341 216.198 185.622 216.05 185.816 215.867C186.02 215.683 186.122 215.484 186.122 215.27C186.122 214.974 185.994 214.775 185.739 214.673C185.494 214.581 185.117 214.536 184.607 214.536H183.413C183.168 214.536 182.954 214.525 182.77 214.505C182.587 214.485 182.418 214.459 182.265 214.428C182 214.581 181.811 214.74 181.699 214.903C181.587 215.066 181.531 215.234 181.531 215.408C181.531 215.744 181.72 216.005 182.097 216.188C182.475 216.382 183.01 216.479 183.704 216.479ZM192.879 214.505C192.114 214.505 191.42 214.352 190.798 214.046C190.176 213.73 189.681 213.281 189.314 212.699C188.946 212.108 188.763 211.393 188.763 210.557C188.763 209.741 188.946 209.042 189.314 208.461C189.681 207.869 190.16 207.415 190.752 207.099C191.344 206.782 191.976 206.624 192.65 206.624C193.394 206.624 194.022 206.777 194.532 207.083C195.052 207.389 195.445 207.813 195.71 208.353C195.985 208.884 196.123 209.496 196.123 210.19C196.123 210.363 196.113 210.531 196.093 210.695C196.082 210.848 196.067 210.975 196.047 211.077H190.033V209.822H194.914L194.578 210.22C194.578 209.476 194.409 208.92 194.073 208.552C193.746 208.175 193.287 207.986 192.695 207.986C192.277 207.986 191.9 208.083 191.563 208.277C191.237 208.471 190.977 208.762 190.783 209.149C190.589 209.527 190.492 209.996 190.492 210.557C190.492 211.138 190.599 211.618 190.813 211.995C191.038 212.373 191.344 212.658 191.731 212.852C192.129 213.046 192.588 213.143 193.109 213.143C193.506 213.143 193.874 213.087 194.21 212.975C194.547 212.862 194.884 212.709 195.22 212.516L195.817 213.617C195.419 213.872 194.97 214.087 194.47 214.26C193.971 214.423 193.44 214.505 192.879 214.505ZM198.673 209.318L198.214 205.783L198.168 203.824H200.31L200.264 205.783L199.805 209.318H198.673ZM202.468 209.318L202.008 205.783L201.963 203.824H204.105L204.059 205.783L203.6 209.318H202.468ZM209.852 209.302C209.424 209.302 209.062 209.154 208.766 208.858C208.48 208.563 208.338 208.195 208.338 207.757C208.338 207.308 208.48 206.941 208.766 206.655C209.062 206.359 209.424 206.211 209.852 206.211C210.291 206.211 210.653 206.359 210.939 206.655C211.225 206.941 211.367 207.308 211.367 207.757C211.367 208.195 211.225 208.563 210.939 208.858C210.653 209.154 210.291 209.302 209.852 209.302ZM209.852 214.505C209.424 214.505 209.062 214.357 208.766 214.061C208.48 213.765 208.338 213.398 208.338 212.959C208.338 212.511 208.48 212.143 208.766 211.858C209.062 211.562 209.424 211.414 209.852 211.414C210.291 211.414 210.653 211.562 210.939 211.858C211.225 212.143 211.367 212.511 211.367 212.959C211.367 213.398 211.225 213.765 210.939 214.061C210.653 214.357 210.291 214.505 209.852 214.505Z" fill="#D09A66"/>
<rect x="228.728" y="204.321" width="96" height="10" fill="#B8E9FF" fill-opacity="0.6"/>
<path d="M76.6458 230.318L76.1867 226.783L76.1408 224.824H78.2831L78.2372 226.783L77.7781 230.318H76.6458ZM80.4407 230.318L79.9816 226.783L79.9357 224.824H82.078L82.0321 226.783L81.573 230.318H80.4407ZM87.8715 235.505C87.1676 235.505 86.4943 235.393 85.8516 235.168C85.2089 234.934 84.653 234.658 84.1837 234.342L84.9488 233.225C85.3977 233.521 85.8822 233.755 86.4025 233.929C86.9228 234.092 87.4889 234.174 88.101 234.174C88.6213 234.174 89.0039 234.087 89.2487 233.913C89.5037 233.73 89.6312 233.516 89.6312 233.271C89.6312 233.148 89.6006 233.036 89.5394 232.934C89.4884 232.832 89.3915 232.74 89.2487 232.659C89.1059 232.567 88.8967 232.48 88.6213 232.399C88.3459 232.317 87.9888 232.23 87.5502 232.138C86.5504 231.924 85.8159 231.633 85.3467 231.266C84.8774 230.899 84.6428 230.435 84.6428 229.874C84.6428 229.211 84.9284 228.67 85.4997 228.252C86.0812 227.833 86.8973 227.624 87.948 227.624C88.5703 227.624 89.1518 227.726 89.6924 227.93C90.2433 228.134 90.7075 228.364 91.0849 228.619L90.2739 229.705C89.9169 229.461 89.5241 229.277 89.0957 229.155C88.6672 229.022 88.2336 228.956 87.795 228.956C87.4583 228.956 87.188 228.991 86.984 229.063C86.7902 229.134 86.6422 229.236 86.5402 229.369C86.4484 229.491 86.4025 229.629 86.4025 229.782C86.4025 230.047 86.5555 230.246 86.8616 230.379C87.1676 230.511 87.6675 230.654 88.3612 230.807C89.1671 230.981 89.7894 231.18 90.228 231.404C90.6667 231.618 90.9676 231.868 91.1308 232.154C91.3043 232.429 91.391 232.771 91.391 233.179C91.391 233.607 91.2533 234 90.9778 234.357C90.7126 234.704 90.3198 234.985 89.7996 235.199C89.2793 235.403 88.6366 235.505 87.8715 235.505ZM96.9856 235.505C96.6285 235.505 96.2562 235.418 95.8685 235.245C95.4911 235.071 95.134 234.821 94.7974 234.495H94.7515L94.5984 235.321H93.2059V224.518H94.981V227.303L94.9045 228.619H94.9504C95.2666 228.313 95.6237 228.073 96.0215 227.9C96.4296 227.716 96.8376 227.624 97.2457 227.624C97.8986 227.624 98.4495 227.782 98.8983 228.099C99.3574 228.415 99.7093 228.859 99.9542 229.43C100.199 229.991 100.321 230.659 100.321 231.435C100.321 232.291 100.163 233.026 99.847 233.638C99.5308 234.24 99.1176 234.704 98.6076 235.031C98.1077 235.347 97.567 235.505 96.9856 235.505ZM96.6336 234.051C96.9805 234.051 97.2967 233.954 97.5823 233.76C97.868 233.567 98.0924 233.281 98.2556 232.904C98.4188 232.516 98.5005 232.036 98.5005 231.465C98.5005 230.965 98.4392 230.537 98.3168 230.18C98.1944 229.823 98.0057 229.552 97.7507 229.369C97.5058 229.175 97.1743 229.078 96.756 229.078C96.4704 229.078 96.1796 229.149 95.8838 229.292C95.588 229.435 95.287 229.665 94.981 229.981V233.363C95.2564 233.607 95.5421 233.786 95.8379 233.898C96.1337 234 96.399 234.051 96.6336 234.051ZM105.258 235.505C104.595 235.505 103.978 235.352 103.406 235.046C102.835 234.73 102.371 234.281 102.014 233.699C101.657 233.108 101.478 232.399 101.478 231.572C101.478 230.736 101.657 230.027 102.014 229.445C102.371 228.854 102.835 228.405 103.406 228.099C103.978 227.782 104.595 227.624 105.258 227.624C105.921 227.624 106.538 227.782 107.11 228.099C107.681 228.405 108.145 228.854 108.502 229.445C108.859 230.027 109.038 230.736 109.038 231.572C109.038 232.399 108.859 233.108 108.502 233.699C108.145 234.281 107.681 234.73 107.11 235.046C106.538 235.352 105.921 235.505 105.258 235.505ZM105.258 234.067C105.666 234.067 106.018 233.965 106.314 233.76C106.61 233.556 106.834 233.266 106.987 232.888C107.14 232.511 107.217 232.072 107.217 231.572C107.217 231.072 107.14 230.634 106.987 230.256C106.834 229.879 106.61 229.588 106.314 229.384C106.018 229.17 105.666 229.063 105.258 229.063C104.85 229.063 104.498 229.17 104.202 229.384C103.917 229.588 103.692 229.879 103.529 230.256C103.376 230.634 103.299 231.072 103.299 231.572C103.299 232.072 103.376 232.511 103.529 232.888C103.692 233.266 103.917 233.556 104.202 233.76C104.498 233.965 104.85 234.067 105.258 234.067ZM110.087 235.321V227.808H111.449L111.587 228.757H111.633C111.796 228.43 112.005 228.16 112.26 227.946C112.515 227.731 112.862 227.624 113.301 227.624C113.648 227.624 113.938 227.731 114.173 227.946C114.408 228.15 114.571 228.461 114.663 228.879C114.836 228.512 115.056 228.211 115.321 227.976C115.586 227.742 115.938 227.624 116.377 227.624C116.907 227.624 117.315 227.833 117.601 228.252C117.897 228.66 118.045 229.241 118.045 229.996V235.321H116.346V230.119C116.346 229.455 116.147 229.124 115.749 229.124C115.545 229.124 115.372 229.2 115.229 229.353C115.096 229.507 114.954 229.746 114.801 230.073V235.321H113.332V230.119C113.332 229.792 113.286 229.547 113.194 229.384C113.102 229.211 112.949 229.124 112.735 229.124C112.541 229.124 112.373 229.2 112.23 229.353C112.087 229.507 111.944 229.746 111.801 230.073V235.321H110.087ZM120.227 230.318L119.768 226.783L119.722 224.824H121.864L121.818 226.783L121.359 230.318H120.227ZM124.022 230.318L123.563 226.783L123.517 224.824H125.659L125.613 226.783L125.154 230.318H124.022ZM131.407 230.302C130.978 230.302 130.616 230.154 130.32 229.858C130.035 229.563 129.892 229.195 129.892 228.757C129.892 228.308 130.035 227.941 130.32 227.655C130.616 227.359 130.978 227.211 131.407 227.211C131.845 227.211 132.207 227.359 132.493 227.655C132.779 227.941 132.922 228.308 132.922 228.757C132.922 229.195 132.779 229.563 132.493 229.858C132.207 230.154 131.845 230.302 131.407 230.302ZM131.407 235.505C130.978 235.505 130.616 235.357 130.32 235.061C130.035 234.765 129.892 234.398 129.892 233.959C129.892 233.511 130.035 233.143 130.32 232.858C130.616 232.562 130.978 232.414 131.407 232.414C131.845 232.414 132.207 232.562 132.493 232.858C132.779 233.143 132.922 233.511 132.922 233.959C132.922 234.398 132.779 234.765 132.493 235.061C132.207 235.357 131.845 235.505 131.407 235.505Z" fill="#D09A66"/>
<rect x="150.728" y="225.321" width="174" height="10" fill="#B8E9FF" fill-opacity="0.6"/>
<path d="M76.6458 251.318L76.1867 247.783L76.1408 245.824H78.2831L78.2372 247.783L77.7781 251.318H76.6458ZM80.4407 251.318L79.9816 247.783L79.9357 245.824H82.078L82.0321 247.783L81.573 251.318H80.4407ZM86.8616 256.321L83.8624 248.808H85.6374L87.0911 252.71C87.2237 253.077 87.3512 253.45 87.4736 253.827C87.6063 254.205 87.7287 254.587 87.8409 254.975H87.9021C88.0245 254.587 88.1469 254.205 88.2694 253.827C88.3918 253.45 88.5193 253.077 88.6519 252.71L90.1056 248.808H91.7888L88.8661 256.321H86.8616ZM95.5319 256.505C94.6545 256.505 94.017 256.24 93.6191 255.709C93.2212 255.179 93.0223 254.429 93.0223 253.46V248.808H94.7821V253.23C94.7821 253.832 94.8841 254.276 95.0881 254.562C95.3023 254.847 95.6696 254.99 96.1898 254.99C96.5367 254.99 96.8529 254.908 97.1386 254.745C97.4344 254.572 97.7456 254.281 98.072 253.873V248.808H99.8317V256.321H98.3933L98.2556 255.128H98.1944C97.8374 255.536 97.4446 255.867 97.0162 256.122C96.5877 256.377 96.0929 256.505 95.5319 256.505ZM106.788 256.505C105.921 256.505 105.258 256.25 104.799 255.74C104.35 255.22 104.126 254.5 104.126 253.582V246.911H101.677V245.518H105.885V253.674C105.885 254.184 106.013 254.546 106.268 254.76C106.533 254.965 106.855 255.067 107.232 255.067C107.426 255.067 107.625 255.046 107.829 255.005C108.033 254.954 108.262 254.878 108.517 254.776L108.93 256.076C108.573 256.199 108.237 256.301 107.921 256.382C107.615 256.464 107.237 256.505 106.788 256.505ZM110.638 256.321V248.808H112.092L112.23 249.94H112.291C112.648 249.573 113.041 249.262 113.469 249.007C113.908 248.752 114.418 248.624 114.999 248.624C115.867 248.624 116.504 248.89 116.912 249.42C117.32 249.951 117.524 250.7 117.524 251.669V256.321H115.749V251.899C115.749 251.297 115.642 250.853 115.428 250.568C115.214 250.282 114.852 250.139 114.341 250.139C113.974 250.139 113.648 250.226 113.362 250.399C113.076 250.573 112.76 250.838 112.413 251.195V256.321H110.638ZM123.149 256.505C122.384 256.505 121.691 256.352 121.068 256.046C120.446 255.73 119.951 255.281 119.584 254.699C119.217 254.108 119.033 253.393 119.033 252.557C119.033 251.741 119.217 251.042 119.584 250.461C119.951 249.869 120.431 249.415 121.022 249.099C121.614 248.782 122.247 248.624 122.92 248.624C123.665 248.624 124.292 248.777 124.802 249.083C125.322 249.389 125.715 249.813 125.98 250.353C126.256 250.884 126.394 251.496 126.394 252.19C126.394 252.363 126.383 252.531 126.363 252.695C126.353 252.848 126.337 252.975 126.317 253.077H120.303V251.822H125.185L124.848 252.22C124.848 251.476 124.68 250.92 124.343 250.552C124.017 250.175 123.558 249.986 122.966 249.986C122.548 249.986 122.17 250.083 121.833 250.277C121.507 250.471 121.247 250.762 121.053 251.149C120.859 251.527 120.762 251.996 120.762 252.557C120.762 253.138 120.869 253.618 121.084 253.995C121.308 254.373 121.614 254.658 122.002 254.852C122.4 255.046 122.859 255.143 123.379 255.143C123.777 255.143 124.144 255.087 124.481 254.975C124.817 254.862 125.154 254.709 125.491 254.516L126.087 255.617C125.69 255.872 125.241 256.087 124.741 256.26C124.241 256.423 123.711 256.505 123.149 256.505ZM128.805 256.321V248.808H130.259L130.412 250.507H130.458C130.835 249.894 131.299 249.43 131.85 249.114C132.411 248.788 133.013 248.624 133.656 248.624C133.962 248.624 134.227 248.65 134.452 248.701C134.676 248.752 134.895 248.828 135.11 248.93L134.742 250.415C134.498 250.333 134.278 250.277 134.084 250.246C133.901 250.206 133.666 250.185 133.381 250.185C132.871 250.185 132.371 250.333 131.881 250.629C131.402 250.925 130.968 251.44 130.58 252.174V256.321H128.805ZM139.128 256.505C138.639 256.505 138.205 256.413 137.827 256.229C137.45 256.036 137.154 255.776 136.94 255.449C136.726 255.123 136.619 254.74 136.619 254.301C136.619 253.465 137.016 252.827 137.812 252.389C138.618 251.94 139.949 251.649 141.806 251.516C141.786 251.241 141.709 250.991 141.577 250.767C141.454 250.542 141.265 250.369 141.01 250.246C140.755 250.114 140.424 250.047 140.016 250.047C139.73 250.047 139.45 250.083 139.174 250.155C138.899 250.226 138.623 250.323 138.348 250.445C138.083 250.568 137.817 250.7 137.552 250.843L136.909 249.665C137.215 249.481 137.552 249.313 137.919 249.16C138.287 248.997 138.674 248.869 139.082 248.777C139.49 248.675 139.909 248.624 140.337 248.624C141.041 248.624 141.628 248.752 142.097 249.007C142.576 249.252 142.938 249.619 143.183 250.109C143.438 250.588 143.566 251.175 143.566 251.868V256.321H142.127L141.99 255.388H141.944C141.546 255.694 141.102 255.959 140.612 256.184C140.133 256.398 139.638 256.505 139.128 256.505ZM139.664 255.128C140.041 255.128 140.403 255.046 140.75 254.883C141.107 254.709 141.459 254.485 141.806 254.21V252.618C140.908 252.679 140.204 252.781 139.694 252.924C139.184 253.057 138.827 253.23 138.623 253.444C138.419 253.659 138.317 253.898 138.317 254.164C138.317 254.388 138.378 254.572 138.501 254.715C138.623 254.857 138.781 254.965 138.975 255.036C139.179 255.097 139.409 255.128 139.664 255.128ZM149.283 256.505C148.926 256.505 148.553 256.418 148.166 256.245C147.788 256.071 147.431 255.821 147.095 255.495H147.049L146.896 256.321H145.503V245.518H147.278V248.303L147.202 249.619H147.248C147.564 249.313 147.921 249.073 148.319 248.9C148.727 248.716 149.135 248.624 149.543 248.624C150.196 248.624 150.747 248.782 151.196 249.099C151.655 249.415 152.007 249.859 152.251 250.43C152.496 250.991 152.619 251.659 152.619 252.435C152.619 253.291 152.46 254.026 152.144 254.638C151.828 255.24 151.415 255.704 150.905 256.031C150.405 256.347 149.864 256.505 149.283 256.505ZM148.931 255.051C149.278 255.051 149.594 254.954 149.88 254.76C150.165 254.567 150.39 254.281 150.553 253.904C150.716 253.516 150.798 253.036 150.798 252.465C150.798 251.965 150.736 251.537 150.614 251.18C150.492 250.823 150.303 250.552 150.048 250.369C149.803 250.175 149.471 250.078 149.053 250.078C148.768 250.078 148.477 250.149 148.181 250.292C147.885 250.435 147.584 250.665 147.278 250.981V254.363C147.554 254.607 147.839 254.786 148.135 254.898C148.431 255 148.696 255.051 148.931 255.051ZM157.509 256.321V250.2H154.25V248.808H159.269V256.321H157.509ZM158.259 247.431C157.902 247.431 157.601 247.324 157.356 247.109C157.122 246.895 157.004 246.61 157.004 246.253C157.004 245.895 157.122 245.61 157.356 245.396C157.601 245.171 157.902 245.059 158.259 245.059C158.626 245.059 158.927 245.171 159.162 245.396C159.397 245.61 159.514 245.895 159.514 246.253C159.514 246.61 159.397 246.895 159.162 247.109C158.927 247.324 158.626 247.431 158.259 247.431ZM167.802 256.505C166.935 256.505 166.271 256.25 165.812 255.74C165.363 255.22 165.139 254.5 165.139 253.582V246.911H162.691V245.518H166.899V253.674C166.899 254.184 167.026 254.546 167.281 254.76C167.547 254.965 167.868 255.067 168.245 255.067C168.439 255.067 168.638 255.046 168.842 255.005C169.046 254.954 169.276 254.878 169.531 254.776L169.944 256.076C169.587 256.199 169.25 256.301 168.934 256.382C168.628 256.464 168.25 256.505 167.802 256.505ZM174.942 256.321V250.2H171.682V248.808H176.701V256.321H174.942ZM175.692 247.431C175.334 247.431 175.034 247.324 174.789 247.109C174.554 246.895 174.437 246.61 174.437 246.253C174.437 245.895 174.554 245.61 174.789 245.396C175.034 245.171 175.334 245.059 175.692 245.059C176.059 245.059 176.36 245.171 176.594 245.396C176.829 245.61 176.946 245.895 176.946 246.253C176.946 246.61 176.829 246.895 176.594 247.109C176.36 247.324 176.059 247.431 175.692 247.431ZM185.096 256.505C184.331 256.505 183.724 256.372 183.275 256.107C182.826 255.832 182.505 255.454 182.311 254.975C182.118 254.495 182.021 253.939 182.021 253.307V250.2H180.016V248.884L182.097 248.808L182.327 246.451H183.78V248.808H187.208V250.2H183.78V253.291C183.78 253.7 183.836 254.041 183.949 254.317C184.061 254.582 184.244 254.781 184.5 254.913C184.755 255.036 185.091 255.097 185.509 255.097C185.836 255.097 186.132 255.072 186.397 255.021C186.662 254.97 186.917 254.898 187.162 254.806L187.499 256.076C187.162 256.189 186.8 256.286 186.412 256.367C186.025 256.459 185.586 256.505 185.096 256.505ZM192.374 256.321V250.2H189.115V248.808H194.134V256.321H192.374ZM193.124 247.431C192.767 247.431 192.466 247.324 192.221 247.109C191.986 246.895 191.869 246.61 191.869 246.253C191.869 245.895 191.986 245.61 192.221 245.396C192.466 245.171 192.767 245.059 193.124 245.059C193.491 245.059 193.792 245.171 194.027 245.396C194.261 245.61 194.379 245.895 194.379 246.253C194.379 246.61 194.261 246.895 194.027 247.109C193.792 247.324 193.491 247.431 193.124 247.431ZM201.595 256.505C200.83 256.505 200.136 256.352 199.514 256.046C198.892 255.73 198.397 255.281 198.03 254.699C197.663 254.108 197.479 253.393 197.479 252.557C197.479 251.741 197.663 251.042 198.03 250.461C198.397 249.869 198.877 249.415 199.468 249.099C200.06 248.782 200.692 248.624 201.366 248.624C202.11 248.624 202.738 248.777 203.248 249.083C203.768 249.389 204.161 249.813 204.426 250.353C204.702 250.884 204.839 251.496 204.839 252.19C204.839 252.363 204.829 252.531 204.809 252.695C204.799 252.848 204.783 252.975 204.763 253.077H198.749V251.822H203.63L203.294 252.22C203.294 251.476 203.125 250.92 202.789 250.552C202.462 250.175 202.003 249.986 201.412 249.986C200.993 249.986 200.616 250.083 200.279 250.277C199.953 250.471 199.693 250.762 199.499 251.149C199.305 251.527 199.208 251.996 199.208 252.557C199.208 253.138 199.315 253.618 199.53 253.995C199.754 254.373 200.06 254.658 200.448 254.852C200.845 255.046 201.305 255.143 201.825 255.143C202.223 255.143 202.59 255.087 202.927 254.975C203.263 254.862 203.6 254.709 203.937 254.516L204.533 255.617C204.135 255.872 203.687 256.087 203.187 256.26C202.687 256.423 202.156 256.505 201.595 256.505ZM209.898 256.505C209.194 256.505 208.521 256.393 207.878 256.168C207.236 255.934 206.68 255.658 206.211 255.342L206.976 254.225C207.424 254.521 207.909 254.755 208.429 254.929C208.95 255.092 209.516 255.174 210.128 255.174C210.648 255.174 211.031 255.087 211.276 254.913C211.531 254.73 211.658 254.516 211.658 254.271C211.658 254.148 211.627 254.036 211.566 253.934C211.515 253.832 211.418 253.74 211.276 253.659C211.133 253.567 210.924 253.48 210.648 253.399C210.373 253.317 210.016 253.23 209.577 253.138C208.577 252.924 207.843 252.633 207.373 252.266C206.904 251.899 206.67 251.435 206.67 250.874C206.67 250.211 206.955 249.67 207.527 249.252C208.108 248.833 208.924 248.624 209.975 248.624C210.597 248.624 211.179 248.726 211.719 248.93C212.27 249.134 212.734 249.364 213.112 249.619L212.301 250.705C211.944 250.461 211.551 250.277 211.122 250.155C210.694 250.022 210.26 249.956 209.822 249.956C209.485 249.956 209.215 249.991 209.011 250.063C208.817 250.134 208.669 250.236 208.567 250.369C208.475 250.491 208.429 250.629 208.429 250.782C208.429 251.047 208.582 251.246 208.888 251.379C209.194 251.511 209.694 251.654 210.388 251.807C211.194 251.981 211.816 252.18 212.255 252.404C212.694 252.618 212.994 252.868 213.158 253.154C213.331 253.429 213.418 253.771 213.418 254.179C213.418 254.607 213.28 255 213.005 255.357C212.739 255.704 212.347 255.985 211.826 256.199C211.306 256.403 210.663 256.505 209.898 256.505ZM216.105 251.318L215.646 247.783L215.6 245.824H217.742L217.696 247.783L217.237 251.318H216.105ZM219.9 251.318L219.441 247.783L219.395 245.824H221.537L221.491 247.783L221.032 251.318H219.9ZM227.285 251.302C226.856 251.302 226.494 251.154 226.198 250.858C225.913 250.563 225.77 250.195 225.77 249.757C225.77 249.308 225.913 248.941 226.198 248.655C226.494 248.359 226.856 248.211 227.285 248.211C227.723 248.211 228.086 248.359 228.371 248.655C228.657 248.941 228.8 249.308 228.8 249.757C228.8 250.195 228.657 250.563 228.371 250.858C228.086 251.154 227.723 251.302 227.285 251.302ZM227.285 256.505C226.856 256.505 226.494 256.357 226.198 256.061C225.913 255.765 225.77 255.398 225.77 254.959C225.77 254.511 225.913 254.143 226.198 253.858C226.494 253.562 226.856 253.414 227.285 253.414C227.723 253.414 228.086 253.562 228.371 253.858C228.657 254.143 228.8 254.511 228.8 254.959C228.8 255.398 228.657 255.765 228.371 256.061C228.086 256.357 227.723 256.505 227.285 256.505Z" fill="#D09A66"/>
<rect x="246.728" y="246.321" width="78" height="10" fill="#B8E9FF" fill-opacity="0.6"/>
<path d="M76.6458 272.318L76.1867 268.783L76.1408 266.824H78.2831L78.2372 268.783L77.7781 272.318H76.6458ZM80.4407 272.318L79.9816 268.783L79.9357 266.824H82.078L82.0321 268.783L81.573 272.318H80.4407ZM88.4989 277.505C87.7134 277.505 87.0044 277.352 86.3719 277.046C85.7496 276.73 85.2548 276.281 84.8876 275.699C84.5305 275.108 84.352 274.399 84.352 273.572C84.352 272.736 84.5458 272.027 84.9335 271.445C85.3314 270.854 85.8567 270.405 86.5096 270.099C87.1625 269.782 87.8664 269.624 88.6213 269.624C89.2334 269.624 89.7741 269.726 90.2433 269.93C90.7126 270.124 91.1002 270.374 91.4063 270.68L90.5647 271.782C90.2688 271.547 89.9679 271.369 89.6618 271.246C89.366 271.124 89.0498 271.063 88.7131 271.063C88.2132 271.063 87.7695 271.17 87.3818 271.384C87.0044 271.588 86.7085 271.879 86.4943 272.256C86.2801 272.634 86.173 273.072 86.173 273.572C86.173 274.072 86.275 274.511 86.479 274.888C86.6932 275.266 86.984 275.556 87.3512 275.76C87.7287 275.965 88.1673 276.067 88.6672 276.067C89.0957 276.067 89.4884 275.985 89.8455 275.822C90.2025 275.658 90.5239 275.465 90.8095 275.24L91.544 276.373C91.1155 276.74 90.6361 277.02 90.1056 277.214C89.5751 277.408 89.0396 277.505 88.4989 277.505ZM96.5418 277.505C95.8787 277.505 95.2615 277.352 94.6902 277.046C94.119 276.73 93.6548 276.281 93.2978 275.699C92.9407 275.108 92.7622 274.399 92.7622 273.572C92.7622 272.736 92.9407 272.027 93.2978 271.445C93.6548 270.854 94.119 270.405 94.6902 270.099C95.2615 269.782 95.8787 269.624 96.5418 269.624C97.2049 269.624 97.8221 269.782 98.3933 270.099C98.9646 270.405 99.4288 270.854 99.7858 271.445C100.143 272.027 100.321 272.736 100.321 273.572C100.321 274.399 100.143 275.108 99.7858 275.699C99.4288 276.281 98.9646 276.73 98.3933 277.046C97.8221 277.352 97.2049 277.505 96.5418 277.505ZM96.5418 276.067C96.9498 276.067 97.3018 275.965 97.5976 275.76C97.8935 275.556 98.1179 275.266 98.2709 274.888C98.4239 274.511 98.5005 274.072 98.5005 273.572C98.5005 273.072 98.4239 272.634 98.2709 272.256C98.1179 271.879 97.8935 271.588 97.5976 271.384C97.3018 271.17 96.9498 271.063 96.5418 271.063C96.1337 271.063 95.7818 271.17 95.486 271.384C95.2003 271.588 94.9759 271.879 94.8127 272.256C94.6596 272.634 94.5831 273.072 94.5831 273.572C94.5831 274.072 94.6596 274.511 94.8127 274.888C94.9759 275.266 95.2003 275.556 95.486 275.76C95.7818 275.965 96.1337 276.067 96.5418 276.067ZM104.692 277.505C103.733 277.505 102.958 277.158 102.366 276.464C101.774 275.771 101.478 274.807 101.478 273.572C101.478 272.756 101.637 272.052 101.953 271.461C102.269 270.869 102.682 270.415 103.192 270.099C103.702 269.782 104.238 269.624 104.799 269.624C105.227 269.624 105.605 269.701 105.931 269.854C106.268 270.007 106.579 270.226 106.865 270.512H106.911L106.819 269.242V266.518H108.594V277.321H107.14L107.002 276.449H106.957C106.671 276.735 106.329 276.985 105.931 277.199C105.533 277.403 105.12 277.505 104.692 277.505ZM105.12 276.051C105.426 276.051 105.722 275.98 106.008 275.837C106.293 275.684 106.564 275.454 106.819 275.148V271.767C106.554 271.512 106.288 271.333 106.023 271.231C105.758 271.129 105.488 271.078 105.212 271.078C104.865 271.078 104.544 271.175 104.248 271.369C103.962 271.563 103.733 271.843 103.559 272.21C103.386 272.578 103.299 273.027 103.299 273.557C103.299 274.363 103.457 274.98 103.774 275.409C104.1 275.837 104.549 276.051 105.12 276.051ZM114.433 277.505C113.668 277.505 112.974 277.352 112.352 277.046C111.73 276.73 111.235 276.281 110.868 275.699C110.501 275.108 110.317 274.393 110.317 273.557C110.317 272.741 110.501 272.042 110.868 271.461C111.235 270.869 111.715 270.415 112.306 270.099C112.898 269.782 113.53 269.624 114.204 269.624C114.948 269.624 115.576 269.777 116.086 270.083C116.606 270.389 116.999 270.813 117.264 271.353C117.54 271.884 117.677 272.496 117.677 273.19C117.677 273.363 117.667 273.531 117.647 273.695C117.636 273.848 117.621 273.975 117.601 274.077H111.587V272.822H116.468L116.132 273.22C116.132 272.476 115.963 271.92 115.627 271.552C115.3 271.175 114.841 270.986 114.25 270.986C113.831 270.986 113.454 271.083 113.117 271.277C112.791 271.471 112.531 271.762 112.337 272.149C112.143 272.527 112.046 272.996 112.046 273.557C112.046 274.138 112.153 274.618 112.367 274.995C112.592 275.373 112.898 275.658 113.286 275.852C113.683 276.046 114.143 276.143 114.663 276.143C115.061 276.143 115.428 276.087 115.765 275.975C116.101 275.862 116.438 275.709 116.774 275.516L117.371 276.617C116.973 276.872 116.525 277.087 116.025 277.26C115.525 277.423 114.994 277.505 114.433 277.505ZM122.69 277.505C122.027 277.505 121.41 277.352 120.839 277.046C120.268 276.73 119.803 276.281 119.446 275.699C119.089 275.108 118.911 274.399 118.911 273.572C118.911 272.736 119.089 272.027 119.446 271.445C119.803 270.854 120.268 270.405 120.839 270.099C121.41 269.782 122.027 269.624 122.69 269.624C123.353 269.624 123.971 269.782 124.542 270.099C125.113 270.405 125.577 270.854 125.934 271.445C126.291 272.027 126.47 272.736 126.47 273.572C126.47 274.399 126.291 275.108 125.934 275.699C125.577 276.281 125.113 276.73 124.542 277.046C123.971 277.352 123.353 277.505 122.69 277.505ZM122.69 276.067C123.098 276.067 123.45 275.965 123.746 275.76C124.042 275.556 124.267 275.266 124.42 274.888C124.573 274.511 124.649 274.072 124.649 273.572C124.649 273.072 124.573 272.634 124.42 272.256C124.267 271.879 124.042 271.588 123.746 271.384C123.45 271.17 123.098 271.063 122.69 271.063C122.282 271.063 121.93 271.17 121.635 271.384C121.349 271.588 121.124 271.879 120.961 272.256C120.808 272.634 120.732 273.072 120.732 273.572C120.732 274.072 120.808 274.511 120.961 274.888C121.124 275.266 121.349 275.556 121.635 275.76C121.93 275.965 122.282 276.067 122.69 276.067ZM128.331 277.321L126.908 269.808H128.637L129.31 273.71C129.371 274.077 129.422 274.439 129.463 274.796C129.514 275.143 129.56 275.5 129.601 275.868H129.647C129.698 275.5 129.754 275.138 129.815 274.781C129.887 274.424 129.963 274.067 130.045 273.71L130.733 270.542H132.187L132.86 273.71C132.942 274.077 133.018 274.439 133.09 274.796C133.171 275.143 133.238 275.5 133.289 275.868H133.35C133.401 275.5 133.442 275.143 133.472 274.796C133.513 274.439 133.564 274.077 133.625 273.71L134.268 269.808H135.905L134.528 277.321H132.386L131.759 274.322C131.708 274.026 131.651 273.695 131.59 273.327C131.539 272.96 131.488 272.552 131.437 272.103H131.376C131.325 272.491 131.274 272.863 131.223 273.22C131.182 273.577 131.131 273.945 131.07 274.322L130.458 277.321H128.331ZM136.787 277.321V269.808H138.241L138.378 270.94H138.44C138.797 270.573 139.189 270.262 139.618 270.007C140.056 269.752 140.567 269.624 141.148 269.624C142.015 269.624 142.653 269.89 143.061 270.42C143.469 270.951 143.673 271.7 143.673 272.669V277.321H141.898V272.899C141.898 272.297 141.791 271.853 141.577 271.568C141.362 271.282 141 271.139 140.49 271.139C140.123 271.139 139.796 271.226 139.511 271.399C139.225 271.573 138.909 271.838 138.562 272.195V277.321H136.787ZM149.298 277.505C148.533 277.505 147.839 277.352 147.217 277.046C146.595 276.73 146.1 276.281 145.733 275.699C145.365 275.108 145.182 274.393 145.182 273.557C145.182 272.741 145.365 272.042 145.733 271.461C146.1 270.869 146.579 270.415 147.171 270.099C147.763 269.782 148.395 269.624 149.069 269.624C149.813 269.624 150.441 269.777 150.951 270.083C151.471 270.389 151.864 270.813 152.129 271.353C152.404 271.884 152.542 272.496 152.542 273.19C152.542 273.363 152.532 273.531 152.512 273.695C152.501 273.848 152.486 273.975 152.466 274.077H146.452V272.822H151.333L150.997 273.22C150.997 272.476 150.828 271.92 150.492 271.552C150.165 271.175 149.706 270.986 149.114 270.986C148.696 270.986 148.319 271.083 147.982 271.277C147.656 271.471 147.396 271.762 147.202 272.149C147.008 272.527 146.911 272.996 146.911 273.557C146.911 274.138 147.018 274.618 147.232 274.995C147.457 275.373 147.763 275.658 148.15 275.852C148.548 276.046 149.007 276.143 149.528 276.143C149.925 276.143 150.293 276.087 150.629 275.975C150.966 275.862 151.303 275.709 151.639 275.516L152.236 276.617C151.838 276.872 151.389 277.087 150.889 277.26C150.39 277.423 149.859 277.505 149.298 277.505ZM154.954 277.321V269.808H156.408L156.561 271.507H156.606C156.984 270.894 157.448 270.43 157.999 270.114C158.56 269.788 159.162 269.624 159.805 269.624C160.111 269.624 160.376 269.65 160.6 269.701C160.825 269.752 161.044 269.828 161.258 269.93L160.891 271.415C160.646 271.333 160.427 271.277 160.233 271.246C160.049 271.206 159.815 271.185 159.529 271.185C159.019 271.185 158.519 271.333 158.03 271.629C157.55 271.925 157.117 272.44 156.729 273.174V277.321H154.954ZM166.317 277.505C165.613 277.505 164.94 277.393 164.297 277.168C163.655 276.934 163.099 276.658 162.63 276.342L163.395 275.225C163.843 275.521 164.328 275.755 164.848 275.929C165.369 276.092 165.935 276.174 166.547 276.174C167.067 276.174 167.45 276.087 167.695 275.913C167.95 275.73 168.077 275.516 168.077 275.271C168.077 275.148 168.046 275.036 167.985 274.934C167.934 274.832 167.837 274.74 167.695 274.659C167.552 274.567 167.343 274.48 167.067 274.399C166.792 274.317 166.435 274.23 165.996 274.138C164.996 273.924 164.262 273.633 163.792 273.266C163.323 272.899 163.089 272.435 163.089 271.874C163.089 271.211 163.374 270.67 163.946 270.252C164.527 269.833 165.343 269.624 166.394 269.624C167.016 269.624 167.598 269.726 168.138 269.93C168.689 270.134 169.153 270.364 169.531 270.619L168.72 271.705C168.363 271.461 167.97 271.277 167.541 271.155C167.113 271.022 166.679 270.956 166.241 270.956C165.904 270.956 165.634 270.991 165.43 271.063C165.236 271.134 165.088 271.236 164.986 271.369C164.894 271.491 164.848 271.629 164.848 271.782C164.848 272.047 165.001 272.246 165.307 272.379C165.613 272.511 166.113 272.654 166.807 272.807C167.613 272.981 168.235 273.18 168.674 273.404C169.112 273.618 169.413 273.868 169.577 274.154C169.75 274.429 169.837 274.771 169.837 275.179C169.837 275.607 169.699 276 169.424 276.357C169.158 276.704 168.766 276.985 168.245 277.199C167.725 277.403 167.082 277.505 166.317 277.505ZM172.524 272.318L172.065 268.783L172.019 266.824H174.161L174.115 268.783L173.656 272.318H172.524ZM176.319 272.318L175.86 268.783L175.814 266.824H177.956L177.91 268.783L177.451 272.318H176.319ZM183.704 272.302C183.275 272.302 182.913 272.154 182.617 271.858C182.332 271.563 182.189 271.195 182.189 270.757C182.189 270.308 182.332 269.941 182.617 269.655C182.913 269.359 183.275 269.211 183.704 269.211C184.142 269.211 184.505 269.359 184.79 269.655C185.076 269.941 185.219 270.308 185.219 270.757C185.219 271.195 185.076 271.563 184.79 271.858C184.505 272.154 184.142 272.302 183.704 272.302ZM183.704 277.505C183.275 277.505 182.913 277.357 182.617 277.061C182.332 276.765 182.189 276.398 182.189 275.959C182.189 275.511 182.332 275.143 182.617 274.858C182.913 274.562 183.275 274.414 183.704 274.414C184.142 274.414 184.505 274.562 184.79 274.858C185.076 275.143 185.219 275.511 185.219 275.959C185.219 276.398 185.076 276.765 184.79 277.061C184.505 277.357 184.142 277.505 183.704 277.505Z" fill="#D09A66"/>
<rect x="202.728" y="267.321" width="122" height="10" fill="#B8E9FF" fill-opacity="0.6"/>
<path d="M64.0796 300.577V299.613H64.7835C65.2527 299.613 65.6098 299.572 65.8546 299.491C66.1097 299.419 66.2831 299.292 66.3749 299.108C66.4667 298.935 66.5126 298.695 66.5126 298.389C66.5126 297.95 66.4973 297.527 66.4667 297.119C66.4463 296.701 66.4361 296.247 66.4361 295.757C66.4361 295.216 66.5432 294.819 66.7574 294.564C66.9717 294.298 67.3491 294.12 67.8898 294.028V293.967C67.3491 293.875 66.9717 293.702 66.7574 293.446C66.5432 293.181 66.4361 292.778 66.4361 292.238C66.4361 291.768 66.4463 291.32 66.4667 290.891C66.4973 290.452 66.5126 290.024 66.5126 289.606C66.5126 289.3 66.4667 289.06 66.3749 288.886C66.2831 288.703 66.1097 288.575 65.8546 288.504C65.6098 288.422 65.2527 288.382 64.7835 288.382H64.0796V287.417H65.1354C66.1046 287.417 66.8187 287.57 67.2777 287.877C67.7368 288.172 67.9663 288.723 67.9663 289.529C67.9663 289.886 67.9561 290.213 67.9357 290.508C67.9153 290.804 67.8898 291.1 67.8592 291.396C67.8286 291.682 67.8133 291.988 67.8133 292.314C67.8133 292.498 67.8745 292.676 67.9969 292.85C68.1193 293.023 68.3336 293.171 68.6396 293.293C68.9558 293.406 69.3996 293.462 69.9709 293.462V294.533C69.3996 294.533 68.9558 294.594 68.6396 294.717C68.3336 294.829 68.1193 294.972 67.9969 295.145C67.8745 295.318 67.8133 295.497 67.8133 295.681C67.8133 296.017 67.8286 296.328 67.8592 296.614C67.8898 296.9 67.9153 297.19 67.9357 297.486C67.9561 297.772 67.9663 298.098 67.9663 298.466C67.9663 299.271 67.7368 299.822 67.2777 300.118C66.8187 300.424 66.1046 300.577 65.1354 300.577H64.0796Z" fill="#D09A66"/>
<g clip-path="url(#clip0_2_73)">
<rect x="106.856" y="305.072" width="45.2095" height="45.2095" rx="22.6047" fill="white"/>
<g filter="url(#filter5_d_2_73)">
<mask id="path-32-inside-1_2_73" fill="white">
<path d="M137.534 340.595C137.077 340.595 136.694 340.44 136.385 340.13C136.076 339.82 135.921 339.437 135.92 338.98V330.907C135.92 330.45 136.075 330.066 136.385 329.757C136.695 329.448 137.078 329.293 137.534 329.292H140.764C141.221 329.292 141.605 329.447 141.915 329.757C142.225 330.067 142.379 330.451 142.378 330.907V338.98C142.378 339.438 142.223 339.821 141.913 340.131C141.603 340.441 141.22 340.596 140.764 340.595H137.534ZM127.847 340.595C127.389 340.595 127.006 340.44 126.697 340.13C126.388 339.82 126.233 339.437 126.232 338.98V316.375C126.232 315.918 126.387 315.535 126.697 315.226C127.007 314.917 127.39 314.762 127.847 314.761H131.076C131.533 314.761 131.917 314.916 132.227 315.226C132.537 315.536 132.692 315.919 132.69 316.375V338.98C132.69 339.438 132.535 339.821 132.225 340.131C131.915 340.441 131.532 340.596 131.076 340.595H127.847ZM118.159 340.595C117.701 340.595 117.318 340.44 117.009 340.13C116.7 339.82 116.545 339.437 116.544 338.98V324.448C116.544 323.991 116.699 323.608 117.009 323.299C117.319 322.99 117.702 322.835 118.159 322.834H121.388C121.846 322.834 122.229 322.989 122.539 323.299C122.849 323.609 123.004 323.992 123.003 324.448V338.98C123.003 339.438 122.848 339.821 122.538 340.131C122.228 340.441 121.844 340.596 121.388 340.595H118.159Z"/>
</mask>
<path d="M137.534 340.595C137.077 340.595 136.694 340.44 136.385 340.13C136.076 339.82 135.921 339.437 135.92 338.98V330.907C135.92 330.45 136.075 330.066 136.385 329.757C136.695 329.448 137.078 329.293 137.534 329.292H140.764C141.221 329.292 141.605 329.447 141.915 329.757C142.225 330.067 142.379 330.451 142.378 330.907V338.98C142.378 339.438 142.223 339.821 141.913 340.131C141.603 340.441 141.22 340.596 140.764 340.595H137.534ZM127.847 340.595C127.389 340.595 127.006 340.44 126.697 340.13C126.388 339.82 126.233 339.437 126.232 338.98V316.375C126.232 315.918 126.387 315.535 126.697 315.226C127.007 314.917 127.39 314.762 127.847 314.761H131.076C131.533 314.761 131.917 314.916 132.227 315.226C132.537 315.536 132.692 315.919 132.69 316.375V338.98C132.69 339.438 132.535 339.821 132.225 340.131C131.915 340.441 131.532 340.596 131.076 340.595H127.847ZM118.159 340.595C117.701 340.595 117.318 340.44 117.009 340.13C116.7 339.82 116.545 339.437 116.544 338.98V324.448C116.544 323.991 116.699 323.608 117.009 323.299C117.319 322.99 117.702 322.835 118.159 322.834H121.388C121.846 322.834 122.229 322.989 122.539 323.299C122.849 323.609 123.004 323.992 123.003 324.448V338.98C123.003 339.438 122.848 339.821 122.538 340.131C122.228 340.441 121.844 340.596 121.388 340.595H118.159Z" fill="#F9FAFC"/>
<path d="M137.534 340.595C137.077 340.595 136.694 340.44 136.385 340.13C136.076 339.82 135.921 339.437 135.92 338.98V330.907C135.92 330.45 136.075 330.066 136.385 329.757C136.695 329.448 137.078 329.293 137.534 329.292H140.764C141.221 329.292 141.605 329.447 141.915 329.757C142.225 330.067 142.379 330.451 142.378 330.907V338.98C142.378 339.438 142.223 339.821 141.913 340.131C141.603 340.441 141.22 340.596 140.764 340.595H137.534ZM127.847 340.595C127.389 340.595 127.006 340.44 126.697 340.13C126.388 339.82 126.233 339.437 126.232 338.98V316.375C126.232 315.918 126.387 315.535 126.697 315.226C127.007 314.917 127.39 314.762 127.847 314.761H131.076C131.533 314.761 131.917 314.916 132.227 315.226C132.537 315.536 132.692 315.919 132.69 316.375V338.98C132.69 339.438 132.535 339.821 132.225 340.131C131.915 340.441 131.532 340.596 131.076 340.595H127.847ZM118.159 340.595C117.701 340.595 117.318 340.44 117.009 340.13C116.7 339.82 116.545 339.437 116.544 338.98V324.448C116.544 323.991 116.699 323.608 117.009 323.299C117.319 322.99 117.702 322.835 118.159 322.834H121.388C121.846 322.834 122.229 322.989 122.539 323.299C122.849 323.609 123.004 323.992 123.003 324.448V338.98C123.003 339.438 122.848 339.821 122.538 340.131C122.228 340.441 121.844 340.596 121.388 340.595H118.159Z" stroke="url(#paint1_linear_2_73)" stroke-width="9.85006" mask="url(#path-32-inside-1_2_73)"/>
</g>
</g>
<g clip-path="url(#clip1_2_73)">
<rect x="171.441" y="305.072" width="45.2095" height="45.2095" rx="22.6047" fill="white"/>
<g filter="url(#filter6_d_2_73)">
<path d="M192.565 313.438V341.92C192.565 342.953 191.612 343.729 190.611 343.502C183.394 341.888 178.033 335.413 178.033 327.679C178.033 319.945 183.394 313.47 190.611 311.856C190.847 311.805 191.092 311.807 191.326 311.863C191.561 311.919 191.78 312.026 191.968 312.178C192.155 312.33 192.306 312.522 192.41 312.74C192.513 312.958 192.566 313.197 192.565 313.438ZM195.843 313.438V324.434C195.843 325.322 196.569 326.048 197.457 326.048H208.421C209.454 326.048 210.229 325.096 210.003 324.079C208.631 318.008 203.867 313.228 197.813 311.856C196.795 311.63 195.843 312.405 195.843 313.438ZM195.843 330.925V341.92C195.843 342.953 196.795 343.729 197.813 343.502C203.884 342.13 208.647 337.335 210.019 331.264C210.245 330.263 209.454 329.294 208.437 329.294H197.474C196.569 329.31 195.843 330.037 195.843 330.925Z" fill="url(#paint2_linear_2_73)"/>
</g>
</g>
<g clip-path="url(#clip2_2_73)">
<rect x="236.026" y="305.072" width="45.2095" height="45.2095" rx="22.6047" fill="white"/>
<g filter="url(#filter7_d_2_73)">
<mask id="path-36-inside-2_2_73" fill="white">
<path fill-rule="evenodd" clip-rule="evenodd" d="M254.63 312.337C255.152 312.345 255.657 312.521 256.071 312.839C256.485 313.158 256.784 313.601 256.926 314.104L262.189 332.817L264.435 326.827C264.608 326.365 264.918 325.967 265.323 325.686C265.729 325.405 266.21 325.254 266.704 325.254H271.548C272.19 325.254 272.806 325.509 273.26 325.964C273.714 326.418 273.97 327.034 273.97 327.676C273.97 328.319 273.714 328.935 273.26 329.389C272.806 329.843 272.19 330.098 271.548 330.098H268.383L264.128 341.444C263.949 341.922 263.624 342.332 263.198 342.614C262.772 342.896 262.268 343.037 261.758 343.015C261.248 342.994 260.757 342.811 260.357 342.494C259.956 342.178 259.666 341.742 259.528 341.25L254.471 323.268L252.87 328.396C252.716 328.889 252.409 329.321 251.993 329.627C251.577 329.933 251.074 330.098 250.557 330.098H245.714C245.071 330.098 244.455 329.843 244.001 329.389C243.547 328.935 243.292 328.319 243.292 327.676C243.292 327.034 243.547 326.418 244.001 325.964C244.455 325.509 245.071 325.254 245.714 325.254H248.777L252.282 314.037C252.438 313.539 252.75 313.104 253.173 312.797C253.596 312.491 254.107 312.33 254.63 312.337Z"/>
</mask>
<path fill-rule="evenodd" clip-rule="evenodd" d="M254.63 312.337C255.152 312.345 255.657 312.521 256.071 312.839C256.485 313.158 256.784 313.601 256.926 314.104L262.189 332.817L264.435 326.827C264.608 326.365 264.918 325.967 265.323 325.686C265.729 325.405 266.21 325.254 266.704 325.254H271.548C272.19 325.254 272.806 325.509 273.26 325.964C273.714 326.418 273.97 327.034 273.97 327.676C273.97 328.319 273.714 328.935 273.26 329.389C272.806 329.843 272.19 330.098 271.548 330.098H268.383L264.128 341.444C263.949 341.922 263.624 342.332 263.198 342.614C262.772 342.896 262.268 343.037 261.758 343.015C261.248 342.994 260.757 342.811 260.357 342.494C259.956 342.178 259.666 341.742 259.528 341.25L254.471 323.268L252.87 328.396C252.716 328.889 252.409 329.321 251.993 329.627C251.577 329.933 251.074 330.098 250.557 330.098H245.714C245.071 330.098 244.455 329.843 244.001 329.389C243.547 328.935 243.292 328.319 243.292 327.676C243.292 327.034 243.547 326.418 244.001 325.964C244.455 325.509 245.071 325.254 245.714 325.254H248.777L252.282 314.037C252.438 313.539 252.75 313.104 253.173 312.797C253.596 312.491 254.107 312.33 254.63 312.337Z" fill="#F9FAFC"/>
<path fill-rule="evenodd" clip-rule="evenodd" d="M254.63 312.337C255.152 312.345 255.657 312.521 256.071 312.839C256.485 313.158 256.784 313.601 256.926 314.104L262.189 332.817L264.435 326.827C264.608 326.365 264.918 325.967 265.323 325.686C265.729 325.405 266.21 325.254 266.704 325.254H271.548C272.19 325.254 272.806 325.509 273.26 325.964C273.714 326.418 273.97 327.034 273.97 327.676C273.97 328.319 273.714 328.935 273.26 329.389C272.806 329.843 272.19 330.098 271.548 330.098H268.383L264.128 341.444C263.949 341.922 263.624 342.332 263.198 342.614C262.772 342.896 262.268 343.037 261.758 343.015C261.248 342.994 260.757 342.811 260.357 342.494C259.956 342.178 259.666 341.742 259.528 341.25L254.471 323.268L252.87 328.396C252.716 328.889 252.409 329.321 251.993 329.627C251.577 329.933 251.074 330.098 250.557 330.098H245.714C245.071 330.098 244.455 329.843 244.001 329.389C243.547 328.935 243.292 328.319 243.292 327.676C243.292 327.034 243.547 326.418 244.001 325.964C244.455 325.509 245.071 325.254 245.714 325.254H248.777L252.282 314.037C252.438 313.539 252.75 313.104 253.173 312.797C253.596 312.491 254.107 312.33 254.63 312.337Z" stroke="url(#paint3_linear_2_73)" stroke-width="6.4585" mask="url(#path-36-inside-2_2_73)"/>
</g>
</g>
</g>
<g clip-path="url(#clip3_2_73)">
<rect x="159.123" y="112.052" width="69" height="52" rx="8.99905" fill="white"/>
<g filter="url(#filter8_d_2_73)">
<mask id="path-38-inside-3_2_73" fill="white">
<path d="M182.682 121.796H182.675C182.639 120.321 181.426 119.176 179.95 119.156V119.152H170.007V119.159C168.545 119.195 167.43 120.333 167.397 121.796H167.39V154.243H167.395C167.423 155.7 168.56 156.834 170.007 156.891V156.952H179.95C181.472 156.951 182.682 155.764 182.682 154.244V121.796ZM175.036 153.791C174.513 153.798 173.994 153.7 173.509 153.505C173.023 153.309 172.582 153.019 172.21 152.652C171.838 152.284 171.542 151.846 171.341 151.364C171.139 150.881 171.035 150.363 171.035 149.84C171.035 149.317 171.139 148.8 171.341 148.317C171.543 147.834 171.838 147.397 172.21 147.029C172.583 146.662 173.024 146.372 173.509 146.176C173.994 145.981 174.513 145.884 175.036 145.89C176.075 145.904 177.067 146.326 177.797 147.065C178.527 147.805 178.937 148.802 178.937 149.841C178.936 150.88 178.527 151.877 177.797 152.617C177.067 153.356 176.075 153.778 175.036 153.791ZM179.521 139.589H170.551V122.313H179.521V139.589ZM201.134 121.796H201.127C201.091 120.321 199.878 119.176 198.402 119.156V119.152H188.459V119.159C186.997 119.195 185.882 120.333 185.849 121.796H185.843V154.243H185.848C185.875 155.7 187.012 156.834 188.459 156.891V156.952H198.402C199.924 156.951 201.134 155.764 201.134 154.244V121.796ZM193.488 153.791C192.965 153.798 192.446 153.7 191.961 153.505C191.476 153.309 191.034 153.019 190.662 152.652C190.29 152.284 189.994 151.846 189.793 151.364C189.591 150.881 189.487 150.363 189.487 149.84C189.487 149.317 189.591 148.8 189.793 148.317C189.995 147.834 190.29 147.397 190.662 147.029C191.035 146.662 191.476 146.372 191.961 146.176C192.446 145.981 192.965 145.884 193.488 145.89C194.527 145.904 195.519 146.326 196.249 147.065C196.98 147.804 197.389 148.802 197.389 149.841C197.389 150.88 196.98 151.877 196.249 152.616C195.519 153.356 194.527 153.778 193.488 153.791ZM197.973 139.589H189.004V122.313H197.974L197.973 139.589ZM219.586 121.796H219.579C219.543 120.321 218.33 119.176 216.854 119.156V119.152H206.911V119.159C205.449 119.195 204.334 120.333 204.301 121.796H204.295V154.243H204.3C204.327 155.7 205.464 156.834 206.911 156.891V156.952H216.854C218.376 156.951 219.586 155.764 219.586 154.244V121.796ZM211.941 153.791C211.418 153.798 210.898 153.7 210.413 153.505C209.928 153.309 209.487 153.019 209.115 152.652C208.743 152.284 208.447 151.846 208.246 151.364C208.044 150.881 207.94 150.363 207.94 149.84C207.94 149.317 208.044 148.8 208.246 148.317C208.448 147.834 208.743 147.397 209.115 147.029C209.487 146.662 209.929 146.372 210.414 146.176C210.899 145.981 211.418 145.884 211.941 145.89C212.98 145.904 213.972 146.326 214.702 147.065C215.432 147.805 215.842 148.802 215.841 149.841C215.841 150.88 215.432 151.877 214.702 152.617C213.972 153.356 212.98 153.778 211.941 153.791ZM216.426 139.589H207.456V122.313H216.426V139.589Z"/>
</mask>
<path d="M182.682 121.796H182.675C182.639 120.321 181.426 119.176 179.95 119.156V119.152H170.007V119.159C168.545 119.195 167.43 120.333 167.397 121.796H167.39V154.243H167.395C167.423 155.7 168.56 156.834 170.007 156.891V156.952H179.95C181.472 156.951 182.682 155.764 182.682 154.244V121.796ZM175.036 153.791C174.513 153.798 173.994 153.7 173.509 153.505C173.023 153.309 172.582 153.019 172.21 152.652C171.838 152.284 171.542 151.846 171.341 151.364C171.139 150.881 171.035 150.363 171.035 149.84C171.035 149.317 171.139 148.8 171.341 148.317C171.543 147.834 171.838 147.397 172.21 147.029C172.583 146.662 173.024 146.372 173.509 146.176C173.994 145.981 174.513 145.884 175.036 145.89C176.075 145.904 177.067 146.326 177.797 147.065C178.527 147.805 178.937 148.802 178.937 149.841C178.936 150.88 178.527 151.877 177.797 152.617C177.067 153.356 176.075 153.778 175.036 153.791ZM179.521 139.589H170.551V122.313H179.521V139.589ZM201.134 121.796H201.127C201.091 120.321 199.878 119.176 198.402 119.156V119.152H188.459V119.159C186.997 119.195 185.882 120.333 185.849 121.796H185.843V154.243H185.848C185.875 155.7 187.012 156.834 188.459 156.891V156.952H198.402C199.924 156.951 201.134 155.764 201.134 154.244V121.796ZM193.488 153.791C192.965 153.798 192.446 153.7 191.961 153.505C191.476 153.309 191.034 153.019 190.662 152.652C190.29 152.284 189.994 151.846 189.793 151.364C189.591 150.881 189.487 150.363 189.487 149.84C189.487 149.317 189.591 148.8 189.793 148.317C189.995 147.834 190.29 147.397 190.662 147.029C191.035 146.662 191.476 146.372 191.961 146.176C192.446 145.981 192.965 145.884 193.488 145.89C194.527 145.904 195.519 146.326 196.249 147.065C196.98 147.804 197.389 148.802 197.389 149.841C197.389 150.88 196.98 151.877 196.249 152.616C195.519 153.356 194.527 153.778 193.488 153.791ZM197.973 139.589H189.004V122.313H197.974L197.973 139.589ZM219.586 121.796H219.579C219.543 120.321 218.33 119.176 216.854 119.156V119.152H206.911V119.159C205.449 119.195 204.334 120.333 204.301 121.796H204.295V154.243H204.3C204.327 155.7 205.464 156.834 206.911 156.891V156.952H216.854C218.376 156.951 219.586 155.764 219.586 154.244V121.796ZM211.941 153.791C211.418 153.798 210.898 153.7 210.413 153.505C209.928 153.309 209.487 153.019 209.115 152.652C208.743 152.284 208.447 151.846 208.246 151.364C208.044 150.881 207.94 150.363 207.94 149.84C207.94 149.317 208.044 148.8 208.246 148.317C208.448 147.834 208.743 147.397 209.115 147.029C209.487 146.662 209.929 146.372 210.414 146.176C210.899 145.981 211.418 145.884 211.941 145.89C212.98 145.904 213.972 146.326 214.702 147.065C215.432 147.805 215.842 148.802 215.841 149.841C215.841 150.88 215.432 151.877 214.702 152.617C213.972 153.356 212.98 153.778 211.941 153.791ZM216.426 139.589H207.456V122.313H216.426V139.589Z" fill="#F9FAFC"/>
<path d="M182.682 121.796H182.675C182.639 120.321 181.426 119.176 179.95 119.156V119.152H170.007V119.159C168.545 119.195 167.43 120.333 167.397 121.796H167.39V154.243H167.395C167.423 155.7 168.56 156.834 170.007 156.891V156.952H179.95C181.472 156.951 182.682 155.764 182.682 154.244V121.796ZM175.036 153.791C174.513 153.798 173.994 153.7 173.509 153.505C173.023 153.309 172.582 153.019 172.21 152.652C171.838 152.284 171.542 151.846 171.341 151.364C171.139 150.881 171.035 150.363 171.035 149.84C171.035 149.317 171.139 148.8 171.341 148.317C171.543 147.834 171.838 147.397 172.21 147.029C172.583 146.662 173.024 146.372 173.509 146.176C173.994 145.981 174.513 145.884 175.036 145.89C176.075 145.904 177.067 146.326 177.797 147.065C178.527 147.805 178.937 148.802 178.937 149.841C178.936 150.88 178.527 151.877 177.797 152.617C177.067 153.356 176.075 153.778 175.036 153.791ZM179.521 139.589H170.551V122.313H179.521V139.589ZM201.134 121.796H201.127C201.091 120.321 199.878 119.176 198.402 119.156V119.152H188.459V119.159C186.997 119.195 185.882 120.333 185.849 121.796H185.843V154.243H185.848C185.875 155.7 187.012 156.834 188.459 156.891V156.952H198.402C199.924 156.951 201.134 155.764 201.134 154.244V121.796ZM193.488 153.791C192.965 153.798 192.446 153.7 191.961 153.505C191.476 153.309 191.034 153.019 190.662 152.652C190.29 152.284 189.994 151.846 189.793 151.364C189.591 150.881 189.487 150.363 189.487 149.84C189.487 149.317 189.591 148.8 189.793 148.317C189.995 147.834 190.29 147.397 190.662 147.029C191.035 146.662 191.476 146.372 191.961 146.176C192.446 145.981 192.965 145.884 193.488 145.89C194.527 145.904 195.519 146.326 196.249 147.065C196.98 147.804 197.389 148.802 197.389 149.841C197.389 150.88 196.98 151.877 196.249 152.616C195.519 153.356 194.527 153.778 193.488 153.791ZM197.973 139.589H189.004V122.313H197.974L197.973 139.589ZM219.586 121.796H219.579C219.543 120.321 218.33 119.176 216.854 119.156V119.152H206.911V119.159C205.449 119.195 204.334 120.333 204.301 121.796H204.295V154.243H204.3C204.327 155.7 205.464 156.834 206.911 156.891V156.952H216.854C218.376 156.951 219.586 155.764 219.586 154.244V121.796ZM211.941 153.791C211.418 153.798 210.898 153.7 210.413 153.505C209.928 153.309 209.487 153.019 209.115 152.652C208.743 152.284 208.447 151.846 208.246 151.364C208.044 150.881 207.94 150.363 207.94 149.84C207.94 149.317 208.044 148.8 208.246 148.317C208.448 147.834 208.743 147.397 209.115 147.029C209.487 146.662 209.929 146.372 210.414 146.176C210.899 145.981 211.418 145.884 211.941 145.89C212.98 145.904 213.972 146.326 214.702 147.065C215.432 147.805 215.842 148.802 215.841 149.841C215.841 150.88 215.432 151.877 214.702 152.617C213.972 153.356 212.98 153.778 211.941 153.791ZM216.426 139.589H207.456V122.313H216.426V139.589Z" stroke="url(#paint4_linear_2_73)" stroke-width="6.86237" mask="url(#path-38-inside-3_2_73)"/>
</g>
</g>
<defs>
<filter id="filter0_d_2_73" x="51.8918" y="15.4975" width="70.3322" height="70.3322" filterUnits="userSpaceOnUse" color-interpolation-filters="sRGB">
<feFlood flood-opacity="0" result="BackgroundImageFix"/>
<feColorMatrix in="SourceAlpha" type="matrix" values="0 0 0 0 0 0 0 0 0 0 0 0 0 0 0 0 0 0 127 0" result="hardAlpha"/>
<feMorphology radius="2.9824" operator="dilate" in="SourceAlpha" result="effect1_dropShadow_2_73"/>
<feOffset/>
<feGaussianBlur stdDeviation="4.82155"/>
<feComposite in2="hardAlpha" operator="out"/>
<feColorMatrix type="matrix" values="0 0 0 0 0 0 0 0 0 0 0 0 0 0 0 0 0 0 0.05 0"/>
<feBlend mode="normal" in2="BackgroundImageFix" result="effect1_dropShadow_2_73"/>
<feBlend mode="normal" in="SourceGraphic" in2="effect1_dropShadow_2_73" result="shape"/>
</filter>
<filter id="filter1_d_2_73" x="122.845" y="15.4977" width="70.3322" height="70.3322" filterUnits="userSpaceOnUse" color-interpolation-filters="sRGB">
<feFlood flood-opacity="0" result="BackgroundImageFix"/>
<feColorMatrix in="SourceAlpha" type="matrix" values="0 0 0 0 0 0 0 0 0 0 0 0 0 0 0 0 0 0 127 0" result="hardAlpha"/>
<feMorphology radius="2.9824" operator="dilate" in="SourceAlpha" result="effect1_dropShadow_2_73"/>
<feOffset/>
<feGaussianBlur stdDeviation="4.82155"/>
<feComposite in2="hardAlpha" operator="out"/>
<feColorMatrix type="matrix" values="0 0 0 0 0 0 0 0 0 0 0 0 0 0 0 0 0 0 0.05 0"/>
<feBlend mode="normal" in2="BackgroundImageFix" result="effect1_dropShadow_2_73"/>
<feBlend mode="normal" in="SourceGraphic" in2="effect1_dropShadow_2_73" result="shape"/>
</filter>
<filter id="filter2_d_2_73" x="193.799" y="15.4975" width="70.3322" height="70.3322" filterUnits="userSpaceOnUse" color-interpolation-filters="sRGB">
<feFlood flood-opacity="0" result="BackgroundImageFix"/>
<feColorMatrix in="SourceAlpha" type="matrix" values="0 0 0 0 0 0 0 0 0 0 0 0 0 0 0 0 0 0 127 0" result="hardAlpha"/>
<feMorphology radius="2.9824" operator="dilate" in="SourceAlpha" result="effect1_dropShadow_2_73"/>
<feOffset/>
<feGaussianBlur stdDeviation="4.82155"/>
<feComposite in2="hardAlpha" operator="out"/>
<feColorMatrix type="matrix" values="0 0 0 0 0 0 0 0 0 0 0 0 0 0 0 0 0 0 0.05 0"/>
<feBlend mode="normal" in2="BackgroundImageFix" result="effect1_dropShadow_2_73"/>
<feBlend mode="normal" in="SourceGraphic" in2="effect1_dropShadow_2_73" result="shape"/>
</filter>
<filter id="filter3_d_2_73" x="264.752" y="15.4977" width="70.3322" height="70.3322" filterUnits="userSpaceOnUse" color-interpolation-filters="sRGB">
<feFlood flood-opacity="0" result="BackgroundImageFix"/>
<feColorMatrix in="SourceAlpha" type="matrix" values="0 0 0 0 0 0 0 0 0 0 0 0 0 0 0 0 0 0 127 0" result="hardAlpha"/>
<feMorphology radius="2.9824" operator="dilate" in="SourceAlpha" result="effect1_dropShadow_2_73"/>
<feOffset/>
<feGaussianBlur stdDeviation="4.82155"/>
<feComposite in2="hardAlpha" operator="out"/>
<feColorMatrix type="matrix" values="0 0 0 0 0 0 0 0 0 0 0 0 0 0 0 0 0 0 0.05 0"/>
<feBlend mode="normal" in2="BackgroundImageFix" result="effect1_dropShadow_2_73"/>
<feBlend mode="normal" in="SourceGraphic" in2="effect1_dropShadow_2_73" result="shape"/>
</filter>
<filter id="filter4_d_2_73" x="24.3613" y="122.055" width="340.516" height="240.476" filterUnits="userSpaceOnUse" color-interpolation-filters="sRGB">
<feFlood flood-opacity="0" result="BackgroundImageFix"/>
<feColorMatrix in="SourceAlpha" type="matrix" values="0 0 0 0 0 0 0 0 0 0 0 0 0 0 0 0 0 0 127 0" result="hardAlpha"/>
<feOffset dx="0.995917" dy="1.99183"/>
<feGaussianBlur stdDeviation="5.12897"/>
<feComposite in2="hardAlpha" operator="out"/>
<feColorMatrix type="matrix" values="0 0 0 0 0 0 0 0 0 0 0 0 0 0 0 0 0 0 0.25 0"/>
<feBlend mode="normal" in2="BackgroundImageFix" result="effect1_dropShadow_2_73"/>
<feBlend mode="normal" in="SourceGraphic" in2="effect1_dropShadow_2_73" result="shape"/>
</filter>
<filter id="filter5_d_2_73" x="95.6949" y="293.911" width="67.5326" height="67.5326" filterUnits="userSpaceOnUse" color-interpolation-filters="sRGB">
<feFlood flood-opacity="0" result="BackgroundImageFix"/>
<feColorMatrix in="SourceAlpha" type="matrix" values="0 0 0 0 0 0 0 0 0 0 0 0 0 0 0 0 0 0 127 0" result="hardAlpha"/>
<feMorphology radius="4.92503" operator="dilate" in="SourceAlpha" result="effect1_dropShadow_2_73"/>
<feOffset/>
<feGaussianBlur stdDeviation="7.96213"/>
<feComposite in2="hardAlpha" operator="out"/>
<feColorMatrix type="matrix" values="0 0 0 0 0 0 0 0 0 0 0 0 0 0 0 0 0 0 0.05 0"/>
<feBlend mode="normal" in2="BackgroundImageFix" result="effect1_dropShadow_2_73"/>
<feBlend mode="normal" in="SourceGraphic" in2="effect1_dropShadow_2_73" result="shape"/>
</filter>
<filter id="filter6_d_2_73" x="157.184" y="290.967" width="73.7231" height="73.4241" filterUnits="userSpaceOnUse" color-interpolation-filters="sRGB">
<feFlood flood-opacity="0" result="BackgroundImageFix"/>
<feColorMatrix in="SourceAlpha" type="matrix" values="0 0 0 0 0 0 0 0 0 0 0 0 0 0 0 0 0 0 127 0" result="hardAlpha"/>
<feMorphology radius="4.92503" operator="dilate" in="SourceAlpha" result="effect1_dropShadow_2_73"/>
<feOffset/>
<feGaussianBlur stdDeviation="7.96213"/>
<feComposite in2="hardAlpha" operator="out"/>
<feColorMatrix type="matrix" values="0 0 0 0 0 0 0 0 0 0 0 0 0 0 0 0 0 0 0.05 0"/>
<feBlend mode="normal" in2="BackgroundImageFix" result="effect1_dropShadow_2_73"/>
<feBlend mode="normal" in="SourceGraphic" in2="effect1_dropShadow_2_73" result="shape"/>
</filter>
<filter id="filter7_d_2_73" x="222.442" y="291.488" width="72.3764" height="72.3789" filterUnits="userSpaceOnUse" color-interpolation-filters="sRGB">
<feFlood flood-opacity="0" result="BackgroundImageFix"/>
<feColorMatrix in="SourceAlpha" type="matrix" values="0 0 0 0 0 0 0 0 0 0 0 0 0 0 0 0 0 0 127 0" result="hardAlpha"/>
<feMorphology radius="4.92503" operator="dilate" in="SourceAlpha" result="effect1_dropShadow_2_73"/>
<feOffset/>
<feGaussianBlur stdDeviation="7.96213"/>
<feComposite in2="hardAlpha" operator="out"/>
<feColorMatrix type="matrix" values="0 0 0 0 0 0 0 0 0 0 0 0 0 0 0 0 0 0 0.05 0"/>
<feBlend mode="normal" in2="BackgroundImageFix" result="effect1_dropShadow_2_73"/>
<feBlend mode="normal" in="SourceGraphic" in2="effect1_dropShadow_2_73" result="shape"/>
</filter>
<filter id="filter8_d_2_73" x="152.865" y="104.627" width="81.2467" height="66.8504" filterUnits="userSpaceOnUse" color-interpolation-filters="sRGB">
<feFlood flood-opacity="0" result="BackgroundImageFix"/>
<feColorMatrix in="SourceAlpha" type="matrix" values="0 0 0 0 0 0 0 0 0 0 0 0 0 0 0 0 0 0 127 0" result="hardAlpha"/>
<feMorphology radius="3.43118" operator="dilate" in="SourceAlpha" result="effect1_dropShadow_2_73"/>
<feOffset/>
<feGaussianBlur stdDeviation="5.54708"/>
<feComposite in2="hardAlpha" operator="out"/>
<feColorMatrix type="matrix" values="0 0 0 0 0 0 0 0 0 0 0 0 0 0 0 0 0 0 0.05 0"/>
<feBlend mode="normal" in2="BackgroundImageFix" result="effect1_dropShadow_2_73"/>
<feBlend mode="normal" in="SourceGraphic" in2="effect1_dropShadow_2_73" result="shape"/>
</filter>
<linearGradient id="paint0_linear_2_73" x1="193.623" y1="132.821" x2="193.623" y2="327.821" gradientUnits="userSpaceOnUse">
<stop stop-color="#02D7FD"/>
<stop offset="1" stop-color="#32F7BA"/>
</linearGradient>
<linearGradient id="paint1_linear_2_73" x1="116.544" y1="327.678" x2="142.378" y2="327.678" gradientUnits="userSpaceOnUse">
<stop stop-color="#00D6FF"/>
<stop offset="1" stop-color="#32F8B9"/>
</linearGradient>
<linearGradient id="paint2_linear_2_73" x1="178.033" y1="327.679" x2="210.058" y2="327.679" gradientUnits="userSpaceOnUse">
<stop stop-color="#00D6FF"/>
<stop offset="1" stop-color="#32F8B9"/>
</linearGradient>
<linearGradient id="paint3_linear_2_73" x1="243.292" y1="327.677" x2="273.97" y2="327.677" gradientUnits="userSpaceOnUse">
<stop stop-color="#00D6FF"/>
<stop offset="1" stop-color="#32F8B9"/>
</linearGradient>
<linearGradient id="paint4_linear_2_73" x1="167.39" y1="138.052" x2="219.586" y2="138.052" gradientUnits="userSpaceOnUse">
<stop stop-color="#00D6FF"/>
<stop offset="1" stop-color="#32F8B9"/>
</linearGradient>
<clipPath id="clip0_2_73">
<rect x="106.856" y="305.072" width="45.2095" height="45.2095" rx="22.6047" fill="white"/>
</clipPath>
<clipPath id="clip1_2_73">
<rect x="171.441" y="305.072" width="45.2095" height="45.2095" rx="22.6047" fill="white"/>
</clipPath>
<clipPath id="clip2_2_73">
<rect x="236.026" y="305.072" width="45.2095" height="45.2095" rx="22.6047" fill="white"/>
</clipPath>
<clipPath id="clip3_2_73">
<rect x="159.123" y="112.052" width="69" height="52" rx="8.99905" fill="white"/>
</clipPath>
</defs>
</svg>
