<svg width="328" height="328" viewBox="0 0 328 328" fill="none" xmlns="http://www.w3.org/2000/svg">
<rect x="0.492188" y="0.283203" width="327" height="327" rx="13.5194" fill="#E8F7FE" style="mix-blend-mode:multiply"/>
<path d="M163.646 94.3729L167.556 87.6017H159.737L163.646 94.3729ZM74.3137 42.6896H73.6366V44.0767H74.3137H74.9908V42.6896H74.3137ZM74.3137 46.8508H73.6366V49.625H74.3137H74.9908V46.8508H74.3137ZM74.3137 52.3992H73.6366V55.1733H74.3137H74.9908V52.3992H74.3137ZM74.3137 57.9475H73.6366V60.7217H74.3137H74.9908V57.9475H74.3137ZM74.3137 63.4958H73.6366V66.27H74.3137H74.9908V63.4958H74.3137ZM74.3137 69.0442H73.6366V70.4312H74.3137H74.9908V69.0442H74.3137ZM74.3137 70.4312H73.6366C73.6366 70.9834 73.6907 71.5236 73.7942 72.0466L74.4584 71.9152L75.1227 71.7838C75.0362 71.3469 74.9908 70.8947 74.9908 70.4312H74.3137ZM75.5944 74.6561L75.0318 75.0328C75.6362 75.9355 76.4133 76.7126 77.316 77.317L77.6927 76.7543L78.0694 76.1917C77.3138 75.6858 76.663 75.035 76.1571 74.2794L75.5944 74.6561ZM80.4336 77.8904L80.3022 78.5546C80.8252 78.6581 81.3654 78.7122 81.9175 78.7122V78.0351V77.358C81.4541 77.358 81.0019 77.3126 80.565 77.2261L80.4336 77.8904ZM81.9175 78.0351V78.7122H83.2412V78.0351V77.358H81.9175V78.0351ZM85.8885 78.0351V78.7122H88.5359V78.0351V77.358H85.8885V78.0351ZM91.1832 78.0351V78.7122H93.8305V78.0351V77.358H91.1832V78.0351ZM96.4778 78.0351V78.7122H99.1251V78.0351V77.358H96.4778V78.0351ZM101.772 78.0351V78.7122H104.42V78.0351V77.358H101.772V78.0351ZM107.067 78.0351V78.7122H109.714V78.0351V77.358H107.067V78.0351ZM112.362 78.0351V78.7122H115.009V78.0351V77.358H112.362V78.0351ZM117.656 78.0351V78.7122H120.304V78.0351V77.358H117.656V78.0351ZM122.951 78.0351V78.7122H125.598V78.0351V77.358H122.951V78.0351ZM128.246 78.0351V78.7122H130.893V78.0351V77.358H128.246V78.0351ZM133.54 78.0351V78.7122H136.188V78.0351V77.358H133.54V78.0351ZM138.835 78.0351V78.7122H141.482V78.0351V77.358H138.835V78.0351ZM144.13 78.0351V78.7122H146.777V78.0351V77.358H144.13V78.0351ZM149.424 78.0351V78.7122H152.072V78.0351V77.358H149.424V78.0351ZM154.719 78.0351V78.7122H156.043V78.0351V77.358H154.719V78.0351ZM156.043 78.0351V78.7122C156.506 78.7122 156.958 78.7576 157.395 78.8441L157.527 78.1798L157.658 77.5156C157.135 77.4121 156.595 77.358 156.043 77.358V78.0351ZM160.267 79.3158L159.891 79.8785C160.646 80.3844 161.297 81.0352 161.803 81.7908L162.366 81.4141L162.928 81.0374C162.324 80.1347 161.547 79.3576 160.644 78.7532L160.267 79.3158ZM163.502 84.155L162.837 84.2864C162.924 84.7233 162.969 85.1755 162.969 85.6389H163.646H164.324C164.324 85.0868 164.269 84.5466 164.166 84.0236L163.502 84.155ZM163.646 85.6389H162.969V86.7307H163.646H164.324V85.6389H163.646ZM163.646 88.9142H162.969V91.0976H163.646H164.324V88.9142H163.646Z" fill="#04D8FB"/>
<path d="M163.646 94.3729L167.556 87.6017H159.737L163.646 94.3729ZM132.842 42.6896H132.165V44.0767H132.842H133.519V42.6896H132.842ZM132.842 46.8508H132.165V49.625H132.842H133.519V46.8508H132.842ZM132.842 52.3992H132.165V55.1733H132.842H133.519V52.3992H132.842ZM132.842 57.9475H132.165V60.7217H132.842H133.519V57.9475H132.842ZM132.842 63.4958H132.165V66.27H132.842H133.519V63.4958H132.842ZM132.842 69.0442H132.165V70.4312H132.842H133.519V69.0442H132.842ZM132.842 70.4312H132.165C132.165 70.9834 132.219 71.5236 132.322 72.0466L132.987 71.9152L133.651 71.7838C133.565 71.3469 133.519 70.8947 133.519 70.4312H132.842ZM134.123 74.6561L133.56 75.0328C134.164 75.9355 134.942 76.7126 135.844 77.317L136.221 76.7543L136.598 76.1917C135.842 75.6858 135.191 75.035 134.685 74.2794L134.123 74.6561ZM138.962 77.8904L138.83 78.5546C139.353 78.6581 139.894 78.7122 140.446 78.7122V78.0351V77.358C139.982 77.358 139.53 77.3126 139.093 77.2261L138.962 77.8904ZM140.446 78.0351V78.7122H141.746V78.0351V77.358H140.446V78.0351ZM144.345 78.0351V78.7122H146.944V78.0351V77.358H144.345V78.0351ZM149.544 78.0351V78.7122H152.143V78.0351V77.358H149.544V78.0351ZM154.743 78.0351V78.7122H156.042V78.0351V77.358H154.743V78.0351ZM156.042 78.0351V78.7122C156.506 78.7122 156.958 78.7576 157.395 78.8441L157.526 78.1798L157.658 77.5156C157.135 77.4121 156.595 77.358 156.042 77.358V78.0351ZM160.267 79.3158L159.891 79.8785C160.646 80.3844 161.297 81.0352 161.803 81.7908L162.366 81.4141L162.928 81.0374C162.324 80.1347 161.547 79.3576 160.644 78.7532L160.267 79.3158ZM163.502 84.155L162.837 84.2864C162.924 84.7233 162.969 85.1755 162.969 85.6389H163.646H164.323C164.323 85.0868 164.269 84.5466 164.166 84.0236L163.502 84.155ZM163.646 85.6389H162.969V86.7307H163.646H164.323V85.6389H163.646ZM163.646 88.9142H162.969V91.0976H163.646H164.323V88.9142H163.646Z" fill="#04D8FB"/>
<path d="M163.647 94.3729L159.738 87.6017H167.556L163.647 94.3729ZM192.976 42.6896H193.653V44.0767H192.976H192.299V42.6896H192.976ZM192.976 46.8508H193.653V49.625H192.976H192.299V46.8508H192.976ZM192.976 52.3992H193.653V55.1733H192.976H192.299V52.3992H192.976ZM192.976 57.9475H193.653V60.7217H192.976H192.299V57.9475H192.976ZM192.976 63.4958H193.653V66.27H192.976H192.299V63.4958H192.976ZM192.976 69.0442H193.653V70.4312H192.976H192.299V69.0442H192.976ZM192.976 70.4312H193.653C193.653 70.9834 193.599 71.5236 193.495 72.0466L192.831 71.9152L192.167 71.7838C192.253 71.3469 192.299 70.8947 192.299 70.4312H192.976ZM191.695 74.6561L192.258 75.0328C191.653 75.9355 190.876 76.7126 189.973 77.317L189.597 76.7543L189.22 76.1917C189.976 75.6858 190.626 75.035 191.132 74.2794L191.695 74.6561ZM186.856 77.8904L186.987 78.5546C186.464 78.6581 185.924 78.7122 185.372 78.7122V78.0351V77.358C185.835 77.358 186.288 77.3126 186.725 77.2261L186.856 77.8904ZM185.372 78.0351V78.7122H184.195V78.0351V77.358H185.372V78.0351ZM181.842 78.0351V78.7122H179.488V78.0351V77.358H181.842V78.0351ZM177.135 78.0351V78.7122H174.781V78.0351V77.358H177.135V78.0351ZM172.427 78.0351V78.7122H171.251V78.0351V77.358H172.427V78.0351ZM171.251 78.0351V78.7122C170.787 78.7122 170.335 78.7576 169.898 78.8441L169.767 78.1798L169.635 77.5156C170.158 77.4121 170.699 77.358 171.251 77.358V78.0351ZM167.026 79.3158L167.403 79.8785C166.647 80.3844 165.996 81.0352 165.49 81.7908L164.928 81.4141L164.365 81.0374C164.969 80.1347 165.746 79.3576 166.649 78.7532L167.026 79.3158ZM163.792 84.155L164.456 84.2864C164.369 84.7233 164.324 85.1755 164.324 85.6389H163.647H162.97C162.97 85.0868 163.024 84.5466 163.127 84.0236L163.792 84.155ZM163.647 85.6389H164.324V86.7307H163.647H162.97V85.6389H163.647ZM163.647 88.9142H164.324V91.0976H163.647H162.97V88.9142H163.647Z" fill="#04D8FB"/>
<path d="M163.646 94.3729L159.737 87.6017H167.556L163.646 94.3729ZM255.375 42.6896H256.052V44.0767H255.375H254.698V42.6896H255.375ZM255.375 46.8508H256.052V49.625H255.375H254.698V46.8508H255.375ZM255.375 52.3992H256.052V55.1733H255.375H254.698V52.3992H255.375ZM255.375 57.9475H256.052V60.7217H255.375H254.698V57.9475H255.375ZM255.375 63.4958H256.052V66.27H255.375H254.698V63.4958H255.375ZM255.375 69.0442H256.052V70.4312H255.375H254.698V69.0442H255.375ZM255.375 70.4312H256.052C256.052 70.9834 255.998 71.5236 255.895 72.0466L255.23 71.9152L254.566 71.7838C254.653 71.3469 254.698 70.8947 254.698 70.4312H255.375ZM254.094 74.6561L254.657 75.0328C254.053 75.9355 253.276 76.7126 252.373 77.317L251.996 76.7543L251.619 76.1917C252.375 75.6858 253.026 75.035 253.532 74.2794L254.094 74.6561ZM249.255 77.8904L249.387 78.5546C248.864 78.6581 248.324 78.7122 247.771 78.7122V78.0351V77.358C248.235 77.358 248.687 77.3126 249.124 77.2261L249.255 77.8904ZM247.771 78.0351V78.7122H246.405V78.0351V77.358H247.771V78.0351ZM243.672 78.0351V78.7122H240.939V78.0351V77.358H243.672V78.0351ZM238.206 78.0351V78.7122H235.473V78.0351V77.358H238.206V78.0351ZM232.74 78.0351V78.7122H230.008V78.0351V77.358H232.74V78.0351ZM227.275 78.0351V78.7122H224.542V78.0351V77.358H227.275V78.0351ZM221.809 78.0351V78.7122H219.076V78.0351V77.358H221.809V78.0351ZM216.343 78.0351V78.7122H213.61V78.0351V77.358H216.343V78.0351ZM210.877 78.0351V78.7122H208.144V78.0351V77.358H210.877V78.0351ZM205.411 78.0351V78.7122H202.679V78.0351V77.358H205.411V78.0351ZM199.946 78.0351V78.7122H197.213V78.0351V77.358H199.946V78.0351ZM194.48 78.0351V78.7122H191.747V78.0351V77.358H194.48V78.0351ZM189.014 78.0351V78.7122H186.281V78.0351V77.358H189.014V78.0351ZM183.548 78.0351V78.7122H180.815V78.0351V77.358H183.548V78.0351ZM178.082 78.0351V78.7122H175.35V78.0351V77.358H178.082V78.0351ZM172.617 78.0351V78.7122H171.25V78.0351V77.358H172.617V78.0351ZM171.25 78.0351V78.7122C170.787 78.7122 170.335 78.7576 169.898 78.8441L169.766 78.1798L169.635 77.5156C170.158 77.4121 170.698 77.358 171.25 77.358V78.0351ZM167.025 79.3158L167.402 79.8785C166.646 80.3844 165.996 81.0352 165.49 81.7908L164.927 81.4141L164.364 81.0374C164.969 80.1347 165.746 79.3576 166.649 78.7532L167.025 79.3158ZM163.791 84.155L164.455 84.2864C164.369 84.7233 164.323 85.1755 164.323 85.6389H163.646H162.969C162.969 85.0868 163.023 84.5466 163.127 84.0236L163.791 84.155ZM163.646 85.6389H164.323V86.7307H163.646H162.969V85.6389H163.646ZM163.646 88.9142H164.323V91.0976H163.646H162.969V88.9142H163.646Z" fill="#04D8FB"/>
<g filter="url(#filter0_d_1_32)">
<rect x="55.011" y="23.4562" width="38.0918" height="38.0918" rx="19.0459" fill="#FDFDFD"/>
<rect x="55.7164" y="24.1616" width="36.681" height="36.681" rx="18.3405" stroke="#00D6FF" stroke-opacity="0.24" stroke-width="1.41081"/>
<path d="M68.8551 46.8124L63.7187 43.4857V42.1284L68.8551 38.8017V40.5715L65.3289 42.7805V42.8337L68.8551 45.0426V46.8124ZM70.7395 49.354L75.1174 37.7771H76.7542L72.3762 49.354H70.7395ZM78.6385 46.8124V45.0426L82.1648 42.8337V42.7805L78.6385 40.5715V38.8017L83.7749 42.1284V43.4857L78.6385 46.8124Z" fill="black"/>
</g>
<g filter="url(#filter1_d_1_32)">
<rect x="114.964" y="23.4562" width="38.0918" height="38.0918" rx="19.0459" fill="#FDFDFD"/>
<rect x="115.669" y="24.1616" width="36.681" height="36.681" rx="18.3405" stroke="#00D6FF" stroke-opacity="0.24" stroke-width="1.41081"/>
<path d="M130.235 46.8124L125.098 43.4857V42.1284L130.235 38.8017V40.5715L126.708 42.7805V42.8337L130.235 45.0426V46.8124ZM137.623 46.8124V45.0426L141.149 42.8337V42.7805L137.623 40.5715V38.8017L142.759 42.1284V43.4857L137.623 46.8124Z" fill="black"/>
</g>
<g filter="url(#filter2_d_1_32)">
<rect x="174.917" y="23.4562" width="38.0918" height="38.0918" rx="19.0459" fill="#FDFDFD"/>
<rect x="175.622" y="24.1616" width="36.681" height="36.681" rx="18.3405" stroke="#00D6FF" stroke-opacity="0.24" stroke-width="1.41081"/>
<path d="M188.762 46.8122L183.625 43.4856V42.1283L188.762 38.8016V40.5714L185.235 42.7803V42.8335L188.762 45.0424V46.8122ZM190.646 49.3538L195.024 37.777H196.661L192.283 49.3538H190.646ZM198.545 46.8122V45.0424L202.071 42.8335V42.7803L198.545 40.5714V38.8016L203.682 42.1283V43.4856L198.545 46.8122Z" fill="black"/>
</g>
<g filter="url(#filter3_d_1_32)">
<rect x="234.87" y="23.4562" width="38.0918" height="38.0918" rx="19.0459" fill="#FDFDFD"/>
<rect x="235.575" y="24.1616" width="36.681" height="36.681" rx="18.3405" stroke="#00D6FF" stroke-opacity="0.24" stroke-width="1.41081"/>
<path d="M247.141 46.8124V45.0426L250.668 42.8337V42.7805L247.141 40.5715V38.8017L252.278 42.1284V43.4857L247.141 46.8124ZM254.215 49.4072V47.9435H260.603V49.4072H254.215Z" fill="black"/>
</g>
<g filter="url(#filter4_d_1_32)">
<rect x="31.018" y="111.923" width="266.163" height="164.767" rx="25.4008" fill="#111214" shape-rendering="crispEdges"/>
<rect x="31.018" y="111.923" width="266.163" height="164.767" rx="25.4008" stroke="url(#paint0_linear_1_32)" stroke-width="4.22481" shape-rendering="crispEdges"/>
<path d="M57.9507 146.536C57.1318 146.536 56.5241 146.407 56.1276 146.148C55.7397 145.898 55.5458 145.433 55.5458 144.752C55.5458 144.442 55.5544 144.166 55.5716 143.925C55.5975 143.675 55.619 143.429 55.6363 143.188C55.6621 142.946 55.6751 142.683 55.6751 142.399C55.6751 142.244 55.6233 142.093 55.5199 141.946C55.4165 141.8 55.2311 141.679 54.9639 141.584C54.7053 141.481 54.3347 141.429 53.852 141.429V140.524C54.3347 140.524 54.7053 140.477 54.9639 140.382C55.2311 140.278 55.4165 140.153 55.5199 140.007C55.6233 139.86 55.6751 139.709 55.6751 139.554C55.6751 139.278 55.6621 139.02 55.6363 138.779C55.619 138.529 55.5975 138.279 55.5716 138.029C55.5544 137.779 55.5458 137.503 55.5458 137.201C55.5458 136.52 55.7397 136.055 56.1276 135.805C56.5241 135.546 57.1318 135.417 57.9507 135.417H58.8428V136.231H58.2481C57.8516 136.231 57.5455 136.266 57.3301 136.335C57.1232 136.395 56.981 136.503 56.9034 136.658C56.8258 136.805 56.787 137.007 56.787 137.266C56.787 137.619 56.7956 137.981 56.8129 138.352C56.8387 138.714 56.8517 139.093 56.8517 139.49C56.8517 139.947 56.7612 140.287 56.5801 140.511C56.3991 140.727 56.0802 140.873 55.6233 140.951V141.002C56.0802 141.08 56.3991 141.231 56.5801 141.455C56.7612 141.67 56.8517 142.007 56.8517 142.463C56.8517 142.877 56.8387 143.261 56.8129 143.614C56.7956 143.959 56.787 144.317 56.787 144.687C56.787 144.946 56.8258 145.149 56.9034 145.295C56.981 145.45 57.1232 145.558 57.3301 145.618C57.5455 145.687 57.8516 145.722 58.2481 145.722H58.8428V146.536H57.9507Z" fill="#D09A66"/>
<path d="M66.1882 158.578L65.8003 155.592L65.7615 153.937H67.5716L67.5328 155.592L67.1449 158.578H66.1882ZM69.3947 158.578L69.0068 155.592L68.968 153.937H70.7782L70.7394 155.592L70.3515 158.578H69.3947ZM74.7813 162.962C74.04 162.962 73.5013 162.738 73.1651 162.289C72.8289 161.841 72.6609 161.208 72.6609 160.389V156.458H74.1478V160.195C74.1478 160.703 74.234 161.078 74.4064 161.32C74.5874 161.561 74.8977 161.682 75.3373 161.682C75.6304 161.682 75.8976 161.613 76.1389 161.475C76.3889 161.328 76.6518 161.083 76.9276 160.738V156.458H78.4146V162.806H77.1992L77.0828 161.798H77.0311C76.7294 162.143 76.3975 162.423 76.0355 162.638C75.6735 162.854 75.2554 162.962 74.7813 162.962ZM80.1809 162.806V156.458H81.4092L81.5256 157.415H81.5773C81.879 157.105 82.2108 156.842 82.5729 156.626C82.9435 156.411 83.3745 156.303 83.8658 156.303C84.5985 156.303 85.1372 156.527 85.482 156.975C85.8268 157.423 85.9992 158.057 85.9992 158.876V162.806H84.4994V159.07C84.4994 158.561 84.4089 158.186 84.2279 157.945C84.0468 157.704 83.7408 157.583 83.3098 157.583C82.9995 157.583 82.7237 157.656 82.4823 157.803C82.241 157.949 81.9738 158.173 81.6807 158.475V162.806H80.1809ZM90.3256 162.806V157.635H87.5716V156.458H91.8125V162.806H90.3256ZM90.9592 155.294C90.6575 155.294 90.4032 155.204 90.1963 155.023C89.998 154.842 89.8989 154.6 89.8989 154.299C89.8989 153.997 89.998 153.756 90.1963 153.575C90.4032 153.385 90.6575 153.29 90.9592 153.29C91.2695 153.29 91.5237 153.385 91.722 153.575C91.9203 153.756 92.0194 153.997 92.0194 154.299C92.0194 154.6 91.9203 154.842 91.722 155.023C91.5237 155.204 91.2695 155.294 90.9592 155.294ZM98.9058 162.962C98.2594 162.962 97.7465 162.85 97.3672 162.625C96.9879 162.393 96.7164 162.074 96.5526 161.669C96.3889 161.264 96.307 160.794 96.307 160.259V157.635H94.6132V156.523L96.3716 156.458L96.5656 154.467H97.7939V156.458H100.69V157.635H97.7939V160.246C97.7939 160.591 97.8413 160.88 97.9361 161.113C98.0309 161.337 98.1861 161.505 98.4016 161.617C98.6171 161.72 98.9015 161.772 99.2549 161.772C99.5308 161.772 99.7807 161.751 100.005 161.707C100.229 161.664 100.444 161.604 100.651 161.526L100.936 162.6C100.651 162.694 100.345 162.776 100.018 162.845C99.6902 162.923 99.3196 162.962 98.9058 162.962ZM101.991 164.772V163.608H108.197V164.772H101.991ZM113.636 162.962C112.989 162.962 112.476 162.85 112.097 162.625C111.718 162.393 111.446 162.074 111.282 161.669C111.119 161.264 111.037 160.794 111.037 160.259V157.635H109.343V156.523L111.101 156.458L111.295 154.467H112.524V156.458H115.42V157.635H112.524V160.246C112.524 160.591 112.571 160.88 112.666 161.113C112.761 161.337 112.916 161.505 113.131 161.617C113.347 161.72 113.631 161.772 113.985 161.772C114.26 161.772 114.51 161.751 114.735 161.707C114.959 161.664 115.174 161.604 115.381 161.526L115.665 162.6C115.381 162.694 115.075 162.776 114.747 162.845C114.42 162.923 114.049 162.962 113.636 162.962ZM120.212 162.962C119.565 162.962 118.979 162.832 118.453 162.574C117.927 162.307 117.509 161.927 117.199 161.436C116.889 160.936 116.734 160.333 116.734 159.626C116.734 158.936 116.889 158.346 117.199 157.854C117.509 157.354 117.915 156.971 118.414 156.704C118.914 156.436 119.449 156.303 120.018 156.303C120.647 156.303 121.177 156.432 121.608 156.691C122.048 156.949 122.38 157.307 122.604 157.764C122.836 158.212 122.953 158.729 122.953 159.315C122.953 159.462 122.944 159.604 122.927 159.742C122.918 159.871 122.905 159.979 122.888 160.065H117.807V159.005H121.931L121.647 159.341C121.647 158.712 121.505 158.242 121.22 157.932C120.944 157.613 120.556 157.454 120.057 157.454C119.703 157.454 119.384 157.535 119.1 157.699C118.824 157.863 118.604 158.109 118.44 158.436C118.277 158.755 118.195 159.152 118.195 159.626C118.195 160.117 118.285 160.522 118.466 160.841C118.656 161.16 118.914 161.401 119.242 161.565C119.578 161.729 119.966 161.811 120.406 161.811C120.742 161.811 121.052 161.763 121.337 161.669C121.621 161.574 121.905 161.445 122.19 161.281L122.694 162.212C122.358 162.427 121.979 162.608 121.556 162.755C121.134 162.893 120.686 162.962 120.212 162.962ZM127.227 162.962C126.633 162.962 126.064 162.867 125.521 162.677C124.978 162.479 124.508 162.246 124.111 161.979L124.758 161.035C125.137 161.285 125.547 161.483 125.986 161.63C126.426 161.768 126.904 161.837 127.421 161.837C127.861 161.837 128.184 161.763 128.391 161.617C128.607 161.462 128.714 161.281 128.714 161.074C128.714 160.97 128.688 160.876 128.637 160.789C128.594 160.703 128.512 160.626 128.391 160.557C128.27 160.479 128.094 160.406 127.861 160.337C127.628 160.268 127.327 160.195 126.956 160.117C126.111 159.936 125.491 159.69 125.094 159.38C124.698 159.07 124.499 158.678 124.499 158.204C124.499 157.643 124.741 157.186 125.223 156.833C125.715 156.48 126.404 156.303 127.292 156.303C127.818 156.303 128.309 156.389 128.766 156.561C129.232 156.734 129.624 156.928 129.943 157.143L129.257 158.061C128.956 157.854 128.624 157.699 128.262 157.596C127.9 157.484 127.533 157.428 127.163 157.428C126.878 157.428 126.65 157.458 126.478 157.518C126.314 157.579 126.189 157.665 126.103 157.777C126.025 157.88 125.986 157.997 125.986 158.126C125.986 158.35 126.115 158.518 126.374 158.63C126.633 158.742 127.055 158.863 127.641 158.992C128.322 159.139 128.848 159.307 129.219 159.496C129.589 159.678 129.844 159.889 129.981 160.13C130.128 160.363 130.201 160.652 130.201 160.996C130.201 161.358 130.085 161.69 129.852 161.992C129.628 162.285 129.296 162.522 128.857 162.703C128.417 162.875 127.874 162.962 127.227 162.962ZM135.73 162.962C135.084 162.962 134.571 162.85 134.191 162.625C133.812 162.393 133.541 162.074 133.377 161.669C133.213 161.264 133.131 160.794 133.131 160.259V157.635H131.437V156.523L133.196 156.458L133.39 154.467H134.618V156.458H137.514V157.635H134.618V160.246C134.618 160.591 134.666 160.88 134.76 161.113C134.855 161.337 135.01 161.505 135.226 161.617C135.441 161.72 135.726 161.772 136.079 161.772C136.355 161.772 136.605 161.751 136.829 161.707C137.053 161.664 137.269 161.604 137.476 161.526L137.76 162.6C137.476 162.694 137.17 162.776 136.842 162.845C136.515 162.923 136.144 162.962 135.73 162.962ZM141.957 162.962C141.362 162.962 140.793 162.867 140.25 162.677C139.707 162.479 139.238 162.246 138.841 161.979L139.488 161.035C139.867 161.285 140.276 161.483 140.716 161.63C141.156 161.768 141.634 161.837 142.151 161.837C142.591 161.837 142.914 161.763 143.121 161.617C143.336 161.462 143.444 161.281 143.444 161.074C143.444 160.97 143.418 160.876 143.366 160.789C143.323 160.703 143.241 160.626 143.121 160.557C143 160.479 142.823 160.406 142.591 160.337C142.358 160.268 142.056 160.195 141.686 160.117C140.841 159.936 140.22 159.69 139.824 159.38C139.427 159.07 139.229 158.678 139.229 158.204C139.229 157.643 139.47 157.186 139.953 156.833C140.444 156.48 141.134 156.303 142.022 156.303C142.548 156.303 143.039 156.389 143.496 156.561C143.961 156.734 144.353 156.928 144.672 157.143L143.987 158.061C143.685 157.854 143.354 157.699 142.992 157.596C142.629 157.484 142.263 157.428 141.892 157.428C141.608 157.428 141.38 157.458 141.207 157.518C141.043 157.579 140.918 157.665 140.832 157.777C140.755 157.88 140.716 157.997 140.716 158.126C140.716 158.35 140.845 158.518 141.104 158.63C141.362 158.742 141.785 158.863 142.371 158.992C143.052 159.139 143.578 159.307 143.948 159.496C144.319 159.678 144.573 159.889 144.711 160.13C144.858 160.363 144.931 160.652 144.931 160.996C144.931 161.358 144.815 161.69 144.582 161.992C144.358 162.285 144.026 162.522 143.586 162.703C143.147 162.875 142.604 162.962 141.957 162.962ZM147.202 158.578L146.814 155.592L146.775 153.937H148.585L148.546 155.592L148.158 158.578H147.202ZM150.408 158.578L150.02 155.592L149.981 153.937H151.792L151.753 155.592L151.365 158.578H150.408ZM156.648 158.566C156.286 158.566 155.98 158.441 155.73 158.191C155.489 157.941 155.368 157.63 155.368 157.26C155.368 156.88 155.489 156.57 155.73 156.329C155.98 156.079 156.286 155.954 156.648 155.954C157.019 155.954 157.325 156.079 157.566 156.329C157.807 156.57 157.928 156.88 157.928 157.26C157.928 157.63 157.807 157.941 157.566 158.191C157.325 158.441 157.019 158.566 156.648 158.566ZM156.648 162.962C156.286 162.962 155.98 162.837 155.73 162.587C155.489 162.337 155.368 162.026 155.368 161.656C155.368 161.276 155.489 160.966 155.73 160.725C155.98 160.475 156.286 160.35 156.648 160.35C157.019 160.35 157.325 160.475 157.566 160.725C157.807 160.966 157.928 161.276 157.928 161.656C157.928 162.026 157.807 162.337 157.566 162.587C157.325 162.837 157.019 162.962 156.648 162.962Z" fill="#D09A66"/>
<rect x="172.723" y="153.806" width="103.085" height="8.44961" fill="#B8E9FF" fill-opacity="0.6"/>
<path d="M66.1882 176.578L65.8003 173.592L65.7615 171.937H67.5716L67.5328 173.592L67.1449 176.578H66.1882ZM69.3947 176.578L69.0068 173.592L68.968 171.937H70.7782L70.7394 173.592L70.3515 176.578H69.3947ZM76.8113 180.962C76.1648 180.962 75.6519 180.85 75.2726 180.625C74.8934 180.393 74.6219 180.074 74.4581 179.669C74.2943 179.264 74.2124 178.794 74.2124 178.259V175.635H72.5186V174.523L74.2771 174.458L74.471 172.467H75.6993V174.458H78.5956V175.635H75.6993V178.246C75.6993 178.591 75.7467 178.88 75.8416 179.113C75.9364 179.337 76.0915 179.505 76.307 179.617C76.5225 179.72 76.807 179.772 77.1604 179.772C77.4362 179.772 77.6862 179.751 77.9103 179.707C78.1344 179.664 78.3499 179.604 78.5568 179.526L78.8412 180.6C78.5568 180.694 78.2508 180.776 77.9232 180.845C77.5957 180.923 77.225 180.962 76.8113 180.962ZM83.3874 180.962C82.7409 180.962 82.1548 180.832 81.629 180.574C81.1032 180.307 80.6851 179.927 80.3748 179.436C80.0645 178.936 79.9093 178.333 79.9093 177.626C79.9093 176.936 80.0645 176.346 80.3748 175.854C80.6851 175.354 81.0903 174.971 81.5902 174.704C82.0901 174.436 82.6246 174.303 83.1935 174.303C83.8227 174.303 84.3528 174.432 84.7838 174.691C85.2234 174.949 85.5553 175.307 85.7794 175.764C86.0121 176.212 86.1285 176.729 86.1285 177.315C86.1285 177.462 86.1199 177.604 86.1027 177.742C86.094 177.871 86.0811 177.979 86.0639 178.065H80.9825V177.005H85.1071L84.8226 177.341C84.8226 176.712 84.6804 176.242 84.3959 175.932C84.1201 175.613 83.7322 175.454 83.2323 175.454C82.8789 175.454 82.5599 175.535 82.2755 175.699C81.9996 175.863 81.7798 176.109 81.6161 176.436C81.4523 176.755 81.3704 177.152 81.3704 177.626C81.3704 178.117 81.4609 178.522 81.6419 178.841C81.8316 179.16 82.0901 179.401 82.4177 179.565C82.7539 179.729 83.1418 179.811 83.5814 179.811C83.9175 179.811 84.2279 179.763 84.5123 179.669C84.7968 179.574 85.0812 179.445 85.3657 179.281L85.8699 180.212C85.5337 180.427 85.1545 180.608 84.7321 180.755C84.3097 180.893 83.8615 180.962 83.3874 180.962ZM90.4032 180.962C89.8084 180.962 89.2395 180.867 88.6965 180.677C88.1534 180.479 87.6836 180.246 87.2871 179.979L87.9336 179.035C88.3129 179.285 88.7223 179.483 89.1619 179.63C89.6015 179.768 90.0799 179.837 90.5971 179.837C91.0367 179.837 91.36 179.763 91.5668 179.617C91.7823 179.462 91.8901 179.281 91.8901 179.074C91.8901 178.97 91.8642 178.876 91.8125 178.789C91.7694 178.703 91.6875 178.626 91.5668 178.557C91.4462 178.479 91.2695 178.406 91.0367 178.337C90.804 178.268 90.5023 178.195 90.1317 178.117C89.2869 177.936 88.6663 177.69 88.2698 177.38C87.8733 177.07 87.675 176.678 87.675 176.204C87.675 175.643 87.9164 175.186 88.3991 174.833C88.8904 174.48 89.58 174.303 90.4678 174.303C90.9936 174.303 91.485 174.389 91.9418 174.561C92.4073 174.734 92.7995 174.928 93.1184 175.143L92.4331 176.061C92.1314 175.854 91.7996 175.699 91.4375 175.596C91.0755 175.484 90.7092 175.428 90.3385 175.428C90.0541 175.428 89.8257 175.458 89.6533 175.518C89.4895 175.579 89.3645 175.665 89.2783 175.777C89.2007 175.88 89.1619 175.997 89.1619 176.126C89.1619 176.35 89.2912 176.518 89.5498 176.63C89.8084 176.742 90.2308 176.863 90.8169 176.992C91.4979 177.139 92.0237 177.307 92.3943 177.496C92.765 177.678 93.0193 177.889 93.1572 178.13C93.3037 178.363 93.377 178.652 93.377 178.996C93.377 179.358 93.2606 179.69 93.0279 179.992C92.8038 180.285 92.4719 180.522 92.0323 180.703C91.5927 180.875 91.0497 180.962 90.4032 180.962ZM98.9058 180.962C98.2594 180.962 97.7465 180.85 97.3672 180.625C96.9879 180.393 96.7164 180.074 96.5526 179.669C96.3889 179.264 96.307 178.794 96.307 178.259V175.635H94.6132V174.523L96.3716 174.458L96.5656 172.467H97.7939V174.458H100.69V175.635H97.7939V178.246C97.7939 178.591 97.8413 178.88 97.9361 179.113C98.0309 179.337 98.1861 179.505 98.4016 179.617C98.6171 179.72 98.9015 179.772 99.2549 179.772C99.5308 179.772 99.7807 179.751 100.005 179.707C100.229 179.664 100.444 179.604 100.651 179.526L100.936 180.6C100.651 180.694 100.345 180.776 100.018 180.845C99.6902 180.923 99.3196 180.962 98.9058 180.962ZM101.991 182.772V181.608H108.197V182.772H101.991ZM113.028 180.962C112.364 180.962 111.765 180.832 111.231 180.574C110.705 180.307 110.287 179.927 109.976 179.436C109.675 178.936 109.524 178.337 109.524 177.639C109.524 176.932 109.688 176.333 110.015 175.842C110.351 175.342 110.795 174.962 111.347 174.704C111.899 174.436 112.493 174.303 113.131 174.303C113.648 174.303 114.105 174.389 114.502 174.561C114.898 174.725 115.226 174.936 115.484 175.195L114.773 176.126C114.523 175.928 114.269 175.777 114.011 175.673C113.761 175.57 113.493 175.518 113.209 175.518C112.786 175.518 112.412 175.609 112.084 175.79C111.765 175.962 111.515 176.208 111.334 176.527C111.153 176.846 111.063 177.216 111.063 177.639C111.063 178.061 111.149 178.432 111.321 178.751C111.502 179.07 111.748 179.315 112.058 179.488C112.377 179.66 112.748 179.746 113.17 179.746C113.532 179.746 113.864 179.677 114.166 179.539C114.467 179.401 114.739 179.238 114.98 179.048L115.601 180.005C115.239 180.315 114.834 180.552 114.385 180.716C113.937 180.88 113.485 180.962 113.028 180.962ZM119.824 180.962C119.264 180.962 118.742 180.832 118.259 180.574C117.777 180.307 117.384 179.927 117.083 179.436C116.781 178.936 116.63 178.337 116.63 177.639C116.63 176.932 116.781 176.333 117.083 175.842C117.384 175.342 117.777 174.962 118.259 174.704C118.742 174.436 119.264 174.303 119.824 174.303C120.384 174.303 120.906 174.436 121.388 174.704C121.871 174.962 122.263 175.342 122.565 175.842C122.867 176.333 123.017 176.932 123.017 177.639C123.017 178.337 122.867 178.936 122.565 179.436C122.263 179.927 121.871 180.307 121.388 180.574C120.906 180.832 120.384 180.962 119.824 180.962ZM119.824 179.746C120.169 179.746 120.466 179.66 120.716 179.488C120.966 179.315 121.156 179.07 121.285 178.751C121.414 178.432 121.479 178.061 121.479 177.639C121.479 177.216 121.414 176.846 121.285 176.527C121.156 176.208 120.966 175.962 120.716 175.79C120.466 175.609 120.169 175.518 119.824 175.518C119.479 175.518 119.182 175.609 118.932 175.79C118.69 175.962 118.501 176.208 118.363 176.527C118.233 176.846 118.169 177.216 118.169 177.639C118.169 178.061 118.233 178.432 118.363 178.751C118.501 179.07 118.69 179.315 118.932 179.488C119.182 179.66 119.479 179.746 119.824 179.746ZM126.374 180.806L123.84 174.458H125.34L126.568 177.755C126.68 178.065 126.788 178.38 126.891 178.699C127.003 179.018 127.107 179.341 127.202 179.669H127.253C127.357 179.341 127.46 179.018 127.564 178.699C127.667 178.38 127.775 178.065 127.887 177.755L129.115 174.458H130.537L128.068 180.806H126.374ZM134.941 180.962C134.295 180.962 133.709 180.832 133.183 180.574C132.657 180.307 132.239 179.927 131.929 179.436C131.618 178.936 131.463 178.333 131.463 177.626C131.463 176.936 131.618 176.346 131.929 175.854C132.239 175.354 132.644 174.971 133.144 174.704C133.644 174.436 134.179 174.303 134.747 174.303C135.377 174.303 135.907 174.432 136.338 174.691C136.777 174.949 137.109 175.307 137.333 175.764C137.566 176.212 137.682 176.729 137.682 177.315C137.682 177.462 137.674 177.604 137.657 177.742C137.648 177.871 137.635 177.979 137.618 178.065H132.536V177.005H136.661L136.377 177.341C136.377 176.712 136.234 176.242 135.95 175.932C135.674 175.613 135.286 175.454 134.786 175.454C134.433 175.454 134.114 175.535 133.829 175.699C133.554 175.863 133.334 176.109 133.17 176.436C133.006 176.755 132.924 177.152 132.924 177.626C132.924 178.117 133.015 178.522 133.196 178.841C133.386 179.16 133.644 179.401 133.972 179.565C134.308 179.729 134.696 179.811 135.135 179.811C135.472 179.811 135.782 179.763 136.066 179.669C136.351 179.574 136.635 179.445 136.92 179.281L137.424 180.212C137.088 180.427 136.708 180.608 136.286 180.755C135.864 180.893 135.415 180.962 134.941 180.962ZM139.72 180.806V174.458H140.949L141.078 175.893H141.117C141.436 175.376 141.828 174.984 142.293 174.717C142.767 174.441 143.276 174.303 143.819 174.303C144.078 174.303 144.302 174.324 144.491 174.368C144.681 174.411 144.866 174.475 145.047 174.561L144.737 175.816C144.53 175.747 144.345 175.699 144.181 175.673C144.026 175.639 143.828 175.622 143.586 175.622C143.155 175.622 142.733 175.747 142.319 175.997C141.914 176.247 141.548 176.682 141.22 177.303V180.806H139.72ZM148.443 180.962C148.029 180.962 147.663 180.884 147.344 180.729C147.025 180.565 146.775 180.345 146.594 180.069C146.413 179.794 146.322 179.47 146.322 179.1C146.322 178.393 146.658 177.854 147.331 177.484C148.012 177.104 149.137 176.859 150.705 176.747C150.688 176.514 150.624 176.303 150.512 176.113C150.408 175.923 150.249 175.777 150.033 175.673C149.818 175.561 149.537 175.505 149.193 175.505C148.951 175.505 148.714 175.535 148.482 175.596C148.249 175.656 148.016 175.738 147.783 175.842C147.559 175.945 147.335 176.057 147.111 176.178L146.568 175.182C146.827 175.027 147.111 174.885 147.421 174.755C147.732 174.617 148.059 174.51 148.404 174.432C148.749 174.346 149.102 174.303 149.464 174.303C150.059 174.303 150.555 174.411 150.951 174.626C151.356 174.833 151.662 175.143 151.869 175.557C152.085 175.962 152.192 176.458 152.192 177.044V180.806H150.977L150.861 180.018H150.822C150.486 180.276 150.111 180.5 149.697 180.69C149.292 180.871 148.874 180.962 148.443 180.962ZM148.895 179.798C149.214 179.798 149.52 179.729 149.813 179.591C150.115 179.445 150.412 179.255 150.705 179.022V177.678C149.947 177.729 149.352 177.815 148.921 177.936C148.49 178.048 148.188 178.195 148.016 178.376C147.844 178.557 147.758 178.759 147.758 178.983C147.758 179.173 147.809 179.328 147.913 179.449C148.016 179.57 148.15 179.66 148.313 179.72C148.486 179.772 148.68 179.798 148.895 179.798ZM156.467 183.612C155.881 183.612 155.372 183.548 154.941 183.418C154.51 183.298 154.174 183.112 153.933 182.862C153.691 182.612 153.571 182.298 153.571 181.918C153.571 181.668 153.657 181.427 153.829 181.194C154.002 180.962 154.252 180.759 154.579 180.587V180.535C154.416 180.432 154.265 180.298 154.127 180.134C153.997 179.962 153.933 179.742 153.933 179.475C153.933 179.268 154.002 179.057 154.14 178.841C154.278 178.626 154.463 178.44 154.696 178.285V178.233C154.472 178.07 154.278 177.85 154.114 177.574C153.959 177.29 153.881 176.962 153.881 176.591C153.881 176.1 154.002 175.686 154.243 175.35C154.484 175.005 154.803 174.747 155.2 174.574C155.596 174.393 156.027 174.303 156.493 174.303C156.872 174.303 157.204 174.355 157.488 174.458H160.087V175.596H158.626C158.738 175.717 158.833 175.872 158.911 176.061C158.997 176.242 159.04 176.436 159.04 176.643C159.04 177.109 158.924 177.505 158.691 177.833C158.467 178.152 158.165 178.393 157.786 178.557C157.407 178.721 156.976 178.802 156.493 178.802C156.346 178.802 156.187 178.789 156.015 178.764C155.851 178.729 155.687 178.682 155.523 178.621C155.394 178.699 155.295 178.785 155.226 178.88C155.165 178.975 155.135 179.087 155.135 179.216C155.135 179.414 155.234 179.565 155.433 179.669C155.64 179.763 155.941 179.811 156.338 179.811H157.631C158.458 179.811 159.079 179.932 159.493 180.173C159.915 180.406 160.126 180.802 160.126 181.362C160.126 181.776 159.975 182.155 159.674 182.5C159.381 182.845 158.958 183.117 158.406 183.315C157.863 183.513 157.217 183.612 156.467 183.612ZM156.493 177.859C156.717 177.859 156.92 177.811 157.101 177.716C157.282 177.613 157.424 177.466 157.527 177.277C157.639 177.087 157.695 176.859 157.695 176.591C157.695 176.333 157.639 176.113 157.527 175.932C157.424 175.742 157.282 175.596 157.101 175.492C156.92 175.389 156.717 175.337 156.493 175.337C156.277 175.337 156.079 175.389 155.898 175.492C155.717 175.596 155.571 175.742 155.459 175.932C155.346 176.113 155.29 176.333 155.29 176.591C155.29 176.859 155.346 177.087 155.459 177.277C155.571 177.466 155.717 177.613 155.898 177.716C156.079 177.811 156.277 177.859 156.493 177.859ZM156.648 182.63C157.062 182.63 157.42 182.582 157.721 182.487C158.032 182.393 158.269 182.268 158.432 182.112C158.605 181.957 158.691 181.789 158.691 181.608C158.691 181.358 158.583 181.19 158.368 181.104C158.161 181.026 157.842 180.988 157.411 180.988H156.402C156.196 180.988 156.015 180.979 155.859 180.962C155.704 180.944 155.562 180.923 155.433 180.897C155.209 181.026 155.049 181.16 154.954 181.298C154.859 181.436 154.812 181.578 154.812 181.724C154.812 182.009 154.972 182.229 155.29 182.384C155.609 182.548 156.062 182.63 156.648 182.63ZM164.401 180.962C163.754 180.962 163.168 180.832 162.642 180.574C162.117 180.307 161.699 179.927 161.388 179.436C161.078 178.936 160.923 178.333 160.923 177.626C160.923 176.936 161.078 176.346 161.388 175.854C161.699 175.354 162.104 174.971 162.604 174.704C163.104 174.436 163.638 174.303 164.207 174.303C164.836 174.303 165.366 174.432 165.797 174.691C166.237 174.949 166.569 175.307 166.793 175.764C167.026 176.212 167.142 176.729 167.142 177.315C167.142 177.462 167.133 177.604 167.116 177.742C167.107 177.871 167.094 177.979 167.077 178.065H161.996V177.005H166.12L165.836 177.341C165.836 176.712 165.694 176.242 165.409 175.932C165.133 175.613 164.746 175.454 164.246 175.454C163.892 175.454 163.573 175.535 163.289 175.699C163.013 175.863 162.793 176.109 162.629 176.436C162.466 176.755 162.384 177.152 162.384 177.626C162.384 178.117 162.474 178.522 162.655 178.841C162.845 179.16 163.104 179.401 163.431 179.565C163.767 179.729 164.155 179.811 164.595 179.811C164.931 179.811 165.241 179.763 165.526 179.669C165.81 179.574 166.095 179.445 166.379 179.281L166.883 180.212C166.547 180.427 166.168 180.608 165.745 180.755C165.323 180.893 164.875 180.962 164.401 180.962ZM169.296 176.578L168.908 173.592L168.869 171.937H170.68L170.641 173.592L170.253 176.578H169.296ZM172.503 176.578L172.115 173.592L172.076 171.937H173.886L173.847 173.592L173.459 176.578H172.503ZM178.743 176.566C178.381 176.566 178.075 176.441 177.825 176.191C177.583 175.941 177.463 175.63 177.463 175.26C177.463 174.88 177.583 174.57 177.825 174.329C178.075 174.079 178.381 173.954 178.743 173.954C179.113 173.954 179.419 174.079 179.661 174.329C179.902 174.57 180.023 174.88 180.023 175.26C180.023 175.63 179.902 175.941 179.661 176.191C179.419 176.441 179.113 176.566 178.743 176.566ZM178.743 180.962C178.381 180.962 178.075 180.837 177.825 180.587C177.583 180.337 177.463 180.026 177.463 179.656C177.463 179.276 177.583 178.966 177.825 178.725C178.075 178.475 178.381 178.35 178.743 178.35C179.113 178.35 179.419 178.475 179.661 178.725C179.902 178.966 180.023 179.276 180.023 179.656C180.023 180.026 179.902 180.337 179.661 180.587C179.419 180.837 179.113 180.962 178.743 180.962Z" fill="#D09A66"/>
<rect x="194.692" y="171.806" width="81.1163" height="8.44961" fill="#B8E9FF" fill-opacity="0.6"/>
<path d="M66.1882 194.578L65.8003 191.592L65.7615 189.937H67.5716L67.5328 191.592L67.1449 194.578H66.1882ZM69.3947 194.578L69.0068 191.592L68.968 189.937H70.7782L70.7394 191.592L70.3515 194.578H69.3947ZM75.6735 198.962C75.0787 198.962 74.5098 198.867 73.9668 198.677C73.4237 198.479 72.9539 198.246 72.5574 197.979L73.2039 197.035C73.5832 197.285 73.9926 197.483 74.4322 197.63C74.8718 197.768 75.3502 197.837 75.8674 197.837C76.307 197.837 76.6303 197.763 76.8371 197.617C77.0526 197.462 77.1604 197.281 77.1604 197.074C77.1604 196.97 77.1345 196.876 77.0828 196.789C77.0397 196.703 76.9578 196.626 76.8371 196.557C76.7165 196.479 76.5398 196.406 76.307 196.337C76.0743 196.268 75.7726 196.195 75.4019 196.117C74.5572 195.936 73.9366 195.69 73.5401 195.38C73.1436 195.07 72.9453 194.678 72.9453 194.204C72.9453 193.643 73.1867 193.186 73.6694 192.833C74.1607 192.48 74.8503 192.303 75.7381 192.303C76.2639 192.303 76.7553 192.389 77.2121 192.561C77.6776 192.734 78.0698 192.928 78.3887 193.143L77.7034 194.061C77.4017 193.854 77.0699 193.699 76.7078 193.596C76.3458 193.484 75.9795 193.428 75.6088 193.428C75.3244 193.428 75.0959 193.458 74.9235 193.518C74.7598 193.579 74.6348 193.665 74.5486 193.777C74.471 193.88 74.4322 193.997 74.4322 194.126C74.4322 194.35 74.5615 194.518 74.8201 194.63C75.0787 194.742 75.5011 194.863 76.0872 194.992C76.7682 195.139 77.294 195.307 77.6646 195.496C78.0353 195.678 78.2896 195.889 78.4275 196.13C78.574 196.363 78.6473 196.652 78.6473 196.996C78.6473 197.358 78.5309 197.69 78.2982 197.992C78.0741 198.285 77.7422 198.522 77.3026 198.703C76.863 198.875 76.32 198.962 75.6735 198.962ZM83.3745 198.962C83.0728 198.962 82.7582 198.888 82.4306 198.742C82.1117 198.595 81.81 198.384 81.5256 198.108H81.4868L81.3575 198.806H80.1809V189.678H81.6807V192.031L81.6161 193.143H81.6548C81.9221 192.885 82.2238 192.682 82.5599 192.536C82.9047 192.38 83.2495 192.303 83.5943 192.303C84.146 192.303 84.6114 192.436 84.9907 192.704C85.3786 192.971 85.676 193.346 85.8828 193.829C86.0897 194.303 86.1932 194.867 86.1932 195.522C86.1932 196.246 86.0596 196.867 85.7923 197.384C85.5251 197.893 85.176 198.285 84.745 198.561C84.3227 198.828 83.8658 198.962 83.3745 198.962ZM83.0771 197.733C83.3702 197.733 83.6374 197.651 83.8787 197.488C84.1201 197.324 84.3097 197.083 84.4477 196.764C84.5856 196.436 84.6545 196.031 84.6545 195.548C84.6545 195.126 84.6028 194.764 84.4994 194.462C84.3959 194.16 84.2365 193.932 84.021 193.777C83.8141 193.613 83.534 193.531 83.1805 193.531C82.9392 193.531 82.6935 193.592 82.4436 193.712C82.1936 193.833 81.9393 194.027 81.6807 194.294V197.151C81.9134 197.358 82.1548 197.509 82.4048 197.604C82.6547 197.69 82.8789 197.733 83.0771 197.733ZM90.3644 198.962C89.8041 198.962 89.2826 198.832 88.7999 198.574C88.3172 198.307 87.925 197.927 87.6233 197.436C87.3216 196.936 87.1708 196.337 87.1708 195.639C87.1708 194.932 87.3216 194.333 87.6233 193.842C87.925 193.342 88.3172 192.962 88.7999 192.704C89.2826 192.436 89.8041 192.303 90.3644 192.303C90.9247 192.303 91.4462 192.436 91.9289 192.704C92.4116 192.962 92.8038 193.342 93.1055 193.842C93.4072 194.333 93.558 194.932 93.558 195.639C93.558 196.337 93.4072 196.936 93.1055 197.436C92.8038 197.927 92.4116 198.307 91.9289 198.574C91.4462 198.832 90.9247 198.962 90.3644 198.962ZM90.3644 197.746C90.7092 197.746 91.0066 197.66 91.2565 197.488C91.5065 197.315 91.6961 197.07 91.8254 196.751C91.9547 196.432 92.0194 196.061 92.0194 195.639C92.0194 195.216 91.9547 194.846 91.8254 194.527C91.6961 194.208 91.5065 193.962 91.2565 193.79C91.0066 193.609 90.7092 193.518 90.3644 193.518C90.0196 193.518 89.7222 193.609 89.4722 193.79C89.2309 193.962 89.0413 194.208 88.9033 194.527C88.774 194.846 88.7094 195.216 88.7094 195.639C88.7094 196.061 88.774 196.432 88.9033 196.751C89.0413 197.07 89.2309 197.315 89.4722 197.488C89.7222 197.66 90.0196 197.746 90.3644 197.746ZM94.4451 198.806V192.458H95.5958L95.7122 193.26H95.751C95.8889 192.984 96.0656 192.755 96.2811 192.574C96.4966 192.393 96.7897 192.303 97.1603 192.303C97.4534 192.303 97.6991 192.393 97.8973 192.574C98.0956 192.747 98.2335 193.01 98.3111 193.363C98.4576 193.053 98.6429 192.799 98.867 192.6C99.0912 192.402 99.3885 192.303 99.7592 192.303C100.207 192.303 100.552 192.48 100.794 192.833C101.044 193.178 101.169 193.669 101.169 194.307V198.806H99.7333V194.41C99.7333 193.85 99.5652 193.57 99.2291 193.57C99.0567 193.57 98.9101 193.635 98.7895 193.764C98.6774 193.893 98.5567 194.096 98.4274 194.372V198.806H97.1862V194.41C97.1862 194.135 97.1474 193.928 97.0698 193.79C96.9922 193.643 96.863 193.57 96.6819 193.57C96.5182 193.57 96.3759 193.635 96.2553 193.764C96.1346 193.893 96.0139 194.096 95.8932 194.372V198.806H94.4451ZM103.012 194.578L102.625 191.592L102.586 189.937H104.396L104.357 191.592L103.969 194.578H103.012ZM106.219 194.578L105.831 191.592L105.792 189.937H107.602L107.564 191.592L107.176 194.578H106.219ZM112.459 194.566C112.097 194.566 111.791 194.441 111.541 194.191C111.3 193.941 111.179 193.63 111.179 193.26C111.179 192.88 111.3 192.57 111.541 192.329C111.791 192.079 112.097 191.954 112.459 191.954C112.83 191.954 113.136 192.079 113.377 192.329C113.618 192.57 113.739 192.88 113.739 193.26C113.739 193.63 113.618 193.941 113.377 194.191C113.136 194.441 112.83 194.566 112.459 194.566ZM112.459 198.962C112.097 198.962 111.791 198.837 111.541 198.587C111.3 198.337 111.179 198.026 111.179 197.656C111.179 197.276 111.3 196.966 111.541 196.725C111.791 196.475 112.097 196.35 112.459 196.35C112.83 196.35 113.136 196.475 113.377 196.725C113.618 196.966 113.739 197.276 113.739 197.656C113.739 198.026 113.618 198.337 113.377 198.587C113.136 198.837 112.83 198.962 112.459 198.962Z" fill="#D09A66"/>
<rect x="128.785" y="189.806" width="147.023" height="8.44961" fill="#B8E9FF" fill-opacity="0.6"/>
<path d="M66.1882 212.578L65.8003 209.592L65.7615 207.937H67.5716L67.5328 209.592L67.1449 212.578H66.1882ZM69.3947 212.578L69.0068 209.592L68.968 207.937H70.7782L70.7394 209.592L70.3515 212.578H69.3947ZM74.8201 216.806L72.2859 210.458H73.7857L75.0141 213.755C75.1261 214.065 75.2339 214.38 75.3373 214.699C75.4494 215.018 75.5528 215.341 75.6476 215.669H75.6993C75.8028 215.341 75.9062 215.018 76.0096 214.699C76.1131 214.38 76.2208 214.065 76.3329 213.755L77.5612 210.458H78.9835L76.5139 216.806H74.8201ZM82.1462 216.962C81.4049 216.962 80.8661 216.738 80.53 216.289C80.1938 215.841 80.0257 215.208 80.0257 214.389V210.458H81.5126V214.195C81.5126 214.703 81.5988 215.078 81.7712 215.32C81.9522 215.561 82.2625 215.682 82.7022 215.682C82.9952 215.682 83.2624 215.613 83.5038 215.475C83.7538 215.328 84.0167 215.083 84.2925 214.738V210.458H85.7794V216.806H84.564L84.4477 215.798H84.3959C84.0942 216.143 83.7624 216.423 83.4004 216.638C83.0383 216.854 82.6203 216.962 82.1462 216.962ZM91.6574 216.962C90.9247 216.962 90.3644 216.746 89.9765 216.315C89.5972 215.876 89.4076 215.268 89.4076 214.492V208.855H87.3388V207.678H90.8945V214.57C90.8945 215.001 91.0022 215.307 91.2177 215.488C91.4419 215.66 91.7134 215.746 92.0323 215.746C92.1961 215.746 92.3642 215.729 92.5366 215.695C92.709 215.651 92.9029 215.587 93.1184 215.501L93.4675 216.6C93.1658 216.703 92.8814 216.789 92.6141 216.858C92.3556 216.927 92.0366 216.962 91.6574 216.962ZM94.9106 216.806V210.458H96.1389L96.2553 211.415H96.307C96.6087 211.105 96.9405 210.842 97.3026 210.626C97.6732 210.411 98.1042 210.303 98.5955 210.303C99.3282 210.303 99.8669 210.527 100.212 210.975C100.557 211.423 100.729 212.057 100.729 212.876V216.806H99.2291V213.07C99.2291 212.561 99.1386 212.186 98.9576 211.945C98.7765 211.704 98.4705 211.583 98.0396 211.583C97.7292 211.583 97.4534 211.656 97.2121 211.803C96.9707 211.949 96.7035 212.173 96.4104 212.475V216.806H94.9106ZM105.482 216.962C104.835 216.962 104.249 216.832 103.724 216.574C103.198 216.307 102.78 215.927 102.469 215.436C102.159 214.936 102.004 214.333 102.004 213.626C102.004 212.936 102.159 212.346 102.469 211.854C102.78 211.354 103.185 210.971 103.685 210.704C104.185 210.436 104.719 210.303 105.288 210.303C105.917 210.303 106.447 210.432 106.878 210.691C107.318 210.949 107.65 211.307 107.874 211.764C108.107 212.212 108.223 212.729 108.223 213.315C108.223 213.462 108.214 213.604 108.197 213.742C108.189 213.871 108.176 213.979 108.158 214.065H103.077V213.005H107.202L106.917 213.341C106.917 212.712 106.775 212.242 106.49 211.932C106.215 211.613 105.827 211.454 105.327 211.454C104.973 211.454 104.654 211.535 104.37 211.699C104.094 211.863 103.874 212.109 103.711 212.436C103.547 212.755 103.465 213.152 103.465 213.626C103.465 214.117 103.555 214.522 103.736 214.841C103.926 215.16 104.185 215.401 104.512 215.565C104.848 215.729 105.236 215.811 105.676 215.811C106.012 215.811 106.322 215.763 106.607 215.669C106.891 215.574 107.176 215.445 107.46 215.281L107.964 216.212C107.628 216.427 107.249 216.608 106.827 216.755C106.404 216.893 105.956 216.962 105.482 216.962ZM110.261 216.806V210.458H111.489L111.619 211.893H111.657C111.976 211.376 112.368 210.984 112.834 210.717C113.308 210.441 113.817 210.303 114.36 210.303C114.618 210.303 114.842 210.324 115.032 210.368C115.222 210.411 115.407 210.475 115.588 210.561L115.278 211.816C115.071 211.747 114.885 211.699 114.722 211.673C114.566 211.639 114.368 211.622 114.127 211.622C113.696 211.622 113.274 211.747 112.86 211.997C112.455 212.247 112.088 212.682 111.761 213.303V216.806H110.261ZM118.983 216.962C118.57 216.962 118.203 216.884 117.884 216.729C117.565 216.565 117.315 216.345 117.134 216.069C116.953 215.794 116.863 215.47 116.863 215.1C116.863 214.393 117.199 213.854 117.871 213.484C118.552 213.104 119.677 212.859 121.246 212.747C121.229 212.514 121.164 212.303 121.052 212.113C120.949 211.923 120.789 211.777 120.574 211.673C120.358 211.561 120.078 211.505 119.733 211.505C119.492 211.505 119.255 211.535 119.022 211.596C118.789 211.656 118.557 211.738 118.324 211.842C118.1 211.945 117.876 212.057 117.652 212.178L117.109 211.182C117.367 211.027 117.652 210.885 117.962 210.755C118.272 210.617 118.6 210.51 118.945 210.432C119.289 210.346 119.643 210.303 120.005 210.303C120.6 210.303 121.095 210.411 121.492 210.626C121.897 210.833 122.203 211.143 122.41 211.557C122.625 211.962 122.733 212.458 122.733 213.044V216.806H121.518L121.401 216.018H121.362C121.026 216.276 120.651 216.5 120.238 216.69C119.832 216.871 119.414 216.962 118.983 216.962ZM119.436 215.798C119.755 215.798 120.061 215.729 120.354 215.591C120.656 215.445 120.953 215.255 121.246 215.022V213.678C120.488 213.729 119.893 213.815 119.462 213.936C119.031 214.048 118.729 214.195 118.557 214.376C118.384 214.557 118.298 214.759 118.298 214.983C118.298 215.173 118.35 215.328 118.453 215.449C118.557 215.57 118.69 215.66 118.854 215.72C119.026 215.772 119.22 215.798 119.436 215.798ZM127.564 216.962C127.262 216.962 126.947 216.888 126.62 216.742C126.301 216.595 125.999 216.384 125.715 216.108H125.676L125.547 216.806H124.37V207.678H125.87V210.031L125.805 211.143H125.844C126.111 210.885 126.413 210.682 126.749 210.536C127.094 210.38 127.439 210.303 127.783 210.303C128.335 210.303 128.801 210.436 129.18 210.704C129.568 210.971 129.865 211.346 130.072 211.829C130.279 212.303 130.382 212.867 130.382 213.522C130.382 214.246 130.249 214.867 129.981 215.384C129.714 215.893 129.365 216.285 128.934 216.561C128.512 216.828 128.055 216.962 127.564 216.962ZM127.266 215.733C127.559 215.733 127.827 215.651 128.068 215.488C128.309 215.324 128.499 215.083 128.637 214.764C128.775 214.436 128.844 214.031 128.844 213.548C128.844 213.126 128.792 212.764 128.688 212.462C128.585 212.16 128.426 211.932 128.21 211.777C128.003 211.613 127.723 211.531 127.37 211.531C127.128 211.531 126.883 211.592 126.633 211.712C126.383 211.833 126.128 212.027 125.87 212.294V215.151C126.103 215.358 126.344 215.509 126.594 215.604C126.844 215.69 127.068 215.733 127.266 215.733ZM134.515 216.806V211.635H131.761V210.458H136.002V216.806H134.515ZM135.148 209.294C134.847 209.294 134.592 209.204 134.385 209.023C134.187 208.842 134.088 208.6 134.088 208.299C134.088 207.997 134.187 207.756 134.385 207.575C134.592 207.385 134.847 207.29 135.148 207.29C135.459 207.29 135.713 207.385 135.911 207.575C136.109 207.756 136.208 207.997 136.208 208.299C136.208 208.6 136.109 208.842 135.911 209.023C135.713 209.204 135.459 209.294 135.148 209.294ZM143.211 216.962C142.479 216.962 141.918 216.746 141.53 216.315C141.151 215.876 140.962 215.268 140.962 214.492V208.855H138.893V207.678H142.448V214.57C142.448 215.001 142.556 215.307 142.772 215.488C142.996 215.66 143.267 215.746 143.586 215.746C143.75 215.746 143.918 215.729 144.091 215.695C144.263 215.651 144.457 215.587 144.672 215.501L145.021 216.6C144.72 216.703 144.435 216.789 144.168 216.858C143.91 216.927 143.591 216.962 143.211 216.962ZM149.244 216.806V211.635H146.49V210.458H150.731V216.806H149.244ZM149.878 209.294C149.576 209.294 149.322 209.204 149.115 209.023C148.917 208.842 148.818 208.6 148.818 208.299C148.818 207.997 148.917 207.756 149.115 207.575C149.322 207.385 149.576 207.29 149.878 207.29C150.188 207.29 150.443 207.385 150.641 207.575C150.839 207.756 150.938 207.997 150.938 208.299C150.938 208.6 150.839 208.842 150.641 209.023C150.443 209.204 150.188 209.294 149.878 209.294ZM157.825 216.962C157.178 216.962 156.665 216.85 156.286 216.625C155.907 216.393 155.635 216.074 155.471 215.669C155.308 215.264 155.226 214.794 155.226 214.259V211.635H153.532V210.523L155.29 210.458L155.484 208.467H156.713V210.458H159.609V211.635H156.713V214.246C156.713 214.591 156.76 214.88 156.855 215.113C156.95 215.337 157.105 215.505 157.32 215.617C157.536 215.72 157.82 215.772 158.174 215.772C158.45 215.772 158.7 215.751 158.924 215.707C159.148 215.664 159.363 215.604 159.57 215.526L159.855 216.6C159.57 216.694 159.264 216.776 158.937 216.845C158.609 216.923 158.238 216.962 157.825 216.962ZM163.974 216.806V211.635H161.22V210.458H165.461V216.806H163.974ZM164.608 209.294C164.306 209.294 164.052 209.204 163.845 209.023C163.647 208.842 163.547 208.6 163.547 208.299C163.547 207.997 163.647 207.756 163.845 207.575C164.052 207.385 164.306 207.29 164.608 207.29C164.918 207.29 165.172 207.385 165.371 207.575C165.569 207.756 165.668 207.997 165.668 208.299C165.668 208.6 165.569 208.842 165.371 209.023C165.172 209.204 164.918 209.294 164.608 209.294ZM171.766 216.962C171.119 216.962 170.533 216.832 170.007 216.574C169.481 216.307 169.063 215.927 168.753 215.436C168.443 214.936 168.288 214.333 168.288 213.626C168.288 212.936 168.443 212.346 168.753 211.854C169.063 211.354 169.468 210.971 169.968 210.704C170.468 210.436 171.003 210.303 171.572 210.303C172.201 210.303 172.731 210.432 173.162 210.691C173.602 210.949 173.934 211.307 174.158 211.764C174.39 212.212 174.507 212.729 174.507 213.315C174.507 213.462 174.498 213.604 174.481 213.742C174.472 213.871 174.459 213.979 174.442 214.065H169.361V213.005H173.485L173.201 213.341C173.201 212.712 173.059 212.242 172.774 211.932C172.498 211.613 172.11 211.454 171.611 211.454C171.257 211.454 170.938 211.535 170.654 211.699C170.378 211.863 170.158 212.109 169.994 212.436C169.831 212.755 169.749 213.152 169.749 213.626C169.749 214.117 169.839 214.522 170.02 214.841C170.21 215.16 170.468 215.401 170.796 215.565C171.132 215.729 171.52 215.811 171.96 215.811C172.296 215.811 172.606 215.763 172.891 215.669C173.175 215.574 173.459 215.445 173.744 215.281L174.248 216.212C173.912 216.427 173.533 216.608 173.11 216.755C172.688 216.893 172.24 216.962 171.766 216.962ZM178.781 216.962C178.187 216.962 177.618 216.867 177.075 216.677C176.532 216.479 176.062 216.246 175.665 215.979L176.312 215.035C176.691 215.285 177.101 215.483 177.54 215.63C177.98 215.768 178.458 215.837 178.975 215.837C179.415 215.837 179.738 215.763 179.945 215.617C180.161 215.462 180.268 215.281 180.268 215.074C180.268 214.97 180.242 214.876 180.191 214.789C180.148 214.703 180.066 214.626 179.945 214.557C179.824 214.479 179.648 214.406 179.415 214.337C179.182 214.268 178.881 214.195 178.51 214.117C177.665 213.936 177.045 213.69 176.648 213.38C176.252 213.07 176.053 212.678 176.053 212.204C176.053 211.643 176.295 211.186 176.777 210.833C177.269 210.48 177.958 210.303 178.846 210.303C179.372 210.303 179.863 210.389 180.32 210.561C180.786 210.734 181.178 210.928 181.497 211.143L180.811 212.061C180.51 211.854 180.178 211.699 179.816 211.596C179.454 211.484 179.087 211.428 178.717 211.428C178.432 211.428 178.204 211.458 178.031 211.518C177.868 211.579 177.743 211.665 177.657 211.777C177.579 211.88 177.54 211.997 177.54 212.126C177.54 212.35 177.669 212.518 177.928 212.63C178.187 212.742 178.609 212.863 179.195 212.992C179.876 213.139 180.402 213.307 180.773 213.496C181.143 213.678 181.398 213.889 181.535 214.13C181.682 214.363 181.755 214.652 181.755 214.996C181.755 215.358 181.639 215.69 181.406 215.992C181.182 216.285 180.85 216.522 180.411 216.703C179.971 216.875 179.428 216.962 178.781 216.962ZM184.026 212.578L183.638 209.592L183.599 207.937H185.409L185.37 209.592L184.983 212.578H184.026ZM187.232 212.578L186.844 209.592L186.806 207.937H188.616L188.577 209.592L188.189 212.578H187.232ZM193.472 212.566C193.11 212.566 192.804 212.441 192.554 212.191C192.313 211.941 192.192 211.63 192.192 211.26C192.192 210.88 192.313 210.57 192.554 210.329C192.804 210.079 193.11 209.954 193.472 209.954C193.843 209.954 194.149 210.079 194.39 210.329C194.632 210.57 194.752 210.88 194.752 211.26C194.752 211.63 194.632 211.941 194.39 212.191C194.149 212.441 193.843 212.566 193.472 212.566ZM193.472 216.962C193.11 216.962 192.804 216.837 192.554 216.587C192.313 216.337 192.192 216.026 192.192 215.656C192.192 215.276 192.313 214.966 192.554 214.725C192.804 214.475 193.11 214.35 193.472 214.35C193.843 214.35 194.149 214.475 194.39 214.725C194.632 214.966 194.752 215.276 194.752 215.656C194.752 216.026 194.632 216.337 194.39 216.587C194.149 216.837 193.843 216.962 193.472 216.962Z" fill="#D09A66"/>
<rect x="209.397" y="207.806" width="66.4109" height="8.44961" fill="#B8E9FF" fill-opacity="0.6"/>
<path d="M66.1882 230.578L65.8003 227.592L65.7615 225.937H67.5716L67.5328 227.592L67.1449 230.578H66.1882ZM69.3947 230.578L69.0068 227.592L68.968 225.937H70.7782L70.7394 227.592L70.3515 230.578H69.3947ZM76.2036 234.962C75.5399 234.962 74.9408 234.832 74.4064 234.574C73.8806 234.307 73.4625 233.927 73.1522 233.436C72.8505 232.936 72.6996 232.337 72.6996 231.639C72.6996 230.932 72.8634 230.333 73.191 229.842C73.5271 229.342 73.9711 228.962 74.5227 228.704C75.0744 228.436 75.6692 228.303 76.307 228.303C76.8242 228.303 77.2811 228.389 77.6776 228.561C78.0741 228.725 78.4016 228.936 78.6602 229.195L77.9491 230.126C77.6991 229.928 77.4448 229.777 77.1862 229.673C76.9363 229.57 76.6691 229.518 76.3846 229.518C75.9622 229.518 75.5873 229.609 75.2597 229.79C74.9408 229.962 74.6908 230.208 74.5098 230.527C74.3288 230.846 74.2383 231.216 74.2383 231.639C74.2383 232.061 74.3245 232.432 74.4969 232.751C74.6779 233.07 74.9235 233.315 75.2339 233.488C75.5528 233.66 75.9234 233.746 76.3458 233.746C76.7078 233.746 77.0397 233.677 77.3414 233.539C77.6431 233.401 77.9146 233.238 78.156 233.048L78.7766 234.005C78.4146 234.315 78.0094 234.552 77.5612 234.716C77.113 234.88 76.6604 234.962 76.2036 234.962ZM82.9995 234.962C82.4392 234.962 81.9178 234.832 81.435 234.574C80.9523 234.307 80.5601 233.927 80.2584 233.436C79.9568 232.936 79.8059 232.337 79.8059 231.639C79.8059 230.932 79.9568 230.333 80.2584 229.842C80.5601 229.342 80.9523 228.962 81.435 228.704C81.9178 228.436 82.4392 228.303 82.9995 228.303C83.5598 228.303 84.0813 228.436 84.564 228.704C85.0467 228.962 85.4389 229.342 85.7406 229.842C86.0423 230.333 86.1932 230.932 86.1932 231.639C86.1932 232.337 86.0423 232.936 85.7406 233.436C85.4389 233.927 85.0467 234.307 84.564 234.574C84.0813 234.832 83.5598 234.962 82.9995 234.962ZM82.9995 233.746C83.3443 233.746 83.6417 233.66 83.8917 233.488C84.1417 233.315 84.3313 233.07 84.4606 232.751C84.5899 232.432 84.6545 232.061 84.6545 231.639C84.6545 231.216 84.5899 230.846 84.4606 230.527C84.3313 230.208 84.1417 229.962 83.8917 229.79C83.6417 229.609 83.3443 229.518 82.9995 229.518C82.6547 229.518 82.3574 229.609 82.1074 229.79C81.866 229.962 81.6764 230.208 81.5385 230.527C81.4092 230.846 81.3445 231.216 81.3445 231.639C81.3445 232.061 81.4092 232.432 81.5385 232.751C81.6764 233.07 81.866 233.315 82.1074 233.488C82.3574 233.66 82.6547 233.746 82.9995 233.746ZM89.886 234.962C89.0757 234.962 88.4206 234.669 87.9207 234.082C87.4207 233.496 87.1708 232.682 87.1708 231.639C87.1708 230.949 87.3044 230.354 87.5716 229.854C87.8388 229.354 88.1879 228.971 88.6189 228.704C89.0499 228.436 89.5024 228.303 89.9765 228.303C90.3385 228.303 90.6575 228.368 90.9333 228.497C91.2177 228.626 91.4806 228.811 91.722 229.053H91.7608L91.6832 227.98V225.678H93.1831V234.806H91.9547L91.8384 234.069H91.7996C91.5582 234.311 91.2695 234.522 90.9333 234.703C90.5971 234.875 90.248 234.962 89.886 234.962ZM90.248 233.733C90.5066 233.733 90.7566 233.673 90.9979 233.552C91.2393 233.423 91.4677 233.229 91.6832 232.97V230.113C91.4591 229.898 91.235 229.747 91.0109 229.66C90.7868 229.574 90.5583 229.531 90.3256 229.531C90.0325 229.531 89.761 229.613 89.511 229.777C89.2697 229.941 89.0757 230.178 88.9292 230.488C88.7827 230.798 88.7094 231.178 88.7094 231.626C88.7094 232.307 88.843 232.828 89.1102 233.19C89.386 233.552 89.7653 233.733 90.248 233.733ZM98.1171 234.962C97.4706 234.962 96.8845 234.832 96.3587 234.574C95.8329 234.307 95.4148 233.927 95.1045 233.436C94.7942 232.936 94.6391 232.333 94.6391 231.626C94.6391 230.936 94.7942 230.346 95.1045 229.854C95.4148 229.354 95.82 228.971 96.3199 228.704C96.8199 228.436 97.3543 228.303 97.9232 228.303C98.5524 228.303 99.0825 228.432 99.5135 228.691C99.9531 228.949 100.285 229.307 100.509 229.764C100.742 230.212 100.858 230.729 100.858 231.315C100.858 231.462 100.85 231.604 100.832 231.742C100.824 231.871 100.811 231.979 100.794 232.065H95.7122V231.005H99.8368L99.5523 231.341C99.5523 230.712 99.4101 230.242 99.1256 229.932C98.8498 229.613 98.4619 229.454 97.962 229.454C97.6086 229.454 97.2896 229.535 97.0052 229.699C96.7293 229.863 96.5095 230.109 96.3458 230.436C96.182 230.755 96.1001 231.152 96.1001 231.626C96.1001 232.117 96.1906 232.522 96.3716 232.841C96.5613 233.16 96.8199 233.401 97.1474 233.565C97.4836 233.729 97.8715 233.811 98.3111 233.811C98.6472 233.811 98.9576 233.763 99.242 233.669C99.5265 233.574 99.8109 233.445 100.095 233.281L100.6 234.212C100.263 234.427 99.8842 234.608 99.4618 234.755C99.0394 234.893 98.5912 234.962 98.1171 234.962ZM105.094 234.962C104.534 234.962 104.012 234.832 103.53 234.574C103.047 234.307 102.655 233.927 102.353 233.436C102.051 232.936 101.9 232.337 101.9 231.639C101.9 230.932 102.051 230.333 102.353 229.842C102.655 229.342 103.047 228.962 103.53 228.704C104.012 228.436 104.534 228.303 105.094 228.303C105.654 228.303 106.176 228.436 106.659 228.704C107.141 228.962 107.533 229.342 107.835 229.842C108.137 230.333 108.288 230.932 108.288 231.639C108.288 232.337 108.137 232.936 107.835 233.436C107.533 233.927 107.141 234.307 106.659 234.574C106.176 234.832 105.654 234.962 105.094 234.962ZM105.094 233.746C105.439 233.746 105.736 233.66 105.986 233.488C106.236 233.315 106.426 233.07 106.555 232.751C106.684 232.432 106.749 232.061 106.749 231.639C106.749 231.216 106.684 230.846 106.555 230.527C106.426 230.208 106.236 229.962 105.986 229.79C105.736 229.609 105.439 229.518 105.094 229.518C104.749 229.518 104.452 229.609 104.202 229.79C103.961 229.962 103.771 230.208 103.633 230.527C103.504 230.846 103.439 231.216 103.439 231.639C103.439 232.061 103.504 232.432 103.633 232.751C103.771 233.07 103.961 233.315 104.202 233.488C104.452 233.66 104.749 233.746 105.094 233.746ZM109.86 234.806L108.658 228.458H110.119L110.688 231.755C110.739 232.065 110.782 232.371 110.817 232.673C110.86 232.966 110.899 233.268 110.933 233.578H110.972C111.015 233.268 111.063 232.962 111.114 232.66C111.175 232.358 111.239 232.057 111.308 231.755L111.89 229.079H113.118L113.687 231.755C113.756 232.065 113.821 232.371 113.881 232.673C113.95 232.966 114.006 233.268 114.049 233.578H114.101C114.144 233.268 114.179 232.966 114.204 232.673C114.239 232.371 114.282 232.065 114.334 231.755L114.877 228.458H116.26L115.097 234.806H113.286L112.756 232.272C112.713 232.022 112.666 231.742 112.614 231.432C112.571 231.122 112.528 230.777 112.485 230.397H112.433C112.39 230.725 112.347 231.04 112.304 231.341C112.269 231.643 112.226 231.953 112.174 232.272L111.657 234.806H109.86ZM117.005 234.806V228.458H118.233L118.35 229.415H118.402C118.703 229.105 119.035 228.842 119.397 228.626C119.768 228.411 120.199 228.303 120.69 228.303C121.423 228.303 121.962 228.527 122.306 228.975C122.651 229.423 122.823 230.057 122.823 230.876V234.806H121.324V231.07C121.324 230.561 121.233 230.186 121.052 229.945C120.871 229.704 120.565 229.583 120.134 229.583C119.824 229.583 119.548 229.656 119.307 229.803C119.065 229.949 118.798 230.173 118.505 230.475V234.806H117.005ZM127.577 234.962C126.93 234.962 126.344 234.832 125.818 234.574C125.292 234.307 124.874 233.927 124.564 233.436C124.254 232.936 124.098 232.333 124.098 231.626C124.098 230.936 124.254 230.346 124.564 229.854C124.874 229.354 125.279 228.971 125.779 228.704C126.279 228.436 126.814 228.303 127.383 228.303C128.012 228.303 128.542 228.432 128.973 228.691C129.413 228.949 129.744 229.307 129.969 229.764C130.201 230.212 130.318 230.729 130.318 231.315C130.318 231.462 130.309 231.604 130.292 231.742C130.283 231.871 130.27 231.979 130.253 232.065H125.172V231.005H129.296L129.012 231.341C129.012 230.712 128.87 230.242 128.585 229.932C128.309 229.613 127.921 229.454 127.421 229.454C127.068 229.454 126.749 229.535 126.465 229.699C126.189 229.863 125.969 230.109 125.805 230.436C125.641 230.755 125.56 231.152 125.56 231.626C125.56 232.117 125.65 232.522 125.831 232.841C126.021 233.16 126.279 233.401 126.607 233.565C126.943 233.729 127.331 233.811 127.77 233.811C128.107 233.811 128.417 233.763 128.701 233.669C128.986 233.574 129.27 233.445 129.555 233.281L130.059 234.212C129.723 234.427 129.344 234.608 128.921 234.755C128.499 234.893 128.051 234.962 127.577 234.962ZM132.355 234.806V228.458H133.584L133.713 229.893H133.752C134.071 229.376 134.463 228.984 134.928 228.717C135.403 228.441 135.911 228.303 136.454 228.303C136.713 228.303 136.937 228.324 137.127 228.368C137.316 228.411 137.501 228.475 137.682 228.561L137.372 229.816C137.165 229.747 136.98 229.699 136.816 229.673C136.661 229.639 136.463 229.622 136.221 229.622C135.79 229.622 135.368 229.747 134.954 229.997C134.549 230.247 134.183 230.682 133.855 231.303V234.806H132.355ZM141.957 234.962C141.362 234.962 140.793 234.867 140.25 234.677C139.707 234.479 139.238 234.246 138.841 233.979L139.488 233.035C139.867 233.285 140.276 233.483 140.716 233.63C141.156 233.768 141.634 233.837 142.151 233.837C142.591 233.837 142.914 233.763 143.121 233.617C143.336 233.462 143.444 233.281 143.444 233.074C143.444 232.97 143.418 232.876 143.366 232.789C143.323 232.703 143.241 232.626 143.121 232.557C143 232.479 142.823 232.406 142.591 232.337C142.358 232.268 142.056 232.195 141.686 232.117C140.841 231.936 140.22 231.69 139.824 231.38C139.427 231.07 139.229 230.678 139.229 230.204C139.229 229.643 139.47 229.186 139.953 228.833C140.444 228.48 141.134 228.303 142.022 228.303C142.548 228.303 143.039 228.389 143.496 228.561C143.961 228.734 144.353 228.928 144.672 229.143L143.987 230.061C143.685 229.854 143.354 229.699 142.992 229.596C142.629 229.484 142.263 229.428 141.892 229.428C141.608 229.428 141.38 229.458 141.207 229.518C141.043 229.579 140.918 229.665 140.832 229.777C140.755 229.88 140.716 229.997 140.716 230.126C140.716 230.35 140.845 230.518 141.104 230.63C141.362 230.742 141.785 230.863 142.371 230.992C143.052 231.139 143.578 231.307 143.948 231.496C144.319 231.678 144.573 231.889 144.711 232.13C144.858 232.363 144.931 232.652 144.931 232.996C144.931 233.358 144.815 233.69 144.582 233.992C144.358 234.285 144.026 234.522 143.586 234.703C143.147 234.875 142.604 234.962 141.957 234.962ZM147.202 230.578L146.814 227.592L146.775 225.937H148.585L148.546 227.592L148.158 230.578H147.202ZM150.408 230.578L150.02 227.592L149.981 225.937H151.792L151.753 227.592L151.365 230.578H150.408ZM156.648 230.566C156.286 230.566 155.98 230.441 155.73 230.191C155.489 229.941 155.368 229.63 155.368 229.26C155.368 228.88 155.489 228.57 155.73 228.329C155.98 228.079 156.286 227.954 156.648 227.954C157.019 227.954 157.325 228.079 157.566 228.329C157.807 228.57 157.928 228.88 157.928 229.26C157.928 229.63 157.807 229.941 157.566 230.191C157.325 230.441 157.019 230.566 156.648 230.566ZM156.648 234.962C156.286 234.962 155.98 234.837 155.73 234.587C155.489 234.337 155.368 234.026 155.368 233.656C155.368 233.276 155.489 232.966 155.73 232.725C155.98 232.475 156.286 232.35 156.648 232.35C157.019 232.35 157.325 232.475 157.566 232.725C157.807 232.966 157.928 233.276 157.928 233.656C157.928 234.026 157.807 234.337 157.566 234.587C157.325 234.837 157.019 234.962 156.648 234.962Z" fill="#D09A66"/>
<rect x="173.397" y="225.806" width="102.411" height="8.44961" fill="#B8E9FF" fill-opacity="0.6"/>
<path d="M53.7098 255.007V254.193H54.3045C54.701 254.193 55.0027 254.158 55.2096 254.089C55.4251 254.029 55.5716 253.921 55.6492 253.766C55.7268 253.619 55.7656 253.417 55.7656 253.158C55.7656 252.788 55.7526 252.43 55.7268 252.085C55.7095 251.732 55.7009 251.348 55.7009 250.934C55.7009 250.478 55.7914 250.141 55.9724 249.926C56.1535 249.702 56.4724 249.551 56.9292 249.473V249.422C56.4724 249.344 56.1535 249.198 55.9724 248.982C55.7914 248.758 55.7009 248.417 55.7009 247.961C55.7009 247.564 55.7095 247.185 55.7268 246.823C55.7526 246.452 55.7656 246.09 55.7656 245.737C55.7656 245.478 55.7268 245.276 55.6492 245.129C55.5716 244.974 55.4251 244.866 55.2096 244.806C55.0027 244.737 54.701 244.702 54.3045 244.702H53.7098V243.888H54.6019C55.4208 243.888 56.0242 244.017 56.412 244.276C56.7999 244.526 56.9939 244.991 56.9939 245.672C56.9939 245.974 56.9853 246.25 56.968 246.5C56.9508 246.75 56.9292 246.999 56.9034 247.249C56.8775 247.491 56.8646 247.749 56.8646 248.025C56.8646 248.18 56.9163 248.331 57.0197 248.478C57.1232 248.624 57.3042 248.749 57.5628 248.853C57.83 248.948 58.205 248.995 58.6877 248.995V249.9C58.205 249.9 57.83 249.952 57.5628 250.055C57.3042 250.15 57.1232 250.271 57.0197 250.417C56.9163 250.564 56.8646 250.715 56.8646 250.87C56.8646 251.154 56.8775 251.417 56.9034 251.658C56.9292 251.9 56.9508 252.145 56.968 252.395C56.9853 252.637 56.9939 252.913 56.9939 253.223C56.9939 253.904 56.7999 254.369 56.412 254.619C56.0242 254.878 55.4208 255.007 54.6019 255.007H53.7098Z" fill="#D09A66"/>
<g clip-path="url(#clip0_1_32)">
<rect x="90.7846" y="257.467" width="38.2003" height="38.2003" rx="19.1001" fill="white"/>
<g filter="url(#filter5_d_1_32)">
<path d="M116.707 287.483C116.321 287.483 115.997 287.352 115.736 287.09C115.475 286.828 115.344 286.504 115.343 286.119V279.297C115.343 278.911 115.474 278.587 115.736 278.326C115.998 278.065 116.321 277.934 116.707 277.933H119.436C119.822 277.933 120.146 278.064 120.408 278.326C120.67 278.588 120.801 278.911 120.8 279.297V286.119C120.8 286.505 120.669 286.829 120.407 287.091C120.145 287.353 119.821 287.484 119.436 287.483H116.707ZM108.521 287.483C108.135 287.483 107.811 287.352 107.55 287.09C107.289 286.828 107.158 286.504 107.157 286.119V267.018C107.157 266.632 107.288 266.308 107.55 266.047C107.812 265.786 108.136 265.655 108.521 265.654H111.25C111.636 265.654 111.961 265.785 112.223 266.047C112.485 266.309 112.615 266.633 112.614 267.018V286.119C112.614 286.505 112.483 286.829 112.221 287.091C111.959 287.353 111.636 287.484 111.25 287.483H108.521ZM100.336 287.483C99.949 287.483 99.6252 287.352 99.3642 287.09C99.1032 286.828 98.9722 286.504 98.9713 286.119V273.84C98.9713 273.453 99.1022 273.13 99.3642 272.869C99.6261 272.608 99.9499 272.477 100.336 272.476H103.064C103.451 272.476 103.775 272.607 104.037 272.869C104.299 273.131 104.429 273.454 104.428 273.84V286.119C104.428 286.505 104.297 286.829 104.036 287.091C103.774 287.353 103.45 287.484 103.064 287.483H100.336Z" fill="#F9FAFC"/>
<path d="M118.719 280.014V285.402H117.423V280.014H118.719ZM110.534 267.735V285.402H109.238V267.735H110.534ZM102.347 274.557V285.402H101.052V274.557H102.347Z" stroke="url(#paint1_linear_1_32)" stroke-width="4.16146"/>
</g>
</g>
<g clip-path="url(#clip1_1_32)">
<rect x="145.356" y="257.467" width="38.2003" height="38.2003" rx="19.1001" fill="white"/>
<g filter="url(#filter6_d_1_32)">
<path d="M163.206 264.536V288.602C163.206 289.476 162.401 290.13 161.556 289.939C155.457 288.575 150.928 283.104 150.928 276.569C150.928 270.034 155.457 264.564 161.556 263.199C161.755 263.156 161.961 263.158 162.16 263.205C162.358 263.252 162.543 263.343 162.702 263.472C162.86 263.6 162.988 263.762 163.075 263.947C163.163 264.131 163.207 264.332 163.206 264.536ZM165.976 264.536V273.827C165.976 274.577 166.59 275.191 167.34 275.191H176.604C177.477 275.191 178.132 274.386 177.941 273.527C176.781 268.397 172.756 264.359 167.64 263.199C166.781 263.008 165.976 263.663 165.976 264.536ZM165.976 279.312V288.602C165.976 289.476 166.781 290.13 167.64 289.939C172.77 288.78 176.795 284.728 177.954 279.598C178.145 278.752 177.477 277.934 176.617 277.934H167.354C166.59 277.947 165.976 278.561 165.976 279.312Z" fill="url(#paint2_linear_1_32)"/>
</g>
</g>
<g clip-path="url(#clip2_1_32)">
<rect x="199.928" y="257.467" width="38.2003" height="38.2003" rx="19.1001" fill="white"/>
<g filter="url(#filter7_d_1_32)">
<path fill-rule="evenodd" clip-rule="evenodd" d="M215.648 263.606C216.089 263.612 216.516 263.761 216.866 264.03C217.215 264.299 217.469 264.674 217.588 265.098L222.036 280.91L223.933 275.849C224.079 275.458 224.341 275.122 224.684 274.885C225.026 274.647 225.433 274.52 225.85 274.52H229.943C230.486 274.52 231.006 274.736 231.39 275.119C231.774 275.503 231.989 276.024 231.989 276.566C231.989 277.109 231.774 277.63 231.39 278.013C231.006 278.397 230.486 278.613 229.943 278.613H227.269L223.674 288.2C223.523 288.604 223.248 288.95 222.888 289.188C222.528 289.427 222.102 289.545 221.671 289.527C221.24 289.509 220.826 289.355 220.487 289.087C220.149 288.819 219.904 288.451 219.787 288.036L215.514 272.842L214.161 277.175C214.031 277.592 213.772 277.956 213.42 278.215C213.069 278.473 212.644 278.613 212.207 278.613H208.114C207.572 278.613 207.051 278.397 206.667 278.013C206.283 277.63 206.068 277.109 206.068 276.566C206.068 276.024 206.283 275.503 206.667 275.119C207.051 274.736 207.572 274.52 208.114 274.52H210.702L213.664 265.042C213.796 264.621 214.06 264.253 214.417 263.994C214.775 263.735 215.207 263.599 215.648 263.606Z" fill="#F9FAFC"/>
<path d="M215.627 264.97C215.774 264.972 215.917 265.022 216.034 265.111C216.15 265.201 216.235 265.326 216.275 265.468L220.722 281.28L221.85 285.29L223.313 281.39L225.21 276.328L225.211 276.327C225.26 276.197 225.347 276.085 225.461 276.006C225.547 275.946 225.645 275.908 225.747 275.892L225.85 275.885H229.943C230.124 275.885 230.297 275.956 230.425 276.084C230.553 276.212 230.625 276.385 230.625 276.566C230.625 276.747 230.553 276.921 230.425 277.049C230.297 277.177 230.124 277.249 229.943 277.249H226.324L225.992 278.134L222.397 287.721L222.396 287.722C222.346 287.856 222.254 287.972 222.134 288.052C222.015 288.131 221.873 288.17 221.729 288.164C221.585 288.158 221.447 288.107 221.334 288.017C221.222 287.928 221.14 287.805 221.101 287.667H221.1L216.828 272.473L215.583 268.046L214.212 272.435L212.859 276.768L212.858 276.769C212.815 276.908 212.729 277.03 212.612 277.116C212.495 277.202 212.353 277.249 212.208 277.249H208.115C207.934 277.249 207.76 277.177 207.632 277.049C207.504 276.921 207.432 276.747 207.432 276.566C207.432 276.385 207.504 276.212 207.632 276.084C207.76 275.956 207.934 275.885 208.115 275.885H211.706L212.004 274.927L214.966 265.449V265.448C215.01 265.308 215.098 265.186 215.217 265.1C215.336 265.013 215.48 264.968 215.627 264.97Z" stroke="url(#paint3_linear_1_32)" stroke-width="2.72859"/>
</g>
</g>
</g>
<g clip-path="url(#clip3_1_32)">
<rect x="134.949" y="94.3727" width="58.3023" height="43.938" rx="7.60385" fill="white"/>
<g filter="url(#filter8_d_1_32)">
<path d="M154.855 102.605H154.849C154.819 101.359 153.794 100.392 152.547 100.375V100.372H144.145V100.378C142.91 100.408 141.967 101.369 141.939 102.606H141.934V130.022H141.938C141.961 131.253 142.923 132.211 144.145 132.259V132.311H152.547C153.832 132.31 154.855 131.307 154.855 130.022V102.605ZM148.394 129.64C147.952 129.646 147.514 129.563 147.104 129.398C146.694 129.233 146.321 128.988 146.006 128.677C145.692 128.367 145.442 127.997 145.272 127.589C145.102 127.181 145.014 126.744 145.014 126.302C145.014 125.86 145.102 125.423 145.272 125.015C145.443 124.607 145.692 124.237 146.007 123.927C146.321 123.616 146.694 123.371 147.104 123.206C147.514 123.041 147.953 122.959 148.395 122.964C149.272 122.976 150.111 123.332 150.728 123.957C151.344 124.582 151.69 125.424 151.69 126.302C151.69 127.18 151.344 128.023 150.727 128.648C150.11 129.273 149.272 129.629 148.394 129.64ZM152.184 117.64H144.604V103.042H152.184V117.64ZM170.446 102.605H170.44C170.41 101.359 169.385 100.392 168.138 100.375V100.372H159.736V100.378C158.501 100.408 157.559 101.369 157.531 102.606H157.525V130.022H157.53C157.553 131.253 158.514 132.211 159.736 132.259V132.311H168.138C169.424 132.31 170.446 131.307 170.446 130.022V102.605ZM163.985 129.64C163.543 129.646 163.105 129.563 162.695 129.398C162.285 129.233 161.912 128.988 161.598 128.677C161.283 128.367 161.034 127.997 160.863 127.589C160.693 127.181 160.605 126.744 160.605 126.302C160.605 125.86 160.693 125.423 160.863 125.015C161.034 124.607 161.284 124.237 161.598 123.927C161.913 123.616 162.286 123.371 162.696 123.206C163.105 123.041 163.544 122.959 163.986 122.964C164.864 122.975 165.702 123.332 166.319 123.957C166.936 124.582 167.282 125.424 167.282 126.302C167.282 127.18 166.936 128.023 166.319 128.648C165.702 129.272 164.863 129.629 163.985 129.64ZM167.775 117.64H160.196V103.042H167.776L167.775 117.64ZM186.038 102.605H186.032C186.001 101.359 184.976 100.392 183.729 100.375V100.372H175.328V100.378C174.092 100.408 173.15 101.369 173.122 102.606H173.117V130.022H173.121C173.144 131.253 174.105 132.211 175.328 132.259V132.311H183.729C185.015 132.31 186.038 131.307 186.038 130.022V102.605ZM179.577 129.64C179.135 129.646 178.697 129.563 178.287 129.398C177.877 129.233 177.504 128.988 177.19 128.677C176.875 128.367 176.626 127.997 176.455 127.589C176.285 127.181 176.197 126.744 176.197 126.302C176.197 125.86 176.285 125.423 176.455 125.015C176.626 124.607 176.876 124.237 177.19 123.927C177.504 123.616 177.877 123.371 178.287 123.206C178.697 123.041 179.136 122.959 179.578 122.964C180.456 122.976 181.294 123.332 181.911 123.957C182.528 124.582 182.873 125.424 182.873 126.302C182.873 127.18 182.527 128.023 181.91 128.648C181.293 129.273 180.455 129.629 179.577 129.64ZM183.367 117.64H175.788V103.042H183.367V117.64Z" fill="#F9FAFC"/>
<path d="M153.406 119.09V130.022C153.406 130.49 153.048 130.861 152.546 130.861H149.814C150.542 130.627 151.211 130.221 151.758 129.667C152.643 128.771 153.14 127.562 153.14 126.302C153.14 125.043 152.644 123.834 151.759 122.938C150.875 122.042 149.672 121.531 148.413 121.515C147.779 121.507 147.15 121.625 146.562 121.862C145.974 122.099 145.44 122.45 144.989 122.895C144.538 123.34 144.18 123.871 143.935 124.456C143.691 125.04 143.564 125.668 143.564 126.301C143.564 126.935 143.69 127.563 143.934 128.148C144.178 128.733 144.537 129.263 144.988 129.709C145.439 130.154 145.974 130.506 146.562 130.743C146.671 130.787 146.782 130.825 146.893 130.861H145.495L144.202 130.81C143.731 130.792 143.397 130.443 143.388 129.995L143.383 129.74V119.09H153.406ZM184.588 119.09V130.022C184.588 130.49 184.231 130.861 183.729 130.861H180.997C181.725 130.627 182.394 130.221 182.942 129.667C183.827 128.771 184.323 127.562 184.323 126.302C184.323 125.043 183.827 123.834 182.942 122.938C182.057 122.042 180.855 121.531 179.596 121.515C178.962 121.507 178.334 121.625 177.746 121.862C177.158 122.099 176.622 122.45 176.171 122.895C175.72 123.34 175.362 123.871 175.118 124.456C174.873 125.04 174.748 125.668 174.748 126.301C174.748 126.935 174.873 127.563 175.118 128.148C175.362 128.733 175.72 129.263 176.171 129.709C176.622 130.154 177.157 130.506 177.745 130.743C177.854 130.787 177.965 130.825 178.077 130.861H176.677L175.384 130.81C174.914 130.792 174.579 130.443 174.571 129.995L174.566 129.74V119.09H184.588ZM168.997 119.09V130.022C168.997 130.49 168.639 130.861 168.137 130.861H165.405C166.134 130.627 166.803 130.22 167.35 129.666C168.235 128.77 168.731 127.562 168.731 126.302C168.731 125.043 168.235 123.834 167.35 122.938C166.465 122.042 165.263 121.531 164.004 121.515C163.371 121.507 162.742 121.625 162.154 121.862C161.566 122.099 161.031 122.45 160.58 122.895C160.129 123.34 159.77 123.871 159.526 124.456C159.282 125.04 159.156 125.668 159.156 126.301C159.156 126.935 159.282 127.563 159.526 128.148C159.77 128.733 160.129 129.263 160.58 129.709C161.031 130.154 161.565 130.506 162.153 130.743C162.262 130.787 162.373 130.825 162.485 130.861H161.086L159.792 130.81C159.322 130.792 158.987 130.443 158.979 129.995L158.975 129.784V119.09H168.997Z" stroke="url(#paint4_linear_1_32)" stroke-width="2.89922"/>
</g>
</g>
<defs>
<filter id="filter0_d_1_32" x="44.3429" y="12.7881" width="59.428" height="59.428" filterUnits="userSpaceOnUse" color-interpolation-filters="sRGB">
<feFlood flood-opacity="0" result="BackgroundImageFix"/>
<feColorMatrix in="SourceAlpha" type="matrix" values="0 0 0 0 0 0 0 0 0 0 0 0 0 0 0 0 0 0 127 0" result="hardAlpha"/>
<feMorphology radius="2.52002" operator="dilate" in="SourceAlpha" result="effect1_dropShadow_1_32"/>
<feOffset/>
<feGaussianBlur stdDeviation="4.07403"/>
<feComposite in2="hardAlpha" operator="out"/>
<feColorMatrix type="matrix" values="0 0 0 0 0 0 0 0 0 0 0 0 0 0 0 0 0 0 0.05 0"/>
<feBlend mode="normal" in2="BackgroundImageFix" result="effect1_dropShadow_1_32"/>
<feBlend mode="normal" in="SourceGraphic" in2="effect1_dropShadow_1_32" result="shape"/>
</filter>
<filter id="filter1_d_1_32" x="104.296" y="12.7881" width="59.428" height="59.428" filterUnits="userSpaceOnUse" color-interpolation-filters="sRGB">
<feFlood flood-opacity="0" result="BackgroundImageFix"/>
<feColorMatrix in="SourceAlpha" type="matrix" values="0 0 0 0 0 0 0 0 0 0 0 0 0 0 0 0 0 0 127 0" result="hardAlpha"/>
<feMorphology radius="2.52002" operator="dilate" in="SourceAlpha" result="effect1_dropShadow_1_32"/>
<feOffset/>
<feGaussianBlur stdDeviation="4.07403"/>
<feComposite in2="hardAlpha" operator="out"/>
<feColorMatrix type="matrix" values="0 0 0 0 0 0 0 0 0 0 0 0 0 0 0 0 0 0 0.05 0"/>
<feBlend mode="normal" in2="BackgroundImageFix" result="effect1_dropShadow_1_32"/>
<feBlend mode="normal" in="SourceGraphic" in2="effect1_dropShadow_1_32" result="shape"/>
</filter>
<filter id="filter2_d_1_32" x="164.249" y="12.7881" width="59.4279" height="59.428" filterUnits="userSpaceOnUse" color-interpolation-filters="sRGB">
<feFlood flood-opacity="0" result="BackgroundImageFix"/>
<feColorMatrix in="SourceAlpha" type="matrix" values="0 0 0 0 0 0 0 0 0 0 0 0 0 0 0 0 0 0 127 0" result="hardAlpha"/>
<feMorphology radius="2.52002" operator="dilate" in="SourceAlpha" result="effect1_dropShadow_1_32"/>
<feOffset/>
<feGaussianBlur stdDeviation="4.07403"/>
<feComposite in2="hardAlpha" operator="out"/>
<feColorMatrix type="matrix" values="0 0 0 0 0 0 0 0 0 0 0 0 0 0 0 0 0 0 0.05 0"/>
<feBlend mode="normal" in2="BackgroundImageFix" result="effect1_dropShadow_1_32"/>
<feBlend mode="normal" in="SourceGraphic" in2="effect1_dropShadow_1_32" result="shape"/>
</filter>
<filter id="filter3_d_1_32" x="224.202" y="12.7881" width="59.428" height="59.428" filterUnits="userSpaceOnUse" color-interpolation-filters="sRGB">
<feFlood flood-opacity="0" result="BackgroundImageFix"/>
<feColorMatrix in="SourceAlpha" type="matrix" values="0 0 0 0 0 0 0 0 0 0 0 0 0 0 0 0 0 0 127 0" result="hardAlpha"/>
<feMorphology radius="2.52002" operator="dilate" in="SourceAlpha" result="effect1_dropShadow_1_32"/>
<feOffset/>
<feGaussianBlur stdDeviation="4.07403"/>
<feComposite in2="hardAlpha" operator="out"/>
<feColorMatrix type="matrix" values="0 0 0 0 0 0 0 0 0 0 0 0 0 0 0 0 0 0 0.05 0"/>
<feBlend mode="normal" in2="BackgroundImageFix" result="effect1_dropShadow_1_32"/>
<feBlend mode="normal" in="SourceGraphic" in2="effect1_dropShadow_1_32" result="shape"/>
</filter>
<filter id="filter4_d_1_32" x="21.0796" y="102.826" width="287.723" height="203.192" filterUnits="userSpaceOnUse" color-interpolation-filters="sRGB">
<feFlood flood-opacity="0" result="BackgroundImageFix"/>
<feColorMatrix in="SourceAlpha" type="matrix" values="0 0 0 0 0 0 0 0 0 0 0 0 0 0 0 0 0 0 127 0" result="hardAlpha"/>
<feOffset dx="0.841512" dy="1.68302"/>
<feGaussianBlur stdDeviation="4.33379"/>
<feComposite in2="hardAlpha" operator="out"/>
<feColorMatrix type="matrix" values="0 0 0 0 0 0 0 0 0 0 0 0 0 0 0 0 0 0 0.25 0"/>
<feBlend mode="normal" in2="BackgroundImageFix" result="effect1_dropShadow_1_32"/>
<feBlend mode="normal" in="SourceGraphic" in2="effect1_dropShadow_1_32" result="shape"/>
</filter>
<filter id="filter5_d_1_32" x="81.3544" y="248.037" width="57.0624" height="57.0624" filterUnits="userSpaceOnUse" color-interpolation-filters="sRGB">
<feFlood flood-opacity="0" result="BackgroundImageFix"/>
<feColorMatrix in="SourceAlpha" type="matrix" values="0 0 0 0 0 0 0 0 0 0 0 0 0 0 0 0 0 0 127 0" result="hardAlpha"/>
<feMorphology radius="4.16146" operator="dilate" in="SourceAlpha" result="effect1_dropShadow_1_32"/>
<feOffset/>
<feGaussianBlur stdDeviation="6.72769"/>
<feComposite in2="hardAlpha" operator="out"/>
<feColorMatrix type="matrix" values="0 0 0 0 0 0 0 0 0 0 0 0 0 0 0 0 0 0 0.05 0"/>
<feBlend mode="normal" in2="BackgroundImageFix" result="effect1_dropShadow_1_32"/>
<feBlend mode="normal" in="SourceGraphic" in2="effect1_dropShadow_1_32" result="shape"/>
</filter>
<filter id="filter6_d_1_32" x="133.311" y="245.549" width="62.2932" height="62.0405" filterUnits="userSpaceOnUse" color-interpolation-filters="sRGB">
<feFlood flood-opacity="0" result="BackgroundImageFix"/>
<feColorMatrix in="SourceAlpha" type="matrix" values="0 0 0 0 0 0 0 0 0 0 0 0 0 0 0 0 0 0 127 0" result="hardAlpha"/>
<feMorphology radius="4.16146" operator="dilate" in="SourceAlpha" result="effect1_dropShadow_1_32"/>
<feOffset/>
<feGaussianBlur stdDeviation="6.72769"/>
<feComposite in2="hardAlpha" operator="out"/>
<feColorMatrix type="matrix" values="0 0 0 0 0 0 0 0 0 0 0 0 0 0 0 0 0 0 0.05 0"/>
<feBlend mode="normal" in2="BackgroundImageFix" result="effect1_dropShadow_1_32"/>
<feBlend mode="normal" in="SourceGraphic" in2="effect1_dropShadow_1_32" result="shape"/>
</filter>
<filter id="filter7_d_1_32" x="188.451" y="245.989" width="61.1553" height="61.1574" filterUnits="userSpaceOnUse" color-interpolation-filters="sRGB">
<feFlood flood-opacity="0" result="BackgroundImageFix"/>
<feColorMatrix in="SourceAlpha" type="matrix" values="0 0 0 0 0 0 0 0 0 0 0 0 0 0 0 0 0 0 127 0" result="hardAlpha"/>
<feMorphology radius="4.16146" operator="dilate" in="SourceAlpha" result="effect1_dropShadow_1_32"/>
<feOffset/>
<feGaussianBlur stdDeviation="6.72769"/>
<feComposite in2="hardAlpha" operator="out"/>
<feColorMatrix type="matrix" values="0 0 0 0 0 0 0 0 0 0 0 0 0 0 0 0 0 0 0.05 0"/>
<feBlend mode="normal" in2="BackgroundImageFix" result="effect1_dropShadow_1_32"/>
<feBlend mode="normal" in="SourceGraphic" in2="effect1_dropShadow_1_32" result="shape"/>
</filter>
<filter id="filter8_d_1_32" x="129.661" y="88.0984" width="68.6503" height="56.486" filterUnits="userSpaceOnUse" color-interpolation-filters="sRGB">
<feFlood flood-opacity="0" result="BackgroundImageFix"/>
<feColorMatrix in="SourceAlpha" type="matrix" values="0 0 0 0 0 0 0 0 0 0 0 0 0 0 0 0 0 0 127 0" result="hardAlpha"/>
<feMorphology radius="2.89922" operator="dilate" in="SourceAlpha" result="effect1_dropShadow_1_32"/>
<feOffset/>
<feGaussianBlur stdDeviation="4.68707"/>
<feComposite in2="hardAlpha" operator="out"/>
<feColorMatrix type="matrix" values="0 0 0 0 0 0 0 0 0 0 0 0 0 0 0 0 0 0 0.05 0"/>
<feBlend mode="normal" in2="BackgroundImageFix" result="effect1_dropShadow_1_32"/>
<feBlend mode="normal" in="SourceGraphic" in2="effect1_dropShadow_1_32" result="shape"/>
</filter>
<linearGradient id="paint0_linear_1_32" x1="164.099" y1="111.923" x2="164.099" y2="276.69" gradientUnits="userSpaceOnUse">
<stop stop-color="#02D7FD"/>
<stop offset="1" stop-color="#32F7BA"/>
</linearGradient>
<linearGradient id="paint1_linear_1_32" x1="98.9713" y1="276.569" x2="120.8" y2="276.569" gradientUnits="userSpaceOnUse">
<stop stop-color="#00D6FF"/>
<stop offset="1" stop-color="#32F8B9"/>
</linearGradient>
<linearGradient id="paint2_linear_1_32" x1="150.928" y1="276.569" x2="177.987" y2="276.569" gradientUnits="userSpaceOnUse">
<stop stop-color="#00D6FF"/>
<stop offset="1" stop-color="#32F8B9"/>
</linearGradient>
<linearGradient id="paint3_linear_1_32" x1="206.068" y1="276.567" x2="231.989" y2="276.567" gradientUnits="userSpaceOnUse">
<stop stop-color="#00D6FF"/>
<stop offset="1" stop-color="#32F8B9"/>
</linearGradient>
<linearGradient id="paint4_linear_1_32" x1="141.934" y1="116.341" x2="186.038" y2="116.341" gradientUnits="userSpaceOnUse">
<stop stop-color="#00D6FF"/>
<stop offset="1" stop-color="#32F8B9"/>
</linearGradient>
<clipPath id="clip0_1_32">
<rect x="90.7846" y="257.467" width="38.2003" height="38.2003" rx="19.1001" fill="white"/>
</clipPath>
<clipPath id="clip1_1_32">
<rect x="145.356" y="257.467" width="38.2003" height="38.2003" rx="19.1001" fill="white"/>
</clipPath>
<clipPath id="clip2_1_32">
<rect x="199.928" y="257.467" width="38.2003" height="38.2003" rx="19.1001" fill="white"/>
</clipPath>
<clipPath id="clip3_1_32">
<rect x="134.949" y="94.3727" width="58.3023" height="43.938" rx="7.60385" fill="white"/>
</clipPath>
</defs>
</svg>
