<svg width="46" height="45" viewBox="0 0 46 45" fill="none" xmlns="http://www.w3.org/2000/svg">
  <g clip-path="url(#clip0_5019_20924)">
    <path d="M0.5 8.43274V11.2452H27.2188V32.339H18.5619C17.9347 29.9216 15.7606 28.1202 13.1562 28.1202C10.5519 28.1202 8.37781 29.9216 7.75063 32.339H6.125V25.3077H3.3125V35.1515H7.75063C8.37781 37.5688 10.5519 39.3702 13.1562 39.3702C15.7606 39.3702 17.9347 37.5688 18.5619 35.1515H30.2506C30.8778 37.5688 33.0519 39.3702 35.6562 39.3702C38.2606 39.3702 40.4347 37.5688 41.0619 35.1515H45.5V23.6821L45.4114 23.4613L42.5989 15.0238L42.2938 14.0577H30.0312V8.43274H0.5ZM1.90625 14.0577V16.8702H14.5625V14.0577H1.90625ZM30.0312 16.8702H40.2702L42.6875 24.0773V32.339H41.0619C40.4347 29.9216 38.2606 28.1202 35.6562 28.1202C33.0519 28.1202 30.8778 29.9216 30.2506 32.339H30.0312V16.8702ZM3.3125 19.6827V22.4952H11.75V19.6827H3.3125ZM13.1562 30.9327C14.727 30.9327 15.9688 32.1745 15.9688 33.7452C15.9688 35.316 14.727 36.5577 13.1562 36.5577C11.5855 36.5577 10.3438 35.316 10.3438 33.7452C10.3438 32.1745 11.5855 30.9327 13.1562 30.9327ZM35.6562 30.9327C37.227 30.9327 38.4688 32.1745 38.4688 33.7452C38.4688 35.316 37.227 36.5577 35.6562 36.5577C34.0855 36.5577 32.8438 35.316 32.8438 33.7452C32.8438 32.1745 34.0855 30.9327 35.6562 30.9327Z" fill="#2D7E5D"/>
  </g>
  <defs>
    <clipPath id="clip0_5019_20924">
      <rect width="45" height="45" fill="white" transform="translate(0.5 -0.00476074)"/>
    </clipPath>
  </defs>
</svg>
