<svg width="582" height="296" viewBox="0 0 582 296" fill="none" xmlns="http://www.w3.org/2000/svg">
<rect width="582" height="296" rx="20" fill="white"/>
<path fill-rule="evenodd" clip-rule="evenodd" d="M278.544 260.774H372.312C373.191 260.774 373.904 261.487 373.904 262.366C373.904 263.246 373.191 263.958 372.312 263.958H181.592C180.713 263.958 180 263.246 180 262.366C180 261.487 180.713 260.774 181.592 260.774H275.36V244.872L278.544 244.872V260.774Z" fill="#2D7E5D"/>
<path d="M276.148 58.0055C276.006 58.0052 275.865 58.0329 275.734 58.0871C275.603 58.1412 275.483 58.2208 275.383 58.3211C275.283 58.4215 275.203 58.5407 275.149 58.6719C275.095 58.803 275.067 58.9436 275.067 59.0856L275.067 60.5055L274.284 60.2445L266.672 60.2445L266.672 65.8414L274.284 65.8414L275.067 65.5803L275.067 67.0002C275.067 67.1421 275.095 67.2827 275.149 67.4139C275.203 67.5451 275.282 67.6643 275.383 67.7647C275.483 67.865 275.602 67.9446 275.734 67.9988C275.865 68.0529 276.005 68.0806 276.147 68.0803L279.584 68.0803C279.726 68.0806 279.867 68.0529 279.998 67.9988C280.129 67.9446 280.248 67.8651 280.349 67.7647C280.449 67.6643 280.529 67.5452 280.583 67.414C280.637 67.2828 280.665 67.1422 280.664 67.0002L280.665 65.5806L281.448 65.8415L289.06 65.8415L289.06 60.2444L281.448 60.2444L280.664 60.5055L280.665 59.0856C280.665 58.9437 280.637 58.8031 280.583 58.6719C280.529 58.5408 280.449 58.4216 280.349 58.3212C280.249 58.2209 280.129 58.1414 279.998 58.0872C279.867 58.0331 279.726 58.0054 279.584 58.0057L276.148 58.0055ZM267.791 61.3638L274.508 61.3638L274.508 64.7219L267.791 64.722L267.791 61.3638ZM281.224 61.3638L287.941 61.3638L287.941 64.722L281.224 64.7221L281.224 61.3638ZM279.041 70.0703C278.886 70.2268 278.702 70.3513 278.5 70.4364C278.297 70.5216 278.079 70.5657 277.859 70.5664C277.639 70.567 277.421 70.5241 277.218 70.4402C277.014 70.3563 276.83 70.2329 276.674 70.0773L275.887 70.8728C276.976 71.9523 278.75 71.9469 279.834 70.8611L279.041 70.0703ZM275.091 71.6601L274.303 72.4554C276.277 74.4111 279.472 74.4122 281.426 72.4528L280.633 71.6628C279.108 73.1923 276.638 73.1935 275.091 71.6601ZM273.509 73.2456L272.721 74.0411C275.576 76.8689 280.186 76.8702 283.01 74.0384L282.218 73.248C279.822 75.6495 275.937 75.6511 273.509 73.2456Z" fill="#2D7E5D"/>
<rect x="203.948" y="39.0074" width="145.676" height="51.8111" rx="5.17429" stroke="#2D7E5D" stroke-width="2.38814"/>
<rect width="105.399" height="33.3988" transform="translate(224.193 21.0417)" fill="white"/>
<path d="M238.117 43.2411H236.831V32.2626H238.117V43.2411ZM240.368 42.9578V41.6104C241.052 42.1157 241.805 42.3683 242.627 42.3683C243.729 42.3683 244.28 42.0008 244.28 41.2659C244.28 41.0566 244.232 40.8805 244.135 40.7376C244.043 40.5896 243.915 40.4594 243.752 40.3472C243.594 40.2349 243.405 40.1353 243.185 40.0486C242.971 39.9567 242.739 39.8623 242.489 39.7653C242.142 39.6275 241.835 39.4897 241.57 39.3519C241.31 39.209 241.09 39.0508 240.912 38.8772C240.738 38.6986 240.605 38.497 240.514 38.2724C240.427 38.0479 240.383 37.785 240.383 37.4839C240.383 37.1164 240.468 36.7923 240.636 36.5116C240.804 36.2258 241.029 35.9884 241.31 35.7996C241.59 35.6056 241.909 35.4602 242.267 35.3632C242.629 35.2662 243.002 35.2177 243.384 35.2177C244.063 35.2177 244.671 35.3351 245.207 35.5699V36.8408C244.63 36.4631 243.966 36.2743 243.216 36.2743C242.981 36.2743 242.769 36.3023 242.581 36.3585C242.392 36.4095 242.228 36.4835 242.091 36.5805C241.958 36.6775 241.853 36.7948 241.777 36.9327C241.705 37.0654 241.67 37.2134 241.67 37.3767C241.67 37.5808 241.705 37.7518 241.777 37.8896C241.853 38.0274 241.963 38.1499 242.106 38.2571C242.249 38.3643 242.422 38.4613 242.627 38.548C242.831 38.6348 243.063 38.7292 243.323 38.8313C243.67 38.964 243.982 39.1018 244.257 39.2447C244.533 39.3825 244.768 39.5407 244.962 39.7194C245.156 39.8929 245.304 40.0945 245.406 40.3242C245.513 40.5539 245.566 40.8269 245.566 41.1434C245.566 41.5313 245.48 41.8681 245.306 42.1539C245.138 42.4397 244.911 42.6771 244.625 42.8659C244.339 43.0548 244.01 43.1951 243.637 43.287C243.265 43.3789 242.874 43.4248 242.466 43.4248C241.659 43.4248 240.96 43.2691 240.368 42.9578ZM250.78 43.4248C249.621 43.4248 248.695 43.0599 248.001 42.33C247.312 41.5951 246.967 40.6228 246.967 39.4131C246.967 38.0963 247.327 37.0679 248.047 36.3278C248.767 35.5878 249.739 35.2177 250.964 35.2177C252.133 35.2177 253.044 35.5776 253.697 36.2972C254.355 37.0169 254.684 38.0147 254.684 39.2906C254.684 40.5411 254.33 41.544 253.62 42.2994C252.916 43.0497 251.969 43.4248 250.78 43.4248ZM250.872 36.2743C250.065 36.2743 249.427 36.5499 248.958 37.1011C248.488 37.6472 248.254 38.4026 248.254 39.3672C248.254 40.2961 248.491 41.0285 248.966 41.5644C249.44 42.1003 250.076 42.3683 250.872 42.3683C251.683 42.3683 252.306 42.1054 252.74 41.5797C253.179 41.054 253.398 40.3063 253.398 39.3366C253.398 38.3566 253.179 37.6013 252.74 37.0705C252.306 36.5397 251.683 36.2743 250.872 36.2743ZM257.946 43.2411H256.69V31.6348H257.946V43.2411ZM266.099 43.2411H264.844V42.0161H264.813C264.267 42.9552 263.463 43.4248 262.402 43.4248C261.621 43.4248 261.008 43.2181 260.564 42.8047C260.125 42.3913 259.906 41.8426 259.906 41.1587C259.906 39.6939 260.768 38.8415 262.493 38.6016L264.844 38.2724C264.844 36.9403 264.305 36.2743 263.228 36.2743C262.284 36.2743 261.432 36.5958 260.671 37.2389V35.9527C261.442 35.4627 262.33 35.2177 263.336 35.2177C265.178 35.2177 266.099 36.1926 266.099 38.1423V43.2411ZM264.844 39.2753L262.953 39.5356C262.371 39.6173 261.932 39.7628 261.636 39.972C261.34 40.1762 261.192 40.5411 261.192 41.0668C261.192 41.4496 261.327 41.7635 261.598 42.0085C261.873 42.2484 262.238 42.3683 262.692 42.3683C263.315 42.3683 263.828 42.1514 264.231 41.7175C264.64 41.2786 264.844 40.7248 264.844 40.0562V39.2753ZM272.101 43.1645C271.805 43.3278 271.415 43.4095 270.93 43.4095C269.557 43.4095 268.871 42.6439 268.871 41.1127V36.4733H267.523V35.4015H268.871V33.4875L270.126 33.0818V35.4015H272.101V36.4733H270.126V40.8907C270.126 41.4164 270.216 41.7916 270.394 42.0161C270.573 42.2407 270.869 42.353 271.282 42.353C271.599 42.353 271.872 42.2662 272.101 42.0927V43.1645ZM280.079 39.6352H274.544C274.564 40.5079 274.799 41.1816 275.248 41.6563C275.697 42.131 276.315 42.3683 277.101 42.3683C277.984 42.3683 278.795 42.0774 279.535 41.4955V42.6745C278.846 43.1747 277.935 43.4248 276.802 43.4248C275.695 43.4248 274.824 43.0701 274.192 42.3606C273.559 41.6461 273.242 40.6432 273.242 39.3519C273.242 38.1321 273.587 37.1394 274.276 36.3738C274.97 35.6031 275.83 35.2177 276.856 35.2177C277.882 35.2177 278.675 35.5495 279.237 36.213C279.798 36.8765 280.079 37.7978 280.079 38.9768V39.6352ZM278.793 38.571C278.788 37.8462 278.612 37.2823 278.264 36.8791C277.922 36.4759 277.445 36.2743 276.833 36.2743C276.241 36.2743 275.738 36.4861 275.325 36.9097C274.911 37.3333 274.656 37.8871 274.559 38.571H278.793ZM288.676 43.2411H287.421V41.9089H287.39C286.808 42.9195 285.91 43.4248 284.695 43.4248C283.71 43.4248 282.922 43.0752 282.33 42.3759C281.743 41.6716 281.449 40.7146 281.449 39.505C281.449 38.2086 281.776 37.17 282.429 36.3891C283.083 35.6082 283.953 35.2177 285.04 35.2177C286.117 35.2177 286.9 35.6414 287.39 36.4886H287.421V31.6348H288.676V43.2411ZM287.421 39.6964V38.5404C287.421 37.9075 287.212 37.3716 286.793 36.9327C286.375 36.4937 285.844 36.2743 285.201 36.2743C284.435 36.2743 283.833 36.555 283.394 37.1164C282.955 37.6778 282.735 38.4536 282.735 39.4438C282.735 40.3472 282.945 41.0617 283.363 41.5874C283.787 42.108 284.353 42.3683 285.063 42.3683C285.762 42.3683 286.329 42.1157 286.762 41.6104C287.201 41.1051 287.421 40.4671 287.421 39.6964ZM303.85 32.2626L299.785 43.2411H298.369L294.388 32.2626H295.819L298.859 40.9673C298.956 41.248 299.03 41.5721 299.081 41.9396H299.111C299.152 41.6333 299.236 41.3041 299.364 40.952L302.465 32.2626H303.85ZM316.62 43.2411H315.342V35.8761C315.342 35.2943 315.377 34.5823 315.449 33.7402H315.418C315.296 34.2352 315.186 34.59 315.089 34.8043L311.338 43.2411H310.71L306.966 34.8656C306.859 34.6206 306.749 34.2455 306.637 33.7402H306.606C306.647 34.1791 306.668 34.8962 306.668 35.8915V43.2411H305.427V32.2626H307.127L310.495 39.9184C310.756 40.5054 310.924 40.9443 311.001 41.2352H311.047C311.266 40.633 311.442 40.1838 311.575 39.8878L315.012 32.2626H316.62V43.2411Z" fill="black"/>
<rect width="21.0132" height="21.0132" transform="translate(338.72 56.4752)" fill="white"/>
<path d="M354.48 72.235C354.844 72.235 355.155 72.1072 355.41 71.8515C355.666 71.5959 355.794 71.2859 355.793 70.9217C355.793 70.5569 355.665 70.2466 355.409 69.991C355.154 69.7353 354.844 69.6078 354.48 69.6084C354.115 69.6084 353.805 69.7362 353.549 69.9919C353.293 70.2475 353.166 70.5575 353.166 70.9217C353.166 71.2865 353.294 71.5967 353.55 71.8524C353.805 72.1081 354.115 72.2356 354.48 72.235ZM354.48 74.8617C354.917 74.8617 355.326 74.7595 355.705 74.5552C356.085 74.3509 356.399 74.0664 356.647 73.7016C356.311 73.4973 355.961 73.3475 355.596 73.2524C355.231 73.1573 354.859 73.11 354.48 73.1106C354.1 73.1106 353.728 73.1578 353.363 73.2524C352.998 73.347 352.648 73.4967 352.313 73.7016C352.561 74.0664 352.874 74.3509 353.254 74.5552C353.633 74.7595 354.042 74.8617 354.48 74.8617ZM346.6 63.4795H351.853V61.7284C351.853 60.9988 351.598 60.3786 351.087 59.8679C350.576 59.3572 349.956 59.1018 349.226 59.1018C348.497 59.1018 347.877 59.3572 347.366 59.8679C346.855 60.3786 346.6 60.9988 346.6 61.7284V63.4795ZM349.445 75.7372H343.973C343.491 75.7372 343.079 75.5656 342.736 75.2224C342.393 74.8792 342.221 74.4671 342.222 73.9861V65.2306C342.222 64.7491 342.394 64.3367 342.737 63.9935C343.08 63.6503 343.492 63.4789 343.973 63.4795H344.849V61.7284C344.849 60.5173 345.276 59.4847 346.129 58.6307C346.983 57.7768 348.016 57.3501 349.226 57.3507C350.437 57.3507 351.47 57.7777 352.324 58.6316C353.178 59.4856 353.605 60.5178 353.604 61.7284V63.4795H354.48C354.961 63.4795 355.374 63.6511 355.717 63.9944C356.06 64.3376 356.231 64.7497 356.231 65.2306V66.3688C355.968 66.2813 355.694 66.2156 355.409 66.1718C355.125 66.1281 354.815 66.1062 354.48 66.1062V65.2306H343.973V73.9861H348.613C348.73 74.3363 348.847 74.6393 348.964 74.8949C349.08 75.1506 349.241 75.4313 349.445 75.7372ZM354.48 76.6128C353.268 76.6128 352.236 76.1858 351.382 75.3318C350.528 74.4779 350.101 73.4456 350.102 72.235C350.102 71.0238 350.529 69.9913 351.383 69.1373C352.237 68.2834 353.269 67.8567 354.48 67.8573C355.691 67.8573 356.723 68.2842 357.577 69.1382C358.431 69.9921 358.858 71.0244 358.857 72.235C358.857 73.4462 358.43 74.4787 357.576 75.3327C356.722 76.1867 355.69 76.6133 354.48 76.6128Z" fill="#2D7E5D"/>
<path d="M276.148 135.345C276.006 135.345 275.865 135.372 275.734 135.426C275.603 135.481 275.483 135.56 275.383 135.66C275.283 135.761 275.203 135.88 275.149 136.011C275.095 136.142 275.067 136.283 275.067 136.425L275.067 137.845L274.284 137.584L266.672 137.584L266.672 143.181L274.284 143.181L275.067 142.92L275.067 144.34C275.067 144.481 275.095 144.622 275.149 144.753C275.203 144.884 275.282 145.004 275.383 145.104C275.483 145.204 275.602 145.284 275.734 145.338C275.865 145.392 276.005 145.42 276.147 145.42L279.584 145.42C279.726 145.42 279.867 145.392 279.998 145.338C280.129 145.284 280.248 145.204 280.349 145.104C280.449 145.004 280.529 144.884 280.583 144.753C280.637 144.622 280.665 144.481 280.664 144.34L280.665 142.92L281.448 143.181L289.06 143.181L289.06 137.584L281.448 137.584L280.664 137.845L280.665 136.425C280.665 136.283 280.637 136.142 280.583 136.011C280.529 135.88 280.449 135.761 280.349 135.661C280.249 135.56 280.129 135.481 279.998 135.427C279.867 135.372 279.726 135.345 279.584 135.345L276.148 135.345ZM267.791 138.703L274.508 138.703L274.508 142.061L267.791 142.061L267.791 138.703ZM281.224 138.703L287.941 138.703L287.941 142.061L281.224 142.061L281.224 138.703ZM279.041 147.41C278.886 147.566 278.702 147.691 278.5 147.776C278.297 147.861 278.079 147.905 277.859 147.906C277.639 147.906 277.421 147.863 277.218 147.78C277.014 147.696 276.83 147.572 276.674 147.417L275.887 148.212C276.976 149.292 278.75 149.286 279.834 148.2L279.041 147.41ZM275.091 148.999L274.303 149.795C276.277 151.75 279.472 151.752 281.426 149.792L280.633 149.002C279.108 150.532 276.638 150.533 275.091 148.999ZM273.509 150.585L272.721 151.38C275.576 154.208 280.186 154.209 283.01 151.378L282.218 150.587C279.822 152.989 275.937 152.99 273.509 150.585Z" fill="#2D7E5D"/>
<rect x="203.948" y="116.347" width="145.676" height="51.8111" rx="5.17429" stroke="#2D7E5D" stroke-width="2.38814"/>
<rect width="105.399" height="33.3988" transform="translate(224.193 98.381)" fill="white"/>
<path d="M238.117 120.58H236.831V109.602H238.117V120.58ZM240.368 120.297V118.95C241.052 119.455 241.805 119.708 242.627 119.708C243.729 119.708 244.28 119.34 244.28 118.605C244.28 118.396 244.232 118.22 244.135 118.077C244.043 117.929 243.915 117.799 243.752 117.686C243.594 117.574 243.405 117.475 243.185 117.388C242.971 117.296 242.739 117.202 242.489 117.105C242.142 116.967 241.835 116.829 241.57 116.691C241.31 116.548 241.09 116.39 240.912 116.217C240.738 116.038 240.605 115.836 240.514 115.612C240.427 115.387 240.383 115.124 240.383 114.823C240.383 114.456 240.468 114.132 240.636 113.851C240.804 113.565 241.029 113.328 241.31 113.139C241.59 112.945 241.909 112.799 242.267 112.703C242.629 112.606 243.002 112.557 243.384 112.557C244.063 112.557 244.671 112.674 245.207 112.909V114.18C244.63 113.802 243.966 113.614 243.216 113.614C242.981 113.614 242.769 113.642 242.581 113.698C242.392 113.749 242.228 113.823 242.091 113.92C241.958 114.017 241.853 114.134 241.777 114.272C241.705 114.405 241.67 114.553 241.67 114.716C241.67 114.92 241.705 115.091 241.777 115.229C241.853 115.367 241.963 115.489 242.106 115.596C242.249 115.704 242.422 115.801 242.627 115.887C242.831 115.974 243.063 116.069 243.323 116.171C243.67 116.303 243.982 116.441 244.257 116.584C244.533 116.722 244.768 116.88 244.962 117.059C245.156 117.232 245.304 117.434 245.406 117.663C245.513 117.893 245.566 118.166 245.566 118.483C245.566 118.871 245.48 119.207 245.306 119.493C245.138 119.779 244.911 120.016 244.625 120.205C244.339 120.394 244.01 120.534 243.637 120.626C243.265 120.718 242.874 120.764 242.466 120.764C241.659 120.764 240.96 120.608 240.368 120.297ZM250.78 120.764C249.621 120.764 248.695 120.399 248.001 119.669C247.312 118.934 246.967 117.962 246.967 116.752C246.967 115.436 247.327 114.407 248.047 113.667C248.767 112.927 249.739 112.557 250.964 112.557C252.133 112.557 253.044 112.917 253.697 113.637C254.355 114.356 254.684 115.354 254.684 116.63C254.684 117.88 254.33 118.883 253.62 119.639C252.916 120.389 251.969 120.764 250.78 120.764ZM250.872 113.614C250.065 113.614 249.427 113.889 248.958 114.44C248.488 114.986 248.254 115.742 248.254 116.707C248.254 117.635 248.491 118.368 248.966 118.904C249.44 119.44 250.076 119.708 250.872 119.708C251.683 119.708 252.306 119.445 252.74 118.919C253.179 118.393 253.398 117.646 253.398 116.676C253.398 115.696 253.179 114.941 252.74 114.41C252.306 113.879 251.683 113.614 250.872 113.614ZM257.946 120.58H256.69V108.974H257.946V120.58ZM266.099 120.58H264.844V119.355H264.813C264.267 120.295 263.463 120.764 262.402 120.764C261.621 120.764 261.008 120.557 260.564 120.144C260.125 119.731 259.906 119.182 259.906 118.498C259.906 117.033 260.768 116.181 262.493 115.941L264.844 115.612C264.844 114.28 264.305 113.614 263.228 113.614C262.284 113.614 261.432 113.935 260.671 114.578V113.292C261.442 112.802 262.33 112.557 263.336 112.557C265.178 112.557 266.099 113.532 266.099 115.482V120.58ZM264.844 116.615L262.953 116.875C262.371 116.957 261.932 117.102 261.636 117.311C261.34 117.515 261.192 117.88 261.192 118.406C261.192 118.789 261.327 119.103 261.598 119.348C261.873 119.588 262.238 119.708 262.692 119.708C263.315 119.708 263.828 119.491 264.231 119.057C264.64 118.618 264.844 118.064 264.844 117.396V116.615ZM272.101 120.504C271.805 120.667 271.415 120.749 270.93 120.749C269.557 120.749 268.871 119.983 268.871 118.452V113.813H267.523V112.741H268.871V110.827L270.126 110.421V112.741H272.101V113.813H270.126V118.23C270.126 118.756 270.216 119.131 270.394 119.355C270.573 119.58 270.869 119.692 271.282 119.692C271.599 119.692 271.872 119.606 272.101 119.432V120.504ZM280.079 116.974H274.544C274.564 117.847 274.799 118.521 275.248 118.996C275.697 119.47 276.315 119.708 277.101 119.708C277.984 119.708 278.795 119.417 279.535 118.835V120.014C278.846 120.514 277.935 120.764 276.802 120.764C275.695 120.764 274.824 120.409 274.192 119.7C273.559 118.985 273.242 117.982 273.242 116.691C273.242 115.471 273.587 114.479 274.276 113.713C274.97 112.942 275.83 112.557 276.856 112.557C277.882 112.557 278.675 112.889 279.237 113.552C279.798 114.216 280.079 115.137 280.079 116.316V116.974ZM278.793 115.91C278.788 115.186 278.612 114.622 278.264 114.218C277.922 113.815 277.445 113.614 276.833 113.614C276.241 113.614 275.738 113.825 275.325 114.249C274.911 114.673 274.656 115.226 274.559 115.91H278.793ZM288.676 120.58H287.421V119.248H287.39C286.808 120.259 285.91 120.764 284.695 120.764C283.71 120.764 282.922 120.414 282.33 119.715C281.743 119.011 281.449 118.054 281.449 116.844C281.449 115.548 281.776 114.509 282.429 113.728C283.083 112.947 283.953 112.557 285.04 112.557C286.117 112.557 286.9 112.981 287.39 113.828H287.421V108.974H288.676V120.58ZM287.421 117.036V115.88C287.421 115.247 287.212 114.711 286.793 114.272C286.375 113.833 285.844 113.614 285.201 113.614C284.435 113.614 283.833 113.894 283.394 114.456C282.955 115.017 282.735 115.793 282.735 116.783C282.735 117.686 282.945 118.401 283.363 118.927C283.787 119.447 284.353 119.708 285.063 119.708C285.762 119.708 286.329 119.455 286.762 118.95C287.201 118.444 287.421 117.806 287.421 117.036ZM303.85 109.602L299.785 120.58H298.369L294.388 109.602H295.819L298.859 118.307C298.956 118.587 299.03 118.911 299.081 119.279H299.111C299.152 118.973 299.236 118.643 299.364 118.291L302.465 109.602H303.85ZM316.62 120.58H315.342V113.215C315.342 112.634 315.377 111.922 315.449 111.079H315.418C315.296 111.575 315.186 111.929 315.089 112.144L311.338 120.58H310.71L306.966 112.205C306.859 111.96 306.749 111.585 306.637 111.079H306.606C306.647 111.518 306.668 112.235 306.668 113.231V120.58H305.427V109.602H307.127L310.495 117.258C310.756 117.845 310.924 118.284 311.001 118.575H311.047C311.266 117.972 311.442 117.523 311.575 117.227L315.012 109.602H316.62V120.58Z" fill="black"/>
<rect width="21.0132" height="21.0132" transform="translate(338.72 133.814)" fill="white"/>
<path d="M354.48 149.574C354.844 149.574 355.155 149.446 355.41 149.191C355.666 148.935 355.794 148.625 355.793 148.261C355.793 147.896 355.665 147.586 355.409 147.33C355.154 147.075 354.844 146.947 354.48 146.948C354.115 146.948 353.805 147.076 353.549 147.331C353.293 147.587 353.166 147.897 353.166 148.261C353.166 148.626 353.294 148.936 353.55 149.192C353.805 149.447 354.115 149.575 354.48 149.574ZM354.48 152.201C354.917 152.201 355.326 152.099 355.705 151.895C356.085 151.69 356.399 151.406 356.647 151.041C356.311 150.837 355.961 150.687 355.596 150.592C355.231 150.497 354.859 150.449 354.48 150.45C354.1 150.45 353.728 150.497 353.363 150.592C352.998 150.686 352.648 150.836 352.313 151.041C352.561 151.406 352.874 151.69 353.254 151.895C353.633 152.099 354.042 152.201 354.48 152.201ZM346.6 140.819H351.853V139.068C351.853 138.338 351.598 137.718 351.087 137.207C350.576 136.696 349.956 136.441 349.226 136.441C348.497 136.441 347.877 136.696 347.366 137.207C346.855 137.718 346.6 138.338 346.6 139.068V140.819ZM349.445 153.077H343.973C343.491 153.077 343.079 152.905 342.736 152.562C342.393 152.218 342.221 151.806 342.222 151.325V142.57C342.222 142.088 342.394 141.676 342.737 141.333C343.08 140.99 343.492 140.818 343.973 140.819H344.849V139.068C344.849 137.857 345.276 136.824 346.129 135.97C346.983 135.116 348.016 134.689 349.226 134.69C350.437 134.69 351.47 135.117 352.324 135.971C353.178 136.825 353.605 137.857 353.604 139.068V140.819H354.48C354.961 140.819 355.374 140.99 355.717 141.334C356.06 141.677 356.231 142.089 356.231 142.57V143.708C355.968 143.621 355.694 143.555 355.409 143.511C355.125 143.467 354.815 143.445 354.48 143.445V142.57H343.973V151.325H348.613C348.73 151.676 348.847 151.979 348.964 152.234C349.08 152.49 349.241 152.771 349.445 153.077ZM354.48 153.952C353.268 153.952 352.236 153.525 351.382 152.671C350.528 151.817 350.101 150.785 350.102 149.574C350.102 148.363 350.529 147.331 351.383 146.477C352.237 145.623 353.269 145.196 354.48 145.197C355.691 145.197 356.723 145.624 357.577 146.478C358.431 147.331 358.858 148.364 358.857 149.574C358.857 150.785 358.43 151.818 357.576 152.672C356.722 153.526 355.69 153.953 354.48 153.952Z" fill="#2D7E5D"/>
<path d="M276.313 212.684C276.171 212.684 276.031 212.712 275.899 212.766C275.768 212.82 275.649 212.899 275.549 213C275.448 213.1 275.369 213.219 275.315 213.35C275.26 213.482 275.233 213.622 275.233 213.764L275.233 215.184L274.449 214.923L266.837 214.923L266.838 220.52L274.45 220.52L275.233 220.259L275.233 221.679C275.233 221.821 275.26 221.961 275.314 222.093C275.369 222.224 275.448 222.343 275.548 222.443C275.649 222.544 275.768 222.623 275.899 222.677C276.03 222.732 276.171 222.759 276.313 222.759L279.75 222.759C279.892 222.759 280.032 222.732 280.164 222.677C280.295 222.623 280.414 222.544 280.514 222.443C280.615 222.343 280.694 222.224 280.748 222.093C280.803 221.961 280.83 221.821 280.83 221.679L280.83 220.259L281.614 220.52L289.226 220.52L289.226 214.923L281.614 214.923L280.83 215.184L280.83 213.764C280.831 213.622 280.803 213.482 280.749 213.351C280.694 213.219 280.615 213.1 280.515 213C280.414 212.899 280.295 212.82 280.164 212.766C280.033 212.712 279.892 212.684 279.75 212.684L276.313 212.684ZM267.957 216.042L274.673 216.042L274.673 219.401L267.957 219.401L267.957 216.042ZM281.39 216.042L288.106 216.042L288.106 219.401L281.39 219.401L281.39 216.042ZM279.207 224.749C279.052 224.905 278.868 225.03 278.665 225.115C278.462 225.2 278.245 225.244 278.025 225.245C277.805 225.246 277.587 225.203 277.383 225.119C277.18 225.035 276.995 224.912 276.84 224.756L276.052 225.551C277.142 226.631 278.916 226.625 279.999 225.54L279.207 224.749ZM275.256 226.339L274.469 227.134C276.443 229.09 279.637 229.091 281.592 227.131L280.799 226.341C279.273 227.871 276.804 227.872 275.256 226.339ZM273.675 227.924L272.887 228.72C275.741 231.547 280.351 231.549 283.176 228.717L282.384 227.927C279.988 230.328 276.103 230.33 273.675 227.924Z" fill="#2D7E5D"/>
<rect x="204.114" y="193.686" width="145.676" height="51.8111" rx="5.17429" stroke="#2D7E5D" stroke-width="2.38814"/>
<rect width="105.399" height="33.3988" transform="translate(224.193 175.72)" fill="white"/>
<path d="M238.117 197.92H236.831V186.941H238.117V197.92ZM240.368 197.636V196.289C241.052 196.794 241.805 197.047 242.627 197.047C243.729 197.047 244.28 196.679 244.28 195.944C244.28 195.735 244.232 195.559 244.135 195.416C244.043 195.268 243.915 195.138 243.752 195.026C243.594 194.913 243.405 194.814 243.185 194.727C242.971 194.635 242.739 194.541 242.489 194.444C242.142 194.306 241.835 194.168 241.57 194.03C241.31 193.888 241.09 193.729 240.912 193.556C240.738 193.377 240.605 193.176 240.514 192.951C240.427 192.726 240.383 192.464 240.383 192.162C240.383 191.795 240.468 191.471 240.636 191.19C240.804 190.904 241.029 190.667 241.31 190.478C241.59 190.284 241.909 190.139 242.267 190.042C242.629 189.945 243.002 189.896 243.384 189.896C244.063 189.896 244.671 190.014 245.207 190.249V191.519C244.63 191.142 243.966 190.953 243.216 190.953C242.981 190.953 242.769 190.981 242.581 191.037C242.392 191.088 242.228 191.162 242.091 191.259C241.958 191.356 241.853 191.473 241.777 191.611C241.705 191.744 241.67 191.892 241.67 192.055C241.67 192.259 241.705 192.43 241.777 192.568C241.853 192.706 241.963 192.829 242.106 192.936C242.249 193.043 242.422 193.14 242.627 193.227C242.831 193.313 243.063 193.408 243.323 193.51C243.67 193.643 243.982 193.78 244.257 193.923C244.533 194.061 244.768 194.219 244.962 194.398C245.156 194.571 245.304 194.773 245.406 195.003C245.513 195.232 245.566 195.506 245.566 195.822C245.566 196.21 245.48 196.547 245.306 196.833C245.138 197.118 244.911 197.356 244.625 197.545C244.339 197.733 244.01 197.874 243.637 197.966C243.265 198.057 242.874 198.103 242.466 198.103C241.659 198.103 240.96 197.948 240.368 197.636ZM250.78 198.103C249.621 198.103 248.695 197.738 248.001 197.009C247.312 196.274 246.967 195.301 246.967 194.092C246.967 192.775 247.327 191.746 248.047 191.006C248.767 190.266 249.739 189.896 250.964 189.896C252.133 189.896 253.044 190.256 253.697 190.976C254.355 191.695 254.684 192.693 254.684 193.969C254.684 195.22 254.33 196.223 253.62 196.978C252.916 197.728 251.969 198.103 250.78 198.103ZM250.872 190.953C250.065 190.953 249.427 191.228 248.958 191.78C248.488 192.326 248.254 193.081 248.254 194.046C248.254 194.975 248.491 195.707 248.966 196.243C249.44 196.779 250.076 197.047 250.872 197.047C251.683 197.047 252.306 196.784 252.74 196.258C253.179 195.733 253.398 194.985 253.398 194.015C253.398 193.035 253.179 192.28 252.74 191.749C252.306 191.218 251.683 190.953 250.872 190.953ZM257.946 197.92H256.69V186.313H257.946V197.92ZM266.099 197.92H264.844V196.695H264.813C264.267 197.634 263.463 198.103 262.402 198.103C261.621 198.103 261.008 197.897 260.564 197.483C260.125 197.07 259.906 196.521 259.906 195.837C259.906 194.372 260.768 193.52 262.493 193.28L264.844 192.951C264.844 191.619 264.305 190.953 263.228 190.953C262.284 190.953 261.432 191.274 260.671 191.917V190.631C261.442 190.141 262.33 189.896 263.336 189.896C265.178 189.896 266.099 190.871 266.099 192.821V197.92ZM264.844 193.954L262.953 194.214C262.371 194.296 261.932 194.441 261.636 194.651C261.34 194.855 261.192 195.22 261.192 195.745C261.192 196.128 261.327 196.442 261.598 196.687C261.873 196.927 262.238 197.047 262.692 197.047C263.315 197.047 263.828 196.83 264.231 196.396C264.64 195.957 264.844 195.403 264.844 194.735V193.954ZM272.101 197.843C271.805 198.006 271.415 198.088 270.93 198.088C269.557 198.088 268.871 197.322 268.871 195.791V191.152H267.523V190.08H268.871V188.166L270.126 187.76V190.08H272.101V191.152H270.126V195.569C270.126 196.095 270.216 196.47 270.394 196.695C270.573 196.919 270.869 197.032 271.282 197.032C271.599 197.032 271.872 196.945 272.101 196.771V197.843ZM280.079 194.314H274.544C274.564 195.187 274.799 195.86 275.248 196.335C275.697 196.81 276.315 197.047 277.101 197.047C277.984 197.047 278.795 196.756 279.535 196.174V197.353C278.846 197.853 277.935 198.103 276.802 198.103C275.695 198.103 274.824 197.749 274.192 197.039C273.559 196.325 273.242 195.322 273.242 194.03C273.242 192.811 273.587 191.818 274.276 191.052C274.97 190.282 275.83 189.896 276.856 189.896C277.882 189.896 278.675 190.228 279.237 190.892C279.798 191.555 280.079 192.476 280.079 193.655V194.314ZM278.793 193.25C278.788 192.525 278.612 191.961 278.264 191.558C277.922 191.154 277.445 190.953 276.833 190.953C276.241 190.953 275.738 191.165 275.325 191.588C274.911 192.012 274.656 192.566 274.559 193.25H278.793ZM288.676 197.92H287.421V196.588H287.39C286.808 197.598 285.91 198.103 284.695 198.103C283.71 198.103 282.922 197.754 282.33 197.055C281.743 196.35 281.449 195.393 281.449 194.184C281.449 192.887 281.776 191.849 282.429 191.068C283.083 190.287 283.953 189.896 285.04 189.896C286.117 189.896 286.9 190.32 287.39 191.167H287.421V186.313H288.676V197.92ZM287.421 194.375V193.219C287.421 192.586 287.212 192.05 286.793 191.611C286.375 191.172 285.844 190.953 285.201 190.953C284.435 190.953 283.833 191.234 283.394 191.795C282.955 192.356 282.735 193.132 282.735 194.122C282.735 195.026 282.945 195.74 283.363 196.266C283.787 196.787 284.353 197.047 285.063 197.047C285.762 197.047 286.329 196.794 286.762 196.289C287.201 195.784 287.421 195.146 287.421 194.375ZM303.85 186.941L299.785 197.92H298.369L294.388 186.941H295.819L298.859 195.646C298.956 195.927 299.03 196.251 299.081 196.618H299.111C299.152 196.312 299.236 195.983 299.364 195.631L302.465 186.941H303.85ZM316.62 197.92H315.342V190.555C315.342 189.973 315.377 189.261 315.449 188.419H315.418C315.296 188.914 315.186 189.269 315.089 189.483L311.338 197.92H310.71L306.966 189.544C306.859 189.299 306.749 188.924 306.637 188.419H306.606C306.647 188.858 306.668 189.575 306.668 190.57V197.92H305.427V186.941H307.127L310.495 194.597C310.756 195.184 310.924 195.623 311.001 195.914H311.047C311.266 195.312 311.442 194.862 311.575 194.566L315.012 186.941H316.62V197.92Z" fill="black"/>
<rect width="21.0132" height="21.0132" transform="translate(338.72 211.154)" fill="white"/>
<path d="M354.48 226.914C354.844 226.914 355.155 226.786 355.41 226.53C355.666 226.274 355.794 225.964 355.793 225.6C355.793 225.235 355.665 224.925 355.409 224.67C355.154 224.414 354.844 224.286 354.48 224.287C354.115 224.287 353.805 224.415 353.549 224.67C353.293 224.926 353.166 225.236 353.166 225.6C353.166 225.965 353.294 226.275 353.55 226.531C353.805 226.787 354.115 226.914 354.48 226.914ZM354.48 229.54C354.917 229.54 355.326 229.438 355.705 229.234C356.085 229.029 356.399 228.745 356.647 228.38C356.311 228.176 355.961 228.026 355.596 227.931C355.231 227.836 354.859 227.789 354.48 227.789C354.1 227.789 353.728 227.836 353.363 227.931C352.998 228.026 352.648 228.175 352.313 228.38C352.561 228.745 352.874 229.029 353.254 229.234C353.633 229.438 354.042 229.54 354.48 229.54ZM346.6 218.158H351.853V216.407C351.853 215.677 351.598 215.057 351.087 214.546C350.576 214.036 349.956 213.78 349.226 213.78C348.497 213.78 347.877 214.036 347.366 214.546C346.855 215.057 346.6 215.677 346.6 216.407V218.158ZM349.445 230.416H343.973C343.491 230.416 343.079 230.244 342.736 229.901C342.393 229.558 342.221 229.146 342.222 228.665V219.909C342.222 219.428 342.394 219.015 342.737 218.672C343.08 218.329 343.492 218.158 343.973 218.158H344.849V216.407C344.849 215.196 345.276 214.163 346.129 213.309C346.983 212.455 348.016 212.029 349.226 212.029C350.437 212.029 351.47 212.456 352.324 213.31C353.178 214.164 353.605 215.196 353.604 216.407V218.158H354.48C354.961 218.158 355.374 218.33 355.717 218.673C356.06 219.016 356.231 219.428 356.231 219.909V221.047C355.968 220.96 355.694 220.894 355.409 220.85C355.125 220.807 354.815 220.785 354.48 220.785V219.909H343.973V228.665H348.613C348.73 229.015 348.847 229.318 348.964 229.573C349.08 229.829 349.241 230.11 349.445 230.416ZM354.48 231.291C353.268 231.291 352.236 230.864 351.382 230.01C350.528 229.156 350.101 228.124 350.102 226.914C350.102 225.702 350.529 224.67 351.383 223.816C352.237 222.962 353.269 222.535 354.48 222.536C355.691 222.536 356.723 222.963 357.577 223.817C358.431 224.671 358.858 225.703 358.857 226.914C358.857 228.125 358.43 229.157 357.576 230.011C356.722 230.865 355.69 231.292 354.48 231.291Z" fill="#2D7E5D"/>
<path d="M366.515 72.4094H365.229V61.431H366.515V72.4094ZM375.748 72.4094H374.493V67.9384C374.493 66.2746 373.885 65.4426 372.671 65.4426C372.043 65.4426 371.522 65.6799 371.109 66.1546C370.701 66.6242 370.496 67.2188 370.496 67.9384V72.4094H369.241V64.5699H370.496V65.8713H370.527C371.119 64.8812 371.976 64.3861 373.099 64.3861C373.957 64.3861 374.613 64.6643 375.067 65.2206C375.521 65.7718 375.748 66.5706 375.748 67.6169V72.4094ZM384.285 64.5699L381.161 72.4094H379.928L376.958 64.5699H378.336L380.326 70.2658C380.474 70.6843 380.566 71.0492 380.602 71.3606H380.633C380.684 70.9676 380.765 70.6129 380.878 70.2964L382.96 64.5699H384.285ZM386.283 62.5793C386.058 62.5793 385.867 62.5028 385.708 62.3497C385.55 62.1965 385.471 62.0026 385.471 61.7678C385.471 61.533 385.55 61.3391 385.708 61.186C385.867 61.0278 386.058 60.9486 386.283 60.9486C386.512 60.9486 386.706 61.0278 386.865 61.186C387.028 61.3391 387.11 61.533 387.11 61.7678C387.11 61.9924 387.028 62.1838 386.865 62.342C386.706 62.5002 386.512 62.5793 386.283 62.5793ZM386.895 72.4094H385.64V64.5699H386.895V72.4094ZM393.073 72.3329C392.777 72.4962 392.387 72.5779 391.902 72.5779C390.529 72.5779 389.843 71.8123 389.843 70.2811V65.6417H388.495V64.5699H389.843V62.6559L391.098 62.2501V64.5699H393.073V65.6417H391.098V70.0591C391.098 70.5848 391.188 70.9599 391.366 71.1845C391.545 71.4091 391.841 71.5213 392.254 71.5213C392.571 71.5213 392.844 71.4346 393.073 71.261V72.3329ZM401.051 68.8035H395.516C395.536 69.6763 395.771 70.35 396.22 70.8247C396.669 71.2993 397.287 71.5367 398.073 71.5367C398.956 71.5367 399.767 71.2457 400.507 70.6639V71.8429C399.818 72.3431 398.907 72.5932 397.774 72.5932C396.667 72.5932 395.796 72.2384 395.163 71.529C394.531 70.8145 394.214 69.8115 394.214 68.5203C394.214 67.3004 394.559 66.3077 395.248 65.5421C395.942 64.7715 396.802 64.3861 397.828 64.3861C398.854 64.3861 399.647 64.7179 400.209 65.3814C400.77 66.0449 401.051 66.9661 401.051 68.1451V68.8035ZM399.765 67.7394C399.759 67.0146 399.583 66.4506 399.236 66.0474C398.894 65.6442 398.417 65.4426 397.805 65.4426C397.213 65.4426 396.71 65.6544 396.297 66.0781C395.883 66.5017 395.628 67.0554 395.531 67.7394H399.765Z" fill="black"/>
<path d="M366.515 151.341H365.229V140.362H366.515V151.341ZM375.748 151.341H374.493V146.87C374.493 145.206 373.885 144.374 372.671 144.374C372.043 144.374 371.522 144.611 371.109 145.086C370.701 145.556 370.496 146.15 370.496 146.87V151.341H369.241V143.501H370.496V144.803H370.527C371.119 143.813 371.976 143.317 373.099 143.317C373.957 143.317 374.613 143.596 375.067 144.152C375.521 144.703 375.748 145.502 375.748 146.548V151.341ZM384.285 143.501L381.161 151.341H379.928L376.958 143.501H378.336L380.326 149.197C380.474 149.616 380.566 149.981 380.602 150.292H380.633C380.684 149.899 380.765 149.544 380.878 149.228L382.96 143.501H384.285ZM386.283 141.511C386.058 141.511 385.867 141.434 385.708 141.281C385.55 141.128 385.471 140.934 385.471 140.699C385.471 140.464 385.55 140.27 385.708 140.117C385.867 139.959 386.058 139.88 386.283 139.88C386.512 139.88 386.706 139.959 386.865 140.117C387.028 140.27 387.11 140.464 387.11 140.699C387.11 140.924 387.028 141.115 386.865 141.273C386.706 141.432 386.512 141.511 386.283 141.511ZM386.895 151.341H385.64V143.501H386.895V151.341ZM393.073 151.264C392.777 151.428 392.387 151.509 391.902 151.509C390.529 151.509 389.843 150.744 389.843 149.212V144.573H388.495V143.501H389.843V141.587L391.098 141.182V143.501H393.073V144.573H391.098V148.99C391.098 149.516 391.188 149.891 391.366 150.116C391.545 150.34 391.841 150.453 392.254 150.453C392.571 150.453 392.844 150.366 393.073 150.192V151.264ZM401.051 147.735H395.516C395.536 148.608 395.771 149.281 396.22 149.756C396.669 150.231 397.287 150.468 398.073 150.468C398.956 150.468 399.767 150.177 400.507 149.595V150.774C399.818 151.274 398.907 151.525 397.774 151.525C396.667 151.525 395.796 151.17 395.163 150.46C394.531 149.746 394.214 148.743 394.214 147.452C394.214 146.232 394.559 145.239 395.248 144.474C395.942 143.703 396.802 143.317 397.828 143.317C398.854 143.317 399.647 143.649 400.209 144.313C400.77 144.976 401.051 145.898 401.051 147.077V147.735ZM399.765 146.671C399.759 145.946 399.583 145.382 399.236 144.979C398.894 144.576 398.417 144.374 397.805 144.374C397.213 144.374 396.71 144.586 396.297 145.009C395.883 145.433 395.628 145.987 395.531 146.671H399.765Z" fill="black"/>
<path d="M366.515 228.68H365.229V217.702H366.515V228.68ZM375.748 228.68H374.493V224.209C374.493 222.545 373.885 221.713 372.671 221.713C372.043 221.713 371.522 221.951 371.109 222.425C370.701 222.895 370.496 223.489 370.496 224.209V228.68H369.241V220.841H370.496V222.142H370.527C371.119 221.152 371.976 220.657 373.099 220.657C373.957 220.657 374.613 220.935 375.067 221.491C375.521 222.043 375.748 222.841 375.748 223.888V228.68ZM384.285 220.841L381.161 228.68H379.928L376.958 220.841H378.336L380.326 226.536C380.474 226.955 380.566 227.32 380.602 227.631H380.633C380.684 227.238 380.765 226.884 380.878 226.567L382.96 220.841H384.285ZM386.283 218.85C386.058 218.85 385.867 218.773 385.708 218.62C385.55 218.467 385.471 218.273 385.471 218.039C385.471 217.804 385.55 217.61 385.708 217.457C385.867 217.298 386.058 217.219 386.283 217.219C386.512 217.219 386.706 217.298 386.865 217.457C387.028 217.61 387.11 217.804 387.11 218.039C387.11 218.263 387.028 218.454 386.865 218.613C386.706 218.771 386.512 218.85 386.283 218.85ZM386.895 228.68H385.64V220.841H386.895V228.68ZM393.073 228.604C392.777 228.767 392.387 228.849 391.902 228.849C390.529 228.849 389.843 228.083 389.843 226.552V221.912H388.495V220.841H389.843V218.927L391.098 218.521V220.841H393.073V221.912H391.098V226.33C391.098 226.855 391.188 227.231 391.366 227.455C391.545 227.68 391.841 227.792 392.254 227.792C392.571 227.792 392.844 227.705 393.073 227.532V228.604ZM401.051 225.074H395.516C395.536 225.947 395.771 226.621 396.22 227.095C396.669 227.57 397.287 227.807 398.073 227.807C398.956 227.807 399.767 227.516 400.507 226.935V228.114C399.818 228.614 398.907 228.864 397.774 228.864C396.667 228.864 395.796 228.509 395.163 227.8C394.531 227.085 394.214 226.082 394.214 224.791C394.214 223.571 394.559 222.578 395.248 221.813C395.942 221.042 396.802 220.657 397.828 220.657C398.854 220.657 399.647 220.989 400.209 221.652C400.77 222.316 401.051 223.237 401.051 224.416V225.074ZM399.765 224.01C399.759 223.285 399.583 222.721 399.236 222.318C398.894 221.915 398.417 221.713 397.805 221.713C397.213 221.713 396.71 221.925 396.297 222.349C395.883 222.772 395.628 223.326 395.531 224.01H399.765Z" fill="black"/>
</svg>
