<svg width="46" height="46" viewBox="0 0 46 46" fill="none" xmlns="http://www.w3.org/2000/svg">
<path d="M31.7139 29.3876C31.7139 29.3876 30.217 30.5745 29.8627 30.9288L30.8018 30.1228L31.198 29.8008L31.7139 29.3876ZM31.7139 29.3876C31.7139 29.3876 32.2611 29.0357 32.2662 28.9825M23.7956 24.4099L26.4882 21.7174M26.4882 21.7174L32.8653 15.3402C33.3377 14.7734 34.0699 13.3562 33.2196 12.2225C32.3693 11.0888 30.6924 11.2778 29.9602 11.514L19.7568 21.1505L16.0014 14.7734C14.9858 13.8286 12.5861 12.6193 11.1122 15.3402L13.3797 18.4579C13.9229 19.6389 14.5417 23.1345 12.6711 27.6693C12.1987 30.0312 12.1042 35.1943 15.5054 36.9516C16.6627 38.4396 19.941 41.2739 23.7956 40.707C24.9057 40.5653 27.9053 39.4174 31.023 35.9596C34.1407 32.5018 34.2824 32.4167 34.2824 32.4167C34.6603 31.9444 35.1611 31.0847 34.7076 30.0076C34.2528 28.9275 33.1188 28.6789 32.2662 28.9825M26.4882 21.7174C27.0787 21.6229 28.373 21.6465 28.8265 22.4968C29.3933 23.5597 29.3933 24.2682 29.3225 24.8351C29.3099 24.9359 29.2199 25.0948 29.0788 25.2891M26.8425 27.6693C27.4669 27.0816 28.5854 25.9684 29.0788 25.2891M32.2662 28.9825C32.3242 28.3794 32.8331 26.8049 32.2662 26.1814C31.5577 25.4019 30.9608 25.1762 29.0788 25.2891" stroke="#2D7E5D" stroke-width="2.6933" stroke-linecap="round"/>
<path d="M16.6738 7.99183L19.7007 11.1136" stroke="#2D7E5D" stroke-width="2.6933" stroke-linecap="round"/>
<path d="M27.0425 7.99183L24.0155 11.1136" stroke="#2D7E5D" stroke-width="2.6933" stroke-linecap="round"/>
<path d="M21.8582 4.22274L21.8582 8.57104" stroke="#2D7E5D" stroke-width="2.6933" stroke-linecap="round"/>
<circle cx="29.7819" cy="30.9969" r="1.34665" fill="#2D7E5D"/>
</svg>
