<?xml version="1.0" encoding="UTF-8"?>
<svg viewBox="0 0 156 110" version="1.1" xmlns="http://www.w3.org/2000/svg" xmlns:xlink="http://www.w3.org/1999/xlink">
    <g id="Page-1" stroke="none" stroke-width="1" fill="none" fill-rule="evenodd">
        <g id="youtube-logo-v2" fill-rule="nonzero">
            <path d="M152.483258,17.1 C150.663239,10.3740462 145.409212,5.1200191 138.683258,3.3 C126.583258,0 77.8832577,0 77.8832577,0 C77.8832577,0 29.1832577,0.1 17.0832577,3.4 C10.3573039,5.2200191 5.10327683,10.4740462 3.28325773,17.2 C-0.376742265,38.7 -1.79674227,71.46 3.38325773,92.1 C5.20327683,98.8259538 10.4573039,104.079981 17.1832577,105.9 C29.2832577,109.2 77.9832577,109.2 77.9832577,109.2 C77.9832577,109.2 126.683258,109.2 138.783258,105.9 C145.509212,104.079981 150.763239,98.8259538 152.583258,92.1 C156.443258,70.57 157.633258,37.83 152.483258,17.1 Z" class="fill-current text-green-600"></path>
            <polygon id="Path" fill="#FFFFFF" points="62.3832577 78 102.783258 54.6 62.3832577 31.2"></polygon>
        </g>
    </g>
</svg>