<svg width="45" height="46" viewBox="0 0 45 46" fill="none" xmlns="http://www.w3.org/2000/svg">
<path d="M22.5001 7.929C22.8223 7.929 23.1312 8.05696 23.359 8.28474C23.5867 8.51252 23.7147 8.82145 23.7147 9.14358V12.7873C23.7147 13.1094 23.5867 13.4184 23.359 13.6462C23.1312 13.8739 22.8223 14.0019 22.5001 14.0019C22.178 14.0019 21.8691 13.8739 21.6413 13.6462C21.4135 13.4184 21.2855 13.1094 21.2855 12.7873V9.14358C21.2855 8.82145 21.4135 8.51252 21.6413 8.28474C21.8691 8.05696 22.178 7.929 22.5001 7.929ZM12.1325 12.1363C12.3602 11.9086 12.6691 11.7807 12.9912 11.7807C13.3132 11.7807 13.6221 11.9086 13.8499 12.1363L16.0726 14.3566C16.3006 14.5846 16.4288 14.8939 16.4288 15.2165C16.4288 15.539 16.3006 15.8483 16.0726 16.0764C15.8445 16.3045 15.5352 16.4326 15.2126 16.4326C14.8901 16.4326 14.5808 16.3045 14.3527 16.0764L12.1325 13.8537C11.9048 13.6259 11.7769 13.3171 11.7769 12.995C11.7769 12.6729 11.9048 12.3641 12.1325 12.1363ZM7.92517 22.504C7.92517 22.1818 8.05314 21.8729 8.28091 21.6451C8.50869 21.4173 8.81762 21.2894 9.13975 21.2894H12.9924C13.3145 21.2894 13.6235 21.4173 13.8512 21.6451C14.079 21.8729 14.207 22.1818 14.207 22.504C14.207 22.8261 14.079 23.135 13.8512 23.3628C13.6235 23.5906 13.3145 23.7185 12.9924 23.7185H9.13975C8.81762 23.7185 8.50869 23.5906 8.28091 23.3628C8.05314 23.135 7.92517 22.8261 7.92517 22.504ZM31.0022 22.504C31.0022 22.1818 31.1301 21.8729 31.3579 21.6451C31.5857 21.4173 31.8946 21.2894 32.2168 21.2894H35.8605C36.1826 21.2894 36.4916 21.4173 36.7193 21.6451C36.9471 21.8729 37.0751 22.1818 37.0751 22.504C37.0751 22.8261 36.9471 23.135 36.7193 23.3628C36.4916 23.5906 36.1826 23.7185 35.8605 23.7185H32.2168C31.8946 23.7185 31.5857 23.5906 31.3579 23.3628C31.1301 23.135 31.0022 22.8261 31.0022 22.504ZM32.8338 12.1897C32.6655 12.0223 32.4404 11.9244 32.2032 11.9154C31.966 11.9064 31.7341 11.987 31.5536 12.1412L21.3997 20.8278C21.1658 21.0281 20.9764 21.2749 20.8434 21.5527C20.7105 21.8304 20.6371 22.1328 20.6278 22.4405C20.6185 22.7483 20.6737 23.0546 20.7896 23.3398C20.9056 23.625 21.0799 23.8828 21.3013 24.0967C21.5227 24.3107 21.7864 24.476 22.0754 24.5821C22.3644 24.6882 22.6724 24.7328 22.9797 24.713C23.2869 24.6932 23.5866 24.6094 23.8596 24.467C24.1326 24.3246 24.3728 24.1268 24.5649 23.8861L32.9066 13.448C33.0518 13.2664 33.1248 13.0376 33.1118 12.8054C33.0988 12.5733 33.0007 12.3541 32.8362 12.1897H32.8338Z" fill="#2E7E5D"/>
<path fill-rule="evenodd" clip-rule="evenodd" d="M19.2547 41.6676C16.7379 41.2414 14.3297 40.3237 12.1676 38.9668C10.0055 37.6099 8.13188 35.8405 6.65362 33.7595C3.66814 29.5568 2.47446 24.3402 3.33518 19.2574C4.1959 14.1745 7.04052 9.64181 11.2432 6.65632C15.446 3.67084 20.6626 2.47716 25.7454 3.33788C30.8285 4.1986 35.3616 7.04335 38.3473 11.2463C41.333 15.4493 42.5268 20.6661 41.6661 25.7493C40.8054 30.8325 37.9606 35.3655 33.7577 38.3512C29.5547 41.3369 24.3378 42.5307 19.2547 41.67V41.6676ZM7.92265 31.2635C12.3527 28.7002 17.3819 27.3543 22.5 27.3623C27.8102 27.3623 32.7899 28.7833 37.0774 31.2635C38.6269 28.6833 39.4639 25.7382 39.5027 22.7287C39.5416 19.7193 38.781 16.7535 37.2987 14.1342C35.8164 11.5148 33.6654 9.33588 31.0654 7.81983C28.4655 6.30378 25.5097 5.50497 22.5 5.50497C19.4904 5.50497 16.5346 6.30378 13.9346 7.81983C11.3347 9.33588 9.1837 11.5148 7.70137 14.1342C6.21903 16.7535 5.45846 19.7193 5.49733 22.7287C5.53621 25.7382 6.37314 28.6833 7.92265 31.2635Z" fill="#2E7E5D"/>
</svg>
