<svg width="41" height="40" viewBox="0 0 41 40" fill="none" xmlns="http://www.w3.org/2000/svg">
  <path d="M20.541 2.5C25.1823 2.5 29.6335 4.34374 32.9154 7.62563C36.1973 10.9075 38.041 15.3587 38.041 20C38.041 24.6413 36.1973 29.0925 32.9154 32.3744C29.6335 35.6563 25.1823 37.5 20.541 37.5C15.8997 37.5 11.4485 35.6563 8.16665 32.3744C4.88476 29.0925 3.04102 24.6413 3.04102 20C3.04102 15.3587 4.88476 10.9075 8.16665 7.62563C11.4485 4.34374 15.8997 2.5 20.541 2.5ZM18.361 23.4525L14.4735 19.5625C14.3342 19.4231 14.1687 19.3126 13.9866 19.2372C13.8045 19.1617 13.6094 19.1229 13.4123 19.1229C13.2152 19.1229 13.02 19.1617 12.8379 19.2372C12.6558 19.3126 12.4904 19.4231 12.351 19.5625C12.0696 19.844 11.9114 20.2257 11.9114 20.6238C11.9114 21.0218 12.0696 21.4035 12.351 21.685L17.301 26.635C17.44 26.7751 17.6053 26.8862 17.7874 26.9621C17.9696 27.038 18.165 27.077 18.3623 27.077C18.5596 27.077 18.7549 27.038 18.9371 26.9621C19.1192 26.8862 19.2845 26.7751 19.4235 26.635L29.6735 16.3825C29.8147 16.2437 29.9271 16.0783 30.0041 15.8959C30.0811 15.7135 30.1212 15.5176 30.1221 15.3196C30.123 15.1216 30.0847 14.9254 30.0095 14.7422C29.9342 14.5591 29.8234 14.3927 29.6834 14.2526C29.5435 14.1125 29.3772 14.0015 29.1942 13.926C29.0111 13.8505 28.8149 13.812 28.6169 13.8126C28.4189 13.8133 28.223 13.8532 28.0405 13.93C27.858 14.0068 27.6925 14.1189 27.5535 14.26L18.361 23.4525Z" fill="#2D7E5D"/>
</svg>
