<svg width="1200" height="441" viewBox="0 0 1200 441" fill="none" xmlns="http://www.w3.org/2000/svg">
<rect width="1200" height="440" transform="translate(0 0.0264893)" fill="white"/>
<g opacity="0.32" filter="url(#filter0_d_4469_10480)">
<rect x="419" y="39.0265" width="362" height="362" rx="181" fill="white"/>
<rect x="419.5" y="39.5265" width="361" height="361" rx="180.5" stroke="#00D6FF" stroke-opacity="0.08"/>
</g>
<g opacity="0.59" filter="url(#filter1_d_4469_10480)">
<rect x="465" y="85.0265" width="270" height="270" rx="135" fill="#FDFDFD"/>
<rect x="465.5" y="85.5265" width="269" height="269" rx="134.5" stroke="#00D6FF" stroke-opacity="0.08"/>
</g>
<path d="M53 71.5265H373.22C385.758 71.5265 397.98 75.454 408.171 82.7575L602.5 222.026" stroke="url(#paint0_linear_4469_10480)" stroke-width="2"/>
<path d="M54 373.526H373.22C385.758 373.526 397.98 369.599 408.171 362.296L602.5 223.026" stroke="url(#paint1_linear_4469_10480)" stroke-width="2"/>
<path d="M57 220.026H392.5H606" stroke="url(#paint2_linear_4469_10480)" stroke-width="2"/>
<path d="M1149.5 71.5265H826.78C814.242 71.5265 802.02 75.454 791.829 82.7575L597.5 222.026" stroke="url(#paint3_linear_4469_10480)" stroke-width="2"/>
<path d="M1146.5 373.526H826.78C814.242 373.526 802.02 369.599 791.829 362.296L597.5 223.026" stroke="url(#paint4_linear_4469_10480)" stroke-width="2"/>
<path d="M1149.5 220.026H807.5H594" stroke="url(#paint5_linear_4469_10480)" stroke-width="2"/>
<g filter="url(#filter2_d_4469_10480)">
<rect x="512" y="132.026" width="176" height="176" rx="88" fill="#F9FAFC"/>
<rect x="513.5" y="133.526" width="173" height="173" rx="86.5" stroke="url(#paint6_linear_4469_10480)" stroke-width="3"/>
<g clip-path="url(#clip0_4469_10480)">
<path d="M604.032 182.761L595.683 197.252H595.626L587.362 182.902L604.032 182.761Z" fill="#83FF50" stroke="#83FF50" stroke-width="0.283017" stroke-miterlimit="5.3333"/>
<mask id="mask0_4469_10480" style="mask-type:luminance" maskUnits="userSpaceOnUse" x="564" y="165" width="46" height="21">
<path d="M609.714 185.369H564.884V165.643H609.714V185.369Z" fill="white"/>
</mask>
<g mask="url(#mask0_4469_10480)">
<g opacity="0.83">
<path d="M604.104 182.68L604.076 182.737H604.048V182.765L587.349 182.906V182.878H570.623L570.51 182.68L578.915 168.133H595.727L604.104 182.68Z" fill="#96FF5B" fill-opacity="0.6471"/>
</g>
</g>
<path d="M604.069 182.739L595.72 197.23H595.692L604.041 182.739H604.069Z" fill="white"/>
<path d="M595.731 197.439L595.702 197.496L587.325 211.986H570.542L562.136 197.439L570.542 182.892H570.627L578.891 197.241H595.617L595.731 197.439Z" fill="#00D6FF" stroke="#00D6FF" stroke-width="0.283017" stroke-miterlimit="5.3333"/>
<path d="M595.615 197.239H578.916L570.624 182.89H587.35L595.615 197.239Z" fill="#7DFFFF" stroke="#7DFFFF" stroke-width="0.283017" stroke-miterlimit="5.3333"/>
<path d="M604.156 211.628L604.298 211.854H604.043L597.675 211.911L587.345 211.996L595.722 197.505H612.336L604.156 211.628Z" fill="#32E6FF" stroke="#32E6FF" stroke-width="0.283017" stroke-miterlimit="5.3333"/>
<mask id="mask1_4469_10480" style="mask-type:luminance" maskUnits="userSpaceOnUse" x="583" y="192" width="34" height="40">
<path d="M616.955 231.473H583.021V192.643H616.955V231.473Z" fill="white"/>
</mask>
<g mask="url(#mask1_4469_10480)">
<g opacity="0.86">
<path d="M612.719 226.187L612.465 226.612H595.682L587.276 212.064L587.304 212.008L595.682 197.517H595.71L587.332 211.979L597.663 211.895L604.059 211.838H604.314L612.549 226.187H612.719Z" fill="#00D5FF" fill-opacity="0.5451"/>
</g>
</g>
<path d="M604.155 211.628L604.296 211.854H604.042L595.778 197.505H612.334L604.155 211.628Z" fill="#20E6FF" stroke="#20E6FF" stroke-width="0.283017" stroke-miterlimit="5.3333"/>
<path d="M620.767 211.853H604.295L604.154 211.627L612.305 197.504H612.474L620.767 211.853Z" fill="#2AF0FF" stroke="#2AF0FF" stroke-width="0.283017" stroke-miterlimit="5.3333"/>
<mask id="mask2_4469_10480" style="mask-type:luminance" maskUnits="userSpaceOnUse" x="601" y="209" width="23" height="20">
<path d="M623.662 228.586H601.53V209.482H623.662V228.586Z" fill="white"/>
</mask>
<g mask="url(#mask2_4469_10480)">
<g opacity="0.95">
<path d="M620.876 212.053L612.725 226.176H612.555L604.291 211.855H620.762L620.876 212.053Z" fill="#29EFFF" fill-opacity="0.8"/>
</g>
</g>
<path d="M629.254 197.299L620.849 211.846H620.764L612.5 197.497H595.773L595.66 197.299L595.688 197.242L604.037 182.751V182.723H620.849L629.113 197.044L629.254 197.299Z" fill="#32F8B9" stroke="#32F8B9" stroke-width="0.283017" stroke-miterlimit="5.3333"/>
<mask id="mask3_4469_10480" style="mask-type:luminance" maskUnits="userSpaceOnUse" x="608" y="192" width="34" height="40">
<path d="M641.864 231.473H608.269V192.388H641.864V231.473Z" fill="white"/>
</mask>
<g mask="url(#mask3_4469_10480)">
<g opacity="0.85">
<path d="M637.645 211.833L629.24 226.38L612.457 226.607L620.778 212.258L620.664 212.06H620.749L629.155 197.512L629.013 197.286H629.268L637.645 211.833Z" fill="#32F6B8" fill-opacity="0.5647"/>
</g>
</g>
<path d="M571.313 253.641V237.827H578.084V240.231H573.692V244.544H576.907V246.949H573.692V251.236H578.084V253.641H571.313Z" fill="#090909"/>
<path d="M584.045 241.464L583.156 247.685H584.933L584.045 241.464ZM582.79 250.011L582.215 253.645H579.731L582.424 237.856H585.691L588.331 253.645H585.822L585.273 250.011H582.79Z" fill="#090909"/>
<path d="M595.528 241.653C595.528 240.738 595.084 240.267 594.169 240.267H592.731V245.312H594.169C594.535 245.312 594.874 245.182 595.136 244.92C595.397 244.659 595.528 244.319 595.528 243.953V241.653ZM594.116 237.836C595.45 237.836 596.417 238.202 597.044 238.934C597.593 239.562 597.854 240.476 597.854 241.6V243.901C597.854 245.025 597.436 245.966 596.574 246.75L598.351 253.651H595.763L594.326 247.691H594.116H592.731V253.651H590.352V237.862H594.116V237.836Z" fill="#090909"/>
<path d="M602.133 240.241H599.598V237.836H607.048V240.241H604.512V253.651H602.133V240.241Z" fill="#090909"/>
<path d="M611.336 246.947V253.639H608.957V237.851H611.336V244.543H614.211V237.825H616.59V253.613H614.211V246.947H611.336Z" fill="#090909"/>
<path d="M625.214 253.641H618.731V237.853H621.11V251.262H625.214V253.641Z" fill="#090909"/>
<path d="M627.093 247.023L623.904 237.822H626.518L628.295 243.494L630.046 237.822H632.687L629.471 247.023V253.636H627.093V247.023Z" fill="#090909"/>
<path d="M622.437 262.465C622.437 261.55 621.993 261.079 621.078 261.079H619.64V266.124H621.078C621.444 266.124 621.784 265.994 622.045 265.732C622.306 265.471 622.437 265.131 622.437 264.765V262.465ZM621.026 258.648C622.359 258.648 623.326 259.014 623.953 259.746C624.502 260.374 624.764 261.289 624.764 262.413V264.713C624.764 265.837 624.345 266.778 623.483 267.562L625.26 274.463H622.672L621.235 268.503H621.026H619.64V274.463H617.261V258.675H621.026V258.648Z" fill="#49728B"/>
<path d="M611.003 262.276L610.114 268.497H611.892L611.003 262.276ZM609.748 270.824L609.173 274.457H606.69L609.382 258.669H612.65L615.29 274.457H612.781L612.232 270.824H609.748Z" fill="#49728B"/>
<path d="M599.465 265.938V274.451H597.086V258.663H599.465L602.34 266.999V258.637H604.719V274.425H602.34L599.465 265.938Z" fill="#49728B"/>
<path d="M591.006 274.451C589.06 274.451 587.482 272.873 587.482 270.927V258.663H589.86V270.63C589.86 271.424 590.504 272.068 591.298 272.068C592.092 272.068 592.736 271.424 592.736 270.63V258.637H595.115V270.9C595.115 272.851 593.541 274.437 591.59 274.451H591.006Z" fill="#49728B"/>
<path d="M578.741 274.453V258.639H581.12V261.044V265.357V267.761V272.048H585.511V274.453H578.741Z" fill="#49728B"/>
</g>
</g>
<g filter="url(#filter3_d_4469_10480)">
<rect x="40" y="42.0265" width="307" height="60" rx="8" fill="#F9FAFB"/>
<g clip-path="url(#clip1_4469_10480)">
<path d="M67.0934 58.5265C59.7422 58.5265 53.7812 64.4864 53.7812 71.8386C53.7812 77.7202 57.5956 82.7102 62.8849 84.4704C63.5502 84.5936 63.7944 84.1816 63.7944 83.83C63.7944 83.5126 63.7821 82.464 63.7764 81.3516C60.0729 82.1569 59.2914 79.7809 59.2914 79.7809C58.6859 78.2422 57.8134 77.8331 57.8134 77.8331C56.6056 77.0069 57.9044 77.0239 57.9044 77.0239C59.2412 77.1178 59.9451 78.3957 59.9451 78.3957C61.1324 80.4308 63.0593 79.8424 63.8189 79.5023C63.9384 78.6419 64.2834 78.0546 64.6641 77.7222C61.7073 77.3856 58.599 76.2442 58.599 71.1433C58.599 69.6899 59.1191 68.5024 59.9706 67.5702C59.8324 67.2349 59.3768 65.8809 60.0996 64.0473C60.0996 64.0473 61.2175 63.6895 63.7614 65.4118C64.8232 65.1169 65.962 64.9689 67.0934 64.9639C68.2247 64.9689 69.3644 65.1169 70.4282 65.4118C72.969 63.6895 74.0854 64.0473 74.0854 64.0473C74.81 65.8809 74.3541 67.2349 74.2159 67.5702C75.0694 68.5024 75.5859 69.6899 75.5859 71.1433C75.5859 76.2563 72.4717 77.3821 69.5074 77.7116C69.9849 78.1248 70.4104 78.9349 70.4104 80.1769C70.4104 81.958 70.3949 83.3916 70.3949 83.83C70.3949 84.1843 70.6346 84.5994 71.3093 84.4687C76.5958 82.7064 80.4052 77.7183 80.4052 71.8386C80.4052 64.4864 74.4451 58.5265 67.0934 58.5265ZM58.7671 77.4899C58.7377 77.556 58.6337 77.5758 58.5389 77.5304C58.4424 77.487 58.3881 77.3968 58.4194 77.3305C58.4481 77.2624 58.5524 77.2434 58.6487 77.289C58.7455 77.3325 58.8006 77.4235 58.7671 77.4899ZM59.4219 78.0741C59.3584 78.133 59.2343 78.1057 59.1501 78.0126C59.063 77.9198 59.0467 77.7957 59.1111 77.736C59.1765 77.6771 59.2969 77.7047 59.3842 77.7975C59.4713 77.8914 59.4882 78.0146 59.4219 78.0741ZM59.8711 78.8217C59.7895 78.8784 59.6562 78.8252 59.5737 78.7069C59.4922 78.5885 59.4922 78.4465 59.5755 78.3896C59.6582 78.3328 59.7895 78.3839 59.8731 78.5014C59.9544 78.6218 59.9544 78.7637 59.8711 78.8217ZM60.6308 79.6875C60.5579 79.768 60.4025 79.7463 60.2887 79.6366C60.1723 79.5292 60.1399 79.3769 60.2131 79.2964C60.2869 79.2157 60.4432 79.2384 60.5579 79.3473C60.6734 79.4545 60.7086 79.6079 60.6308 79.6875ZM61.6127 79.9798C61.5805 80.084 61.4308 80.1314 61.2801 80.0871C61.1295 80.0415 61.031 79.9194 61.0614 79.814C61.0927 79.7091 61.243 79.6597 61.3949 79.7071C61.5453 79.7525 61.644 79.8737 61.6127 79.9798ZM62.7301 80.1037C62.7339 80.2135 62.606 80.3046 62.4477 80.3066C62.2886 80.3101 62.1598 80.2212 62.1581 80.1132C62.1581 80.0023 62.2831 79.9122 62.4422 79.9095C62.6005 79.9064 62.7301 79.9946 62.7301 80.1037ZM63.8279 80.0617C63.8468 80.1688 63.7368 80.2788 63.5797 80.3081C63.4251 80.3363 63.2821 80.2702 63.2624 80.164C63.2433 80.0542 63.3552 79.9442 63.5096 79.9157C63.6669 79.8884 63.8078 79.9528 63.8279 80.0617Z" fill="#161614"/>
</g>
<path fill-rule="evenodd" clip-rule="evenodd" d="M124.613 71.5552C124.613 76.7064 120.533 80.8824 115.5 80.8824C110.467 80.8824 106.387 76.7064 106.387 71.5552C106.387 66.4039 110.467 62.2279 115.5 62.2279C120.533 62.2279 124.613 66.4039 124.613 71.5552Z" fill="#D33833"/>
<path d="M106.758 73.8653C106.758 73.8653 106.099 64.1386 115.056 63.8606L114.431 62.8185L109.57 64.4512L108.182 66.0491L106.967 68.3767L106.272 71.0863L106.481 72.8926" fill="#EF3D3A"/>
<path d="M109.258 65.1924C107.659 66.8294 106.67 69.0896 106.67 71.5901C106.67 74.09 107.659 76.3504 109.258 77.9872C110.858 79.6238 113.063 80.6338 115.5 80.6338C117.937 80.6338 120.142 79.6238 121.742 77.9872C123.34 76.3504 124.33 74.09 124.33 71.5901C124.33 69.0896 123.34 66.8294 121.742 65.1924C120.142 63.556 117.937 62.5461 115.5 62.5459C113.063 62.5461 110.858 63.556 109.258 65.1924ZM108.854 78.3831C107.154 76.6442 106.104 74.241 106.104 71.5901C106.104 68.9387 107.154 66.5357 108.854 64.7967C110.552 63.0574 112.904 61.9793 115.5 61.9796C118.096 61.9793 120.448 63.0574 122.146 64.7967C123.846 66.5357 124.896 68.9389 124.896 71.5901C124.896 74.241 123.846 76.6442 122.146 78.3831C120.448 80.1223 118.096 81.2003 115.5 81.2003C112.904 81.2003 110.552 80.1223 108.854 78.3831Z" fill="#231F20"/>
<path fill-rule="evenodd" clip-rule="evenodd" d="M119.336 71.6069L117.948 71.8153L116.073 72.0238L114.858 72.0585L113.677 72.0238L112.775 71.7458L111.976 70.8774L111.351 69.1057L111.212 68.7236L110.379 68.4458L109.893 67.6468L109.546 66.5004L109.928 65.4929L110.83 65.1803L111.559 65.5277L111.907 66.2919L112.323 66.2224L112.462 66.0488L112.323 65.2498L112.289 64.2424L112.497 62.8529L112.489 62.0592L113.122 61.0465L114.233 60.2475L116.177 59.4138L118.329 59.7264L120.204 61.0812L121.072 62.4707L121.627 63.4781L121.766 65.9793L121.35 68.1331L120.586 70.0437L119.857 71.0511" fill="#F0D6B7"/>
<path fill-rule="evenodd" clip-rule="evenodd" d="M118.156 77.6166L113.191 77.825V78.6587L113.608 81.5768L113.399 81.82L109.928 80.6388L109.685 80.222L109.337 76.2966L108.539 73.9344L108.365 73.3786L111.143 71.468L112.011 71.1206L112.774 72.0585L113.434 72.6491L114.198 72.8922L114.545 72.9965L114.962 74.8028L115.274 75.185L116.073 74.907L115.517 75.984L118.538 77.4082L118.156 77.6166Z" fill="#335061"/>
<path fill-rule="evenodd" clip-rule="evenodd" d="M109.928 65.493L110.83 65.1803L111.559 65.5278L111.907 66.292L112.323 66.2225L112.427 65.8056L112.219 65.0067L112.427 63.096L112.254 62.0539L112.879 61.3244L114.233 60.2475L113.851 59.7264L111.941 60.6644L111.143 61.2897L110.691 62.2623L109.997 63.2002L109.789 64.3119L109.928 65.493Z" fill="#6D6B6D"/>
<path fill-rule="evenodd" clip-rule="evenodd" d="M111.351 62.2276C111.351 62.2276 111.872 60.9423 113.955 60.317C116.038 59.6917 114.059 59.8653 114.059 59.8653L111.803 60.7339L110.935 61.6023L110.553 62.2971L111.351 62.2276Z" fill="#DCD9D8"/>
<path fill-rule="evenodd" clip-rule="evenodd" d="M110.31 65.2498C110.31 65.2498 109.581 62.8181 112.358 62.4708L112.254 62.0539L110.344 62.5056L109.789 64.3119L109.928 65.493L110.31 65.2498Z" fill="#DCD9D8"/>
<path fill-rule="evenodd" clip-rule="evenodd" d="M111.421 68.4805L111.875 68.0398C111.875 68.0398 112.08 68.0636 112.115 68.3068C112.15 68.55 112.254 70.7385 113.747 71.9197C113.883 72.0275 112.636 71.7459 112.636 71.7459L111.525 70.009" fill="#F7E4CD"/>
<path fill-rule="evenodd" clip-rule="evenodd" d="M117.809 67.8205C117.809 67.8205 117.89 66.7675 118.173 66.8485C118.457 66.9294 118.457 67.213 118.457 67.213C118.457 67.213 117.768 67.6585 117.809 67.8205Z" fill="#F7E4CD"/>
<path d="M120.69 63.9646C120.69 63.9646 120.118 64.0855 120.065 64.5898C120.013 65.0943 120.69 64.6941 120.794 64.6594" fill="#F7E4CD"/>
<path d="M116.489 63.9993C116.489 63.9993 115.726 64.1035 115.726 64.5898C115.726 65.0762 116.594 65.0415 116.837 64.833" fill="#F7E4CD"/>
<path fill-rule="evenodd" clip-rule="evenodd" d="M111.768 66.2573C111.768 66.2573 110.449 65.4583 110.31 66.2226C110.171 66.9868 109.859 67.5427 110.518 68.3416L110.067 68.2027L109.65 67.1258L109.511 66.0837L110.31 65.2498L111.213 65.3193L111.733 65.7362L111.768 66.2573Z" fill="#F7E4CD"/>
<path fill-rule="evenodd" clip-rule="evenodd" d="M112.393 64.0687C112.393 64.0687 112.983 61.0118 115.969 60.4212C118.427 59.9351 119.718 60.5255 120.204 61.0812C120.204 61.0812 118.017 58.476 115.934 59.2749C113.851 60.0739 112.323 61.5329 112.358 62.4707C112.417 64.0681 112.393 64.0687 112.393 64.0687Z" fill="#F7E4CD"/>
<path fill-rule="evenodd" clip-rule="evenodd" d="M120.447 61.4286C120.447 61.4286 119.44 61.3939 119.406 62.2971C119.406 62.2971 119.405 62.436 119.475 62.575C119.475 62.575 120.274 61.6717 120.759 62.1581" fill="#F7E4CD"/>
<path fill-rule="evenodd" clip-rule="evenodd" d="M116.039 62.669C116.039 62.669 115.865 61.2827 114.684 62.0887C113.92 62.6098 113.99 63.3392 114.129 63.4782C114.267 63.6172 114.23 63.897 114.335 63.7049C114.441 63.5129 114.406 62.8876 114.788 62.714C115.17 62.5402 115.796 62.3462 116.039 62.669Z" fill="#F7E4CD"/>
<path fill-rule="evenodd" clip-rule="evenodd" d="M112.774 72.0585L109.511 73.5175C109.511 73.5175 110.865 78.9019 110.171 80.5694L109.685 80.3958L109.65 78.3462L108.747 74.4555L108.365 73.3786L111.768 71.086L112.774 72.0585Z" fill="#49728B"/>
<path fill-rule="evenodd" clip-rule="evenodd" d="M113.11 75.0367L113.573 75.6019V77.6862H113.018C113.018 77.6862 112.948 76.2272 112.948 76.0535C112.948 75.8797 113.018 75.2545 113.018 75.2545" fill="#49728B"/>
<path fill-rule="evenodd" clip-rule="evenodd" d="M113.122 77.9988L111.56 78.0683L112.011 78.3809L113.122 78.5546" fill="#49728B"/>
<path fill-rule="evenodd" clip-rule="evenodd" d="M118.468 77.6514L119.753 77.6166L120.065 80.8126L118.746 80.9862L118.468 77.6514Z" fill="#335061"/>
<path fill-rule="evenodd" clip-rule="evenodd" d="M118.815 77.6514L120.76 77.5472C120.76 77.5472 121.558 75.5324 121.558 75.4282C121.558 75.3239 122.252 72.5101 122.252 72.5101L120.69 70.8775L120.378 70.5996L119.544 71.4333V74.664L118.815 77.6514Z" fill="#335061"/>
<path fill-rule="evenodd" clip-rule="evenodd" d="M119.683 77.4082L118.468 77.6514L118.642 78.6241C119.093 78.8325 119.857 78.2767 119.857 78.2767" fill="#49728B"/>
<path fill-rule="evenodd" clip-rule="evenodd" d="M119.718 71.3291L122.148 73.1354L122.218 72.3017L120.378 70.5996L119.718 71.3291Z" fill="#49728B"/>
<path fill-rule="evenodd" clip-rule="evenodd" d="M114.327 84.4952L113.608 81.5767L113.25 79.4234L113.191 77.825L116.444 77.6517L118.468 77.6514L118.284 81.2992L118.597 84.113L118.562 84.6341L115.924 84.8425L114.327 84.4952Z" fill="white"/>
<path fill-rule="evenodd" clip-rule="evenodd" d="M118.017 77.6167C118.017 77.6167 117.843 81.2295 118.364 83.8001C118.364 83.8001 117.323 84.4602 115.795 84.6338L118.711 84.5295L119.058 84.3211L118.642 78.6241L118.538 77.4081" fill="#DCD9D8"/>
<path fill-rule="evenodd" clip-rule="evenodd" d="M120.124 80.535L121.478 80.1528L124.047 80.0139L124.429 78.8328L123.735 76.7833L122.936 76.679L121.825 77.0264L120.76 77.5471L120.194 77.4432L119.753 77.6166" fill="white"/>
<path fill-rule="evenodd" clip-rule="evenodd" d="M120.1 79.8399C120.1 79.8399 121.002 79.4231 121.141 79.4578L120.76 77.5471L121.211 77.3735C121.211 77.3735 121.523 79.1799 121.523 79.3883C121.523 79.3883 123.467 79.4925 123.641 79.4925C123.641 79.4925 124.058 78.6935 123.953 77.8598L124.335 78.9714L124.37 79.5967L123.815 80.4304L123.19 80.5694L122.148 80.5346L121.801 80.0831L120.586 80.2567L120.204 80.3958" fill="#DCD9D8"/>
<path d="M118.736 77.3739L117.972 75.4285L117.174 74.2821C117.174 74.2821 117.347 73.7957 117.59 73.7957C117.833 73.7957 118.389 73.7957 118.389 73.7957L119.152 74.0737L119.083 75.359L118.736 77.3739Z" fill="white"/>
<path fill-rule="evenodd" clip-rule="evenodd" d="M118.885 76.7135C118.885 76.7135 117.913 74.8377 117.913 74.5597C117.913 74.5597 118.086 74.1429 118.33 74.2471C118.573 74.3513 119.093 74.6292 119.093 74.6292V73.9691L117.913 73.7259L117.115 73.8301L118.468 77.0261L118.746 77.0609" fill="#DCD9D8"/>
<path d="M114.639 72.1284L113.677 72.0238L112.774 71.7458V72.0585L113.215 72.5452L114.604 73.1705" fill="white"/>
<path fill-rule="evenodd" clip-rule="evenodd" d="M113.087 72.2325C113.087 72.2325 114.164 72.6842 114.511 72.58L114.545 72.9964L113.573 72.7884L112.983 72.3716L113.087 72.2325Z" fill="#DCD9D8"/>
<path fill-rule="evenodd" clip-rule="evenodd" d="M120.121 73.914C119.532 73.8967 118.999 73.8267 118.533 73.6952C118.565 73.5041 118.506 73.3164 118.553 73.1788C118.683 73.0852 118.901 73.0867 119.097 73.0647C118.928 72.9812 118.689 72.9482 118.493 72.9964C118.489 72.8638 118.429 72.7815 118.393 72.6777C118.724 72.5594 119.506 71.784 119.946 72.0408C120.156 72.1629 120.245 72.8605 120.261 73.1997C120.274 73.4811 120.235 73.765 120.121 73.914Z" fill="#D33833"/>
<path d="M120.121 73.914C119.532 73.8967 118.999 73.8267 118.533 73.6952C118.565 73.5041 118.506 73.3164 118.553 73.1788C118.683 73.0852 118.901 73.0867 119.097 73.0647C118.928 72.9812 118.689 72.9482 118.493 72.9964C118.489 72.8638 118.429 72.7815 118.393 72.6777C118.724 72.5594 119.506 71.784 119.946 72.0408C120.156 72.1629 120.245 72.8605 120.261 73.1997C120.274 73.4811 120.235 73.765 120.121 73.914Z" stroke="#D33833" stroke-width="1.43337"/>
<path fill-rule="evenodd" clip-rule="evenodd" d="M117.304 72.9505C117.302 72.9951 117.3 73.04 117.299 73.085C117.115 73.2059 116.818 73.2044 116.616 73.306C116.914 73.3191 117.148 73.3908 117.35 73.4919C117.346 73.6042 117.342 73.7164 117.337 73.8288C117 74.0597 116.692 74.4036 116.295 74.6202C116.108 74.7226 115.449 74.9862 115.249 74.9396C115.136 74.9133 115.126 74.7731 115.081 74.6408C114.985 74.3577 114.763 73.907 114.744 73.4807C114.719 72.9423 114.665 72.0401 115.245 72.1509C115.713 72.2403 116.257 72.4559 116.619 72.6539C116.84 72.775 116.968 72.9246 117.304 72.9505Z" fill="#D33833"/>
<path d="M117.304 72.9505C117.302 72.9951 117.3 73.04 117.299 73.085C117.115 73.2059 116.818 73.2044 116.616 73.306C116.914 73.3191 117.148 73.3908 117.35 73.4919C117.346 73.6042 117.342 73.7164 117.337 73.8288C117 74.0597 116.692 74.4036 116.295 74.6202C116.108 74.7226 115.449 74.9862 115.249 74.9396C115.136 74.9133 115.126 74.7731 115.081 74.6408C114.985 74.3577 114.763 73.907 114.744 73.4807C114.719 72.9423 114.665 72.0401 115.245 72.1509C115.713 72.2403 116.257 72.4559 116.619 72.6539C116.84 72.775 116.968 72.9246 117.304 72.9505Z" stroke="#D33833" stroke-width="1.43337"/>
<path fill-rule="evenodd" clip-rule="evenodd" d="M117.639 73.5928C117.587 73.2996 117.528 73.2159 117.551 72.9601C118.332 72.4385 118.479 73.8558 117.639 73.5928Z" fill="#D33833"/>
<path d="M117.639 73.5928C117.587 73.2996 117.528 73.2159 117.551 72.9601C118.332 72.4385 118.479 73.8558 117.639 73.5928Z" stroke="#D33833" stroke-width="1.43337"/>
<path fill-rule="evenodd" clip-rule="evenodd" d="M118.771 73.8306C118.771 73.8306 118.527 73.4831 118.701 73.3789C118.875 73.2747 119.048 73.379 119.152 73.2053C119.257 73.0315 119.152 72.9273 119.187 72.7189C119.222 72.5105 119.396 72.4757 119.569 72.4409C119.743 72.4063 120.229 72.3367 120.298 72.5105L120.09 71.8852L119.673 71.7463L118.354 72.5105L118.284 72.8926V73.6568" fill="#EF3D3A"/>
<path fill-rule="evenodd" clip-rule="evenodd" d="M115.125 74.977C115.083 74.4348 115.039 73.8934 114.99 73.3518C114.917 72.5431 115.184 72.6842 115.885 72.6842C115.992 72.6842 116.544 72.8119 116.583 72.8926C116.773 73.2796 116.267 73.1936 116.801 73.4854C117.253 73.7317 118.05 73.3359 117.868 72.7884C117.766 72.6667 117.336 72.7505 117.182 72.6706C116.911 72.5299 116.64 72.3892 116.368 72.2485C116.023 72.0693 115.226 71.8082 114.858 72.0585C113.926 72.6928 114.917 74.2779 115.249 74.9396" fill="#EF3D3A"/>
<path fill-rule="evenodd" clip-rule="evenodd" d="M116.039 62.669C115.093 62.4485 114.623 63.0653 114.336 63.7049C114.08 63.6428 114.182 63.2943 114.246 63.1167C114.416 62.6507 115.098 62.0303 115.656 62.1144C115.896 62.1506 116.221 62.3702 116.039 62.669Z" fill="#231F20"/>
<path fill-rule="evenodd" clip-rule="evenodd" d="M120.649 63.7473C120.664 63.7479 120.679 63.7484 120.694 63.749C120.908 64.1935 121.093 64.6643 121.362 65.0567C121.182 65.4778 119.994 65.8505 120.012 65.0943C120.269 64.982 120.713 65.0714 120.94 64.9279C120.809 64.5664 120.619 64.2586 120.649 63.7473Z" fill="#231F20"/>
<path fill-rule="evenodd" clip-rule="evenodd" d="M116.523 63.7589C116.726 64.131 116.792 64.522 117.08 64.8033C117.21 64.9299 117.463 65.0843 117.338 65.4364C117.308 65.5195 117.095 65.7046 116.971 65.741C116.52 65.8742 115.47 65.7685 115.825 65.2061C116.198 65.2235 116.699 65.4484 116.978 65.1775C116.764 64.8352 116.383 64.1579 116.523 63.7589Z" fill="#231F20"/>
<path fill-rule="evenodd" clip-rule="evenodd" d="M120.48 67.5412C119.801 67.9775 119.044 68.452 117.932 68.342C117.694 68.1352 117.603 67.6751 117.834 67.3712C117.955 67.578 117.879 67.9583 118.214 68.0155C118.845 68.1236 119.58 67.6291 120.034 67.4564C120.315 66.9815 120.009 66.8068 119.756 66.5011C119.237 65.8749 118.54 65.0987 118.566 64.1612C118.775 64.0089 118.793 64.3936 118.824 64.4636C119.095 65.0985 119.777 65.9104 120.275 66.4538C120.397 66.5876 120.599 66.716 120.621 66.8045C120.686 67.0618 120.453 67.3701 120.48 67.5412Z" fill="#231F20"/>
<path fill-rule="evenodd" clip-rule="evenodd" d="M111.53 67.0818C111.317 66.9603 111.266 66.4251 111.017 66.4098C110.66 66.3881 110.725 67.1042 110.726 67.5229C110.48 67.2997 110.437 66.6124 110.618 66.2594C110.412 66.1584 110.32 66.3709 110.206 66.4459C110.353 65.3798 111.765 65.9514 111.53 67.0818Z" fill="#231F20"/>
<path fill-rule="evenodd" clip-rule="evenodd" d="M120.912 67.9852C120.596 68.587 120.149 69.2498 119.222 69.2691C119.203 69.0747 119.188 68.779 119.223 68.6619C119.932 68.5938 120.369 68.2328 120.912 67.9852Z" fill="#231F20"/>
<path fill-rule="evenodd" clip-rule="evenodd" d="M116.47 68.3753C117.061 68.6865 118.148 68.72 118.952 68.6964C118.995 68.8726 118.994 69.0904 118.996 69.3052C117.962 69.3568 116.741 69.101 116.47 68.3753Z" fill="#231F20"/>
<path fill-rule="evenodd" clip-rule="evenodd" d="M116.357 68.9556C116.766 69.9831 118.172 69.8648 119.357 69.8364C119.305 69.9698 119.192 70.1274 119.051 70.1844C118.671 70.3391 117.624 70.4564 117.096 70.1762C116.762 69.9983 116.547 69.5963 116.364 69.3607C116.275 69.2469 115.835 68.9562 116.357 68.9556Z" fill="#231F20"/>
<path fill-rule="evenodd" clip-rule="evenodd" d="M120.43 74.6231C119.95 75.4456 119.491 76.2903 118.922 77.0158C119.161 76.3135 119.263 75.138 119.299 74.2419C119.798 74.008 120.226 74.2945 120.43 74.6231Z" fill="#81B0C4"/>
<path fill-rule="evenodd" clip-rule="evenodd" d="M123.013 77.5792C122.476 77.6868 122.098 78.2094 121.574 78.1758C121.862 77.7695 122.367 77.5981 123.013 77.5792Z" fill="#231F20"/>
<path fill-rule="evenodd" clip-rule="evenodd" d="M123.25 78.4206C122.812 78.4669 122.298 78.5378 121.854 78.5013C122.064 78.1799 122.874 78.2908 123.25 78.4206Z" fill="#231F20"/>
<path fill-rule="evenodd" clip-rule="evenodd" d="M123.402 79.146C122.91 79.1567 122.298 79.1469 121.83 79.1076C122.107 78.8101 123.083 78.9972 123.402 79.146Z" fill="#231F20"/>
<path fill-rule="evenodd" clip-rule="evenodd" d="M119.504 81.1312C119.575 81.7498 119.82 82.3765 119.789 83.0539C119.517 83.1457 119.361 83.226 118.996 83.2255C118.971 82.6499 118.894 81.7698 118.917 81.221C119.096 81.2328 119.36 81.0928 119.504 81.1312Z" fill="#DCD9D8"/>
<path fill-rule="evenodd" clip-rule="evenodd" d="M118.711 72.0153C118.464 72.1767 118.253 72.3783 118.016 72.5507C117.489 72.5767 117.202 72.5142 116.815 72.2118C116.822 72.1875 116.861 72.1983 116.862 72.1685C117.426 72.4198 118.142 72.0662 118.711 72.0153Z" fill="#F0D6B7"/>
<path fill-rule="evenodd" clip-rule="evenodd" d="M115.753 75.8586C115.907 75.1873 116.514 74.8397 117.065 74.47C117.634 75.1921 117.979 76.1206 118.36 77.0166C117.46 76.7453 116.541 76.305 115.753 75.8586Z" fill="#81B0C4"/>
<path fill-rule="evenodd" clip-rule="evenodd" d="M118.916 81.2209C118.893 81.7697 118.97 82.6498 118.996 83.2255C119.361 83.226 119.517 83.1457 119.789 83.0539C119.82 82.3764 119.575 81.7497 119.504 81.1312C119.36 81.0927 119.096 81.2328 118.916 81.2209ZM113.239 78.0998C113.479 80.3116 113.827 82.1708 114.466 84.1294C115.884 84.5601 117.593 84.5976 118.846 84.2089C118.616 83.1036 118.716 81.7578 118.582 80.5781C118.48 79.6915 118.532 78.7994 118.393 77.8948C116.875 77.5787 114.729 77.8209 113.239 78.0998ZM118.752 77.9087C118.739 78.8586 118.795 79.7956 118.867 80.7467C119.232 80.6919 119.479 80.6553 119.818 80.5811C119.708 79.6654 119.721 78.6351 119.497 77.8252C119.238 77.8277 119.01 77.8222 118.752 77.9087ZM120.601 77.7556C120.428 77.7159 120.227 77.754 120.062 77.7572C120.139 78.5316 120.328 79.386 120.394 80.1988C120.654 80.2069 120.793 80.0842 121.007 80.0429C121.019 79.3294 120.945 78.3465 120.601 77.7556ZM123.401 80.3154C123.943 80.1837 124.284 79.5193 124.133 78.837C124.031 78.3785 123.85 77.515 123.656 77.2217C123.512 77.0047 123.124 76.7206 122.814 76.9195C122.309 77.2429 121.42 77.3367 121.052 77.7282C121.236 78.343 121.294 79.1876 121.37 79.9667C122 80.006 122.776 79.793 123.3 80.019C122.934 80.1377 122.459 80.1386 122.143 80.3116C122.401 80.4365 123.007 80.4113 123.401 80.3154ZM118.36 77.0166C117.979 76.1206 117.634 75.192 117.065 74.47C116.514 74.8396 115.908 75.1873 115.753 75.8585C116.541 76.3049 117.46 76.7452 118.36 77.0166ZM119.299 74.2419C119.263 75.138 119.161 76.3135 118.922 77.0158C119.491 76.2903 119.95 75.4455 120.43 74.6231C120.226 74.2945 119.798 74.008 119.299 74.2419ZM118.235 73.8636C118.019 73.8403 117.836 74.1117 117.555 73.9944C117.491 74.0654 117.433 74.1425 117.367 74.2119C117.987 74.9589 118.268 76.0187 118.747 76.8966C119.003 76.0533 118.974 75.1294 119.03 74.209C118.678 74.2314 118.482 73.8898 118.235 73.8636ZM117.551 72.96C117.528 73.2159 117.587 73.2996 117.638 73.5928C118.479 73.8558 118.332 72.4385 117.551 72.96ZM116.618 72.6538C116.256 72.4558 115.712 72.2402 115.244 72.1509C114.665 72.0399 114.719 72.9423 114.744 73.4807C114.763 73.9069 114.984 74.3576 115.081 74.6408C115.126 74.773 115.136 74.9133 115.249 74.9396C115.449 74.9861 116.107 74.7226 116.295 74.6202C116.692 74.4036 117 74.0597 117.337 73.8287C117.341 73.7164 117.346 73.6042 117.35 73.4918C117.147 73.3907 116.913 73.319 116.616 73.306C116.818 73.2044 117.114 73.2059 117.298 73.085C117.3 73.0399 117.302 72.995 117.304 72.9504C116.968 72.9246 116.84 72.775 116.618 72.6538ZM113.159 72.0251C112.859 72.3305 114.002 72.7467 114.366 72.7691C114.364 72.5759 114.476 72.3937 114.454 72.2551C114.021 72.1791 113.453 72.2293 113.159 72.0251ZM116.862 72.1685C116.861 72.1983 116.822 72.1875 116.815 72.2118C117.202 72.5142 117.489 72.5767 118.016 72.5507C118.253 72.3783 118.464 72.1768 118.711 72.0153C118.142 72.0662 117.425 72.4198 116.862 72.1685ZM120.261 73.1997C120.244 72.8605 120.155 72.1629 119.946 72.0407C119.506 71.7839 118.724 72.5594 118.393 72.6777C118.429 72.7815 118.488 72.8637 118.493 72.9964C118.689 72.9481 118.927 72.9812 119.097 73.0647C118.901 73.0866 118.683 73.0852 118.553 73.1788C118.506 73.3164 118.565 73.504 118.533 73.6952C118.999 73.8267 119.532 73.8967 120.121 73.914C120.235 73.765 120.274 73.4811 120.261 73.1997ZM112.653 72.3205C112.559 72.2531 111.92 71.4218 111.833 71.4563C110.677 71.9122 109.597 72.7006 108.632 73.4463C109.552 75.4226 109.924 77.844 109.989 80.1777C111.044 80.6712 111.97 81.3826 113.401 81.4569C113.235 80.2847 113.084 79.2388 112.99 78.1352C112.631 77.9836 112.115 78.1421 111.778 78.0882C111.775 77.6825 112.292 77.9105 112.335 77.6377C112.368 77.4314 112.051 77.4157 112.154 77.0908C112.417 77.1865 112.555 77.3978 112.836 77.4771C113.092 76.916 112.832 75.9233 112.869 75.4543C112.876 75.3662 112.913 74.9665 113.11 75.0366C113.285 75.0987 113.1 76.0998 113.119 76.5437C113.137 76.9526 113.07 77.3483 113.235 77.605C114.618 77.4167 116.023 77.295 117.519 77.2539C117.19 77.1126 116.799 76.9789 116.37 76.7371C116.138 76.606 115.405 76.3333 115.338 76.1124C115.231 75.7605 115.619 75.573 115.685 75.2713C114.987 75.6522 114.851 74.9062 114.686 74.3778C114.537 73.8991 114.451 73.5415 114.415 73.2655C113.814 72.9787 113.171 72.6882 112.653 72.3205ZM119.65 71.5569C120.613 71.0898 120.786 73.3026 120.409 74.0154C120.467 74.228 120.668 74.3094 120.75 74.5005C120.212 75.4634 119.616 76.3623 119.068 77.3139C119.475 77.06 120.058 77.2685 120.538 77.0784C120.713 77.009 120.84 76.6072 120.973 76.2858C121.338 75.4016 121.721 74.2868 121.892 73.443C121.931 73.2507 122.036 72.8317 122.012 72.6606C121.97 72.3542 121.555 72.127 121.343 71.9376C120.954 71.5876 120.709 71.2796 120.303 70.9524C120.138 71.1957 119.785 71.3591 119.65 71.5569ZM110.452 63.0146C109.993 63.5196 110.089 64.4659 110.144 65.1391C110.974 64.6172 112.074 65.1804 112.064 66.0681C112.46 66.0576 112.212 65.5734 112.14 65.2615C111.906 64.2427 112.534 63.1358 112.168 62.2041C111.458 62.258 110.875 62.5482 110.452 63.0146ZM113.734 60.0834C112.695 60.378 111.364 61.133 110.938 62.0664C111.268 62.0184 111.498 61.8517 111.823 61.831C111.947 61.823 112.108 61.8827 112.25 61.8475C112.532 61.7775 112.77 61.1445 112.983 60.9089C113.19 60.6789 113.44 60.5807 113.61 60.371C113.72 60.318 113.882 60.3217 113.888 60.1569C113.841 60.1061 113.791 60.0673 113.734 60.0834ZM119.14 60.3605C118.062 59.7519 116.237 59.2942 115.091 59.8662C114.166 60.3277 112.915 61.0914 112.489 62.0591C112.887 62.993 112.371 63.8487 112.338 64.7969C112.32 65.3014 112.575 65.7418 112.595 66.291C112.458 66.516 112.042 66.5437 111.754 66.5283C111.657 66.0425 111.487 65.4964 110.987 65.4415C110.279 65.3641 109.762 65.95 109.73 66.5623C109.692 67.2823 110.283 68.4757 111.12 68.3928C111.443 68.3608 111.523 68.0364 111.875 68.0397C112.066 68.4211 111.581 68.5408 111.531 68.8135C111.518 68.884 111.571 69.1593 111.602 69.2884C111.754 69.9172 112.093 70.7309 112.427 71.2095C112.85 71.8167 113.682 71.9082 114.577 71.9677C114.737 71.6231 115.326 71.6514 115.71 71.7415C115.25 71.5593 114.822 71.1174 114.468 70.7263C114.061 70.2775 113.649 69.7962 113.628 69.2096C114.397 70.2774 115.033 71.2099 116.431 71.6796C117.49 72.0348 118.726 71.5169 119.539 70.9455C119.876 70.7079 120.078 70.3311 120.318 69.9861C121.215 68.6944 121.634 66.8506 121.542 65.0636C121.504 64.3266 121.506 63.592 121.259 63.0962C121 62.5777 120.127 62.1139 119.615 62.5828C119.52 62.0786 120.04 61.7668 120.651 61.9483C120.216 61.3858 119.759 60.71 119.14 60.3605ZM121.148 76.9897C121.99 76.5708 123.564 75.862 124.092 76.9913C124.287 77.4075 124.515 78.1112 124.616 78.5408C124.759 79.1471 124.462 80.4212 123.839 80.6246C123.289 80.8043 122.647 80.7933 121.985 80.6602C121.907 80.5952 121.82 80.4821 121.759 80.3641C121.286 80.3457 120.843 80.3895 120.469 80.5841C120.505 80.9341 120.268 80.9903 120.046 81.0624C119.882 81.7149 120.375 82.567 120.257 83.1619C120.173 83.5858 119.652 83.6513 119.269 83.7306C119.256 83.9662 119.285 84.1628 119.312 84.3621C119.224 84.685 118.831 84.8688 118.459 84.9139C117.234 85.0612 115.375 85.1274 114.197 84.7036C113.868 83.8968 113.609 82.9155 113.335 81.9942C112.186 82.1169 111.257 81.4981 110.381 81.0927C110.078 80.952 109.658 80.8745 109.545 80.633C109.435 80.3991 109.48 79.9509 109.453 79.5274C109.383 78.446 109.324 77.4029 109.038 76.2956C108.91 75.7987 108.687 75.3603 108.531 74.8815C108.387 74.4378 108.135 73.8894 108.07 73.4469C107.973 72.7911 108.59 72.7546 108.984 72.4704C109.594 72.031 110.073 71.7879 110.734 71.3913C110.93 71.2738 111.52 70.9765 111.587 70.8396C111.72 70.5681 111.358 70.1853 111.261 69.9725C111.108 69.636 111.028 69.3501 111.006 69.0181C110.451 68.9305 110.031 68.6004 109.778 68.2282C109.358 67.6123 109.067 66.4729 109.43 65.6061C109.458 65.5379 109.6 65.4036 109.621 65.2988C109.663 65.0923 109.544 64.8178 109.536 64.5982C109.498 63.4717 109.727 62.501 110.485 62.1613C110.792 60.9348 111.894 60.527 112.931 59.9174C113.319 59.6896 113.746 59.544 114.188 59.3815C115.772 58.7982 118.202 58.908 119.517 59.9028C120.074 60.3247 120.965 61.2154 121.284 61.8603C122.126 63.5629 122.066 66.4082 121.477 68.4793C121.398 68.7574 121.283 69.1661 121.123 69.5001C121.011 69.7333 120.664 70.2 120.706 70.4059C120.749 70.6188 121.498 71.1875 121.658 71.3424C121.948 71.6214 122.497 71.9917 122.541 72.3437C122.589 72.7183 122.376 73.2309 122.268 73.5924C121.908 74.7989 121.556 75.9141 121.148 76.9897Z" fill="#231F20"/>
<path fill-rule="evenodd" clip-rule="evenodd" d="M115.529 68.6382C115.574 68.5773 115.826 68.4849 116.177 68.6542C116.177 68.6542 115.761 68.7238 115.795 69.4187L115.622 69.3839C115.622 69.3839 115.442 68.7537 115.529 68.6382Z" fill="#F7E4CD"/>
<path fill-rule="evenodd" clip-rule="evenodd" d="M118.573 74.6119C118.573 74.7174 118.487 74.8029 118.382 74.8029C118.276 74.8029 118.191 74.7174 118.191 74.6119C118.191 74.5064 118.276 74.4207 118.382 74.4207C118.487 74.4207 118.573 74.5064 118.573 74.6119Z" fill="#1D1919"/>
<path fill-rule="evenodd" clip-rule="evenodd" d="M118.764 75.4977C118.764 75.6032 118.678 75.6887 118.573 75.6887C118.467 75.6887 118.382 75.6032 118.382 75.4977C118.382 75.3922 118.467 75.3065 118.573 75.3065C118.678 75.3065 118.764 75.3922 118.764 75.4977Z" fill="#1D1919"/>
<path d="M163.499 84.1388L168.337 69.2347H158.669L163.499 84.1388Z" fill="#E24329"/>
<path d="M151.892 69.2347L150.419 73.7628C150.286 74.1739 150.43 74.6278 150.782 74.8841L163.499 84.1387L151.892 69.2347Z" fill="#FCA326"/>
<path d="M151.893 69.2347H158.669L155.752 60.2588C155.603 59.7995 154.953 59.7995 154.798 60.2588L151.893 69.2347Z" fill="#E24329"/>
<path d="M175.113 69.2347L176.581 73.7628C176.714 74.1739 176.57 74.6278 176.218 74.8841L163.499 84.1387L175.113 69.2347Z" fill="#FCA326"/>
<path d="M175.113 69.2347H168.337L171.248 60.2588C171.397 59.7995 172.048 59.7995 172.202 60.2588L175.113 69.2347Z" fill="#E24329"/>
<path d="M163.499 84.1387L168.337 69.2347H175.113L163.499 84.1387Z" fill="#FC6D26"/>
<path d="M163.499 84.1387L151.893 69.2347H158.669L163.499 84.1387Z" fill="#FC6D26"/>
<text fill="#111827" xml:space="preserve" style="white-space: pre" font-size="14" font-weight="bold" letter-spacing="-0.03em"><tspan x="217.916" y="77.1027">CI/CD Workflows</tspan></text>
</g>
<g filter="url(#filter4_d_4469_10480)">
<rect x="40" y="343.026" width="307" height="60" rx="8" fill="#F9FAFB"/>
<path d="M75.7941 363.489C74.6973 362.387 73.3927 361.514 71.9559 360.919C70.5191 360.325 68.9786 360.021 67.4236 360.027C64.2825 360.035 61.2727 361.287 59.0521 363.509C56.8315 365.731 55.5808 368.741 55.5735 371.882V373.889L57.1332 372.826C58.5015 371.885 60.1871 371.525 61.8207 371.824C62.98 372.03 64.0543 372.569 64.9132 373.374C65.11 372.937 65.3439 372.518 65.6123 372.122C65.7237 371.957 65.8426 371.8 65.9642 371.646C64.8784 370.731 63.5711 370.118 62.1735 369.868C61.6812 369.778 61.1819 369.733 60.6816 369.733C59.659 369.732 58.6453 369.922 57.693 370.295C58.0736 367.985 59.2613 365.886 61.0447 364.37C62.8281 362.855 65.0915 362.021 67.432 362.018C69.767 362.019 72.0257 362.849 73.8045 364.362C75.5833 365.875 76.7663 367.971 77.1422 370.275C76.1863 369.902 75.1695 369.709 74.1434 369.707H73.9986C73.8927 369.707 73.7869 369.707 73.6839 369.717C73.5028 369.727 73.3236 369.743 73.1454 369.764C73.0925 369.769 73.0405 369.778 72.9875 369.785C72.8604 369.803 72.7332 369.821 72.6069 369.844L72.4407 369.877C72.3126 369.903 72.1857 369.932 72.0601 369.963L71.9245 369.998C71.7661 370.04 71.6092 370.088 71.4538 370.14L71.426 370.149C71.0761 370.269 70.7349 370.412 70.4047 370.579L70.3778 370.593C70.2237 370.671 70.0721 370.754 69.9229 370.842L69.8858 370.865C69.1005 371.336 68.4024 371.938 67.8219 372.646L67.7495 372.739C67.6223 372.899 67.4979 373.062 67.3781 373.233C67.2788 373.379 67.1869 373.526 67.0996 373.677L67.0402 373.78C66.9594 373.921 66.8814 374.064 66.809 374.209L66.797 374.233C66.6302 374.571 66.4869 374.919 66.368 375.277C66.0766 376.151 65.9357 377.068 65.9512 377.989C65.9512 378.026 65.9512 378.063 65.9512 378.1C65.9512 378.171 65.9567 378.244 65.9605 378.316C65.9605 378.374 65.967 378.43 65.9716 378.488C65.9762 378.545 65.9809 378.609 65.9874 378.674C65.9939 378.738 66.0032 378.822 66.0125 378.896C66.018 378.944 66.0236 378.989 66.0301 379.038C66.0477 379.162 66.0672 379.285 66.0914 379.41C66.4869 381.519 67.6956 383.389 69.4568 384.615L69.6834 384.76C70.6956 385.417 71.8403 385.842 73.0358 386.005L73.1974 386.026L74.3978 384.1L73.9661 384.088C72.3712 384.044 70.8549 383.386 69.733 382.251C68.6111 381.117 67.9701 379.594 67.9436 377.998C67.917 376.403 68.5069 374.859 69.5904 373.688C70.6739 372.517 72.1675 371.809 73.76 371.711L73.9661 371.703C75.2958 371.674 76.601 372.064 77.6973 372.817L79.2506 373.874V371.877C79.2585 370.319 78.9571 368.776 78.3637 367.336C77.7704 365.897 76.8969 364.589 75.7941 363.489Z" fill="#E0225C"/>
<path d="M99.7332 370.094C99.6621 370.094 99.6443 370.064 99.6799 370.018L100.053 369.603C100.089 369.557 100.177 369.526 100.248 369.526H106.591C106.662 369.526 106.68 369.573 106.644 369.619L106.342 370.018C106.307 370.064 106.218 370.11 106.165 370.11L99.7332 370.094Z" fill="#00ACD7"/>
<path d="M96.8167 371.86C96.7458 371.86 96.7281 371.828 96.7636 371.781L97.1353 371.355C97.1707 371.308 97.2593 371.276 97.3301 371.276H105.403C105.474 371.276 105.509 371.324 105.491 371.371L105.35 371.749C105.332 371.812 105.261 371.844 105.19 371.844L96.8167 371.86Z" fill="#00ACD7"/>
<path d="M101.484 373.594C101.413 373.594 101.395 373.548 101.431 373.502L101.678 373.119C101.713 373.073 101.784 373.026 101.855 373.026H105.39C105.461 373.026 105.496 373.073 105.496 373.134L105.461 373.502C105.461 373.564 105.39 373.61 105.337 373.61L101.484 373.594Z" fill="#00ACD7"/>
<path d="M120.09 369.937C118.945 370.229 118.163 370.448 117.037 370.74C116.764 370.813 116.746 370.831 116.51 370.557C116.237 370.247 116.037 370.047 115.656 369.864C114.511 369.299 113.402 369.463 112.366 370.138C111.131 370.941 110.495 372.127 110.513 373.604C110.531 375.064 111.531 376.268 112.966 376.469C114.202 376.633 115.238 376.195 116.055 375.265C116.219 375.064 116.364 374.845 116.546 374.59C115.892 374.59 115.074 374.59 113.039 374.59C112.657 374.59 112.566 374.352 112.694 374.042C112.93 373.477 113.366 372.528 113.62 372.054C113.675 371.944 113.802 371.762 114.075 371.762C115.001 371.762 118.418 371.762 120.689 371.762C120.653 372.254 120.653 372.747 120.58 373.239C120.38 374.553 119.89 375.757 119.09 376.815C117.782 378.549 116.074 379.625 113.911 379.917C112.13 380.154 110.477 379.808 109.023 378.713C107.678 377.691 106.915 376.341 106.715 374.663C106.479 372.674 107.06 370.886 108.26 369.317C109.55 367.62 111.258 366.544 113.348 366.16C115.056 365.85 116.691 366.051 118.163 367.054C119.126 367.693 119.817 368.569 120.271 369.627C120.38 369.791 120.308 369.882 120.09 369.937Z" fill="#00ACD7"/>
<path fill-rule="evenodd" clip-rule="evenodd" d="M121.67 378.421C122.942 379.516 124.45 379.99 126.104 380.027C126.266 380.008 126.43 379.993 126.595 379.979C126.913 379.951 127.235 379.922 127.557 379.862C129.247 379.516 130.719 378.749 131.919 377.527C133.609 375.812 134.317 373.805 134.008 371.342C133.772 369.59 132.882 368.259 131.446 367.273C129.865 366.197 128.121 366.014 126.267 366.343C124.105 366.726 122.506 367.638 121.179 369.39C119.943 371.014 119.38 372.838 119.707 374.9C119.925 376.305 120.597 377.49 121.67 378.421ZM130.416 372.461C130.419 372.522 130.423 372.586 130.428 372.656C130.337 374.225 129.556 375.392 128.12 376.14C127.157 376.633 126.158 376.688 125.158 376.25C123.85 375.666 123.159 374.225 123.487 372.802C123.886 371.087 124.977 370.01 126.667 369.627C128.393 369.226 130.047 370.247 130.374 372.054C130.399 372.183 130.407 372.312 130.416 372.461Z" fill="#00ACD7"/>
<g clip-path="url(#clip2_4469_10480)">
<path d="M148.562 363.145V361.605H150.645V363.145H148.562ZM148.519 375.78C148.022 375.78 147.601 375.759 147.253 375.715V374.247L147.637 374.276C147.988 374.276 148.23 374.196 148.36 374.037C148.494 373.882 148.562 373.562 148.562 373.075V364.592H150.645V373.575C150.645 374.283 150.466 374.828 150.11 375.209C149.752 375.589 149.222 375.78 148.519 375.78Z" fill="#929292"/>
<path d="M154.748 364.592V369.098C154.748 370.512 155.222 371.217 156.173 371.217C156.679 371.217 157.086 371 157.395 370.566C157.702 370.132 157.858 369.579 157.858 368.903V364.592H159.948V370.834C159.948 371.514 159.966 372.112 160.006 372.627H158.017C157.954 371.915 157.923 371.382 157.923 371.029H157.887C157.612 371.642 157.259 372.089 156.831 372.367C156.4 372.642 155.892 372.779 155.305 372.779C154.451 372.779 153.795 372.519 153.338 371.998C152.884 371.474 152.658 370.704 152.658 369.691V364.592H154.748Z" fill="#929292"/>
<path d="M167.279 372.627V368.122C167.279 366.709 166.798 366.003 165.839 366.003C165.337 366.003 164.93 366.219 164.617 366.653C164.308 367.087 164.154 367.642 164.154 368.317V372.627H162.071V366.386C162.071 365.957 162.064 365.605 162.05 365.33C162.039 365.055 162.028 364.809 162.013 364.592H164.002C164.017 364.684 164.035 364.936 164.06 365.344C164.084 365.755 164.096 366.037 164.096 366.191H164.125C164.409 365.574 164.764 365.127 165.188 364.853C165.612 364.574 166.121 364.433 166.714 364.433C167.562 364.433 168.213 364.697 168.667 365.221C169.125 365.748 169.354 366.516 169.354 367.529V372.627H167.279Z" fill="#929292"/>
<path d="M171.362 363.146V361.605H173.445V363.146H171.362ZM171.362 372.627V364.592H173.445V372.627H171.362Z" fill="#929292"/>
<path d="M177.641 372.758C177.028 372.758 176.556 372.591 176.224 372.259C175.891 371.926 175.725 371.42 175.725 370.74V366.003H174.712V364.592H175.833L176.484 362.705H177.793V364.592H179.312V366.003H177.793V370.176C177.793 370.566 177.865 370.855 178.01 371.043C178.158 371.228 178.39 371.318 178.704 371.318C178.867 371.318 179.102 371.286 179.406 371.217V372.512C178.889 372.674 178.301 372.758 177.641 372.758Z" fill="#929292"/>
<path d="M151.911 384.353L150.552 382.234L149.185 384.353H147.565L149.705 381.337L147.673 378.509H149.308L150.552 380.418L151.796 378.509H153.445L151.405 381.315L153.56 384.353H151.911Z" fill="#929292"/>
<path d="M157.853 384.353V381.077C157.853 380.05 157.558 379.536 156.97 379.536C156.661 379.536 156.41 379.693 156.218 380.006C156.03 380.321 155.936 380.726 155.936 381.221V384.353H154.417V379.818C154.417 379.505 154.412 379.25 154.403 379.051C154.392 378.849 154.383 378.668 154.374 378.509H155.82C155.829 378.578 155.844 378.76 155.864 379.059C155.882 379.359 155.893 379.563 155.893 379.673H155.914C156.097 379.225 156.328 378.903 156.609 378.704C156.887 378.502 157.223 378.401 157.614 378.401C158.505 378.401 159.046 378.825 159.234 379.673H159.27C159.467 379.221 159.704 378.896 159.979 378.697C160.257 378.5 160.612 378.401 161.042 378.401C161.61 378.401 162.044 378.594 162.344 378.979C162.642 379.366 162.792 379.919 162.792 380.643V384.353H161.281V381.077C161.281 380.05 160.986 379.536 160.398 379.536C160.104 379.536 159.86 379.681 159.668 379.97C159.48 380.256 159.379 380.648 159.364 381.149V384.353H157.853Z" fill="#929292"/>
<path d="M164.252 384.353V376.339H165.771V384.353H164.252Z" fill="#929292"/>
</g>
<g clip-path="url(#clip3_4469_10480)">
<path d="M217.576 365.681C216.941 364.091 216.189 362.551 215.325 361.072L215.148 360.765C214.975 360.449 214.848 360.222 214.796 360.137L214.153 359.026L213.233 364.98L213.202 365.196C212.515 365.16 211.785 365.141 211.012 365.141C210.239 365.141 209.505 365.16 208.812 365.196L208.783 364.979L208.461 362.892L207.86 359.026L207.2 360.136C207.142 360.236 206.963 360.549 206.73 360.974L206.674 361.074C205.804 362.554 205.045 364.096 204.404 365.687C203.456 365.841 202.52 366.063 201.604 366.35V380.819L211 387.026L220.392 380.82V366.348C219.471 366.058 218.53 365.835 217.576 365.681Z" fill="white"/>
<path d="M215.042 376.916H210.991V370.592L206.885 376.731L206.248 383.031L210.93 386.151L210.994 386.193L215.783 383.008L215.042 376.916Z" fill="#3B3B63"/>
<path d="M210.924 386.131L202.208 380.369V366.926C205.043 366.111 207.987 365.734 210.936 365.806C213.876 365.733 216.811 366.112 219.636 366.929V380.369L210.924 386.131Z" fill="#DBDBDB"/>
<path d="M211.049 365.806H211.037V386.131L219.753 380.368V366.926C216.928 366.11 213.993 365.731 211.053 365.804" fill="#C6C6C6"/>
<path d="M215.758 382.999L215.019 376.917H210.97V386.181L215.758 382.999Z" fill="#3B3B63"/>
<path d="M206.248 383.034L210.993 386.196V370.596L206.885 376.736L206.248 383.034Z" fill="#53537A"/>
<path d="M213.036 381.238C213.036 382.28 211.985 382.797 211.022 382.797C210.059 382.797 208.986 382.281 208.986 381.237" fill="#BC9375"/>
<path d="M212.445 380.646C212.445 381.869 211.735 382.196 211.011 382.196C210.287 382.196 209.577 381.868 209.577 380.646" fill="#073251"/>
<path d="M211.011 381.775C210.237 381.775 209.861 381.25 209.861 380.168H210.229C210.229 381.433 210.757 381.433 211.01 381.433C211.263 381.433 211.791 381.433 211.791 380.168H212.16C212.16 381.25 211.783 381.776 211.01 381.776" fill="white"/>
<path d="M217.151 367.703C217.151 366.383 214.751 362.231 214.751 362.231L213.937 367.497L213.207 368.608L211.019 368.69L211.01 368.708V368.69L208.822 368.608L208.092 367.497L207.279 362.232C207.279 362.232 204.87 366.384 204.87 367.704L205.885 370.238C205.885 370.238 205.372 374.497 205.606 375.054C206.161 375.908 206.781 376.718 207.461 377.476C207.465 378.392 207.613 379.302 207.9 380.171C208.027 380.512 208.258 380.805 208.559 381.008C208.861 381.211 209.219 381.315 209.582 381.304C209.876 381.304 210.165 381.223 210.416 381.07C210.667 380.917 210.871 380.697 211.005 380.435C211.143 380.697 211.348 380.916 211.601 381.069C211.853 381.223 212.143 381.304 212.438 381.305C212.802 381.316 213.159 381.213 213.461 381.01C213.763 380.807 213.994 380.515 214.122 380.174C214.408 379.305 214.556 378.395 214.559 377.479C215.239 376.721 215.859 375.911 216.414 375.057C216.648 374.499 216.135 370.241 216.135 370.241L217.151 367.705V367.703Z" fill="#C49A7E"/>
<path d="M211.011 368.699V368.708V368.69L208.823 368.608L208.093 367.497L207.279 362.232C207.279 362.232 204.879 366.384 204.879 367.704L205.894 370.239C205.894 370.239 205.381 374.497 205.615 375.055C206.17 375.909 206.79 376.719 207.469 377.477C207.473 378.393 207.621 379.303 207.908 380.172C208.035 380.513 208.266 380.805 208.568 381.008C208.869 381.211 209.227 381.314 209.59 381.304C209.884 381.304 210.173 381.223 210.424 381.07C210.675 380.916 210.879 380.697 211.014 380.435V380.444L211.011 368.699Z" fill="#D8B7A0"/>
<path d="M216.158 370.488C215.971 370.126 216.236 369.27 216.236 369.27C214.719 367.827 214.336 364.818 214.336 364.818C214.054 365.765 213.436 368.562 213.436 368.562C212.652 368.313 211.836 368.181 211.014 368.169H211.004C210.933 368.169 210.863 368.169 210.795 368.169V379.969L210.895 380.098V380.034H210.954H211.072H211.132V380.098L212.182 378.678L212.41 374.686L213.717 376.07L215.4 376.526L216.028 376.111C216.21 375.869 216.352 375.599 216.45 375.311C216.684 374.753 216.159 370.482 216.159 370.482" fill="#3B3B63"/>
<path d="M211.023 368.168C210.2 368.18 209.383 368.312 208.599 368.561C208.599 368.561 207.983 365.766 207.699 364.816C207.699 364.816 207.319 367.826 205.799 369.268C205.933 369.66 205.961 370.081 205.878 370.486C205.878 370.486 205.353 374.759 205.587 375.316C205.685 375.603 205.827 375.873 206.008 376.116L206.638 376.531L208.322 376.076L209.628 374.692L209.857 378.683L210.9 380.103V380.039H210.96H211.019V368.167L211.023 368.168Z" fill="#53537A"/>
<path d="M214.065 373.159H212.1V373.177C212.138 373.493 212.291 373.783 212.529 373.994C212.766 374.204 213.073 374.321 213.391 374.321C213.708 374.321 214.015 374.204 214.253 373.994C214.49 373.783 214.643 373.493 214.681 373.177V373.159H214.065Z" fill="#333152"/>
<path d="M212.591 373.159V373.177C212.603 373.365 212.686 373.541 212.823 373.669C212.96 373.798 213.141 373.869 213.329 373.869C213.516 373.869 213.697 373.798 213.834 373.669C213.971 373.541 214.054 373.365 214.066 373.177V373.159H212.591Z" fill="white"/>
<path d="M213.556 373.159H213.21H213.201C213.244 373.168 213.267 373.259 213.258 373.317C213.25 373.362 213.225 373.403 213.19 373.432C213.154 373.46 213.11 373.476 213.064 373.474C213.08 373.537 213.115 373.593 213.164 373.634C213.213 373.676 213.273 373.702 213.337 373.708C213.42 373.723 213.505 373.704 213.574 373.657C213.643 373.609 213.691 373.536 213.707 373.453C213.725 373.332 213.661 373.159 213.556 373.159ZM209.318 373.158H207.351V373.176C207.388 373.493 207.541 373.784 207.779 373.996C208.016 374.207 208.324 374.324 208.642 374.324C208.96 374.324 209.268 374.207 209.506 373.996C209.744 373.784 209.896 373.493 209.933 373.176V373.158H209.318Z" fill="#333152"/>
<path d="M207.843 373.159V373.177C207.855 373.365 207.938 373.541 208.075 373.669C208.212 373.798 208.393 373.869 208.581 373.869C208.768 373.869 208.949 373.798 209.086 373.669C209.223 373.541 209.306 373.365 209.318 373.177V373.159H207.843Z" fill="white"/>
<path d="M208.809 373.159H208.463H208.454C208.497 373.168 208.52 373.259 208.511 373.317C208.502 373.362 208.478 373.403 208.442 373.432C208.406 373.46 208.362 373.476 208.316 373.474C208.332 373.537 208.367 373.592 208.416 373.634C208.465 373.676 208.525 373.702 208.589 373.708C208.672 373.723 208.757 373.704 208.826 373.657C208.895 373.609 208.943 373.536 208.959 373.453C208.977 373.332 208.913 373.159 208.809 373.159Z" fill="#333152"/>
<path d="M213.917 372.616C213.999 372.531 214.7 371.795 213.762 371.795C213.451 371.815 213.147 371.897 212.869 372.038C212.59 372.179 212.344 372.375 212.144 372.614H213.917V372.616Z" fill="#C49A7E"/>
<path d="M209.873 372.616C209.674 372.376 209.427 372.179 209.149 372.038C208.87 371.897 208.566 371.814 208.254 371.795C207.316 371.795 208.017 372.532 208.099 372.614H209.873V372.616Z" fill="#D8B7A0"/>
<path d="M206.9 373.152H210.487V372.84H206.9V373.152Z" fill="#53537A"/>
<path d="M216.222 368.726C215.484 367.589 215.006 366.303 214.822 364.959L215.015 363.726C215.739 364.949 216.291 366.266 216.656 367.639L216.222 368.726ZM215.956 374.903C215.425 375.717 214.83 376.486 214.176 377.203L214.067 377.33V377.49C214.063 378.352 213.925 379.208 213.658 380.026C213.567 380.275 213.401 380.489 213.182 380.638C212.963 380.787 212.703 380.864 212.438 380.857C212.236 380.854 212.038 380.797 211.866 380.691C211.693 380.586 211.552 380.436 211.457 380.257L211.419 379.717H210.593L210.557 380.254C210.464 380.433 210.324 380.583 210.152 380.688C209.981 380.794 209.784 380.851 209.583 380.854C209.318 380.862 209.058 380.785 208.839 380.636C208.62 380.487 208.454 380.273 208.363 380.024C208.096 379.205 207.958 378.349 207.953 377.487V377.326L207.844 377.2C207.193 376.484 206.6 375.718 206.069 374.908C206.044 373.366 206.147 371.825 206.376 370.299L206.389 370.192L206.205 369.733C206.821 369.086 207.293 368.314 207.587 367.469L207.617 367.669L208.617 369.199L209.008 369.044C209.646 368.804 210.32 368.668 211.002 368.644C211.686 368.67 212.361 368.805 213.002 369.044L213.393 369.199L214.393 367.669L214.433 367.414C214.726 368.27 215.197 369.054 215.815 369.714L215.622 370.197L215.635 370.304C215.863 371.827 215.967 373.365 215.945 374.904L215.956 374.903ZM210.4 381.609C210.524 381.558 210.643 381.495 210.755 381.42C210.839 381.44 210.926 381.449 211.012 381.445C211.098 381.449 211.183 381.44 211.267 381.42C211.379 381.495 211.498 381.558 211.622 381.609C211.44 381.726 211.228 381.788 211.011 381.788C210.794 381.788 210.582 381.726 210.4 381.609ZM211.023 382.58C210.483 382.58 209.716 382.358 209.523 381.767H209.582C209.682 381.767 209.783 381.76 209.882 381.746C210.022 381.906 210.197 382.031 210.394 382.111C210.591 382.191 210.803 382.224 211.015 382.207C211.227 382.224 211.44 382.191 211.637 382.111C211.833 382.031 212.009 381.906 212.149 381.746C212.246 381.76 212.345 381.767 212.443 381.767H212.504C212.366 382.034 212.152 382.254 211.889 382.399C211.625 382.544 211.325 382.607 211.026 382.581L211.023 382.58ZM205.366 367.64C205.732 366.267 206.284 364.95 207.008 363.726L207.214 365.061C207.029 366.38 206.55 367.641 205.814 368.75L205.368 367.639L205.366 367.64ZM217.632 367.713C217.632 366.32 215.427 362.463 215.174 362.027L214.474 360.804L213.463 367.35L212.999 368.06C212.356 367.854 211.687 367.742 211.012 367.725C210.34 367.741 209.673 367.853 209.033 368.059L208.567 367.349L208.214 365.055V365.043L207.558 360.803L206.831 362.026C206.578 362.46 204.355 366.318 204.355 367.712V367.794L205.375 370.304C205.211 371.673 204.902 374.647 205.145 375.228C205.497 375.84 205.91 376.415 206.378 376.943L205.71 382.696L206.63 383.296L207.114 379.11C207.181 379.529 207.29 379.939 207.439 380.335C207.633 380.848 208.011 381.27 208.5 381.517C208.58 382.111 208.89 382.649 209.362 383.017C209.834 383.386 210.431 383.555 211.026 383.488C211.618 383.551 212.211 383.38 212.678 383.011C213.145 382.643 213.45 382.106 213.526 381.515C214.012 381.267 214.389 380.846 214.582 380.335C214.737 379.923 214.849 379.496 214.916 379.06L215.405 383.26L216.323 382.639L215.66 376.926C216.121 376.402 216.528 375.833 216.875 375.226C217.119 374.645 216.796 371.672 216.634 370.302L217.634 367.791V367.709L217.632 367.713Z" fill="#333152"/>
<path d="M212.168 378.157H209.862C209.727 378.363 209.622 378.587 209.551 378.822C209.551 379.305 210.971 380.072 210.971 380.072C210.971 380.072 212.471 379.28 212.471 378.82C212.415 378.582 212.313 378.356 212.171 378.155" fill="#333152"/>
<path d="M211.724 379.626C211.595 379.415 211.429 379.376 211.353 379.539C211.32 379.653 211.312 379.772 211.33 379.889C211.347 380.006 211.389 380.117 211.453 380.216C211.58 380.428 211.748 380.466 211.824 380.303C211.857 380.19 211.865 380.071 211.847 379.954C211.83 379.837 211.788 379.726 211.724 379.626Z" fill="#C49A7E"/>
<path d="M210.3 379.626C210.236 379.725 210.193 379.837 210.176 379.954C210.159 380.071 210.167 380.19 210.2 380.303C210.276 380.467 210.441 380.428 210.571 380.216C210.635 380.118 210.678 380.006 210.695 379.889C210.712 379.772 210.704 379.653 210.671 379.539C210.595 379.375 210.43 379.415 210.3 379.626Z" fill="#D8B7A0"/>
</g>
<text fill="#111827" xml:space="preserve" style="white-space: pre" font-size="14" font-weight="bold" letter-spacing="-0.03em"><tspan x="273.826" y="369.103">Build&#10;</tspan><tspan x="261.612" y="387.103">Metadata</tspan></text>
</g>
<g filter="url(#filter5_d_4469_10480)">
<path d="M48 124.026C43.5818 124.026 40 127.608 40 132.026V309.026C40 313.445 43.5818 317.026 48 317.026H339C343.418 317.026 347 313.445 347 309.026V257.026C347 252.608 350.582 249.026 355 249.026H452C456.418 249.026 460 245.445 460 241.026V201.026C460 196.608 456.418 193.026 452 193.026H355C350.582 193.026 347 189.445 347 185.026V132.026C347 127.608 343.418 124.026 339 124.026H48Z" fill="#F9FAFB"/>
</g>
<path d="M61.5 162.526L55.5 168.526L52.75 165.776L53.455 165.071L55.5 167.111L60.795 161.821L61.5 162.526Z" fill="#858686"/>
<text fill="#111827" xml:space="preserve" style="white-space: pre" font-size="14" letter-spacing="-0.03em"><tspan x="67" y="169.068">Node version is greater than 20.18.1</tspan></text>
<path d="M61.5 190.526L55.5 196.526L52.75 193.776L53.455 193.071L55.5 195.111L60.795 189.821L61.5 190.526Z" fill="#858686"/>
<text fill="#111827" xml:space="preserve" style="white-space: pre" font-size="14" letter-spacing="-0.03em"><tspan x="67" y="197.068">Test coverage is greater than 75%</tspan></text>
<path d="M61.5 218.526L55.5 224.526L52.75 221.776L53.455 221.071L55.5 223.111L60.795 217.821L61.5 218.526Z" fill="#858686"/>
<text fill="#111827" xml:space="preserve" style="white-space: pre" font-size="14" letter-spacing="-0.03em"><tspan x="67" y="225.068">SBOM file exists</tspan></text>
<path d="M61.5 246.526L55.5 252.526L52.75 249.776L53.455 249.071L55.5 251.111L60.795 245.821L61.5 246.526Z" fill="#858686"/>
<text fill="#111827" xml:space="preserve" style="white-space: pre" font-size="14" letter-spacing="-0.03em"><tspan x="67" y="253.068">Repo access controls are configured</tspan></text>
<path d="M61.5 274.526L55.5 280.526L52.75 277.776L53.455 277.071L55.5 279.111L60.795 273.821L61.5 274.526Z" fill="#858686"/>
<text fill="#111827" xml:space="preserve" style="white-space: pre" font-size="14" letter-spacing="-0.03em"><tspan x="67" y="281.068">No critical vulnerabilities</tspan></text>
<text fill="#111827" xml:space="preserve" style="white-space: pre" font-size="14" font-weight="bold" letter-spacing="-0.03em"><tspan x="381.488" y="226.103">Policies</tspan></text>
<path d="M502.623 150.471L491.166 149.437L498.483 139.738L502.623 150.471Z" fill="#00D6FF"/>
<path d="M708.623 142.626L697.166 143.66L704.483 153.359L708.623 142.626Z" fill="#32F8BA"/>
<path d="M503.937 220.041L494.167 226.116L494.167 213.966L503.937 220.041Z" fill="#00D6FF"/>
<path d="M709.026 220.041L699.256 226.116L699.256 213.966L709.026 220.041Z" fill="#32F8BA"/>
<path d="M502.623 294.626L491.166 295.66L498.483 305.36L502.623 294.626Z" fill="#00D6FF"/>
<path d="M707.623 302.471L696.166 301.437L703.483 291.738L707.623 302.471Z" fill="#32F8BA"/>
<g filter="url(#filter6_d_4469_10480)">
<rect x="853" y="42.0265" width="307" height="60" rx="8" fill="#F9FAFB"/>
<text fill="#111827" xml:space="preserve" style="white-space: pre" font-size="14" font-weight="bold" letter-spacing="-0.03em"><tspan x="891.48" y="68.1027">Continuous&#10;</tspan><tspan x="890.89" y="86.1027">Compliance </tspan></text>
<path d="M1036.46 60.6118L1037.09 59.1545C1036.89 59.0701 1036.68 59.0265 1036.46 59.0265C1036.25 59.0265 1036.04 59.0701 1035.84 59.1545L1036.46 60.6118ZM1036.46 83.4411L1035.68 84.8172C1036.16 85.0963 1036.76 85.0963 1037.25 84.8172L1036.46 83.4411ZM1035.84 59.1545L1027.73 62.6296L1028.98 65.5442L1037.09 62.069L1035.84 59.1545ZM1026 65.2537V73.9543H1029.17V65.2537H1026ZM1030.63 81.9357L1035.68 84.8185L1037.25 82.0663L1032.21 79.1835L1030.63 81.9357ZM1037.25 84.8185L1042.29 81.9369L1040.72 79.1847L1035.68 82.0663L1037.25 84.8185ZM1046.93 73.953V65.2537H1043.76V73.9543L1046.93 73.953ZM1045.2 62.6309L1037.09 59.1558L1035.84 62.0703L1043.95 65.5454L1045.2 62.6309ZM1046.93 65.2537C1046.93 64.1123 1046.25 63.0811 1045.2 62.6309L1043.95 65.5454C1043.89 65.5209 1043.84 65.4802 1043.81 65.4283C1043.77 65.3765 1043.76 65.3158 1043.76 65.2537H1046.93ZM1042.29 81.9369C1043.7 81.1327 1044.87 79.9706 1045.68 78.5685C1046.5 77.1664 1046.93 75.5741 1046.93 73.953H1043.76C1043.76 75.015 1043.48 76.0581 1042.94 76.9766C1042.41 77.8952 1041.64 78.6578 1040.72 79.1847L1042.29 81.9369ZM1026 73.9517C1026 75.5728 1026.43 77.1651 1027.24 78.5672C1028.06 79.9693 1029.23 81.1314 1030.63 81.9357L1032.21 79.1835C1031.28 78.6564 1030.52 77.8949 1029.98 76.9761C1029.45 76.0573 1029.17 75.0139 1029.17 73.9517H1026ZM1027.73 62.6296C1027.22 62.8496 1026.78 63.2156 1026.47 63.6821C1026.16 64.1485 1026 64.695 1026 65.2537H1029.17C1029.17 65.3806 1029.09 65.4934 1028.98 65.5442L1027.73 62.6296Z" fill="#32F8BA"/>
<path d="M1040.27 69.4898L1035.2 74.563L1032.66 72.0264" stroke="#32F8BA" stroke-width="2.5" stroke-linecap="round" stroke-linejoin="round"/>
<path d="M1074 61.6265C1074 60.937 1074.27 60.2756 1074.76 59.788C1075.25 59.3004 1075.91 59.0265 1076.6 59.0265H1087C1087.34 59.0266 1087.68 59.1636 1087.92 59.4074L1094.42 65.9074C1094.66 66.1512 1094.8 66.4818 1094.8 66.8265V82.4265C1094.8 83.1161 1094.53 83.7774 1094.04 84.265C1093.55 84.7526 1092.89 85.0265 1092.2 85.0265H1076.6C1075.91 85.0265 1075.25 84.7526 1074.76 84.265C1074.27 83.7774 1074 83.1161 1074 82.4265V61.6265ZM1091.66 66.8265L1087 62.1647V66.8265H1091.66ZM1084.4 61.6265H1076.6V82.4265H1092.2V69.4265H1085.7C1085.36 69.4265 1085.02 69.2896 1084.78 69.0458C1084.54 68.802 1084.4 68.4713 1084.4 68.1265V61.6265ZM1079.2 73.3265C1079.2 72.9817 1079.34 72.6511 1079.58 72.4073C1079.82 72.1635 1080.16 72.0265 1080.5 72.0265H1088.3C1088.65 72.0265 1088.98 72.1635 1089.22 72.4073C1089.46 72.6511 1089.6 72.9817 1089.6 73.3265C1089.6 73.6713 1089.46 74.002 1089.22 74.2458C1088.98 74.4896 1088.65 74.6265 1088.3 74.6265H1080.5C1080.16 74.6265 1079.82 74.4896 1079.58 74.2458C1079.34 74.002 1079.2 73.6713 1079.2 73.3265ZM1079.2 78.5265C1079.2 78.1817 1079.34 77.8511 1079.58 77.6073C1079.82 77.3635 1080.16 77.2265 1080.5 77.2265H1088.3C1088.65 77.2265 1088.98 77.3635 1089.22 77.6073C1089.46 77.8511 1089.6 78.1817 1089.6 78.5265C1089.6 78.8713 1089.46 79.202 1089.22 79.4458C1088.98 79.6896 1088.65 79.8265 1088.3 79.8265H1080.5C1080.16 79.8265 1079.82 79.6896 1079.58 79.4458C1079.34 79.202 1079.2 78.8713 1079.2 78.5265Z" fill="#32F8BA"/>
<path d="M1139.5 63.0265L1144.7 68.2265M1144.7 63.0265L1139.5 68.2265M1146 76.0265L1141.45 81.2265L1138.85 78.6265" stroke="#32F8BA" stroke-width="2" stroke-linecap="round" stroke-linejoin="round"/>
<path d="M1134.3 63.0265H1120V68.2265H1134.3V63.0265ZM1134.3 76.0265H1120V81.2265H1134.3V76.0265Z" fill="#32F8BA" stroke="#32F8BA" stroke-width="2" stroke-linecap="round" stroke-linejoin="round"/>
</g>
<g filter="url(#filter7_d_4469_10480)">
<rect x="853" y="343.026" width="307" height="60" rx="8" fill="#F9FAFB"/>
<text fill="#111827" xml:space="preserve" style="white-space: pre" font-size="14" font-weight="bold" letter-spacing="-0.03em"><tspan x="882.699" y="378.103">Visibility</tspan></text>
<path d="M994.692 364.537V385.363H1001.59V364.537H994.692ZM985.141 385.363H992.039V360.026H985.141V385.363ZM975.59 385.363H982.488V369.047H975.59V385.363Z" fill="#32F8BA"/>
<path fill-rule="evenodd" clip-rule="evenodd" d="M1027.26 371.726H1031.66C1031.81 371.726 1032.07 371.726 1032.31 371.747C1032.6 371.773 1033.1 371.846 1033.63 372.141C1034.15 372.434 1034.58 372.866 1034.88 373.389C1035.17 373.916 1035.24 374.415 1035.27 374.707C1035.29 374.945 1035.29 375.203 1035.29 375.36V382.393C1035.29 382.55 1035.29 382.809 1035.27 383.046C1035.24 383.338 1035.17 383.837 1034.87 384.365C1034.58 384.888 1034.15 385.32 1033.63 385.613C1033.22 385.836 1032.77 385.97 1032.31 386.006C1032.07 386.026 1031.81 386.026 1031.66 386.026H1027.22C1027.07 386.026 1026.81 386.026 1026.57 386.006C1026.11 385.97 1025.66 385.836 1025.25 385.612C1024.73 385.319 1024.3 384.887 1024 384.364C1023.78 383.957 1023.65 383.508 1023.61 383.046C1023.59 382.808 1023.59 382.55 1023.59 382.393V375.36C1023.59 375.204 1023.59 374.944 1023.61 374.707C1023.64 374.415 1023.71 373.916 1024 373.389C1024.3 372.866 1024.73 372.434 1025.25 372.141C1025.66 371.917 1026.11 371.783 1026.57 371.747C1026.81 371.726 1027.07 371.726 1027.22 371.726H1027.26ZM1026.27 374.659C1026.19 374.807 1026.19 375.002 1026.19 375.4V382.355C1026.19 382.749 1026.19 382.947 1026.27 383.094C1026.33 383.198 1026.42 383.285 1026.52 383.343C1026.67 383.426 1026.87 383.426 1027.26 383.426H1031.62C1032.01 383.426 1032.21 383.426 1032.36 383.343C1032.46 383.284 1032.55 383.198 1032.61 383.094C1032.69 382.947 1032.69 382.75 1032.69 382.354V375.399C1032.69 375.004 1032.69 374.807 1032.61 374.658C1032.55 374.554 1032.46 374.468 1032.36 374.41C1032.21 374.326 1032.01 374.326 1031.62 374.326H1027.26C1026.87 374.326 1026.67 374.326 1026.52 374.41C1026.42 374.468 1026.33 374.555 1026.27 374.659ZM1027.26 360.026H1031.66C1031.81 360.026 1032.07 360.026 1032.31 360.047C1032.6 360.073 1033.1 360.146 1033.63 360.441C1034.15 360.734 1034.58 361.166 1034.88 361.689C1035.17 362.216 1035.24 362.715 1035.27 363.007C1035.29 363.245 1035.29 363.503 1035.29 363.66V366.793C1035.29 366.95 1035.29 367.209 1035.27 367.446C1035.24 367.738 1035.17 368.237 1034.87 368.765C1034.58 369.288 1034.15 369.72 1033.63 370.013C1033.22 370.236 1032.77 370.37 1032.31 370.406C1032.07 370.428 1031.81 370.426 1031.66 370.426H1027.22C1027.07 370.426 1026.81 370.426 1026.57 370.406C1026.11 370.37 1025.66 370.236 1025.25 370.012C1024.73 369.719 1024.3 369.287 1024 368.764C1023.78 368.357 1023.65 367.908 1023.61 367.446C1023.59 367.208 1023.59 366.95 1023.59 366.793V363.66C1023.59 363.504 1023.59 363.244 1023.61 363.007C1023.64 362.715 1023.71 362.216 1024 361.689C1024.3 361.166 1024.73 360.734 1025.25 360.441C1025.66 360.217 1026.11 360.083 1026.57 360.047C1026.81 360.026 1027.07 360.026 1027.22 360.026H1027.26ZM1026.27 362.959C1026.19 363.107 1026.19 363.302 1026.19 363.699V366.754C1026.19 367.149 1026.19 367.347 1026.27 367.495C1026.33 367.599 1026.42 367.685 1026.52 367.743C1026.67 367.826 1026.87 367.826 1027.26 367.826H1031.62C1032.01 367.826 1032.21 367.826 1032.36 367.743C1032.46 367.684 1032.55 367.598 1032.61 367.494C1032.69 367.347 1032.69 367.15 1032.69 366.754V363.699C1032.69 363.304 1032.69 363.107 1032.61 362.958C1032.55 362.854 1032.46 362.768 1032.36 362.71C1032.21 362.626 1032.01 362.626 1031.62 362.626H1027.26C1026.87 362.626 1026.67 362.626 1026.52 362.71C1026.42 362.768 1026.33 362.855 1026.27 362.959ZM1041.56 374.326H1045.96C1046.11 374.326 1046.37 374.326 1046.61 374.306C1046.9 374.28 1047.4 374.208 1047.93 373.912C1048.45 373.619 1048.88 373.187 1049.18 372.664C1049.47 372.137 1049.54 371.638 1049.57 371.346C1049.59 371.108 1049.59 370.85 1049.59 370.693V363.66C1049.59 363.504 1049.59 363.244 1049.57 363.007C1049.53 362.545 1049.4 362.095 1049.17 361.689C1048.88 361.166 1048.45 360.734 1047.93 360.441C1047.52 360.217 1047.07 360.083 1046.61 360.047C1046.37 360.026 1046.11 360.026 1045.96 360.026H1041.52C1041.37 360.026 1041.11 360.026 1040.87 360.047C1040.58 360.073 1040.08 360.146 1039.55 360.441C1039.03 360.734 1038.6 361.166 1038.3 361.689C1038.08 362.095 1037.95 362.545 1037.91 363.007C1037.89 363.245 1037.89 363.503 1037.89 363.66V370.693C1037.89 370.85 1037.89 371.109 1037.91 371.346C1037.94 371.638 1038.01 372.137 1038.3 372.665C1038.6 373.188 1039.03 373.62 1039.55 373.913C1040.08 374.207 1040.58 374.28 1040.87 374.306C1041.11 374.328 1041.37 374.326 1041.52 374.326H1041.56ZM1040.57 371.394C1040.49 371.245 1040.49 371.05 1040.49 370.654V363.699C1040.49 363.304 1040.49 363.107 1040.57 362.958C1040.63 362.854 1040.72 362.768 1040.82 362.71C1040.97 362.626 1041.17 362.626 1041.56 362.626H1045.92C1046.31 362.626 1046.51 362.626 1046.66 362.71C1046.76 362.768 1046.85 362.855 1046.91 362.959C1046.99 363.107 1046.99 363.304 1046.99 363.699V370.654C1046.99 371.049 1046.99 371.245 1046.91 371.395C1046.85 371.499 1046.76 371.585 1046.66 371.643C1046.51 371.726 1046.31 371.726 1045.92 371.726H1041.56C1041.17 371.726 1040.97 371.726 1040.82 371.643C1040.72 371.584 1040.63 371.498 1040.57 371.394ZM1041.56 386.026H1045.96C1046.11 386.026 1046.37 386.026 1046.61 386.006C1046.9 385.98 1047.4 385.907 1047.93 385.612C1048.45 385.319 1048.88 384.887 1049.18 384.364C1049.47 383.837 1049.54 383.338 1049.57 383.046C1049.59 382.808 1049.59 382.55 1049.59 382.393V379.26C1049.59 379.104 1049.59 378.844 1049.57 378.607C1049.53 378.145 1049.4 377.695 1049.17 377.289C1048.88 376.766 1048.45 376.334 1047.93 376.041C1047.52 375.817 1047.07 375.683 1046.61 375.647C1046.37 375.626 1046.11 375.626 1045.96 375.626H1041.52C1041.37 375.626 1041.11 375.626 1040.87 375.647C1040.58 375.673 1040.08 375.746 1039.55 376.041C1039.03 376.334 1038.6 376.766 1038.3 377.289C1038.08 377.695 1037.95 378.145 1037.91 378.607C1037.89 378.845 1037.89 379.103 1037.89 379.26V382.393C1037.89 382.55 1037.89 382.809 1037.91 383.046C1037.94 383.338 1038.01 383.837 1038.3 384.365C1038.6 384.888 1039.03 385.32 1039.55 385.613C1040.08 385.908 1040.58 385.98 1040.87 386.006C1041.11 386.026 1041.37 386.026 1041.52 386.026H1041.56ZM1040.57 383.094C1040.49 382.947 1040.49 382.75 1040.49 382.354V379.299C1040.49 378.904 1040.49 378.707 1040.57 378.558C1040.63 378.454 1040.72 378.368 1040.82 378.31C1040.97 378.226 1041.17 378.226 1041.56 378.226H1045.92C1046.31 378.226 1046.51 378.226 1046.66 378.31C1046.76 378.368 1046.85 378.454 1046.91 378.559C1046.99 378.707 1046.99 378.904 1046.99 379.3V382.355C1046.99 382.749 1046.99 382.947 1046.91 383.094C1046.85 383.198 1046.76 383.285 1046.66 383.343C1046.51 383.426 1046.31 383.426 1045.92 383.426H1041.56C1041.17 383.426 1040.97 383.426 1040.82 383.343C1040.72 383.284 1040.63 383.198 1040.57 383.094Z" fill="#32F8BA"/>
<path d="M1095.32 367.191L1088.57 360.45C1088.44 360.316 1088.28 360.209 1088.11 360.137C1087.93 360.064 1087.74 360.026 1087.55 360.026H1076C1075.36 360.026 1074.75 360.28 1074.29 360.732C1073.84 361.183 1073.59 361.795 1073.59 362.434V383.619C1073.59 384.258 1073.84 384.87 1074.29 385.321C1074.75 385.773 1075.36 386.026 1076 386.026H1093.33C1093.97 386.026 1094.58 385.773 1095.03 385.321C1095.48 384.87 1095.74 384.258 1095.74 383.619V368.212C1095.74 367.829 1095.59 367.462 1095.32 367.191ZM1091.28 367.249H1088.52V364.48L1091.28 367.249ZM1076.48 383.138V362.915H1085.63V368.693C1085.63 369.076 1085.78 369.444 1086.05 369.715C1086.32 369.985 1086.69 370.138 1087.07 370.138H1092.85V383.138H1076.48ZM1088.09 377.301C1088.53 376.378 1088.63 375.33 1088.37 374.341C1088.12 373.352 1087.52 372.487 1086.68 371.897C1085.85 371.307 1084.83 371.031 1083.81 371.118C1082.79 371.205 1081.84 371.649 1081.12 372.372C1080.39 373.094 1079.95 374.049 1079.86 375.067C1079.78 376.086 1080.05 377.102 1080.64 377.936C1081.23 378.771 1082.1 379.37 1083.09 379.629C1084.08 379.887 1085.12 379.787 1086.05 379.347L1087.49 380.792C1087.76 381.063 1088.13 381.215 1088.51 381.215C1088.9 381.215 1089.27 381.063 1089.54 380.792C1089.81 380.52 1089.96 380.152 1089.96 379.768C1089.96 379.385 1089.81 379.017 1089.54 378.745L1088.09 377.301ZM1082.74 375.434C1082.74 375.148 1082.82 374.869 1082.98 374.631C1083.14 374.394 1083.37 374.209 1083.63 374.099C1083.89 373.99 1084.18 373.961 1084.46 374.017C1084.74 374.073 1085 374.211 1085.2 374.413C1085.41 374.615 1085.54 374.872 1085.6 375.152C1085.65 375.432 1085.63 375.723 1085.52 375.987C1085.41 376.251 1085.22 376.476 1084.98 376.635C1084.75 376.794 1084.47 376.878 1084.18 376.878C1083.8 376.878 1083.43 376.726 1083.16 376.455C1082.89 376.184 1082.74 375.817 1082.74 375.434Z" fill="#32F8BA"/>
<g clip-path="url(#clip4_4469_10480)">
<path d="M1138.77 366.026C1138.28 366.026 1137.81 366.222 1137.46 366.571C1137.11 366.919 1136.92 367.392 1136.92 367.885C1136.92 368.378 1137.11 368.851 1137.46 369.2C1137.81 369.548 1138.28 369.744 1138.77 369.744H1139.24L1135.06 373.931L1130.79 369.668C1130.45 369.32 1129.97 369.125 1129.48 369.125C1128.99 369.125 1128.52 369.32 1128.17 369.668L1120.11 377.723C1119.77 378.074 1119.59 378.543 1119.59 379.03C1119.59 379.518 1119.79 379.984 1120.13 380.329C1120.48 380.674 1120.94 380.869 1121.43 380.874C1121.92 380.878 1122.39 380.691 1122.74 380.353L1129.48 373.612L1133.74 377.874C1134.09 378.222 1134.56 378.418 1135.06 378.418C1135.55 378.418 1136.02 378.222 1136.37 377.874L1141.87 372.372V372.842C1141.87 373.335 1142.07 373.808 1142.42 374.156C1142.77 374.505 1143.24 374.701 1143.73 374.701C1144.22 374.701 1144.7 374.505 1145.05 374.156C1145.39 373.808 1145.59 373.335 1145.59 372.842V367.885C1145.59 367.392 1145.39 366.919 1145.05 366.571C1144.7 366.222 1144.22 366.026 1143.73 366.026H1138.77Z" fill="#32F8BA"/>
</g>
</g>
<g filter="url(#filter8_d_4469_10480)">
<path d="M1152 123.026C1156.42 123.026 1160 126.608 1160 131.026V308.026C1160 312.445 1156.42 316.026 1152 316.026H861C856.582 316.026 853 312.445 853 308.026V256.026C853 251.608 849.418 248.026 845 248.026H748C743.582 248.026 740 244.445 740 240.026V200.026C740 195.608 743.582 192.026 748 192.026H845C849.418 192.026 853 188.445 853 184.026V131.026C853 126.608 856.582 123.026 861 123.026H1152Z" fill="#F9FAFB"/>
</g>
<g filter="url(#filter9_d_4469_10480)">
<rect x="873" y="140.026" width="268" height="160" rx="16" fill="white"/>
<rect x="873.5" y="140.526" width="267" height="159" rx="15.5" stroke="#DFDFDF"/>
<rect x="898" y="161.026" width="19.998" height="19.998" rx="2.85686" fill="#B7892D"/>
<path d="M903.349 174.507C903.349 174.507 903.348 164.258 903.349 168.544C903.35 172.831 905.739 172.272 910.779 172.272" stroke="white" stroke-width="1.07132"/>
<circle cx="903.349" cy="165.622" r="1.85434" stroke="white" stroke-width="1.07132"/>
<circle cx="903.349" cy="176.429" r="1.85434" stroke="white" stroke-width="1.07132"/>
<circle cx="912.649" cy="171.961" r="1.85434" stroke="white" stroke-width="1.07132"/>
<rect x="927.5" y="160.526" width="183" height="119" rx="4.5" stroke="#B7892D"/>
<path d="M945.938 172.151C941.55 172.151 938.062 175.639 938.062 180.026C938.062 184.414 941.55 187.901 945.938 187.901C950.325 187.901 953.812 184.414 953.812 180.026C953.812 175.639 950.325 172.151 945.938 172.151ZM948.975 183.964L945.938 180.926L942.9 183.964L942 183.064L945.037 180.026L942 176.989L942.9 176.089L945.938 179.126L948.975 176.089L949.875 176.989L946.838 180.026L949.875 183.064L948.975 183.964Z" fill="#BE3536"/>
<rect x="959.938" y="172.026" width="124.5" height="7.75" rx="1" fill="#EE9B9C"/>
<rect x="959.938" y="182.776" width="75.25" height="5.25" rx="1" fill="#DFDFDF"/>
<rect x="936.938" y="258.921" width="75.25" height="10.8056" rx="1" fill="#DFDFDF"/>
<rect x="1066.54" y="258.921" width="36.1973" height="10.8056" rx="1" fill="#DFDFDF"/>
<rect x="1052.83" y="258.921" width="10.8105" height="10.8056" rx="1" fill="#DFDFDF"/>
<path fill-rule="evenodd" clip-rule="evenodd" d="M945.938 204.412L948.152 206.627C948.269 206.744 948.429 206.81 948.595 206.81C948.761 206.81 948.92 206.744 949.038 206.627C949.155 206.509 949.221 206.35 949.221 206.184C949.221 206.017 949.155 205.858 949.038 205.741L946.823 203.526L949.037 201.312C949.095 201.254 949.142 201.185 949.173 201.109C949.204 201.033 949.221 200.952 949.221 200.869C949.221 200.787 949.204 200.706 949.173 200.63C949.141 200.554 949.095 200.485 949.037 200.427C948.979 200.368 948.91 200.322 948.834 200.291C948.758 200.259 948.676 200.243 948.594 200.243C948.512 200.243 948.43 200.259 948.354 200.291C948.278 200.322 948.209 200.369 948.151 200.427L945.938 202.641L943.723 200.427C943.666 200.367 943.597 200.319 943.52 200.286C943.444 200.253 943.362 200.236 943.279 200.235C943.195 200.235 943.113 200.25 943.036 200.282C942.959 200.313 942.889 200.36 942.83 200.419C942.771 200.477 942.725 200.547 942.693 200.624C942.662 200.701 942.646 200.784 942.647 200.867C942.647 200.95 942.664 201.032 942.697 201.109C942.73 201.185 942.778 201.254 942.837 201.312L945.052 203.526L942.838 205.741C942.778 205.799 942.73 205.868 942.698 205.944C942.665 206.021 942.648 206.103 942.647 206.186C942.646 206.269 942.662 206.352 942.694 206.429C942.725 206.506 942.772 206.576 942.831 206.634C942.889 206.693 942.959 206.74 943.036 206.771C943.113 206.803 943.196 206.818 943.279 206.818C943.362 206.817 943.444 206.799 943.521 206.767C943.597 206.734 943.666 206.686 943.724 206.626L945.938 204.412Z" fill="#BE3536"/>
<rect x="959.938" y="200.902" width="109.479" height="5.25" rx="1" fill="#DFDFDF"/>
<circle cx="945.938" cy="222.026" r="3.294" fill="#CFA700"/>
<rect x="959.938" y="219.402" width="129.24" height="5.25" rx="1" fill="#CFA700"/>
<path fill-rule="evenodd" clip-rule="evenodd" d="M949.088 238.319C949.18 238.412 949.233 238.537 949.233 238.668C949.233 238.8 949.18 238.925 949.088 239.018L945.381 242.725C945.332 242.774 945.274 242.812 945.21 242.839C945.146 242.866 945.077 242.879 945.008 242.879C944.939 242.879 944.87 242.866 944.806 242.839C944.742 242.812 944.684 242.774 944.635 242.725L942.794 240.883C942.746 240.838 942.709 240.783 942.683 240.723C942.657 240.663 942.643 240.598 942.643 240.532C942.642 240.466 942.655 240.401 942.679 240.34C942.704 240.28 942.741 240.224 942.787 240.178C942.834 240.132 942.889 240.095 942.95 240.07C943.011 240.045 943.076 240.033 943.141 240.033C943.207 240.034 943.272 240.047 943.332 240.073C943.393 240.099 943.447 240.137 943.493 240.184L945.008 241.699L948.388 238.319C948.434 238.273 948.489 238.236 948.549 238.212C948.609 238.187 948.673 238.174 948.738 238.174C948.803 238.174 948.867 238.187 948.927 238.212C948.987 238.236 949.042 238.273 949.088 238.319Z" fill="#5AC41A"/>
<rect x="959.938" y="237.902" width="109.479" height="5.25" rx="1" fill="#5AC41A"/>
<path d="M921.977 170.626L921.446 171.025L921.977 171.425L926.669 174.953L927.47 175.555L927.47 174.553L927.47 167.497L927.47 166.496L926.669 167.098L921.977 170.626Z" stroke="#B7892D"/>
<path d="M928.316 166.479L922.278 171.039L928.252 175.572L928.316 166.479Z" fill="white"/>
</g>
<text fill="#111827" xml:space="preserve" style="white-space: pre" font-size="14" font-weight="bold" letter-spacing="-0.03em"><tspan x="766.301" y="216.103">Developer&#10;</tspan><tspan x="767.65" y="234.103">Feedback</tspan></text>
<defs>
<filter id="filter0_d_4469_10480" x="406.3" y="26.3265" width="387.4" height="387.4" filterUnits="userSpaceOnUse" color-interpolation-filters="sRGB">
<feFlood flood-opacity="0" result="BackgroundImageFix"/>
<feColorMatrix in="SourceAlpha" type="matrix" values="0 0 0 0 0 0 0 0 0 0 0 0 0 0 0 0 0 0 127 0" result="hardAlpha"/>
<feMorphology radius="3" operator="dilate" in="SourceAlpha" result="effect1_dropShadow_4469_10480"/>
<feOffset/>
<feGaussianBlur stdDeviation="4.85"/>
<feComposite in2="hardAlpha" operator="out"/>
<feColorMatrix type="matrix" values="0 0 0 0 0 0 0 0 0 0 0 0 0 0 0 0 0 0 0.05 0"/>
<feBlend mode="normal" in2="BackgroundImageFix" result="effect1_dropShadow_4469_10480"/>
<feBlend mode="normal" in="SourceGraphic" in2="effect1_dropShadow_4469_10480" result="shape"/>
</filter>
<filter id="filter1_d_4469_10480" x="452.3" y="72.3265" width="295.4" height="295.4" filterUnits="userSpaceOnUse" color-interpolation-filters="sRGB">
<feFlood flood-opacity="0" result="BackgroundImageFix"/>
<feColorMatrix in="SourceAlpha" type="matrix" values="0 0 0 0 0 0 0 0 0 0 0 0 0 0 0 0 0 0 127 0" result="hardAlpha"/>
<feMorphology radius="3" operator="dilate" in="SourceAlpha" result="effect1_dropShadow_4469_10480"/>
<feOffset/>
<feGaussianBlur stdDeviation="4.85"/>
<feComposite in2="hardAlpha" operator="out"/>
<feColorMatrix type="matrix" values="0 0 0 0 0 0 0 0 0 0 0 0 0 0 0 0 0 0 0.05 0"/>
<feBlend mode="normal" in2="BackgroundImageFix" result="effect1_dropShadow_4469_10480"/>
<feBlend mode="normal" in="SourceGraphic" in2="effect1_dropShadow_4469_10480" result="shape"/>
</filter>
<filter id="filter2_d_4469_10480" x="499.3" y="119.326" width="201.4" height="201.4" filterUnits="userSpaceOnUse" color-interpolation-filters="sRGB">
<feFlood flood-opacity="0" result="BackgroundImageFix"/>
<feColorMatrix in="SourceAlpha" type="matrix" values="0 0 0 0 0 0 0 0 0 0 0 0 0 0 0 0 0 0 127 0" result="hardAlpha"/>
<feMorphology radius="3" operator="dilate" in="SourceAlpha" result="effect1_dropShadow_4469_10480"/>
<feOffset/>
<feGaussianBlur stdDeviation="4.85"/>
<feComposite in2="hardAlpha" operator="out"/>
<feColorMatrix type="matrix" values="0 0 0 0 0 0 0 0 0 0 0 0 0 0 0 0 0 0 0.05 0"/>
<feBlend mode="normal" in2="BackgroundImageFix" result="effect1_dropShadow_4469_10480"/>
<feBlend mode="normal" in="SourceGraphic" in2="effect1_dropShadow_4469_10480" result="shape"/>
</filter>
<filter id="filter3_d_4469_10480" x="22" y="24.0265" width="343" height="96" filterUnits="userSpaceOnUse" color-interpolation-filters="sRGB">
<feFlood flood-opacity="0" result="BackgroundImageFix"/>
<feColorMatrix in="SourceAlpha" type="matrix" values="0 0 0 0 0 0 0 0 0 0 0 0 0 0 0 0 0 0 127 0" result="hardAlpha"/>
<feOffset/>
<feGaussianBlur stdDeviation="9"/>
<feComposite in2="hardAlpha" operator="out"/>
<feColorMatrix type="matrix" values="0 0 0 0 0.545833 0 0 0 0 0.545833 0 0 0 0 0.545833 0 0 0 0.25 0"/>
<feBlend mode="normal" in2="BackgroundImageFix" result="effect1_dropShadow_4469_10480"/>
<feBlend mode="normal" in="SourceGraphic" in2="effect1_dropShadow_4469_10480" result="shape"/>
</filter>
<filter id="filter4_d_4469_10480" x="22" y="325.026" width="343" height="96" filterUnits="userSpaceOnUse" color-interpolation-filters="sRGB">
<feFlood flood-opacity="0" result="BackgroundImageFix"/>
<feColorMatrix in="SourceAlpha" type="matrix" values="0 0 0 0 0 0 0 0 0 0 0 0 0 0 0 0 0 0 127 0" result="hardAlpha"/>
<feOffset/>
<feGaussianBlur stdDeviation="9"/>
<feComposite in2="hardAlpha" operator="out"/>
<feColorMatrix type="matrix" values="0 0 0 0 0.545833 0 0 0 0 0.545833 0 0 0 0 0.545833 0 0 0 0.25 0"/>
<feBlend mode="normal" in2="BackgroundImageFix" result="effect1_dropShadow_4469_10480"/>
<feBlend mode="normal" in="SourceGraphic" in2="effect1_dropShadow_4469_10480" result="shape"/>
</filter>
<filter id="filter5_d_4469_10480" x="22" y="106.026" width="456" height="229" filterUnits="userSpaceOnUse" color-interpolation-filters="sRGB">
<feFlood flood-opacity="0" result="BackgroundImageFix"/>
<feColorMatrix in="SourceAlpha" type="matrix" values="0 0 0 0 0 0 0 0 0 0 0 0 0 0 0 0 0 0 127 0" result="hardAlpha"/>
<feOffset/>
<feGaussianBlur stdDeviation="9"/>
<feComposite in2="hardAlpha" operator="out"/>
<feColorMatrix type="matrix" values="0 0 0 0 0.545833 0 0 0 0 0.545833 0 0 0 0 0.545833 0 0 0 0.25 0"/>
<feBlend mode="normal" in2="BackgroundImageFix" result="effect1_dropShadow_4469_10480"/>
<feBlend mode="normal" in="SourceGraphic" in2="effect1_dropShadow_4469_10480" result="shape"/>
</filter>
<filter id="filter6_d_4469_10480" x="835" y="24.0265" width="343" height="96" filterUnits="userSpaceOnUse" color-interpolation-filters="sRGB">
<feFlood flood-opacity="0" result="BackgroundImageFix"/>
<feColorMatrix in="SourceAlpha" type="matrix" values="0 0 0 0 0 0 0 0 0 0 0 0 0 0 0 0 0 0 127 0" result="hardAlpha"/>
<feOffset/>
<feGaussianBlur stdDeviation="9"/>
<feComposite in2="hardAlpha" operator="out"/>
<feColorMatrix type="matrix" values="0 0 0 0 0.545833 0 0 0 0 0.545833 0 0 0 0 0.545833 0 0 0 0.25 0"/>
<feBlend mode="normal" in2="BackgroundImageFix" result="effect1_dropShadow_4469_10480"/>
<feBlend mode="normal" in="SourceGraphic" in2="effect1_dropShadow_4469_10480" result="shape"/>
</filter>
<filter id="filter7_d_4469_10480" x="835" y="325.026" width="343" height="96" filterUnits="userSpaceOnUse" color-interpolation-filters="sRGB">
<feFlood flood-opacity="0" result="BackgroundImageFix"/>
<feColorMatrix in="SourceAlpha" type="matrix" values="0 0 0 0 0 0 0 0 0 0 0 0 0 0 0 0 0 0 127 0" result="hardAlpha"/>
<feOffset/>
<feGaussianBlur stdDeviation="9"/>
<feComposite in2="hardAlpha" operator="out"/>
<feColorMatrix type="matrix" values="0 0 0 0 0.545833 0 0 0 0 0.545833 0 0 0 0 0.545833 0 0 0 0.25 0"/>
<feBlend mode="normal" in2="BackgroundImageFix" result="effect1_dropShadow_4469_10480"/>
<feBlend mode="normal" in="SourceGraphic" in2="effect1_dropShadow_4469_10480" result="shape"/>
</filter>
<filter id="filter8_d_4469_10480" x="722" y="105.026" width="456" height="229" filterUnits="userSpaceOnUse" color-interpolation-filters="sRGB">
<feFlood flood-opacity="0" result="BackgroundImageFix"/>
<feColorMatrix in="SourceAlpha" type="matrix" values="0 0 0 0 0 0 0 0 0 0 0 0 0 0 0 0 0 0 127 0" result="hardAlpha"/>
<feOffset/>
<feGaussianBlur stdDeviation="9"/>
<feComposite in2="hardAlpha" operator="out"/>
<feColorMatrix type="matrix" values="0 0 0 0 0.545833 0 0 0 0 0.545833 0 0 0 0 0.545833 0 0 0 0.25 0"/>
<feBlend mode="normal" in2="BackgroundImageFix" result="effect1_dropShadow_4469_10480"/>
<feBlend mode="normal" in="SourceGraphic" in2="effect1_dropShadow_4469_10480" result="shape"/>
</filter>
<filter id="filter9_d_4469_10480" x="870" y="137.026" width="276" height="168" filterUnits="userSpaceOnUse" color-interpolation-filters="sRGB">
<feFlood flood-opacity="0" result="BackgroundImageFix"/>
<feColorMatrix in="SourceAlpha" type="matrix" values="0 0 0 0 0 0 0 0 0 0 0 0 0 0 0 0 0 0 127 0" result="hardAlpha"/>
<feOffset dx="1" dy="1"/>
<feGaussianBlur stdDeviation="2"/>
<feComposite in2="hardAlpha" operator="out"/>
<feColorMatrix type="matrix" values="0 0 0 0 0 0 0 0 0 0 0 0 0 0 0 0 0 0 0.1 0"/>
<feBlend mode="normal" in2="BackgroundImageFix" result="effect1_dropShadow_4469_10480"/>
<feBlend mode="normal" in="SourceGraphic" in2="effect1_dropShadow_4469_10480" result="shape"/>
</filter>
<linearGradient id="paint0_linear_4469_10480" x1="5.50001" y1="146.776" x2="602.5" y2="146.776" gradientUnits="userSpaceOnUse">
<stop stop-color="#CDF4FD" stop-opacity="0.5"/>
<stop offset="1" stop-color="#00D6FF"/>
</linearGradient>
<linearGradient id="paint1_linear_4469_10480" x1="5.5" y1="298.276" x2="602.5" y2="298.276" gradientUnits="userSpaceOnUse">
<stop stop-color="#CDF4FD" stop-opacity="0.5"/>
<stop offset="1" stop-color="#00D6FF"/>
</linearGradient>
<linearGradient id="paint2_linear_4469_10480" x1="5.50001" y1="144.776" x2="602.5" y2="144.776" gradientUnits="userSpaceOnUse">
<stop stop-color="#CDF4FD"/>
<stop offset="1" stop-color="#00D6FF"/>
</linearGradient>
<linearGradient id="paint3_linear_4469_10480" x1="1194.5" y1="146.776" x2="597.5" y2="146.776" gradientUnits="userSpaceOnUse">
<stop stop-color="#32F8B9" stop-opacity="0.35"/>
<stop offset="1" stop-color="#32F8B9"/>
</linearGradient>
<linearGradient id="paint4_linear_4469_10480" x1="1194.5" y1="298.276" x2="597.5" y2="298.276" gradientUnits="userSpaceOnUse">
<stop stop-color="#32F8B9" stop-opacity="0.35"/>
<stop offset="1" stop-color="#32F8B9"/>
</linearGradient>
<linearGradient id="paint5_linear_4469_10480" x1="1194.5" y1="219.526" x2="594" y2="219.526" gradientUnits="userSpaceOnUse">
<stop stop-color="#32F8B9" stop-opacity="0.35"/>
<stop offset="1" stop-color="#32F8B9"/>
</linearGradient>
<linearGradient id="paint6_linear_4469_10480" x1="512" y1="220.026" x2="688" y2="220.026" gradientUnits="userSpaceOnUse">
<stop stop-color="#00D6FF"/>
<stop offset="1" stop-color="#32F8B9"/>
</linearGradient>
<clipPath id="clip0_4469_10480">
<rect width="76" height="108" fill="white" transform="translate(562 166.026)"/>
</clipPath>
<clipPath id="clip1_4469_10480">
<rect width="26.624" height="26" fill="white" transform="translate(53.7812 58.5265)"/>
</clipPath>
<clipPath id="clip2_4469_10480">
<rect width="32.2852" height="22.5649" fill="white" transform="translate(147.27 361.744)"/>
</clipPath>
<clipPath id="clip3_4469_10480">
<rect width="26.624" height="26" fill="white" transform="translate(197.693 359.526)"/>
</clipPath>
<clipPath id="clip4_4469_10480">
<rect width="40" height="40" fill="white" transform="translate(1112.59 353.026)"/>
</clipPath>
</defs>
</svg>
