<svg width="370" height="296" viewBox="0 0 370 296" fill="none" xmlns="http://www.w3.org/2000/svg">
<g clip-path="url(#clip0_1474_306)">
<rect width="370" height="296" rx="20" fill="white"/>
<g clip-path="url(#clip1_1474_306)">
<path d="M306.948 72.5843L307.036 139.35C309.376 137.91 312.132 137.302 314.86 137.623C317.588 137.944 320.129 139.176 322.07 141.119C324.406 143.469 325.717 146.648 325.717 149.962C325.717 153.276 324.406 156.455 322.07 158.805C320.116 160.727 317.578 161.944 314.856 162.264C312.134 162.585 309.383 161.99 307.036 160.574L307.036 222.653C287.242 222.504 268.308 214.539 254.359 200.493C240.41 186.447 232.576 167.458 232.565 147.663C232.553 127.867 240.364 108.869 254.296 94.8065C268.229 80.7441 287.153 72.7567 306.948 72.5843Z" fill="#9DA3B0"/>
<path d="M96.4768 58.0768L96.4768 110.075L81.2666 110.075C74.7978 110.089 68.5982 112.665 64.0241 117.239C59.45 121.813 56.8739 128.013 56.8594 134.482L56.8594 160.658C56.89 167.145 59.4807 173.358 64.0678 177.945C68.655 182.532 74.8678 185.123 81.355 185.153L96.3884 185.153L96.4769 237.24C96.4875 242.771 98.6897 248.073 102.601 251.985C106.513 255.897 111.815 258.099 117.347 258.109L184.024 258.109C189.556 258.099 194.858 255.897 198.77 251.985C202.681 248.073 204.884 242.771 204.894 237.24L204.894 185.065L207.459 185.153C210.68 185.168 213.871 184.544 216.85 183.318C219.828 182.092 222.534 180.288 224.812 178.011C227.089 175.733 228.893 173.027 230.119 170.049C231.345 167.07 231.969 163.878 231.954 160.658L231.954 147.57L231.954 134.482C231.943 128.012 229.368 121.811 224.793 117.236C220.218 112.661 214.017 110.086 207.547 110.075L204.894 110.075L204.894 58.0767C204.887 52.5204 202.677 47.1938 198.748 43.2648C194.819 39.3359 189.492 37.1255 183.936 37.1184L117.435 37.1184C114.678 37.1021 111.946 37.633 109.395 38.6805C106.845 39.728 104.528 41.2711 102.579 43.2205C100.63 45.17 99.0864 47.4869 98.0389 50.0371C96.9915 52.5872 96.4605 55.3199 96.4768 58.0768ZM184.024 237.24L117.347 237.24L117.435 185.153L183.936 185.153L184.024 237.24ZM183.936 57.9883L184.024 110.075L117.347 110.075L117.347 58.0767L183.936 57.9883Z" fill="#9DA3B0"/>
<rect x="215.303" y="170.437" width="20.9238" height="45.5929" rx="4.1042" transform="rotate(180 215.303 170.437)" fill="#D1D6D9"/>
<rect x="185" y="170.437" width="20.9238" height="45.5929" rx="4.1042" transform="rotate(180 185 170.437)" fill="#D1D6D9"/>
<rect x="154.697" y="170.437" width="20.9238" height="45.5929" rx="4.1042" transform="rotate(180 154.697 170.437)" fill="#D1D6D9"/>
<rect x="124.395" y="170.437" width="20.9238" height="45.5929" rx="4.1042" transform="rotate(180 124.395 170.437)" fill="#D1D6D9"/>
<path d="M87.0861 147.959L89.2614 156.078L63.4838 150.803L76.4736 147.322L74.2982 139.203L100.076 144.478L87.0861 147.959Z" fill="white"/>
</g>
</g>
<defs>
<clipPath id="clip0_1474_306">
<rect width="370" height="296" rx="20" fill="white"/>
</clipPath>
<clipPath id="clip1_1474_306">
<rect width="300.147" height="300.147" fill="white" transform="translate(185 366.797) rotate(-135)"/>
</clipPath>
</defs>
</svg>
