<svg width="64" height="65" viewBox="0 0 64 65" fill="none" xmlns="http://www.w3.org/2000/svg">
<g id="file-icons:velocity">
<path id="Vector" d="M27.5921 40.2126C21.8162 36.8397 21.8162 28.3615 27.5921 24.9886C33.3681 21.6156 40.6272 25.8547 40.6272 32.6006C40.6272 39.3465 33.368 43.5855 27.5921 40.2126ZM20.3971 41.402C20.0906 40.8628 19.6625 40.6188 19.1574 40.42L15.0454 42.4925L15.0667 43.2481L19.2708 45.2885L20.7849 44.2128H33.8726C36.9248 43.5301 38.4139 42.5169 39.6694 41.3477C40.1003 40.9185 40.8519 40.8926 40.8516 41.3571L40.88 45.7118C39.5812 47.1672 39.5752 46.8602 40.1684 48.0728L41.518 50.8558C42.0294 51.7651 42.536 51.4697 42.6104 51.1728L44.2641 47.8006C45.0057 46.5429 43.6456 46.5754 43.5182 45.7259V31.9313C43.3895 29.7496 43.5046 28.3958 40.2274 24.1652C40.3204 23.9557 40.4481 23.7617 40.6434 23.5978H43.2156C43.8929 24.2482 44.4655 24.9923 45.152 24.55L48.6626 22.6144C49.0486 22.3824 49.0878 22.1401 48.5605 21.8805L45.1831 20.0529C44.222 19.5569 44.1314 20.0752 43.2913 20.8365H30.3549C28.7846 21.0115 26.5016 21.904 23.7541 24.0254C23.5537 24.1802 23.0564 24.2651 22.9334 23.8593L22.9687 19.6964C22.8744 18.9331 24.2813 18.5629 23.9439 17.5357L21.9892 13.7692C21.7655 13.3093 21.5397 13.413 21.3317 13.817L19.1949 17.7807C19.4985 18.4607 19.92 18.8233 20.3688 19.0966V34.2491C20.4415 36.146 22.1847 39.4078 23.6975 40.7329L23.4471 41.3519C23.0343 41.5961 21.4281 41.6485 20.3971 41.402Z" fill="#2D7E5D" stroke="#2D7E5D"/>
</g>
</svg>
