<svg width="59" height="59" viewBox="0 0 59 59" fill="none" xmlns="http://www.w3.org/2000/svg">
  <circle cx="29.5" cy="29.5" r="29" fill="#81FEFC" stroke="white"/>
  <circle cx="29.4998" cy="29.5001" r="26.3678" fill="#34F8BB"/>
  <circle cx="29.5003" cy="29.5002" r="23.856" fill="#D7FEF9"/>
  <circle cx="29.5001" cy="29.5001" r="20.6476" fill="white"/>

  <g>
    <path d="M43.6908 21.4201L30.0276 45.8524C29.7455 46.3568 29.0207 46.3598 28.7344 45.8578L14.8003 21.4225C14.4883 20.8755 14.9561 20.2129 15.576 20.3237L29.2538 22.7685C29.3411 22.7841 29.4304 22.7839 29.5177 22.768L42.9095 20.3272C43.5273 20.2146 43.9973 20.872 43.6908 21.4201Z" fill="url(#paint0_linear_252_38)"/>
    <path d="M35.7697 17.1169L25.6585 19.0982C25.4923 19.1307 25.3692 19.2716 25.3592 19.4406L24.7372 29.9453C24.7226 30.1927 24.9498 30.3848 25.1913 30.3291L28.0064 29.6794C28.2698 29.6186 28.5078 29.8506 28.4537 30.1155L27.6173 34.211C27.561 34.4867 27.8198 34.7224 28.089 34.6406L29.8277 34.1123C30.0973 34.0305 30.3563 34.2669 30.2993 34.5427L28.9701 40.9759C28.887 41.3783 29.4222 41.5977 29.6454 41.2527L29.7945 41.0223L38.0337 24.5796C38.1717 24.3043 37.9338 23.9904 37.6314 24.0487L34.7337 24.608C34.4614 24.6605 34.2297 24.4069 34.3066 24.1405L36.1978 17.5842C36.2748 17.3173 36.0423 17.0635 35.7697 17.1169Z" fill="url(#paint1_linear_252_38)"/>
  </g>

  <defs>
  <linearGradient id="paint0_linear_252_38" x1="14.4601" y1="19.4505" x2="31.465" y2="42.5446" gradientUnits="userSpaceOnUse">
  <stop stop-color="#41D1FF"/>
  <stop offset="1" stop-color="#BD34FE"/>
  </linearGradient>
  <linearGradient id="paint1_linear_252_38" x1="28.4691" y1="17.6548" x2="31.5452" y2="38.7566" gradientUnits="userSpaceOnUse">
  <stop stop-color="#FFEA83"/>
  <stop offset="0.0833333" stop-color="#FFDD35"/>
  <stop offset="1" stop-color="#FFA800"/>
  </linearGradient>
  </defs>
</svg>
