<svg width="46" height="45" viewBox="0 0 46 45" fill="none" xmlns="http://www.w3.org/2000/svg">
<g id="mdi:clock-fast">
<g id="Group">
<g id="Vector">
<mask id="path-2-outside-1_1557_2636" maskUnits="userSpaceOnUse" x="0.83725" y="11.5049" width="28" height="28" fill="black">
<rect fill="white" x="0.83725" y="11.5049" width="28" height="28"/>
<path d="M5.52925 28.2249C5.70525 28.2669 5.94425 28.4839 6.01325 28.6819L6.36325 29.5259C6.44225 29.6879 6.42725 30.0089 6.33325 30.1629L4.93625 32.4469C4.63725 32.9369 4.69925 33.6309 5.10125 34.0809L6.28425 35.2629C6.69625 35.6289 7.42325 35.6949 7.89725 35.4079L10.1812 34.0109C10.3242 33.9229 10.6312 33.8919 10.8462 33.9929L11.6892 34.3409C11.8593 34.3999 12.0763 34.6379 12.1182 34.8139L12.7452 37.4179C12.8783 37.9699 13.4052 38.4239 13.9712 38.4759C13.9712 38.4759 14.3183 38.5079 14.8383 38.5079C15.3582 38.5079 15.7052 38.4759 15.7063 38.4759C15.9928 38.4421 16.2626 38.3232 16.4809 38.1347C16.6993 37.9461 16.8561 37.6964 16.9312 37.4179L17.5592 34.8139C17.6012 34.6389 17.8172 34.3999 18.0152 34.3309L18.8592 33.9809C19.0082 33.9079 19.3533 33.9229 19.4963 34.0109L21.7803 35.4079C21.9813 35.5309 22.2213 35.5959 22.4762 35.5959C22.8212 35.5959 23.1552 35.4749 23.4142 35.2439L24.5963 34.0609C24.7836 33.8397 24.8981 33.5661 24.9241 33.2773C24.95 32.9886 24.8862 32.6989 24.7412 32.4479L23.3442 30.1639C23.2502 30.0099 23.2353 29.6889 23.3263 29.4989L23.6742 28.6559C23.7332 28.4859 23.9712 28.2689 24.1472 28.2269L26.7512 27.5999C27.0298 27.5244 27.2794 27.3674 27.468 27.1489C27.6565 26.9304 27.7754 26.6605 27.8092 26.3739C27.8092 26.3739 27.8412 26.0269 27.8412 25.5069C27.8412 24.9869 27.8092 24.6399 27.8092 24.6389C27.7752 24.3523 27.6563 24.0825 27.4678 23.864C27.2793 23.6456 27.0297 23.4884 26.7512 23.4129L24.1483 22.7869C23.9722 22.7449 23.7332 22.5279 23.6642 22.3299L23.3142 21.4859C23.2352 21.3239 23.2502 21.0029 23.3442 20.8489L24.7412 18.5649C25.0402 18.0749 24.9783 17.3809 24.5763 16.9309L23.3932 15.7489C22.9802 15.3819 22.2523 15.3159 21.7803 15.6039L19.4963 17.0009C19.3533 17.0879 19.0452 17.1209 18.8312 17.0189L17.9882 16.6709C17.8182 16.6119 17.6022 16.3739 17.5602 16.1979L16.9323 13.5939C16.8568 13.3153 16.6997 13.0657 16.4812 12.8772C16.2628 12.6886 15.9929 12.5698 15.7063 12.5359C15.7043 12.5369 15.3573 12.5049 14.8372 12.5049C14.3172 12.5049 13.9703 12.5369 13.9692 12.5369C13.6827 12.5709 13.4129 12.6898 13.1944 12.8783C12.9759 13.0668 12.8188 13.3164 12.7432 13.5949L12.1172 16.1969C12.0752 16.3729 11.8582 16.6119 11.6602 16.6809L10.8162 17.0309C10.6663 17.1039 10.3222 17.0879 10.1792 17.0009L7.89625 15.6039C7.42325 15.3159 6.71125 15.3659 6.26225 15.7679L5.08025 16.9509C4.89286 17.1721 4.77836 17.4457 4.75241 17.7344C4.72646 18.0231 4.79031 18.3128 4.93525 18.5639L6.33225 20.8479C6.42625 21.0019 6.44125 21.3229 6.35025 21.5129L6.00225 22.3559C5.94325 22.5259 5.70525 22.7429 5.52925 22.7849L2.92525 23.4119C2.64669 23.4873 2.39708 23.6444 2.20853 23.8629C2.01998 24.0814 1.90112 24.3513 1.86725 24.6379C1.86925 24.6379 1.83725 24.9849 1.83725 25.5049C1.83725 26.0249 1.86925 26.3719 1.86925 26.3729C1.90325 26.6594 2.02216 26.9293 2.21068 27.1477C2.39921 27.3662 2.64875 27.5233 2.92725 27.5989L5.52925 28.2249ZM2.83725 25.5049C2.83725 25.0469 2.86425 24.7379 2.86525 24.7279C2.88118 24.6501 2.91674 24.5776 2.96854 24.5174C3.02035 24.4572 3.08668 24.4112 3.16125 24.3839L5.76525 23.7569C6.27025 23.6349 6.77925 23.1729 6.93725 22.7099L7.26125 21.9229C7.48925 21.4559 7.45725 20.7699 7.18625 20.3259L5.78925 18.0429C5.72225 17.9319 5.74125 17.7119 5.80725 17.6369L6.94825 16.4949C7.03925 16.4139 7.27125 16.3939 7.37525 16.4569L9.65925 17.8539C10.0922 18.1189 10.8343 18.1369 11.2273 17.9419L12.0153 17.6159C12.5063 17.4469 12.9683 16.9379 13.0903 16.4319L13.7162 13.8289C13.7434 13.7541 13.7893 13.6875 13.8495 13.6355C13.9097 13.5835 13.9823 13.5478 14.0602 13.5319C14.0702 13.5319 14.3792 13.5049 14.8372 13.5049C15.2952 13.5049 15.6042 13.5319 15.6143 13.5329C15.6921 13.5488 15.7645 13.5844 15.8247 13.6362C15.8849 13.688 15.9309 13.7543 15.9583 13.8289L16.5852 16.4319C16.7072 16.9369 17.1683 17.4469 17.6322 17.6049L18.4193 17.9289C18.8763 18.1529 19.5843 18.1179 20.0163 17.8539L22.2992 16.4569C22.4032 16.3939 22.6493 16.4269 22.7052 16.4749L23.8472 17.6159C23.9333 17.7129 23.9522 17.9319 23.8853 18.0429L22.4882 20.3269C22.2172 20.7699 22.1852 21.4569 22.4002 21.8949L22.7262 22.6829C22.8953 23.1739 23.4042 23.6359 23.9102 23.7579L26.5133 24.3839C26.5881 24.411 26.6546 24.4569 26.7066 24.5171C26.7586 24.5774 26.7943 24.6499 26.8102 24.7279C26.8102 24.7379 26.8372 25.0469 26.8372 25.5049C26.8372 25.9629 26.8102 26.2719 26.8092 26.2819C26.7933 26.3597 26.7578 26.4321 26.706 26.4923C26.6542 26.5526 26.5878 26.5985 26.5133 26.6259L23.9093 27.2529C23.4043 27.3749 22.8953 27.8369 22.7372 28.2999L22.4132 29.0869C22.1852 29.5539 22.2172 30.2399 22.4882 30.6839L23.8853 32.9669C23.9522 33.0779 23.9333 33.2979 23.8673 33.3729L22.7262 34.5149C22.654 34.5689 22.5655 34.5968 22.4753 34.5939C22.4143 34.5959 22.354 34.5817 22.3002 34.5529L20.0163 33.1559C19.5843 32.8919 18.8422 32.8729 18.4482 33.0679L17.6602 33.3939C17.1692 33.5629 16.7072 34.0729 16.5862 34.5779L15.9592 37.1809C15.9321 37.2557 15.8862 37.3223 15.826 37.3743C15.7658 37.4263 15.6932 37.4619 15.6152 37.4779C15.6042 37.4779 15.2952 37.5049 14.8372 37.5049C14.3792 37.5049 14.0702 37.4779 14.0602 37.4769C13.9824 37.461 13.91 37.4254 13.8498 37.3736C13.7896 37.3218 13.7436 37.2554 13.7162 37.1809L13.0892 34.5769C12.9672 34.0719 12.5052 33.5629 12.0422 33.4049L11.2552 33.0809C11.0315 32.9768 10.787 32.9249 10.5402 32.9289C10.2113 32.9289 9.89825 33.0099 9.65825 33.1569L7.37525 34.5539C7.27125 34.6169 7.02425 34.5829 6.96925 34.5359L5.82725 33.3939C5.74125 33.2969 5.72225 33.0779 5.78925 32.9669L7.18625 30.6829C7.45725 30.2399 7.48925 29.5529 7.27425 29.1149L6.94825 28.3269C6.77925 27.8359 6.27025 27.3739 5.76425 27.2519L3.16125 26.6259C3.08645 26.5987 3.01986 26.5529 2.96786 26.4926C2.91586 26.4324 2.88019 26.3598 2.86425 26.2819C2.86425 26.2719 2.83725 25.9629 2.83725 25.5049Z"/>
</mask>
<path d="M5.52925 28.2249C5.70525 28.2669 5.94425 28.4839 6.01325 28.6819L6.36325 29.5259C6.44225 29.6879 6.42725 30.0089 6.33325 30.1629L4.93625 32.4469C4.63725 32.9369 4.69925 33.6309 5.10125 34.0809L6.28425 35.2629C6.69625 35.6289 7.42325 35.6949 7.89725 35.4079L10.1812 34.0109C10.3242 33.9229 10.6312 33.8919 10.8462 33.9929L11.6892 34.3409C11.8593 34.3999 12.0763 34.6379 12.1182 34.8139L12.7452 37.4179C12.8783 37.9699 13.4052 38.4239 13.9712 38.4759C13.9712 38.4759 14.3183 38.5079 14.8383 38.5079C15.3582 38.5079 15.7052 38.4759 15.7063 38.4759C15.9928 38.4421 16.2626 38.3232 16.4809 38.1347C16.6993 37.9461 16.8561 37.6964 16.9312 37.4179L17.5592 34.8139C17.6012 34.6389 17.8172 34.3999 18.0152 34.3309L18.8592 33.9809C19.0082 33.9079 19.3533 33.9229 19.4963 34.0109L21.7803 35.4079C21.9813 35.5309 22.2213 35.5959 22.4762 35.5959C22.8212 35.5959 23.1552 35.4749 23.4142 35.2439L24.5963 34.0609C24.7836 33.8397 24.8981 33.5661 24.9241 33.2773C24.95 32.9886 24.8862 32.6989 24.7412 32.4479L23.3442 30.1639C23.2502 30.0099 23.2353 29.6889 23.3263 29.4989L23.6742 28.6559C23.7332 28.4859 23.9712 28.2689 24.1472 28.2269L26.7512 27.5999C27.0298 27.5244 27.2794 27.3674 27.468 27.1489C27.6565 26.9304 27.7754 26.6605 27.8092 26.3739C27.8092 26.3739 27.8412 26.0269 27.8412 25.5069C27.8412 24.9869 27.8092 24.6399 27.8092 24.6389C27.7752 24.3523 27.6563 24.0825 27.4678 23.864C27.2793 23.6456 27.0297 23.4884 26.7512 23.4129L24.1483 22.7869C23.9722 22.7449 23.7332 22.5279 23.6642 22.3299L23.3142 21.4859C23.2352 21.3239 23.2502 21.0029 23.3442 20.8489L24.7412 18.5649C25.0402 18.0749 24.9783 17.3809 24.5763 16.9309L23.3932 15.7489C22.9802 15.3819 22.2523 15.3159 21.7803 15.6039L19.4963 17.0009C19.3533 17.0879 19.0452 17.1209 18.8312 17.0189L17.9882 16.6709C17.8182 16.6119 17.6022 16.3739 17.5602 16.1979L16.9323 13.5939C16.8568 13.3153 16.6997 13.0657 16.4812 12.8772C16.2628 12.6886 15.9929 12.5698 15.7063 12.5359C15.7043 12.5369 15.3573 12.5049 14.8372 12.5049C14.3172 12.5049 13.9703 12.5369 13.9692 12.5369C13.6827 12.5709 13.4129 12.6898 13.1944 12.8783C12.9759 13.0668 12.8188 13.3164 12.7432 13.5949L12.1172 16.1969C12.0752 16.3729 11.8582 16.6119 11.6602 16.6809L10.8162 17.0309C10.6663 17.1039 10.3222 17.0879 10.1792 17.0009L7.89625 15.6039C7.42325 15.3159 6.71125 15.3659 6.26225 15.7679L5.08025 16.9509C4.89286 17.1721 4.77836 17.4457 4.75241 17.7344C4.72646 18.0231 4.79031 18.3128 4.93525 18.5639L6.33225 20.8479C6.42625 21.0019 6.44125 21.3229 6.35025 21.5129L6.00225 22.3559C5.94325 22.5259 5.70525 22.7429 5.52925 22.7849L2.92525 23.4119C2.64669 23.4873 2.39708 23.6444 2.20853 23.8629C2.01998 24.0814 1.90112 24.3513 1.86725 24.6379C1.86925 24.6379 1.83725 24.9849 1.83725 25.5049C1.83725 26.0249 1.86925 26.3719 1.86925 26.3729C1.90325 26.6594 2.02216 26.9293 2.21068 27.1477C2.39921 27.3662 2.64875 27.5233 2.92725 27.5989L5.52925 28.2249ZM2.83725 25.5049C2.83725 25.0469 2.86425 24.7379 2.86525 24.7279C2.88118 24.6501 2.91674 24.5776 2.96854 24.5174C3.02035 24.4572 3.08668 24.4112 3.16125 24.3839L5.76525 23.7569C6.27025 23.6349 6.77925 23.1729 6.93725 22.7099L7.26125 21.9229C7.48925 21.4559 7.45725 20.7699 7.18625 20.3259L5.78925 18.0429C5.72225 17.9319 5.74125 17.7119 5.80725 17.6369L6.94825 16.4949C7.03925 16.4139 7.27125 16.3939 7.37525 16.4569L9.65925 17.8539C10.0922 18.1189 10.8343 18.1369 11.2273 17.9419L12.0153 17.6159C12.5063 17.4469 12.9683 16.9379 13.0903 16.4319L13.7162 13.8289C13.7434 13.7541 13.7893 13.6875 13.8495 13.6355C13.9097 13.5835 13.9823 13.5478 14.0602 13.5319C14.0702 13.5319 14.3792 13.5049 14.8372 13.5049C15.2952 13.5049 15.6042 13.5319 15.6143 13.5329C15.6921 13.5488 15.7645 13.5844 15.8247 13.6362C15.8849 13.688 15.9309 13.7543 15.9583 13.8289L16.5852 16.4319C16.7072 16.9369 17.1683 17.4469 17.6322 17.6049L18.4193 17.9289C18.8763 18.1529 19.5843 18.1179 20.0163 17.8539L22.2992 16.4569C22.4032 16.3939 22.6493 16.4269 22.7052 16.4749L23.8472 17.6159C23.9333 17.7129 23.9522 17.9319 23.8853 18.0429L22.4882 20.3269C22.2172 20.7699 22.1852 21.4569 22.4002 21.8949L22.7262 22.6829C22.8953 23.1739 23.4042 23.6359 23.9102 23.7579L26.5133 24.3839C26.5881 24.411 26.6546 24.4569 26.7066 24.5171C26.7586 24.5774 26.7943 24.6499 26.8102 24.7279C26.8102 24.7379 26.8372 25.0469 26.8372 25.5049C26.8372 25.9629 26.8102 26.2719 26.8092 26.2819C26.7933 26.3597 26.7578 26.4321 26.706 26.4923C26.6542 26.5526 26.5878 26.5985 26.5133 26.6259L23.9093 27.2529C23.4043 27.3749 22.8953 27.8369 22.7372 28.2999L22.4132 29.0869C22.1852 29.5539 22.2172 30.2399 22.4882 30.6839L23.8853 32.9669C23.9522 33.0779 23.9333 33.2979 23.8673 33.3729L22.7262 34.5149C22.654 34.5689 22.5655 34.5968 22.4753 34.5939C22.4143 34.5959 22.354 34.5817 22.3002 34.5529L20.0163 33.1559C19.5843 32.8919 18.8422 32.8729 18.4482 33.0679L17.6602 33.3939C17.1692 33.5629 16.7072 34.0729 16.5862 34.5779L15.9592 37.1809C15.9321 37.2557 15.8862 37.3223 15.826 37.3743C15.7658 37.4263 15.6932 37.4619 15.6152 37.4779C15.6042 37.4779 15.2952 37.5049 14.8372 37.5049C14.3792 37.5049 14.0702 37.4779 14.0602 37.4769C13.9824 37.461 13.91 37.4254 13.8498 37.3736C13.7896 37.3218 13.7436 37.2554 13.7162 37.1809L13.0892 34.5769C12.9672 34.0719 12.5052 33.5629 12.0422 33.4049L11.2552 33.0809C11.0315 32.9768 10.787 32.9249 10.5402 32.9289C10.2113 32.9289 9.89825 33.0099 9.65825 33.1569L7.37525 34.5539C7.27125 34.6169 7.02425 34.5829 6.96925 34.5359L5.82725 33.3939C5.74125 33.2969 5.72225 33.0779 5.78925 32.9669L7.18625 30.6829C7.45725 30.2399 7.48925 29.5529 7.27425 29.1149L6.94825 28.3269C6.77925 27.8359 6.27025 27.3739 5.76425 27.2519L3.16125 26.6259C3.08645 26.5987 3.01986 26.5529 2.96786 26.4926C2.91586 26.4324 2.88019 26.3598 2.86425 26.2819C2.86425 26.2719 2.83725 25.9629 2.83725 25.5049Z" fill="#2D7E5D"/>
<path d="M5.52925 28.2249C5.70525 28.2669 5.94425 28.4839 6.01325 28.6819L6.36325 29.5259C6.44225 29.6879 6.42725 30.0089 6.33325 30.1629L4.93625 32.4469C4.63725 32.9369 4.69925 33.6309 5.10125 34.0809L6.28425 35.2629C6.69625 35.6289 7.42325 35.6949 7.89725 35.4079L10.1812 34.0109C10.3242 33.9229 10.6312 33.8919 10.8462 33.9929L11.6892 34.3409C11.8593 34.3999 12.0763 34.6379 12.1182 34.8139L12.7452 37.4179C12.8783 37.9699 13.4052 38.4239 13.9712 38.4759C13.9712 38.4759 14.3183 38.5079 14.8383 38.5079C15.3582 38.5079 15.7052 38.4759 15.7063 38.4759C15.9928 38.4421 16.2626 38.3232 16.4809 38.1347C16.6993 37.9461 16.8561 37.6964 16.9312 37.4179L17.5592 34.8139C17.6012 34.6389 17.8172 34.3999 18.0152 34.3309L18.8592 33.9809C19.0082 33.9079 19.3533 33.9229 19.4963 34.0109L21.7803 35.4079C21.9813 35.5309 22.2213 35.5959 22.4762 35.5959C22.8212 35.5959 23.1552 35.4749 23.4142 35.2439L24.5963 34.0609C24.7836 33.8397 24.8981 33.5661 24.9241 33.2773C24.95 32.9886 24.8862 32.6989 24.7412 32.4479L23.3442 30.1639C23.2502 30.0099 23.2353 29.6889 23.3263 29.4989L23.6742 28.6559C23.7332 28.4859 23.9712 28.2689 24.1472 28.2269L26.7512 27.5999C27.0298 27.5244 27.2794 27.3674 27.468 27.1489C27.6565 26.9304 27.7754 26.6605 27.8092 26.3739C27.8092 26.3739 27.8412 26.0269 27.8412 25.5069C27.8412 24.9869 27.8092 24.6399 27.8092 24.6389C27.7752 24.3523 27.6563 24.0825 27.4678 23.864C27.2793 23.6456 27.0297 23.4884 26.7512 23.4129L24.1483 22.7869C23.9722 22.7449 23.7332 22.5279 23.6642 22.3299L23.3142 21.4859C23.2352 21.3239 23.2502 21.0029 23.3442 20.8489L24.7412 18.5649C25.0402 18.0749 24.9783 17.3809 24.5763 16.9309L23.3932 15.7489C22.9802 15.3819 22.2523 15.3159 21.7803 15.6039L19.4963 17.0009C19.3533 17.0879 19.0452 17.1209 18.8312 17.0189L17.9882 16.6709C17.8182 16.6119 17.6022 16.3739 17.5602 16.1979L16.9323 13.5939C16.8568 13.3153 16.6997 13.0657 16.4812 12.8772C16.2628 12.6886 15.9929 12.5698 15.7063 12.5359C15.7043 12.5369 15.3573 12.5049 14.8372 12.5049C14.3172 12.5049 13.9703 12.5369 13.9692 12.5369C13.6827 12.5709 13.4129 12.6898 13.1944 12.8783C12.9759 13.0668 12.8188 13.3164 12.7432 13.5949L12.1172 16.1969C12.0752 16.3729 11.8582 16.6119 11.6602 16.6809L10.8162 17.0309C10.6663 17.1039 10.3222 17.0879 10.1792 17.0009L7.89625 15.6039C7.42325 15.3159 6.71125 15.3659 6.26225 15.7679L5.08025 16.9509C4.89286 17.1721 4.77836 17.4457 4.75241 17.7344C4.72646 18.0231 4.79031 18.3128 4.93525 18.5639L6.33225 20.8479C6.42625 21.0019 6.44125 21.3229 6.35025 21.5129L6.00225 22.3559C5.94325 22.5259 5.70525 22.7429 5.52925 22.7849L2.92525 23.4119C2.64669 23.4873 2.39708 23.6444 2.20853 23.8629C2.01998 24.0814 1.90112 24.3513 1.86725 24.6379C1.86925 24.6379 1.83725 24.9849 1.83725 25.5049C1.83725 26.0249 1.86925 26.3719 1.86925 26.3729C1.90325 26.6594 2.02216 26.9293 2.21068 27.1477C2.39921 27.3662 2.64875 27.5233 2.92725 27.5989L5.52925 28.2249ZM2.83725 25.5049C2.83725 25.0469 2.86425 24.7379 2.86525 24.7279C2.88118 24.6501 2.91674 24.5776 2.96854 24.5174C3.02035 24.4572 3.08668 24.4112 3.16125 24.3839L5.76525 23.7569C6.27025 23.6349 6.77925 23.1729 6.93725 22.7099L7.26125 21.9229C7.48925 21.4559 7.45725 20.7699 7.18625 20.3259L5.78925 18.0429C5.72225 17.9319 5.74125 17.7119 5.80725 17.6369L6.94825 16.4949C7.03925 16.4139 7.27125 16.3939 7.37525 16.4569L9.65925 17.8539C10.0922 18.1189 10.8343 18.1369 11.2273 17.9419L12.0153 17.6159C12.5063 17.4469 12.9683 16.9379 13.0903 16.4319L13.7162 13.8289C13.7434 13.7541 13.7893 13.6875 13.8495 13.6355C13.9097 13.5835 13.9823 13.5478 14.0602 13.5319C14.0702 13.5319 14.3792 13.5049 14.8372 13.5049C15.2952 13.5049 15.6042 13.5319 15.6143 13.5329C15.6921 13.5488 15.7645 13.5844 15.8247 13.6362C15.8849 13.688 15.9309 13.7543 15.9583 13.8289L16.5852 16.4319C16.7072 16.9369 17.1683 17.4469 17.6322 17.6049L18.4193 17.9289C18.8763 18.1529 19.5843 18.1179 20.0163 17.8539L22.2992 16.4569C22.4032 16.3939 22.6493 16.4269 22.7052 16.4749L23.8472 17.6159C23.9333 17.7129 23.9522 17.9319 23.8853 18.0429L22.4882 20.3269C22.2172 20.7699 22.1852 21.4569 22.4002 21.8949L22.7262 22.6829C22.8953 23.1739 23.4042 23.6359 23.9102 23.7579L26.5133 24.3839C26.5881 24.411 26.6546 24.4569 26.7066 24.5171C26.7586 24.5774 26.7943 24.6499 26.8102 24.7279C26.8102 24.7379 26.8372 25.0469 26.8372 25.5049C26.8372 25.9629 26.8102 26.2719 26.8092 26.2819C26.7933 26.3597 26.7578 26.4321 26.706 26.4923C26.6542 26.5526 26.5878 26.5985 26.5133 26.6259L23.9093 27.2529C23.4043 27.3749 22.8953 27.8369 22.7372 28.2999L22.4132 29.0869C22.1852 29.5539 22.2172 30.2399 22.4882 30.6839L23.8853 32.9669C23.9522 33.0779 23.9333 33.2979 23.8673 33.3729L22.7262 34.5149C22.654 34.5689 22.5655 34.5968 22.4753 34.5939C22.4143 34.5959 22.354 34.5817 22.3002 34.5529L20.0163 33.1559C19.5843 32.8919 18.8422 32.8729 18.4482 33.0679L17.6602 33.3939C17.1692 33.5629 16.7072 34.0729 16.5862 34.5779L15.9592 37.1809C15.9321 37.2557 15.8862 37.3223 15.826 37.3743C15.7658 37.4263 15.6932 37.4619 15.6152 37.4779C15.6042 37.4779 15.2952 37.5049 14.8372 37.5049C14.3792 37.5049 14.0702 37.4779 14.0602 37.4769C13.9824 37.461 13.91 37.4254 13.8498 37.3736C13.7896 37.3218 13.7436 37.2554 13.7162 37.1809L13.0892 34.5769C12.9672 34.0719 12.5052 33.5629 12.0422 33.4049L11.2552 33.0809C11.0315 32.9768 10.787 32.9249 10.5402 32.9289C10.2113 32.9289 9.89825 33.0099 9.65825 33.1569L7.37525 34.5539C7.27125 34.6169 7.02425 34.5829 6.96925 34.5359L5.82725 33.3939C5.74125 33.2969 5.72225 33.0779 5.78925 32.9669L7.18625 30.6829C7.45725 30.2399 7.48925 29.5529 7.27425 29.1149L6.94825 28.3269C6.77925 27.8359 6.27025 27.3739 5.76425 27.2519L3.16125 26.6259C3.08645 26.5987 3.01986 26.5529 2.96786 26.4926C2.91586 26.4324 2.88019 26.3598 2.86425 26.2819C2.86425 26.2719 2.83725 25.9629 2.83725 25.5049Z" stroke="#2D7E5D" mask="url(#path-2-outside-1_1557_2636)"/>
</g>
<path id="Vector_2" d="M29.3142 11.8189C29.2471 11.8943 29.1552 11.9432 29.0552 11.9569L27.1942 11.9389C26.9646 11.945 26.7419 12.0191 26.5544 12.1519C26.367 12.2848 26.2232 12.4702 26.1412 12.6849C26.1412 12.6849 26.0592 12.9179 25.9692 13.2749C25.8792 13.6319 25.8412 13.8759 25.8412 13.8759C25.7712 14.3269 26.0222 14.8259 26.4252 15.0369L28.0662 15.8969C28.1542 15.9635 28.2135 16.0611 28.2322 16.1699L28.3252 16.8049C28.3311 16.9052 28.3014 17.0044 28.2412 17.0849L26.9192 18.3809C26.5882 18.7049 26.5012 19.2589 26.7292 19.6939L27.3282 20.6939C27.5812 21.0659 28.1292 21.2559 28.5592 21.1219L30.3832 20.5639C30.4822 20.5639 30.5812 20.6019 30.6372 20.6469L31.1522 21.0269C31.2272 21.0944 31.276 21.186 31.2902 21.2859L31.2722 23.1379C31.2682 23.5939 31.5882 24.0509 32.0182 24.2009C32.0182 24.2009 32.2512 24.2829 32.6082 24.3729C32.9652 24.4629 33.2092 24.5009 33.2092 24.5009C33.2352 24.5049 33.3392 24.5129 33.3652 24.5129C33.5703 24.5103 33.7711 24.4539 33.9475 24.3493C34.1238 24.2447 34.2696 24.0956 34.3702 23.9169L35.2302 22.2759C35.2969 22.1879 35.3945 22.1286 35.5032 22.1099L36.1662 22.0139C36.2662 22.0139 36.3842 22.0659 36.4172 22.0999L37.7132 23.4219C38.0282 23.7439 38.5592 23.8589 39.0262 23.6119L40.0252 23.0129C40.4072 22.7529 40.5922 22.2229 40.4542 21.7819L39.9022 20.0149C39.8875 19.9051 39.9154 19.7938 39.9802 19.7039L40.3602 19.1889C40.4274 19.1135 40.5192 19.0646 40.6192 19.0509L42.4802 19.0689C42.7099 19.0628 42.9326 18.9886 43.1201 18.8558C43.3075 18.723 43.4513 18.5375 43.5332 18.3229C43.5332 18.3229 43.6152 18.0899 43.7052 17.7329C43.7952 17.3759 43.8332 17.1319 43.8332 17.1319C43.8629 16.9022 43.8232 16.6688 43.7191 16.4619C43.615 16.255 43.4514 16.084 43.2492 15.9709L41.6082 15.1109C41.5203 15.0442 41.4609 14.9467 41.4422 14.8379L41.3502 14.2049C41.3443 14.1046 41.3741 14.0054 41.4342 13.9249L42.7562 12.6289C43.0872 12.3049 43.1742 11.7509 42.9462 11.3159L42.3472 10.3159C42.0942 9.94489 41.5472 9.75289 41.1162 9.88689L39.2912 10.4449C39.1999 10.4448 39.111 10.4157 39.0372 10.3619L38.5222 9.98189C38.4473 9.91441 38.3984 9.82273 38.3842 9.72289L38.4022 7.87089C38.3984 7.63944 38.3252 7.41445 38.1923 7.22497C38.0593 7.03549 37.8726 6.89021 37.6562 6.80789C37.6562 6.80789 37.4232 6.72589 37.0662 6.63589C36.7092 6.54589 36.4652 6.50789 36.4652 6.50789C36.4134 6.50273 36.3613 6.49906 36.3092 6.49689C36.1042 6.49944 35.9034 6.55585 35.727 6.66045C35.5506 6.76505 35.4048 6.91418 35.3042 7.09289L34.4442 8.73389C34.3776 8.82185 34.28 8.88119 34.1712 8.89989L33.5082 8.99489C33.4177 8.99293 33.33 8.96287 33.2572 8.90889L31.9612 7.58689C31.7918 7.41835 31.5727 7.30886 31.3362 7.27463C31.0997 7.24041 30.8585 7.28328 30.6482 7.39689L29.6482 7.99489C29.2662 8.25489 29.0812 8.78489 29.2192 9.22589L29.7712 10.9929C29.786 11.1027 29.7581 11.214 29.6932 11.3039L29.3142 11.8189ZM30.1342 12.3909L30.4772 11.9249C30.7452 11.6079 30.8492 11.0909 30.7252 10.6959L30.1742 8.92989C30.1692 8.90189 30.1912 8.83889 30.1862 8.83789L31.1342 8.26989L31.2472 8.28689L32.5442 9.60889C32.7742 9.84289 33.1532 9.99489 33.5092 9.99489C33.5777 9.99597 33.6461 9.98959 33.7132 9.97589L34.2882 9.89089C34.5042 9.86469 34.711 9.78827 34.8922 9.66775C35.0733 9.54724 35.2237 9.38598 35.3312 9.19689L36.1902 7.55689C36.2212 7.52221 36.264 7.50043 36.3102 7.49589C36.3212 7.49689 36.5252 7.53089 36.8232 7.60489C37.1202 7.67989 37.3162 7.74689 37.3252 7.75089C37.3562 7.76389 37.4012 7.82889 37.4032 7.86089L37.3852 9.71289C37.3812 10.1269 37.6302 10.5919 37.9522 10.8019L38.4172 11.1449C38.7262 11.4059 39.2562 11.5159 39.6462 11.3929L41.1602 11.0234C41.2022 11.0234 41.5092 10.8669 41.5032 10.8539L42.0712 11.8019C42.0822 11.8279 42.0712 11.8939 42.0542 11.9149L40.7322 13.2119C40.4372 13.5029 40.2842 14.0069 40.3652 14.3809L40.4492 14.9559C40.4852 15.3679 40.7772 15.8069 41.1442 15.9989L42.7842 16.8579C42.8186 16.889 42.8403 16.9318 42.8452 16.9779C42.8159 17.1503 42.7796 17.3214 42.7362 17.4909C42.6948 17.6602 42.6461 17.8277 42.5902 17.9929C42.5772 18.0239 42.5122 18.0689 42.4802 18.0709L40.6182 18.0529C40.2072 18.0529 39.7472 18.3019 39.5392 18.6199L39.1972 19.0849C39.0622 19.2558 38.9694 19.4562 38.9263 19.6697C38.8832 19.8833 38.8911 20.104 38.9492 20.3139L39.5002 22.0799C39.5052 22.1069 39.4832 22.1709 39.4882 22.1719L38.5402 22.7399L38.4272 22.7229L37.1302 21.4009C36.9002 21.1669 36.5212 21.0149 36.1652 21.0149C36.0967 21.0138 36.0283 21.0202 35.9612 21.0339L35.3862 21.1189C35.1703 21.1451 34.9634 21.2215 34.7823 21.342C34.6012 21.4625 34.4508 21.6238 34.3432 21.8129L33.4842 23.4529C33.4533 23.4876 33.4105 23.5093 33.3642 23.5139C33.1918 23.4846 33.0207 23.4482 32.8512 23.4049C32.6819 23.3634 32.5144 23.3147 32.3492 23.2589C32.3182 23.2459 32.2732 23.1809 32.2712 23.1489L32.2892 21.2969C32.2932 20.8829 32.0442 20.4179 31.7222 20.2079L31.2572 19.8649C31.0861 19.7298 30.8856 19.6369 30.6719 19.5938C30.4582 19.5508 30.2373 19.5587 30.0272 19.6169L28.2532 20.1689C28.2852 20.0586 28.1632 20.1459 28.1702 20.1559L27.6022 19.2079C27.5912 19.1819 27.6022 19.1159 27.6192 19.0949L28.9412 17.7979C29.2362 17.5069 29.3892 17.0029 29.3082 16.6289L29.2242 16.0549C29.198 15.8388 29.1215 15.6319 29.0008 15.4507C28.8801 15.2696 28.7186 15.1193 28.5292 15.0119L26.8892 14.1529C26.8549 14.1217 26.8332 14.079 26.8282 14.0329C26.8292 14.0219 26.8632 13.8179 26.9372 13.5199C27.0122 13.2229 27.0792 13.0269 27.0832 13.0179C27.0962 12.9869 27.1612 12.9419 27.1932 12.9399L29.0552 12.9579C29.4662 12.9579 29.9262 12.7089 30.1342 12.3909Z" fill="#2D7E5D" stroke="#2D7E5D" stroke-width="0.8"/>
<path id="Vector_3" d="M34.8372 18.5049C36.4913 18.5049 37.8372 17.1589 37.8372 15.5049C37.8372 13.8509 36.4913 12.5049 34.8372 12.5049C33.1832 12.5049 31.8372 13.8509 31.8372 15.5049C31.8372 17.1589 33.1832 18.5049 34.8372 18.5049ZM34.8372 13.5049C35.9402 13.5049 36.8372 14.4019 36.8372 15.5049C36.8372 16.6079 35.9402 17.5049 34.8372 17.5049C33.7342 17.5049 32.8372 16.6079 32.8372 15.5049C32.8372 14.4019 33.7342 13.5049 34.8372 13.5049Z" fill="#2D7E5D" stroke="#2D7E5D" stroke-width="0.5"/>
</g>
<circle id="Ellipse 1" cx="14.8392" cy="25.5064" r="3.5625" stroke="#2D7E5D" stroke-width="2"/>
</g>
</svg>
