<svg width="45" height="45" viewBox="0 0 45 45" fill="none" xmlns="http://www.w3.org/2000/svg">
<rect x="4.52734" y="14.8549" width="35.9433" height="23.395" rx="2.11254" stroke="#2D7E5D" stroke-width="2"/>
<path d="M19.5425 26.0186H18.7925V26.7686H19.5425V26.0186ZM25.4531 26.0186V26.7686H26.2031V26.0186H25.4531ZM29.0283 26.1512L28.2785 26.1348L28.2783 26.143V26.1512H29.0283ZM17.7547 22.9713C16.353 22.9713 15.2168 24.1075 15.2168 25.5091H16.7168C16.7168 24.9359 17.1815 24.4713 17.7547 24.4713V22.9713ZM20.2925 25.5091C20.2925 24.1075 19.1563 22.9713 17.7547 22.9713V24.4713C18.3278 24.4713 18.7925 24.9359 18.7925 25.5091H20.2925ZM20.2925 26.0186V25.5091H18.7925V26.0186H20.2925ZM25.4531 25.2686H19.5425V26.7686H25.4531V25.2686ZM26.2031 26.0186V25.5091H24.7031V26.0186H26.2031ZM26.2031 25.5091C26.2031 24.9359 26.6677 24.4713 27.2409 24.4713V22.9713C25.8393 22.9713 24.7031 24.1075 24.7031 25.5091H26.2031ZM27.2409 24.4713C27.8141 24.4713 28.2788 24.9359 28.2788 25.5091H29.7788C29.7788 24.1075 28.6425 22.9713 27.2409 22.9713V24.4713ZM28.2788 25.5091V26.1112H29.7788V25.5091H28.2788ZM28.2788 26.1112C28.2788 26.1191 28.2787 26.127 28.2785 26.1348L29.7782 26.1677C29.7786 26.1489 29.7788 26.1301 29.7788 26.1112H28.2788ZM29.7783 28.2974V26.1512H28.2783V28.2974H29.7783ZM27.5462 30.5296C28.779 30.5296 29.7783 29.5302 29.7783 28.2974H28.2783C28.2783 28.7018 27.9505 29.0296 27.5462 29.0296V30.5296ZM17.449 30.5296H27.5462V29.0296H17.449V30.5296ZM15.2168 28.2974C15.2168 29.5302 16.2162 30.5296 17.449 30.5296V29.0296C17.0446 29.0296 16.7168 28.7018 16.7168 28.2974H15.2168ZM15.2168 26.1112V28.2974H16.7168V26.1112H15.2168ZM15.2168 26.0186V26.1112H16.7168V26.0186H15.2168ZM15.2168 25.5091V26.0186H16.7168V25.5091H15.2168Z" fill="#2D7E5D"/>
<path d="M6.24805 14.2724V9.82595C6.24805 9.74409 6.31441 9.67773 6.39626 9.67773H12.9995L13.4426 10.1965M13.4426 10.1965L14.9621 11.9751H38.749V14.2724V10.3447C38.749 10.2628 38.6827 10.1965 38.6008 10.1965H13.4426Z" stroke="#2D7E5D" stroke-width="1.25"/>
<path d="M8.10352 9.67772V5.89822C8.10352 5.81636 8.16987 5.75 8.25173 5.75H14.085L14.4777 6.19345M14.4777 6.19345L15.8238 7.71386H36.8982V9.67772V6.34167C36.8982 6.25981 36.8319 6.19345 36.75 6.19345H14.4777Z" stroke="#2D7E5D" stroke-width="1.25"/>
</svg>
