<svg width="213" height="56" viewBox="0 0 213 56" fill="none" xmlns="http://www.w3.org/2000/svg">
<g clip-path="url(#clip0_3995_16108)">
<path d="M23.9069 0.0202637H0.507812V55.9799L23.9069 0.0202637Z" fill="#858686"/>
<path d="M40.3701 0.0202637H63.7387V55.9799L40.3701 0.0202637Z" fill="#858686"/>
<path d="M32.1387 20.645L47.0318 55.9799H37.2606L32.8094 44.7301H21.9102L32.1387 20.645Z" fill="#858686"/>
<path d="M101.913 35.6069L104.672 43.5184C104.763 43.7165 104.9 43.808 105.144 43.808H110.449C110.739 43.808 110.784 43.6708 110.739 43.3812L99.7784 12.9395C99.7327 12.6956 99.6869 12.6499 99.443 12.6499H92.8578C92.6749 12.6499 92.5681 12.7871 92.5681 12.9853C92.4767 14.5859 92.3395 15.0737 92.1413 15.5462L82.3701 43.3354C82.3244 43.6708 82.4311 43.808 82.7055 43.808H87.4463C87.7359 43.808 87.8731 43.7165 87.9798 43.4269L90.5865 35.6069H101.913ZM92.0956 30.4393C93.5285 26.1101 95.4187 20.5614 96.1809 17.3907H96.2266C97.1717 20.7138 99.3973 27.2991 100.403 30.4393H92.0956Z" fill="#858686"/>
<path d="M124.829 44.2805C127.679 44.2805 130.713 43.7623 133.792 42.4361C134.036 42.3446 134.082 42.2379 134.082 42.0092C133.99 41.1556 133.884 39.9208 133.884 38.9757V10.3176C133.884 10.1347 133.884 10.0432 133.655 10.0432H128.487C128.289 10.0432 128.198 10.1347 128.198 10.3786V20.0888C127.39 19.9973 126.826 19.9516 126.155 19.9516C117.817 19.9516 112.695 25.4546 112.695 32.3295C112.695 40.3019 117.954 44.2805 124.829 44.2805ZM128.198 38.9757C127.344 39.2501 126.399 39.3568 125.439 39.3568C121.658 39.3568 118.564 37.2227 118.564 32.0399C118.564 27.4515 121.75 24.7381 125.972 24.7381C126.826 24.7381 127.573 24.8296 128.198 25.0735V38.9757Z" fill="#858686"/>
<path d="M150.567 19.9517C143.449 19.9517 139.043 25.4089 139.043 32.1466C139.043 38.1679 142.549 44.2806 150.461 44.2806C157.153 44.2806 161.848 39.3569 161.848 31.9942C161.848 25.5004 157.869 19.9517 150.567 19.9517ZM150.278 24.7382C154.302 24.7382 156.009 28.1985 156.009 32.1466C156.009 37.0246 153.494 39.4483 150.567 39.4483C146.955 39.4483 144.821 36.4148 144.821 32.0399C144.821 27.543 147.092 24.7382 150.278 24.7382Z" fill="#858686"/>
<path d="M167.19 10.0432C166.992 10.0432 166.855 10.1347 166.855 10.3786V42.8171C166.855 42.9544 166.992 43.1983 167.19 43.244C169.462 43.9452 171.84 44.2805 174.294 44.2805C181.321 44.2805 188.15 39.9208 188.15 31.1405C188.15 24.7839 183.791 19.9516 176.962 19.9516C175.391 19.9516 173.928 20.1955 172.648 20.6223L172.587 10.4243C172.587 10.0889 172.495 10.0432 172.16 10.0432H167.19ZM182.312 31.7197C182.312 36.9788 178.715 39.4483 174.827 39.4483C174.02 39.4483 173.303 39.4026 172.648 39.2044V25.3631C173.395 25.0735 174.294 24.8296 175.955 24.8296C179.705 24.8296 182.312 27.2076 182.312 31.7197Z" fill="#858686"/>
<path d="M207.436 33.4271C209.753 33.4271 211.658 33.3813 212.314 33.2289C212.558 33.1832 212.649 33.0917 212.695 32.8936C212.832 32.3753 212.893 31.293 212.893 29.9668C212.893 25.4546 210.18 19.9517 203.168 19.9517C196.003 19.9517 192.024 25.79 192.024 32.3753C192.024 38.2136 195.104 44.2806 203.732 44.2806C206.963 44.2806 209.052 43.7623 210.85 42.9087C211.033 42.8172 211.125 42.6648 211.125 42.3904V38.4423C211.125 38.2136 210.988 38.1679 210.85 38.2593C209.052 39.0215 207.1 39.4026 204.966 39.4026C200.134 39.4026 197.939 36.735 197.802 33.4271H207.436ZM197.802 29.3418C198.183 27.0247 199.646 24.5095 202.924 24.5095C206.536 24.5095 207.482 27.543 207.482 28.915C207.482 28.9607 207.482 29.1588 207.482 29.296C207.283 29.3418 206.674 29.3418 204.875 29.3418H197.802Z" fill="#858686"/>
</g>
<defs>
<clipPath id="clip0_3995_16108">
<rect width="212.385" height="56" fill="white" transform="translate(0.507812)"/>
</clipPath>
</defs>
</svg>
