<svg width="337" height="56" viewBox="0 0 337 56" fill="none" xmlns="http://www.w3.org/2000/svg">
<g clip-path="url(#clip0_3995_16067)">
<path d="M46.344 40.931L27.2229 51.9273V42.1528C35.0963 41.2364 40.7202 34.1091 39.6977 26.371C39.4932 25.0473 39.1864 23.7237 38.6751 22.4001L47.1621 17.5128V39.5055C47.1621 40.1164 46.8553 40.6255 46.344 40.931ZM4.72749 40.931C4.21623 40.6255 3.90947 40.1164 3.90947 39.5055V17.5128L12.3964 22.4001C9.32883 29.6291 12.7031 37.9782 19.963 41.1346C21.1901 41.6437 22.5193 42.051 23.8486 42.1528V51.9273L4.72749 40.931ZM25.5869 26.0655L17.1 21.1782C20.8833 16.4946 27.7342 15.7819 32.4378 19.5492C33.0513 20.0582 33.5625 20.5673 34.0738 21.1782L25.5869 26.0655ZM15.3617 24.131L23.8486 29.0182V38.7928C17.918 37.8764 13.8279 32.2764 14.7482 26.371C14.8504 25.5564 15.0549 24.8437 15.3617 24.131ZM36.4256 28.0001C36.4256 33.3964 32.54 37.8764 27.2229 38.691V28.9164L35.7098 24.0292C36.2211 25.3528 36.4256 26.6764 36.4256 28.0001ZM24.7689 3.56369C25.2801 3.25824 25.8936 3.25824 26.4049 3.56369L45.526 14.5601L37.0391 19.4473C32.2333 13.2364 23.3373 11.9128 16.9977 16.5964C15.873 17.411 14.9527 18.4291 14.1347 19.4473L5.64776 14.5601L24.7689 3.56369ZM49.9229 14.051L49.8206 13.8473C49.4116 13.1346 48.7981 12.5237 48.0823 12.1164L28.0409 0.712785C26.5072 -0.203578 24.5644 -0.203578 23.0306 0.712785L3.09146 12.2182C2.37569 12.6255 1.76218 13.2364 1.35317 13.9491C1.35317 13.9491 1.35317 14.051 1.25092 14.051V14.1528C0.73966 14.8655 0.535156 15.6801 0.535156 16.4946V39.5055C0.535156 41.3382 1.45542 42.9673 3.09146 43.8837L23.0306 55.2873C24.5644 56.2037 26.5072 56.2037 28.0409 55.2873L48.0823 43.7819C49.6161 42.8655 50.6386 41.2364 50.6386 39.4037V16.4946C50.5364 15.6801 50.3319 14.8655 49.9229 14.051Z" fill="#858686"/>
<path d="M89.1877 40.0146C88.3697 40.1164 87.4495 40.1164 86.427 40.1164H80.4963V31.0546H86.1202C87.1427 31.0546 88.063 31.0546 88.881 31.1564C91.1305 31.36 93.1756 32.7855 93.1756 35.6364C93.2778 37.8764 91.5395 39.8109 89.1877 40.0146ZM80.4963 15.0691H85.5067C86.4269 15.0691 87.3472 15.1709 88.2675 15.2727C90.4148 15.5782 91.6418 16.6982 91.6418 19.1418C91.6418 21.6873 90.2103 22.7055 88.1652 23.0109C87.245 23.1128 86.3247 23.2146 85.5067 23.2146H80.4963V15.0691ZM96.9589 25.76C101.151 24.3346 103.196 21.3818 103.196 17.5127C103.196 12.0146 99.3107 7.63638 92.2553 6.72002C90.4148 6.51638 88.6765 6.41457 86.836 6.51638H69.4531V48.6691H86.3247C88.3697 48.7709 90.517 48.6691 92.5621 48.4655C98.2882 47.7528 104.73 43.8837 104.73 36.0437C104.73 30.8509 102.276 27.2873 96.9589 25.76Z" fill="#858686"/>
<path d="M120.579 39.9128C120.477 38.8947 120.375 37.8765 120.477 36.9601V6.51648H109.434V37.1638C109.434 39.6074 109.434 41.2365 109.536 42.9674C109.74 47.3456 112.706 49.2801 117.716 49.2801C120.17 49.2801 122.113 49.1783 124.158 48.9747V41.5419C121.295 41.6437 120.784 41.2365 120.579 39.9128Z" fill="#858686"/>
<path d="M149.925 34.5164C149.925 38.8946 147.778 42.0509 144.302 42.0509C140.825 42.0509 139.291 40.2182 138.985 37.0618C138.78 35.5346 138.78 34.1091 138.78 32.5818V15.9855H127.737V35.0255C127.737 37.0618 127.839 39.0982 128.044 41.2364C128.759 45.7164 132.849 49.4837 139.598 49.4837C142.154 49.5855 144.608 48.8727 146.858 47.6509C146.858 47.6509 147.676 47.1418 148.085 46.9382C148.698 46.4291 149.414 45.92 149.925 45.4109V48.5673H160.969V15.9855H149.925V34.5164Z" fill="#858686"/>
<path d="M177.124 28.4074C177.84 24.3347 179.885 22.7056 182.748 22.7056C185.611 22.7056 187.554 24.6401 188.168 28.4074H177.124ZM183.259 15.171C172.319 15.171 165.774 22.9092 165.774 32.4801C165.774 43.9856 173.239 49.4837 182.646 49.4837C191.031 49.4837 197.166 45.3092 199.109 37.9783H188.27C187.861 40.5237 185.918 42.051 182.85 42.051C179.681 42.051 177.329 40.5237 176.818 35.1274H199.62C199.722 34.1092 199.824 32.9892 199.824 31.971C199.722 23.5201 194.2 15.171 183.259 15.171Z" fill="#858686"/>
<path d="M219.763 42.051C215.98 42.051 213.935 38.9965 213.935 32.0728C213.935 25.7601 215.98 22.7056 219.661 22.7056C222.422 22.7056 224.569 24.2328 225.08 28.611H235.715C235.408 21.2801 229.477 15.2728 219.866 15.2728C210.254 15.2728 202.585 21.5856 202.585 32.7856C202.585 43.5783 209.743 49.5856 219.048 49.5856C227.943 49.5856 234.488 45.2074 235.715 36.7565H224.876C224.365 40.2183 222.32 42.051 219.763 42.051Z" fill="#858686"/>
<path d="M256.268 42.051C252.382 42.051 249.928 38.7928 249.928 32.3783C249.928 25.8619 252.28 22.7056 256.268 22.7056C260.153 22.7056 262.607 25.8619 262.607 32.3783C262.607 38.8947 260.255 42.051 256.268 42.051ZM256.268 15.171C245.531 15.171 238.68 21.7892 238.68 32.3783C238.68 42.9674 245.531 49.5856 256.268 49.5856C267.004 49.5856 273.855 42.8656 273.855 32.3783C273.855 21.891 267.004 15.171 256.268 15.171Z" fill="#858686"/>
<path d="M292.158 17.9201C292.158 17.9201 291.442 18.531 291.135 18.8365C290.624 19.3456 290.113 19.9565 289.704 20.5674V16.0874H278.661V48.6692H289.704V36.6547C289.704 26.7783 292.669 23.7237 300.952 24.3347V15.3747C300.134 15.2728 299.316 15.171 298.395 15.171C296.146 15.171 293.896 16.1892 292.158 17.9201Z" fill="#858686"/>
<path d="M313.937 28.4074C314.653 24.3347 316.698 22.7056 319.561 22.7056C322.424 22.7056 324.367 24.6401 324.981 28.4074H313.937ZM336.535 31.8692C336.535 23.4183 331.013 15.171 320.072 15.171C309.132 15.171 302.587 22.9092 302.587 32.4801C302.587 43.9856 310.052 49.4837 319.459 49.4837C327.844 49.4837 333.979 45.3092 335.922 37.9783H325.083C324.674 40.5237 322.731 42.051 319.663 42.051C316.494 42.051 314.142 40.5237 313.631 35.1274H336.433C336.535 34.0074 336.535 32.9892 336.535 31.8692Z" fill="#858686"/>
</g>
<defs>
<clipPath id="clip0_3995_16067">
<rect width="336" height="56" fill="white" transform="translate(0.535156)"/>
</clipPath>
</defs>
</svg>
