<svg width="195" height="56" viewBox="0 0 195 56" fill="none" xmlns="http://www.w3.org/2000/svg">
<path d="M5.23115 11.4661C5.23115 6.66616 8.41073 3.51714 12.5686 3.51714C16.2069 3.51714 18.4998 5.81012 19.1418 9.02028L22.1991 7.64449C21.2208 3.7923 18.0106 0.459845 12.5686 0.459845C6.48464 0.337553 1.59296 5.32095 1.71526 11.4661C1.65411 17.6724 6.11777 22.5641 12.5686 22.4724C18.4387 22.4724 22.3215 18.8648 23.4221 13.9119L20.3647 12.689C20.0285 14.6152 19.203 16.2049 17.8884 17.489C16.5738 18.7731 14.8004 19.4151 12.5686 19.4151C8.2273 19.4151 5.23115 16.4495 5.23115 11.4661ZM28.1358 0.765574V22.1667H44.3395V18.9565H31.4988V0.765574H28.1358ZM49.2801 22.1667H52.6431V0.765574H49.2801V22.1667ZM61.9345 13.6062H68.5077C72.9407 13.6062 75.3866 10.5184 75.3866 7.1859C75.3866 3.73115 72.9713 0.765574 68.5077 0.765574H58.5714V22.1667H61.9345V13.6062ZM61.9345 10.3961V3.97573H68.2019C70.3726 3.97573 71.8706 5.22922 71.8706 7.1859C71.8706 9.14257 70.3726 10.3961 68.2019 10.3961H61.9345ZM80.4622 22.1667H91.1627C95.1067 22.1667 98.1945 19.6903 98.1945 16.3578C98.1945 13.6674 96.6047 11.7719 94.0672 11.1604C96.2379 10.2126 97.4302 8.53111 97.4302 6.42157C97.4302 3.24198 94.4952 0.765574 90.5513 0.765574H80.4622V22.1667ZM83.8252 9.63173V3.97573H90.3983C92.5079 3.97573 94.0672 4.98464 94.0672 6.72731C94.0672 8.59226 92.8137 9.63173 90.3983 9.63173H83.8252ZM83.8252 18.9565V12.689H91.0098C93.2111 12.689 94.6786 14.1566 94.6786 15.8992C94.6786 17.7336 93.1805 18.9565 91.0098 18.9565H83.8252ZM113.311 0.459845C107.197 0.337553 102.03 5.47382 102.152 11.4661C102.03 17.489 107.197 22.5947 113.311 22.4724C119.427 22.5947 124.593 17.489 124.47 11.4661C124.593 5.47382 119.427 0.337553 113.311 0.459845ZM113.311 19.2622C109.092 19.2622 105.668 16.1437 105.668 11.4967C105.668 6.91074 109.001 3.67001 113.311 3.67001C117.622 3.67001 120.955 6.8496 120.955 11.4661C120.955 16.0826 117.531 19.2622 113.311 19.2622ZM126.5 22.1667H130.291L132.339 16.9693H142.917L144.966 22.1667H148.757L139.952 0.765574H135.305L126.5 22.1667ZM133.532 13.9119L137.628 3.54772L141.725 13.9119H133.532ZM170.125 22.1667V21.6775C169.698 21.2189 169.423 20.6685 169.3 20.0877C169.208 19.4762 169.117 18.5591 169.055 17.3055C168.933 14.5846 167.772 13.0559 165.693 12.2304C168.383 11.2827 169.972 9.29543 169.972 6.57444C169.972 3.30313 167.405 0.765574 163.094 0.765574H152.852V22.1667H156.215V13.3005H161.413C163.889 13.3005 165.235 14.3094 165.235 17.2749C165.235 18.6814 165.295 19.7209 165.418 20.3934C165.54 21.0355 165.723 21.6469 165.999 22.1667H170.125ZM156.215 10.0903V3.97573H162.788C165.112 3.97573 166.457 5.07637 166.457 7.03303C166.457 8.98971 165.112 10.0903 162.788 10.0903H156.215ZM175.191 22.1667H183.292C190.08 22.1667 193.993 17.6724 193.993 11.619C193.993 5.29037 190.202 0.765574 183.292 0.765574H175.191V22.1667ZM178.553 3.82288H183.292C188.092 3.82288 190.631 7.12475 190.631 11.619C190.631 15.6852 188.031 19.1094 183.292 19.1094H178.553V3.82288Z" fill="#858686"/>
<path d="M17.6132 46.9809V56H20.9762V34.5989H17.6132V43.9237H5.99547V34.5989H2.63245V56H5.99547V46.9809H17.6132ZM26.9117 34.5989V56H42.8097V52.7898H30.2748V46.5223H41.5868V43.3122H30.2748V37.8091H42.5039V34.5989H26.9117ZM46.2216 56H50.0127L52.0611 50.8026H62.6393L64.6877 56H68.4788L59.6737 34.5989H55.0266L46.2216 56ZM53.2534 47.7452L57.3502 37.381L61.4469 47.7452H53.2534ZM72.5741 34.5989V56H88.7777V52.7898H75.9372V34.5989H72.5741ZM107.358 34.5989H88.4023V37.8091H96.1984V56H99.5615V37.8091H107.358V34.5989ZM126.918 46.9809V56H130.28V34.5989H126.918V43.9237H115.3V34.5989H111.937V56H115.3V46.9809H126.918Z" fill="#858686"/>
</svg>
