<svg width="258" height="72" viewBox="0 0 258 72" fill="none" xmlns="http://www.w3.org/2000/svg">
<g clip-path="url(#clip0_3995_16190)">
<mask id="mask0_3995_16190" style="mask-type:luminance" maskUnits="userSpaceOnUse" x="0" y="0" width="72" height="72">
<path d="M0.125488 0.303467H71.5058V71.6837H0.125488V0.303467Z" fill="white"/>
</mask>
<g mask="url(#mask0_3995_16190)">
<path fill-rule="evenodd" clip-rule="evenodd" d="M35.8156 68.4641C24.9584 68.4641 16.1251 59.6305 16.1251 48.7738C16.1251 45.0822 17.1479 41.6266 18.9223 38.6708C23.1141 43.2481 29.1348 46.1237 35.8156 46.1237C42.4965 46.1237 48.5172 43.2481 52.709 38.6708C54.4831 41.6266 55.5062 45.0822 55.5062 48.7738H58.7258C58.7258 44.0449 57.2851 39.6466 54.8207 35.9936C57.2851 32.3405 58.7258 27.9423 58.7258 23.2136C58.7258 17.7979 56.8326 12.8185 53.6791 8.89258C62.4729 14.7086 68.2862 24.6841 68.2862 35.9939C68.2862 53.898 53.7201 68.4641 35.8156 68.4641ZM50.777 35.9936C47.1625 40.2185 41.7984 42.9042 35.8156 42.9042C29.8329 42.9042 24.4688 40.2185 20.8543 35.9936C24.4688 31.7686 29.8329 29.083 35.8156 29.083C41.7984 29.083 47.1625 31.7686 50.777 35.9936ZM3.34511 35.9939C3.34511 18.0894 17.9112 3.52303 35.8156 3.52303C46.6732 3.52303 55.5062 12.3563 55.5062 23.2136C55.5062 26.9046 54.4831 30.3608 52.709 33.3163C48.5172 28.7393 42.4965 25.8637 35.8156 25.8637C29.1348 25.8637 23.1141 28.7393 18.9223 33.3163C17.1479 30.3608 16.1251 26.9046 16.1251 23.2136H12.9052C12.9052 27.9423 14.3459 32.3405 16.8106 35.9936C14.3459 39.6466 12.9052 44.0449 12.9052 48.7738C12.9052 54.1892 14.7984 59.1687 17.9522 63.0946C9.1581 57.2789 3.34511 47.3033 3.34511 35.9939ZM35.8156 0.303467C16.1359 0.303467 0.125244 16.3145 0.125244 35.9939C0.125244 55.6733 16.1359 71.6837 35.8156 71.6837C55.4951 71.6837 71.5058 55.6733 71.5058 35.9939C71.5058 16.3145 55.4951 0.303467 35.8156 0.303467Z" fill="#858686"/>
</g>
<path fill-rule="evenodd" clip-rule="evenodd" d="M250.595 49.5883C247.596 48.8669 244.181 48.4879 244.181 46.1724C244.181 44.1988 246.42 43.6673 248.356 43.6673C250.481 43.6673 252.682 44.4644 252.91 46.9695H256.136C255.87 42.1872 252.417 40.8207 248.09 40.8207C244.674 40.8207 240.765 42.4531 240.765 46.4C240.765 50.1577 243.991 51.2203 247.179 51.9414C250.405 52.6622 253.593 53.08 253.593 55.5851C253.593 58.052 250.86 58.5075 248.849 58.5075C246.192 58.5075 243.687 57.5965 243.573 54.7121H240.347C240.537 59.5701 244.256 61.3538 248.659 61.3538C252.644 61.3538 257.009 59.8357 257.009 55.1676C257.009 51.3723 253.821 50.3096 250.595 49.5883Z" fill="#858686"/>
<path fill-rule="evenodd" clip-rule="evenodd" d="M162.335 58.2027C158.424 58.2027 155.242 55.0202 155.242 51.1091C155.242 47.1974 158.424 44.0152 162.335 44.0152C166.247 44.0152 169.429 47.1974 169.429 51.1091C169.429 55.0202 166.247 58.2027 162.335 58.2027ZM162.335 40.8207C156.653 40.8207 152.047 45.4269 152.047 51.1091C152.047 56.791 156.653 61.3975 162.335 61.3975C168.017 61.3975 172.624 56.791 172.624 51.1091C172.624 45.4269 168.017 40.8207 162.335 40.8207Z" fill="#858686"/>
<path fill-rule="evenodd" clip-rule="evenodd" d="M109.973 17.4655C110.74 14.375 113.53 12.0836 116.857 12.0836C120.184 12.0836 122.974 14.375 123.742 17.4655H109.973ZM116.857 8.89087C111.759 8.89087 107.526 12.5985 106.715 17.4655C106.619 18.0235 106.571 18.5924 106.571 19.1772C106.571 19.5745 106.592 19.9715 106.64 20.3577C106.753 21.3772 107.016 22.3485 107.408 23.2499C108.985 26.9096 112.623 29.4638 116.857 29.4638C121.091 29.4638 124.729 26.9096 126.307 23.2499H122.663C121.381 25.0797 119.256 26.2711 116.857 26.2711C114.459 26.2711 112.334 25.0797 111.051 23.2499C110.456 22.4022 110.042 21.4203 109.865 20.3577H123.849H127.074C127.122 19.9715 127.144 19.5745 127.144 19.1772C127.144 18.5924 127.095 18.0235 126.999 17.4655C126.189 12.5985 121.955 8.89087 116.857 8.89087Z" fill="#858686"/>
<path fill-rule="evenodd" clip-rule="evenodd" d="M109.973 49.3975C110.74 46.3066 113.53 44.0152 116.857 44.0152C120.184 44.0152 122.974 46.3066 123.742 49.3975H109.973ZM116.857 40.8225C111.759 40.8225 107.526 44.5301 106.715 49.3975C106.619 49.9555 106.571 50.524 106.571 51.1091C106.571 51.5061 106.592 51.9035 106.64 52.2896C106.753 53.3092 107.016 54.2802 107.408 55.1815C108.985 58.8412 112.623 61.3957 116.857 61.3957C121.091 61.3957 124.729 58.8412 126.307 55.1815H122.663C121.381 57.0117 119.256 58.2027 116.857 58.2027C114.459 58.2027 112.334 57.0117 111.051 55.1815C110.456 54.3341 110.042 53.352 109.865 52.2896H123.849H127.074C127.122 51.9035 127.144 51.5061 127.144 51.1091C127.144 50.524 127.095 49.9555 126.999 49.3975C126.189 44.5301 121.955 40.8225 116.857 40.8225Z" fill="#858686"/>
<path fill-rule="evenodd" clip-rule="evenodd" d="M132.622 17.4655C133.389 14.375 136.18 12.0836 139.507 12.0836C142.833 12.0836 145.624 14.375 146.391 17.4655H132.622ZM139.507 8.89087C134.409 8.89087 130.175 12.5985 129.365 17.4655C129.268 18.0235 129.22 18.5924 129.22 19.1772C129.22 19.5745 129.241 19.9715 129.29 20.3577C129.402 21.3772 129.665 22.3485 130.057 23.2499C131.635 26.9096 135.273 29.4638 139.507 29.4638C143.74 29.4638 147.378 26.9096 148.956 23.2499H145.313C144.03 25.0797 141.905 26.2711 139.507 26.2711C137.108 26.2711 134.983 25.0797 133.701 23.2499C133.105 22.4022 132.692 21.4203 132.515 20.3577H146.498H149.723C149.772 19.9715 149.793 19.5745 149.793 19.1772C149.793 18.5924 149.745 18.0235 149.648 17.4655C148.838 12.5985 144.604 8.89087 139.507 8.89087Z" fill="#858686"/>
<path fill-rule="evenodd" clip-rule="evenodd" d="M228.104 44.0142C230.99 44.0142 233.469 45.7412 234.577 48.2156H237.972C236.721 43.9437 232.78 40.8206 228.104 40.8206C222.421 40.8206 217.815 45.4271 217.815 51.109C217.815 56.7912 222.421 61.3974 228.104 61.3974C232.78 61.3974 236.721 58.2746 237.972 54.0027H234.577C233.469 56.477 230.99 58.2038 228.104 58.2038C224.185 58.2038 221.009 55.0273 221.009 51.109C221.009 47.1906 224.185 44.0142 228.104 44.0142Z" fill="#858686"/>
<mask id="mask1_3995_16190" style="mask-type:luminance" maskUnits="userSpaceOnUse" x="0" y="0" width="258" height="72">
<path d="M0.125488 71.6856H257.009V0.301514H0.125488V71.6856Z" fill="white"/>
</mask>
<g mask="url(#mask1_3995_16190)">
<path fill-rule="evenodd" clip-rule="evenodd" d="M210.349 61.3975H213.568V41.3922H210.349V61.3975Z" fill="#858686"/>
</g>
<mask id="mask2_3995_16190" style="mask-type:luminance" maskUnits="userSpaceOnUse" x="0" y="0" width="258" height="72">
<path d="M0.125488 71.6856H257.009V0.301514H0.125488V71.6856Z" fill="white"/>
</mask>
<g mask="url(#mask2_3995_16190)">
<path fill-rule="evenodd" clip-rule="evenodd" d="M210.349 38.3201H213.568V34.3906H210.349V38.3201Z" fill="#858686"/>
</g>
<mask id="mask3_3995_16190" style="mask-type:luminance" maskUnits="userSpaceOnUse" x="0" y="0" width="258" height="72">
<path d="M0.125488 71.6856H257.009V0.301514H0.125488V71.6856Z" fill="white"/>
</mask>
<g mask="url(#mask3_3995_16190)">
<path fill-rule="evenodd" clip-rule="evenodd" d="M99.5647 51.5895C99.3157 55.2766 96.2444 58.2026 92.4952 58.2026C88.5835 58.2026 85.4013 55.0204 85.4013 51.109C85.4013 47.1976 88.5835 44.0151 92.4952 44.0151C96.2444 44.0151 99.3157 46.941 99.5647 50.6285V51.5895ZM99.5647 43.6473C97.7207 41.8995 95.2364 40.8206 92.4952 40.8206C86.8131 40.8206 82.2068 45.4271 82.2068 51.109C82.2068 56.7912 86.8131 61.3974 92.4952 61.3974C95.2364 61.3974 97.7207 60.3182 99.5647 58.5707V61.3974H99.5891C99.5891 65.3088 96.4066 68.491 92.4952 68.491C89.6148 68.491 87.1347 66.7624 86.0247 64.2911H82.6267C83.8775 68.563 87.8187 71.6855 92.4952 71.6855C98.1771 71.6855 102.783 67.0796 102.783 61.3974V40.8206H99.5647V43.6473Z" fill="#858686"/>
</g>
<mask id="mask4_3995_16190" style="mask-type:luminance" maskUnits="userSpaceOnUse" x="0" y="0" width="258" height="72">
<path d="M0.125488 71.6856H257.009V0.301514H0.125488V71.6856Z" fill="white"/>
</mask>
<g mask="url(#mask4_3995_16190)">
<path fill-rule="evenodd" clip-rule="evenodd" d="M99.5647 19.6587C99.3157 23.3455 96.2444 26.2717 92.4952 26.2717C88.5835 26.2717 85.4013 23.0893 85.4013 19.1782C85.4013 15.2664 88.5835 12.084 92.4952 12.084C96.2444 12.084 99.3157 15.0099 99.5647 18.6976V19.6587ZM99.5647 11.7165C97.7207 9.96864 95.2364 8.88972 92.4952 8.88972C86.8131 8.88972 82.2068 13.496 82.2068 19.1782C82.2068 24.86 86.8131 29.4663 92.4952 29.4663C95.2364 29.4663 97.7207 28.3874 99.5647 26.6395V29.4663H102.783V0.301514H99.5647V11.7165Z" fill="#858686"/>
</g>
<mask id="mask5_3995_16190" style="mask-type:luminance" maskUnits="userSpaceOnUse" x="0" y="0" width="258" height="72">
<path d="M0.125488 71.6856H257.009V0.301514H0.125488V71.6856Z" fill="white"/>
</mask>
<g mask="url(#mask5_3995_16190)">
<path fill-rule="evenodd" clip-rule="evenodd" d="M163.514 26.3077C159.792 26.3077 156.733 23.4255 156.445 19.7761V18.6513C156.733 15.0022 159.792 12.12 163.514 12.12C167.426 12.12 170.608 15.3021 170.608 19.2135C170.608 23.1252 167.426 26.3077 163.514 26.3077ZM163.514 8.92541C160.775 8.92541 158.289 9.9977 156.445 11.7428V8.89075H153.226V38.0522H156.445V26.6843C158.289 28.4297 160.775 29.502 163.514 29.502C169.197 29.502 173.803 24.8957 173.803 19.2135C173.803 13.5317 169.197 8.92541 163.514 8.92541Z" fill="#858686"/>
</g>
<mask id="mask6_3995_16190" style="mask-type:luminance" maskUnits="userSpaceOnUse" x="0" y="0" width="258" height="72">
<path d="M0.125488 71.6856H257.009V0.301514H0.125488V71.6856Z" fill="white"/>
</mask>
<g mask="url(#mask6_3995_16190)">
<path fill-rule="evenodd" clip-rule="evenodd" d="M139.402 40.8705C137.217 40.8705 135.212 41.6702 133.652 43.0003V40.8204H130.432V61.4H133.652V50.0052C133.652 46.7453 136.232 44.0903 139.402 44.0903C142.572 44.0903 145.147 46.7453 145.147 50.0052V61.4H148.366V50.0052C148.366 47.4902 147.362 45.2054 145.737 43.5504C144.117 41.8954 141.877 40.8705 139.402 40.8705Z" fill="#858686"/>
</g>
<mask id="mask7_3995_16190" style="mask-type:luminance" maskUnits="userSpaceOnUse" x="0" y="0" width="258" height="72">
<path d="M0.125488 71.6856H257.009V0.301514H0.125488V71.6856Z" fill="white"/>
</mask>
<g mask="url(#mask7_3995_16190)">
<path fill-rule="evenodd" clip-rule="evenodd" d="M196.92 40.8254C194.365 40.8254 192.105 42.2604 190.665 44.4652C189.23 42.2604 186.966 40.8254 184.416 40.8254C182.676 40.8254 181.075 41.4956 179.776 42.6152V40.8203H176.556V61.3999H179.776V50.0051C179.776 48.3902 180.306 46.9001 181.15 45.8155C181.995 44.7302 183.156 44.0456 184.416 44.0456C186.93 44.0456 189.055 46.7753 189.055 50.0051V61.3999H192.275V50.0051C192.275 48.3902 192.805 46.9001 193.655 45.8155C194.5 44.7302 195.66 44.0456 196.92 44.0456C199.435 44.0456 201.56 46.7753 201.56 50.0051V61.3999H204.78V50.0051C204.78 44.9455 201.25 40.8254 196.92 40.8254Z" fill="#858686"/>
</g>
</g>
<defs>
<clipPath id="clip0_3995_16190">
<rect width="257.143" height="72" fill="white" transform="translate(0.125488)"/>
</clipPath>
</defs>
</svg>
