<svg width="112" height="56" viewBox="0 0 112 56" fill="none" xmlns="http://www.w3.org/2000/svg">
<g clip-path="url(#clip0_4023_385)">
<path d="M81.9373 11.9883L66.0537 43.3031C63.6799 47.9759 61.2297 51.2075 58.7063 52.9978C56.1813 54.7878 52.7522 55.6828 48.4194 55.6828C47.0241 55.6828 45.5936 55.5513 44.1235 55.2878C42.6538 55.0245 41.3353 54.6845 40.168 54.2701L42.4298 46.4136C43.371 46.7892 44.3053 47.0632 45.2271 47.2322C46.1506 47.4012 47.1006 47.4867 48.0811 47.4867C49.3996 47.4867 50.5119 47.3549 51.4159 47.0917C52.32 46.8284 53.0922 46.3942 53.7327 45.7926C53.8823 45.6414 54.0442 45.4724 54.2132 45.2839C54.3822 45.0951 54.5992 44.8121 54.8628 44.4369L48.0794 11.9883H57.6886L61.4751 34.3719L72.1591 11.9883H81.9373Z" fill="#858686"/>
<path d="M111.047 22.8394C111.197 21.8215 111.273 20.7859 111.273 19.7306C111.273 17.1309 110.556 15.0774 109.125 13.5702C107.693 12.063 105.826 11.3085 103.529 11.3085C96.9556 11.3085 94.55 15.2767 94.55 15.2767H94.381L94.938 11.9864H85.6118L80.4672 44.4882H89.8504L92.6208 27.135C93.1104 23.9337 93.8736 21.5493 94.9095 19.9851C95.945 18.421 97.2742 17.6398 98.8955 17.6398C100.063 17.6398 100.938 17.9796 101.524 18.6576C102.107 19.3356 102.399 20.3908 102.399 21.8233C102.399 22.6525 102.314 23.5191 102.145 24.4231C102.107 24.6206 102.066 24.8146 102.024 25.0085H110.592C110.793 24.2434 110.946 23.5209 111.047 22.8394Z" fill="#858686"/>
<path d="M25.998 18.1362C18.9621 18.1362 12.5026 20.9211 7.80844 25.9783C3.27082 30.8665 0.772461 37.4399 0.772461 44.4882H10.0345C10.0345 39.7832 11.6539 35.4487 14.5971 32.2794C17.5189 29.1315 21.569 27.3983 25.998 27.3983C26.8593 27.3983 27.7152 27.4642 28.5587 27.5905L30.0018 18.4405C28.6815 18.2394 27.3415 18.1362 25.998 18.1362Z" fill="#858686"/>
<path d="M26.9181 0C19.6401 0 12.9511 2.87916 8.08247 8.10722C3.36869 13.168 0.772461 19.9744 0.772461 27.272H10.0345C10.0345 22.3251 11.7482 17.7608 14.8604 14.419C17.9567 11.0931 22.2398 9.2621 26.9181 9.2621C28.4288 9.2621 29.9182 9.44713 31.3631 9.81371L32.8098 0.638826C30.8827 0.215314 28.911 0 26.9181 0Z" fill="#858686"/>
<path d="M36.867 0.699341L29.9342 44.4881H39.3172L46.2502 0.699341H36.867Z" fill="#858686"/>
</g>
<defs>
<clipPath id="clip0_4023_385">
<rect width="110.659" height="56" fill="white" transform="translate(0.772461)"/>
</clipPath>
</defs>
</svg>
