<svg width="241" height="64" viewBox="0 0 241 64" fill="none" xmlns="http://www.w3.org/2000/svg">
<g clip-path="url(#clip0_4023_376)">
<path d="M73.3179 26.1486C72.0452 25.0514 71.8634 24.8686 71.8634 24.5029C71.8634 24.32 72.4088 19.0171 72.0452 14.08C71.1361 2.56 65.8634 0 64.0452 0C63.8634 0 63.8634 0 63.6816 0.182857C63.1361 0.914286 63.1361 3.10857 63.8634 7.13143C64.227 8.77714 65.1361 11.7029 66.0452 14.8114C67.1361 18.2857 68.227 21.76 68.5906 23.7714L68.7725 24.1371L66.0452 25.0514L65.8634 24.6857C65.3179 23.2229 64.4088 21.0286 63.6816 18.2857C62.227 13.8971 60.4088 8.41143 58.9543 6.21714C57.8634 4.38857 55.4997 2.01143 54.4088 2.01143H54.227C53.6816 2.19429 53.1361 2.74286 52.9543 3.84C52.227 6.76571 53.1361 12.2514 56.9543 17.7371C60.7725 22.8571 62.5906 25.7829 62.7725 26.6971L62.9543 27.0629L62.7725 27.2457C62.7725 27.2457 62.0452 28.16 60.9543 28.16C60.4088 28.16 59.8634 27.9771 59.4997 27.4286C50.9543 19.0171 42.227 14.8114 33.8634 14.8114C28.7725 14.8114 24.9543 16.2743 23.1361 17.1886C22.4088 17.5543 21.8634 17.7371 21.4997 17.7371C21.1361 17.7371 21.1361 17.5543 20.9543 17.5543C20.7725 17.3714 20.7725 17.3714 20.7725 17.0057C20.7725 14.6286 20.5906 11.8857 20.0452 11.1543C19.8634 10.9714 19.6816 10.9714 19.4997 10.9714C16.227 10.7886 11.4997 13.1657 9.86337 16.64C8.77246 18.6514 9.1361 20.6629 10.4088 22.6743C11.6816 24.5029 13.6816 24.5029 14.9543 24.6857C15.6816 24.6857 16.227 24.8686 16.4088 25.2343C16.5906 25.7829 16.0452 25.9657 15.6816 26.5143C3.1361 36.3886 0.0451901 44.8 0.954281 47.7257C1.1361 48.0914 1.31792 48.4571 1.68155 48.4571C2.04519 48.4571 2.22701 48.2743 2.59064 48.0914C12.4088 39.68 22.4088 35.2914 32.5906 35.2914C51.1361 35.2914 64.227 49.1886 67.8634 53.5771C68.5907 54.4914 69.4997 55.5886 70.227 56.6857C72.227 59.2457 74.227 61.8057 76.0452 63.0857C77.4997 64 79.1361 64.1829 79.8634 63.2686C80.4088 62.72 80.5907 61.44 80.227 59.7943C79.4997 55.9543 76.0452 51.7486 73.6816 49.3714C71.6816 47.1771 70.9543 46.2629 71.1361 45.5314C71.3179 45.3486 71.3179 44.9829 71.8634 44.9829C77.6816 43.7029 81.1361 41.6914 81.6816 38.7657C82.5906 34.0114 76.0452 28.5257 73.3179 26.1486ZM131.5 21.76C125.318 21.76 120.227 26.5143 120.227 32.1829C120.227 33.4629 120.591 34.7429 120.954 36.0229L121.136 36.2057L120.954 36.3886C119.682 37.8514 118.591 38.7657 117.5 38.7657C115.318 38.7657 115.318 35.6571 115.318 31.8171C115.136 27.0629 115.136 21.76 110.954 21.76C106.045 21.76 102.227 28.16 99.8634 33.6457L98.9543 35.4743L99.3179 29.2571C99.6816 22.8571 99.8634 16.8229 99.8634 10.7886C99.8634 5.30286 99.6816 2.19429 99.4997 1.46286C99.3179 1.09714 98.227 0.365714 97.3179 0.365714C96.7725 0.365714 94.7725 1.28 94.4088 1.64571C94.0452 2.37714 93.6816 9.87429 93.6816 17.0057C93.6816 33.8286 94.7725 40.96 94.9543 41.8743V42.0571C95.1361 42.4229 96.0452 42.6057 96.7725 42.6057C97.4997 42.6057 98.5907 42.4229 98.7725 42.0571L98.9543 41.6914C100.954 36.3886 104.772 27.4286 108.045 27.4286C109.863 27.4286 109.863 29.8057 110.045 32.5486C110.227 36.9371 110.409 42.4229 116.409 42.4229C118.591 42.4229 120.772 41.1429 122.772 38.7657L123.136 38.4L123.5 38.7657C125.682 40.96 128.772 42.4229 132.045 42.4229C138.409 42.4229 143.5 37.6686 143.5 32C142.772 26.5143 137.682 21.76 131.5 21.76ZM131.5 38.5829C128.591 38.5829 126.409 35.6571 126.409 32.1829C126.409 28.7086 128.772 25.7829 131.5 25.7829C134.409 25.7829 136.772 28.7086 136.772 32.1829C136.772 35.6571 134.409 38.5829 131.5 38.5829ZM156.409 21.76C154.227 21.76 151.863 22.4914 150.045 23.7714L149.5 24.1371L149.318 23.5886C149.136 22.8571 149.136 22.3086 149.136 22.3086C148.954 21.9429 147.863 21.76 147.136 21.76C146.591 21.76 145.5 21.9429 145.318 22.3086C145.136 23.04 144.227 31.2686 144.227 46.08V46.2629C144.409 46.4457 144.409 46.6286 144.409 47.36C144.591 54.6743 145.136 61.8057 145.5 62.72C145.863 63.0857 147.863 64 148.409 64H148.591C149.682 64 150.591 63.2686 150.591 62.9029C150.591 62.72 150.772 61.9886 150.772 57.2343V53.5771C150.772 51.0171 150.591 49.3714 150.591 47.1771C150.409 45.7143 150.409 44.0686 150.227 41.5086V40.96L150.772 41.3257C152.591 42.24 154.409 42.7886 156.227 42.7886C162.591 42.7886 167.682 38.0343 167.682 32.3657C167.863 26.5143 162.772 21.76 156.409 21.76ZM156.409 38.5829C151.682 38.5829 150.045 35.2914 150.045 32.1829C150.045 28.3429 152.409 25.7829 156.409 25.7829C159.318 25.7829 161.682 28.7086 161.682 32.1829C161.682 35.6571 159.318 38.5829 156.409 38.5829ZM181.5 21.76C179.318 21.76 176.954 22.4914 175.136 23.7714L174.591 24.1371L174.409 23.5886C174.227 22.8571 174.227 22.3086 174.227 22.3086C174.045 21.9429 172.954 21.76 172.227 21.76C171.682 21.76 170.591 21.9429 170.409 22.3086C170.227 23.04 169.318 31.2686 169.318 46.08V46.2629C169.5 46.4457 169.5 46.6286 169.5 47.36C169.682 54.6743 170.227 61.8057 170.591 62.72C170.954 63.0857 172.954 64 173.5 64H173.682C174.772 64 175.682 63.2686 175.682 62.9029C175.682 62.72 175.863 61.9886 175.863 57.2343V53.5771C175.863 51.0171 175.682 49.3714 175.682 47.1771C175.5 45.7143 175.5 44.0686 175.318 41.6914V41.1429L175.863 41.5086C177.682 42.4229 179.5 42.9714 181.318 42.9714C187.682 42.9714 192.772 38.2171 192.772 32.5486C192.954 26.5143 187.863 21.76 181.5 21.76ZM181.5 38.5829C176.772 38.5829 175.136 35.2914 175.136 32.1829C175.136 28.3429 177.5 25.7829 181.5 25.7829C184.409 25.7829 186.772 28.7086 186.772 32.1829C186.772 35.6571 184.409 38.5829 181.5 38.5829ZM240.227 29.6229C240.227 29.6229 240.045 29.8057 240.045 29.9886C238.409 33.28 234.954 38.7657 232.409 38.7657C231.682 38.7657 231.318 38.2171 231.318 37.4857C231.318 36.5714 232.045 34.7429 232.954 32.7314C233.682 30.72 234.772 28.5257 234.772 27.2457C234.772 25.0514 233.318 23.9543 230.772 23.9543C230.591 23.9543 225.136 23.9543 223.5 22.8571L223.318 22.6743V22.4914C223.318 21.2114 222.954 17.92 220.227 17.92C218.772 17.92 217.863 20.1143 217.863 21.2114C217.863 24.1371 219.318 25.4171 220.045 25.7829C220.227 25.9657 220.227 25.9657 220.227 25.9657L220.409 26.1486L220.227 26.3314C219.5 29.0743 217.863 31.4514 217.136 32.9143C214.591 36.5714 211.5 38.2171 207.318 38.2171C204.227 38.2171 201.863 36.5714 201.136 33.8286L200.954 33.0971L201.5 33.28C203.136 33.8286 204.591 34.0114 206.045 34.0114C210.045 34.0114 214.227 32 214.227 27.6114C214.227 23.9543 210.772 21.2114 206.045 21.2114C199.863 21.2114 194.772 25.9657 194.772 31.6343C194.772 35.84 198.045 42.0571 207.136 42.0571C214.409 42.0571 218.045 35.4743 219.136 33.4629L219.318 33.28C220.591 31.0857 221.682 28.3429 222.045 27.2457L222.227 26.88L222.591 27.0629C223.136 27.2457 225.682 27.7943 227.318 27.7943C228.045 27.7943 228.591 28.16 228.591 28.8914C228.591 29.0743 228.409 29.2571 228.409 29.44L228.227 29.6229L227.863 30.1714C226.954 32.1829 225.682 35.1086 225.682 37.12C225.682 39.68 227.318 42.24 230.954 42.24C236.045 42.24 239.136 35.84 240.227 33.8286L240.409 33.6457C240.591 33.0971 240.772 32.3657 240.772 31.4514C240.591 30.72 240.409 29.6229 240.227 29.6229ZM200.954 31.4514C201.318 28.3429 203.682 25.7829 206.045 25.7829C208.227 25.7829 209.682 26.88 209.682 28.8914C209.682 31.2686 206.409 32.1829 203.682 32.1829C202.591 32.1829 201.682 32 201.136 31.8171L200.772 31.6343L200.954 31.4514Z" fill="#858686"/>
</g>
<defs>
<clipPath id="clip0_4023_376">
<rect width="240" height="64" fill="white" transform="translate(0.772461)"/>
</clipPath>
</defs>
</svg>
