<svg width="143" height="56" viewBox="0 0 143 56" fill="none" xmlns="http://www.w3.org/2000/svg">
<path d="M11.9081 1.86792H1.79004V11.9616H11.9081V1.86792Z" fill="#858686"/>
<path d="M11.6559 54.4554V18.1039H2.078V54.4554H11.6559ZM75.3168 54.8146V45.9063C73.9126 45.9063 72.7243 45.8345 71.8602 45.6908C70.8519 45.5471 70.0958 45.1879 69.5917 44.685C69.0876 44.1822 68.7635 43.4638 68.5835 42.5298C68.4395 41.6318 68.3674 40.4464 68.3674 39.0096V26.2938H75.3168V18.1039H68.3674V3.91532H58.7535V39.0815C58.7535 42.0629 59.0055 44.5773 59.5096 46.5888C60.0137 48.5645 60.8779 50.1809 62.0662 51.4022C63.2544 52.6235 64.8387 53.4856 66.7471 54.0244C68.6915 54.5632 71.14 54.8146 74.0566 54.8146H75.3168ZM130.336 54.4554V1.11353H120.722V54.4554H130.336ZM49.4996 21.66C46.8351 18.7864 43.0903 17.3496 38.3374 17.3496C36.0329 17.3496 33.9445 17.8165 32.0361 18.7505C30.1637 19.6844 28.5434 20.9775 27.2831 22.6299L26.743 23.3124V22.7017V18.1039H17.2731V54.4554H26.815V35.0943V36.4233C26.815 36.2078 26.815 35.9923 26.815 35.7768C26.923 32.3643 27.7512 29.8499 29.3355 28.2335C31.0279 26.5093 33.0803 25.6472 35.4208 25.6472C38.1933 25.6472 40.3178 26.5093 41.722 28.1616C43.0903 29.814 43.8105 32.1488 43.8105 35.1302V35.202V54.4195H53.4964V33.8011C53.5324 28.6286 52.1642 24.5337 49.4996 21.66ZM115.753 36.2078C115.753 33.5856 115.285 31.143 114.385 28.8441C113.449 26.5811 112.152 24.5696 110.532 22.8454C108.876 21.1212 106.895 19.7922 104.591 18.8223C102.286 17.8525 99.7298 17.3855 96.9572 17.3855C94.3287 17.3855 91.8442 17.8884 89.5397 18.8582C87.2353 19.864 85.2189 21.1931 83.5265 22.8813C81.8342 24.5696 80.4659 26.5811 79.4937 28.88C78.4855 31.179 78.0174 33.6575 78.0174 36.2797C78.0174 38.9019 78.4855 41.3804 79.4217 43.6793C80.3579 45.9782 81.6901 47.9897 83.3465 49.678C85.0028 51.3662 87.0552 52.7312 89.4317 53.7011C91.8082 54.7069 94.4367 55.2097 97.2453 55.2097C105.383 55.2097 110.424 51.5099 113.449 48.0616L106.535 42.8172C105.095 44.5414 101.638 46.8762 97.3173 46.8762C94.6168 46.8762 92.3843 46.2655 90.692 45.0083C88.9996 43.787 87.8474 42.0629 87.2353 39.9435L87.1272 39.6203H115.753V36.2078ZM87.1993 32.8672C87.1993 30.2091 90.2599 25.5754 96.8492 25.5394C103.439 25.5394 106.535 30.1732 106.535 32.8313L87.1993 32.8672Z" fill="#858686"/>
<path d="M141.282 49.7139C141.102 49.2829 140.85 48.9237 140.526 48.6004C140.202 48.2771 139.842 48.0257 139.41 47.8461C138.978 47.6665 138.51 47.5587 138.042 47.5587C137.537 47.5587 137.105 47.6665 136.673 47.8461C136.241 48.0257 135.881 48.2771 135.557 48.6004C135.233 48.9237 134.981 49.2829 134.801 49.7139C134.621 50.145 134.513 50.612 134.513 51.0789C134.513 51.5818 134.621 52.0129 134.801 52.4439C134.981 52.8749 135.233 53.2342 135.557 53.5574C135.881 53.8807 136.241 54.1322 136.673 54.3118C137.105 54.4914 137.574 54.5991 138.042 54.5991C138.546 54.5991 138.978 54.4914 139.41 54.3118C139.842 54.1322 140.202 53.8807 140.526 53.5574C140.85 53.2342 141.102 52.8749 141.282 52.4439C141.462 52.0129 141.57 51.5459 141.57 51.0789C141.57 50.612 141.462 50.145 141.282 49.7139ZM140.706 52.2284C140.562 52.5876 140.346 52.9109 140.094 53.1623C139.842 53.4138 139.518 53.6293 139.158 53.773C138.798 53.9166 138.438 53.9885 138.006 53.9885C137.61 53.9885 137.213 53.9166 136.853 53.773C136.493 53.6293 136.169 53.4138 135.917 53.1623C135.665 52.9109 135.449 52.5876 135.305 52.2284C135.161 51.8692 135.089 51.51 135.089 51.0789C135.089 50.6838 135.161 50.2887 135.305 49.9295C135.449 49.5703 135.665 49.247 135.917 48.9955C136.169 48.7441 136.493 48.5286 136.853 48.3849C137.213 48.2412 137.574 48.1694 138.006 48.1694C138.402 48.1694 138.798 48.2412 139.158 48.3849C139.518 48.5286 139.842 48.7441 140.094 48.9955C140.346 49.247 140.562 49.5703 140.706 49.9295C140.85 50.2887 140.922 50.6479 140.922 51.0789C140.958 51.51 140.85 51.8692 140.706 52.2284ZM138.69 51.3663C138.978 51.3304 139.194 51.2226 139.374 51.043C139.554 50.8634 139.662 50.612 139.662 50.2528C139.662 49.8576 139.554 49.5703 139.302 49.3547C139.086 49.1392 138.69 49.0315 138.222 49.0315H136.637V53.0905H137.393V51.4381H137.934L138.942 53.0905H139.734L138.69 51.3663ZM138.294 50.7916C138.186 50.7916 138.078 50.7916 137.934 50.7916H137.393V49.6421H137.934C138.042 49.6421 138.15 49.6421 138.294 49.6421C138.402 49.6421 138.51 49.678 138.618 49.7139C138.726 49.7499 138.798 49.8217 138.834 49.8935C138.87 49.9654 138.906 50.0732 138.906 50.2168C138.906 50.3605 138.87 50.4683 138.834 50.5401C138.762 50.612 138.69 50.6838 138.618 50.7197C138.51 50.7556 138.402 50.7916 138.294 50.7916Z" fill="#858686"/>
</svg>
