<svg width="350" height="64" viewBox="0 0 350 64" fill="none" xmlns="http://www.w3.org/2000/svg">
<path d="M34.0064 13.3083L29.6924 18.5412L16.9965 1.92005C16.864 1.73181 16.637 1.6377 16.4099 1.6377H11.0742C10.4688 1.6377 10.1282 2.31534 10.4877 2.78593L29.6924 28.2353L40.5152 14.1742C40.8747 13.7036 40.5341 13.0259 39.9286 13.0259H34.5929C34.3659 13.0259 34.1388 13.12 34.0064 13.3083Z" fill="#858686"/>
<path d="M53.173 49.8259L39.7391 32L57.6951 8.50825C58.0546 8.03766 57.714 7.34119 57.1275 7.34119H51.8296C51.6026 7.34119 51.3944 7.45413 51.262 7.62354L32.5303 32L46.6264 50.7106C46.7588 50.8988 46.9859 50.993 47.2129 50.993H52.5864C53.1919 50.993 53.5325 50.3153 53.173 49.8259Z" fill="#858686"/>
<path d="M6.17367 14.1741L19.6075 31.9812L1.63265 55.5106C1.27316 55.9812 1.61373 56.6776 2.20028 56.6776H7.49814C7.72519 56.6776 7.93332 56.5647 8.06576 56.3953L26.8164 32L12.7014 13.3082C12.5689 13.12 12.3419 13.0259 12.1148 13.0259H6.7413C6.15475 13.0259 5.81418 13.7035 6.17367 14.1741Z" fill="#858686"/>
<path d="M25.3407 50.6918L29.6547 45.4589L42.3506 62.0801C42.4831 62.2683 42.7101 62.3624 42.9372 62.3624H48.2729C48.8783 62.3624 49.2189 61.6848 48.8594 61.2142L29.6547 35.7648L18.8319 49.8259C18.4724 50.2965 18.813 50.9742 19.4185 50.9742H24.7731C25.0002 50.9742 25.2083 50.8801 25.3407 50.6918Z" fill="#858686"/>
<path d="M97.751 50.9742H95.2345C94.6669 50.9742 94.2128 50.5224 94.2128 49.9577V19.633C94.2128 19.5389 94.2128 19.4824 94.156 19.4824C94.0993 19.4824 94.0993 19.4824 94.0614 19.5765L84.5442 39.6612C84.0144 40.7907 82.3872 40.7907 81.8574 39.6612L72.3591 19.5765C72.3024 19.4824 72.3024 19.4824 72.2645 19.4824C72.2078 19.4824 72.2078 19.5389 72.2078 19.633V49.9765C72.2078 50.5412 71.7537 50.993 71.186 50.993H68.6506C68.083 50.993 67.6289 50.5412 67.6289 49.9765V14.4565C67.6289 13.6283 68.2911 12.9695 69.1237 12.9695H72.4727C73.3998 12.9695 73.816 13.1765 74.1188 13.8354L82.5954 31.3789C82.8035 31.8307 82.9548 31.9436 83.2197 31.9436C83.4846 31.9436 83.636 31.8495 83.8441 31.3789L92.3018 13.8354C92.6045 13.1765 93.0208 12.9695 93.9479 12.9695H97.2969C98.1294 12.9695 98.7917 13.6283 98.7917 14.4565V49.9577C98.7917 50.5224 98.3186 50.9742 97.751 50.9742Z" fill="#858686"/>
<path d="M227.435 19.3695C227.283 18.7483 227.132 18.5601 226.621 18.5601C226.11 18.5601 225.959 18.7672 225.808 19.3695L222.099 34.5601H231.143L227.435 19.3695ZM241.323 50.9742H235.874C235.419 50.9742 235.003 50.5601 234.89 50.1084L232.525 40.3954H220.699L218.334 50.1084C218.239 50.5601 217.823 50.9742 217.35 50.9742H211.901C211.39 50.9742 210.974 50.6166 210.974 50.1084C210.974 50.0519 211.03 49.9578 211.03 49.8448L219.469 17.7695C221.058 12.1413 224.407 12.5554 226.621 12.5554C228.835 12.5554 232.241 12.0283 233.773 17.7695L242.212 49.8448C242.212 49.9389 242.269 50.0519 242.269 50.1084C242.25 50.6166 241.834 50.9742 241.323 50.9742ZM219.469 17.7883C221.058 12.1601 224.407 12.5742 226.621 12.5742C229.27 12.5742 232.241 12.0472 233.773 17.7883M219.469 17.7883C221.058 12.1601 223.84 12.5742 226.621 12.5742C229.27 12.5742 232.241 12.0472 233.773 17.7883" fill="#858686"/>
<path d="M306.77 51.3883C304.803 51.3883 300.564 51.1248 297.745 50.3719C297.14 50.2213 296.78 49.8072 296.78 49.186V46.1178C296.78 45.7036 297.14 45.3083 297.632 45.3083H297.84C300.262 45.6095 304.803 45.873 306.316 45.873C309.438 45.873 309.949 44.8189 309.949 43.426C309.949 42.4472 309.438 41.7507 307.47 40.5272L300.905 36.4425C298.294 34.9742 296.534 32.4142 296.534 29.4589C296.534 24.3389 299.713 21.7789 306.127 21.7789C310.214 21.7789 312.541 21.8919 315.115 22.4378C315.72 22.5883 316.023 23.0025 316.023 23.6236V26.5978C316.023 27.2189 315.72 27.4636 315.209 27.4636C315.209 27.4636 309.571 27.3131 306.695 27.3131C304.273 27.3131 303.232 27.9342 303.213 29.346C303.213 30.1554 303.97 30.7954 305.219 31.5672L311.822 35.6519C316.061 38.2683 316.666 40.8283 316.666 43.426C316.666 47.8683 313.374 51.3883 306.77 51.3883Z" fill="#858686"/>
<path d="M328.738 51.3883C326.77 51.3883 322.532 51.1248 319.712 50.3719C319.107 50.2213 318.747 49.8072 318.747 49.186V46.1178C318.747 45.7036 319.107 45.3083 319.599 45.3083H319.807C322.229 45.6095 326.77 45.873 328.284 45.873C331.406 45.873 331.916 44.8189 331.916 43.426C331.916 42.4472 331.406 41.7507 329.438 40.5272L322.872 36.4425C320.261 34.9742 318.501 32.4142 318.501 29.4589C318.501 24.3389 321.68 21.7789 328.094 21.7789C332.181 21.7789 334.509 21.8919 337.082 22.4378C337.687 22.5883 337.99 23.0025 337.99 23.6236V26.5978C337.99 27.2189 337.687 27.4636 337.176 27.4636C337.176 27.4636 331.538 27.3131 328.662 27.3131C326.24 27.3131 325.199 27.9342 325.181 29.346C325.181 30.1554 325.937 30.7954 327.186 31.5672L333.79 35.6519C338.028 38.2683 338.633 40.8283 338.633 43.426C338.614 47.8683 335.341 51.3883 328.738 51.3883Z" fill="#858686"/>
<path d="M140.361 26.7295C137.996 26.7295 134.59 27.0495 132.017 28.593V49.9765C132.017 50.4848 131.563 50.993 130.995 50.993H128.479C127.968 50.993 127.495 50.5412 127.495 49.9765V23.8871C127.495 23.3224 127.911 22.8707 128.479 22.8707H130.9C131.468 22.8707 131.884 23.3224 131.884 23.8871V24.9601C134.458 23.1718 138.071 22.833 140.38 22.833C141.099 22.833 141.458 23.1342 141.458 23.7554V25.8448C141.439 26.4095 141.08 26.7295 140.361 26.7295Z" fill="#858686"/>
<path d="M118.167 37.4589H114.363C108.138 37.4589 106.492 38.7577 106.492 42.3906V43.0118C106.492 46.7012 108.233 47.6612 111.223 47.6612C113.588 47.6612 115.688 46.6636 118.167 45.3271V37.4589ZM121.667 50.9742H119.302C118.734 50.9742 118.28 50.5224 118.28 49.9577V48.8283C115.82 50.2589 113.247 51.3318 110.352 51.3318C105.981 51.3318 101.97 49.4306 101.97 43.0495V42.4283C101.97 36.8942 105.206 34.1459 114.363 34.1459H118.167V32.0942C118.167 27.8024 116.672 26.3153 112.661 26.3153C109.312 26.3153 108.46 26.4283 104.752 26.5036H104.487C104.033 26.5036 103.56 26.353 103.56 25.6942V23.9059C103.56 23.3412 103.919 23.04 104.638 22.9271C106.738 22.5695 109.141 22.4753 112.642 22.4753C119.794 22.4753 122.67 26.0518 122.67 32.0942V49.9389C122.708 50.5224 122.235 50.9742 121.667 50.9742Z" fill="#858686"/>
<path d="M163.709 50.9742H160.001C159.433 50.9742 159.225 50.8236 158.809 50.3153L148.573 37.7224V49.9577C148.573 50.5224 148.118 50.9742 147.551 50.9742H145.091C144.523 50.9742 144.069 50.5224 144.069 49.9577V13.5342C144.069 12.9695 144.523 12.5177 145.091 12.5177H147.551C148.118 12.5177 148.573 12.9695 148.573 13.5342V34.8236L157.428 23.3224C157.73 22.9648 157.938 22.8706 158.449 22.8706H162.044C162.555 22.8706 162.82 23.1342 162.82 23.4353C162.82 23.6424 162.725 23.8495 162.555 24.0001L152.697 36.1412L164.107 49.8448C164.201 49.9389 164.258 50.1459 164.258 50.2965C164.277 50.673 164.069 50.9742 163.709 50.9742Z" fill="#858686"/>
<path d="M202.61 51.1248C201.589 51.2754 200.491 51.313 200.018 51.313C195.288 51.313 193.018 50.0895 193.018 44.4613V26.6166H188.741C187.739 26.5413 187.039 24.546 187.039 23.7554C187.039 22.946 187.455 22.833 188.022 22.833H193.018V17.4119C193.018 16.9036 193.377 16.4895 193.945 16.3954H196.613H196.764C197.18 16.3954 197.54 16.753 197.54 17.2613V22.833H202.497C203.065 22.833 203.519 23.2848 203.519 23.8495V25.5813C203.519 26.146 203.065 26.5977 202.497 26.5977H197.54V44.4424C197.54 47.2472 198.259 47.6613 200.321 47.6613L202.459 47.7177C203.178 47.7177 203.538 47.9248 203.538 48.433V50.2213C203.538 50.7295 203.292 51.0307 202.61 51.1248Z" fill="#858686"/>
<path d="M181.665 34.4283C181.665 28.6495 179.849 26.3907 175.421 26.3907C171.088 26.3907 168.685 28.8942 168.685 34.4283V34.8801H181.665V34.4283ZM184.825 38.3248H168.666V39.0401C168.666 45.1201 171.031 47.3789 175.667 47.3789C178.581 47.3789 181.949 47.1718 184.276 46.8142H184.522C184.919 46.8142 185.317 47.0212 185.317 47.5295V49.2613C185.317 49.9201 185.109 50.2777 184.314 50.4471C181.438 51.0118 179.035 51.313 175.667 51.313C169.877 51.313 164.258 48.546 164.258 39.0401V34.4283C164.258 27.106 168.231 22.4565 175.421 22.4565C182.762 22.4565 185.79 27.1624 185.79 34.4283V37.1954C185.79 37.8542 185.43 38.3248 184.825 38.3248Z" fill="#858686"/>
<path d="M287.319 33.8635C287.319 29.873 285.106 27.5765 281.927 27.5765C278.748 27.5765 276.421 29.8353 276.421 33.8635V34.0706H287.319V33.8635ZM292.409 38.8894H276.364V39.04C276.364 42.0141 277.594 45.3647 282.532 45.4965C286.487 45.5906 289.495 45.1388 291.993 45.1388H292.144C292.655 45.1388 293.071 45.4024 293.071 45.9106V49.1671C293.071 49.9765 292.92 50.3529 291.993 50.5035C288.644 51.1247 286.638 51.3694 282.022 51.3694C276.875 51.3694 269.931 48.6024 269.931 38.5318V34.7482C269.931 26.7671 274.037 21.76 281.908 21.76C289.836 21.76 293.431 27.1247 293.431 34.7482V37.6094C293.45 38.4188 293.128 38.8894 292.409 38.8894Z" fill="#858686"/>
<path d="M268.834 50.9741H263.858C263.29 50.9741 263.044 50.8235 262.476 49.9576L256.516 41.1106L251.067 49.9576C250.5 50.8235 250.254 50.9741 249.686 50.9741H244.388C243.972 50.9741 243.764 50.7106 243.764 50.4094C243.764 50.2588 243.82 50.1082 243.915 49.9576L253.111 36.1035L244.426 23.1529C244.369 23.0588 244.331 22.9459 244.331 22.8518C244.331 22.4941 244.691 22.1365 245.164 22.1365H250.159C250.727 22.1365 250.973 22.4 251.502 23.1529L257.235 31.7553L262.401 23.1529C262.968 22.2306 263.214 22.1365 263.782 22.1365H269.08C269.496 22.1365 269.704 22.4 269.704 22.7012C269.704 22.8518 269.647 23.0024 269.553 23.1529L260.622 36.7435L269.553 49.9576C269.61 50.0518 269.647 50.1647 269.647 50.3153C269.591 50.6729 269.231 50.9741 268.834 50.9741Z" fill="#858686"/>
<path d="M341.604 29.3083C341.168 28.8754 340.847 28.3483 340.639 27.7083C340.431 27.0683 340.336 26.3907 340.336 25.713C340.336 24.5271 340.563 23.5295 340.998 22.7201C341.433 21.9107 342.19 21.5154 343.269 21.5154H346.031C347.053 21.5154 347.753 21.9295 348.131 22.7577C348.51 23.586 348.699 24.5648 348.699 25.713C348.699 26.5413 348.604 27.2754 348.396 27.9154C348.188 28.5554 347.885 29.0636 347.488 29.4213C347.091 29.7789 346.599 29.9483 346.031 29.9483H343.269C342.588 29.9483 342.039 29.7413 341.604 29.3083ZM345.993 29.4589C346.41 29.4589 346.788 29.3271 347.11 29.0448C347.431 28.7813 347.696 28.3483 347.885 27.8024C348.075 27.2377 348.169 26.5413 348.169 25.713C348.169 24.6213 348.018 23.7177 347.696 23.0401C347.375 22.3624 346.826 22.0236 346.05 22.0236H343.288C342.588 22.0236 342.02 22.306 341.566 22.8895C341.131 23.4542 340.904 24.433 340.904 25.8071C340.904 26.4283 340.998 27.0307 341.168 27.5954C341.339 28.1601 341.623 28.6119 341.982 28.9507C342.342 29.3083 342.777 29.4777 343.288 29.4777H345.993V29.4589ZM342.758 23.266H344.858C345.312 23.266 345.672 23.3789 345.937 23.586C346.201 23.793 346.334 24.1883 346.334 24.753C346.334 25.1107 346.277 25.393 346.164 25.5624C346.05 25.7507 345.918 25.8636 345.785 25.9201C345.653 25.9766 345.464 26.0142 345.236 26.0707L346.41 28.1601H345.861L344.707 26.0707L343.325 26.033V28.1789H342.777V23.266H342.758ZM344.877 25.6754C345.199 25.6754 345.426 25.6189 345.577 25.506C345.709 25.393 345.785 25.1483 345.785 24.7907C345.785 24.4142 345.709 24.1695 345.558 24.0001C345.407 23.8495 345.18 23.7742 344.877 23.7742H343.307V25.6754H344.877Z" fill="#858686"/>
</svg>
