<svg width="268" height="56" viewBox="0 0 268 56" fill="none" xmlns="http://www.w3.org/2000/svg">
<g clip-path="url(#clip0_3995_16058)">
<path d="M81.9072 4.81494H85.6757L107.28 37.6169C110.078 41.8387 112.681 46.3845 112.681 46.3845H112.808V4.81494H116.064V51.2487H112.472L91.1457 19.1672C88.5368 15.2724 85.2901 9.88165 85.2901 9.88165H85.1597V51.2602H81.9072V4.81494Z" fill="#858686"/>
<path d="M143.069 4.81494H146.907L164.94 51.2487H161.415L155.69 36.3755H134.286L128.56 51.2487H125.114L143.069 4.81494ZM135.393 33.5195H154.583L147.548 15.0757C146.504 12.4136 145.008 8.19178 145.008 8.19178H144.878C144.878 8.19178 143.591 12.1531 142.483 15.0757L135.393 33.5195Z" fill="#858686"/>
<path d="M174.02 4.81494H193.082C196.79 4.81494 199.915 5.85375 202.126 7.80404C204.402 9.75144 205.703 12.674 205.703 16.3749C205.703 21.6355 203.674 24.8185 198.874 26.6356V26.7659C204.338 28.4528 207.721 32.2869 207.721 38.3895C207.721 42.2881 206.615 45.3409 204.402 47.5477C202.06 49.8192 198.483 51.2487 193.798 51.2487H174.02V4.81494ZM193.407 25.5968C199.132 25.5968 202.257 21.8959 202.257 16.6266C202.257 10.9118 198.677 7.85902 193.149 7.85902H177.405V25.5968H193.407ZM193.537 48.1323C197.248 48.1323 200.045 47.0269 201.799 45.2734C203.428 43.6501 204.271 41.3786 204.271 38.2622C204.271 32.2203 200.173 28.583 193.798 28.583H177.405V48.1323H193.537Z" fill="#858686"/>
<path d="M219.067 4.81494H222.45V51.2487H219.067V4.81494Z" fill="#858686"/>
<path d="M233.445 36.5723H236.892C237.216 44.4314 242.878 49.1045 251.53 49.1045C258.621 49.1045 264.021 45.2734 264.021 38.7136C264.021 32.0265 260.444 30.3366 249.382 28.259C240.535 26.6357 235.135 23.9186 235.135 16.1811C235.135 8.90653 241.382 3.90637 250.554 3.90637C259.989 3.90637 265.453 9.23061 266.103 16.8292H262.72C262.071 10.336 257.125 6.89258 250.62 6.89258C243.008 6.89258 238.584 10.7903 238.584 16.1145C238.584 21.8294 242.292 23.6379 251.464 25.3364C260.508 27.0263 267.535 29.1676 267.535 38.4561C267.535 46.3787 261.224 52.0936 251.591 52.0936C239.95 52.0849 233.964 45.4702 233.445 36.5723Z" fill="#858686"/>
<path d="M28.917 0C23.3687 2.95709e-08 17.9451 1.64233 13.332 4.7193C8.71882 7.79626 5.12336 12.1697 3.00028 17.2864C0.877197 22.4032 0.321848 28.0335 1.40446 33.4653C2.48708 38.8972 5.15904 43.8865 9.08243 47.8025C13.0058 51.7184 18.0044 54.3851 23.4461 55.4652C28.8878 56.5453 34.5282 55.9904 39.6539 53.8706C44.7796 51.7508 49.1605 48.1613 52.2425 43.5561C55.3245 38.9509 56.9692 33.5368 56.9687 27.9986C56.9602 20.575 54.002 13.4579 48.743 8.20887C43.4841 2.95987 36.3539 0.00765868 28.917 0ZM28.917 2.60425C33.5926 2.60148 38.1785 3.8856 42.1705 6.31546C46.1625 8.74532 49.4061 12.2268 51.5446 16.3773C53.6832 20.5277 54.634 25.1864 54.2924 29.8412C53.9509 34.496 52.3302 38.9666 49.6086 42.7617L29.9663 16.2621H27.8705L8.22821 42.7617C5.50676 38.9669 3.88613 34.4964 3.54446 29.8419C3.20279 25.1874 4.1533 20.5289 6.29152 16.3786C8.42974 12.2282 11.6729 8.74667 15.6645 6.31659C19.6561 3.88652 24.2416 2.60201 28.917 2.60425ZM9.91531 44.8654L27.6125 20.9844V53.361C24.2454 53.1886 20.9464 52.3486 17.9079 50.8899C14.8695 49.4313 12.1524 47.3833 9.91531 44.8654ZM30.2214 53.361V20.9844L47.9215 44.8654C45.6838 47.3834 42.9663 49.4314 39.9274 50.8901C36.8884 52.3487 33.589 53.1887 30.2214 53.361Z" fill="#858686"/>
</g>
<defs>
<clipPath id="clip0_3995_16058">
<rect width="266.667" height="56" fill="white" transform="translate(0.868164)"/>
</clipPath>
</defs>
</svg>
