<svg width="235" height="64" viewBox="0 0 235 64" fill="none" xmlns="http://www.w3.org/2000/svg">
<g clip-path="url(#clip0_4023_370)">
<path d="M25.9988 54.799H27.0573L29.8258 61.9643H28.7672L27.953 59.8473H24.9403L24.126 61.9643H23.1489L25.9988 54.799ZM25.3474 58.9516H27.7901L26.5688 55.6132L25.3474 58.9516ZM36.584 61.8829H34.7927L32.5128 54.7175H34.1413L35.6884 59.7659L37.3169 54.7175H38.9454L36.584 61.8829ZM40.0039 59.6844C40.0039 60.5801 40.4924 60.9872 41.3067 60.9872C41.8767 60.9872 42.3652 60.6615 42.4466 60.3358H43.668C43.2609 61.5572 42.4466 62.0458 41.2253 62.0458C39.5968 62.0458 38.6197 60.9058 38.6197 59.3587C38.6197 57.8117 39.6782 56.6717 41.2253 56.6717C43.0166 56.6717 43.8309 58.1374 43.7494 59.7659H40.0039V59.6844ZM42.2838 58.7888C42.1209 58.0559 41.8767 57.7302 41.1438 57.7302C40.2482 57.7302 40.0039 58.4631 40.0039 58.7888H42.2838ZM44.5637 56.7531H45.8665V57.486C46.1922 56.916 46.8436 56.5903 47.4136 56.5903C48.9606 56.5903 49.2863 57.4045 49.2863 58.7073V61.8829H47.9021V58.9516C47.9021 58.1374 47.6578 57.6488 47.0064 57.6488C46.2736 57.6488 45.9479 58.0559 45.9479 59.1145V61.8829H44.5637V56.7531ZM51.5662 60.2544C51.5662 60.9058 52.0548 61.1501 52.6248 61.1501C53.0319 61.1501 53.5204 60.9872 53.5204 60.4987C53.5204 60.0916 52.9505 59.9287 51.8919 59.6844C51.0777 59.5216 50.2634 59.1959 50.2634 58.3002C50.2634 56.9974 51.4034 56.6717 52.5433 56.6717C53.6833 56.6717 54.7418 57.0788 54.8232 58.3002H53.439C53.3576 57.7302 52.9505 57.5674 52.4619 57.5674C52.1362 57.5674 51.6477 57.6488 51.6477 58.0559C51.6477 58.5445 52.4619 58.6259 53.2762 58.7888C54.0904 58.9516 54.9047 59.2773 54.9047 60.2544C54.9047 61.6386 53.7647 62.0458 52.5433 62.0458C51.322 62.0458 50.182 61.5572 50.1006 60.2544H51.5662ZM60.6858 61.8829H59.3016V61.1501C58.9759 61.7201 58.3245 62.0458 57.7545 62.0458C56.2075 62.0458 55.8818 61.2315 55.8818 59.9287V56.7531H57.266V59.6844C57.266 60.4987 57.5103 60.9872 58.1617 60.9872C58.8945 60.9872 59.2202 60.5801 59.2202 59.5216V56.8346H60.6044V61.8829H60.6858ZM61.7443 56.7531H63.1286V57.7302C63.3728 57.0788 64.1057 56.6717 64.7571 56.6717C64.8385 56.6717 65.0013 56.6717 65.0828 56.7531V58.0559C64.9199 58.0559 64.7571 57.9745 64.5942 57.9745C63.5357 57.9745 63.21 58.7073 63.21 59.603V61.8829H61.8258V56.7531H61.7443ZM66.6298 59.6844C66.6298 60.5801 67.1184 60.9872 67.9326 60.9872C68.5026 60.9872 68.9912 60.6615 69.0726 60.3358H70.294C69.8868 61.5572 69.0726 62.0458 67.8512 62.0458C66.2227 62.0458 65.2456 60.9058 65.2456 59.3587C65.2456 57.8117 66.3041 56.6717 67.8512 56.6717C69.6426 56.6717 70.4568 58.1374 70.3754 59.7659H66.6298V59.6844ZM68.9097 58.7888C68.7469 58.0559 68.5026 57.7302 67.7698 57.7302C66.8741 57.7302 66.6298 58.4631 66.6298 58.7888H68.9097ZM74.1209 54.799H79.4136V56.1017H75.668V57.6488H79.0879V58.8702H75.668V60.5801H79.495V61.8829H74.1209V54.799ZM80.4721 56.7531H81.7749V57.486C82.182 56.9974 82.6706 56.6717 83.322 56.6717C83.9734 56.6717 84.5433 56.916 84.869 57.5674C85.1947 57.0788 85.6833 56.6717 86.4161 56.6717C87.4746 56.6717 88.2889 57.1603 88.2889 58.5445V61.8829H86.9047V58.9516C86.9047 58.3002 86.8232 57.7302 86.009 57.7302C85.1947 57.7302 85.0319 58.3816 85.0319 59.033V61.8829H83.6477V58.9516C83.6477 58.3816 83.7291 57.6488 82.752 57.6488C82.5077 57.6488 81.7749 57.8117 81.7749 58.8702V61.8829H80.3907V56.7531H80.4721ZM89.5103 56.7531H90.8945V57.4045C91.2202 56.8346 91.7901 56.5903 92.4416 56.5903C94.07 56.5903 94.8029 57.8931 94.8029 59.3587C94.8029 60.743 94.0701 62.0458 92.523 62.0458C91.8716 62.0458 91.3016 61.8015 90.9759 61.2315V63.6743H89.5917V56.7531H89.5103ZM93.3372 59.3587C93.3372 58.5445 93.0115 57.7302 92.1159 57.7302C91.2202 57.7302 90.8945 58.5445 90.8945 59.3587C90.8945 60.173 91.2202 60.9872 92.1159 60.9872C93.0115 60.9872 93.3372 60.173 93.3372 59.3587ZM95.6171 54.799H97.0014V61.8829H95.6171V54.799ZM100.665 56.5903C102.294 56.5903 103.352 57.6488 103.352 59.2773C103.352 60.9058 102.294 61.9643 100.665 61.9643C99.037 61.9643 97.9784 60.9058 97.9784 59.2773C97.9784 57.6488 99.037 56.5903 100.665 56.5903ZM100.665 60.9872C101.643 60.9872 101.887 60.173 101.887 59.3587C101.887 58.5445 101.561 57.7302 100.665 57.7302C99.6884 57.7302 99.4441 58.5445 99.4441 59.3587C99.4441 60.173 99.6884 60.9872 100.665 60.9872ZM106.772 62.5343C106.447 63.3486 105.958 63.6743 104.981 63.6743C104.655 63.6743 104.411 63.6743 104.085 63.5928V62.4529C104.33 62.4529 104.655 62.5343 104.9 62.5343C105.388 62.4529 105.551 61.9643 105.388 61.5572L103.597 56.7531H105.144L106.284 60.2544L107.424 56.7531H108.889L106.772 62.5343ZM110.599 59.6844C110.599 60.5801 111.088 60.9872 111.902 60.9872C112.472 60.9872 112.961 60.6615 113.042 60.3358H114.263C113.856 61.5572 113.042 62.0458 111.821 62.0458C110.192 62.0458 109.215 60.9058 109.215 59.3587C109.215 57.8117 110.274 56.6717 111.821 56.6717C113.612 56.6717 114.426 58.1374 114.345 59.7659H110.599V59.6844ZM112.879 58.7888C112.716 58.0559 112.472 57.7302 111.739 57.7302C110.844 57.7302 110.599 58.4631 110.599 58.7888H112.879ZM115.159 56.7531H116.543V57.7302C116.788 57.0788 117.52 56.6717 118.172 56.6717C118.253 56.6717 118.416 56.6717 118.498 56.7531V58.0559C118.335 58.0559 118.172 57.9745 118.009 57.9745C116.95 57.9745 116.625 58.7073 116.625 59.603V61.8829H115.241V56.7531H115.159ZM123.057 59.5216C123.057 60.4987 123.79 60.8244 124.604 60.8244C125.174 60.8244 125.989 60.6615 125.989 59.9287C125.989 59.1959 124.93 59.033 123.872 58.7888C122.813 58.5445 121.755 58.1374 121.755 56.7531C121.755 55.2875 123.139 54.6361 124.442 54.6361C125.907 54.6361 127.291 55.2875 127.291 56.916H125.744C125.663 56.0203 125.093 55.8575 124.36 55.8575C123.872 55.8575 123.302 56.1017 123.302 56.6717C123.302 57.2417 123.627 57.3231 125.419 57.7302C125.907 57.8931 127.536 58.2188 127.536 59.8473C127.536 61.1501 126.477 62.1272 124.604 62.1272C123.057 62.1272 121.51 61.3129 121.592 59.603H123.057V59.5216ZM130.793 56.5903C132.421 56.5903 133.48 57.6488 133.48 59.2773C133.48 60.9058 132.421 61.9643 130.793 61.9643C129.164 61.9643 128.106 60.9058 128.106 59.2773C128.187 57.6488 129.164 56.5903 130.793 56.5903ZM130.793 60.9872C131.77 60.9872 132.014 60.173 132.014 59.3587C132.014 58.5445 131.688 57.7302 130.793 57.7302C129.816 57.7302 129.571 58.5445 129.571 59.3587C129.571 60.173 129.816 60.9872 130.793 60.9872ZM134.457 54.799H135.841V61.8829H134.457V54.799ZM141.866 61.8829H140.482V61.1501C140.157 61.7201 139.505 62.0458 138.935 62.0458C137.388 62.0458 137.062 61.2315 137.062 59.9287V56.7531H138.447V59.6844C138.447 60.4987 138.691 60.9872 139.342 60.9872C140.075 60.9872 140.401 60.5801 140.401 59.5216V56.8346H141.785V61.8829H141.866ZM144.716 56.7531H145.775V57.7302H144.716V60.2544C144.716 60.743 144.798 60.8244 145.286 60.8244C145.449 60.8244 145.612 60.8244 145.693 60.743V61.8829C145.449 61.8829 145.123 61.9643 144.879 61.9643C143.984 61.9643 143.251 61.8015 143.251 60.743V57.7302H142.355V56.7531H143.251V55.2061H144.635V56.7531H144.716ZM147.892 55.9389H146.508V54.799H147.892V55.9389ZM146.426 56.7531H147.811V61.8829H146.426V56.7531ZM151.475 56.5903C153.103 56.5903 154.162 57.6488 154.162 59.2773C154.162 60.9058 153.103 61.9643 151.475 61.9643C149.846 61.9643 148.788 60.9058 148.788 59.2773C148.869 57.6488 149.846 56.5903 151.475 56.5903ZM151.475 60.9872C152.452 60.9872 152.696 60.173 152.696 59.3587C152.696 58.5445 152.37 57.7302 151.475 57.7302C150.498 57.7302 150.253 58.5445 150.253 59.3587C150.253 60.173 150.579 60.9872 151.475 60.9872ZM155.057 56.7531H156.442V57.486C156.767 56.916 157.419 56.5903 157.989 56.5903C159.536 56.5903 159.861 57.4045 159.861 58.7073V61.8829H158.477V58.9516C158.477 58.1374 158.233 57.6488 157.581 57.6488C156.849 57.6488 156.523 58.0559 156.523 59.1145V61.8829H155.139V56.7531H155.057ZM162.141 60.2544C162.141 60.9058 162.63 61.1501 163.2 61.1501C163.607 61.1501 164.095 60.9872 164.095 60.4987C164.095 60.0916 163.526 59.9287 162.467 59.6844C161.653 59.5216 160.838 59.1959 160.838 58.3002C160.838 56.9974 161.978 56.6717 163.118 56.6717C164.258 56.6717 165.317 57.0788 165.398 58.3002H164.014C163.933 57.7302 163.526 57.5674 163.037 57.5674C162.711 57.5674 162.223 57.6488 162.223 58.0559C162.223 58.5445 163.037 58.6259 163.851 58.7888C164.665 58.9516 165.48 59.2773 165.48 60.2544C165.48 61.6386 164.34 62.0458 163.118 62.0458C161.897 62.0458 160.757 61.5572 160.676 60.2544H162.141ZM174.436 56.916C174.274 55.9389 173.459 55.3689 172.401 55.3689C170.691 55.3689 169.958 56.7531 169.958 58.2188C169.958 59.8473 170.691 61.2315 172.401 61.2315C173.622 61.2315 174.355 60.3358 174.436 59.1959H175.414C175.251 60.9872 174.111 62.0458 172.319 62.0458C170.121 62.0458 169.062 60.4173 169.062 58.3002C169.062 56.2646 170.202 54.5547 172.401 54.5547C173.866 54.5547 175.088 55.3689 175.332 56.8346H174.436V56.916ZM178.671 56.5903C180.299 56.5903 181.195 57.8117 181.195 59.2773C181.195 60.8244 180.299 61.9643 178.671 61.9643C177.042 61.9643 176.146 60.743 176.146 59.2773C176.146 57.8117 177.042 56.5903 178.671 56.5903ZM178.671 61.3129C179.566 61.3129 180.299 60.5801 180.299 59.3587C180.299 58.1374 179.566 57.4045 178.671 57.4045C177.775 57.4045 177.042 58.1374 177.042 59.3587C177.042 60.5801 177.775 61.3129 178.671 61.3129ZM182.172 56.7531H182.986V57.486C183.393 56.916 183.963 56.5903 184.615 56.5903C185.266 56.5903 185.836 56.8346 185.999 57.486C186.325 56.916 186.976 56.5903 187.627 56.5903C188.686 56.5903 189.337 56.9974 189.337 58.0559V61.8829H188.523V58.4631C188.523 57.8117 188.36 57.3231 187.546 57.3231C186.732 57.3231 186.162 57.8117 186.162 58.6259V61.8829H185.347V58.4631C185.347 57.8117 185.103 57.3231 184.37 57.3231C183.393 57.3231 182.986 58.2188 182.986 58.6259V61.8829H182.172V56.7531ZM190.721 56.7531H191.536V57.486C191.78 56.916 192.513 56.6717 193.164 56.6717C194.711 56.6717 195.526 57.8931 195.526 59.3587C195.526 60.8244 194.711 62.0458 193.164 62.0458C192.676 62.0458 191.861 61.8829 191.536 61.2315V63.9185H190.721V56.7531ZM193.164 57.4045C192.024 57.4045 191.617 58.3816 191.617 59.3587C191.617 60.4173 192.106 61.3129 193.246 61.3129C194.386 61.3129 194.793 60.3358 194.793 59.2773C194.711 58.3002 194.223 57.4045 193.164 57.4045ZM201.225 61.8829C201.062 61.9643 200.9 62.0458 200.655 62.0458C200.248 62.0458 199.922 61.8015 199.922 61.2315C199.434 61.8015 198.864 62.0458 198.131 62.0458C197.154 62.0458 196.421 61.6386 196.421 60.5801C196.421 59.4402 197.317 59.1959 198.131 58.9516C199.108 58.7888 199.841 58.8702 199.841 58.2188C199.841 57.486 199.271 57.3231 198.701 57.3231C197.968 57.3231 197.48 57.5674 197.398 58.3002H196.584C196.665 56.9974 197.643 56.5903 198.783 56.5903C199.678 56.5903 200.737 56.8346 200.737 57.9745V60.6615C200.737 61.0687 200.737 61.2315 200.981 61.2315C201.062 61.2315 201.144 61.2315 201.225 61.1501V61.8829ZM199.841 59.2773C199.515 59.5216 198.864 59.5216 198.294 59.603C197.724 59.6844 197.235 59.9287 197.235 60.4987C197.235 61.0687 197.724 61.2315 198.213 61.2315C199.352 61.2315 199.76 60.4987 199.76 60.0916V59.2773H199.841ZM201.958 56.7531H202.772V57.5674C203.098 56.916 203.749 56.5903 204.482 56.5903C205.866 56.5903 206.274 57.4045 206.274 58.4631V61.8829H205.459V58.3816C205.459 57.7302 205.052 57.3231 204.401 57.3231C203.342 57.3231 202.854 57.9745 202.854 58.9516V61.8829H202.04V56.7531H201.958ZM209.531 62.6157C209.123 63.5928 208.798 64 208.065 64C207.902 64 207.658 64 207.495 63.9185V63.1043C207.658 63.1857 207.821 63.1857 207.984 63.1857C208.309 63.1857 208.554 63.0229 208.716 62.6972L209.042 61.8015L207.006 56.6717H207.984L209.531 60.9058L210.996 56.6717H211.892L209.531 62.6157ZM50.4263 0.732788H58.7316L74.6095 26.3002H74.6909V0.732788H82.5077V38.8397H74.2838L58.4059 13.3537H58.3245V38.8397H50.5077V0.732788H50.4263ZM87.6375 19.7862C88.0446 12.7023 94.3957 10.5852 100.584 10.5852C106.04 10.5852 112.716 11.8066 112.716 18.402V32.7328C112.716 35.257 112.961 37.7811 113.693 38.8397H106.04C105.795 38.0254 105.551 37.0483 105.47 36.1526C103.108 38.6768 99.5255 39.5725 96.1871 39.5725C90.9759 39.5725 86.8232 36.9669 86.8232 31.2671C86.8232 24.9974 91.5459 23.5318 96.1871 22.8804C100.828 22.1475 105.144 22.3104 105.144 19.2162C105.144 15.9593 102.864 15.4707 100.258 15.4707C97.4085 15.4707 95.5357 16.6107 95.21 19.6234H87.6375V19.7862ZM105.062 25.3231C103.76 26.4631 101.154 26.4631 98.7927 26.9516C96.4314 27.4402 94.3143 28.2544 94.3143 31.0229C94.3143 33.8727 96.5128 34.5241 98.9555 34.5241C104.9 34.5241 105.062 29.8015 105.062 28.173V25.3231ZM117.439 11.2366H124.604V14.9822H124.686C126.64 12.1323 129.571 10.5038 133.154 10.5038C136.655 10.5038 139.749 11.8066 141.215 15.0636C142.844 12.7023 145.693 10.5038 149.52 10.5038C155.383 10.5038 159.617 13.1908 159.617 20.3562V38.8397H152.045V23.2061C152.045 19.542 151.719 16.4478 147.403 16.4478C143.169 16.4478 142.355 19.9491 142.355 23.4503V38.8397H134.783V23.3689C134.783 20.1933 135.027 16.4478 130.223 16.4478C128.757 16.4478 125.093 17.4249 125.093 22.7989V38.8397H117.52V11.2366H117.439ZM171.098 26.8702C171.342 31.6743 173.622 33.8727 177.856 33.8727C180.869 33.8727 183.312 32 183.8 30.29H190.477C188.36 36.804 183.8 39.5725 177.531 39.5725C168.818 39.5725 163.444 33.6285 163.444 25.0788C163.444 16.7735 169.144 10.5038 177.531 10.5038C186.894 10.5038 191.454 18.402 190.884 26.8702H171.098ZM183.393 22.0661C182.66 18.2392 181.032 16.2035 177.368 16.2035C172.564 16.2035 171.179 19.9491 171.098 22.0661H183.393ZM195.118 0.732788H202.691V38.8397H195.118V0.732788ZM223.291 42.3409C221.663 46.7379 219.057 48.6107 213.765 48.6107C212.218 48.6107 210.671 48.5292 209.123 48.3664V42.0967C210.589 42.1781 212.055 42.4224 213.52 42.3409C216.126 42.0967 217.022 39.3282 216.126 37.1297L206.436 11.2366H214.579L220.849 30.1272H220.93L226.956 11.2366H234.772L223.291 42.3409Z" fill="#858686"/>
<path fill-rule="evenodd" clip-rule="evenodd" d="M27.7902 0L22.9047 10.2595C22.7418 10.0153 22.6604 9.93384 22.4976 9.68957C21.7647 8.95674 20.8691 8.30534 19.892 7.89822C18.9149 7.49109 17.8563 7.24682 16.7164 7.24682C15.0879 7.24682 13.6222 7.65394 12.238 8.54962C10.9352 9.44529 9.8767 10.5852 9.2253 12.0509L0.268555 32.1628L14.7622 38.9211L19.6477 28.743C19.8105 28.9873 19.8105 29.0687 20.0548 29.313C20.7876 30.0458 21.6833 30.6972 22.7418 31.1043C23.7189 31.5115 24.7775 31.7557 25.9174 31.7557C27.5459 31.7557 29.0116 31.3486 30.3144 30.4529C31.6172 29.5573 32.5943 28.4173 33.3271 26.9517L42.2838 6.67685L27.7902 0Z" fill="#858686"/>
</g>
<defs>
<clipPath id="clip0_4023_370">
<rect width="234.504" height="64" fill="white" transform="translate(0.268555)"/>
</clipPath>
</defs>
</svg>
