<svg width="401" height="56" viewBox="0 0 401 56" fill="none" xmlns="http://www.w3.org/2000/svg">
<g clip-path="url(#clip0_3995_16184)">
<path d="M40.7617 0.00469451H37.3591C35.3194 0.00469451 34.1883 1.14717 34.1883 3.20737V37.461L11.0749 2.13981C10.2479 0.61339 9.11311 0.00469451 7.30149 0.00469451H3.22211C1.18242 0.00469451 0.125488 1.14717 0.125488 3.20737V51.7579C0.125488 53.893 1.18242 54.9624 3.22211 54.9624H6.69607C8.73576 54.9624 9.7927 53.8949 9.7927 51.7579V16.712L32.9803 52.8264C33.8119 54.3528 35.02 54.9709 36.6814 54.9709H40.7608C42.7912 54.9709 43.9316 53.9033 43.9316 51.7682V3.21205C43.9316 1.15185 42.7912 0.00937678 40.7608 0.00937678M87.0905 46.495H64.3387V31.1296H80.4337C82.4734 31.1296 83.6063 30.0621 83.6063 27.927V25.79C83.6063 23.7298 82.4734 22.6622 80.4355 22.6622H64.3387V8.47212H85.8806C87.9203 8.47212 89.0514 7.40456 89.0514 5.34436V3.20924C89.0514 1.14904 87.9203 0.00469451 85.8806 0.00469451H57.7671C55.7275 0.00469451 54.6705 1.14717 54.6705 3.20737V51.7579C54.6705 53.893 55.7275 54.9624 57.7671 54.9624H87.0905C89.1283 54.9624 90.2613 53.8949 90.2613 51.7579V49.6228C90.2613 47.5626 89.1283 46.495 87.0905 46.495ZM139.538 0.00469451H101.016C98.9021 0.00469451 97.8434 1.14717 97.8434 3.20737V5.34436C97.8434 7.40456 98.9003 8.47212 101.016 8.47212H115.442V51.7579C115.442 53.893 116.499 54.9624 118.539 54.9624H121.938C124.052 54.9624 125.108 53.8949 125.108 51.7579V8.47212H139.535C141.574 8.47212 142.631 7.40456 142.631 5.34436V3.20924C142.631 1.14904 141.574 0.00469451 139.535 0.00469451M157.747 15.1846C157.747 11.5231 160.918 9.08269 165.903 9.08269C170.057 9.08269 173.003 10.7589 175.193 12.0513C176.78 12.8847 178.366 13.1937 179.499 10.9837L180.862 8.46463C181.77 6.78837 181.548 5.33687 179.879 4.11011C177.616 2.43479 172.405 1.2232e-05 166.054 1.2232e-05C155.861 1.2232e-05 148.003 6.18061 148.003 15.7137C148.003 32.5755 173.006 30.4395 173.006 40.7358C173.006 44.4001 169.984 46.9164 165 46.9164C159.716 46.9164 155.862 44.1726 154.125 42.9515C152.237 41.8839 150.954 41.9588 149.744 43.6351L148.085 46.0764C146.573 48.1366 147.328 49.4317 148.535 50.4993C151.181 52.5595 157.374 55.9935 165.001 55.9935C176.256 55.9935 182.751 48.7453 182.751 39.9726C182.751 22.7287 157.746 25.3227 157.746 15.1753M234.327 42.7913C233.122 41.0401 231.611 41.0401 229.951 42.2575C227.457 44.0902 222.85 46.9866 216.805 46.9866C205.243 46.9866 198.753 37.7579 198.753 27.6114C198.753 17.6194 205.021 8.99466 216.73 8.99466C222.247 8.99466 226.475 11.2862 228.811 12.8126C230.619 13.9588 232.056 13.8052 233.113 12.0513L234.466 9.83185C235.523 8.1556 235.449 6.62918 233.864 5.40242C230.99 3.34222 225.102 -0.0196533 216.335 -0.0196533C200.11 -0.00841586 188.706 12.0438 188.706 27.7575C188.706 43.7006 199.581 55.9822 216.427 55.9822C225.941 55.9822 232.365 51.712 235.382 49.2678C236.894 47.9727 236.968 46.3704 235.837 44.845L234.326 42.7848M345.056 0.00656742H341.579C339.539 0.00656742 338.482 1.14904 338.482 3.20924V35.5544C338.482 42.8775 333.726 46.9979 326.55 46.9979C319.374 46.9979 314.692 42.8775 314.692 35.5544V3.21018C314.692 1.14998 313.635 0.00750387 311.52 0.00750387H308.122C306.082 0.00750387 305.025 1.14998 305.025 3.21018V35.6321C305.025 47.7611 313.634 56 326.625 56C339.54 56 348.153 47.7611 348.153 35.6321V3.20737C348.153 1.14717 347.096 0.00469451 345.057 0.00469451M397.032 0.00469451H358.509C356.395 0.00469451 355.339 1.14717 355.339 3.20737V5.34436C355.339 7.40456 356.395 8.47212 358.509 8.47212H372.936V51.7579C372.936 53.893 373.992 54.9624 376.032 54.9624H379.435C381.558 54.9624 382.615 53.8949 382.615 51.7579V8.47212H397.041C399.081 8.47212 400.138 7.40456 400.138 5.34436V3.20924C400.138 1.14904 399.081 0.00469451 397.041 0.00469451" fill="#858686"/>
<path d="M268.586 0.00472937H247.618C245.152 0.00472937 243.155 2.02279 243.155 4.51189C243.155 7.00286 245.153 9.01998 247.618 9.01998H267.605C267.525 9.02747 267.443 9.04152 267.362 9.04995C267.766 9.02373 268.173 9.00593 268.586 9.00593C278.858 9.00593 286.262 17.0932 286.262 27.6208C286.262 38.6054 278.859 46.9979 268.587 46.9979C258.323 46.9979 250.916 38.6073 250.916 27.6208C250.916 21.0562 253.799 15.4422 258.453 12.1449C258.388 12.1918 258.314 12.2292 258.249 12.2854H251.973C249.942 12.2854 248.245 10.8994 247.708 9.01717C243.397 13.8867 240.893 20.3857 240.893 27.6152C240.893 43.5536 252.371 55.9898 268.613 55.9898C284.856 55.9898 296.334 43.5536 296.334 27.6058C296.334 12.1168 284.856 -0.0102539 268.613 -0.0102539" fill="#858686"/>
<path d="M247.691 9.0199L247.688 9.02231C247.688 9.02231 247.692 9.02231 247.693 9.0199" fill="#858686"/>
<path d="M251.957 12.2863H258.238C258.303 12.2367 258.377 12.1927 258.442 12.1459C260.954 10.3666 263.977 9.26627 267.352 9.04995C267.426 9.04058 267.509 9.02747 267.593 9.01904H247.678V9.02841L247.669 9.03777C248.206 10.92 249.903 12.306 251.934 12.306" fill="#858686"/>
<path d="M395.599 50.8729H396.016C396.502 50.8729 396.897 50.7099 396.897 50.311C396.897 49.9598 396.641 49.7248 396.086 49.7248C395.854 49.7248 395.697 49.7435 395.604 49.7716V50.8673L395.599 50.8729ZM395.575 53.0511H394.694V49.2116C395.042 49.1461 395.529 49.0992 396.155 49.0992C396.873 49.0992 397.198 49.221 397.477 49.3802C397.69 49.5487 397.847 49.8484 397.847 50.223C397.847 50.6444 397.523 50.9722 397.059 51.1126V51.1594C397.43 51.2999 397.643 51.5809 397.755 52.0959C397.875 52.6859 397.94 52.92 398.033 53.0604H397.087C396.976 52.92 396.902 52.5735 396.791 52.124C396.726 51.7026 396.494 51.5153 396.002 51.5153H395.585V53.0604L395.575 53.0511ZM393.234 51.0377C393.234 52.7514 394.486 54.1093 396.201 54.1093C397.87 54.1093 399.099 52.7514 399.099 51.0658C399.099 49.3615 397.875 47.9755 396.179 47.9755C394.491 47.9755 393.24 49.3615 393.24 51.0471L393.234 51.0377ZM400.073 51.0377C400.073 53.2196 398.385 54.924 396.179 54.924C394 54.924 392.266 53.2196 392.266 51.0377C392.266 48.912 394.009 47.1982 396.188 47.1982C398.394 47.1982 400.082 48.912 400.082 51.0377" fill="#858686"/>
</g>
<defs>
<clipPath id="clip0_3995_16184">
<rect width="400" height="56" fill="white" transform="translate(0.125488)"/>
</clipPath>
</defs>
</svg>
