<svg width="330" height="56" viewBox="0 0 330 56" fill="none" xmlns="http://www.w3.org/2000/svg">
<g clip-path="url(#clip0_3995_16051)">
<path fill-rule="evenodd" clip-rule="evenodd" d="M329.868 46.2664H329.358V42.3476L327.829 46.2664H327.447L325.918 42.3476V46.2664H325.408V41.842H326.427L327.702 45.1287L328.976 41.842H329.996V46.2664H329.868ZM324.516 42.2212H323.114V46.1399H322.604V42.2212H321.203V41.842H324.643V42.2212H324.516ZM68.8874 29.5801C68.8874 36.6591 72.8378 43.8646 80.7386 43.8646C88.6393 43.8646 92.5897 36.7855 92.5897 29.5801C92.5897 22.5011 88.6393 15.2957 80.7386 15.2957C72.8378 15.2957 68.8874 22.3747 68.8874 29.5801ZM96.5401 29.4537C96.5401 39.0609 90.9331 47.1512 80.6111 47.1512C70.2891 47.1512 64.6821 39.0609 64.6821 29.4537C64.6821 19.8465 70.2891 11.7562 80.6111 11.7562C90.9331 11.8826 96.5401 19.9729 96.5401 29.4537ZM95.903 12.7675H100.491L111.067 42.0948H111.195L121.517 12.7675H125.722L113.106 46.1399H108.774L95.903 12.7675ZM151.463 27.1783C151.208 20.9842 147.385 15.2957 140.759 15.2957C134.005 15.2957 130.31 21.1106 129.672 27.1783H151.463ZM129.672 30.5914C129.8 36.5327 132.858 43.7381 140.759 43.7381C146.748 43.7381 150.062 40.1986 151.336 35.1422H155.414C153.63 42.7269 149.17 47.1512 140.759 47.1512C130.055 47.1512 125.595 38.9345 125.595 29.4537C125.595 20.605 130.055 11.7562 140.759 11.7562C151.591 11.7562 155.923 21.1106 155.541 30.465C155.541 30.5914 129.672 30.5914 129.672 30.5914ZM197.721 22.6275C197.466 17.5711 193.643 15.2957 188.928 15.2957C185.233 15.2957 181.028 16.6862 181.028 21.1106C181.028 24.7765 185.233 26.0406 188.036 26.7991L193.516 28.0632C198.231 28.8217 203.073 31.4763 203.073 37.2912C203.073 44.4966 195.81 47.2776 189.565 47.2776C181.792 47.2776 176.44 43.6117 175.675 35.5214H179.753C180.136 41.0835 184.213 43.8646 189.693 43.8646C193.516 43.8646 198.868 42.2212 198.868 37.544C198.868 33.6253 195.172 32.3612 191.477 31.4763L186.252 30.3386C180.9 28.9481 176.822 27.0519 176.822 21.3634C176.822 14.5372 183.576 12.009 189.438 12.009C196.192 12.009 201.544 15.5485 201.799 22.7539C201.926 22.6275 197.721 22.6275 197.721 22.6275ZM213.14 12.7675H220.022V16.1806H213.14V38.6817C213.14 41.3363 213.523 42.8533 216.454 43.1061C217.601 43.1061 218.747 42.9797 220.022 42.8533V46.3928C218.747 46.3928 217.601 46.5192 216.326 46.5192C210.847 46.5192 208.935 44.7494 209.063 39.0609V16.307H205.112V12.8939H209.063V2.78104H213.14V12.7675ZM224.864 29.5801C224.864 36.6591 228.815 43.8646 236.715 43.8646C244.616 43.8646 248.566 36.7855 248.566 29.5801C248.566 22.5011 244.616 15.2957 236.715 15.2957C228.815 15.2957 224.864 22.3747 224.864 29.5801ZM252.644 29.4537C252.644 39.0609 247.037 47.1512 236.715 47.1512C226.393 47.1512 220.786 39.0609 220.786 29.4537C220.786 19.8465 226.393 11.7562 236.715 11.7562C247.037 11.7562 252.644 19.9729 252.644 29.4537ZM281.699 23.2596C280.552 18.3296 277.494 15.1693 272.141 15.1693C264.241 15.1693 260.29 22.2483 260.29 29.4537C260.29 36.5327 264.241 43.7381 272.141 43.7381C277.239 43.7381 281.444 39.8194 281.954 34.2573H286.032C284.885 42.3476 279.66 47.1512 272.141 47.1512C261.819 47.1512 256.212 39.0609 256.212 29.4537C256.212 19.8465 261.819 11.7562 272.141 11.7562C279.278 11.7562 284.885 15.5485 285.777 23.2596H281.699ZM290.364 0H294.442V28.9481L313.047 12.7675H318.527L304.127 25.1558L319.419 46.1399H314.321L301.196 28.0632L294.569 33.6253V46.2664H290.492L290.364 0ZM174.783 12.5147C170.068 13.1467 166.5 16.0542 164.716 20.605H164.589V12.7675H160.766V46.1399H164.844V28.4424C164.844 22.3747 168.794 17.4447 174.656 16.5598L174.783 12.5147Z" fill="#858686"/>
<path fill-rule="evenodd" clip-rule="evenodd" d="M0.456543 0.126465V29.4538C4.78923 17.6976 16.8953 8.84881 29.1287 8.84881C42.764 8.84881 51.4293 19.7201 48.4984 33.2461C46.3321 43.6118 37.7941 52.4605 27.8544 56.0001H56.9089V0.126465H0.456543Z" fill="#858686"/>
<path fill-rule="evenodd" clip-rule="evenodd" d="M39.5783 33.2461C39.5783 21.6163 32.5695 12.1355 24.0316 12.1355C15.4936 12.1355 8.35742 21.6163 8.35742 33.2461C8.35742 44.8759 15.3662 54.3567 23.9041 54.3567C32.4421 54.3567 39.5783 44.8759 39.5783 33.2461Z" fill="#858686"/>
</g>
<defs>
<clipPath id="clip0_3995_16051">
<rect width="329.412" height="56" fill="white" transform="translate(0.456543)"/>
</clipPath>
</defs>
</svg>
