<svg width="237" height="64" viewBox="0 0 237 64" fill="none" xmlns="http://www.w3.org/2000/svg">
<path d="M130.525 15.6052C141.106 15.6052 148.567 22.8098 148.567 32.8168C148.567 42.8239 141.11 49.9669 130.525 49.9669C119.941 49.9669 112.61 42.7623 112.61 32.8168C112.61 22.8713 119.941 15.6052 130.525 15.6052ZM130.525 41.3611C135.563 41.3611 139.005 38.1723 139.005 32.8168C139.005 27.4613 135.18 24.211 130.525 24.211C125.87 24.211 122.172 27.3348 122.172 32.8168C122.172 37.6631 125.552 41.3611 130.525 41.3611Z" fill="#858686"/>
<path d="M189.231 2.05066C192.229 2.05066 194.395 4.19698 194.395 7.03026C194.395 10.0071 192.229 12.15 189.231 12.15C185.981 12.15 184.002 10.0071 184.002 7.03026C184.002 4.05344 186.169 2.05066 189.231 2.05066ZM184.576 16.2307H193.821V49.3825H184.576V16.2307Z" fill="#858686"/>
<path d="M197.994 16.2307H204.307V8.51697H213.552V16.2307H223.542V24.8365H213.552V35.6091C213.552 39.6249 214.444 41.1561 216.932 41.1561C219.098 41.1561 220.821 40.3905 222.605 38.9893L227.315 44.8267C225.018 47.2499 220.565 49.7619 216.04 49.7619C209.091 49.7619 204.31 45.999 204.31 38.3501V24.8331H197.998V16.2273L197.994 16.2307Z" fill="#858686"/>
<path d="M179.791 20.284C177.525 18.1104 172.826 15.301 166.151 15.301C156.647 15.301 151.055 19.2314 151.055 25.6772C151.055 35.6808 166.989 35.9235 170.752 38.1313C171.432 38.5107 171.835 39.0404 171.592 39.8094C170.885 42.0275 161.954 43.1109 155.368 36.7437L149.996 43.1485C152.388 46.3167 157.665 50.0352 166.227 50.0352C174.18 50.0352 181.056 46.8123 181.056 39.4676C181.056 32.8817 174.921 30.233 169.467 28.6814C167.915 28.2541 166.415 27.9021 165.116 27.5535C162.966 27.0033 160.085 26.3847 160.546 24.7783C161.384 21.8596 170.97 23.6881 174.323 26.7572L179.802 20.2875L179.791 20.284Z" fill="#858686"/>
<path d="M76.6177 16.3093H85.8763V18.0352C87.5988 16.4391 90.7294 15.6086 93.2858 15.6086C103.375 15.6086 109.636 22.5705 109.636 32.4067C109.636 42.2428 103.122 50.0318 93.0295 50.0318C89.8374 50.0318 86.8981 49.5226 85.8763 48.3708V62.2945H76.6177V16.3093ZM85.8763 27.9944V38.5961C86.8981 40.1273 89.1333 41.4055 91.7513 41.4055C96.9257 41.4055 100.053 38.1484 100.053 33.1039C100.053 27.2289 97.1171 24.2281 92.2605 24.2281C89.1948 24.2281 87.0895 25.7592 85.8763 27.9944Z" fill="#858686"/>
<path d="M14.4427 26.1352L17.1803 24.9151L29.5593 19.3989L32.2593 18.1959L62.1642 4.8634V20.9437L50.0723 26.1352L47.3382 24.9151L59.9803 19.4844V8.25035L34.9592 19.3989L32.2593 20.6054L19.9316 26.0976L17.1974 27.3177L8.47542 31.2037V34.0882L17.0641 37.9195L19.7983 39.1396L32.4506 44.7754L35.137 45.9716L59.9803 57.045V45.6913L47.4715 40.3221L50.2091 39.102L62.1642 44.2354V60.4285L32.4609 47.1883L29.778 45.9921L17.047 40.3221L14.3094 39.102L6.28809 35.5237V29.7717L14.4427 26.1352Z" fill="#858686"/>
<path d="M35.0447 32.5879L47.3211 27.3178L44.5836 26.0977L29.467 32.5879L44.7169 39.1396L47.451 37.9195L35.0447 32.5879Z" fill="#858686"/>
<path d="M17.0642 37.9195L19.7984 39.1396L32.2593 33.7875L29.4705 32.5879L17.0642 37.9195Z" fill="#858686"/>
<path d="M19.9317 26.0977L17.1975 27.3178L29.4705 32.5879L32.2593 31.3917L19.9317 26.0977Z" fill="#858686"/>
<path d="M50.0725 26.1352L47.3384 24.9151L34.9594 19.3989L32.2594 18.1959L2.35449 4.8634V20.9437L14.4429 26.1352L17.1805 24.9151L4.53841 19.4844V8.25035L29.5595 19.3989L32.2594 20.6054L44.5871 26.0976L47.3213 27.3177L56.0433 31.2037V34.0882L47.4546 37.9195L44.7204 39.1396L32.068 44.7754L29.3817 45.9716L4.53841 57.045V45.6913L17.0472 40.3221L14.3096 39.102L2.35449 44.2354V60.4285L32.0578 47.1883L34.7407 45.9921L47.4717 40.3221L50.2092 39.102L58.2306 35.5237V29.7717L50.0725 26.1352Z" fill="#858686"/>
<path d="M233.61 19.0913C233.61 20.7489 232.308 22.0476 230.616 22.0476C228.924 22.0476 227.605 20.7455 227.605 19.0913C227.605 17.4372 228.942 16.1692 230.616 16.1692C232.291 16.1692 233.61 17.4713 233.61 19.0913ZM228.354 19.0913C228.354 20.3935 229.314 21.4256 230.633 21.4256C231.953 21.4256 232.862 20.3935 232.862 19.1084C232.862 17.8234 231.918 16.757 230.616 16.757C229.314 16.757 228.354 17.8097 228.354 19.0913ZM230.155 20.6225H229.478V17.7003C229.745 17.6456 230.121 17.6115 230.599 17.6115C231.153 17.6115 231.402 17.7003 231.614 17.8268C231.775 17.9498 231.898 18.1822 231.898 18.4693C231.898 18.7906 231.648 19.0401 231.293 19.146V19.1802C231.577 19.2861 231.737 19.5015 231.826 19.8911C231.915 20.3354 231.97 20.5131 232.041 20.6225H231.31C231.221 20.5165 231.166 20.2499 231.078 19.9116C231.023 19.5903 230.845 19.4468 230.473 19.4468H230.151V20.6225H230.155ZM230.172 18.9649H230.493C230.866 18.9649 231.17 18.8418 231.17 18.5377C231.17 18.2711 230.975 18.0934 230.548 18.0934C230.37 18.0934 230.244 18.1104 230.175 18.1275V18.9649H230.172Z" fill="#858686"/>
</svg>
