<svg width="226" height="64" viewBox="0 0 226 64" fill="none" xmlns="http://www.w3.org/2000/svg">
<path d="M68.3608 30.5121V40.7055C67.1441 42.6806 64.7893 44.657 62.2342 44.657C59.4894 44.657 57.784 42.8619 57.784 39.9721C57.784 35.9428 61.3049 33.7965 64.3726 32.3774L68.3608 30.5121ZM74.9476 44.4655C73.5692 44.4655 73.2996 43.4521 73.2996 41.7019V24.1747C73.2996 18.2058 69.9391 14.6422 64.3109 14.6422C57.5886 14.6422 54.5324 19.8267 54.4857 24.9654L54.4835 25.1765H58.9541L58.951 24.964C58.9261 23.132 59.552 21.428 60.6692 20.2889C61.5821 19.3578 62.7592 18.8658 64.0732 18.8658C66.7581 18.8658 68.3608 20.9725 68.3608 24.5014V26.1361L62.9622 28.6992C56.8423 31.5636 52.8306 33.893 52.8306 39.9352C52.8306 45.2397 56.1671 48.8037 61.1334 48.8037C63.9488 48.8037 66.6355 47.4108 68.7384 44.8708C69.4536 47.3775 71.3157 48.8037 73.9037 48.8037C74.8135 48.8037 75.7796 48.6042 76.6969 48.2264L76.8271 48.1726V43.8584L76.5188 44.0268C76.0746 44.269 75.5438 44.5108 74.9476 44.4655Z" fill="#858686"/>
<path d="M100.109 4.9411H95.1705L94.9977 15.294H90.7021V19.7647H95.1705V41.2559C95.1705 46.08 97.4227 48.7373 101.512 48.7373C103.118 48.7373 104.702 48.2862 106.352 47.3586L106.459 47.2982V42.8395L106.119 43.1177C105.06 43.9844 103.856 44.4617 102.728 44.4617C100.564 44.4617 100.109 42.6586 100.109 41.1457V19.7647H107.164V15.294H100.109V4.9411Z" fill="#858686"/>
<path d="M42.727 40.3778C40.8644 43.0805 38.7242 44.5685 36.695 44.5685C34.0332 44.5685 33.0848 41.9556 33.0848 39.5107V15.2941H28.1465V39.6613C28.1465 45.3449 30.7309 48.6045 35.2379 48.6045C38.9445 48.6045 41.3819 46.584 42.8491 44.6983L42.9327 48H47.6658V15.2941H42.727V40.3778Z" fill="#858686"/>
<path d="M16.8581 22.8518V40.8039C15.4975 43.2657 13.8454 44.4128 11.663 44.4128C7.6211 44.4128 5.57148 40.143 5.57148 31.7212C5.57148 23.6256 7.87696 18.9825 11.8962 18.9825C14.1173 18.9825 16.0616 20.4998 16.8581 22.8518ZM17.4303 18.274C16.1962 15.9833 13.9201 14.6882 11.0638 14.6882C8.31629 14.6882 5.78915 16.0487 3.94788 18.5185C1.69481 21.5402 0.552734 25.9834 0.552734 31.7234C0.552734 44.2839 5.62168 48.759 10.3659 48.759C13.0494 48.759 15.378 47.6533 16.8581 45.7021V64H21.7969V15.294H17.5658L17.4303 18.274Z" fill="#858686"/>
<path d="M80.8252 48.2354H85.764V1.14441e-05H80.8252V48.2354Z" fill="#858686"/>
<path d="M130.447 48.0002H135.385V15.2943H130.447V48.0002Z" fill="#858686"/>
<path d="M130.447 10.5881H135.385V4.941H130.447V10.5881Z" fill="#858686"/>
<path d="M116.84 19.1698L116.593 15.2942H111.868V48.2352H116.807V24.5445C116.807 24.5445 121.922 19.42 124.673 19.4195L125.743 19.5129V14.588H124.504C121.021 14.7302 119.108 15.8195 116.84 19.1698Z" fill="#858686"/>
<path d="M175.281 28.6723L175.156 28.8434L175.254 28.6581L175.252 28.6568C172.175 27.0679 169.997 25.7288 169.997 22.9581C169.997 20.5585 171.695 18.9461 174.222 18.9461C175.575 18.9461 176.715 19.4158 177.519 20.3052C178.503 21.3941 178.961 23.0856 178.775 24.9456L178.752 25.1763H183.292L183.302 24.9768C183.45 21.8932 182.558 19.1732 180.79 17.3176C179.167 15.6145 176.913 14.714 174.269 14.714C168.978 14.714 165.282 18.2194 165.282 23.2385C165.282 28.7065 169.663 31.0523 172.861 32.7648C176.046 34.495 179.055 36.1288 179.055 39.5404C179.055 42.4168 176.963 44.5044 174.082 44.5044C170.944 44.5044 168.688 41.8657 168.596 38.0875L168.591 37.8826H164.017L164.021 38.0968C164.169 44.7355 168.024 48.8586 174.082 48.8586C179.876 48.8586 183.769 45.02 183.769 39.307C183.769 33.1683 179.259 30.7799 175.281 28.6723Z" fill="#858686"/>
<path d="M156.164 37.8824C156.065 40.2096 155.432 42.1291 154.353 43.2536C153.585 44.0545 152.613 44.4602 151.462 44.4602C147.714 44.4602 145.734 40.0918 145.734 31.8269C145.734 23.6015 147.785 19.0717 151.508 19.0717C152.58 19.0717 153.487 19.4486 154.206 20.1926C155.214 21.2357 155.819 23.0148 155.927 25.1766H160.536C160.481 21.7553 159.561 19.0148 157.833 17.2143C156.309 15.6259 154.244 14.821 151.693 14.821C144.711 14.821 140.865 20.8441 140.865 31.7806C140.865 42.7167 144.595 48.7394 151.369 48.7394C156.823 48.7394 160.236 44.7087 160.666 37.8824H156.164Z" fill="#858686"/>
<path d="M189.917 45.316C189.804 45.38 189.636 45.412 189.416 45.412H188.769V44.4706H189.416C189.636 44.4706 189.804 44.5097 189.917 44.5857C190.032 44.6617 190.089 44.7893 190.089 44.9671C190.089 45.1373 190.032 45.252 189.917 45.316ZM190.669 45.5173C190.771 45.3346 190.822 45.1231 190.822 44.8813C190.822 44.5328 190.717 44.2604 190.507 44.0626C190.296 43.8644 189.99 43.7648 189.586 43.7648H187.829V47.2942H188.769V46.1177H189.488L190.128 47.2942H190.944L190.191 45.9235C190.409 45.8355 190.57 45.7 190.669 45.5173Z" fill="#858686"/>
<path d="M191.565 46.5543C191.437 46.8631 191.263 47.1303 191.041 47.3551C190.822 47.58 190.561 47.7529 190.261 47.872C189.959 47.9929 189.64 48.0534 189.305 48.0534C188.959 48.0534 188.636 47.9929 188.336 47.872C188.035 47.7529 187.774 47.58 187.555 47.3551C187.333 47.1303 187.159 46.8631 187.031 46.5543C186.902 46.2471 186.838 45.9027 186.838 45.5267C186.838 45.1574 186.902 44.8182 187.031 44.5094C187.159 44.2005 187.333 43.9338 187.555 43.7089C187.774 43.4836 188.035 43.3125 188.336 43.1916C188.636 43.0707 188.959 43.0102 189.305 43.0102C189.64 43.0102 189.959 43.0707 190.261 43.1916C190.561 43.3125 190.822 43.4836 191.041 43.7089C191.263 43.9338 191.437 44.2005 191.565 44.5094C191.694 44.8182 191.758 45.1574 191.758 45.5267C191.758 45.9027 191.694 46.2471 191.565 46.5543ZM192.167 44.256C192.006 43.8751 191.786 43.5489 191.504 43.2756C191.224 43.0036 190.894 42.7902 190.513 42.6373C190.132 42.4867 189.721 42.4093 189.279 42.4093C188.838 42.4093 188.429 42.4867 188.048 42.6373C187.667 42.7902 187.335 43.0036 187.055 43.2756C186.774 43.5489 186.554 43.8751 186.393 44.256C186.232 44.6374 186.153 45.06 186.153 45.5267C186.153 45.9916 186.232 46.4165 186.393 46.8014C186.554 47.1871 186.774 47.5178 187.055 47.7951C187.335 48.072 187.667 48.2867 188.048 48.4378C188.429 48.5907 188.838 48.6663 189.279 48.6663C189.721 48.6663 190.132 48.5907 190.513 48.4378C190.894 48.2867 191.224 48.072 191.504 47.7951C191.786 47.5178 192.006 47.1871 192.167 46.8014C192.327 46.4165 192.407 45.9916 192.407 45.5267C192.407 45.06 192.327 44.6374 192.167 44.256Z" fill="#858686"/>
<path d="M199.214 14.3509L204.526 5.52951V22.9998L199.214 14.3509ZM219.368 4.70595L215.117 19.7647H215.062L210.499 4.70595H205.167H204.675H200.524L197.069 10.85L193.412 4.70595H188.284L194.249 14.3602L187.703 25.1763H192.56L196.735 18.0571L201.058 25.1763H204.745H206.026H208.759V11.0589H208.812C208.92 11.6495 209.021 12.1558 209.115 12.5767C209.209 12.9975 209.3 13.3873 209.39 13.7451C209.479 14.1038 209.576 14.4438 209.679 14.7664C209.782 15.0887 209.886 15.4424 209.994 15.8273L213.015 25.1763H217.082L220.066 15.8322C220.285 15.0802 220.489 14.3553 220.677 13.6571C220.866 12.9589 221.03 12.1713 221.17 11.294H221.223V25.1763H225.456V4.70595H219.368Z" fill="#858686"/>
</svg>
