<svg width="127" height="64" viewBox="0 0 127 64" fill="none" xmlns="http://www.w3.org/2000/svg">
<g clip-path="url(#clip0_3995_16119)">
<path d="M24.4754 17.7219C24.4754 19.6292 23.7907 21.1511 22.4098 22.276C21.0375 23.4095 19.1819 23.9734 16.8516 23.9734H7.32899V11.5221H16.7998C19.2366 11.5221 21.1267 12.0399 22.4616 13.0871C23.808 14.1257 24.4754 15.6735 24.4754 17.7219ZM37.692 5.66755V42.5986H44.1277V5.66755H37.692ZM106.125 15.567C106.125 14.3702 106.637 13.3518 107.665 12.5146C108.692 11.6774 110.127 11.2574 111.974 11.2574C113.617 11.2574 115.239 11.5739 116.848 12.2068C117.843 12.5981 118.844 13.0986 119.854 13.7057L123.631 9.09972C122.219 8.15033 120.734 7.39083 119.181 6.82119C117.078 6.05306 114.71 5.66755 112.078 5.66755C110.3 5.66755 108.657 5.91497 107.161 6.41267C105.656 6.9075 104.373 7.6181 103.306 8.54159C102.239 9.46509 101.399 10.5669 100.783 11.8501C100.176 13.1332 99.8681 14.5601 99.8681 16.1338C99.8681 17.8082 100.133 19.2294 100.662 20.3916C101.191 21.5539 101.971 22.5464 102.978 23.3664C103.988 24.1863 105.242 24.871 106.732 25.4176C108.228 25.9642 109.929 26.4619 111.853 26.905C113.528 27.3164 114.888 27.7076 115.939 28.0845C116.983 28.4614 117.803 28.8613 118.41 29.29C119.008 29.7186 119.42 30.1876 119.641 30.6996C119.863 31.2117 119.975 31.7929 119.975 32.4431C119.975 33.8441 119.402 34.9575 118.257 35.7774C117.112 36.5973 115.565 37.0087 113.614 37.0087C111.358 37.0087 109.339 36.606 107.561 35.8033C106.249 35.2107 104.949 34.4281 103.657 33.4557L99.8968 38.0415C101.652 39.4023 103.525 40.4524 105.51 41.1918C108.041 42.1325 110.691 42.6015 113.462 42.6015C115.343 42.6015 117.069 42.3627 118.643 41.8822C120.208 41.4047 121.557 40.7027 122.671 39.7792C123.79 38.8557 124.661 37.728 125.294 36.3931C125.919 35.0582 126.235 33.5363 126.235 31.8274C126.235 30.3228 125.988 29.0138 125.49 27.9033C124.995 26.7928 124.259 25.8175 123.301 24.9803C122.343 24.1431 121.129 23.4325 119.676 22.8514C118.223 22.2703 116.546 21.7409 114.667 21.2605C112.949 20.8491 111.537 20.4578 110.418 20.0809C109.307 19.7041 108.436 19.2955 107.794 18.8496C107.161 18.4037 106.727 17.9261 106.485 17.414C106.246 16.9019 106.125 16.2863 106.125 15.567ZM32.2316 42.5986L22.2602 28.6168C23.5606 28.2658 24.7487 27.7652 25.8218 27.1121C26.8949 26.4619 27.8184 25.6708 28.5923 24.7387C29.3662 23.8065 29.9732 22.7334 30.4134 21.5194C30.8536 20.3053 31.0722 18.9244 31.0722 17.3766C31.0722 15.5843 30.7558 13.956 30.1228 12.4974C29.4899 11.0388 28.5837 9.80744 27.407 8.80339C26.2275 7.80223 24.7861 7.02833 23.0801 6.48172C21.3741 5.9351 19.4667 5.66467 17.3551 5.66467H0.893311V42.5957H7.32899V29.7215H15.4793L24.579 42.5957H32.2287L32.2316 42.5986Z" fill="#858686"/>
<path fill-rule="evenodd" clip-rule="evenodd" d="M64.6142 13.7775C66.1303 13.1014 67.8162 12.7505 69.5769 12.8051L69.7495 10.2936C67.5314 10.2073 65.4082 10.6503 63.5066 11.5163L64.6142 13.7775ZM60.0629 17.4657C61.0669 16.0877 62.3731 14.9484 63.8748 14.14L62.7672 11.8788C60.8684 12.8828 59.2257 14.3155 57.9714 16.0589L60.0629 17.4629V17.4657ZM57.9685 22.9348C58.1526 21.1827 58.728 19.5601 59.6055 18.1504L57.5168 16.7465C56.4035 18.5129 55.6727 20.5555 55.4569 22.765L57.9685 22.9376V22.9348ZM56.6221 29.825L58.8834 28.7174C58.2073 27.2012 57.8563 25.5154 57.911 23.7547L55.3994 23.5821C55.3131 25.8002 55.7561 27.9233 56.6221 29.825ZM56.9846 30.5644C57.9886 32.4631 59.4213 34.1059 61.1648 35.3602L62.5687 33.2687C61.1906 32.2646 60.0514 30.9585 59.243 29.4567L56.9817 30.5644H56.9846ZM61.8466 35.8176C63.613 36.931 65.6556 37.6617 67.8651 37.8775L68.0377 35.3659C66.2857 35.1818 64.6631 34.6064 63.2534 33.729L61.8495 35.8205L61.8466 35.8176ZM68.685 37.9322C70.9031 38.0185 73.0263 37.5754 74.9279 36.7095L73.8203 34.4482C72.3042 35.1243 70.6183 35.4753 68.8576 35.4177L68.685 37.9293V37.9322ZM75.6673 36.3498C77.5661 35.3458 79.2088 33.9131 80.4631 32.1697L78.3716 30.7657C77.3676 32.1438 76.0615 33.2831 74.5597 34.0915L75.6673 36.3527V36.3498ZM80.9235 31.485C82.0368 29.7185 82.7676 27.6759 82.9833 25.4665L80.4718 25.2938C80.2877 27.0459 79.7123 28.6685 78.8348 30.0782L80.9263 31.4821L80.9235 31.485ZM80.5236 24.4739L83.0351 24.6465C83.1214 22.4284 82.6784 20.3053 81.8124 18.4036L79.5512 19.5112C80.2272 21.0274 80.5782 22.7132 80.5207 24.4739H80.5236ZM75.8658 14.9599C77.2439 15.964 78.3831 17.2701 79.1915 18.7719L81.4528 17.6642C80.4488 15.7655 79.0161 14.1228 77.2726 12.8684L75.8687 14.9599H75.8658ZM70.673 8.85511C73.1558 9.09102 75.4487 9.90806 77.428 11.1653L79.1915 8.54152C76.7663 6.98511 73.9469 5.97819 70.8888 5.702L70.673 8.85511ZM56.7285 15.2246C58.1267 13.2626 59.9737 11.6515 62.1084 10.5324L60.7188 7.69283C58.0893 9.05649 55.8166 11.0387 54.1048 13.4611L56.7285 15.2246ZM53.9581 22.6586C54.194 20.1758 55.011 17.8829 56.2682 15.9036L53.6445 14.14C52.0881 16.5653 51.0811 19.3846 50.805 22.4428L53.9581 22.6586ZM52.4333 31.8762L55.2728 30.4867C54.2975 28.3549 53.797 25.9728 53.9034 23.4814L50.7503 23.2656C50.6093 26.3295 51.225 29.264 52.4362 31.8762H52.4333ZM52.7958 32.6127C54.1595 35.2422 56.1417 37.515 58.564 39.2268L60.3276 36.603C58.3655 35.2048 56.7544 33.3578 55.6353 31.2232L52.7958 32.6127ZM59.2458 39.6871C61.6711 41.2435 64.4905 42.2504 67.5486 42.5266L67.7644 39.3735C65.2816 39.1376 62.9887 38.3205 61.0094 37.0633L59.2458 39.6871ZM68.3686 42.5841C71.4325 42.7251 74.367 42.1094 76.9792 40.8983L75.5896 38.0587C73.4578 39.034 71.0757 39.5346 68.5843 39.4282L68.3686 42.5813V42.5841ZM77.7186 40.5358C80.3481 39.1721 82.6208 37.1899 84.3326 34.7675L81.7089 33.004C80.3107 34.966 78.4637 36.5771 76.329 37.6962L77.7186 40.5358ZM84.534 24.7472L87.6871 24.963C87.8281 21.8991 87.2124 18.9646 86.0012 16.3524L83.1617 17.7419C84.137 19.8737 84.6376 22.2558 84.5311 24.7472H84.534ZM60.7275 5.84009C63.5958 4.5052 66.815 3.82913 70.181 3.99023L70.4515 0.0344659C66.3634 -0.175549 62.4536 0.64725 58.9812 2.27846L60.7246 5.84009H60.7275ZM80.7997 7.62379C83.4609 9.49666 85.6387 11.9938 87.1319 14.8851L90.6935 13.1388C88.8925 9.62325 86.2486 6.59385 83.0121 4.32971L80.7997 7.62091V7.62379ZM89.4622 37.2244C91.5508 34.0052 92.8972 30.245 93.2453 26.1655L89.2895 25.8951C88.9932 29.2525 87.8827 32.3509 86.171 35.0092L89.4622 37.2216V37.2244ZM70.3997 12.8627C72.1517 13.0468 73.7743 13.6222 75.1869 14.4996L76.5908 12.4081C74.8244 11.2947 72.7818 10.564 70.5723 10.3482L70.3997 12.8598V12.8627Z" fill="#858686"/>
<path d="M125.87 56.3185H110.274V57.0089H125.87V56.3185Z" fill="#858686"/>
<path d="M19.4668 50.1389H20.1688V54.3594H19.4668V50.1389Z" fill="#858686"/>
<path d="M29.5878 50.1389V54.3594H28.6039L23.2557 50.7949V54.3594H22.5537V50.1389H23.5376L28.8829 53.7034V50.1389H29.5878Z" fill="#858686"/>
<path d="M39.0067 50.1389V50.8438H35.8421V54.3594H35.1373V50.8438H31.9727V50.1389H39.0096H39.0067Z" fill="#858686"/>
<path d="M48.4259 50.1389V50.8438H42.0909V51.8967H48.4259V52.6016H42.0909V53.6574H48.4259V54.3594H41.3889V50.1389H48.4259Z" fill="#858686"/>
<path d="M51.5128 50.1389V53.6574H57.8477V54.3594H50.8108V50.1389H51.5128Z" fill="#858686"/>
<path d="M60.932 50.1389V53.6574H67.2669V54.3594H60.23V50.1389H60.932Z" fill="#858686"/>
<path d="M69.6489 50.1389H70.3509V54.3594H69.6489V50.1389Z" fill="#858686"/>
<path d="M73.9642 54.3594C73.6248 54.3594 73.3371 54.2386 73.0925 53.9998C72.8537 53.7581 72.7329 53.4676 72.7329 53.131V51.3703C72.7329 51.0308 72.8537 50.7431 73.0925 50.5043C73.3313 50.2656 73.6248 50.1418 73.9642 50.1418H78.714C79.0046 50.1418 79.2549 50.2454 79.4591 50.4526C79.6634 50.6597 79.7699 50.9071 79.7699 51.1977H79.065C79.065 51.1027 79.0305 51.0193 78.9614 50.9503C78.8924 50.8812 78.809 50.8467 78.714 50.8467H73.9642C73.8175 50.8467 73.6938 50.8985 73.5931 50.9992C73.4924 51.0999 73.4378 51.2264 73.4378 51.3703V53.131C73.4378 53.2777 73.4895 53.4014 73.5931 53.5021C73.6967 53.6057 73.8204 53.6574 73.9642 53.6574H78.5357C78.6824 53.6574 78.8061 53.6057 78.9097 53.5021C79.0132 53.4014 79.0621 53.2748 79.0621 53.131V52.6016H76.9534V51.8968H79.767V53.131C79.767 53.4704 79.6461 53.7581 79.4045 53.9998C79.1628 54.2415 78.8751 54.3594 78.5328 54.3594H73.9614H73.9642Z" fill="#858686"/>
<path d="M89.189 50.1389V50.8438H82.8541V51.8967H89.189V52.6016H82.8541V53.6574H89.189V54.3594H82.1521V50.1389H89.189Z" fill="#858686"/>
<path d="M98.608 50.1389V54.3594H97.6212L92.273 50.7949V54.3594H91.571V50.1389H92.5549L97.9003 53.7034V50.1389H98.6051H98.608Z" fill="#858686"/>
<path d="M108.027 50.1389V50.8438H104.862V54.3594H104.158V50.8438H100.993V50.1389H108.03H108.027Z" fill="#858686"/>
<path d="M37.0159 58.7208V62.9413H36.311V59.6817L33.3219 62.3573L30.3299 59.6817V62.9413H29.6279V58.7208H30.3098L33.3219 61.4136L36.334 58.7208H37.0159Z" fill="#858686"/>
<path d="M43.7393 58.7208L47.4534 62.9413H46.5155L45.897 62.2393H40.9573L40.3388 62.9413H39.4009L43.115 58.7208H43.7422H43.7393ZM41.573 61.5373H45.2813L43.4257 59.4314L41.573 61.5373Z" fill="#858686"/>
<path d="M56.8751 62.9442H51.9498C51.3687 62.9442 50.8739 62.7371 50.4596 62.3257C50.0453 61.9143 49.8411 61.4166 49.8411 60.8354C49.8411 60.2543 50.0482 59.7566 50.4596 59.3423C50.871 58.928 51.3687 58.7238 51.9498 58.7238H56.8751V59.4286H51.9498C51.5615 59.4286 51.2306 59.5667 50.9544 59.84C50.6782 60.1162 50.5402 60.447 50.5402 60.8354C50.5402 61.2238 50.6782 61.5546 50.9544 61.8308C51.2306 62.107 51.5615 62.2451 51.9498 62.2451H56.8751V62.9471V62.9442Z" fill="#858686"/>
<path d="M66.2943 58.7208V62.9413H65.5895V61.1835H59.9622V62.9413H59.2603V58.7208H59.9622V60.4786H65.5895V58.7208H66.2943Z" fill="#858686"/>
<path d="M68.6763 58.7208H69.3782V62.9413H68.6763V58.7208Z" fill="#858686"/>
<path d="M78.7975 58.7208V62.9413H77.8107L72.4625 59.3768V62.9413H71.7605V58.7208H72.7444L78.0897 62.2853V58.7208H78.7946H78.7975Z" fill="#858686"/>
<path d="M88.2164 58.7208V59.4257H81.8814V60.4786H88.2164V61.1835H81.8814V62.2393H88.2164V62.9413H81.1794V58.7208H88.2164Z" fill="#858686"/>
<path d="M90.777 62.9442V62.2422H96.4014C96.5481 62.2422 96.6718 62.1904 96.7754 62.0869C96.879 61.9862 96.9279 61.8596 96.9279 61.7157C96.9279 61.5719 96.8761 61.4453 96.7754 61.3417C96.6718 61.2382 96.5452 61.1893 96.4014 61.1893H91.83C91.4905 61.1893 91.2028 61.0684 90.9582 60.8268C90.7195 60.588 90.5986 60.2974 90.5986 59.9579C90.5986 59.6185 90.7195 59.3308 90.9582 59.092C91.197 58.8532 91.4905 58.7295 91.83 58.7295H97.4572V59.4343H91.83C91.6832 59.4343 91.5595 59.4861 91.4588 59.5868C91.3581 59.6875 91.3035 59.8141 91.3035 59.9579C91.3035 60.1018 91.3553 60.2284 91.4588 60.3319C91.5624 60.4355 91.6861 60.4844 91.83 60.4844H96.4014C96.7409 60.4844 97.0314 60.6052 97.2731 60.8469C97.5148 61.0857 97.6356 61.3763 97.6356 61.7186C97.6356 62.061 97.5148 62.3458 97.2731 62.5874C97.0314 62.8291 96.7437 62.9471 96.4014 62.9471H90.777V62.9442Z" fill="#858686"/>
<path d="M16.6761 56.3157H1.08032V57.0061H16.6761V56.3157Z" fill="#858686"/>
</g>
<defs>
<clipPath id="clip0_3995_16119">
<rect width="125.339" height="64" fill="white" transform="translate(0.893311)"/>
</clipPath>
</defs>
</svg>
