<svg width="301" height="56" viewBox="0 0 301 56" fill="none" xmlns="http://www.w3.org/2000/svg">
<g clip-path="url(#clip0_3995_16182)">
<path d="M36.6953 35.84L45.3203 51.6133H29.2891L21.9766 38.1733H15.0391V51.6133H0.507812V3.92H27.1328C38.1953 3.92 45.1328 9.98667 45.1328 21C45.2266 28 41.9453 33.04 36.6953 35.84ZM15.1328 16.3333V25.76H25.5391C28.6328 25.76 30.5078 23.9867 30.5078 21C30.5078 18.0133 28.6328 16.3333 25.5391 16.3333H15.1328ZM91.6328 55.0667L48.0391 43.4L59.6641 0L81.5078 5.88L103.352 11.76L91.6328 55.0667ZM83.3828 23.1467L71.1953 19.7867L67.9141 31.92L80.1016 35.28L83.3828 23.1467ZM153.32 38.1733C153.32 47.32 147.508 51.6133 138.32 51.6133H109.727V3.92H137.383C146.477 3.92 152.383 8.58667 152.383 16.8C152.383 21.9333 150.508 25.3867 146.852 27.72C150.977 29.5867 153.32 33.1333 153.32 38.1733ZM123.977 15.3067V22.4H133.445C136.07 22.4 137.57 21.28 137.57 18.76C137.57 16.4267 136.07 15.3067 133.445 15.3067H123.977ZM123.977 40.1333H134.664C137.195 40.1333 138.602 38.8267 138.602 36.4933C138.602 33.9733 137.195 32.8533 134.664 32.8533H123.977V40.1333ZM160.539 3.92H175.164V37.4267H196.07V51.52H160.539V3.92ZM249.695 27.72C249.695 32.6667 248.195 37.4267 245.477 41.5333C242.758 45.64 238.82 48.8133 234.32 50.68C229.727 52.5467 224.758 53.0133 219.883 52.08C215.008 51.1467 210.602 48.72 207.133 45.2667C203.664 41.8133 201.227 37.4267 200.289 32.5733C199.352 27.72 199.82 22.7733 201.695 18.2933C203.57 13.72 206.758 9.89333 210.883 7.18667C215.008 4.48 219.789 2.98667 224.758 2.98667C228.039 2.98667 231.32 3.64 234.32 4.85333C237.32 6.06667 240.133 7.93333 242.383 10.2667C244.727 12.6 246.508 15.3067 247.82 18.2933C249.039 21.28 249.695 24.4533 249.695 27.72ZM235.07 27.72C235.07 21.84 230.383 17.1733 224.664 17.1733C219.039 17.1733 214.258 21.84 214.258 27.72C214.258 33.6 218.945 38.2667 224.664 38.2667C230.383 38.36 235.07 33.6933 235.07 27.72ZM284.758 26.9733L300.508 51.6133H283.164L274.539 37.6133L265.633 51.6133H248.008L264.414 27.6267L249.32 3.92H266.664L274.633 16.8L282.32 3.92H299.57L284.758 26.9733Z" fill="#858686"/>
</g>
<defs>
<clipPath id="clip0_3995_16182">
<rect width="300" height="56" fill="white" transform="translate(0.507812)"/>
</clipPath>
</defs>
</svg>
