<svg width="215" height="64" viewBox="0 0 215 64" fill="none" xmlns="http://www.w3.org/2000/svg">
<g clip-path="url(#clip0_3995_16147)">
<path d="M83.9225 58.6596V60.736H82.998V46.9618H83.9225V53.2622C84.7545 51.9965 85.9776 50.8871 87.8834 50.8871C90.2016 50.8871 92.5625 52.7573 92.5625 55.8862V55.9218C92.5625 59.0578 90.2016 60.9565 87.8834 60.9565C85.9563 60.9565 84.7118 59.8614 83.9225 58.6525V58.6596ZM91.5669 55.9645V55.9289C91.5669 53.3973 89.8105 51.776 87.7909 51.776C85.7714 51.776 83.8656 53.4542 83.8656 55.9076V55.9431C83.8656 58.4178 85.7927 60.0747 87.7909 60.0747C89.7892 60.0747 91.5669 58.5458 91.5669 55.9645Z" fill="#858686"/>
<path d="M102.504 51.1146H103.521L99.3536 61.0773C98.5074 63.0968 97.5261 63.8151 96.1465 63.8151C95.407 63.8151 94.8807 63.68 94.2407 63.4026L94.5607 62.592C95.0727 62.8337 95.4852 62.9475 96.2034 62.9475C97.2061 62.9475 97.8603 62.3644 98.5785 60.6862L93.9563 51.1217H95.0301L99.0265 59.7262L102.497 51.1217L102.504 51.1146Z" fill="#858686"/>
<path d="M111.67 47.5236H117.594C119.101 47.5236 120.289 47.936 121.05 48.6898C121.633 49.2729 121.939 49.9911 121.939 50.88V50.9156C121.939 52.5014 121.035 53.3476 120.054 53.8596C121.604 54.3858 122.678 55.2747 122.678 57.0667V57.1023C122.678 59.4631 120.737 60.7218 117.793 60.7218H111.677V47.5165L111.67 47.5236ZM119.613 51.2569C119.613 50.2187 118.781 49.5787 117.295 49.5787H113.953V53.0916H117.124C118.618 53.0916 119.613 52.5085 119.613 51.2996V51.264V51.2569ZM117.629 55.0471H113.953V58.6667H117.8C119.386 58.6667 120.346 58.0409 120.346 56.8534V56.8178C120.346 55.7014 119.457 55.0471 117.629 55.0471Z" fill="#858686"/>
<path d="M125.032 50.7733H127.314V53.0204C127.94 51.5271 129.085 50.5102 130.842 50.5884V53.0062H130.706C128.708 53.0062 127.307 54.3076 127.307 56.9458V60.736H125.025V50.7733H125.032Z" fill="#858686"/>
<path d="M131.937 55.808V55.7725C131.937 52.9209 134.198 50.5671 137.256 50.5671C140.314 50.5671 142.561 52.8854 142.561 55.7369V55.7725C142.561 58.6027 140.299 60.9636 137.22 60.9636C134.141 60.9636 131.937 58.6454 131.937 55.8151V55.808ZM140.278 55.808V55.7725C140.278 54.016 139.012 52.5654 137.22 52.5654C135.428 52.5654 134.219 54.0018 134.219 55.7369V55.7725C134.219 57.5076 135.485 58.9583 137.256 58.9583C139.027 58.9583 140.278 57.5218 140.278 55.808Z" fill="#858686"/>
<path d="M144.218 57.8702V57.8347C144.218 55.68 145.896 54.6276 148.335 54.6276C149.451 54.6276 150.241 54.7982 151.016 55.04V54.7982C151.016 53.3831 150.148 52.6294 148.541 52.6294C147.425 52.6294 146.6 52.8711 145.69 53.2551L145.085 51.4631C146.18 50.9725 147.254 50.6525 148.84 50.6525C150.333 50.6525 151.442 51.0507 152.139 51.7689C152.879 52.4871 153.213 53.5396 153.213 54.848V60.7574H150.987V59.5129C150.305 60.3236 149.266 60.9636 147.745 60.9636C145.874 60.9636 144.218 59.8898 144.218 57.8845V57.8702ZM151.051 57.152V56.4694C150.468 56.2418 149.693 56.0711 148.79 56.0711C147.318 56.0711 146.45 56.6969 146.45 57.728V57.7636C146.45 58.7236 147.297 59.2711 148.392 59.2711C149.899 59.2711 151.051 58.4036 151.051 57.1378V57.152Z" fill="#858686"/>
<path d="M155.439 55.7725V55.7369C155.439 52.4373 157.686 50.5671 160.061 50.5671C161.704 50.5671 162.742 51.3778 163.46 52.3236V46.9618H165.743V60.736H163.46V59.0791C162.728 60.1173 161.69 60.9493 160.061 60.9493C157.722 60.9493 155.439 59.0791 155.439 55.7796V55.7725ZM163.496 55.7725V55.7369C163.496 53.8098 162.138 52.5511 160.609 52.5511C159.08 52.5511 157.743 53.76 157.743 55.7369V55.7725C157.743 57.6996 159.066 58.9582 160.609 58.9582C162.152 58.9582 163.496 57.6782 163.496 55.7725Z" fill="#858686"/>
<path d="M168.061 55.808V55.7725C168.061 52.9422 170.251 50.5671 173.252 50.5671C175.122 50.5671 176.289 51.264 177.234 52.288L175.798 53.8169C175.101 53.0774 174.361 52.5725 173.231 52.5725C171.574 52.5725 170.344 54.0089 170.344 55.744V55.7796C170.344 57.5503 171.567 58.9654 173.323 58.9654C174.397 58.9654 175.193 58.4747 175.912 57.7422L177.291 59.1005C176.31 60.1956 175.158 60.9707 173.217 60.9707C170.251 60.9707 168.068 58.6525 168.068 55.8222L168.061 55.808Z" fill="#858686"/>
<path d="M178.55 55.808V55.7725C178.55 52.9209 180.811 50.5671 183.869 50.5671C186.927 50.5671 189.174 52.8854 189.174 55.7369V55.7725C189.174 58.6027 186.913 60.9636 183.834 60.9636C180.754 60.9636 178.55 58.6454 178.55 55.8151V55.808ZM186.891 55.808V55.7725C186.891 54.016 185.626 52.5654 183.834 52.5654C182.042 52.5654 180.833 54.0018 180.833 55.7369V55.7725C180.833 57.5076 182.098 58.9583 183.869 58.9583C185.64 58.9583 186.891 57.5218 186.891 55.808Z" fill="#858686"/>
<path d="M191.492 50.7734H193.775V52.2809C194.415 51.3921 195.282 50.5601 196.811 50.5601C198.248 50.5601 199.265 51.2569 199.791 52.3165C200.58 51.2569 201.64 50.5601 203.147 50.5601C205.316 50.5601 206.639 51.9396 206.639 54.3716V60.7289H204.356V55.0685C204.356 53.4827 203.624 52.6365 202.337 52.6365C201.05 52.6365 200.203 53.5041 200.203 55.1112V60.7361H197.921V55.0543C197.921 53.5041 197.167 52.6365 195.901 52.6365C194.635 52.6365 193.768 53.5823 193.768 55.1112V60.7361H191.485V50.7734H191.492Z" fill="#858686"/>
<path d="M92.5556 30.7413L83.1973 4.68622C83.0765 4.32356 82.8987 3.84711 82.8987 3.43467C82.8987 2.304 83.8516 1.23022 85.224 1.23022C86.4187 1.23022 87.1938 2.01245 87.5493 3.136L95.3005 25.5858L103.108 3.072C103.464 2.00534 104.182 1.23022 105.37 1.23022H105.612C106.863 1.23022 107.645 2.01245 108.001 3.072L115.745 25.5858L123.624 3.01511C123.923 2.06222 124.577 1.23022 125.828 1.23022C127.08 1.23022 128.09 2.24 128.09 3.37778C128.09 3.79022 127.912 4.27378 127.791 4.63645L118.369 30.7484C117.885 32.1138 116.932 32.8249 115.866 32.8249H115.681C114.493 32.8249 113.597 32.1138 113.171 30.7484L105.491 8.60445L97.7396 30.7484C97.3271 32.1138 96.424 32.8249 95.2365 32.8249H95.1156C93.9849 32.8249 93.032 32.1138 92.5556 30.7484" fill="#858686"/>
<path d="M160.765 3.49858C160.765 2.23992 161.775 1.16614 163.026 1.16614C164.342 1.16614 165.359 2.17592 165.359 3.49858V8.78925C167.627 3.65503 172.655 1.23014 175.99 1.23014C177.362 1.23014 178.266 2.24703 178.266 3.55547C178.266 4.86392 177.426 5.70303 176.232 5.88792C170.258 6.60614 165.359 11.079 165.359 19.9893V30.4568C165.359 31.7084 164.406 32.7821 163.09 32.7821C161.775 32.7821 160.765 31.7653 160.765 30.4568V3.49858Z" fill="#858686"/>
<path d="M193.021 33.0666C184.708 33.0666 177.924 26.624 177.924 17.1662V17.0453C177.924 8.24887 184.068 1.15198 192.438 1.15198C201.384 1.15198 206.475 8.53331 206.475 16.64C206.475 17.8773 205.473 18.7662 204.371 18.7662H182.49C183.123 25.3866 187.745 29.1058 193.135 29.1058C196.883 29.1058 199.627 27.6338 201.853 25.5573C202.202 25.2658 202.614 25.0311 203.14 25.0311C204.243 25.0311 205.131 25.92 205.131 26.9866C205.131 27.5129 204.904 28.0462 204.42 28.4586C201.555 31.232 198.163 33.0666 193.014 33.0666M201.967 15.3884C201.498 9.83464 198.333 4.99198 192.31 4.99198C187.041 4.99198 183.059 9.4222 182.483 15.3884H201.96H201.967Z" fill="#858686"/>
<path d="M128.168 23.5022V23.3813C128.168 16.896 133.523 13.44 141.324 13.44C145.249 13.44 148.044 13.9804 150.796 14.7484V13.6746C150.796 8.13508 147.389 5.27642 141.622 5.27642C138.522 5.27642 136.723 5.67464 134.454 6.68442C134.156 6.8053 133.857 6.86219 133.622 6.86219C132.548 6.86219 131.588 5.96619 131.588 4.89953C131.588 3.94664 132.008 3.36353 132.847 2.98664C135.876 1.67108 138.159 1.2373 142.092 1.2373C146.436 1.2373 149.772 2.36086 152.033 4.62931C154.116 6.71286 155.19 9.69242 155.19 13.6177V30.6062C155.19 31.9146 154.237 32.8675 152.979 32.8675C151.72 32.8675 150.788 31.9146 150.788 30.72V27.7831C148.641 30.5849 145.071 33.088 139.66 33.088C133.942 33.088 128.161 29.8097 128.161 23.5022M150.845 21.12V18.1475C148.584 17.4933 145.54 16.832 141.793 16.832C136.026 16.832 132.804 19.3422 132.804 23.2035V23.3244C132.804 27.1929 136.374 29.4542 140.541 29.4542C146.195 29.4542 150.838 25.9982 150.838 21.12" fill="#858686"/>
<path d="M9.14214 3.15729C8.13237 0.952848 5.64348 -0.0569302 3.31814 0.988403C0.992811 2.01951 0.132367 4.60085 1.18481 6.81951L10.9555 28.0533C12.4915 31.3813 14.1128 33.1306 17.1493 33.1306C20.3919 33.1306 21.8141 31.2248 23.343 28.0533C23.343 28.0533 31.8693 9.49329 31.9475 9.3084C32.0399 9.10929 32.3101 8.51196 33.1777 8.51196C33.9101 8.51907 34.5288 9.10218 34.5288 9.8844V28.0391C34.5288 30.8337 36.079 33.1306 39.0657 33.1306C42.0524 33.1306 43.6595 30.8337 43.6595 28.0391V13.1911C43.6595 10.3253 45.7146 8.46929 48.5093 8.46929C51.3039 8.46929 53.167 10.3893 53.167 13.1911V28.0391C53.167 30.8337 54.7244 33.1306 57.7039 33.1306C60.6835 33.1306 62.3048 30.8337 62.3048 28.0391V13.1911C62.3048 10.3253 64.3528 8.46929 67.1475 8.46929C69.9421 8.46929 71.8053 10.3893 71.8053 13.1911V28.0391C71.8053 30.8337 73.3555 33.1306 76.3421 33.1306C79.3288 33.1306 80.943 30.8337 80.943 28.0391V11.136C80.943 4.92085 75.951 0.568848 69.9421 0.568848C63.9333 0.568848 60.1786 4.72885 60.1786 4.72885C58.1804 2.1404 55.4284 0.575959 50.7635 0.575959C45.8426 0.575959 41.5404 4.72885 41.5404 4.72885C39.535 2.1404 36.1359 0.575959 33.3199 0.575959C28.9608 0.575959 25.4977 2.48885 23.3928 7.3244L17.1493 22.0302L9.14214 3.15729Z" fill="#858686"/>
<path d="M206.845 4.99912V4.97067C206.845 2.89423 208.531 1.1449 210.65 1.1449C212.769 1.1449 214.461 2.8729 214.461 4.94934V4.97067C214.461 7.05423 212.783 8.80356 210.65 8.80356C208.516 8.80356 206.845 7.08267 206.845 4.99912ZM213.729 4.97067C213.729 3.2569 212.413 1.8489 210.65 1.8489C208.886 1.8489 207.563 3.27112 207.563 4.97067V4.99201C207.563 6.69867 208.886 8.09245 210.65 8.09245C212.413 8.09245 213.729 6.67023 213.729 4.96356" fill="#858686"/>
<path d="M209.199 3.47018C209.199 3.24263 209.377 3.05774 209.604 3.05774H210.877C211.354 3.05774 211.723 3.19285 211.951 3.44174C212.164 3.64085 212.278 3.93952 212.278 4.28085V4.29507C212.278 4.87818 211.979 5.23374 211.539 5.41863L212.1 6.10129C212.179 6.20085 212.228 6.28618 212.228 6.40707C212.228 6.62752 212.043 6.78396 211.844 6.78396C211.667 6.78396 211.546 6.69152 211.446 6.57774L210.657 5.57507H210.01V6.37863C210.01 6.60618 209.832 6.78396 209.604 6.78396C209.377 6.78396 209.199 6.60618 209.199 6.37863V3.47018ZM210.835 4.84974C211.233 4.84974 211.453 4.65063 211.453 4.33063V4.31641C211.453 3.97507 211.219 3.79018 210.827 3.79018H210.017V4.84974H210.835Z" fill="#858686"/>
</g>
<defs>
<clipPath id="clip0_3995_16147">
<rect width="214.756" height="64" fill="white" transform="translate(0.231934)"/>
</clipPath>
</defs>
</svg>
