<svg width="207" height="56" viewBox="0 0 207 56" fill="none" xmlns="http://www.w3.org/2000/svg">
<g clip-path="url(#clip0_3995_16099)">
<path d="M48.973 38.2298L48.9442 38.1378L67.25 21.3793V13.3046H37.8812V21.3793H55.4233L55.4521 21.4566L37.3252 38.2298V46.3046H67.5448V38.2298H48.973Z" fill="#858686"/>
<path d="M85.5715 12.5356C82.1839 12.5356 79.423 13.0466 77.2888 14.0684C75.3012 14.9589 73.6266 16.4262 72.4827 18.2798C71.3887 20.1456 70.7014 22.2218 70.4667 24.3721L79.3777 25.6244C79.7001 23.7258 80.345 22.38 81.3118 21.5871C82.4112 20.7577 83.7659 20.3386 85.1412 20.4025C86.9497 20.4025 88.2615 20.886 89.0772 21.853C89.8847 22.82 90.2957 24.1594 90.2957 25.9242V26.8042H81.7277C77.3662 26.8042 74.2331 27.7712 72.3283 29.7052C70.4231 31.6393 69.4723 34.1923 69.4756 37.3641C69.4756 40.6133 70.4264 43.031 72.3283 44.6167C74.2298 46.2028 76.6218 46.991 79.5037 46.9811C83.0782 46.9811 85.828 45.7515 87.7522 43.2921C88.8887 41.7805 89.7002 40.0505 90.1359 38.2103H90.4599L91.6882 46.2848H99.763V25.8372C99.763 21.6112 98.6491 18.3379 96.4219 16.017C94.1942 13.6961 90.5777 12.5356 85.5715 12.5356ZM88.3954 37.7413C87.114 38.8098 85.4364 39.3417 83.3475 39.3417C81.626 39.3417 80.4302 39.0403 79.7598 38.4375C79.4333 38.1523 79.1731 37.7987 78.9985 37.4018C78.8239 37.0049 78.7387 36.5743 78.7494 36.1408C78.73 35.732 78.7947 35.3235 78.9384 34.9403C79.0821 34.5571 79.3024 34.2072 79.5857 33.9118C79.892 33.6245 80.2535 33.4022 80.6484 33.2584C81.0433 33.1147 81.4629 33.0524 81.8825 33.0753H90.3101V33.6314C90.3274 34.4174 90.1635 35.1967 89.8316 35.9093C89.4993 36.6219 89.0081 37.2487 88.3954 37.7413Z" fill="#858686"/>
<path d="M148.585 13.3046H139.045V46.3092H148.585V13.3046Z" fill="#858686"/>
<path d="M204.906 13.3046C202.212 13.3046 200.087 14.2555 198.534 16.1573C197.418 17.524 196.57 19.5435 195.99 22.2157H195.71L194.463 13.3046H186.315V46.3046H195.855V29.3814C195.855 27.2475 196.355 25.6116 197.354 24.4738C198.353 23.3359 200.197 22.767 202.885 22.767H206.507V13.3046H204.906Z" fill="#858686"/>
<path d="M176.858 14.3834C174.63 13.0586 171.821 12.3978 168.43 12.401C163.092 12.401 158.915 13.9209 155.898 16.9606C152.88 20.0003 151.372 24.1907 151.372 29.5319C151.295 32.7611 152 35.961 153.427 38.8589C154.733 41.4413 156.767 43.5845 159.277 45.0236C161.804 46.4841 164.81 47.2158 168.295 47.2187C171.309 47.2187 173.826 46.7547 175.847 45.8265C177.747 44.9927 179.402 43.6858 180.653 42.0309C181.845 40.4061 182.73 38.5774 183.264 36.6348L175.045 34.3332C174.699 35.5965 174.033 36.7489 173.111 37.6791C172.182 38.6075 170.627 39.0717 168.444 39.0717C165.85 39.0717 163.916 38.3287 162.642 36.8427C161.719 35.7693 161.139 34.2365 160.882 32.2493H183.39C183.482 31.3209 183.53 30.5425 183.53 29.9139V27.8589C183.585 25.0984 183.014 22.3611 181.862 19.852C180.784 17.5662 179.039 15.66 176.858 14.3834ZM168.155 20.2678C172.023 20.2678 174.216 22.1712 174.735 25.9781H161.052C161.269 24.7079 161.795 23.5106 162.585 22.492C163.839 21.0059 165.695 20.2646 168.155 20.2678Z" fill="#858686"/>
<path d="M143.917 0.00309596C143.199 -0.0213112 142.484 0.0987943 141.814 0.356283C141.143 0.613772 140.532 1.00338 140.015 1.50196C139.506 2.00531 139.106 2.60911 138.842 3.27497C138.579 3.94085 138.456 4.65426 138.483 5.37003C138.457 6.09041 138.58 6.80836 138.844 7.47909C139.108 8.14985 139.507 8.75898 140.017 9.26845C140.527 9.77793 141.137 10.1768 141.808 10.4403C142.479 10.7038 143.197 10.8262 143.917 10.7998C144.633 10.8269 145.347 10.7046 146.013 10.4407C146.678 10.1768 147.282 9.77711 147.785 9.26709C148.284 8.75181 148.674 8.14096 148.93 7.47122C149.187 6.80149 149.306 6.08679 149.279 5.37003C149.312 4.65751 149.196 3.94594 148.939 3.28076C148.681 2.61558 148.288 2.01142 147.784 1.50683C147.28 1.00224 146.676 0.608321 146.011 0.350233C145.346 0.0921476 144.634 -0.0244247 143.922 0.00793578L143.917 0.00309596Z" fill="#858686"/>
<path d="M124.213 12.401C120.964 12.401 118.353 13.4212 116.38 15.4616C114.92 16.9734 113.848 19.2298 113.165 22.2308H112.86L111.613 13.3196H103.465V55.7917H113.005V38.298H113.353C113.645 39.4644 114.053 40.5984 114.572 41.6825C115.379 43.4486 116.702 44.9289 118.368 45.9278C120.094 46.8699 122.039 47.3389 124.005 47.2867C127.999 47.2867 131.04 45.7314 133.129 42.6205C135.218 39.51 136.262 35.1697 136.262 29.5996C136.262 24.2197 135.252 20.0083 133.231 16.9654C131.21 13.9225 128.204 12.401 124.213 12.401ZM125.18 36.3156C124.068 37.9273 122.327 38.7332 119.958 38.7332C118.981 38.7783 118.008 38.59 117.118 38.1839C116.228 37.7777 115.449 37.1655 114.843 36.3978C113.608 34.8474 112.992 32.7247 112.996 30.0299V29.4014C112.996 26.6647 113.611 24.5694 114.843 23.1157C116.074 21.6619 117.779 20.9431 119.958 20.9592C122.369 20.9592 124.121 21.7248 125.214 23.2559C126.307 24.787 126.853 26.9225 126.853 29.6624C126.86 32.4958 126.305 34.7135 125.19 36.3156H125.18Z" fill="#858686"/>
<path d="M33.6307 38.2296H0.625977V46.3141H33.6307V38.2296Z" fill="#858686"/>
</g>
<defs>
<clipPath id="clip0_3995_16099">
<rect width="205.882" height="56" fill="white" transform="translate(0.625977)"/>
</clipPath>
</defs>
</svg>
