<?xml version="1.0" encoding="UTF-8" standalone="no"?>
<svg
   xmlns:dc="http://purl.org/dc/elements/1.1/"
   xmlns:cc="http://creativecommons.org/ns#"
   xmlns:rdf="http://www.w3.org/1999/02/22-rdf-syntax-ns#"
   xmlns:svg="http://www.w3.org/2000/svg"
   xmlns="http://www.w3.org/2000/svg"
   xmlns:xlink="http://www.w3.org/1999/xlink"
   xmlns:sodipodi="http://sodipodi.sourceforge.net/DTD/sodipodi-0.dtd"
   xmlns:inkscape="http://www.inkscape.org/namespaces/inkscape"
   width="400"
   height="15"
   viewBox="0 0 36.32 1.3636364"
   version="1.1"
   id="svg54"
   sodipodi:docname="cockroach-labs.svg"
   inkscape:version="1.0.1 (c497b03c, 2020-09-10)">
  <metadata
     id="metadata58">
    <rdf:RDF>
      <cc:Work
         rdf:about="">
        <dc:format>image/svg+xml</dc:format>
        <dc:type
           rdf:resource="http://purl.org/dc/dcmitype/StillImage" />
        <dc:title></dc:title>
      </cc:Work>
    </rdf:RDF>
  </metadata>
  <sodipodi:namedview
     pagecolor="#ffffff"
     bordercolor="#666666"
     borderopacity="1"
     objecttolerance="10"
     gridtolerance="10"
     guidetolerance="10"
     inkscape:pageopacity="0"
     inkscape:pageshadow="2"
     inkscape:window-width="1627"
     inkscape:window-height="684"
     id="namedview56"
     showgrid="false"
     inkscape:zoom="0.4208"
     inkscape:cx="1226.2357"
     inkscape:cy="198.88213"
     inkscape:window-x="0"
     inkscape:window-y="534"
     inkscape:window-maximized="0"
     inkscape:current-layer="svg54" />
  <defs
     id="defs35">
    <path
       id="a"
       d="M 85.946,0 H 0 V 34 H 171.892 V 0 Z" />
  </defs>
  <g
     fill="none"
     fill-rule="evenodd"
     id="g52"
     transform="translate(0,-16.909085)">
    <mask
       id="b"
       fill="#ffffff">
      <use
         xlink:href="#a"
         id="use39"
         x="0"
         y="0"
         width="100%"
         height="100%" />
    </mask>
    <path
       fill="#151f34"
       d="m 20.42,10.17 a 15.39,15.39 0 0 1 -3.507,0.4 c -1.205,0 -2.382,-0.136 -3.512,-0.4 a 15.633,15.633 0 0 1 3.512,-3.913 15.708,15.708 0 0 1 3.508,3.913 z M 31.03,1.574 A 17.218,17.218 0 0 0 26.589,1 17.401,17.401 0 0 0 16.909,3.925 17.38,17.38 0 0 0 7.229,1 C 5.694,1 4.202,1.196 2.787,1.574 A 16.22,16.22 0 0 0 1.044,2.131 0.07,0.07 0 0 0 1.006,2.224 c 0.248,0.538 0.524,1.059 0.821,1.563 0.016,0.028 0.05,0.04 0.08,0.029 a 15.449,15.449 0 0 1 5.32,-0.932 c 2.955,0 5.719,0.826 8.08,2.25 a 17.517,17.517 0 0 0 -3.776,4.48 16.89,16.89 0 0 0 -1.325,2.768 17.424,17.424 0 0 0 -1.094,6.09 c 0,4.948 2.07,9.422 5.387,12.606 0.258,0.254 0.526,0.493 0.808,0.727 0.22,0.19 0.44,0.368 0.67,0.54 0.289,0.23 0.59,0.441 0.893,0.643 a 0.068,0.068 0 0 0 0.077,0 c 0.302,-0.207 0.6,-0.418 0.889,-0.643 0.234,-0.172 0.454,-0.35 0.674,-0.54 0.277,-0.234 0.555,-0.478 0.813,-0.727 3.312,-3.184 5.383,-7.663 5.383,-12.605 a 17.386,17.386 0 0 0 -1.544,-7.176 19.591,19.591 0 0 0 -0.326,-0.693 19.917,19.917 0 0 0 -0.55,-0.99 17.614,17.614 0 0 0 -3.776,-4.48 15.594,15.594 0 0 1 8.079,-2.25 15.449,15.449 0 0 1 5.32,0.932 c 0.031,0.01 0.065,-0.002 0.081,-0.03 A 18.7,18.7 0 0 0 32.81,2.225 0.07,0.07 0 0 0 32.772,2.131 C 32.202,1.917 31.622,1.725 31.03,1.574 Z"
       id="path46" />
    <path
       fill="#348540"
       d="m 22.822,18.474 c 0,4.134 -1.617,7.895 -4.255,10.688 A 15.665,15.665 0 0 1 17.851,24.48 c 0,-4.134 1.617,-7.902 4.255,-10.688 0.464,1.479 0.716,3.052 0.716,4.682"
       id="path48" />
    <path
       fill="#7dbc42"
       d="m 15.966,24.48 c 0,1.627 -0.25,3.2 -0.716,4.682 A 15.515,15.515 0 0 1 10.995,18.474 c 0,-1.63 0.255,-3.203 0.722,-4.682 a 15.497,15.497 0 0 1 4.249,10.688"
       id="path50" />
  </g>
</svg>
