<svg xmlns="http://www.w3.org/2000/svg" width="300" height="100" viewBox="0 0 566.93 303.577" class="prefix__siteHeader-logoLink-svg">
  <defs>
    <clipPath clipPathUnits="userSpaceOnUse" id="prefix__a">
      <path d="M0 1000h1200V0H0z"></path>
    </clipPath>
    <clipPath clipPathUnits="userSpaceOnUse" id="prefix__b">
      <path d="M362.705 603.329h118.769v-52.24H362.705z"></path>
    </clipPath>
    <clipPath clipPathUnits="userSpaceOnUse" id="prefix__c">
      <path d="M0 1000h1200V0H0z"></path>
    </clipPath>
    <clipPath clipPathUnits="userSpaceOnUse" id="prefix__d">
      <path d="M421.984 499.541h89.949v-102.87h-89.949z"></path>
    </clipPath>
    <clipPath clipPathUnits="userSpaceOnUse" id="prefix__e">
      <path d="M0 1000h1200V0H0z"></path>
    </clipPath>
    <clipPath clipPathUnits="userSpaceOnUse" id="prefix__f">
      <path d="M482.121 448.821h58.632v-50.645h-58.632z"></path>
    </clipPath>
    <clipPath clipPathUnits="userSpaceOnUse" id="prefix__g">
      <path d="M0 1000h1200V0H0z"></path>
    </clipPath>
    <clipPath clipPathUnits="userSpaceOnUse" id="prefix__h">
      <path d="M510.988 500.32h89.003V396.738h-89.003z"></path>
    </clipPath>
  </defs>
  <path d="M40.466 81.437L1.097 149.645h-.28L-38.17 82.14z" fill="#83ff50" stroke="#83ff50" stroke-width="0.9999974999999999"></path>
  <g clip-path="url(#prefix__a)" transform="matrix(1.33333 0 0 -1.33333 -601.158 816.924)" fill="#96ff5b" fill-opacity="0.647" stroke-width="0" stroke-opacity="0.647">
    <g clip-path="url(#prefix__b)" opacity="0.83">
      <path d="M481.474 551.901l-.12-.21h-.09l-.046-.076-58.978-.526-.045.09h-59.069l-.42.722 29.691 51.427h59.385z"></path>
    </g>
  </g>
  <path d="M40.647 81.337l-.06.1-39.37 68.208h-.12l39.37-68.208.06-.1z" fill="#fff" stroke-width="0.75"></path>
  <path d="M1.358 150.588l-.161.282-39.428 68.268v.02h-79.18l-39.59-68.57 39.59-68.57h.421l39.028 67.628H.817z" fill="#00d6ff" stroke="#00d6ff" stroke-width="0.9999974999999999"></path>
  <path d="M.81 149.646h-78.777l-39.03-67.627h78.76z" fill="#7dffff" stroke="#7dffff" stroke-width="0.9999974999999999"></path>
  <path d="M41.048 217.433l.622 1.063h-1.143l-30.124.261-48.635.38 39.43-68.268h78.276z" fill="#32e6ff" stroke="#32e6ff" stroke-width="0.9999974999999999"></path>
  <g clip-path="url(#prefix__c)" transform="matrix(1.33333 0 0 -1.33333 -601.158 816.924)" fill="#00d5ff" fill-opacity="0.545">
    <g clip-path="url(#prefix__d)" opacity="0.86">
      <path d="M511.934 398.176l-.873-1.504h-59.384l-29.692 51.442.12.21v.016l29.572 51.2h.09l-29.572-51.2 36.476.285 22.593.197h.858l29.225-50.646z"></path>
    </g>
  </g>
  <path d="M41.048 217.433l.622 1.063h-1.143L1.48 150.869h77.995z" fill="#20e6ff" stroke="#20e6ff" stroke-width="0.9999974999999999"></path>
  <path d="M119.305 218.496H41.67l-.621-1.063 38.425-66.564h.783z" fill="#2af0ff" stroke="#2af0ff" stroke-width="0.9999974999999999"></path>
  <g clip-path="url(#prefix__e)" transform="matrix(1.33333 0 0 -1.33333 -601.158 816.924)" fill="#29efff" fill-opacity="0.8">
    <g clip-path="url(#prefix__f)" opacity="0.95">
      <path d="M540.753 448.114l-28.82-49.938h-.586l-29.226 50.645h58.226z"></path>
    </g>
  </g>
  <path d="M159.295 149.927l-39.59 68.57h-.4L80.255 150.87H1.48l-.543-.943.162-.281 39.368-68.208.061-.1h79.179l38.968 67.526z" fill="#32f8b9" stroke="#32f8b9" stroke-width="0.9999974999999999"></path>
  <g clip-path="url(#prefix__g)" transform="matrix(1.33333 0 0 -1.33333 -601.158 816.924)" fill="#32f6b8" fill-opacity="0.565">
    <g clip-path="url(#prefix__h)" opacity="0.85">
      <path d="M599.991 448.893L570.3 397.45l-59.31-.712 29.332 50.65-.407.707h.301l29.693 51.427-.467.798h.858z"></path>
    </g>
  </g>
  <path d="M248.739 212.698V87.311h53.794v18.998h-34.897v34.198h25.498v18.997h-25.498V193.7h34.897v18.998zM349.727 116.108l-7 49.394h14zm-9.928 67.793l-4.592 28.797H315.53l21.297-125.285h25.996l20.995 125.285H363.95l-4.418-28.797zM440.813 117.608c0-7.265-3.599-10.9-10.8-10.9h-11.397v40.098h11.397c3 0 5.55-1.066 7.649-3.2 2.1-2.133 3.151-4.7 3.151-7.7zm-11.297-30.194c10.53 0 18.262 2.898 23.194 8.698 4.334 5.065 6.5 12.13 6.5 21.196v18.2c0 8.863-3.367 16.363-10.099 22.496l13.997 54.693h-20.437l-11.457-47.194h-12.598v47.194h-18.897V87.414zM493.207 106.41h-20.098V87.412h58.994v18.996h-20V212.7h-18.896zM566.196 159.604v53.093h-18.897V87.414h18.897v53.192h22.797V87.414h18.898v125.283h-18.898v-53.093zM676.283 212.698H624.79V87.412h18.897v106.489h32.597zM691.182 160.204l-25.298-72.892h20.796l14 44.994 13.898-44.994h20.897l-25.397 72.892v52.493h-18.896z" fill="#090909"></path>
</svg>
