<svg width="241" height="51" viewBox="0 0 241 51" fill="none" xmlns="http://www.w3.org/2000/svg">
  <g clip-path="url(#clip0_4817_7760)">
    <path d="M36.7483 12.9163L29.5245 25.4539H29.4755L22.3252 13.0387L36.7483 12.9163Z" fill="#83FF50" stroke="#83FF50" stroke-width="0.244885" stroke-miterlimit="5.3333"/>
    <mask id="mask0_4817_7760" style="mask-type:luminance" maskUnits="userSpaceOnUse" x="2" y="-2" width="40" height="18">
      <path d="M41.6641 15.1727H2.87402V-1.89588H41.6641V15.1727Z" fill="white"/>
    </mask>
    <g mask="url(#mask0_4817_7760)">
      <g opacity="0.83">
        <path d="M36.8088 12.8457L36.7843 12.8947H36.7599V12.9192L22.3118 13.0416V13.0171H7.83916L7.74121 12.8457L15.0142 0.25873H29.5603L36.8088 12.8457Z" fill="#96FF5B" fill-opacity="0.6471"/>
      </g>
    </g>
    <path d="M36.7817 12.8974L29.5577 25.4354H29.5332L36.7573 12.8974H36.7817Z" fill="white"/>
    <path d="M29.5666 25.6164L29.5422 25.6654L22.2936 38.2034H7.77205L0.499023 25.6164L7.77205 13.0294H7.84551L14.9961 25.445H29.4687L29.5666 25.6164Z" fill="#00D6FF" stroke="#00D6FF" stroke-width="0.244885" stroke-miterlimit="5.3333"/>
    <path d="M29.464 25.4434H15.0159L7.84082 13.0278H22.3134L29.464 25.4434Z" fill="#7DFFFF" stroke="#7DFFFF" stroke-width="0.244885" stroke-miterlimit="5.3333"/>
    <path d="M36.8566 37.8934L36.979 38.0894H36.7586L31.2488 38.1383L22.3105 38.2118L29.5591 25.6738H43.9337L36.8566 37.8934Z" fill="#32E6FF" stroke="#32E6FF" stroke-width="0.244885" stroke-miterlimit="5.3333"/>
    <mask id="mask1_4817_7760" style="mask-type:luminance" maskUnits="userSpaceOnUse" x="18" y="21" width="30" height="35">
      <path d="M47.9342 55.0651H18.5723V21.4666H47.9342V55.0651Z" fill="white"/>
    </mask>
    <g mask="url(#mask1_4817_7760)">
      <g opacity="0.86">
        <path d="M44.2689 50.4914L44.0485 50.8588H29.5269L22.2539 38.2718L22.2784 38.2228L29.5269 25.6848H29.5514L22.3029 38.1983L31.2411 38.1248L36.7755 38.0759H36.9959L44.122 50.4914H44.2689Z" fill="#00D5FF" fill-opacity="0.5451"/>
      </g>
    </g>
    <path d="M36.8557 37.8935L36.9782 38.0894H36.7578L29.6074 25.6742H43.9326L36.8557 37.8935Z" fill="#20E6FF" stroke="#20E6FF" stroke-width="0.244885" stroke-miterlimit="5.3333"/>
    <path d="M51.2277 38.0884H36.976L36.8535 37.8925L43.9059 25.6732H44.0528L51.2277 38.0884Z" fill="#2AF0FF" stroke="#2AF0FF" stroke-width="0.244885" stroke-miterlimit="5.3333"/>
    <mask id="mask2_4817_7760" style="mask-type:luminance" maskUnits="userSpaceOnUse" x="34" y="36" width="20" height="17">
      <path d="M53.7387 52.566H34.5889V36.0364H53.7387V52.566Z" fill="white"/>
    </mask>
    <g mask="url(#mask2_4817_7760)">
      <g opacity="0.95">
        <path d="M51.3253 38.2618L44.2729 50.4811H44.1259L36.9756 38.0904H51.2273L51.3253 38.2618Z" fill="#29EFFF" fill-opacity="0.8"/>
      </g>
    </g>
    <path d="M58.5725 25.4949L51.2995 38.0819H51.226L44.0754 25.6663H29.6028L29.5049 25.4949L29.5294 25.4459L36.7534 12.9079V12.8834H51.2995L58.4501 25.2745L58.5725 25.4949Z" fill="#32F8B9" stroke="#32F8B9" stroke-width="0.244885" stroke-miterlimit="5.3333"/>
    <mask id="mask3_4817_7760" style="mask-type:luminance" maskUnits="userSpaceOnUse" x="40" y="21" width="30" height="35">
      <path d="M69.4812 55.0646H40.4131V21.2457H69.4812V55.0646Z" fill="white"/>
    </mask>
    <g mask="url(#mask3_4817_7760)">
      <g opacity="0.85">
        <path d="M65.8307 38.0716L58.5577 50.6586L44.0361 50.8545L51.2357 38.4389L51.1377 38.2675H51.2112L58.4842 25.6805L58.3618 25.4846H58.5822L65.8307 38.0716Z" fill="#32F6B8" fill-opacity="0.5647"/>
      </g>
    </g>
  </g>
  <path d="M75.0088 37.0156V13.9772H84.8715V17.4805H78.4741V23.7638H83.1579V27.2671H78.4741V33.5123H84.8715V37.0156H75.0088Z" fill="#090909"/>
  <path d="M93.5547 19.2757L92.26 28.3387H94.8494L93.5547 19.2757ZM91.7269 31.7279L90.8891 37.021H87.2715L91.1937 14.0206H95.9537L99.7998 37.021H96.1441L95.3445 31.7279H91.7269Z" fill="#090909"/>
  <path d="M110.286 19.5512C110.286 18.2183 109.639 17.5329 108.306 17.5329H106.211V24.8824H108.306C108.839 24.8824 109.334 24.692 109.715 24.3112C110.096 23.9304 110.286 23.4353 110.286 22.9022V19.5512ZM108.23 13.9915C110.172 13.9915 111.581 14.5246 112.495 15.5908C113.294 16.5047 113.675 17.8375 113.675 19.475V22.826C113.675 24.4635 113.066 25.8344 111.809 26.9768L114.399 37.0299H110.629L108.534 28.3476H108.23H106.211V37.0299H102.746V14.0295H108.23V13.9915Z" fill="#090909"/>
  <path d="M119.906 17.4942H116.212V13.9909H127.065V17.4942H123.371V37.0293H119.906V17.4942Z" fill="#090909"/>
  <path d="M133.314 27.2643V37.0128H129.849V14.0125H133.314V23.761H137.503V13.9744H140.968V36.9747H137.503V27.2643H133.314Z" fill="#090909"/>
  <path d="M153.531 37.0156H144.087V14.0153H147.552V33.5503H153.531V37.0156Z" fill="#090909"/>
  <path d="M156.267 27.3743L151.621 13.9701H155.429L158.019 22.2335L160.57 13.9701H164.416L159.732 27.3743V37.0085H156.267V27.3743Z" fill="#090909"/>
  <path d="M236.383 19.5512C236.383 18.2183 235.735 17.5329 234.402 17.5329H232.308V24.8824H234.402C234.936 24.8824 235.431 24.692 235.811 24.3112C236.192 23.9304 236.383 23.4353 236.383 22.9022V19.5512ZM234.326 13.9915C236.268 13.9915 237.677 14.5246 238.591 15.5908C239.391 16.5047 239.772 17.8375 239.772 19.475V22.826C239.772 24.4635 239.162 25.8344 237.906 26.9768L240.495 37.0299H236.725L234.631 28.3476H234.326H232.308V37.0299H228.843V14.0295H234.326V13.9915Z" fill="#49728B"/>
  <path d="M219.726 19.2757L218.431 28.3387H221.02L219.726 19.2757ZM217.898 31.7279L217.06 37.021H213.442L217.365 14.0206H222.125L225.971 37.021H222.315L221.515 31.7279H217.898Z" fill="#49728B"/>
  <path d="M202.916 24.6101V37.0128H199.451V14.0125H202.916L207.105 26.1569V13.9744H210.571V36.9747H207.105L202.916 24.6101Z" fill="#49728B"/>
  <path d="M190.593 37.0128C187.758 37.0128 185.459 34.714 185.459 31.8784V14.0125H188.924V31.4463C188.924 32.603 189.862 33.5407 191.019 33.5407C192.175 33.5407 193.113 32.603 193.113 31.4463V13.9744H196.578V31.8397C196.578 34.6819 194.286 36.9917 191.444 37.0128H190.593Z" fill="#49728B"/>
  <path d="M172.726 37.0156V13.9772H176.191V17.4805V23.7638V27.2671V33.5123H182.588V37.0156H172.726Z" fill="#49728B"/>
  <defs>
    <clipPath id="clip0_4817_7760">
      <rect width="69" height="51" fill="white"/>
    </clipPath>
  </defs>
</svg>
